<?xml version="1.0" encoding="UTF-8" standalone="no"?>
<!DOCTYPE svg PUBLIC "-//W3C//DTD SVG 1.1//EN"
 "http://www.w3.org/Graphics/SVG/1.1/DTD/svg11.dtd">
<!-- Generated by graphviz version 2.43.0 (0)
 -->
<!-- Title: Terraria.Netplay.AcceptedFamilyType Pages: 1 -->
<!--zoomable 278 -->

<svg id="main" version="1.1" xmlns="http://www.w3.org/2000/svg" xmlns:xlink="http://www.w3.org/1999/xlink" xml:space="preserve" onload="init(evt)">
<style type="text/css"><![CDATA[
.node, .edge {opacity: 0.7;}
.node.selected, .edge.selected {opacity: 1;}
.edge:hover path { stroke: red; }
.edge:hover polygon { stroke: red; fill: red; }
]]></style>

<defs>
  <circle id="rim" cx="0" cy="0" r="7"/>
  <circle id="rim2" cx="0" cy="0" r="3.5"/>
  <g id="zoomPlus">
    <use xlink:href="#rim" fill="#404040"><set attributeName="fill" to="#808080" begin="zoomplus.mouseover" end="zoomplus.mouseout"/></use>
    <path d="M-4,0h8M0,-4v8" fill="none" stroke="white" stroke-width="1.5" pointer-events="none"/>
  </g>
  <g id="zoomMin">
    <use xlink:href="#rim" fill="#404040"><set attributeName="fill" to="#808080" begin="zoomminus.mouseover" end="zoomminus.mouseout"/></use>
    <path d="M-4,0h8" fill="none" stroke="white" stroke-width="1.5" pointer-events="none"/>
  </g>
  <g id="arrowUp" transform="translate(30 24)">
    <use xlink:href="#rim"/>
    <path pointer-events="none" fill="none" stroke="white" stroke-width="1.5" d="M0,-3.0v7 M-2.5,-0.5L0,-3.0L2.5,-0.5"/>
  </g>
  <g id="arrowRight" transform="rotate(90) translate(36 -43)">
    <use xlink:href="#rim"/>
    <path pointer-events="none" fill="none" stroke="white" stroke-width="1.5" d="M0,-3.0v7 M-2.5,-0.5L0,-3.0L2.5,-0.5"/>
  </g>
  <g id="arrowDown" transform="rotate(180) translate(-30 -48)">
    <use xlink:href="#rim"/>
    <path pointer-events="none" fill="none" stroke="white" stroke-width="1.5" d="M0,-3.0v7 M-2.5,-0.5L0,-3.0L2.5,-0.5"/>
  </g>
  <g id="arrowLeft" transform="rotate(270) translate(-36 17)">
    <use xlink:href="#rim"/>
    <path pointer-events="none" fill="none" stroke="white" stroke-width="1.5" d="M0,-3.0v7 M-2.5,-0.5L0,-3.0L2.5,-0.5"/>
  </g>
  <g id="resetDef">
    <use xlink:href="#rim2" fill="#404040"><set attributeName="fill" to="#808080" begin="reset.mouseover" end="reset.mouseout"/></use>
  </g>
</defs>
<script type="application/ecmascript">
var viewWidth = 1458;
var viewHeight = 278;
var sectionId = 'dynsection-0';
</script>
<script type="application/ecmascript" xlink:href="../../svg.min.js"/>
<svg id="graph" class="graph">
<g id="viewport">
<title>Terraria.Netplay.AcceptedFamilyType</title>
<!-- Node1 -->
<g id="Node000001" class="node">
<title>Node1</title>
<g id="a_Node000001"><a xlink:title=" ">
<polygon fill="#999999" stroke="#666666" points="1450,-174.5 1309,-174.5 1309,-144.5 1450,-144.5 1450,-174.5"/>
<text text-anchor="start" x="1317" y="-162.5" font-family="Helvetica,sans-Serif" font-size="10.00">Terraria.Netplay.Accepted</text>
<text text-anchor="middle" x="1379.5" y="-151.5" font-family="Helvetica,sans-Serif" font-size="10.00">FamilyType</text>
</a>
</g>
</g>
<!-- Node2 -->
<g id="Node000002" class="node">
<title>Node2</title>
<g id="a_Node000002"><a xlink:href="../../db/d90/classTerraria_1_1Netplay_a0baae093367b56e104409dd591451cc3.html#a0baae093367b56e104409dd591451cc3" target="_top" xlink:title=" ">
<polygon fill="white" stroke="#666666" points="1267.5,-238.5 1128.5,-238.5 1128.5,-208.5 1267.5,-208.5 1267.5,-238.5"/>
<text text-anchor="start" x="1136.5" y="-226.5" font-family="Helvetica,sans-Serif" font-size="10.00">Terraria.Netplay.GetLocal</text>
<text text-anchor="middle" x="1198" y="-215.5" font-family="Helvetica,sans-Serif" font-size="10.00">IPAddress</text>
</a>
</g>
</g>
<!-- Node1&#45;&gt;Node2 -->
<g id="edge1_Node000001_Node000002" class="edge">
<title>Node1&#45;&gt;Node2</title>
<g id="a_edge1_Node000001_Node000002"><a xlink:title=" ">
<path fill="none" stroke="#63b8ff" d="M1326.69,-177.97C1299.54,-187.65 1266.7,-199.36 1241.13,-208.48"/>
<polygon fill="#63b8ff" stroke="#63b8ff" points="1328.17,-181.16 1336.42,-174.51 1325.82,-174.57 1328.17,-181.16"/>
</a>
</g>
</g>
<!-- Node9 -->
<g id="Node000009" class="node">
<title>Node9</title>
<g id="a_Node000009"><a xlink:href="../../db/d90/classTerraria_1_1Netplay_ac385fd28eeb34bb5a7c834f94c61e667.html#ac385fd28eeb34bb5a7c834f94c61e667" target="_top" xlink:title=" ">
<polygon fill="white" stroke="#666666" points="1273,-174.5 1123,-174.5 1123,-144.5 1273,-144.5 1273,-174.5"/>
<text text-anchor="start" x="1131" y="-162.5" font-family="Helvetica,sans-Serif" font-size="10.00">Terraria.Netplay.SetRemote</text>
<text text-anchor="middle" x="1198" y="-151.5" font-family="Helvetica,sans-Serif" font-size="10.00">IPAsyncCallback</text>
</a>
</g>
</g>
<!-- Node1&#45;&gt;Node9 -->
<g id="edge8_Node000001_Node000009" class="edge">
<title>Node1&#45;&gt;Node9</title>
<g id="a_edge8_Node000001_Node000009"><a xlink:title=" ">
<path fill="none" stroke="#63b8ff" d="M1298.57,-159.5C1290.09,-159.5 1281.49,-159.5 1273.07,-159.5"/>
<polygon fill="#63b8ff" stroke="#63b8ff" points="1298.84,-163 1308.84,-159.5 1298.84,-156 1298.84,-163"/>
</a>
</g>
</g>
<!-- Node16 -->
<g id="Node000016" class="node">
<title>Node16</title>
<g id="a_Node000016"><a xlink:href="../../db/d90/classTerraria_1_1Netplay_a17a1bb4f0adeea75707843697cad594c.html#a17a1bb4f0adeea75707843697cad594c" target="_top" xlink:title=" ">
<polygon fill="white" stroke="#666666" points="1273,-110.5 1123,-110.5 1123,-80.5 1273,-80.5 1273,-110.5"/>
<text text-anchor="start" x="1131" y="-98.5" font-family="Helvetica,sans-Serif" font-size="10.00">Terraria.Netplay.SetRemote</text>
<text text-anchor="middle" x="1198" y="-87.5" font-family="Helvetica,sans-Serif" font-size="10.00">IPOld</text>
</a>
</g>
</g>
<!-- Node1&#45;&gt;Node16 -->
<g id="edge16_Node000001_Node000016" class="edge">
<title>Node1&#45;&gt;Node16</title>
<g id="a_edge16_Node000001_Node000016"><a xlink:title=" ">
<path fill="none" stroke="#63b8ff" d="M1326.69,-141.03C1299.54,-131.35 1266.7,-119.64 1241.13,-110.52"/>
<polygon fill="#63b8ff" stroke="#63b8ff" points="1325.82,-144.43 1336.42,-144.49 1328.17,-137.84 1325.82,-144.43"/>
</a>
</g>
</g>
<!-- Node3 -->
<g id="Node000003" class="node">
<title>Node3</title>
<g id="a_Node000003"><a xlink:href="../../db/d90/classTerraria_1_1Netplay_a9c1fecf5ab11152a9a60c320eb20157a.html#a9c1fecf5ab11152a9a60c320eb20157a" target="_top" xlink:title=" ">
<polygon fill="white" stroke="#666666" points="1079,-270 936,-270 936,-251 1079,-251 1079,-270"/>
<text text-anchor="middle" x="1007.5" y="-258" font-family="Helvetica,sans-Serif" font-size="10.00">Terraria.Netplay.ClosePort</text>
</a>
</g>
</g>
<!-- Node2&#45;&gt;Node3 -->
<g id="edge2_Node000002_Node000003" class="edge">
<title>Node2&#45;&gt;Node3</title>
<g id="a_edge2_Node000002_Node000003"><a xlink:title=" ">
<path fill="none" stroke="#63b8ff" d="M1118.59,-238.89C1097.69,-242.99 1075.73,-247.3 1056.97,-250.99"/>
<polygon fill="#63b8ff" stroke="#63b8ff" points="1119.28,-242.32 1128.41,-236.96 1117.93,-235.45 1119.28,-242.32"/>
</a>
</g>
</g>
<!-- Node4 -->
<g id="Node000004" class="node">
<title>Node4</title>
<g id="a_Node000004"><a xlink:href="../../db/d90/classTerraria_1_1Netplay_a97804154a74723b82a4c816b99a8f8d9.html#a97804154a74723b82a4c816b99a8f8d9" target="_top" xlink:title=" ">
<polygon fill="white" stroke="#666666" points="1078,-233 937,-233 937,-214 1078,-214 1078,-233"/>
<text text-anchor="middle" x="1007.5" y="-221" font-family="Helvetica,sans-Serif" font-size="10.00">Terraria.Netplay.OpenPort</text>
</a>
</g>
</g>
<!-- Node2&#45;&gt;Node4 -->
<g id="edge3_Node000002_Node000004" class="edge">
<title>Node2&#45;&gt;Node4</title>
<g id="a_edge3_Node000002_Node000004"><a xlink:title=" ">
<path fill="none" stroke="#63b8ff" d="M1118.35,-223.5C1105.06,-223.5 1091.35,-223.5 1078.3,-223.5"/>
<polygon fill="#63b8ff" stroke="#63b8ff" points="1118.41,-227 1128.41,-223.5 1118.41,-220 1118.41,-227"/>
</a>
</g>
</g>
<!-- Node5 -->
<g id="Node000005" class="node">
<title>Node5</title>
<g id="a_Node000005"><a xlink:href="../../db/d90/classTerraria_1_1Netplay_a8a8e257f1a5d551a545c8b69b15cfedc.html#a8a8e257f1a5d551a545c8b69b15cfedc" target="_top" xlink:title=" ">
<polygon fill="white" stroke="#666666" points="870,-247.5 732,-247.5 732,-217.5 870,-217.5 870,-247.5"/>
<text text-anchor="start" x="740" y="-235.5" font-family="Helvetica,sans-Serif" font-size="10.00">Terraria.Netplay.Initialize</text>
<text text-anchor="middle" x="801" y="-224.5" font-family="Helvetica,sans-Serif" font-size="10.00">Server</text>
</a>
</g>
</g>
<!-- Node4&#45;&gt;Node5 -->
<g id="edge4_Node000004_Node000005" class="edge">
<title>Node4&#45;&gt;Node5</title>
<g id="a_edge4_Node000004_Node000005"><a xlink:title=" ">
<path fill="none" stroke="#63b8ff" d="M926.74,-227.01C908.09,-227.83 888.39,-228.7 870.29,-229.49"/>
<polygon fill="#63b8ff" stroke="#63b8ff" points="927.14,-230.5 936.98,-226.56 926.84,-223.5 927.14,-230.5"/>
</a>
</g>
</g>
<!-- Node6 -->
<g id="Node000006" class="node">
<title>Node6</title>
<g id="a_Node000006"><a xlink:href="../../db/d90/classTerraria_1_1Netplay_adf51a47dd15d464f9e066fe359cbdfc6.html#adf51a47dd15d464f9e066fe359cbdfc6" target="_top" xlink:title=" ">
<polygon fill="white" stroke="#666666" points="666.5,-242 515.5,-242 515.5,-223 666.5,-223 666.5,-242"/>
<text text-anchor="middle" x="591" y="-230" font-family="Helvetica,sans-Serif" font-size="10.00">Terraria.Netplay.StartServer</text>
</a>
</g>
</g>
<!-- Node5&#45;&gt;Node6 -->
<g id="edge5_Node000005_Node000006" class="edge">
<title>Node5&#45;&gt;Node6</title>
<g id="a_edge5_Node000005_Node000006"><a xlink:title=" ">
<path fill="none" stroke="#63b8ff" d="M721.72,-232.5C703.7,-232.5 684.59,-232.5 666.73,-232.5"/>
<polygon fill="#63b8ff" stroke="#63b8ff" points="721.89,-236 731.89,-232.5 721.89,-229 721.89,-236"/>
</a>
</g>
</g>
<!-- Node7 -->
<g id="Node000007" class="node">
<title>Node7</title>
<g id="a_Node000007"><a xlink:href="../../da/dd5/classTerraria_1_1Main_a290b6801aeb27a5fb4012a45f54043d2.html#a290b6801aeb27a5fb4012a45f54043d2" target="_top" xlink:title=" ">
<polygon fill="white" stroke="#666666" points="451.5,-247.5 326.5,-247.5 326.5,-217.5 451.5,-217.5 451.5,-247.5"/>
<text text-anchor="start" x="334.5" y="-235.5" font-family="Helvetica,sans-Serif" font-size="10.00">Terraria.Main.DedServ</text>
<text text-anchor="middle" x="389" y="-224.5" font-family="Helvetica,sans-Serif" font-size="10.00">_PostModLoad</text>
</a>
</g>
</g>
<!-- Node6&#45;&gt;Node7 -->
<g id="edge6_Node000006_Node000007" class="edge">
<title>Node6&#45;&gt;Node7</title>
<g id="a_edge6_Node000006_Node000007"><a xlink:title=" ">
<path fill="none" stroke="#63b8ff" d="M505.06,-232.5C487.11,-232.5 468.5,-232.5 451.61,-232.5"/>
<polygon fill="#63b8ff" stroke="#63b8ff" points="505.24,-236 515.24,-232.5 505.24,-229 505.24,-236"/>
</a>
</g>
</g>
<!-- Node8 -->
<g id="Node000008" class="node">
<title>Node8</title>
<g id="a_Node000008"><a xlink:href="../../da/dd5/classTerraria_1_1Main_acc7c7058447ffaab5490befcb8ff2bf4.html#acc7c7058447ffaab5490befcb8ff2bf4" target="_top" xlink:title=" ">
<polygon fill="white" stroke="#666666" points="270,-242 145,-242 145,-223 270,-223 270,-242"/>
<text text-anchor="middle" x="207.5" y="-230" font-family="Helvetica,sans-Serif" font-size="10.00">Terraria.Main.DedServ</text>
</a>
</g>
</g>
<!-- Node7&#45;&gt;Node8 -->
<g id="edge7_Node000007_Node000008" class="edge">
<title>Node7&#45;&gt;Node8</title>
<g id="a_edge7_Node000007_Node000008"><a xlink:title=" ">
<path fill="none" stroke="#63b8ff" d="M316.1,-232.5C300.91,-232.5 285.02,-232.5 270.25,-232.5"/>
<polygon fill="#63b8ff" stroke="#63b8ff" points="316.48,-236 326.48,-232.5 316.48,-229 316.48,-236"/>
</a>
</g>
</g>
<!-- Node10 -->
<g id="Node000010" class="node">
<title>Node10</title>
<g id="a_Node000010"><a xlink:href="../../db/d90/classTerraria_1_1Netplay_a13186facb0924d075ed56e41fe131867.html#a13186facb0924d075ed56e41fe131867" target="_top" xlink:title=" ">
<polygon fill="white" stroke="#666666" points="1082.5,-174.5 932.5,-174.5 932.5,-144.5 1082.5,-144.5 1082.5,-174.5"/>
<text text-anchor="start" x="940.5" y="-162.5" font-family="Helvetica,sans-Serif" font-size="10.00">Terraria.Netplay.SetRemote</text>
<text text-anchor="middle" x="1007.5" y="-151.5" font-family="Helvetica,sans-Serif" font-size="10.00">IPAsync</text>
</a>
</g>
</g>
<!-- Node9&#45;&gt;Node10 -->
<g id="edge9_Node000009_Node000010" class="edge">
<title>Node9&#45;&gt;Node10</title>
<g id="a_edge9_Node000009_Node000010"><a xlink:title=" ">
<path fill="none" stroke="#63b8ff" d="M1112.48,-159.5C1102.54,-159.5 1092.45,-159.5 1082.66,-159.5"/>
<polygon fill="#63b8ff" stroke="#63b8ff" points="1112.77,-163 1122.77,-159.5 1112.77,-156 1112.77,-163"/>
</a>
</g>
</g>
<!-- Node11 -->
<g id="Node000011" class="node">
<title>Node11</title>
<g id="a_Node000011"><a xlink:href="../../da/dd5/classTerraria_1_1Main_ae7acc9fe7fb0914ed02aacdfdc9039c5.html#ae7acc9fe7fb0914ed02aacdfdc9039c5" target="_top" xlink:title=" ">
<polygon fill="white" stroke="#666666" points="659,-161 523,-161 523,-142 659,-142 659,-161"/>
<text text-anchor="middle" x="591" y="-149" font-family="Helvetica,sans-Serif" font-size="10.00">Terraria.Main.DrawMenu</text>
</a>
</g>
</g>
<!-- Node10&#45;&gt;Node11 -->
<g id="edge10_Node000010_Node000011" class="edge">
<title>Node10&#45;&gt;Node11</title>
<g id="a_edge10_Node000010_Node000011"><a xlink:title=" ">
<path fill="none" stroke="#63b8ff" d="M922.23,-168.52C912.05,-169.34 901.8,-170.03 892,-170.5 811.2,-174.37 790.63,-176.95 710,-170.5 686.83,-168.65 661.35,-164.78 640.02,-161.01"/>
<polygon fill="#63b8ff" stroke="#63b8ff" points="922.68,-171.99 932.36,-167.67 922.1,-165.02 922.68,-171.99"/>
</a>
</g>
</g>
<!-- Node15 -->
<g id="Node000015" class="node">
<title>Node15</title>
<g id="a_Node000015"><a xlink:href="../../da/dd5/classTerraria_1_1Main_a33ab56670ca7132e963f3f6f9c757e38.html#a33ab56670ca7132e963f3f6f9c757e38" target="_top" xlink:title=" ">
<polygon fill="white" stroke="#666666" points="892,-161 710,-161 710,-142 892,-142 892,-161"/>
<text text-anchor="middle" x="801" y="-149" font-family="Helvetica,sans-Serif" font-size="10.00">Terraria.Main.OnSubmitServerPort</text>
</a>
</g>
</g>
<!-- Node10&#45;&gt;Node15 -->
<g id="edge14_Node000010_Node000015" class="edge">
<title>Node10&#45;&gt;Node15</title>
<g id="a_edge14_Node000010_Node000015"><a xlink:title=" ">
<path fill="none" stroke="#63b8ff" d="M922.19,-156.2C912.31,-155.82 902.2,-155.42 892.25,-155.03"/>
<polygon fill="#63b8ff" stroke="#63b8ff" points="922.25,-159.71 932.38,-156.6 922.53,-152.71 922.25,-159.71"/>
</a>
</g>
</g>
<!-- Node12 -->
<g id="Node000012" class="node">
<title>Node12</title>
<g id="a_Node000012"><a xlink:href="../../da/dd5/classTerraria_1_1Main_a474beeecaea4d6dd108fba56cd554d46.html#a474beeecaea4d6dd108fba56cd554d46" target="_top" xlink:title=" ">
<polygon fill="white" stroke="#666666" points="450,-161 328,-161 328,-142 450,-142 450,-161"/>
<text text-anchor="middle" x="389" y="-149" font-family="Helvetica,sans-Serif" font-size="10.00">Terraria.Main.DoDraw</text>
</a>
</g>
</g>
<!-- Node11&#45;&gt;Node12 -->
<g id="edge11_Node000011_Node000012" class="edge">
<title>Node11&#45;&gt;Node12</title>
<g id="a_edge11_Node000011_Node000012"><a xlink:title=" ">
<path fill="none" stroke="#63b8ff" d="M512.79,-151.5C492.05,-151.5 469.93,-151.5 450.25,-151.5"/>
<polygon fill="#63b8ff" stroke="#63b8ff" points="512.85,-155 522.85,-151.5 512.85,-148 512.85,-155"/>
</a>
</g>
</g>
<!-- Node13 -->
<g id="Node000013" class="node">
<title>Node13</title>
<g id="a_Node000013"><a xlink:href="../../da/dd5/classTerraria_1_1Main_aa597dbafa085227bb056d05d0b0f9abe.html#aa597dbafa085227bb056d05d0b0f9abe" target="_top" xlink:title=" ">
<polygon fill="white" stroke="#666666" points="262,-166.5 153,-166.5 153,-136.5 262,-136.5 262,-166.5"/>
<text text-anchor="start" x="161" y="-154.5" font-family="Helvetica,sans-Serif" font-size="10.00">Terraria.Main.Draw</text>
<text text-anchor="middle" x="207.5" y="-143.5" font-family="Helvetica,sans-Serif" font-size="10.00">_Inner</text>
</a>
</g>
</g>
<!-- Node12&#45;&gt;Node13 -->
<g id="edge12_Node000012_Node000013" class="edge">
<title>Node12&#45;&gt;Node13</title>
<g id="a_edge12_Node000012_Node000013"><a xlink:title=" ">
<path fill="none" stroke="#63b8ff" d="M317.64,-151.5C299.23,-151.5 279.67,-151.5 262.28,-151.5"/>
<polygon fill="#63b8ff" stroke="#63b8ff" points="317.73,-155 327.73,-151.5 317.73,-148 317.73,-155"/>
</a>
</g>
</g>
<!-- Node14 -->
<g id="Node000014" class="node">
<title>Node14</title>
<g id="a_Node000014"><a xlink:href="../../da/dd5/classTerraria_1_1Main_a516aa31311860bad4242ade32e5effcd.html#a516aa31311860bad4242ade32e5effcd" target="_top" xlink:title=" ">
<polygon fill="white" stroke="#666666" points="109,-161 0,-161 0,-142 109,-142 109,-161"/>
<text text-anchor="middle" x="54.5" y="-149" font-family="Helvetica,sans-Serif" font-size="10.00">Terraria.Main.Draw</text>
</a>
</g>
</g>
<!-- Node13&#45;&gt;Node14 -->
<g id="edge13_Node000013_Node000014" class="edge">
<title>Node13&#45;&gt;Node14</title>
<g id="a_edge13_Node000013_Node000014"><a xlink:title=" ">
<path fill="none" stroke="#63b8ff" d="M142.73,-151.5C131.58,-151.5 120.09,-151.5 109.24,-151.5"/>
<polygon fill="#63b8ff" stroke="#63b8ff" points="142.84,-155 152.84,-151.5 142.84,-148 142.84,-155"/>
</a>
</g>
</g>
<!-- Node15&#45;&gt;Node11 -->
<g id="edge15_Node000015_Node000011" class="edge">
<title>Node15&#45;&gt;Node11</title>
<g id="a_edge15_Node000015_Node000011"><a xlink:title=" ">
<path fill="none" stroke="#63b8ff" d="M699.96,-151.5C686.17,-151.5 672.28,-151.5 659.27,-151.5"/>
<polygon fill="#63b8ff" stroke="#63b8ff" points="699.98,-155 709.98,-151.5 699.98,-148 699.98,-155"/>
</a>
</g>
</g>
<!-- Node17 -->
<g id="Node000017" class="node">
<title>Node17</title>
<g id="a_Node000017"><a xlink:href="../../db/d90/classTerraria_1_1Netplay_afc70819766c70f525ff2eb03f2a5c092.html#afc70819766c70f525ff2eb03f2a5c092" target="_top" xlink:title=" ">
<polygon fill="white" stroke="#666666" points="1087,-89 928,-89 928,-70 1087,-70 1087,-89"/>
<text text-anchor="middle" x="1007.5" y="-77" font-family="Helvetica,sans-Serif" font-size="10.00">Terraria.Netplay.SetRemoteIP</text>
</a>
</g>
</g>
<!-- Node16&#45;&gt;Node17 -->
<g id="edge17_Node000016_Node000017" class="edge">
<title>Node16&#45;&gt;Node17</title>
<g id="a_edge17_Node000016_Node000017"><a xlink:title=" ">
<path fill="none" stroke="#63b8ff" d="M1112.77,-88.35C1104.2,-87.62 1095.52,-86.89 1087.01,-86.16"/>
<polygon fill="#63b8ff" stroke="#63b8ff" points="1112.51,-91.84 1122.77,-89.2 1113.1,-84.87 1112.51,-91.84"/>
</a>
</g>
</g>
<!-- Node18 -->
<g id="Node000018" class="node">
<title>Node18</title>
<g id="a_Node000018"><a xlink:href="../../da/dd5/classTerraria_1_1Main_af14a405f72e122b1782d6ddb3c2845fa.html#af14a405f72e122b1782d6ddb3c2845fa" target="_top" xlink:title=" ">
<polygon fill="white" stroke="#666666" points="863,-124 739,-124 739,-105 863,-105 863,-124"/>
<text text-anchor="middle" x="801" y="-112" font-family="Helvetica,sans-Serif" font-size="10.00">Terraria.Main.AutoJoin</text>
</a>
</g>
</g>
<!-- Node17&#45;&gt;Node18 -->
<g id="edge18_Node000017_Node000018" class="edge">
<title>Node17&#45;&gt;Node18</title>
<g id="a_edge18_Node000017_Node000018"><a xlink:title=" ">
<path fill="none" stroke="#63b8ff" d="M940.82,-90.74C913.99,-95.33 883.29,-100.59 857.6,-104.98"/>
<polygon fill="#63b8ff" stroke="#63b8ff" points="941.62,-94.15 950.89,-89.02 940.44,-87.25 941.62,-94.15"/>
</a>
</g>
</g>
<!-- Node19 -->
<g id="Node000019" class="node">
<title>Node19</title>
<g id="a_Node000019"><a xlink:href="../../da/dd5/classTerraria_1_1Main_a41717edb6525f73f966d5bfb874d8056.html#a41717edb6525f73f966d5bfb874d8056" target="_top" xlink:title=" ">
<polygon fill="white" stroke="#666666" points="882.5,-86.5 719.5,-86.5 719.5,-56.5 882.5,-56.5 882.5,-86.5"/>
<text text-anchor="start" x="727.5" y="-74.5" font-family="Helvetica,sans-Serif" font-size="10.00">Terraria.Main.OnSubmitServer</text>
<text text-anchor="middle" x="801" y="-63.5" font-family="Helvetica,sans-Serif" font-size="10.00">Password</text>
</a>
</g>
</g>
<!-- Node17&#45;&gt;Node19 -->
<g id="edge19_Node000017_Node000019" class="edge">
<title>Node17&#45;&gt;Node19</title>
<g id="a_edge19_Node000017_Node000019"><a xlink:title=" ">
<path fill="none" stroke="#63b8ff" d="M917.62,-76.02C906.03,-75.57 894.21,-75.11 882.76,-74.66"/>
<polygon fill="#63b8ff" stroke="#63b8ff" points="917.6,-79.52 927.73,-76.42 917.87,-72.53 917.6,-79.52"/>
</a>
</g>
</g>
<!-- Node21 -->
<g id="Node000021" class="node">
<title>Node21</title>
<g id="a_Node000021"><a xlink:href="../../da/dd5/classTerraria_1_1Main_a8e23db199a88c74f61dba8141b3e1464.html#a8e23db199a88c74f61dba8141b3e1464" target="_top" xlink:title=" ">
<polygon fill="white" stroke="#666666" points="873,-35 729,-35 729,-16 873,-16 873,-35"/>
<text text-anchor="middle" x="801" y="-23" font-family="Helvetica,sans-Serif" font-size="10.00">Terraria.Main.SelectPlayer</text>
</a>
</g>
</g>
<!-- Node17&#45;&gt;Node21 -->
<g id="edge22_Node000017_Node000021" class="edge">
<title>Node17&#45;&gt;Node21</title>
<g id="a_edge22_Node000017_Node000021"><a xlink:title=" ">
<path fill="none" stroke="#63b8ff" d="M963.71,-67.18C942.23,-61.09 915.79,-53.73 892,-47.5 875.82,-43.26 857.93,-38.84 842.39,-35.08"/>
<polygon fill="#63b8ff" stroke="#63b8ff" points="962.93,-70.6 973.51,-69.97 964.85,-63.87 962.93,-70.6"/>
</a>
</g>
</g>
<!-- Node19&#45;&gt;Node11 -->
<g id="edge20_Node000019_Node000011" class="edge">
<title>Node19&#45;&gt;Node11</title>
<g id="a_edge20_Node000019_Node000011"><a xlink:title=" ">
<path fill="none" stroke="#63b8ff" d="M727.94,-89.45C721.83,-91.36 715.78,-93.38 710,-95.5 673.17,-109.02 632.23,-129.84 609.56,-141.92"/>
<polygon fill="#63b8ff" stroke="#63b8ff" points="729,-92.79 737.57,-86.56 726.98,-86.09 729,-92.79"/>
</a>
</g>
</g>
<!-- Node20 -->
<g id="Node000020" class="node">
<title>Node20</title>
<g id="a_Node000020"><a xlink:href="../../da/dd5/classTerraria_1_1Main_a4235ca20881bf906c51075bd2dfefea1.html#a4235ca20881bf906c51075bd2dfefea1" target="_top" xlink:title=" ">
<polygon fill="white" stroke="#666666" points="672.5,-89.5 509.5,-89.5 509.5,-59.5 672.5,-59.5 672.5,-89.5"/>
<text text-anchor="start" x="517.5" y="-77.5" font-family="Helvetica,sans-Serif" font-size="10.00">Terraria.Main.OnSubmitServer</text>
<text text-anchor="middle" x="591" y="-66.5" font-family="Helvetica,sans-Serif" font-size="10.00">Password</text>
</a>
</g>
</g>
<!-- Node19&#45;&gt;Node20 -->
<g id="edge21_Node000019_Node000020" class="edge">
<title>Node19&#45;&gt;Node20</title>
<g id="a_edge21_Node000019_Node000020"><a xlink:title=" ">
<path fill="none" stroke="#63b8ff" d="M709.16,-72.81C697.01,-72.99 684.62,-73.16 672.67,-73.34"/>
<polygon fill="#63b8ff" stroke="#63b8ff" points="709.34,-76.31 719.28,-72.66 709.23,-69.31 709.34,-76.31"/>
</a>
</g>
</g>
<!-- Node22 -->
<g id="Node000022" class="node">
<title>Node22</title>
<g id="a_Node000022"><a xlink:href="../../d8/d13/classTerraria_1_1GameContent_1_1UI_1_1Elements_1_1UICharacterListItem_a340caf28f2ffe89144b036695ef7e860.html#a340caf28f2ffe89144b036695ef7e860" target="_top" xlink:title=" ">
<polygon fill="white" stroke="#666666" points="674,-41 508,-41 508,0 674,0 674,-41"/>
<text text-anchor="start" x="516" y="-29" font-family="Helvetica,sans-Serif" font-size="10.00">Terraria.GameContent.UI.</text>
<text text-anchor="start" x="516" y="-18" font-family="Helvetica,sans-Serif" font-size="10.00">Elements.UICharacterListItem.</text>
<text text-anchor="middle" x="591" y="-7" font-family="Helvetica,sans-Serif" font-size="10.00">PlayGame</text>
</a>
</g>
</g>
<!-- Node21&#45;&gt;Node22 -->
<g id="edge23_Node000021_Node000022" class="edge">
<title>Node21&#45;&gt;Node22</title>
<g id="a_edge23_Node000021_Node000022"><a xlink:title=" ">
<path fill="none" stroke="#63b8ff" d="M718.94,-23.55C704.23,-23.2 688.88,-22.83 674.14,-22.47"/>
<polygon fill="#63b8ff" stroke="#63b8ff" points="718.92,-27.05 729,-23.79 719.09,-20.05 718.92,-27.05"/>
</a>
</g>
</g>
<!-- Node23 -->
<g id="Node000023" class="node">
<title>Node23</title>
<g id="a_Node000023"><a xlink:href="../../d8/d13/classTerraria_1_1GameContent_1_1UI_1_1Elements_1_1UICharacterListItem_a84c7d2bebc258bb2126ce4847c484e99.html#a84c7d2bebc258bb2126ce4847c484e99" target="_top" xlink:title=" ">
<polygon fill="white" stroke="#666666" points="472,-41 306,-41 306,0 472,0 472,-41"/>
<text text-anchor="start" x="314" y="-29" font-family="Helvetica,sans-Serif" font-size="10.00">Terraria.GameContent.UI.</text>
<text text-anchor="start" x="314" y="-18" font-family="Helvetica,sans-Serif" font-size="10.00">Elements.UICharacterListItem.</text>
<text text-anchor="middle" x="389" y="-7" font-family="Helvetica,sans-Serif" font-size="10.00">UICharacterListItem</text>
</a>
</g>
</g>
<!-- Node22&#45;&gt;Node23 -->
<g id="edge24_Node000022_Node000023" class="edge">
<title>Node22&#45;&gt;Node23</title>
<g id="a_edge24_Node000022_Node000023"><a xlink:title=" ">
<path fill="none" stroke="#63b8ff" d="M497.53,-20.5C489.09,-20.5 480.57,-20.5 472.22,-20.5"/>
<polygon fill="#63b8ff" stroke="#63b8ff" points="497.79,-24 507.79,-20.5 497.79,-17 497.79,-24"/>
</a>
</g>
</g>
</g>
</svg>

<g id="navigator" transform="translate(0 0)" fill="#404254">
  <rect fill="#f2f5e9" fill-opacity="0.5" stroke="#606060" stroke-width=".5" x="0" y="0" width="60" height="60"/>
  <use id="zoomplus" xlink:href="#zoomPlus" x="17" y="9" onmousedown="handleZoom(evt,'in')"/>
  <use id="zoomminus" xlink:href="#zoomMin" x="42" y="9" onmousedown="handleZoom(evt,'out')"/>
  <use id="reset" xlink:href="#resetDef" x="30" y="36" onmousedown="handleReset()"/>
   <use id="arrowup" xlink:href="#arrowUp" x="0" y="0" onmousedown="handlePan(0,-1)"/>
  <use id="arrowright" xlink:href="#arrowRight" x="0" y="0" onmousedown="handlePan(1,0)"/>
  <use id="arrowdown" xlink:href="#arrowDown" x="0" y="0" onmousedown="handlePan(0,1)"/>
  <use id="arrowleft" xlink:href="#arrowLeft" x="0" y="0" onmousedown="handlePan(-1,0)"/>
</g>
<svg viewBox="0 0 15 15" width="100%" height="30px" preserveAspectRatio="xMaxYMin meet">
 <g id="arrow_out" transform="scale(0.3 0.3)">
  <a xlink:href="classTerraria_1_1Netplay_a84762d4bab25084df9490b312d26103c_a84762d4bab25084df9490b312d26103c_icgraph_org.svg" target="_base">
   <rect id="button" ry="5" rx="5" y="6" x="6" height="38" width="38"
        fill="#f2f5e9" fill-opacity="0.5" stroke="#606060" stroke-width="1.0"/>
   <path id="arrow"
     d="M 11.500037,31.436501 C 11.940474,20.09759 22.043105,11.32322 32.158766,21.979434 L 37.068811,17.246167 C 37.068811,17.246167 37.088388,32 37.088388,32 L 22.160133,31.978069 C 22.160133,31.978069 26.997745,27.140456 26.997745,27.140456 C 18.528582,18.264221 13.291696,25.230495 11.500037,31.436501 z"
     style="fill:#404040;"/>
  </a>
 </g>
</svg>

<style type='text/css'>
<![CDATA[
[data-mouse-over-selected='false'] { opacity: 0.7; }
[data-mouse-over-selected='true']  { opacity: 1.0; }
]]>
</style>
<script type="application/ecmascript"><![CDATA[
document.addEventListener('DOMContentLoaded', (event) => {
  highlightEdges();
  highlightAdjacentNodes();
});
]]></script>
</svg>
