<?xml version="1.0" encoding="UTF-8" standalone="no"?>
<!DOCTYPE svg PUBLIC "-//W3C//DTD SVG 1.1//EN"
 "http://www.w3.org/Graphics/SVG/1.1/DTD/svg11.dtd">
<!-- Generated by graphviz version 2.43.0 (0)
 -->
<!-- Title: Terraria.ModLoader.Config.UI.IntInputElement.OnBind Pages: 1 -->
<!--zoomable 278 -->

<svg id="main" version="1.1" xmlns="http://www.w3.org/2000/svg" xmlns:xlink="http://www.w3.org/1999/xlink" xml:space="preserve" onload="init(evt)">
<style type="text/css"><![CDATA[
.node, .edge {opacity: 0.7;}
.node.selected, .edge.selected {opacity: 1;}
.edge:hover path { stroke: red; }
.edge:hover polygon { stroke: red; fill: red; }
]]></style>

<defs>
  <circle id="rim" cx="0" cy="0" r="7"/>
  <circle id="rim2" cx="0" cy="0" r="3.5"/>
  <g id="zoomPlus">
    <use xlink:href="#rim" fill="#404040"><set attributeName="fill" to="#808080" begin="zoomplus.mouseover" end="zoomplus.mouseout"/></use>
    <path d="M-4,0h8M0,-4v8" fill="none" stroke="white" stroke-width="1.5" pointer-events="none"/>
  </g>
  <g id="zoomMin">
    <use xlink:href="#rim" fill="#404040"><set attributeName="fill" to="#808080" begin="zoomminus.mouseover" end="zoomminus.mouseout"/></use>
    <path d="M-4,0h8" fill="none" stroke="white" stroke-width="1.5" pointer-events="none"/>
  </g>
  <g id="arrowUp" transform="translate(30 24)">
    <use xlink:href="#rim"/>
    <path pointer-events="none" fill="none" stroke="white" stroke-width="1.5" d="M0,-3.0v7 M-2.5,-0.5L0,-3.0L2.5,-0.5"/>
  </g>
  <g id="arrowRight" transform="rotate(90) translate(36 -43)">
    <use xlink:href="#rim"/>
    <path pointer-events="none" fill="none" stroke="white" stroke-width="1.5" d="M0,-3.0v7 M-2.5,-0.5L0,-3.0L2.5,-0.5"/>
  </g>
  <g id="arrowDown" transform="rotate(180) translate(-30 -48)">
    <use xlink:href="#rim"/>
    <path pointer-events="none" fill="none" stroke="white" stroke-width="1.5" d="M0,-3.0v7 M-2.5,-0.5L0,-3.0L2.5,-0.5"/>
  </g>
  <g id="arrowLeft" transform="rotate(270) translate(-36 17)">
    <use xlink:href="#rim"/>
    <path pointer-events="none" fill="none" stroke="white" stroke-width="1.5" d="M0,-3.0v7 M-2.5,-0.5L0,-3.0L2.5,-0.5"/>
  </g>
  <g id="resetDef">
    <use xlink:href="#rim2" fill="#404040"><set attributeName="fill" to="#808080" begin="reset.mouseover" end="reset.mouseout"/></use>
  </g>
</defs>
<script type="application/ecmascript">
var viewWidth = 831;
var viewHeight = 278;
var sectionId = 'dynsection-0';
</script>
<script type="application/ecmascript" xlink:href="../../svg.min.js"/>
<svg id="graph" class="graph">
<g id="viewport">
<title>Terraria.ModLoader.Config.UI.IntInputElement.OnBind</title>
<!-- Node1 -->
<g id="Node000001" class="node">
<title>Node1</title>
<g id="a_Node000001"><a xlink:title=" ">
<polygon fill="#999999" stroke="#666666" points="146,-150 0,-150 0,-120 146,-120 146,-150"/>
<text text-anchor="start" x="8" y="-138" font-family="Helvetica,sans-Serif" font-size="10.00">Terraria.ModLoader.Config.</text>
<text text-anchor="middle" x="73" y="-127" font-family="Helvetica,sans-Serif" font-size="10.00">UI.IntInputElement.OnBind</text>
</a>
</g>
</g>
<!-- Node2 -->
<g id="Node000002" class="node">
<title>Node2</title>
<g id="a_Node000002"><a xlink:href="../../d7/d72/classTerraria_1_1UI_1_1UIElement_a4f78a3ab59b3dffcdc5b68328a46f103.html#a4f78a3ab59b3dffcdc5b68328a46f103" target="_top" xlink:title=" ">
<polygon fill="white" stroke="#666666" points="353,-230.5 192,-230.5 192,-211.5 353,-211.5 353,-230.5"/>
<text text-anchor="middle" x="272.5" y="-218.5" font-family="Helvetica,sans-Serif" font-size="10.00">Terraria.UI.UIElement.Append</text>
</a>
</g>
</g>
<!-- Node1&#45;&gt;Node2 -->
<g id="edge1_Node000001_Node000002" class="edge">
<title>Node1&#45;&gt;Node2</title>
<g id="a_edge1_Node000001_Node000002"><a xlink:title=" ">
<path fill="none" stroke="#63b8ff" d="M93.58,-150.07C114.4,-165.38 148.83,-188.67 182,-202 188.59,-204.65 195.6,-206.95 202.69,-208.95"/>
<polygon fill="#63b8ff" stroke="#63b8ff" points="201.82,-212.34 212.38,-211.48 203.59,-205.56 201.82,-212.34"/>
</a>
</g>
</g>
<!-- Node3 -->
<g id="Node000003" class="node">
<title>Node3</title>
<g id="a_Node000003"><a xlink:href="../../d2/d8c/classTerraria_1_1ModLoader_1_1Config_1_1UI_1_1IntInputElement_a003e9a3fe8d28b45d0da66c3f82c56f2.html#a003e9a3fe8d28b45d0da66c3f82c56f2" target="_top" xlink:title=" ">
<polygon fill="white" stroke="#666666" points="350,-193 195,-193 195,-163 350,-163 350,-193"/>
<text text-anchor="start" x="203" y="-181" font-family="Helvetica,sans-Serif" font-size="10.00">Terraria.ModLoader.Config.</text>
<text text-anchor="middle" x="272.5" y="-170" font-family="Helvetica,sans-Serif" font-size="10.00">UI.IntInputElement.GetValue</text>
</a>
</g>
</g>
<!-- Node1&#45;&gt;Node3 -->
<g id="edge2_Node000001_Node000003" class="edge">
<title>Node1&#45;&gt;Node3</title>
<g id="a_edge2_Node000001_Node000003"><a xlink:title=" ">
<path fill="none" stroke="#63b8ff" d="M143.08,-150.04C159.01,-153.51 176.09,-157.23 192.41,-160.78"/>
<polygon fill="#63b8ff" stroke="#63b8ff" points="191.95,-164.26 202.46,-162.97 193.44,-157.42 191.95,-164.26"/>
</a>
</g>
</g>
<!-- Node6 -->
<g id="Node000006" class="node">
<title>Node6</title>
<g id="a_Node000006"><a xlink:href="../../d7/d72/classTerraria_1_1UI_1_1UIElement_aa33dca6c66f9820ef270bc2e23ef1496.html#aa33dca6c66f9820ef270bc2e23ef1496" target="_top" xlink:title=" ">
<polygon fill="white" stroke="#666666" points="363,-144.5 182,-144.5 182,-125.5 363,-125.5 363,-144.5"/>
<text text-anchor="middle" x="272.5" y="-132.5" font-family="Helvetica,sans-Serif" font-size="10.00">Terraria.UI.UIElement.Recalculate</text>
</a>
</g>
</g>
<!-- Node1&#45;&gt;Node6 -->
<g id="edge5_Node000001_Node000006" class="edge">
<title>Node1&#45;&gt;Node6</title>
<g id="a_edge5_Node000001_Node000006"><a xlink:title=" ">
<path fill="none" stroke="#63b8ff" d="M146.14,-135C154.46,-135 163.04,-135 171.64,-135"/>
<polygon fill="#63b8ff" stroke="#63b8ff" points="171.73,-138.5 181.73,-135 171.73,-131.5 171.73,-138.5"/>
</a>
</g>
</g>
<!-- Node12 -->
<g id="Node000012" class="node">
<title>Node12</title>
<g id="a_Node000012"><a xlink:href="../../d8/d74/structTerraria_1_1UI_1_1StyleDimension_a93e6acf229427c6435d7ee83958efba0.html#a93e6acf229427c6435d7ee83958efba0" target="_top" xlink:title=" ">
<polygon fill="white" stroke="#666666" points="355.5,-107.5 189.5,-107.5 189.5,-88.5 355.5,-88.5 355.5,-107.5"/>
<text text-anchor="middle" x="272.5" y="-95.5" font-family="Helvetica,sans-Serif" font-size="10.00">Terraria.UI.StyleDimension.Set</text>
</a>
</g>
</g>
<!-- Node1&#45;&gt;Node12 -->
<g id="edge11_Node000001_Node000012" class="edge">
<title>Node1&#45;&gt;Node12</title>
<g id="a_edge11_Node000001_Node000012"><a xlink:title=" ">
<path fill="none" stroke="#63b8ff" d="M146.14,-121.49C167.26,-117.53 190.13,-113.24 210.48,-109.43"/>
<polygon fill="#63b8ff" stroke="#63b8ff" points="211.37,-112.83 220.56,-107.54 210.09,-105.94 211.37,-112.83"/>
</a>
</g>
</g>
<!-- Node13 -->
<g id="Node000013" class="node">
<title>Node13</title>
<g id="a_Node000013"><a xlink:href="../../d2/d8c/classTerraria_1_1ModLoader_1_1Config_1_1UI_1_1IntInputElement_a79b74edd4dc8a16c7ca5ad63673fee16.html#a79b74edd4dc8a16c7ca5ad63673fee16" target="_top" xlink:title=" ">
<polygon fill="white" stroke="#666666" points="349.5,-62 195.5,-62 195.5,-32 349.5,-32 349.5,-62"/>
<text text-anchor="start" x="203.5" y="-50" font-family="Helvetica,sans-Serif" font-size="10.00">Terraria.ModLoader.Config.</text>
<text text-anchor="middle" x="272.5" y="-39" font-family="Helvetica,sans-Serif" font-size="10.00">UI.IntInputElement.SetValue</text>
</a>
</g>
</g>
<!-- Node1&#45;&gt;Node13 -->
<g id="edge12_Node000001_Node000013" class="edge">
<title>Node1&#45;&gt;Node13</title>
<g id="a_edge12_Node000001_Node000013"><a xlink:title=" ">
<path fill="none" stroke="#63b8ff" d="M101.54,-119.84C123.11,-108.24 154.04,-92.22 182,-80 193.49,-74.97 206.02,-70.03 217.97,-65.57"/>
<polygon fill="#63b8ff" stroke="#63b8ff" points="219.22,-68.84 227.39,-62.1 216.8,-62.27 219.22,-68.84"/>
</a>
</g>
</g>
<!-- Node4 -->
<g id="Node000004" class="node">
<title>Node4</title>
<g id="a_Node000004"><a xlink:href="../../da/d91/classTerraria_1_1ModLoader_1_1Config_1_1UI_1_1ConfigElement_aaf444a0dbaf60289b87832e2ad381045.html#aaf444a0dbaf60289b87832e2ad381045" target="_top" xlink:title=" ">
<polygon fill="white" stroke="#666666" points="578.5,-270 425.5,-270 425.5,-240 578.5,-240 578.5,-270"/>
<text text-anchor="start" x="433.5" y="-258" font-family="Helvetica,sans-Serif" font-size="10.00">Terraria.ModLoader.Config.</text>
<text text-anchor="middle" x="502" y="-247" font-family="Helvetica,sans-Serif" font-size="10.00">UI.ConfigElement.GetObject</text>
</a>
</g>
</g>
<!-- Node3&#45;&gt;Node4 -->
<g id="edge3_Node000003_Node000004" class="edge">
<title>Node3&#45;&gt;Node4</title>
<g id="a_edge3_Node000003_Node000004"><a xlink:title=" ">
<path fill="none" stroke="#63b8ff" d="M339.15,-193.13C347.37,-195.95 355.51,-199.23 363,-203 381.1,-212.12 380.71,-222.26 399,-231 404.31,-233.54 409.91,-235.82 415.63,-237.87"/>
<polygon fill="#63b8ff" stroke="#63b8ff" points="414.77,-241.27 425.36,-241.1 416.97,-234.62 414.77,-241.27"/>
</a>
</g>
</g>
<!-- Node5 -->
<g id="Node000005" class="node">
<title>Node5</title>
<g id="a_Node000005"><a xlink:href="../../d8/ddf/classTerraria_1_1ModLoader_1_1Config_1_1UI_1_1PropertyFieldWrapper_a2c13a9adcb2476f32cb803ee797485d6.html#a2c13a9adcb2476f32cb803ee797485d6" target="_top" xlink:title=" ">
<polygon fill="white" stroke="#666666" points="823,-270 641,-270 641,-240 823,-240 823,-270"/>
<text text-anchor="start" x="649" y="-258" font-family="Helvetica,sans-Serif" font-size="10.00">Terraria.ModLoader.Config.</text>
<text text-anchor="middle" x="732" y="-247" font-family="Helvetica,sans-Serif" font-size="10.00">UI.PropertyFieldWrapper.GetValue</text>
</a>
</g>
</g>
<!-- Node4&#45;&gt;Node5 -->
<g id="edge4_Node000004_Node000005" class="edge">
<title>Node4&#45;&gt;Node5</title>
<g id="a_edge4_Node000004_Node000005"><a xlink:title=" ">
<path fill="none" stroke="#63b8ff" d="M578.6,-255C595.29,-255 613.22,-255 630.71,-255"/>
<polygon fill="#63b8ff" stroke="#63b8ff" points="630.95,-258.5 640.95,-255 630.95,-251.5 630.95,-258.5"/>
</a>
</g>
</g>
<!-- Node7 -->
<g id="Node000007" class="node">
<title>Node7</title>
<g id="a_Node000007"><a xlink:href="../../dc/dc4/classTerraria_1_1UI_1_1UserInterface_af1df38079c1c3550e041458b43a9aceb.html#af1df38079c1c3550e041458b43a9aceb" target="_top" xlink:title=" ">
<polygon fill="white" stroke="#666666" points="571.5,-222 432.5,-222 432.5,-192 571.5,-192 571.5,-222"/>
<text text-anchor="start" x="440.5" y="-210" font-family="Helvetica,sans-Serif" font-size="10.00">Terraria.UI.UserInterface.</text>
<text text-anchor="middle" x="502" y="-199" font-family="Helvetica,sans-Serif" font-size="10.00">GetDimensions</text>
</a>
</g>
</g>
<!-- Node6&#45;&gt;Node7 -->
<g id="edge6_Node000006_Node000007" class="edge">
<title>Node6&#45;&gt;Node7</title>
<g id="a_edge6_Node000006_Node000007"><a xlink:title=" ">
<path fill="none" stroke="#63b8ff" d="M336.84,-144.55C345.85,-147.02 354.82,-150.11 363,-154 381.56,-162.82 380.54,-173.98 399,-183 406.46,-186.65 414.5,-189.75 422.68,-192.4"/>
<polygon fill="#63b8ff" stroke="#63b8ff" points="421.73,-195.77 432.32,-195.3 423.75,-189.07 421.73,-195.77"/>
</a>
</g>
</g>
<!-- Node8 -->
<g id="Node000008" class="node">
<title>Node8</title>
<g id="a_Node000008"><a xlink:href="../../d7/d72/classTerraria_1_1UI_1_1UIElement_a8cb8692a001e504adb564ae67833de3d.html#a8cb8692a001e504adb564ae67833de3d" target="_top" xlink:title=" ">
<polygon fill="white" stroke="#666666" points="605,-174 399,-174 399,-144 605,-144 605,-174"/>
<text text-anchor="start" x="407" y="-162" font-family="Helvetica,sans-Serif" font-size="10.00">Terraria.UI.UIElement.Get</text>
<text text-anchor="middle" x="502" y="-151" font-family="Helvetica,sans-Serif" font-size="10.00">DimensionsBasedOnParentDimensions</text>
</a>
</g>
</g>
<!-- Node6&#45;&gt;Node8 -->
<g id="edge7_Node000006_Node000008" class="edge">
<title>Node6&#45;&gt;Node8</title>
<g id="a_edge7_Node000006_Node000008"><a xlink:title=" ">
<path fill="none" stroke="#63b8ff" d="M363.09,-144.45C371.49,-145.34 380.07,-146.24 388.65,-147.15"/>
<polygon fill="#63b8ff" stroke="#63b8ff" points="388.39,-150.64 398.7,-148.21 389.12,-143.68 388.39,-150.64"/>
</a>
</g>
</g>
<!-- Node10 -->
<g id="Node000010" class="node">
<title>Node10</title>
<g id="a_Node000010"><a xlink:href="../../d7/d72/classTerraria_1_1UI_1_1UIElement_a5ad03f5ce0e776511a3b7e4a29e16caf.html#a5ad03f5ce0e776511a3b7e4a29e16caf" target="_top" xlink:title=" ">
<polygon fill="white" stroke="#666666" points="572.5,-126 431.5,-126 431.5,-96 572.5,-96 572.5,-126"/>
<text text-anchor="start" x="439.5" y="-114" font-family="Helvetica,sans-Serif" font-size="10.00">Terraria.UI.UIElement.Get</text>
<text text-anchor="middle" x="502" y="-103" font-family="Helvetica,sans-Serif" font-size="10.00">InnerDimensions</text>
</a>
</g>
</g>
<!-- Node6&#45;&gt;Node10 -->
<g id="edge9_Node000006_Node000010" class="edge">
<title>Node6&#45;&gt;Node10</title>
<g id="a_edge9_Node000006_Node000010"><a xlink:title=" ">
<path fill="none" stroke="#63b8ff" d="M363.09,-125.55C382.27,-123.53 402.41,-121.4 421.2,-119.42"/>
<polygon fill="#63b8ff" stroke="#63b8ff" points="421.6,-122.9 431.18,-118.37 420.87,-115.93 421.6,-122.9"/>
</a>
</g>
</g>
<!-- Node11 -->
<g id="Node000011" class="node">
<title>Node11</title>
<g id="a_Node000011"><a xlink:href="../../d7/d72/classTerraria_1_1UI_1_1UIElement_a8bf52a8c33b045d1df8dbcc96bcbc818.html#a8bf52a8c33b045d1df8dbcc96bcbc818" target="_top" xlink:title=" ">
<polygon fill="white" stroke="#666666" points="592.5,-78 411.5,-78 411.5,-48 592.5,-48 592.5,-78"/>
<text text-anchor="start" x="419.5" y="-66" font-family="Helvetica,sans-Serif" font-size="10.00">Terraria.UI.UIElement.Recalculate</text>
<text text-anchor="middle" x="502" y="-55" font-family="Helvetica,sans-Serif" font-size="10.00">Children</text>
</a>
</g>
</g>
<!-- Node6&#45;&gt;Node11 -->
<g id="edge10_Node000006_Node000011" class="edge">
<title>Node6&#45;&gt;Node11</title>
<g id="a_edge10_Node000006_Node000011"><a xlink:title=" ">
<path fill="none" stroke="#63b8ff" d="M340.21,-125.44C348.08,-123.2 355.85,-120.42 363,-117 381.78,-108 380.36,-96.3 399,-87 403,-85 407.17,-83.17 411.44,-81.49"/>
<polygon fill="#63b8ff" stroke="#63b8ff" points="412.74,-84.74 420.94,-78.03 410.34,-78.16 412.74,-84.74"/>
</a>
</g>
</g>
<!-- Node9 -->
<g id="Node000009" class="node">
<title>Node9</title>
<g id="a_Node000009"><a xlink:href="../../d8/d74/structTerraria_1_1UI_1_1StyleDimension_acffa4ba4c6fbf99b983c8c59f17cc855.html#acffa4ba4c6fbf99b983c8c59f17cc855" target="_top" xlink:title=" ">
<polygon fill="white" stroke="#666666" points="807,-174 657,-174 657,-144 807,-144 807,-174"/>
<text text-anchor="start" x="665" y="-162" font-family="Helvetica,sans-Serif" font-size="10.00">Terraria.UI.StyleDimension.</text>
<text text-anchor="middle" x="732" y="-151" font-family="Helvetica,sans-Serif" font-size="10.00">GetValue</text>
</a>
</g>
</g>
<!-- Node8&#45;&gt;Node9 -->
<g id="edge8_Node000008_Node000009" class="edge">
<title>Node8&#45;&gt;Node9</title>
<g id="a_edge8_Node000008_Node000009"><a xlink:title=" ">
<path fill="none" stroke="#63b8ff" d="M605.33,-159C619.2,-159 633.3,-159 646.8,-159"/>
<polygon fill="#63b8ff" stroke="#63b8ff" points="646.99,-162.5 656.99,-159 646.99,-155.5 646.99,-162.5"/>
</a>
</g>
</g>
<!-- Node14 -->
<g id="Node000014" class="node">
<title>Node14</title>
<g id="a_Node000014"><a xlink:href="../../da/d91/classTerraria_1_1ModLoader_1_1Config_1_1UI_1_1ConfigElement_acac90a54b11d289806a7d7eb400c9eb5.html#acac90a54b11d289806a7d7eb400c9eb5" target="_top" xlink:title=" ">
<polygon fill="white" stroke="#666666" points="578,-30 426,-30 426,0 578,0 578,-30"/>
<text text-anchor="start" x="434" y="-18" font-family="Helvetica,sans-Serif" font-size="10.00">Terraria.ModLoader.Config.</text>
<text text-anchor="middle" x="502" y="-7" font-family="Helvetica,sans-Serif" font-size="10.00">UI.ConfigElement.SetObject</text>
</a>
</g>
</g>
<!-- Node13&#45;&gt;Node14 -->
<g id="edge13_Node000013_Node000014" class="edge">
<title>Node13&#45;&gt;Node14</title>
<g id="a_edge13_Node000013_Node000014"><a xlink:title=" ">
<path fill="none" stroke="#63b8ff" d="M349.57,-36.3C370.76,-33.32 393.91,-30.06 415.6,-27.01"/>
<polygon fill="#63b8ff" stroke="#63b8ff" points="416.36,-30.44 425.78,-25.58 415.39,-23.51 416.36,-30.44"/>
</a>
</g>
</g>
<!-- Node15 -->
<g id="Node000015" class="node">
<title>Node15</title>
<g id="a_Node000015"><a xlink:href="../../d8/ddf/classTerraria_1_1ModLoader_1_1Config_1_1UI_1_1PropertyFieldWrapper_a209187a52e978b4b43254e1c2f363d02.html#a209187a52e978b4b43254e1c2f363d02" target="_top" xlink:title=" ">
<polygon fill="white" stroke="#666666" points="822.5,-30 641.5,-30 641.5,0 822.5,0 822.5,-30"/>
<text text-anchor="start" x="649.5" y="-18" font-family="Helvetica,sans-Serif" font-size="10.00">Terraria.ModLoader.Config.</text>
<text text-anchor="middle" x="732" y="-7" font-family="Helvetica,sans-Serif" font-size="10.00">UI.PropertyFieldWrapper.SetValue</text>
</a>
</g>
</g>
<!-- Node14&#45;&gt;Node15 -->
<g id="edge14_Node000014_Node000015" class="edge">
<title>Node14&#45;&gt;Node15</title>
<g id="a_edge14_Node000014_Node000015"><a xlink:title=" ">
<path fill="none" stroke="#63b8ff" d="M578.29,-15C595.09,-15 613.17,-15 630.81,-15"/>
<polygon fill="#63b8ff" stroke="#63b8ff" points="631.12,-18.5 641.12,-15 631.12,-11.5 631.12,-18.5"/>
</a>
</g>
</g>
</g>
</svg>

<g id="navigator" transform="translate(0 0)" fill="#404254">
  <rect fill="#f2f5e9" fill-opacity="0.5" stroke="#606060" stroke-width=".5" x="0" y="0" width="60" height="60"/>
  <use id="zoomplus" xlink:href="#zoomPlus" x="17" y="9" onmousedown="handleZoom(evt,'in')"/>
  <use id="zoomminus" xlink:href="#zoomMin" x="42" y="9" onmousedown="handleZoom(evt,'out')"/>
  <use id="reset" xlink:href="#resetDef" x="30" y="36" onmousedown="handleReset()"/>
   <use id="arrowup" xlink:href="#arrowUp" x="0" y="0" onmousedown="handlePan(0,-1)"/>
  <use id="arrowright" xlink:href="#arrowRight" x="0" y="0" onmousedown="handlePan(1,0)"/>
  <use id="arrowdown" xlink:href="#arrowDown" x="0" y="0" onmousedown="handlePan(0,1)"/>
  <use id="arrowleft" xlink:href="#arrowLeft" x="0" y="0" onmousedown="handlePan(-1,0)"/>
</g>
<svg viewBox="0 0 15 15" width="100%" height="30px" preserveAspectRatio="xMaxYMin meet">
 <g id="arrow_out" transform="scale(0.3 0.3)">
  <a xlink:href="classTerraria_1_1ModLoader_1_1Config_1_1UI_1_1IntInputElement_a74ecc5096d8aba8241df6420640900ac_a74ecc5096d8aba8241df6420640900ac_cgraph_org.svg" target="_base">
   <rect id="button" ry="5" rx="5" y="6" x="6" height="38" width="38"
        fill="#f2f5e9" fill-opacity="0.5" stroke="#606060" stroke-width="1.0"/>
   <path id="arrow"
     d="M 11.500037,31.436501 C 11.940474,20.09759 22.043105,11.32322 32.158766,21.979434 L 37.068811,17.246167 C 37.068811,17.246167 37.088388,32 37.088388,32 L 22.160133,31.978069 C 22.160133,31.978069 26.997745,27.140456 26.997745,27.140456 C 18.528582,18.264221 13.291696,25.230495 11.500037,31.436501 z"
     style="fill:#404040;"/>
  </a>
 </g>
</svg>

<style type='text/css'>
<![CDATA[
[data-mouse-over-selected='false'] { opacity: 0.7; }
[data-mouse-over-selected='true']  { opacity: 1.0; }
]]>
</style>
<script type="application/ecmascript"><![CDATA[
document.addEventListener('DOMContentLoaded', (event) => {
  highlightEdges();
  highlightAdjacentNodes();
});
]]></script>
</svg>
