<?xml version="1.0" encoding="UTF-8" standalone="no"?>
<!DOCTYPE svg PUBLIC "-//W3C//DTD SVG 1.1//EN"
 "http://www.w3.org/Graphics/SVG/1.1/DTD/svg11.dtd">
<!-- Generated by graphviz version 2.43.0 (0)
 -->
<!-- Title: Terraria.Lang.GetBuffName Pages: 1 -->
<svg width="1797pt" height="135pt"
 viewBox="0.00 0.00 1797.00 134.50" xmlns="http://www.w3.org/2000/svg" xmlns:xlink="http://www.w3.org/1999/xlink">
<g id="graph0" class="graph" transform="scale(1 1) rotate(0) translate(4 130.5)">
<title>Terraria.Lang.GetBuffName</title>
<!-- Node1 -->
<g id="Node000001" class="node">
<title>Node1</title>
<g id="a_Node000001"><a xlink:title="Gets the display name of the provided buff type (T:Terraria.ID.BuffID) as a string.">
<polygon fill="#999999" stroke="#666666" points="1789,-78 1640,-78 1640,-59 1789,-59 1789,-78"/>
<text text-anchor="middle" x="1714.5" y="-66" font-family="Helvetica,sans-Serif" font-size="10.00">Terraria.Lang.GetBuffName</text>
</a>
</g>
</g>
<!-- Node2 -->
<g id="Node000002" class="node">
<title>Node2</title>
<g id="a_Node000002"><a xlink:href="../../da/dd5/classTerraria_1_1Main_a9d1a7ed841e2955dafbe797eae86e385.html#a9d1a7ed841e2955dafbe797eae86e385" target="_top" xlink:title=" ">
<polygon fill="white" stroke="#666666" points="1584.5,-126.5 1432.5,-126.5 1432.5,-96.5 1584.5,-96.5 1584.5,-126.5"/>
<text text-anchor="start" x="1440.5" y="-114.5" font-family="Helvetica,sans-Serif" font-size="10.00">Terraria.Main.DrawInterface</text>
<text text-anchor="middle" x="1508.5" y="-103.5" font-family="Helvetica,sans-Serif" font-size="10.00">_Resources_Buffs</text>
</a>
</g>
</g>
<!-- Node1&#45;&gt;Node2 -->
<g id="edge1_Node000001_Node000002" class="edge">
<title>Node1&#45;&gt;Node2</title>
<g id="a_edge1_Node000001_Node000002"><a xlink:title=" ">
<path fill="none" stroke="#63b8ff" d="M1658.28,-80.14C1634.39,-85.18 1606.13,-91.13 1580.69,-96.49"/>
<polygon fill="#63b8ff" stroke="#63b8ff" points="1659.16,-83.53 1668.23,-78.04 1657.72,-76.68 1659.16,-83.53"/>
</a>
</g>
</g>
<!-- Node11 -->
<g id="Node000011" class="node">
<title>Node11</title>
<g id="a_Node000011"><a xlink:href="../../da/dd5/classTerraria_1_1Main_a3d98f18e1b3a22533d5282611b6d8dfe.html#a3d98f18e1b3a22533d5282611b6d8dfe" target="_top" xlink:title=" ">
<polygon fill="white" stroke="#666666" points="1586,-78 1431,-78 1431,-59 1586,-59 1586,-78"/>
<text text-anchor="middle" x="1508.5" y="-66" font-family="Helvetica,sans-Serif" font-size="10.00">Terraria.Main.DrawInventory</text>
</a>
</g>
</g>
<!-- Node1&#45;&gt;Node11 -->
<g id="edge10_Node000001_Node000011" class="edge">
<title>Node1&#45;&gt;Node11</title>
<g id="a_edge10_Node000001_Node000011"><a xlink:title=" ">
<path fill="none" stroke="#63b8ff" d="M1629.5,-68.5C1615.14,-68.5 1600.29,-68.5 1586.13,-68.5"/>
<polygon fill="#63b8ff" stroke="#63b8ff" points="1629.85,-72 1639.85,-68.5 1629.85,-65 1629.85,-72"/>
</a>
</g>
</g>
<!-- Node13 -->
<g id="Node000013" class="node">
<title>Node13</title>
<g id="a_Node000013"><a xlink:href="../../dc/d88/classTerraria_1_1ModLoader_1_1Config_1_1UI_1_1BuffDefinitionElement_a36001e479df653992467f4e17140408b.html#a36001e479df653992467f4e17140408b" target="_top" xlink:title=" ">
<polygon fill="white" stroke="#666666" points="1604,-41 1413,-41 1413,0 1604,0 1604,-41"/>
<text text-anchor="start" x="1421" y="-29" font-family="Helvetica,sans-Serif" font-size="10.00">Terraria.ModLoader.Config.</text>
<text text-anchor="start" x="1421" y="-18" font-family="Helvetica,sans-Serif" font-size="10.00">UI.BuffDefinitionElement.GetPassed</text>
<text text-anchor="middle" x="1508.5" y="-7" font-family="Helvetica,sans-Serif" font-size="10.00">OptionElements</text>
</a>
</g>
</g>
<!-- Node1&#45;&gt;Node13 -->
<g id="edge13_Node000001_Node000013" class="edge">
<title>Node1&#45;&gt;Node13</title>
<g id="a_edge13_Node000001_Node000013"><a xlink:title=" ">
<path fill="none" stroke="#63b8ff" d="M1662.93,-56.6C1643,-51.91 1619.53,-46.39 1597.01,-41.09"/>
<polygon fill="#63b8ff" stroke="#63b8ff" points="1662.17,-60.02 1672.71,-58.9 1663.78,-53.2 1662.17,-60.02"/>
</a>
</g>
</g>
<!-- Node3 -->
<g id="Node000003" class="node">
<title>Node3</title>
<g id="a_Node000003"><a xlink:href="../../da/dd5/classTerraria_1_1Main_ab3924e407c7591c8f6a3eab6fb91c660.html#ab3924e407c7591c8f6a3eab6fb91c660" target="_top" xlink:title=" ">
<polygon fill="white" stroke="#666666" points="1377,-126.5 1228,-126.5 1228,-96.5 1377,-96.5 1377,-126.5"/>
<text text-anchor="start" x="1236" y="-114.5" font-family="Helvetica,sans-Serif" font-size="10.00">Terraria.Main.GUIBarsDraw</text>
<text text-anchor="middle" x="1302.5" y="-103.5" font-family="Helvetica,sans-Serif" font-size="10.00">Inner</text>
</a>
</g>
</g>
<!-- Node2&#45;&gt;Node3 -->
<g id="edge2_Node000002_Node000003" class="edge">
<title>Node2&#45;&gt;Node3</title>
<g id="a_edge2_Node000002_Node000003"><a xlink:title=" ">
<path fill="none" stroke="#63b8ff" d="M1422.13,-111.5C1407.16,-111.5 1391.69,-111.5 1377.07,-111.5"/>
<polygon fill="#63b8ff" stroke="#63b8ff" points="1422.41,-115 1432.41,-111.5 1422.41,-108 1422.41,-115"/>
</a>
</g>
</g>
<!-- Node4 -->
<g id="Node000004" class="node">
<title>Node4</title>
<g id="a_Node000004"><a xlink:href="../../da/dd5/classTerraria_1_1Main_ab10cfa3b8f8cf32086c08dcaadbcda98.html#ab10cfa3b8f8cf32086c08dcaadbcda98" target="_top" xlink:title=" ">
<polygon fill="white" stroke="#666666" points="1190.5,-121 1041.5,-121 1041.5,-102 1190.5,-102 1190.5,-121"/>
<text text-anchor="middle" x="1116" y="-109" font-family="Helvetica,sans-Serif" font-size="10.00">Terraria.Main.GUIBarsDraw</text>
</a>
</g>
</g>
<!-- Node3&#45;&gt;Node4 -->
<g id="edge3_Node000003_Node000004" class="edge">
<title>Node3&#45;&gt;Node4</title>
<g id="a_edge3_Node000003_Node000004"><a xlink:title=" ">
<path fill="none" stroke="#63b8ff" d="M1217.66,-111.5C1208.63,-111.5 1199.49,-111.5 1190.6,-111.5"/>
<polygon fill="#63b8ff" stroke="#63b8ff" points="1217.79,-115 1227.79,-111.5 1217.79,-108 1217.79,-115"/>
</a>
</g>
</g>
<!-- Node5 -->
<g id="Node000005" class="node">
<title>Node5</title>
<g id="a_Node000005"><a xlink:href="../../da/dd5/classTerraria_1_1Main_a6d33ec3d8aef878fc0526908e0f2d35d.html#a6d33ec3d8aef878fc0526908e0f2d35d" target="_top" xlink:title=" ">
<polygon fill="white" stroke="#666666" points="1004,-126.5 852,-126.5 852,-96.5 1004,-96.5 1004,-126.5"/>
<text text-anchor="start" x="860" y="-114.5" font-family="Helvetica,sans-Serif" font-size="10.00">Terraria.Main.DrawInterface</text>
<text text-anchor="middle" x="928" y="-103.5" font-family="Helvetica,sans-Serif" font-size="10.00">_25_ResourceBars</text>
</a>
</g>
</g>
<!-- Node4&#45;&gt;Node5 -->
<g id="edge4_Node000004_Node000005" class="edge">
<title>Node4&#45;&gt;Node5</title>
<g id="a_edge4_Node000004_Node000005"><a xlink:title=" ">
<path fill="none" stroke="#63b8ff" d="M1031.32,-111.5C1022.25,-111.5 1013.07,-111.5 1004.11,-111.5"/>
<polygon fill="#63b8ff" stroke="#63b8ff" points="1031.49,-115 1041.49,-111.5 1031.49,-108 1031.49,-115"/>
</a>
</g>
</g>
<!-- Node6 -->
<g id="Node000006" class="node">
<title>Node6</title>
<g id="a_Node000006"><a xlink:href="../../da/dd5/classTerraria_1_1Main_a635639e6a6d3795bbfbcf0e24fc3aac5.html#a635639e6a6d3795bbfbcf0e24fc3aac5" target="_top" xlink:title=" ">
<polygon fill="white" stroke="#666666" points="816,-104.5 636,-104.5 636,-74.5 816,-74.5 816,-104.5"/>
<text text-anchor="start" x="644" y="-92.5" font-family="Helvetica,sans-Serif" font-size="10.00">Terraria.Main.SetupDrawInterface</text>
<text text-anchor="middle" x="726" y="-81.5" font-family="Helvetica,sans-Serif" font-size="10.00">Layers</text>
</a>
</g>
</g>
<!-- Node5&#45;&gt;Node6 -->
<g id="edge5_Node000005_Node000006" class="edge">
<title>Node5&#45;&gt;Node6</title>
<g id="a_edge5_Node000005_Node000006"><a xlink:title=" ">
<path fill="none" stroke="#63b8ff" d="M841.76,-102.12C833.33,-101.2 824.76,-100.25 816.28,-99.32"/>
<polygon fill="#63b8ff" stroke="#63b8ff" points="841.64,-105.63 851.96,-103.25 842.4,-98.67 841.64,-105.63"/>
</a>
</g>
</g>
<!-- Node7 -->
<g id="Node000007" class="node">
<title>Node7</title>
<g id="a_Node000007"><a xlink:href="../../da/dd5/classTerraria_1_1Main_a36d139a1fd2647d53f25a241f3d5d5f4.html#a36d139a1fd2647d53f25a241f3d5d5f4" target="_top" xlink:title=" ">
<polygon fill="white" stroke="#666666" points="600,-99 448,-99 448,-80 600,-80 600,-99"/>
<text text-anchor="middle" x="524" y="-87" font-family="Helvetica,sans-Serif" font-size="10.00">Terraria.Main.DrawInterface</text>
</a>
</g>
</g>
<!-- Node6&#45;&gt;Node7 -->
<g id="edge6_Node000006_Node000007" class="edge">
<title>Node6&#45;&gt;Node7</title>
<g id="a_edge6_Node000006_Node000007"><a xlink:title=" ">
<path fill="none" stroke="#63b8ff" d="M625.77,-89.5C617.19,-89.5 608.6,-89.5 600.26,-89.5"/>
<polygon fill="#63b8ff" stroke="#63b8ff" points="625.82,-93 635.82,-89.5 625.82,-86 625.82,-93"/>
</a>
</g>
</g>
<!-- Node8 -->
<g id="Node000008" class="node">
<title>Node8</title>
<g id="a_Node000008"><a xlink:href="../../da/dd5/classTerraria_1_1Main_a474beeecaea4d6dd108fba56cd554d46.html#a474beeecaea4d6dd108fba56cd554d46" target="_top" xlink:title=" ">
<polygon fill="white" stroke="#666666" points="412,-99 290,-99 290,-80 412,-80 412,-99"/>
<text text-anchor="middle" x="351" y="-87" font-family="Helvetica,sans-Serif" font-size="10.00">Terraria.Main.DoDraw</text>
</a>
</g>
</g>
<!-- Node7&#45;&gt;Node8 -->
<g id="edge7_Node000007_Node000008" class="edge">
<title>Node7&#45;&gt;Node8</title>
<g id="a_edge7_Node000007_Node000008"><a xlink:title=" ">
<path fill="none" stroke="#63b8ff" d="M437.81,-89.5C429.1,-89.5 420.4,-89.5 412.05,-89.5"/>
<polygon fill="#63b8ff" stroke="#63b8ff" points="438,-93 448,-89.5 438,-86 438,-93"/>
</a>
</g>
</g>
<!-- Node9 -->
<g id="Node000009" class="node">
<title>Node9</title>
<g id="a_Node000009"><a xlink:href="../../da/dd5/classTerraria_1_1Main_aa597dbafa085227bb056d05d0b0f9abe.html#aa597dbafa085227bb056d05d0b0f9abe" target="_top" xlink:title=" ">
<polygon fill="white" stroke="#666666" points="254,-104.5 145,-104.5 145,-74.5 254,-74.5 254,-104.5"/>
<text text-anchor="start" x="153" y="-92.5" font-family="Helvetica,sans-Serif" font-size="10.00">Terraria.Main.Draw</text>
<text text-anchor="middle" x="199.5" y="-81.5" font-family="Helvetica,sans-Serif" font-size="10.00">_Inner</text>
</a>
</g>
</g>
<!-- Node8&#45;&gt;Node9 -->
<g id="edge8_Node000008_Node000009" class="edge">
<title>Node8&#45;&gt;Node9</title>
<g id="a_edge8_Node000008_Node000009"><a xlink:title=" ">
<path fill="none" stroke="#63b8ff" d="M279.41,-89.5C270.99,-89.5 262.49,-89.5 254.35,-89.5"/>
<polygon fill="#63b8ff" stroke="#63b8ff" points="279.62,-93 289.62,-89.5 279.62,-86 279.62,-93"/>
</a>
</g>
</g>
<!-- Node10 -->
<g id="Node000010" class="node">
<title>Node10</title>
<g id="a_Node000010"><a xlink:href="../../da/dd5/classTerraria_1_1Main_a516aa31311860bad4242ade32e5effcd.html#a516aa31311860bad4242ade32e5effcd" target="_top" xlink:title=" ">
<polygon fill="white" stroke="#666666" points="109,-99 0,-99 0,-80 109,-80 109,-99"/>
<text text-anchor="middle" x="54.5" y="-87" font-family="Helvetica,sans-Serif" font-size="10.00">Terraria.Main.Draw</text>
</a>
</g>
</g>
<!-- Node9&#45;&gt;Node10 -->
<g id="edge9_Node000009_Node000010" class="edge">
<title>Node9&#45;&gt;Node10</title>
<g id="a_edge9_Node000009_Node000010"><a xlink:title=" ">
<path fill="none" stroke="#63b8ff" d="M134.68,-89.5C126.25,-89.5 117.69,-89.5 109.46,-89.5"/>
<polygon fill="#63b8ff" stroke="#63b8ff" points="134.85,-93 144.85,-89.5 134.85,-86 134.85,-93"/>
</a>
</g>
</g>
<!-- Node12 -->
<g id="Node000012" class="node">
<title>Node12</title>
<g id="a_Node000012"><a xlink:href="../../da/dd5/classTerraria_1_1Main_a6ec2a6dd6eea7cf9082122035842a01b.html#a6ec2a6dd6eea7cf9082122035842a01b" target="_top" xlink:title=" ">
<polygon fill="white" stroke="#666666" points="1192,-83.5 1040,-83.5 1040,-53.5 1192,-53.5 1192,-83.5"/>
<text text-anchor="start" x="1048" y="-71.5" font-family="Helvetica,sans-Serif" font-size="10.00">Terraria.Main.DrawInterface</text>
<text text-anchor="middle" x="1116" y="-60.5" font-family="Helvetica,sans-Serif" font-size="10.00">_27_Inventory</text>
</a>
</g>
</g>
<!-- Node11&#45;&gt;Node12 -->
<g id="edge11_Node000011_Node000012" class="edge">
<title>Node11&#45;&gt;Node12</title>
<g id="a_edge11_Node000011_Node000012"><a xlink:title=" ">
<path fill="none" stroke="#63b8ff" d="M1420.48,-68.5C1351.96,-68.5 1257.44,-68.5 1192.18,-68.5"/>
<polygon fill="#63b8ff" stroke="#63b8ff" points="1420.82,-72 1430.82,-68.5 1420.82,-65 1420.82,-72"/>
</a>
</g>
</g>
<!-- Node12&#45;&gt;Node6 -->
<g id="edge12_Node000012_Node000006" class="edge">
<title>Node12&#45;&gt;Node6</title>
<g id="a_edge12_Node000012_Node000006"><a xlink:title=" ">
<path fill="none" stroke="#63b8ff" d="M1029.38,-73.13C966.07,-76.56 880.09,-81.21 816,-84.68"/>
<polygon fill="#63b8ff" stroke="#63b8ff" points="1029.93,-76.61 1039.73,-72.57 1029.56,-69.62 1029.93,-76.61"/>
</a>
</g>
</g>
</g>
</svg>
