<?xml version="1.0" encoding="UTF-8" standalone="no"?>
<!DOCTYPE svg PUBLIC "-//W3C//DTD SVG 1.1//EN"
 "http://www.w3.org/Graphics/SVG/1.1/DTD/svg11.dtd">
<!-- Generated by graphviz version 2.43.0 (0)
 -->
<!-- Title: Terraria.Lang.BartenderChat Pages: 1 -->
<svg width="1182pt" height="232pt"
 viewBox="0.00 0.00 1182.00 232.00" xmlns="http://www.w3.org/2000/svg" xmlns:xlink="http://www.w3.org/1999/xlink">
<g id="graph0" class="graph" transform="scale(1 1) rotate(0) translate(4 228)">
<title>Terraria.Lang.BartenderChat</title>
<!-- Node1 -->
<g id="Node000001" class="node">
<title>Node1</title>
<g id="a_Node000001"><a xlink:title=" ">
<polygon fill="#999999" stroke="#666666" points="153,-102.5 0,-102.5 0,-83.5 153,-83.5 153,-102.5"/>
<text text-anchor="middle" x="76.5" y="-90.5" font-family="Helvetica,sans-Serif" font-size="10.00">Terraria.Lang.BartenderChat</text>
</a>
</g>
</g>
<!-- Node2 -->
<g id="Node000002" class="node">
<title>Node2</title>
<g id="a_Node000002"><a xlink:href="../../df/dd3/classTerraria_1_1Lang_adb3fcf36ca1334a7cc5d3e54e03588f7.html#adb3fcf36ca1334a7cc5d3e54e03588f7" target="_top" xlink:title="Filters LocalizedText objects by checking if their key starts with the provided startsWith &#160;parameter...">
<polygon fill="white" stroke="#666666" points="346,-202 200,-202 200,-172 346,-172 346,-202"/>
<text text-anchor="start" x="208" y="-190" font-family="Helvetica,sans-Serif" font-size="10.00">Terraria.Lang.CreateDialog</text>
<text text-anchor="middle" x="273" y="-179" font-family="Helvetica,sans-Serif" font-size="10.00">Filter</text>
</a>
</g>
</g>
<!-- Node1&#45;&gt;Node2 -->
<g id="edge1_Node000001_Node000002" class="edge">
<title>Node1&#45;&gt;Node2</title>
<g id="a_edge1_Node000001_Node000002"><a xlink:title=" ">
<path fill="none" stroke="#63b8ff" d="M97.22,-102.53C128.58,-117.69 190.46,-147.59 231.54,-167.44"/>
<polygon fill="#63b8ff" stroke="#63b8ff" points="230.21,-170.69 240.73,-171.89 233.25,-164.39 230.21,-170.69"/>
</a>
</g>
</g>
<!-- Node4 -->
<g id="Node000004" class="node">
<title>Node4</title>
<g id="a_Node000004"><a xlink:href="../../df/dd3/classTerraria_1_1Lang_a0123042733fdd005cc6ac1665caf6100.html#a0123042733fdd005cc6ac1665caf6100" target="_top" xlink:title=" ">
<polygon fill="white" stroke="#666666" points="346,-132 200,-132 200,-102 346,-102 346,-132"/>
<text text-anchor="start" x="208" y="-120" font-family="Helvetica,sans-Serif" font-size="10.00">Terraria.Lang.CreateDialog</text>
<text text-anchor="middle" x="273" y="-109" font-family="Helvetica,sans-Serif" font-size="10.00">SubstitutionObject</text>
</a>
</g>
</g>
<!-- Node1&#45;&gt;Node4 -->
<g id="edge3_Node000001_Node000004" class="edge">
<title>Node1&#45;&gt;Node4</title>
<g id="a_edge3_Node000001_Node000004"><a xlink:title=" ">
<path fill="none" stroke="#63b8ff" d="M153.26,-102.35C165.26,-103.83 177.71,-105.37 189.85,-106.86"/>
<polygon fill="#63b8ff" stroke="#63b8ff" points="189.6,-110.36 199.96,-108.11 190.46,-103.41 189.6,-110.36"/>
</a>
</g>
</g>
<!-- Node12 -->
<g id="Node000012" class="node">
<title>Node12</title>
<g id="a_Node000012"><a xlink:href="../../d4/d8f/classTerraria_1_1Localization_1_1Language_aee1558e43a43c3c4a8bcbfd1d84ffe43.html#aee1558e43a43c3c4a8bcbfd1d84ffe43" target="_top" xlink:title=" ">
<polygon fill="white" stroke="#666666" points="357,-84 189,-84 189,-54 357,-54 357,-84"/>
<text text-anchor="start" x="197" y="-72" font-family="Helvetica,sans-Serif" font-size="10.00">Terraria.Localization.Language.</text>
<text text-anchor="middle" x="273" y="-61" font-family="Helvetica,sans-Serif" font-size="10.00">GetTextValueWith</text>
</a>
</g>
</g>
<!-- Node1&#45;&gt;Node12 -->
<g id="edge13_Node000001_Node000012" class="edge">
<title>Node1&#45;&gt;Node12</title>
<g id="a_edge13_Node000001_Node000012"><a xlink:title=" ">
<path fill="none" stroke="#63b8ff" d="M153.26,-83.65C161.61,-82.62 170.19,-81.56 178.73,-80.51"/>
<polygon fill="#63b8ff" stroke="#63b8ff" points="179.22,-83.97 188.72,-79.28 178.37,-77.03 179.22,-83.97"/>
</a>
</g>
</g>
<!-- Node13 -->
<g id="Node000013" class="node">
<title>Node13</title>
<g id="a_Node000013"><a xlink:href="../../d4/d8f/classTerraria_1_1Localization_1_1Language_a5ab9b894e128c508ebdcc03cc8d1aac5.html#a5ab9b894e128c508ebdcc03cc8d1aac5" target="_top" xlink:title="Selects a single random LocalizedText that satisfies the filter &#160;parameter. Typically used with M:Ter...">
<polygon fill="white" stroke="#666666" points="357,-36 189,-36 189,-6 357,-6 357,-36"/>
<text text-anchor="start" x="197" y="-24" font-family="Helvetica,sans-Serif" font-size="10.00">Terraria.Localization.Language.</text>
<text text-anchor="middle" x="273" y="-13" font-family="Helvetica,sans-Serif" font-size="10.00">SelectRandom</text>
</a>
</g>
</g>
<!-- Node1&#45;&gt;Node13 -->
<g id="edge14_Node000001_Node000013" class="edge">
<title>Node1&#45;&gt;Node13</title>
<g id="a_edge14_Node000001_Node000013"><a xlink:title=" ">
<path fill="none" stroke="#63b8ff" d="M97.74,-83.37C119.85,-73.08 156.46,-56.66 189,-45 194.61,-42.99 200.48,-41.03 206.38,-39.14"/>
<polygon fill="#63b8ff" stroke="#63b8ff" points="207.82,-42.36 216.33,-36.06 205.74,-35.68 207.82,-42.36"/>
</a>
</g>
</g>
<!-- Node3 -->
<g id="Node000003" class="node">
<title>Node3</title>
<g id="a_Node000003"><a xlink:href="../../d5/d73/classTerraria_1_1Localization_1_1LocalizedText_a8465a4e8662fbe15d206b2bbd0181e99.html#a8465a4e8662fbe15d206b2bbd0181e99" target="_top" xlink:title="Checks if the conditions embedded in this LocalizedText are satisfied by the obj &#160;argument....">
<polygon fill="white" stroke="#666666" points="569,-224 405,-224 405,-194 569,-194 569,-224"/>
<text text-anchor="start" x="413" y="-212" font-family="Helvetica,sans-Serif" font-size="10.00">Terraria.Localization.Localized</text>
<text text-anchor="middle" x="487" y="-201" font-family="Helvetica,sans-Serif" font-size="10.00">Text.CanFormatWith</text>
</a>
</g>
</g>
<!-- Node2&#45;&gt;Node3 -->
<g id="edge2_Node000002_Node000003" class="edge">
<title>Node2&#45;&gt;Node3</title>
<g id="a_edge2_Node000002_Node000003"><a xlink:title=" ">
<path fill="none" stroke="#63b8ff" d="M346.07,-194.48C361.68,-196.1 378.38,-197.83 394.62,-199.52"/>
<polygon fill="#63b8ff" stroke="#63b8ff" points="394.34,-203.01 404.65,-200.56 395.07,-196.04 394.34,-203.01"/>
</a>
</g>
</g>
<!-- Node5 -->
<g id="Node000005" class="node">
<title>Node5</title>
<g id="a_Node000005"><a xlink:href="../../df/d5b/classTerraria_1_1GameInput_1_1PlayerInput_a00b6b25966823acf574403de65de9406.html#a00b6b25966823acf574403de65de9406" target="_top" xlink:title=" ">
<polygon fill="white" stroke="#666666" points="761,-186.5 617,-186.5 617,-145.5 761,-145.5 761,-186.5"/>
<text text-anchor="start" x="625" y="-174.5" font-family="Helvetica,sans-Serif" font-size="10.00">Terraria.GameInput.Player</text>
<text text-anchor="start" x="625" y="-163.5" font-family="Helvetica,sans-Serif" font-size="10.00">Input.GenerateInputTag</text>
<text text-anchor="middle" x="689" y="-152.5" font-family="Helvetica,sans-Serif" font-size="10.00">_ForCurrentGamemode</text>
</a>
</g>
</g>
<!-- Node4&#45;&gt;Node5 -->
<g id="edge4_Node000004_Node000005" class="edge">
<title>Node4&#45;&gt;Node5</title>
<g id="a_edge4_Node000004_Node000005"><a xlink:title=" ">
<path fill="none" stroke="#63b8ff" d="M327.22,-132.03C347.64,-137.25 371.25,-142.64 393,-146 464.81,-157.1 547.41,-162.04 606.9,-164.24"/>
<polygon fill="#63b8ff" stroke="#63b8ff" points="606.88,-167.74 616.99,-164.59 607.12,-160.74 606.88,-167.74"/>
</a>
</g>
</g>
<!-- Node9 -->
<g id="Node000009" class="node">
<title>Node9</title>
<g id="a_Node000009"><a xlink:href="../../df/d5b/classTerraria_1_1GameInput_1_1PlayerInput_a95e8bcda02bf49e3784241f2f13b89eb.html#a95e8bcda02bf49e3784241f2f13b89eb" target="_top" xlink:title=" ">
<polygon fill="white" stroke="#666666" points="581,-137.5 393,-137.5 393,-96.5 581,-96.5 581,-137.5"/>
<text text-anchor="start" x="401" y="-125.5" font-family="Helvetica,sans-Serif" font-size="10.00">Terraria.GameInput.Player</text>
<text text-anchor="start" x="401" y="-114.5" font-family="Helvetica,sans-Serif" font-size="10.00">Input.GenerateInputTag</text>
<text text-anchor="middle" x="487" y="-103.5" font-family="Helvetica,sans-Serif" font-size="10.00">_ForCurrentGamemode_WithHacks</text>
</a>
</g>
</g>
<!-- Node4&#45;&gt;Node9 -->
<g id="edge8_Node000004_Node000009" class="edge">
<title>Node4&#45;&gt;Node9</title>
<g id="a_edge8_Node000004_Node000009"><a xlink:title=" ">
<path fill="none" stroke="#63b8ff" d="M346.07,-117C357.79,-117 370.13,-117 382.43,-117"/>
<polygon fill="#63b8ff" stroke="#63b8ff" points="382.74,-120.5 392.74,-117 382.74,-113.5 382.74,-120.5"/>
</a>
</g>
</g>
<!-- Node10 -->
<g id="Node000010" class="node">
<title>Node10</title>
<g id="a_Node000010"><a xlink:href="../../df/d0d/classTerraria_1_1NPC_a86f132989e61697143d06c53ec765cf1.html#a86f132989e61697143d06c53ec765cf1" target="_top" xlink:title="Returns the P:Terraria.NPC.GivenOrTypeName of the first active NPC of the given type in the world....">
<polygon fill="white" stroke="#666666" points="570.5,-78 403.5,-78 403.5,-48 570.5,-48 570.5,-78"/>
<text text-anchor="start" x="411.5" y="-66" font-family="Helvetica,sans-Serif" font-size="10.00">Terraria.NPC.GetFirstNPCName</text>
<text text-anchor="middle" x="487" y="-55" font-family="Helvetica,sans-Serif" font-size="10.00">OrNull</text>
</a>
</g>
</g>
<!-- Node4&#45;&gt;Node10 -->
<g id="edge11_Node000004_Node000010" class="edge">
<title>Node4&#45;&gt;Node10</title>
<g id="a_edge11_Node000004_Node000010"><a xlink:title=" ">
<path fill="none" stroke="#63b8ff" d="M333.05,-101.96C359.13,-95.32 389.96,-87.46 417.09,-80.55"/>
<polygon fill="#63b8ff" stroke="#63b8ff" points="418.07,-83.92 426.9,-78.05 416.34,-77.13 418.07,-83.92"/>
</a>
</g>
</g>
<!-- Node11 -->
<g id="Node000011" class="node">
<title>Node11</title>
<g id="a_Node000011"><a xlink:href="../../d4/d8f/classTerraria_1_1Localization_1_1Language_ae4636a4800b9ecbaa498954520462f78.html#ae4636a4800b9ecbaa498954520462f78" target="_top" xlink:title="Retrieves the text value for a specified localization key. The text returned will be for the currentl...">
<polygon fill="white" stroke="#666666" points="571,-30 403,-30 403,0 571,0 571,-30"/>
<text text-anchor="start" x="411" y="-18" font-family="Helvetica,sans-Serif" font-size="10.00">Terraria.Localization.Language.</text>
<text text-anchor="middle" x="487" y="-7" font-family="Helvetica,sans-Serif" font-size="10.00">GetTextValue</text>
</a>
</g>
</g>
<!-- Node4&#45;&gt;Node11 -->
<g id="edge12_Node000004_Node000011" class="edge">
<title>Node4&#45;&gt;Node11</title>
<g id="a_edge12_Node000004_Node000011"><a xlink:title=" ">
<path fill="none" stroke="#63b8ff" d="M341.63,-101.95C347.07,-99.42 352.28,-96.46 357,-93 380.27,-75.96 369.49,-55.7 393,-39 395.14,-37.48 397.37,-36.05 399.67,-34.72"/>
<polygon fill="#63b8ff" stroke="#63b8ff" points="401.55,-37.69 408.84,-30.01 398.35,-31.46 401.55,-37.69"/>
</a>
</g>
</g>
<!-- Node6 -->
<g id="Node000006" class="node">
<title>Node6</title>
<g id="a_Node000006"><a xlink:href="../../df/d5b/classTerraria_1_1GameInput_1_1PlayerInput_a29aac4df5b0a5fb6d692119be1816a28.html#a29aac4df5b0a5fb6d692119be1816a28" target="_top" xlink:title=" ">
<polygon fill="white" stroke="#666666" points="945,-181 801,-181 801,-151 945,-151 945,-181"/>
<text text-anchor="start" x="809" y="-169" font-family="Helvetica,sans-Serif" font-size="10.00">Terraria.GameInput.Player</text>
<text text-anchor="middle" x="873" y="-158" font-family="Helvetica,sans-Serif" font-size="10.00">Input.GenerateGlyphList</text>
</a>
</g>
</g>
<!-- Node5&#45;&gt;Node6 -->
<g id="edge5_Node000005_Node000006" class="edge">
<title>Node5&#45;&gt;Node6</title>
<g id="a_edge5_Node000005_Node000006"><a xlink:title=" ">
<path fill="none" stroke="#63b8ff" d="M761.15,-166C770.84,-166 780.85,-166 790.71,-166"/>
<polygon fill="#63b8ff" stroke="#63b8ff" points="790.9,-169.5 800.9,-166 790.9,-162.5 790.9,-169.5"/>
</a>
</g>
</g>
<!-- Node8 -->
<g id="Node000008" class="node">
<title>Node8</title>
<g id="a_Node000008"><a xlink:href="../../df/d5b/classTerraria_1_1GameInput_1_1PlayerInput_ac8c07a90519e37e790aa3b386ee931d3.html#ac8c07a90519e37e790aa3b386ee931d3" target="_top" xlink:title=" ">
<polygon fill="white" stroke="#666666" points="949,-133 797,-133 797,-103 949,-103 949,-133"/>
<text text-anchor="start" x="805" y="-121" font-family="Helvetica,sans-Serif" font-size="10.00">Terraria.GameInput.Player</text>
<text text-anchor="middle" x="873" y="-110" font-family="Helvetica,sans-Serif" font-size="10.00">Input.GenerateRawInputList</text>
</a>
</g>
</g>
<!-- Node5&#45;&gt;Node8 -->
<g id="edge7_Node000005_Node000008" class="edge">
<title>Node5&#45;&gt;Node8</title>
<g id="a_edge7_Node000005_Node000008"><a xlink:title=" ">
<path fill="none" stroke="#63b8ff" d="M761.15,-147.24C775.65,-143.41 790.85,-139.4 805.2,-135.62"/>
<polygon fill="#63b8ff" stroke="#63b8ff" points="806.19,-138.98 814.97,-133.04 804.41,-132.21 806.19,-138.98"/>
</a>
</g>
</g>
<!-- Node7 -->
<g id="Node000007" class="node">
<title>Node7</title>
<g id="a_Node000007"><a xlink:href="../../dc/d17/classTerraria_1_1GameContent_1_1UI_1_1Chat_1_1GlyphTagHandler_a511708739227699872d3403ed39db655.html#a511708739227699872d3403ed39db655" target="_top" xlink:title=" ">
<polygon fill="white" stroke="#666666" points="1174,-181 985,-181 985,-151 1174,-151 1174,-181"/>
<text text-anchor="start" x="993" y="-169" font-family="Helvetica,sans-Serif" font-size="10.00">Terraria.GameContent.UI.</text>
<text text-anchor="middle" x="1079.5" y="-158" font-family="Helvetica,sans-Serif" font-size="10.00">Chat.GlyphTagHandler.GenerateTag</text>
</a>
</g>
</g>
<!-- Node6&#45;&gt;Node7 -->
<g id="edge6_Node000006_Node000007" class="edge">
<title>Node6&#45;&gt;Node7</title>
<g id="a_edge6_Node000006_Node000007"><a xlink:title=" ">
<path fill="none" stroke="#63b8ff" d="M945.24,-166C954.83,-166 964.83,-166 974.85,-166"/>
<polygon fill="#63b8ff" stroke="#63b8ff" points="974.86,-169.5 984.86,-166 974.86,-162.5 974.86,-169.5"/>
</a>
</g>
</g>
<!-- Node9&#45;&gt;Node5 -->
<g id="edge9_Node000009_Node000005" class="edge">
<title>Node9&#45;&gt;Node5</title>
<g id="a_edge9_Node000009_Node000005"><a xlink:title=" ">
<path fill="none" stroke="#63b8ff" d="M571.95,-137.57C583.52,-140.4 595.39,-143.31 606.92,-146.13"/>
<polygon fill="#63b8ff" stroke="#63b8ff" points="606.39,-149.61 616.94,-148.59 608.06,-142.81 606.39,-149.61"/>
</a>
</g>
</g>
<!-- Node9&#45;&gt;Node8 -->
<g id="edge10_Node000009_Node000008" class="edge">
<title>Node9&#45;&gt;Node8</title>
<g id="a_edge10_Node000009_Node000008"><a xlink:title=" ">
<path fill="none" stroke="#63b8ff" d="M581.45,-117.24C643.98,-117.41 725.66,-117.62 786.49,-117.78"/>
<polygon fill="#63b8ff" stroke="#63b8ff" points="786.82,-121.28 796.83,-117.8 786.84,-114.28 786.82,-121.28"/>
</a>
</g>
</g>
</g>
</svg>
