<?xml version="1.0" encoding="UTF-8" standalone="no"?>
<!DOCTYPE svg PUBLIC "-//W3C//DTD SVG 1.1//EN"
 "http://www.w3.org/Graphics/SVG/1.1/DTD/svg11.dtd">
<!-- Generated by graphviz version 2.43.0 (0)
 -->
<!-- Title: Terraria.ModLoader.ModAccessorySlot.CanAcceptItem Pages: 1 -->
<svg width="2693pt" height="81pt"
 viewBox="0.00 0.00 2693.00 81.00" xmlns="http://www.w3.org/2000/svg" xmlns:xlink="http://www.w3.org/1999/xlink">
<g id="graph0" class="graph" transform="scale(1 1) rotate(0) translate(4 77)">
<title>Terraria.ModLoader.ModAccessorySlot.CanAcceptItem</title>
<!-- Node1 -->
<g id="Node000001" class="node">
<title>Node1</title>
<g id="a_Node000001"><a xlink:title="Override to set conditions on what can be placed in the slot. Default is to return false only when it...">
<polygon fill="#999999" stroke="#666666" points="2685,-51 2502,-51 2502,-21 2685,-21 2685,-51"/>
<text text-anchor="start" x="2510" y="-39" font-family="Helvetica,sans-Serif" font-size="10.00">Terraria.ModLoader.ModAccessory</text>
<text text-anchor="middle" x="2593.5" y="-28" font-family="Helvetica,sans-Serif" font-size="10.00">Slot.CanAcceptItem</text>
</a>
</g>
</g>
<!-- Node2 -->
<g id="Node000002" class="node">
<title>Node2</title>
<g id="a_Node000002"><a xlink:href="../../d7/deb/classTerraria_1_1ModLoader_1_1AccessorySlotLoader_a61658228c4f16d1ff5a452f651a962f3.html#a61658228c4f16d1ff5a452f651a962f3" target="_top" xlink:title=" ">
<polygon fill="white" stroke="#666666" points="2466,-51 2304,-51 2304,-21 2466,-21 2466,-51"/>
<text text-anchor="start" x="2312" y="-39" font-family="Helvetica,sans-Serif" font-size="10.00">Terraria.ModLoader.Accessory</text>
<text text-anchor="middle" x="2385" y="-28" font-family="Helvetica,sans-Serif" font-size="10.00">SlotLoader.CanAcceptItem</text>
</a>
</g>
</g>
<!-- Node1&#45;&gt;Node2 -->
<g id="edge1_Node000001_Node000002" class="edge">
<title>Node1&#45;&gt;Node2</title>
<g id="a_edge1_Node000001_Node000002"><a xlink:title=" ">
<path fill="none" stroke="#63b8ff" d="M2491.83,-36C2483.2,-36 2474.56,-36 2466.13,-36"/>
<polygon fill="#63b8ff" stroke="#63b8ff" points="2491.93,-39.5 2501.93,-36 2491.93,-32.5 2491.93,-39.5"/>
</a>
</g>
</g>
<!-- Node3 -->
<g id="Node000003" class="node">
<title>Node3</title>
<g id="a_Node000003"><a xlink:href="../../dd/de1/classTerraria_1_1UI_1_1ItemSlot_a50cea2a4a8e7505857fa97ecd8b4b06c.html#a50cea2a4a8e7505857fa97ecd8b4b06c" target="_top" xlink:title=" ">
<polygon fill="white" stroke="#666666" points="1891,-73 1759,-73 1759,-43 1891,-43 1891,-73"/>
<text text-anchor="start" x="1767" y="-61" font-family="Helvetica,sans-Serif" font-size="10.00">Terraria.UI.ItemSlot.Left</text>
<text text-anchor="middle" x="1825" y="-50" font-family="Helvetica,sans-Serif" font-size="10.00">Click</text>
</a>
</g>
</g>
<!-- Node2&#45;&gt;Node3 -->
<g id="edge2_Node000002_Node000003" class="edge">
<title>Node2&#45;&gt;Node3</title>
<g id="a_edge2_Node000002_Node000003"><a xlink:title=" ">
<path fill="none" stroke="#63b8ff" d="M2293.43,-39.57C2180.68,-44.02 1990.87,-51.5 1891.36,-55.42"/>
<polygon fill="#63b8ff" stroke="#63b8ff" points="2293.9,-43.06 2303.76,-39.16 2293.63,-36.06 2293.9,-43.06"/>
</a>
</g>
</g>
<!-- Node4 -->
<g id="Node000004" class="node">
<title>Node4</title>
<g id="a_Node000004"><a xlink:href="../../d7/deb/classTerraria_1_1ModLoader_1_1AccessorySlotLoader_aa41c284136e72e011745076fb2790844.html#aa41c284136e72e011745076fb2790844" target="_top" xlink:title="Checks if the provided item can go in to the provided slot. Includes checking if the item already exi...">
<polygon fill="white" stroke="#666666" points="2268,-30 2106,-30 2106,0 2268,0 2268,-30"/>
<text text-anchor="start" x="2114" y="-18" font-family="Helvetica,sans-Serif" font-size="10.00">Terraria.ModLoader.Accessory</text>
<text text-anchor="middle" x="2187" y="-7" font-family="Helvetica,sans-Serif" font-size="10.00">SlotLoader.ModSlotCheck</text>
</a>
</g>
</g>
<!-- Node2&#45;&gt;Node4 -->
<g id="edge3_Node000002_Node000004" class="edge">
<title>Node2&#45;&gt;Node4</title>
<g id="a_edge3_Node000002_Node000004"><a xlink:title=" ">
<path fill="none" stroke="#63b8ff" d="M2293.92,-26.35C2285.3,-25.42 2276.59,-24.49 2268.07,-23.58"/>
<polygon fill="#63b8ff" stroke="#63b8ff" points="2293.68,-29.84 2304,-27.43 2294.43,-22.88 2293.68,-29.84"/>
</a>
</g>
</g>
<!-- Node5 -->
<g id="Node000005" class="node">
<title>Node5</title>
<g id="a_Node000005"><a xlink:href="../../dd/de1/classTerraria_1_1UI_1_1ItemSlot_a472629e636876c5a731b9e7d47984cb5.html#a472629e636876c5a731b9e7d47984cb5" target="_top" xlink:title=" ">
<polygon fill="white" stroke="#666666" points="2070,-30 1936,-30 1936,0 2070,0 2070,-30"/>
<text text-anchor="start" x="1944" y="-18" font-family="Helvetica,sans-Serif" font-size="10.00">Terraria.UI.ItemSlot.Pick</text>
<text text-anchor="middle" x="2003" y="-7" font-family="Helvetica,sans-Serif" font-size="10.00">ItemMovementAction</text>
</a>
</g>
</g>
<!-- Node4&#45;&gt;Node5 -->
<g id="edge4_Node000004_Node000005" class="edge">
<title>Node4&#45;&gt;Node5</title>
<g id="a_edge4_Node000004_Node000005"><a xlink:title=" ">
<path fill="none" stroke="#63b8ff" d="M2095.81,-15C2087.18,-15 2078.55,-15 2070.22,-15"/>
<polygon fill="#63b8ff" stroke="#63b8ff" points="2095.91,-18.5 2105.91,-15 2095.91,-11.5 2095.91,-18.5"/>
</a>
</g>
</g>
<!-- Node5&#45;&gt;Node3 -->
<g id="edge5_Node000005_Node000003" class="edge">
<title>Node5&#45;&gt;Node3</title>
<g id="a_edge5_Node000005_Node000003"><a xlink:title=" ">
<path fill="none" stroke="#63b8ff" d="M1930.66,-32.43C1916.36,-35.92 1901.45,-39.57 1887.52,-42.97"/>
<polygon fill="#63b8ff" stroke="#63b8ff" points="1931.56,-35.81 1940.44,-30.04 1929.9,-29.01 1931.56,-35.81"/>
</a>
</g>
</g>
<!-- Node6 -->
<g id="Node000006" class="node">
<title>Node6</title>
<g id="a_Node000006"><a xlink:href="../../d8/dd3/classTerraria_1_1UI_1_1ChestUI_af6490b2a042a10b7110b91d21b58db51.html#af6490b2a042a10b7110b91d21b58db51" target="_top" xlink:title=" ">
<polygon fill="white" stroke="#666666" points="1900,-24.5 1750,-24.5 1750,-5.5 1900,-5.5 1900,-24.5"/>
<text text-anchor="middle" x="1825" y="-12.5" font-family="Helvetica,sans-Serif" font-size="10.00">Terraria.UI.ChestUI.Restock</text>
</a>
</g>
</g>
<!-- Node5&#45;&gt;Node6 -->
<g id="edge6_Node000005_Node000006" class="edge">
<title>Node5&#45;&gt;Node6</title>
<g id="a_edge6_Node000005_Node000006"><a xlink:title=" ">
<path fill="none" stroke="#63b8ff" d="M1925.7,-15C1917.2,-15 1908.56,-15 1900.09,-15"/>
<polygon fill="#63b8ff" stroke="#63b8ff" points="1925.96,-18.5 1935.96,-15 1925.96,-11.5 1925.96,-18.5"/>
</a>
</g>
</g>
<!-- Node7 -->
<g id="Node000007" class="node">
<title>Node7</title>
<g id="a_Node000007"><a xlink:href="../../d8/dd3/classTerraria_1_1UI_1_1ChestUI_a8bf2eff440d946a95977889b34ff8b91.html#a8bf2eff440d946a95977889b34ff8b91" target="_top" xlink:title=" ">
<polygon fill="white" stroke="#666666" points="1714,-30 1577,-30 1577,0 1714,0 1714,-30"/>
<text text-anchor="start" x="1585" y="-18" font-family="Helvetica,sans-Serif" font-size="10.00">Terraria.UI.ChestUI.Draw</text>
<text text-anchor="middle" x="1645.5" y="-7" font-family="Helvetica,sans-Serif" font-size="10.00">Button</text>
</a>
</g>
</g>
<!-- Node6&#45;&gt;Node7 -->
<g id="edge7_Node000006_Node000007" class="edge">
<title>Node6&#45;&gt;Node7</title>
<g id="a_edge7_Node000006_Node000007"><a xlink:title=" ">
<path fill="none" stroke="#63b8ff" d="M1739.75,-15C1731.19,-15 1722.57,-15 1714.22,-15"/>
<polygon fill="#63b8ff" stroke="#63b8ff" points="1739.75,-18.5 1749.75,-15 1739.75,-11.5 1739.75,-18.5"/>
</a>
</g>
</g>
<!-- Node8 -->
<g id="Node000008" class="node">
<title>Node8</title>
<g id="a_Node000008"><a xlink:href="../../d8/dd3/classTerraria_1_1UI_1_1ChestUI_a29ff526beab31298925ae3b889af5f83.html#a29ff526beab31298925ae3b889af5f83" target="_top" xlink:title=" ">
<polygon fill="white" stroke="#666666" points="1541,-30 1404,-30 1404,0 1541,0 1541,-30"/>
<text text-anchor="start" x="1412" y="-18" font-family="Helvetica,sans-Serif" font-size="10.00">Terraria.UI.ChestUI.Draw</text>
<text text-anchor="middle" x="1472.5" y="-7" font-family="Helvetica,sans-Serif" font-size="10.00">Buttons</text>
</a>
</g>
</g>
<!-- Node7&#45;&gt;Node8 -->
<g id="edge8_Node000007_Node000008" class="edge">
<title>Node7&#45;&gt;Node8</title>
<g id="a_edge8_Node000007_Node000008"><a xlink:title=" ">
<path fill="none" stroke="#63b8ff" d="M1566.9,-15C1558.31,-15 1549.61,-15 1541.15,-15"/>
<polygon fill="#63b8ff" stroke="#63b8ff" points="1566.92,-18.5 1576.92,-15 1566.92,-11.5 1566.92,-18.5"/>
</a>
</g>
</g>
<!-- Node9 -->
<g id="Node000009" class="node">
<title>Node9</title>
<g id="a_Node000009"><a xlink:href="../../d8/dd3/classTerraria_1_1UI_1_1ChestUI_a88b244e7968d6898255653a9d6790103.html#a88b244e7968d6898255653a9d6790103" target="_top" xlink:title=" ">
<polygon fill="white" stroke="#666666" points="1368,-24.5 1231,-24.5 1231,-5.5 1368,-5.5 1368,-24.5"/>
<text text-anchor="middle" x="1299.5" y="-12.5" font-family="Helvetica,sans-Serif" font-size="10.00">Terraria.UI.ChestUI.Draw</text>
</a>
</g>
</g>
<!-- Node8&#45;&gt;Node9 -->
<g id="edge9_Node000008_Node000009" class="edge">
<title>Node8&#45;&gt;Node9</title>
<g id="a_edge9_Node000008_Node000009"><a xlink:title=" ">
<path fill="none" stroke="#63b8ff" d="M1393.9,-15C1385.31,-15 1376.61,-15 1368.15,-15"/>
<polygon fill="#63b8ff" stroke="#63b8ff" points="1393.92,-18.5 1403.92,-15 1393.92,-11.5 1393.92,-18.5"/>
</a>
</g>
</g>
<!-- Node10 -->
<g id="Node000010" class="node">
<title>Node10</title>
<g id="a_Node000010"><a xlink:href="../../da/dd5/classTerraria_1_1Main_a3d98f18e1b3a22533d5282611b6d8dfe.html#a3d98f18e1b3a22533d5282611b6d8dfe" target="_top" xlink:title=" ">
<polygon fill="white" stroke="#666666" points="1195,-24.5 1040,-24.5 1040,-5.5 1195,-5.5 1195,-24.5"/>
<text text-anchor="middle" x="1117.5" y="-12.5" font-family="Helvetica,sans-Serif" font-size="10.00">Terraria.Main.DrawInventory</text>
</a>
</g>
</g>
<!-- Node9&#45;&gt;Node10 -->
<g id="edge10_Node000009_Node000010" class="edge">
<title>Node9&#45;&gt;Node10</title>
<g id="a_edge10_Node000009_Node000010"><a xlink:title=" ">
<path fill="none" stroke="#63b8ff" d="M1220.73,-15C1212.26,-15 1203.64,-15 1195.19,-15"/>
<polygon fill="#63b8ff" stroke="#63b8ff" points="1220.96,-18.5 1230.96,-15 1220.96,-11.5 1220.96,-18.5"/>
</a>
</g>
</g>
<!-- Node11 -->
<g id="Node000011" class="node">
<title>Node11</title>
<g id="a_Node000011"><a xlink:href="../../da/dd5/classTerraria_1_1Main_a6ec2a6dd6eea7cf9082122035842a01b.html#a6ec2a6dd6eea7cf9082122035842a01b" target="_top" xlink:title=" ">
<polygon fill="white" stroke="#666666" points="1004,-30 852,-30 852,0 1004,0 1004,-30"/>
<text text-anchor="start" x="860" y="-18" font-family="Helvetica,sans-Serif" font-size="10.00">Terraria.Main.DrawInterface</text>
<text text-anchor="middle" x="928" y="-7" font-family="Helvetica,sans-Serif" font-size="10.00">_27_Inventory</text>
</a>
</g>
</g>
<!-- Node10&#45;&gt;Node11 -->
<g id="edge11_Node000010_Node000011" class="edge">
<title>Node10&#45;&gt;Node11</title>
<g id="a_edge11_Node000010_Node000011"><a xlink:title=" ">
<path fill="none" stroke="#63b8ff" d="M1029.9,-15C1021.27,-15 1012.57,-15 1004.08,-15"/>
<polygon fill="#63b8ff" stroke="#63b8ff" points="1029.97,-18.5 1039.97,-15 1029.97,-11.5 1029.97,-18.5"/>
</a>
</g>
</g>
<!-- Node12 -->
<g id="Node000012" class="node">
<title>Node12</title>
<g id="a_Node000012"><a xlink:href="../../da/dd5/classTerraria_1_1Main_a635639e6a6d3795bbfbcf0e24fc3aac5.html#a635639e6a6d3795bbfbcf0e24fc3aac5" target="_top" xlink:title=" ">
<polygon fill="white" stroke="#666666" points="816,-30 636,-30 636,0 816,0 816,-30"/>
<text text-anchor="start" x="644" y="-18" font-family="Helvetica,sans-Serif" font-size="10.00">Terraria.Main.SetupDrawInterface</text>
<text text-anchor="middle" x="726" y="-7" font-family="Helvetica,sans-Serif" font-size="10.00">Layers</text>
</a>
</g>
</g>
<!-- Node11&#45;&gt;Node12 -->
<g id="edge12_Node000011_Node000012" class="edge">
<title>Node11&#45;&gt;Node12</title>
<g id="a_edge12_Node000011_Node000012"><a xlink:title=" ">
<path fill="none" stroke="#63b8ff" d="M841.76,-15C833.33,-15 824.76,-15 816.28,-15"/>
<polygon fill="#63b8ff" stroke="#63b8ff" points="841.96,-18.5 851.96,-15 841.96,-11.5 841.96,-18.5"/>
</a>
</g>
</g>
<!-- Node13 -->
<g id="Node000013" class="node">
<title>Node13</title>
<g id="a_Node000013"><a xlink:href="../../da/dd5/classTerraria_1_1Main_a36d139a1fd2647d53f25a241f3d5d5f4.html#a36d139a1fd2647d53f25a241f3d5d5f4" target="_top" xlink:title=" ">
<polygon fill="white" stroke="#666666" points="600,-24.5 448,-24.5 448,-5.5 600,-5.5 600,-24.5"/>
<text text-anchor="middle" x="524" y="-12.5" font-family="Helvetica,sans-Serif" font-size="10.00">Terraria.Main.DrawInterface</text>
</a>
</g>
</g>
<!-- Node12&#45;&gt;Node13 -->
<g id="edge13_Node000012_Node000013" class="edge">
<title>Node12&#45;&gt;Node13</title>
<g id="a_edge13_Node000012_Node000013"><a xlink:title=" ">
<path fill="none" stroke="#63b8ff" d="M625.77,-15C617.19,-15 608.6,-15 600.26,-15"/>
<polygon fill="#63b8ff" stroke="#63b8ff" points="625.82,-18.5 635.82,-15 625.82,-11.5 625.82,-18.5"/>
</a>
</g>
</g>
<!-- Node14 -->
<g id="Node000014" class="node">
<title>Node14</title>
<g id="a_Node000014"><a xlink:href="../../da/dd5/classTerraria_1_1Main_a474beeecaea4d6dd108fba56cd554d46.html#a474beeecaea4d6dd108fba56cd554d46" target="_top" xlink:title=" ">
<polygon fill="white" stroke="#666666" points="412,-24.5 290,-24.5 290,-5.5 412,-5.5 412,-24.5"/>
<text text-anchor="middle" x="351" y="-12.5" font-family="Helvetica,sans-Serif" font-size="10.00">Terraria.Main.DoDraw</text>
</a>
</g>
</g>
<!-- Node13&#45;&gt;Node14 -->
<g id="edge14_Node000013_Node000014" class="edge">
<title>Node13&#45;&gt;Node14</title>
<g id="a_edge14_Node000013_Node000014"><a xlink:title=" ">
<path fill="none" stroke="#63b8ff" d="M437.81,-15C429.1,-15 420.4,-15 412.05,-15"/>
<polygon fill="#63b8ff" stroke="#63b8ff" points="438,-18.5 448,-15 438,-11.5 438,-18.5"/>
</a>
</g>
</g>
<!-- Node15 -->
<g id="Node000015" class="node">
<title>Node15</title>
<g id="a_Node000015"><a xlink:href="../../da/dd5/classTerraria_1_1Main_aa597dbafa085227bb056d05d0b0f9abe.html#aa597dbafa085227bb056d05d0b0f9abe" target="_top" xlink:title=" ">
<polygon fill="white" stroke="#666666" points="254,-30 145,-30 145,0 254,0 254,-30"/>
<text text-anchor="start" x="153" y="-18" font-family="Helvetica,sans-Serif" font-size="10.00">Terraria.Main.Draw</text>
<text text-anchor="middle" x="199.5" y="-7" font-family="Helvetica,sans-Serif" font-size="10.00">_Inner</text>
</a>
</g>
</g>
<!-- Node14&#45;&gt;Node15 -->
<g id="edge15_Node000014_Node000015" class="edge">
<title>Node14&#45;&gt;Node15</title>
<g id="a_edge15_Node000014_Node000015"><a xlink:title=" ">
<path fill="none" stroke="#63b8ff" d="M279.41,-15C270.99,-15 262.49,-15 254.35,-15"/>
<polygon fill="#63b8ff" stroke="#63b8ff" points="279.62,-18.5 289.62,-15 279.62,-11.5 279.62,-18.5"/>
</a>
</g>
</g>
<!-- Node16 -->
<g id="Node000016" class="node">
<title>Node16</title>
<g id="a_Node000016"><a xlink:href="../../da/dd5/classTerraria_1_1Main_a516aa31311860bad4242ade32e5effcd.html#a516aa31311860bad4242ade32e5effcd" target="_top" xlink:title=" ">
<polygon fill="white" stroke="#666666" points="109,-24.5 0,-24.5 0,-5.5 109,-5.5 109,-24.5"/>
<text text-anchor="middle" x="54.5" y="-12.5" font-family="Helvetica,sans-Serif" font-size="10.00">Terraria.Main.Draw</text>
</a>
</g>
</g>
<!-- Node15&#45;&gt;Node16 -->
<g id="edge16_Node000015_Node000016" class="edge">
<title>Node15&#45;&gt;Node16</title>
<g id="a_edge16_Node000015_Node000016"><a xlink:title=" ">
<path fill="none" stroke="#63b8ff" d="M134.68,-15C126.25,-15 117.69,-15 109.46,-15"/>
<polygon fill="#63b8ff" stroke="#63b8ff" points="134.85,-18.5 144.85,-15 134.85,-11.5 134.85,-18.5"/>
</a>
</g>
</g>
</g>
</svg>
