<?xml version="1.0" encoding="UTF-8" standalone="no"?>
<!DOCTYPE svg PUBLIC "-//W3C//DTD SVG 1.1//EN"
 "http://www.w3.org/Graphics/SVG/1.1/DTD/svg11.dtd">
<!-- Generated by graphviz version 2.43.0 (0)
 -->
<!-- Title: Terraria.DataStructures.TileEntitiesManager Pages: 1 -->
<svg width="220pt" height="435pt"
 viewBox="0.00 0.00 220.00 435.00" xmlns="http://www.w3.org/2000/svg" xmlns:xlink="http://www.w3.org/1999/xlink">
<g id="graph0" class="graph" transform="scale(1 1) rotate(0) translate(4 431)">
<title>Terraria.DataStructures.TileEntitiesManager</title>
<!-- Node1 -->
<g id="Node000001" class="node">
<title>Node1</title>
<g id="a_Node000001"><a xlink:title=" ">
<polygon fill="#999999" stroke="transparent" points="160,-309 0,-309 0,0 160,0 160,-309"/>
<text text-anchor="start" x="22" y="-296.5" font-family="Helvetica,sans-Serif" font-size="10.00">Terraria.DataStructures.</text>
<text text-anchor="start" x="31" y="-285.5" font-family="Helvetica,sans-Serif" font-size="10.00">TileEntitiesManager</text>
<text text-anchor="start" x="78" y="-270.5" font-family="Helvetica,sans-Serif" font-size="10.00"> </text>
<text text-anchor="start" x="4" y="-255.5" font-family="Helvetica,sans-Serif" font-size="10.00">+</text>
<text text-anchor="start" x="17" y="-255.5" font-family="Helvetica,sans-Serif" font-size="10.00">void RegisterAll()</text>
<text text-anchor="start" x="4" y="-240.5" font-family="Helvetica,sans-Serif" font-size="10.00">+</text>
<text text-anchor="start" x="17" y="-240.5" font-family="Helvetica,sans-Serif" font-size="10.00">void Register(TileEntity</text>
<text text-anchor="start" x="17" y="-229.5" font-family="Helvetica,sans-Serif" font-size="10.00"> entity)</text>
<text text-anchor="start" x="4" y="-214.5" font-family="Helvetica,sans-Serif" font-size="10.00">+</text>
<text text-anchor="start" x="17" y="-214.5" font-family="Helvetica,sans-Serif" font-size="10.00">bool CheckValidTile</text>
<text text-anchor="start" x="17" y="-203.5" font-family="Helvetica,sans-Serif" font-size="10.00">(int id, int x, int y)</text>
<text text-anchor="start" x="4" y="-188.5" font-family="Helvetica,sans-Serif" font-size="10.00">+</text>
<text text-anchor="start" x="17" y="-188.5" font-family="Helvetica,sans-Serif" font-size="10.00">void NetPlaceEntity</text>
<text text-anchor="start" x="17" y="-177.5" font-family="Helvetica,sans-Serif" font-size="10.00">(int id, int x, int y)</text>
<text text-anchor="start" x="4" y="-162.5" font-family="Helvetica,sans-Serif" font-size="10.00">+</text>
<text text-anchor="start" x="17" y="-162.5" font-family="Helvetica,sans-Serif" font-size="10.00">TileEntity GenerateInstance</text>
<text text-anchor="start" x="17" y="-151.5" font-family="Helvetica,sans-Serif" font-size="10.00">(int id)</text>
<text text-anchor="start" x="4" y="-136.5" font-family="Helvetica,sans-Serif" font-size="10.00">+</text>
<text text-anchor="start" x="17" y="-136.5" font-family="Helvetica,sans-Serif" font-size="10.00">TileEntity GetTileEntity</text>
<text text-anchor="start" x="17" y="-125.5" font-family="Helvetica,sans-Serif" font-size="10.00">&lt; T &gt;(int id)</text>
<text text-anchor="start" x="4" y="-110.5" font-family="Helvetica,sans-Serif" font-size="10.00">+</text>
<text text-anchor="start" x="17" y="-110.5" font-family="Helvetica,sans-Serif" font-size="10.00">bool TryGetTileEntity</text>
<text text-anchor="start" x="17" y="-99.5" font-family="Helvetica,sans-Serif" font-size="10.00">&lt; T &gt;(int id, out T tileEntity)</text>
<text text-anchor="start" x="4" y="-84.5" font-family="Helvetica,sans-Serif" font-size="10.00">+</text>
<text text-anchor="start" x="17" y="-84.5" font-family="Helvetica,sans-Serif" font-size="10.00">IReadOnlyDictionary</text>
<text text-anchor="start" x="17" y="-73.5" font-family="Helvetica,sans-Serif" font-size="10.00">&lt; int, TileEntity &gt;</text>
<text text-anchor="start" x="17" y="-62.5" font-family="Helvetica,sans-Serif" font-size="10.00"> EnumerateEntities()</text>
<text text-anchor="start" x="4" y="-47.5" font-family="Helvetica,sans-Serif" font-size="10.00">~</text>
<text text-anchor="start" x="17" y="-47.5" font-family="Helvetica,sans-Serif" font-size="10.00">void Reset()</text>
<text text-anchor="start" x="6.5" y="-32.5" font-family="Helvetica,sans-Serif" font-size="10.00">&#45;</text>
<text text-anchor="start" x="17" y="-32.5" font-family="Helvetica,sans-Serif" font-size="10.00">int AssignNewID()</text>
<text text-anchor="start" x="6.5" y="-17.5" font-family="Helvetica,sans-Serif" font-size="10.00">&#45;</text>
<text text-anchor="start" x="17" y="-17.5" font-family="Helvetica,sans-Serif" font-size="10.00">bool InvalidEntityID</text>
<text text-anchor="start" x="17" y="-6.5" font-family="Helvetica,sans-Serif" font-size="10.00">(int id)</text>
<polygon fill="#666666" stroke="#666666" points="0,-280.5 0,-280.5 160,-280.5 160,-280.5 0,-280.5"/>
<polygon fill="#666666" stroke="#666666" points="0,-265.5 0,-265.5 160,-265.5 160,-265.5 0,-265.5"/>
<polygon fill="none" stroke="#666666" points="0,0 0,-309 160,-309 160,0 0,0"/>
</a>
</g>
</g>
<!-- Node2 -->
<g id="Node000002" class="node">
<title>Node2</title>
<g id="a_Node000002"><a xlink:title=" ">
<polygon fill="white" stroke="transparent" points="32.5,-421.5 9.5,-421.5 9.5,-372.5 32.5,-372.5 32.5,-421.5"/>
<text text-anchor="start" x="15" y="-409" font-family="Helvetica,sans-Serif" font-size="10.00">int</text>
<text text-anchor="start" x="19.5" y="-394" font-family="Helvetica,sans-Serif" font-size="10.00"> </text>
<text text-anchor="start" x="19.5" y="-379" font-family="Helvetica,sans-Serif" font-size="10.00"> </text>
<polygon fill="#666666" stroke="#666666" points="10,-404 10,-404 33,-404 33,-404 10,-404"/>
<polygon fill="#666666" stroke="#666666" points="10,-389 10,-389 33,-389 33,-389 10,-389"/>
<polygon fill="none" stroke="#666666" points="9.5,-372.5 9.5,-421.5 32.5,-421.5 32.5,-372.5 9.5,-372.5"/>
</a>
</g>
</g>
<!-- Node2&#45;&gt;Node1 -->
<g id="edge1_Node000001_Node000002" class="edge">
<title>Node2&#45;&gt;Node1</title>
<g id="a_edge1_Node000001_Node000002"><a xlink:title=" ">
<path fill="none" stroke="#63b8ff" d="M19.53,-372.2C19.16,-358.82 19.44,-341.88 22,-327 22.33,-325.07 22.68,-323.13 23.05,-321.19"/>
<polygon fill="none" stroke="#63b8ff" points="23.1,-320.93 20.39,-314.25 25.51,-309.17 28.23,-315.85 23.1,-320.93"/>
</a>
</g>
<text text-anchor="middle" x="70" y="-341" font-family="Helvetica,sans-Serif" font-size="10.00" fill="grey"> +VanillaTypeCount</text>
<text text-anchor="middle" x="70" y="-330" font-family="Helvetica,sans-Serif" font-size="10.00" fill="grey">&#45;_nextEntityID</text>
</g>
<!-- Node3 -->
<g id="Node000003" class="node">
<title>Node3</title>
<g id="a_Node000003"><a xlink:title=" ">
<polygon fill="white" stroke="transparent" points="212,-427 68,-427 68,-367 212,-367 212,-427"/>
<text text-anchor="start" x="73" y="-415" font-family="Helvetica,sans-Serif" font-size="10.00">Dictionary&lt; int, Terraria.</text>
<text text-anchor="start" x="73" y="-404" font-family="Helvetica,sans-Serif" font-size="10.00">DataStructures.TileEntity &gt;</text>
<text text-anchor="start" x="138" y="-389" font-family="Helvetica,sans-Serif" font-size="10.00"> </text>
<text text-anchor="start" x="138" y="-374" font-family="Helvetica,sans-Serif" font-size="10.00"> </text>
<polygon fill="#666666" stroke="#666666" points="68,-399 68,-399 212,-399 212,-399 68,-399"/>
<polygon fill="#666666" stroke="#666666" points="68,-384 68,-384 212,-384 212,-384 68,-384"/>
<polygon fill="none" stroke="#666666" points="68,-367 68,-427 212,-427 212,-367 68,-367"/>
</a>
</g>
</g>
<!-- Node3&#45;&gt;Node1 -->
<g id="edge2_Node000001_Node000003" class="edge">
<title>Node3&#45;&gt;Node1</title>
<g id="a_edge2_Node000001_Node000003"><a xlink:title=" ">
<path fill="none" stroke="#63b8ff" d="M132.76,-366.99C129.59,-354.28 125.6,-338.28 121.24,-320.78"/>
<polygon fill="none" stroke="#63b8ff" points="121.22,-320.74 115.89,-315.88 118.32,-309.09 123.65,-313.95 121.22,-320.74"/>
</a>
</g>
<text text-anchor="middle" x="147" y="-335.5" font-family="Helvetica,sans-Serif" font-size="10.00" fill="grey"> &#45;_types</text>
</g>
</g>
</svg>
