<?xml version="1.0" encoding="UTF-8" standalone="no"?>
<!DOCTYPE svg PUBLIC "-//W3C//DTD SVG 1.1//EN"
 "http://www.w3.org/Graphics/SVG/1.1/DTD/svg11.dtd">
<!-- Generated by graphviz version 2.43.0 (0)
 -->
<!-- Title: Terraria.ModLoader.CommandLoader.HandleCommand Pages: 1 -->
<svg width="1093pt" height="124pt"
 viewBox="0.00 0.00 1093.00 124.00" xmlns="http://www.w3.org/2000/svg" xmlns:xlink="http://www.w3.org/1999/xlink">
<g id="graph0" class="graph" transform="scale(1 1) rotate(0) translate(4 120)">
<title>Terraria.ModLoader.CommandLoader.HandleCommand</title>
<!-- Node1 -->
<g id="Node000001" class="node">
<title>Node1</title>
<g id="a_Node000001"><a xlink:title=" ">
<polygon fill="#999999" stroke="#666666" points="1085,-73 922,-73 922,-43 1085,-43 1085,-73"/>
<text text-anchor="start" x="930" y="-61" font-family="Helvetica,sans-Serif" font-size="10.00">Terraria.ModLoader.Command</text>
<text text-anchor="middle" x="1003.5" y="-50" font-family="Helvetica,sans-Serif" font-size="10.00">Loader.HandleCommand</text>
</a>
</g>
</g>
<!-- Node2 -->
<g id="Node000002" class="node">
<title>Node2</title>
<g id="a_Node000002"><a xlink:href="../../da/dd5/classTerraria_1_1Main_ab09bf6dc5d7f14c7f6cc13fc82e8e890.html#ab09bf6dc5d7f14c7f6cc13fc82e8e890" target="_top" xlink:title=" ">
<polygon fill="white" stroke="#666666" points="856,-116 724,-116 724,-86 856,-86 856,-116"/>
<text text-anchor="start" x="732" y="-104" font-family="Helvetica,sans-Serif" font-size="10.00">Terraria.Main.DoUpdate</text>
<text text-anchor="middle" x="790" y="-93" font-family="Helvetica,sans-Serif" font-size="10.00">_HandleChat</text>
</a>
</g>
</g>
<!-- Node1&#45;&gt;Node2 -->
<g id="edge1_Node000001_Node000002" class="edge">
<title>Node1&#45;&gt;Node2</title>
<g id="a_edge1_Node000001_Node000002"><a xlink:title=" ">
<path fill="none" stroke="#63b8ff" d="M918.45,-75.09C897.71,-79.3 875.81,-83.76 856.12,-87.76"/>
<polygon fill="#63b8ff" stroke="#63b8ff" points="919.43,-78.46 928.53,-73.04 918.03,-71.6 919.43,-78.46"/>
</a>
</g>
</g>
<!-- Node5 -->
<g id="Node000005" class="node">
<title>Node5</title>
<g id="a_Node000005"><a xlink:href="../../da/dd5/classTerraria_1_1Main_aa7cef82d39e10a0dd8fb82d169f68ea6.html#aa7cef82d39e10a0dd8fb82d169f68ea6" target="_top" xlink:title=" ">
<polygon fill="white" stroke="#666666" points="876,-67.5 704,-67.5 704,-48.5 876,-48.5 876,-67.5"/>
<text text-anchor="middle" x="790" y="-55.5" font-family="Helvetica,sans-Serif" font-size="10.00">Terraria.Main.ExecuteCommand</text>
</a>
</g>
</g>
<!-- Node1&#45;&gt;Node5 -->
<g id="edge4_Node000001_Node000005" class="edge">
<title>Node1&#45;&gt;Node5</title>
<g id="a_edge4_Node000001_Node000005"><a xlink:title=" ">
<path fill="none" stroke="#63b8ff" d="M911.69,-58C899.93,-58 887.92,-58 876.26,-58"/>
<polygon fill="#63b8ff" stroke="#63b8ff" points="911.94,-61.5 921.94,-58 911.94,-54.5 911.94,-61.5"/>
</a>
</g>
</g>
<!-- Node10 -->
<g id="Node000010" class="node">
<title>Node10</title>
<g id="a_Node000010"><a xlink:href="../../d6/df3/classTerraria_1_1Chat_1_1ChatCommandProcessor_ae5e77f148269399be732924b7af0c7e2.html#ae5e77f148269399be732924b7af0c7e2" target="_top" xlink:title=" ">
<polygon fill="white" stroke="#666666" points="886,-30 694,-30 694,0 886,0 886,-30"/>
<text text-anchor="start" x="702" y="-18" font-family="Helvetica,sans-Serif" font-size="10.00">Terraria.Chat.ChatCommand</text>
<text text-anchor="middle" x="790" y="-7" font-family="Helvetica,sans-Serif" font-size="10.00">Processor.ProcessIncomingMessage</text>
</a>
</g>
</g>
<!-- Node1&#45;&gt;Node10 -->
<g id="edge9_Node000001_Node000010" class="edge">
<title>Node1&#45;&gt;Node10</title>
<g id="a_edge9_Node000001_Node000010"><a xlink:title=" ">
<path fill="none" stroke="#63b8ff" d="M918.26,-40.87C900.62,-37.29 882.16,-33.53 864.93,-30.03"/>
<polygon fill="#63b8ff" stroke="#63b8ff" points="918.03,-44.4 928.53,-42.96 919.43,-37.54 918.03,-44.4"/>
</a>
</g>
</g>
<!-- Node3 -->
<g id="Node000003" class="node">
<title>Node3</title>
<g id="a_Node000003"><a xlink:href="../../da/dd5/classTerraria_1_1Main_a96341b8439a15bcefc0f119767e24e35.html#a96341b8439a15bcefc0f119767e24e35" target="_top" xlink:title=" ">
<polygon fill="white" stroke="#666666" points="649,-110.5 517,-110.5 517,-91.5 649,-91.5 649,-110.5"/>
<text text-anchor="middle" x="583" y="-98.5" font-family="Helvetica,sans-Serif" font-size="10.00">Terraria.Main.DoUpdate</text>
</a>
</g>
</g>
<!-- Node2&#45;&gt;Node3 -->
<g id="edge2_Node000002_Node000003" class="edge">
<title>Node2&#45;&gt;Node3</title>
<g id="a_edge2_Node000002_Node000003"><a xlink:title=" ">
<path fill="none" stroke="#63b8ff" d="M713.65,-101C692.55,-101 669.79,-101 649.33,-101"/>
<polygon fill="#63b8ff" stroke="#63b8ff" points="713.86,-104.5 723.86,-101 713.86,-97.5 713.86,-104.5"/>
</a>
</g>
</g>
<!-- Node4 -->
<g id="Node000004" class="node">
<title>Node4</title>
<g id="a_Node000004"><a xlink:href="../../da/dd5/classTerraria_1_1Main_a49776516aea1626e33c722fc8896a7de.html#a49776516aea1626e33c722fc8896a7de" target="_top" xlink:title=" ">
<polygon fill="white" stroke="#666666" points="456.5,-110.5 337.5,-110.5 337.5,-91.5 456.5,-91.5 456.5,-110.5"/>
<text text-anchor="middle" x="397" y="-98.5" font-family="Helvetica,sans-Serif" font-size="10.00">Terraria.Main.Update</text>
</a>
</g>
</g>
<!-- Node3&#45;&gt;Node4 -->
<g id="edge3_Node000003_Node000004" class="edge">
<title>Node3&#45;&gt;Node4</title>
<g id="a_edge3_Node000003_Node000004"><a xlink:title=" ">
<path fill="none" stroke="#63b8ff" d="M506.6,-101C489.93,-101 472.5,-101 456.6,-101"/>
<polygon fill="#63b8ff" stroke="#63b8ff" points="506.87,-104.5 516.87,-101 506.87,-97.5 506.87,-104.5"/>
</a>
</g>
</g>
<!-- Node6 -->
<g id="Node000006" class="node">
<title>Node6</title>
<g id="a_Node000006"><a xlink:href="../../da/dd5/classTerraria_1_1Main_abe243911d93b810e5b35782f2749d3d2.html#abe243911d93b810e5b35782f2749d3d2" target="_top" xlink:title=" ">
<polygon fill="white" stroke="#666666" points="658,-73 508,-73 508,-43 658,-43 658,-73"/>
<text text-anchor="start" x="516" y="-61" font-family="Helvetica,sans-Serif" font-size="10.00">Terraria.Main.startDedInput</text>
<text text-anchor="middle" x="583" y="-50" font-family="Helvetica,sans-Serif" font-size="10.00">CallBack</text>
</a>
</g>
</g>
<!-- Node5&#45;&gt;Node6 -->
<g id="edge5_Node000005_Node000006" class="edge">
<title>Node5&#45;&gt;Node6</title>
<g id="a_edge5_Node000005_Node000006"><a xlink:title=" ">
<path fill="none" stroke="#63b8ff" d="M693.82,-58C681.83,-58 669.71,-58 658.12,-58"/>
<polygon fill="#63b8ff" stroke="#63b8ff" points="693.84,-61.5 703.84,-58 693.84,-54.5 693.84,-61.5"/>
</a>
</g>
</g>
<!-- Node7 -->
<g id="Node000007" class="node">
<title>Node7</title>
<g id="a_Node000007"><a xlink:href="../../da/dd5/classTerraria_1_1Main_a6e4565502fe16602e15a5efa6ca07047.html#a6e4565502fe16602e15a5efa6ca07047" target="_top" xlink:title=" ">
<polygon fill="white" stroke="#666666" points="472,-67.5 322,-67.5 322,-48.5 472,-48.5 472,-67.5"/>
<text text-anchor="middle" x="397" y="-55.5" font-family="Helvetica,sans-Serif" font-size="10.00">Terraria.Main.startDedInput</text>
</a>
</g>
</g>
<!-- Node6&#45;&gt;Node7 -->
<g id="edge6_Node000006_Node000007" class="edge">
<title>Node6&#45;&gt;Node7</title>
<g id="a_edge6_Node000006_Node000007"><a xlink:title=" ">
<path fill="none" stroke="#63b8ff" d="M497.93,-58C489.35,-58 480.66,-58 472.19,-58"/>
<polygon fill="#63b8ff" stroke="#63b8ff" points="497.96,-61.5 507.96,-58 497.96,-54.5 497.96,-61.5"/>
</a>
</g>
</g>
<!-- Node8 -->
<g id="Node000008" class="node">
<title>Node8</title>
<g id="a_Node000008"><a xlink:href="../../da/dd5/classTerraria_1_1Main_a290b6801aeb27a5fb4012a45f54043d2.html#a290b6801aeb27a5fb4012a45f54043d2" target="_top" xlink:title=" ">
<polygon fill="white" stroke="#666666" points="286,-73 161,-73 161,-43 286,-43 286,-73"/>
<text text-anchor="start" x="169" y="-61" font-family="Helvetica,sans-Serif" font-size="10.00">Terraria.Main.DedServ</text>
<text text-anchor="middle" x="223.5" y="-50" font-family="Helvetica,sans-Serif" font-size="10.00">_PostModLoad</text>
</a>
</g>
</g>
<!-- Node7&#45;&gt;Node8 -->
<g id="edge7_Node000007_Node000008" class="edge">
<title>Node7&#45;&gt;Node8</title>
<g id="a_edge7_Node000007_Node000008"><a xlink:title=" ">
<path fill="none" stroke="#63b8ff" d="M311.72,-58C303.13,-58 294.52,-58 286.23,-58"/>
<polygon fill="#63b8ff" stroke="#63b8ff" points="311.78,-61.5 321.78,-58 311.78,-54.5 311.78,-61.5"/>
</a>
</g>
</g>
<!-- Node9 -->
<g id="Node000009" class="node">
<title>Node9</title>
<g id="a_Node000009"><a xlink:href="../../da/dd5/classTerraria_1_1Main_acc7c7058447ffaab5490befcb8ff2bf4.html#acc7c7058447ffaab5490befcb8ff2bf4" target="_top" xlink:title=" ">
<polygon fill="white" stroke="#666666" points="125,-67.5 0,-67.5 0,-48.5 125,-48.5 125,-67.5"/>
<text text-anchor="middle" x="62.5" y="-55.5" font-family="Helvetica,sans-Serif" font-size="10.00">Terraria.Main.DedServ</text>
</a>
</g>
</g>
<!-- Node8&#45;&gt;Node9 -->
<g id="edge8_Node000008_Node000009" class="edge">
<title>Node8&#45;&gt;Node9</title>
<g id="a_edge8_Node000008_Node000009"><a xlink:title=" ">
<path fill="none" stroke="#63b8ff" d="M150.41,-58C142.01,-58 133.5,-58 125.26,-58"/>
<polygon fill="#63b8ff" stroke="#63b8ff" points="150.57,-61.5 160.57,-58 150.57,-54.5 150.57,-61.5"/>
</a>
</g>
</g>
</g>
</svg>
