<?xml version="1.0" encoding="UTF-8" standalone="no"?>
<!DOCTYPE svg PUBLIC "-//W3C//DTD SVG 1.1//EN"
 "http://www.w3.org/Graphics/SVG/1.1/DTD/svg11.dtd">
<!-- Generated by graphviz version 2.43.0 (0)
 -->
<!-- Title: Terraria.ModLoader.ModLoader.EnableMod Pages: 1 -->
<svg width="2648pt" height="413pt"
 viewBox="0.00 0.00 2648.00 412.96" xmlns="http://www.w3.org/2000/svg" xmlns:xlink="http://www.w3.org/1999/xlink">
<g id="graph0" class="graph" transform="scale(1 1) rotate(0) translate(4 408.96)">
<title>Terraria.ModLoader.ModLoader.EnableMod</title>
<!-- Node1 -->
<g id="Node000001" class="node">
<title>Node1</title>
<g id="a_Node000001"><a xlink:title=" ">
<polygon fill="#999999" stroke="#666666" points="2640,-350.96 2471,-350.96 2471,-320.96 2640,-320.96 2640,-350.96"/>
<text text-anchor="start" x="2479" y="-338.96" font-family="Helvetica,sans-Serif" font-size="10.00">Terraria.ModLoader.ModLoader.</text>
<text text-anchor="middle" x="2555.5" y="-327.96" font-family="Helvetica,sans-Serif" font-size="10.00">EnableMod</text>
</a>
</g>
</g>
<!-- Node2 -->
<g id="Node000002" class="node">
<title>Node2</title>
<g id="a_Node000002"><a xlink:href="../../d7/d6b/classTerraria_1_1ModLoader_1_1Core_1_1ModCompile_a10622b9ac25ce10df888b6e5ac578d6c.html#a10622b9ac25ce10df888b6e5ac578d6c" target="_top" xlink:title=" ">
<polygon fill="white" stroke="#666666" points="2413,-404.96 2275,-404.96 2275,-374.96 2413,-374.96 2413,-404.96"/>
<text text-anchor="start" x="2283" y="-392.96" font-family="Helvetica,sans-Serif" font-size="10.00">Terraria.ModLoader.Core.</text>
<text text-anchor="middle" x="2344" y="-381.96" font-family="Helvetica,sans-Serif" font-size="10.00">ModCompile.Build</text>
</a>
</g>
</g>
<!-- Node1&#45;&gt;Node2 -->
<g id="edge1_Node000001_Node000002" class="edge">
<title>Node1&#45;&gt;Node2</title>
<g id="a_edge1_Node000001_Node000002"><a xlink:title=" ">
<path fill="none" stroke="#63b8ff" d="M2486.45,-353.5C2459.65,-360.4 2429.19,-368.26 2403.41,-374.9"/>
<polygon fill="#63b8ff" stroke="#63b8ff" points="2487.33,-356.88 2496.14,-351 2485.59,-350.1 2487.33,-356.88"/>
</a>
</g>
</g>
<!-- Node3 -->
<g id="Node000003" class="node">
<title>Node3</title>
<g id="a_Node000003"><a xlink:href="../../dd/de0/classTerraria_1_1ModLoader_1_1Engine_1_1FileAssociationSupport_a30c879201c2f81802af0f4b213ad6fe3.html#a30c879201c2f81802af0f4b213ad6fe3" target="_top" xlink:title=" ">
<polygon fill="white" stroke="#666666" points="2435,-356.46 2253,-356.46 2253,-315.46 2435,-315.46 2435,-356.46"/>
<text text-anchor="start" x="2261" y="-344.46" font-family="Helvetica,sans-Serif" font-size="10.00">Terraria.ModLoader.Engine.</text>
<text text-anchor="start" x="2261" y="-333.46" font-family="Helvetica,sans-Serif" font-size="10.00">FileAssociationSupport.HandleFile</text>
<text text-anchor="middle" x="2344" y="-322.46" font-family="Helvetica,sans-Serif" font-size="10.00">Association</text>
</a>
</g>
</g>
<!-- Node1&#45;&gt;Node3 -->
<g id="edge2_Node000001_Node000003" class="edge">
<title>Node1&#45;&gt;Node3</title>
<g id="a_edge2_Node000001_Node000003"><a xlink:title=" ">
<path fill="none" stroke="#63b8ff" d="M2460.54,-335.96C2452.08,-335.96 2443.52,-335.96 2435.1,-335.96"/>
<polygon fill="#63b8ff" stroke="#63b8ff" points="2460.8,-339.46 2470.8,-335.96 2460.8,-332.46 2460.8,-339.46"/>
</a>
</g>
</g>
<!-- Node11 -->
<g id="Node000011" class="node">
<title>Node11</title>
<g id="a_Node000011"><a xlink:href="../../df/d47/classTerraria_1_1ModLoader_1_1ModNet_a85d12addece186efdc26a1f443b98416.html#a85d12addece186efdc26a1f443b98416" target="_top" xlink:title=" ">
<polygon fill="white" stroke="#666666" points="2421,-291.96 2267,-291.96 2267,-261.96 2421,-261.96 2421,-291.96"/>
<text text-anchor="start" x="2275" y="-279.96" font-family="Helvetica,sans-Serif" font-size="10.00">Terraria.ModLoader.ModNet.</text>
<text text-anchor="middle" x="2344" y="-268.96" font-family="Helvetica,sans-Serif" font-size="10.00">ReceiveMod</text>
</a>
</g>
</g>
<!-- Node1&#45;&gt;Node11 -->
<g id="edge10_Node000001_Node000011" class="edge">
<title>Node1&#45;&gt;Node11</title>
<g id="a_edge10_Node000001_Node000011"><a xlink:title=" ">
<path fill="none" stroke="#63b8ff" d="M2491.25,-318.14C2461.58,-309.79 2426.61,-299.94 2398.31,-291.97"/>
<polygon fill="#63b8ff" stroke="#63b8ff" points="2490.52,-321.57 2501.09,-320.91 2492.42,-314.84 2490.52,-321.57"/>
</a>
</g>
</g>
<!-- Node4 -->
<g id="Node000004" class="node">
<title>Node4</title>
<g id="a_Node000004"><a xlink:href="../../de/d13/classTerraria_1_1Initializers_1_1LaunchInitializer_a4051b5b466ac9bf894a312d279d0d6e3.html#a4051b5b466ac9bf894a312d279d0d6e3" target="_top" xlink:title=" ">
<polygon fill="white" stroke="#666666" points="2217,-351.96 2042,-351.96 2042,-321.96 2217,-321.96 2217,-351.96"/>
<text text-anchor="start" x="2050" y="-339.96" font-family="Helvetica,sans-Serif" font-size="10.00">Terraria.Initializers.Launch</text>
<text text-anchor="middle" x="2129.5" y="-328.96" font-family="Helvetica,sans-Serif" font-size="10.00">Initializer.LoadServerParameters</text>
</a>
</g>
</g>
<!-- Node3&#45;&gt;Node4 -->
<g id="edge3_Node000003_Node000004" class="edge">
<title>Node3&#45;&gt;Node4</title>
<g id="a_edge3_Node000003_Node000004"><a xlink:title=" ">
<path fill="none" stroke="#63b8ff" d="M2242.81,-336.43C2234.19,-336.47 2225.53,-336.51 2217.03,-336.55"/>
<polygon fill="#63b8ff" stroke="#63b8ff" points="2242.9,-339.93 2252.88,-336.38 2242.86,-332.93 2242.9,-339.93"/>
</a>
</g>
</g>
<!-- Node5 -->
<g id="Node000005" class="node">
<title>Node5</title>
<g id="a_Node000005"><a xlink:href="../../de/d13/classTerraria_1_1Initializers_1_1LaunchInitializer_a15722e7caa991f6b6793fd0a83c5a6c7.html#a15722e7caa991f6b6793fd0a83c5a6c7" target="_top" xlink:title=" ">
<polygon fill="white" stroke="#666666" points="2003.5,-353.96 1858.5,-353.96 1858.5,-323.96 2003.5,-323.96 2003.5,-353.96"/>
<text text-anchor="start" x="1866.5" y="-341.96" font-family="Helvetica,sans-Serif" font-size="10.00">Terraria.Initializers.Launch</text>
<text text-anchor="middle" x="1931" y="-330.96" font-family="Helvetica,sans-Serif" font-size="10.00">Initializer.LoadParameters</text>
</a>
</g>
</g>
<!-- Node4&#45;&gt;Node5 -->
<g id="edge4_Node000004_Node000005" class="edge">
<title>Node4&#45;&gt;Node5</title>
<g id="a_edge4_Node000004_Node000005"><a xlink:title=" ">
<path fill="none" stroke="#63b8ff" d="M2031.54,-337.94C2022.12,-338.04 2012.69,-338.13 2003.58,-338.23"/>
<polygon fill="#63b8ff" stroke="#63b8ff" points="2031.78,-341.44 2041.74,-337.84 2031.71,-334.44 2031.78,-341.44"/>
</a>
</g>
</g>
<!-- Node6 -->
<g id="Node000006" class="node">
<title>Node6</title>
<g id="a_Node000006"><a xlink:href="../../d9/daf/classTerraria_1_1Program_af6c00579600a216e018170de3614fc26.html#af6c00579600a216e018170de3614fc26" target="_top" xlink:title=" ">
<polygon fill="white" stroke="#666666" points="1808,-349.46 1659,-349.46 1659,-330.46 1808,-330.46 1808,-349.46"/>
<text text-anchor="middle" x="1733.5" y="-337.46" font-family="Helvetica,sans-Serif" font-size="10.00">Terraria.Program.RunGame</text>
</a>
</g>
</g>
<!-- Node5&#45;&gt;Node6 -->
<g id="edge5_Node000005_Node000006" class="edge">
<title>Node5&#45;&gt;Node6</title>
<g id="a_edge5_Node000005_Node000006"><a xlink:title=" ">
<path fill="none" stroke="#63b8ff" d="M1848.24,-339.37C1834.94,-339.44 1821.23,-339.51 1808.14,-339.58"/>
<polygon fill="#63b8ff" stroke="#63b8ff" points="1848.33,-342.87 1858.31,-339.32 1848.3,-335.87 1848.33,-342.87"/>
</a>
</g>
</g>
<!-- Node7 -->
<g id="Node000007" class="node">
<title>Node7</title>
<g id="a_Node000007"><a xlink:href="../../d9/daf/classTerraria_1_1Program_a14d8143a984e1f2629bf39525465aab5.html#a14d8143a984e1f2629bf39525465aab5" target="_top" xlink:title=" ">
<polygon fill="white" stroke="#666666" points="1607.5,-349.46 1437.5,-349.46 1437.5,-330.46 1607.5,-330.46 1607.5,-349.46"/>
<text text-anchor="middle" x="1522.5" y="-337.46" font-family="Helvetica,sans-Serif" font-size="10.00">Terraria.Program.LaunchGame_</text>
</a>
</g>
</g>
<!-- Node6&#45;&gt;Node7 -->
<g id="edge6_Node000006_Node000007" class="edge">
<title>Node6&#45;&gt;Node7</title>
<g id="a_edge6_Node000006_Node000007"><a xlink:title=" ">
<path fill="none" stroke="#63b8ff" d="M1648.59,-339.96C1635.08,-339.96 1621.09,-339.96 1607.58,-339.96"/>
<polygon fill="#63b8ff" stroke="#63b8ff" points="1648.81,-343.46 1658.81,-339.96 1648.81,-336.46 1648.81,-343.46"/>
</a>
</g>
</g>
<!-- Node8 -->
<g id="Node000008" class="node">
<title>Node8</title>
<g id="a_Node000008"><a xlink:href="../../d9/daf/classTerraria_1_1Program_ac7cb5c95fd3efd53cdfb49df17b19967.html#ac7cb5c95fd3efd53cdfb49df17b19967" target="_top" xlink:title=" ">
<polygon fill="white" stroke="#666666" points="1398,-349.46 1234,-349.46 1234,-330.46 1398,-330.46 1398,-349.46"/>
<text text-anchor="middle" x="1316" y="-337.46" font-family="Helvetica,sans-Serif" font-size="10.00">Terraria.Program.LaunchGame</text>
</a>
</g>
</g>
<!-- Node7&#45;&gt;Node8 -->
<g id="edge7_Node000007_Node000008" class="edge">
<title>Node7&#45;&gt;Node8</title>
<g id="a_edge7_Node000007_Node000008"><a xlink:title=" ">
<path fill="none" stroke="#63b8ff" d="M1427.32,-339.96C1417.56,-339.96 1407.7,-339.96 1398.1,-339.96"/>
<polygon fill="#63b8ff" stroke="#63b8ff" points="1427.44,-343.46 1437.44,-339.96 1427.44,-336.46 1427.44,-343.46"/>
</a>
</g>
</g>
<!-- Node9 -->
<g id="Node000009" class="node">
<title>Node9</title>
<g id="a_Node000009"><a xlink:href="../../d1/d9a/classTerraria_1_1MonoLaunch_a271141011b415c3c7ae1d15e089f4462.html#a271141011b415c3c7ae1d15e089f4462" target="_top" xlink:title=" ">
<polygon fill="white" stroke="#666666" points="1198,-349.46 1030,-349.46 1030,-330.46 1198,-330.46 1198,-349.46"/>
<text text-anchor="middle" x="1114" y="-337.46" font-family="Helvetica,sans-Serif" font-size="10.00">Terraria.MonoLaunch.Main_End</text>
</a>
</g>
</g>
<!-- Node8&#45;&gt;Node9 -->
<g id="edge8_Node000008_Node000009" class="edge">
<title>Node8&#45;&gt;Node9</title>
<g id="a_edge8_Node000008_Node000009"><a xlink:title=" ">
<path fill="none" stroke="#63b8ff" d="M1223.91,-339.96C1215.32,-339.96 1206.64,-339.96 1198.13,-339.96"/>
<polygon fill="#63b8ff" stroke="#63b8ff" points="1223.94,-343.46 1233.94,-339.96 1223.94,-336.46 1223.94,-343.46"/>
</a>
</g>
</g>
<!-- Node10 -->
<g id="Node000010" class="node">
<title>Node10</title>
<g id="a_Node000010"><a xlink:href="../../d1/d9a/classTerraria_1_1MonoLaunch_a1ce3ddd41bea11cf917cc4501d50727c.html#a1ce3ddd41bea11cf917cc4501d50727c" target="_top" xlink:title=" ">
<polygon fill="white" stroke="#666666" points="969.5,-349.46 824.5,-349.46 824.5,-330.46 969.5,-330.46 969.5,-349.46"/>
<text text-anchor="middle" x="897" y="-337.46" font-family="Helvetica,sans-Serif" font-size="10.00">Terraria.MonoLaunch.Main</text>
</a>
</g>
</g>
<!-- Node9&#45;&gt;Node10 -->
<g id="edge9_Node000009_Node000010" class="edge">
<title>Node9&#45;&gt;Node10</title>
<g id="a_edge9_Node000009_Node000010"><a xlink:title=" ">
<path fill="none" stroke="#63b8ff" d="M1019.55,-339.96C1002.85,-339.96 985.69,-339.96 969.71,-339.96"/>
<polygon fill="#63b8ff" stroke="#63b8ff" points="1019.88,-343.46 1029.88,-339.96 1019.88,-336.46 1019.88,-343.46"/>
</a>
</g>
</g>
<!-- Node12 -->
<g id="Node000012" class="node">
<title>Node12</title>
<g id="a_Node000012"><a xlink:href="../../db/d63/classTerraria_1_1MessageBuffer_ab4039006321b0ab8e7d66acbd82370b0.html#ab4039006321b0ab8e7d66acbd82370b0" target="_top" xlink:title=" ">
<polygon fill="white" stroke="#666666" points="2215.5,-277.46 2043.5,-277.46 2043.5,-258.46 2215.5,-258.46 2215.5,-277.46"/>
<text text-anchor="middle" x="2129.5" y="-265.46" font-family="Helvetica,sans-Serif" font-size="10.00">Terraria.MessageBuffer.GetData</text>
</a>
</g>
</g>
<!-- Node11&#45;&gt;Node12 -->
<g id="edge11_Node000011_Node000012" class="edge">
<title>Node11&#45;&gt;Node12</title>
<g id="a_edge11_Node000011_Node000012"><a xlink:title=" ">
<path fill="none" stroke="#63b8ff" d="M2256.68,-273.3C2243.2,-272.73 2229.28,-272.14 2215.83,-271.57"/>
<polygon fill="#63b8ff" stroke="#63b8ff" points="2256.74,-276.81 2266.88,-273.73 2257.04,-269.81 2256.74,-276.81"/>
</a>
</g>
</g>
<!-- Node13 -->
<g id="Node000013" class="node">
<title>Node13</title>
<g id="a_Node000013"><a xlink:href="../../d2/dfe/classTerraria_1_1NetMessage_a0e34d7a3b999304ba194c4163243ce55.html#a0e34d7a3b999304ba194c4163243ce55" target="_top" xlink:title=" ">
<polygon fill="white" stroke="#666666" points="2006,-264.96 1856,-264.96 1856,-234.96 2006,-234.96 2006,-264.96"/>
<text text-anchor="start" x="1864" y="-252.96" font-family="Helvetica,sans-Serif" font-size="10.00">Terraria.NetMessage.Check</text>
<text text-anchor="middle" x="1931" y="-241.96" font-family="Helvetica,sans-Serif" font-size="10.00">Bytes</text>
</a>
</g>
</g>
<!-- Node12&#45;&gt;Node13 -->
<g id="edge12_Node000012_Node000013" class="edge">
<title>Node12&#45;&gt;Node13</title>
<g id="a_edge12_Node000012_Node000013"><a xlink:title=" ">
<path fill="none" stroke="#63b8ff" d="M2033.49,-259.25C2024.28,-258.41 2015.03,-257.56 2006.07,-256.74"/>
<polygon fill="#63b8ff" stroke="#63b8ff" points="2033.18,-262.74 2043.46,-260.17 2033.82,-255.77 2033.18,-262.74"/>
</a>
</g>
</g>
<!-- Node14 -->
<g id="Node000014" class="node">
<title>Node14</title>
<g id="a_Node000014"><a xlink:href="../../db/d90/classTerraria_1_1Netplay_a0177534cae0ae33727d0590e3585777a.html#a0177534cae0ae33727d0590e3585777a" target="_top" xlink:title=" ">
<polygon fill="white" stroke="#666666" points="1820,-215.46 1647,-215.46 1647,-196.46 1820,-196.46 1820,-215.46"/>
<text text-anchor="middle" x="1733.5" y="-203.46" font-family="Helvetica,sans-Serif" font-size="10.00">Terraria.Netplay.InnerClientLoop</text>
</a>
</g>
</g>
<!-- Node13&#45;&gt;Node14 -->
<g id="edge13_Node000013_Node000014" class="edge">
<title>Node13&#45;&gt;Node14</title>
<g id="a_edge13_Node000013_Node000014"><a xlink:title=" ">
<path fill="none" stroke="#63b8ff" d="M1854.04,-232.64C1842.64,-230.06 1831.01,-227.43 1820,-224.96 1806.2,-221.85 1791.15,-218.5 1777.57,-215.48"/>
<polygon fill="#63b8ff" stroke="#63b8ff" points="1853.47,-236.1 1863.99,-234.9 1855.01,-229.27 1853.47,-236.1"/>
</a>
</g>
</g>
<!-- Node40 -->
<g id="Node000040" class="node">
<title>Node40</title>
<g id="a_Node000040"><a xlink:href="../../db/d90/classTerraria_1_1Netplay_aa90a53404e1e4f7791f3bb47e5d4b2e8.html#aa90a53404e1e4f7791f3bb47e5d4b2e8" target="_top" xlink:title=" ">
<polygon fill="white" stroke="#666666" points="1813.5,-263.96 1653.5,-263.96 1653.5,-233.96 1813.5,-233.96 1813.5,-263.96"/>
<text text-anchor="start" x="1661.5" y="-251.96" font-family="Helvetica,sans-Serif" font-size="10.00">Terraria.Netplay.UpdateClient</text>
<text text-anchor="middle" x="1733.5" y="-240.96" font-family="Helvetica,sans-Serif" font-size="10.00">InMainThread</text>
</a>
</g>
</g>
<!-- Node13&#45;&gt;Node40 -->
<g id="edge42_Node000013_Node000040" class="edge">
<title>Node13&#45;&gt;Node40</title>
<g id="a_edge42_Node000013_Node000040"><a xlink:title=" ">
<path fill="none" stroke="#63b8ff" d="M1845.66,-249.52C1834.99,-249.47 1824.11,-249.41 1813.52,-249.36"/>
<polygon fill="#63b8ff" stroke="#63b8ff" points="1845.79,-253.03 1855.81,-249.58 1845.83,-246.03 1845.79,-253.03"/>
</a>
</g>
</g>
<!-- Node44 -->
<g id="Node000044" class="node">
<title>Node44</title>
<g id="a_Node000044"><a xlink:href="../../db/d90/classTerraria_1_1Netplay_aec54ed7e3dd3c29dae1930335ca1b763.html#aec54ed7e3dd3c29dae1930335ca1b763" target="_top" xlink:title=" ">
<polygon fill="white" stroke="#666666" points="1815,-311.96 1652,-311.96 1652,-281.96 1815,-281.96 1815,-311.96"/>
<text text-anchor="start" x="1660" y="-299.96" font-family="Helvetica,sans-Serif" font-size="10.00">Terraria.Netplay.UpdateServer</text>
<text text-anchor="middle" x="1733.5" y="-288.96" font-family="Helvetica,sans-Serif" font-size="10.00">InMainThread</text>
</a>
</g>
</g>
<!-- Node13&#45;&gt;Node44 -->
<g id="edge46_Node000013_Node000044" class="edge">
<title>Node13&#45;&gt;Node44</title>
<g id="a_edge46_Node000013_Node000044"><a xlink:title=" ">
<path fill="none" stroke="#63b8ff" d="M1857.65,-267.35C1837.73,-272.14 1816.29,-277.29 1796.97,-281.94"/>
<polygon fill="#63b8ff" stroke="#63b8ff" points="1858.7,-270.7 1867.61,-264.96 1857.06,-263.89 1858.7,-270.7"/>
</a>
</g>
</g>
<!-- Node15 -->
<g id="Node000015" class="node">
<title>Node15</title>
<g id="a_Node000015"><a xlink:href="../../db/d90/classTerraria_1_1Netplay_a0aab65a17de3d6fde6c56638080a0eb3.html#a0aab65a17de3d6fde6c56638080a0eb3" target="_top" xlink:title=" ">
<polygon fill="white" stroke="#666666" points="1611,-220.46 1434,-220.46 1434,-201.46 1611,-201.46 1611,-220.46"/>
<text text-anchor="middle" x="1522.5" y="-208.46" font-family="Helvetica,sans-Serif" font-size="10.00">Terraria.Netplay.SocialClientLoop</text>
</a>
</g>
</g>
<!-- Node14&#45;&gt;Node15 -->
<g id="edge14_Node000014_Node000015" class="edge">
<title>Node14&#45;&gt;Node15</title>
<g id="a_edge14_Node000014_Node000015"><a xlink:title=" ">
<path fill="none" stroke="#63b8ff" d="M1636.84,-208.24C1628.23,-208.45 1619.54,-208.66 1611.01,-208.86"/>
<polygon fill="#63b8ff" stroke="#63b8ff" points="1636.98,-211.74 1646.89,-208 1636.81,-204.74 1636.98,-211.74"/>
</a>
</g>
</g>
<!-- Node26 -->
<g id="Node000026" class="node">
<title>Node26</title>
<g id="a_Node000026"><a xlink:href="../../db/d90/classTerraria_1_1Netplay_a3b934fcb0fe838d54abafb6b31e2d0c0.html#a3b934fcb0fe838d54abafb6b31e2d0c0" target="_top" xlink:title=" ">
<polygon fill="white" stroke="#666666" points="1604.5,-162.46 1440.5,-162.46 1440.5,-143.46 1604.5,-143.46 1604.5,-162.46"/>
<text text-anchor="middle" x="1522.5" y="-150.46" font-family="Helvetica,sans-Serif" font-size="10.00">Terraria.Netplay.TcpClientLoop</text>
</a>
</g>
</g>
<!-- Node14&#45;&gt;Node26 -->
<g id="edge26_Node000014_Node000026" class="edge">
<title>Node14&#45;&gt;Node26</title>
<g id="a_edge26_Node000014_Node000026"><a xlink:title=" ">
<path fill="none" stroke="#63b8ff" d="M1684.95,-193.9C1647.41,-184.38 1595.75,-171.28 1561.07,-162.48"/>
<polygon fill="#63b8ff" stroke="#63b8ff" points="1684.1,-197.29 1694.65,-196.36 1685.82,-190.51 1684.1,-197.29"/>
</a>
</g>
</g>
<!-- Node16 -->
<g id="Node000016" class="node">
<title>Node16</title>
<g id="a_Node000016"><a xlink:href="../../db/d90/classTerraria_1_1Netplay_a95fbcd51bf95f62c790c052becf3ca70.html#a95fbcd51bf95f62c790c052becf3ca70" target="_top" xlink:title=" ">
<polygon fill="white" stroke="#666666" points="1390.5,-234.96 1241.5,-234.96 1241.5,-204.96 1390.5,-204.96 1390.5,-234.96"/>
<text text-anchor="start" x="1249.5" y="-222.96" font-family="Helvetica,sans-Serif" font-size="10.00">Terraria.Netplay.StartSocial</text>
<text text-anchor="middle" x="1316" y="-211.96" font-family="Helvetica,sans-Serif" font-size="10.00">Client</text>
</a>
</g>
</g>
<!-- Node15&#45;&gt;Node16 -->
<g id="edge15_Node000015_Node000016" class="edge">
<title>Node15&#45;&gt;Node16</title>
<g id="a_edge15_Node000015_Node000016"><a xlink:title=" ">
<path fill="none" stroke="#63b8ff" d="M1423.7,-215.26C1412.56,-215.75 1401.36,-216.24 1390.62,-216.72"/>
<polygon fill="#63b8ff" stroke="#63b8ff" points="1424.05,-218.75 1433.88,-214.81 1423.74,-211.75 1424.05,-218.75"/>
</a>
</g>
</g>
<!-- Node17 -->
<g id="Node000017" class="node">
<title>Node17</title>
<g id="a_Node000017"><a xlink:href="../../db/d90/classTerraria_1_1Netplay_a735e2f9e72e38fcb094d3cec93a90cb3.html#a735e2f9e72e38fcb094d3cec93a90cb3" target="_top" xlink:title=" ">
<polygon fill="white" stroke="#666666" points="1194.5,-252.96 1033.5,-252.96 1033.5,-222.96 1194.5,-222.96 1194.5,-252.96"/>
<text text-anchor="start" x="1041.5" y="-240.96" font-family="Helvetica,sans-Serif" font-size="10.00">Terraria.Netplay.OnConnected</text>
<text text-anchor="middle" x="1114" y="-229.96" font-family="Helvetica,sans-Serif" font-size="10.00">ToSocialServer</text>
</a>
</g>
</g>
<!-- Node16&#45;&gt;Node17 -->
<g id="edge16_Node000016_Node000017" class="edge">
<title>Node16&#45;&gt;Node17</title>
<g id="a_edge16_Node000016_Node000017"><a xlink:title=" ">
<path fill="none" stroke="#63b8ff" d="M1231.26,-227.49C1219.09,-228.59 1206.6,-229.71 1194.52,-230.8"/>
<polygon fill="#63b8ff" stroke="#63b8ff" points="1231.73,-230.96 1241.38,-226.58 1231.11,-223.99 1231.73,-230.96"/>
</a>
</g>
</g>
<!-- Node18 -->
<g id="Node000018" class="node">
<title>Node18</title>
<g id="a_Node000018"><a xlink:href="../../dc/d94/classTerraria_1_1Social_1_1WeGame_1_1NetClientSocialModule_a3aa4e495c006216e805fb76e98be06e0.html#a3aa4e495c006216e805fb76e98be06e0" target="_top" xlink:title=" ">
<polygon fill="white" stroke="#666666" points="991,-306.96 803,-306.96 803,-276.96 991,-276.96 991,-306.96"/>
<text text-anchor="start" x="811" y="-294.96" font-family="Helvetica,sans-Serif" font-size="10.00">Terraria.Social.WeGame.Net</text>
<text text-anchor="middle" x="897" y="-283.96" font-family="Helvetica,sans-Serif" font-size="10.00">ClientSocialModule.OnAuthSuccess</text>
</a>
</g>
</g>
<!-- Node17&#45;&gt;Node18 -->
<g id="edge17_Node000017_Node000018" class="edge">
<title>Node17&#45;&gt;Node18</title>
<g id="a_edge17_Node000017_Node000018"><a xlink:title=" ">
<path fill="none" stroke="#63b8ff" d="M1043.16,-255.5C1015.66,-262.4 984.4,-270.26 957.94,-276.9"/>
<polygon fill="#63b8ff" stroke="#63b8ff" points="1044.26,-258.83 1053.11,-253 1042.56,-252.04 1044.26,-258.83"/>
</a>
</g>
</g>
<!-- Node21 -->
<g id="Node000021" class="node">
<title>Node21</title>
<g id="a_Node000021"><a xlink:href="../../d7/d4a/classTerraria_1_1Social_1_1Steam_1_1NetClientSocialModule_a22273ba592889cc0dfcc144f06138bbc.html#a22273ba592889cc0dfcc144f06138bbc" target="_top" xlink:title=" ">
<polygon fill="white" stroke="#666666" points="994,-252.96 800,-252.96 800,-222.96 994,-222.96 994,-252.96"/>
<text text-anchor="start" x="808" y="-240.96" font-family="Helvetica,sans-Serif" font-size="10.00">Terraria.Social.Steam.Net</text>
<text text-anchor="middle" x="897" y="-229.96" font-family="Helvetica,sans-Serif" font-size="10.00">ClientSocialModule.OnLobbyEntered</text>
</a>
</g>
</g>
<!-- Node17&#45;&gt;Node21 -->
<g id="edge20_Node000017_Node000021" class="edge">
<title>Node17&#45;&gt;Node21</title>
<g id="a_edge20_Node000017_Node000021"><a xlink:title=" ">
<path fill="none" stroke="#63b8ff" d="M1023.05,-237.96C1013.57,-237.96 1003.91,-237.96 994.36,-237.96"/>
<polygon fill="#63b8ff" stroke="#63b8ff" points="1023.25,-241.46 1033.25,-237.96 1023.25,-234.46 1023.25,-241.46"/>
</a>
</g>
</g>
<!-- Node19 -->
<g id="Node000019" class="node">
<title>Node19</title>
<g id="a_Node000019"><a xlink:href="../../dc/d94/classTerraria_1_1Social_1_1WeGame_1_1NetClientSocialModule_a805b557babee519c34c71e4612e1b9af.html#a805b557babee519c34c71e4612e1b9af" target="_top" xlink:title=" ">
<polygon fill="white" stroke="#666666" points="759,-309.96 576,-309.96 576,-279.96 759,-279.96 759,-309.96"/>
<text text-anchor="start" x="584" y="-297.96" font-family="Helvetica,sans-Serif" font-size="10.00">Terraria.Social.WeGame.Net</text>
<text text-anchor="middle" x="667.5" y="-286.96" font-family="Helvetica,sans-Serif" font-size="10.00">ClientSocialModule.OnPacketRead</text>
</a>
</g>
</g>
<!-- Node18&#45;&gt;Node19 -->
<g id="edge18_Node000018_Node000019" class="edge">
<title>Node18&#45;&gt;Node19</title>
<g id="a_edge18_Node000018_Node000019"><a xlink:title=" ">
<path fill="none" stroke="#63b8ff" d="M792.65,-293.32C781.54,-293.47 770.29,-293.61 759.34,-293.76"/>
<polygon fill="#63b8ff" stroke="#63b8ff" points="792.86,-296.82 802.81,-293.18 792.77,-289.82 792.86,-296.82"/>
</a>
</g>
</g>
<!-- Node20 -->
<g id="Node000020" class="node">
<title>Node20</title>
<g id="a_Node000020"><a xlink:href="../../dc/d94/classTerraria_1_1Social_1_1WeGame_1_1NetClientSocialModule_ab875d83363ffab735301f201edb65488.html#ab875d83363ffab735301f201edb65488" target="_top" xlink:title=" ">
<polygon fill="white" stroke="#666666" points="513,-310.96 358,-310.96 358,-280.96 513,-280.96 513,-310.96"/>
<text text-anchor="start" x="366" y="-298.96" font-family="Helvetica,sans-Serif" font-size="10.00">Terraria.Social.WeGame.Net</text>
<text text-anchor="middle" x="435.5" y="-287.96" font-family="Helvetica,sans-Serif" font-size="10.00">ClientSocialModule.Initialize</text>
</a>
</g>
</g>
<!-- Node19&#45;&gt;Node20 -->
<g id="edge19_Node000019_Node000020" class="edge">
<title>Node19&#45;&gt;Node20</title>
<g id="a_edge19_Node000019_Node000020"><a xlink:title=" ">
<path fill="none" stroke="#63b8ff" d="M565.64,-295.39C548.06,-295.47 530.04,-295.55 513.24,-295.62"/>
<polygon fill="#63b8ff" stroke="#63b8ff" points="565.94,-298.89 575.93,-295.35 565.91,-291.89 565.94,-298.89"/>
</a>
</g>
</g>
<!-- Node22 -->
<g id="Node000022" class="node">
<title>Node22</title>
<g id="a_Node000022"><a xlink:href="../../d7/d4a/classTerraria_1_1Social_1_1Steam_1_1NetClientSocialModule_a3c558d5f5dc5d483d6c3d6ac0d9507c2.html#a3c558d5f5dc5d483d6c3d6ac0d9507c2" target="_top" xlink:title=" ">
<polygon fill="white" stroke="#666666" points="764,-213.96 571,-213.96 571,-183.96 764,-183.96 764,-213.96"/>
<text text-anchor="start" x="579" y="-201.96" font-family="Helvetica,sans-Serif" font-size="10.00">Terraria.Social.Steam.Net</text>
<text text-anchor="middle" x="667.5" y="-190.96" font-family="Helvetica,sans-Serif" font-size="10.00">ClientSocialModule.ConnectToLobby</text>
</a>
</g>
</g>
<!-- Node21&#45;&gt;Node22 -->
<g id="edge21_Node000021_Node000022" class="edge">
<title>Node21&#45;&gt;Node22</title>
<g id="a_edge21_Node000021_Node000022"><a xlink:title=" ">
<path fill="none" stroke="#63b8ff" d="M798.24,-221.2C784.23,-218.79 769.88,-216.34 756.09,-213.97"/>
<polygon fill="#63b8ff" stroke="#63b8ff" points="797.92,-224.69 808.37,-222.93 799.1,-217.79 797.92,-224.69"/>
</a>
</g>
</g>
<!-- Node25 -->
<g id="Node000025" class="node">
<title>Node25</title>
<g id="a_Node000025"><a xlink:href="../../d7/d4a/classTerraria_1_1Social_1_1Steam_1_1NetClientSocialModule_a590e1d127b423851d741ee658eaba1ba.html#a590e1d127b423851d741ee658eaba1ba" target="_top" xlink:title=" ">
<polygon fill="white" stroke="#666666" points="522.5,-262.46 348.5,-262.46 348.5,-221.46 522.5,-221.46 522.5,-262.46"/>
<text text-anchor="start" x="356.5" y="-250.46" font-family="Helvetica,sans-Serif" font-size="10.00">Terraria.Social.Steam.Net</text>
<text text-anchor="start" x="356.5" y="-239.46" font-family="Helvetica,sans-Serif" font-size="10.00">ClientSocialModule.OnLobbyJoin</text>
<text text-anchor="middle" x="435.5" y="-228.46" font-family="Helvetica,sans-Serif" font-size="10.00">Request</text>
</a>
</g>
</g>
<!-- Node21&#45;&gt;Node25 -->
<g id="edge24_Node000021_Node000025" class="edge">
<title>Node21&#45;&gt;Node25</title>
<g id="a_edge24_Node000021_Node000025"><a xlink:title=" ">
<path fill="none" stroke="#63b8ff" d="M789.72,-238.88C708.64,-239.59 598.38,-240.55 522.73,-241.21"/>
<polygon fill="#63b8ff" stroke="#63b8ff" points="789.98,-242.38 799.95,-238.79 789.92,-235.38 789.98,-242.38"/>
</a>
</g>
</g>
<!-- Node23 -->
<g id="Node000023" class="node">
<title>Node23</title>
<g id="a_Node000023"><a xlink:href="../../d7/d4a/classTerraria_1_1Social_1_1Steam_1_1NetClientSocialModule_a4a444adca38141b0cb7d6eb6b0176a14.html#a4a444adca38141b0cb7d6eb6b0176a14" target="_top" xlink:title=" ">
<polygon fill="white" stroke="#666666" points="535,-202.96 336,-202.96 336,-172.96 535,-172.96 535,-202.96"/>
<text text-anchor="start" x="344" y="-190.96" font-family="Helvetica,sans-Serif" font-size="10.00">Terraria.Social.Steam.Net</text>
<text text-anchor="middle" x="435.5" y="-179.96" font-family="Helvetica,sans-Serif" font-size="10.00">ClientSocialModule.CheckParameters</text>
</a>
</g>
</g>
<!-- Node22&#45;&gt;Node23 -->
<g id="edge22_Node000022_Node000023" class="edge">
<title>Node22&#45;&gt;Node23</title>
<g id="a_edge22_Node000022_Node000023"><a xlink:title=" ">
<path fill="none" stroke="#63b8ff" d="M560.9,-193.91C552.3,-193.49 543.63,-193.08 535.08,-192.67"/>
<polygon fill="#63b8ff" stroke="#63b8ff" points="560.8,-197.4 570.96,-194.39 561.14,-190.41 560.8,-197.4"/>
</a>
</g>
</g>
<!-- Node24 -->
<g id="Node000024" class="node">
<title>Node24</title>
<g id="a_Node000024"><a xlink:href="../../d7/d4a/classTerraria_1_1Social_1_1Steam_1_1NetClientSocialModule_af383ef4d3738050686d31eeea14a4ecf.html#af383ef4d3738050686d31eeea14a4ecf" target="_top" xlink:title=" ">
<polygon fill="white" stroke="#666666" points="300,-229.96 145,-229.96 145,-199.96 300,-199.96 300,-229.96"/>
<text text-anchor="start" x="153" y="-217.96" font-family="Helvetica,sans-Serif" font-size="10.00">Terraria.Social.Steam.Net</text>
<text text-anchor="middle" x="222.5" y="-206.96" font-family="Helvetica,sans-Serif" font-size="10.00">ClientSocialModule.Initialize</text>
</a>
</g>
</g>
<!-- Node23&#45;&gt;Node24 -->
<g id="edge23_Node000023_Node000024" class="edge">
<title>Node23&#45;&gt;Node24</title>
<g id="a_edge23_Node000023_Node000024"><a xlink:title=" ">
<path fill="none" stroke="#63b8ff" d="M325.65,-201.88C317,-202.99 308.38,-204.09 300.03,-205.16"/>
<polygon fill="#63b8ff" stroke="#63b8ff" points="326.32,-205.33 335.8,-200.59 325.43,-198.38 326.32,-205.33"/>
</a>
</g>
</g>
<!-- Node25&#45;&gt;Node24 -->
<g id="edge25_Node000025_Node000024" class="edge">
<title>Node25&#45;&gt;Node24</title>
<g id="a_edge25_Node000025_Node000024"><a xlink:title=" ">
<path fill="none" stroke="#63b8ff" d="M338.21,-229.63C325.47,-228 312.55,-226.35 300.21,-224.77"/>
<polygon fill="#63b8ff" stroke="#63b8ff" points="338.01,-233.14 348.37,-230.93 338.9,-226.19 338.01,-233.14"/>
</a>
</g>
</g>
<!-- Node27 -->
<g id="Node000027" class="node">
<title>Node27</title>
<g id="a_Node000027"><a xlink:href="../../db/d90/classTerraria_1_1Netplay_a9e9dd745269441e0d737ad3cc8ac437d.html#a9e9dd745269441e0d737ad3cc8ac437d" target="_top" xlink:title=" ">
<polygon fill="white" stroke="#666666" points="1383.5,-131.96 1248.5,-131.96 1248.5,-101.96 1383.5,-101.96 1383.5,-131.96"/>
<text text-anchor="start" x="1256.5" y="-119.96" font-family="Helvetica,sans-Serif" font-size="10.00">Terraria.Netplay.StartTcp</text>
<text text-anchor="middle" x="1316" y="-108.96" font-family="Helvetica,sans-Serif" font-size="10.00">Client</text>
</a>
</g>
</g>
<!-- Node26&#45;&gt;Node27 -->
<g id="edge27_Node000026_Node000027" class="edge">
<title>Node26&#45;&gt;Node27</title>
<g id="a_edge27_Node000026_Node000027"><a xlink:title=" ">
<path fill="none" stroke="#63b8ff" d="M1457.64,-141.71C1434.15,-137.58 1407.49,-132.88 1383.74,-128.7"/>
<polygon fill="#63b8ff" stroke="#63b8ff" points="1457.05,-145.16 1467.5,-143.45 1458.26,-138.27 1457.05,-145.16"/>
</a>
</g>
</g>
<!-- Node28 -->
<g id="Node000028" class="node">
<title>Node28</title>
<g id="a_Node000028"><a xlink:href="../../da/dd5/classTerraria_1_1Main_af14a405f72e122b1782d6ddb3c2845fa.html#af14a405f72e122b1782d6ddb3c2845fa" target="_top" xlink:title=" ">
<polygon fill="white" stroke="#666666" points="1176,-83.46 1052,-83.46 1052,-64.46 1176,-64.46 1176,-83.46"/>
<text text-anchor="middle" x="1114" y="-71.46" font-family="Helvetica,sans-Serif" font-size="10.00">Terraria.Main.AutoJoin</text>
</a>
</g>
</g>
<!-- Node27&#45;&gt;Node28 -->
<g id="edge28_Node000027_Node000028" class="edge">
<title>Node27&#45;&gt;Node28</title>
<g id="a_edge28_Node000027_Node000028"><a xlink:title=" ">
<path fill="none" stroke="#63b8ff" d="M1238.29,-100.46C1211.56,-94.72 1182.48,-88.46 1159.27,-83.47"/>
<polygon fill="#63b8ff" stroke="#63b8ff" points="1237.89,-103.96 1248.4,-102.64 1239.36,-97.11 1237.89,-103.96"/>
</a>
</g>
</g>
<!-- Node29 -->
<g id="Node000029" class="node">
<title>Node29</title>
<g id="a_Node000029"><a xlink:href="../../da/dd5/classTerraria_1_1Main_a41717edb6525f73f966d5bfb874d8056.html#a41717edb6525f73f966d5bfb874d8056" target="_top" xlink:title=" ">
<polygon fill="white" stroke="#666666" points="1195.5,-45.96 1032.5,-45.96 1032.5,-15.96 1195.5,-15.96 1195.5,-45.96"/>
<text text-anchor="start" x="1040.5" y="-33.96" font-family="Helvetica,sans-Serif" font-size="10.00">Terraria.Main.OnSubmitServer</text>
<text text-anchor="middle" x="1114" y="-22.96" font-family="Helvetica,sans-Serif" font-size="10.00">Password</text>
</a>
</g>
</g>
<!-- Node27&#45;&gt;Node29 -->
<g id="edge29_Node000027_Node000029" class="edge">
<title>Node27&#45;&gt;Node29</title>
<g id="a_edge29_Node000027_Node000029"><a xlink:title=" ">
<path fill="none" stroke="#63b8ff" d="M1281.5,-96.83C1258.58,-83.65 1227.16,-66.75 1198,-54.96 1189.93,-51.69 1181.26,-48.68 1172.68,-45.96"/>
<polygon fill="#63b8ff" stroke="#63b8ff" points="1279.76,-99.86 1290.16,-101.86 1283.27,-93.81 1279.76,-99.86"/>
</a>
</g>
</g>
<!-- Node35 -->
<g id="Node000035" class="node">
<title>Node35</title>
<g id="a_Node000035"><a xlink:href="../../da/dd5/classTerraria_1_1Main_a8e23db199a88c74f61dba8141b3e1464.html#a8e23db199a88c74f61dba8141b3e1464" target="_top" xlink:title=" ">
<polygon fill="white" stroke="#666666" points="1186,-171.46 1042,-171.46 1042,-152.46 1186,-152.46 1186,-171.46"/>
<text text-anchor="middle" x="1114" y="-159.46" font-family="Helvetica,sans-Serif" font-size="10.00">Terraria.Main.SelectPlayer</text>
</a>
</g>
</g>
<!-- Node27&#45;&gt;Node35 -->
<g id="edge35_Node000027_Node000035" class="edge">
<title>Node27&#45;&gt;Node35</title>
<g id="a_edge35_Node000027_Node000035"><a xlink:title=" ">
<path fill="none" stroke="#63b8ff" d="M1238.41,-134.19C1210.95,-140.37 1180.98,-147.11 1157.46,-152.4"/>
<polygon fill="#63b8ff" stroke="#63b8ff" points="1239.42,-137.55 1248.4,-131.94 1237.88,-130.72 1239.42,-137.55"/>
</a>
</g>
</g>
<!-- Node38 -->
<g id="Node000038" class="node">
<title>Node38</title>
<g id="a_Node000038"><a xlink:href="../../da/dd5/classTerraria_1_1Main_a365b23519a738e1955e6d70aa4bccafd.html#a365b23519a738e1955e6d70aa4bccafd" target="_top" xlink:title=" ">
<polygon fill="white" stroke="#666666" points="1181.5,-131.96 1046.5,-131.96 1046.5,-101.96 1181.5,-101.96 1181.5,-131.96"/>
<text text-anchor="start" x="1054.5" y="-119.96" font-family="Helvetica,sans-Serif" font-size="10.00">Terraria.Main.StartClient</text>
<text text-anchor="middle" x="1114" y="-108.96" font-family="Helvetica,sans-Serif" font-size="10.00">Gameplay</text>
</a>
</g>
</g>
<!-- Node27&#45;&gt;Node38 -->
<g id="edge38_Node000027_Node000038" class="edge">
<title>Node27&#45;&gt;Node38</title>
<g id="a_edge38_Node000027_Node000038"><a xlink:title=" ">
<path fill="none" stroke="#63b8ff" d="M1238.18,-116.96C1219.55,-116.96 1199.77,-116.96 1181.65,-116.96"/>
<polygon fill="#63b8ff" stroke="#63b8ff" points="1238.4,-120.46 1248.4,-116.96 1238.4,-113.46 1238.4,-120.46"/>
</a>
</g>
</g>
<!-- Node30 -->
<g id="Node000030" class="node">
<title>Node30</title>
<g id="a_Node000030"><a xlink:href="../../da/dd5/classTerraria_1_1Main_ae7acc9fe7fb0914ed02aacdfdc9039c5.html#ae7acc9fe7fb0914ed02aacdfdc9039c5" target="_top" xlink:title=" ">
<polygon fill="white" stroke="#666666" points="735.5,-87.46 599.5,-87.46 599.5,-68.46 735.5,-68.46 735.5,-87.46"/>
<text text-anchor="middle" x="667.5" y="-75.46" font-family="Helvetica,sans-Serif" font-size="10.00">Terraria.Main.DrawMenu</text>
</a>
</g>
</g>
<!-- Node29&#45;&gt;Node30 -->
<g id="edge30_Node000029_Node000030" class="edge">
<title>Node29&#45;&gt;Node30</title>
<g id="a_edge30_Node000029_Node000030"><a xlink:title=" ">
<path fill="none" stroke="#63b8ff" d="M1039.09,-14.03C974.98,-2.22 880.16,8.29 800,-10.96 753.41,-22.14 704.72,-52.74 681.86,-68.42"/>
<polygon fill="#63b8ff" stroke="#63b8ff" points="1038.63,-17.5 1049.1,-15.93 1039.93,-10.63 1038.63,-17.5"/>
</a>
</g>
</g>
<!-- Node34 -->
<g id="Node000034" class="node">
<title>Node34</title>
<g id="a_Node000034"><a xlink:href="../../da/dd5/classTerraria_1_1Main_a4235ca20881bf906c51075bd2dfefea1.html#a4235ca20881bf906c51075bd2dfefea1" target="_top" xlink:title=" ">
<polygon fill="white" stroke="#666666" points="978.5,-49.96 815.5,-49.96 815.5,-19.96 978.5,-19.96 978.5,-49.96"/>
<text text-anchor="start" x="823.5" y="-37.96" font-family="Helvetica,sans-Serif" font-size="10.00">Terraria.Main.OnSubmitServer</text>
<text text-anchor="middle" x="897" y="-26.96" font-family="Helvetica,sans-Serif" font-size="10.00">Password</text>
</a>
</g>
</g>
<!-- Node29&#45;&gt;Node34 -->
<g id="edge34_Node000029_Node000034" class="edge">
<title>Node29&#45;&gt;Node34</title>
<g id="a_edge34_Node000029_Node000034"><a xlink:title=" ">
<path fill="none" stroke="#63b8ff" d="M1021.97,-32.65C1007.61,-32.92 992.86,-33.19 978.76,-33.45"/>
<polygon fill="#63b8ff" stroke="#63b8ff" points="1022.4,-36.14 1032.33,-32.46 1022.27,-29.14 1022.4,-36.14"/>
</a>
</g>
</g>
<!-- Node31 -->
<g id="Node000031" class="node">
<title>Node31</title>
<g id="a_Node000031"><a xlink:href="../../da/dd5/classTerraria_1_1Main_a474beeecaea4d6dd108fba56cd554d46.html#a474beeecaea4d6dd108fba56cd554d46" target="_top" xlink:title=" ">
<polygon fill="white" stroke="#666666" points="496.5,-87.46 374.5,-87.46 374.5,-68.46 496.5,-68.46 496.5,-87.46"/>
<text text-anchor="middle" x="435.5" y="-75.46" font-family="Helvetica,sans-Serif" font-size="10.00">Terraria.Main.DoDraw</text>
</a>
</g>
</g>
<!-- Node30&#45;&gt;Node31 -->
<g id="edge31_Node000030_Node000031" class="edge">
<title>Node30&#45;&gt;Node31</title>
<g id="a_edge31_Node000030_Node000031"><a xlink:title=" ">
<path fill="none" stroke="#63b8ff" d="M589.28,-77.96C559.09,-77.96 524.98,-77.96 496.67,-77.96"/>
<polygon fill="#63b8ff" stroke="#63b8ff" points="589.36,-81.46 599.36,-77.96 589.36,-74.46 589.36,-81.46"/>
</a>
</g>
</g>
<!-- Node32 -->
<g id="Node000032" class="node">
<title>Node32</title>
<g id="a_Node000032"><a xlink:href="../../da/dd5/classTerraria_1_1Main_aa597dbafa085227bb056d05d0b0f9abe.html#aa597dbafa085227bb056d05d0b0f9abe" target="_top" xlink:title=" ">
<polygon fill="white" stroke="#666666" points="277,-92.96 168,-92.96 168,-62.96 277,-62.96 277,-92.96"/>
<text text-anchor="start" x="176" y="-80.96" font-family="Helvetica,sans-Serif" font-size="10.00">Terraria.Main.Draw</text>
<text text-anchor="middle" x="222.5" y="-69.96" font-family="Helvetica,sans-Serif" font-size="10.00">_Inner</text>
</a>
</g>
</g>
<!-- Node31&#45;&gt;Node32 -->
<g id="edge32_Node000031_Node000032" class="edge">
<title>Node31&#45;&gt;Node32</title>
<g id="a_edge32_Node000031_Node000032"><a xlink:title=" ">
<path fill="none" stroke="#63b8ff" d="M364.08,-77.96C335.77,-77.96 303.66,-77.96 277.28,-77.96"/>
<polygon fill="#63b8ff" stroke="#63b8ff" points="364.32,-81.46 374.32,-77.96 364.32,-74.46 364.32,-81.46"/>
</a>
</g>
</g>
<!-- Node33 -->
<g id="Node000033" class="node">
<title>Node33</title>
<g id="a_Node000033"><a xlink:href="../../da/dd5/classTerraria_1_1Main_a516aa31311860bad4242ade32e5effcd.html#a516aa31311860bad4242ade32e5effcd" target="_top" xlink:title=" ">
<polygon fill="white" stroke="#666666" points="109,-87.46 0,-87.46 0,-68.46 109,-68.46 109,-87.46"/>
<text text-anchor="middle" x="54.5" y="-75.46" font-family="Helvetica,sans-Serif" font-size="10.00">Terraria.Main.Draw</text>
</a>
</g>
</g>
<!-- Node32&#45;&gt;Node33 -->
<g id="edge33_Node000032_Node000033" class="edge">
<title>Node32&#45;&gt;Node33</title>
<g id="a_edge33_Node000032_Node000033"><a xlink:title=" ">
<path fill="none" stroke="#63b8ff" d="M157.31,-77.96C141.38,-77.96 124.48,-77.96 109.13,-77.96"/>
<polygon fill="#63b8ff" stroke="#63b8ff" points="157.6,-81.46 167.6,-77.96 157.6,-74.46 157.6,-81.46"/>
</a>
</g>
</g>
<!-- Node36 -->
<g id="Node000036" class="node">
<title>Node36</title>
<g id="a_Node000036"><a xlink:href="../../d8/d13/classTerraria_1_1GameContent_1_1UI_1_1Elements_1_1UICharacterListItem_a340caf28f2ffe89144b036695ef7e860.html#a340caf28f2ffe89144b036695ef7e860" target="_top" xlink:title=" ">
<polygon fill="white" stroke="#666666" points="980,-185.46 814,-185.46 814,-144.46 980,-144.46 980,-185.46"/>
<text text-anchor="start" x="822" y="-173.46" font-family="Helvetica,sans-Serif" font-size="10.00">Terraria.GameContent.UI.</text>
<text text-anchor="start" x="822" y="-162.46" font-family="Helvetica,sans-Serif" font-size="10.00">Elements.UICharacterListItem.</text>
<text text-anchor="middle" x="897" y="-151.46" font-family="Helvetica,sans-Serif" font-size="10.00">PlayGame</text>
</a>
</g>
</g>
<!-- Node35&#45;&gt;Node36 -->
<g id="edge36_Node000035_Node000036" class="edge">
<title>Node35&#45;&gt;Node36</title>
<g id="a_edge36_Node000035_Node000036"><a xlink:title=" ">
<path fill="none" stroke="#63b8ff" d="M1031.41,-163.09C1014.67,-163.33 997.03,-163.57 980.27,-163.81"/>
<polygon fill="#63b8ff" stroke="#63b8ff" points="1031.76,-166.59 1041.71,-162.95 1031.66,-159.59 1031.76,-166.59"/>
</a>
</g>
</g>
<!-- Node37 -->
<g id="Node000037" class="node">
<title>Node37</title>
<g id="a_Node000037"><a xlink:href="../../d8/d13/classTerraria_1_1GameContent_1_1UI_1_1Elements_1_1UICharacterListItem_a84c7d2bebc258bb2126ce4847c484e99.html#a84c7d2bebc258bb2126ce4847c484e99" target="_top" xlink:title=" ">
<polygon fill="white" stroke="#666666" points="750.5,-165.46 584.5,-165.46 584.5,-124.46 750.5,-124.46 750.5,-165.46"/>
<text text-anchor="start" x="592.5" y="-153.46" font-family="Helvetica,sans-Serif" font-size="10.00">Terraria.GameContent.UI.</text>
<text text-anchor="start" x="592.5" y="-142.46" font-family="Helvetica,sans-Serif" font-size="10.00">Elements.UICharacterListItem.</text>
<text text-anchor="middle" x="667.5" y="-131.46" font-family="Helvetica,sans-Serif" font-size="10.00">UICharacterListItem</text>
</a>
</g>
</g>
<!-- Node36&#45;&gt;Node37 -->
<g id="edge37_Node000036_Node000037" class="edge">
<title>Node36&#45;&gt;Node37</title>
<g id="a_edge37_Node000036_Node000037"><a xlink:title=" ">
<path fill="none" stroke="#63b8ff" d="M803.61,-156.83C786.03,-155.29 767.74,-153.68 750.51,-152.17"/>
<polygon fill="#63b8ff" stroke="#63b8ff" points="803.6,-160.35 813.87,-157.74 804.21,-153.37 803.6,-160.35"/>
</a>
</g>
</g>
<!-- Node38&#45;&gt;Node30 -->
<g id="edge39_Node000038_Node000030" class="edge">
<title>Node38&#45;&gt;Node30</title>
<g id="a_edge39_Node000038_Node000030"><a xlink:title=" ">
<path fill="none" stroke="#63b8ff" d="M1036.01,-113.28C972.58,-109.89 880.32,-104.14 800,-95.96 777.65,-93.68 753.25,-90.53 731.6,-87.49"/>
<polygon fill="#63b8ff" stroke="#63b8ff" points="1036.16,-116.79 1046.33,-113.82 1036.53,-109.8 1036.16,-116.79"/>
</a>
</g>
</g>
<!-- Node39 -->
<g id="Node000039" class="node">
<title>Node39</title>
<g id="a_Node000039"><a xlink:href="../../da/dd5/classTerraria_1_1Main_a33ab56670ca7132e963f3f6f9c757e38.html#a33ab56670ca7132e963f3f6f9c757e38" target="_top" xlink:title=" ">
<polygon fill="white" stroke="#666666" points="988,-87.46 806,-87.46 806,-68.46 988,-68.46 988,-87.46"/>
<text text-anchor="middle" x="897" y="-75.46" font-family="Helvetica,sans-Serif" font-size="10.00">Terraria.Main.OnSubmitServerPort</text>
</a>
</g>
</g>
<!-- Node38&#45;&gt;Node39 -->
<g id="edge40_Node000038_Node000039" class="edge">
<title>Node38&#45;&gt;Node39</title>
<g id="a_edge40_Node000038_Node000039"><a xlink:title=" ">
<path fill="none" stroke="#63b8ff" d="M1036.53,-103.08C1008.08,-97.92 976.45,-92.19 950.61,-87.5"/>
<polygon fill="#63b8ff" stroke="#63b8ff" points="1035.98,-106.54 1046.45,-104.88 1037.23,-99.65 1035.98,-106.54"/>
</a>
</g>
</g>
<!-- Node39&#45;&gt;Node30 -->
<g id="edge41_Node000039_Node000030" class="edge">
<title>Node39&#45;&gt;Node30</title>
<g id="a_edge41_Node000039_Node000030"><a xlink:title=" ">
<path fill="none" stroke="#63b8ff" d="M795.57,-77.96C775.35,-77.96 754.57,-77.96 735.81,-77.96"/>
<polygon fill="#63b8ff" stroke="#63b8ff" points="795.76,-81.46 805.76,-77.96 795.76,-74.46 795.76,-81.46"/>
</a>
</g>
</g>
<!-- Node41 -->
<g id="Node000041" class="node">
<title>Node41</title>
<g id="a_Node000041"><a xlink:href="../../db/d90/classTerraria_1_1Netplay_ae1189b2f060611d11bb9faa824ed2eb7.html#ae1189b2f060611d11bb9faa824ed2eb7" target="_top" xlink:title=" ">
<polygon fill="white" stroke="#666666" points="1592.5,-300.96 1452.5,-300.96 1452.5,-270.96 1592.5,-270.96 1592.5,-300.96"/>
<text text-anchor="start" x="1460.5" y="-288.96" font-family="Helvetica,sans-Serif" font-size="10.00">Terraria.Netplay.UpdateIn</text>
<text text-anchor="middle" x="1522.5" y="-277.96" font-family="Helvetica,sans-Serif" font-size="10.00">MainThread</text>
</a>
</g>
</g>
<!-- Node40&#45;&gt;Node41 -->
<g id="edge43_Node000040_Node000041" class="edge">
<title>Node40&#45;&gt;Node41</title>
<g id="a_edge43_Node000040_Node000041"><a xlink:title=" ">
<path fill="none" stroke="#63b8ff" d="M1643.55,-264.7C1626.54,-267.71 1608.97,-270.82 1592.69,-273.71"/>
<polygon fill="#63b8ff" stroke="#63b8ff" points="1644.25,-268.13 1653.49,-262.94 1643.03,-261.24 1644.25,-268.13"/>
</a>
</g>
</g>
<!-- Node42 -->
<g id="Node000042" class="node">
<title>Node42</title>
<g id="a_Node000042"><a xlink:href="../../da/dd5/classTerraria_1_1Main_a96341b8439a15bcefc0f119767e24e35.html#a96341b8439a15bcefc0f119767e24e35" target="_top" xlink:title=" ">
<polygon fill="white" stroke="#666666" points="1382,-295.46 1250,-295.46 1250,-276.46 1382,-276.46 1382,-295.46"/>
<text text-anchor="middle" x="1316" y="-283.46" font-family="Helvetica,sans-Serif" font-size="10.00">Terraria.Main.DoUpdate</text>
</a>
</g>
</g>
<!-- Node41&#45;&gt;Node42 -->
<g id="edge44_Node000041_Node000042" class="edge">
<title>Node41&#45;&gt;Node42</title>
<g id="a_edge44_Node000041_Node000042"><a xlink:title=" ">
<path fill="none" stroke="#63b8ff" d="M1442.01,-285.96C1422.15,-285.96 1401.09,-285.96 1382.02,-285.96"/>
<polygon fill="#63b8ff" stroke="#63b8ff" points="1442.27,-289.46 1452.27,-285.96 1442.27,-282.46 1442.27,-289.46"/>
</a>
</g>
</g>
<!-- Node43 -->
<g id="Node000043" class="node">
<title>Node43</title>
<g id="a_Node000043"><a xlink:href="../../da/dd5/classTerraria_1_1Main_a49776516aea1626e33c722fc8896a7de.html#a49776516aea1626e33c722fc8896a7de" target="_top" xlink:title=" ">
<polygon fill="white" stroke="#666666" points="1173.5,-295.46 1054.5,-295.46 1054.5,-276.46 1173.5,-276.46 1173.5,-295.46"/>
<text text-anchor="middle" x="1114" y="-283.46" font-family="Helvetica,sans-Serif" font-size="10.00">Terraria.Main.Update</text>
</a>
</g>
</g>
<!-- Node42&#45;&gt;Node43 -->
<g id="edge45_Node000042_Node000043" class="edge">
<title>Node42&#45;&gt;Node43</title>
<g id="a_edge45_Node000042_Node000043"><a xlink:title=" ">
<path fill="none" stroke="#63b8ff" d="M1239.58,-285.96C1217.78,-285.96 1194.32,-285.96 1173.71,-285.96"/>
<polygon fill="#63b8ff" stroke="#63b8ff" points="1239.79,-289.46 1249.79,-285.96 1239.79,-282.46 1239.79,-289.46"/>
</a>
</g>
</g>
<!-- Node44&#45;&gt;Node41 -->
<g id="edge47_Node000044_Node000041" class="edge">
<title>Node44&#45;&gt;Node41</title>
<g id="a_edge47_Node000044_Node000041"><a xlink:title=" ">
<path fill="none" stroke="#63b8ff" d="M1641.82,-292.18C1625.37,-291.32 1608.45,-290.43 1592.74,-289.6"/>
<polygon fill="#63b8ff" stroke="#63b8ff" points="1641.82,-295.69 1651.99,-292.72 1642.19,-288.7 1641.82,-295.69"/>
</a>
</g>
</g>
</g>
</svg>
