<?xml version="1.0" encoding="UTF-8" standalone="no"?>
<!DOCTYPE svg PUBLIC "-//W3C//DTD SVG 1.1//EN"
 "http://www.w3.org/Graphics/SVG/1.1/DTD/svg11.dtd">
<!-- Generated by graphviz version 2.43.0 (0)
 -->
<!-- Title: Terraria.ModLoader.ModLoader.EnableMod Pages: 1 -->
<svg width="1763pt" height="146pt"
 viewBox="0.00 0.00 1763.00 146.00" xmlns="http://www.w3.org/2000/svg" xmlns:xlink="http://www.w3.org/1999/xlink">
<g id="graph0" class="graph" transform="scale(1 1) rotate(0) translate(4 142)">
<title>Terraria.ModLoader.ModLoader.EnableMod</title>
<!-- Node1 -->
<g id="Node000001" class="node">
<title>Node1</title>
<g id="a_Node000001"><a xlink:title=" ">
<polygon fill="#999999" stroke="#666666" points="1755,-84 1586,-84 1586,-54 1755,-54 1755,-84"/>
<text text-anchor="start" x="1594" y="-72" font-family="Helvetica,sans-Serif" font-size="10.00">Terraria.ModLoader.ModLoader.</text>
<text text-anchor="middle" x="1670.5" y="-61" font-family="Helvetica,sans-Serif" font-size="10.00">EnableMod</text>
</a>
</g>
</g>
<!-- Node2 -->
<g id="Node000002" class="node">
<title>Node2</title>
<g id="a_Node000002"><a xlink:href="../../d7/d6b/classTerraria_1_1ModLoader_1_1Core_1_1ModCompile_a10622b9ac25ce10df888b6e5ac578d6c.html#a10622b9ac25ce10df888b6e5ac578d6c" target="_top" xlink:title=" ">
<polygon fill="white" stroke="#666666" points="1528,-138 1390,-138 1390,-108 1528,-108 1528,-138"/>
<text text-anchor="start" x="1398" y="-126" font-family="Helvetica,sans-Serif" font-size="10.00">Terraria.ModLoader.Core.</text>
<text text-anchor="middle" x="1459" y="-115" font-family="Helvetica,sans-Serif" font-size="10.00">ModCompile.Build</text>
</a>
</g>
</g>
<!-- Node1&#45;&gt;Node2 -->
<g id="edge1_Node000001_Node000002" class="edge">
<title>Node1&#45;&gt;Node2</title>
<g id="a_edge1_Node000001_Node000002"><a xlink:title=" ">
<path fill="none" stroke="#63b8ff" d="M1601.45,-86.54C1574.65,-93.45 1544.19,-101.3 1518.41,-107.95"/>
<polygon fill="#63b8ff" stroke="#63b8ff" points="1602.33,-89.93 1611.14,-84.04 1600.59,-83.15 1602.33,-89.93"/>
</a>
</g>
</g>
<!-- Node3 -->
<g id="Node000003" class="node">
<title>Node3</title>
<g id="a_Node000003"><a xlink:href="../../dd/de0/classTerraria_1_1ModLoader_1_1Engine_1_1FileAssociationSupport_a30c879201c2f81802af0f4b213ad6fe3.html#a30c879201c2f81802af0f4b213ad6fe3" target="_top" xlink:title=" ">
<polygon fill="white" stroke="#666666" points="1550,-89.5 1368,-89.5 1368,-48.5 1550,-48.5 1550,-89.5"/>
<text text-anchor="start" x="1376" y="-77.5" font-family="Helvetica,sans-Serif" font-size="10.00">Terraria.ModLoader.Engine.</text>
<text text-anchor="start" x="1376" y="-66.5" font-family="Helvetica,sans-Serif" font-size="10.00">FileAssociationSupport.HandleFile</text>
<text text-anchor="middle" x="1459" y="-55.5" font-family="Helvetica,sans-Serif" font-size="10.00">Association</text>
</a>
</g>
</g>
<!-- Node1&#45;&gt;Node3 -->
<g id="edge2_Node000001_Node000003" class="edge">
<title>Node1&#45;&gt;Node3</title>
<g id="a_edge2_Node000001_Node000003"><a xlink:title=" ">
<path fill="none" stroke="#63b8ff" d="M1575.54,-69C1567.08,-69 1558.52,-69 1550.1,-69"/>
<polygon fill="#63b8ff" stroke="#63b8ff" points="1575.8,-72.5 1585.8,-69 1575.8,-65.5 1575.8,-72.5"/>
</a>
</g>
</g>
<!-- Node11 -->
<g id="Node000011" class="node">
<title>Node11</title>
<g id="a_Node000011"><a xlink:href="../../df/d47/classTerraria_1_1ModLoader_1_1ModNet_a85d12addece186efdc26a1f443b98416.html#a85d12addece186efdc26a1f443b98416" target="_top" xlink:title=" ">
<polygon fill="white" stroke="#666666" points="1536,-30 1382,-30 1382,0 1536,0 1536,-30"/>
<text text-anchor="start" x="1390" y="-18" font-family="Helvetica,sans-Serif" font-size="10.00">Terraria.ModLoader.ModNet.</text>
<text text-anchor="middle" x="1459" y="-7" font-family="Helvetica,sans-Serif" font-size="10.00">ReceiveMod</text>
</a>
</g>
</g>
<!-- Node1&#45;&gt;Node11 -->
<g id="edge10_Node000001_Node000011" class="edge">
<title>Node1&#45;&gt;Node11</title>
<g id="a_edge10_Node000001_Node000011"><a xlink:title=" ">
<path fill="none" stroke="#63b8ff" d="M1601.45,-51.46C1574.65,-44.55 1544.19,-36.7 1518.41,-30.05"/>
<polygon fill="#63b8ff" stroke="#63b8ff" points="1600.59,-54.85 1611.14,-53.96 1602.33,-48.07 1600.59,-54.85"/>
</a>
</g>
</g>
<!-- Node4 -->
<g id="Node000004" class="node">
<title>Node4</title>
<g id="a_Node000004"><a xlink:href="../../de/d13/classTerraria_1_1Initializers_1_1LaunchInitializer_a4051b5b466ac9bf894a312d279d0d6e3.html#a4051b5b466ac9bf894a312d279d0d6e3" target="_top" xlink:title=" ">
<polygon fill="white" stroke="#666666" points="1332,-84 1157,-84 1157,-54 1332,-54 1332,-84"/>
<text text-anchor="start" x="1165" y="-72" font-family="Helvetica,sans-Serif" font-size="10.00">Terraria.Initializers.Launch</text>
<text text-anchor="middle" x="1244.5" y="-61" font-family="Helvetica,sans-Serif" font-size="10.00">Initializer.LoadServerParameters</text>
</a>
</g>
</g>
<!-- Node3&#45;&gt;Node4 -->
<g id="edge3_Node000003_Node000004" class="edge">
<title>Node3&#45;&gt;Node4</title>
<g id="a_edge3_Node000003_Node000004"><a xlink:title=" ">
<path fill="none" stroke="#63b8ff" d="M1357.81,-69C1349.19,-69 1340.53,-69 1332.03,-69"/>
<polygon fill="#63b8ff" stroke="#63b8ff" points="1357.88,-72.5 1367.88,-69 1357.88,-65.5 1357.88,-72.5"/>
</a>
</g>
</g>
<!-- Node5 -->
<g id="Node000005" class="node">
<title>Node5</title>
<g id="a_Node000005"><a xlink:href="../../de/d13/classTerraria_1_1Initializers_1_1LaunchInitializer_a15722e7caa991f6b6793fd0a83c5a6c7.html#a15722e7caa991f6b6793fd0a83c5a6c7" target="_top" xlink:title=" ">
<polygon fill="white" stroke="#666666" points="1121,-84 976,-84 976,-54 1121,-54 1121,-84"/>
<text text-anchor="start" x="984" y="-72" font-family="Helvetica,sans-Serif" font-size="10.00">Terraria.Initializers.Launch</text>
<text text-anchor="middle" x="1048.5" y="-61" font-family="Helvetica,sans-Serif" font-size="10.00">Initializer.LoadParameters</text>
</a>
</g>
</g>
<!-- Node4&#45;&gt;Node5 -->
<g id="edge4_Node000004_Node000005" class="edge">
<title>Node4&#45;&gt;Node5</title>
<g id="a_edge4_Node000004_Node000005"><a xlink:title=" ">
<path fill="none" stroke="#63b8ff" d="M1146.82,-69C1138.13,-69 1129.44,-69 1121.02,-69"/>
<polygon fill="#63b8ff" stroke="#63b8ff" points="1147,-72.5 1157,-69 1147,-65.5 1147,-72.5"/>
</a>
</g>
</g>
<!-- Node6 -->
<g id="Node000006" class="node">
<title>Node6</title>
<g id="a_Node000006"><a xlink:href="../../d9/daf/classTerraria_1_1Program_af6c00579600a216e018170de3614fc26.html#af6c00579600a216e018170de3614fc26" target="_top" xlink:title=" ">
<polygon fill="white" stroke="#666666" points="940,-78.5 791,-78.5 791,-59.5 940,-59.5 940,-78.5"/>
<text text-anchor="middle" x="865.5" y="-66.5" font-family="Helvetica,sans-Serif" font-size="10.00">Terraria.Program.RunGame</text>
</a>
</g>
</g>
<!-- Node5&#45;&gt;Node6 -->
<g id="edge5_Node000005_Node000006" class="edge">
<title>Node5&#45;&gt;Node6</title>
<g id="a_edge5_Node000005_Node000006"><a xlink:title=" ">
<path fill="none" stroke="#63b8ff" d="M965.96,-69C957.37,-69 948.68,-69 940.19,-69"/>
<polygon fill="#63b8ff" stroke="#63b8ff" points="965.96,-72.5 975.96,-69 965.96,-65.5 965.96,-72.5"/>
</a>
</g>
</g>
<!-- Node7 -->
<g id="Node000007" class="node">
<title>Node7</title>
<g id="a_Node000007"><a xlink:href="../../d9/daf/classTerraria_1_1Program_a14d8143a984e1f2629bf39525465aab5.html#a14d8143a984e1f2629bf39525465aab5" target="_top" xlink:title=" ">
<polygon fill="white" stroke="#666666" points="755,-78.5 585,-78.5 585,-59.5 755,-59.5 755,-78.5"/>
<text text-anchor="middle" x="670" y="-66.5" font-family="Helvetica,sans-Serif" font-size="10.00">Terraria.Program.LaunchGame_</text>
</a>
</g>
</g>
<!-- Node6&#45;&gt;Node7 -->
<g id="edge6_Node000006_Node000007" class="edge">
<title>Node6&#45;&gt;Node7</title>
<g id="a_edge6_Node000006_Node000007"><a xlink:title=" ">
<path fill="none" stroke="#63b8ff" d="M780.6,-69C772.17,-69 763.61,-69 755.18,-69"/>
<polygon fill="#63b8ff" stroke="#63b8ff" points="780.79,-72.5 790.79,-69 780.79,-65.5 780.79,-72.5"/>
</a>
</g>
</g>
<!-- Node8 -->
<g id="Node000008" class="node">
<title>Node8</title>
<g id="a_Node000008"><a xlink:href="../../d9/daf/classTerraria_1_1Program_ac7cb5c95fd3efd53cdfb49df17b19967.html#ac7cb5c95fd3efd53cdfb49df17b19967" target="_top" xlink:title=" ">
<polygon fill="white" stroke="#666666" points="549,-78.5 385,-78.5 385,-59.5 549,-59.5 549,-78.5"/>
<text text-anchor="middle" x="467" y="-66.5" font-family="Helvetica,sans-Serif" font-size="10.00">Terraria.Program.LaunchGame</text>
</a>
</g>
</g>
<!-- Node7&#45;&gt;Node8 -->
<g id="edge7_Node000007_Node000008" class="edge">
<title>Node7&#45;&gt;Node8</title>
<g id="a_edge7_Node000007_Node000008"><a xlink:title=" ">
<path fill="none" stroke="#63b8ff" d="M574.88,-69C566.29,-69 557.63,-69 549.17,-69"/>
<polygon fill="#63b8ff" stroke="#63b8ff" points="574.92,-72.5 584.92,-69 574.92,-65.5 574.92,-72.5"/>
</a>
</g>
</g>
<!-- Node9 -->
<g id="Node000009" class="node">
<title>Node9</title>
<g id="a_Node000009"><a xlink:href="../../d1/d9a/classTerraria_1_1MonoLaunch_a271141011b415c3c7ae1d15e089f4462.html#a271141011b415c3c7ae1d15e089f4462" target="_top" xlink:title=" ">
<polygon fill="white" stroke="#666666" points="349,-78.5 181,-78.5 181,-59.5 349,-59.5 349,-78.5"/>
<text text-anchor="middle" x="265" y="-66.5" font-family="Helvetica,sans-Serif" font-size="10.00">Terraria.MonoLaunch.Main_End</text>
</a>
</g>
</g>
<!-- Node8&#45;&gt;Node9 -->
<g id="edge8_Node000008_Node000009" class="edge">
<title>Node8&#45;&gt;Node9</title>
<g id="a_edge8_Node000008_Node000009"><a xlink:title=" ">
<path fill="none" stroke="#63b8ff" d="M374.91,-69C366.32,-69 357.64,-69 349.13,-69"/>
<polygon fill="#63b8ff" stroke="#63b8ff" points="374.94,-72.5 384.94,-69 374.94,-65.5 374.94,-72.5"/>
</a>
</g>
</g>
<!-- Node10 -->
<g id="Node000010" class="node">
<title>Node10</title>
<g id="a_Node000010"><a xlink:href="../../d1/d9a/classTerraria_1_1MonoLaunch_a1ce3ddd41bea11cf917cc4501d50727c.html#a1ce3ddd41bea11cf917cc4501d50727c" target="_top" xlink:title=" ">
<polygon fill="white" stroke="#666666" points="145,-78.5 0,-78.5 0,-59.5 145,-59.5 145,-78.5"/>
<text text-anchor="middle" x="72.5" y="-66.5" font-family="Helvetica,sans-Serif" font-size="10.00">Terraria.MonoLaunch.Main</text>
</a>
</g>
</g>
<!-- Node9&#45;&gt;Node10 -->
<g id="edge9_Node000009_Node000010" class="edge">
<title>Node9&#45;&gt;Node10</title>
<g id="a_edge9_Node000009_Node000010"><a xlink:title=" ">
<path fill="none" stroke="#63b8ff" d="M170.89,-69C162.25,-69 153.59,-69 145.19,-69"/>
<polygon fill="#63b8ff" stroke="#63b8ff" points="171,-72.5 181,-69 171,-65.5 171,-72.5"/>
</a>
</g>
</g>
<!-- Node12 -->
<g id="Node000012" class="node">
<title>Node12</title>
<g id="a_Node000012"><a xlink:href="../../db/d63/classTerraria_1_1MessageBuffer_ab4039006321b0ab8e7d66acbd82370b0.html#ab4039006321b0ab8e7d66acbd82370b0" target="_top" xlink:title=" ">
<polygon fill="white" stroke="#666666" points="1330.5,-24.5 1158.5,-24.5 1158.5,-5.5 1330.5,-5.5 1330.5,-24.5"/>
<text text-anchor="middle" x="1244.5" y="-12.5" font-family="Helvetica,sans-Serif" font-size="10.00">Terraria.MessageBuffer.GetData</text>
</a>
</g>
</g>
<!-- Node11&#45;&gt;Node12 -->
<g id="edge11_Node000011_Node000012" class="edge">
<title>Node11&#45;&gt;Node12</title>
<g id="a_edge11_Node000011_Node000012"><a xlink:title=" ">
<path fill="none" stroke="#63b8ff" d="M1371.68,-15C1358.2,-15 1344.28,-15 1330.83,-15"/>
<polygon fill="#63b8ff" stroke="#63b8ff" points="1371.88,-18.5 1381.88,-15 1371.88,-11.5 1371.88,-18.5"/>
</a>
</g>
</g>
</g>
</svg>
