<?xml version="1.0" encoding="UTF-8" standalone="no"?>
<!DOCTYPE svg PUBLIC "-//W3C//DTD SVG 1.1//EN"
 "http://www.w3.org/Graphics/SVG/1.1/DTD/svg11.dtd">
<!-- Generated by graphviz version 2.43.0 (0)
 -->
<!-- Title: Terraria.ModLoader.ModLoader.GetMod Pages: 1 -->
<!--zoomable 396 -->

<svg id="main" version="1.1" xmlns="http://www.w3.org/2000/svg" xmlns:xlink="http://www.w3.org/1999/xlink" xml:space="preserve" onload="init(evt)">
<style type="text/css"><![CDATA[
.node, .edge {opacity: 0.7;}
.node.selected, .edge.selected {opacity: 1;}
.edge:hover path { stroke: red; }
.edge:hover polygon { stroke: red; fill: red; }
]]></style>

<defs>
  <circle id="rim" cx="0" cy="0" r="7"/>
  <circle id="rim2" cx="0" cy="0" r="3.5"/>
  <g id="zoomPlus">
    <use xlink:href="#rim" fill="#404040"><set attributeName="fill" to="#808080" begin="zoomplus.mouseover" end="zoomplus.mouseout"/></use>
    <path d="M-4,0h8M0,-4v8" fill="none" stroke="white" stroke-width="1.5" pointer-events="none"/>
  </g>
  <g id="zoomMin">
    <use xlink:href="#rim" fill="#404040"><set attributeName="fill" to="#808080" begin="zoomminus.mouseover" end="zoomminus.mouseout"/></use>
    <path d="M-4,0h8" fill="none" stroke="white" stroke-width="1.5" pointer-events="none"/>
  </g>
  <g id="arrowUp" transform="translate(30 24)">
    <use xlink:href="#rim"/>
    <path pointer-events="none" fill="none" stroke="white" stroke-width="1.5" d="M0,-3.0v7 M-2.5,-0.5L0,-3.0L2.5,-0.5"/>
  </g>
  <g id="arrowRight" transform="rotate(90) translate(36 -43)">
    <use xlink:href="#rim"/>
    <path pointer-events="none" fill="none" stroke="white" stroke-width="1.5" d="M0,-3.0v7 M-2.5,-0.5L0,-3.0L2.5,-0.5"/>
  </g>
  <g id="arrowDown" transform="rotate(180) translate(-30 -48)">
    <use xlink:href="#rim"/>
    <path pointer-events="none" fill="none" stroke="white" stroke-width="1.5" d="M0,-3.0v7 M-2.5,-0.5L0,-3.0L2.5,-0.5"/>
  </g>
  <g id="arrowLeft" transform="rotate(270) translate(-36 17)">
    <use xlink:href="#rim"/>
    <path pointer-events="none" fill="none" stroke="white" stroke-width="1.5" d="M0,-3.0v7 M-2.5,-0.5L0,-3.0L2.5,-0.5"/>
  </g>
  <g id="resetDef">
    <use xlink:href="#rim2" fill="#404040"><set attributeName="fill" to="#808080" begin="reset.mouseover" end="reset.mouseout"/></use>
  </g>
</defs>
<script type="application/ecmascript">
var viewWidth = 1045;
var viewHeight = 396;
var sectionId = 'dynsection-0';
</script>
<script type="application/ecmascript" xlink:href="../../svg.min.js"/>
<svg id="graph" class="graph">
<g id="viewport">
<title>Terraria.ModLoader.ModLoader.GetMod</title>
<!-- Node1 -->
<g id="Node000001" class="node">
<title>Node1</title>
<g id="a_Node000001"><a xlink:title="Gets the instance of the Mod with the specified name. This will throw an exception if the mod cannot ...">
<polygon fill="#999999" stroke="#666666" points="1037,-232.09 868,-232.09 868,-202.09 1037,-202.09 1037,-232.09"/>
<text text-anchor="start" x="876" y="-220.09" font-family="Helvetica,sans-Serif" font-size="10.00">Terraria.ModLoader.ModLoader.</text>
<text text-anchor="middle" x="952.5" y="-209.09" font-family="Helvetica,sans-Serif" font-size="10.00">GetMod</text>
</a>
</g>
</g>
<!-- Node2 -->
<g id="Node000002" class="node">
<title>Node2</title>
<g id="a_Node000002"><a xlink:href="../../d5/d69/classTerraria_1_1ModLoader_1_1Config_1_1ConfigManager_a53d463c89b1f0511aeab1b5d2c6e3149.html#a53d463c89b1f0511aeab1b5d2c6e3149" target="_top" xlink:title=" ">
<polygon fill="white" stroke="#666666" points="807,-328.09 661,-328.09 661,-298.09 807,-298.09 807,-328.09"/>
<text text-anchor="start" x="669" y="-316.09" font-family="Helvetica,sans-Serif" font-size="10.00">Terraria.ModLoader.Config.</text>
<text text-anchor="middle" x="734" y="-305.09" font-family="Helvetica,sans-Serif" font-size="10.00">ConfigManager.GetConfig</text>
</a>
</g>
</g>
<!-- Node1&#45;&gt;Node2 -->
<g id="edge1_Node000001_Node000002" class="edge">
<title>Node1&#45;&gt;Node2</title>
<g id="a_edge1_Node000001_Node000002"><a xlink:title=" ">
<path fill="none" stroke="#63b8ff" d="M922.52,-237.96C899.09,-253.96 864.74,-275.54 832,-289.09 823.82,-292.47 815.06,-295.46 806.26,-298.08"/>
<polygon fill="#63b8ff" stroke="#63b8ff" points="924.71,-240.7 930.93,-232.12 920.72,-234.94 924.71,-240.7"/>
</a>
</g>
</g>
<!-- Node3 -->
<g id="Node000003" class="node">
<title>Node3</title>
<g id="a_Node000003"><a xlink:href="../../d5/d69/classTerraria_1_1ModLoader_1_1Config_1_1ConfigManager_a36917562406ae4a343e80dbac943c396.html#a36917562406ae4a343e80dbac943c396" target="_top" xlink:title=" ">
<polygon fill="white" stroke="#666666" points="600,-387.59 398,-387.59 398,-346.59 600,-346.59 600,-387.59"/>
<text text-anchor="start" x="406" y="-375.59" font-family="Helvetica,sans-Serif" font-size="10.00">Terraria.ModLoader.Config.</text>
<text text-anchor="start" x="406" y="-364.59" font-family="Helvetica,sans-Serif" font-size="10.00">ConfigManager.HandleInGameChange</text>
<text text-anchor="middle" x="499" y="-353.59" font-family="Helvetica,sans-Serif" font-size="10.00">ConfigPacket</text>
</a>
</g>
</g>
<!-- Node1&#45;&gt;Node3 -->
<g id="edge10_Node000001_Node000003" class="edge">
<title>Node1&#45;&gt;Node3</title>
<g id="a_edge10_Node000001_Node000003"><a xlink:title=" ">
<path fill="none" stroke="#63b8ff" d="M938.99,-241.22C920.56,-273.86 882.73,-330.8 832,-355.09 759.95,-389.59 668.69,-390.28 600.09,-383.63"/>
<polygon fill="#63b8ff" stroke="#63b8ff" points="942.13,-242.77 943.87,-232.32 935.99,-239.4 942.13,-242.77"/>
</a>
</g>
</g>
<!-- Node6 -->
<g id="Node000006" class="node">
<title>Node6</title>
<g id="a_Node000006"><a xlink:href="../../d8/d6f/classTerraria_1_1ModLoader_1_1Core_1_1AssemblyManager_aa12c94b95eca1d3ac1baf7825d55ecb0.html#aa12c94b95eca1d3ac1baf7825d55ecb0" target="_top" xlink:title=" ">
<polygon fill="white" stroke="#666666" points="832,-280.09 636,-280.09 636,-250.09 832,-250.09 832,-280.09"/>
<text text-anchor="start" x="644" y="-268.09" font-family="Helvetica,sans-Serif" font-size="10.00">Terraria.ModLoader.Core.</text>
<text text-anchor="middle" x="734" y="-257.09" font-family="Helvetica,sans-Serif" font-size="10.00">AssemblyManager.GetDependencies</text>
</a>
</g>
</g>
<!-- Node1&#45;&gt;Node6 -->
<g id="edge6_Node000001_Node000006" class="edge">
<title>Node1&#45;&gt;Node6</title>
<g id="a_edge6_Node000001_Node000006"><a xlink:title=" ">
<path fill="none" stroke="#63b8ff" d="M873.77,-234.33C850.51,-239.48 825.22,-245.09 802.67,-250.09"/>
<polygon fill="#63b8ff" stroke="#63b8ff" points="874.59,-237.73 883.59,-232.15 873.07,-230.89 874.59,-237.73"/>
</a>
</g>
</g>
<!-- Node9 -->
<g id="Node000009" class="node">
<title>Node9</title>
<g id="a_Node000009"><a xlink:href="../../d7/db5/classTerraria_1_1ModLoader_1_1UI_1_1UIModItem_a632c0c8dcd6919492a9d6310742f3658.html#a632c0c8dcd6919492a9d6310742f3658" target="_top" xlink:title=" ">
<polygon fill="white" stroke="#666666" points="813,-232.09 655,-232.09 655,-202.09 813,-202.09 813,-232.09"/>
<text text-anchor="start" x="663" y="-220.09" font-family="Helvetica,sans-Serif" font-size="10.00">Terraria.ModLoader.UI.UIMod</text>
<text text-anchor="middle" x="734" y="-209.09" font-family="Helvetica,sans-Serif" font-size="10.00">Item.OpenConfig</text>
</a>
</g>
</g>
<!-- Node1&#45;&gt;Node9 -->
<g id="edge11_Node000001_Node000009" class="edge">
<title>Node1&#45;&gt;Node9</title>
<g id="a_edge11_Node000001_Node000009"><a xlink:title=" ">
<path fill="none" stroke="#63b8ff" d="M857.6,-217.09C842.77,-217.09 827.58,-217.09 813.16,-217.09"/>
<polygon fill="#63b8ff" stroke="#63b8ff" points="857.8,-220.59 867.8,-217.09 857.8,-213.59 857.8,-220.59"/>
</a>
</g>
</g>
<!-- Node11 -->
<g id="Node000011" class="node">
<title>Node11</title>
<g id="a_Node000011"><a xlink:href="../../da/d9e/classTerraria_1_1ModLoader_1_1ModContent_a7d35872c47802050843cea0404e40112.html#a7d35872c47802050843cea0404e40112" target="_top" xlink:title=" ">
<polygon fill="white" stroke="#666666" points="821.5,-184.09 646.5,-184.09 646.5,-154.09 821.5,-154.09 821.5,-184.09"/>
<text text-anchor="start" x="654.5" y="-172.09" font-family="Helvetica,sans-Serif" font-size="10.00">Terraria.ModLoader.ModContent.</text>
<text text-anchor="middle" x="734" y="-161.09" font-family="Helvetica,sans-Serif" font-size="10.00">OpenRead</text>
</a>
</g>
</g>
<!-- Node1&#45;&gt;Node11 -->
<g id="edge13_Node000001_Node000011" class="edge">
<title>Node1&#45;&gt;Node11</title>
<g id="a_edge13_Node000001_Node000011"><a xlink:title=" ">
<path fill="none" stroke="#63b8ff" d="M873.77,-199.86C850.51,-194.7 825.22,-189.09 802.67,-184.09"/>
<polygon fill="#63b8ff" stroke="#63b8ff" points="873.07,-203.29 883.59,-202.04 874.59,-196.45 873.07,-203.29"/>
</a>
</g>
</g>
<!-- Node15 -->
<g id="Node000015" class="node">
<title>Node15</title>
<g id="a_Node000015"><a xlink:href="../../d3/d28/classTerraria_1_1ModLoader_1_1UI_1_1UIMemoryBar_aeb14f0f195531a8c19aa72d195f8ac30.html#aeb14f0f195531a8c19aa72d195f8ac30" target="_top" xlink:title=" ">
<polygon fill="white" stroke="#666666" points="822.5,-103.09 645.5,-103.09 645.5,-73.09 822.5,-73.09 822.5,-103.09"/>
<text text-anchor="start" x="653.5" y="-91.09" font-family="Helvetica,sans-Serif" font-size="10.00">Terraria.ModLoader.UI.UIMemory</text>
<text text-anchor="middle" x="734" y="-80.09" font-family="Helvetica,sans-Serif" font-size="10.00">Bar.RecalculateMemory</text>
</a>
</g>
</g>
<!-- Node1&#45;&gt;Node15 -->
<g id="edge18_Node000001_Node000015" class="edge">
<title>Node1&#45;&gt;Node15</title>
<g id="a_edge18_Node000001_Node000015"><a xlink:title=" ">
<path fill="none" stroke="#63b8ff" d="M917.67,-196.58C893.78,-182.12 860.98,-162.33 832,-145.09 808,-130.81 780.54,-114.7 760.98,-103.26"/>
<polygon fill="#63b8ff" stroke="#63b8ff" points="916,-199.66 926.37,-201.84 919.63,-193.67 916,-199.66"/>
</a>
</g>
</g>
<!-- Node17 -->
<g id="Node000017" class="node">
<title>Node17</title>
<g id="a_Node000017"><a xlink:href="../../df/d47/classTerraria_1_1ModLoader_1_1ModNet_a61fef50338fd60508b220b8fc20fc5dc.html#a61fef50338fd60508b220b8fc20fc5dc" target="_top" xlink:title=" ">
<polygon fill="white" stroke="#666666" points="362,-82.09 208,-82.09 208,-52.09 362,-52.09 362,-82.09"/>
<text text-anchor="start" x="216" y="-70.09" font-family="Helvetica,sans-Serif" font-size="10.00">Terraria.ModLoader.ModNet.</text>
<text text-anchor="middle" x="285" y="-59.09" font-family="Helvetica,sans-Serif" font-size="10.00">SendMod</text>
</a>
</g>
</g>
<!-- Node1&#45;&gt;Node17 -->
<g id="edge20_Node000001_Node000017" class="edge">
<title>Node1&#45;&gt;Node17</title>
<g id="a_edge20_Node000001_Node000017"><a xlink:title=" ">
<path fill="none" stroke="#63b8ff" d="M940.06,-192.72C922.29,-157.82 884.53,-94.49 832,-64.09 664.56,32.78 589.11,-1.13 398,-31.09 372.27,-35.12 344.39,-44.07 322.88,-52.03"/>
<polygon fill="#63b8ff" stroke="#63b8ff" points="936.96,-194.35 944.54,-201.76 943.24,-191.24 936.96,-194.35"/>
</a>
</g>
</g>
<!-- Node2&#45;&gt;Node2 -->
<g id="edge2_Node000002_Node000002" class="edge">
<title>Node2&#45;&gt;Node2</title>
<g id="a_edge2_Node000002_Node000002"><a xlink:title=" ">
<path fill="none" stroke="#63b8ff" d="M772.16,-338.69C766.94,-343.06 754.22,-346.09 734,-346.09 699.94,-346.09 687.16,-337.5 695.68,-328.37"/>
<polygon fill="#63b8ff" stroke="#63b8ff" points="775.66,-338.42 772.32,-328.37 768.66,-338.31 775.66,-338.42"/>
</a>
</g>
</g>
<!-- Node2&#45;&gt;Node3 -->
<g id="edge3_Node000002_Node000003" class="edge">
<title>Node2&#45;&gt;Node3</title>
<g id="a_edge3_Node000002_Node000003"><a xlink:title=" ">
<path fill="none" stroke="#63b8ff" d="M658.09,-330.45C635.92,-335.59 611.44,-341.26 588.5,-346.58"/>
<polygon fill="#63b8ff" stroke="#63b8ff" points="659.14,-333.8 668.1,-328.13 657.56,-326.98 659.14,-333.8"/>
</a>
</g>
</g>
<!-- Node5 -->
<g id="Node000005" class="node">
<title>Node5</title>
<g id="a_Node000005"><a xlink:href="../../df/d47/classTerraria_1_1ModLoader_1_1ModNet_ad354810e5c47c9268fbc2e95ae069ccd.html#ad354810e5c47c9268fbc2e95ae069ccd" target="_top" xlink:title=" ">
<polygon fill="white" stroke="#666666" points="576,-328.09 422,-328.09 422,-298.09 576,-298.09 576,-328.09"/>
<text text-anchor="start" x="430" y="-316.09" font-family="Helvetica,sans-Serif" font-size="10.00">Terraria.ModLoader.ModNet.</text>
<text text-anchor="middle" x="499" y="-305.09" font-family="Helvetica,sans-Serif" font-size="10.00">SyncClientMods</text>
</a>
</g>
</g>
<!-- Node2&#45;&gt;Node5 -->
<g id="edge5_Node000002_Node000005" class="edge">
<title>Node2&#45;&gt;Node5</title>
<g id="a_edge5_Node000002_Node000005"><a xlink:title=" ">
<path fill="none" stroke="#63b8ff" d="M650.64,-313.09C626.42,-313.09 600.04,-313.09 576.22,-313.09"/>
<polygon fill="#63b8ff" stroke="#63b8ff" points="650.87,-316.59 660.87,-313.09 650.87,-309.59 650.87,-316.59"/>
</a>
</g>
</g>
<!-- Node4 -->
<g id="Node000004" class="node">
<title>Node4</title>
<g id="a_Node000004"><a xlink:href="../../db/d63/classTerraria_1_1MessageBuffer_ab4039006321b0ab8e7d66acbd82370b0.html#ab4039006321b0ab8e7d66acbd82370b0" target="_top" xlink:title=" ">
<polygon fill="white" stroke="#666666" points="172,-274.59 0,-274.59 0,-255.59 172,-255.59 172,-274.59"/>
<text text-anchor="middle" x="86" y="-262.59" font-family="Helvetica,sans-Serif" font-size="10.00">Terraria.MessageBuffer.GetData</text>
</a>
</g>
</g>
<!-- Node3&#45;&gt;Node4 -->
<g id="edge4_Node000003_Node000004" class="edge">
<title>Node3&#45;&gt;Node4</title>
<g id="a_edge4_Node000003_Node000004"><a xlink:title=" ">
<path fill="none" stroke="#63b8ff" d="M405.59,-344.16C317.46,-322.29 189.05,-290.42 125.53,-274.65"/>
<polygon fill="#63b8ff" stroke="#63b8ff" points="404.77,-347.56 415.32,-346.57 406.46,-340.77 404.77,-347.56"/>
</a>
</g>
</g>
<!-- Node7 -->
<g id="Node000007" class="node">
<title>Node7</title>
<g id="a_Node000007"><a xlink:href="../../df/d47/classTerraria_1_1ModLoader_1_1ModNet_aa7de2d7bfa1a5f7aca632c766575b9fb.html#aa7de2d7bfa1a5f7aca632c766575b9fb" target="_top" xlink:title=" ">
<polygon fill="white" stroke="#666666" points="576,-280.09 422,-280.09 422,-250.09 576,-250.09 576,-280.09"/>
<text text-anchor="start" x="430" y="-268.09" font-family="Helvetica,sans-Serif" font-size="10.00">Terraria.ModLoader.ModNet.</text>
<text text-anchor="middle" x="499" y="-257.09" font-family="Helvetica,sans-Serif" font-size="10.00">AddNoSyncDeps</text>
</a>
</g>
</g>
<!-- Node6&#45;&gt;Node7 -->
<g id="edge7_Node000006_Node000007" class="edge">
<title>Node6&#45;&gt;Node7</title>
<g id="a_edge7_Node000006_Node000007"><a xlink:title=" ">
<path fill="none" stroke="#63b8ff" d="M625.52,-265.09C608.81,-265.09 591.85,-265.09 576.03,-265.09"/>
<polygon fill="#63b8ff" stroke="#63b8ff" points="625.87,-268.59 635.87,-265.09 625.87,-261.59 625.87,-268.59"/>
</a>
</g>
</g>
<!-- Node8 -->
<g id="Node000008" class="node">
<title>Node8</title>
<g id="a_Node000008"><a xlink:href="../../df/d47/classTerraria_1_1ModLoader_1_1ModNet_aad839a16854125de2933e1b990331944.html#aad839a16854125de2933e1b990331944" target="_top" xlink:title=" ">
<polygon fill="white" stroke="#666666" points="362,-280.09 208,-280.09 208,-250.09 362,-250.09 362,-280.09"/>
<text text-anchor="start" x="216" y="-268.09" font-family="Helvetica,sans-Serif" font-size="10.00">Terraria.ModLoader.ModNet.</text>
<text text-anchor="middle" x="285" y="-257.09" font-family="Helvetica,sans-Serif" font-size="10.00">SyncMods</text>
</a>
</g>
</g>
<!-- Node7&#45;&gt;Node8 -->
<g id="edge8_Node000007_Node000008" class="edge">
<title>Node7&#45;&gt;Node8</title>
<g id="a_edge8_Node000007_Node000008"><a xlink:title=" ">
<path fill="none" stroke="#63b8ff" d="M411.67,-265.09C395.31,-265.09 378.3,-265.09 362.27,-265.09"/>
<polygon fill="#63b8ff" stroke="#63b8ff" points="411.76,-268.59 421.76,-265.09 411.76,-261.59 411.76,-268.59"/>
</a>
</g>
</g>
<!-- Node8&#45;&gt;Node4 -->
<g id="edge9_Node000008_Node000004" class="edge">
<title>Node8&#45;&gt;Node4</title>
<g id="a_edge9_Node000008_Node000004"><a xlink:title=" ">
<path fill="none" stroke="#63b8ff" d="M197.6,-265.09C189.15,-265.09 180.57,-265.09 172.13,-265.09"/>
<polygon fill="#63b8ff" stroke="#63b8ff" points="197.83,-268.59 207.83,-265.09 197.83,-261.59 197.83,-268.59"/>
</a>
</g>
</g>
<!-- Node10 -->
<g id="Node000010" class="node">
<title>Node10</title>
<g id="a_Node000010"><a xlink:href="../../d7/db5/classTerraria_1_1ModLoader_1_1UI_1_1UIModItem_a41382f95d762ac8ff81c6a22475e591d.html#a41382f95d762ac8ff81c6a22475e591d" target="_top" xlink:title=" ">
<polygon fill="white" stroke="#666666" points="578,-232.09 420,-232.09 420,-202.09 578,-202.09 578,-232.09"/>
<text text-anchor="start" x="428" y="-220.09" font-family="Helvetica,sans-Serif" font-size="10.00">Terraria.ModLoader.UI.UIMod</text>
<text text-anchor="middle" x="499" y="-209.09" font-family="Helvetica,sans-Serif" font-size="10.00">Item.OnInitialize</text>
</a>
</g>
</g>
<!-- Node9&#45;&gt;Node10 -->
<g id="edge12_Node000009_Node000010" class="edge">
<title>Node9&#45;&gt;Node10</title>
<g id="a_edge12_Node000009_Node000010"><a xlink:title=" ">
<path fill="none" stroke="#63b8ff" d="M644.49,-217.09C622.63,-217.09 599.36,-217.09 578.03,-217.09"/>
<polygon fill="#63b8ff" stroke="#63b8ff" points="644.77,-220.59 654.77,-217.09 644.77,-213.59 644.77,-220.59"/>
</a>
</g>
</g>
<!-- Node12 -->
<g id="Node000012" class="node">
<title>Node12</title>
<g id="a_Node000012"><a xlink:href="../../d0/d35/classTerraria_1_1ModLoader_1_1MusicLoader_a3837195c28184f94cd820fdd4cb471bb.html#a3837195c28184f94cd820fdd4cb471bb" target="_top" xlink:title=" ">
<polygon fill="white" stroke="#666666" points="569.5,-184.09 428.5,-184.09 428.5,-154.09 569.5,-154.09 569.5,-184.09"/>
<text text-anchor="start" x="436.5" y="-172.09" font-family="Helvetica,sans-Serif" font-size="10.00">Terraria.ModLoader.Music</text>
<text text-anchor="middle" x="499" y="-161.09" font-family="Helvetica,sans-Serif" font-size="10.00">Loader.LoadMusic</text>
</a>
</g>
</g>
<!-- Node11&#45;&gt;Node12 -->
<g id="edge14_Node000011_Node000012" class="edge">
<title>Node11&#45;&gt;Node12</title>
<g id="a_edge14_Node000011_Node000012"><a xlink:title=" ">
<path fill="none" stroke="#63b8ff" d="M636.09,-169.09C613.83,-169.09 590.59,-169.09 569.74,-169.09"/>
<polygon fill="#63b8ff" stroke="#63b8ff" points="636.24,-172.59 646.24,-169.09 636.24,-165.59 636.24,-172.59"/>
</a>
</g>
</g>
<!-- Node14 -->
<g id="Node000014" class="node">
<title>Node14</title>
<g id="a_Node000014"><a xlink:href="../../d4/dba/classTerraria_1_1ModLoader_1_1Engine_1_1TMLContentManager_a008f0c065fdcbb87018e7f33e9e0e88f.html#a008f0c065fdcbb87018e7f33e9e0e88f" target="_top" xlink:title=" ">
<polygon fill="white" stroke="#666666" points="589.5,-118.09 408.5,-118.09 408.5,-88.09 589.5,-88.09 589.5,-118.09"/>
<text text-anchor="start" x="416.5" y="-106.09" font-family="Helvetica,sans-Serif" font-size="10.00">Terraria.ModLoader.Engine.</text>
<text text-anchor="middle" x="499" y="-95.09" font-family="Helvetica,sans-Serif" font-size="10.00">TMLContentManager.OpenStream</text>
</a>
</g>
</g>
<!-- Node11&#45;&gt;Node14 -->
<g id="edge16_Node000011_Node000014" class="edge">
<title>Node11&#45;&gt;Node14</title>
<g id="a_edge16_Node000011_Node000014"><a xlink:title=" ">
<path fill="none" stroke="#63b8ff" d="M669.8,-151.19C633.34,-140.86 587.99,-128.02 553.34,-118.2"/>
<polygon fill="#63b8ff" stroke="#63b8ff" points="669.26,-154.67 679.84,-154.03 671.17,-147.94 669.26,-154.67"/>
</a>
</g>
</g>
<!-- Node13 -->
<g id="Node000013" class="node">
<title>Node13</title>
<g id="a_Node000013"><a xlink:href="../../d0/d35/classTerraria_1_1ModLoader_1_1MusicLoader_aa6b018679d582c844277112280acf5f0.html#aa6b018679d582c844277112280acf5f0" target="_top" xlink:title="Gets the music track with the specified full path. The path must be prefixed with a mod name and must...">
<polygon fill="white" stroke="#666666" points="355.5,-184.09 214.5,-184.09 214.5,-154.09 355.5,-154.09 355.5,-184.09"/>
<text text-anchor="start" x="222.5" y="-172.09" font-family="Helvetica,sans-Serif" font-size="10.00">Terraria.ModLoader.Music</text>
<text text-anchor="middle" x="285" y="-161.09" font-family="Helvetica,sans-Serif" font-size="10.00">Loader.GetMusic</text>
</a>
</g>
</g>
<!-- Node12&#45;&gt;Node13 -->
<g id="edge15_Node000012_Node000013" class="edge">
<title>Node12&#45;&gt;Node13</title>
<g id="a_edge15_Node000012_Node000013"><a xlink:title=" ">
<path fill="none" stroke="#63b8ff" d="M418.04,-169.09C397.55,-169.09 375.68,-169.09 355.75,-169.09"/>
<polygon fill="#63b8ff" stroke="#63b8ff" points="418.29,-172.59 428.29,-169.09 418.29,-165.59 418.29,-172.59"/>
</a>
</g>
</g>
<!-- Node14&#45;&gt;Node14 -->
<g id="edge17_Node000014_Node000014" class="edge">
<title>Node14&#45;&gt;Node14</title>
<g id="a_edge17_Node000014_Node000014"><a xlink:title=" ">
<path fill="none" stroke="#63b8ff" d="M536.46,-128.69C531.34,-133.06 518.85,-136.09 499,-136.09 465.56,-136.09 453.02,-127.5 461.38,-118.37"/>
<polygon fill="#63b8ff" stroke="#63b8ff" points="539.96,-128.42 536.62,-118.37 532.96,-128.31 539.96,-128.42"/>
</a>
</g>
</g>
<!-- Node16 -->
<g id="Node000016" class="node">
<title>Node16</title>
<g id="a_Node000016"><a xlink:href="../../d3/d28/classTerraria_1_1ModLoader_1_1UI_1_1UIMemoryBar_acc07088b686409e6a6961b5c6afc06fe.html#acc07088b686409e6a6961b5c6afc06fe" target="_top" xlink:title=" ">
<polygon fill="white" stroke="#666666" points="587.5,-70.09 410.5,-70.09 410.5,-40.09 587.5,-40.09 587.5,-70.09"/>
<text text-anchor="start" x="418.5" y="-58.09" font-family="Helvetica,sans-Serif" font-size="10.00">Terraria.ModLoader.UI.UIMemory</text>
<text text-anchor="middle" x="499" y="-47.09" font-family="Helvetica,sans-Serif" font-size="10.00">Bar.OnActivate</text>
</a>
</g>
</g>
<!-- Node15&#45;&gt;Node16 -->
<g id="edge19_Node000015_Node000016" class="edge">
<title>Node15&#45;&gt;Node16</title>
<g id="a_edge19_Node000015_Node000016"><a xlink:title=" ">
<path fill="none" stroke="#63b8ff" d="M635,-74.21C619.29,-71.99 603.12,-69.7 587.68,-67.51"/>
<polygon fill="#63b8ff" stroke="#63b8ff" points="634.85,-77.73 645.24,-75.66 635.83,-70.79 634.85,-77.73"/>
</a>
</g>
</g>
<!-- Node17&#45;&gt;Node4 -->
<g id="edge21_Node000017_Node000004" class="edge">
<title>Node17&#45;&gt;Node4</title>
<g id="a_edge21_Node000017_Node000004"><a xlink:title=" ">
<path fill="none" stroke="#63b8ff" d="M261.7,-89.5C218.8,-132.62 126.39,-225.5 96.52,-255.52"/>
<polygon fill="#63b8ff" stroke="#63b8ff" points="264.3,-91.86 268.87,-82.3 259.33,-86.92 264.3,-91.86"/>
</a>
</g>
</g>
</g>
</svg>

<g id="navigator" transform="translate(0 0)" fill="#404254">
  <rect fill="#f2f5e9" fill-opacity="0.5" stroke="#606060" stroke-width=".5" x="0" y="0" width="60" height="60"/>
  <use id="zoomplus" xlink:href="#zoomPlus" x="17" y="9" onmousedown="handleZoom(evt,'in')"/>
  <use id="zoomminus" xlink:href="#zoomMin" x="42" y="9" onmousedown="handleZoom(evt,'out')"/>
  <use id="reset" xlink:href="#resetDef" x="30" y="36" onmousedown="handleReset()"/>
   <use id="arrowup" xlink:href="#arrowUp" x="0" y="0" onmousedown="handlePan(0,-1)"/>
  <use id="arrowright" xlink:href="#arrowRight" x="0" y="0" onmousedown="handlePan(1,0)"/>
  <use id="arrowdown" xlink:href="#arrowDown" x="0" y="0" onmousedown="handlePan(0,1)"/>
  <use id="arrowleft" xlink:href="#arrowLeft" x="0" y="0" onmousedown="handlePan(-1,0)"/>
</g>
<svg viewBox="0 0 15 15" width="100%" height="30px" preserveAspectRatio="xMaxYMin meet">
 <g id="arrow_out" transform="scale(0.3 0.3)">
  <a xlink:href="classTerraria_1_1ModLoader_1_1ModLoader_aed988cac63e90351b6ed0bd72495f3af_aed988cac63e90351b6ed0bd72495f3af_icgraph_org.svg" target="_base">
   <rect id="button" ry="5" rx="5" y="6" x="6" height="38" width="38"
        fill="#f2f5e9" fill-opacity="0.5" stroke="#606060" stroke-width="1.0"/>
   <path id="arrow"
     d="M 11.500037,31.436501 C 11.940474,20.09759 22.043105,11.32322 32.158766,21.979434 L 37.068811,17.246167 C 37.068811,17.246167 37.088388,32 37.088388,32 L 22.160133,31.978069 C 22.160133,31.978069 26.997745,27.140456 26.997745,27.140456 C 18.528582,18.264221 13.291696,25.230495 11.500037,31.436501 z"
     style="fill:#404040;"/>
  </a>
 </g>
</svg>

<style type='text/css'>
<![CDATA[
[data-mouse-over-selected='false'] { opacity: 0.7; }
[data-mouse-over-selected='true']  { opacity: 1.0; }
]]>
</style>
<script type="application/ecmascript"><![CDATA[
document.addEventListener('DOMContentLoaded', (event) => {
  highlightEdges();
  highlightAdjacentNodes();
});
]]></script>
</svg>
