<?xml version="1.0" encoding="UTF-8" standalone="no"?>
<!DOCTYPE svg PUBLIC "-//W3C//DTD SVG 1.1//EN"
 "http://www.w3.org/Graphics/SVG/1.1/DTD/svg11.dtd">
<!-- Generated by graphviz version 2.43.0 (0)
 -->
<!-- Title: Terraria.GameContent.TeleportPylonsSystem.SpawnInWorldDust Pages: 1 -->
<svg width="1832pt" height="773pt"
 viewBox="0.00 0.00 1832.00 773.00" xmlns="http://www.w3.org/2000/svg" xmlns:xlink="http://www.w3.org/1999/xlink">
<g id="graph0" class="graph" transform="scale(1 1) rotate(0) translate(4 769)">
<title>Terraria.GameContent.TeleportPylonsSystem.SpawnInWorldDust</title>
<!-- Node1 -->
<g id="Node000001" class="node">
<title>Node1</title>
<g id="a_Node000001"><a xlink:title=" ">
<polygon fill="#999999" stroke="#666666" points="1824,-560 1644,-560 1644,-530 1824,-530 1824,-560"/>
<text text-anchor="start" x="1652" y="-548" font-family="Helvetica,sans-Serif" font-size="10.00">Terraria.GameContent.Teleport</text>
<text text-anchor="middle" x="1734" y="-537" font-family="Helvetica,sans-Serif" font-size="10.00">PylonsSystem.SpawnInWorldDust</text>
</a>
</g>
</g>
<!-- Node2 -->
<g id="Node000002" class="node">
<title>Node2</title>
<g id="a_Node000002"><a xlink:href="../../d6/d7b/classTerraria_1_1GameContent_1_1Drawing_1_1TileDrawing_a48b43a316a5af8850a467f297f9b24fe.html#a48b43a316a5af8850a467f297f9b24fe" target="_top" xlink:title=" ">
<polygon fill="white" stroke="#666666" points="1608,-624 1408,-624 1408,-594 1608,-594 1608,-624"/>
<text text-anchor="start" x="1416" y="-612" font-family="Helvetica,sans-Serif" font-size="10.00">Terraria.GameContent.Drawing.</text>
<text text-anchor="middle" x="1508" y="-601" font-family="Helvetica,sans-Serif" font-size="10.00">TileDrawing.DrawTeleportationPylons</text>
</a>
</g>
</g>
<!-- Node1&#45;&gt;Node2 -->
<g id="edge1_Node000001_Node000002" class="edge">
<title>Node1&#45;&gt;Node2</title>
<g id="a_edge1_Node000001_Node000002"><a xlink:title=" ">
<path fill="none" stroke="#63b8ff" d="M1670.57,-562.84C1636.26,-572.64 1594.19,-584.66 1561.58,-593.98"/>
<polygon fill="#63b8ff" stroke="#63b8ff" points="1671.83,-566.12 1680.48,-560.01 1669.91,-559.39 1671.83,-566.12"/>
</a>
</g>
</g>
<!-- Node14 -->
<g id="Node000014" class="node">
<title>Node14</title>
<g id="a_Node000014"><a xlink:href="../../da/dd5/classTerraria_1_1Main_a048037f3d7aab6166c98b4d7adab3fb3.html#a048037f3d7aab6166c98b4d7adab3fb3" target="_top" xlink:title=" ">
<polygon fill="white" stroke="#666666" points="1583,-511.5 1433,-511.5 1433,-492.5 1583,-492.5 1583,-511.5"/>
<text text-anchor="middle" x="1508" y="-499.5" font-family="Helvetica,sans-Serif" font-size="10.00">Terraria.Main.TeleportEffect</text>
</a>
</g>
</g>
<!-- Node1&#45;&gt;Node14 -->
<g id="edge16_Node000001_Node000014" class="edge">
<title>Node1&#45;&gt;Node14</title>
<g id="a_edge16_Node000001_Node000014"><a xlink:title=" ">
<path fill="none" stroke="#63b8ff" d="M1644.82,-528.07C1615.52,-522.45 1583.93,-516.38 1558.6,-511.52"/>
<polygon fill="#63b8ff" stroke="#63b8ff" points="1644.18,-531.51 1654.66,-529.96 1645.49,-524.64 1644.18,-531.51"/>
</a>
</g>
</g>
<!-- Node42 -->
<g id="Node000042" class="node">
<title>Node42</title>
<g id="a_Node000042"><a xlink:href="../../d4/d03/classTerraria_1_1Player_aebe38f0544e25bf312e781950f5c095c.html#aebe38f0544e25bf312e781950f5c095c" target="_top" xlink:title=" ">
<polygon fill="white" stroke="#666666" points="1590,-560 1426,-560 1426,-530 1590,-530 1590,-560"/>
<text text-anchor="start" x="1434" y="-548" font-family="Helvetica,sans-Serif" font-size="10.00">Terraria.Player.UpdateTeleport</text>
<text text-anchor="middle" x="1508" y="-537" font-family="Helvetica,sans-Serif" font-size="10.00">Visuals</text>
</a>
</g>
</g>
<!-- Node1&#45;&gt;Node42 -->
<g id="edge50_Node000001_Node000042" class="edge">
<title>Node1&#45;&gt;Node42</title>
<g id="a_edge50_Node000001_Node000042"><a xlink:title=" ">
<path fill="none" stroke="#63b8ff" d="M1633.8,-545C1619.24,-545 1604.39,-545 1590.24,-545"/>
<polygon fill="#63b8ff" stroke="#63b8ff" points="1633.83,-548.5 1643.83,-545 1633.83,-541.5 1633.83,-548.5"/>
</a>
</g>
</g>
<!-- Node3 -->
<g id="Node000003" class="node">
<title>Node3</title>
<g id="a_Node000003"><a xlink:href="../../d6/d7b/classTerraria_1_1GameContent_1_1Drawing_1_1TileDrawing_a195bc3275a5fbd6fe52452a5a2251e49.html#a195bc3275a5fbd6fe52452a5a2251e49" target="_top" xlink:title=" ">
<polygon fill="white" stroke="#666666" points="1372,-657 1202,-657 1202,-627 1372,-627 1372,-657"/>
<text text-anchor="start" x="1210" y="-645" font-family="Helvetica,sans-Serif" font-size="10.00">Terraria.GameContent.Drawing.</text>
<text text-anchor="middle" x="1287" y="-634" font-family="Helvetica,sans-Serif" font-size="10.00">TileDrawing.PostDrawTiles</text>
</a>
</g>
</g>
<!-- Node2&#45;&gt;Node3 -->
<g id="edge2_Node000002_Node000003" class="edge">
<title>Node2&#45;&gt;Node3</title>
<g id="a_edge2_Node000002_Node000003"><a xlink:title=" ">
<path fill="none" stroke="#63b8ff" d="M1397.7,-625.47C1389.13,-626.76 1380.55,-628.05 1372.18,-629.32"/>
<polygon fill="#63b8ff" stroke="#63b8ff" points="1398.39,-628.91 1407.75,-623.96 1397.34,-621.98 1398.39,-628.91"/>
</a>
</g>
</g>
<!-- Node4 -->
<g id="Node000004" class="node">
<title>Node4</title>
<g id="a_Node000004"><a xlink:href="../../da/dd5/classTerraria_1_1Main_ad4ae75332050e0d79634071470f5a909.html#ad4ae75332050e0d79634071470f5a909" target="_top" xlink:title=" ">
<polygon fill="white" stroke="#666666" points="1147,-660.5 983,-660.5 983,-641.5 1147,-641.5 1147,-660.5"/>
<text text-anchor="middle" x="1065" y="-648.5" font-family="Helvetica,sans-Serif" font-size="10.00">Terraria.Main.DrawTileEntities</text>
</a>
</g>
</g>
<!-- Node3&#45;&gt;Node4 -->
<g id="edge3_Node000003_Node000004" class="edge">
<title>Node3&#45;&gt;Node4</title>
<g id="a_edge3_Node000003_Node000004"><a xlink:title=" ">
<path fill="none" stroke="#63b8ff" d="M1191.7,-645.86C1176.87,-646.46 1161.66,-647.09 1147.17,-647.68"/>
<polygon fill="#63b8ff" stroke="#63b8ff" points="1192.04,-649.35 1201.89,-645.44 1191.75,-642.35 1192.04,-649.35"/>
</a>
</g>
</g>
<!-- Node5 -->
<g id="Node000005" class="node">
<title>Node5</title>
<g id="a_Node000005"><a xlink:href="../../da/dd5/classTerraria_1_1Main_a3577de5a7f25360eb93079d58db7c623.html#a3577de5a7f25360eb93079d58db7c623" target="_top" xlink:title=" ">
<polygon fill="white" stroke="#666666" points="888,-765 766,-765 766,-735 888,-735 888,-765"/>
<text text-anchor="start" x="774" y="-753" font-family="Helvetica,sans-Serif" font-size="10.00">Terraria.Main.DoDraw</text>
<text text-anchor="middle" x="827" y="-742" font-family="Helvetica,sans-Serif" font-size="10.00">_Tiles_NonSolid</text>
</a>
</g>
</g>
<!-- Node4&#45;&gt;Node5 -->
<g id="edge4_Node000004_Node000005" class="edge">
<title>Node4&#45;&gt;Node5</title>
<g id="a_edge4_Node000004_Node000005"><a xlink:title=" ">
<path fill="none" stroke="#63b8ff" d="M1041.05,-666.18C1014.74,-682.97 969.83,-709.79 928,-726 915.35,-730.9 901.39,-735.01 888.03,-738.36"/>
<polygon fill="#63b8ff" stroke="#63b8ff" points="1043.04,-669.06 1049.54,-660.69 1039.25,-663.18 1043.04,-669.06"/>
</a>
</g>
</g>
<!-- Node10 -->
<g id="Node000010" class="node">
<title>Node10</title>
<g id="a_Node000010"><a xlink:href="../../da/dd5/classTerraria_1_1Main_ae56023e484f0560aeca4eb92c99120d0.html#ae56023e484f0560aeca4eb92c99120d0" target="_top" xlink:title=" ">
<polygon fill="white" stroke="#666666" points="888,-717 766,-717 766,-687 888,-687 888,-717"/>
<text text-anchor="start" x="774" y="-705" font-family="Helvetica,sans-Serif" font-size="10.00">Terraria.Main.DoDraw</text>
<text text-anchor="middle" x="827" y="-694" font-family="Helvetica,sans-Serif" font-size="10.00">_Tiles_Solid</text>
</a>
</g>
</g>
<!-- Node4&#45;&gt;Node10 -->
<g id="edge9_Node000004_Node000010" class="edge">
<title>Node4&#45;&gt;Node10</title>
<g id="a_edge9_Node000004_Node000010"><a xlink:title=" ">
<path fill="none" stroke="#63b8ff" d="M1009.98,-662.67C973.71,-670.51 925.89,-680.85 888.37,-688.95"/>
<polygon fill="#63b8ff" stroke="#63b8ff" points="1010.85,-666.07 1019.89,-660.53 1009.37,-659.22 1010.85,-666.07"/>
</a>
</g>
</g>
<!-- Node11 -->
<g id="Node000011" class="node">
<title>Node11</title>
<g id="a_Node000011"><a xlink:href="../../da/dd5/classTerraria_1_1Main_ab13ebe846afd6d4cd47586ef70091e91.html#ab13ebe846afd6d4cd47586ef70091e91" target="_top" xlink:title=" ">
<polygon fill="white" stroke="#666666" points="900.5,-630.5 753.5,-630.5 753.5,-611.5 900.5,-611.5 900.5,-630.5"/>
<text text-anchor="middle" x="827" y="-618.5" font-family="Helvetica,sans-Serif" font-size="10.00">Terraria.Main.DrawCapture</text>
</a>
</g>
</g>
<!-- Node4&#45;&gt;Node11 -->
<g id="edge11_Node000004_Node000011" class="edge">
<title>Node4&#45;&gt;Node11</title>
<g id="a_edge11_Node000004_Node000011"><a xlink:title=" ">
<path fill="none" stroke="#63b8ff" d="M978.94,-640.19C953.35,-636.93 925.51,-633.39 900.78,-630.25"/>
<polygon fill="#63b8ff" stroke="#63b8ff" points="978.64,-643.68 989,-641.47 979.53,-636.73 978.64,-643.68"/>
</a>
</g>
</g>
<!-- Node12 -->
<g id="Node000012" class="node">
<title>Node12</title>
<g id="a_Node000012"><a xlink:href="../../da/dd5/classTerraria_1_1Main_a28b4f7a7c174b4336af28e4ffedbee6b.html#a28b4f7a7c174b4336af28e4ffedbee6b" target="_top" xlink:title=" ">
<polygon fill="white" stroke="#666666" points="687,-668.5 546,-668.5 546,-649.5 687,-649.5 687,-668.5"/>
<text text-anchor="middle" x="616.5" y="-656.5" font-family="Helvetica,sans-Serif" font-size="10.00">Terraria.Main.RenderTiles</text>
</a>
</g>
</g>
<!-- Node4&#45;&gt;Node12 -->
<g id="edge12_Node000004_Node000012" class="edge">
<title>Node4&#45;&gt;Node12</title>
<g id="a_edge12_Node000004_Node000012"><a xlink:title=" ">
<path fill="none" stroke="#63b8ff" d="M972.76,-652.63C888.11,-654.15 763.93,-656.38 687.04,-657.75"/>
<polygon fill="#63b8ff" stroke="#63b8ff" points="972.95,-656.13 982.88,-652.45 972.82,-649.13 972.95,-656.13"/>
</a>
</g>
</g>
<!-- Node13 -->
<g id="Node000013" class="node">
<title>Node13</title>
<g id="a_Node000013"><a xlink:href="../../da/dd5/classTerraria_1_1Main_a695c9d156c03ebb6ba6accba1be2002c.html#a695c9d156c03ebb6ba6accba1be2002c" target="_top" xlink:title=" ">
<polygon fill="white" stroke="#666666" points="690,-612.5 543,-612.5 543,-593.5 690,-593.5 690,-612.5"/>
<text text-anchor="middle" x="616.5" y="-600.5" font-family="Helvetica,sans-Serif" font-size="10.00">Terraria.Main.RenderTiles2</text>
</a>
</g>
</g>
<!-- Node4&#45;&gt;Node13 -->
<g id="edge14_Node000004_Node000013" class="edge">
<title>Node4&#45;&gt;Node13</title>
<g id="a_edge14_Node000004_Node000013"><a xlink:title=" ">
<path fill="none" stroke="#63b8ff" d="M1034.58,-637.33C1007.54,-625.57 966.03,-609.51 928,-603 847.5,-589.21 753.54,-591.74 690.24,-596.11"/>
<polygon fill="#63b8ff" stroke="#63b8ff" points="1033.29,-640.59 1043.85,-641.44 1036.12,-634.19 1033.29,-640.59"/>
</a>
</g>
</g>
<!-- Node6 -->
<g id="Node000006" class="node">
<title>Node6</title>
<g id="a_Node000006"><a xlink:href="../../da/dd5/classTerraria_1_1Main_a2d44005190710445b2d2cae37fc514bf.html#a2d44005190710445b2d2cae37fc514bf" target="_top" xlink:title=" ">
<polygon fill="white" stroke="#666666" points="677.5,-717 555.5,-717 555.5,-687 677.5,-687 677.5,-717"/>
<text text-anchor="start" x="563.5" y="-705" font-family="Helvetica,sans-Serif" font-size="10.00">Terraria.Main.DoDraw</text>
<text text-anchor="middle" x="616.5" y="-694" font-family="Helvetica,sans-Serif" font-size="10.00">_WallsTilesNPCs</text>
</a>
</g>
</g>
<!-- Node5&#45;&gt;Node6 -->
<g id="edge5_Node000005_Node000006" class="edge">
<title>Node5&#45;&gt;Node6</title>
<g id="a_edge5_Node000005_Node000006"><a xlink:title=" ">
<path fill="none" stroke="#63b8ff" d="M756.05,-733.9C730.69,-728.06 702.28,-721.52 677.83,-715.89"/>
<polygon fill="#63b8ff" stroke="#63b8ff" points="755.44,-737.35 765.97,-736.18 757.01,-730.53 755.44,-737.35"/>
</a>
</g>
</g>
<!-- Node7 -->
<g id="Node000007" class="node">
<title>Node7</title>
<g id="a_Node000007"><a xlink:href="../../da/dd5/classTerraria_1_1Main_a474beeecaea4d6dd108fba56cd554d46.html#a474beeecaea4d6dd108fba56cd554d46" target="_top" xlink:title=" ">
<polygon fill="white" stroke="#666666" points="484,-668.5 362,-668.5 362,-649.5 484,-649.5 484,-668.5"/>
<text text-anchor="middle" x="423" y="-656.5" font-family="Helvetica,sans-Serif" font-size="10.00">Terraria.Main.DoDraw</text>
</a>
</g>
</g>
<!-- Node6&#45;&gt;Node7 -->
<g id="edge6_Node000006_Node000007" class="edge">
<title>Node6&#45;&gt;Node7</title>
<g id="a_edge6_Node000006_Node000007"><a xlink:title=" ">
<path fill="none" stroke="#63b8ff" d="M545.45,-686.27C519.01,-680.33 489.73,-673.76 466.55,-668.55"/>
<polygon fill="#63b8ff" stroke="#63b8ff" points="544.91,-689.74 555.43,-688.51 546.44,-682.91 544.91,-689.74"/>
</a>
</g>
</g>
<!-- Node8 -->
<g id="Node000008" class="node">
<title>Node8</title>
<g id="a_Node000008"><a xlink:href="../../da/dd5/classTerraria_1_1Main_aa597dbafa085227bb056d05d0b0f9abe.html#aa597dbafa085227bb056d05d0b0f9abe" target="_top" xlink:title=" ">
<polygon fill="white" stroke="#666666" points="286.5,-674 177.5,-674 177.5,-644 286.5,-644 286.5,-674"/>
<text text-anchor="start" x="185.5" y="-662" font-family="Helvetica,sans-Serif" font-size="10.00">Terraria.Main.Draw</text>
<text text-anchor="middle" x="232" y="-651" font-family="Helvetica,sans-Serif" font-size="10.00">_Inner</text>
</a>
</g>
</g>
<!-- Node7&#45;&gt;Node8 -->
<g id="edge7_Node000007_Node000008" class="edge">
<title>Node7&#45;&gt;Node8</title>
<g id="a_edge7_Node000007_Node000008"><a xlink:title=" ">
<path fill="none" stroke="#63b8ff" d="M351.83,-659C330.23,-659 306.81,-659 286.51,-659"/>
<polygon fill="#63b8ff" stroke="#63b8ff" points="351.94,-662.5 361.94,-659 351.94,-655.5 351.94,-662.5"/>
</a>
</g>
</g>
<!-- Node9 -->
<g id="Node000009" class="node">
<title>Node9</title>
<g id="a_Node000009"><a xlink:href="../../da/dd5/classTerraria_1_1Main_a516aa31311860bad4242ade32e5effcd.html#a516aa31311860bad4242ade32e5effcd" target="_top" xlink:title=" ">
<polygon fill="white" stroke="#666666" points="117,-668.5 8,-668.5 8,-649.5 117,-649.5 117,-668.5"/>
<text text-anchor="middle" x="62.5" y="-656.5" font-family="Helvetica,sans-Serif" font-size="10.00">Terraria.Main.Draw</text>
</a>
</g>
</g>
<!-- Node8&#45;&gt;Node9 -->
<g id="edge8_Node000008_Node000009" class="edge">
<title>Node8&#45;&gt;Node9</title>
<g id="a_edge8_Node000008_Node000009"><a xlink:title=" ">
<path fill="none" stroke="#63b8ff" d="M166.98,-659C150.49,-659 132.92,-659 117.03,-659"/>
<polygon fill="#63b8ff" stroke="#63b8ff" points="167.08,-662.5 177.08,-659 167.08,-655.5 167.08,-662.5"/>
</a>
</g>
</g>
<!-- Node10&#45;&gt;Node6 -->
<g id="edge10_Node000010_Node000006" class="edge">
<title>Node10&#45;&gt;Node6</title>
<g id="a_edge10_Node000010_Node000006"><a xlink:title=" ">
<path fill="none" stroke="#63b8ff" d="M755.71,-702C730.44,-702 702.18,-702 677.83,-702"/>
<polygon fill="#63b8ff" stroke="#63b8ff" points="755.97,-705.5 765.97,-702 755.97,-698.5 755.97,-705.5"/>
</a>
</g>
</g>
<!-- Node12&#45;&gt;Node7 -->
<g id="edge13_Node000012_Node000007" class="edge">
<title>Node12&#45;&gt;Node7</title>
<g id="a_edge13_Node000012_Node000007"><a xlink:title=" ">
<path fill="none" stroke="#63b8ff" d="M535.76,-659C518.49,-659 500.51,-659 484.15,-659"/>
<polygon fill="#63b8ff" stroke="#63b8ff" points="535.82,-662.5 545.82,-659 535.82,-655.5 535.82,-662.5"/>
</a>
</g>
</g>
<!-- Node13&#45;&gt;Node7 -->
<g id="edge15_Node000013_Node000007" class="edge">
<title>Node13&#45;&gt;Node7</title>
<g id="a_edge15_Node000013_Node000007"><a xlink:title=" ">
<path fill="none" stroke="#63b8ff" d="M572.6,-615.54C537.45,-625.82 488.46,-640.15 456.49,-649.5"/>
<polygon fill="#63b8ff" stroke="#63b8ff" points="573.96,-618.79 582.58,-612.63 572,-612.07 573.96,-618.79"/>
</a>
</g>
</g>
<!-- Node15 -->
<g id="Node000015" class="node">
<title>Node15</title>
<g id="a_Node000015"><a xlink:href="../../df/d0d/classTerraria_1_1NPC_a23447ba356a9454d56d4339569adcc6d.html#a23447ba356a9454d56d4339569adcc6d" target="_top" xlink:title=" ">
<polygon fill="white" stroke="#666666" points="1346.5,-511.5 1227.5,-511.5 1227.5,-492.5 1346.5,-492.5 1346.5,-511.5"/>
<text text-anchor="middle" x="1287" y="-499.5" font-family="Helvetica,sans-Serif" font-size="10.00">Terraria.NPC.Teleport</text>
</a>
</g>
</g>
<!-- Node14&#45;&gt;Node15 -->
<g id="edge17_Node000014_Node000015" class="edge">
<title>Node14&#45;&gt;Node15</title>
<g id="a_edge17_Node000014_Node000015"><a xlink:title=" ">
<path fill="none" stroke="#63b8ff" d="M1422.53,-502C1397.26,-502 1370.1,-502 1346.85,-502"/>
<polygon fill="#63b8ff" stroke="#63b8ff" points="1422.86,-505.5 1432.86,-502 1422.86,-498.5 1422.86,-505.5"/>
</a>
</g>
</g>
<!-- Node21 -->
<g id="Node000021" class="node">
<title>Node21</title>
<g id="a_Node000021"><a xlink:href="../../d4/d03/classTerraria_1_1Player_a7a0d290c2f653cc222e91ce311b1840d.html#a7a0d290c2f653cc222e91ce311b1840d" target="_top" xlink:title=" ">
<polygon fill="white" stroke="#666666" points="1351,-268.5 1223,-268.5 1223,-249.5 1351,-249.5 1351,-268.5"/>
<text text-anchor="middle" x="1287" y="-256.5" font-family="Helvetica,sans-Serif" font-size="10.00">Terraria.Player.Teleport</text>
</a>
</g>
</g>
<!-- Node14&#45;&gt;Node21 -->
<g id="edge23_Node000014_Node000021" class="edge">
<title>Node14&#45;&gt;Node21</title>
<g id="a_edge23_Node000014_Node000021"><a xlink:title=" ">
<path fill="none" stroke="#63b8ff" d="M1491.58,-484.89C1448.88,-437.51 1330.05,-305.65 1296.76,-268.72"/>
<polygon fill="#63b8ff" stroke="#63b8ff" points="1489.12,-487.39 1498.41,-492.47 1494.32,-482.7 1489.12,-487.39"/>
</a>
</g>
</g>
<!-- Node16 -->
<g id="Node000016" class="node">
<title>Node16</title>
<g id="a_Node000016"><a xlink:href="../../df/d0d/classTerraria_1_1NPC_a79f2070799ef3105848968d9312f4017.html#a79f2070799ef3105848968d9312f4017" target="_top" xlink:title=" ">
<polygon fill="white" stroke="#666666" points="1121.5,-517 1008.5,-517 1008.5,-487 1121.5,-487 1121.5,-517"/>
<text text-anchor="start" x="1016.5" y="-505" font-family="Helvetica,sans-Serif" font-size="10.00">Terraria.NPC.AI_007</text>
<text text-anchor="middle" x="1065" y="-494" font-family="Helvetica,sans-Serif" font-size="10.00">_TownEntities</text>
</a>
</g>
</g>
<!-- Node15&#45;&gt;Node16 -->
<g id="edge18_Node000015_Node000016" class="edge">
<title>Node15&#45;&gt;Node16</title>
<g id="a_edge18_Node000015_Node000016"><a xlink:title=" ">
<path fill="none" stroke="#63b8ff" d="M1217.14,-502C1186.47,-502 1150.82,-502 1121.85,-502"/>
<polygon fill="#63b8ff" stroke="#63b8ff" points="1217.33,-505.5 1227.33,-502 1217.33,-498.5 1217.33,-505.5"/>
</a>
</g>
</g>
<!-- Node17 -->
<g id="Node000017" class="node">
<title>Node17</title>
<g id="a_Node000017"><a xlink:href="../../df/d0d/classTerraria_1_1NPC_ac6f711000642c6df97f8302ffd18927f.html#ac6f711000642c6df97f8302ffd18927f" target="_top" xlink:title=" ">
<polygon fill="white" stroke="#666666" points="888,-517 766,-517 766,-487 888,-487 888,-517"/>
<text text-anchor="start" x="774" y="-505" font-family="Helvetica,sans-Serif" font-size="10.00">Terraria.NPC.VanillaAI</text>
<text text-anchor="middle" x="827" y="-494" font-family="Helvetica,sans-Serif" font-size="10.00">_Inner</text>
</a>
</g>
</g>
<!-- Node16&#45;&gt;Node17 -->
<g id="edge19_Node000016_Node000017" class="edge">
<title>Node16&#45;&gt;Node17</title>
<g id="a_edge19_Node000016_Node000017"><a xlink:title=" ">
<path fill="none" stroke="#63b8ff" d="M997.94,-502C963.52,-502 921.74,-502 888.22,-502"/>
<polygon fill="#63b8ff" stroke="#63b8ff" points="998.37,-505.5 1008.37,-502 998.37,-498.5 998.37,-505.5"/>
</a>
</g>
</g>
<!-- Node18 -->
<g id="Node000018" class="node">
<title>Node18</title>
<g id="a_Node000018"><a xlink:href="../../df/d0d/classTerraria_1_1NPC_a86f20980341364904ef465f249f12f80.html#a86f20980341364904ef465f249f12f80" target="_top" xlink:title=" ">
<polygon fill="white" stroke="#666666" points="677.5,-511.5 555.5,-511.5 555.5,-492.5 677.5,-492.5 677.5,-511.5"/>
<text text-anchor="middle" x="616.5" y="-499.5" font-family="Helvetica,sans-Serif" font-size="10.00">Terraria.NPC.VanillaAI</text>
</a>
</g>
</g>
<!-- Node17&#45;&gt;Node18 -->
<g id="edge20_Node000017_Node000018" class="edge">
<title>Node17&#45;&gt;Node18</title>
<g id="a_edge20_Node000017_Node000018"><a xlink:title=" ">
<path fill="none" stroke="#63b8ff" d="M755.71,-502C730.44,-502 702.18,-502 677.83,-502"/>
<polygon fill="#63b8ff" stroke="#63b8ff" points="755.97,-505.5 765.97,-502 755.97,-498.5 755.97,-505.5"/>
</a>
</g>
</g>
<!-- Node19 -->
<g id="Node000019" class="node">
<title>Node19</title>
<g id="a_Node000019"><a xlink:href="../../dd/dc6/classTerraria_1_1ModLoader_1_1NPCLoader_a5075fa0ca2bdcf3208edfbcc6c567a74.html#a5075fa0ca2bdcf3208edfbcc6c567a74" target="_top" xlink:title=" ">
<polygon fill="white" stroke="#666666" points="507,-517 339,-517 339,-487 507,-487 507,-517"/>
<text text-anchor="start" x="347" y="-505" font-family="Helvetica,sans-Serif" font-size="10.00">Terraria.ModLoader.NPCLoader.</text>
<text text-anchor="middle" x="423" y="-494" font-family="Helvetica,sans-Serif" font-size="10.00">NPCAI</text>
</a>
</g>
</g>
<!-- Node18&#45;&gt;Node19 -->
<g id="edge21_Node000018_Node000019" class="edge">
<title>Node18&#45;&gt;Node19</title>
<g id="a_edge21_Node000018_Node000019"><a xlink:title=" ">
<path fill="none" stroke="#63b8ff" d="M545.17,-502C532.76,-502 519.73,-502 507.01,-502"/>
<polygon fill="#63b8ff" stroke="#63b8ff" points="545.43,-505.5 555.43,-502 545.43,-498.5 545.43,-505.5"/>
</a>
</g>
</g>
<!-- Node20 -->
<g id="Node000020" class="node">
<title>Node20</title>
<g id="a_Node000020"><a xlink:href="../../df/d0d/classTerraria_1_1NPC_af998ad2acbc8e9008e7d83aad42551f2.html#af998ad2acbc8e9008e7d83aad42551f2" target="_top" xlink:title=" ">
<polygon fill="white" stroke="#666666" points="276.5,-511.5 187.5,-511.5 187.5,-492.5 276.5,-492.5 276.5,-511.5"/>
<text text-anchor="middle" x="232" y="-499.5" font-family="Helvetica,sans-Serif" font-size="10.00">Terraria.NPC.AI</text>
</a>
</g>
</g>
<!-- Node19&#45;&gt;Node20 -->
<g id="edge22_Node000019_Node000020" class="edge">
<title>Node19&#45;&gt;Node20</title>
<g id="a_edge22_Node000019_Node000020"><a xlink:title=" ">
<path fill="none" stroke="#63b8ff" d="M328.71,-502C310.46,-502 292.15,-502 276.51,-502"/>
<polygon fill="#63b8ff" stroke="#63b8ff" points="328.83,-505.5 338.83,-502 328.83,-498.5 328.83,-505.5"/>
</a>
</g>
</g>
<!-- Node22 -->
<g id="Node000022" class="node">
<title>Node22</title>
<g id="a_Node000022"><a xlink:href="../../d4/d03/classTerraria_1_1Player_ada092c550e82f787ab895c334679be1c.html#ada092c550e82f787ab895c334679be1c" target="_top" xlink:title=" ">
<polygon fill="white" stroke="#666666" points="904.5,-201.5 749.5,-201.5 749.5,-182.5 904.5,-182.5 904.5,-201.5"/>
<text text-anchor="middle" x="827" y="-189.5" font-family="Helvetica,sans-Serif" font-size="10.00">Terraria.Player.DemonConch</text>
</a>
</g>
</g>
<!-- Node21&#45;&gt;Node22 -->
<g id="edge24_Node000021_Node000022" class="edge">
<title>Node21&#45;&gt;Node22</title>
<g id="a_edge24_Node000021_Node000022"><a xlink:title=" ">
<path fill="none" stroke="#63b8ff" d="M1258.36,-244.94C1234.55,-233.58 1198.92,-218.3 1166,-211 1077.92,-191.46 973.95,-188.52 904.81,-189.3"/>
<polygon fill="#63b8ff" stroke="#63b8ff" points="1256.96,-248.16 1267.49,-249.39 1260.03,-241.86 1256.96,-248.16"/>
</a>
</g>
</g>
<!-- Node27 -->
<g id="Node000027" class="node">
<title>Node27</title>
<g id="a_Node000027"><a xlink:href="../../d4/d03/classTerraria_1_1Player_aa1657fa8e63cb3fee685b57ca72c5330.html#aa1657fa8e63cb3fee685b57ca72c5330" target="_top" xlink:title=" ">
<polygon fill="white" stroke="#666666" points="1164.5,-346 965.5,-346 965.5,-316 1164.5,-316 1164.5,-346"/>
<text text-anchor="start" x="973.5" y="-334" font-family="Helvetica,sans-Serif" font-size="10.00">Terraria.Player.DoPotion</text>
<text text-anchor="middle" x="1065" y="-323" font-family="Helvetica,sans-Serif" font-size="10.00">OfReturnReturnToOriginalUsePosition</text>
</a>
</g>
</g>
<!-- Node21&#45;&gt;Node27 -->
<g id="edge29_Node000021_Node000027" class="edge">
<title>Node21&#45;&gt;Node27</title>
<g id="a_edge29_Node000021_Node000027"><a xlink:title=" ">
<path fill="none" stroke="#63b8ff" d="M1255.38,-272.68C1231.39,-283.04 1197.01,-297.13 1166,-307 1155.88,-310.22 1145.06,-313.24 1134.41,-315.98"/>
<polygon fill="#63b8ff" stroke="#63b8ff" points="1256.9,-275.84 1264.66,-268.63 1254.1,-269.42 1256.9,-275.84"/>
</a>
</g>
</g>
<!-- Node29 -->
<g id="Node000029" class="node">
<title>Node29</title>
<g id="a_Node000029"><a xlink:href="../../d4/d03/classTerraria_1_1Player_aaa62fdb8e91d7ed2cab311e3a4b5f15d.html#aaa62fdb8e91d7ed2cab311e3a4b5f15d" target="_top" xlink:title=" ">
<polygon fill="white" stroke="#666666" points="1146,-298 984,-298 984,-268 1146,-268 1146,-298"/>
<text text-anchor="start" x="992" y="-286" font-family="Helvetica,sans-Serif" font-size="10.00">Terraria.Player.DoQueenSlime</text>
<text text-anchor="middle" x="1065" y="-275" font-family="Helvetica,sans-Serif" font-size="10.00">HookTeleport</text>
</a>
</g>
</g>
<!-- Node21&#45;&gt;Node29 -->
<g id="edge31_Node000021_Node000029" class="edge">
<title>Node21&#45;&gt;Node29</title>
<g id="a_edge31_Node000021_Node000029"><a xlink:title=" ">
<path fill="none" stroke="#63b8ff" d="M1212.98,-266.97C1191.61,-269.3 1168.13,-271.86 1146.33,-274.24"/>
<polygon fill="#63b8ff" stroke="#63b8ff" points="1213.4,-270.44 1222.96,-265.88 1212.64,-263.48 1213.4,-270.44"/>
</a>
</g>
</g>
<!-- Node30 -->
<g id="Node000030" class="node">
<title>Node30</title>
<g id="a_Node000030"><a xlink:href="../../d7/d15/classTerraria_1_1GameContent_1_1TeleportPylonsSystem_a1eaf25bb8db51787f9e2614918a39104.html#a1eaf25bb8db51787f9e2614918a39104" target="_top" xlink:title=" ">
<polygon fill="white" stroke="#666666" points="1166,-250 964,-250 964,-220 1166,-220 1166,-250"/>
<text text-anchor="start" x="972" y="-238" font-family="Helvetica,sans-Serif" font-size="10.00">Terraria.GameContent.Teleport</text>
<text text-anchor="middle" x="1065" y="-227" font-family="Helvetica,sans-Serif" font-size="10.00">PylonsSystem.HandleTeleportRequest</text>
</a>
</g>
</g>
<!-- Node21&#45;&gt;Node30 -->
<g id="edge32_Node000021_Node000030" class="edge">
<title>Node21&#45;&gt;Node30</title>
<g id="a_edge32_Node000021_Node000030"><a xlink:title=" ">
<path fill="none" stroke="#63b8ff" d="M1212.76,-251.01C1197.77,-249.38 1181.76,-247.63 1166.02,-245.91"/>
<polygon fill="#63b8ff" stroke="#63b8ff" points="1212.64,-254.52 1222.96,-252.12 1213.4,-247.56 1212.64,-254.52"/>
</a>
</g>
</g>
<!-- Node31 -->
<g id="Node000031" class="node">
<title>Node31</title>
<g id="a_Node000031"><a xlink:href="../../d4/d03/classTerraria_1_1Player_a6b63b63dfd8795c12f73c3a920454d0d.html#a6b63b63dfd8795c12f73c3a920454d0d" target="_top" xlink:title=" ">
<polygon fill="white" stroke="#666666" points="1136,-164 994,-164 994,-134 1136,-134 1136,-164"/>
<text text-anchor="start" x="1002" y="-152" font-family="Helvetica,sans-Serif" font-size="10.00">Terraria.Player.ItemCheck</text>
<text text-anchor="middle" x="1065" y="-141" font-family="Helvetica,sans-Serif" font-size="10.00">_UseTeleportRod</text>
</a>
</g>
</g>
<!-- Node21&#45;&gt;Node31 -->
<g id="edge33_Node000021_Node000031" class="edge">
<title>Node21&#45;&gt;Node31</title>
<g id="a_edge33_Node000021_Node000031"><a xlink:title=" ">
<path fill="none" stroke="#63b8ff" d="M1266.6,-243.08C1243.78,-225.05 1204.15,-195.87 1166,-178 1154.38,-172.56 1141.51,-167.9 1128.98,-164.02"/>
<polygon fill="#63b8ff" stroke="#63b8ff" points="1264.49,-245.88 1274.48,-249.4 1268.87,-240.42 1264.49,-245.88"/>
</a>
</g>
</g>
<!-- Node33 -->
<g id="Node000033" class="node">
<title>Node33</title>
<g id="a_Node000033"><a xlink:href="../../d4/d03/classTerraria_1_1Player_a092ecc112d6abc32a2d66b37b44e4253.html#a092ecc112d6abc32a2d66b37b44e4253" target="_top" xlink:title=" ">
<polygon fill="white" stroke="#666666" points="1139.5,-115.5 990.5,-115.5 990.5,-96.5 1139.5,-96.5 1139.5,-115.5"/>
<text text-anchor="middle" x="1065" y="-103.5" font-family="Helvetica,sans-Serif" font-size="10.00">Terraria.Player.MagicConch</text>
</a>
</g>
</g>
<!-- Node21&#45;&gt;Node33 -->
<g id="edge36_Node000021_Node000033" class="edge">
<title>Node21&#45;&gt;Node33</title>
<g id="a_edge36_Node000021_Node000033"><a xlink:title=" ">
<path fill="none" stroke="#63b8ff" d="M1275.06,-240.39C1256.61,-210.79 1216.33,-153.42 1166,-125 1157.84,-120.39 1148.78,-116.88 1139.53,-114.21"/>
<polygon fill="#63b8ff" stroke="#63b8ff" points="1272.28,-242.55 1280.47,-249.28 1278.26,-238.92 1272.28,-242.55"/>
</a>
</g>
</g>
<!-- Node34 -->
<g id="Node000034" class="node">
<title>Node34</title>
<g id="a_Node000034"><a xlink:href="../../d4/d03/classTerraria_1_1Player_a0a8f0faf8e97ec283a8888bea1dfdbe1.html#a0a8f0faf8e97ec283a8888bea1dfdbe1" target="_top" xlink:title=" ">
<polygon fill="white" stroke="#666666" points="1136.5,-30 993.5,-30 993.5,0 1136.5,0 1136.5,-30"/>
<text text-anchor="start" x="1001.5" y="-18" font-family="Helvetica,sans-Serif" font-size="10.00">Terraria.Player.Shellphone</text>
<text text-anchor="middle" x="1065" y="-7" font-family="Helvetica,sans-Serif" font-size="10.00">_Spawn</text>
</a>
</g>
</g>
<!-- Node21&#45;&gt;Node34 -->
<g id="edge38_Node000021_Node000034" class="edge">
<title>Node21&#45;&gt;Node34</title>
<g id="a_edge38_Node000021_Node000034"><a xlink:title=" ">
<path fill="none" stroke="#63b8ff" d="M1281.14,-239.37C1269.34,-196.03 1234.96,-91.8 1166,-39 1157.35,-32.38 1147.15,-27.55 1136.62,-24.04"/>
<polygon fill="#63b8ff" stroke="#63b8ff" points="1277.8,-240.44 1283.71,-249.23 1284.57,-238.67 1277.8,-240.44"/>
</a>
</g>
</g>
<!-- Node35 -->
<g id="Node000035" class="node">
<title>Node35</title>
<g id="a_Node000035"><a xlink:href="../../d4/d03/classTerraria_1_1Player_ad1ef88d280981f35d4c9ee9053b2c1df.html#ad1ef88d280981f35d4c9ee9053b2c1df" target="_top" xlink:title=" ">
<polygon fill="white" stroke="#666666" points="1151.5,-468.5 978.5,-468.5 978.5,-449.5 1151.5,-449.5 1151.5,-468.5"/>
<text text-anchor="middle" x="1065" y="-456.5" font-family="Helvetica,sans-Serif" font-size="10.00">Terraria.Player.ShimmerUnstuck</text>
</a>
</g>
</g>
<!-- Node21&#45;&gt;Node35 -->
<g id="edge40_Node000021_Node000035" class="edge">
<title>Node21&#45;&gt;Node35</title>
<g id="a_edge40_Node000021_Node000035"><a xlink:title=" ">
<path fill="none" stroke="#63b8ff" d="M1279.23,-278.33C1264.87,-316.3 1227.52,-400.43 1166,-441 1160.92,-444.35 1155.39,-447.12 1149.63,-449.42"/>
<polygon fill="#63b8ff" stroke="#63b8ff" points="1282.53,-279.52 1282.68,-268.92 1275.95,-277.11 1282.53,-279.52"/>
</a>
</g>
</g>
<!-- Node37 -->
<g id="Node000037" class="node">
<title>Node37</title>
<g id="a_Node000037"><a xlink:href="../../d4/d03/classTerraria_1_1Player_a90e7104d0906da9dba58e1bc218e7cb8.html#a90e7104d0906da9dba58e1bc218e7cb8" target="_top" xlink:title=" ">
<polygon fill="white" stroke="#666666" points="1141.5,-78 988.5,-78 988.5,-48 1141.5,-48 1141.5,-78"/>
<text text-anchor="start" x="996.5" y="-66" font-family="Helvetica,sans-Serif" font-size="10.00">Terraria.Player.Teleportation</text>
<text text-anchor="middle" x="1065" y="-55" font-family="Helvetica,sans-Serif" font-size="10.00">Potion</text>
</a>
</g>
</g>
<!-- Node21&#45;&gt;Node37 -->
<g id="edge43_Node000021_Node000037" class="edge">
<title>Node21&#45;&gt;Node37</title>
<g id="a_edge43_Node000021_Node000037"><a xlink:title=" ">
<path fill="none" stroke="#63b8ff" d="M1278.31,-240.04C1262.76,-204.21 1224.04,-126.59 1166,-87 1158.63,-81.97 1150.32,-77.99 1141.72,-74.84"/>
<polygon fill="#63b8ff" stroke="#63b8ff" points="1275.13,-241.5 1282.24,-249.36 1281.58,-238.78 1275.13,-241.5"/>
</a>
</g>
</g>
<!-- Node38 -->
<g id="Node000038" class="node">
<title>Node38</title>
<g id="a_Node000038"><a xlink:href="../../d1/db7/classTerraria_1_1GameContent_1_1PortalHelper_ab311e4127189f0fcb0e8dcc57a39e62c.html#ab311e4127189f0fcb0e8dcc57a39e62c" target="_top" xlink:title=" ">
<polygon fill="white" stroke="#666666" points="1148.5,-394 981.5,-394 981.5,-364 1148.5,-364 1148.5,-394"/>
<text text-anchor="start" x="989.5" y="-382" font-family="Helvetica,sans-Serif" font-size="10.00">Terraria.GameContent.Portal</text>
<text text-anchor="middle" x="1065" y="-371" font-family="Helvetica,sans-Serif" font-size="10.00">Helper.TryGoingThroughPortals</text>
</a>
</g>
</g>
<!-- Node21&#45;&gt;Node38 -->
<g id="edge45_Node000021_Node000038" class="edge">
<title>Node21&#45;&gt;Node38</title>
<g id="a_edge45_Node000021_Node000038"><a xlink:title=" ">
<path fill="none" stroke="#63b8ff" d="M1269.99,-275.75C1248.41,-297.34 1207.83,-334.53 1166,-355 1158.94,-358.45 1151.36,-361.43 1143.64,-363.99"/>
<polygon fill="#63b8ff" stroke="#63b8ff" points="1272.54,-278.15 1277.05,-268.56 1267.55,-273.24 1272.54,-278.15"/>
</a>
</g>
</g>
<!-- Node41 -->
<g id="Node000041" class="node">
<title>Node41</title>
<g id="a_Node000041"><a xlink:href="../../d4/d03/classTerraria_1_1Player_a56746762d52380b0847cbd00a9dd07d9.html#a56746762d52380b0847cbd00a9dd07d9" target="_top" xlink:title=" ">
<polygon fill="white" stroke="#666666" points="1142.5,-431.5 987.5,-431.5 987.5,-412.5 1142.5,-412.5 1142.5,-431.5"/>
<text text-anchor="middle" x="1065" y="-419.5" font-family="Helvetica,sans-Serif" font-size="10.00">Terraria.Player.UnityTeleport</text>
</a>
</g>
</g>
<!-- Node21&#45;&gt;Node41 -->
<g id="edge49_Node000021_Node000041" class="edge">
<title>Node21&#45;&gt;Node41</title>
<g id="a_edge49_Node000021_Node000041"><a xlink:title=" ">
<path fill="none" stroke="#63b8ff" d="M1276.17,-277.67C1258.6,-309.07 1218.64,-372.02 1166,-403 1158.77,-407.26 1150.77,-410.59 1142.55,-413.19"/>
<polygon fill="#63b8ff" stroke="#63b8ff" points="1279.37,-279.12 1281.08,-268.67 1273.22,-275.77 1279.37,-279.12"/>
</a>
</g>
</g>
<!-- Node23 -->
<g id="Node000023" class="node">
<title>Node23</title>
<g id="a_Node000023"><a xlink:href="../../d4/d03/classTerraria_1_1Player_a3eacd4d33ca74609db3633d339c047f8.html#a3eacd4d33ca74609db3633d339c047f8" target="_top" xlink:title=" ">
<polygon fill="white" stroke="#666666" points="687.5,-142 545.5,-142 545.5,-112 687.5,-112 687.5,-142"/>
<text text-anchor="start" x="553.5" y="-130" font-family="Helvetica,sans-Serif" font-size="10.00">Terraria.Player.ItemCheck</text>
<text text-anchor="middle" x="616.5" y="-119" font-family="Helvetica,sans-Serif" font-size="10.00">_Inner</text>
</a>
</g>
</g>
<!-- Node22&#45;&gt;Node23 -->
<g id="edge25_Node000022_Node000023" class="edge">
<title>Node22&#45;&gt;Node23</title>
<g id="a_edge25_Node000022_Node000023"><a xlink:title=" ">
<path fill="none" stroke="#63b8ff" d="M754.63,-180.37C744.93,-178.23 735.16,-175.78 726,-173 698.98,-164.81 669.56,-152.08 648.18,-142.09"/>
<polygon fill="#63b8ff" stroke="#63b8ff" points="754.18,-183.85 764.68,-182.49 755.62,-177 754.18,-183.85"/>
</a>
</g>
</g>
<!-- Node24 -->
<g id="Node000024" class="node">
<title>Node24</title>
<g id="a_Node000024"><a xlink:href="../../d4/d03/classTerraria_1_1Player_a2ec9343f552a36a4a82b36dbae10c965.html#a2ec9343f552a36a4a82b36dbae10c965" target="_top" xlink:title=" ">
<polygon fill="white" stroke="#666666" points="494,-233.5 352,-233.5 352,-214.5 494,-214.5 494,-233.5"/>
<text text-anchor="middle" x="423" y="-221.5" font-family="Helvetica,sans-Serif" font-size="10.00">Terraria.Player.ItemCheck</text>
</a>
</g>
</g>
<!-- Node23&#45;&gt;Node24 -->
<g id="edge26_Node000023_Node000024" class="edge">
<title>Node23&#45;&gt;Node24</title>
<g id="a_edge26_Node000023_Node000024"><a xlink:title=" ">
<path fill="none" stroke="#63b8ff" d="M576.5,-146.76C535.87,-167.33 473.92,-198.71 442.97,-214.39"/>
<polygon fill="#63b8ff" stroke="#63b8ff" points="578.24,-149.8 585.58,-142.16 575.08,-143.55 578.24,-149.8"/>
</a>
</g>
</g>
<!-- Node25 -->
<g id="Node000025" class="node">
<title>Node25</title>
<g id="a_Node000025"><a xlink:href="../../d4/d03/classTerraria_1_1Player_a687261287a0d6ac3be2592f9a734f199.html#a687261287a0d6ac3be2592f9a734f199" target="_top" xlink:title=" ">
<polygon fill="white" stroke="#666666" points="303,-342 161,-342 161,-312 303,-312 303,-342"/>
<text text-anchor="start" x="169" y="-330" font-family="Helvetica,sans-Serif" font-size="10.00">Terraria.Player.ItemCheck</text>
<text text-anchor="middle" x="232" y="-319" font-family="Helvetica,sans-Serif" font-size="10.00">Wrapped</text>
</a>
</g>
</g>
<!-- Node24&#45;&gt;Node25 -->
<g id="edge27_Node000024_Node000025" class="edge">
<title>Node24&#45;&gt;Node25</title>
<g id="a_edge27_Node000024_Node000025"><a xlink:title=" ">
<path fill="none" stroke="#63b8ff" d="M395.72,-238.32C360.15,-257.71 296.97,-292.14 260.68,-311.91"/>
<polygon fill="#63b8ff" stroke="#63b8ff" points="397.45,-241.36 404.56,-233.51 394.1,-235.22 397.45,-241.36"/>
</a>
</g>
</g>
<!-- Node26 -->
<g id="Node000026" class="node">
<title>Node26</title>
<g id="a_Node000026"><a xlink:href="../../d4/d03/classTerraria_1_1Player_af44290f5d38b6d5076a5fa8d6ee3dd12.html#af44290f5d38b6d5076a5fa8d6ee3dd12" target="_top" xlink:title=" ">
<polygon fill="white" stroke="#666666" points="125,-422.5 0,-422.5 0,-403.5 125,-403.5 125,-422.5"/>
<text text-anchor="middle" x="62.5" y="-410.5" font-family="Helvetica,sans-Serif" font-size="10.00">Terraria.Player.Update</text>
</a>
</g>
</g>
<!-- Node25&#45;&gt;Node26 -->
<g id="edge28_Node000025_Node000026" class="edge">
<title>Node25&#45;&gt;Node26</title>
<g id="a_edge28_Node000025_Node000026"><a xlink:title=" ">
<path fill="none" stroke="#63b8ff" d="M191.66,-346.51C181.65,-351.52 170.91,-356.93 161,-362 133.28,-376.18 101.33,-392.98 81.78,-403.31"/>
<polygon fill="#63b8ff" stroke="#63b8ff" points="193.23,-349.64 200.62,-342.04 190.11,-343.38 193.23,-349.64"/>
</a>
</g>
</g>
<!-- Node28 -->
<g id="Node000028" class="node">
<title>Node28</title>
<g id="a_Node000028"><a xlink:href="../../dc/d37/classTerraria_1_1GameContent_1_1ObjectInteractions_1_1PotionOfReturnGateInteractionChecker_a8621d55932d106e6139b80a0d7435bd1.html#a8621d55932d106e6139b80a0d7435bd1" target="_top" xlink:title=" ">
<polygon fill="white" stroke="#666666" points="928,-350.5 726,-350.5 726,-309.5 928,-309.5 928,-350.5"/>
<text text-anchor="start" x="734" y="-338.5" font-family="Helvetica,sans-Serif" font-size="10.00">Terraria.GameContent.Object</text>
<text text-anchor="start" x="734" y="-327.5" font-family="Helvetica,sans-Serif" font-size="10.00">Interactions.PotionOfReturnGate</text>
<text text-anchor="middle" x="827" y="-316.5" font-family="Helvetica,sans-Serif" font-size="10.00">InteractionChecker.PerformInteraction</text>
</a>
</g>
</g>
<!-- Node27&#45;&gt;Node28 -->
<g id="edge30_Node000027_Node000028" class="edge">
<title>Node27&#45;&gt;Node28</title>
<g id="a_edge30_Node000027_Node000028"><a xlink:title=" ">
<path fill="none" stroke="#63b8ff" d="M955.18,-330.54C946.19,-330.5 937.14,-330.46 928.22,-330.42"/>
<polygon fill="#63b8ff" stroke="#63b8ff" points="955.27,-334.04 965.28,-330.58 955.3,-327.04 955.27,-334.04"/>
</a>
</g>
</g>
<!-- Node32 -->
<g id="Node000032" class="node">
<title>Node32</title>
<g id="a_Node000032"><a xlink:href="../../d4/d03/classTerraria_1_1Player_ac1293a17d359c543df00ce543ac20f02.html#ac1293a17d359c543df00ce543ac20f02" target="_top" xlink:title=" ">
<polygon fill="white" stroke="#666666" points="898,-164 756,-164 756,-134 898,-134 898,-164"/>
<text text-anchor="start" x="764" y="-152" font-family="Helvetica,sans-Serif" font-size="10.00">Terraria.Player.ItemCheck</text>
<text text-anchor="middle" x="827" y="-141" font-family="Helvetica,sans-Serif" font-size="10.00">_OwnerOnlyCode</text>
</a>
</g>
</g>
<!-- Node31&#45;&gt;Node32 -->
<g id="edge34_Node000031_Node000032" class="edge">
<title>Node31&#45;&gt;Node32</title>
<g id="a_edge34_Node000031_Node000032"><a xlink:title=" ">
<path fill="none" stroke="#63b8ff" d="M983.77,-149C956.03,-149 925.18,-149 898.31,-149"/>
<polygon fill="#63b8ff" stroke="#63b8ff" points="983.83,-152.5 993.83,-149 983.83,-145.5 983.83,-152.5"/>
</a>
</g>
</g>
<!-- Node32&#45;&gt;Node23 -->
<g id="edge35_Node000032_Node000023" class="edge">
<title>Node32&#45;&gt;Node23</title>
<g id="a_edge35_Node000032_Node000023"><a xlink:title=" ">
<path fill="none" stroke="#63b8ff" d="M745.79,-140.54C726.64,-138.52 706.34,-136.37 687.68,-134.4"/>
<polygon fill="#63b8ff" stroke="#63b8ff" points="745.68,-144.04 755.99,-141.61 746.41,-137.08 745.68,-144.04"/>
</a>
</g>
</g>
<!-- Node33&#45;&gt;Node23 -->
<g id="edge37_Node000033_Node000023" class="edge">
<title>Node33&#45;&gt;Node23</title>
<g id="a_edge37_Node000033_Node000023"><a xlink:title=" ">
<path fill="none" stroke="#63b8ff" d="M980.2,-109.94C895.74,-113.91 766.89,-119.97 687.66,-123.7"/>
<polygon fill="#63b8ff" stroke="#63b8ff" points="980.45,-113.43 990.27,-109.47 980.12,-106.44 980.45,-113.43"/>
</a>
</g>
</g>
<!-- Node34&#45;&gt;Node23 -->
<g id="edge39_Node000034_Node000023" class="edge">
<title>Node34&#45;&gt;Node23</title>
<g id="a_edge39_Node000034_Node000023"><a xlink:title=" ">
<path fill="none" stroke="#63b8ff" d="M983.5,-24C914.14,-33.11 811.92,-49.8 726,-77 697.53,-86.01 666.76,-100.71 645.28,-111.84"/>
<polygon fill="#63b8ff" stroke="#63b8ff" points="984.02,-27.46 993.49,-22.71 983.13,-20.52 984.02,-27.46"/>
</a>
</g>
</g>
<!-- Node36 -->
<g id="Node000036" class="node">
<title>Node36</title>
<g id="a_Node000036"><a xlink:href="../../d4/d03/classTerraria_1_1Player_a5213eae3a921d3890a7685dd43a2b79e.html#a5213eae3a921d3890a7685dd43a2b79e" target="_top" xlink:title=" ">
<polygon fill="white" stroke="#666666" points="502,-456 344,-456 344,-426 502,-426 502,-456"/>
<text text-anchor="start" x="352" y="-444" font-family="Helvetica,sans-Serif" font-size="10.00">Terraria.Player.TryToShimmer</text>
<text text-anchor="middle" x="423" y="-433" font-family="Helvetica,sans-Serif" font-size="10.00">Unstuck</text>
</a>
</g>
</g>
<!-- Node35&#45;&gt;Node36 -->
<g id="edge41_Node000035_Node000036" class="edge">
<title>Node35&#45;&gt;Node36</title>
<g id="a_edge41_Node000035_Node000036"><a xlink:title=" ">
<path fill="none" stroke="#63b8ff" d="M968.25,-456.31C841.26,-452.74 619.54,-446.5 502.12,-443.2"/>
<polygon fill="#63b8ff" stroke="#63b8ff" points="968.26,-459.81 978.35,-456.59 968.45,-452.81 968.26,-459.81"/>
</a>
</g>
</g>
<!-- Node36&#45;&gt;Node26 -->
<g id="edge42_Node000036_Node000026" class="edge">
<title>Node36&#45;&gt;Node26</title>
<g id="a_edge42_Node000036_Node000026"><a xlink:title=" ">
<path fill="none" stroke="#63b8ff" d="M333.57,-434.09C268.84,-429.04 182.64,-422.31 125.22,-417.82"/>
<polygon fill="#63b8ff" stroke="#63b8ff" points="333.53,-437.6 343.77,-434.89 334.07,-430.62 333.53,-437.6"/>
</a>
</g>
</g>
<!-- Node37&#45;&gt;Node23 -->
<g id="edge44_Node000037_Node000023" class="edge">
<title>Node37&#45;&gt;Node23</title>
<g id="a_edge44_Node000037_Node000023"><a xlink:title=" ">
<path fill="none" stroke="#63b8ff" d="M978.11,-73.99C909.73,-82.9 811.64,-96.07 726,-109 713.63,-110.87 700.49,-112.96 687.78,-115.03"/>
<polygon fill="#63b8ff" stroke="#63b8ff" points="978.93,-77.41 988.4,-72.65 978.03,-70.47 978.93,-77.41"/>
</a>
</g>
</g>
<!-- Node39 -->
<g id="Node000039" class="node">
<title>Node39</title>
<g id="a_Node000039"><a xlink:href="../../df/d0d/classTerraria_1_1NPC_a8402594633a7835a037455f2058677d7.html#a8402594633a7835a037455f2058677d7" target="_top" xlink:title=" ">
<polygon fill="white" stroke="#666666" points="908,-426.5 746,-426.5 746,-407.5 908,-407.5 908,-426.5"/>
<text text-anchor="middle" x="827" y="-414.5" font-family="Helvetica,sans-Serif" font-size="10.00">Terraria.NPC.TryPortalJumping</text>
</a>
</g>
</g>
<!-- Node38&#45;&gt;Node39 -->
<g id="edge46_Node000038_Node000039" class="edge">
<title>Node38&#45;&gt;Node39</title>
<g id="a_edge46_Node000038_Node000039"><a xlink:title=" ">
<path fill="none" stroke="#63b8ff" d="M971.51,-393.89C943.1,-398.47 912.62,-403.38 887.09,-407.49"/>
<polygon fill="#63b8ff" stroke="#63b8ff" points="972.14,-397.34 981.46,-392.29 971.03,-390.42 972.14,-397.34"/>
</a>
</g>
</g>
<!-- Node40 -->
<g id="Node000040" class="node">
<title>Node40</title>
<g id="a_Node000040"><a xlink:href="../../d4/d03/classTerraria_1_1Player_ae15feabf03faf37b2c7d5752141b2a6f.html#ae15feabf03faf37b2c7d5752141b2a6f" target="_top" xlink:title=" ">
<polygon fill="white" stroke="#666666" points="298,-401 166,-401 166,-371 298,-371 298,-401"/>
<text text-anchor="start" x="174" y="-389" font-family="Helvetica,sans-Serif" font-size="10.00">Terraria.Player.TryPortal</text>
<text text-anchor="middle" x="232" y="-378" font-family="Helvetica,sans-Serif" font-size="10.00">Jumping</text>
</a>
</g>
</g>
<!-- Node38&#45;&gt;Node40 -->
<g id="edge47_Node000038_Node000040" class="edge">
<title>Node38&#45;&gt;Node40</title>
<g id="a_edge47_Node000038_Node000040"><a xlink:title=" ">
<path fill="none" stroke="#63b8ff" d="M971.11,-379.78C801.29,-381.21 444.71,-384.22 298.09,-385.45"/>
<polygon fill="#63b8ff" stroke="#63b8ff" points="971.31,-383.28 981.28,-379.7 971.25,-376.28 971.31,-383.28"/>
</a>
</g>
</g>
<!-- Node40&#45;&gt;Node26 -->
<g id="edge48_Node000040_Node000026" class="edge">
<title>Node40&#45;&gt;Node26</title>
<g id="a_edge48_Node000040_Node000026"><a xlink:title=" ">
<path fill="none" stroke="#63b8ff" d="M155.65,-398.15C144.55,-399.93 133.26,-401.76 122.55,-403.48"/>
<polygon fill="#63b8ff" stroke="#63b8ff" points="156.44,-401.56 165.76,-396.52 155.33,-394.65 156.44,-401.56"/>
</a>
</g>
</g>
<!-- Node42&#45;&gt;Node26 -->
<g id="edge51_Node000042_Node000026" class="edge">
<title>Node42&#45;&gt;Node26</title>
<g id="a_edge51_Node000042_Node000026"><a xlink:title=" ">
<path fill="none" stroke="#63b8ff" d="M1415.64,-545C1326.45,-545 1186.9,-545 1066,-545 1066,-545 1066,-545 422,-545 305.51,-545 265.17,-573.14 161,-521 115.6,-498.27 81.38,-444.66 68.78,-422.67"/>
<polygon fill="#63b8ff" stroke="#63b8ff" points="1415.72,-548.5 1425.72,-545 1415.72,-541.5 1415.72,-548.5"/>
</a>
</g>
</g>
</g>
</svg>
