<?xml version="1.0" encoding="UTF-8" standalone="no"?>
<!DOCTYPE svg PUBLIC "-//W3C//DTD SVG 1.1//EN"
 "http://www.w3.org/Graphics/SVG/1.1/DTD/svg11.dtd">
<!-- Generated by graphviz version 2.43.0 (0)
 -->
<!-- Title: Terraria.Gore.NewGore Pages: 1 -->
<!--zoomable 316 -->

<svg id="main" version="1.1" xmlns="http://www.w3.org/2000/svg" xmlns:xlink="http://www.w3.org/1999/xlink" xml:space="preserve" onload="init(evt)">
<style type="text/css"><![CDATA[
.node, .edge {opacity: 0.7;}
.node.selected, .edge.selected {opacity: 1;}
.edge:hover path { stroke: red; }
.edge:hover polygon { stroke: red; fill: red; }
]]></style>

<defs>
  <circle id="rim" cx="0" cy="0" r="7"/>
  <circle id="rim2" cx="0" cy="0" r="3.5"/>
  <g id="zoomPlus">
    <use xlink:href="#rim" fill="#404040"><set attributeName="fill" to="#808080" begin="zoomplus.mouseover" end="zoomplus.mouseout"/></use>
    <path d="M-4,0h8M0,-4v8" fill="none" stroke="white" stroke-width="1.5" pointer-events="none"/>
  </g>
  <g id="zoomMin">
    <use xlink:href="#rim" fill="#404040"><set attributeName="fill" to="#808080" begin="zoomminus.mouseover" end="zoomminus.mouseout"/></use>
    <path d="M-4,0h8" fill="none" stroke="white" stroke-width="1.5" pointer-events="none"/>
  </g>
  <g id="arrowUp" transform="translate(30 24)">
    <use xlink:href="#rim"/>
    <path pointer-events="none" fill="none" stroke="white" stroke-width="1.5" d="M0,-3.0v7 M-2.5,-0.5L0,-3.0L2.5,-0.5"/>
  </g>
  <g id="arrowRight" transform="rotate(90) translate(36 -43)">
    <use xlink:href="#rim"/>
    <path pointer-events="none" fill="none" stroke="white" stroke-width="1.5" d="M0,-3.0v7 M-2.5,-0.5L0,-3.0L2.5,-0.5"/>
  </g>
  <g id="arrowDown" transform="rotate(180) translate(-30 -48)">
    <use xlink:href="#rim"/>
    <path pointer-events="none" fill="none" stroke="white" stroke-width="1.5" d="M0,-3.0v7 M-2.5,-0.5L0,-3.0L2.5,-0.5"/>
  </g>
  <g id="arrowLeft" transform="rotate(270) translate(-36 17)">
    <use xlink:href="#rim"/>
    <path pointer-events="none" fill="none" stroke="white" stroke-width="1.5" d="M0,-3.0v7 M-2.5,-0.5L0,-3.0L2.5,-0.5"/>
  </g>
  <g id="resetDef">
    <use xlink:href="#rim2" fill="#404040"><set attributeName="fill" to="#808080" begin="reset.mouseover" end="reset.mouseout"/></use>
  </g>
</defs>
<script type="application/ecmascript">
var viewWidth = 522;
var viewHeight = 316;
var sectionId = 'dynsection-0';
</script>
<script type="application/ecmascript" xlink:href="../../svg.min.js"/>
<svg id="graph" class="graph">
<g id="viewport">
<title>Terraria.Gore.NewGore</title>
<!-- Node1 -->
<g id="Node000001" class="node">
<title>Node1</title>
<g id="a_Node000001"><a xlink:title="Spawns a gore with given properties.">
<polygon fill="#999999" stroke="#666666" points="128,-158 0,-158 0,-139 128,-139 128,-158"/>
<text text-anchor="middle" x="64" y="-146" font-family="Helvetica,sans-Serif" font-size="10.00">Terraria.Gore.NewGore</text>
</a>
</g>
</g>
<!-- Node2 -->
<g id="Node000002" class="node">
<title>Node2</title>
<g id="a_Node000002"><a xlink:href="../../dc/d32/classTerraria_1_1GameContent_1_1ChildSafety_a6530b049a8d392e9a6c2667665f36f5c.html#a6530b049a8d392e9a6c2667665f36f5c" target="_top" xlink:title=" ">
<polygon fill="white" stroke="#666666" points="325.5,-307.5 173.5,-307.5 173.5,-277.5 325.5,-277.5 325.5,-307.5"/>
<text text-anchor="start" x="181.5" y="-295.5" font-family="Helvetica,sans-Serif" font-size="10.00">Terraria.GameContent.Child</text>
<text text-anchor="middle" x="249.5" y="-284.5" font-family="Helvetica,sans-Serif" font-size="10.00">Safety.DangerousGore</text>
</a>
</g>
</g>
<!-- Node1&#45;&gt;Node2 -->
<g id="edge1_Node000001_Node000002" class="edge">
<title>Node1&#45;&gt;Node2</title>
<g id="a_edge1_Node000001_Node000002"><a xlink:title=" ">
<path fill="none" stroke="#63b8ff" d="M70.26,-158.28C83.09,-181.19 118.33,-238.65 164,-268.5 166.45,-270.1 169.01,-271.6 171.65,-273"/>
<polygon fill="#63b8ff" stroke="#63b8ff" points="170.35,-276.26 180.88,-277.39 173.35,-269.93 170.35,-276.26"/>
</a>
</g>
</g>
<!-- Node3 -->
<g id="Node000003" class="node">
<title>Node3</title>
<g id="a_Node000003"><a xlink:href="../../d1/ddf/classTerraria_1_1Gore_ab75a2b8fae7afb5042b6f0a853b104b5.html#ab75a2b8fae7afb5042b6f0a853b104b5" target="_top" xlink:title=" ">
<polygon fill="white" stroke="#666666" points="317.5,-259.5 181.5,-259.5 181.5,-229.5 317.5,-229.5 317.5,-259.5"/>
<text text-anchor="start" x="189.5" y="-247.5" font-family="Helvetica,sans-Serif" font-size="10.00">Terraria.Gore.Deactivate</text>
<text text-anchor="middle" x="249.5" y="-236.5" font-family="Helvetica,sans-Serif" font-size="10.00">IfOutsideOfWorld</text>
</a>
</g>
</g>
<!-- Node1&#45;&gt;Node3 -->
<g id="edge2_Node000001_Node000003" class="edge">
<title>Node1&#45;&gt;Node3</title>
<g id="a_edge2_Node000001_Node000003"><a xlink:title=" ">
<path fill="none" stroke="#63b8ff" d="M75.46,-158.07C92.69,-173.36 128.64,-203.3 164,-220.5 167.96,-222.43 172.11,-224.23 176.35,-225.9"/>
<polygon fill="#63b8ff" stroke="#63b8ff" points="175.14,-229.19 185.73,-229.37 177.56,-222.62 175.14,-229.19"/>
</a>
</g>
</g>
<!-- Node5 -->
<g id="Node000005" class="node">
<title>Node5</title>
<g id="a_Node000005"><a xlink:href="../../d9/d62/interfaceTerraria_1_1DataStructures_1_1IEntitySource_aad02a637d76bfd16f138769722291901.html#aad02a637d76bfd16f138769722291901" target="_top" xlink:title=" ">
<polygon fill="white" stroke="#666666" points="331.5,-211.5 167.5,-211.5 167.5,-181.5 331.5,-181.5 331.5,-211.5"/>
<text text-anchor="start" x="175.5" y="-199.5" font-family="Helvetica,sans-Serif" font-size="10.00">Terraria.DataStructures.</text>
<text text-anchor="middle" x="249.5" y="-188.5" font-family="Helvetica,sans-Serif" font-size="10.00">IEntitySource.GetGoreFallback</text>
</a>
</g>
</g>
<!-- Node1&#45;&gt;Node5 -->
<g id="edge4_Node000001_Node000005" class="edge">
<title>Node1&#45;&gt;Node5</title>
<g id="a_edge4_Node000001_Node000005"><a xlink:title=" ">
<path fill="none" stroke="#63b8ff" d="M101.69,-158.1C124.42,-164.04 154.3,-171.86 181.17,-178.89"/>
<polygon fill="#63b8ff" stroke="#63b8ff" points="180.36,-182.29 190.92,-181.44 182.13,-175.52 180.36,-182.29"/>
</a>
</g>
</g>
<!-- Node6 -->
<g id="Node000006" class="node">
<title>Node6</title>
<g id="a_Node000006"><a xlink:href="../../d5/da9/classTerraria_1_1ModLoader_1_1GoreLoader_a45ae6a1cc028bb4079e551be76787f80.html#a45ae6a1cc028bb4079e551be76787f80" target="_top" xlink:title=" ">
<polygon fill="white" stroke="#666666" points="335,-163.5 164,-163.5 164,-133.5 335,-133.5 335,-163.5"/>
<text text-anchor="start" x="172" y="-151.5" font-family="Helvetica,sans-Serif" font-size="10.00">Terraria.ModLoader.GoreLoader.</text>
<text text-anchor="middle" x="249.5" y="-140.5" font-family="Helvetica,sans-Serif" font-size="10.00">GetModGore</text>
</a>
</g>
</g>
<!-- Node1&#45;&gt;Node6 -->
<g id="edge5_Node000001_Node000006" class="edge">
<title>Node1&#45;&gt;Node6</title>
<g id="a_edge5_Node000001_Node000006"><a xlink:title=" ">
<path fill="none" stroke="#63b8ff" d="M128.15,-148.5C136.42,-148.5 145.04,-148.5 153.69,-148.5"/>
<polygon fill="#63b8ff" stroke="#63b8ff" points="153.84,-152 163.84,-148.5 153.84,-145 153.84,-152"/>
</a>
</g>
</g>
<!-- Node7 -->
<g id="Node000007" class="node">
<title>Node7</title>
<g id="a_Node000007"><a xlink:href="../../d9/db1/classTerraria_1_1Utilities_1_1UnifiedRandom_ac4ecc6320b69ab939b9c45eaf7d89000.html#ac4ecc6320b69ab939b9c45eaf7d89000" target="_top" xlink:title=" ">
<polygon fill="white" stroke="#666666" points="315.5,-115.5 183.5,-115.5 183.5,-85.5 315.5,-85.5 315.5,-115.5"/>
<text text-anchor="start" x="191.5" y="-103.5" font-family="Helvetica,sans-Serif" font-size="10.00">Terraria.Utilities.Unified</text>
<text text-anchor="middle" x="249.5" y="-92.5" font-family="Helvetica,sans-Serif" font-size="10.00">Random.Next</text>
</a>
</g>
</g>
<!-- Node1&#45;&gt;Node7 -->
<g id="edge6_Node000001_Node000007" class="edge">
<title>Node1&#45;&gt;Node7</title>
<g id="a_edge6_Node000001_Node000007"><a xlink:title=" ">
<path fill="none" stroke="#63b8ff" d="M101.69,-138.9C124.42,-132.96 154.3,-125.14 181.17,-118.11"/>
<polygon fill="#63b8ff" stroke="#63b8ff" points="182.13,-121.48 190.92,-115.56 180.36,-114.71 182.13,-121.48"/>
</a>
</g>
</g>
<!-- Node9 -->
<g id="Node000009" class="node">
<title>Node9</title>
<g id="a_Node000009"><a xlink:href="../../dd/d20/classTerraria_1_1ModLoader_1_1ModGore_ac23cf90839bca3a0de6ddbaca0b38790.html#ac23cf90839bca3a0de6ddbaca0b38790" target="_top" xlink:title="Allows you to modify a gore&#39;s fields when it is created.">
<polygon fill="white" stroke="#666666" points="329.5,-67.5 169.5,-67.5 169.5,-37.5 329.5,-37.5 329.5,-67.5"/>
<text text-anchor="start" x="177.5" y="-55.5" font-family="Helvetica,sans-Serif" font-size="10.00">Terraria.ModLoader.ModGore.</text>
<text text-anchor="middle" x="249.5" y="-44.5" font-family="Helvetica,sans-Serif" font-size="10.00">OnSpawn</text>
</a>
</g>
</g>
<!-- Node1&#45;&gt;Node9 -->
<g id="edge8_Node000001_Node000009" class="edge">
<title>Node1&#45;&gt;Node9</title>
<g id="a_edge8_Node000001_Node000009"><a xlink:title=" ">
<path fill="none" stroke="#63b8ff" d="M75.46,-138.93C92.69,-123.64 128.64,-93.7 164,-76.5 167.96,-74.57 172.11,-72.77 176.35,-71.1"/>
<polygon fill="#63b8ff" stroke="#63b8ff" points="177.56,-74.38 185.73,-67.63 175.14,-67.81 177.56,-74.38"/>
</a>
</g>
</g>
<!-- Node10 -->
<g id="Node000010" class="node">
<title>Node10</title>
<g id="a_Node000010"><a xlink:href="../../d1/ddf/classTerraria_1_1Gore_a0ab6b508ede814bdf1705d400c265366.html#a0ab6b508ede814bdf1705d400c265366" target="_top" xlink:title=" ">
<polygon fill="white" stroke="#666666" points="330,-19 169,-19 169,0 330,0 330,-19"/>
<text text-anchor="middle" x="249.5" y="-7" font-family="Helvetica,sans-Serif" font-size="10.00">Terraria.Gore.ResetNewFields</text>
</a>
</g>
</g>
<!-- Node1&#45;&gt;Node10 -->
<g id="edge9_Node000001_Node000010" class="edge">
<title>Node1&#45;&gt;Node10</title>
<g id="a_edge9_Node000001_Node000010"><a xlink:title=" ">
<path fill="none" stroke="#63b8ff" d="M69.97,-138.89C82.41,-115.84 117.29,-57.21 164,-28.5 167.43,-26.39 171.07,-24.51 174.84,-22.85"/>
<polygon fill="#63b8ff" stroke="#63b8ff" points="176.37,-26.01 184.41,-19.11 173.83,-19.48 176.37,-26.01"/>
</a>
</g>
</g>
<!-- Node4 -->
<g id="Node000004" class="node">
<title>Node4</title>
<g id="a_Node000004"><a xlink:href="../../de/da1/classTerraria_1_1WorldGen_adf59bfc3a2909993f72f0c69a5eaf553.html#adf59bfc3a2909993f72f0c69a5eaf553" target="_top" xlink:title=" ">
<polygon fill="white" stroke="#666666" points="514,-254 371,-254 371,-235 514,-235 514,-254"/>
<text text-anchor="middle" x="442.5" y="-242" font-family="Helvetica,sans-Serif" font-size="10.00">Terraria.WorldGen.InWorld</text>
</a>
</g>
</g>
<!-- Node3&#45;&gt;Node4 -->
<g id="edge3_Node000003_Node000004" class="edge">
<title>Node3&#45;&gt;Node4</title>
<g id="a_edge3_Node000003_Node000004"><a xlink:title=" ">
<path fill="none" stroke="#63b8ff" d="M317.57,-244.5C331.41,-244.5 346.13,-244.5 360.4,-244.5"/>
<polygon fill="#63b8ff" stroke="#63b8ff" points="360.7,-248 370.7,-244.5 360.7,-241 360.7,-248"/>
</a>
</g>
</g>
<!-- Node8 -->
<g id="Node000008" class="node">
<title>Node8</title>
<g id="a_Node000008"><a xlink:href="../../d9/db1/classTerraria_1_1Utilities_1_1UnifiedRandom_a173f09196ff526b107c0223c2d58c59a.html#a173f09196ff526b107c0223c2d58c59a" target="_top" xlink:title=" ">
<polygon fill="white" stroke="#666666" points="509.5,-115.5 375.5,-115.5 375.5,-85.5 509.5,-85.5 509.5,-115.5"/>
<text text-anchor="start" x="383.5" y="-103.5" font-family="Helvetica,sans-Serif" font-size="10.00">Terraria.Utilities.Unified</text>
<text text-anchor="middle" x="442.5" y="-92.5" font-family="Helvetica,sans-Serif" font-size="10.00">Random.InternalSample</text>
</a>
</g>
</g>
<!-- Node7&#45;&gt;Node8 -->
<g id="edge7_Node000007_Node000008" class="edge">
<title>Node7&#45;&gt;Node8</title>
<g id="a_edge7_Node000007_Node000008"><a xlink:title=" ">
<path fill="none" stroke="#63b8ff" d="M315.7,-100.5C331.63,-100.5 348.81,-100.5 365.21,-100.5"/>
<polygon fill="#63b8ff" stroke="#63b8ff" points="365.3,-104 375.3,-100.5 365.3,-97 365.3,-104"/>
</a>
</g>
</g>
</g>
</svg>

<g id="navigator" transform="translate(0 0)" fill="#404254">
  <rect fill="#f2f5e9" fill-opacity="0.5" stroke="#606060" stroke-width=".5" x="0" y="0" width="60" height="60"/>
  <use id="zoomplus" xlink:href="#zoomPlus" x="17" y="9" onmousedown="handleZoom(evt,'in')"/>
  <use id="zoomminus" xlink:href="#zoomMin" x="42" y="9" onmousedown="handleZoom(evt,'out')"/>
  <use id="reset" xlink:href="#resetDef" x="30" y="36" onmousedown="handleReset()"/>
   <use id="arrowup" xlink:href="#arrowUp" x="0" y="0" onmousedown="handlePan(0,-1)"/>
  <use id="arrowright" xlink:href="#arrowRight" x="0" y="0" onmousedown="handlePan(1,0)"/>
  <use id="arrowdown" xlink:href="#arrowDown" x="0" y="0" onmousedown="handlePan(0,1)"/>
  <use id="arrowleft" xlink:href="#arrowLeft" x="0" y="0" onmousedown="handlePan(-1,0)"/>
</g>
<svg viewBox="0 0 15 15" width="100%" height="30px" preserveAspectRatio="xMaxYMin meet">
 <g id="arrow_out" transform="scale(0.3 0.3)">
  <a xlink:href="classTerraria_1_1Gore_afac8a14846e5fe7e5efc50575681f351_afac8a14846e5fe7e5efc50575681f351_cgraph_org.svg" target="_base">
   <rect id="button" ry="5" rx="5" y="6" x="6" height="38" width="38"
        fill="#f2f5e9" fill-opacity="0.5" stroke="#606060" stroke-width="1.0"/>
   <path id="arrow"
     d="M 11.500037,31.436501 C 11.940474,20.09759 22.043105,11.32322 32.158766,21.979434 L 37.068811,17.246167 C 37.068811,17.246167 37.088388,32 37.088388,32 L 22.160133,31.978069 C 22.160133,31.978069 26.997745,27.140456 26.997745,27.140456 C 18.528582,18.264221 13.291696,25.230495 11.500037,31.436501 z"
     style="fill:#404040;"/>
  </a>
 </g>
</svg>

<style type='text/css'>
<![CDATA[
[data-mouse-over-selected='false'] { opacity: 0.7; }
[data-mouse-over-selected='true']  { opacity: 1.0; }
]]>
</style>
<script type="application/ecmascript"><![CDATA[
document.addEventListener('DOMContentLoaded', (event) => {
  highlightEdges();
  highlightAdjacentNodes();
});
]]></script>
</svg>
