<?xml version="1.0" encoding="UTF-8" standalone="no"?>
<!DOCTYPE svg PUBLIC "-//W3C//DTD SVG 1.1//EN"
 "http://www.w3.org/Graphics/SVG/1.1/DTD/svg11.dtd">
<!-- Generated by graphviz version 2.43.0 (0)
 -->
<!-- Title: Terraria.Graphics.MagicMissileDrawer.Draw Pages: 1 -->
<svg width="569pt" height="194pt"
 viewBox="0.00 0.00 569.00 194.00" xmlns="http://www.w3.org/2000/svg" xmlns:xlink="http://www.w3.org/1999/xlink">
<g id="graph0" class="graph" transform="scale(1 1) rotate(0) translate(4 190)">
<title>Terraria.Graphics.MagicMissileDrawer.Draw</title>
<!-- Node1 -->
<g id="Node000001" class="node">
<title>Node1</title>
<g id="a_Node000001"><a xlink:title=" ">
<polygon fill="#999999" stroke="#666666" points="166,-105 0,-105 0,-75 166,-75 166,-105"/>
<text text-anchor="start" x="8" y="-93" font-family="Helvetica,sans-Serif" font-size="10.00">Terraria.Graphics.MagicMissile</text>
<text text-anchor="middle" x="83" y="-82" font-family="Helvetica,sans-Serif" font-size="10.00">Drawer.Draw</text>
</a>
</g>
</g>
<!-- Node2 -->
<g id="Node000002" class="node">
<title>Node2</title>
<g id="a_Node000002"><a xlink:href="../../df/d33/classTerraria_1_1Graphics_1_1VertexStrip_ac8be6adebefa3cb8991fbc7d6bc7e6b9.html#ac8be6adebefa3cb8991fbc7d6bc7e6b9" target="_top" xlink:title=" ">
<polygon fill="white" stroke="#666666" points="357,-186 223,-186 223,-156 357,-156 357,-186"/>
<text text-anchor="start" x="231" y="-174" font-family="Helvetica,sans-Serif" font-size="10.00">Terraria.Graphics.Vertex</text>
<text text-anchor="middle" x="290" y="-163" font-family="Helvetica,sans-Serif" font-size="10.00">Strip.DrawTrail</text>
</a>
</g>
</g>
<!-- Node1&#45;&gt;Node2 -->
<g id="edge1_Node000001_Node000002" class="edge">
<title>Node1&#45;&gt;Node2</title>
<g id="a_edge1_Node000001_Node000002"><a xlink:title=" ">
<path fill="none" stroke="#63b8ff" d="M111.51,-105.05C135.03,-117.49 170.06,-134.99 202,-147 207.45,-149.05 213.15,-151.01 218.91,-152.86"/>
<polygon fill="#63b8ff" stroke="#63b8ff" points="218.05,-156.26 228.64,-155.88 220.12,-149.57 218.05,-156.26"/>
</a>
</g>
</g>
<!-- Node3 -->
<g id="Node000003" class="node">
<title>Node3</title>
<g id="a_Node000003"><a xlink:href="../../df/d33/classTerraria_1_1Graphics_1_1VertexStrip_a2934723f94d7c640996b8971db48b06e.html#a2934723f94d7c640996b8971db48b06e" target="_top" xlink:title=" ">
<polygon fill="white" stroke="#666666" points="378,-137.5 202,-137.5 202,-96.5 378,-96.5 378,-137.5"/>
<text text-anchor="start" x="210" y="-125.5" font-family="Helvetica,sans-Serif" font-size="10.00">Terraria.Graphics.Vertex</text>
<text text-anchor="start" x="210" y="-114.5" font-family="Helvetica,sans-Serif" font-size="10.00">Strip.PrepareStripWithProcedural</text>
<text text-anchor="middle" x="290" y="-103.5" font-family="Helvetica,sans-Serif" font-size="10.00">Padding</text>
</a>
</g>
</g>
<!-- Node1&#45;&gt;Node3 -->
<g id="edge2_Node000001_Node000003" class="edge">
<title>Node1&#45;&gt;Node3</title>
<g id="a_edge2_Node000001_Node000003"><a xlink:title=" ">
<path fill="none" stroke="#63b8ff" d="M166.2,-100.83C174.61,-101.93 183.2,-103.07 191.75,-104.19"/>
<polygon fill="#63b8ff" stroke="#63b8ff" points="191.38,-107.67 201.75,-105.51 192.29,-100.73 191.38,-107.67"/>
</a>
</g>
</g>
<!-- Node6 -->
<g id="Node000006" class="node">
<title>Node6</title>
<g id="a_Node000006"><a xlink:href="../../db/d19/structTerraria_1_1Graphics_1_1MagicMissileDrawer_a9a9793986df3507fe4a2fde355251c16.html#a9a9793986df3507fe4a2fde355251c16" target="_top" xlink:title=" ">
<polygon fill="white" stroke="#666666" points="373,-78 207,-78 207,-48 373,-48 373,-78"/>
<text text-anchor="start" x="215" y="-66" font-family="Helvetica,sans-Serif" font-size="10.00">Terraria.Graphics.MagicMissile</text>
<text text-anchor="middle" x="290" y="-55" font-family="Helvetica,sans-Serif" font-size="10.00">Drawer.StripColors</text>
</a>
</g>
</g>
<!-- Node1&#45;&gt;Node6 -->
<g id="edge5_Node000001_Node000006" class="edge">
<title>Node1&#45;&gt;Node6</title>
<g id="a_edge5_Node000001_Node000006"><a xlink:title=" ">
<path fill="none" stroke="#63b8ff" d="M166.2,-79.17C176.23,-77.85 186.52,-76.5 196.68,-75.16"/>
<polygon fill="#63b8ff" stroke="#63b8ff" points="197.32,-78.6 206.78,-73.83 196.41,-71.66 197.32,-78.6"/>
</a>
</g>
</g>
<!-- Node8 -->
<g id="Node000008" class="node">
<title>Node8</title>
<g id="a_Node000008"><a xlink:href="../../db/d19/structTerraria_1_1Graphics_1_1MagicMissileDrawer_aa3a1dd89dd3127a296f5536ea24bf072.html#aa3a1dd89dd3127a296f5536ea24bf072" target="_top" xlink:title=" ">
<polygon fill="white" stroke="#666666" points="373,-30 207,-30 207,0 373,0 373,-30"/>
<text text-anchor="start" x="215" y="-18" font-family="Helvetica,sans-Serif" font-size="10.00">Terraria.Graphics.MagicMissile</text>
<text text-anchor="middle" x="290" y="-7" font-family="Helvetica,sans-Serif" font-size="10.00">Drawer.StripWidth</text>
</a>
</g>
</g>
<!-- Node1&#45;&gt;Node8 -->
<g id="edge7_Node000001_Node000008" class="edge">
<title>Node1&#45;&gt;Node8</title>
<g id="a_edge7_Node000001_Node000008"><a xlink:title=" ">
<path fill="none" stroke="#63b8ff" d="M115.58,-74.93C139.07,-64.07 172.11,-49.53 202,-39 207.92,-36.92 214.11,-34.9 220.35,-32.98"/>
<polygon fill="#63b8ff" stroke="#63b8ff" points="221.58,-36.26 230.16,-30.04 219.57,-29.55 221.58,-36.26"/>
</a>
</g>
</g>
<!-- Node4 -->
<g id="Node000004" class="node">
<title>Node4</title>
<g id="a_Node000004"><a xlink:href="../../df/d33/classTerraria_1_1Graphics_1_1VertexStrip_a57d8f20821152ef49fcf6d5474375a9b.html#a57d8f20821152ef49fcf6d5474375a9b" target="_top" xlink:title=" ">
<polygon fill="white" stroke="#666666" points="554.5,-153 420.5,-153 420.5,-123 554.5,-123 554.5,-153"/>
<text text-anchor="start" x="428.5" y="-141" font-family="Helvetica,sans-Serif" font-size="10.00">Terraria.Graphics.Vertex</text>
<text text-anchor="middle" x="487.5" y="-130" font-family="Helvetica,sans-Serif" font-size="10.00">Strip.AddVertex</text>
</a>
</g>
</g>
<!-- Node3&#45;&gt;Node4 -->
<g id="edge3_Node000003_Node000004" class="edge">
<title>Node3&#45;&gt;Node4</title>
<g id="a_edge3_Node000003_Node000004"><a xlink:title=" ">
<path fill="none" stroke="#63b8ff" d="M378.17,-126.36C388.9,-127.52 399.8,-128.69 410.34,-129.82"/>
<polygon fill="#63b8ff" stroke="#63b8ff" points="410.01,-133.3 420.32,-130.89 410.76,-126.34 410.01,-133.3"/>
</a>
</g>
</g>
<!-- Node5 -->
<g id="Node000005" class="node">
<title>Node5</title>
<g id="a_Node000005"><a xlink:href="../../df/d33/classTerraria_1_1Graphics_1_1VertexStrip_aa155809ff8a8628eca90846d8669fda0.html#aa155809ff8a8628eca90846d8669fda0" target="_top" xlink:title=" ">
<polygon fill="white" stroke="#666666" points="554.5,-105 420.5,-105 420.5,-75 554.5,-75 554.5,-105"/>
<text text-anchor="start" x="428.5" y="-93" font-family="Helvetica,sans-Serif" font-size="10.00">Terraria.Graphics.Vertex</text>
<text text-anchor="middle" x="487.5" y="-82" font-family="Helvetica,sans-Serif" font-size="10.00">Strip.PrepareIndices</text>
</a>
</g>
</g>
<!-- Node3&#45;&gt;Node5 -->
<g id="edge4_Node000003_Node000005" class="edge">
<title>Node3&#45;&gt;Node5</title>
<g id="a_edge4_Node000003_Node000005"><a xlink:title=" ">
<path fill="none" stroke="#63b8ff" d="M378.17,-104.96C388.9,-103.48 399.8,-101.97 410.34,-100.52"/>
<polygon fill="#63b8ff" stroke="#63b8ff" points="410.9,-103.97 420.32,-99.14 409.94,-97.04 410.9,-103.97"/>
</a>
</g>
</g>
<!-- Node7 -->
<g id="Node000007" class="node">
<title>Node7</title>
<g id="a_Node000007"><a xlink:href="../../d1/d9c/classTerraria_1_1Utils_a7223719277be4afd24a2496351a9a22f.html#a7223719277be4afd24a2496351a9a22f" target="_top" xlink:title=" ">
<polygon fill="white" stroke="#666666" points="561,-51.5 414,-51.5 414,-32.5 561,-32.5 561,-51.5"/>
<text text-anchor="middle" x="487.5" y="-39.5" font-family="Helvetica,sans-Serif" font-size="10.00">Terraria.Utils.GetLerpValue</text>
</a>
</g>
</g>
<!-- Node6&#45;&gt;Node7 -->
<g id="edge6_Node000006_Node000007" class="edge">
<title>Node6&#45;&gt;Node7</title>
<g id="a_edge6_Node000006_Node000007"><a xlink:title=" ">
<path fill="none" stroke="#63b8ff" d="M373.06,-54.19C383.25,-53.09 393.67,-51.97 403.87,-50.88"/>
<polygon fill="#63b8ff" stroke="#63b8ff" points="404.4,-54.34 413.97,-49.79 403.65,-47.38 404.4,-54.34"/>
</a>
</g>
</g>
<!-- Node8&#45;&gt;Node7 -->
<g id="edge8_Node000008_Node000007" class="edge">
<title>Node8&#45;&gt;Node7</title>
<g id="a_edge8_Node000008_Node000007"><a xlink:title=" ">
<path fill="none" stroke="#63b8ff" d="M373.06,-26.33C384.54,-27.92 396.31,-29.54 407.72,-31.12"/>
<polygon fill="#63b8ff" stroke="#63b8ff" points="407.26,-34.59 417.64,-32.49 408.22,-27.66 407.26,-34.59"/>
</a>
</g>
</g>
</g>
</svg>
