<?xml version="1.0" encoding="UTF-8" standalone="no"?>
<!DOCTYPE svg PUBLIC "-//W3C//DTD SVG 1.1//EN"
 "http://www.w3.org/Graphics/SVG/1.1/DTD/svg11.dtd">
<!-- Generated by graphviz version 2.43.0 (0)
 -->
<!-- Title: Terraria.ModLoader.Default.ModAccessorySlotPlayer.LoadData Pages: 1 -->
<!--zoomable 544 -->

<svg id="main" version="1.1" xmlns="http://www.w3.org/2000/svg" xmlns:xlink="http://www.w3.org/1999/xlink" xml:space="preserve" onload="init(evt)">
<style type="text/css"><![CDATA[
.node, .edge {opacity: 0.7;}
.node.selected, .edge.selected {opacity: 1;}
.edge:hover path { stroke: red; }
.edge:hover polygon { stroke: red; fill: red; }
]]></style>

<defs>
  <circle id="rim" cx="0" cy="0" r="7"/>
  <circle id="rim2" cx="0" cy="0" r="3.5"/>
  <g id="zoomPlus">
    <use xlink:href="#rim" fill="#404040"><set attributeName="fill" to="#808080" begin="zoomplus.mouseover" end="zoomplus.mouseout"/></use>
    <path d="M-4,0h8M0,-4v8" fill="none" stroke="white" stroke-width="1.5" pointer-events="none"/>
  </g>
  <g id="zoomMin">
    <use xlink:href="#rim" fill="#404040"><set attributeName="fill" to="#808080" begin="zoomminus.mouseover" end="zoomminus.mouseout"/></use>
    <path d="M-4,0h8" fill="none" stroke="white" stroke-width="1.5" pointer-events="none"/>
  </g>
  <g id="arrowUp" transform="translate(30 24)">
    <use xlink:href="#rim"/>
    <path pointer-events="none" fill="none" stroke="white" stroke-width="1.5" d="M0,-3.0v7 M-2.5,-0.5L0,-3.0L2.5,-0.5"/>
  </g>
  <g id="arrowRight" transform="rotate(90) translate(36 -43)">
    <use xlink:href="#rim"/>
    <path pointer-events="none" fill="none" stroke="white" stroke-width="1.5" d="M0,-3.0v7 M-2.5,-0.5L0,-3.0L2.5,-0.5"/>
  </g>
  <g id="arrowDown" transform="rotate(180) translate(-30 -48)">
    <use xlink:href="#rim"/>
    <path pointer-events="none" fill="none" stroke="white" stroke-width="1.5" d="M0,-3.0v7 M-2.5,-0.5L0,-3.0L2.5,-0.5"/>
  </g>
  <g id="arrowLeft" transform="rotate(270) translate(-36 17)">
    <use xlink:href="#rim"/>
    <path pointer-events="none" fill="none" stroke="white" stroke-width="1.5" d="M0,-3.0v7 M-2.5,-0.5L0,-3.0L2.5,-0.5"/>
  </g>
  <g id="resetDef">
    <use xlink:href="#rim2" fill="#404040"><set attributeName="fill" to="#808080" begin="reset.mouseover" end="reset.mouseout"/></use>
  </g>
</defs>
<script type="application/ecmascript">
var viewWidth = 1619;
var viewHeight = 544;
var sectionId = 'dynsection-0';
</script>
<script type="application/ecmascript" xlink:href="../../svg.min.js"/>
<svg id="graph" class="graph">
<g id="viewport">
<title>Terraria.ModLoader.Default.ModAccessorySlotPlayer.LoadData</title>
<!-- Node1 -->
<g id="Node000001" class="node">
<title>Node1</title>
<g id="a_Node000001"><a xlink:title="Allows you to load custom data that you have saved for this player. &#160;Try to write defensive loading c...">
<polygon fill="#999999" stroke="#666666" points="185,-409 0,-409 0,-379 185,-379 185,-409"/>
<text text-anchor="start" x="8" y="-397" font-family="Helvetica,sans-Serif" font-size="10.00">Terraria.ModLoader.Default.</text>
<text text-anchor="middle" x="92.5" y="-386" font-family="Helvetica,sans-Serif" font-size="10.00">ModAccessorySlotPlayer.LoadData</text>
</a>
</g>
</g>
<!-- Node2 -->
<g id="Node000002" class="node">
<title>Node2</title>
<g id="a_Node000002"><a xlink:href="../../d0/d8b/classTerraria_1_1ModLoader_1_1IO_1_1ItemIO_a6d85be6826465184a0c159ff793b69b6.html#a6d85be6826465184a0c159ff793b69b6" target="_top" xlink:title=" ">
<polygon fill="white" stroke="#666666" points="388,-436 239,-436 239,-406 388,-406 388,-436"/>
<text text-anchor="start" x="247" y="-424" font-family="Helvetica,sans-Serif" font-size="10.00">Terraria.ModLoader.IO.Item</text>
<text text-anchor="middle" x="313.5" y="-413" font-family="Helvetica,sans-Serif" font-size="10.00">IO.Load</text>
</a>
</g>
</g>
<!-- Node1&#45;&gt;Node2 -->
<g id="edge1_Node000001_Node000002" class="edge">
<title>Node1&#45;&gt;Node2</title>
<g id="a_edge1_Node000001_Node000002"><a xlink:title=" ">
<path fill="none" stroke="#63b8ff" d="M185.11,-405.29C199.54,-407.07 214.39,-408.9 228.64,-410.66"/>
<polygon fill="#63b8ff" stroke="#63b8ff" points="228.53,-414.17 238.89,-411.92 229.39,-407.23 228.53,-414.17"/>
</a>
</g>
</g>
<!-- Node31 -->
<g id="Node000031" class="node">
<title>Node31</title>
<g id="a_Node000031"><a xlink:href="../../d6/d62/classTerraria_1_1ModLoader_1_1Default_1_1ModAccessorySlotPlayer_ab0371af3c7957f0a1be624b3853b8679.html#ab0371af3c7957f0a1be624b3853b8679" target="_top" xlink:title=" ">
<polygon fill="white" stroke="#666666" points="406,-387.5 221,-387.5 221,-346.5 406,-346.5 406,-387.5"/>
<text text-anchor="start" x="229" y="-375.5" font-family="Helvetica,sans-Serif" font-size="10.00">Terraria.ModLoader.Default.</text>
<text text-anchor="start" x="229" y="-364.5" font-family="Helvetica,sans-Serif" font-size="10.00">ModAccessorySlotPlayer.ResetAnd</text>
<text text-anchor="middle" x="313.5" y="-353.5" font-family="Helvetica,sans-Serif" font-size="10.00">SizeAccessoryArrays</text>
</a>
</g>
</g>
<!-- Node1&#45;&gt;Node31 -->
<g id="edge43_Node000001_Node000031" class="edge">
<title>Node1&#45;&gt;Node31</title>
<g id="a_edge43_Node000001_Node000031"><a xlink:title=" ">
<path fill="none" stroke="#63b8ff" d="M185.11,-382.71C193.62,-381.66 202.27,-380.59 210.86,-379.53"/>
<polygon fill="#63b8ff" stroke="#63b8ff" points="211.41,-382.99 220.91,-378.29 210.55,-376.04 211.41,-382.99"/>
</a>
</g>
</g>
<!-- Node3 -->
<g id="Node000003" class="node">
<title>Node3</title>
<g id="a_Node000003"><a xlink:href="../../d0/d8b/classTerraria_1_1ModLoader_1_1IO_1_1ItemIO_a3cb7dc504c226353c1fbc5e993a6313f.html#a3cb7dc504c226353c1fbc5e993a6313f" target="_top" xlink:title=" ">
<polygon fill="white" stroke="#666666" points="591,-498 442,-498 442,-468 591,-468 591,-498"/>
<text text-anchor="start" x="450" y="-486" font-family="Helvetica,sans-Serif" font-size="10.00">Terraria.ModLoader.IO.Item</text>
<text text-anchor="middle" x="516.5" y="-475" font-family="Helvetica,sans-Serif" font-size="10.00">IO.LoadGlobals</text>
</a>
</g>
</g>
<!-- Node2&#45;&gt;Node3 -->
<g id="edge2_Node000002_Node000003" class="edge">
<title>Node2&#45;&gt;Node3</title>
<g id="a_edge2_Node000002_Node000003"><a xlink:title=" ">
<path fill="none" stroke="#63b8ff" d="M363.16,-436.01C391.34,-444.7 427.01,-455.71 456.76,-464.88"/>
<polygon fill="#63b8ff" stroke="#63b8ff" points="456.01,-468.31 466.59,-467.91 458.07,-461.62 456.01,-468.31"/>
</a>
</g>
</g>
<!-- Node4 -->
<g id="Node000004" class="node">
<title>Node4</title>
<g id="a_Node000004"><a xlink:href="../../db/d79/classTerraria_1_1Item_a2498a0b49e340b1c4c8729318b73b82c.html#a2498a0b49e340b1c4c8729318b73b82c" target="_top" xlink:title=" ">
<polygon fill="white" stroke="#666666" points="586,-449.5 447,-449.5 447,-430.5 586,-430.5 586,-449.5"/>
<text text-anchor="middle" x="516.5" y="-437.5" font-family="Helvetica,sans-Serif" font-size="10.00">Terraria.Item.netDefaults</text>
</a>
</g>
</g>
<!-- Node2&#45;&gt;Node4 -->
<g id="edge3_Node000002_Node000004" class="edge">
<title>Node2&#45;&gt;Node4</title>
<g id="a_edge3_Node000002_Node000004"><a xlink:title=" ">
<path fill="none" stroke="#63b8ff" d="M388.2,-427.97C403.92,-429.45 420.58,-431.03 436.49,-432.53"/>
<polygon fill="#63b8ff" stroke="#63b8ff" points="436.53,-436.05 446.81,-433.51 437.19,-429.08 436.53,-436.05"/>
</a>
</g>
</g>
<!-- Node5 -->
<g id="Node000005" class="node">
<title>Node5</title>
<g id="a_Node000005"><a xlink:href="../../db/d79/classTerraria_1_1Item_adb2554f9d394eca69180ff503efd10d9.html#adb2554f9d394eca69180ff503efd10d9" target="_top" xlink:title=" ">
<polygon fill="white" stroke="#666666" points="787.5,-449.5 648.5,-449.5 648.5,-430.5 787.5,-430.5 787.5,-449.5"/>
<text text-anchor="middle" x="718" y="-437.5" font-family="Helvetica,sans-Serif" font-size="10.00">Terraria.Item.SetDefaults</text>
</a>
</g>
</g>
<!-- Node2&#45;&gt;Node5 -->
<g id="edge42_Node000002_Node000005" class="edge">
<title>Node2&#45;&gt;Node5</title>
<g id="a_edge42_Node000002_Node000005"><a xlink:title=" ">
<path fill="none" stroke="#63b8ff" d="M388.25,-418.5C444.01,-417.28 522.42,-417 591,-422 610.89,-423.45 632.42,-426.12 651.96,-428.96"/>
<polygon fill="#63b8ff" stroke="#63b8ff" points="651.57,-432.44 661.98,-430.46 652.61,-425.52 651.57,-432.44"/>
</a>
</g>
</g>
<!-- Node6 -->
<g id="Node000006" class="node">
<title>Node6</title>
<g id="a_Node000006"><a xlink:href="../../db/d79/classTerraria_1_1Item_a4928326c0c5a324286cf922203704666.html#a4928326c0c5a324286cf922203704666" target="_top" xlink:title="Attempts to apply a prefix to this T:Terraria.Item.">
<polygon fill="white" stroke="#666666" points="571.5,-239.5 461.5,-239.5 461.5,-220.5 571.5,-220.5 571.5,-239.5"/>
<text text-anchor="middle" x="516.5" y="-227.5" font-family="Helvetica,sans-Serif" font-size="10.00">Terraria.Item.Prefix</text>
</a>
</g>
</g>
<!-- Node2&#45;&gt;Node6 -->
<g id="edge6_Node000002_Node000006" class="edge">
<title>Node2&#45;&gt;Node6</title>
<g id="a_edge6_Node000002_Node000006"><a xlink:title=" ">
<path fill="none" stroke="#63b8ff" d="M388.14,-406.97C394.47,-404.22 400.53,-400.93 406,-397 459.82,-358.29 494.33,-284.24 508.35,-249.23"/>
<polygon fill="#63b8ff" stroke="#63b8ff" points="511.69,-250.3 512.04,-239.71 505.17,-247.77 511.69,-250.3"/>
</a>
</g>
</g>
<!-- Node4&#45;&gt;Node5 -->
<g id="edge4_Node000004_Node000005" class="edge">
<title>Node4&#45;&gt;Node5</title>
<g id="a_edge4_Node000004_Node000005"><a xlink:title=" ">
<path fill="none" stroke="#63b8ff" d="M586.16,-440C602.93,-440 621,-440 638.2,-440"/>
<polygon fill="#63b8ff" stroke="#63b8ff" points="638.22,-443.5 648.22,-440 638.22,-436.5 638.22,-443.5"/>
</a>
</g>
</g>
<!-- Node5&#45;&gt;Node5 -->
<g id="edge5_Node000005_Node000005" class="edge">
<title>Node5&#45;&gt;Node5</title>
<g id="a_edge5_Node000005_Node000005"><a xlink:title=" ">
<path fill="none" stroke="#63b8ff" d="M687.17,-449.58C672.18,-458.23 682.45,-467.5 718,-467.5 742.99,-467.5 755.49,-462.92 755.5,-457.19"/>
<polygon fill="#63b8ff" stroke="#63b8ff" points="758.05,-454.79 748.83,-449.58 752.79,-459.41 758.05,-454.79"/>
</a>
</g>
</g>
<!-- Node7 -->
<g id="Node000007" class="node">
<title>Node7</title>
<g id="a_Node000007"><a xlink:href="../../db/d79/classTerraria_1_1Item_acb7535bd6f08545ed2a8789e8e58806e.html#acb7535bd6f08545ed2a8789e8e58806e" target="_top" xlink:title=" ">
<polygon fill="white" stroke="#666666" points="809,-288 627,-288 627,-258 809,-258 809,-288"/>
<text text-anchor="start" x="635" y="-276" font-family="Helvetica,sans-Serif" font-size="10.00">Terraria.Item.ApplyItemAnimation</text>
<text text-anchor="middle" x="718" y="-265" font-family="Helvetica,sans-Serif" font-size="10.00">CompensationsToVanillaItems</text>
</a>
</g>
</g>
<!-- Node6&#45;&gt;Node7 -->
<g id="edge7_Node000006_Node000007" class="edge">
<title>Node6&#45;&gt;Node7</title>
<g id="a_edge7_Node000006_Node000007"><a xlink:title=" ">
<path fill="none" stroke="#63b8ff" d="M561.78,-239.54C584.07,-244.35 611.78,-250.32 637.59,-255.88"/>
<polygon fill="#63b8ff" stroke="#63b8ff" points="636.86,-259.31 647.38,-257.99 638.34,-252.47 636.86,-259.31"/>
</a>
</g>
</g>
<!-- Node8 -->
<g id="Node000008" class="node">
<title>Node8</title>
<g id="a_Node000008"><a xlink:href="../../db/d79/classTerraria_1_1Item_adeda6f25b214cb18a2e1c01f41258907.html#adeda6f25b214cb18a2e1c01f41258907" target="_top" xlink:title="Determines if this T:Terraria.Item can receive the given prefix.">
<polygon fill="white" stroke="#666666" points="796,-201.5 640,-201.5 640,-182.5 796,-182.5 796,-201.5"/>
<text text-anchor="middle" x="718" y="-189.5" font-family="Helvetica,sans-Serif" font-size="10.00">Terraria.Item.CanApplyPrefix</text>
</a>
</g>
</g>
<!-- Node6&#45;&gt;Node8 -->
<g id="edge8_Node000006_Node000008" class="edge">
<title>Node6&#45;&gt;Node8</title>
<g id="a_edge8_Node000006_Node000008"><a xlink:title=" ">
<path fill="none" stroke="#63b8ff" d="M567.58,-220.46C594.74,-215.29 628.49,-208.86 657.03,-203.42"/>
<polygon fill="#63b8ff" stroke="#63b8ff" points="657.73,-206.85 666.89,-201.54 656.42,-199.98 657.73,-206.85"/>
</a>
</g>
</g>
<!-- Node10 -->
<g id="Node000010" class="node">
<title>Node10</title>
<g id="a_Node000010"><a xlink:href="../../db/d79/classTerraria_1_1Item_a82e4553f73aa1d4d904612f715e8b1ae.html#a82e4553f73aa1d4d904612f715e8b1ae" target="_top" xlink:title="Determines if this T:Terraria.Item can receive prefixes.">
<polygon fill="white" stroke="#666666" points="1195,-163.5 1031,-163.5 1031,-144.5 1195,-144.5 1195,-163.5"/>
<text text-anchor="middle" x="1113" y="-151.5" font-family="Helvetica,sans-Serif" font-size="10.00">Terraria.Item.CanHavePrefixes</text>
</a>
</g>
</g>
<!-- Node6&#45;&gt;Node10 -->
<g id="edge25_Node000006_Node000010" class="edge">
<title>Node6&#45;&gt;Node10</title>
<g id="a_edge25_Node000006_Node000010"><a xlink:title=" ">
<path fill="none" stroke="#63b8ff" d="M525.98,-220.34C542.99,-201.74 583.39,-161.24 627,-144 778.07,-84.3 830.7,-105.79 992,-125 1018.88,-128.2 1048.45,-135.3 1071.51,-141.68"/>
<polygon fill="#63b8ff" stroke="#63b8ff" points="1070.71,-145.09 1081.29,-144.44 1072.62,-138.35 1070.71,-145.09"/>
</a>
</g>
</g>
<!-- Node14 -->
<g id="Node000014" class="node">
<title>Node14</title>
<g id="a_Node000014"><a xlink:href="../../de/d91/classTerraria_1_1ModLoader_1_1PrefixLoader_a01aac0b28e66afbe3928a5dfc094bc6a.html#a01aac0b28e66afbe3928a5dfc094bc6a" target="_top" xlink:title="Returns the ModPrefix associated with specified type If not a ModPrefix, returns null.">
<polygon fill="white" stroke="#666666" points="1389.5,-240 1249.5,-240 1249.5,-210 1389.5,-210 1389.5,-240"/>
<text text-anchor="start" x="1257.5" y="-228" font-family="Helvetica,sans-Serif" font-size="10.00">Terraria.ModLoader.Prefix</text>
<text text-anchor="middle" x="1319.5" y="-217" font-family="Helvetica,sans-Serif" font-size="10.00">Loader.GetPrefix</text>
</a>
</g>
</g>
<!-- Node6&#45;&gt;Node14 -->
<g id="edge26_Node000006_Node000014" class="edge">
<title>Node6&#45;&gt;Node14</title>
<g id="a_edge26_Node000006_Node000014"><a xlink:title=" ">
<path fill="none" stroke="#63b8ff" d="M571.61,-229.66C709.86,-228.8 1076.54,-226.51 1239.05,-225.5"/>
<polygon fill="#63b8ff" stroke="#63b8ff" points="1239.47,-228.99 1249.45,-225.43 1239.43,-221.99 1239.47,-228.99"/>
</a>
</g>
</g>
<!-- Node22 -->
<g id="Node000022" class="node">
<title>Node22</title>
<g id="a_Node000022"><a xlink:href="../../db/d79/classTerraria_1_1Item_a3392834269c06d8b751cdbe78841f581.html#a3392834269c06d8b751cdbe78841f581" target="_top" xlink:title=" ">
<polygon fill="white" stroke="#666666" points="989,-164 848,-164 848,-134 989,-134 989,-164"/>
<text text-anchor="start" x="856" y="-152" font-family="Helvetica,sans-Serif" font-size="10.00">Terraria.Item.TryGetPrefix</text>
<text text-anchor="middle" x="918.5" y="-141" font-family="Helvetica,sans-Serif" font-size="10.00">StatMultipliersForItem</text>
</a>
</g>
</g>
<!-- Node6&#45;&gt;Node22 -->
<g id="edge40_Node000006_Node000022" class="edge">
<title>Node6&#45;&gt;Node22</title>
<g id="a_edge40_Node000006_Node000022"><a xlink:title=" ">
<path fill="none" stroke="#63b8ff" d="M531.59,-220.3C551.73,-207.01 590.35,-183.59 627,-173 696.28,-152.99 778.45,-147.82 837.69,-147.17"/>
<polygon fill="#63b8ff" stroke="#63b8ff" points="837.76,-150.67 847.73,-147.1 837.71,-143.67 837.76,-150.67"/>
</a>
</g>
</g>
<!-- Node23 -->
<g id="Node000023" class="node">
<title>Node23</title>
<g id="a_Node000023"><a xlink:href="../../d4/d81/classTerraria_1_1ModLoader_1_1RarityLoader_ac996d25eacaf9a39bb744bb49f0b3a7e.html#ac996d25eacaf9a39bb744bb49f0b3a7e" target="_top" xlink:title=" ">
<polygon fill="white" stroke="#666666" points="789,-78 647,-78 647,-48 789,-48 789,-78"/>
<text text-anchor="start" x="655" y="-66" font-family="Helvetica,sans-Serif" font-size="10.00">Terraria.ModLoader.Rarity</text>
<text text-anchor="middle" x="718" y="-55" font-family="Helvetica,sans-Serif" font-size="10.00">Loader.GetRarity</text>
</a>
</g>
</g>
<!-- Node6&#45;&gt;Node23 -->
<g id="edge27_Node000006_Node000023" class="edge">
<title>Node6&#45;&gt;Node23</title>
<g id="a_edge27_Node000006_Node000023"><a xlink:title=" ">
<path fill="none" stroke="#63b8ff" d="M522.47,-220.37C535.87,-195.37 575.21,-127.88 627,-92 632.31,-88.32 638.12,-85.08 644.15,-82.25"/>
<polygon fill="#63b8ff" stroke="#63b8ff" points="645.96,-85.28 653.75,-78.1 643.18,-78.85 645.96,-85.28"/>
</a>
</g>
</g>
<!-- Node24 -->
<g id="Node000024" class="node">
<title>Node24</title>
<g id="a_Node000024"><a xlink:href="../../d7/de6/classTerraria_1_1ModLoader_1_1ItemLoader_a1e4d9aac17cd087ce704c421a8b72a8f.html#a1e4d9aac17cd087ce704c421a8b72a8f" target="_top" xlink:title="Allows for blocking, forcing and altering chance of prefix rolling. False (block) takes precedence ov...">
<polygon fill="white" stroke="#666666" points="803,-30 633,-30 633,0 803,0 803,-30"/>
<text text-anchor="start" x="641" y="-18" font-family="Helvetica,sans-Serif" font-size="10.00">Terraria.ModLoader.ItemLoader.</text>
<text text-anchor="middle" x="718" y="-7" font-family="Helvetica,sans-Serif" font-size="10.00">PrefixChance</text>
</a>
</g>
</g>
<!-- Node6&#45;&gt;Node24 -->
<g id="edge28_Node000006_Node000024" class="edge">
<title>Node6&#45;&gt;Node24</title>
<g id="a_edge28_Node000006_Node000024"><a xlink:title=" ">
<path fill="none" stroke="#63b8ff" d="M520.14,-220.29C529.2,-188.83 562.15,-88.85 627,-39 628.82,-37.6 630.72,-36.28 632.68,-35.04"/>
<polygon fill="#63b8ff" stroke="#63b8ff" points="634.58,-37.98 641.62,-30.06 631.18,-31.87 634.58,-37.98"/>
</a>
</g>
</g>
<!-- Node25 -->
<g id="Node000025" class="node">
<title>Node25</title>
<g id="a_Node000025"><a xlink:href="../../de/d91/classTerraria_1_1ModLoader_1_1PrefixLoader_a04ac69b65fa901258e32fa63cd64ee4f.html#a04ac69b65fa901258e32fa63cd64ee4f" target="_top" xlink:title=" ">
<polygon fill="white" stroke="#666666" points="988.5,-417 848.5,-417 848.5,-387 988.5,-387 988.5,-417"/>
<text text-anchor="start" x="856.5" y="-405" font-family="Helvetica,sans-Serif" font-size="10.00">Terraria.ModLoader.Prefix</text>
<text text-anchor="middle" x="918.5" y="-394" font-family="Helvetica,sans-Serif" font-size="10.00">Loader.Roll</text>
</a>
</g>
</g>
<!-- Node6&#45;&gt;Node25 -->
<g id="edge29_Node000006_Node000025" class="edge">
<title>Node6&#45;&gt;Node25</title>
<g id="a_edge29_Node000006_Node000025"><a xlink:title=" ">
<path fill="none" stroke="#63b8ff" d="M521.03,-239.82C531.77,-268.06 567.05,-349.67 627,-383 691.44,-418.83 776.77,-419.99 838.26,-414.37"/>
<polygon fill="#63b8ff" stroke="#63b8ff" points="838.69,-417.84 848.29,-413.37 838,-410.88 838.69,-417.84"/>
</a>
</g>
</g>
<!-- Node29 -->
<g id="Node000029" class="node">
<title>Node29</title>
<g id="a_Node000029"><a xlink:href="../../db/d79/classTerraria_1_1Item_adc259619fe8b796c9c7141a28feead1d.html#adc259619fe8b796c9c7141a28feead1d" target="_top" xlink:title=" ">
<polygon fill="white" stroke="#666666" points="785.5,-373.5 650.5,-373.5 650.5,-354.5 785.5,-354.5 785.5,-373.5"/>
<text text-anchor="middle" x="718" y="-361.5" font-family="Helvetica,sans-Serif" font-size="10.00">Terraria.Item.RollAPrefix</text>
</a>
</g>
</g>
<!-- Node6&#45;&gt;Node29 -->
<g id="edge38_Node000006_Node000029" class="edge">
<title>Node6&#45;&gt;Node29</title>
<g id="a_edge38_Node000006_Node000029"><a xlink:title=" ">
<path fill="none" stroke="#63b8ff" d="M523.57,-239.57C538.31,-261.95 578.37,-317.86 627,-345 631.42,-347.47 636.12,-349.61 640.97,-351.48"/>
<polygon fill="#63b8ff" stroke="#63b8ff" points="639.85,-354.8 650.45,-354.74 642.13,-348.18 639.85,-354.8"/>
</a>
</g>
</g>
<!-- Node30 -->
<g id="Node000030" class="node">
<title>Node30</title>
<g id="a_Node000030"><a xlink:href="../../db/d79/classTerraria_1_1Item_a6031bc64d98e4270a0bc8ab058fce7ff.html#a6031bc64d98e4270a0bc8ab058fce7ff" target="_top" xlink:title=" ">
<polygon fill="white" stroke="#666666" points="808,-336 628,-336 628,-306 808,-306 808,-336"/>
<text text-anchor="start" x="636" y="-324" font-family="Helvetica,sans-Serif" font-size="10.00">Terraria.Item.UndoItemAnimation</text>
<text text-anchor="middle" x="718" y="-313" font-family="Helvetica,sans-Serif" font-size="10.00">Compensations</text>
</a>
</g>
</g>
<!-- Node6&#45;&gt;Node30 -->
<g id="edge41_Node000006_Node000030" class="edge">
<title>Node6&#45;&gt;Node30</title>
<g id="a_edge41_Node000006_Node000030"><a xlink:title=" ">
<path fill="none" stroke="#63b8ff" d="M530.31,-239.55C550.1,-253.9 589.72,-281.02 627,-297 631.71,-299.02 636.63,-300.9 641.64,-302.66"/>
<polygon fill="#63b8ff" stroke="#63b8ff" points="640.76,-306.06 651.36,-305.88 642.96,-299.41 640.76,-306.06"/>
</a>
</g>
</g>
<!-- Node9 -->
<g id="Node000009" class="node">
<title>Node9</title>
<g id="a_Node000009"><a xlink:href="../../db/d79/classTerraria_1_1Item_a42afcdb7f69d685eae11fbbd9f651b37.html#a42afcdb7f69d685eae11fbbd9f651b37" target="_top" xlink:title="Determines if this T:Terraria.Item can roll the given prefix.">
<polygon fill="white" stroke="#666666" points="992,-201.5 845,-201.5 845,-182.5 992,-182.5 992,-201.5"/>
<text text-anchor="middle" x="918.5" y="-189.5" font-family="Helvetica,sans-Serif" font-size="10.00">Terraria.Item.CanRollPrefix</text>
</a>
</g>
</g>
<!-- Node8&#45;&gt;Node9 -->
<g id="edge9_Node000008_Node000009" class="edge">
<title>Node8&#45;&gt;Node9</title>
<g id="a_edge9_Node000008_Node000009"><a xlink:title=" ">
<path fill="none" stroke="#63b8ff" d="M796.03,-192C808.67,-192 821.82,-192 834.59,-192"/>
<polygon fill="#63b8ff" stroke="#63b8ff" points="834.74,-195.5 844.74,-192 834.74,-188.5 834.74,-195.5"/>
</a>
</g>
</g>
<!-- Node8&#45;&gt;Node22 -->
<g id="edge23_Node000008_Node000022" class="edge">
<title>Node8&#45;&gt;Node22</title>
<g id="a_edge23_Node000008_Node000022"><a xlink:title=" ">
<path fill="none" stroke="#63b8ff" d="M763.05,-182.46C785.14,-177.67 812.56,-171.73 838.15,-166.19"/>
<polygon fill="#63b8ff" stroke="#63b8ff" points="839.19,-169.54 848.23,-164.01 837.71,-162.7 839.19,-169.54"/>
</a>
</g>
</g>
<!-- Node9&#45;&gt;Node10 -->
<g id="edge10_Node000009_Node000010" class="edge">
<title>Node9&#45;&gt;Node10</title>
<g id="a_edge10_Node000009_Node000010"><a xlink:title=" ">
<path fill="none" stroke="#63b8ff" d="M968.08,-182.41C994.16,-177.26 1026.51,-170.88 1053.92,-165.47"/>
<polygon fill="#63b8ff" stroke="#63b8ff" points="1054.64,-168.89 1063.77,-163.52 1053.28,-162.02 1054.64,-168.89"/>
</a>
</g>
</g>
<!-- Node12 -->
<g id="Node000012" class="node">
<title>Node12</title>
<g id="a_Node000012"><a xlink:href="../../de/d91/classTerraria_1_1ModLoader_1_1PrefixLoader_a4e817b21048b965e62edcfb24b63e518.html#a4e817b21048b965e62edcfb24b63e518" target="_top" xlink:title=" ">
<polygon fill="white" stroke="#666666" points="1183,-326 1043,-326 1043,-296 1183,-296 1183,-326"/>
<text text-anchor="start" x="1051" y="-314" font-family="Helvetica,sans-Serif" font-size="10.00">Terraria.ModLoader.Prefix</text>
<text text-anchor="middle" x="1113" y="-303" font-family="Helvetica,sans-Serif" font-size="10.00">Loader.CanRoll</text>
</a>
</g>
</g>
<!-- Node9&#45;&gt;Node12 -->
<g id="edge12_Node000009_Node000012" class="edge">
<title>Node9&#45;&gt;Node12</title>
<g id="a_edge12_Node000009_Node000012"><a xlink:title=" ">
<path fill="none" stroke="#63b8ff" d="M934.93,-201.54C966.01,-220.75 1036.8,-264.51 1078.85,-290.51"/>
<polygon fill="#63b8ff" stroke="#63b8ff" points="1077.27,-293.64 1087.62,-295.93 1080.95,-287.69 1077.27,-293.64"/>
</a>
</g>
</g>
<!-- Node11 -->
<g id="Node000011" class="node">
<title>Node11</title>
<g id="a_Node000011"><a xlink:href="../../db/d79/classTerraria_1_1Item_ae7df936950051e88d47a93d634266207.html#ae7df936950051e88d47a93d634266207" target="_top" xlink:title="Determines if this T:Terraria.Item is an accessory that can receive prefixes.">
<polygon fill="white" stroke="#666666" points="1599,-264 1453,-264 1453,-234 1599,-234 1599,-264"/>
<text text-anchor="start" x="1461" y="-252" font-family="Helvetica,sans-Serif" font-size="10.00">Terraria.Item.IsAPrefixable</text>
<text text-anchor="middle" x="1526" y="-241" font-family="Helvetica,sans-Serif" font-size="10.00">Accessory</text>
</a>
</g>
</g>
<!-- Node10&#45;&gt;Node11 -->
<g id="edge11_Node000010_Node000011" class="edge">
<title>Node10&#45;&gt;Node11</title>
<g id="a_edge11_Node000010_Node000011"><a xlink:title=" ">
<path fill="none" stroke="#63b8ff" d="M1195.31,-162.27C1254.25,-169.43 1335.46,-181.73 1405,-201 1431.87,-208.44 1460.92,-219.97 1483.71,-229.86"/>
<polygon fill="#63b8ff" stroke="#63b8ff" points="1482.51,-233.16 1493.07,-233.98 1485.33,-226.75 1482.51,-233.16"/>
</a>
</g>
</g>
<!-- Node13 -->
<g id="Node000013" class="node">
<title>Node13</title>
<g id="a_Node000013"><a xlink:href="../../d7/de6/classTerraria_1_1ModLoader_1_1ItemLoader_af2b5b6dfec0b10be27ae73b24f1a4a03.html#af2b5b6dfec0b10be27ae73b24f1a4a03" target="_top" xlink:title=" ">
<polygon fill="white" stroke="#666666" points="1404.5,-288 1234.5,-288 1234.5,-258 1404.5,-258 1404.5,-288"/>
<text text-anchor="start" x="1242.5" y="-276" font-family="Helvetica,sans-Serif" font-size="10.00">Terraria.ModLoader.ItemLoader.</text>
<text text-anchor="middle" x="1319.5" y="-265" font-family="Helvetica,sans-Serif" font-size="10.00">AllowPrefix</text>
</a>
</g>
</g>
<!-- Node12&#45;&gt;Node13 -->
<g id="edge13_Node000012_Node000013" class="edge">
<title>Node12&#45;&gt;Node13</title>
<g id="a_edge13_Node000012_Node000013"><a xlink:title=" ">
<path fill="none" stroke="#63b8ff" d="M1183.23,-298.13C1197.45,-295.49 1212.62,-292.67 1227.47,-289.91"/>
<polygon fill="#63b8ff" stroke="#63b8ff" points="1228.49,-293.28 1237.69,-288.02 1227.21,-286.4 1228.49,-293.28"/>
</a>
</g>
</g>
<!-- Node12&#45;&gt;Node14 -->
<g id="edge14_Node000012_Node000014" class="edge">
<title>Node12&#45;&gt;Node14</title>
<g id="a_edge14_Node000012_Node000014"><a xlink:title=" ">
<path fill="none" stroke="#63b8ff" d="M1139.52,-295.91C1163.34,-282.28 1200.2,-262.37 1234,-249 1239.14,-246.97 1244.52,-245.03 1249.97,-243.2"/>
<polygon fill="#63b8ff" stroke="#63b8ff" points="1251.36,-246.42 1259.81,-240.02 1249.22,-239.76 1251.36,-246.42"/>
</a>
</g>
</g>
<!-- Node15 -->
<g id="Node000015" class="node">
<title>Node15</title>
<g id="a_Node000015"><a xlink:href="../../db/d79/classTerraria_1_1Item_a9d237943edd9c0f7fc8f06031d6cf5f1.html#a9d237943edd9c0f7fc8f06031d6cf5f1" target="_top" xlink:title="Determines the T:Terraria.ModLoader.PrefixCategory of this T:Terraria.Item.">
<polygon fill="white" stroke="#666666" points="1405,-421.5 1234,-421.5 1234,-402.5 1405,-402.5 1405,-421.5"/>
<text text-anchor="middle" x="1319.5" y="-409.5" font-family="Helvetica,sans-Serif" font-size="10.00">Terraria.Item.GetPrefixCategory</text>
</a>
</g>
</g>
<!-- Node12&#45;&gt;Node15 -->
<g id="edge15_Node000012_Node000015" class="edge">
<title>Node12&#45;&gt;Node15</title>
<g id="a_edge15_Node000012_Node000015"><a xlink:title=" ">
<path fill="none" stroke="#63b8ff" d="M1182.99,-326.01C1188.32,-328.56 1193.4,-331.53 1198,-335 1222.21,-353.28 1209.28,-375.42 1234,-393 1236.7,-394.92 1239.55,-396.65 1242.52,-398.2"/>
<polygon fill="#63b8ff" stroke="#63b8ff" points="1241.17,-401.43 1251.72,-402.38 1244.06,-395.06 1241.17,-401.43"/>
</a>
</g>
</g>
<!-- Node20 -->
<g id="Node000020" class="node">
<title>Node20</title>
<g id="a_Node000020"><a xlink:href="../../db/d79/classTerraria_1_1Item_ab94d29d64f93b8c12f2daeb8be976d5e.html#ab94d29d64f93b8c12f2daeb8be976d5e" target="_top" xlink:title="Gets the vanilla prefixes for the given T:Terraria.ModLoader.PrefixCategory.">
<polygon fill="white" stroke="#666666" points="1385.5,-384 1253.5,-384 1253.5,-354 1385.5,-354 1385.5,-384"/>
<text text-anchor="start" x="1261.5" y="-372" font-family="Helvetica,sans-Serif" font-size="10.00">Terraria.Item.GetVanilla</text>
<text text-anchor="middle" x="1319.5" y="-361" font-family="Helvetica,sans-Serif" font-size="10.00">Prefixes</text>
</a>
</g>
</g>
<!-- Node12&#45;&gt;Node20 -->
<g id="edge21_Node000012_Node000020" class="edge">
<title>Node12&#45;&gt;Node20</title>
<g id="a_edge21_Node000012_Node000020"><a xlink:title=" ">
<path fill="none" stroke="#63b8ff" d="M1166.93,-326.01C1194.03,-333.7 1227.21,-343.11 1255.61,-351.16"/>
<polygon fill="#63b8ff" stroke="#63b8ff" points="1254.86,-354.59 1265.44,-353.95 1256.77,-347.85 1254.86,-354.59"/>
</a>
</g>
</g>
<!-- Node21 -->
<g id="Node000021" class="node">
<title>Node21</title>
<g id="a_Node000021"><a xlink:href="../../de/d91/classTerraria_1_1ModLoader_1_1PrefixLoader_ad36bd3164fcc4f2d8837aeb276e85e1d.html#ad36bd3164fcc4f2d8837aeb276e85e1d" target="_top" xlink:title=" ">
<polygon fill="white" stroke="#666666" points="1400,-336 1239,-336 1239,-306 1400,-306 1400,-336"/>
<text text-anchor="start" x="1247" y="-324" font-family="Helvetica,sans-Serif" font-size="10.00">Terraria.ModLoader.Prefix</text>
<text text-anchor="middle" x="1319.5" y="-313" font-family="Helvetica,sans-Serif" font-size="10.00">Loader.IsWeaponSubCategory</text>
</a>
</g>
</g>
<!-- Node12&#45;&gt;Node21 -->
<g id="edge22_Node000012_Node000021" class="edge">
<title>Node12&#45;&gt;Node21</title>
<g id="a_edge22_Node000012_Node000021"><a xlink:title=" ">
<path fill="none" stroke="#63b8ff" d="M1183.23,-314.39C1197.73,-315.09 1213.22,-315.85 1228.36,-316.59"/>
<polygon fill="#63b8ff" stroke="#63b8ff" points="1228.6,-320.11 1238.76,-317.1 1228.94,-313.12 1228.6,-320.11"/>
</a>
</g>
</g>
<!-- Node15&#45;&gt;Node11 -->
<g id="edge16_Node000015_Node000011" class="edge">
<title>Node15&#45;&gt;Node11</title>
<g id="a_edge16_Node000015_Node000011"><a xlink:title=" ">
<path fill="none" stroke="#63b8ff" d="M1389.03,-402.48C1394.76,-399.98 1400.2,-396.86 1405,-393 1434.44,-369.32 1417.62,-345.67 1441,-316 1455.16,-298.03 1475.03,-281.91 1491.89,-269.98"/>
<polygon fill="#63b8ff" stroke="#63b8ff" points="1494.12,-272.69 1500.38,-264.14 1490.16,-266.92 1494.12,-272.69"/>
</a>
</g>
</g>
<!-- Node16 -->
<g id="Node000016" class="node">
<title>Node16</title>
<g id="a_Node000016"><a xlink:href="../../d7/de6/classTerraria_1_1ModLoader_1_1ItemLoader_ac45dd0256a81d39dd9b8ae3d8e26dc27.html#ac45dd0256a81d39dd9b8ae3d8e26dc27" target="_top" xlink:title=" ">
<polygon fill="white" stroke="#666666" points="1611,-355 1441,-355 1441,-325 1611,-325 1611,-355"/>
<text text-anchor="start" x="1449" y="-343" font-family="Helvetica,sans-Serif" font-size="10.00">Terraria.ModLoader.ItemLoader.</text>
<text text-anchor="middle" x="1526" y="-332" font-family="Helvetica,sans-Serif" font-size="10.00">MagicPrefix</text>
</a>
</g>
</g>
<!-- Node15&#45;&gt;Node16 -->
<g id="edge17_Node000015_Node000016" class="edge">
<title>Node15&#45;&gt;Node16</title>
<g id="a_edge17_Node000015_Node000016"><a xlink:title=" ">
<path fill="none" stroke="#63b8ff" d="M1379.41,-402.41C1388.22,-399.94 1397.01,-396.86 1405,-393 1423.5,-384.07 1422.76,-373.45 1441,-364 1444.53,-362.17 1448.23,-360.46 1452.01,-358.87"/>
<polygon fill="#63b8ff" stroke="#63b8ff" points="1453.51,-362.04 1461.55,-355.15 1450.96,-355.52 1453.51,-362.04"/>
</a>
</g>
</g>
<!-- Node17 -->
<g id="Node000017" class="node">
<title>Node17</title>
<g id="a_Node000017"><a xlink:href="../../d7/de6/classTerraria_1_1ModLoader_1_1ItemLoader_a76f677b558832a8e0ca6593cdcb37766.html#a76f677b558832a8e0ca6593cdcb37766" target="_top" xlink:title=" ">
<polygon fill="white" stroke="#666666" points="1611,-499 1441,-499 1441,-469 1611,-469 1611,-499"/>
<text text-anchor="start" x="1449" y="-487" font-family="Helvetica,sans-Serif" font-size="10.00">Terraria.ModLoader.ItemLoader.</text>
<text text-anchor="middle" x="1526" y="-476" font-family="Helvetica,sans-Serif" font-size="10.00">MeleePrefix</text>
</a>
</g>
</g>
<!-- Node15&#45;&gt;Node17 -->
<g id="edge18_Node000015_Node000017" class="edge">
<title>Node15&#45;&gt;Node17</title>
<g id="a_edge18_Node000015_Node000017"><a xlink:title=" ">
<path fill="none" stroke="#63b8ff" d="M1342.46,-421.52C1366.42,-431.73 1406.05,-448.08 1441,-460 1446.93,-462.02 1453.14,-464.02 1459.38,-465.95"/>
<polygon fill="#63b8ff" stroke="#63b8ff" points="1458.59,-469.36 1469.18,-468.9 1460.62,-462.66 1458.59,-469.36"/>
</a>
</g>
</g>
<!-- Node18 -->
<g id="Node000018" class="node">
<title>Node18</title>
<g id="a_Node000018"><a xlink:href="../../d7/de6/classTerraria_1_1ModLoader_1_1ItemLoader_a558c1ff0222422d4e670d1a2e2676fbd.html#a558c1ff0222422d4e670d1a2e2676fbd" target="_top" xlink:title=" ">
<polygon fill="white" stroke="#666666" points="1611,-451 1441,-451 1441,-421 1611,-421 1611,-451"/>
<text text-anchor="start" x="1449" y="-439" font-family="Helvetica,sans-Serif" font-size="10.00">Terraria.ModLoader.ItemLoader.</text>
<text text-anchor="middle" x="1526" y="-428" font-family="Helvetica,sans-Serif" font-size="10.00">RangedPrefix</text>
</a>
</g>
</g>
<!-- Node15&#45;&gt;Node18 -->
<g id="edge19_Node000015_Node000018" class="edge">
<title>Node15&#45;&gt;Node18</title>
<g id="a_edge19_Node000015_Node000018"><a xlink:title=" ">
<path fill="none" stroke="#63b8ff" d="M1401.62,-421.52C1411.22,-422.65 1421.08,-423.8 1430.84,-424.95"/>
<polygon fill="#63b8ff" stroke="#63b8ff" points="1430.62,-428.45 1440.96,-426.14 1431.44,-421.5 1430.62,-428.45"/>
</a>
</g>
</g>
<!-- Node19 -->
<g id="Node000019" class="node">
<title>Node19</title>
<g id="a_Node000019"><a xlink:href="../../d7/de6/classTerraria_1_1ModLoader_1_1ItemLoader_aa9f339e6a6d6051c715ed0166cba1d40.html#aa9f339e6a6d6051c715ed0166cba1d40" target="_top" xlink:title=" ">
<polygon fill="white" stroke="#666666" points="1611,-403 1441,-403 1441,-373 1611,-373 1611,-403"/>
<text text-anchor="start" x="1449" y="-391" font-family="Helvetica,sans-Serif" font-size="10.00">Terraria.ModLoader.ItemLoader.</text>
<text text-anchor="middle" x="1526" y="-380" font-family="Helvetica,sans-Serif" font-size="10.00">WeaponPrefix</text>
</a>
</g>
</g>
<!-- Node15&#45;&gt;Node19 -->
<g id="edge20_Node000015_Node000019" class="edge">
<title>Node15&#45;&gt;Node19</title>
<g id="a_edge20_Node000015_Node000019"><a xlink:title=" ">
<path fill="none" stroke="#63b8ff" d="M1401.62,-402.48C1411.22,-401.35 1421.08,-400.2 1430.84,-399.05"/>
<polygon fill="#63b8ff" stroke="#63b8ff" points="1431.44,-402.5 1440.96,-397.86 1430.62,-395.55 1431.44,-402.5"/>
</a>
</g>
</g>
<!-- Node22&#45;&gt;Node14 -->
<g id="edge24_Node000022_Node000014" class="edge">
<title>Node22&#45;&gt;Node14</title>
<g id="a_edge24_Node000022_Node000014"><a xlink:title=" ">
<path fill="none" stroke="#63b8ff" d="M988.9,-164.02C1001.88,-166.74 1015.34,-169.5 1028,-172 1099.44,-186.09 1181.03,-200.86 1239.52,-211.22"/>
<polygon fill="#63b8ff" stroke="#63b8ff" points="1238.97,-214.67 1249.43,-212.97 1240.19,-207.78 1238.97,-214.67"/>
</a>
</g>
</g>
<!-- Node25&#45;&gt;Node12 -->
<g id="edge33_Node000025_Node000012" class="edge">
<title>Node25&#45;&gt;Node12</title>
<g id="a_edge33_Node000025_Node000012"><a xlink:title=" ">
<path fill="none" stroke="#63b8ff" d="M940.16,-386.84C961.31,-371.9 995.6,-349.31 1028,-335 1032.45,-333.04 1037.1,-331.19 1041.84,-329.46"/>
<polygon fill="#63b8ff" stroke="#63b8ff" points="1043.32,-332.64 1051.63,-326.07 1041.04,-326.03 1043.32,-332.64"/>
</a>
</g>
</g>
<!-- Node25&#45;&gt;Node13 -->
<g id="edge30_Node000025_Node000013" class="edge">
<title>Node25&#45;&gt;Node13</title>
<g id="a_edge30_Node000025_Node000013"><a xlink:title=" ">
<path fill="none" stroke="#63b8ff" d="M928.22,-386.95C944.19,-361.03 980.87,-308.69 1028,-287 1089.14,-258.86 1165.36,-256.23 1224.39,-260.17"/>
<polygon fill="#63b8ff" stroke="#63b8ff" points="1224.22,-263.67 1234.46,-260.92 1224.74,-256.69 1224.22,-263.67"/>
</a>
</g>
</g>
<!-- Node25&#45;&gt;Node15 -->
<g id="edge35_Node000025_Node000015" class="edge">
<title>Node25&#45;&gt;Node15</title>
<g id="a_edge35_Node000025_Node000015"><a xlink:title=" ">
<path fill="none" stroke="#63b8ff" d="M942.92,-417.04C964.17,-429.73 996.84,-446.92 1028,-454 1101.68,-470.74 1123.5,-466.61 1198,-454 1229.87,-448.61 1264.55,-435.72 1288.49,-425.63"/>
<polygon fill="#63b8ff" stroke="#63b8ff" points="1289.94,-428.82 1297.74,-421.65 1287.17,-422.39 1289.94,-428.82"/>
</a>
</g>
</g>
<!-- Node25&#45;&gt;Node20 -->
<g id="edge36_Node000025_Node000020" class="edge">
<title>Node25&#45;&gt;Node20</title>
<g id="a_edge36_Node000025_Node000020"><a xlink:title=" ">
<path fill="none" stroke="#63b8ff" d="M985.54,-417.02C1042.82,-427.31 1127.4,-435.87 1198,-416 1216.05,-410.92 1216.86,-401.61 1234,-394 1239.28,-391.65 1244.85,-389.45 1250.5,-387.41"/>
<polygon fill="#63b8ff" stroke="#63b8ff" points="1251.74,-390.68 1260.05,-384.12 1249.46,-384.07 1251.74,-390.68"/>
</a>
</g>
</g>
<!-- Node25&#45;&gt;Node21 -->
<g id="edge37_Node000025_Node000021" class="edge">
<title>Node25&#45;&gt;Node21</title>
<g id="a_edge37_Node000025_Node000021"><a xlink:title=" ">
<path fill="none" stroke="#63b8ff" d="M988.5,-410.79C1047.08,-415.19 1131.91,-414.14 1198,-383 1219.05,-373.09 1214.1,-357.05 1234,-345 1236.8,-343.3 1239.73,-341.72 1242.75,-340.24"/>
<polygon fill="#63b8ff" stroke="#63b8ff" points="1244.28,-343.39 1252,-336.14 1241.44,-337 1244.28,-343.39"/>
</a>
</g>
</g>
<!-- Node26 -->
<g id="Node000026" class="node">
<title>Node26</title>
<g id="a_Node000026"><a xlink:href="../../df/dd3/classTerraria_1_1ModLoader_1_1ModPrefix_a1cd220918c0e5eaebc3f06c473efa2d4.html#a1cd220918c0e5eaebc3f06c473efa2d4" target="_top" xlink:title="Returns if your ModPrefix can roll on the given item By default returns RollChance(item) &gt; 0.">
<polygon fill="white" stroke="#666666" points="1195,-536 1031,-536 1031,-506 1195,-506 1195,-536"/>
<text text-anchor="start" x="1039" y="-524" font-family="Helvetica,sans-Serif" font-size="10.00">Terraria.ModLoader.ModPrefix.</text>
<text text-anchor="middle" x="1113" y="-513" font-family="Helvetica,sans-Serif" font-size="10.00">CanRoll</text>
</a>
</g>
</g>
<!-- Node25&#45;&gt;Node26 -->
<g id="edge31_Node000025_Node000026" class="edge">
<title>Node25&#45;&gt;Node26</title>
<g id="a_edge31_Node000025_Node000026"><a xlink:title=" ">
<path fill="none" stroke="#63b8ff" d="M934,-417.02C953.68,-436.65 990.67,-471 1028,-492 1034.71,-495.78 1042,-499.18 1049.39,-502.22"/>
<polygon fill="#63b8ff" stroke="#63b8ff" points="1048.17,-505.5 1058.76,-505.87 1050.71,-498.98 1048.17,-505.5"/>
</a>
</g>
</g>
<!-- Node28 -->
<g id="Node000028" class="node">
<title>Node28</title>
<g id="a_Node000028"><a xlink:href="../../d7/de6/classTerraria_1_1ModLoader_1_1ItemLoader_a1d7ba55c1cba9007d0b08c348f833dbf.html#a1d7ba55c1cba9007d0b08c348f833dbf" target="_top" xlink:title=" ">
<polygon fill="white" stroke="#666666" points="1198,-374 1028,-374 1028,-344 1198,-344 1198,-374"/>
<text text-anchor="start" x="1036" y="-362" font-family="Helvetica,sans-Serif" font-size="10.00">Terraria.ModLoader.ItemLoader.</text>
<text text-anchor="middle" x="1113" y="-351" font-family="Helvetica,sans-Serif" font-size="10.00">ChoosePrefix</text>
</a>
</g>
</g>
<!-- Node25&#45;&gt;Node28 -->
<g id="edge34_Node000025_Node000028" class="edge">
<title>Node25&#45;&gt;Node28</title>
<g id="a_edge34_Node000025_Node000028"><a xlink:title=" ">
<path fill="none" stroke="#63b8ff" d="M986.83,-386.96C1002.36,-383.49 1019,-379.77 1034.91,-376.22"/>
<polygon fill="#63b8ff" stroke="#63b8ff" points="1035.71,-379.63 1044.71,-374.03 1034.19,-372.8 1035.71,-379.63"/>
</a>
</g>
</g>
<!-- Node27 -->
<g id="Node000027" class="node">
<title>Node27</title>
<g id="a_Node000027"><a xlink:href="../../df/dd3/classTerraria_1_1ModLoader_1_1ModPrefix_a81746b2b0f4ecf604ff2132f66c88764.html#a81746b2b0f4ecf604ff2132f66c88764" target="_top" xlink:title="The roll chance of your prefix relative to a vanilla prefix, 1f by default.">
<polygon fill="white" stroke="#666666" points="1401.5,-536 1237.5,-536 1237.5,-506 1401.5,-506 1401.5,-536"/>
<text text-anchor="start" x="1245.5" y="-524" font-family="Helvetica,sans-Serif" font-size="10.00">Terraria.ModLoader.ModPrefix.</text>
<text text-anchor="middle" x="1319.5" y="-513" font-family="Helvetica,sans-Serif" font-size="10.00">RollChance</text>
</a>
</g>
</g>
<!-- Node26&#45;&gt;Node27 -->
<g id="edge32_Node000026_Node000027" class="edge">
<title>Node26&#45;&gt;Node27</title>
<g id="a_edge32_Node000026_Node000027"><a xlink:title=" ">
<path fill="none" stroke="#63b8ff" d="M1195.12,-521C1205.68,-521 1216.56,-521 1227.27,-521"/>
<polygon fill="#63b8ff" stroke="#63b8ff" points="1227.48,-524.5 1237.48,-521 1227.48,-517.5 1227.48,-524.5"/>
</a>
</g>
</g>
<!-- Node29&#45;&gt;Node25 -->
<g id="edge39_Node000029_Node000025" class="edge">
<title>Node29&#45;&gt;Node25</title>
<g id="a_edge39_Node000029_Node000025"><a xlink:title=" ">
<path fill="none" stroke="#63b8ff" d="M768.83,-373.54C789.84,-377.56 814.8,-382.34 838.22,-386.82"/>
<polygon fill="#63b8ff" stroke="#63b8ff" points="837.66,-390.28 848.14,-388.72 838.98,-383.41 837.66,-390.28"/>
</a>
</g>
</g>
</g>
</svg>

<g id="navigator" transform="translate(0 0)" fill="#404254">
  <rect fill="#f2f5e9" fill-opacity="0.5" stroke="#606060" stroke-width=".5" x="0" y="0" width="60" height="60"/>
  <use id="zoomplus" xlink:href="#zoomPlus" x="17" y="9" onmousedown="handleZoom(evt,'in')"/>
  <use id="zoomminus" xlink:href="#zoomMin" x="42" y="9" onmousedown="handleZoom(evt,'out')"/>
  <use id="reset" xlink:href="#resetDef" x="30" y="36" onmousedown="handleReset()"/>
   <use id="arrowup" xlink:href="#arrowUp" x="0" y="0" onmousedown="handlePan(0,-1)"/>
  <use id="arrowright" xlink:href="#arrowRight" x="0" y="0" onmousedown="handlePan(1,0)"/>
  <use id="arrowdown" xlink:href="#arrowDown" x="0" y="0" onmousedown="handlePan(0,1)"/>
  <use id="arrowleft" xlink:href="#arrowLeft" x="0" y="0" onmousedown="handlePan(-1,0)"/>
</g>
<svg viewBox="0 0 15 15" width="100%" height="30px" preserveAspectRatio="xMaxYMin meet">
 <g id="arrow_out" transform="scale(0.3 0.3)">
  <a xlink:href="classTerraria_1_1ModLoader_1_1Default_1_1ModAccessorySlotPlayer_a2fcd30d32c8211ca731aef4518963d1c_a2fcd30d32c8211ca731aef4518963d1c_cgraph_org.svg" target="_base">
   <rect id="button" ry="5" rx="5" y="6" x="6" height="38" width="38"
        fill="#f2f5e9" fill-opacity="0.5" stroke="#606060" stroke-width="1.0"/>
   <path id="arrow"
     d="M 11.500037,31.436501 C 11.940474,20.09759 22.043105,11.32322 32.158766,21.979434 L 37.068811,17.246167 C 37.068811,17.246167 37.088388,32 37.088388,32 L 22.160133,31.978069 C 22.160133,31.978069 26.997745,27.140456 26.997745,27.140456 C 18.528582,18.264221 13.291696,25.230495 11.500037,31.436501 z"
     style="fill:#404040;"/>
  </a>
 </g>
</svg>

<style type='text/css'>
<![CDATA[
[data-mouse-over-selected='false'] { opacity: 0.7; }
[data-mouse-over-selected='true']  { opacity: 1.0; }
]]>
</style>
<script type="application/ecmascript"><![CDATA[
document.addEventListener('DOMContentLoaded', (event) => {
  highlightEdges();
  highlightAdjacentNodes();
});
]]></script>
</svg>
