<?xml version="1.0" encoding="UTF-8" standalone="no"?>
<!DOCTYPE svg PUBLIC "-//W3C//DTD SVG 1.1//EN"
 "http://www.w3.org/Graphics/SVG/1.1/DTD/svg11.dtd">
<!-- Generated by graphviz version 2.43.0 (0)
 -->
<!-- Title: Terraria.GameContent.DoorOpeningHelper.LookForDoorsToOpen Pages: 1 -->
<svg width="1040pt" height="113pt"
 viewBox="0.00 0.00 1040.00 113.00" xmlns="http://www.w3.org/2000/svg" xmlns:xlink="http://www.w3.org/1999/xlink">
<g id="graph0" class="graph" transform="scale(1 1) rotate(0) translate(4 109)">
<title>Terraria.GameContent.DoorOpeningHelper.LookForDoorsToOpen</title>
<!-- Node1 -->
<g id="Node000001" class="node">
<title>Node1</title>
<g id="a_Node000001"><a xlink:title=" ">
<polygon fill="#999999" stroke="#666666" points="194,-72.5 0,-72.5 0,-42.5 194,-42.5 194,-72.5"/>
<text text-anchor="start" x="8" y="-60.5" font-family="Helvetica,sans-Serif" font-size="10.00">Terraria.GameContent.Door</text>
<text text-anchor="middle" x="97" y="-49.5" font-family="Helvetica,sans-Serif" font-size="10.00">OpeningHelper.LookForDoorsToOpen</text>
</a>
</g>
</g>
<!-- Node2 -->
<g id="Node000002" class="node">
<title>Node2</title>
<g id="a_Node000002"><a xlink:href="../../d8/def/classTerraria_1_1GameContent_1_1DoorOpeningHelper_a1d9cd2e0b41b8c025958973b50e5c221.html#a1d9cd2e0b41b8c025958973b50e5c221" target="_top" xlink:title=" ">
<polygon fill="white" stroke="#666666" points="412.5,-105 239.5,-105 239.5,-64 412.5,-64 412.5,-105"/>
<text text-anchor="start" x="247.5" y="-93" font-family="Helvetica,sans-Serif" font-size="10.00">Terraria.GameContent.Door</text>
<text text-anchor="start" x="247.5" y="-82" font-family="Helvetica,sans-Serif" font-size="10.00">OpeningHelper.GetPlayerInfoFor</text>
<text text-anchor="middle" x="326" y="-71" font-family="Helvetica,sans-Serif" font-size="10.00">OpeningDoor</text>
</a>
</g>
</g>
<!-- Node1&#45;&gt;Node2 -->
<g id="edge1_Node000001_Node000002" class="edge">
<title>Node1&#45;&gt;Node2</title>
<g id="a_edge1_Node000001_Node000002"><a xlink:title=" ">
<path fill="none" stroke="#63b8ff" d="M194.27,-68.95C205.86,-70.33 217.69,-71.74 229.27,-73.11"/>
<polygon fill="#63b8ff" stroke="#63b8ff" points="229.03,-76.61 239.37,-74.32 229.86,-69.66 229.03,-76.61"/>
</a>
</g>
</g>
<!-- Node3 -->
<g id="Node000003" class="node">
<title>Node3</title>
<g id="a_Node000003"><a xlink:href="../../d8/def/classTerraria_1_1GameContent_1_1DoorOpeningHelper_a7aad9b9b3a05f7e709b19fb40ff96b37.html#a7aad9b9b3a05f7e709b19fb40ff96b37" target="_top" xlink:title=" ">
<polygon fill="white" stroke="#666666" points="422,-45.5 230,-45.5 230,-15.5 422,-15.5 422,-45.5"/>
<text text-anchor="start" x="238" y="-33.5" font-family="Helvetica,sans-Serif" font-size="10.00">Terraria.GameContent.Door</text>
<text text-anchor="middle" x="326" y="-22.5" font-family="Helvetica,sans-Serif" font-size="10.00">OpeningHelper.TryAutoOpeningDoor</text>
</a>
</g>
</g>
<!-- Node1&#45;&gt;Node3 -->
<g id="edge2_Node000001_Node000003" class="edge">
<title>Node1&#45;&gt;Node3</title>
<g id="a_edge2_Node000001_Node000003"><a xlink:title=" ">
<path fill="none" stroke="#63b8ff" d="M194.27,-46.05C202.6,-45.06 211.06,-44.05 219.46,-43.05"/>
<polygon fill="#63b8ff" stroke="#63b8ff" points="220.15,-46.5 229.67,-41.84 219.33,-39.54 220.15,-46.5"/>
</a>
</g>
</g>
<!-- Node4 -->
<g id="Node000004" class="node">
<title>Node4</title>
<g id="a_Node000004"><a xlink:href="../../d8/def/classTerraria_1_1GameContent_1_1DoorOpeningHelper_ab2438f775182d9ebc0efdc6aa155645f.html#ab2438f775182d9ebc0efdc6aa155645f" target="_top" xlink:title=" ">
<polygon fill="white" stroke="#666666" points="619,-45.5 458,-45.5 458,-15.5 619,-15.5 619,-45.5"/>
<text text-anchor="start" x="466" y="-33.5" font-family="Helvetica,sans-Serif" font-size="10.00">Terraria.GameContent.Door</text>
<text text-anchor="middle" x="538.5" y="-22.5" font-family="Helvetica,sans-Serif" font-size="10.00">OpeningHelper.TryGetHandler</text>
</a>
</g>
</g>
<!-- Node3&#45;&gt;Node4 -->
<g id="edge3_Node000003_Node000004" class="edge">
<title>Node3&#45;&gt;Node4</title>
<g id="a_edge3_Node000003_Node000004"><a xlink:title=" ">
<path fill="none" stroke="#63b8ff" d="M422.09,-30.5C430.61,-30.5 439.22,-30.5 447.69,-30.5"/>
<polygon fill="#63b8ff" stroke="#63b8ff" points="447.95,-34 457.95,-30.5 447.95,-27 447.95,-34"/>
</a>
</g>
</g>
<!-- Node5 -->
<g id="Node000005" class="node">
<title>Node5</title>
<g id="a_Node000005"><a xlink:href="../../da/d9e/classTerraria_1_1ModLoader_1_1ModContent_aa3482428852e9cc391f051f9551ce20a.html#aa3482428852e9cc391f051f9551ce20a" target="_top" xlink:title=" ">
<polygon fill="white" stroke="#666666" points="830,-67.5 655,-67.5 655,-37.5 830,-37.5 830,-67.5"/>
<text text-anchor="start" x="663" y="-55.5" font-family="Helvetica,sans-Serif" font-size="10.00">Terraria.ModLoader.ModContent.</text>
<text text-anchor="middle" x="742.5" y="-44.5" font-family="Helvetica,sans-Serif" font-size="10.00">GetModTile</text>
</a>
</g>
</g>
<!-- Node4&#45;&gt;Node5 -->
<g id="edge4_Node000004_Node000005" class="edge">
<title>Node4&#45;&gt;Node5</title>
<g id="a_edge4_Node000004_Node000005"><a xlink:title=" ">
<path fill="none" stroke="#63b8ff" d="M619.05,-39.16C627.46,-40.08 636.08,-41.02 644.66,-41.95"/>
<polygon fill="#63b8ff" stroke="#63b8ff" points="644.37,-45.44 654.69,-43.05 645.13,-38.48 644.37,-45.44"/>
</a>
</g>
</g>
<!-- Node7 -->
<g id="Node000007" class="node">
<title>Node7</title>
<g id="a_Node000007"><a xlink:href="../../de/da1/classTerraria_1_1WorldGen_adf59bfc3a2909993f72f0c69a5eaf553.html#adf59bfc3a2909993f72f0c69a5eaf553" target="_top" xlink:title=" ">
<polygon fill="white" stroke="#666666" points="814,-19 671,-19 671,0 814,0 814,-19"/>
<text text-anchor="middle" x="742.5" y="-7" font-family="Helvetica,sans-Serif" font-size="10.00">Terraria.WorldGen.InWorld</text>
</a>
</g>
</g>
<!-- Node4&#45;&gt;Node7 -->
<g id="edge6_Node000004_Node000007" class="edge">
<title>Node4&#45;&gt;Node7</title>
<g id="a_edge6_Node000004_Node000007"><a xlink:title=" ">
<path fill="none" stroke="#63b8ff" d="M619.05,-22.23C632.68,-20.81 646.87,-19.34 660.54,-17.92"/>
<polygon fill="#63b8ff" stroke="#63b8ff" points="661.29,-21.36 670.88,-16.84 660.57,-14.39 661.29,-21.36"/>
</a>
</g>
</g>
<!-- Node6 -->
<g id="Node000006" class="node">
<title>Node6</title>
<g id="a_Node000006"><a xlink:href="../../d1/d70/classTerraria_1_1ModLoader_1_1TileLoader_a046d2f0670d83bdc212241b0f87ff2de.html#a046d2f0670d83bdc212241b0f87ff2de" target="_top" xlink:title="Gets the ModTile instance with the given type. If no ModTile with the given type exists,...">
<polygon fill="white" stroke="#666666" points="1032,-67.5 866,-67.5 866,-37.5 1032,-37.5 1032,-67.5"/>
<text text-anchor="start" x="874" y="-55.5" font-family="Helvetica,sans-Serif" font-size="10.00">Terraria.ModLoader.TileLoader.</text>
<text text-anchor="middle" x="949" y="-44.5" font-family="Helvetica,sans-Serif" font-size="10.00">GetTile</text>
</a>
</g>
</g>
<!-- Node5&#45;&gt;Node6 -->
<g id="edge5_Node000005_Node000006" class="edge">
<title>Node5&#45;&gt;Node6</title>
<g id="a_edge5_Node000005_Node000006"><a xlink:title=" ">
<path fill="none" stroke="#63b8ff" d="M830.23,-52.5C838.58,-52.5 847.08,-52.5 855.5,-52.5"/>
<polygon fill="#63b8ff" stroke="#63b8ff" points="855.7,-56 865.7,-52.5 855.7,-49 855.7,-56"/>
</a>
</g>
</g>
</g>
</svg>
