<?xml version="1.0" encoding="UTF-8" standalone="no"?>
<!DOCTYPE svg PUBLIC "-//W3C//DTD SVG 1.1//EN"
 "http://www.w3.org/Graphics/SVG/1.1/DTD/svg11.dtd">
<!-- Generated by graphviz version 2.43.0 (0)
 -->
<!-- Title: Terraria.ModLoader.UI.UIErrorMessage.OnActivate Pages: 1 -->
<!--zoomable 152 -->

<svg id="main" version="1.1" xmlns="http://www.w3.org/2000/svg" xmlns:xlink="http://www.w3.org/1999/xlink" xml:space="preserve" onload="init(evt)">
<style type="text/css"><![CDATA[
.node, .edge {opacity: 0.7;}
.node.selected, .edge.selected {opacity: 1;}
.edge:hover path { stroke: red; }
.edge:hover polygon { stroke: red; fill: red; }
]]></style>

<defs>
  <circle id="rim" cx="0" cy="0" r="7"/>
  <circle id="rim2" cx="0" cy="0" r="3.5"/>
  <g id="zoomPlus">
    <use xlink:href="#rim" fill="#404040"><set attributeName="fill" to="#808080" begin="zoomplus.mouseover" end="zoomplus.mouseout"/></use>
    <path d="M-4,0h8M0,-4v8" fill="none" stroke="white" stroke-width="1.5" pointer-events="none"/>
  </g>
  <g id="zoomMin">
    <use xlink:href="#rim" fill="#404040"><set attributeName="fill" to="#808080" begin="zoomminus.mouseover" end="zoomminus.mouseout"/></use>
    <path d="M-4,0h8" fill="none" stroke="white" stroke-width="1.5" pointer-events="none"/>
  </g>
  <g id="arrowUp" transform="translate(30 24)">
    <use xlink:href="#rim"/>
    <path pointer-events="none" fill="none" stroke="white" stroke-width="1.5" d="M0,-3.0v7 M-2.5,-0.5L0,-3.0L2.5,-0.5"/>
  </g>
  <g id="arrowRight" transform="rotate(90) translate(36 -43)">
    <use xlink:href="#rim"/>
    <path pointer-events="none" fill="none" stroke="white" stroke-width="1.5" d="M0,-3.0v7 M-2.5,-0.5L0,-3.0L2.5,-0.5"/>
  </g>
  <g id="arrowDown" transform="rotate(180) translate(-30 -48)">
    <use xlink:href="#rim"/>
    <path pointer-events="none" fill="none" stroke="white" stroke-width="1.5" d="M0,-3.0v7 M-2.5,-0.5L0,-3.0L2.5,-0.5"/>
  </g>
  <g id="arrowLeft" transform="rotate(270) translate(-36 17)">
    <use xlink:href="#rim"/>
    <path pointer-events="none" fill="none" stroke="white" stroke-width="1.5" d="M0,-3.0v7 M-2.5,-0.5L0,-3.0L2.5,-0.5"/>
  </g>
  <g id="resetDef">
    <use xlink:href="#rim2" fill="#404040"><set attributeName="fill" to="#808080" begin="reset.mouseover" end="reset.mouseout"/></use>
  </g>
</defs>
<script type="application/ecmascript">
var viewWidth = 1409;
var viewHeight = 152;
var sectionId = 'dynsection-0';
</script>
<script type="application/ecmascript" xlink:href="../../svg.min.js"/>
<svg id="graph" class="graph">
<g id="viewport">
<title>Terraria.ModLoader.UI.UIErrorMessage.OnActivate</title>
<!-- Node1 -->
<g id="Node000001" class="node">
<title>Node1</title>
<g id="a_Node000001"><a xlink:title=" ">
<polygon fill="#999999" stroke="#666666" points="160,-96 0,-96 0,-66 160,-66 160,-96"/>
<text text-anchor="start" x="8" y="-84" font-family="Helvetica,sans-Serif" font-size="10.00">Terraria.ModLoader.UI.UIError</text>
<text text-anchor="middle" x="80" y="-73" font-family="Helvetica,sans-Serif" font-size="10.00">Message.OnActivate</text>
</a>
</g>
</g>
<!-- Node2 -->
<g id="Node000002" class="node">
<title>Node2</title>
<g id="a_Node000002"><a xlink:href="../../d4/d8f/classTerraria_1_1Localization_1_1Language_ae4636a4800b9ecbaa498954520462f78.html#ae4636a4800b9ecbaa498954520462f78" target="_top" xlink:title="Retrieves the text value for a specified localization key. The text returned will be for the currentl...">
<polygon fill="white" stroke="#666666" points="370,-144 202,-144 202,-114 370,-114 370,-144"/>
<text text-anchor="start" x="210" y="-132" font-family="Helvetica,sans-Serif" font-size="10.00">Terraria.Localization.Language.</text>
<text text-anchor="middle" x="286" y="-121" font-family="Helvetica,sans-Serif" font-size="10.00">GetTextValue</text>
</a>
</g>
</g>
<!-- Node1&#45;&gt;Node2 -->
<g id="edge1_Node000001_Node000002" class="edge">
<title>Node1&#45;&gt;Node2</title>
<g id="a_edge1_Node000001_Node000002"><a xlink:title=" ">
<path fill="none" stroke="#63b8ff" d="M144.99,-96.06C166.06,-101.01 189.67,-106.57 211.4,-111.68"/>
<polygon fill="#63b8ff" stroke="#63b8ff" points="210.7,-115.11 221.24,-114 212.31,-108.3 210.7,-115.11"/>
</a>
</g>
</g>
<!-- Node3 -->
<g id="Node000003" class="node">
<title>Node3</title>
<g id="a_Node000003"><a xlink:href="../../dd/da3/classTerraria_1_1ModLoader_1_1UI_1_1UIMessageBox_a472895e482bda230a8997616f738bcc8.html#a472895e482bda230a8997616f738bcc8" target="_top" xlink:title=" ">
<polygon fill="white" stroke="#666666" points="376,-96 196,-96 196,-66 376,-66 376,-96"/>
<text text-anchor="start" x="204" y="-84" font-family="Helvetica,sans-Serif" font-size="10.00">Terraria.ModLoader.UI.UIMessage</text>
<text text-anchor="middle" x="286" y="-73" font-family="Helvetica,sans-Serif" font-size="10.00">Box.SetText</text>
</a>
</g>
</g>
<!-- Node1&#45;&gt;Node3 -->
<g id="edge2_Node000001_Node000003" class="edge">
<title>Node1&#45;&gt;Node3</title>
<g id="a_edge2_Node000001_Node000003"><a xlink:title=" ">
<path fill="none" stroke="#63b8ff" d="M160.16,-81C168.54,-81 177.12,-81 185.69,-81"/>
<polygon fill="#63b8ff" stroke="#63b8ff" points="185.71,-84.5 195.71,-81 185.71,-77.5 185.71,-84.5"/>
</a>
</g>
</g>
<!-- Node13 -->
<g id="Node000013" class="node">
<title>Node13</title>
<g id="a_Node000013"><a xlink:href="../../da/d3f/classTerraria_1_1GameContent_1_1UI_1_1Elements_1_1UITextPanel_afd0d2001cf75f54f22f97c5eea5e8903.html#afd0d2001cf75f54f22f97c5eea5e8903" target="_top" xlink:title=" ">
<polygon fill="white" stroke="#666666" points="366.5,-30 205.5,-30 205.5,0 366.5,0 366.5,-30"/>
<text text-anchor="start" x="213.5" y="-18" font-family="Helvetica,sans-Serif" font-size="10.00">Terraria.GameContent.UI.</text>
<text text-anchor="middle" x="286" y="-7" font-family="Helvetica,sans-Serif" font-size="10.00">Elements.UITextPanel.SetText</text>
</a>
</g>
</g>
<!-- Node1&#45;&gt;Node13 -->
<g id="edge13_Node000001_Node000013" class="edge">
<title>Node1&#45;&gt;Node13</title>
<g id="a_edge13_Node000001_Node000013"><a xlink:title=" ">
<path fill="none" stroke="#63b8ff" d="M127.55,-65.94C157.6,-56.22 196.88,-43.51 228.69,-33.22"/>
<polygon fill="#63b8ff" stroke="#63b8ff" points="229.86,-36.52 238.3,-30.11 227.71,-29.86 229.86,-36.52"/>
</a>
</g>
</g>
<!-- Node4 -->
<g id="Node000004" class="node">
<title>Node4</title>
<g id="a_Node000004"><a xlink:href="../../dd/da3/classTerraria_1_1ModLoader_1_1UI_1_1UIMessageBox_a3f5e146a150f414f419a8ffda7fcf6e0.html#a3f5e146a150f414f419a8ffda7fcf6e0" target="_top" xlink:title=" ">
<polygon fill="white" stroke="#666666" points="592,-120 412,-120 412,-90 592,-90 592,-120"/>
<text text-anchor="start" x="420" y="-108" font-family="Helvetica,sans-Serif" font-size="10.00">Terraria.ModLoader.UI.UIMessage</text>
<text text-anchor="middle" x="502" y="-97" font-family="Helvetica,sans-Serif" font-size="10.00">Box.ResetScrollbar</text>
</a>
</g>
</g>
<!-- Node3&#45;&gt;Node4 -->
<g id="edge3_Node000003_Node000004" class="edge">
<title>Node3&#45;&gt;Node4</title>
<g id="a_edge3_Node000003_Node000004"><a xlink:title=" ">
<path fill="none" stroke="#63b8ff" d="M376.21,-91C384.7,-91.96 393.34,-92.93 401.92,-93.89"/>
<polygon fill="#63b8ff" stroke="#63b8ff" points="401.61,-97.38 411.94,-95.01 402.39,-90.42 401.61,-97.38"/>
</a>
</g>
</g>
<!-- Node5 -->
<g id="Node000005" class="node">
<title>Node5</title>
<g id="a_Node000005"><a xlink:href="../../df/da8/classTerraria_1_1GameContent_1_1UI_1_1Elements_1_1UIText_a3f27882b54715c7adb4e9859ec77c395.html#a3f27882b54715c7adb4e9859ec77c395" target="_top" xlink:title=" ">
<polygon fill="white" stroke="#666666" points="572,-72 432,-72 432,-42 572,-42 572,-72"/>
<text text-anchor="start" x="440" y="-60" font-family="Helvetica,sans-Serif" font-size="10.00">Terraria.GameContent.UI.</text>
<text text-anchor="middle" x="502" y="-49" font-family="Helvetica,sans-Serif" font-size="10.00">Elements.UIText.SetText</text>
</a>
</g>
</g>
<!-- Node3&#45;&gt;Node5 -->
<g id="edge4_Node000003_Node000005" class="edge">
<title>Node3&#45;&gt;Node5</title>
<g id="a_edge4_Node000003_Node000005"><a xlink:title=" ">
<path fill="none" stroke="#63b8ff" d="M376.21,-71C391.3,-69.3 406.88,-67.56 421.7,-65.89"/>
<polygon fill="#63b8ff" stroke="#63b8ff" points="422.28,-69.35 431.83,-64.76 421.5,-62.39 422.28,-69.35"/>
</a>
</g>
</g>
<!-- Node6 -->
<g id="Node000006" class="node">
<title>Node6</title>
<g id="a_Node000006"><a xlink:href="../../df/da8/classTerraria_1_1GameContent_1_1UI_1_1Elements_1_1UIText_a6b38a5021c0225460c802dc8376d39ac.html#a6b38a5021c0225460c802dc8376d39ac" target="_top" xlink:title=" ">
<polygon fill="white" stroke="#666666" points="801,-72 628,-72 628,-42 801,-42 801,-72"/>
<text text-anchor="start" x="636" y="-60" font-family="Helvetica,sans-Serif" font-size="10.00">Terraria.GameContent.UI.</text>
<text text-anchor="middle" x="714.5" y="-49" font-family="Helvetica,sans-Serif" font-size="10.00">Elements.UIText.InternalSetText</text>
</a>
</g>
</g>
<!-- Node5&#45;&gt;Node6 -->
<g id="edge5_Node000005_Node000006" class="edge">
<title>Node5&#45;&gt;Node6</title>
<g id="a_edge5_Node000005_Node000006"><a xlink:title=" ">
<path fill="none" stroke="#63b8ff" d="M572.22,-57C586.77,-57 602.36,-57 617.68,-57"/>
<polygon fill="#63b8ff" stroke="#63b8ff" points="617.7,-60.5 627.7,-57 617.7,-53.5 617.7,-60.5"/>
</a>
</g>
</g>
<!-- Node7 -->
<g id="Node000007" class="node">
<title>Node7</title>
<g id="a_Node000007"><a xlink:href="../../d7/d72/classTerraria_1_1UI_1_1UIElement_a5ad03f5ce0e776511a3b7e4a29e16caf.html#a5ad03f5ce0e776511a3b7e4a29e16caf" target="_top" xlink:title=" ">
<polygon fill="white" stroke="#666666" points="990.5,-138 849.5,-138 849.5,-108 990.5,-108 990.5,-138"/>
<text text-anchor="start" x="857.5" y="-126" font-family="Helvetica,sans-Serif" font-size="10.00">Terraria.UI.UIElement.Get</text>
<text text-anchor="middle" x="920" y="-115" font-family="Helvetica,sans-Serif" font-size="10.00">InnerDimensions</text>
</a>
</g>
</g>
<!-- Node6&#45;&gt;Node7 -->
<g id="edge6_Node000006_Node000007" class="edge">
<title>Node6&#45;&gt;Node7</title>
<g id="a_edge6_Node000006_Node000007"><a xlink:title=" ">
<path fill="none" stroke="#63b8ff" d="M757.51,-72.08C780.83,-80.31 810.42,-90.52 837,-99 843.12,-100.95 849.52,-102.93 855.92,-104.87"/>
<polygon fill="#63b8ff" stroke="#63b8ff" points="855.37,-108.36 865.95,-107.88 857.38,-101.65 855.37,-108.36"/>
</a>
</g>
</g>
<!-- Node8 -->
<g id="Node000008" class="node">
<title>Node8</title>
<g id="a_Node000008"><a xlink:href="../../d7/df6/classTerraria_1_1UI_1_1Chat_1_1ChatManager_ad0daac781e8696c59955af964519db95.html#ad0daac781e8696c59955af964519db95" target="_top" xlink:title=" ">
<polygon fill="white" stroke="#666666" points="1001.5,-72 838.5,-72 838.5,-42 1001.5,-42 1001.5,-72"/>
<text text-anchor="start" x="846.5" y="-60" font-family="Helvetica,sans-Serif" font-size="10.00">Terraria.UI.Chat.ChatManager.</text>
<text text-anchor="middle" x="920" y="-49" font-family="Helvetica,sans-Serif" font-size="10.00">GetStringSize</text>
</a>
</g>
</g>
<!-- Node6&#45;&gt;Node8 -->
<g id="edge7_Node000006_Node000008" class="edge">
<title>Node6&#45;&gt;Node8</title>
<g id="a_edge7_Node000006_Node000008"><a xlink:title=" ">
<path fill="none" stroke="#63b8ff" d="M801.21,-57C810.13,-57 819.22,-57 828.19,-57"/>
<polygon fill="#63b8ff" stroke="#63b8ff" points="828.26,-60.5 838.26,-57 828.26,-53.5 828.26,-60.5"/>
</a>
</g>
</g>
<!-- Node12 -->
<g id="Node000012" class="node">
<title>Node12</title>
<g id="a_Node000012"><a xlink:href="../../d8/d74/structTerraria_1_1UI_1_1StyleDimension_a93e6acf229427c6435d7ee83958efba0.html#a93e6acf229427c6435d7ee83958efba0" target="_top" xlink:title=" ">
<polygon fill="white" stroke="#666666" points="1003,-23.5 837,-23.5 837,-4.5 1003,-4.5 1003,-23.5"/>
<text text-anchor="middle" x="920" y="-11.5" font-family="Helvetica,sans-Serif" font-size="10.00">Terraria.UI.StyleDimension.Set</text>
</a>
</g>
</g>
<!-- Node6&#45;&gt;Node12 -->
<g id="edge12_Node000006_Node000012" class="edge">
<title>Node6&#45;&gt;Node12</title>
<g id="a_edge12_Node000006_Node000012"><a xlink:title=" ">
<path fill="none" stroke="#63b8ff" d="M786.67,-41.96C812.05,-36.6 840.22,-30.65 864.02,-25.62"/>
<polygon fill="#63b8ff" stroke="#63b8ff" points="864.88,-29.01 873.94,-23.52 863.43,-22.17 864.88,-29.01"/>
</a>
</g>
</g>
<!-- Node8&#45;&gt;Node8 -->
<g id="edge8_Node000008_Node000008" class="edge">
<title>Node8&#45;&gt;Node8</title>
<g id="a_edge8_Node000008_Node000008"><a xlink:title=" ">
<path fill="none" stroke="#63b8ff" d="M884.84,-72.28C877.03,-81.41 888.75,-90 920,-90 938.55,-90 950.22,-86.97 955.01,-82.6"/>
<polygon fill="#63b8ff" stroke="#63b8ff" points="958.51,-82.32 955.16,-72.28 951.51,-82.22 958.51,-82.32"/>
</a>
</g>
</g>
<!-- Node9 -->
<g id="Node000009" class="node">
<title>Node9</title>
<g id="a_Node000009"><a xlink:href="../../d7/df6/classTerraria_1_1UI_1_1Chat_1_1ChatManager_af687cd1f70060817f5984ef2b554cf40.html#af687cd1f70060817f5984ef2b554cf40" target="_top" xlink:title=" ">
<polygon fill="white" stroke="#666666" points="1202,-72 1039,-72 1039,-42 1202,-42 1202,-72"/>
<text text-anchor="start" x="1047" y="-60" font-family="Helvetica,sans-Serif" font-size="10.00">Terraria.UI.Chat.ChatManager.</text>
<text text-anchor="middle" x="1120.5" y="-49" font-family="Helvetica,sans-Serif" font-size="10.00">ParseMessage</text>
</a>
</g>
</g>
<!-- Node8&#45;&gt;Node9 -->
<g id="edge9_Node000008_Node000009" class="edge">
<title>Node8&#45;&gt;Node9</title>
<g id="a_edge9_Node000008_Node000009"><a xlink:title=" ">
<path fill="none" stroke="#63b8ff" d="M1001.74,-57C1010.63,-57 1019.72,-57 1028.73,-57"/>
<polygon fill="#63b8ff" stroke="#63b8ff" points="1028.83,-60.5 1038.83,-57 1028.83,-53.5 1028.83,-60.5"/>
</a>
</g>
</g>
<!-- Node10 -->
<g id="Node000010" class="node">
<title>Node10</title>
<g id="a_Node000010"><a xlink:href="../../d7/df6/classTerraria_1_1UI_1_1Chat_1_1ChatManager_ad57d7ce4542b2df5cd9ff15c86855f3f.html#ad57d7ce4542b2df5cd9ff15c86855f3f" target="_top" xlink:title=" ">
<polygon fill="white" stroke="#666666" points="1401,-96 1238,-96 1238,-66 1401,-66 1401,-96"/>
<text text-anchor="start" x="1246" y="-84" font-family="Helvetica,sans-Serif" font-size="10.00">Terraria.UI.Chat.ChatManager.</text>
<text text-anchor="middle" x="1319.5" y="-73" font-family="Helvetica,sans-Serif" font-size="10.00">GetHandler</text>
</a>
</g>
</g>
<!-- Node9&#45;&gt;Node10 -->
<g id="edge10_Node000009_Node000010" class="edge">
<title>Node9&#45;&gt;Node10</title>
<g id="a_edge10_Node000009_Node000010"><a xlink:title=" ">
<path fill="none" stroke="#63b8ff" d="M1202.2,-66.83C1210.67,-67.86 1219.33,-68.92 1227.91,-69.96"/>
<polygon fill="#63b8ff" stroke="#63b8ff" points="1227.58,-73.45 1237.93,-71.18 1228.43,-66.5 1227.58,-73.45"/>
</a>
</g>
</g>
<!-- Node11 -->
<g id="Node000011" class="node">
<title>Node11</title>
<g id="a_Node000011"><a xlink:href="../../dc/d25/interfaceTerraria_1_1UI_1_1Chat_1_1ITagHandler_aa5a15f340434dc9990b2b10b306642a6.html#aa5a15f340434dc9990b2b10b306642a6" target="_top" xlink:title=" ">
<polygon fill="white" stroke="#666666" points="1397,-48 1242,-48 1242,-18 1397,-18 1397,-48"/>
<text text-anchor="start" x="1250" y="-36" font-family="Helvetica,sans-Serif" font-size="10.00">Terraria.UI.Chat.ITagHandler.</text>
<text text-anchor="middle" x="1319.5" y="-25" font-family="Helvetica,sans-Serif" font-size="10.00">Parse</text>
</a>
</g>
</g>
<!-- Node9&#45;&gt;Node11 -->
<g id="edge11_Node000009_Node000011" class="edge">
<title>Node9&#45;&gt;Node11</title>
<g id="a_edge11_Node000009_Node000011"><a xlink:title=" ">
<path fill="none" stroke="#63b8ff" d="M1202.2,-47.17C1211.9,-45.99 1221.83,-44.78 1231.62,-43.58"/>
<polygon fill="#63b8ff" stroke="#63b8ff" points="1232.24,-47.04 1241.74,-42.35 1231.39,-40.09 1232.24,-47.04"/>
</a>
</g>
</g>
<!-- Node13&#45;&gt;Node13 -->
<g id="edge14_Node000013_Node000013" class="edge">
<title>Node13&#45;&gt;Node13</title>
<g id="a_edge14_Node000013_Node000013"><a xlink:title=" ">
<path fill="none" stroke="#63b8ff" d="M249.79,-30.28C241.74,-39.41 253.81,-48 286,-48 305.11,-48 317.13,-44.97 322.06,-40.6"/>
<polygon fill="#63b8ff" stroke="#63b8ff" points="325.56,-40.33 322.21,-30.28 318.56,-40.22 325.56,-40.33"/>
</a>
</g>
</g>
</g>
</svg>

<g id="navigator" transform="translate(0 0)" fill="#404254">
  <rect fill="#f2f5e9" fill-opacity="0.5" stroke="#606060" stroke-width=".5" x="0" y="0" width="60" height="60"/>
  <use id="zoomplus" xlink:href="#zoomPlus" x="17" y="9" onmousedown="handleZoom(evt,'in')"/>
  <use id="zoomminus" xlink:href="#zoomMin" x="42" y="9" onmousedown="handleZoom(evt,'out')"/>
  <use id="reset" xlink:href="#resetDef" x="30" y="36" onmousedown="handleReset()"/>
   <use id="arrowup" xlink:href="#arrowUp" x="0" y="0" onmousedown="handlePan(0,-1)"/>
  <use id="arrowright" xlink:href="#arrowRight" x="0" y="0" onmousedown="handlePan(1,0)"/>
  <use id="arrowdown" xlink:href="#arrowDown" x="0" y="0" onmousedown="handlePan(0,1)"/>
  <use id="arrowleft" xlink:href="#arrowLeft" x="0" y="0" onmousedown="handlePan(-1,0)"/>
</g>
<svg viewBox="0 0 15 15" width="100%" height="30px" preserveAspectRatio="xMaxYMin meet">
 <g id="arrow_out" transform="scale(0.3 0.3)">
  <a xlink:href="classTerraria_1_1ModLoader_1_1UI_1_1UIErrorMessage_a64b9cb891b90012a18f1c6ce1b87408d_a64b9cb891b90012a18f1c6ce1b87408d_cgraph_org.svg" target="_base">
   <rect id="button" ry="5" rx="5" y="6" x="6" height="38" width="38"
        fill="#f2f5e9" fill-opacity="0.5" stroke="#606060" stroke-width="1.0"/>
   <path id="arrow"
     d="M 11.500037,31.436501 C 11.940474,20.09759 22.043105,11.32322 32.158766,21.979434 L 37.068811,17.246167 C 37.068811,17.246167 37.088388,32 37.088388,32 L 22.160133,31.978069 C 22.160133,31.978069 26.997745,27.140456 26.997745,27.140456 C 18.528582,18.264221 13.291696,25.230495 11.500037,31.436501 z"
     style="fill:#404040;"/>
  </a>
 </g>
</svg>

<style type='text/css'>
<![CDATA[
[data-mouse-over-selected='false'] { opacity: 0.7; }
[data-mouse-over-selected='true']  { opacity: 1.0; }
]]>
</style>
<script type="application/ecmascript"><![CDATA[
document.addEventListener('DOMContentLoaded', (event) => {
  highlightEdges();
  highlightAdjacentNodes();
});
]]></script>
</svg>
