<?xml version="1.0" encoding="UTF-8" standalone="no"?>
<!DOCTYPE svg PUBLIC "-//W3C//DTD SVG 1.1//EN"
 "http://www.w3.org/Graphics/SVG/1.1/DTD/svg11.dtd">
<!-- Generated by graphviz version 2.43.0 (0)
 -->
<!-- Title: Terraria.GameContent.UI.Elements.UISearchBar.SetContents Pages: 1 -->
<svg width="633pt" height="134pt"
 viewBox="0.00 0.00 633.00 134.00" xmlns="http://www.w3.org/2000/svg" xmlns:xlink="http://www.w3.org/1999/xlink">
<g id="graph0" class="graph" transform="scale(1 1) rotate(0) translate(4 130)">
<title>Terraria.GameContent.UI.Elements.UISearchBar.SetContents</title>
<!-- Node1 -->
<g id="Node000001" class="node">
<title>Node1</title>
<g id="a_Node000001"><a xlink:title=" ">
<polygon fill="#999999" stroke="#666666" points="187,-101 0,-101 0,-71 187,-71 187,-101"/>
<text text-anchor="start" x="8" y="-89" font-family="Helvetica,sans-Serif" font-size="10.00">Terraria.GameContent.UI.</text>
<text text-anchor="middle" x="93.5" y="-78" font-family="Helvetica,sans-Serif" font-size="10.00">Elements.UISearchBar.SetContents</text>
</a>
</g>
</g>
<!-- Node2 -->
<g id="Node000002" class="node">
<title>Node2</title>
<g id="a_Node000002"><a xlink:href="../../d5/dec/classTerraria_1_1GameContent_1_1UI_1_1Elements_1_1UITextBox_ae75c01e7bc43eae39b018b52aabe5e6f.html#ae75c01e7bc43eae39b018b52aabe5e6f" target="_top" xlink:title=" ">
<polygon fill="white" stroke="#666666" points="611.5,-126 457.5,-126 457.5,-96 611.5,-96 611.5,-126"/>
<text text-anchor="start" x="465.5" y="-114" font-family="Helvetica,sans-Serif" font-size="10.00">Terraria.GameContent.UI.</text>
<text text-anchor="middle" x="534.5" y="-103" font-family="Helvetica,sans-Serif" font-size="10.00">Elements.UITextBox.SetText</text>
</a>
</g>
</g>
<!-- Node1&#45;&gt;Node2 -->
<g id="edge1_Node000001_Node000002" class="edge">
<title>Node1&#45;&gt;Node2</title>
<g id="a_edge1_Node000001_Node000002"><a xlink:title=" ">
<path fill="none" stroke="#63b8ff" d="M187.06,-91.27C263.83,-95.64 372.15,-101.81 447.14,-106.08"/>
<polygon fill="#63b8ff" stroke="#63b8ff" points="447.31,-109.6 457.49,-106.67 447.71,-102.61 447.31,-109.6"/>
</a>
</g>
</g>
<!-- Node3 -->
<g id="Node000003" class="node">
<title>Node3</title>
<g id="a_Node000003"><a xlink:href="../../dd/d16/classTerraria_1_1GameContent_1_1UI_1_1Elements_1_1UISearchBar_a98378cbd0d97a8b4436fd514aa8c3fa1.html#a98378cbd0d97a8b4436fd514aa8c3fa1" target="_top" xlink:title=" ">
<polygon fill="white" stroke="#666666" points="408,-82.5 223,-82.5 223,-41.5 408,-41.5 408,-82.5"/>
<text text-anchor="start" x="231" y="-70.5" font-family="Helvetica,sans-Serif" font-size="10.00">Terraria.GameContent.UI.</text>
<text text-anchor="start" x="231" y="-59.5" font-family="Helvetica,sans-Serif" font-size="10.00">Elements.UISearchBar.TrimDisplay</text>
<text text-anchor="middle" x="315.5" y="-48.5" font-family="Helvetica,sans-Serif" font-size="10.00">IfOverElementDimensions</text>
</a>
</g>
</g>
<!-- Node1&#45;&gt;Node3 -->
<g id="edge2_Node000001_Node000003" class="edge">
<title>Node1&#45;&gt;Node3</title>
<g id="a_edge2_Node000001_Node000003"><a xlink:title=" ">
<path fill="none" stroke="#63b8ff" d="M187.16,-75.89C195.6,-74.97 204.18,-74.03 212.7,-73.11"/>
<polygon fill="#63b8ff" stroke="#63b8ff" points="213.09,-76.58 222.65,-72.02 212.33,-69.63 213.09,-76.58"/>
</a>
</g>
</g>
<!-- Node3&#45;&gt;Node2 -->
<g id="edge5_Node000003_Node000002" class="edge">
<title>Node3&#45;&gt;Node2</title>
<g id="a_edge5_Node000003_Node000002"><a xlink:title=" ">
<path fill="none" stroke="#63b8ff" d="M407.58,-82.57C424.1,-86.3 441.18,-90.15 457.22,-93.78"/>
<polygon fill="#63b8ff" stroke="#63b8ff" points="456.53,-97.21 467.06,-96 458.08,-90.38 456.53,-97.21"/>
</a>
</g>
</g>
<!-- Node4 -->
<g id="Node000004" class="node">
<title>Node4</title>
<g id="a_Node000004"><a xlink:href="../../d7/d72/classTerraria_1_1UI_1_1UIElement_abeb7b32927c9b86a4b1a4139e45ac6a5.html#abeb7b32927c9b86a4b1a4139e45ac6a5" target="_top" xlink:title=" ">
<polygon fill="white" stroke="#666666" points="605,-78 464,-78 464,-48 605,-48 605,-78"/>
<text text-anchor="start" x="472" y="-66" font-family="Helvetica,sans-Serif" font-size="10.00">Terraria.UI.UIElement.Get</text>
<text text-anchor="middle" x="534.5" y="-55" font-family="Helvetica,sans-Serif" font-size="10.00">Dimensions</text>
</a>
</g>
</g>
<!-- Node3&#45;&gt;Node4 -->
<g id="edge3_Node000003_Node000004" class="edge">
<title>Node3&#45;&gt;Node4</title>
<g id="a_edge3_Node000003_Node000004"><a xlink:title=" ">
<path fill="none" stroke="#63b8ff" d="M408.21,-62.42C423.34,-62.49 438.92,-62.56 453.73,-62.63"/>
<polygon fill="#63b8ff" stroke="#63b8ff" points="453.83,-66.13 463.84,-62.68 453.86,-59.13 453.83,-66.13"/>
</a>
</g>
</g>
<!-- Node5 -->
<g id="Node000005" class="node">
<title>Node5</title>
<g id="a_Node000005"><a xlink:href="../../d7/d72/classTerraria_1_1UI_1_1UIElement_a8bf52a8c33b045d1df8dbcc96bcbc818.html#a8bf52a8c33b045d1df8dbcc96bcbc818" target="_top" xlink:title=" ">
<polygon fill="white" stroke="#666666" points="625,-30 444,-30 444,0 625,0 625,-30"/>
<text text-anchor="start" x="452" y="-18" font-family="Helvetica,sans-Serif" font-size="10.00">Terraria.UI.UIElement.Recalculate</text>
<text text-anchor="middle" x="534.5" y="-7" font-family="Helvetica,sans-Serif" font-size="10.00">Children</text>
</a>
</g>
</g>
<!-- Node3&#45;&gt;Node5 -->
<g id="edge4_Node000003_Node000005" class="edge">
<title>Node3&#45;&gt;Node5</title>
<g id="a_edge4_Node000003_Node000005"><a xlink:title=" ">
<path fill="none" stroke="#63b8ff" d="M408.21,-42.14C423.44,-38.84 439.12,-35.44 454.01,-32.22"/>
<polygon fill="#63b8ff" stroke="#63b8ff" points="455.14,-35.55 464.17,-30.02 453.66,-28.71 455.14,-35.55"/>
</a>
</g>
</g>
</g>
</svg>
