<?xml version="1.0" encoding="UTF-8" standalone="no"?>
<!DOCTYPE svg PUBLIC "-//W3C//DTD SVG 1.1//EN"
 "http://www.w3.org/Graphics/SVG/1.1/DTD/svg11.dtd">
<!-- Generated by graphviz version 2.43.0 (0)
 -->
<!-- Title: Terraria.GameContent.Creative.ItemFilters.BySearch Pages: 1 -->
<svg width="356pt" height="600pt"
 viewBox="0.00 0.00 356.00 600.00" xmlns="http://www.w3.org/2000/svg" xmlns:xlink="http://www.w3.org/1999/xlink">
<g id="graph0" class="graph" transform="scale(1 1) rotate(0) translate(4 596)">
<title>Terraria.GameContent.Creative.ItemFilters.BySearch</title>
<!-- Node1 -->
<g id="Node000001" class="node">
<title>Node1</title>
<g id="a_Node000001"><a xlink:title=" ">
<polygon fill="#999999" stroke="transparent" points="226.5,-232 60.5,-232 60.5,0 226.5,0 226.5,-232"/>
<text text-anchor="start" x="66" y="-220" font-family="Helvetica,sans-Serif" font-size="10.00">Terraria.GameContent.Creative.</text>
<text text-anchor="start" x="92.5" y="-209" font-family="Helvetica,sans-Serif" font-size="10.00">ItemFilters.BySearch</text>
<text text-anchor="start" x="67" y="-194" font-family="Helvetica,sans-Serif" font-size="10.00">&#45;</text>
<text text-anchor="start" x="77.5" y="-194" font-family="Helvetica,sans-Serif" font-size="10.00">string[] _toolTipLines</text>
<text text-anchor="start" x="67" y="-179" font-family="Helvetica,sans-Serif" font-size="10.00">&#45;</text>
<text text-anchor="start" x="77.5" y="-179" font-family="Helvetica,sans-Serif" font-size="10.00">bool[] _unusedPrefixLine</text>
<text text-anchor="start" x="67" y="-164" font-family="Helvetica,sans-Serif" font-size="10.00">&#45;</text>
<text text-anchor="start" x="77.5" y="-164" font-family="Helvetica,sans-Serif" font-size="10.00">bool[] _unusedBadPrefixLines</text>
<text text-anchor="start" x="67" y="-149" font-family="Helvetica,sans-Serif" font-size="10.00">&#45;</text>
<text text-anchor="start" x="77.5" y="-149" font-family="Helvetica,sans-Serif" font-size="10.00">int _unusedYoyoLogo</text>
<text text-anchor="start" x="67" y="-134" font-family="Helvetica,sans-Serif" font-size="10.00">&#45;</text>
<text text-anchor="start" x="77.5" y="-134" font-family="Helvetica,sans-Serif" font-size="10.00">int _unusedResearchLine</text>
<text text-anchor="start" x="67" y="-119" font-family="Helvetica,sans-Serif" font-size="10.00">&#45;</text>
<text text-anchor="start" x="77.5" y="-119" font-family="Helvetica,sans-Serif" font-size="10.00">string _search</text>
<text text-anchor="start" x="67" y="-104" font-family="Helvetica,sans-Serif" font-size="10.00">&#45;</text>
<text text-anchor="start" x="77.5" y="-104" font-family="Helvetica,sans-Serif" font-size="10.00">string[] _toolTipNames</text>
<text text-anchor="start" x="67" y="-89" font-family="Helvetica,sans-Serif" font-size="10.00">&#45;</text>
<text text-anchor="start" x="77.5" y="-89" font-family="Helvetica,sans-Serif" font-size="10.00">const int _tooltipMaxLines</text>
<text text-anchor="start" x="64.5" y="-74" font-family="Helvetica,sans-Serif" font-size="10.00">+</text>
<text text-anchor="start" x="77.5" y="-74" font-family="Helvetica,sans-Serif" font-size="10.00">bool FitsFilter(Item</text>
<text text-anchor="start" x="77.5" y="-63" font-family="Helvetica,sans-Serif" font-size="10.00"> entry)</text>
<text text-anchor="start" x="64.5" y="-48" font-family="Helvetica,sans-Serif" font-size="10.00">+</text>
<text text-anchor="start" x="77.5" y="-48" font-family="Helvetica,sans-Serif" font-size="10.00">string GetDisplayNameKey()</text>
<text text-anchor="start" x="64.5" y="-33" font-family="Helvetica,sans-Serif" font-size="10.00">+</text>
<text text-anchor="start" x="77.5" y="-33" font-family="Helvetica,sans-Serif" font-size="10.00">UIElement GetImage()</text>
<text text-anchor="start" x="64.5" y="-18" font-family="Helvetica,sans-Serif" font-size="10.00">+</text>
<text text-anchor="start" x="77.5" y="-18" font-family="Helvetica,sans-Serif" font-size="10.00">void SetSearch(string</text>
<text text-anchor="start" x="77.5" y="-7" font-family="Helvetica,sans-Serif" font-size="10.00"> searchText)</text>
<polygon fill="#666666" stroke="#666666" points="60.5,-204 60.5,-204 226.5,-204 226.5,-204 60.5,-204"/>
<polygon fill="#666666" stroke="#666666" points="60.5,-84 60.5,-84 75.5,-84 75.5,-84 60.5,-84"/>
<polygon fill="#666666" stroke="#666666" points="75.5,-84 75.5,-84 226.5,-84 226.5,-84 75.5,-84"/>
<polygon fill="none" stroke="#666666" points="60.5,0 60.5,-232 226.5,-232 226.5,0 60.5,0"/>
</a>
</g>
</g>
<!-- Node2 -->
<g id="Node000002" class="node">
<title>Node2</title>
<g id="a_Node000002"><a xlink:href="../../d4/df1/interfaceTerraria_1_1GameContent_1_1Creative_1_1IItemEntryFilter.html" target="_top" xlink:title=" ">
<polygon fill="white" stroke="transparent" points="186.5,-323.5 100.5,-323.5 100.5,-274.5 186.5,-274.5 186.5,-323.5"/>
<text text-anchor="start" x="105.5" y="-311" font-family="Helvetica,sans-Serif" font-size="10.00">IItemEntryFilter</text>
<text text-anchor="start" x="141.5" y="-296" font-family="Helvetica,sans-Serif" font-size="10.00"> </text>
<text text-anchor="start" x="141.5" y="-281" font-family="Helvetica,sans-Serif" font-size="10.00"> </text>
<polygon fill="#666666" stroke="#666666" points="100.5,-306 100.5,-306 186.5,-306 186.5,-306 100.5,-306"/>
<polygon fill="#666666" stroke="#666666" points="100.5,-291 100.5,-291 186.5,-291 186.5,-291 100.5,-291"/>
<polygon fill="none" stroke="#666666" points="100.5,-274.5 100.5,-323.5 186.5,-323.5 186.5,-274.5 100.5,-274.5"/>
</a>
</g>
</g>
<!-- Node2&#45;&gt;Node1 -->
<g id="edge1_Node000001_Node000002" class="edge">
<title>Node2&#45;&gt;Node1</title>
<g id="a_edge1_Node000001_Node000002"><a xlink:title=" ">
<path fill="none" stroke="#63b8ff" d="M143.5,-264.22C143.5,-254.69 143.5,-243.75 143.5,-232.24"/>
<polygon fill="none" stroke="#63b8ff" points="140,-264.34 143.5,-274.34 147,-264.34 140,-264.34"/>
</a>
</g>
</g>
<!-- Node3 -->
<g id="Node000003" class="node">
<title>Node3</title>
<g id="a_Node000003"><a xlink:href="../../d1/dfd/interfaceTerraria_1_1DataStructures_1_1IEntryFilter.html" target="_top" xlink:title=" ">
<polygon fill="white" stroke="transparent" points="161,-455 0,-455 0,-376 161,-376 161,-455"/>
<text text-anchor="start" x="31.5" y="-442.5" font-family="Helvetica,sans-Serif" font-size="10.00">IEntryFilter&lt; Item &gt;</text>
<text text-anchor="start" x="79" y="-427.5" font-family="Helvetica,sans-Serif" font-size="10.00"> </text>
<text text-anchor="start" x="4.5" y="-412.5" font-family="Helvetica,sans-Serif" font-size="10.00">+</text>
<text text-anchor="start" x="17.5" y="-412.5" font-family="Helvetica,sans-Serif" font-size="10.00">bool FitsFilter(T entry)</text>
<text text-anchor="start" x="4.5" y="-397.5" font-family="Helvetica,sans-Serif" font-size="10.00">+</text>
<text text-anchor="start" x="17.5" y="-397.5" font-family="Helvetica,sans-Serif" font-size="10.00">string GetDisplayNameKey()</text>
<text text-anchor="start" x="4.5" y="-382.5" font-family="Helvetica,sans-Serif" font-size="10.00">+</text>
<text text-anchor="start" x="17.5" y="-382.5" font-family="Helvetica,sans-Serif" font-size="10.00">UIElement GetImage()</text>
<polygon fill="#666666" stroke="#666666" points="0.5,-437.5 0.5,-437.5 161.5,-437.5 161.5,-437.5 0.5,-437.5"/>
<polygon fill="#666666" stroke="#666666" points="0.5,-422.5 0.5,-422.5 161.5,-422.5 161.5,-422.5 0.5,-422.5"/>
<polygon fill="none" stroke="#666666" points="0,-376 0,-455 161,-455 161,-376 0,-376"/>
</a>
</g>
</g>
<!-- Node3&#45;&gt;Node1 -->
<g id="edge4_Node000001_Node000003" class="edge">
<title>Node3&#45;&gt;Node1</title>
<g id="a_edge4_Node000001_Node000003"><a xlink:title=" ">
<path fill="none" stroke="#63b8ff" d="M81.1,-365.74C82.22,-337.28 84.96,-300.82 91.5,-269 93.97,-256.98 97.12,-244.6 100.66,-232.34"/>
<polygon fill="none" stroke="#63b8ff" points="77.6,-365.73 80.76,-375.84 84.6,-365.96 77.6,-365.73"/>
</a>
</g>
</g>
<!-- Node3&#45;&gt;Node2 -->
<g id="edge2_Node000002_Node000003" class="edge">
<title>Node3&#45;&gt;Node2</title>
<g id="a_edge2_Node000002_Node000003"><a xlink:title=" ">
<path fill="none" stroke="#63b8ff" d="M106.83,-366.65C114.99,-351.82 123.62,-336.13 130.46,-323.7"/>
<polygon fill="none" stroke="#63b8ff" points="103.58,-365.29 101.83,-375.74 109.72,-368.66 103.58,-365.29"/>
</a>
</g>
</g>
<!-- Node4 -->
<g id="Node000004" class="node">
<title>Node4</title>
<g id="a_Node000004"><a xlink:href="../../d1/dfd/interfaceTerraria_1_1DataStructures_1_1IEntryFilter.html" target="_top" xlink:title=" ">
<polygon fill="white" stroke="transparent" points="161,-592 0,-592 0,-502 161,-502 161,-592"/>
<text text-anchor="start" x="23" y="-580" font-family="Helvetica,sans-Serif" font-size="10.00">Terraria.DataStructures.</text>
<text text-anchor="start" x="40" y="-569" font-family="Helvetica,sans-Serif" font-size="10.00">IEntryFilter&lt; T &gt;</text>
<text text-anchor="start" x="79" y="-554" font-family="Helvetica,sans-Serif" font-size="10.00"> </text>
<text text-anchor="start" x="4.5" y="-539" font-family="Helvetica,sans-Serif" font-size="10.00">+</text>
<text text-anchor="start" x="17.5" y="-539" font-family="Helvetica,sans-Serif" font-size="10.00">bool FitsFilter(T entry)</text>
<text text-anchor="start" x="4.5" y="-524" font-family="Helvetica,sans-Serif" font-size="10.00">+</text>
<text text-anchor="start" x="17.5" y="-524" font-family="Helvetica,sans-Serif" font-size="10.00">string GetDisplayNameKey()</text>
<text text-anchor="start" x="4.5" y="-509" font-family="Helvetica,sans-Serif" font-size="10.00">+</text>
<text text-anchor="start" x="17.5" y="-509" font-family="Helvetica,sans-Serif" font-size="10.00">UIElement GetImage()</text>
<polygon fill="#666666" stroke="#666666" points="0.5,-564 0.5,-564 161.5,-564 161.5,-564 0.5,-564"/>
<polygon fill="#666666" stroke="#666666" points="0.5,-549 0.5,-549 161.5,-549 161.5,-549 0.5,-549"/>
<polygon fill="none" stroke="#666666" points="0,-502 0,-592 161,-592 161,-502 0,-502"/>
</a>
</g>
</g>
<!-- Node4&#45;&gt;Node3 -->
<g id="edge3_Node000003_Node000004" class="edge">
<title>Node4&#45;&gt;Node3</title>
<g id="a_edge3_Node000003_Node000004"><a xlink:title=" ">
<path fill="none" stroke="orange" d="M80.5,-491.69C80.5,-479.47 80.5,-466.74 80.5,-455.31"/>
<polygon fill="orange" stroke="orange" points="77,-491.8 80.5,-501.8 84,-491.8 77,-491.8"/>
</a>
</g>
<text text-anchor="middle" x="105" y="-476" font-family="Helvetica,sans-Serif" font-size="10.00" fill="grey"> &lt; Item &gt;</text>
</g>
<!-- Node5 -->
<g id="Node000005" class="node">
<title>Node5</title>
<g id="a_Node000005"><a xlink:href="../../de/d3a/interfaceTerraria_1_1DataStructures_1_1ISearchFilter.html" target="_top" xlink:title=" ">
<polygon fill="white" stroke="transparent" points="330.5,-329 204.5,-329 204.5,-269 330.5,-269 330.5,-329"/>
<text text-anchor="start" x="214.5" y="-317" font-family="Helvetica,sans-Serif" font-size="10.00">ISearchFilter&lt; Item &gt;</text>
<text text-anchor="start" x="265.5" y="-302" font-family="Helvetica,sans-Serif" font-size="10.00"> </text>
<text text-anchor="start" x="208.5" y="-287" font-family="Helvetica,sans-Serif" font-size="10.00">+</text>
<text text-anchor="start" x="221.5" y="-287" font-family="Helvetica,sans-Serif" font-size="10.00">void SetSearch(string</text>
<text text-anchor="start" x="221.5" y="-276" font-family="Helvetica,sans-Serif" font-size="10.00"> searchText)</text>
<polygon fill="#666666" stroke="#666666" points="204.5,-312 204.5,-312 330.5,-312 330.5,-312 204.5,-312"/>
<polygon fill="#666666" stroke="#666666" points="204.5,-297 204.5,-297 330.5,-297 330.5,-297 204.5,-297"/>
<polygon fill="none" stroke="#666666" points="204.5,-269 204.5,-329 330.5,-329 330.5,-269 204.5,-269"/>
</a>
</g>
</g>
<!-- Node5&#45;&gt;Node1 -->
<g id="edge5_Node000001_Node000005" class="edge">
<title>Node5&#45;&gt;Node1</title>
<g id="a_edge5_Node000001_Node000005"><a xlink:title=" ">
<path fill="none" stroke="#63b8ff" d="M241.88,-260.6C235.93,-251.92 229.29,-242.23 222.35,-232.1"/>
<polygon fill="none" stroke="#63b8ff" points="239.04,-262.65 247.58,-268.92 244.81,-258.69 239.04,-262.65"/>
</a>
</g>
</g>
<!-- Node6 -->
<g id="Node000006" class="node">
<title>Node6</title>
<g id="a_Node000006"><a xlink:href="../../de/d3a/interfaceTerraria_1_1DataStructures_1_1ISearchFilter.html" target="_top" xlink:title=" ">
<polygon fill="white" stroke="transparent" points="330.5,-451 204.5,-451 204.5,-380 330.5,-380 330.5,-451"/>
<text text-anchor="start" x="209.5" y="-438.5" font-family="Helvetica,sans-Serif" font-size="10.00">Terraria.DataStructures.</text>
<text text-anchor="start" x="222.5" y="-427.5" font-family="Helvetica,sans-Serif" font-size="10.00">ISearchFilter&lt; T &gt;</text>
<text text-anchor="start" x="265.5" y="-412.5" font-family="Helvetica,sans-Serif" font-size="10.00"> </text>
<text text-anchor="start" x="208.5" y="-397.5" font-family="Helvetica,sans-Serif" font-size="10.00">+</text>
<text text-anchor="start" x="221.5" y="-397.5" font-family="Helvetica,sans-Serif" font-size="10.00">void SetSearch(string</text>
<text text-anchor="start" x="221.5" y="-386.5" font-family="Helvetica,sans-Serif" font-size="10.00"> searchText)</text>
<polygon fill="#666666" stroke="#666666" points="204.5,-422.5 204.5,-422.5 330.5,-422.5 330.5,-422.5 204.5,-422.5"/>
<polygon fill="#666666" stroke="#666666" points="204.5,-407.5 204.5,-407.5 330.5,-407.5 330.5,-407.5 204.5,-407.5"/>
<polygon fill="none" stroke="#666666" points="204.5,-380 204.5,-451 330.5,-451 330.5,-380 204.5,-380"/>
</a>
</g>
</g>
<!-- Node6&#45;&gt;Node5 -->
<g id="edge6_Node000005_Node000006" class="edge">
<title>Node6&#45;&gt;Node5</title>
<g id="a_edge6_Node000005_Node000006"><a xlink:title=" ">
<path fill="none" stroke="orange" d="M267.5,-369.67C267.5,-356.05 267.5,-341.45 267.5,-329.14"/>
<polygon fill="orange" stroke="orange" points="264,-369.84 267.5,-379.84 271,-369.84 264,-369.84"/>
</a>
</g>
<text text-anchor="middle" x="292" y="-350" font-family="Helvetica,sans-Serif" font-size="10.00" fill="grey"> &lt; Item &gt;</text>
</g>
<!-- Node7 -->
<g id="Node000007" class="node">
<title>Node7</title>
<g id="a_Node000007"><a xlink:href="../../d1/dfd/interfaceTerraria_1_1DataStructures_1_1IEntryFilter.html" target="_top" xlink:title=" ">
<polygon fill="white" stroke="transparent" points="348,-586.5 187,-586.5 187,-507.5 348,-507.5 348,-586.5"/>
<text text-anchor="start" x="227" y="-574" font-family="Helvetica,sans-Serif" font-size="10.00">IEntryFilter&lt; T &gt;</text>
<text text-anchor="start" x="266" y="-559" font-family="Helvetica,sans-Serif" font-size="10.00"> </text>
<text text-anchor="start" x="191.5" y="-544" font-family="Helvetica,sans-Serif" font-size="10.00">+</text>
<text text-anchor="start" x="204.5" y="-544" font-family="Helvetica,sans-Serif" font-size="10.00">bool FitsFilter(T entry)</text>
<text text-anchor="start" x="191.5" y="-529" font-family="Helvetica,sans-Serif" font-size="10.00">+</text>
<text text-anchor="start" x="204.5" y="-529" font-family="Helvetica,sans-Serif" font-size="10.00">string GetDisplayNameKey()</text>
<text text-anchor="start" x="191.5" y="-514" font-family="Helvetica,sans-Serif" font-size="10.00">+</text>
<text text-anchor="start" x="204.5" y="-514" font-family="Helvetica,sans-Serif" font-size="10.00">UIElement GetImage()</text>
<polygon fill="#666666" stroke="#666666" points="187.5,-569 187.5,-569 348.5,-569 348.5,-569 187.5,-569"/>
<polygon fill="#666666" stroke="#666666" points="187.5,-554 187.5,-554 348.5,-554 348.5,-554 187.5,-554"/>
<polygon fill="none" stroke="#666666" points="187,-507.5 187,-586.5 348,-586.5 348,-507.5 187,-507.5"/>
</a>
</g>
</g>
<!-- Node7&#45;&gt;Node6 -->
<g id="edge7_Node000006_Node000007" class="edge">
<title>Node7&#45;&gt;Node6</title>
<g id="a_edge7_Node000006_Node000007"><a xlink:title=" ">
<path fill="none" stroke="#63b8ff" d="M267.5,-497.14C267.5,-481.82 267.5,-465.23 267.5,-451.11"/>
<polygon fill="none" stroke="#63b8ff" points="264,-497.5 267.5,-507.5 271,-497.5 264,-497.5"/>
</a>
</g>
</g>
</g>
</svg>
