<?xml version="1.0" encoding="UTF-8" standalone="no"?>
<!DOCTYPE svg PUBLIC "-//W3C//DTD SVG 1.1//EN"
 "http://www.w3.org/Graphics/SVG/1.1/DTD/svg11.dtd">
<!-- Generated by graphviz version 2.43.0 (0)
 -->
<!-- Title: Terraria.GameContent.UI.States.UIWorkshopSelectWorldToPublish.SetupGamepadPoints Pages: 1 -->
<svg width="785pt" height="206pt"
 viewBox="0.00 0.00 785.00 206.00" xmlns="http://www.w3.org/2000/svg" xmlns:xlink="http://www.w3.org/1999/xlink">
<g id="graph0" class="graph" transform="scale(1 1) rotate(0) translate(4 202)">
<title>Terraria.GameContent.UI.States.UIWorkshopSelectWorldToPublish.SetupGamepadPoints</title>
<!-- Node1 -->
<g id="Node000001" class="node">
<title>Node1</title>
<g id="a_Node000001"><a xlink:title=" ">
<polygon fill="#999999" stroke="#666666" points="170,-107.5 0,-107.5 0,-66.5 170,-66.5 170,-107.5"/>
<text text-anchor="start" x="8" y="-95.5" font-family="Helvetica,sans-Serif" font-size="10.00">Terraria.GameContent.UI.</text>
<text text-anchor="start" x="8" y="-84.5" font-family="Helvetica,sans-Serif" font-size="10.00">States.UIWorkshopSelectWorld</text>
<text text-anchor="middle" x="85" y="-73.5" font-family="Helvetica,sans-Serif" font-size="10.00">ToPublish.SetupGamepadPoints</text>
</a>
</g>
</g>
<!-- Node2 -->
<g id="Node000002" class="node">
<title>Node2</title>
<g id="a_Node000002"><a xlink:href="../../d4/dc5/classTerraria_1_1UI_1_1Gamepad_1_1UILinkPointNavigator_a777aac1c14d559cf80455e2e5e7322b4.html#a777aac1c14d559cf80455e2e5e7322b4" target="_top" xlink:title=" ">
<polygon fill="white" stroke="#666666" points="359,-174 206,-174 206,-144 359,-144 359,-174"/>
<text text-anchor="start" x="214" y="-162" font-family="Helvetica,sans-Serif" font-size="10.00">Terraria.UI.Gamepad.UILink</text>
<text text-anchor="middle" x="282.5" y="-151" font-family="Helvetica,sans-Serif" font-size="10.00">PointNavigator.ChangePoint</text>
</a>
</g>
</g>
<!-- Node1&#45;&gt;Node2 -->
<g id="edge1_Node000001_Node000002" class="edge">
<title>Node1&#45;&gt;Node2</title>
<g id="a_edge1_Node000001_Node000002"><a xlink:title=" ">
<path fill="none" stroke="#63b8ff" d="M135.03,-107.55C156.65,-116.37 182.45,-126.56 206,-135 211.39,-136.93 217.03,-138.87 222.68,-140.76"/>
<polygon fill="#63b8ff" stroke="#63b8ff" points="221.59,-144.09 232.18,-143.89 223.78,-137.44 221.59,-144.09"/>
</a>
</g>
</g>
<!-- Node6 -->
<g id="Node000006" class="node">
<title>Node6</title>
<g id="a_Node000006"><a xlink:href="../../d7/d72/classTerraria_1_1UI_1_1UIElement_afb84cbf07b70e4953ade34b6d01c4738.html#afb84cbf07b70e4953ade34b6d01c4738" target="_top" xlink:title=" ">
<polygon fill="white" stroke="#666666" points="353,-126 212,-126 212,-96 353,-96 353,-126"/>
<text text-anchor="start" x="220" y="-114" font-family="Helvetica,sans-Serif" font-size="10.00">Terraria.UI.UIElement.Get</text>
<text text-anchor="middle" x="282.5" y="-103" font-family="Helvetica,sans-Serif" font-size="10.00">ClippingRectangle</text>
</a>
</g>
</g>
<!-- Node1&#45;&gt;Node6 -->
<g id="edge6_Node000001_Node000006" class="edge">
<title>Node1&#45;&gt;Node6</title>
<g id="a_edge6_Node000001_Node000006"><a xlink:title=" ">
<path fill="none" stroke="#63b8ff" d="M170.04,-97.32C180.63,-98.62 191.44,-99.94 201.95,-101.23"/>
<polygon fill="#63b8ff" stroke="#63b8ff" points="201.58,-104.71 211.93,-102.46 202.43,-97.77 201.58,-104.71"/>
</a>
</g>
</g>
<!-- Node7 -->
<g id="Node000007" class="node">
<title>Node7</title>
<g id="a_Node000007"><a xlink:href="../../d7/d72/classTerraria_1_1UI_1_1UIElement_aed036064fe14a49d7f2fe9da836eef78.html#aed036064fe14a49d7f2fe9da836eef78" target="_top" xlink:title=" ">
<polygon fill="white" stroke="#666666" points="353,-78 212,-78 212,-48 353,-48 353,-78"/>
<text text-anchor="start" x="220" y="-66" font-family="Helvetica,sans-Serif" font-size="10.00">Terraria.UI.UIElement.Get</text>
<text text-anchor="middle" x="282.5" y="-55" font-family="Helvetica,sans-Serif" font-size="10.00">SnapPoints</text>
</a>
</g>
</g>
<!-- Node1&#45;&gt;Node7 -->
<g id="edge7_Node000001_Node000007" class="edge">
<title>Node1&#45;&gt;Node7</title>
<g id="a_edge7_Node000001_Node000007"><a xlink:title=" ">
<path fill="none" stroke="#63b8ff" d="M170.04,-76.68C180.63,-75.38 191.44,-74.06 201.95,-72.77"/>
<polygon fill="#63b8ff" stroke="#63b8ff" points="202.43,-76.23 211.93,-71.54 201.58,-69.29 202.43,-76.23"/>
</a>
</g>
</g>
<!-- Node10 -->
<g id="Node000010" class="node">
<title>Node10</title>
<g id="a_Node000010"><a xlink:href="../../d4/dc5/classTerraria_1_1UI_1_1Gamepad_1_1UILinkPointNavigator_ac28776d33a359203c79dd1d72f217981.html#ac28776d33a359203c79dd1d72f217981" target="_top" xlink:title=" ">
<polygon fill="white" stroke="#666666" points="358,-30 207,-30 207,0 358,0 358,-30"/>
<text text-anchor="start" x="215" y="-18" font-family="Helvetica,sans-Serif" font-size="10.00">Terraria.UI.Gamepad.UILink</text>
<text text-anchor="middle" x="282.5" y="-7" font-family="Helvetica,sans-Serif" font-size="10.00">PointNavigator.SetPosition</text>
</a>
</g>
</g>
<!-- Node1&#45;&gt;Node10 -->
<g id="edge10_Node000001_Node000010" class="edge">
<title>Node1&#45;&gt;Node10</title>
<g id="a_edge10_Node000001_Node000010"><a xlink:title=" ">
<path fill="none" stroke="#63b8ff" d="M135.03,-66.45C156.65,-57.63 182.45,-47.44 206,-39 211.39,-37.07 217.03,-35.13 222.68,-33.24"/>
<polygon fill="#63b8ff" stroke="#63b8ff" points="223.78,-36.56 232.18,-30.11 221.59,-29.91 223.78,-36.56"/>
</a>
</g>
</g>
<!-- Node3 -->
<g id="Node000003" class="node">
<title>Node3</title>
<g id="a_Node000003"><a xlink:href="../../d4/dc5/classTerraria_1_1UI_1_1Gamepad_1_1UILinkPointNavigator_af5f96f175199246e97dad3c0537fe93d.html#af5f96f175199246e97dad3c0537fe93d" target="_top" xlink:title=" ">
<polygon fill="white" stroke="#666666" points="566,-174 395,-174 395,-144 566,-144 566,-174"/>
<text text-anchor="start" x="403" y="-162" font-family="Helvetica,sans-Serif" font-size="10.00">Terraria.UI.Gamepad.UILink</text>
<text text-anchor="middle" x="480.5" y="-151" font-family="Helvetica,sans-Serif" font-size="10.00">PointNavigator.ProcessChanges</text>
</a>
</g>
</g>
<!-- Node2&#45;&gt;Node3 -->
<g id="edge2_Node000002_Node000003" class="edge">
<title>Node2&#45;&gt;Node3</title>
<g id="a_edge2_Node000002_Node000003"><a xlink:title=" ">
<path fill="none" stroke="#63b8ff" d="M359.28,-159C367.64,-159 376.23,-159 384.79,-159"/>
<polygon fill="#63b8ff" stroke="#63b8ff" points="384.8,-162.5 394.8,-159 384.8,-155.5 384.8,-162.5"/>
</a>
</g>
</g>
<!-- Node3&#45;&gt;Node3 -->
<g id="edge5_Node000003_Node000003" class="edge">
<title>Node3&#45;&gt;Node3</title>
<g id="a_edge5_Node000003_Node000003"><a xlink:title=" ">
<path fill="none" stroke="#63b8ff" d="M445.7,-174.28C437.96,-183.41 449.56,-192 480.5,-192 498.87,-192 510.42,-188.97 515.16,-184.6"/>
<polygon fill="#63b8ff" stroke="#63b8ff" points="518.66,-184.32 515.3,-174.28 511.66,-184.22 518.66,-184.32"/>
</a>
</g>
</g>
<!-- Node4 -->
<g id="Node000004" class="node">
<title>Node4</title>
<g id="a_Node000004"><a xlink:href="../../d4/dc5/classTerraria_1_1UI_1_1Gamepad_1_1UILinkPointNavigator_a0cda74434ec0c5433d97c8590e7b6868.html#a0cda74434ec0c5433d97c8590e7b6868" target="_top" xlink:title=" ">
<polygon fill="white" stroke="#666666" points="777,-198 602,-198 602,-168 777,-168 777,-198"/>
<text text-anchor="start" x="610" y="-186" font-family="Helvetica,sans-Serif" font-size="10.00">Terraria.UI.Gamepad.UILink</text>
<text text-anchor="middle" x="689.5" y="-175" font-family="Helvetica,sans-Serif" font-size="10.00">PointNavigator.GoToDefaultPage</text>
</a>
</g>
</g>
<!-- Node3&#45;&gt;Node4 -->
<g id="edge3_Node000003_Node000004" class="edge">
<title>Node3&#45;&gt;Node4</title>
<g id="a_edge3_Node000003_Node000004"><a xlink:title=" ">
<path fill="none" stroke="#63b8ff" d="M566.29,-168.83C574.72,-169.81 583.32,-170.8 591.85,-171.79"/>
<polygon fill="#63b8ff" stroke="#63b8ff" points="591.49,-175.28 601.83,-172.95 592.3,-168.32 591.49,-175.28"/>
</a>
</g>
</g>
<!-- Node5 -->
<g id="Node000005" class="node">
<title>Node5</title>
<g id="a_Node000005"><a xlink:href="../../d0/d91/classTerraria_1_1UI_1_1Gamepad_1_1UILinkPage_a00e5839c8d7499b2169a7c9a0899ab05.html#a00e5839c8d7499b2169a7c9a0899ab05" target="_top" xlink:title=" ">
<polygon fill="white" stroke="#666666" points="765,-150 614,-150 614,-120 765,-120 765,-150"/>
<text text-anchor="start" x="622" y="-138" font-family="Helvetica,sans-Serif" font-size="10.00">Terraria.UI.Gamepad.UILink</text>
<text text-anchor="middle" x="689.5" y="-127" font-family="Helvetica,sans-Serif" font-size="10.00">Page.Leave</text>
</a>
</g>
</g>
<!-- Node3&#45;&gt;Node5 -->
<g id="edge4_Node000003_Node000005" class="edge">
<title>Node3&#45;&gt;Node5</title>
<g id="a_edge4_Node000003_Node000005"><a xlink:title=" ">
<path fill="none" stroke="#63b8ff" d="M566.29,-149.17C578.59,-147.74 591.26,-146.27 603.56,-144.85"/>
<polygon fill="#63b8ff" stroke="#63b8ff" points="604.26,-148.29 613.79,-143.66 603.45,-141.34 604.26,-148.29"/>
</a>
</g>
</g>
<!-- Node8 -->
<g id="Node000008" class="node">
<title>Node8</title>
<g id="a_Node000008"><a xlink:href="../../d7/d72/classTerraria_1_1UI_1_1UIElement_a9109cc8df866b3b0e14bb7dda7dd9e15.html#a9109cc8df866b3b0e14bb7dda7dd9e15" target="_top" xlink:title=" ">
<polygon fill="white" stroke="#666666" points="551,-78 410,-78 410,-48 551,-48 551,-78"/>
<text text-anchor="start" x="418" y="-66" font-family="Helvetica,sans-Serif" font-size="10.00">Terraria.UI.UIElement.Get</text>
<text text-anchor="middle" x="480.5" y="-55" font-family="Helvetica,sans-Serif" font-size="10.00">SnapPoint</text>
</a>
</g>
</g>
<!-- Node7&#45;&gt;Node8 -->
<g id="edge8_Node000007_Node000008" class="edge">
<title>Node7&#45;&gt;Node8</title>
<g id="a_edge8_Node000007_Node000008"><a xlink:title=" ">
<path fill="none" stroke="#63b8ff" d="M353.15,-63C368.23,-63 384.28,-63 399.71,-63"/>
<polygon fill="#63b8ff" stroke="#63b8ff" points="399.74,-66.5 409.74,-63 399.74,-59.5 399.74,-66.5"/>
</a>
</g>
</g>
<!-- Node9 -->
<g id="Node000009" class="node">
<title>Node9</title>
<g id="a_Node000009"><a xlink:href="../../da/d90/classTerraria_1_1UI_1_1SnapPoint_a1ee689cd010e6ada067cb86366b22ebb.html#a1ee689cd010e6ada067cb86366b22ebb" target="_top" xlink:title=" ">
<polygon fill="white" stroke="#666666" points="773,-72.5 606,-72.5 606,-53.5 773,-53.5 773,-72.5"/>
<text text-anchor="middle" x="689.5" y="-60.5" font-family="Helvetica,sans-Serif" font-size="10.00">Terraria.UI.SnapPoint.Calculate</text>
</a>
</g>
</g>
<!-- Node8&#45;&gt;Node9 -->
<g id="edge9_Node000008_Node000009" class="edge">
<title>Node8&#45;&gt;Node9</title>
<g id="a_edge9_Node000008_Node000009"><a xlink:title=" ">
<path fill="none" stroke="#63b8ff" d="M551,-63C565.32,-63 580.61,-63 595.6,-63"/>
<polygon fill="#63b8ff" stroke="#63b8ff" points="595.91,-66.5 605.91,-63 595.91,-59.5 595.91,-66.5"/>
</a>
</g>
</g>
</g>
</svg>
