<?xml version="1.0" encoding="UTF-8" standalone="no"?>
<!DOCTYPE svg PUBLIC "-//W3C//DTD SVG 1.1//EN"
 "http://www.w3.org/Graphics/SVG/1.1/DTD/svg11.dtd">
<!-- Generated by graphviz version 2.43.0 (0)
 -->
<!-- Title: Terraria.GameInput.PlayerInput.SetDesiredZoomContext Pages: 1 -->
<svg width="1212pt" height="98pt"
 viewBox="0.00 0.00 1212.00 98.00" xmlns="http://www.w3.org/2000/svg" xmlns:xlink="http://www.w3.org/1999/xlink">
<g id="graph0" class="graph" transform="scale(1 1) rotate(0) translate(4 94)">
<title>Terraria.GameInput.PlayerInput.SetDesiredZoomContext</title>
<!-- Node1 -->
<g id="Node000001" class="node">
<title>Node1</title>
<g id="a_Node000001"><a xlink:title=" ">
<polygon fill="#999999" stroke="#666666" points="1204,-73 1040,-73 1040,-43 1204,-43 1204,-73"/>
<text text-anchor="start" x="1048" y="-61" font-family="Helvetica,sans-Serif" font-size="10.00">Terraria.GameInput.Player</text>
<text text-anchor="middle" x="1122" y="-50" font-family="Helvetica,sans-Serif" font-size="10.00">Input.SetDesiredZoomContext</text>
</a>
</g>
</g>
<!-- Node2 -->
<g id="Node000002" class="node">
<title>Node2</title>
<g id="a_Node000002"><a xlink:href="../../da/dd5/classTerraria_1_1Main_a474beeecaea4d6dd108fba56cd554d46.html#a474beeecaea4d6dd108fba56cd554d46" target="_top" xlink:title=" ">
<polygon fill="white" stroke="#666666" points="412,-84.5 290,-84.5 290,-65.5 412,-65.5 412,-84.5"/>
<text text-anchor="middle" x="351" y="-72.5" font-family="Helvetica,sans-Serif" font-size="10.00">Terraria.Main.DoDraw</text>
</a>
</g>
</g>
<!-- Node1&#45;&gt;Node2 -->
<g id="edge1_Node000001_Node000002" class="edge">
<title>Node1&#45;&gt;Node2</title>
<g id="a_edge1_Node000001_Node000002"><a xlink:title=" ">
<path fill="none" stroke="#63b8ff" d="M1029.59,-74.29C1020.96,-75.39 1012.33,-76.33 1004,-77 786.81,-94.52 527.59,-84.56 412.36,-78.54"/>
<polygon fill="#63b8ff" stroke="#63b8ff" points="1030.25,-77.73 1039.7,-72.93 1029.32,-70.8 1030.25,-77.73"/>
</a>
</g>
</g>
<!-- Node5 -->
<g id="Node000005" class="node">
<title>Node5</title>
<g id="a_Node000005"><a xlink:href="../../da/dd5/classTerraria_1_1Main_ab13ebe846afd6d4cd47586ef70091e91.html#ab13ebe846afd6d4cd47586ef70091e91" target="_top" xlink:title=" ">
<polygon fill="white" stroke="#666666" points="1001.5,-67.5 854.5,-67.5 854.5,-48.5 1001.5,-48.5 1001.5,-67.5"/>
<text text-anchor="middle" x="928" y="-55.5" font-family="Helvetica,sans-Serif" font-size="10.00">Terraria.Main.DrawCapture</text>
</a>
</g>
</g>
<!-- Node1&#45;&gt;Node5 -->
<g id="edge4_Node000001_Node000005" class="edge">
<title>Node1&#45;&gt;Node5</title>
<g id="a_edge4_Node000001_Node000005"><a xlink:title=" ">
<path fill="none" stroke="#63b8ff" d="M1029.68,-58C1020.27,-58 1010.8,-58 1001.63,-58"/>
<polygon fill="#63b8ff" stroke="#63b8ff" points="1029.85,-61.5 1039.85,-58 1029.85,-54.5 1029.85,-61.5"/>
</a>
</g>
</g>
<!-- Node6 -->
<g id="Node000006" class="node">
<title>Node6</title>
<g id="a_Node000006"><a xlink:href="../../da/dd5/classTerraria_1_1Main_a925251c176cc668b2e0fe9b351e29bdd.html#a925251c176cc668b2e0fe9b351e29bdd" target="_top" xlink:title=" ">
<polygon fill="white" stroke="#666666" points="1004,-30 852,-30 852,0 1004,0 1004,-30"/>
<text text-anchor="start" x="860" y="-18" font-family="Helvetica,sans-Serif" font-size="10.00">Terraria.Main.DrawInterface</text>
<text text-anchor="middle" x="928" y="-7" font-family="Helvetica,sans-Serif" font-size="10.00">_10_CheckCaptureManager</text>
</a>
</g>
</g>
<!-- Node1&#45;&gt;Node6 -->
<g id="edge5_Node000001_Node000006" class="edge">
<title>Node1&#45;&gt;Node6</title>
<g id="a_edge5_Node000001_Node000006"><a xlink:title=" ">
<path fill="none" stroke="#63b8ff" d="M1044.07,-40.77C1028.2,-37.22 1011.61,-33.5 996.11,-30.03"/>
<polygon fill="#63b8ff" stroke="#63b8ff" points="1043.32,-44.19 1053.85,-42.96 1044.85,-37.36 1043.32,-44.19"/>
</a>
</g>
</g>
<!-- Node3 -->
<g id="Node000003" class="node">
<title>Node3</title>
<g id="a_Node000003"><a xlink:href="../../da/dd5/classTerraria_1_1Main_aa597dbafa085227bb056d05d0b0f9abe.html#aa597dbafa085227bb056d05d0b0f9abe" target="_top" xlink:title=" ">
<polygon fill="white" stroke="#666666" points="254,-90 145,-90 145,-60 254,-60 254,-90"/>
<text text-anchor="start" x="153" y="-78" font-family="Helvetica,sans-Serif" font-size="10.00">Terraria.Main.Draw</text>
<text text-anchor="middle" x="199.5" y="-67" font-family="Helvetica,sans-Serif" font-size="10.00">_Inner</text>
</a>
</g>
</g>
<!-- Node2&#45;&gt;Node3 -->
<g id="edge2_Node000002_Node000003" class="edge">
<title>Node2&#45;&gt;Node3</title>
<g id="a_edge2_Node000002_Node000003"><a xlink:title=" ">
<path fill="none" stroke="#63b8ff" d="M279.41,-75C270.99,-75 262.49,-75 254.35,-75"/>
<polygon fill="#63b8ff" stroke="#63b8ff" points="279.62,-78.5 289.62,-75 279.62,-71.5 279.62,-78.5"/>
</a>
</g>
</g>
<!-- Node4 -->
<g id="Node000004" class="node">
<title>Node4</title>
<g id="a_Node000004"><a xlink:href="../../da/dd5/classTerraria_1_1Main_a516aa31311860bad4242ade32e5effcd.html#a516aa31311860bad4242ade32e5effcd" target="_top" xlink:title=" ">
<polygon fill="white" stroke="#666666" points="109,-84.5 0,-84.5 0,-65.5 109,-65.5 109,-84.5"/>
<text text-anchor="middle" x="54.5" y="-72.5" font-family="Helvetica,sans-Serif" font-size="10.00">Terraria.Main.Draw</text>
</a>
</g>
</g>
<!-- Node3&#45;&gt;Node4 -->
<g id="edge3_Node000003_Node000004" class="edge">
<title>Node3&#45;&gt;Node4</title>
<g id="a_edge3_Node000003_Node000004"><a xlink:title=" ">
<path fill="none" stroke="#63b8ff" d="M134.68,-75C126.25,-75 117.69,-75 109.46,-75"/>
<polygon fill="#63b8ff" stroke="#63b8ff" points="134.85,-78.5 144.85,-75 134.85,-71.5 134.85,-78.5"/>
</a>
</g>
</g>
<!-- Node7 -->
<g id="Node000007" class="node">
<title>Node7</title>
<g id="a_Node000007"><a xlink:href="../../da/dd5/classTerraria_1_1Main_a635639e6a6d3795bbfbcf0e24fc3aac5.html#a635639e6a6d3795bbfbcf0e24fc3aac5" target="_top" xlink:title=" ">
<polygon fill="white" stroke="#666666" points="816,-49 636,-49 636,-19 816,-19 816,-49"/>
<text text-anchor="start" x="644" y="-37" font-family="Helvetica,sans-Serif" font-size="10.00">Terraria.Main.SetupDrawInterface</text>
<text text-anchor="middle" x="726" y="-26" font-family="Helvetica,sans-Serif" font-size="10.00">Layers</text>
</a>
</g>
</g>
<!-- Node6&#45;&gt;Node7 -->
<g id="edge6_Node000006_Node000007" class="edge">
<title>Node6&#45;&gt;Node7</title>
<g id="a_edge6_Node000006_Node000007"><a xlink:title=" ">
<path fill="none" stroke="#63b8ff" d="M841.76,-23.1C833.33,-23.9 824.76,-24.71 816.28,-25.52"/>
<polygon fill="#63b8ff" stroke="#63b8ff" points="842.33,-26.56 851.96,-22.13 841.67,-19.59 842.33,-26.56"/>
</a>
</g>
</g>
<!-- Node8 -->
<g id="Node000008" class="node">
<title>Node8</title>
<g id="a_Node000008"><a xlink:href="../../da/dd5/classTerraria_1_1Main_a36d139a1fd2647d53f25a241f3d5d5f4.html#a36d139a1fd2647d53f25a241f3d5d5f4" target="_top" xlink:title=" ">
<polygon fill="white" stroke="#666666" points="600,-65.5 448,-65.5 448,-46.5 600,-46.5 600,-65.5"/>
<text text-anchor="middle" x="524" y="-53.5" font-family="Helvetica,sans-Serif" font-size="10.00">Terraria.Main.DrawInterface</text>
</a>
</g>
</g>
<!-- Node7&#45;&gt;Node8 -->
<g id="edge7_Node000007_Node000008" class="edge">
<title>Node7&#45;&gt;Node8</title>
<g id="a_edge7_Node000007_Node000008"><a xlink:title=" ">
<path fill="none" stroke="#63b8ff" d="M625.77,-44.92C617.19,-45.86 608.6,-46.8 600.26,-47.72"/>
<polygon fill="#63b8ff" stroke="#63b8ff" points="626.26,-48.38 635.82,-43.81 625.5,-41.42 626.26,-48.38"/>
</a>
</g>
</g>
<!-- Node8&#45;&gt;Node2 -->
<g id="edge8_Node000008_Node000002" class="edge">
<title>Node8&#45;&gt;Node2</title>
<g id="a_edge8_Node000008_Node000002"><a xlink:title=" ">
<path fill="none" stroke="#63b8ff" d="M437.81,-65.47C429.1,-66.43 420.4,-67.4 412.05,-68.33"/>
<polygon fill="#63b8ff" stroke="#63b8ff" points="438.44,-68.92 448,-64.33 437.67,-61.96 438.44,-68.92"/>
</a>
</g>
</g>
</g>
</svg>
