<?xml version="1.0" encoding="UTF-8" standalone="no"?>
<!DOCTYPE svg PUBLIC "-//W3C//DTD SVG 1.1//EN"
 "http://www.w3.org/Graphics/SVG/1.1/DTD/svg11.dtd">
<!-- Generated by graphviz version 2.43.0 (0)
 -->
<!-- Title: Terraria.GameInput.PlayerInput.Initialize Pages: 1 -->
<svg width="512pt" height="134pt"
 viewBox="0.00 0.00 512.00 134.00" xmlns="http://www.w3.org/2000/svg" xmlns:xlink="http://www.w3.org/1999/xlink">
<g id="graph0" class="graph" transform="scale(1 1) rotate(0) translate(4 130)">
<title>Terraria.GameInput.PlayerInput.Initialize</title>
<!-- Node1 -->
<g id="Node000001" class="node">
<title>Node1</title>
<g id="a_Node000001"><a xlink:title=" ">
<polygon fill="#999999" stroke="#666666" points="144,-78 0,-78 0,-48 144,-48 144,-78"/>
<text text-anchor="start" x="8" y="-66" font-family="Helvetica,sans-Serif" font-size="10.00">Terraria.GameInput.Player</text>
<text text-anchor="middle" x="72" y="-55" font-family="Helvetica,sans-Serif" font-size="10.00">Input.Initialize</text>
</a>
</g>
</g>
<!-- Node2 -->
<g id="Node000002" class="node">
<title>Node2</title>
<g id="a_Node000002"><a xlink:href="../../df/d5b/classTerraria_1_1GameInput_1_1PlayerInput_ab38f8fde897701a04f95ffb4cbec7ec1.html#ab38f8fde897701a04f95ffb4cbec7ec1" target="_top" xlink:title=" ">
<polygon fill="white" stroke="#666666" points="324,-126 180,-126 180,-96 324,-96 324,-126"/>
<text text-anchor="start" x="188" y="-114" font-family="Helvetica,sans-Serif" font-size="10.00">Terraria.GameInput.Player</text>
<text text-anchor="middle" x="252" y="-103" font-family="Helvetica,sans-Serif" font-size="10.00">Input.Hook_OnEnterWorld</text>
</a>
</g>
</g>
<!-- Node1&#45;&gt;Node2 -->
<g id="edge1_Node000001_Node000002" class="edge">
<title>Node1&#45;&gt;Node2</title>
<g id="a_edge1_Node000001_Node000002"><a xlink:title=" ">
<path fill="none" stroke="#63b8ff" d="M128.83,-78.06C146.81,-82.9 166.89,-88.32 185.5,-93.34"/>
<polygon fill="#63b8ff" stroke="#63b8ff" points="184.8,-96.77 195.37,-96 186.62,-90.01 184.8,-96.77"/>
</a>
</g>
</g>
<!-- Node3 -->
<g id="Node000003" class="node">
<title>Node3</title>
<g id="a_Node000003"><a xlink:href="../../df/d5b/classTerraria_1_1GameInput_1_1PlayerInput_a047a3b2290da3b402fda5b31ce1119e3.html#a047a3b2290da3b402fda5b31ce1119e3" target="_top" xlink:title=" ">
<polygon fill="white" stroke="#666666" points="324,-78 180,-78 180,-48 324,-48 324,-78"/>
<text text-anchor="start" x="188" y="-66" font-family="Helvetica,sans-Serif" font-size="10.00">Terraria.GameInput.Player</text>
<text text-anchor="middle" x="252" y="-55" font-family="Helvetica,sans-Serif" font-size="10.00">Input.Initialize_Inner</text>
</a>
</g>
</g>
<!-- Node1&#45;&gt;Node3 -->
<g id="edge2_Node000001_Node000003" class="edge">
<title>Node1&#45;&gt;Node3</title>
<g id="a_edge2_Node000001_Node000003"><a xlink:title=" ">
<path fill="none" stroke="#63b8ff" d="M144.12,-63C152.61,-63 161.33,-63 169.94,-63"/>
<polygon fill="#63b8ff" stroke="#63b8ff" points="170,-66.5 180,-63 170,-59.5 170,-66.5"/>
</a>
</g>
</g>
<!-- Node5 -->
<g id="Node000005" class="node">
<title>Node5</title>
<g id="a_Node000005"><a xlink:href="../../df/d5b/classTerraria_1_1GameInput_1_1PlayerInput_a39787d366ee785c56515d665333b5b67.html#a39787d366ee785c56515d665333b5b67" target="_top" xlink:title=" ">
<polygon fill="white" stroke="#666666" points="324,-30 180,-30 180,0 324,0 324,-30"/>
<text text-anchor="start" x="188" y="-18" font-family="Helvetica,sans-Serif" font-size="10.00">Terraria.GameInput.Player</text>
<text text-anchor="middle" x="252" y="-7" font-family="Helvetica,sans-Serif" font-size="10.00">Input.PrettyPrintProfiles</text>
</a>
</g>
</g>
<!-- Node1&#45;&gt;Node5 -->
<g id="edge4_Node000001_Node000005" class="edge">
<title>Node1&#45;&gt;Node5</title>
<g id="a_edge4_Node000001_Node000005"><a xlink:title=" ">
<path fill="none" stroke="#63b8ff" d="M128.83,-47.94C146.81,-43.1 166.89,-37.68 185.5,-32.66"/>
<polygon fill="#63b8ff" stroke="#63b8ff" points="186.62,-35.99 195.37,-30 184.8,-29.23 186.62,-35.99"/>
</a>
</g>
</g>
<!-- Node4 -->
<g id="Node000004" class="node">
<title>Node4</title>
<g id="a_Node000004"><a xlink:href="../../df/d5b/classTerraria_1_1GameInput_1_1PlayerInput_a6880265ef9e92a2cc0c9ca4a62ae6357.html#a6880265ef9e92a2cc0c9ca4a62ae6357" target="_top" xlink:title=" ">
<polygon fill="white" stroke="#666666" points="504,-78 360,-78 360,-48 504,-48 504,-78"/>
<text text-anchor="start" x="368" y="-66" font-family="Helvetica,sans-Serif" font-size="10.00">Terraria.GameInput.Player</text>
<text text-anchor="middle" x="432" y="-55" font-family="Helvetica,sans-Serif" font-size="10.00">Input.SetSelectedProfile</text>
</a>
</g>
</g>
<!-- Node3&#45;&gt;Node4 -->
<g id="edge3_Node000003_Node000004" class="edge">
<title>Node3&#45;&gt;Node4</title>
<g id="a_edge3_Node000003_Node000004"><a xlink:title=" ">
<path fill="none" stroke="#63b8ff" d="M324.12,-63C332.61,-63 341.33,-63 349.94,-63"/>
<polygon fill="#63b8ff" stroke="#63b8ff" points="350,-66.5 360,-63 350,-59.5 350,-66.5"/>
</a>
</g>
</g>
</g>
</svg>
