<?xml version="1.0" encoding="UTF-8" standalone="no"?>
<!DOCTYPE svg PUBLIC "-//W3C//DTD SVG 1.1//EN"
 "http://www.w3.org/Graphics/SVG/1.1/DTD/svg11.dtd">
<!-- Generated by graphviz version 2.43.0 (0)
 -->
<!-- Title: Terraria.GameInput.PlayerInput.HandleDpadSnap Pages: 1 -->
<svg width="1157pt" height="182pt"
 viewBox="0.00 0.00 1157.00 182.00" xmlns="http://www.w3.org/2000/svg" xmlns:xlink="http://www.w3.org/1999/xlink">
<g id="graph0" class="graph" transform="scale(1 1) rotate(0) translate(4 178)">
<title>Terraria.GameInput.PlayerInput.HandleDpadSnap</title>
<!-- Node1 -->
<g id="Node000001" class="node">
<title>Node1</title>
<g id="a_Node000001"><a xlink:title=" ">
<polygon fill="#999999" stroke="#666666" points="144,-126 0,-126 0,-96 144,-96 144,-126"/>
<text text-anchor="start" x="8" y="-114" font-family="Helvetica,sans-Serif" font-size="10.00">Terraria.GameInput.Player</text>
<text text-anchor="middle" x="72" y="-103" font-family="Helvetica,sans-Serif" font-size="10.00">Input.HandleDpadSnap</text>
</a>
</g>
</g>
<!-- Node2 -->
<g id="Node000002" class="node">
<title>Node2</title>
<g id="a_Node000002"><a xlink:href="../../dd/de1/classTerraria_1_1UI_1_1ItemSlot_a968a76cb65d155a8c655cfd36c9eb1b4.html#a968a76cb65d155a8c655cfd36c9eb1b4" target="_top" xlink:title=" ">
<polygon fill="white" stroke="#666666" points="371,-163.5 180,-163.5 180,-144.5 371,-144.5 371,-163.5"/>
<text text-anchor="middle" x="275.5" y="-151.5" font-family="Helvetica,sans-Serif" font-size="10.00">Terraria.UI.ItemSlot.IsABuildingItem</text>
</a>
</g>
</g>
<!-- Node1&#45;&gt;Node2 -->
<g id="edge1_Node000001_Node000002" class="edge">
<title>Node1&#45;&gt;Node2</title>
<g id="a_edge1_Node000001_Node000002"><a xlink:title=" ">
<path fill="none" stroke="#63b8ff" d="M138.88,-126.02C152.46,-129.05 166.69,-132.17 180,-135 191.64,-137.47 204.1,-140.04 216.03,-142.46"/>
<polygon fill="#63b8ff" stroke="#63b8ff" points="215.4,-145.9 225.9,-144.44 216.79,-139.04 215.4,-145.9"/>
</a>
</g>
</g>
<!-- Node3 -->
<g id="Node000003" class="node">
<title>Node3</title>
<g id="a_Node000003"><a xlink:href="../../d7/d52/classTerraria_1_1GameInput_1_1PlayerInput_1_1SettingsForUI_a4ce28d04035ca76014eb14fb566ca9a0.html#a4ce28d04035ca76014eb14fb566ca9a0" target="_top" xlink:title=" ">
<polygon fill="white" stroke="#666666" points="369,-126 182,-126 182,-96 369,-96 369,-126"/>
<text text-anchor="start" x="190" y="-114" font-family="Helvetica,sans-Serif" font-size="10.00">Terraria.GameInput.Player</text>
<text text-anchor="middle" x="275.5" y="-103" font-family="Helvetica,sans-Serif" font-size="10.00">Input.SettingsForUI.SetCursorMode</text>
</a>
</g>
</g>
<!-- Node1&#45;&gt;Node3 -->
<g id="edge2_Node000001_Node000003" class="edge">
<title>Node1&#45;&gt;Node3</title>
<g id="a_edge2_Node000001_Node000003"><a xlink:title=" ">
<path fill="none" stroke="#63b8ff" d="M144.04,-111C153.03,-111 162.36,-111 171.72,-111"/>
<polygon fill="#63b8ff" stroke="#63b8ff" points="171.86,-114.5 181.86,-111 171.86,-107.5 171.86,-114.5"/>
</a>
</g>
</g>
<!-- Node4 -->
<g id="Node000004" class="node">
<title>Node4</title>
<g id="a_Node000004"><a xlink:href="../../da/dbd/classTerraria_1_1ModLoader_1_1CombinedHooks_a817f4951ed8e523138a4aac5aa9f2ba1.html#a817f4951ed8e523138a4aac5aa9f2ba1" target="_top" xlink:title=" ">
<polygon fill="white" stroke="#666666" points="356.5,-78 194.5,-78 194.5,-48 356.5,-48 356.5,-78"/>
<text text-anchor="start" x="202.5" y="-66" font-family="Helvetica,sans-Serif" font-size="10.00">Terraria.ModLoader.Combined</text>
<text text-anchor="middle" x="275.5" y="-55" font-family="Helvetica,sans-Serif" font-size="10.00">Hooks.TotalUseTime</text>
</a>
</g>
</g>
<!-- Node1&#45;&gt;Node4 -->
<g id="edge3_Node000001_Node000004" class="edge">
<title>Node1&#45;&gt;Node4</title>
<g id="a_edge3_Node000001_Node000004"><a xlink:title=" ">
<path fill="none" stroke="#63b8ff" d="M136.2,-95.94C156.93,-91.01 180.13,-85.48 201.51,-80.39"/>
<polygon fill="#63b8ff" stroke="#63b8ff" points="202.6,-83.72 211.52,-78 200.98,-76.92 202.6,-83.72"/>
</a>
</g>
</g>
<!-- Node5 -->
<g id="Node000005" class="node">
<title>Node5</title>
<g id="a_Node000005"><a xlink:href="../../da/dbd/classTerraria_1_1ModLoader_1_1CombinedHooks_a9a34fba60555225961c57661dccbe61d.html#a9a34fba60555225961c57661dccbe61d" target="_top" xlink:title=" ">
<polygon fill="white" stroke="#666666" points="571,-78 407,-78 407,-48 571,-48 571,-78"/>
<text text-anchor="start" x="415" y="-66" font-family="Helvetica,sans-Serif" font-size="10.00">Terraria.ModLoader.Combined</text>
<text text-anchor="middle" x="489" y="-55" font-family="Helvetica,sans-Serif" font-size="10.00">Hooks.TotalUseTimeMultiplier</text>
</a>
</g>
</g>
<!-- Node4&#45;&gt;Node5 -->
<g id="edge4_Node000004_Node000005" class="edge">
<title>Node4&#45;&gt;Node5</title>
<g id="a_edge4_Node000004_Node000005"><a xlink:title=" ">
<path fill="none" stroke="#63b8ff" d="M356.76,-63C369.8,-63 383.38,-63 396.66,-63"/>
<polygon fill="#63b8ff" stroke="#63b8ff" points="396.74,-66.5 406.74,-63 396.74,-59.5 396.74,-66.5"/>
</a>
</g>
</g>
<!-- Node6 -->
<g id="Node000006" class="node">
<title>Node6</title>
<g id="a_Node000006"><a xlink:href="../../da/dbd/classTerraria_1_1ModLoader_1_1CombinedHooks_a7f501af01589528f52a9afc730ee30ae.html#a7f501af01589528f52a9afc730ee30ae" target="_top" xlink:title=" ">
<polygon fill="white" stroke="#666666" points="776.5,-126 607.5,-126 607.5,-96 776.5,-96 776.5,-126"/>
<text text-anchor="start" x="615.5" y="-114" font-family="Helvetica,sans-Serif" font-size="10.00">Terraria.ModLoader.Combined</text>
<text text-anchor="middle" x="692" y="-103" font-family="Helvetica,sans-Serif" font-size="10.00">Hooks.TotalUseSpeedMultiplier</text>
</a>
</g>
</g>
<!-- Node5&#45;&gt;Node6 -->
<g id="edge5_Node000005_Node000006" class="edge">
<title>Node5&#45;&gt;Node6</title>
<g id="a_edge5_Node000005_Node000006"><a xlink:title=" ">
<path fill="none" stroke="#63b8ff" d="M553.05,-78.06C573.72,-82.99 596.86,-88.52 618.19,-93.61"/>
<polygon fill="#63b8ff" stroke="#63b8ff" points="617.64,-97.08 628.18,-96 619.26,-90.27 617.64,-97.08"/>
</a>
</g>
</g>
<!-- Node11 -->
<g id="Node000011" class="node">
<title>Node11</title>
<g id="a_Node000011"><a xlink:href="../../d7/de6/classTerraria_1_1ModLoader_1_1ItemLoader_a414e14cf34dd5d5bdea5683311c95a38.html#a414e14cf34dd5d5bdea5683311c95a38" target="_top" xlink:title=" ">
<polygon fill="white" stroke="#666666" points="777,-78 607,-78 607,-48 777,-48 777,-78"/>
<text text-anchor="start" x="615" y="-66" font-family="Helvetica,sans-Serif" font-size="10.00">Terraria.ModLoader.ItemLoader.</text>
<text text-anchor="middle" x="692" y="-55" font-family="Helvetica,sans-Serif" font-size="10.00">UseTimeMultiplier</text>
</a>
</g>
</g>
<!-- Node5&#45;&gt;Node11 -->
<g id="edge10_Node000005_Node000011" class="edge">
<title>Node5&#45;&gt;Node11</title>
<g id="a_edge10_Node000005_Node000011"><a xlink:title=" ">
<path fill="none" stroke="#63b8ff" d="M571.18,-63C579.63,-63 588.28,-63 596.87,-63"/>
<polygon fill="#63b8ff" stroke="#63b8ff" points="596.9,-66.5 606.9,-63 596.9,-59.5 596.9,-66.5"/>
</a>
</g>
</g>
<!-- Node12 -->
<g id="Node000012" class="node">
<title>Node12</title>
<g id="a_Node000012"><a xlink:href="../../d9/de2/classTerraria_1_1ModLoader_1_1PlayerLoader_ad6f1f531d5afe27fe7af7aa9e3466579.html#ad6f1f531d5afe27fe7af7aa9e3466579" target="_top" xlink:title=" ">
<polygon fill="white" stroke="#666666" points="763.5,-30 620.5,-30 620.5,0 763.5,0 763.5,-30"/>
<text text-anchor="start" x="628.5" y="-18" font-family="Helvetica,sans-Serif" font-size="10.00">Terraria.ModLoader.Player</text>
<text text-anchor="middle" x="692" y="-7" font-family="Helvetica,sans-Serif" font-size="10.00">Loader.UseTimeMultiplier</text>
</a>
</g>
</g>
<!-- Node5&#45;&gt;Node12 -->
<g id="edge11_Node000005_Node000012" class="edge">
<title>Node5&#45;&gt;Node12</title>
<g id="a_edge11_Node000005_Node000012"><a xlink:title=" ">
<path fill="none" stroke="#63b8ff" d="M553.05,-47.94C573.72,-43.01 596.86,-37.48 618.19,-32.39"/>
<polygon fill="#63b8ff" stroke="#63b8ff" points="619.26,-35.73 628.18,-30 617.64,-28.92 619.26,-35.73"/>
</a>
</g>
</g>
<!-- Node7 -->
<g id="Node000007" class="node">
<title>Node7</title>
<g id="a_Node000007"><a xlink:href="../../d4/d03/classTerraria_1_1Player_a4950696f05e066ab568a7d1433c7f0f4.html#a4950696f05e066ab568a7d1433c7f0f4" target="_top" xlink:title=" ">
<polygon fill="white" stroke="#666666" points="971,-174 825,-174 825,-144 971,-144 971,-174"/>
<text text-anchor="start" x="833" y="-162" font-family="Helvetica,sans-Serif" font-size="10.00">Terraria.Player.GetWeapon</text>
<text text-anchor="middle" x="898" y="-151" font-family="Helvetica,sans-Serif" font-size="10.00">AttackSpeed</text>
</a>
</g>
</g>
<!-- Node6&#45;&gt;Node7 -->
<g id="edge6_Node000006_Node000007" class="edge">
<title>Node6&#45;&gt;Node7</title>
<g id="a_edge6_Node000006_Node000007"><a xlink:title=" ">
<path fill="none" stroke="#63b8ff" d="M756.99,-126.06C778.06,-131.01 801.67,-136.57 823.4,-141.68"/>
<polygon fill="#63b8ff" stroke="#63b8ff" points="822.7,-145.11 833.24,-144 824.31,-138.3 822.7,-145.11"/>
</a>
</g>
</g>
<!-- Node9 -->
<g id="Node000009" class="node">
<title>Node9</title>
<g id="a_Node000009"><a xlink:href="../../d7/de6/classTerraria_1_1ModLoader_1_1ItemLoader_a3ad5295fcd84e8e23d320e8318f2cb29.html#a3ad5295fcd84e8e23d320e8318f2cb29" target="_top" xlink:title=" ">
<polygon fill="white" stroke="#666666" points="983,-126 813,-126 813,-96 983,-96 983,-126"/>
<text text-anchor="start" x="821" y="-114" font-family="Helvetica,sans-Serif" font-size="10.00">Terraria.ModLoader.ItemLoader.</text>
<text text-anchor="middle" x="898" y="-103" font-family="Helvetica,sans-Serif" font-size="10.00">UseSpeedMultiplier</text>
</a>
</g>
</g>
<!-- Node6&#45;&gt;Node9 -->
<g id="edge8_Node000006_Node000009" class="edge">
<title>Node6&#45;&gt;Node9</title>
<g id="a_edge8_Node000006_Node000009"><a xlink:title=" ">
<path fill="none" stroke="#63b8ff" d="M776.56,-111C785.18,-111 793.99,-111 802.71,-111"/>
<polygon fill="#63b8ff" stroke="#63b8ff" points="802.91,-114.5 812.91,-111 802.91,-107.5 802.91,-114.5"/>
</a>
</g>
</g>
<!-- Node10 -->
<g id="Node000010" class="node">
<title>Node10</title>
<g id="a_Node000010"><a xlink:href="../../d9/de2/classTerraria_1_1ModLoader_1_1PlayerLoader_a48f8066bdbcf7267625c16cdbab7d205.html#a48f8066bdbcf7267625c16cdbab7d205" target="_top" xlink:title=" ">
<polygon fill="white" stroke="#666666" points="971.5,-78 824.5,-78 824.5,-48 971.5,-48 971.5,-78"/>
<text text-anchor="start" x="832.5" y="-66" font-family="Helvetica,sans-Serif" font-size="10.00">Terraria.ModLoader.Player</text>
<text text-anchor="middle" x="898" y="-55" font-family="Helvetica,sans-Serif" font-size="10.00">Loader.UseSpeedMultiplier</text>
</a>
</g>
</g>
<!-- Node6&#45;&gt;Node10 -->
<g id="edge9_Node000006_Node000010" class="edge">
<title>Node6&#45;&gt;Node10</title>
<g id="a_edge9_Node000006_Node000010"><a xlink:title=" ">
<path fill="none" stroke="#63b8ff" d="M756.99,-95.94C778.06,-90.99 801.67,-85.43 823.4,-80.32"/>
<polygon fill="#63b8ff" stroke="#63b8ff" points="824.31,-83.7 833.24,-78 822.7,-76.89 824.31,-83.7"/>
</a>
</g>
</g>
<!-- Node8 -->
<g id="Node000008" class="node">
<title>Node8</title>
<g id="a_Node000008"><a xlink:href="../../d4/d03/classTerraria_1_1Player_a1c0a18c6037c44b302cd9862af9df9a8.html#a1c0a18c6037c44b302cd9862af9df9a8" target="_top" xlink:title=" ">
<polygon fill="white" stroke="#666666" points="1149,-174 1019,-174 1019,-144 1149,-144 1149,-174"/>
<text text-anchor="start" x="1027" y="-162" font-family="Helvetica,sans-Serif" font-size="10.00">Terraria.Player.GetTotal</text>
<text text-anchor="middle" x="1084" y="-151" font-family="Helvetica,sans-Serif" font-size="10.00">AttackSpeed</text>
</a>
</g>
</g>
<!-- Node7&#45;&gt;Node8 -->
<g id="edge7_Node000007_Node000008" class="edge">
<title>Node7&#45;&gt;Node8</title>
<g id="a_edge7_Node000007_Node000008"><a xlink:title=" ">
<path fill="none" stroke="#63b8ff" d="M971.19,-159C983.46,-159 996.23,-159 1008.56,-159"/>
<polygon fill="#63b8ff" stroke="#63b8ff" points="1008.79,-162.5 1018.79,-159 1008.79,-155.5 1008.79,-162.5"/>
</a>
</g>
</g>
</g>
</svg>
