<?xml version="1.0" encoding="UTF-8" standalone="no"?>
<!DOCTYPE svg PUBLIC "-//W3C//DTD SVG 1.1//EN"
 "http://www.w3.org/Graphics/SVG/1.1/DTD/svg11.dtd">
<!-- Generated by graphviz version 2.43.0 (0)
 -->
<!-- Title: Terraria.ModLoader.Core.HookList&lt; T &gt; Pages: 1 -->
<svg width="288pt" height="390pt"
 viewBox="0.00 0.00 288.00 390.00" xmlns="http://www.w3.org/2000/svg" xmlns:xlink="http://www.w3.org/1999/xlink">
<g id="graph0" class="graph" transform="scale(1 1) rotate(0) translate(4 386)">
<title>Terraria.ModLoader.Core.HookList&lt; T &gt;</title>
<!-- Node1 -->
<g id="Node000001" class="node">
<title>Node1</title>
<g id="a_Node000001"><a xlink:title=" ">
<polygon fill="#999999" stroke="transparent" points="247.5,-286 36.5,-286 36.5,0 247.5,0 247.5,-286"/>
<text text-anchor="start" x="81.5" y="-274" font-family="Helvetica,sans-Serif" font-size="10.00">Terraria.ModLoader.Core.</text>
<text text-anchor="start" x="106.5" y="-263" font-family="Helvetica,sans-Serif" font-size="10.00">HookList&lt; T &gt;</text>
<text text-anchor="start" x="140.5" y="-248" font-family="Helvetica,sans-Serif" font-size="10.00"> </text>
<text text-anchor="start" x="41" y="-233" font-family="Helvetica,sans-Serif" font-size="10.00">+</text>
<text text-anchor="start" x="54" y="-233" font-family="Helvetica,sans-Serif" font-size="10.00">HookList(MethodInfo</text>
<text text-anchor="start" x="54" y="-222" font-family="Helvetica,sans-Serif" font-size="10.00"> method)</text>
<text text-anchor="start" x="41" y="-207" font-family="Helvetica,sans-Serif" font-size="10.00">+</text>
<text text-anchor="start" x="54" y="-207" font-family="Helvetica,sans-Serif" font-size="10.00">FilteredArrayEnumerator</text>
<text text-anchor="start" x="54" y="-196" font-family="Helvetica,sans-Serif" font-size="10.00">&lt; T &gt; Enumerate(T[] instances)</text>
<text text-anchor="start" x="41" y="-181" font-family="Helvetica,sans-Serif" font-size="10.00">+</text>
<text text-anchor="start" x="54" y="-181" font-family="Helvetica,sans-Serif" font-size="10.00">FilteredSpanEnumerator</text>
<text text-anchor="start" x="54" y="-170" font-family="Helvetica,sans-Serif" font-size="10.00">&lt; T &gt; Enumerate(ReadOnlySpan</text>
<text text-anchor="start" x="54" y="-159" font-family="Helvetica,sans-Serif" font-size="10.00">&lt; T &gt; instances)</text>
<text text-anchor="start" x="41" y="-144" font-family="Helvetica,sans-Serif" font-size="10.00">+</text>
<text text-anchor="start" x="54" y="-144" font-family="Helvetica,sans-Serif" font-size="10.00">FilteredSpanEnumerator</text>
<text text-anchor="start" x="54" y="-133" font-family="Helvetica,sans-Serif" font-size="10.00">&lt; T &gt; Enumerate(IEntityWithInstances</text>
<text text-anchor="start" x="54" y="-122" font-family="Helvetica,sans-Serif" font-size="10.00">&lt; T &gt; entity)</text>
<text text-anchor="start" x="41" y="-107" font-family="Helvetica,sans-Serif" font-size="10.00">+</text>
<text text-anchor="start" x="54" y="-107" font-family="Helvetica,sans-Serif" font-size="10.00">IEnumerable&lt; T &gt; Enumerate</text>
<text text-anchor="start" x="54" y="-96" font-family="Helvetica,sans-Serif" font-size="10.00">Slow(IReadOnlyList&lt; T &gt;</text>
<text text-anchor="start" x="54" y="-85" font-family="Helvetica,sans-Serif" font-size="10.00"> instances)</text>
<text text-anchor="start" x="41" y="-70" font-family="Helvetica,sans-Serif" font-size="10.00">+</text>
<text text-anchor="start" x="54" y="-70" font-family="Helvetica,sans-Serif" font-size="10.00">ReadOnlySpan&lt; T &gt; Enumerate()</text>
<text text-anchor="start" x="41" y="-55" font-family="Helvetica,sans-Serif" font-size="10.00">+</text>
<text text-anchor="start" x="54" y="-55" font-family="Helvetica,sans-Serif" font-size="10.00">void Update(IReadOnlyList</text>
<text text-anchor="start" x="54" y="-44" font-family="Helvetica,sans-Serif" font-size="10.00">&lt; T &gt; allDefaultInstances)</text>
<text text-anchor="start" x="41" y="-29" font-family="Helvetica,sans-Serif" font-size="10.00">+</text>
<text text-anchor="start" x="54" y="-29" font-family="Helvetica,sans-Serif" font-size="10.00">static HookList&lt; T</text>
<text text-anchor="start" x="54" y="-18" font-family="Helvetica,sans-Serif" font-size="10.00"> &gt; Create&lt; F &gt;(Expression</text>
<text text-anchor="start" x="54" y="-7" font-family="Helvetica,sans-Serif" font-size="10.00">&lt; Func&lt; T, F &gt; &gt; expr)</text>
<polygon fill="#666666" stroke="#666666" points="37,-258 37,-258 248,-258 248,-258 37,-258"/>
<polygon fill="#666666" stroke="#666666" points="37,-243 37,-243 248,-243 248,-243 37,-243"/>
<polygon fill="none" stroke="#666666" points="36.5,0 36.5,-286 247.5,-286 247.5,0 36.5,0"/>
</a>
</g>
</g>
<!-- Node2 -->
<g id="Node000002" class="node">
<title>Node2</title>
<g id="a_Node000002"><a xlink:title=" ">
<polygon fill="white" stroke="transparent" points="112,-382 0,-382 0,-333 112,-333 112,-382"/>
<text text-anchor="start" x="5" y="-369.5" font-family="Helvetica,sans-Serif" font-size="10.00">readonly MethodInfo</text>
<text text-anchor="start" x="54" y="-354.5" font-family="Helvetica,sans-Serif" font-size="10.00"> </text>
<text text-anchor="start" x="54" y="-339.5" font-family="Helvetica,sans-Serif" font-size="10.00"> </text>
<polygon fill="#666666" stroke="#666666" points="0,-364.5 0,-364.5 112,-364.5 112,-364.5 0,-364.5"/>
<polygon fill="#666666" stroke="#666666" points="0,-349.5 0,-349.5 112,-349.5 112,-349.5 0,-349.5"/>
<polygon fill="none" stroke="#666666" points="0,-333 0,-382 112,-382 112,-333 0,-333"/>
</a>
</g>
</g>
<!-- Node2&#45;&gt;Node1 -->
<g id="edge1_Node000001_Node000002" class="edge">
<title>Node2&#45;&gt;Node1</title>
<g id="a_edge1_Node000001_Node000002"><a xlink:title=" ">
<path fill="none" stroke="#63b8ff" d="M65.53,-332.95C69.46,-323.24 74.37,-311.12 79.78,-297.73"/>
<polygon fill="none" stroke="#63b8ff" points="79.94,-297.34 78.48,-290.28 84.44,-286.22 85.9,-293.28 79.94,-297.34"/>
</a>
</g>
<text text-anchor="middle" x="101.5" y="-307" font-family="Helvetica,sans-Serif" font-size="10.00" fill="grey"> +method</text>
</g>
<!-- Node3 -->
<g id="Node000003" class="node">
<title>Node3</title>
<g id="a_Node000003"><a xlink:title=" ">
<polygon fill="white" stroke="transparent" points="153.5,-382 130.5,-382 130.5,-333 153.5,-333 153.5,-382"/>
<text text-anchor="start" x="136" y="-369.5" font-family="Helvetica,sans-Serif" font-size="10.00">int</text>
<text text-anchor="start" x="140.5" y="-354.5" font-family="Helvetica,sans-Serif" font-size="10.00"> </text>
<text text-anchor="start" x="140.5" y="-339.5" font-family="Helvetica,sans-Serif" font-size="10.00"> </text>
<polygon fill="#666666" stroke="#666666" points="131,-364.5 131,-364.5 154,-364.5 154,-364.5 131,-364.5"/>
<polygon fill="#666666" stroke="#666666" points="131,-349.5 131,-349.5 154,-349.5 154,-349.5 131,-349.5"/>
<polygon fill="none" stroke="#666666" points="130.5,-333 130.5,-382 153.5,-382 153.5,-333 130.5,-333"/>
</a>
</g>
</g>
<!-- Node3&#45;&gt;Node1 -->
<g id="edge2_Node000001_Node000003" class="edge">
<title>Node3&#45;&gt;Node1</title>
<g id="a_edge2_Node000001_Node000003"><a xlink:title=" ">
<path fill="none" stroke="#63b8ff" d="M142,-332.95C142,-323.43 142,-311.6 142,-298.54"/>
<polygon fill="none" stroke="#63b8ff" points="142,-298.22 138,-292.22 142,-286.22 146,-292.22 142,-298.22"/>
</a>
</g>
<text text-anchor="middle" x="163" y="-307" font-family="Helvetica,sans-Serif" font-size="10.00" fill="grey"> &#45;indices</text>
</g>
<!-- Node4 -->
<g id="Node000004" class="node">
<title>Node4</title>
<g id="a_Node000004"><a xlink:title=" ">
<polygon fill="white" stroke="transparent" points="215.5,-382 198.5,-382 198.5,-333 215.5,-333 215.5,-382"/>
<text text-anchor="start" x="204" y="-369.5" font-family="Helvetica,sans-Serif" font-size="10.00">T</text>
<text text-anchor="start" x="205.5" y="-354.5" font-family="Helvetica,sans-Serif" font-size="10.00"> </text>
<text text-anchor="start" x="205.5" y="-339.5" font-family="Helvetica,sans-Serif" font-size="10.00"> </text>
<polygon fill="#666666" stroke="#666666" points="199,-364.5 199,-364.5 216,-364.5 216,-364.5 199,-364.5"/>
<polygon fill="#666666" stroke="#666666" points="199,-349.5 199,-349.5 216,-349.5 216,-349.5 199,-349.5"/>
<polygon fill="none" stroke="#666666" points="198.5,-333 198.5,-382 215.5,-382 215.5,-333 198.5,-333"/>
</a>
</g>
</g>
<!-- Node4&#45;&gt;Node1 -->
<g id="edge3_Node000001_Node000004" class="edge">
<title>Node4&#45;&gt;Node1</title>
<g id="a_edge3_Node000001_Node000004"><a xlink:title=" ">
<path fill="none" stroke="#63b8ff" d="M199.8,-332.95C196.83,-323.24 193.12,-311.12 189.02,-297.73"/>
<polygon fill="none" stroke="#63b8ff" points="189.01,-297.69 183.43,-293.13 185.5,-286.22 191.08,-290.79 189.01,-297.69"/>
</a>
</g>
<text text-anchor="middle" x="236" y="-307" font-family="Helvetica,sans-Serif" font-size="10.00" fill="grey"> &#45;defaultInstances</text>
</g>
</g>
</svg>
