<?xml version="1.0" encoding="UTF-8" standalone="no"?>
<!DOCTYPE svg PUBLIC "-//W3C//DTD SVG 1.1//EN"
 "http://www.w3.org/Graphics/SVG/1.1/DTD/svg11.dtd">
<!-- Generated by graphviz version 2.43.0 (0)
 -->
<!-- Title: Terraria.DataStructures.EntitySource_ItemUse_OnHurt Pages: 1 -->
<svg width="380pt" height="519pt"
 viewBox="0.00 0.00 379.50 519.00" xmlns="http://www.w3.org/2000/svg" xmlns:xlink="http://www.w3.org/1999/xlink">
<g id="graph0" class="graph" transform="scale(1 1) rotate(0) translate(4 515)">
<title>Terraria.DataStructures.EntitySource_ItemUse_OnHurt</title>
<!-- Node1 -->
<g id="Node000001" class="node">
<title>Node1</title>
<g id="a_Node000001"><a xlink:title="Combination of T:Terraria.DataStructures.IEntitySource_OnHurt and T:Terraria.DataStructures....">
<polygon fill="#999999" stroke="transparent" points="316,-108 158,-108 158,0 316,0 316,-108"/>
<text text-anchor="start" x="163" y="-96" font-family="Helvetica,sans-Serif" font-size="10.00">Terraria.DataStructures.</text>
<text text-anchor="start" x="163" y="-85" font-family="Helvetica,sans-Serif" font-size="10.00">EntitySource_ItemUse_OnHurt</text>
<text text-anchor="start" x="162" y="-70" font-family="Helvetica,sans-Serif" font-size="10.00">+</text>
<text text-anchor="start" x="175" y="-70" font-family="Helvetica,sans-Serif" font-size="10.00">Entity? Attacker</text>
<text text-anchor="start" x="162" y="-55" font-family="Helvetica,sans-Serif" font-size="10.00">+</text>
<text text-anchor="start" x="175" y="-55" font-family="Helvetica,sans-Serif" font-size="10.00">Entity Victim</text>
<text text-anchor="start" x="162" y="-40" font-family="Helvetica,sans-Serif" font-size="10.00">+</text>
<text text-anchor="start" x="175" y="-40" font-family="Helvetica,sans-Serif" font-size="10.00">EntitySource_ItemUse</text>
<text text-anchor="start" x="175" y="-29" font-family="Helvetica,sans-Serif" font-size="10.00">_OnHurt(Player player,</text>
<text text-anchor="start" x="175" y="-18" font-family="Helvetica,sans-Serif" font-size="10.00"> Item item, Entity? attacker,</text>
<text text-anchor="start" x="175" y="-7" font-family="Helvetica,sans-Serif" font-size="10.00"> string? context=null)</text>
<polygon fill="#666666" stroke="#666666" points="158,-80 158,-80 316,-80 316,-80 158,-80"/>
<polygon fill="#666666" stroke="#666666" points="158,-50 158,-50 173,-50 173,-50 158,-50"/>
<polygon fill="#666666" stroke="#666666" points="173,-50 173,-50 316,-50 316,-50 173,-50"/>
<polygon fill="none" stroke="#666666" points="158,0 158,-108 316,-108 316,0 158,0"/>
</a>
</g>
</g>
<!-- Node2 -->
<g id="Node000002" class="node">
<title>Node2</title>
<g id="a_Node000002"><a xlink:href="../../d0/d29/classTerraria_1_1DataStructures_1_1EntitySource__ItemUse.html" target="_top" xlink:title="Use the interface, T:Terraria.DataStructures.IEntitySource_WithStatsFromItem instead when checking en...">
<polygon fill="white" stroke="transparent" points="238,-230 82,-230 82,-144 238,-144 238,-230"/>
<text text-anchor="start" x="105.5" y="-218" font-family="Helvetica,sans-Serif" font-size="10.00">EntitySource_ItemUse</text>
<text text-anchor="start" x="86" y="-203" font-family="Helvetica,sans-Serif" font-size="10.00">+</text>
<text text-anchor="start" x="99" y="-203" font-family="Helvetica,sans-Serif" font-size="10.00">Player Player</text>
<text text-anchor="start" x="86" y="-188" font-family="Helvetica,sans-Serif" font-size="10.00">+</text>
<text text-anchor="start" x="99" y="-188" font-family="Helvetica,sans-Serif" font-size="10.00">Item Item</text>
<text text-anchor="start" x="86" y="-173" font-family="Helvetica,sans-Serif" font-size="10.00">+</text>
<text text-anchor="start" x="99" y="-173" font-family="Helvetica,sans-Serif" font-size="10.00">EntitySource_ItemUse</text>
<text text-anchor="start" x="99" y="-162" font-family="Helvetica,sans-Serif" font-size="10.00">(Player player, Item</text>
<text text-anchor="start" x="99" y="-151" font-family="Helvetica,sans-Serif" font-size="10.00"> item, string? context=null)</text>
<polygon fill="#666666" stroke="#666666" points="82,-213 82,-213 238,-213 238,-213 82,-213"/>
<polygon fill="#666666" stroke="#666666" points="82,-183 82,-183 97,-183 97,-183 82,-183"/>
<polygon fill="#666666" stroke="#666666" points="97,-183 97,-183 238,-183 238,-183 97,-183"/>
<polygon fill="none" stroke="#666666" points="82,-144 82,-230 238,-230 238,-144 82,-144"/>
</a>
</g>
</g>
<!-- Node2&#45;&gt;Node1 -->
<g id="edge1_Node000001_Node000002" class="edge">
<title>Node2&#45;&gt;Node1</title>
<g id="a_edge1_Node000001_Node000002"><a xlink:title=" ">
<path fill="none" stroke="#63b8ff" d="M189.9,-135.13C195.11,-126.27 200.53,-117.04 205.77,-108.13"/>
<polygon fill="none" stroke="#63b8ff" points="186.84,-133.44 184.79,-143.83 192.87,-136.98 186.84,-133.44"/>
</a>
</g>
</g>
<!-- Node3 -->
<g id="Node000003" class="node">
<title>Node3</title>
<g id="a_Node000003"><a xlink:href="../../db/da3/classTerraria_1_1DataStructures_1_1EntitySource__Parent.html" target="_top" xlink:title="Use when the parent can be considered the &#39;owner&#39; or &#39;responsible for&#39; the effect....">
<polygon fill="white" stroke="transparent" points="137.5,-352 18.5,-352 18.5,-266 137.5,-266 137.5,-352"/>
<text text-anchor="start" x="29.5" y="-340" font-family="Helvetica,sans-Serif" font-size="10.00">EntitySource_Parent</text>
<text text-anchor="start" x="23" y="-325" font-family="Helvetica,sans-Serif" font-size="10.00">+</text>
<text text-anchor="start" x="36" y="-325" font-family="Helvetica,sans-Serif" font-size="10.00">Entity Entity</text>
<text text-anchor="start" x="23" y="-310" font-family="Helvetica,sans-Serif" font-size="10.00">+</text>
<text text-anchor="start" x="36" y="-310" font-family="Helvetica,sans-Serif" font-size="10.00">string? Context</text>
<text text-anchor="start" x="23" y="-295" font-family="Helvetica,sans-Serif" font-size="10.00">+</text>
<text text-anchor="start" x="36" y="-295" font-family="Helvetica,sans-Serif" font-size="10.00">EntitySource_Parent</text>
<text text-anchor="start" x="36" y="-284" font-family="Helvetica,sans-Serif" font-size="10.00">(Entity entity, string</text>
<text text-anchor="start" x="36" y="-273" font-family="Helvetica,sans-Serif" font-size="10.00">? context=null)</text>
<polygon fill="#666666" stroke="#666666" points="19,-335 19,-335 138,-335 138,-335 19,-335"/>
<polygon fill="#666666" stroke="#666666" points="19,-305 19,-305 34,-305 34,-305 19,-305"/>
<polygon fill="#666666" stroke="#666666" points="34,-305 34,-305 138,-305 138,-305 34,-305"/>
<polygon fill="none" stroke="#666666" points="18.5,-266 18.5,-352 137.5,-352 137.5,-266 18.5,-266"/>
</a>
</g>
</g>
<!-- Node3&#45;&gt;Node2 -->
<g id="edge2_Node000002_Node000003" class="edge">
<title>Node3&#45;&gt;Node2</title>
<g id="a_edge2_Node000002_Node000003"><a xlink:title=" ">
<path fill="none" stroke="#63b8ff" d="M112.7,-257.22C118.82,-248.26 125.13,-239.02 131.07,-230.33"/>
<polygon fill="none" stroke="#63b8ff" points="109.66,-255.46 106.91,-265.69 115.44,-259.41 109.66,-255.46"/>
</a>
</g>
</g>
<!-- Node4 -->
<g id="Node000004" class="node">
<title>Node4</title>
<g id="a_Node000004"><a xlink:href="../../d9/d62/interfaceTerraria_1_1DataStructures_1_1IEntitySource.html" target="_top" xlink:title="This object encapsulates context information about the source of a particular spawning event of an It...">
<polygon fill="white" stroke="transparent" points="156,-511 0,-511 0,-388 156,-388 156,-511"/>
<text text-anchor="start" x="45.5" y="-498.5" font-family="Helvetica,sans-Serif" font-size="10.00">IEntitySource</text>
<text text-anchor="start" x="4" y="-483.5" font-family="Helvetica,sans-Serif" font-size="10.00">+</text>
<text text-anchor="start" x="17" y="-483.5" font-family="Helvetica,sans-Serif" font-size="10.00">string? Context</text>
<text text-anchor="start" x="6.5" y="-468.5" font-family="Helvetica,sans-Serif" font-size="10.00">&#45;</text>
<text text-anchor="start" x="17" y="-468.5" font-family="Helvetica,sans-Serif" font-size="10.00">static ? IEntitySource</text>
<text text-anchor="start" x="17" y="-457.5" font-family="Helvetica,sans-Serif" font-size="10.00"> _goreFallback</text>
<text text-anchor="start" x="4" y="-442.5" font-family="Helvetica,sans-Serif" font-size="10.00">~</text>
<text text-anchor="start" x="17" y="-442.5" font-family="Helvetica,sans-Serif" font-size="10.00">static ? IEntitySource</text>
<text text-anchor="start" x="17" y="-431.5" font-family="Helvetica,sans-Serif" font-size="10.00"> GetGoreFallback()</text>
<text text-anchor="start" x="4" y="-416.5" font-family="Helvetica,sans-Serif" font-size="10.00">~</text>
<text text-anchor="start" x="17" y="-416.5" font-family="Helvetica,sans-Serif" font-size="10.00">static FallbackSourceRef</text>
<text text-anchor="start" x="17" y="-405.5" font-family="Helvetica,sans-Serif" font-size="10.00"> PushFallback(IEntitySource</text>
<text text-anchor="start" x="17" y="-394.5" font-family="Helvetica,sans-Serif" font-size="10.00"> source)</text>
<polygon fill="#666666" stroke="#666666" points="0,-493.5 0,-493.5 156,-493.5 156,-493.5 0,-493.5"/>
<polygon fill="#666666" stroke="#666666" points="0,-452.5 0,-452.5 15,-452.5 15,-452.5 0,-452.5"/>
<polygon fill="#666666" stroke="#666666" points="15,-452.5 15,-452.5 156,-452.5 156,-452.5 15,-452.5"/>
<polygon fill="none" stroke="#666666" points="0,-388 0,-511 156,-511 156,-388 0,-388"/>
</a>
</g>
</g>
<!-- Node4&#45;&gt;Node3 -->
<g id="edge3_Node000003_Node000004" class="edge">
<title>Node4&#45;&gt;Node3</title>
<g id="a_edge3_Node000003_Node000004"><a xlink:title=" ">
<path fill="none" stroke="#63b8ff" d="M78,-377.52C78,-368.79 78,-360.1 78,-352"/>
<polygon fill="none" stroke="#63b8ff" points="74.5,-377.75 78,-387.75 81.5,-377.75 74.5,-377.75"/>
</a>
</g>
</g>
<!-- Node5 -->
<g id="Node000005" class="node">
<title>Node5</title>
<g id="a_Node000005"><a xlink:href="../../d7/d52/interfaceTerraria_1_1DataStructures_1_1IEntitySource__WithStatsFromItem.html" target="_top" xlink:title="Used along with T:Terraria.DataStructures.EntitySource_Parent to indicate that stats from the item sh...">
<polygon fill="white" stroke="transparent" points="330.5,-341 155.5,-341 155.5,-277 330.5,-277 330.5,-341"/>
<text text-anchor="start" x="161" y="-329" font-family="Helvetica,sans-Serif" font-size="10.00">IEntitySource_WithStatsFromItem</text>
<text text-anchor="start" x="182" y="-314" font-family="Helvetica,sans-Serif" font-size="10.00">+</text>
<text text-anchor="start" x="217" y="-314" font-family="Helvetica,sans-Serif" font-size="10.00">Player Player</text>
<text text-anchor="start" x="182" y="-299" font-family="Helvetica,sans-Serif" font-size="10.00">+</text>
<text text-anchor="start" x="217" y="-299" font-family="Helvetica,sans-Serif" font-size="10.00">Item Item</text>
<text text-anchor="start" x="241.5" y="-284" font-family="Helvetica,sans-Serif" font-size="10.00"> </text>
<polygon fill="#666666" stroke="#666666" points="156,-324 156,-324 331,-324 331,-324 156,-324"/>
<polygon fill="#666666" stroke="#666666" points="156,-294 156,-294 215,-294 215,-294 156,-294"/>
<polygon fill="#666666" stroke="#666666" points="215,-294 215,-294 331,-294 331,-294 215,-294"/>
<polygon fill="none" stroke="#666666" points="155.5,-277 155.5,-341 330.5,-341 330.5,-277 155.5,-277"/>
</a>
</g>
</g>
<!-- Node5&#45;&gt;Node2 -->
<g id="edge4_Node000002_Node000005" class="edge">
<title>Node5&#45;&gt;Node2</title>
<g id="a_edge4_Node000002_Node000005"><a xlink:title=" ">
<path fill="none" stroke="#63b8ff" d="M215.71,-268.55C207.25,-256.31 197.89,-242.78 189.29,-230.35"/>
<polygon fill="none" stroke="#63b8ff" points="212.84,-270.55 221.41,-276.78 218.6,-266.57 212.84,-270.55"/>
</a>
</g>
</g>
<!-- Node6 -->
<g id="Node000006" class="node">
<title>Node6</title>
<g id="a_Node000006"><a xlink:href="../../da/d30/interfaceTerraria_1_1DataStructures_1_1IEntitySource__OnHurt.html" target="_top" xlink:title="Used along with T:Terraria.DataStructures.EntitySource_Parent. The P:Terraria.DataStructures....">
<polygon fill="white" stroke="transparent" points="371.5,-219 256.5,-219 256.5,-155 371.5,-155 371.5,-219"/>
<text text-anchor="start" x="262" y="-207" font-family="Helvetica,sans-Serif" font-size="10.00">IEntitySource_OnHurt</text>
<text text-anchor="start" x="265" y="-192" font-family="Helvetica,sans-Serif" font-size="10.00">+</text>
<text text-anchor="start" x="282" y="-192" font-family="Helvetica,sans-Serif" font-size="10.00">Entity? Attacker</text>
<text text-anchor="start" x="265" y="-177" font-family="Helvetica,sans-Serif" font-size="10.00">+</text>
<text text-anchor="start" x="282" y="-177" font-family="Helvetica,sans-Serif" font-size="10.00">Entity Victim</text>
<text text-anchor="start" x="312.5" y="-162" font-family="Helvetica,sans-Serif" font-size="10.00"> </text>
<polygon fill="#666666" stroke="#666666" points="257,-202 257,-202 372,-202 372,-202 257,-202"/>
<polygon fill="#666666" stroke="#666666" points="257,-172 257,-172 280,-172 280,-172 257,-172"/>
<polygon fill="#666666" stroke="#666666" points="280,-172 280,-172 372,-172 372,-172 280,-172"/>
<polygon fill="none" stroke="#666666" points="256.5,-155 256.5,-219 371.5,-219 371.5,-155 256.5,-155"/>
</a>
</g>
</g>
<!-- Node6&#45;&gt;Node1 -->
<g id="edge5_Node000001_Node000006" class="edge">
<title>Node6&#45;&gt;Node1</title>
<g id="a_edge5_Node000001_Node000006"><a xlink:title=" ">
<path fill="none" stroke="#63b8ff" d="M290.54,-146.1C283.51,-134.12 275.67,-120.79 268.22,-108.11"/>
<polygon fill="none" stroke="#63b8ff" points="287.67,-148.11 295.75,-154.95 293.7,-144.56 287.67,-148.11"/>
</a>
</g>
</g>
</g>
</svg>
