<?xml version="1.0" encoding="UTF-8" standalone="no"?>
<!DOCTYPE svg PUBLIC "-//W3C//DTD SVG 1.1//EN"
 "http://www.w3.org/Graphics/SVG/1.1/DTD/svg11.dtd">
<!-- Generated by graphviz version 2.43.0 (0)
 -->
<!-- Title: Terraria.ModLoader.Engine.FallbackSyncContext Pages: 1 -->
<svg width="278pt" height="382pt"
 viewBox="0.00 0.00 278.00 382.00" xmlns="http://www.w3.org/2000/svg" xmlns:xlink="http://www.w3.org/1999/xlink">

<svg id="main" version="1.1" xmlns="http://www.w3.org/2000/svg" xmlns:xlink="http://www.w3.org/1999/xlink" xml:space="preserve" onload="init(evt)">
<style type="text/css"><![CDATA[
.node, .edge {opacity: 0.7;}
.node.selected, .edge.selected {opacity: 1;}
.edge:hover path { stroke: red; }
.edge:hover polygon { stroke: red; fill: red; }
]]></style>
<script type="application/ecmascript" xlink:href="../../svg.min.js"/>
<svg id="graph" class="graph">
<g id="graph0" class="graph" transform="scale(1 1) rotate(0) translate(4 378)">
<title>Terraria.ModLoader.Engine.FallbackSyncContext</title>
<!-- Node1 -->
<g id="Node000001" class="node">
<title>Node1</title>
<g id="a_Node000001"><a xlink:title="Provides a SynchronizationContext for running continuations on the Main thread in the Update loop,...">
<polygon fill="#999999" stroke="transparent" points="207,-60 64,-60 64,0 207,0 207,-60"/>
<text text-anchor="start" x="69.5" y="-48" font-family="Helvetica,sans-Serif" font-size="10.00">Terraria.ModLoader.Engine.</text>
<text text-anchor="start" x="85" y="-37" font-family="Helvetica,sans-Serif" font-size="10.00">FallbackSyncContext</text>
<text text-anchor="start" x="134" y="-22" font-family="Helvetica,sans-Serif" font-size="10.00"> </text>
<text text-anchor="start" x="74.5" y="-7" font-family="Helvetica,sans-Serif" font-size="10.00">+</text>
<text text-anchor="start" x="93.5" y="-7" font-family="Helvetica,sans-Serif" font-size="10.00">static void Update()</text>
<polygon fill="#666666" stroke="#666666" points="64.5,-32 64.5,-32 207.5,-32 207.5,-32 64.5,-32"/>
<polygon fill="#666666" stroke="#666666" points="64.5,-17 64.5,-17 207.5,-17 207.5,-17 64.5,-17"/>
<polygon fill="none" stroke="#666666" points="64,0 64,-60 207,-60 207,0 64,0"/>
</a>
</g>
</g>
<!-- Node2 -->
<g id="Node000002" class="node">
<title>Node2</title>
<g id="a_Node000002"><a xlink:href="../../dc/d92/classTerraria_1_1ModLoader_1_1Engine_1_1FallbackSyncContext_1_1SyncContext.html" target="_top" xlink:title=" ">
<polygon fill="white" stroke="transparent" points="223.5,-267 47.5,-267 47.5,-107 223.5,-107 223.5,-267"/>
<text text-anchor="start" x="52.5" y="-255" font-family="Helvetica,sans-Serif" font-size="10.00">Terraria.ModLoader.Engine.</text>
<text text-anchor="start" x="52.5" y="-244" font-family="Helvetica,sans-Serif" font-size="10.00">FallbackSyncContext.SyncContext</text>
<text text-anchor="start" x="133.5" y="-229" font-family="Helvetica,sans-Serif" font-size="10.00"> </text>
<text text-anchor="start" x="59.5" y="-214" font-family="Helvetica,sans-Serif" font-size="10.00">+</text>
<text text-anchor="start" x="80.5" y="-214" font-family="Helvetica,sans-Serif" font-size="10.00">override void Send</text>
<text text-anchor="start" x="80.5" y="-203" font-family="Helvetica,sans-Serif" font-size="10.00">(SendOrPostCallback</text>
<text text-anchor="start" x="80.5" y="-192" font-family="Helvetica,sans-Serif" font-size="10.00"> d, object state)</text>
<text text-anchor="start" x="59.5" y="-177" font-family="Helvetica,sans-Serif" font-size="10.00">+</text>
<text text-anchor="start" x="80.5" y="-177" font-family="Helvetica,sans-Serif" font-size="10.00">override void Post</text>
<text text-anchor="start" x="80.5" y="-166" font-family="Helvetica,sans-Serif" font-size="10.00">(SendOrPostCallback</text>
<text text-anchor="start" x="80.5" y="-155" font-family="Helvetica,sans-Serif" font-size="10.00"> d, object state)</text>
<text text-anchor="start" x="59.5" y="-140" font-family="Helvetica,sans-Serif" font-size="10.00">+</text>
<text text-anchor="start" x="80.5" y="-140" font-family="Helvetica,sans-Serif" font-size="10.00">override Synchronization</text>
<text text-anchor="start" x="80.5" y="-129" font-family="Helvetica,sans-Serif" font-size="10.00">Context CreateCopy()</text>
<text text-anchor="start" x="59.5" y="-114" font-family="Helvetica,sans-Serif" font-size="10.00">~</text>
<text text-anchor="start" x="80.5" y="-114" font-family="Helvetica,sans-Serif" font-size="10.00">void Update()</text>
<polygon fill="#666666" stroke="#666666" points="47.5,-239 47.5,-239 223.5,-239 223.5,-239 47.5,-239"/>
<polygon fill="#666666" stroke="#666666" points="47.5,-224 47.5,-224 223.5,-224 223.5,-224 47.5,-224"/>
<polygon fill="none" stroke="#666666" points="47.5,-107 47.5,-267 223.5,-267 223.5,-107 47.5,-107"/>
</a>
</g>
</g>
<!-- Node2&#45;&gt;Node1 -->
<g id="edge1_Node000001_Node000002" class="edge">
<title>Node2&#45;&gt;Node1</title>
<g id="a_edge1_Node000001_Node000002"><a xlink:title=" ">
<path fill="none" stroke="#63b8ff" d="M135.5,-106.68C135.5,-94.82 135.5,-83.02 135.5,-72.38"/>
<polygon fill="none" stroke="#63b8ff" points="135.5,-72.06 131.5,-66.06 135.5,-60.06 139.5,-66.06 135.5,-72.06"/>
</a>
</g>
<text text-anchor="middle" x="146.5" y="-81" font-family="Helvetica,sans-Serif" font-size="10.00" fill="grey"> &#45;ctx</text>
</g>
<!-- Node3 -->
<g id="Node000003" class="node">
<title>Node3</title>
<g id="a_Node000003"><a xlink:href="../../d6/dbc/classSynchronizationContext.html" target="_top" xlink:title=" ">
<polygon fill="white" stroke="transparent" points="127,-368.5 0,-368.5 0,-319.5 127,-319.5 127,-368.5"/>
<text text-anchor="start" x="5.5" y="-356" font-family="Helvetica,sans-Serif" font-size="10.00">SynchronizationContext</text>
<text text-anchor="start" x="62" y="-341" font-family="Helvetica,sans-Serif" font-size="10.00"> </text>
<text text-anchor="start" x="62" y="-326" font-family="Helvetica,sans-Serif" font-size="10.00"> </text>
<polygon fill="#666666" stroke="#666666" points="0.5,-351 0.5,-351 127.5,-351 127.5,-351 0.5,-351"/>
<polygon fill="#666666" stroke="#666666" points="0.5,-336 0.5,-336 127.5,-336 127.5,-336 0.5,-336"/>
<polygon fill="none" stroke="#666666" points="0,-319.5 0,-368.5 127,-368.5 127,-319.5 0,-319.5"/>
</a>
</g>
</g>
<!-- Node3&#45;&gt;Node2 -->
<g id="edge2_Node000002_Node000003" class="edge">
<title>Node3&#45;&gt;Node2</title>
<g id="a_edge2_Node000002_Node000003"><a xlink:title=" ">
<path fill="none" stroke="#63b8ff" d="M78.72,-310.23C84.64,-297.49 91.7,-282.29 98.79,-267.02"/>
<polygon fill="none" stroke="#63b8ff" points="75.47,-308.92 74.44,-319.46 81.82,-311.86 75.47,-308.92"/>
</a>
</g>
</g>
<!-- Node4 -->
<g id="Node000004" class="node">
<title>Node4</title>
<g id="a_Node000004"><a xlink:title=" ">
<polygon fill="white" stroke="transparent" points="270,-374 145,-374 145,-314 270,-314 270,-374"/>
<text text-anchor="start" x="150.5" y="-362" font-family="Helvetica,sans-Serif" font-size="10.00">static ConcurrentQueue</text>
<text text-anchor="start" x="181" y="-351" font-family="Helvetica,sans-Serif" font-size="10.00">&lt; Action &gt;</text>
<text text-anchor="start" x="206" y="-336" font-family="Helvetica,sans-Serif" font-size="10.00"> </text>
<text text-anchor="start" x="206" y="-321" font-family="Helvetica,sans-Serif" font-size="10.00"> </text>
<polygon fill="#666666" stroke="#666666" points="145.5,-346 145.5,-346 270.5,-346 270.5,-346 145.5,-346"/>
<polygon fill="#666666" stroke="#666666" points="145.5,-331 145.5,-331 270.5,-331 270.5,-331 145.5,-331"/>
<polygon fill="none" stroke="#666666" points="145,-314 145,-374 270,-374 270,-314 145,-314"/>
</a>
</g>
</g>
<!-- Node4&#45;&gt;Node2 -->
<g id="edge3_Node000002_Node000004" class="edge">
<title>Node4&#45;&gt;Node2</title>
<g id="a_edge3_Node000002_Node000004"><a xlink:title=" ">
<path fill="none" stroke="#63b8ff" d="M193.96,-313.85C189.09,-303.36 183.31,-290.92 177.3,-277.99"/>
<polygon fill="none" stroke="#63b8ff" points="177.28,-277.94 171.12,-274.19 172.22,-267.06 178.38,-270.82 177.28,-277.94"/>
</a>
</g>
<text text-anchor="middle" x="205" y="-288" font-family="Helvetica,sans-Serif" font-size="10.00" fill="grey"> &#45;actions</text>
</g>
</g>
</svg>
</svg>

<style type='text/css'>
<![CDATA[
[data-mouse-over-selected='false'] { opacity: 0.7; }
[data-mouse-over-selected='true']  { opacity: 1.0; }
]]>
</style>
<script type="application/ecmascript"><![CDATA[
document.addEventListener('DOMContentLoaded', (event) => {
  highlightEdges();
  highlightAdjacentNodes();
});
]]></script>
</svg>
