<?xml version="1.0" encoding="UTF-8" standalone="no"?>
<!DOCTYPE svg PUBLIC "-//W3C//DTD SVG 1.1//EN"
 "http://www.w3.org/Graphics/SVG/1.1/DTD/svg11.dtd">
<!-- Generated by graphviz version 2.43.0 (0)
 -->
<!-- Title: Terraria.NPC.TypeToDefaultHeadIndex Pages: 1 -->
<!--zoomable 335 -->

<svg id="main" version="1.1" xmlns="http://www.w3.org/2000/svg" xmlns:xlink="http://www.w3.org/1999/xlink" xml:space="preserve" onload="init(evt)">
<style type="text/css"><![CDATA[
.node, .edge {opacity: 0.7;}
.node.selected, .edge.selected {opacity: 1;}
.edge:hover path { stroke: red; }
.edge:hover polygon { stroke: red; fill: red; }
]]></style>

<defs>
  <circle id="rim" cx="0" cy="0" r="7"/>
  <circle id="rim2" cx="0" cy="0" r="3.5"/>
  <g id="zoomPlus">
    <use xlink:href="#rim" fill="#404040"><set attributeName="fill" to="#808080" begin="zoomplus.mouseover" end="zoomplus.mouseout"/></use>
    <path d="M-4,0h8M0,-4v8" fill="none" stroke="white" stroke-width="1.5" pointer-events="none"/>
  </g>
  <g id="zoomMin">
    <use xlink:href="#rim" fill="#404040"><set attributeName="fill" to="#808080" begin="zoomminus.mouseover" end="zoomminus.mouseout"/></use>
    <path d="M-4,0h8" fill="none" stroke="white" stroke-width="1.5" pointer-events="none"/>
  </g>
  <g id="arrowUp" transform="translate(30 24)">
    <use xlink:href="#rim"/>
    <path pointer-events="none" fill="none" stroke="white" stroke-width="1.5" d="M0,-3.0v7 M-2.5,-0.5L0,-3.0L2.5,-0.5"/>
  </g>
  <g id="arrowRight" transform="rotate(90) translate(36 -43)">
    <use xlink:href="#rim"/>
    <path pointer-events="none" fill="none" stroke="white" stroke-width="1.5" d="M0,-3.0v7 M-2.5,-0.5L0,-3.0L2.5,-0.5"/>
  </g>
  <g id="arrowDown" transform="rotate(180) translate(-30 -48)">
    <use xlink:href="#rim"/>
    <path pointer-events="none" fill="none" stroke="white" stroke-width="1.5" d="M0,-3.0v7 M-2.5,-0.5L0,-3.0L2.5,-0.5"/>
  </g>
  <g id="arrowLeft" transform="rotate(270) translate(-36 17)">
    <use xlink:href="#rim"/>
    <path pointer-events="none" fill="none" stroke="white" stroke-width="1.5" d="M0,-3.0v7 M-2.5,-0.5L0,-3.0L2.5,-0.5"/>
  </g>
  <g id="resetDef">
    <use xlink:href="#rim2" fill="#404040"><set attributeName="fill" to="#808080" begin="reset.mouseover" end="reset.mouseout"/></use>
  </g>
</defs>
<script type="application/ecmascript">
var viewWidth = 1830;
var viewHeight = 335;
var sectionId = 'dynsection-1';
</script>
<script type="application/ecmascript" xlink:href="../../svg.min.js"/>
<svg id="graph" class="graph">
<g id="viewport">
<title>Terraria.NPC.TypeToDefaultHeadIndex</title>
<!-- Node1 -->
<g id="Node000001" class="node">
<title>Node1</title>
<g id="a_Node000001"><a xlink:title=" ">
<polygon fill="#999999" stroke="#666666" points="1822,-204 1673,-204 1673,-174 1822,-174 1822,-204"/>
<text text-anchor="start" x="1681" y="-192" font-family="Helvetica,sans-Serif" font-size="10.00">Terraria.NPC.TypeToDefault</text>
<text text-anchor="middle" x="1747.5" y="-181" font-family="Helvetica,sans-Serif" font-size="10.00">HeadIndex</text>
</a>
</g>
</g>
<!-- Node2 -->
<g id="Node000002" class="node">
<title>Node2</title>
<g id="a_Node000002"><a xlink:href="../../dd/dc6/classTerraria_1_1ModLoader_1_1NPCLoader_a3696fb8721f03e71e117169d71df2b16.html#a3696fb8721f03e71e117169d71df2b16" target="_top" xlink:title=" ">
<polygon fill="white" stroke="#666666" points="1637,-285 1469,-285 1469,-255 1637,-255 1637,-285"/>
<text text-anchor="start" x="1477" y="-273" font-family="Helvetica,sans-Serif" font-size="10.00">Terraria.ModLoader.NPCLoader.</text>
<text text-anchor="middle" x="1553" y="-262" font-family="Helvetica,sans-Serif" font-size="10.00">CanTownNPCSpawn</text>
</a>
</g>
</g>
<!-- Node1&#45;&gt;Node2 -->
<g id="edge1_Node000001_Node000002" class="edge">
<title>Node1&#45;&gt;Node2</title>
<g id="a_edge1_Node000001_Node000002"><a xlink:title=" ">
<path fill="none" stroke="#63b8ff" d="M1712.15,-209.13C1690.98,-220.96 1663,-235.59 1637,-246 1628.92,-249.23 1620.25,-252.23 1611.65,-254.94"/>
<polygon fill="#63b8ff" stroke="#63b8ff" points="1714.1,-212.05 1721.08,-204.08 1710.65,-205.96 1714.1,-212.05"/>
</a>
</g>
</g>
<!-- Node9 -->
<g id="Node000009" class="node">
<title>Node9</title>
<g id="a_Node000009"><a xlink:href="../../d4/d03/classTerraria_1_1Player_a4098135ac12e486543d6c84677dbd722.html#a4098135ac12e486543d6c84677dbd722" target="_top" xlink:title=" ">
<polygon fill="white" stroke="#666666" points="1628,-236.5 1478,-236.5 1478,-217.5 1628,-217.5 1628,-236.5"/>
<text text-anchor="middle" x="1553" y="-224.5" font-family="Helvetica,sans-Serif" font-size="10.00">Terraria.Player.CollectTaxes</text>
</a>
</g>
</g>
<!-- Node1&#45;&gt;Node9 -->
<g id="edge9_Node000001_Node000009" class="edge">
<title>Node1&#45;&gt;Node9</title>
<g id="a_edge9_Node000001_Node000009"><a xlink:title=" ">
<path fill="none" stroke="#63b8ff" d="M1662.82,-205.52C1642.11,-209.61 1620.62,-213.85 1602.26,-217.47"/>
<polygon fill="#63b8ff" stroke="#63b8ff" points="1663.77,-208.9 1672.9,-203.53 1662.41,-202.03 1663.77,-208.9"/>
</a>
</g>
</g>
<!-- Node10 -->
<g id="Node000010" class="node">
<title>Node10</title>
<g id="a_Node000010"><a xlink:href="../../da/dd5/classTerraria_1_1Main_a526c8ddc030bbc0565fc455d4629907a.html#a526c8ddc030bbc0565fc455d4629907a" target="_top" xlink:title=" ">
<polygon fill="white" stroke="#666666" points="1416.5,-206 1264.5,-206 1264.5,-176 1416.5,-176 1416.5,-206"/>
<text text-anchor="start" x="1272.5" y="-194" font-family="Helvetica,sans-Serif" font-size="10.00">Terraria.Main.DrawInterface</text>
<text text-anchor="middle" x="1340.5" y="-183" font-family="Helvetica,sans-Serif" font-size="10.00">_38_MouseCarriedObject</text>
</a>
</g>
</g>
<!-- Node1&#45;&gt;Node10 -->
<g id="edge10_Node000001_Node000010" class="edge">
<title>Node1&#45;&gt;Node10</title>
<g id="a_edge10_Node000001_Node000010"><a xlink:title=" ">
<path fill="none" stroke="#63b8ff" d="M1662.67,-189.41C1590.17,-189.77 1486.32,-190.28 1416.52,-190.63"/>
<polygon fill="#63b8ff" stroke="#63b8ff" points="1662.71,-192.91 1672.69,-189.36 1662.67,-185.91 1662.71,-192.91"/>
</a>
</g>
</g>
<!-- Node16 -->
<g id="Node000016" class="node">
<title>Node16</title>
<g id="a_Node000016"><a xlink:href="../../d7/df3/classTerraria_1_1GameContent_1_1TownNPCProfiles_a6841a3c07bfec84a2a3431a1d81ee8f0.html#a6841a3c07bfec84a2a3431a1d81ee8f0" target="_top" xlink:title=" ">
<polygon fill="white" stroke="#666666" points="1636.5,-161 1469.5,-161 1469.5,-131 1636.5,-131 1636.5,-161"/>
<text text-anchor="start" x="1477.5" y="-149" font-family="Helvetica,sans-Serif" font-size="10.00">Terraria.GameContent.Town</text>
<text text-anchor="middle" x="1553" y="-138" font-family="Helvetica,sans-Serif" font-size="10.00">NPCProfiles.GetHeadIndexSafe</text>
</a>
</g>
</g>
<!-- Node1&#45;&gt;Node16 -->
<g id="edge16_Node000001_Node000016" class="edge">
<title>Node1&#45;&gt;Node16</title>
<g id="a_edge16_Node000001_Node000016"><a xlink:title=" ">
<path fill="none" stroke="#63b8ff" d="M1669.37,-171.77C1653.46,-168.22 1636.82,-164.5 1621.29,-161.03"/>
<polygon fill="#63b8ff" stroke="#63b8ff" points="1668.65,-175.2 1679.17,-173.96 1670.18,-168.36 1668.65,-175.2"/>
</a>
</g>
</g>
<!-- Node25 -->
<g id="Node000025" class="node">
<title>Node25</title>
<g id="a_Node000025"><a xlink:href="../../d2/dfe/classTerraria_1_1NetMessage_a25a7345a340a5dfc865751e715422250.html#a25a7345a340a5dfc865751e715422250" target="_top" xlink:title=" ">
<polygon fill="white" stroke="#666666" points="1625.5,-76 1480.5,-76 1480.5,-46 1625.5,-46 1625.5,-76"/>
<text text-anchor="start" x="1488.5" y="-64" font-family="Helvetica,sans-Serif" font-size="10.00">Terraria.NetMessage.Send</text>
<text text-anchor="middle" x="1553" y="-53" font-family="Helvetica,sans-Serif" font-size="10.00">NPCHousesAndTravelShop</text>
</a>
</g>
</g>
<!-- Node1&#45;&gt;Node25 -->
<g id="edge31_Node000001_Node000025" class="edge">
<title>Node1&#45;&gt;Node25</title>
<g id="a_edge31_Node000001_Node000025"><a xlink:title=" ">
<path fill="none" stroke="#63b8ff" d="M1714.85,-167.96C1676.01,-142.13 1611.09,-98.96 1576.81,-76.17"/>
<polygon fill="#63b8ff" stroke="#63b8ff" points="1713.4,-171.19 1723.66,-173.81 1717.27,-165.36 1713.4,-171.19"/>
</a>
</g>
</g>
<!-- Node3 -->
<g id="Node000003" class="node">
<title>Node3</title>
<g id="a_Node000003"><a xlink:href="../../da/dd5/classTerraria_1_1Main_abedfaeacfe274cc47b8bef4eced7c044.html#abedfaeacfe274cc47b8bef4eced7c044" target="_top" xlink:title=" ">
<polygon fill="white" stroke="#666666" points="1412,-285 1269,-285 1269,-255 1412,-255 1412,-285"/>
<text text-anchor="start" x="1277" y="-273" font-family="Helvetica,sans-Serif" font-size="10.00">Terraria.Main.UpdateTime</text>
<text text-anchor="middle" x="1340.5" y="-262" font-family="Helvetica,sans-Serif" font-size="10.00">_SpawnTownNPCs</text>
</a>
</g>
</g>
<!-- Node2&#45;&gt;Node3 -->
<g id="edge2_Node000002_Node000003" class="edge">
<title>Node2&#45;&gt;Node3</title>
<g id="a_edge2_Node000002_Node000003"><a xlink:title=" ">
<path fill="none" stroke="#63b8ff" d="M1458.63,-270C1443.04,-270 1427.1,-270 1412.2,-270"/>
<polygon fill="#63b8ff" stroke="#63b8ff" points="1458.8,-273.5 1468.8,-270 1458.8,-266.5 1458.8,-273.5"/>
</a>
</g>
</g>
<!-- Node4 -->
<g id="Node000004" class="node">
<title>Node4</title>
<g id="a_Node000004"><a xlink:href="../../da/dd5/classTerraria_1_1Main_a172d9fc82fc36587b85bb266f9868bf2.html#a172d9fc82fc36587b85bb266f9868bf2" target="_top" xlink:title=" ">
<polygon fill="white" stroke="#666666" points="1197.5,-279.5 1054.5,-279.5 1054.5,-260.5 1197.5,-260.5 1197.5,-279.5"/>
<text text-anchor="middle" x="1126" y="-267.5" font-family="Helvetica,sans-Serif" font-size="10.00">Terraria.Main.UpdateTime</text>
</a>
</g>
</g>
<!-- Node3&#45;&gt;Node4 -->
<g id="edge3_Node000003_Node000004" class="edge">
<title>Node3&#45;&gt;Node4</title>
<g id="a_edge3_Node000003_Node000004"><a xlink:title=" ">
<path fill="none" stroke="#63b8ff" d="M1258.71,-270C1238.66,-270 1217.34,-270 1197.81,-270"/>
<polygon fill="#63b8ff" stroke="#63b8ff" points="1258.74,-273.5 1268.74,-270 1258.74,-266.5 1258.74,-273.5"/>
</a>
</g>
</g>
<!-- Node5 -->
<g id="Node000005" class="node">
<title>Node5</title>
<g id="a_Node000005"><a xlink:href="../../da/dd5/classTerraria_1_1Main_a39cdec3f201787a467045358bfcba377.html#a39cdec3f201787a467045358bfcba377" target="_top" xlink:title=" ">
<polygon fill="white" stroke="#666666" points="998.5,-327 857.5,-327 857.5,-297 998.5,-297 998.5,-327"/>
<text text-anchor="start" x="865.5" y="-315" font-family="Helvetica,sans-Serif" font-size="10.00">Terraria.Main.DoUpdateIn</text>
<text text-anchor="middle" x="928" y="-304" font-family="Helvetica,sans-Serif" font-size="10.00">World</text>
</a>
</g>
</g>
<!-- Node4&#45;&gt;Node5 -->
<g id="edge4_Node000004_Node000005" class="edge">
<title>Node4&#45;&gt;Node5</title>
<g id="a_edge4_Node000004_Node000005"><a xlink:title=" ">
<path fill="none" stroke="#63b8ff" d="M1070.58,-281.66C1048.33,-286.43 1022.3,-292.01 998.68,-297.07"/>
<polygon fill="#63b8ff" stroke="#63b8ff" points="1071.48,-285.05 1080.52,-279.53 1070.01,-278.2 1071.48,-285.05"/>
</a>
</g>
</g>
<!-- Node8 -->
<g id="Node000008" class="node">
<title>Node8</title>
<g id="a_Node000008"><a xlink:href="../../da/dd5/classTerraria_1_1Main_a7f3b3b6ca2af07b7eef45694f12678f4.html#a7f3b3b6ca2af07b7eef45694f12678f4" target="_top" xlink:title=" ">
<polygon fill="white" stroke="#666666" points="1001,-278.5 855,-278.5 855,-259.5 1001,-259.5 1001,-278.5"/>
<text text-anchor="middle" x="928" y="-266.5" font-family="Helvetica,sans-Serif" font-size="10.00">Terraria.Main.UpdateMenu</text>
</a>
</g>
</g>
<!-- Node4&#45;&gt;Node8 -->
<g id="edge7_Node000004_Node000008" class="edge">
<title>Node4&#45;&gt;Node8</title>
<g id="a_edge7_Node000004_Node000008"><a xlink:title=" ">
<path fill="none" stroke="#63b8ff" d="M1044.03,-269.59C1029.87,-269.51 1015.21,-269.44 1001.3,-269.37"/>
<polygon fill="#63b8ff" stroke="#63b8ff" points="1044.22,-273.09 1054.24,-269.64 1044.26,-266.09 1044.22,-273.09"/>
</a>
</g>
</g>
<!-- Node6 -->
<g id="Node000006" class="node">
<title>Node6</title>
<g id="a_Node000006"><a xlink:href="../../da/dd5/classTerraria_1_1Main_a96341b8439a15bcefc0f119767e24e35.html#a96341b8439a15bcefc0f119767e24e35" target="_top" xlink:title=" ">
<polygon fill="white" stroke="#666666" points="792,-299.5 660,-299.5 660,-280.5 792,-280.5 792,-299.5"/>
<text text-anchor="middle" x="726" y="-287.5" font-family="Helvetica,sans-Serif" font-size="10.00">Terraria.Main.DoUpdate</text>
</a>
</g>
</g>
<!-- Node5&#45;&gt;Node6 -->
<g id="edge5_Node000005_Node000006" class="edge">
<title>Node5&#45;&gt;Node6</title>
<g id="a_edge5_Node000005_Node000006"><a xlink:title=" ">
<path fill="none" stroke="#63b8ff" d="M847.27,-303.23C828.94,-301.21 809.67,-299.09 792.06,-297.16"/>
<polygon fill="#63b8ff" stroke="#63b8ff" points="847.01,-306.72 857.33,-304.34 847.77,-299.76 847.01,-306.72"/>
</a>
</g>
</g>
<!-- Node7 -->
<g id="Node000007" class="node">
<title>Node7</title>
<g id="a_Node000007"><a xlink:href="../../da/dd5/classTerraria_1_1Main_a49776516aea1626e33c722fc8896a7de.html#a49776516aea1626e33c722fc8896a7de" target="_top" xlink:title=" ">
<polygon fill="white" stroke="#666666" points="583.5,-299.5 464.5,-299.5 464.5,-280.5 583.5,-280.5 583.5,-299.5"/>
<text text-anchor="middle" x="524" y="-287.5" font-family="Helvetica,sans-Serif" font-size="10.00">Terraria.Main.Update</text>
</a>
</g>
</g>
<!-- Node6&#45;&gt;Node7 -->
<g id="edge6_Node000006_Node000007" class="edge">
<title>Node6&#45;&gt;Node7</title>
<g id="a_edge6_Node000006_Node000007"><a xlink:title=" ">
<path fill="none" stroke="#63b8ff" d="M649.58,-290C627.78,-290 604.32,-290 583.71,-290"/>
<polygon fill="#63b8ff" stroke="#63b8ff" points="649.79,-293.5 659.79,-290 649.79,-286.5 649.79,-293.5"/>
</a>
</g>
</g>
<!-- Node8&#45;&gt;Node6 -->
<g id="edge8_Node000008_Node000006" class="edge">
<title>Node8&#45;&gt;Node6</title>
<g id="a_edge8_Node000008_Node000006"><a xlink:title=" ">
<path fill="none" stroke="#63b8ff" d="M844.6,-277.65C827.1,-279.49 808.87,-281.4 792.12,-283.16"/>
<polygon fill="#63b8ff" stroke="#63b8ff" points="845.22,-281.11 854.8,-276.58 844.48,-274.14 845.22,-281.11"/>
</a>
</g>
</g>
<!-- Node11 -->
<g id="Node000011" class="node">
<title>Node11</title>
<g id="a_Node000011"><a xlink:href="../../da/dd5/classTerraria_1_1Main_a635639e6a6d3795bbfbcf0e24fc3aac5.html#a635639e6a6d3795bbfbcf0e24fc3aac5" target="_top" xlink:title=" ">
<polygon fill="white" stroke="#666666" points="816,-143 636,-143 636,-113 816,-113 816,-143"/>
<text text-anchor="start" x="644" y="-131" font-family="Helvetica,sans-Serif" font-size="10.00">Terraria.Main.SetupDrawInterface</text>
<text text-anchor="middle" x="726" y="-120" font-family="Helvetica,sans-Serif" font-size="10.00">Layers</text>
</a>
</g>
</g>
<!-- Node10&#45;&gt;Node11 -->
<g id="edge11_Node000010_Node000011" class="edge">
<title>Node10&#45;&gt;Node11</title>
<g id="a_edge11_Node000010_Node000011"><a xlink:title=" ">
<path fill="none" stroke="#63b8ff" d="M1254.21,-195.73C1156.18,-199.35 990.93,-199.9 852,-173 819.73,-166.75 784.66,-153.52 759.9,-143.01"/>
<polygon fill="#63b8ff" stroke="#63b8ff" points="1254.5,-199.22 1264.36,-195.33 1254.23,-192.22 1254.5,-199.22"/>
</a>
</g>
</g>
<!-- Node12 -->
<g id="Node000012" class="node">
<title>Node12</title>
<g id="a_Node000012"><a xlink:href="../../da/dd5/classTerraria_1_1Main_a36d139a1fd2647d53f25a241f3d5d5f4.html#a36d139a1fd2647d53f25a241f3d5d5f4" target="_top" xlink:title=" ">
<polygon fill="white" stroke="#666666" points="600,-161.5 448,-161.5 448,-142.5 600,-142.5 600,-161.5"/>
<text text-anchor="middle" x="524" y="-149.5" font-family="Helvetica,sans-Serif" font-size="10.00">Terraria.Main.DrawInterface</text>
</a>
</g>
</g>
<!-- Node11&#45;&gt;Node12 -->
<g id="edge12_Node000011_Node000012" class="edge">
<title>Node11&#45;&gt;Node12</title>
<g id="a_edge12_Node000011_Node000012"><a xlink:title=" ">
<path fill="none" stroke="#63b8ff" d="M625.77,-139.91C617.19,-140.94 608.6,-141.97 600.26,-142.97"/>
<polygon fill="#63b8ff" stroke="#63b8ff" points="626.31,-143.37 635.82,-138.7 625.48,-136.42 626.31,-143.37"/>
</a>
</g>
</g>
<!-- Node13 -->
<g id="Node000013" class="node">
<title>Node13</title>
<g id="a_Node000013"><a xlink:href="../../da/dd5/classTerraria_1_1Main_a474beeecaea4d6dd108fba56cd554d46.html#a474beeecaea4d6dd108fba56cd554d46" target="_top" xlink:title=" ">
<polygon fill="white" stroke="#666666" points="412,-180.5 290,-180.5 290,-161.5 412,-161.5 412,-180.5"/>
<text text-anchor="middle" x="351" y="-168.5" font-family="Helvetica,sans-Serif" font-size="10.00">Terraria.Main.DoDraw</text>
</a>
</g>
</g>
<!-- Node12&#45;&gt;Node13 -->
<g id="edge13_Node000012_Node000013" class="edge">
<title>Node12&#45;&gt;Node13</title>
<g id="a_edge13_Node000012_Node000013"><a xlink:title=" ">
<path fill="none" stroke="#63b8ff" d="M437.81,-161.47C429.1,-162.43 420.4,-163.4 412.05,-164.33"/>
<polygon fill="#63b8ff" stroke="#63b8ff" points="438.44,-164.92 448,-160.33 437.67,-157.96 438.44,-164.92"/>
</a>
</g>
</g>
<!-- Node14 -->
<g id="Node000014" class="node">
<title>Node14</title>
<g id="a_Node000014"><a xlink:href="../../da/dd5/classTerraria_1_1Main_aa597dbafa085227bb056d05d0b0f9abe.html#aa597dbafa085227bb056d05d0b0f9abe" target="_top" xlink:title=" ">
<polygon fill="white" stroke="#666666" points="254,-186 145,-186 145,-156 254,-156 254,-186"/>
<text text-anchor="start" x="153" y="-174" font-family="Helvetica,sans-Serif" font-size="10.00">Terraria.Main.Draw</text>
<text text-anchor="middle" x="199.5" y="-163" font-family="Helvetica,sans-Serif" font-size="10.00">_Inner</text>
</a>
</g>
</g>
<!-- Node13&#45;&gt;Node14 -->
<g id="edge14_Node000013_Node000014" class="edge">
<title>Node13&#45;&gt;Node14</title>
<g id="a_edge14_Node000013_Node000014"><a xlink:title=" ">
<path fill="none" stroke="#63b8ff" d="M279.41,-171C270.99,-171 262.49,-171 254.35,-171"/>
<polygon fill="#63b8ff" stroke="#63b8ff" points="279.62,-174.5 289.62,-171 279.62,-167.5 279.62,-174.5"/>
</a>
</g>
</g>
<!-- Node15 -->
<g id="Node000015" class="node">
<title>Node15</title>
<g id="a_Node000015"><a xlink:href="../../da/dd5/classTerraria_1_1Main_a516aa31311860bad4242ade32e5effcd.html#a516aa31311860bad4242ade32e5effcd" target="_top" xlink:title=" ">
<polygon fill="white" stroke="#666666" points="109,-180.5 0,-180.5 0,-161.5 109,-161.5 109,-180.5"/>
<text text-anchor="middle" x="54.5" y="-168.5" font-family="Helvetica,sans-Serif" font-size="10.00">Terraria.Main.Draw</text>
</a>
</g>
</g>
<!-- Node14&#45;&gt;Node15 -->
<g id="edge15_Node000014_Node000015" class="edge">
<title>Node14&#45;&gt;Node15</title>
<g id="a_edge15_Node000014_Node000015"><a xlink:title=" ">
<path fill="none" stroke="#63b8ff" d="M134.68,-171C126.25,-171 117.69,-171 109.46,-171"/>
<polygon fill="#63b8ff" stroke="#63b8ff" points="134.85,-174.5 144.85,-171 134.85,-167.5 134.85,-174.5"/>
</a>
</g>
</g>
<!-- Node16&#45;&gt;Node10 -->
<g id="edge17_Node000016_Node000010" class="edge">
<title>Node16&#45;&gt;Node10</title>
<g id="a_edge17_Node000016_Node000010"><a xlink:title=" ">
<path fill="none" stroke="#63b8ff" d="M1471.74,-163.16C1452.01,-167.38 1431.04,-171.86 1411.82,-175.97"/>
<polygon fill="#63b8ff" stroke="#63b8ff" points="1472.57,-166.56 1481.61,-161.05 1471.1,-159.71 1472.57,-166.56"/>
</a>
</g>
</g>
<!-- Node17 -->
<g id="Node000017" class="node">
<title>Node17</title>
<g id="a_Node000017"><a xlink:href="../../da/dd5/classTerraria_1_1Main_a3a072e6244aa6e35e98bd282d5bcf6e7.html#a3a072e6244aa6e35e98bd282d5bcf6e7" target="_top" xlink:title=" ">
<polygon fill="white" stroke="#666666" points="1405.5,-157.5 1275.5,-157.5 1275.5,-138.5 1405.5,-138.5 1405.5,-157.5"/>
<text text-anchor="middle" x="1340.5" y="-145.5" font-family="Helvetica,sans-Serif" font-size="10.00">Terraria.Main.DrawMap</text>
</a>
</g>
</g>
<!-- Node16&#45;&gt;Node17 -->
<g id="edge18_Node000016_Node000017" class="edge">
<title>Node16&#45;&gt;Node17</title>
<g id="a_edge18_Node000016_Node000017"><a xlink:title=" ">
<path fill="none" stroke="#63b8ff" d="M1459.39,-146.88C1441.25,-147.05 1422.59,-147.23 1405.63,-147.39"/>
<polygon fill="#63b8ff" stroke="#63b8ff" points="1459.44,-150.38 1469.41,-146.78 1459.38,-143.38 1459.44,-150.38"/>
</a>
</g>
</g>
<!-- Node20 -->
<g id="Node000020" class="node">
<title>Node20</title>
<g id="a_Node000020"><a xlink:href="../../da/dd5/classTerraria_1_1Main_aa1eec8369ef7ed57693e685150ac22d0.html#aa1eec8369ef7ed57693e685150ac22d0" target="_top" xlink:title=" ">
<polygon fill="white" stroke="#666666" points="1433,-120.5 1248,-120.5 1248,-101.5 1433,-101.5 1433,-120.5"/>
<text text-anchor="middle" x="1340.5" y="-108.5" font-family="Helvetica,sans-Serif" font-size="10.00">Terraria.Main.DrawNPCHousesInUI</text>
</a>
</g>
</g>
<!-- Node16&#45;&gt;Node20 -->
<g id="edge24_Node000016_Node000020" class="edge">
<title>Node16&#45;&gt;Node20</title>
<g id="a_edge24_Node000016_Node000020"><a xlink:title=" ">
<path fill="none" stroke="#63b8ff" d="M1459.37,-130.6C1438.78,-127.17 1417.53,-123.64 1398.85,-120.53"/>
<polygon fill="#63b8ff" stroke="#63b8ff" points="1458.97,-134.08 1469.41,-132.27 1460.12,-127.17 1458.97,-134.08"/>
</a>
</g>
</g>
<!-- Node23 -->
<g id="Node000023" class="node">
<title>Node23</title>
<g id="a_Node000023"><a xlink:href="../../da/dd5/classTerraria_1_1Main_a41324f980c518686b58b5b01ea7de791.html#a41324f980c518686b58b5b01ea7de791" target="_top" xlink:title=" ">
<polygon fill="white" stroke="#666666" points="1423,-83 1258,-83 1258,-53 1423,-53 1423,-83"/>
<text text-anchor="start" x="1266" y="-71" font-family="Helvetica,sans-Serif" font-size="10.00">Terraria.Main.DrawNPCHouses</text>
<text text-anchor="middle" x="1340.5" y="-60" font-family="Helvetica,sans-Serif" font-size="10.00">InWorld</text>
</a>
</g>
</g>
<!-- Node16&#45;&gt;Node23 -->
<g id="edge28_Node000016_Node000023" class="edge">
<title>Node16&#45;&gt;Node23</title>
<g id="a_edge28_Node000016_Node000023"><a xlink:title=" ">
<path fill="none" stroke="#63b8ff" d="M1512.65,-126.66C1489.75,-115.87 1460.14,-102.69 1433,-93 1423.07,-89.46 1412.39,-86.12 1401.95,-83.11"/>
<polygon fill="#63b8ff" stroke="#63b8ff" points="1511.17,-129.83 1521.7,-130.97 1514.18,-123.51 1511.17,-129.83"/>
</a>
</g>
</g>
<!-- Node17&#45;&gt;Node13 -->
<g id="edge19_Node000017_Node000013" class="edge">
<title>Node17&#45;&gt;Node13</title>
<g id="a_edge19_Node000017_Node000013"><a xlink:title=" ">
<path fill="none" stroke="#63b8ff" d="M1285.64,-159.57C1263,-164.06 1236.31,-168.86 1212,-172 1086.94,-188.13 1055.09,-192 929,-192 929,-192 929,-192 725,-192 614.41,-192 485.68,-182.68 412.02,-176.46"/>
<polygon fill="#63b8ff" stroke="#63b8ff" points="1286.63,-162.94 1295.74,-157.53 1285.24,-156.08 1286.63,-162.94"/>
</a>
</g>
</g>
<!-- Node18 -->
<g id="Node000018" class="node">
<title>Node18</title>
<g id="a_Node000018"><a xlink:href="../../da/dd5/classTerraria_1_1Main_a10e7731e3b1c894676082177b247e9d2.html#a10e7731e3b1c894676082177b247e9d2" target="_top" xlink:title=" ">
<polygon fill="white" stroke="#666666" points="1202,-163 1050,-163 1050,-133 1202,-133 1202,-163"/>
<text text-anchor="start" x="1058" y="-151" font-family="Helvetica,sans-Serif" font-size="10.00">Terraria.Main.DrawInterface</text>
<text text-anchor="middle" x="1126" y="-140" font-family="Helvetica,sans-Serif" font-size="10.00">_16_MapOrMinimap</text>
</a>
</g>
</g>
<!-- Node17&#45;&gt;Node18 -->
<g id="edge20_Node000017_Node000018" class="edge">
<title>Node17&#45;&gt;Node18</title>
<g id="a_edge20_Node000017_Node000018"><a xlink:title=" ">
<path fill="none" stroke="#63b8ff" d="M1265.26,-148C1244.81,-148 1222.62,-148 1202.13,-148"/>
<polygon fill="#63b8ff" stroke="#63b8ff" points="1265.45,-151.5 1275.45,-148 1265.45,-144.5 1265.45,-151.5"/>
</a>
</g>
</g>
<!-- Node18&#45;&gt;Node11 -->
<g id="edge23_Node000018_Node000011" class="edge">
<title>Node18&#45;&gt;Node11</title>
<g id="a_edge23_Node000018_Node000011"><a xlink:title=" ">
<path fill="none" stroke="#63b8ff" d="M1048.13,-131.15C1033.55,-128.59 1018.36,-126.35 1004,-125 941.4,-119.1 870.48,-120.01 816.08,-122.31"/>
<polygon fill="#63b8ff" stroke="#63b8ff" points="1047.65,-134.62 1058.12,-132.97 1048.91,-127.73 1047.65,-134.62"/>
</a>
</g>
</g>
<!-- Node19 -->
<g id="Node000019" class="node">
<title>Node19</title>
<g id="a_Node000019"><a xlink:href="../../da/dd5/classTerraria_1_1Main_aaeb945ba66403122df9735a695d1e177.html#aaeb945ba66403122df9735a695d1e177" target="_top" xlink:title=" ">
<polygon fill="white" stroke="#666666" points="1004,-164 852,-164 852,-134 1004,-134 1004,-164"/>
<text text-anchor="start" x="860" y="-152" font-family="Helvetica,sans-Serif" font-size="10.00">Terraria.Main.DrawInterface</text>
<text text-anchor="middle" x="928" y="-141" font-family="Helvetica,sans-Serif" font-size="10.00">_11_IngameOptionsMenu</text>
</a>
</g>
</g>
<!-- Node18&#45;&gt;Node19 -->
<g id="edge21_Node000018_Node000019" class="edge">
<title>Node18&#45;&gt;Node19</title>
<g id="a_edge21_Node000018_Node000019"><a xlink:title=" ">
<path fill="none" stroke="#63b8ff" d="M1039.48,-148.44C1027.67,-148.5 1015.62,-148.56 1004.02,-148.62"/>
<polygon fill="#63b8ff" stroke="#63b8ff" points="1039.8,-151.93 1049.78,-148.38 1039.76,-144.93 1039.8,-151.93"/>
</a>
</g>
</g>
<!-- Node19&#45;&gt;Node11 -->
<g id="edge22_Node000019_Node000011" class="edge">
<title>Node19&#45;&gt;Node11</title>
<g id="a_edge22_Node000019_Node000011"><a xlink:title=" ">
<path fill="none" stroke="#63b8ff" d="M841.76,-140.05C833.33,-139.16 824.76,-138.26 816.28,-137.37"/>
<polygon fill="#63b8ff" stroke="#63b8ff" points="841.65,-143.56 851.96,-141.12 842.38,-136.6 841.65,-143.56"/>
</a>
</g>
</g>
<!-- Node21 -->
<g id="Node000021" class="node">
<title>Node21</title>
<g id="a_Node000021"><a xlink:href="../../da/dd5/classTerraria_1_1Main_a3d98f18e1b3a22533d5282611b6d8dfe.html#a3d98f18e1b3a22533d5282611b6d8dfe" target="_top" xlink:title=" ">
<polygon fill="white" stroke="#666666" points="1203.5,-112.5 1048.5,-112.5 1048.5,-93.5 1203.5,-93.5 1203.5,-112.5"/>
<text text-anchor="middle" x="1126" y="-100.5" font-family="Helvetica,sans-Serif" font-size="10.00">Terraria.Main.DrawInventory</text>
</a>
</g>
</g>
<!-- Node20&#45;&gt;Node21 -->
<g id="edge25_Node000020_Node000021" class="edge">
<title>Node20&#45;&gt;Node21</title>
<g id="a_edge25_Node000020_Node000021"><a xlink:title=" ">
<path fill="none" stroke="#63b8ff" d="M1237.79,-107.17C1226.32,-106.74 1214.78,-106.3 1203.71,-105.89"/>
<polygon fill="#63b8ff" stroke="#63b8ff" points="1237.71,-110.67 1247.84,-107.55 1237.98,-103.68 1237.71,-110.67"/>
</a>
</g>
</g>
<!-- Node22 -->
<g id="Node000022" class="node">
<title>Node22</title>
<g id="a_Node000022"><a xlink:href="../../da/dd5/classTerraria_1_1Main_a6ec2a6dd6eea7cf9082122035842a01b.html#a6ec2a6dd6eea7cf9082122035842a01b" target="_top" xlink:title=" ">
<polygon fill="white" stroke="#666666" points="1004,-78 852,-78 852,-48 1004,-48 1004,-78"/>
<text text-anchor="start" x="860" y="-66" font-family="Helvetica,sans-Serif" font-size="10.00">Terraria.Main.DrawInterface</text>
<text text-anchor="middle" x="928" y="-55" font-family="Helvetica,sans-Serif" font-size="10.00">_27_Inventory</text>
</a>
</g>
</g>
<!-- Node21&#45;&gt;Node22 -->
<g id="edge26_Node000021_Node000022" class="edge">
<title>Node21&#45;&gt;Node22</title>
<g id="a_edge26_Node000021_Node000022"><a xlink:title=" ">
<path fill="none" stroke="#63b8ff" d="M1067.99,-91.37C1047.6,-87.21 1024.33,-82.46 1002.74,-78.05"/>
<polygon fill="#63b8ff" stroke="#63b8ff" points="1067.56,-94.85 1078.05,-93.42 1068.95,-87.99 1067.56,-94.85"/>
</a>
</g>
</g>
<!-- Node22&#45;&gt;Node11 -->
<g id="edge27_Node000022_Node000011" class="edge">
<title>Node22&#45;&gt;Node11</title>
<g id="a_edge27_Node000022_Node000011"><a xlink:title=" ">
<path fill="none" stroke="#63b8ff" d="M870.9,-81.23C840.17,-91.22 802.55,-103.45 773.48,-112.89"/>
<polygon fill="#63b8ff" stroke="#63b8ff" points="872.18,-84.5 880.61,-78.08 870.02,-77.84 872.18,-84.5"/>
</a>
</g>
</g>
<!-- Node24 -->
<g id="Node000024" class="node">
<title>Node24</title>
<g id="a_Node000024"><a xlink:href="../../da/dd5/classTerraria_1_1Main_ab4fe9771fc5b0ade92ccbff4a4e200ae.html#ab4fe9771fc5b0ade92ccbff4a4e200ae" target="_top" xlink:title=" ">
<polygon fill="white" stroke="#666666" points="1004,-30 852,-30 852,0 1004,0 1004,-30"/>
<text text-anchor="start" x="860" y="-18" font-family="Helvetica,sans-Serif" font-size="10.00">Terraria.Main.DrawInterface</text>
<text text-anchor="middle" x="928" y="-7" font-family="Helvetica,sans-Serif" font-size="10.00">_7_TownNPCHouseBanners</text>
</a>
</g>
</g>
<!-- Node23&#45;&gt;Node24 -->
<g id="edge29_Node000023_Node000024" class="edge">
<title>Node23&#45;&gt;Node24</title>
<g id="a_edge29_Node000023_Node000024"><a xlink:title=" ">
<path fill="none" stroke="#63b8ff" d="M1247.71,-61.89C1188.26,-57.25 1109.29,-49.81 1040,-39 1024.51,-36.58 1007.94,-33.35 992.45,-30.05"/>
<polygon fill="#63b8ff" stroke="#63b8ff" points="1247.59,-65.39 1257.82,-62.67 1248.12,-58.41 1247.59,-65.39"/>
</a>
</g>
</g>
<!-- Node24&#45;&gt;Node11 -->
<g id="edge30_Node000024_Node000011" class="edge">
<title>Node24&#45;&gt;Node11</title>
<g id="a_edge30_Node000024_Node000011"><a xlink:title=" ">
<path fill="none" stroke="#63b8ff" d="M863.57,-33.73C859.6,-35.38 855.71,-37.14 852,-39 810.55,-59.75 767.7,-93.41 744.5,-112.84"/>
<polygon fill="#63b8ff" stroke="#63b8ff" points="864.89,-36.97 872.93,-30.07 862.35,-30.45 864.89,-36.97"/>
</a>
</g>
</g>
<!-- Node26 -->
<g id="Node000026" class="node">
<title>Node26</title>
<g id="a_Node000026"><a xlink:href="../../d2/dfe/classTerraria_1_1NetMessage_af515690d04a1cd4b0d129d3273667157.html#af515690d04a1cd4b0d129d3273667157" target="_top" xlink:title=" ">
<polygon fill="white" stroke="#666666" points="1412,-35 1269,-35 1269,-5 1412,-5 1412,-35"/>
<text text-anchor="start" x="1277" y="-23" font-family="Helvetica,sans-Serif" font-size="10.00">Terraria.NetMessage.Sync</text>
<text text-anchor="middle" x="1340.5" y="-12" font-family="Helvetica,sans-Serif" font-size="10.00">ConnectedPlayer</text>
</a>
</g>
</g>
<!-- Node25&#45;&gt;Node26 -->
<g id="edge32_Node000025_Node000026" class="edge">
<title>Node25&#45;&gt;Node26</title>
<g id="a_edge32_Node000025_Node000026"><a xlink:title=" ">
<path fill="none" stroke="#63b8ff" d="M1470.49,-45.12C1451.24,-41.37 1430.87,-37.41 1412.15,-33.76"/>
<polygon fill="#63b8ff" stroke="#63b8ff" points="1469.96,-48.59 1480.44,-47.06 1471.29,-41.71 1469.96,-48.59"/>
</a>
</g>
</g>
<!-- Node27 -->
<g id="Node000027" class="node">
<title>Node27</title>
<g id="a_Node000027"><a xlink:href="../../db/d63/classTerraria_1_1MessageBuffer_ab4039006321b0ab8e7d66acbd82370b0.html#ab4039006321b0ab8e7d66acbd82370b0" target="_top" xlink:title=" ">
<polygon fill="white" stroke="#666666" points="1212,-29.5 1040,-29.5 1040,-10.5 1212,-10.5 1212,-29.5"/>
<text text-anchor="middle" x="1126" y="-17.5" font-family="Helvetica,sans-Serif" font-size="10.00">Terraria.MessageBuffer.GetData</text>
</a>
</g>
</g>
<!-- Node26&#45;&gt;Node27 -->
<g id="edge33_Node000026_Node000027" class="edge">
<title>Node26&#45;&gt;Node27</title>
<g id="a_edge33_Node000026_Node000027"><a xlink:title=" ">
<path fill="none" stroke="#63b8ff" d="M1258.41,-20C1243.29,-20 1227.45,-20 1212.21,-20"/>
<polygon fill="#63b8ff" stroke="#63b8ff" points="1258.74,-23.5 1268.74,-20 1258.74,-16.5 1258.74,-23.5"/>
</a>
</g>
</g>
</g>
</svg>

<g id="navigator" transform="translate(0 0)" fill="#404254">
  <rect fill="#f2f5e9" fill-opacity="0.5" stroke="#606060" stroke-width=".5" x="0" y="0" width="60" height="60"/>
  <use id="zoomplus" xlink:href="#zoomPlus" x="17" y="9" onmousedown="handleZoom(evt,'in')"/>
  <use id="zoomminus" xlink:href="#zoomMin" x="42" y="9" onmousedown="handleZoom(evt,'out')"/>
  <use id="reset" xlink:href="#resetDef" x="30" y="36" onmousedown="handleReset()"/>
   <use id="arrowup" xlink:href="#arrowUp" x="0" y="0" onmousedown="handlePan(0,-1)"/>
  <use id="arrowright" xlink:href="#arrowRight" x="0" y="0" onmousedown="handlePan(1,0)"/>
  <use id="arrowdown" xlink:href="#arrowDown" x="0" y="0" onmousedown="handlePan(0,1)"/>
  <use id="arrowleft" xlink:href="#arrowLeft" x="0" y="0" onmousedown="handlePan(-1,0)"/>
</g>
<svg viewBox="0 0 15 15" width="100%" height="30px" preserveAspectRatio="xMaxYMin meet">
 <g id="arrow_out" transform="scale(0.3 0.3)">
  <a xlink:href="classTerraria_1_1NPC_a0a3ce580c070f202b7c43b094e931b6a_a0a3ce580c070f202b7c43b094e931b6a_icgraph_org.svg" target="_base">
   <rect id="button" ry="5" rx="5" y="6" x="6" height="38" width="38"
        fill="#f2f5e9" fill-opacity="0.5" stroke="#606060" stroke-width="1.0"/>
   <path id="arrow"
     d="M 11.500037,31.436501 C 11.940474,20.09759 22.043105,11.32322 32.158766,21.979434 L 37.068811,17.246167 C 37.068811,17.246167 37.088388,32 37.088388,32 L 22.160133,31.978069 C 22.160133,31.978069 26.997745,27.140456 26.997745,27.140456 C 18.528582,18.264221 13.291696,25.230495 11.500037,31.436501 z"
     style="fill:#404040;"/>
  </a>
 </g>
</svg>

<style type='text/css'>
<![CDATA[
[data-mouse-over-selected='false'] { opacity: 0.7; }
[data-mouse-over-selected='true']  { opacity: 1.0; }
]]>
</style>
<script type="application/ecmascript"><![CDATA[
document.addEventListener('DOMContentLoaded', (event) => {
  highlightEdges();
  highlightAdjacentNodes();
});
]]></script>
</svg>
