<?xml version="1.0" encoding="UTF-8" standalone="no"?>
<!DOCTYPE svg PUBLIC "-//W3C//DTD SVG 1.1//EN"
 "http://www.w3.org/Graphics/SVG/1.1/DTD/svg11.dtd">
<!-- Generated by graphviz version 2.43.0 (0)
 -->
<!-- Title: Terraria.NPC.ReflectProjectile Pages: 1 -->
<svg width="768pt" height="145pt"
 viewBox="0.00 0.00 768.00 145.00" xmlns="http://www.w3.org/2000/svg" xmlns:xlink="http://www.w3.org/1999/xlink">
<g id="graph0" class="graph" transform="scale(1 1) rotate(0) translate(4 141)">
<title>Terraria.NPC.ReflectProjectile</title>
<!-- Node1 -->
<g id="Node000001" class="node">
<title>Node1</title>
<g id="a_Node000001"><a xlink:title=" ">
<polygon fill="#999999" stroke="#666666" points="159,-85.5 0,-85.5 0,-66.5 159,-66.5 159,-85.5"/>
<text text-anchor="middle" x="79.5" y="-73.5" font-family="Helvetica,sans-Serif" font-size="10.00">Terraria.NPC.ReflectProjectile</text>
</a>
</g>
</g>
<!-- Node2 -->
<g id="Node000002" class="node">
<title>Node2</title>
<g id="a_Node000002"><a xlink:href="../../dc/de5/classTerraria_1_1Dust_a977a36a9376966862406a3094e3b70ab.html#a977a36a9376966862406a3094e3b70ab" target="_top" xlink:title="Attempts to spawn a single Dust into the game world. The Position, Width, and Height parameters dicta...">
<polygon fill="white" stroke="#666666" points="334.5,-85.5 208.5,-85.5 208.5,-66.5 334.5,-66.5 334.5,-85.5"/>
<text text-anchor="middle" x="271.5" y="-73.5" font-family="Helvetica,sans-Serif" font-size="10.00">Terraria.Dust.NewDust</text>
</a>
</g>
</g>
<!-- Node1&#45;&gt;Node2 -->
<g id="edge1_Node000001_Node000002" class="edge">
<title>Node1&#45;&gt;Node2</title>
<g id="a_edge1_Node000001_Node000002"><a xlink:title=" ">
<path fill="none" stroke="#63b8ff" d="M159.15,-76C172.12,-76 185.51,-76 198.31,-76"/>
<polygon fill="#63b8ff" stroke="#63b8ff" points="198.43,-79.5 208.43,-76 198.43,-72.5 198.43,-79.5"/>
</a>
</g>
</g>
<!-- Node3 -->
<g id="Node000003" class="node">
<title>Node3</title>
<g id="a_Node000003"><a xlink:href="../../d9/db1/classTerraria_1_1Utilities_1_1UnifiedRandom_ac4ecc6320b69ab939b9c45eaf7d89000.html#ac4ecc6320b69ab939b9c45eaf7d89000" target="_top" xlink:title=" ">
<polygon fill="white" stroke="#666666" points="535,-137 403,-137 403,-107 535,-107 535,-137"/>
<text text-anchor="start" x="411" y="-125" font-family="Helvetica,sans-Serif" font-size="10.00">Terraria.Utilities.Unified</text>
<text text-anchor="middle" x="469" y="-114" font-family="Helvetica,sans-Serif" font-size="10.00">Random.Next</text>
</a>
</g>
</g>
<!-- Node1&#45;&gt;Node3 -->
<g id="edge7_Node000001_Node000003" class="edge">
<title>Node1&#45;&gt;Node3</title>
<g id="a_edge7_Node000001_Node000003"><a xlink:title=" ">
<path fill="none" stroke="#63b8ff" d="M133.41,-85.53C152.75,-88.81 174.82,-92.33 195,-95 261.67,-103.82 337.86,-111.12 392.77,-115.9"/>
<polygon fill="#63b8ff" stroke="#63b8ff" points="392.51,-119.39 402.77,-116.76 393.11,-112.42 392.51,-119.39"/>
</a>
</g>
</g>
<!-- Node8 -->
<g id="Node000008" class="node">
<title>Node8</title>
<g id="a_Node000008"><a xlink:href="../../d3/d78/classTerraria_1_1Audio_1_1SoundEngine_af55950ae09b294fad1dd58e37fecf28b.html#af55950ae09b294fad1dd58e37fecf28b" target="_top" xlink:title="Attempts to play a sound style with the provided sound style (if it&#39;s not null), and returns a valid ...">
<polygon fill="white" stroke="#666666" points="348,-30 195,-30 195,0 348,0 348,-30"/>
<text text-anchor="start" x="203" y="-18" font-family="Helvetica,sans-Serif" font-size="10.00">Terraria.Audio.SoundEngine.</text>
<text text-anchor="middle" x="271.5" y="-7" font-family="Helvetica,sans-Serif" font-size="10.00">PlaySound</text>
</a>
</g>
</g>
<!-- Node1&#45;&gt;Node8 -->
<g id="edge8_Node000001_Node000008" class="edge">
<title>Node1&#45;&gt;Node8</title>
<g id="a_edge8_Node000001_Node000008"><a xlink:title=" ">
<path fill="none" stroke="#63b8ff" d="M110.19,-66.47C137.83,-57.59 179.77,-44.13 213.82,-33.2"/>
<polygon fill="#63b8ff" stroke="#63b8ff" points="215.2,-36.43 223.66,-30.04 213.06,-29.76 215.2,-36.43"/>
</a>
</g>
</g>
<!-- Node2&#45;&gt;Node3 -->
<g id="edge2_Node000002_Node000003" class="edge">
<title>Node2&#45;&gt;Node3</title>
<g id="a_edge2_Node000002_Node000003"><a xlink:title=" ">
<path fill="none" stroke="#63b8ff" d="M313.01,-85.53C336.42,-91.04 366.59,-98.14 394.08,-104.61"/>
<polygon fill="#63b8ff" stroke="#63b8ff" points="393.53,-108.07 404.07,-106.96 395.14,-101.26 393.53,-108.07"/>
</a>
</g>
</g>
<!-- Node5 -->
<g id="Node000005" class="node">
<title>Node5</title>
<g id="a_Node000005"><a xlink:href="../../df/dd6/classTerraria_1_1ModLoader_1_1DustLoader_a8374be843b9b2b0143bc000e8663d3ec.html#a8374be843b9b2b0143bc000e8663d3ec" target="_top" xlink:title=" ">
<polygon fill="white" stroke="#666666" points="554,-89 384,-89 384,-59 554,-59 554,-89"/>
<text text-anchor="start" x="392" y="-77" font-family="Helvetica,sans-Serif" font-size="10.00">Terraria.ModLoader.DustLoader.</text>
<text text-anchor="middle" x="469" y="-66" font-family="Helvetica,sans-Serif" font-size="10.00">SetupDust</text>
</a>
</g>
</g>
<!-- Node2&#45;&gt;Node5 -->
<g id="edge4_Node000002_Node000005" class="edge">
<title>Node2&#45;&gt;Node5</title>
<g id="a_edge4_Node000002_Node000005"><a xlink:title=" ">
<path fill="none" stroke="#63b8ff" d="M334.63,-75.36C347.1,-75.24 360.47,-75.1 373.75,-74.96"/>
<polygon fill="#63b8ff" stroke="#63b8ff" points="373.91,-78.46 383.88,-74.86 373.84,-71.46 373.91,-78.46"/>
</a>
</g>
</g>
<!-- Node7 -->
<g id="Node000007" class="node">
<title>Node7</title>
<g id="a_Node000007"><a xlink:href="../../de/d1d/classTerraria_1_1Collision_a1c65206ace403aa59afc32d20e5d282e.html#a1c65206ace403aa59afc32d20e5d282e" target="_top" xlink:title=" ">
<polygon fill="white" stroke="#666666" points="550,-40.5 388,-40.5 388,-21.5 550,-21.5 550,-40.5"/>
<text text-anchor="middle" x="469" y="-28.5" font-family="Helvetica,sans-Serif" font-size="10.00">Terraria.Collision.WetCollision</text>
</a>
</g>
</g>
<!-- Node2&#45;&gt;Node7 -->
<g id="edge6_Node000002_Node000007" class="edge">
<title>Node2&#45;&gt;Node7</title>
<g id="a_edge6_Node000002_Node000007"><a xlink:title=" ">
<path fill="none" stroke="#63b8ff" d="M313,-66.49C334.15,-61.54 360.46,-55.41 384,-50 394.27,-47.64 405.25,-45.14 415.77,-42.76"/>
<polygon fill="#63b8ff" stroke="#63b8ff" points="416.7,-46.13 425.69,-40.51 415.16,-39.31 416.7,-46.13"/>
</a>
</g>
</g>
<!-- Node4 -->
<g id="Node000004" class="node">
<title>Node4</title>
<g id="a_Node000004"><a xlink:href="../../d9/db1/classTerraria_1_1Utilities_1_1UnifiedRandom_a173f09196ff526b107c0223c2d58c59a.html#a173f09196ff526b107c0223c2d58c59a" target="_top" xlink:title=" ">
<polygon fill="white" stroke="#666666" points="742,-137 608,-137 608,-107 742,-107 742,-137"/>
<text text-anchor="start" x="616" y="-125" font-family="Helvetica,sans-Serif" font-size="10.00">Terraria.Utilities.Unified</text>
<text text-anchor="middle" x="675" y="-114" font-family="Helvetica,sans-Serif" font-size="10.00">Random.InternalSample</text>
</a>
</g>
</g>
<!-- Node3&#45;&gt;Node4 -->
<g id="edge3_Node000003_Node000004" class="edge">
<title>Node3&#45;&gt;Node4</title>
<g id="a_edge3_Node000003_Node000004"><a xlink:title=" ">
<path fill="none" stroke="#63b8ff" d="M535.11,-122C554.96,-122 576.96,-122 597.5,-122"/>
<polygon fill="#63b8ff" stroke="#63b8ff" points="597.76,-125.5 607.76,-122 597.76,-118.5 597.76,-125.5"/>
</a>
</g>
</g>
<!-- Node6 -->
<g id="Node000006" class="node">
<title>Node6</title>
<g id="a_Node000006"><a xlink:href="../../df/dd6/classTerraria_1_1ModLoader_1_1DustLoader_a0cb616c3c6776d3bba899e7f1fb0e221.html#a0cb616c3c6776d3bba899e7f1fb0e221" target="_top" xlink:title="Gets the ModDust instance with the given type. Returns null if no ModDust with the given type exists.">
<polygon fill="white" stroke="#666666" points="760,-89 590,-89 590,-59 760,-59 760,-89"/>
<text text-anchor="start" x="598" y="-77" font-family="Helvetica,sans-Serif" font-size="10.00">Terraria.ModLoader.DustLoader.</text>
<text text-anchor="middle" x="675" y="-66" font-family="Helvetica,sans-Serif" font-size="10.00">GetDust</text>
</a>
</g>
</g>
<!-- Node5&#45;&gt;Node6 -->
<g id="edge5_Node000005_Node000006" class="edge">
<title>Node5&#45;&gt;Node6</title>
<g id="a_edge5_Node000005_Node000006"><a xlink:title=" ">
<path fill="none" stroke="#63b8ff" d="M554.15,-74C562.5,-74 571.02,-74 579.46,-74"/>
<polygon fill="#63b8ff" stroke="#63b8ff" points="579.71,-77.5 589.71,-74 579.71,-70.5 579.71,-77.5"/>
</a>
</g>
</g>
<!-- Node8&#45;&gt;Node8 -->
<g id="edge9_Node000008_Node000008" class="edge">
<title>Node8&#45;&gt;Node8</title>
<g id="a_edge9_Node000008_Node000008"><a xlink:title=" ">
<path fill="none" stroke="#63b8ff" d="M237.75,-30.28C230.25,-39.41 241.5,-48 271.5,-48 289.31,-48 300.51,-44.97 305.11,-40.6"/>
<polygon fill="#63b8ff" stroke="#63b8ff" points="308.61,-40.32 305.25,-30.28 301.61,-40.23 308.61,-40.32"/>
</a>
</g>
</g>
</g>
</svg>
