<?xml version="1.0" encoding="UTF-8" standalone="no"?>
<!DOCTYPE svg PUBLIC "-//W3C//DTD SVG 1.1//EN"
 "http://www.w3.org/Graphics/SVG/1.1/DTD/svg11.dtd">
<!-- Generated by graphviz version 2.43.0 (0)
 -->
<!-- Title: Terraria.NPC.AI_125_ClumsySlimeBalloon Pages: 1 -->
<svg width="692pt" height="197pt"
 viewBox="0.00 0.00 692.00 196.67" xmlns="http://www.w3.org/2000/svg" xmlns:xlink="http://www.w3.org/1999/xlink">
<g id="graph0" class="graph" transform="scale(1 1) rotate(0) translate(4 192.67)">
<title>Terraria.NPC.AI_125_ClumsySlimeBalloon</title>
<!-- Node1 -->
<g id="Node000001" class="node">
<title>Node1</title>
<g id="a_Node000001"><a xlink:title=" ">
<polygon fill="#999999" stroke="#666666" points="123,-134 0,-134 0,-104 123,-104 123,-134"/>
<text text-anchor="start" x="8" y="-122" font-family="Helvetica,sans-Serif" font-size="10.00">Terraria.NPC.AI_125</text>
<text text-anchor="middle" x="61.5" y="-111" font-family="Helvetica,sans-Serif" font-size="10.00">_ClumsySlimeBalloon</text>
</a>
</g>
</g>
<!-- Node2 -->
<g id="Node000002" class="node">
<title>Node2</title>
<g id="a_Node000002"><a xlink:href="../../de/d1d/classTerraria_1_1Collision_a034b07537f9fbe3ac9b208ce884d2d16.html#a034b07537f9fbe3ac9b208ce884d2d16" target="_top" xlink:title=" ">
<polygon fill="white" stroke="#666666" points="684,-113.5 550,-113.5 550,-94.5 684,-94.5 684,-113.5"/>
<text text-anchor="middle" x="617" y="-101.5" font-family="Helvetica,sans-Serif" font-size="10.00">Terraria.Collision.CanHit</text>
</a>
</g>
</g>
<!-- Node1&#45;&gt;Node2 -->
<g id="edge1_Node000001_Node000002" class="edge">
<title>Node1&#45;&gt;Node2</title>
<g id="a_edge1_Node000001_Node000002"><a xlink:title=" ">
<path fill="none" stroke="#63b8ff" d="M81.46,-134.1C99.99,-147.82 129.63,-167.1 159,-175 315.94,-217.24 510.4,-148.3 584.94,-117.58"/>
<polygon fill="#63b8ff" stroke="#63b8ff" points="586.37,-120.78 594.24,-113.69 583.66,-114.32 586.37,-120.78"/>
</a>
</g>
</g>
<!-- Node3 -->
<g id="Node000003" class="node">
<title>Node3</title>
<g id="a_Node000003"><a xlink:href="../../df/d0d/classTerraria_1_1NPC_a50b526192af7696c4c8b2e3d7c461f6c.html#a50b526192af7696c4c8b2e3d7c461f6c" target="_top" xlink:title=" ">
<polygon fill="white" stroke="#666666" points="310.5,-165.5 160.5,-165.5 160.5,-146.5 310.5,-146.5 310.5,-165.5"/>
<text text-anchor="middle" x="235.5" y="-153.5" font-family="Helvetica,sans-Serif" font-size="10.00">Terraria.NPC.GetTargetData</text>
</a>
</g>
</g>
<!-- Node1&#45;&gt;Node3 -->
<g id="edge3_Node000001_Node000003" class="edge">
<title>Node1&#45;&gt;Node3</title>
<g id="a_edge3_Node000001_Node000003"><a xlink:title=" ">
<path fill="none" stroke="#63b8ff" d="M123.14,-132.04C141.75,-136.05 162.09,-140.42 180.24,-144.33"/>
<polygon fill="#63b8ff" stroke="#63b8ff" points="179.56,-147.76 190.08,-146.44 181.04,-140.92 179.56,-147.76"/>
</a>
</g>
</g>
<!-- Node4 -->
<g id="Node000004" class="node">
<title>Node4</title>
<g id="a_Node000004"><a xlink:href="../../df/d0d/classTerraria_1_1NPC_afbd8e74e25921de8c7f590e799c511b5.html#afbd8e74e25921de8c7f590e799c511b5" target="_top" xlink:title=" ">
<polygon fill="white" stroke="#666666" points="296.5,-128.5 174.5,-128.5 174.5,-109.5 296.5,-109.5 296.5,-128.5"/>
<text text-anchor="middle" x="235.5" y="-116.5" font-family="Helvetica,sans-Serif" font-size="10.00">Terraria.NPC.HitEffect</text>
</a>
</g>
</g>
<!-- Node1&#45;&gt;Node4 -->
<g id="edge4_Node000001_Node000004" class="edge">
<title>Node1&#45;&gt;Node4</title>
<g id="a_edge4_Node000001_Node000004"><a xlink:title=" ">
<path fill="none" stroke="#63b8ff" d="M123.14,-119C136.4,-119 150.54,-119 164.14,-119"/>
<polygon fill="#63b8ff" stroke="#63b8ff" points="164.41,-122.5 174.41,-119 164.41,-115.5 164.41,-122.5"/>
</a>
</g>
</g>
<!-- Node5 -->
<g id="Node000005" class="node">
<title>Node5</title>
<g id="a_Node000005"><a xlink:href="../../d3/d78/classTerraria_1_1Audio_1_1SoundEngine_af55950ae09b294fad1dd58e37fecf28b.html#af55950ae09b294fad1dd58e37fecf28b" target="_top" xlink:title="Attempts to play a sound style with the provided sound style (if it&#39;s not null), and returns a valid ...">
<polygon fill="white" stroke="#666666" points="312,-73 159,-73 159,-43 312,-43 312,-73"/>
<text text-anchor="start" x="167" y="-61" font-family="Helvetica,sans-Serif" font-size="10.00">Terraria.Audio.SoundEngine.</text>
<text text-anchor="middle" x="235.5" y="-50" font-family="Helvetica,sans-Serif" font-size="10.00">PlaySound</text>
</a>
</g>
</g>
<!-- Node1&#45;&gt;Node5 -->
<g id="edge5_Node000001_Node000005" class="edge">
<title>Node1&#45;&gt;Node5</title>
<g id="a_edge5_Node000001_Node000005"><a xlink:title=" ">
<path fill="none" stroke="#63b8ff" d="M105.02,-103.92C128.47,-95.61 157.77,-85.21 182.56,-76.42"/>
<polygon fill="#63b8ff" stroke="#63b8ff" points="183.92,-79.65 192.17,-73.01 181.58,-73.05 183.92,-79.65"/>
</a>
</g>
</g>
<!-- Node6 -->
<g id="Node000006" class="node">
<title>Node6</title>
<g id="a_Node000006"><a xlink:href="../../df/d0d/classTerraria_1_1NPC_a3c55af8c31f9d0c566a81d4512a674a4.html#a3c55af8c31f9d0c566a81d4512a674a4" target="_top" xlink:title=" ">
<polygon fill="white" stroke="#666666" points="308.5,-24.5 162.5,-24.5 162.5,-5.5 308.5,-5.5 308.5,-24.5"/>
<text text-anchor="middle" x="235.5" y="-12.5" font-family="Helvetica,sans-Serif" font-size="10.00">Terraria.NPC.TargetClosest</text>
</a>
</g>
</g>
<!-- Node1&#45;&gt;Node6 -->
<g id="edge7_Node000001_Node000006" class="edge">
<title>Node1&#45;&gt;Node6</title>
<g id="a_edge7_Node000001_Node000006"><a xlink:title=" ">
<path fill="none" stroke="#63b8ff" d="M75.28,-103.99C92.4,-84.86 124.62,-52.09 159,-34 163.33,-31.72 167.95,-29.71 172.69,-27.93"/>
<polygon fill="#63b8ff" stroke="#63b8ff" points="174.17,-31.12 182.52,-24.6 171.92,-24.49 174.17,-31.12"/>
</a>
</g>
</g>
<!-- Node2&#45;&gt;Node2 -->
<g id="edge2_Node000002_Node000002" class="edge">
<title>Node2&#45;&gt;Node2</title>
<g id="a_edge2_Node000002_Node000002"><a xlink:title=" ">
<path fill="none" stroke="#63b8ff" d="M588.33,-113.58C574.39,-122.23 583.94,-131.5 617,-131.5 639.73,-131.5 651.35,-127.12 651.86,-121.57"/>
<polygon fill="#63b8ff" stroke="#63b8ff" points="654.56,-119.34 645.67,-113.58 649.03,-123.63 654.56,-119.34"/>
</a>
</g>
</g>
<!-- Node5&#45;&gt;Node5 -->
<g id="edge6_Node000005_Node000005" class="edge">
<title>Node5&#45;&gt;Node5</title>
<g id="a_edge6_Node000005_Node000005"><a xlink:title=" ">
<path fill="none" stroke="#63b8ff" d="M204.91,-73.28C198.12,-82.41 208.31,-91 235.5,-91 251.64,-91 261.79,-87.97 265.96,-83.6"/>
<polygon fill="#63b8ff" stroke="#63b8ff" points="269.46,-83.32 266.09,-73.28 262.46,-83.23 269.46,-83.32"/>
</a>
</g>
</g>
<!-- Node7 -->
<g id="Node000007" class="node">
<title>Node7</title>
<g id="a_Node000007"><a xlink:href="../../df/d0d/classTerraria_1_1NPC_ae69db32b3fd191480eee08632ccf3ae5.html#ae69db32b3fd191480eee08632ccf3ae5" target="_top" xlink:title=" ">
<polygon fill="white" stroke="#666666" points="514,-78 348,-78 348,-48 514,-48 514,-78"/>
<text text-anchor="start" x="356" y="-66" font-family="Helvetica,sans-Serif" font-size="10.00">Terraria.NPC.SetTargetTracking</text>
<text text-anchor="middle" x="431" y="-55" font-family="Helvetica,sans-Serif" font-size="10.00">Values</text>
</a>
</g>
</g>
<!-- Node6&#45;&gt;Node7 -->
<g id="edge8_Node000006_Node000007" class="edge">
<title>Node6&#45;&gt;Node7</title>
<g id="a_edge8_Node000006_Node000007"><a xlink:title=" ">
<path fill="none" stroke="#63b8ff" d="M275.19,-24.6C299.26,-30.57 330.95,-38.43 359.38,-45.48"/>
<polygon fill="#63b8ff" stroke="#63b8ff" points="358.73,-48.93 369.28,-47.94 360.41,-42.13 358.73,-48.93"/>
</a>
</g>
</g>
<!-- Node8 -->
<g id="Node000008" class="node">
<title>Node8</title>
<g id="a_Node000008"><a xlink:href="../../df/d0d/classTerraria_1_1NPC_a3cea63a6925172c1e053b4b5d593b3c0.html#a3cea63a6925172c1e053b4b5d593b3c0" target="_top" xlink:title=" ">
<polygon fill="white" stroke="#666666" points="498,-30 364,-30 364,0 498,0 498,-30"/>
<text text-anchor="start" x="372" y="-18" font-family="Helvetica,sans-Serif" font-size="10.00">Terraria.NPC.TryTracking</text>
<text text-anchor="middle" x="431" y="-7" font-family="Helvetica,sans-Serif" font-size="10.00">Target</text>
</a>
</g>
</g>
<!-- Node6&#45;&gt;Node8 -->
<g id="edge9_Node000006_Node000008" class="edge">
<title>Node6&#45;&gt;Node8</title>
<g id="a_edge9_Node000006_Node000008"><a xlink:title=" ">
<path fill="none" stroke="#63b8ff" d="M308.55,-15C323.31,-15 338.88,-15 353.78,-15"/>
<polygon fill="#63b8ff" stroke="#63b8ff" points="353.96,-18.5 363.96,-15 353.96,-11.5 353.96,-18.5"/>
</a>
</g>
</g>
<!-- Node8&#45;&gt;Node2 -->
<g id="edge10_Node000008_Node000002" class="edge">
<title>Node8&#45;&gt;Node2</title>
<g id="a_edge10_Node000008_Node000002"><a xlink:title=" ">
<path fill="none" stroke="#63b8ff" d="M490.97,-30.06C498.84,-32.71 506.71,-35.69 514,-39 543.85,-52.55 575.22,-73.74 595.16,-88.22"/>
<polygon fill="#63b8ff" stroke="#63b8ff" points="593.34,-91.23 603.47,-94.35 597.5,-85.59 593.34,-91.23"/>
</a>
</g>
</g>
</g>
</svg>
