<?xml version="1.0" encoding="UTF-8" standalone="no"?>
<!DOCTYPE svg PUBLIC "-//W3C//DTD SVG 1.1//EN"
 "http://www.w3.org/Graphics/SVG/1.1/DTD/svg11.dtd">
<!-- Generated by graphviz version 2.43.0 (0)
 -->
<!-- Title: Terraria.NPC.GetBestiaryCreditId Pages: 1 -->
<!--zoomable 349 -->

<svg id="main" version="1.1" xmlns="http://www.w3.org/2000/svg" xmlns:xlink="http://www.w3.org/1999/xlink" xml:space="preserve" onload="init(evt)">
<style type="text/css"><![CDATA[
.node, .edge {opacity: 0.7;}
.node.selected, .edge.selected {opacity: 1;}
.edge:hover path { stroke: red; }
.edge:hover polygon { stroke: red; fill: red; }
]]></style>

<defs>
  <circle id="rim" cx="0" cy="0" r="7"/>
  <circle id="rim2" cx="0" cy="0" r="3.5"/>
  <g id="zoomPlus">
    <use xlink:href="#rim" fill="#404040"><set attributeName="fill" to="#808080" begin="zoomplus.mouseover" end="zoomplus.mouseout"/></use>
    <path d="M-4,0h8M0,-4v8" fill="none" stroke="white" stroke-width="1.5" pointer-events="none"/>
  </g>
  <g id="zoomMin">
    <use xlink:href="#rim" fill="#404040"><set attributeName="fill" to="#808080" begin="zoomminus.mouseover" end="zoomminus.mouseout"/></use>
    <path d="M-4,0h8" fill="none" stroke="white" stroke-width="1.5" pointer-events="none"/>
  </g>
  <g id="arrowUp" transform="translate(30 24)">
    <use xlink:href="#rim"/>
    <path pointer-events="none" fill="none" stroke="white" stroke-width="1.5" d="M0,-3.0v7 M-2.5,-0.5L0,-3.0L2.5,-0.5"/>
  </g>
  <g id="arrowRight" transform="rotate(90) translate(36 -43)">
    <use xlink:href="#rim"/>
    <path pointer-events="none" fill="none" stroke="white" stroke-width="1.5" d="M0,-3.0v7 M-2.5,-0.5L0,-3.0L2.5,-0.5"/>
  </g>
  <g id="arrowDown" transform="rotate(180) translate(-30 -48)">
    <use xlink:href="#rim"/>
    <path pointer-events="none" fill="none" stroke="white" stroke-width="1.5" d="M0,-3.0v7 M-2.5,-0.5L0,-3.0L2.5,-0.5"/>
  </g>
  <g id="arrowLeft" transform="rotate(270) translate(-36 17)">
    <use xlink:href="#rim"/>
    <path pointer-events="none" fill="none" stroke="white" stroke-width="1.5" d="M0,-3.0v7 M-2.5,-0.5L0,-3.0L2.5,-0.5"/>
  </g>
  <g id="resetDef">
    <use xlink:href="#rim2" fill="#404040"><set attributeName="fill" to="#808080" begin="reset.mouseover" end="reset.mouseout"/></use>
  </g>
</defs>
<script type="application/ecmascript">
var viewWidth = 637;
var viewHeight = 349;
var sectionId = 'dynsection-0';
</script>
<script type="application/ecmascript" xlink:href="../../svg.min.js"/>
<svg id="graph" class="graph">
<g id="viewport">
<title>Terraria.NPC.GetBestiaryCreditId</title>
<!-- Node1 -->
<g id="Node000001" class="node">
<title>Node1</title>
<g id="a_Node000001"><a xlink:title=" ">
<polygon fill="#999999" stroke="#666666" points="629,-172.5 492,-172.5 492,-142.5 629,-142.5 629,-172.5"/>
<text text-anchor="start" x="500" y="-160.5" font-family="Helvetica,sans-Serif" font-size="10.00">Terraria.NPC.GetBestiary</text>
<text text-anchor="middle" x="560.5" y="-149.5" font-family="Helvetica,sans-Serif" font-size="10.00">CreditId</text>
</a>
</g>
</g>
<!-- Node2 -->
<g id="Node000002" class="node">
<title>Node2</title>
<g id="a_Node000002"><a xlink:href="../../df/d8c/classTerraria_1_1GameContent_1_1Bestiary_1_1NPCKillsTracker_a09bb7acc75952fcfa2479ea3d94a1a05.html#a09bb7acc75952fcfa2479ea3d94a1a05" target="_top" xlink:title=" ">
<polygon fill="white" stroke="#666666" points="430,-322.5 261,-322.5 261,-292.5 430,-292.5 430,-322.5"/>
<text text-anchor="start" x="269" y="-310.5" font-family="Helvetica,sans-Serif" font-size="10.00">Terraria.GameContent.Bestiary.</text>
<text text-anchor="middle" x="345.5" y="-299.5" font-family="Helvetica,sans-Serif" font-size="10.00">NPCKillsTracker.GetKillCount</text>
</a>
</g>
</g>
<!-- Node1&#45;&gt;Node2 -->
<g id="edge1_Node000001_Node000002" class="edge">
<title>Node1&#45;&gt;Node2</title>
<g id="a_edge1_Node000001_Node000002"><a xlink:title=" ">
<path fill="none" stroke="#63b8ff" d="M546.41,-181.74C529.48,-210.66 497.21,-258.26 456,-283.5 448.03,-288.38 439.2,-292.27 430.12,-295.38"/>
<polygon fill="#63b8ff" stroke="#63b8ff" points="549.65,-183.13 551.56,-172.71 543.57,-179.66 549.65,-183.13"/>
</a>
</g>
</g>
<!-- Node3 -->
<g id="Node000003" class="node">
<title>Node3</title>
<g id="a_Node000003"><a xlink:href="../../d5/dab/classTerraria_1_1GameContent_1_1Bestiary_1_1NPCWasChatWithTracker_a9c2a9ffefa6b30d7f05ff3b1756011ed.html#a9c2a9ffefa6b30d7f05ff3b1756011ed" target="_top" xlink:title=" ">
<polygon fill="white" stroke="#666666" points="456,-274.5 235,-274.5 235,-244.5 456,-244.5 456,-274.5"/>
<text text-anchor="start" x="243" y="-262.5" font-family="Helvetica,sans-Serif" font-size="10.00">Terraria.GameContent.Bestiary.</text>
<text text-anchor="middle" x="345.5" y="-251.5" font-family="Helvetica,sans-Serif" font-size="10.00">NPCWasChatWithTracker.GetWasChatWith</text>
</a>
</g>
</g>
<!-- Node1&#45;&gt;Node3 -->
<g id="edge3_Node000001_Node000003" class="edge">
<title>Node1&#45;&gt;Node3</title>
<g id="a_edge3_Node000001_Node000003"><a xlink:title=" ">
<path fill="none" stroke="#63b8ff" d="M536.5,-179.5C516.69,-197.24 486.55,-221.46 456,-235.5 448.48,-238.95 440.45,-241.92 432.27,-244.47"/>
<polygon fill="#63b8ff" stroke="#63b8ff" points="539.05,-181.91 544.07,-172.59 534.33,-176.75 539.05,-181.91"/>
</a>
</g>
</g>
<!-- Node4 -->
<g id="Node000004" class="node">
<title>Node4</title>
<g id="a_Node000004"><a xlink:href="../../db/d9a/classTerraria_1_1GameContent_1_1Bestiary_1_1NPCWasNearPlayerTracker_ac49c318106c8cb9e3293f7660ceee08d.html#ac49c318106c8cb9e3293f7660ceee08d" target="_top" xlink:title=" ">
<polygon fill="white" stroke="#666666" points="456,-208 235,-208 235,-167 456,-167 456,-208"/>
<text text-anchor="start" x="243" y="-196" font-family="Helvetica,sans-Serif" font-size="10.00">Terraria.GameContent.Bestiary.</text>
<text text-anchor="start" x="243" y="-185" font-family="Helvetica,sans-Serif" font-size="10.00">NPCWasNearPlayerTracker.GetWasNearby</text>
<text text-anchor="middle" x="345.5" y="-174" font-family="Helvetica,sans-Serif" font-size="10.00">Before</text>
</a>
</g>
</g>
<!-- Node1&#45;&gt;Node4 -->
<g id="edge4_Node000001_Node000004" class="edge">
<title>Node1&#45;&gt;Node4</title>
<g id="a_edge4_Node000001_Node000004"><a xlink:title=" ">
<path fill="none" stroke="#63b8ff" d="M481.72,-168.45C473.34,-169.64 464.69,-170.85 456.02,-172.07"/>
<polygon fill="#63b8ff" stroke="#63b8ff" points="482.4,-171.89 491.81,-167.03 481.42,-164.96 482.4,-171.89"/>
</a>
</g>
</g>
<!-- Node5 -->
<g id="Node000005" class="node">
<title>Node5</title>
<g id="a_Node000005"><a xlink:href="../../d5/dab/classTerraria_1_1GameContent_1_1Bestiary_1_1NPCWasChatWithTracker_a002ca12128dc1935ed9fea828225d357.html#a002ca12128dc1935ed9fea828225d357" target="_top" xlink:title=" ">
<polygon fill="white" stroke="#666666" points="446.5,-149 244.5,-149 244.5,-108 446.5,-108 446.5,-149"/>
<text text-anchor="start" x="252.5" y="-137" font-family="Helvetica,sans-Serif" font-size="10.00">Terraria.GameContent.Bestiary.</text>
<text text-anchor="start" x="252.5" y="-126" font-family="Helvetica,sans-Serif" font-size="10.00">NPCWasChatWithTracker.RegisterChat</text>
<text text-anchor="middle" x="345.5" y="-115" font-family="Helvetica,sans-Serif" font-size="10.00">StartWith</text>
</a>
</g>
</g>
<!-- Node1&#45;&gt;Node5 -->
<g id="edge6_Node000001_Node000005" class="edge">
<title>Node1&#45;&gt;Node5</title>
<g id="a_edge6_Node000001_Node000005"><a xlink:title=" ">
<path fill="none" stroke="#63b8ff" d="M481.89,-146.93C470.44,-145.37 458.51,-143.75 446.68,-142.14"/>
<polygon fill="#63b8ff" stroke="#63b8ff" points="481.43,-150.4 491.81,-148.28 482.38,-143.47 481.43,-150.4"/>
</a>
</g>
</g>
<!-- Node6 -->
<g id="Node000006" class="node">
<title>Node6</title>
<g id="a_Node000006"><a xlink:href="../../df/d8c/classTerraria_1_1GameContent_1_1Bestiary_1_1NPCKillsTracker_a77c4469681a859893ef75081345a8057.html#a77c4469681a859893ef75081345a8057" target="_top" xlink:title=" ">
<polygon fill="white" stroke="#666666" points="430,-89.5 261,-89.5 261,-59.5 430,-59.5 430,-89.5"/>
<text text-anchor="start" x="269" y="-77.5" font-family="Helvetica,sans-Serif" font-size="10.00">Terraria.GameContent.Bestiary.</text>
<text text-anchor="middle" x="345.5" y="-66.5" font-family="Helvetica,sans-Serif" font-size="10.00">NPCKillsTracker.RegisterKill</text>
</a>
</g>
</g>
<!-- Node1&#45;&gt;Node6 -->
<g id="edge7_Node000001_Node000006" class="edge">
<title>Node1&#45;&gt;Node6</title>
<g id="a_edge7_Node000001_Node000006"><a xlink:title=" ">
<path fill="none" stroke="#63b8ff" d="M528.34,-136.93C508.37,-124.54 481.5,-109.32 456,-99.5 446.17,-95.72 435.62,-92.42 425.08,-89.56"/>
<polygon fill="#63b8ff" stroke="#63b8ff" points="526.68,-140.01 537,-142.39 530.41,-134.09 526.68,-140.01"/>
</a>
</g>
</g>
<!-- Node7 -->
<g id="Node000007" class="node">
<title>Node7</title>
<g id="a_Node000007"><a xlink:href="../../db/d9a/classTerraria_1_1GameContent_1_1Bestiary_1_1NPCWasNearPlayerTracker_ab50536bf4ba7a8e4fb82d067a380f5a5.html#ab50536bf4ba7a8e4fb82d067a380f5a5" target="_top" xlink:title=" ">
<polygon fill="white" stroke="#666666" points="439.5,-41 251.5,-41 251.5,0 439.5,0 439.5,-41"/>
<text text-anchor="start" x="259.5" y="-29" font-family="Helvetica,sans-Serif" font-size="10.00">Terraria.GameContent.Bestiary.</text>
<text text-anchor="start" x="259.5" y="-18" font-family="Helvetica,sans-Serif" font-size="10.00">NPCWasNearPlayerTracker.Register</text>
<text text-anchor="middle" x="345.5" y="-7" font-family="Helvetica,sans-Serif" font-size="10.00">WasNearby</text>
</a>
</g>
</g>
<!-- Node1&#45;&gt;Node7 -->
<g id="edge8_Node000001_Node000007" class="edge">
<title>Node1&#45;&gt;Node7</title>
<g id="a_edge8_Node000001_Node000007"><a xlink:title=" ">
<path fill="none" stroke="#63b8ff" d="M542.79,-133.89C524.29,-109.47 492.24,-71.97 456,-50.5 450.06,-46.98 443.7,-43.87 437.15,-41.11"/>
<polygon fill="#63b8ff" stroke="#63b8ff" points="540.21,-136.29 548.98,-142.24 545.84,-132.12 540.21,-136.29"/>
</a>
</g>
</g>
<!-- Node2&#45;&gt;Node2 -->
<g id="edge2_Node000002_Node000002" class="edge">
<title>Node2&#45;&gt;Node2</title>
<g id="a_edge2_Node000002_Node000002"><a xlink:title=" ">
<path fill="none" stroke="#63b8ff" d="M382.96,-333.1C377.84,-337.47 365.35,-340.5 345.5,-340.5 312.06,-340.5 299.52,-331.91 307.88,-322.78"/>
<polygon fill="#63b8ff" stroke="#63b8ff" points="386.46,-332.83 383.12,-322.78 379.46,-332.72 386.46,-332.83"/>
</a>
</g>
</g>
<!-- Node4&#45;&gt;Node4 -->
<g id="edge5_Node000004_Node000004" class="edge">
<title>Node4&#45;&gt;Node4</title>
<g id="a_edge5_Node000004_Node000004"><a xlink:title=" ">
<path fill="none" stroke="#63b8ff" d="M382.32,-217.96C376.84,-222.74 364.57,-226 345.5,-226 314.99,-226 301.88,-217.65 306.17,-208.1"/>
<polygon fill="#63b8ff" stroke="#63b8ff" points="385.75,-218.65 384.83,-208.1 378.97,-216.92 385.75,-218.65"/>
</a>
</g>
</g>
<!-- Node8 -->
<g id="Node000008" class="node">
<title>Node8</title>
<g id="a_Node000008"><a xlink:href="../../db/d9a/classTerraria_1_1GameContent_1_1Bestiary_1_1NPCWasNearPlayerTracker_a4c8c0eeb70e93842a6303712075b40c2.html#a4c8c0eeb70e93842a6303712075b40c2" target="_top" xlink:title=" ">
<polygon fill="white" stroke="#666666" points="199,-41 0,-41 0,0 199,0 199,-41"/>
<text text-anchor="start" x="8" y="-29" font-family="Helvetica,sans-Serif" font-size="10.00">Terraria.GameContent.Bestiary.</text>
<text text-anchor="start" x="8" y="-18" font-family="Helvetica,sans-Serif" font-size="10.00">NPCWasNearPlayerTracker.ScanWorld</text>
<text text-anchor="middle" x="99.5" y="-7" font-family="Helvetica,sans-Serif" font-size="10.00">ForFinds</text>
</a>
</g>
</g>
<!-- Node7&#45;&gt;Node8 -->
<g id="edge9_Node000007_Node000008" class="edge">
<title>Node7&#45;&gt;Node8</title>
<g id="a_edge9_Node000007_Node000008"><a xlink:title=" ">
<path fill="none" stroke="#63b8ff" d="M241.12,-20.5C227.16,-20.5 212.88,-20.5 199.01,-20.5"/>
<polygon fill="#63b8ff" stroke="#63b8ff" points="241.21,-24 251.21,-20.5 241.21,-17 241.21,-24"/>
</a>
</g>
</g>
</g>
</svg>

<g id="navigator" transform="translate(0 0)" fill="#404254">
  <rect fill="#f2f5e9" fill-opacity="0.5" stroke="#606060" stroke-width=".5" x="0" y="0" width="60" height="60"/>
  <use id="zoomplus" xlink:href="#zoomPlus" x="17" y="9" onmousedown="handleZoom(evt,'in')"/>
  <use id="zoomminus" xlink:href="#zoomMin" x="42" y="9" onmousedown="handleZoom(evt,'out')"/>
  <use id="reset" xlink:href="#resetDef" x="30" y="36" onmousedown="handleReset()"/>
   <use id="arrowup" xlink:href="#arrowUp" x="0" y="0" onmousedown="handlePan(0,-1)"/>
  <use id="arrowright" xlink:href="#arrowRight" x="0" y="0" onmousedown="handlePan(1,0)"/>
  <use id="arrowdown" xlink:href="#arrowDown" x="0" y="0" onmousedown="handlePan(0,1)"/>
  <use id="arrowleft" xlink:href="#arrowLeft" x="0" y="0" onmousedown="handlePan(-1,0)"/>
</g>
<svg viewBox="0 0 15 15" width="100%" height="30px" preserveAspectRatio="xMaxYMin meet">
 <g id="arrow_out" transform="scale(0.3 0.3)">
  <a xlink:href="classTerraria_1_1NPC_a9ee507ffca6ec720cd5e0eb7ed24eae5_a9ee507ffca6ec720cd5e0eb7ed24eae5_icgraph_org.svg" target="_base">
   <rect id="button" ry="5" rx="5" y="6" x="6" height="38" width="38"
        fill="#f2f5e9" fill-opacity="0.5" stroke="#606060" stroke-width="1.0"/>
   <path id="arrow"
     d="M 11.500037,31.436501 C 11.940474,20.09759 22.043105,11.32322 32.158766,21.979434 L 37.068811,17.246167 C 37.068811,17.246167 37.088388,32 37.088388,32 L 22.160133,31.978069 C 22.160133,31.978069 26.997745,27.140456 26.997745,27.140456 C 18.528582,18.264221 13.291696,25.230495 11.500037,31.436501 z"
     style="fill:#404040;"/>
  </a>
 </g>
</svg>

<style type='text/css'>
<![CDATA[
[data-mouse-over-selected='false'] { opacity: 0.7; }
[data-mouse-over-selected='true']  { opacity: 1.0; }
]]>
</style>
<script type="application/ecmascript"><![CDATA[
document.addEventListener('DOMContentLoaded', (event) => {
  highlightEdges();
  highlightAdjacentNodes();
});
]]></script>
</svg>
