<?xml version="1.0" encoding="UTF-8" standalone="no"?>
<!DOCTYPE svg PUBLIC "-//W3C//DTD SVG 1.1//EN"
 "http://www.w3.org/Graphics/SVG/1.1/DTD/svg11.dtd">
<!-- Generated by graphviz version 2.43.0 (0)
 -->
<!-- Title: Terraria.Graphics.CameraModifiers.CameraModifierStack.ClearFinishedModifiers Pages: 1 -->
<svg width="1008pt" height="49pt"
 viewBox="0.00 0.00 1008.00 49.00" xmlns="http://www.w3.org/2000/svg" xmlns:xlink="http://www.w3.org/1999/xlink">
<g id="graph0" class="graph" transform="scale(1 1) rotate(0) translate(4 45)">
<title>Terraria.Graphics.CameraModifiers.CameraModifierStack.ClearFinishedModifiers</title>
<!-- Node1 -->
<g id="Node000001" class="node">
<title>Node1</title>
<g id="a_Node000001"><a xlink:title=" ">
<polygon fill="#999999" stroke="#666666" points="1000,-41 827,-41 827,0 1000,0 1000,-41"/>
<text text-anchor="start" x="835" y="-29" font-family="Helvetica,sans-Serif" font-size="10.00">Terraria.Graphics.Camera</text>
<text text-anchor="start" x="835" y="-18" font-family="Helvetica,sans-Serif" font-size="10.00">Modifiers.CameraModifierStack.</text>
<text text-anchor="middle" x="913.5" y="-7" font-family="Helvetica,sans-Serif" font-size="10.00">ClearFinishedModifiers</text>
</a>
</g>
</g>
<!-- Node2 -->
<g id="Node000002" class="node">
<title>Node2</title>
<g id="a_Node000002"><a xlink:href="../../df/d0d/classTerraria_1_1Graphics_1_1CameraModifiers_1_1CameraModifierStack_ac8a423a32a65ce3063be061eb3737286.html#ac8a423a32a65ce3063be061eb3737286" target="_top" xlink:title=" ">
<polygon fill="white" stroke="#666666" points="791,-41 618,-41 618,0 791,0 791,-41"/>
<text text-anchor="start" x="626" y="-29" font-family="Helvetica,sans-Serif" font-size="10.00">Terraria.Graphics.Camera</text>
<text text-anchor="start" x="626" y="-18" font-family="Helvetica,sans-Serif" font-size="10.00">Modifiers.CameraModifierStack.</text>
<text text-anchor="middle" x="704.5" y="-7" font-family="Helvetica,sans-Serif" font-size="10.00">ApplyTo</text>
</a>
</g>
</g>
<!-- Node1&#45;&gt;Node2 -->
<g id="edge1_Node000001_Node000002" class="edge">
<title>Node1&#45;&gt;Node2</title>
<g id="a_edge1_Node000001_Node000002"><a xlink:title=" ">
<path fill="none" stroke="#63b8ff" d="M816.8,-20.5C808.24,-20.5 799.6,-20.5 791.12,-20.5"/>
<polygon fill="#63b8ff" stroke="#63b8ff" points="816.81,-24 826.81,-20.5 816.81,-17 816.81,-24"/>
</a>
</g>
</g>
<!-- Node3 -->
<g id="Node000003" class="node">
<title>Node3</title>
<g id="a_Node000003"><a xlink:href="../../da/dd5/classTerraria_1_1Main_a4b6eac912bf399c9e2a2a76f92e49ddf.html#a4b6eac912bf399c9e2a2a76f92e49ddf" target="_top" xlink:title=" ">
<polygon fill="white" stroke="#666666" points="582,-35.5 448,-35.5 448,-5.5 582,-5.5 582,-35.5"/>
<text text-anchor="start" x="456" y="-23.5" font-family="Helvetica,sans-Serif" font-size="10.00">Terraria.Main.DoDraw</text>
<text text-anchor="middle" x="515" y="-12.5" font-family="Helvetica,sans-Serif" font-size="10.00">_UpdateCameraPosition</text>
</a>
</g>
</g>
<!-- Node2&#45;&gt;Node3 -->
<g id="edge2_Node000002_Node000003" class="edge">
<title>Node2&#45;&gt;Node3</title>
<g id="a_edge2_Node000002_Node000003"><a xlink:title=" ">
<path fill="none" stroke="#63b8ff" d="M607.77,-20.5C599.06,-20.5 590.38,-20.5 582.02,-20.5"/>
<polygon fill="#63b8ff" stroke="#63b8ff" points="607.98,-24 617.98,-20.5 607.98,-17 607.98,-24"/>
</a>
</g>
</g>
<!-- Node4 -->
<g id="Node000004" class="node">
<title>Node4</title>
<g id="a_Node000004"><a xlink:href="../../da/dd5/classTerraria_1_1Main_a474beeecaea4d6dd108fba56cd554d46.html#a474beeecaea4d6dd108fba56cd554d46" target="_top" xlink:title=" ">
<polygon fill="white" stroke="#666666" points="412,-30 290,-30 290,-11 412,-11 412,-30"/>
<text text-anchor="middle" x="351" y="-18" font-family="Helvetica,sans-Serif" font-size="10.00">Terraria.Main.DoDraw</text>
</a>
</g>
</g>
<!-- Node3&#45;&gt;Node4 -->
<g id="edge3_Node000003_Node000004" class="edge">
<title>Node3&#45;&gt;Node4</title>
<g id="a_edge3_Node000003_Node000004"><a xlink:title=" ">
<path fill="none" stroke="#63b8ff" d="M437.61,-20.5C429.02,-20.5 420.36,-20.5 412.01,-20.5"/>
<polygon fill="#63b8ff" stroke="#63b8ff" points="437.64,-24 447.64,-20.5 437.64,-17 437.64,-24"/>
</a>
</g>
</g>
<!-- Node5 -->
<g id="Node000005" class="node">
<title>Node5</title>
<g id="a_Node000005"><a xlink:href="../../da/dd5/classTerraria_1_1Main_aa597dbafa085227bb056d05d0b0f9abe.html#aa597dbafa085227bb056d05d0b0f9abe" target="_top" xlink:title=" ">
<polygon fill="white" stroke="#666666" points="254,-35.5 145,-35.5 145,-5.5 254,-5.5 254,-35.5"/>
<text text-anchor="start" x="153" y="-23.5" font-family="Helvetica,sans-Serif" font-size="10.00">Terraria.Main.Draw</text>
<text text-anchor="middle" x="199.5" y="-12.5" font-family="Helvetica,sans-Serif" font-size="10.00">_Inner</text>
</a>
</g>
</g>
<!-- Node4&#45;&gt;Node5 -->
<g id="edge4_Node000004_Node000005" class="edge">
<title>Node4&#45;&gt;Node5</title>
<g id="a_edge4_Node000004_Node000005"><a xlink:title=" ">
<path fill="none" stroke="#63b8ff" d="M279.41,-20.5C270.99,-20.5 262.49,-20.5 254.35,-20.5"/>
<polygon fill="#63b8ff" stroke="#63b8ff" points="279.62,-24 289.62,-20.5 279.62,-17 279.62,-24"/>
</a>
</g>
</g>
<!-- Node6 -->
<g id="Node000006" class="node">
<title>Node6</title>
<g id="a_Node000006"><a xlink:href="../../da/dd5/classTerraria_1_1Main_a516aa31311860bad4242ade32e5effcd.html#a516aa31311860bad4242ade32e5effcd" target="_top" xlink:title=" ">
<polygon fill="white" stroke="#666666" points="109,-30 0,-30 0,-11 109,-11 109,-30"/>
<text text-anchor="middle" x="54.5" y="-18" font-family="Helvetica,sans-Serif" font-size="10.00">Terraria.Main.Draw</text>
</a>
</g>
</g>
<!-- Node5&#45;&gt;Node6 -->
<g id="edge5_Node000005_Node000006" class="edge">
<title>Node5&#45;&gt;Node6</title>
<g id="a_edge5_Node000005_Node000006"><a xlink:title=" ">
<path fill="none" stroke="#63b8ff" d="M134.68,-20.5C126.25,-20.5 117.69,-20.5 109.46,-20.5"/>
<polygon fill="#63b8ff" stroke="#63b8ff" points="134.85,-24 144.85,-20.5 134.85,-17 134.85,-24"/>
</a>
</g>
</g>
</g>
</svg>
