<?xml version="1.0" encoding="UTF-8" standalone="no"?>
<!DOCTYPE svg PUBLIC "-//W3C//DTD SVG 1.1//EN"
 "http://www.w3.org/Graphics/SVG/1.1/DTD/svg11.dtd">
<!-- Generated by graphviz version 2.43.0 (0)
 -->
<!-- Title: Terraria.NPC.AI_87_BigMimic_ShootItem Pages: 1 -->
<svg width="1135pt" height="1189pt"
 viewBox="0.00 0.00 1135.00 1189.00" xmlns="http://www.w3.org/2000/svg" xmlns:xlink="http://www.w3.org/1999/xlink">
<g id="graph0" class="graph" transform="scale(1 1) rotate(0) translate(4 1185)">
<title>Terraria.NPC.AI_87_BigMimic_ShootItem</title>
<!-- Node1 -->
<g id="Node000001" class="node">
<title>Node1</title>
<g id="a_Node000001"><a xlink:title=" ">
<polygon fill="#999999" stroke="#666666" points="123,-507 0,-507 0,-477 123,-477 123,-507"/>
<text text-anchor="start" x="8" y="-495" font-family="Helvetica,sans-Serif" font-size="10.00">Terraria.NPC.AI_87</text>
<text text-anchor="middle" x="61.5" y="-484" font-family="Helvetica,sans-Serif" font-size="10.00">_BigMimic_ShootItem</text>
</a>
</g>
</g>
<!-- Node2 -->
<g id="Node000002" class="node">
<title>Node2</title>
<g id="a_Node000002"><a xlink:href="../../df/d0d/classTerraria_1_1NPC_aaac4920a829421c53b5d5a3a1a540cbe.html#aaac4920a829421c53b5d5a3a1a540cbe" target="_top" xlink:title=" ">
<polygon fill="white" stroke="#666666" points="338,-556.5 159,-556.5 159,-537.5 338,-537.5 338,-556.5"/>
<text text-anchor="middle" x="248.5" y="-544.5" font-family="Helvetica,sans-Serif" font-size="10.00">Terraria.NPC.GetItemSource_Loot</text>
</a>
</g>
</g>
<!-- Node1&#45;&gt;Node2 -->
<g id="edge1_Node000001_Node000002" class="edge">
<title>Node1&#45;&gt;Node2</title>
<g id="a_edge1_Node000001_Node000002"><a xlink:title=" ">
<path fill="none" stroke="#63b8ff" d="M97.76,-507.13C115.83,-514.47 138.33,-522.98 159,-529 166.81,-531.28 175.09,-533.37 183.34,-535.26"/>
<polygon fill="#63b8ff" stroke="#63b8ff" points="182.81,-538.73 193.33,-537.46 184.32,-531.89 182.81,-538.73"/>
</a>
</g>
</g>
<!-- Node3 -->
<g id="Node000003" class="node">
<title>Node3</title>
<g id="a_Node000003"><a xlink:href="../../db/d79/classTerraria_1_1Item_ae0f057a4ed207ce83cd3141063371604.html#ae0f057a4ed207ce83cd3141063371604" target="_top" xlink:title="This particular overload uses two Vector2 to determine the actual spawn position.">
<polygon fill="white" stroke="#666666" points="311.5,-501.5 185.5,-501.5 185.5,-482.5 311.5,-482.5 311.5,-501.5"/>
<text text-anchor="middle" x="248.5" y="-489.5" font-family="Helvetica,sans-Serif" font-size="10.00">Terraria.Item.NewItem</text>
</a>
</g>
</g>
<!-- Node1&#45;&gt;Node3 -->
<g id="edge2_Node000001_Node000003" class="edge">
<title>Node1&#45;&gt;Node3</title>
<g id="a_edge2_Node000001_Node000003"><a xlink:title=" ">
<path fill="none" stroke="#63b8ff" d="M123.08,-492C139.72,-492 157.95,-492 175.19,-492"/>
<polygon fill="#63b8ff" stroke="#63b8ff" points="175.2,-495.5 185.2,-492 175.2,-488.5 175.2,-495.5"/>
</a>
</g>
</g>
<!-- Node4 -->
<g id="Node000004" class="node">
<title>Node4</title>
<g id="a_Node000004"><a xlink:href="../../d2/dfe/classTerraria_1_1NetMessage_a0099400efdc729b71368da55adc01263.html#a0099400efdc729b71368da55adc01263" target="_top" xlink:title=" ">
<polygon fill="white" stroke="#666666" points="332,-464.5 165,-464.5 165,-445.5 332,-445.5 332,-464.5"/>
<text text-anchor="middle" x="248.5" y="-452.5" font-family="Helvetica,sans-Serif" font-size="10.00">Terraria.NetMessage.SendData</text>
</a>
</g>
</g>
<!-- Node1&#45;&gt;Node4 -->
<g id="edge4_Node000001_Node000004" class="edge">
<title>Node1&#45;&gt;Node4</title>
<g id="a_edge4_Node000001_Node000004"><a xlink:title=" ">
<path fill="none" stroke="#63b8ff" d="M123.08,-479.88C144.64,-475.57 168.83,-470.73 190.12,-466.48"/>
<polygon fill="#63b8ff" stroke="#63b8ff" points="190.87,-469.9 199.99,-464.5 189.5,-463.03 190.87,-469.9"/>
</a>
</g>
</g>
<!-- Node3&#45;&gt;Node3 -->
<g id="edge3_Node000003_Node000003" class="edge">
<title>Node3&#45;&gt;Node3</title>
<g id="a_edge3_Node000003_Node000003"><a xlink:title=" ">
<path fill="none" stroke="#63b8ff" d="M219.83,-501.58C205.89,-510.23 215.44,-519.5 248.5,-519.5 271.23,-519.5 282.85,-515.12 283.36,-509.57"/>
<polygon fill="#63b8ff" stroke="#63b8ff" points="286.06,-507.34 277.17,-501.58 280.53,-511.63 286.06,-507.34"/>
</a>
</g>
</g>
<!-- Node5 -->
<g id="Node000005" class="node">
<title>Node5</title>
<g id="a_Node000005"><a xlink:href="../../d2/dfe/classTerraria_1_1NetMessage_a8bd80eec85317f48bb6a6fd7a8a8312b.html#a8bd80eec85317f48bb6a6fd7a8a8312b" target="_top" xlink:title=" ">
<polygon fill="white" stroke="#666666" points="544,-925 375,-925 375,-895 544,-895 544,-925"/>
<text text-anchor="start" x="383" y="-913" font-family="Helvetica,sans-Serif" font-size="10.00">Terraria.NetMessage.Compress</text>
<text text-anchor="middle" x="459.5" y="-902" font-family="Helvetica,sans-Serif" font-size="10.00">TileBlock</text>
</a>
</g>
</g>
<!-- Node4&#45;&gt;Node5 -->
<g id="edge5_Node000004_Node000005" class="edge">
<title>Node4&#45;&gt;Node5</title>
<g id="a_edge5_Node000004_Node000005"><a xlink:title=" ">
<path fill="none" stroke="#63b8ff" d="M326.46,-464.6C330.73,-467.17 334.63,-470.26 338,-474 387.83,-529.29 345.2,-738.37 374,-807 387.35,-838.82 413.84,-868.53 433.62,-887.79"/>
<polygon fill="#63b8ff" stroke="#63b8ff" points="431.43,-890.54 441.1,-894.89 436.25,-885.46 431.43,-890.54"/>
</a>
</g>
</g>
<!-- Node17 -->
<g id="Node000017" class="node">
<title>Node17</title>
<g id="a_Node000017"><a xlink:href="../../db/d56/classTerraria_1_1DataStructures_1_1TileEntity_a94671f9097e4ebf6de668b08e9f0b50a.html#a94671f9097e4ebf6de668b08e9f0b50a" target="_top" xlink:title=" ">
<polygon fill="white" stroke="#666666" points="946,-770 814,-770 814,-740 946,-740 946,-770"/>
<text text-anchor="start" x="822" y="-758" font-family="Helvetica,sans-Serif" font-size="10.00">Terraria.DataStructures.</text>
<text text-anchor="middle" x="880" y="-747" font-family="Helvetica,sans-Serif" font-size="10.00">TileEntity.Write</text>
</a>
</g>
</g>
<!-- Node4&#45;&gt;Node17 -->
<g id="edge38_Node000004_Node000017" class="edge">
<title>Node4&#45;&gt;Node17</title>
<g id="a_edge38_Node000004_Node000017"><a xlink:title=" ">
<path fill="none" stroke="#63b8ff" d="M326.41,-464.65C330.69,-467.2 334.61,-470.28 338,-474 428.49,-573.23 273.54,-684.88 374,-774 435.66,-828.71 678.89,-792.86 803.92,-769.93"/>
<polygon fill="#63b8ff" stroke="#63b8ff" points="804.61,-773.36 813.81,-768.09 803.34,-766.47 804.61,-773.36"/>
</a>
</g>
</g>
<!-- Node18 -->
<g id="Node000018" class="node">
<title>Node18</title>
<g id="a_Node000018"><a xlink:href="../../db/d90/classTerraria_1_1Netplay_a8a3ee13aeab7ca5a142d52fc6a7c94a8.html#a8a3ee13aeab7ca5a142d52fc6a7c94a8" target="_top" xlink:title=" ">
<polygon fill="white" stroke="#666666" points="537.5,-764.5 381.5,-764.5 381.5,-745.5 537.5,-745.5 537.5,-764.5"/>
<text text-anchor="middle" x="459.5" y="-752.5" font-family="Helvetica,sans-Serif" font-size="10.00">Terraria.Netplay.GetSectionX</text>
</a>
</g>
</g>
<!-- Node4&#45;&gt;Node18 -->
<g id="edge18_Node000004_Node000018" class="edge">
<title>Node4&#45;&gt;Node18</title>
<g id="a_edge18_Node000004_Node000018"><a xlink:title=" ">
<path fill="none" stroke="#63b8ff" d="M326.34,-464.71C330.63,-467.25 334.58,-470.31 338,-474 418.22,-560.51 293.71,-650.55 374,-737 374.77,-737.82 375.56,-738.62 376.38,-739.38"/>
<polygon fill="#63b8ff" stroke="#63b8ff" points="374.27,-742.17 384.37,-745.39 378.49,-736.58 374.27,-742.17"/>
</a>
</g>
</g>
<!-- Node19 -->
<g id="Node000019" class="node">
<title>Node19</title>
<g id="a_Node000019"><a xlink:href="../../db/d90/classTerraria_1_1Netplay_aae951351c7bd7fff569a8f67e4a700a0.html#aae951351c7bd7fff569a8f67e4a700a0" target="_top" xlink:title=" ">
<polygon fill="white" stroke="#666666" points="537,-727.5 382,-727.5 382,-708.5 537,-708.5 537,-727.5"/>
<text text-anchor="middle" x="459.5" y="-715.5" font-family="Helvetica,sans-Serif" font-size="10.00">Terraria.Netplay.GetSectionY</text>
</a>
</g>
</g>
<!-- Node4&#45;&gt;Node19 -->
<g id="edge19_Node000004_Node000019" class="edge">
<title>Node4&#45;&gt;Node19</title>
<g id="a_edge19_Node000004_Node000019"><a xlink:title=" ">
<path fill="none" stroke="#63b8ff" d="M325.84,-464.57C330.31,-467.13 334.43,-470.24 338,-474 407.69,-547.48 304.66,-625.19 374,-699 375.09,-700.16 376.24,-701.26 377.44,-702.3"/>
<polygon fill="#63b8ff" stroke="#63b8ff" points="375.78,-705.42 385.97,-708.32 379.82,-699.7 375.78,-705.42"/>
</a>
</g>
</g>
<!-- Node20 -->
<g id="Node000020" class="node">
<title>Node20</title>
<g id="a_Node000020"><a xlink:href="../../d4/d8f/classTerraria_1_1Localization_1_1Language_ae4636a4800b9ecbaa498954520462f78.html#ae4636a4800b9ecbaa498954520462f78" target="_top" xlink:title="Retrieves the text value for a specified localization key. The text returned will be for the currentl...">
<polygon fill="white" stroke="#666666" points="543.5,-690 375.5,-690 375.5,-660 543.5,-660 543.5,-690"/>
<text text-anchor="start" x="383.5" y="-678" font-family="Helvetica,sans-Serif" font-size="10.00">Terraria.Localization.Language.</text>
<text text-anchor="middle" x="459.5" y="-667" font-family="Helvetica,sans-Serif" font-size="10.00">GetTextValue</text>
</a>
</g>
</g>
<!-- Node4&#45;&gt;Node20 -->
<g id="edge20_Node000004_Node000020" class="edge">
<title>Node4&#45;&gt;Node20</title>
<g id="a_edge20_Node000004_Node000020"><a xlink:title=" ">
<path fill="none" stroke="#63b8ff" d="M325.25,-464.51C329.92,-467.08 334.24,-470.2 338,-474 394.46,-531.07 319.44,-592.12 374,-651 374.78,-651.84 375.58,-652.65 376.41,-653.43"/>
<polygon fill="#63b8ff" stroke="#63b8ff" points="374.45,-656.34 384.48,-659.76 378.77,-650.83 374.45,-656.34"/>
</a>
</g>
</g>
<!-- Node21 -->
<g id="Node000021" class="node">
<title>Node21</title>
<g id="a_Node000021"><a xlink:href="../../df/d47/classTerraria_1_1ModLoader_1_1ModNet_a1c1f9ace6611e69d54aa7a1f2cce68f2.html#a1c1f9ace6611e69d54aa7a1f2cce68f2" target="_top" xlink:title=" ">
<polygon fill="white" stroke="#666666" points="536.5,-642 382.5,-642 382.5,-612 536.5,-612 536.5,-642"/>
<text text-anchor="start" x="390.5" y="-630" font-family="Helvetica,sans-Serif" font-size="10.00">Terraria.ModLoader.ModNet.</text>
<text text-anchor="middle" x="459.5" y="-619" font-family="Helvetica,sans-Serif" font-size="10.00">HijackSendData</text>
</a>
</g>
</g>
<!-- Node4&#45;&gt;Node21 -->
<g id="edge21_Node000004_Node000021" class="edge">
<title>Node4&#45;&gt;Node21</title>
<g id="a_edge21_Node000004_Node000021"><a xlink:title=" ">
<path fill="none" stroke="#63b8ff" d="M324.53,-464.6C329.43,-467.14 333.99,-470.23 338,-474 381.35,-514.79 332.01,-560.81 374,-603 375.08,-604.08 376.2,-605.11 377.36,-606.1"/>
<polygon fill="#63b8ff" stroke="#63b8ff" points="375.37,-608.99 385.54,-611.98 379.46,-603.3 375.37,-608.99"/>
</a>
</g>
</g>
<!-- Node23 -->
<g id="Node000023" class="node">
<title>Node23</title>
<g id="a_Node000023"><a xlink:href="../../d6/d21/structTerraria_1_1Tile_aae758079f57e61378841aaf0fc884e71.html#aae758079f57e61378841aaf0fc884e71" target="_top" xlink:title="Legacy code, use P:Terraria.Tile.LiquidType instead.">
<polygon fill="white" stroke="#666666" points="523,-593.5 396,-593.5 396,-574.5 523,-574.5 523,-593.5"/>
<text text-anchor="middle" x="459.5" y="-581.5" font-family="Helvetica,sans-Serif" font-size="10.00">Terraria.Tile.liquidType</text>
</a>
</g>
</g>
<!-- Node4&#45;&gt;Node23 -->
<g id="edge23_Node000004_Node000023" class="edge">
<title>Node4&#45;&gt;Node23</title>
<g id="a_edge23_Node000004_Node000023"><a xlink:title=" ">
<path fill="none" stroke="#63b8ff" d="M323.25,-464.67C328.56,-467.17 333.56,-470.24 338,-474 371.19,-502.11 340.95,-536.73 374,-565 377.73,-568.19 381.89,-570.88 386.29,-573.14"/>
<polygon fill="#63b8ff" stroke="#63b8ff" points="385.08,-576.43 395.65,-577.2 387.87,-570 385.08,-576.43"/>
</a>
</g>
</g>
<!-- Node24 -->
<g id="Node000024" class="node">
<title>Node24</title>
<g id="a_Node000024"><a xlink:href="../../df/d47/classTerraria_1_1ModLoader_1_1ModNet_a84b918169aabe8b707d77626bfa3a734.html#a84b918169aabe8b707d77626bfa3a734" target="_top" xlink:title=" ">
<polygon fill="white" stroke="#666666" points="536.5,-556 382.5,-556 382.5,-526 536.5,-526 536.5,-556"/>
<text text-anchor="start" x="390.5" y="-544" font-family="Helvetica,sans-Serif" font-size="10.00">Terraria.ModLoader.ModNet.</text>
<text text-anchor="middle" x="459.5" y="-533" font-family="Helvetica,sans-Serif" font-size="10.00">LogSend</text>
</a>
</g>
</g>
<!-- Node4&#45;&gt;Node24 -->
<g id="edge24_Node000004_Node000024" class="edge">
<title>Node4&#45;&gt;Node24</title>
<g id="a_edge24_Node000004_Node000024"><a xlink:title=" ">
<path fill="none" stroke="#63b8ff" d="M315.88,-464.63C323.6,-467.08 331.15,-470.15 338,-474 358.28,-485.4 354.43,-499.42 374,-512 379.78,-515.72 386.1,-519.02 392.59,-521.94"/>
<polygon fill="#63b8ff" stroke="#63b8ff" points="391.6,-525.32 402.18,-525.94 394.3,-518.86 391.6,-525.32"/>
</a>
</g>
</g>
<!-- Node27 -->
<g id="Node000027" class="node">
<title>Node27</title>
<g id="a_Node000027"><a xlink:href="../../d0/d8b/classTerraria_1_1ModLoader_1_1IO_1_1ItemIO_acb34dd650cec49c955ce0297fe6d0ce1.html#acb34dd650cec49c955ce0297fe6d0ce1" target="_top" xlink:title=" ">
<polygon fill="white" stroke="#666666" points="740,-427 591,-427 591,-397 740,-397 740,-427"/>
<text text-anchor="start" x="599" y="-415" font-family="Helvetica,sans-Serif" font-size="10.00">Terraria.ModLoader.IO.Item</text>
<text text-anchor="middle" x="665.5" y="-404" font-family="Helvetica,sans-Serif" font-size="10.00">IO.Send</text>
</a>
</g>
</g>
<!-- Node4&#45;&gt;Node27 -->
<g id="edge28_Node000004_Node000027" class="edge">
<title>Node4&#45;&gt;Node27</title>
<g id="a_edge28_Node000004_Node000027"><a xlink:title=" ">
<path fill="none" stroke="#63b8ff" d="M291.93,-445.46C315.9,-440.41 346.49,-434.54 374,-431 443.28,-422.09 522.42,-417.27 580.59,-414.71"/>
<polygon fill="#63b8ff" stroke="#63b8ff" points="580.99,-418.19 590.83,-414.27 580.69,-411.2 580.99,-418.19"/>
</a>
</g>
</g>
<!-- Node28 -->
<g id="Node000028" class="node">
<title>Node28</title>
<g id="a_Node000028"><a xlink:href="../../d0/d8b/classTerraria_1_1ModLoader_1_1IO_1_1ItemIO_a9d5e51fc32478bea6653b3b43783a57b.html#a9d5e51fc32478bea6653b3b43783a57b" target="_top" xlink:title=" ">
<polygon fill="white" stroke="#666666" points="954.5,-468 805.5,-468 805.5,-438 954.5,-438 954.5,-468"/>
<text text-anchor="start" x="813.5" y="-456" font-family="Helvetica,sans-Serif" font-size="10.00">Terraria.ModLoader.IO.Item</text>
<text text-anchor="middle" x="880" y="-445" font-family="Helvetica,sans-Serif" font-size="10.00">IO.SendModData</text>
</a>
</g>
</g>
<!-- Node4&#45;&gt;Node28 -->
<g id="edge35_Node000004_Node000028" class="edge">
<title>Node4&#45;&gt;Node28</title>
<g id="a_edge35_Node000004_Node000028"><a xlink:title=" ">
<path fill="none" stroke="#63b8ff" d="M294.2,-464.55C323.37,-470.59 358.77,-477.55 374,-479 540.37,-494.89 583.59,-489.5 750,-474 764.59,-472.64 780.04,-470.63 794.97,-468.38"/>
<polygon fill="#63b8ff" stroke="#63b8ff" points="795.86,-471.79 805.21,-466.8 794.79,-464.87 795.86,-471.79"/>
</a>
</g>
</g>
<!-- Node29 -->
<g id="Node000029" class="node">
<title>Node29</title>
<g id="a_Node000029"><a xlink:href="../../dd/de0/classTerraria_1_1ModLoader_1_1BiomeLoader_a29df870ca6244b82963eeb5ce278f179.html#a29df870ca6244b82963eeb5ce278f179" target="_top" xlink:title=" ">
<polygon fill="white" stroke="#666666" points="534.5,-470 384.5,-470 384.5,-440 534.5,-440 534.5,-470"/>
<text text-anchor="start" x="392.5" y="-458" font-family="Helvetica,sans-Serif" font-size="10.00">Terraria.ModLoader.Biome</text>
<text text-anchor="middle" x="459.5" y="-447" font-family="Helvetica,sans-Serif" font-size="10.00">Loader.SendCustomBiomes</text>
</a>
</g>
</g>
<!-- Node4&#45;&gt;Node29 -->
<g id="edge30_Node000004_Node000029" class="edge">
<title>Node4&#45;&gt;Node29</title>
<g id="a_edge30_Node000004_Node000029"><a xlink:title=" ">
<path fill="none" stroke="#63b8ff" d="M332.1,-455C345.97,-455 360.37,-455 374.27,-455"/>
<polygon fill="#63b8ff" stroke="#63b8ff" points="374.29,-458.5 384.29,-455 374.29,-451.5 374.29,-458.5"/>
</a>
</g>
</g>
<!-- Node31 -->
<g id="Node000031" class="node">
<title>Node31</title>
<g id="a_Node000031"><a xlink:href="../../dd/dc6/classTerraria_1_1ModLoader_1_1NPCLoader_ad20200fbeb8230fb9fa1026ab0e76aa0.html#ad20200fbeb8230fb9fa1026ab0e76aa0" target="_top" xlink:title=" ">
<polygon fill="white" stroke="#666666" points="543.5,-384 375.5,-384 375.5,-354 543.5,-354 543.5,-384"/>
<text text-anchor="start" x="383.5" y="-372" font-family="Helvetica,sans-Serif" font-size="10.00">Terraria.ModLoader.NPCLoader.</text>
<text text-anchor="middle" x="459.5" y="-361" font-family="Helvetica,sans-Serif" font-size="10.00">SendExtraAI</text>
</a>
</g>
</g>
<!-- Node4&#45;&gt;Node31 -->
<g id="edge32_Node000004_Node000031" class="edge">
<title>Node4&#45;&gt;Node31</title>
<g id="a_edge32_Node000004_Node000031"><a xlink:title=" ">
<path fill="none" stroke="#63b8ff" d="M269.08,-445.31C293.38,-433.44 336.25,-413.08 374,-398 382.98,-394.41 392.6,-390.85 402.01,-387.52"/>
<polygon fill="#63b8ff" stroke="#63b8ff" points="403.42,-390.74 411.71,-384.14 401.11,-384.13 403.42,-390.74"/>
</a>
</g>
</g>
<!-- Node32 -->
<g id="Node000032" class="node">
<title>Node32</title>
<g id="a_Node000032"><a xlink:href="../../dd/d93/classTerraria_1_1ModLoader_1_1ProjectileLoader_a785fe46f6008e62910dd244542345a24.html#a785fe46f6008e62910dd244542345a24" target="_top" xlink:title=" ">
<polygon fill="white" stroke="#666666" points="538.5,-336 380.5,-336 380.5,-306 538.5,-306 538.5,-336"/>
<text text-anchor="start" x="388.5" y="-324" font-family="Helvetica,sans-Serif" font-size="10.00">Terraria.ModLoader.Projectile</text>
<text text-anchor="middle" x="459.5" y="-313" font-family="Helvetica,sans-Serif" font-size="10.00">Loader.SendExtraAI</text>
</a>
</g>
</g>
<!-- Node4&#45;&gt;Node32 -->
<g id="edge33_Node000004_Node000032" class="edge">
<title>Node4&#45;&gt;Node32</title>
<g id="a_edge33_Node000004_Node000032"><a xlink:title=" ">
<path fill="none" stroke="#63b8ff" d="M257.5,-445.48C275.87,-424.24 323.38,-372.67 374,-345 377.27,-343.21 380.69,-341.55 384.19,-340"/>
<polygon fill="#63b8ff" stroke="#63b8ff" points="385.68,-343.17 393.63,-336.16 383.05,-336.68 385.68,-343.17"/>
</a>
</g>
</g>
<!-- Node33 -->
<g id="Node000033" class="node">
<title>Node33</title>
<g id="a_Node000033"><a xlink:href="../../d3/d8e/classTerraria_1_1ModLoader_1_1IO_1_1WorldIO_a800edd3907ce891c4cba1af54ee5ba20.html#a800edd3907ce891c4cba1af54ee5ba20" target="_top" xlink:title=" ">
<polygon fill="white" stroke="#666666" points="536.5,-288 382.5,-288 382.5,-258 536.5,-258 536.5,-288"/>
<text text-anchor="start" x="390.5" y="-276" font-family="Helvetica,sans-Serif" font-size="10.00">Terraria.ModLoader.IO.World</text>
<text text-anchor="middle" x="459.5" y="-265" font-family="Helvetica,sans-Serif" font-size="10.00">IO.SendModData</text>
</a>
</g>
</g>
<!-- Node4&#45;&gt;Node33 -->
<g id="edge34_Node000004_Node000033" class="edge">
<title>Node4&#45;&gt;Node33</title>
<g id="a_edge34_Node000004_Node000033"><a xlink:title=" ">
<path fill="none" stroke="#63b8ff" d="M254.21,-445.48C268.32,-417.99 313.06,-337.81 374,-297 376.3,-295.46 378.69,-294.02 381.16,-292.67"/>
<polygon fill="#63b8ff" stroke="#63b8ff" points="382.92,-295.71 390.37,-288.18 379.85,-289.42 382.92,-295.71"/>
</a>
</g>
</g>
<!-- Node34 -->
<g id="Node000034" class="node">
<title>Node34</title>
<g id="a_Node000034"><a xlink:href="../../d0/da6/classTerraria_1_1ModLoader_1_1Logging_ab70d2a6a87eaae1d1ea2b6df62b255ec.html#ab70d2a6a87eaae1d1ea2b6df62b255ec" target="_top" xlink:title=" ">
<polygon fill="white" stroke="#666666" points="536.5,-222 382.5,-222 382.5,-192 536.5,-192 536.5,-222"/>
<text text-anchor="start" x="390.5" y="-210" font-family="Helvetica,sans-Serif" font-size="10.00">Terraria.ModLoader.Logging.</text>
<text text-anchor="middle" x="459.5" y="-199" font-family="Helvetica,sans-Serif" font-size="10.00">ServerConsoleLine</text>
</a>
</g>
</g>
<!-- Node4&#45;&gt;Node34 -->
<g id="edge36_Node000004_Node000034" class="edge">
<title>Node4&#45;&gt;Node34</title>
<g id="a_edge36_Node000004_Node000034"><a xlink:title=" ">
<path fill="none" stroke="#63b8ff" d="M253.14,-445.08C265.42,-412.83 308.22,-309.58 374,-249 383.8,-239.98 395.89,-232.45 407.83,-226.38"/>
<polygon fill="#63b8ff" stroke="#63b8ff" points="409.4,-229.51 416.9,-222.02 406.37,-223.2 409.4,-229.51"/>
</a>
</g>
</g>
<!-- Node35 -->
<g id="Node000035" class="node">
<title>Node35</title>
<g id="a_Node000035"><a xlink:href="../../d2/dfe/classTerraria_1_1NetMessage_a17488582dd5650d9c0f793be3cc79b2a.html#a17488582dd5650d9c0f793be3cc79b2a" target="_top" xlink:title=" ">
<polygon fill="white" stroke="#666666" points="532.5,-174 386.5,-174 386.5,-144 532.5,-144 532.5,-174"/>
<text text-anchor="start" x="394.5" y="-162" font-family="Helvetica,sans-Serif" font-size="10.00">Terraria.NetMessage.Write</text>
<text text-anchor="middle" x="459.5" y="-151" font-family="Helvetica,sans-Serif" font-size="10.00">AccessoryVisibility</text>
</a>
</g>
</g>
<!-- Node4&#45;&gt;Node35 -->
<g id="edge39_Node000004_Node000035" class="edge">
<title>Node4&#45;&gt;Node35</title>
<g id="a_edge39_Node000004_Node000035"><a xlink:title=" ">
<path fill="none" stroke="#63b8ff" d="M250.96,-445.33C257.4,-406.15 286.9,-257.74 374,-183 375.52,-181.7 377.1,-180.46 378.75,-179.3"/>
<polygon fill="#63b8ff" stroke="#63b8ff" points="380.67,-182.22 387.36,-174.01 377.01,-176.26 380.67,-182.22"/>
</a>
</g>
</g>
<!-- Node36 -->
<g id="Node000036" class="node">
<title>Node36</title>
<g id="a_Node000036"><a xlink:href="../../dd/dc6/classTerraria_1_1ModLoader_1_1NPCLoader_acd7b32d09b1fce4d0690d6bae683d829.html#acd7b32d09b1fce4d0690d6bae683d829" target="_top" xlink:title=" ">
<polygon fill="white" stroke="#666666" points="543.5,-126 375.5,-126 375.5,-96 543.5,-96 543.5,-126"/>
<text text-anchor="start" x="383.5" y="-114" font-family="Helvetica,sans-Serif" font-size="10.00">Terraria.ModLoader.NPCLoader.</text>
<text text-anchor="middle" x="459.5" y="-103" font-family="Helvetica,sans-Serif" font-size="10.00">WriteExtraAI</text>
</a>
</g>
</g>
<!-- Node4&#45;&gt;Node36 -->
<g id="edge40_Node000004_Node000036" class="edge">
<title>Node4&#45;&gt;Node36</title>
<g id="a_edge40_Node000004_Node000036"><a xlink:title=" ">
<path fill="none" stroke="#63b8ff" d="M250.22,-445.46C253.99,-402.47 275.23,-224.87 374,-135 375.16,-133.94 376.37,-132.93 377.61,-131.96"/>
<polygon fill="#63b8ff" stroke="#63b8ff" points="379.92,-134.63 386.32,-126.2 376.05,-128.8 379.92,-134.63"/>
</a>
</g>
</g>
<!-- Node37 -->
<g id="Node000037" class="node">
<title>Node37</title>
<g id="a_Node000037"><a xlink:href="../../dd/d93/classTerraria_1_1ModLoader_1_1ProjectileLoader_ad728f89b264d8327c66389f62f4d6a6b.html#ad728f89b264d8327c66389f62f4d6a6b" target="_top" xlink:title=" ">
<polygon fill="white" stroke="#666666" points="538.5,-78 380.5,-78 380.5,-48 538.5,-48 538.5,-78"/>
<text text-anchor="start" x="388.5" y="-66" font-family="Helvetica,sans-Serif" font-size="10.00">Terraria.ModLoader.Projectile</text>
<text text-anchor="middle" x="459.5" y="-55" font-family="Helvetica,sans-Serif" font-size="10.00">Loader.WriteExtraAI</text>
</a>
</g>
</g>
<!-- Node4&#45;&gt;Node37 -->
<g id="edge41_Node000004_Node000037" class="edge">
<title>Node4&#45;&gt;Node37</title>
<g id="a_edge41_Node000004_Node000037"><a xlink:title=" ">
<path fill="none" stroke="#63b8ff" d="M249.68,-445.35C251.09,-398.43 263.58,-192.08 374,-87 375.14,-85.92 376.32,-84.88 377.55,-83.89"/>
<polygon fill="#63b8ff" stroke="#63b8ff" points="379.87,-86.54 386.15,-78.01 375.92,-80.76 379.87,-86.54"/>
</a>
</g>
</g>
<!-- Node38 -->
<g id="Node000038" class="node">
<title>Node38</title>
<g id="a_Node000038"><a xlink:href="../../d9/d9b/classTerraria_1_1DataStructures_1_1PlayerDeathReason_a9b526c38a2136beee6ac5ae5a6e8faa7.html#a9b526c38a2136beee6ac5ae5a6e8faa7" target="_top" xlink:title=" ">
<polygon fill="white" stroke="#666666" points="545,-30 374,-30 374,0 545,0 545,-30"/>
<text text-anchor="start" x="382" y="-18" font-family="Helvetica,sans-Serif" font-size="10.00">Terraria.DataStructures.</text>
<text text-anchor="middle" x="459.5" y="-7" font-family="Helvetica,sans-Serif" font-size="10.00">PlayerDeathReason.WriteSelfTo</text>
</a>
</g>
</g>
<!-- Node4&#45;&gt;Node38 -->
<g id="edge42_Node000004_Node000038" class="edge">
<title>Node4&#45;&gt;Node38</title>
<g id="a_edge42_Node000004_Node000038"><a xlink:title=" ">
<path fill="none" stroke="#63b8ff" d="M249.25,-445.49C248.47,-395.38 251.61,-159.68 374,-39 375.09,-37.93 376.22,-36.91 377.38,-35.93"/>
<polygon fill="#63b8ff" stroke="#63b8ff" points="379.48,-38.74 385.61,-30.1 375.43,-33.02 379.48,-38.74"/>
</a>
</g>
</g>
<!-- Node6 -->
<g id="Node000006" class="node">
<title>Node6</title>
<g id="a_Node000006"><a xlink:href="../../d2/dfe/classTerraria_1_1NetMessage_ae9163ccde925a89a178879cda0866701.html#ae9163ccde925a89a178879cda0866701" target="_top" xlink:title=" ">
<polygon fill="white" stroke="#666666" points="750,-962 581,-962 581,-932 750,-932 750,-962"/>
<text text-anchor="start" x="589" y="-950" font-family="Helvetica,sans-Serif" font-size="10.00">Terraria.NetMessage.Compress</text>
<text text-anchor="middle" x="665.5" y="-939" font-family="Helvetica,sans-Serif" font-size="10.00">TileBlock_Inner</text>
</a>
</g>
</g>
<!-- Node5&#45;&gt;Node6 -->
<g id="edge6_Node000005_Node000006" class="edge">
<title>Node5&#45;&gt;Node6</title>
<g id="a_edge6_Node000005_Node000006"><a xlink:title=" ">
<path fill="none" stroke="#63b8ff" d="M543.47,-925.05C552.71,-926.72 562.16,-928.44 571.51,-930.13"/>
<polygon fill="#63b8ff" stroke="#63b8ff" points="571.13,-933.62 581.6,-931.96 572.38,-926.74 571.13,-933.62"/>
</a>
</g>
</g>
<!-- Node7 -->
<g id="Node000007" class="node">
<title>Node7</title>
<g id="a_Node000007"><a xlink:href="../../d9/d66/classTerraria_1_1GameContent_1_1Tile__Entities_1_1TEDisplayDoll_acb24e981caea1cd0c432ac84c9261c1c.html#acb24e981caea1cd0c432ac84c9261c1c" target="_top" xlink:title=" ">
<polygon fill="white" stroke="#666666" points="956.5,-1058 803.5,-1058 803.5,-1028 956.5,-1028 956.5,-1058"/>
<text text-anchor="start" x="811.5" y="-1046" font-family="Helvetica,sans-Serif" font-size="10.00">Terraria.GameContent.Tile</text>
<text text-anchor="middle" x="880" y="-1035" font-family="Helvetica,sans-Serif" font-size="10.00">_Entities.TEDisplayDoll.Find</text>
</a>
</g>
</g>
<!-- Node6&#45;&gt;Node7 -->
<g id="edge7_Node000006_Node000007" class="edge">
<title>Node6&#45;&gt;Node7</title>
<g id="a_edge7_Node000006_Node000007"><a xlink:title=" ">
<path fill="none" stroke="#63b8ff" d="M687.52,-962.26C710.63,-978.4 749.37,-1003.63 786,-1019 791,-1021.1 796.22,-1023.05 801.54,-1024.86"/>
<polygon fill="#63b8ff" stroke="#63b8ff" points="800.59,-1028.23 811.18,-1027.96 802.74,-1021.57 800.59,-1028.23"/>
</a>
</g>
</g>
<!-- Node8 -->
<g id="Node000008" class="node">
<title>Node8</title>
<g id="a_Node000008"><a xlink:href="../../df/d58/classTerraria_1_1GameContent_1_1Tile__Entities_1_1TEFoodPlatter_ab824c4ec25da97eb7b211ec27d652546.html#ab824c4ec25da97eb7b211ec27d652546" target="_top" xlink:title=" ">
<polygon fill="white" stroke="#666666" points="956,-1010 804,-1010 804,-980 956,-980 956,-1010"/>
<text text-anchor="start" x="812" y="-998" font-family="Helvetica,sans-Serif" font-size="10.00">Terraria.GameContent.Tile</text>
<text text-anchor="middle" x="880" y="-987" font-family="Helvetica,sans-Serif" font-size="10.00">_Entities.TEFoodPlatter.Find</text>
</a>
</g>
</g>
<!-- Node6&#45;&gt;Node8 -->
<g id="edge8_Node000006_Node000008" class="edge">
<title>Node6&#45;&gt;Node8</title>
<g id="a_edge8_Node000006_Node000008"><a xlink:title=" ">
<path fill="none" stroke="#63b8ff" d="M733.15,-962.06C755.21,-967.04 779.92,-972.62 802.64,-977.75"/>
<polygon fill="#63b8ff" stroke="#63b8ff" points="802.06,-981.21 812.58,-980 803.6,-974.38 802.06,-981.21"/>
</a>
</g>
</g>
<!-- Node9 -->
<g id="Node000009" class="node">
<title>Node9</title>
<g id="a_Node000009"><a xlink:href="../../d3/d99/classTerraria_1_1GameContent_1_1Tile__Entities_1_1TEHatRack_a0af7e34a07c3d2ba64ef18aca9013ff5.html#a0af7e34a07c3d2ba64ef18aca9013ff5" target="_top" xlink:title=" ">
<polygon fill="white" stroke="#666666" points="952.5,-962 807.5,-962 807.5,-932 952.5,-932 952.5,-962"/>
<text text-anchor="start" x="815.5" y="-950" font-family="Helvetica,sans-Serif" font-size="10.00">Terraria.GameContent.Tile</text>
<text text-anchor="middle" x="880" y="-939" font-family="Helvetica,sans-Serif" font-size="10.00">_Entities.TEHatRack.Find</text>
</a>
</g>
</g>
<!-- Node6&#45;&gt;Node9 -->
<g id="edge9_Node000006_Node000009" class="edge">
<title>Node6&#45;&gt;Node9</title>
<g id="a_edge9_Node000006_Node000009"><a xlink:title=" ">
<path fill="none" stroke="#63b8ff" d="M750.18,-947C765.71,-947 781.91,-947 797.38,-947"/>
<polygon fill="#63b8ff" stroke="#63b8ff" points="797.42,-950.5 807.42,-947 797.42,-943.5 797.42,-950.5"/>
</a>
</g>
</g>
<!-- Node10 -->
<g id="Node000010" class="node">
<title>Node10</title>
<g id="a_Node000010"><a xlink:href="../../d5/dad/classTerraria_1_1GameContent_1_1Tile__Entities_1_1TEItemFrame_a736981b810e7aa34c25f1ea4e0ec0c4d.html#a736981b810e7aa34c25f1ea4e0ec0c4d" target="_top" xlink:title=" ">
<polygon fill="white" stroke="#666666" points="955,-914 805,-914 805,-884 955,-884 955,-914"/>
<text text-anchor="start" x="813" y="-902" font-family="Helvetica,sans-Serif" font-size="10.00">Terraria.GameContent.Tile</text>
<text text-anchor="middle" x="880" y="-891" font-family="Helvetica,sans-Serif" font-size="10.00">_Entities.TEItemFrame.Find</text>
</a>
</g>
</g>
<!-- Node6&#45;&gt;Node10 -->
<g id="edge10_Node000006_Node000010" class="edge">
<title>Node6&#45;&gt;Node10</title>
<g id="a_edge10_Node000006_Node000010"><a xlink:title=" ">
<path fill="none" stroke="#63b8ff" d="M733.15,-931.94C755.21,-926.96 779.92,-921.38 802.64,-916.25"/>
<polygon fill="#63b8ff" stroke="#63b8ff" points="803.6,-919.62 812.58,-914 802.06,-912.79 803.6,-919.62"/>
</a>
</g>
</g>
<!-- Node11 -->
<g id="Node000011" class="node">
<title>Node11</title>
<g id="a_Node000011"><a xlink:href="../../d8/d19/classTerraria_1_1GameContent_1_1Tile__Entities_1_1TETeleportationPylon_a6fc24a8a3539899124e211733cc4f81c.html#a6fc24a8a3539899124e211733cc4f81c" target="_top" xlink:title=" ">
<polygon fill="white" stroke="#666666" points="974,-866 786,-866 786,-836 974,-836 974,-866"/>
<text text-anchor="start" x="794" y="-854" font-family="Helvetica,sans-Serif" font-size="10.00">Terraria.GameContent.Tile</text>
<text text-anchor="middle" x="880" y="-843" font-family="Helvetica,sans-Serif" font-size="10.00">_Entities.TETeleportationPylon.Find</text>
</a>
</g>
</g>
<!-- Node6&#45;&gt;Node11 -->
<g id="edge11_Node000006_Node000011" class="edge">
<title>Node6&#45;&gt;Node11</title>
<g id="a_edge11_Node000006_Node000011"><a xlink:title=" ">
<path fill="none" stroke="#63b8ff" d="M687.52,-931.74C710.63,-915.6 749.37,-890.37 786,-875 791,-872.9 796.22,-870.95 801.54,-869.14"/>
<polygon fill="#63b8ff" stroke="#63b8ff" points="802.74,-872.43 811.18,-866.04 800.59,-865.77 802.74,-872.43"/>
</a>
</g>
</g>
<!-- Node12 -->
<g id="Node000012" class="node">
<title>Node12</title>
<g id="a_Node000012"><a xlink:href="../../d1/dea/classTerraria_1_1GameContent_1_1Tile__Entities_1_1TETrainingDummy_ab9fb96c6f00d653644d815bbdf50f66a.html#ab9fb96c6f00d653644d815bbdf50f66a" target="_top" xlink:title=" ">
<polygon fill="white" stroke="#666666" points="966.5,-818 793.5,-818 793.5,-788 966.5,-788 966.5,-818"/>
<text text-anchor="start" x="801.5" y="-806" font-family="Helvetica,sans-Serif" font-size="10.00">Terraria.GameContent.Tile</text>
<text text-anchor="middle" x="880" y="-795" font-family="Helvetica,sans-Serif" font-size="10.00">_Entities.TETrainingDummy.Find</text>
</a>
</g>
</g>
<!-- Node6&#45;&gt;Node12 -->
<g id="edge12_Node000006_Node000012" class="edge">
<title>Node6&#45;&gt;Node12</title>
<g id="a_edge12_Node000006_Node000012"><a xlink:title=" ">
<path fill="none" stroke="#63b8ff" d="M677.16,-931.91C696.07,-906.31 738.03,-854.47 786,-827 789.06,-825.25 792.25,-823.62 795.52,-822.11"/>
<polygon fill="#63b8ff" stroke="#63b8ff" points="797.08,-825.26 804.95,-818.16 794.37,-818.8 797.08,-825.26"/>
</a>
</g>
</g>
<!-- Node13 -->
<g id="Node000013" class="node">
<title>Node13</title>
<g id="a_Node000013"><a xlink:href="../../d6/db4/classTerraria_1_1GameContent_1_1Tile__Entities_1_1TEWeaponsRack_aa3987ebaf1e3db83e347561e6bb8c801.html#aa3987ebaf1e3db83e347561e6bb8c801" target="_top" xlink:title=" ">
<polygon fill="white" stroke="#666666" points="962.5,-1181 797.5,-1181 797.5,-1151 962.5,-1151 962.5,-1181"/>
<text text-anchor="start" x="805.5" y="-1169" font-family="Helvetica,sans-Serif" font-size="10.00">Terraria.GameContent.Tile</text>
<text text-anchor="middle" x="880" y="-1158" font-family="Helvetica,sans-Serif" font-size="10.00">_Entities.TEWeaponsRack.Find</text>
</a>
</g>
</g>
<!-- Node6&#45;&gt;Node13 -->
<g id="edge13_Node000006_Node000013" class="edge">
<title>Node6&#45;&gt;Node13</title>
<g id="a_edge13_Node000006_Node000013"><a xlink:title=" ">
<path fill="none" stroke="#63b8ff" d="M671.32,-962.18C683.84,-999.07 721.04,-1093.96 786,-1142 788.05,-1143.52 790.19,-1144.94 792.4,-1146.27"/>
<polygon fill="#63b8ff" stroke="#63b8ff" points="790.76,-1149.36 801.23,-1150.98 794.05,-1143.19 790.76,-1149.36"/>
</a>
</g>
</g>
<!-- Node14 -->
<g id="Node000014" class="node">
<title>Node14</title>
<g id="a_Node000014"><a xlink:href="../../dc/ddf/classTerraria_1_1Chest_acd6e0360d9c88e1b967580124250a028.html#acd6e0360d9c88e1b967580124250a028" target="_top" xlink:title="Tries to find a T:Terraria.Chest located at (X , Y ) (tile coordinates).">
<polygon fill="white" stroke="#666666" points="947.5,-1132.5 812.5,-1132.5 812.5,-1113.5 947.5,-1113.5 947.5,-1132.5"/>
<text text-anchor="middle" x="880" y="-1120.5" font-family="Helvetica,sans-Serif" font-size="10.00">Terraria.Chest.FindChest</text>
</a>
</g>
</g>
<!-- Node6&#45;&gt;Node14 -->
<g id="edge14_Node000006_Node000014" class="edge">
<title>Node6&#45;&gt;Node14</title>
<g id="a_edge14_Node000006_Node000014"><a xlink:title=" ">
<path fill="none" stroke="#63b8ff" d="M673.22,-962.11C688.33,-994.17 728.2,-1068.99 786,-1105 791.1,-1108.18 796.63,-1110.81 802.38,-1113"/>
<polygon fill="#63b8ff" stroke="#63b8ff" points="801.61,-1116.43 812.2,-1116.27 803.82,-1109.79 801.61,-1116.43"/>
</a>
</g>
</g>
<!-- Node15 -->
<g id="Node000015" class="node">
<title>Node15</title>
<g id="a_Node000015"><a xlink:href="../../dd/d21/classTerraria_1_1Sign_a29027ab23c41a6dfb30ae54caa2be2f7.html#a29027ab23c41a6dfb30ae54caa2be2f7" target="_top" xlink:title=" ">
<polygon fill="white" stroke="#666666" points="943,-1095.5 817,-1095.5 817,-1076.5 943,-1076.5 943,-1095.5"/>
<text text-anchor="middle" x="880" y="-1083.5" font-family="Helvetica,sans-Serif" font-size="10.00">Terraria.Sign.ReadSign</text>
</a>
</g>
</g>
<!-- Node6&#45;&gt;Node15 -->
<g id="edge15_Node000006_Node000015" class="edge">
<title>Node6&#45;&gt;Node15</title>
<g id="a_edge15_Node000006_Node000015"><a xlink:title=" ">
<path fill="none" stroke="#63b8ff" d="M677.02,-962.35C695.71,-988.35 737.35,-1040.77 786,-1067 792.48,-1070.5 799.53,-1073.35 806.76,-1075.68"/>
<polygon fill="#63b8ff" stroke="#63b8ff" points="806.11,-1079.13 816.69,-1078.54 808.05,-1072.41 806.11,-1079.13"/>
</a>
</g>
</g>
<!-- Node6&#45;&gt;Node17 -->
<g id="edge17_Node000006_Node000017" class="edge">
<title>Node6&#45;&gt;Node17</title>
<g id="a_edge17_Node000006_Node000017"><a xlink:title=" ">
<path fill="none" stroke="#63b8ff" d="M672.8,-931.98C687.46,-898.89 727.17,-819.47 786,-779 791.63,-775.13 797.84,-771.88 804.3,-769.15"/>
<polygon fill="#63b8ff" stroke="#63b8ff" points="805.79,-772.33 813.91,-765.53 803.32,-765.79 805.79,-772.33"/>
</a>
</g>
</g>
<!-- Node16 -->
<g id="Node000016" class="node">
<title>Node16</title>
<g id="a_Node000016"><a xlink:href="../../dd/d21/classTerraria_1_1Sign_abdb027ce4747b58504b4900b6ea459d9.html#abdb027ce4747b58504b4900b6ea459d9" target="_top" xlink:title=" ">
<polygon fill="white" stroke="#666666" points="1127,-1095.5 1010,-1095.5 1010,-1076.5 1127,-1076.5 1127,-1095.5"/>
<text text-anchor="middle" x="1068.5" y="-1083.5" font-family="Helvetica,sans-Serif" font-size="10.00">Terraria.Sign.KillSign</text>
</a>
</g>
</g>
<!-- Node15&#45;&gt;Node16 -->
<g id="edge16_Node000015_Node000016" class="edge">
<title>Node15&#45;&gt;Node16</title>
<g id="a_edge16_Node000015_Node000016"><a xlink:title=" ">
<path fill="none" stroke="#63b8ff" d="M943.1,-1086C961.25,-1086 981.18,-1086 999.66,-1086"/>
<polygon fill="#63b8ff" stroke="#63b8ff" points="999.77,-1089.5 1009.77,-1086 999.77,-1082.5 999.77,-1089.5"/>
</a>
</g>
</g>
<!-- Node22 -->
<g id="Node000022" class="node">
<title>Node22</title>
<g id="a_Node000022"><a xlink:href="../../d1/da9/classTerraria_1_1ModLoader_1_1SystemLoader_ae99eb8c523f713e1b444bb0751fdac97.html#ae99eb8c523f713e1b444bb0751fdac97" target="_top" xlink:title=" ">
<polygon fill="white" stroke="#666666" points="740,-642 591,-642 591,-612 740,-612 740,-642"/>
<text text-anchor="start" x="599" y="-630" font-family="Helvetica,sans-Serif" font-size="10.00">Terraria.ModLoader.System</text>
<text text-anchor="middle" x="665.5" y="-619" font-family="Helvetica,sans-Serif" font-size="10.00">Loader.HijackSendData</text>
</a>
</g>
</g>
<!-- Node21&#45;&gt;Node22 -->
<g id="edge22_Node000021_Node000022" class="edge">
<title>Node21&#45;&gt;Node22</title>
<g id="a_edge22_Node000021_Node000022"><a xlink:title=" ">
<path fill="none" stroke="#63b8ff" d="M536.75,-627C550.96,-627 565.88,-627 580.31,-627"/>
<polygon fill="#63b8ff" stroke="#63b8ff" points="580.71,-630.5 590.71,-627 580.71,-623.5 580.71,-630.5"/>
</a>
</g>
</g>
<!-- Node25 -->
<g id="Node000025" class="node">
<title>Node25</title>
<g id="a_Node000025"><a xlink:href="../../df/d47/classTerraria_1_1ModLoader_1_1ModNet_a0887e1e6a5354d57bf79d5fb93bdb7da.html#a0887e1e6a5354d57bf79d5fb93bdb7da" target="_top" xlink:title=" ">
<polygon fill="white" stroke="#666666" points="742.5,-556 588.5,-556 588.5,-526 742.5,-526 742.5,-556"/>
<text text-anchor="start" x="596.5" y="-544" font-family="Helvetica,sans-Serif" font-size="10.00">Terraria.ModLoader.ModNet.</text>
<text text-anchor="middle" x="665.5" y="-533" font-family="Helvetica,sans-Serif" font-size="10.00">Debug</text>
</a>
</g>
</g>
<!-- Node24&#45;&gt;Node25 -->
<g id="edge25_Node000024_Node000025" class="edge">
<title>Node24&#45;&gt;Node25</title>
<g id="a_edge25_Node000024_Node000025"><a xlink:title=" ">
<path fill="none" stroke="#63b8ff" d="M536.75,-541C550.19,-541 564.26,-541 577.96,-541"/>
<polygon fill="#63b8ff" stroke="#63b8ff" points="578.34,-544.5 588.34,-541 578.34,-537.5 578.34,-544.5"/>
</a>
</g>
</g>
<!-- Node25&#45;&gt;Node25 -->
<g id="edge26_Node000025_Node000025" class="edge">
<title>Node25&#45;&gt;Node25</title>
<g id="a_edge26_Node000025_Node000025"><a xlink:title=" ">
<path fill="none" stroke="#63b8ff" d="M629.29,-556.28C621.24,-565.41 633.31,-574 665.5,-574 684.61,-574 696.63,-570.97 701.56,-566.6"/>
<polygon fill="#63b8ff" stroke="#63b8ff" points="705.06,-566.33 701.71,-556.28 698.06,-566.22 705.06,-566.33"/>
</a>
</g>
</g>
<!-- Node26 -->
<g id="Node000026" class="node">
<title>Node26</title>
<g id="a_Node000026"><a xlink:href="../../df/d47/classTerraria_1_1ModLoader_1_1ModNet_ac2c9d5a95be6bd79eeea20bdc9bd0d46.html#ac2c9d5a95be6bd79eeea20bdc9bd0d46" target="_top" xlink:title=" ">
<polygon fill="white" stroke="#666666" points="957,-556 803,-556 803,-526 957,-526 957,-556"/>
<text text-anchor="start" x="811" y="-544" font-family="Helvetica,sans-Serif" font-size="10.00">Terraria.ModLoader.ModNet.</text>
<text text-anchor="middle" x="880" y="-533" font-family="Helvetica,sans-Serif" font-size="10.00">Identifier</text>
</a>
</g>
</g>
<!-- Node25&#45;&gt;Node26 -->
<g id="edge27_Node000025_Node000026" class="edge">
<title>Node25&#45;&gt;Node26</title>
<g id="a_edge27_Node000025_Node000026"><a xlink:title=" ">
<path fill="none" stroke="#63b8ff" d="M742.62,-541C758.79,-541 775.98,-541 792.51,-541"/>
<polygon fill="#63b8ff" stroke="#63b8ff" points="792.7,-544.5 802.7,-541 792.7,-537.5 792.7,-544.5"/>
</a>
</g>
</g>
<!-- Node27&#45;&gt;Node28 -->
<g id="edge29_Node000027_Node000028" class="edge">
<title>Node27&#45;&gt;Node28</title>
<g id="a_edge29_Node000027_Node000028"><a xlink:title=" ">
<path fill="none" stroke="#63b8ff" d="M740.23,-426.22C758.03,-429.66 777.18,-433.35 795.39,-436.87"/>
<polygon fill="#63b8ff" stroke="#63b8ff" points="794.92,-440.34 805.4,-438.8 796.25,-433.47 794.92,-440.34"/>
</a>
</g>
</g>
<!-- Node30 -->
<g id="Node000030" class="node">
<title>Node30</title>
<g id="a_Node000030"><a xlink:href="../../d1/d9c/classTerraria_1_1Utils_a77957b27eb38a437df68fbc4467ffc54.html#a77957b27eb38a437df68fbc4467ffc54" target="_top" xlink:title="Bit packs a BitArray in to a Byte Array and then sends the byte array.">
<polygon fill="white" stroke="#666666" points="738.5,-464.5 592.5,-464.5 592.5,-445.5 738.5,-445.5 738.5,-464.5"/>
<text text-anchor="middle" x="665.5" y="-452.5" font-family="Helvetica,sans-Serif" font-size="10.00">Terraria.Utils.SendBitArray</text>
</a>
</g>
</g>
<!-- Node29&#45;&gt;Node30 -->
<g id="edge31_Node000029_Node000030" class="edge">
<title>Node29&#45;&gt;Node30</title>
<g id="a_edge31_Node000029_Node000030"><a xlink:title=" ">
<path fill="none" stroke="#63b8ff" d="M534.73,-455C550.15,-455 566.48,-455 582.17,-455"/>
<polygon fill="#63b8ff" stroke="#63b8ff" points="582.37,-458.5 592.37,-455 582.37,-451.5 582.37,-458.5"/>
</a>
</g>
</g>
<!-- Node34&#45;&gt;Node34 -->
<g id="edge37_Node000034_Node000034" class="edge">
<title>Node34&#45;&gt;Node34</title>
<g id="a_edge37_Node000034_Node000034"><a xlink:title=" ">
<path fill="none" stroke="#63b8ff" d="M423.29,-222.28C415.24,-231.41 427.31,-240 459.5,-240 478.61,-240 490.63,-236.97 495.56,-232.6"/>
<polygon fill="#63b8ff" stroke="#63b8ff" points="499.06,-232.33 495.71,-222.28 492.06,-232.22 499.06,-232.33"/>
</a>
</g>
</g>
<!-- Node38&#45;&gt;Node27 -->
<g id="edge43_Node000038_Node000027" class="edge">
<title>Node38&#45;&gt;Node27</title>
<g id="a_edge43_Node000038_Node000027"><a xlink:title=" ">
<path fill="none" stroke="#63b8ff" d="M533.31,-30.18C537.54,-32.69 541.49,-35.61 545,-39 646.16,-136.85 661.86,-320.3 664.16,-386.97"/>
<polygon fill="#63b8ff" stroke="#63b8ff" points="660.66,-387.08 664.43,-396.98 667.66,-386.89 660.66,-387.08"/>
</a>
</g>
</g>
</g>
</svg>
