<?xml version="1.0" encoding="UTF-8" standalone="no"?>
<!DOCTYPE svg PUBLIC "-//W3C//DTD SVG 1.1//EN"
 "http://www.w3.org/Graphics/SVG/1.1/DTD/svg11.dtd">
<!-- Generated by graphviz version 2.43.0 (0)
 -->
<!-- Title: Terraria.NPC.SlimeRainSpawns Pages: 1 -->
<!--zoomable 514 -->

<svg id="main" version="1.1" xmlns="http://www.w3.org/2000/svg" xmlns:xlink="http://www.w3.org/1999/xlink" xml:space="preserve" onload="init(evt)">
<style type="text/css"><![CDATA[
.node, .edge {opacity: 0.7;}
.node.selected, .edge.selected {opacity: 1;}
.edge:hover path { stroke: red; }
.edge:hover polygon { stroke: red; fill: red; }
]]></style>

<defs>
  <circle id="rim" cx="0" cy="0" r="7"/>
  <circle id="rim2" cx="0" cy="0" r="3.5"/>
  <g id="zoomPlus">
    <use xlink:href="#rim" fill="#404040"><set attributeName="fill" to="#808080" begin="zoomplus.mouseover" end="zoomplus.mouseout"/></use>
    <path d="M-4,0h8M0,-4v8" fill="none" stroke="white" stroke-width="1.5" pointer-events="none"/>
  </g>
  <g id="zoomMin">
    <use xlink:href="#rim" fill="#404040"><set attributeName="fill" to="#808080" begin="zoomminus.mouseover" end="zoomminus.mouseout"/></use>
    <path d="M-4,0h8" fill="none" stroke="white" stroke-width="1.5" pointer-events="none"/>
  </g>
  <g id="arrowUp" transform="translate(30 24)">
    <use xlink:href="#rim"/>
    <path pointer-events="none" fill="none" stroke="white" stroke-width="1.5" d="M0,-3.0v7 M-2.5,-0.5L0,-3.0L2.5,-0.5"/>
  </g>
  <g id="arrowRight" transform="rotate(90) translate(36 -43)">
    <use xlink:href="#rim"/>
    <path pointer-events="none" fill="none" stroke="white" stroke-width="1.5" d="M0,-3.0v7 M-2.5,-0.5L0,-3.0L2.5,-0.5"/>
  </g>
  <g id="arrowDown" transform="rotate(180) translate(-30 -48)">
    <use xlink:href="#rim"/>
    <path pointer-events="none" fill="none" stroke="white" stroke-width="1.5" d="M0,-3.0v7 M-2.5,-0.5L0,-3.0L2.5,-0.5"/>
  </g>
  <g id="arrowLeft" transform="rotate(270) translate(-36 17)">
    <use xlink:href="#rim"/>
    <path pointer-events="none" fill="none" stroke="white" stroke-width="1.5" d="M0,-3.0v7 M-2.5,-0.5L0,-3.0L2.5,-0.5"/>
  </g>
  <g id="resetDef">
    <use xlink:href="#rim2" fill="#404040"><set attributeName="fill" to="#808080" begin="reset.mouseover" end="reset.mouseout"/></use>
  </g>
</defs>
<script type="application/ecmascript">
var viewWidth = 1366;
var viewHeight = 514;
var sectionId = 'dynsection-0';
</script>
<script type="application/ecmascript" xlink:href="../../svg.min.js"/>
<svg id="graph" class="graph">
<g id="viewport">
<title>Terraria.NPC.SlimeRainSpawns</title>
<!-- Node1 -->
<g id="Node000001" class="node">
<title>Node1</title>
<g id="a_Node000001"><a xlink:title=" ">
<polygon fill="#999999" stroke="#666666" points="167,-267.5 0,-267.5 0,-248.5 167,-248.5 167,-267.5"/>
<text text-anchor="middle" x="83.5" y="-255.5" font-family="Helvetica,sans-Serif" font-size="10.00">Terraria.NPC.SlimeRainSpawns</text>
</a>
</g>
</g>
<!-- Node2 -->
<g id="Node000002" class="node">
<title>Node2</title>
<g id="a_Node000002"><a xlink:href="../../d9/db1/classTerraria_1_1Utilities_1_1UnifiedRandom_ac4ecc6320b69ab939b9c45eaf7d89000.html#ac4ecc6320b69ab939b9c45eaf7d89000" target="_top" xlink:title=" ">
<polygon fill="white" stroke="#666666" points="337.5,-423 205.5,-423 205.5,-393 337.5,-393 337.5,-423"/>
<text text-anchor="start" x="213.5" y="-411" font-family="Helvetica,sans-Serif" font-size="10.00">Terraria.Utilities.Unified</text>
<text text-anchor="middle" x="271.5" y="-400" font-family="Helvetica,sans-Serif" font-size="10.00">Random.Next</text>
</a>
</g>
</g>
<!-- Node1&#45;&gt;Node2 -->
<g id="edge1_Node000001_Node000002" class="edge">
<title>Node1&#45;&gt;Node2</title>
<g id="a_edge1_Node000001_Node000002"><a xlink:title=" ">
<path fill="none" stroke="#63b8ff" d="M96.42,-267.61C125.9,-291.39 202.81,-353.41 243.83,-386.49"/>
<polygon fill="#63b8ff" stroke="#63b8ff" points="241.78,-389.34 251.77,-392.89 246.18,-383.89 241.78,-389.34"/>
</a>
</g>
</g>
<!-- Node4 -->
<g id="Node000004" class="node">
<title>Node4</title>
<g id="a_Node000004"><a xlink:href="../../df/d0d/classTerraria_1_1NPC_a063ba9b4494999cf79b91a12d375e317.html#a063ba9b4494999cf79b91a12d375e317" target="_top" xlink:title=" ">
<polygon fill="white" stroke="#666666" points="340,-267.5 203,-267.5 203,-248.5 340,-248.5 340,-267.5"/>
<text text-anchor="middle" x="271.5" y="-255.5" font-family="Helvetica,sans-Serif" font-size="10.00">Terraria.NPC.SetDefaults</text>
</a>
</g>
</g>
<!-- Node1&#45;&gt;Node4 -->
<g id="edge3_Node000001_Node000004" class="edge">
<title>Node1&#45;&gt;Node4</title>
<g id="a_edge3_Node000001_Node000004"><a xlink:title=" ">
<path fill="none" stroke="#63b8ff" d="M167.17,-258C175.65,-258 184.25,-258 192.68,-258"/>
<polygon fill="#63b8ff" stroke="#63b8ff" points="192.86,-261.5 202.86,-258 192.86,-254.5 192.86,-261.5"/>
</a>
</g>
</g>
<!-- Node31 -->
<g id="Node000031" class="node">
<title>Node31</title>
<g id="a_Node000031"><a xlink:href="../../de/d1d/classTerraria_1_1Collision_ae2e70996313c387cdb3066b8370d372c.html#ae2e70996313c387cdb3066b8370d372c" target="_top" xlink:title=" ">
<polygon fill="white" stroke="#666666" points="334,-212 209,-212 209,-182 334,-182 334,-212"/>
<text text-anchor="start" x="217" y="-200" font-family="Helvetica,sans-Serif" font-size="10.00">Terraria.Collision.Solid</text>
<text text-anchor="middle" x="271.5" y="-189" font-family="Helvetica,sans-Serif" font-size="10.00">Tiles</text>
</a>
</g>
</g>
<!-- Node1&#45;&gt;Node31 -->
<g id="edge34_Node000001_Node000031" class="edge">
<title>Node1&#45;&gt;Node31</title>
<g id="a_edge34_Node000001_Node000031"><a xlink:title=" ">
<path fill="none" stroke="#63b8ff" d="M113.56,-248.47C140.62,-239.59 181.68,-226.13 215.02,-215.2"/>
<polygon fill="#63b8ff" stroke="#63b8ff" points="216.23,-218.48 224.64,-212.04 214.05,-211.83 216.23,-218.48"/>
</a>
</g>
</g>
<!-- Node3 -->
<g id="Node000003" class="node">
<title>Node3</title>
<g id="a_Node000003"><a xlink:href="../../d9/db1/classTerraria_1_1Utilities_1_1UnifiedRandom_a173f09196ff526b107c0223c2d58c59a.html#a173f09196ff526b107c0223c2d58c59a" target="_top" xlink:title=" ">
<polygon fill="white" stroke="#666666" points="538.5,-506 404.5,-506 404.5,-476 538.5,-476 538.5,-506"/>
<text text-anchor="start" x="412.5" y="-494" font-family="Helvetica,sans-Serif" font-size="10.00">Terraria.Utilities.Unified</text>
<text text-anchor="middle" x="471.5" y="-483" font-family="Helvetica,sans-Serif" font-size="10.00">Random.InternalSample</text>
</a>
</g>
</g>
<!-- Node2&#45;&gt;Node3 -->
<g id="edge2_Node000002_Node000003" class="edge">
<title>Node2&#45;&gt;Node3</title>
<g id="a_edge2_Node000002_Node000003"><a xlink:title=" ">
<path fill="none" stroke="#63b8ff" d="M298.24,-423.12C318.81,-434.78 348.62,-450.77 376,-462 385.51,-465.9 395.73,-469.56 405.83,-472.88"/>
<polygon fill="#63b8ff" stroke="#63b8ff" points="404.84,-476.24 415.43,-475.96 406.98,-469.58 404.84,-476.24"/>
</a>
</g>
</g>
<!-- Node5 -->
<g id="Node000005" class="node">
<title>Node5</title>
<g id="a_Node000005"><a xlink:href="../../db/d79/classTerraria_1_1Item_a05574584ee5416fb7e5672793d62fe06.html#a05574584ee5416fb7e5672793d62fe06" target="_top" xlink:title="Converts the provided buy price into copper coins. &#160;&#160;If assigned to F:Terraria.Item....">
<polygon fill="white" stroke="#666666" points="533.5,-419.5 409.5,-419.5 409.5,-400.5 533.5,-400.5 533.5,-419.5"/>
<text text-anchor="middle" x="471.5" y="-407.5" font-family="Helvetica,sans-Serif" font-size="10.00">Terraria.Item.buyPrice</text>
</a>
</g>
</g>
<!-- Node4&#45;&gt;Node5 -->
<g id="edge4_Node000004_Node000005" class="edge">
<title>Node4&#45;&gt;Node5</title>
<g id="a_edge4_Node000004_Node000005"><a xlink:title=" ">
<path fill="none" stroke="#63b8ff" d="M276.9,-267.71C288.82,-292.85 324.4,-360.31 376,-392 383.16,-396.4 391.16,-399.76 399.38,-402.33"/>
<polygon fill="#63b8ff" stroke="#63b8ff" points="398.54,-405.73 409.11,-404.99 400.39,-398.97 398.54,-405.73"/>
</a>
</g>
</g>
<!-- Node6 -->
<g id="Node000006" class="node">
<title>Node6</title>
<g id="a_Node000006"><a xlink:href="../../df/d0d/classTerraria_1_1NPC_a5e232d3d4e046187b048502bed6d0f9a.html#a5e232d3d4e046187b048502bed6d0f9a" target="_top" xlink:title=" ">
<polygon fill="white" stroke="#666666" points="562.5,-382.5 380.5,-382.5 380.5,-363.5 562.5,-363.5 562.5,-382.5"/>
<text text-anchor="middle" x="471.5" y="-370.5" font-family="Helvetica,sans-Serif" font-size="10.00">Terraria.NPC.getGoodAdjustments</text>
</a>
</g>
</g>
<!-- Node4&#45;&gt;Node6 -->
<g id="edge5_Node000004_Node000006" class="edge">
<title>Node4&#45;&gt;Node6</title>
<g id="a_edge5_Node000004_Node000006"><a xlink:title=" ">
<path fill="none" stroke="#63b8ff" d="M279.84,-267.74C295.29,-287.47 333.24,-332.11 376,-354 380.63,-356.37 385.53,-358.44 390.56,-360.26"/>
<polygon fill="#63b8ff" stroke="#63b8ff" points="389.78,-363.69 400.37,-363.44 391.94,-357.03 389.78,-363.69"/>
</a>
</g>
</g>
<!-- Node7 -->
<g id="Node000007" class="node">
<title>Node7</title>
<g id="a_Node000007"><a xlink:href="../../df/d0d/classTerraria_1_1NPC_adea2a8b3dc8ba811f240cd6a5e4bc7a0.html#adea2a8b3dc8ba811f240cd6a5e4bc7a0" target="_top" xlink:title=" ">
<polygon fill="white" stroke="#666666" points="561.5,-345 381.5,-345 381.5,-315 561.5,-315 561.5,-345"/>
<text text-anchor="start" x="389.5" y="-333" font-family="Helvetica,sans-Serif" font-size="10.00">Terraria.NPC.getTenthAnniversary</text>
<text text-anchor="middle" x="471.5" y="-322" font-family="Helvetica,sans-Serif" font-size="10.00">Adjustments</text>
</a>
</g>
</g>
<!-- Node4&#45;&gt;Node7 -->
<g id="edge6_Node000004_Node000007" class="edge">
<title>Node4&#45;&gt;Node7</title>
<g id="a_edge6_Node000004_Node000007"><a xlink:title=" ">
<path fill="none" stroke="#63b8ff" d="M290.39,-267.54C310.7,-278.08 345.02,-294.99 376,-306 382.02,-308.14 388.32,-310.17 394.68,-312.08"/>
<polygon fill="#63b8ff" stroke="#63b8ff" points="394.12,-315.56 404.7,-314.97 396.06,-308.83 394.12,-315.56"/>
</a>
</g>
</g>
<!-- Node8 -->
<g id="Node000008" class="node">
<title>Node8</title>
<g id="a_Node000008"><a xlink:href="../../df/d0d/classTerraria_1_1NPC_a69bce4d28993fa8f83f3aee049228b53.html#a69bce4d28993fa8f83f3aee049228b53" target="_top" xlink:title=" ">
<polygon fill="white" stroke="#666666" points="553,-297 390,-297 390,-267 553,-267 553,-297"/>
<text text-anchor="start" x="398" y="-285" font-family="Helvetica,sans-Serif" font-size="10.00">Terraria.NPC.getZenithSeed</text>
<text text-anchor="middle" x="471.5" y="-274" font-family="Helvetica,sans-Serif" font-size="10.00">AdjustmentsBeforeEverything</text>
</a>
</g>
</g>
<!-- Node4&#45;&gt;Node8 -->
<g id="edge7_Node000004_Node000008" class="edge">
<title>Node4&#45;&gt;Node8</title>
<g id="a_edge7_Node000004_Node000008"><a xlink:title=" ">
<path fill="none" stroke="#63b8ff" d="M340.09,-266.19C352.85,-267.74 366.4,-269.38 379.74,-271"/>
<polygon fill="#63b8ff" stroke="#63b8ff" points="379.54,-274.5 389.89,-272.23 380.38,-267.55 379.54,-274.5"/>
</a>
</g>
</g>
<!-- Node9 -->
<g id="Node000009" class="node">
<title>Node9</title>
<g id="a_Node000009"><a xlink:href="../../df/d0d/classTerraria_1_1NPC_a7e365c98f3d1c8ce8a623131eeff00af.html#a7e365c98f3d1c8ce8a623131eeff00af" target="_top" xlink:title=" ">
<polygon fill="white" stroke="#666666" points="545,-249 398,-249 398,-219 545,-219 545,-249"/>
<text text-anchor="start" x="406" y="-237" font-family="Helvetica,sans-Serif" font-size="10.00">Terraria.NPC.LazySetLiquid</text>
<text text-anchor="middle" x="471.5" y="-226" font-family="Helvetica,sans-Serif" font-size="10.00">MovementDD2</text>
</a>
</g>
</g>
<!-- Node4&#45;&gt;Node9 -->
<g id="edge8_Node000004_Node000009" class="edge">
<title>Node4&#45;&gt;Node9</title>
<g id="a_edge8_Node000004_Node000009"><a xlink:title=" ">
<path fill="none" stroke="#63b8ff" d="M340.09,-249.81C355.34,-247.96 371.71,-245.97 387.51,-244.06"/>
<polygon fill="#63b8ff" stroke="#63b8ff" points="388.3,-247.49 397.8,-242.81 387.45,-240.54 388.3,-247.49"/>
</a>
</g>
</g>
<!-- Node10 -->
<g id="Node000010" class="node">
<title>Node10</title>
<g id="a_Node000010"><a xlink:href="../../df/d0d/classTerraria_1_1NPC_adaf55f79044eabae626e61f5f8474d0b.html#adaf55f79044eabae626e61f5f8474d0b" target="_top" xlink:title=" ">
<polygon fill="white" stroke="#666666" points="752.5,-184.5 621.5,-184.5 621.5,-165.5 752.5,-165.5 752.5,-184.5"/>
<text text-anchor="middle" x="687" y="-172.5" font-family="Helvetica,sans-Serif" font-size="10.00">Terraria.NPC.ScaleStats</text>
</a>
</g>
</g>
<!-- Node4&#45;&gt;Node10 -->
<g id="edge9_Node000004_Node000010" class="edge">
<title>Node4&#45;&gt;Node10</title>
<g id="a_edge9_Node000004_Node000010"><a xlink:title=" ">
<path fill="none" stroke="#63b8ff" d="M324.61,-248.39C330.17,-245.94 335.45,-242.86 340,-239 368.8,-214.55 344.13,-182.28 376,-162 462.53,-106.94 591.83,-140.97 652.41,-162.03"/>
<polygon fill="#63b8ff" stroke="#63b8ff" points="651.28,-165.34 661.87,-165.41 653.63,-158.75 651.28,-165.34"/>
</a>
</g>
</g>
<!-- Node21 -->
<g id="Node000021" class="node">
<title>Node21</title>
<g id="a_Node000021"><a xlink:href="../../dd/dc6/classTerraria_1_1ModLoader_1_1NPCLoader_a06b6025f8632028b83d20840cf95a079.html#a06b6025f8632028b83d20840cf95a079" target="_top" xlink:title=" ">
<polygon fill="white" stroke="#666666" points="555.5,-115 387.5,-115 387.5,-85 555.5,-85 555.5,-115"/>
<text text-anchor="start" x="395.5" y="-103" font-family="Helvetica,sans-Serif" font-size="10.00">Terraria.ModLoader.NPCLoader.</text>
<text text-anchor="middle" x="471.5" y="-92" font-family="Helvetica,sans-Serif" font-size="10.00">SetDefaults</text>
</a>
</g>
</g>
<!-- Node4&#45;&gt;Node21 -->
<g id="edge21_Node000004_Node000021" class="edge">
<title>Node4&#45;&gt;Node21</title>
<g id="a_edge21_Node000004_Node000021"><a xlink:title=" ">
<path fill="none" stroke="#63b8ff" d="M326.09,-248.44C331.19,-245.97 335.96,-242.88 340,-239 377.13,-203.4 339.29,-165.04 376,-129 379.33,-125.73 383.01,-122.83 386.94,-120.26"/>
<polygon fill="#63b8ff" stroke="#63b8ff" points="388.96,-123.14 395.9,-115.13 385.48,-117.06 388.96,-123.14"/>
</a>
</g>
</g>
<!-- Node27 -->
<g id="Node000027" class="node">
<title>Node27</title>
<g id="a_Node000027"><a xlink:href="../../df/d0d/classTerraria_1_1NPC_abdb0df5ace52d69eac9df21d2313f6c0.html#abdb0df5ace52d69eac9df21d2313f6c0" target="_top" xlink:title=" ">
<polygon fill="white" stroke="#666666" points="540,-201 403,-201 403,-171 540,-171 540,-201"/>
<text text-anchor="start" x="411" y="-189" font-family="Helvetica,sans-Serif" font-size="10.00">Terraria.NPC.SetDefaults</text>
<text text-anchor="middle" x="471.5" y="-178" font-family="Helvetica,sans-Serif" font-size="10.00">FromNetId</text>
</a>
</g>
</g>
<!-- Node4&#45;&gt;Node27 -->
<g id="edge27_Node000004_Node000027" class="edge">
<title>Node4&#45;&gt;Node27</title>
<g id="a_edge27_Node000004_Node000027"><a xlink:title=" ">
<path fill="none" stroke="#63b8ff" d="M287.9,-248.5C302.02,-243.79 323.23,-238.65 340,-230 358.26,-220.58 357.62,-210.18 376,-201 381.51,-198.24 387.37,-195.79 393.37,-193.62"/>
<polygon fill="#63b8ff" stroke="#63b8ff" points="394.48,-196.94 402.86,-190.47 392.27,-190.3 394.48,-196.94"/>
</a>
</g>
</g>
<!-- Node30 -->
<g id="Node000030" class="node">
<title>Node30</title>
<g id="a_Node000030"><a xlink:href="../../df/d0d/classTerraria_1_1NPC_a0bcca6115ed91073beae22213aee2dcf.html#a0bcca6115ed91073beae22213aee2dcf" target="_top" xlink:title=" ">
<polygon fill="white" stroke="#666666" points="567,-66.5 376,-66.5 376,-47.5 567,-47.5 567,-66.5"/>
<text text-anchor="middle" x="471.5" y="-54.5" font-family="Helvetica,sans-Serif" font-size="10.00">Terraria.NPC.SpawnWithHigherTime</text>
</a>
</g>
</g>
<!-- Node4&#45;&gt;Node30 -->
<g id="edge33_Node000004_Node000030" class="edge">
<title>Node4&#45;&gt;Node30</title>
<g id="a_edge33_Node000004_Node000030"><a xlink:title=" ">
<path fill="none" stroke="#63b8ff" d="M327.46,-248.33C332.11,-245.87 336.41,-242.81 340,-239 390.94,-185.07 323.04,-127.96 376,-76 377.31,-74.71 378.69,-73.5 380.12,-72.36"/>
<polygon fill="#63b8ff" stroke="#63b8ff" points="382.44,-75.01 388.84,-66.57 378.57,-69.18 382.44,-75.01"/>
</a>
</g>
</g>
<!-- Node11 -->
<g id="Node000011" class="node">
<title>Node11</title>
<g id="a_Node000011"><a xlink:href="../../df/d0d/classTerraria_1_1NPC_a8e4b0f3231b5bf9c5835ef2b88ac60a5.html#a8e4b0f3231b5bf9c5835ef2b88ac60a5" target="_top" xlink:title=" ">
<polygon fill="white" stroke="#666666" points="965.5,-334 807.5,-334 807.5,-304 965.5,-304 965.5,-334"/>
<text text-anchor="start" x="815.5" y="-322" font-family="Helvetica,sans-Serif" font-size="10.00">Terraria.NPC.GetActivePlayer</text>
<text text-anchor="middle" x="886.5" y="-311" font-family="Helvetica,sans-Serif" font-size="10.00">Count</text>
</a>
</g>
</g>
<!-- Node10&#45;&gt;Node11 -->
<g id="edge10_Node000010_Node000011" class="edge">
<title>Node10&#45;&gt;Node11</title>
<g id="a_edge10_Node000010_Node000011"><a xlink:title=" ">
<path fill="none" stroke="#63b8ff" d="M752.84,-182.91C759.46,-185.67 765.7,-189.29 771,-194 806.62,-225.66 772.54,-262.08 807,-295 808.13,-296.08 809.3,-297.11 810.52,-298.09"/>
<polygon fill="#63b8ff" stroke="#63b8ff" points="808.83,-301.18 819.06,-303.93 812.78,-295.4 808.83,-301.18"/>
</a>
</g>
</g>
<!-- Node12 -->
<g id="Node000012" class="node">
<title>Node12</title>
<g id="a_Node000012"><a xlink:href="../../df/d0d/classTerraria_1_1NPC_accfce3696d3a7f946b43873269df2d2f.html#accfce3696d3a7f946b43873269df2d2f" target="_top" xlink:title=" ">
<polygon fill="white" stroke="#666666" points="962.5,-286 810.5,-286 810.5,-256 962.5,-256 962.5,-286"/>
<text text-anchor="start" x="818.5" y="-274" font-family="Helvetica,sans-Serif" font-size="10.00">Terraria.NPC.GetStatScaling</text>
<text text-anchor="middle" x="886.5" y="-263" font-family="Helvetica,sans-Serif" font-size="10.00">Factors</text>
</a>
</g>
</g>
<!-- Node10&#45;&gt;Node12 -->
<g id="edge11_Node000010_Node000012" class="edge">
<title>Node10&#45;&gt;Node12</title>
<g id="a_edge11_Node000010_Node000012"><a xlink:title=" ">
<path fill="none" stroke="#63b8ff" d="M752.59,-184.63C759.11,-187.09 765.39,-190.16 771,-194 794.51,-210.07 784.08,-230.1 807,-247 809.06,-248.52 811.21,-249.94 813.44,-251.27"/>
<polygon fill="#63b8ff" stroke="#63b8ff" points="811.87,-254.4 822.35,-255.99 815.15,-248.22 811.87,-254.4"/>
</a>
</g>
</g>
<!-- Node13 -->
<g id="Node000013" class="node">
<title>Node13</title>
<g id="a_Node000013"><a xlink:href="../../df/d0d/classTerraria_1_1NPC_a1477b09713f696b98b1af6280d5d9947.html#a1477b09713f696b98b1af6280d5d9947" target="_top" xlink:title=" ">
<polygon fill="white" stroke="#666666" points="952,-238 821,-238 821,-208 952,-208 952,-238"/>
<text text-anchor="start" x="829" y="-226" font-family="Helvetica,sans-Serif" font-size="10.00">Terraria.NPC.ScaleStats</text>
<text text-anchor="middle" x="886.5" y="-215" font-family="Helvetica,sans-Serif" font-size="10.00">_ApplyExpertTweaks</text>
</a>
</g>
</g>
<!-- Node10&#45;&gt;Node13 -->
<g id="edge12_Node000010_Node000013" class="edge">
<title>Node10&#45;&gt;Node13</title>
<g id="a_edge12_Node000010_Node000013"><a xlink:title=" ">
<path fill="none" stroke="#63b8ff" d="M730.7,-184.58C743.65,-187.54 757.92,-190.85 771,-194 786.04,-197.63 802.17,-201.64 817.43,-205.49"/>
<polygon fill="#63b8ff" stroke="#63b8ff" points="816.76,-208.93 827.32,-207.99 818.48,-202.14 816.76,-208.93"/>
</a>
</g>
</g>
<!-- Node15 -->
<g id="Node000015" class="node">
<title>Node15</title>
<g id="a_Node000015"><a xlink:href="../../df/d0d/classTerraria_1_1NPC_a10eb05d46879e6a5b2849ca8ad5663b1.html#a10eb05d46879e6a5b2849ca8ad5663b1" target="_top" xlink:title=" ">
<polygon fill="white" stroke="#666666" points="952,-190 821,-190 821,-160 952,-160 952,-190"/>
<text text-anchor="start" x="829" y="-178" font-family="Helvetica,sans-Serif" font-size="10.00">Terraria.NPC.ScaleStats</text>
<text text-anchor="middle" x="886.5" y="-167" font-family="Helvetica,sans-Serif" font-size="10.00">_ApplyGameMode</text>
</a>
</g>
</g>
<!-- Node10&#45;&gt;Node15 -->
<g id="edge14_Node000010_Node000015" class="edge">
<title>Node10&#45;&gt;Node15</title>
<g id="a_edge14_Node000010_Node000015"><a xlink:title=" ">
<path fill="none" stroke="#63b8ff" d="M752.67,-175C771.17,-175 791.49,-175 810.55,-175"/>
<polygon fill="#63b8ff" stroke="#63b8ff" points="810.69,-178.5 820.69,-175 810.69,-171.5 810.69,-178.5"/>
</a>
</g>
</g>
<!-- Node16 -->
<g id="Node000016" class="node">
<title>Node16</title>
<g id="a_Node000016"><a xlink:href="../../df/d0d/classTerraria_1_1NPC_a93bb88a4be58d7223cda8d06e29ddfec.html#a93bb88a4be58d7223cda8d06e29ddfec" target="_top" xlink:title=" ">
<polygon fill="white" stroke="#666666" points="952,-142 821,-142 821,-112 952,-112 952,-142"/>
<text text-anchor="start" x="829" y="-130" font-family="Helvetica,sans-Serif" font-size="10.00">Terraria.NPC.ScaleStats</text>
<text text-anchor="middle" x="886.5" y="-119" font-family="Helvetica,sans-Serif" font-size="10.00">_ApplyMultiplayerStats</text>
</a>
</g>
</g>
<!-- Node10&#45;&gt;Node16 -->
<g id="edge15_Node000010_Node000016" class="edge">
<title>Node10&#45;&gt;Node16</title>
<g id="a_edge15_Node000010_Node000016"><a xlink:title=" ">
<path fill="none" stroke="#63b8ff" d="M727.49,-165.4C752.17,-159.4 784.68,-151.5 813.8,-144.43"/>
<polygon fill="#63b8ff" stroke="#63b8ff" points="814.63,-147.83 823.52,-142.06 812.98,-141.02 814.63,-147.83"/>
</a>
</g>
</g>
<!-- Node18 -->
<g id="Node000018" class="node">
<title>Node18</title>
<g id="a_Node000018"><a xlink:href="../../df/d0d/classTerraria_1_1NPC_ae343b9a2208e44424d4a85d71da9970f.html#ae343b9a2208e44424d4a85d71da9970f" target="_top" xlink:title=" ">
<polygon fill="white" stroke="#666666" points="952,-94 821,-94 821,-64 952,-64 952,-94"/>
<text text-anchor="start" x="829" y="-82" font-family="Helvetica,sans-Serif" font-size="10.00">Terraria.NPC.ScaleStats</text>
<text text-anchor="middle" x="886.5" y="-71" font-family="Helvetica,sans-Serif" font-size="10.00">_UseStrengthMultiplier</text>
</a>
</g>
</g>
<!-- Node10&#45;&gt;Node18 -->
<g id="edge18_Node000010_Node000018" class="edge">
<title>Node10&#45;&gt;Node18</title>
<g id="a_edge18_Node000010_Node000018"><a xlink:title=" ">
<path fill="none" stroke="#63b8ff" d="M712.2,-165.45C729.29,-158.22 752.37,-147.42 771,-135 788.81,-123.13 788.33,-113.48 807,-103 810.08,-101.27 813.29,-99.66 816.59,-98.14"/>
<polygon fill="#63b8ff" stroke="#63b8ff" points="818.2,-101.26 826.06,-94.15 815.48,-94.81 818.2,-101.26"/>
</a>
</g>
</g>
<!-- Node14 -->
<g id="Node000014" class="node">
<title>Node14</title>
<g id="a_Node000014"><a xlink:href="../../df/d0d/classTerraria_1_1NPC_a8a869e0800c1ae775007634b23e8b702.html#a8a869e0800c1ae775007634b23e8b702" target="_top" xlink:title="Returns true if there are any active NPC in the world of the given NPC type (F:Terraria....">
<polygon fill="white" stroke="#666666" points="1150.5,-205.5 1026.5,-205.5 1026.5,-186.5 1150.5,-186.5 1150.5,-205.5"/>
<text text-anchor="middle" x="1088.5" y="-193.5" font-family="Helvetica,sans-Serif" font-size="10.00">Terraria.NPC.AnyNPCs</text>
</a>
</g>
</g>
<!-- Node13&#45;&gt;Node14 -->
<g id="edge13_Node000013_Node000014" class="edge">
<title>Node13&#45;&gt;Node14</title>
<g id="a_edge13_Node000013_Node000014"><a xlink:title=" ">
<path fill="none" stroke="#63b8ff" d="M952.16,-214.27C972.66,-211.5 995.43,-208.43 1016.36,-205.6"/>
<polygon fill="#63b8ff" stroke="#63b8ff" points="1017.02,-209.05 1026.46,-204.24 1016.09,-202.11 1017.02,-209.05"/>
</a>
</g>
</g>
<!-- Node16&#45;&gt;Node14 -->
<g id="edge16_Node000016_Node000014" class="edge">
<title>Node16&#45;&gt;Node14</title>
<g id="a_edge16_Node000016_Node000014"><a xlink:title=" ">
<path fill="none" stroke="#63b8ff" d="M938.31,-142.06C947.55,-144.94 957.09,-147.99 966,-151 995.78,-161.06 1029.25,-173.54 1053.51,-182.81"/>
<polygon fill="#63b8ff" stroke="#63b8ff" points="1052.39,-186.13 1062.98,-186.44 1054.9,-179.59 1052.39,-186.13"/>
</a>
</g>
</g>
<!-- Node17 -->
<g id="Node000017" class="node">
<title>Node17</title>
<g id="a_Node000017"><a xlink:href="../../dd/dc6/classTerraria_1_1ModLoader_1_1NPCLoader_a659a4d84510af4980c152c4973a426c1.html#a659a4d84510af4980c152c4973a426c1" target="_top" xlink:title=" ">
<polygon fill="white" stroke="#666666" points="1175,-142 1002,-142 1002,-112 1175,-112 1175,-142"/>
<text text-anchor="start" x="1010" y="-130" font-family="Helvetica,sans-Serif" font-size="10.00">Terraria.ModLoader.NPCLoader.</text>
<text text-anchor="middle" x="1088.5" y="-119" font-family="Helvetica,sans-Serif" font-size="10.00">ApplyDifficultyAndPlayerScaling</text>
</a>
</g>
</g>
<!-- Node16&#45;&gt;Node17 -->
<g id="edge17_Node000016_Node000017" class="edge">
<title>Node16&#45;&gt;Node17</title>
<g id="a_edge17_Node000016_Node000017"><a xlink:title=" ">
<path fill="none" stroke="#63b8ff" d="M952.16,-127C964.8,-127 978.31,-127 991.71,-127"/>
<polygon fill="#63b8ff" stroke="#63b8ff" points="991.93,-130.5 1001.93,-127 991.93,-123.5 991.93,-130.5"/>
</a>
</g>
</g>
<!-- Node19 -->
<g id="Node000019" class="node">
<title>Node19</title>
<g id="a_Node000019"><a xlink:href="../../d1/d9c/classTerraria_1_1Utils_a1220a41f9e87f7faa7e5076f088b9167.html#a1220a41f9e87f7faa7e5076f088b9167" target="_top" xlink:title=" ">
<polygon fill="white" stroke="#666666" points="1146.5,-88.5 1030.5,-88.5 1030.5,-69.5 1146.5,-69.5 1146.5,-88.5"/>
<text text-anchor="middle" x="1088.5" y="-76.5" font-family="Helvetica,sans-Serif" font-size="10.00">Terraria.Utils.Remap</text>
</a>
</g>
</g>
<!-- Node18&#45;&gt;Node19 -->
<g id="edge19_Node000018_Node000019" class="edge">
<title>Node18&#45;&gt;Node19</title>
<g id="a_edge19_Node000018_Node000019"><a xlink:title=" ">
<path fill="none" stroke="#63b8ff" d="M952.16,-79C973.93,-79 998.27,-79 1020.24,-79"/>
<polygon fill="#63b8ff" stroke="#63b8ff" points="1020.48,-82.5 1030.48,-79 1020.48,-75.5 1020.48,-82.5"/>
</a>
</g>
</g>
<!-- Node20 -->
<g id="Node000020" class="node">
<title>Node20</title>
<g id="a_Node000020"><a xlink:href="../../d1/d9c/classTerraria_1_1Utils_a7223719277be4afd24a2496351a9a22f.html#a7223719277be4afd24a2496351a9a22f" target="_top" xlink:title=" ">
<polygon fill="white" stroke="#666666" points="1358,-88.5 1211,-88.5 1211,-69.5 1358,-69.5 1358,-88.5"/>
<text text-anchor="middle" x="1284.5" y="-76.5" font-family="Helvetica,sans-Serif" font-size="10.00">Terraria.Utils.GetLerpValue</text>
</a>
</g>
</g>
<!-- Node19&#45;&gt;Node20 -->
<g id="edge20_Node000019_Node000020" class="edge">
<title>Node19&#45;&gt;Node20</title>
<g id="a_edge20_Node000019_Node000020"><a xlink:title=" ">
<path fill="none" stroke="#63b8ff" d="M1146.66,-79C1163.63,-79 1182.58,-79 1200.83,-79"/>
<polygon fill="#63b8ff" stroke="#63b8ff" points="1200.88,-82.5 1210.88,-79 1200.88,-75.5 1200.88,-82.5"/>
</a>
</g>
</g>
<!-- Node22 -->
<g id="Node000022" class="node">
<title>Node22</title>
<g id="a_Node000022"><a xlink:href="../../dd/dc6/classTerraria_1_1ModLoader_1_1NPCLoader_a1e9eae6ec444b4a23e1a809cfea3be94.html#a1e9eae6ec444b4a23e1a809cfea3be94" target="_top" xlink:title="Gets the ModNPC template instance corresponding to the specified type (not the clone/new instance whi...">
<polygon fill="white" stroke="#666666" points="771,-78 603,-78 603,-48 771,-48 771,-78"/>
<text text-anchor="start" x="611" y="-66" font-family="Helvetica,sans-Serif" font-size="10.00">Terraria.ModLoader.NPCLoader.</text>
<text text-anchor="middle" x="687" y="-55" font-family="Helvetica,sans-Serif" font-size="10.00">GetNPC</text>
</a>
</g>
</g>
<!-- Node21&#45;&gt;Node22 -->
<g id="edge22_Node000021_Node000022" class="edge">
<title>Node21&#45;&gt;Node22</title>
<g id="a_edge22_Node000021_Node000022"><a xlink:title=" ">
<path fill="none" stroke="#63b8ff" d="M555.66,-85.59C567.85,-83.48 580.48,-81.29 592.86,-79.14"/>
<polygon fill="#63b8ff" stroke="#63b8ff" points="593.46,-82.59 602.72,-77.43 592.27,-75.69 593.46,-82.59"/>
</a>
</g>
</g>
<!-- Node23 -->
<g id="Node000023" class="node">
<title>Node23</title>
<g id="a_Node000023"><a xlink:href="../../dd/dc6/classTerraria_1_1ModLoader_1_1NPCLoader_ab2d0522b16da09834b9066320d5c970f.html#ab2d0522b16da09834b9066320d5c970f" target="_top" xlink:title=" ">
<polygon fill="white" stroke="#666666" points="771,-30 603,-30 603,0 771,0 771,-30"/>
<text text-anchor="start" x="611" y="-18" font-family="Helvetica,sans-Serif" font-size="10.00">Terraria.ModLoader.NPCLoader.</text>
<text text-anchor="middle" x="687" y="-7" font-family="Helvetica,sans-Serif" font-size="10.00">IsModNPC</text>
</a>
</g>
</g>
<!-- Node21&#45;&gt;Node23 -->
<g id="edge23_Node000021_Node000023" class="edge">
<title>Node21&#45;&gt;Node23</title>
<g id="a_edge23_Node000021_Node000023"><a xlink:title=" ">
<path fill="none" stroke="#63b8ff" d="M545.28,-84.99C552.85,-82.19 560.23,-78.89 567,-75 586.61,-63.72 583.52,-50.51 603,-39 606,-37.23 609.13,-35.58 612.36,-34.05"/>
<polygon fill="#63b8ff" stroke="#63b8ff" points="613.85,-37.22 621.64,-30.04 611.07,-30.8 613.85,-37.22"/>
</a>
</g>
</g>
<!-- Node24 -->
<g id="Node000024" class="node">
<title>Node24</title>
<g id="a_Node000024"><a xlink:href="../../db/d77/classTerraria_1_1ModLoader_1_1ModType_a92fd60a4a3110bbcd84d6ade99544e2a.html#a92fd60a4a3110bbcd84d6ade99544e2a" target="_top" xlink:title="Create a new instance of this ModType for a specific entity.">
<polygon fill="white" stroke="#666666" points="766.5,-126 607.5,-126 607.5,-96 766.5,-96 766.5,-126"/>
<text text-anchor="start" x="615.5" y="-114" font-family="Helvetica,sans-Serif" font-size="10.00">Terraria.ModLoader.ModType.</text>
<text text-anchor="middle" x="687" y="-103" font-family="Helvetica,sans-Serif" font-size="10.00">NewInstance</text>
</a>
</g>
</g>
<!-- Node21&#45;&gt;Node24 -->
<g id="edge24_Node000021_Node000024" class="edge">
<title>Node21&#45;&gt;Node24</title>
<g id="a_edge24_Node000021_Node000024"><a xlink:title=" ">
<path fill="none" stroke="#63b8ff" d="M555.66,-104.28C569.18,-104.98 583.25,-105.71 596.91,-106.41"/>
<polygon fill="#63b8ff" stroke="#63b8ff" points="597.1,-109.92 607.27,-106.94 597.46,-102.93 597.1,-109.92"/>
</a>
</g>
</g>
<!-- Node25 -->
<g id="Node000025" class="node">
<title>Node25</title>
<g id="a_Node000025"><a xlink:href="../../db/d77/classTerraria_1_1ModLoader_1_1ModType_aeb73d9b078163fba8a510ff7d51033c3.html#aeb73d9b078163fba8a510ff7d51033c3" target="_top" xlink:title="Create a copy of this instanced global. Called when an entity is cloned.">
<polygon fill="white" stroke="#666666" points="966,-46 807,-46 807,-16 966,-16 966,-46"/>
<text text-anchor="start" x="815" y="-34" font-family="Helvetica,sans-Serif" font-size="10.00">Terraria.ModLoader.ModType.</text>
<text text-anchor="middle" x="886.5" y="-23" font-family="Helvetica,sans-Serif" font-size="10.00">Clone</text>
</a>
</g>
</g>
<!-- Node24&#45;&gt;Node25 -->
<g id="edge25_Node000024_Node000025" class="edge">
<title>Node24&#45;&gt;Node25</title>
<g id="a_edge25_Node000024_Node000025"><a xlink:title=" ">
<path fill="none" stroke="#63b8ff" d="M751.29,-95.94C758.12,-93.37 764.83,-90.41 771,-87 789.74,-76.66 788.33,-65.48 807,-55 810.08,-53.27 813.29,-51.66 816.59,-50.14"/>
<polygon fill="#63b8ff" stroke="#63b8ff" points="818.2,-53.26 826.06,-46.15 815.48,-46.81 818.2,-53.26"/>
</a>
</g>
</g>
<!-- Node26 -->
<g id="Node000026" class="node">
<title>Node26</title>
<g id="a_Node000026"><a xlink:href="../../d4/d23/classTerraria_1_1ModLoader_1_1Core_1_1Cloning_ad5d16b3fb4335429f23e46f8defc0a91.html#ad5d16b3fb4335429f23e46f8defc0a91" target="_top" xlink:title=" ">
<polygon fill="white" stroke="#666666" points="1162,-46 1015,-46 1015,-16 1162,-16 1162,-46"/>
<text text-anchor="start" x="1023" y="-34" font-family="Helvetica,sans-Serif" font-size="10.00">Terraria.ModLoader.Core.</text>
<text text-anchor="middle" x="1088.5" y="-23" font-family="Helvetica,sans-Serif" font-size="10.00">Cloning.WarnNotCloneable</text>
</a>
</g>
</g>
<!-- Node25&#45;&gt;Node26 -->
<g id="edge26_Node000025_Node000026" class="edge">
<title>Node25&#45;&gt;Node26</title>
<g id="a_edge26_Node000025_Node000026"><a xlink:title=" ">
<path fill="none" stroke="#63b8ff" d="M966.26,-31C978.85,-31 991.92,-31 1004.6,-31"/>
<polygon fill="#63b8ff" stroke="#63b8ff" points="1004.68,-34.5 1014.68,-31 1004.68,-27.5 1004.68,-34.5"/>
</a>
</g>
</g>
<!-- Node27&#45;&gt;Node4 -->
<g id="edge30_Node000027_Node000004" class="edge">
<title>Node27&#45;&gt;Node4</title>
<g id="a_edge30_Node000027_Node000004"><a xlink:title=" ">
<path fill="none" stroke="#63b8ff" d="M428.19,-201.04C411.37,-205.38 392.2,-210.9 376,-219 360.92,-226.53 358.64,-234.88 347.69,-243.12"/>
<polygon fill="#63b8ff" stroke="#63b8ff" points="345.67,-240.25 339.02,-248.5 349.36,-246.2 345.67,-240.25"/>
</a>
</g>
</g>
<!-- Node27&#45;&gt;Node10 -->
<g id="edge29_Node000027_Node000010" class="edge">
<title>Node27&#45;&gt;Node10</title>
<g id="a_edge29_Node000027_Node000010"><a xlink:title=" ">
<path fill="none" stroke="#63b8ff" d="M540.05,-182.52C562.72,-181.35 588.12,-180.04 611.31,-178.85"/>
<polygon fill="#63b8ff" stroke="#63b8ff" points="611.63,-182.34 621.44,-178.33 611.27,-175.35 611.63,-182.34"/>
</a>
</g>
</g>
<!-- Node28 -->
<g id="Node000028" class="node">
<title>Node28</title>
<g id="a_Node000028"><a xlink:href="../../d9/d0d/classTerraria_1_1ID_1_1NPCID_a1a4ff57a4e00bc212571c6180d66a901.html#a1a4ff57a4e00bc212571c6180d66a901" target="_top" xlink:title=" ">
<polygon fill="white" stroke="#666666" points="764.5,-221.5 609.5,-221.5 609.5,-202.5 764.5,-202.5 764.5,-221.5"/>
<text text-anchor="middle" x="687" y="-209.5" font-family="Helvetica,sans-Serif" font-size="10.00">Terraria.ID.NPCID.FromNetId</text>
</a>
</g>
</g>
<!-- Node27&#45;&gt;Node28 -->
<g id="edge28_Node000027_Node000028" class="edge">
<title>Node27&#45;&gt;Node28</title>
<g id="a_edge28_Node000027_Node000028"><a xlink:title=" ">
<path fill="none" stroke="#63b8ff" d="M540.05,-194.23C558.78,-196.51 579.37,-199.01 599.04,-201.41"/>
<polygon fill="#63b8ff" stroke="#63b8ff" points="598.87,-204.92 609.22,-202.65 599.72,-197.97 598.87,-204.92"/>
</a>
</g>
</g>
<!-- Node29 -->
<g id="Node000029" class="node">
<title>Node29</title>
<g id="a_Node000029"><a xlink:href="../../df/d0d/classTerraria_1_1NPC_a4853844bc01c71ac25e8ca55e775559a.html#a4853844bc01c71ac25e8ca55e775559a" target="_top" xlink:title=" ">
<polygon fill="white" stroke="#666666" points="755.5,-361 618.5,-361 618.5,-331 755.5,-331 755.5,-361"/>
<text text-anchor="start" x="626.5" y="-349" font-family="Helvetica,sans-Serif" font-size="10.00">Terraria.NPC.SetDefaults</text>
<text text-anchor="middle" x="687" y="-338" font-family="Helvetica,sans-Serif" font-size="10.00">_ForNetId</text>
</a>
</g>
</g>
<!-- Node27&#45;&gt;Node29 -->
<g id="edge31_Node000027_Node000029" class="edge">
<title>Node27&#45;&gt;Node29</title>
<g id="a_edge31_Node000027_Node000029"><a xlink:title=" ">
<path fill="none" stroke="#63b8ff" d="M540.12,-197.81C549.53,-200.97 558.78,-204.95 567,-210 613.53,-238.55 651.78,-291.12 671.52,-321.87"/>
<polygon fill="#63b8ff" stroke="#63b8ff" points="668.75,-324.05 677.03,-330.66 674.68,-320.33 668.75,-324.05"/>
</a>
</g>
</g>
<!-- Node29&#45;&gt;Node4 -->
<g id="edge32_Node000029_Node000004" class="edge">
<title>Node29&#45;&gt;Node4</title>
<g id="a_edge32_Node000029_Node000004"><a xlink:title=" ">
<path fill="none" stroke="#63b8ff" d="M671.15,-361.01C650.14,-381.07 609.53,-415.63 567,-429 486.02,-454.45 449.95,-470.68 376,-429 360.75,-420.4 305.22,-319.08 282.4,-276.58"/>
<polygon fill="#63b8ff" stroke="#63b8ff" points="285.38,-274.74 277.58,-267.57 279.21,-278.04 285.38,-274.74"/>
</a>
</g>
</g>
<!-- Node31&#45;&gt;Node31 -->
<g id="edge35_Node000031_Node000031" class="edge">
<title>Node31&#45;&gt;Node31</title>
<g id="a_edge35_Node000031_Node000031"><a xlink:title=" ">
<path fill="none" stroke="#63b8ff" d="M238.45,-212.28C231.11,-221.41 242.12,-230 271.5,-230 288.94,-230 299.91,-226.97 304.41,-222.6"/>
<polygon fill="#63b8ff" stroke="#63b8ff" points="307.91,-222.32 304.55,-212.28 300.91,-222.23 307.91,-222.32"/>
</a>
</g>
</g>
</g>
</svg>

<g id="navigator" transform="translate(0 0)" fill="#404254">
  <rect fill="#f2f5e9" fill-opacity="0.5" stroke="#606060" stroke-width=".5" x="0" y="0" width="60" height="60"/>
  <use id="zoomplus" xlink:href="#zoomPlus" x="17" y="9" onmousedown="handleZoom(evt,'in')"/>
  <use id="zoomminus" xlink:href="#zoomMin" x="42" y="9" onmousedown="handleZoom(evt,'out')"/>
  <use id="reset" xlink:href="#resetDef" x="30" y="36" onmousedown="handleReset()"/>
   <use id="arrowup" xlink:href="#arrowUp" x="0" y="0" onmousedown="handlePan(0,-1)"/>
  <use id="arrowright" xlink:href="#arrowRight" x="0" y="0" onmousedown="handlePan(1,0)"/>
  <use id="arrowdown" xlink:href="#arrowDown" x="0" y="0" onmousedown="handlePan(0,1)"/>
  <use id="arrowleft" xlink:href="#arrowLeft" x="0" y="0" onmousedown="handlePan(-1,0)"/>
</g>
<svg viewBox="0 0 15 15" width="100%" height="30px" preserveAspectRatio="xMaxYMin meet">
 <g id="arrow_out" transform="scale(0.3 0.3)">
  <a xlink:href="classTerraria_1_1NPC_a7ca37ebe834c0aac35f2ac8bd22e8c76_a7ca37ebe834c0aac35f2ac8bd22e8c76_cgraph_org.svg" target="_base">
   <rect id="button" ry="5" rx="5" y="6" x="6" height="38" width="38"
        fill="#f2f5e9" fill-opacity="0.5" stroke="#606060" stroke-width="1.0"/>
   <path id="arrow"
     d="M 11.500037,31.436501 C 11.940474,20.09759 22.043105,11.32322 32.158766,21.979434 L 37.068811,17.246167 C 37.068811,17.246167 37.088388,32 37.088388,32 L 22.160133,31.978069 C 22.160133,31.978069 26.997745,27.140456 26.997745,27.140456 C 18.528582,18.264221 13.291696,25.230495 11.500037,31.436501 z"
     style="fill:#404040;"/>
  </a>
 </g>
</svg>

<style type='text/css'>
<![CDATA[
[data-mouse-over-selected='false'] { opacity: 0.7; }
[data-mouse-over-selected='true']  { opacity: 1.0; }
]]>
</style>
<script type="application/ecmascript"><![CDATA[
document.addEventListener('DOMContentLoaded', (event) => {
  highlightEdges();
  highlightAdjacentNodes();
});
]]></script>
</svg>
