<?xml version="1.0" encoding="UTF-8" standalone="no"?>
<!DOCTYPE svg PUBLIC "-//W3C//DTD SVG 1.1//EN"
 "http://www.w3.org/Graphics/SVG/1.1/DTD/svg11.dtd">
<!-- Generated by graphviz version 2.43.0 (0)
 -->
<!-- Title: Terraria.NPC.GetTypeNetName Pages: 1 -->
<svg width="1009pt" height="76pt"
 viewBox="0.00 0.00 1009.00 75.50" xmlns="http://www.w3.org/2000/svg" xmlns:xlink="http://www.w3.org/1999/xlink">
<g id="graph0" class="graph" transform="scale(1 1) rotate(0) translate(4 71.5)">
<title>Terraria.NPC.GetTypeNetName</title>
<!-- Node1 -->
<g id="Node000001" class="node">
<title>Node1</title>
<g id="a_Node000001"><a xlink:title=" ">
<polygon fill="#999999" stroke="#666666" points="166,-40 0,-40 0,-21 166,-21 166,-40"/>
<text text-anchor="middle" x="83" y="-28" font-family="Helvetica,sans-Serif" font-size="10.00">Terraria.NPC.GetTypeNetName</text>
</a>
</g>
</g>
<!-- Node2 -->
<g id="Node000002" class="node">
<title>Node2</title>
<g id="a_Node000002"><a xlink:href="../../dd/dd4/classTerraria_1_1Localization_1_1NetworkText_a96b44c223990589f83f8ebe233b91c7c.html#a96b44c223990589f83f8ebe233b91c7c" target="_top" xlink:title="Creates a NetworkText object from a localization key and optional substitutions. The receiving client...">
<polygon fill="white" stroke="#666666" points="361,-67.5 202,-67.5 202,-37.5 361,-37.5 361,-67.5"/>
<text text-anchor="start" x="210" y="-55.5" font-family="Helvetica,sans-Serif" font-size="10.00">Terraria.Localization.Network</text>
<text text-anchor="middle" x="281.5" y="-44.5" font-family="Helvetica,sans-Serif" font-size="10.00">Text.FromKey</text>
</a>
</g>
</g>
<!-- Node1&#45;&gt;Node2 -->
<g id="edge1_Node000001_Node000002" class="edge">
<title>Node1&#45;&gt;Node2</title>
<g id="a_edge1_Node000001_Node000002"><a xlink:title=" ">
<path fill="none" stroke="#63b8ff" d="M166.2,-39.7C174.66,-40.65 183.29,-41.62 191.82,-42.57"/>
<polygon fill="#63b8ff" stroke="#63b8ff" points="191.45,-46.05 201.78,-43.69 192.23,-39.1 191.45,-46.05"/>
</a>
</g>
</g>
<!-- Node6 -->
<g id="Node000006" class="node">
<title>Node6</title>
<g id="a_Node000006"><a xlink:href="../../df/dd3/classTerraria_1_1Lang_af99a2e7e70f95e152e48e5a07d026dd4.html#af99a2e7e70f95e152e48e5a07d026dd4" target="_top" xlink:title="Gets the display name of the provided npc type (F:Terraria.NPC.type) as a T:Terraria....">
<polygon fill="white" stroke="#666666" points="356,-19 207,-19 207,0 356,0 356,-19"/>
<text text-anchor="middle" x="281.5" y="-7" font-family="Helvetica,sans-Serif" font-size="10.00">Terraria.Lang.GetNPCName</text>
</a>
</g>
</g>
<!-- Node1&#45;&gt;Node6 -->
<g id="edge5_Node000001_Node000006" class="edge">
<title>Node1&#45;&gt;Node6</title>
<g id="a_edge5_Node000001_Node000006"><a xlink:title=" ">
<path fill="none" stroke="#63b8ff" d="M166.2,-21.72C176.29,-20.64 186.62,-19.53 196.74,-18.45"/>
<polygon fill="#63b8ff" stroke="#63b8ff" points="197.2,-21.92 206.77,-17.38 196.46,-14.96 197.2,-21.92"/>
</a>
</g>
</g>
<!-- Node3 -->
<g id="Node000003" class="node">
<title>Node3</title>
<g id="a_Node000003"><a xlink:href="../../dd/dd4/classTerraria_1_1Localization_1_1NetworkText_ac94c027b766a42dfa853bccbadb23909.html#ac94c027b766a42dfa853bccbadb23909" target="_top" xlink:title=" ">
<polygon fill="white" stroke="#666666" points="611,-67.5 397,-67.5 397,-37.5 611,-37.5 611,-67.5"/>
<text text-anchor="start" x="405" y="-55.5" font-family="Helvetica,sans-Serif" font-size="10.00">Terraria.Localization.Network</text>
<text text-anchor="middle" x="504" y="-44.5" font-family="Helvetica,sans-Serif" font-size="10.00">Text.ConvertSubstitutionsToNetworkText</text>
</a>
</g>
</g>
<!-- Node2&#45;&gt;Node3 -->
<g id="edge2_Node000002_Node000003" class="edge">
<title>Node2&#45;&gt;Node3</title>
<g id="a_edge2_Node000002_Node000003"><a xlink:title=" ">
<path fill="none" stroke="#63b8ff" d="M361.17,-52.5C369.44,-52.5 377.96,-52.5 386.54,-52.5"/>
<polygon fill="#63b8ff" stroke="#63b8ff" points="386.62,-56 396.62,-52.5 386.62,-49 386.62,-56"/>
</a>
</g>
</g>
<!-- Node4 -->
<g id="Node000004" class="node">
<title>Node4</title>
<g id="a_Node000004"><a xlink:href="../../dd/dd4/classTerraria_1_1Localization_1_1NetworkText_a0e6e2f34edc8f021884470586b1c5e18.html#a0e6e2f34edc8f021884470586b1c5e18" target="_top" xlink:title=" ">
<polygon fill="white" stroke="#666666" points="806,-67.5 647,-67.5 647,-37.5 806,-37.5 806,-67.5"/>
<text text-anchor="start" x="655" y="-55.5" font-family="Helvetica,sans-Serif" font-size="10.00">Terraria.Localization.Network</text>
<text text-anchor="middle" x="726.5" y="-44.5" font-family="Helvetica,sans-Serif" font-size="10.00">Text.From</text>
</a>
</g>
</g>
<!-- Node3&#45;&gt;Node4 -->
<g id="edge3_Node000003_Node000004" class="edge">
<title>Node3&#45;&gt;Node4</title>
<g id="a_edge3_Node000003_Node000004"><a xlink:title=" ">
<path fill="none" stroke="#63b8ff" d="M611.05,-52.5C619.6,-52.5 628.18,-52.5 636.6,-52.5"/>
<polygon fill="#63b8ff" stroke="#63b8ff" points="636.76,-56 646.76,-52.5 636.76,-49 636.76,-56"/>
</a>
</g>
</g>
<!-- Node5 -->
<g id="Node000005" class="node">
<title>Node5</title>
<g id="a_Node000005"><a xlink:href="../../dd/dd4/classTerraria_1_1Localization_1_1NetworkText_a3c557297e5656ee799cb1a7e9db234fc.html#a3c557297e5656ee799cb1a7e9db234fc" target="_top" xlink:title="Creates a NetworkText object from a string. Use this for text that can&#39;t be localized.">
<polygon fill="white" stroke="#666666" points="1001,-67.5 842,-67.5 842,-37.5 1001,-37.5 1001,-67.5"/>
<text text-anchor="start" x="850" y="-55.5" font-family="Helvetica,sans-Serif" font-size="10.00">Terraria.Localization.Network</text>
<text text-anchor="middle" x="921.5" y="-44.5" font-family="Helvetica,sans-Serif" font-size="10.00">Text.FromLiteral</text>
</a>
</g>
</g>
<!-- Node4&#45;&gt;Node5 -->
<g id="edge4_Node000004_Node000005" class="edge">
<title>Node4&#45;&gt;Node5</title>
<g id="a_edge4_Node000004_Node000005"><a xlink:title=" ">
<path fill="none" stroke="#63b8ff" d="M806,-52.5C814.48,-52.5 823.14,-52.5 831.73,-52.5"/>
<polygon fill="#63b8ff" stroke="#63b8ff" points="831.76,-56 841.76,-52.5 831.76,-49 831.76,-56"/>
</a>
</g>
</g>
</g>
</svg>
