<?xml version="1.0" encoding="UTF-8" standalone="no"?>
<!DOCTYPE svg PUBLIC "-//W3C//DTD SVG 1.1//EN"
 "http://www.w3.org/Graphics/SVG/1.1/DTD/svg11.dtd">
<!-- Generated by graphviz version 2.43.0 (0)
 -->
<!-- Title: Terraria.ModLoader.Config.TooltipArgsAttribute Pages: 1 -->
<svg width="148pt" height="260pt"
 viewBox="0.00 0.00 148.00 260.00" xmlns="http://www.w3.org/2000/svg" xmlns:xlink="http://www.w3.org/1999/xlink">
<g id="graph0" class="graph" transform="scale(1 1) rotate(0) translate(4 256)">
<title>Terraria.ModLoader.Config.TooltipArgsAttribute</title>
<!-- Node1 -->
<g id="Node000001" class="node">
<title>Node1</title>
<g id="a_Node000001"><a xlink:title="Use to provide values to be interpolated into the tooltip of the annotated property or field....">
<polygon fill="#999999" stroke="transparent" points="140,-71 0,-71 0,0 140,0 140,-71"/>
<text text-anchor="start" x="5" y="-58.5" font-family="Helvetica,sans-Serif" font-size="10.00">Terraria.ModLoader.Config.</text>
<text text-anchor="start" x="21.5" y="-47.5" font-family="Helvetica,sans-Serif" font-size="10.00">TooltipArgsAttribute</text>
<text text-anchor="start" x="68" y="-32.5" font-family="Helvetica,sans-Serif" font-size="10.00"> </text>
<text text-anchor="start" x="6.5" y="-17.5" font-family="Helvetica,sans-Serif" font-size="10.00">+</text>
<text text-anchor="start" x="22" y="-17.5" font-family="Helvetica,sans-Serif" font-size="10.00">TooltipArgsAttribute</text>
<text text-anchor="start" x="22" y="-6.5" font-family="Helvetica,sans-Serif" font-size="10.00">(params object[] args)</text>
<polygon fill="#666666" stroke="#666666" points="0,-42.5 0,-42.5 140,-42.5 140,-42.5 0,-42.5"/>
<polygon fill="#666666" stroke="#666666" points="0,-27.5 0,-27.5 140,-27.5 140,-27.5 0,-27.5"/>
<polygon fill="none" stroke="#666666" points="0,0 0,-71 140,-71 140,0 0,0"/>
</a>
</g>
</g>
<!-- Node2 -->
<g id="Node000002" class="node">
<title>Node2</title>
<g id="a_Node000002"><a xlink:href="../../d6/d52/classTerraria_1_1ModLoader_1_1Config_1_1ConfigArgsAttribute.html" target="_top" xlink:title=" ">
<polygon fill="white" stroke="transparent" points="135,-167 5,-167 5,-107 135,-107 135,-167"/>
<text text-anchor="start" x="22" y="-155" font-family="Helvetica,sans-Serif" font-size="10.00">ConfigArgsAttribute</text>
<text text-anchor="start" x="9" y="-140" font-family="Helvetica,sans-Serif" font-size="10.00">~</text>
<text text-anchor="start" x="22" y="-140" font-family="Helvetica,sans-Serif" font-size="10.00">readonly object[] args</text>
<text text-anchor="start" x="9" y="-125" font-family="Helvetica,sans-Serif" font-size="10.00">+</text>
<text text-anchor="start" x="22" y="-125" font-family="Helvetica,sans-Serif" font-size="10.00">ConfigArgsAttribute</text>
<text text-anchor="start" x="22" y="-114" font-family="Helvetica,sans-Serif" font-size="10.00">(params object[] args)</text>
<polygon fill="#666666" stroke="#666666" points="5,-150 5,-150 135,-150 135,-150 5,-150"/>
<polygon fill="#666666" stroke="#666666" points="5,-135 5,-135 20,-135 20,-135 5,-135"/>
<polygon fill="#666666" stroke="#666666" points="20,-135 20,-135 135,-135 135,-135 20,-135"/>
<polygon fill="none" stroke="#666666" points="5,-107 5,-167 135,-167 135,-107 5,-107"/>
</a>
</g>
</g>
<!-- Node2&#45;&gt;Node1 -->
<g id="edge1_Node000001_Node000002" class="edge">
<title>Node2&#45;&gt;Node1</title>
<g id="a_edge1_Node000001_Node000002"><a xlink:title=" ">
<path fill="none" stroke="#63b8ff" d="M70,-96.84C70,-88.32 70,-79.36 70,-71.04"/>
<polygon fill="none" stroke="#63b8ff" points="66.5,-96.95 70,-106.95 73.5,-96.95 66.5,-96.95"/>
</a>
</g>
</g>
<!-- Node3 -->
<g id="Node000003" class="node">
<title>Node3</title>
<g id="a_Node000003"><a xlink:href="../../de/d9d/classAttribute.html" target="_top" xlink:title=" ">
<polygon fill="white" stroke="transparent" points="96.5,-252 43.5,-252 43.5,-203 96.5,-203 96.5,-252"/>
<text text-anchor="start" x="49" y="-239.5" font-family="Helvetica,sans-Serif" font-size="10.00">Attribute</text>
<text text-anchor="start" x="68.5" y="-224.5" font-family="Helvetica,sans-Serif" font-size="10.00"> </text>
<text text-anchor="start" x="68.5" y="-209.5" font-family="Helvetica,sans-Serif" font-size="10.00"> </text>
<polygon fill="#666666" stroke="#666666" points="44,-234.5 44,-234.5 97,-234.5 97,-234.5 44,-234.5"/>
<polygon fill="#666666" stroke="#666666" points="44,-219.5 44,-219.5 97,-219.5 97,-219.5 44,-219.5"/>
<polygon fill="none" stroke="#666666" points="43.5,-203 43.5,-252 96.5,-252 96.5,-203 43.5,-203"/>
</a>
</g>
</g>
<!-- Node3&#45;&gt;Node2 -->
<g id="edge2_Node000002_Node000003" class="edge">
<title>Node3&#45;&gt;Node2</title>
<g id="a_edge2_Node000002_Node000003"><a xlink:title=" ">
<path fill="none" stroke="#63b8ff" d="M70,-192.55C70,-184.18 70,-175.28 70,-167.16"/>
<polygon fill="none" stroke="#63b8ff" points="66.5,-192.78 70,-202.78 73.5,-192.78 66.5,-192.78"/>
</a>
</g>
</g>
</g>
</svg>
