<?xml version="1.0" encoding="UTF-8" standalone="no"?>
<!DOCTYPE svg PUBLIC "-//W3C//DTD SVG 1.1//EN"
 "http://www.w3.org/Graphics/SVG/1.1/DTD/svg11.dtd">
<!-- Generated by graphviz version 2.43.0 (0)
 -->
<!-- Title: Terraria.GameContent.Biomes.DeadMansChestBiome.FindDartTrapSpots Pages: 1 -->
<svg width="609pt" height="64pt"
 viewBox="0.00 0.00 609.00 64.00" xmlns="http://www.w3.org/2000/svg" xmlns:xlink="http://www.w3.org/1999/xlink">
<g id="graph0" class="graph" transform="scale(1 1) rotate(0) translate(4 60)">
<title>Terraria.GameContent.Biomes.DeadMansChestBiome.FindDartTrapSpots</title>
<!-- Node1 -->
<g id="Node000001" class="node">
<title>Node1</title>
<g id="a_Node000001"><a xlink:title=" ">
<polygon fill="#999999" stroke="#666666" points="219,-42.5 0,-42.5 0,-12.5 219,-12.5 219,-42.5"/>
<text text-anchor="start" x="8" y="-30.5" font-family="Helvetica,sans-Serif" font-size="10.00">Terraria.GameContent.Biomes.</text>
<text text-anchor="middle" x="109.5" y="-19.5" font-family="Helvetica,sans-Serif" font-size="10.00">DeadMansChestBiome.FindDartTrapSpots</text>
</a>
</g>
</g>
<!-- Node2 -->
<g id="Node000002" class="node">
<title>Node2</title>
<g id="a_Node000002"><a xlink:href="../../d1/d43/classTerraria_1_1GameContent_1_1Biomes_1_1DeadMansChestBiome_ab59968d14e1382ed41ea695eaeb406c0.html#ab59968d14e1382ed41ea695eaeb406c0" target="_top" xlink:title=" ">
<polygon fill="white" stroke="#666666" points="447,-48 255,-48 255,-7 447,-7 447,-48"/>
<text text-anchor="start" x="263" y="-36" font-family="Helvetica,sans-Serif" font-size="10.00">Terraria.GameContent.Biomes.</text>
<text text-anchor="start" x="263" y="-25" font-family="Helvetica,sans-Serif" font-size="10.00">DeadMansChestBiome.FindDartTrap</text>
<text text-anchor="middle" x="351" y="-14" font-family="Helvetica,sans-Serif" font-size="10.00">SpotSingle</text>
</a>
</g>
</g>
<!-- Node1&#45;&gt;Node2 -->
<g id="edge1_Node000001_Node000002" class="edge">
<title>Node1&#45;&gt;Node2</title>
<g id="a_edge1_Node000001_Node000002"><a xlink:title=" ">
<path fill="none" stroke="#63b8ff" d="M219.04,-27.5C227.49,-27.5 236.01,-27.5 244.43,-27.5"/>
<polygon fill="#63b8ff" stroke="#63b8ff" points="244.66,-31 254.66,-27.5 244.66,-24 244.66,-31"/>
</a>
</g>
</g>
<!-- Node3 -->
<g id="Node000003" class="node">
<title>Node3</title>
<g id="a_Node000003"><a xlink:href="../../d6/d21/structTerraria_1_1Tile_a9a3f37926e6d7f23ba057d6c0aeab1a5.html#a9a3f37926e6d7f23ba057d6c0aeab1a5" target="_top" xlink:title="Legacy code, use P:Terraria.Tile.HasTile instead.">
<polygon fill="white" stroke="#666666" points="595.5,-56 488.5,-56 488.5,-37 595.5,-37 595.5,-56"/>
<text text-anchor="middle" x="542" y="-44" font-family="Helvetica,sans-Serif" font-size="10.00">Terraria.Tile.active</text>
</a>
</g>
</g>
<!-- Node2&#45;&gt;Node3 -->
<g id="edge2_Node000002_Node000003" class="edge">
<title>Node2&#45;&gt;Node3</title>
<g id="a_edge2_Node000002_Node000003"><a xlink:title=" ">
<path fill="none" stroke="#63b8ff" d="M447.05,-37.06C457.63,-38.12 468.19,-39.18 478.22,-40.19"/>
<polygon fill="#63b8ff" stroke="#63b8ff" points="478.15,-43.7 488.45,-41.22 478.85,-36.73 478.15,-43.7"/>
</a>
</g>
</g>
<!-- Node4 -->
<g id="Node000004" class="node">
<title>Node4</title>
<g id="a_Node000004"><a xlink:href="../../d6/d21/structTerraria_1_1Tile_af8ebac4fe00f28248e557aaab131e4ac.html#af8ebac4fe00f28248e557aaab131e4ac" target="_top" xlink:title="Legacy code, use P:Terraria.Tile.HasActuator instead.">
<polygon fill="white" stroke="#666666" points="601,-19 483,-19 483,0 601,0 601,-19"/>
<text text-anchor="middle" x="542" y="-7" font-family="Helvetica,sans-Serif" font-size="10.00">Terraria.Tile.actuator</text>
</a>
</g>
</g>
<!-- Node2&#45;&gt;Node4 -->
<g id="edge3_Node000002_Node000004" class="edge">
<title>Node2&#45;&gt;Node4</title>
<g id="a_edge3_Node000002_Node000004"><a xlink:title=" ">
<path fill="none" stroke="#63b8ff" d="M447.05,-18.45C455.75,-17.62 464.43,-16.79 472.82,-15.99"/>
<polygon fill="#63b8ff" stroke="#63b8ff" points="473.25,-19.47 482.88,-15.04 472.59,-12.5 473.25,-19.47"/>
</a>
</g>
</g>
</g>
</svg>
