<?xml version="1.0" encoding="UTF-8" standalone="no"?>
<!DOCTYPE svg PUBLIC "-//W3C//DTD SVG 1.1//EN"
 "http://www.w3.org/Graphics/SVG/1.1/DTD/svg11.dtd">
<!-- Generated by graphviz version 2.43.0 (0)
 -->
<!-- Title: Terraria.WorldBuilding.WorldUtils.WireLine Pages: 1 -->
<svg width="543pt" height="56pt"
 viewBox="0.00 0.00 543.00 56.00" xmlns="http://www.w3.org/2000/svg" xmlns:xlink="http://www.w3.org/1999/xlink">
<g id="graph0" class="graph" transform="scale(1 1) rotate(0) translate(4 52)">
<title>Terraria.WorldBuilding.WorldUtils.WireLine</title>
<!-- Node1 -->
<g id="Node000001" class="node">
<title>Node1</title>
<g id="a_Node000001"><a xlink:title=" ">
<polygon fill="#999999" stroke="#666666" points="155,-30 0,-30 0,0 155,0 155,-30"/>
<text text-anchor="start" x="8" y="-18" font-family="Helvetica,sans-Serif" font-size="10.00">Terraria.WorldBuilding.World</text>
<text text-anchor="middle" x="77.5" y="-7" font-family="Helvetica,sans-Serif" font-size="10.00">Utils.WireLine</text>
</a>
</g>
</g>
<!-- Node2 -->
<g id="Node000002" class="node">
<title>Node2</title>
<g id="a_Node000002"><a xlink:href="../../de/da1/classTerraria_1_1WorldGen_ac8987982506ebec056e295a97afcd2ff.html#ac8987982506ebec056e295a97afcd2ff" target="_top" xlink:title=" ">
<polygon fill="white" stroke="#666666" points="346,-24.5 191,-24.5 191,-5.5 346,-5.5 346,-24.5"/>
<text text-anchor="middle" x="268.5" y="-12.5" font-family="Helvetica,sans-Serif" font-size="10.00">Terraria.WorldGen.PlaceWire</text>
</a>
</g>
</g>
<!-- Node1&#45;&gt;Node2 -->
<g id="edge1_Node000001_Node000002" class="edge">
<title>Node1&#45;&gt;Node2</title>
<g id="a_edge1_Node000001_Node000002"><a xlink:title=" ">
<path fill="none" stroke="#63b8ff" d="M155.1,-15C163.56,-15 172.22,-15 180.79,-15"/>
<polygon fill="#63b8ff" stroke="#63b8ff" points="180.79,-18.5 190.79,-15 180.79,-11.5 180.79,-18.5"/>
</a>
</g>
</g>
<!-- Node3 -->
<g id="Node000003" class="node">
<title>Node3</title>
<g id="a_Node000003"><a xlink:href="../../d3/d78/classTerraria_1_1Audio_1_1SoundEngine_af55950ae09b294fad1dd58e37fecf28b.html#af55950ae09b294fad1dd58e37fecf28b" target="_top" xlink:title="Attempts to play a sound style with the provided sound style (if it&#39;s not null), and returns a valid ...">
<polygon fill="white" stroke="#666666" points="535,-30 382,-30 382,0 535,0 535,-30"/>
<text text-anchor="start" x="390" y="-18" font-family="Helvetica,sans-Serif" font-size="10.00">Terraria.Audio.SoundEngine.</text>
<text text-anchor="middle" x="458.5" y="-7" font-family="Helvetica,sans-Serif" font-size="10.00">PlaySound</text>
</a>
</g>
</g>
<!-- Node2&#45;&gt;Node3 -->
<g id="edge2_Node000002_Node000003" class="edge">
<title>Node2&#45;&gt;Node3</title>
<g id="a_edge2_Node000002_Node000003"><a xlink:title=" ">
<path fill="none" stroke="#63b8ff" d="M346.24,-15C354.61,-15 363.17,-15 371.65,-15"/>
<polygon fill="#63b8ff" stroke="#63b8ff" points="371.92,-18.5 381.92,-15 371.92,-11.5 371.92,-18.5"/>
</a>
</g>
</g>
<!-- Node3&#45;&gt;Node3 -->
<g id="edge3_Node000003_Node000003" class="edge">
<title>Node3&#45;&gt;Node3</title>
<g id="a_edge3_Node000003_Node000003"><a xlink:title=" ">
<path fill="none" stroke="#63b8ff" d="M425.1,-30.28C417.68,-39.41 428.81,-48 458.5,-48 476.13,-48 487.21,-44.97 491.76,-40.6"/>
<polygon fill="#63b8ff" stroke="#63b8ff" points="495.26,-40.32 491.9,-30.28 488.26,-40.23 495.26,-40.32"/>
</a>
</g>
</g>
</g>
</svg>
