<?xml version="1.0" encoding="UTF-8" standalone="no"?>
<!DOCTYPE svg PUBLIC "-//W3C//DTD SVG 1.1//EN"
 "http://www.w3.org/Graphics/SVG/1.1/DTD/svg11.dtd">
<!-- Generated by graphviz version 2.43.0 (0)
 -->
<!-- Title: Terraria.GameContent.UI.States.WorkshopPublishInfoStateForMods.GoToPublishConfirmation Pages: 1 -->
<svg width="1014pt" height="304pt"
 viewBox="0.00 0.00 1014.00 303.50" xmlns="http://www.w3.org/2000/svg" xmlns:xlink="http://www.w3.org/1999/xlink">
<g id="graph0" class="graph" transform="scale(1 1) rotate(0) translate(4 299.5)">
<title>Terraria.GameContent.UI.States.WorkshopPublishInfoStateForMods.GoToPublishConfirmation</title>
<!-- Node1 -->
<g id="Node000001" class="node">
<title>Node1</title>
<g id="a_Node000001"><a xlink:title=" ">
<polygon fill="#999999" stroke="#666666" points="183,-241.5 0,-241.5 0,-200.5 183,-200.5 183,-241.5"/>
<text text-anchor="start" x="8" y="-229.5" font-family="Helvetica,sans-Serif" font-size="10.00">Terraria.GameContent.UI.</text>
<text text-anchor="start" x="8" y="-218.5" font-family="Helvetica,sans-Serif" font-size="10.00">States.WorkshopPublishInfoState</text>
<text text-anchor="middle" x="91.5" y="-207.5" font-family="Helvetica,sans-Serif" font-size="10.00">ForMods.GoToPublishConfirmation</text>
</a>
</g>
</g>
<!-- Node2 -->
<g id="Node000002" class="node">
<title>Node2</title>
<g id="a_Node000002"><a xlink:href="../../d9/d6a/classTerraria_1_1GameContent_1_1UI_1_1States_1_1AWorkshopPublishInfoState_ac8f17e5eee11f4e2964bbbfd3cd67917.html#ac8f17e5eee11f4e2964bbbfd3cd67917" target="_top" xlink:title=" ">
<polygon fill="white" stroke="#666666" points="403,-295.5 219,-295.5 219,-254.5 403,-254.5 403,-295.5"/>
<text text-anchor="start" x="227" y="-283.5" font-family="Helvetica,sans-Serif" font-size="10.00">Terraria.GameContent.UI.</text>
<text text-anchor="start" x="227" y="-272.5" font-family="Helvetica,sans-Serif" font-size="10.00">States.AWorkshopPublishInfoState</text>
<text text-anchor="middle" x="311" y="-261.5" font-family="Helvetica,sans-Serif" font-size="10.00">&lt; TmodFile &gt;::GetPublishSettings</text>
</a>
</g>
</g>
<!-- Node1&#45;&gt;Node2 -->
<g id="edge1_Node000001_Node000002" class="edge">
<title>Node1&#45;&gt;Node2</title>
<g id="a_edge1_Node000001_Node000002"><a xlink:title=" ">
<path fill="none" stroke="#63b8ff" d="M175.35,-241.57C189.07,-244.97 203.37,-248.53 217.31,-251.99"/>
<polygon fill="#63b8ff" stroke="#63b8ff" points="216.83,-255.48 227.38,-254.49 218.52,-248.68 216.83,-255.48"/>
</a>
</g>
</g>
<!-- Node3 -->
<g id="Node000003" class="node">
<title>Node3</title>
<g id="a_Node000003"><a xlink:href="../../de/d63/classTerraria_1_1Social_1_1Base_1_1WorkshopSocialModule_a7601e9d4fea6a0b196274e0cd1403e73.html#a7601e9d4fea6a0b196274e0cd1403e73" target="_top" xlink:title=" ">
<polygon fill="white" stroke="#666666" points="393,-236 229,-236 229,-206 393,-206 393,-236"/>
<text text-anchor="start" x="237" y="-224" font-family="Helvetica,sans-Serif" font-size="10.00">Terraria.Social.Base.Workshop</text>
<text text-anchor="middle" x="311" y="-213" font-family="Helvetica,sans-Serif" font-size="10.00">SocialModule.PublishMod</text>
</a>
</g>
</g>
<!-- Node1&#45;&gt;Node3 -->
<g id="edge2_Node000001_Node000003" class="edge">
<title>Node1&#45;&gt;Node3</title>
<g id="a_edge2_Node000001_Node000003"><a xlink:title=" ">
<path fill="none" stroke="#63b8ff" d="M183.16,-221C194.88,-221 206.89,-221 218.62,-221"/>
<polygon fill="#63b8ff" stroke="#63b8ff" points="218.85,-224.5 228.85,-221 218.85,-217.5 218.85,-224.5"/>
</a>
</g>
</g>
<!-- Node4 -->
<g id="Node000004" class="node">
<title>Node4</title>
<g id="a_Node000004"><a xlink:href="../../dc/dc4/classTerraria_1_1UI_1_1UserInterface_a3a6102198df79471f13a3a9993c152a4.html#a3a6102198df79471f13a3a9993c152a4" target="_top" xlink:title=" ">
<polygon fill="white" stroke="#666666" points="380.5,-188 241.5,-188 241.5,-158 380.5,-158 380.5,-188"/>
<text text-anchor="start" x="249.5" y="-176" font-family="Helvetica,sans-Serif" font-size="10.00">Terraria.UI.UserInterface.</text>
<text text-anchor="middle" x="311" y="-165" font-family="Helvetica,sans-Serif" font-size="10.00">SetState</text>
</a>
</g>
</g>
<!-- Node1&#45;&gt;Node4 -->
<g id="edge3_Node000001_Node000004" class="edge">
<title>Node1&#45;&gt;Node4</title>
<g id="a_edge3_Node000001_Node000004"><a xlink:title=" ">
<path fill="none" stroke="#63b8ff" d="M183.16,-200.99C199.48,-197.39 216.35,-193.67 232.26,-190.16"/>
<polygon fill="#63b8ff" stroke="#63b8ff" points="233.01,-193.58 242.02,-188 231.5,-186.74 233.01,-193.58"/>
</a>
</g>
</g>
<!-- Node5 -->
<g id="Node000005" class="node">
<title>Node5</title>
<g id="a_Node000005"><a xlink:href="../../dc/dc4/classTerraria_1_1UI_1_1UserInterface_a55c8c67209f0a24361ad382cd714f0e0.html#a55c8c67209f0a24361ad382cd714f0e0" target="_top" xlink:title=" ">
<polygon fill="white" stroke="#666666" points="597,-250 458,-250 458,-220 597,-220 597,-250"/>
<text text-anchor="start" x="466" y="-238" font-family="Helvetica,sans-Serif" font-size="10.00">Terraria.UI.UserInterface.</text>
<text text-anchor="middle" x="527.5" y="-227" font-family="Helvetica,sans-Serif" font-size="10.00">AddToHistory</text>
</a>
</g>
</g>
<!-- Node4&#45;&gt;Node5 -->
<g id="edge4_Node000004_Node000005" class="edge">
<title>Node4&#45;&gt;Node5</title>
<g id="a_edge4_Node000004_Node000005"><a xlink:title=" ">
<path fill="none" stroke="#63b8ff" d="M372.98,-188.06C383.06,-190.84 393.37,-193.87 403,-197 419.33,-202.31 422.7,-205.61 439,-211 445.33,-213.09 451.96,-215.15 458.62,-217.13"/>
<polygon fill="#63b8ff" stroke="#63b8ff" points="457.78,-220.53 468.36,-219.96 459.73,-213.8 457.78,-220.53"/>
</a>
</g>
</g>
<!-- Node6 -->
<g id="Node000006" class="node">
<title>Node6</title>
<g id="a_Node000006"><a xlink:href="../../d7/d72/classTerraria_1_1UI_1_1UIElement_a172ab329792a6b10d313e66ccd63f30f.html#a172ab329792a6b10d313e66ccd63f30f" target="_top" xlink:title=" ">
<polygon fill="white" stroke="#666666" points="616,-201.5 439,-201.5 439,-182.5 616,-182.5 616,-201.5"/>
<text text-anchor="middle" x="527.5" y="-189.5" font-family="Helvetica,sans-Serif" font-size="10.00">Terraria.UI.UIElement.Deactivate</text>
</a>
</g>
</g>
<!-- Node4&#45;&gt;Node6 -->
<g id="edge5_Node000004_Node000006" class="edge">
<title>Node4&#45;&gt;Node6</title>
<g id="a_edge5_Node000004_Node000006"><a xlink:title=" ">
<path fill="none" stroke="#63b8ff" d="M380.75,-179.09C396.08,-180.45 412.61,-181.91 428.85,-183.35"/>
<polygon fill="#63b8ff" stroke="#63b8ff" points="428.63,-186.84 438.9,-184.24 429.25,-179.87 428.63,-186.84"/>
</a>
</g>
</g>
<!-- Node8 -->
<g id="Node000008" class="node">
<title>Node8</title>
<g id="a_Node000008"><a xlink:href="../../d7/d72/classTerraria_1_1UI_1_1UIElement_a63d1218ad7ff0138d7884578aa121750.html#a63d1218ad7ff0138d7884578aa121750" target="_top" xlink:title=" ">
<polygon fill="white" stroke="#666666" points="828,-163.5 655,-163.5 655,-144.5 828,-144.5 828,-163.5"/>
<text text-anchor="middle" x="741.5" y="-151.5" font-family="Helvetica,sans-Serif" font-size="10.00">Terraria.UI.UIElement.MouseOut</text>
</a>
</g>
</g>
<!-- Node4&#45;&gt;Node8 -->
<g id="edge7_Node000004_Node000008" class="edge">
<title>Node4&#45;&gt;Node8</title>
<g id="a_edge7_Node000004_Node000008"><a xlink:title=" ">
<path fill="none" stroke="#63b8ff" d="M380.85,-169.95C452.31,-166.78 564.64,-161.8 644.74,-158.25"/>
<polygon fill="#63b8ff" stroke="#63b8ff" points="645,-161.74 654.84,-157.8 644.69,-154.74 645,-161.74"/>
</a>
</g>
</g>
<!-- Node9 -->
<g id="Node000009" class="node">
<title>Node9</title>
<g id="a_Node000009"><a xlink:href="../../dc/dc4/classTerraria_1_1UI_1_1UserInterface_a700e4c651872be926b43d293f89f1a59.html#a700e4c651872be926b43d293f89f1a59" target="_top" xlink:title=" ">
<polygon fill="white" stroke="#666666" points="597,-126 458,-126 458,-96 597,-96 597,-126"/>
<text text-anchor="start" x="466" y="-114" font-family="Helvetica,sans-Serif" font-size="10.00">Terraria.UI.UserInterface.</text>
<text text-anchor="middle" x="527.5" y="-103" font-family="Helvetica,sans-Serif" font-size="10.00">ResetState</text>
</a>
</g>
</g>
<!-- Node4&#45;&gt;Node9 -->
<g id="edge9_Node000004_Node000009" class="edge">
<title>Node4&#45;&gt;Node9</title>
<g id="a_edge9_Node000004_Node000009"><a xlink:title=" ">
<path fill="none" stroke="#63b8ff" d="M363.92,-157.99C394.26,-149.22 432.73,-138.1 464.64,-128.88"/>
<polygon fill="#63b8ff" stroke="#63b8ff" points="465.68,-132.22 474.31,-126.09 463.73,-125.5 465.68,-132.22"/>
</a>
</g>
</g>
<!-- Node7 -->
<g id="Node000007" class="node">
<title>Node7</title>
<g id="a_Node000007"><a xlink:href="../../d7/d72/classTerraria_1_1UI_1_1UIElement_a4e031c26854166a38a711b02f2f12f49.html#a4e031c26854166a38a711b02f2f12f49" target="_top" xlink:title=" ">
<polygon fill="white" stroke="#666666" points="810,-230 673,-230 673,-200 810,-200 810,-230"/>
<text text-anchor="start" x="681" y="-218" font-family="Helvetica,sans-Serif" font-size="10.00">Terraria.UI.UIElement.On</text>
<text text-anchor="middle" x="741.5" y="-207" font-family="Helvetica,sans-Serif" font-size="10.00">Deactivate</text>
</a>
</g>
</g>
<!-- Node6&#45;&gt;Node7 -->
<g id="edge6_Node000006_Node000007" class="edge">
<title>Node6&#45;&gt;Node7</title>
<g id="a_edge6_Node000006_Node000007"><a xlink:title=" ">
<path fill="none" stroke="#63b8ff" d="M616.26,-201.52C631.62,-203.19 647.51,-204.91 662.59,-206.55"/>
<polygon fill="#63b8ff" stroke="#63b8ff" points="662.56,-210.06 672.88,-207.66 663.31,-203.11 662.56,-210.06"/>
</a>
</g>
</g>
<!-- Node8&#45;&gt;Node8 -->
<g id="edge8_Node000008_Node000008" class="edge">
<title>Node8&#45;&gt;Node8</title>
<g id="a_edge8_Node000008_Node000008"><a xlink:title=" ">
<path fill="none" stroke="#63b8ff" d="M711.6,-163.58C697.05,-172.23 707.02,-181.5 741.5,-181.5 765.21,-181.5 777.32,-177.12 777.86,-171.57"/>
<polygon fill="#63b8ff" stroke="#63b8ff" points="780.41,-169.16 771.4,-163.58 774.96,-173.56 780.41,-169.16"/>
</a>
</g>
</g>
<!-- Node9&#45;&gt;Node8 -->
<g id="edge14_Node000009_Node000008" class="edge">
<title>Node9&#45;&gt;Node8</title>
<g id="a_edge14_Node000009_Node000008"><a xlink:title=" ">
<path fill="none" stroke="#63b8ff" d="M597.04,-124.9C625.04,-130.58 657.03,-137.07 683.7,-142.48"/>
<polygon fill="#63b8ff" stroke="#63b8ff" points="683.14,-145.94 693.63,-144.49 684.53,-139.08 683.14,-145.94"/>
</a>
</g>
</g>
<!-- Node10 -->
<g id="Node000010" class="node">
<title>Node10</title>
<g id="a_Node000010"><a xlink:href="../../dc/dc4/classTerraria_1_1UI_1_1UserInterface_acfe538a1d130b3508ff7e95a8678e967.html#acfe538a1d130b3508ff7e95a8678e967" target="_top" xlink:title=" ">
<polygon fill="white" stroke="#666666" points="811,-126 672,-126 672,-96 811,-96 811,-126"/>
<text text-anchor="start" x="680" y="-114" font-family="Helvetica,sans-Serif" font-size="10.00">Terraria.UI.UserInterface.</text>
<text text-anchor="middle" x="741.5" y="-103" font-family="Helvetica,sans-Serif" font-size="10.00">ClearPointers</text>
</a>
</g>
</g>
<!-- Node9&#45;&gt;Node10 -->
<g id="edge10_Node000009_Node000010" class="edge">
<title>Node9&#45;&gt;Node10</title>
<g id="a_edge10_Node000009_Node000010"><a xlink:title=" ">
<path fill="none" stroke="#63b8ff" d="M597.04,-111C617.62,-111 640.37,-111 661.57,-111"/>
<polygon fill="#63b8ff" stroke="#63b8ff" points="661.84,-114.5 671.84,-111 661.84,-107.5 661.84,-114.5"/>
</a>
</g>
</g>
<!-- Node12 -->
<g id="Node000012" class="node">
<title>Node12</title>
<g id="a_Node000012"><a xlink:href="../../dc/dc4/classTerraria_1_1UI_1_1UserInterface_afd497e75a0f15df007150576920ee8d9.html#afd497e75a0f15df007150576920ee8d9" target="_top" xlink:title=" ">
<polygon fill="white" stroke="#666666" points="811,-78 672,-78 672,-48 811,-48 811,-78"/>
<text text-anchor="start" x="680" y="-66" font-family="Helvetica,sans-Serif" font-size="10.00">Terraria.UI.UserInterface.</text>
<text text-anchor="middle" x="741.5" y="-55" font-family="Helvetica,sans-Serif" font-size="10.00">GetMousePosition</text>
</a>
</g>
</g>
<!-- Node9&#45;&gt;Node12 -->
<g id="edge12_Node000009_Node000012" class="edge">
<title>Node9&#45;&gt;Node12</title>
<g id="a_edge12_Node000009_Node000012"><a xlink:title=" ">
<path fill="none" stroke="#63b8ff" d="M595,-95.94C617,-90.96 641.65,-85.38 664.32,-80.25"/>
<polygon fill="#63b8ff" stroke="#63b8ff" points="665.26,-83.62 674.24,-78 663.71,-76.8 665.26,-83.62"/>
</a>
</g>
</g>
<!-- Node13 -->
<g id="Node000013" class="node">
<title>Node13</title>
<g id="a_Node000013"><a xlink:href="../../dc/dc4/classTerraria_1_1UI_1_1UserInterface_ab378b5b38fb675be20df690581fe0d52.html#ab378b5b38fb675be20df690581fe0d52" target="_top" xlink:title=" ">
<polygon fill="white" stroke="#666666" points="831,-30 652,-30 652,0 831,0 831,-30"/>
<text text-anchor="start" x="660" y="-18" font-family="Helvetica,sans-Serif" font-size="10.00">Terraria.UI.UserInterface.</text>
<text text-anchor="middle" x="741.5" y="-7" font-family="Helvetica,sans-Serif" font-size="10.00">ImmediatelyUpdateInputPointers</text>
</a>
</g>
</g>
<!-- Node9&#45;&gt;Node13 -->
<g id="edge13_Node000009_Node000013" class="edge">
<title>Node9&#45;&gt;Node13</title>
<g id="a_edge13_Node000009_Node000013"><a xlink:title=" ">
<path fill="none" stroke="#63b8ff" d="M550.34,-95.87C574.33,-79.84 614.45,-54.71 652,-39 656.96,-36.93 662.14,-34.98 667.42,-33.17"/>
<polygon fill="#63b8ff" stroke="#63b8ff" points="668.55,-36.48 676.96,-30.05 666.37,-29.83 668.55,-36.48"/>
</a>
</g>
</g>
<!-- Node11 -->
<g id="Node000011" class="node">
<title>Node11</title>
<g id="a_Node000011"><a xlink:href="../../dd/d9a/classTerraria_1_1UI_1_1UserInterface_1_1InputPointerCache_a22f4b7b022203e702cd2edd238a20607.html#a22f4b7b022203e702cd2edd238a20607" target="_top" xlink:title=" ">
<polygon fill="white" stroke="#666666" points="1006,-126 867,-126 867,-96 1006,-96 1006,-126"/>
<text text-anchor="start" x="875" y="-114" font-family="Helvetica,sans-Serif" font-size="10.00">Terraria.UI.UserInterface.</text>
<text text-anchor="middle" x="936.5" y="-103" font-family="Helvetica,sans-Serif" font-size="10.00">InputPointerCache.Clear</text>
</a>
</g>
</g>
<!-- Node10&#45;&gt;Node11 -->
<g id="edge11_Node000010_Node000011" class="edge">
<title>Node10&#45;&gt;Node11</title>
<g id="a_edge11_Node000010_Node000011"><a xlink:title=" ">
<path fill="none" stroke="#63b8ff" d="M811.09,-111C825.79,-111 841.44,-111 856.5,-111"/>
<polygon fill="#63b8ff" stroke="#63b8ff" points="856.81,-114.5 866.81,-111 856.81,-107.5 856.81,-114.5"/>
</a>
</g>
</g>
</g>
</svg>
