<?xml version="1.0" encoding="UTF-8" standalone="no"?>
<!DOCTYPE svg PUBLIC "-//W3C//DTD SVG 1.1//EN"
 "http://www.w3.org/Graphics/SVG/1.1/DTD/svg11.dtd">
<!-- Generated by graphviz version 2.43.0 (0)
 -->
<!-- Title: Terraria.ID.ContentSamples.Initialize Pages: 1 -->
<svg width="1161pt" height="374pt"
 viewBox="0.00 0.00 1161.00 374.00" xmlns="http://www.w3.org/2000/svg" xmlns:xlink="http://www.w3.org/1999/xlink">
<g id="graph0" class="graph" transform="scale(1 1) rotate(0) translate(4 370)">
<title>Terraria.ID.ContentSamples.Initialize</title>
<!-- Node1 -->
<g id="Node000001" class="node">
<title>Node1</title>
<g id="a_Node000001"><a xlink:title=" ">
<polygon fill="#999999" stroke="#666666" points="153,-267 0,-267 0,-237 153,-237 153,-267"/>
<text text-anchor="start" x="8" y="-255" font-family="Helvetica,sans-Serif" font-size="10.00">Terraria.ID.ContentSamples.</text>
<text text-anchor="middle" x="76.5" y="-244" font-family="Helvetica,sans-Serif" font-size="10.00">Initialize</text>
</a>
</g>
</g>
<!-- Node2 -->
<g id="Node000002" class="node">
<title>Node2</title>
<g id="a_Node000002"><a xlink:href="../../d4/d49/classTerraria_1_1ID_1_1ContentSamples_af64db637b403ab103a3e39c26fdd4d97.html#af64db637b403ab103a3e39c26fdd4d97" target="_top" xlink:title=" ">
<polygon fill="white" stroke="#666666" points="346.5,-365 193.5,-365 193.5,-335 346.5,-335 346.5,-365"/>
<text text-anchor="start" x="201.5" y="-353" font-family="Helvetica,sans-Serif" font-size="10.00">Terraria.ID.ContentSamples.</text>
<text text-anchor="middle" x="270" y="-342" font-family="Helvetica,sans-Serif" font-size="10.00">FillNpcRarities</text>
</a>
</g>
</g>
<!-- Node1&#45;&gt;Node2 -->
<g id="edge1_Node000001_Node000002" class="edge">
<title>Node1&#45;&gt;Node2</title>
<g id="a_edge1_Node000001_Node000002"><a xlink:title=" ">
<path fill="none" stroke="#63b8ff" d="M97.06,-267.23C118.58,-283.39 154.69,-308.79 189,-325 193.85,-327.29 198.97,-329.44 204.17,-331.44"/>
<polygon fill="#63b8ff" stroke="#63b8ff" points="202.99,-334.74 213.58,-334.89 205.39,-328.16 202.99,-334.74"/>
</a>
</g>
</g>
<!-- Node4 -->
<g id="Node000004" class="node">
<title>Node4</title>
<g id="a_Node000004"><a xlink:href="../../d4/d49/classTerraria_1_1ID_1_1ContentSamples_ab8e411a4a54da35d1eabca546dc0feaa.html#ab8e411a4a54da35d1eabca546dc0feaa" target="_top" xlink:title=" ">
<polygon fill="white" stroke="#666666" points="346.5,-316 193.5,-316 193.5,-286 346.5,-286 346.5,-316"/>
<text text-anchor="start" x="201.5" y="-304" font-family="Helvetica,sans-Serif" font-size="10.00">Terraria.ID.ContentSamples.</text>
<text text-anchor="middle" x="270" y="-293" font-family="Helvetica,sans-Serif" font-size="10.00">FillResearchItemOverrides</text>
</a>
</g>
</g>
<!-- Node1&#45;&gt;Node4 -->
<g id="edge3_Node000001_Node000004" class="edge">
<title>Node1&#45;&gt;Node4</title>
<g id="a_edge3_Node000001_Node000004"><a xlink:title=" ">
<path fill="none" stroke="#63b8ff" d="M136.26,-267.03C156.57,-272.23 179.51,-278.1 200.53,-283.48"/>
<polygon fill="#63b8ff" stroke="#63b8ff" points="199.8,-286.91 210.35,-285.99 201.53,-280.12 199.8,-286.91"/>
</a>
</g>
</g>
<!-- Node7 -->
<g id="Node000007" class="node">
<title>Node7</title>
<g id="a_Node000007"><a xlink:href="../../d4/d49/classTerraria_1_1ID_1_1ContentSamples_a17164f405fc6155b1b9759e32c52e691.html#a17164f405fc6155b1b9759e32c52e691" target="_top" xlink:title=" ">
<polygon fill="white" stroke="#666666" points="346.5,-267 193.5,-267 193.5,-237 346.5,-237 346.5,-267"/>
<text text-anchor="start" x="201.5" y="-255" font-family="Helvetica,sans-Serif" font-size="10.00">Terraria.ID.ContentSamples.</text>
<text text-anchor="middle" x="270" y="-244" font-family="Helvetica,sans-Serif" font-size="10.00">ModifyNPCIds</text>
</a>
</g>
</g>
<!-- Node1&#45;&gt;Node7 -->
<g id="edge6_Node000001_Node000007" class="edge">
<title>Node1&#45;&gt;Node7</title>
<g id="a_edge6_Node000001_Node000007"><a xlink:title=" ">
<path fill="none" stroke="#63b8ff" d="M153.19,-252C162.96,-252 173.03,-252 182.96,-252"/>
<polygon fill="#63b8ff" stroke="#63b8ff" points="183.24,-255.5 193.24,-252 183.24,-248.5 183.24,-255.5"/>
</a>
</g>
</g>
<!-- Node8 -->
<g id="Node000008" class="node">
<title>Node8</title>
<g id="a_Node000008"><a xlink:href="../../da/dd3/classTerraria_1_1Projectile_a63165ebb547c242826d7148329b1cfe0.html#a63165ebb547c242826d7148329b1cfe0" target="_top" xlink:title=" ">
<polygon fill="white" stroke="#666666" points="351,-216.5 189,-216.5 189,-197.5 351,-197.5 351,-216.5"/>
<text text-anchor="middle" x="270" y="-204.5" font-family="Helvetica,sans-Serif" font-size="10.00">Terraria.Projectile.SetDefaults</text>
</a>
</g>
</g>
<!-- Node1&#45;&gt;Node8 -->
<g id="edge7_Node000001_Node000008" class="edge">
<title>Node1&#45;&gt;Node8</title>
<g id="a_edge7_Node000001_Node000008"><a xlink:title=" ">
<path fill="none" stroke="#63b8ff" d="M141.53,-236.95C166.65,-231.05 195.05,-224.38 218.66,-218.83"/>
<polygon fill="#63b8ff" stroke="#63b8ff" points="219.52,-222.22 228.46,-216.53 217.92,-215.41 219.52,-222.22"/>
</a>
</g>
</g>
<!-- Node21 -->
<g id="Node000021" class="node">
<title>Node21</title>
<g id="a_Node000021"><a xlink:href="../../db/d79/classTerraria_1_1Item_adb2554f9d394eca69180ff503efd10d9.html#adb2554f9d394eca69180ff503efd10d9" target="_top" xlink:title=" ">
<polygon fill="white" stroke="#666666" points="339.5,-161.5 200.5,-161.5 200.5,-142.5 339.5,-142.5 339.5,-161.5"/>
<text text-anchor="middle" x="270" y="-149.5" font-family="Helvetica,sans-Serif" font-size="10.00">Terraria.Item.SetDefaults</text>
</a>
</g>
</g>
<!-- Node1&#45;&gt;Node21 -->
<g id="edge20_Node000001_Node000021" class="edge">
<title>Node1&#45;&gt;Node21</title>
<g id="a_edge20_Node000001_Node000021"><a xlink:title=" ">
<path fill="none" stroke="#63b8ff" d="M102.86,-236.89C125.26,-223.74 158.93,-204.42 189,-189 204.86,-180.87 222.85,-172.48 237.75,-165.74"/>
<polygon fill="#63b8ff" stroke="#63b8ff" points="239.35,-168.86 247.04,-161.58 236.48,-162.48 239.35,-168.86"/>
</a>
</g>
</g>
<!-- Node3 -->
<g id="Node000003" class="node">
<title>Node3</title>
<g id="a_Node000003"><a xlink:href="../../d4/d49/classTerraria_1_1ID_1_1ContentSamples_a054478b1dbca3b94d9f4b489614a0358.html#a054478b1dbca3b94d9f4b489614a0358" target="_top" xlink:title=" ">
<polygon fill="white" stroke="#666666" points="564,-366 387,-366 387,-336 564,-336 564,-366"/>
<text text-anchor="start" x="395" y="-354" font-family="Helvetica,sans-Serif" font-size="10.00">Terraria.ID.ContentSamples.</text>
<text text-anchor="middle" x="475.5" y="-343" font-family="Helvetica,sans-Serif" font-size="10.00">GetNPCBestiaryRarityStarsCount</text>
</a>
</g>
</g>
<!-- Node2&#45;&gt;Node3 -->
<g id="edge2_Node000002_Node000003" class="edge">
<title>Node2&#45;&gt;Node3</title>
<g id="a_edge2_Node000002_Node000003"><a xlink:title=" ">
<path fill="none" stroke="#63b8ff" d="M346.78,-350.37C356.61,-350.42 366.79,-350.47 376.91,-350.52"/>
<polygon fill="#63b8ff" stroke="#63b8ff" points="376.98,-354.02 387,-350.57 377.02,-347.02 376.98,-354.02"/>
</a>
</g>
</g>
<!-- Node5 -->
<g id="Node000005" class="node">
<title>Node5</title>
<g id="a_Node000005"><a xlink:href="../../d4/d49/classTerraria_1_1ID_1_1ContentSamples_ae2f31bb7078e201886e4e8e372f29cb4.html#ae2f31bb7078e201886e4e8e372f29cb4" target="_top" xlink:title=" ">
<polygon fill="white" stroke="#666666" points="552,-318 399,-318 399,-288 552,-288 552,-318"/>
<text text-anchor="start" x="407" y="-306" font-family="Helvetica,sans-Serif" font-size="10.00">Terraria.ID.ContentSamples.</text>
<text text-anchor="middle" x="475.5" y="-295" font-family="Helvetica,sans-Serif" font-size="10.00">AddItemResearchOverride</text>
</a>
</g>
</g>
<!-- Node4&#45;&gt;Node5 -->
<g id="edge4_Node000004_Node000005" class="edge">
<title>Node4&#45;&gt;Node5</title>
<g id="a_edge4_Node000004_Node000005"><a xlink:title=" ">
<path fill="none" stroke="#63b8ff" d="M346.78,-301.74C360.51,-301.88 374.91,-302.02 388.9,-302.16"/>
<polygon fill="#63b8ff" stroke="#63b8ff" points="388.97,-305.66 399,-302.26 389.03,-298.66 388.97,-305.66"/>
</a>
</g>
</g>
<!-- Node6 -->
<g id="Node000006" class="node">
<title>Node6</title>
<g id="a_Node000006"><a xlink:href="../../d4/d49/classTerraria_1_1ID_1_1ContentSamples_a18077d879aadc460fc2fc3a89a670305.html#a18077d879aadc460fc2fc3a89a670305" target="_top" xlink:title=" ">
<polygon fill="white" stroke="#666666" points="775,-318 600,-318 600,-288 775,-288 775,-318"/>
<text text-anchor="start" x="608" y="-306" font-family="Helvetica,sans-Serif" font-size="10.00">Terraria.ID.ContentSamples.</text>
<text text-anchor="middle" x="687.5" y="-295" font-family="Helvetica,sans-Serif" font-size="10.00">AddItemResearchOverride_Inner</text>
</a>
</g>
</g>
<!-- Node5&#45;&gt;Node6 -->
<g id="edge5_Node000005_Node000006" class="edge">
<title>Node5&#45;&gt;Node6</title>
<g id="a_edge5_Node000005_Node000006"><a xlink:title=" ">
<path fill="none" stroke="#63b8ff" d="M552.02,-303C564.27,-303 577.1,-303 589.76,-303"/>
<polygon fill="#63b8ff" stroke="#63b8ff" points="589.87,-306.5 599.87,-303 589.87,-299.5 589.87,-306.5"/>
</a>
</g>
</g>
<!-- Node9 -->
<g id="Node000009" class="node">
<title>Node9</title>
<g id="a_Node000009"><a xlink:href="../../da/dd3/classTerraria_1_1Projectile_aa88785c6b90cea5533be603990ea4fd0.html#aa88785c6b90cea5533be603990ea4fd0" target="_top" xlink:title=" ">
<polygon fill="white" stroke="#666666" points="546,-270 405,-270 405,-240 546,-240 546,-270"/>
<text text-anchor="start" x="413" y="-258" font-family="Helvetica,sans-Serif" font-size="10.00">Terraria.Projectile.Default</text>
<text text-anchor="middle" x="475.5" y="-247" font-family="Helvetica,sans-Serif" font-size="10.00">ToSpray</text>
</a>
</g>
</g>
<!-- Node8&#45;&gt;Node9 -->
<g id="edge8_Node000008_Node000009" class="edge">
<title>Node8&#45;&gt;Node9</title>
<g id="a_edge8_Node000008_Node000009"><a xlink:title=" ">
<path fill="none" stroke="#63b8ff" d="M311.69,-216.6C337.12,-222.6 370.62,-230.5 400.62,-237.57"/>
<polygon fill="#63b8ff" stroke="#63b8ff" points="400.1,-241.05 410.64,-239.94 401.71,-234.23 400.1,-241.05"/>
</a>
</g>
</g>
<!-- Node10 -->
<g id="Node000010" class="node">
<title>Node10</title>
<g id="a_Node000010"><a xlink:href="../../da/dd3/classTerraria_1_1Projectile_a9b4a24e61ca3b5ecf2e8290cf4c06747.html#a9b4a24e61ca3b5ecf2e8290cf4c06747" target="_top" xlink:title=" ">
<polygon fill="white" stroke="#666666" points="546,-222 405,-222 405,-192 546,-192 546,-222"/>
<text text-anchor="start" x="413" y="-210" font-family="Helvetica,sans-Serif" font-size="10.00">Terraria.Projectile.Default</text>
<text text-anchor="middle" x="475.5" y="-199" font-family="Helvetica,sans-Serif" font-size="10.00">ToWhip</text>
</a>
</g>
</g>
<!-- Node8&#45;&gt;Node10 -->
<g id="edge9_Node000008_Node000010" class="edge">
<title>Node8&#45;&gt;Node10</title>
<g id="a_edge9_Node000008_Node000010"><a xlink:title=" ">
<path fill="none" stroke="#63b8ff" d="M351.14,-207C365.46,-207 380.38,-207 394.69,-207"/>
<polygon fill="#63b8ff" stroke="#63b8ff" points="394.98,-210.5 404.98,-207 394.98,-203.5 394.98,-210.5"/>
</a>
</g>
</g>
<!-- Node12 -->
<g id="Node000012" class="node">
<title>Node12</title>
<g id="a_Node000012"><a xlink:href="../../d9/db1/classTerraria_1_1Utilities_1_1UnifiedRandom_ac4ecc6320b69ab939b9c45eaf7d89000.html#ac4ecc6320b69ab939b9c45eaf7d89000" target="_top" xlink:title=" ">
<polygon fill="white" stroke="#666666" points="541.5,-174 409.5,-174 409.5,-144 541.5,-144 541.5,-174"/>
<text text-anchor="start" x="417.5" y="-162" font-family="Helvetica,sans-Serif" font-size="10.00">Terraria.Utilities.Unified</text>
<text text-anchor="middle" x="475.5" y="-151" font-family="Helvetica,sans-Serif" font-size="10.00">Random.Next</text>
</a>
</g>
</g>
<!-- Node8&#45;&gt;Node12 -->
<g id="edge11_Node000008_Node000012" class="edge">
<title>Node8&#45;&gt;Node12</title>
<g id="a_edge11_Node000008_Node000012"><a xlink:title=" ">
<path fill="none" stroke="#63b8ff" d="M314.21,-197.42C326.14,-194.74 339.08,-191.79 351,-189 368.06,-185.01 386.42,-180.61 403.63,-176.43"/>
<polygon fill="#63b8ff" stroke="#63b8ff" points="404.73,-179.77 413.62,-174.01 403.07,-172.97 404.73,-179.77"/>
</a>
</g>
</g>
<!-- Node14 -->
<g id="Node000014" class="node">
<title>Node14</title>
<g id="a_Node000014"><a xlink:href="../../da/dd3/classTerraria_1_1Projectile_a98f9450d0ebd57eb22ab1da41c361904.html#a98f9450d0ebd57eb22ab1da41c361904" target="_top" xlink:title=" ">
<polygon fill="white" stroke="#666666" points="542,-126 409,-126 409,-96 542,-96 542,-126"/>
<text text-anchor="start" x="417" y="-114" font-family="Helvetica,sans-Serif" font-size="10.00">Terraria.Projectile.Reset</text>
<text text-anchor="middle" x="475.5" y="-103" font-family="Helvetica,sans-Serif" font-size="10.00">LocalNPCHitImmunity</text>
</a>
</g>
</g>
<!-- Node8&#45;&gt;Node14 -->
<g id="edge13_Node000008_Node000014" class="edge">
<title>Node8&#45;&gt;Node14</title>
<g id="a_edge13_Node000008_Node000014"><a xlink:title=" ">
<path fill="none" stroke="#63b8ff" d="M334.92,-197.39C340.61,-195.15 346.07,-192.39 351,-189 374.77,-172.66 363.61,-151.88 387,-135 390.87,-132.21 395.04,-129.74 399.4,-127.56"/>
<polygon fill="#63b8ff" stroke="#63b8ff" points="400.86,-130.74 408.57,-123.48 398.01,-124.35 400.86,-130.74"/>
</a>
</g>
</g>
<!-- Node15 -->
<g id="Node000015" class="node">
<title>Node15</title>
<g id="a_Node000015"><a xlink:href="../../dd/d93/classTerraria_1_1ModLoader_1_1ProjectileLoader_af7a6582e0e21a3bbc5b4128cb7bd7f52.html#af7a6582e0e21a3bbc5b4128cb7bd7f52" target="_top" xlink:title=" ">
<polygon fill="white" stroke="#666666" points="554.5,-78 396.5,-78 396.5,-48 554.5,-48 554.5,-78"/>
<text text-anchor="start" x="404.5" y="-66" font-family="Helvetica,sans-Serif" font-size="10.00">Terraria.ModLoader.Projectile</text>
<text text-anchor="middle" x="475.5" y="-55" font-family="Helvetica,sans-Serif" font-size="10.00">Loader.SetDefaults</text>
</a>
</g>
</g>
<!-- Node8&#45;&gt;Node15 -->
<g id="edge14_Node000008_Node000015" class="edge">
<title>Node8&#45;&gt;Node15</title>
<g id="a_edge14_Node000008_Node000015"><a xlink:title=" ">
<path fill="none" stroke="#63b8ff" d="M338.59,-197.32C343.07,-195.05 347.28,-192.31 351,-189 386.94,-157.07 351.81,-119.76 387,-87 388.15,-85.93 389.35,-84.9 390.58,-83.92"/>
<polygon fill="#63b8ff" stroke="#63b8ff" points="392.9,-86.58 399.23,-78.08 388.99,-80.77 392.9,-86.58"/>
</a>
</g>
</g>
<!-- Node11 -->
<g id="Node000011" class="node">
<title>Node11</title>
<g id="a_Node000011"><a xlink:href="../../da/dd3/classTerraria_1_1Projectile_adaa0adaba8b639b14012275f8a0429a4.html#adaa0adaba8b639b14012275f8a0429a4" target="_top" xlink:title=" ">
<polygon fill="white" stroke="#666666" points="756.5,-222 618.5,-222 618.5,-192 756.5,-192 756.5,-222"/>
<text text-anchor="start" x="626.5" y="-210" font-family="Helvetica,sans-Serif" font-size="10.00">Terraria.Projectile.Vanilla</text>
<text text-anchor="middle" x="687.5" y="-199" font-family="Helvetica,sans-Serif" font-size="10.00">WhipSettings</text>
</a>
</g>
</g>
<!-- Node10&#45;&gt;Node11 -->
<g id="edge10_Node000010_Node000011" class="edge">
<title>Node10&#45;&gt;Node11</title>
<g id="a_edge10_Node000010_Node000011"><a xlink:title=" ">
<path fill="none" stroke="#63b8ff" d="M546.14,-207C566.05,-207 587.89,-207 608.28,-207"/>
<polygon fill="#63b8ff" stroke="#63b8ff" points="608.48,-210.5 618.48,-207 608.48,-203.5 608.48,-210.5"/>
</a>
</g>
</g>
<!-- Node13 -->
<g id="Node000013" class="node">
<title>Node13</title>
<g id="a_Node000013"><a xlink:href="../../d9/db1/classTerraria_1_1Utilities_1_1UnifiedRandom_a173f09196ff526b107c0223c2d58c59a.html#a173f09196ff526b107c0223c2d58c59a" target="_top" xlink:title=" ">
<polygon fill="white" stroke="#666666" points="754.5,-174 620.5,-174 620.5,-144 754.5,-144 754.5,-174"/>
<text text-anchor="start" x="628.5" y="-162" font-family="Helvetica,sans-Serif" font-size="10.00">Terraria.Utilities.Unified</text>
<text text-anchor="middle" x="687.5" y="-151" font-family="Helvetica,sans-Serif" font-size="10.00">Random.InternalSample</text>
</a>
</g>
</g>
<!-- Node12&#45;&gt;Node13 -->
<g id="edge12_Node000012_Node000013" class="edge">
<title>Node12&#45;&gt;Node13</title>
<g id="a_edge12_Node000012_Node000013"><a xlink:title=" ">
<path fill="none" stroke="#63b8ff" d="M541.51,-159C563.23,-159 587.65,-159 610.16,-159"/>
<polygon fill="#63b8ff" stroke="#63b8ff" points="610.35,-162.5 620.35,-159 610.35,-155.5 610.35,-162.5"/>
</a>
</g>
</g>
<!-- Node16 -->
<g id="Node000016" class="node">
<title>Node16</title>
<g id="a_Node000016"><a xlink:href="../../dd/d93/classTerraria_1_1ModLoader_1_1ProjectileLoader_a1367d806fe025ee2b27c5f0aa945b46d.html#a1367d806fe025ee2b27c5f0aa945b46d" target="_top" xlink:title="Gets the ModProjectile template instance corresponding to the specified type (not the clone/new insta...">
<polygon fill="white" stroke="#666666" points="766.5,-126 608.5,-126 608.5,-96 766.5,-96 766.5,-126"/>
<text text-anchor="start" x="616.5" y="-114" font-family="Helvetica,sans-Serif" font-size="10.00">Terraria.ModLoader.Projectile</text>
<text text-anchor="middle" x="687.5" y="-103" font-family="Helvetica,sans-Serif" font-size="10.00">Loader.GetProjectile</text>
</a>
</g>
</g>
<!-- Node15&#45;&gt;Node16 -->
<g id="edge15_Node000015_Node000016" class="edge">
<title>Node15&#45;&gt;Node16</title>
<g id="a_edge15_Node000015_Node000016"><a xlink:title=" ">
<path fill="none" stroke="#63b8ff" d="M542.37,-78.06C564.16,-83.04 588.58,-88.62 611.04,-93.75"/>
<polygon fill="#63b8ff" stroke="#63b8ff" points="610.34,-97.18 620.86,-96 611.9,-90.36 610.34,-97.18"/>
</a>
</g>
</g>
<!-- Node17 -->
<g id="Node000017" class="node">
<title>Node17</title>
<g id="a_Node000017"><a xlink:href="../../dd/d93/classTerraria_1_1ModLoader_1_1ProjectileLoader_aa76fa5a102251919e517db981ad900c6.html#aa76fa5a102251919e517db981ad900c6" target="_top" xlink:title=" ">
<polygon fill="white" stroke="#666666" points="766.5,-78 608.5,-78 608.5,-48 766.5,-48 766.5,-78"/>
<text text-anchor="start" x="616.5" y="-66" font-family="Helvetica,sans-Serif" font-size="10.00">Terraria.ModLoader.Projectile</text>
<text text-anchor="middle" x="687.5" y="-55" font-family="Helvetica,sans-Serif" font-size="10.00">Loader.IsModProjectile</text>
</a>
</g>
</g>
<!-- Node15&#45;&gt;Node17 -->
<g id="edge16_Node000015_Node000017" class="edge">
<title>Node15&#45;&gt;Node17</title>
<g id="a_edge16_Node000015_Node000017"><a xlink:title=" ">
<path fill="none" stroke="#63b8ff" d="M554.7,-63C568.77,-63 583.54,-63 597.88,-63"/>
<polygon fill="#63b8ff" stroke="#63b8ff" points="598.24,-66.5 608.24,-63 598.24,-59.5 598.24,-66.5"/>
</a>
</g>
</g>
<!-- Node18 -->
<g id="Node000018" class="node">
<title>Node18</title>
<g id="a_Node000018"><a xlink:href="../../db/d77/classTerraria_1_1ModLoader_1_1ModType_a92fd60a4a3110bbcd84d6ade99544e2a.html#a92fd60a4a3110bbcd84d6ade99544e2a" target="_top" xlink:title="Create a new instance of this ModType for a specific entity.">
<polygon fill="white" stroke="#666666" points="767,-30 608,-30 608,0 767,0 767,-30"/>
<text text-anchor="start" x="616" y="-18" font-family="Helvetica,sans-Serif" font-size="10.00">Terraria.ModLoader.ModType.</text>
<text text-anchor="middle" x="687.5" y="-7" font-family="Helvetica,sans-Serif" font-size="10.00">NewInstance</text>
</a>
</g>
</g>
<!-- Node15&#45;&gt;Node18 -->
<g id="edge17_Node000015_Node000018" class="edge">
<title>Node15&#45;&gt;Node18</title>
<g id="a_edge17_Node000015_Node000018"><a xlink:title=" ">
<path fill="none" stroke="#63b8ff" d="M542.37,-47.94C564.16,-42.96 588.58,-37.38 611.04,-32.25"/>
<polygon fill="#63b8ff" stroke="#63b8ff" points="611.9,-35.64 620.86,-30 610.34,-28.82 611.9,-35.64"/>
</a>
</g>
</g>
<!-- Node19 -->
<g id="Node000019" class="node">
<title>Node19</title>
<g id="a_Node000019"><a xlink:href="../../db/d77/classTerraria_1_1ModLoader_1_1ModType_aeb73d9b078163fba8a510ff7d51033c3.html#aeb73d9b078163fba8a510ff7d51033c3" target="_top" xlink:title="Create a copy of this instanced global. Called when an entity is cloned.">
<polygon fill="white" stroke="#666666" points="970,-30 811,-30 811,0 970,0 970,-30"/>
<text text-anchor="start" x="819" y="-18" font-family="Helvetica,sans-Serif" font-size="10.00">Terraria.ModLoader.ModType.</text>
<text text-anchor="middle" x="890.5" y="-7" font-family="Helvetica,sans-Serif" font-size="10.00">Clone</text>
</a>
</g>
</g>
<!-- Node18&#45;&gt;Node19 -->
<g id="edge18_Node000018_Node000019" class="edge">
<title>Node18&#45;&gt;Node19</title>
<g id="a_edge18_Node000018_Node000019"><a xlink:title=" ">
<path fill="none" stroke="#63b8ff" d="M767.08,-15C778.12,-15 789.53,-15 800.75,-15"/>
<polygon fill="#63b8ff" stroke="#63b8ff" points="800.98,-18.5 810.98,-15 800.98,-11.5 800.98,-18.5"/>
</a>
</g>
</g>
<!-- Node20 -->
<g id="Node000020" class="node">
<title>Node20</title>
<g id="a_Node000020"><a xlink:href="../../d4/d23/classTerraria_1_1ModLoader_1_1Core_1_1Cloning_ad5d16b3fb4335429f23e46f8defc0a91.html#ad5d16b3fb4335429f23e46f8defc0a91" target="_top" xlink:title=" ">
<polygon fill="white" stroke="#666666" points="1153,-30 1006,-30 1006,0 1153,0 1153,-30"/>
<text text-anchor="start" x="1014" y="-18" font-family="Helvetica,sans-Serif" font-size="10.00">Terraria.ModLoader.Core.</text>
<text text-anchor="middle" x="1079.5" y="-7" font-family="Helvetica,sans-Serif" font-size="10.00">Cloning.WarnNotCloneable</text>
</a>
</g>
</g>
<!-- Node19&#45;&gt;Node20 -->
<g id="edge19_Node000019_Node000020" class="edge">
<title>Node19&#45;&gt;Node20</title>
<g id="a_edge19_Node000019_Node000020"><a xlink:title=" ">
<path fill="none" stroke="#63b8ff" d="M970.26,-15C978.64,-15 987.17,-15 995.59,-15"/>
<polygon fill="#63b8ff" stroke="#63b8ff" points="995.78,-18.5 1005.78,-15 995.78,-11.5 995.78,-18.5"/>
</a>
</g>
</g>
<!-- Node21&#45;&gt;Node21 -->
<g id="edge21_Node000021_Node000021" class="edge">
<title>Node21&#45;&gt;Node21</title>
<g id="a_edge21_Node000021_Node000021"><a xlink:title=" ">
<path fill="none" stroke="#63b8ff" d="M240.41,-161.58C226.01,-170.23 235.88,-179.5 270,-179.5 293.46,-179.5 305.45,-175.12 305.98,-169.57"/>
<polygon fill="#63b8ff" stroke="#63b8ff" points="308.57,-167.21 299.59,-161.58 303.11,-171.58 308.57,-167.21"/>
</a>
</g>
</g>
</g>
</svg>
