<?xml version="1.0" encoding="UTF-8" standalone="no"?>
<!DOCTYPE svg PUBLIC "-//W3C//DTD SVG 1.1//EN"
 "http://www.w3.org/Graphics/SVG/1.1/DTD/svg11.dtd">
<!-- Generated by graphviz version 2.43.0 (0)
 -->
<!-- Title: Terraria.ModLoader.NPCLoader.OnChatButtonClicked Pages: 1 -->
<svg width="573pt" height="152pt"
 viewBox="0.00 0.00 573.00 152.00" xmlns="http://www.w3.org/2000/svg" xmlns:xlink="http://www.w3.org/1999/xlink">
<g id="graph0" class="graph" transform="scale(1 1) rotate(0) translate(4 148)">
<title>Terraria.ModLoader.NPCLoader.OnChatButtonClicked</title>
<!-- Node1 -->
<g id="Node000001" class="node">
<title>Node1</title>
<g id="a_Node000001"><a xlink:title=" ">
<polygon fill="#999999" stroke="#666666" points="168,-78 0,-78 0,-48 168,-48 168,-78"/>
<text text-anchor="start" x="8" y="-66" font-family="Helvetica,sans-Serif" font-size="10.00">Terraria.ModLoader.NPCLoader.</text>
<text text-anchor="middle" x="84" y="-55" font-family="Helvetica,sans-Serif" font-size="10.00">OnChatButtonClicked</text>
</a>
</g>
</g>
<!-- Node2 -->
<g id="Node000002" class="node">
<title>Node2</title>
<g id="a_Node000002"><a xlink:href="../../da/d1f/classTerraria_1_1ModLoader_1_1NPCShopDatabase_a244ae0a6493a00a64cbf3d948cd988a7.html#a244ae0a6493a00a64cbf3d948cd988a7" target="_top" xlink:title="Gets a shop name (identifier) in the format matching P:Terraria.ModLoader.AbstractNPCShop....">
<polygon fill="white" stroke="#666666" points="361,-144 204,-144 204,-114 361,-114 361,-144"/>
<text text-anchor="start" x="212" y="-132" font-family="Helvetica,sans-Serif" font-size="10.00">Terraria.ModLoader.NPCShop</text>
<text text-anchor="middle" x="282.5" y="-121" font-family="Helvetica,sans-Serif" font-size="10.00">Database.GetShopName</text>
</a>
</g>
</g>
<!-- Node1&#45;&gt;Node2 -->
<g id="edge1_Node000001_Node000002" class="edge">
<title>Node1&#45;&gt;Node2</title>
<g id="a_edge1_Node000001_Node000002"><a xlink:title=" ">
<path fill="none" stroke="#63b8ff" d="M126.44,-78.07C149.25,-86.26 178.11,-96.42 204,-105 209.88,-106.95 216.02,-108.93 222.17,-110.89"/>
<polygon fill="#63b8ff" stroke="#63b8ff" points="221.21,-114.25 231.8,-113.92 223.31,-107.58 221.21,-114.25"/>
</a>
</g>
</g>
<!-- Node4 -->
<g id="Node000004" class="node">
<title>Node4</title>
<g id="a_Node000004"><a xlink:href="../../d3/d78/classTerraria_1_1Audio_1_1SoundEngine_af55950ae09b294fad1dd58e37fecf28b.html#af55950ae09b294fad1dd58e37fecf28b" target="_top" xlink:title="Attempts to play a sound style with the provided sound style (if it&#39;s not null), and returns a valid ...">
<polygon fill="white" stroke="#666666" points="359,-78 206,-78 206,-48 359,-48 359,-78"/>
<text text-anchor="start" x="214" y="-66" font-family="Helvetica,sans-Serif" font-size="10.00">Terraria.Audio.SoundEngine.</text>
<text text-anchor="middle" x="282.5" y="-55" font-family="Helvetica,sans-Serif" font-size="10.00">PlaySound</text>
</a>
</g>
</g>
<!-- Node1&#45;&gt;Node4 -->
<g id="edge3_Node000001_Node000004" class="edge">
<title>Node1&#45;&gt;Node4</title>
<g id="a_edge3_Node000001_Node000004"><a xlink:title=" ">
<path fill="none" stroke="#63b8ff" d="M168.05,-63C177.18,-63 186.49,-63 195.66,-63"/>
<polygon fill="#63b8ff" stroke="#63b8ff" points="195.93,-66.5 205.93,-63 195.93,-59.5 195.93,-66.5"/>
</a>
</g>
</g>
<!-- Node5 -->
<g id="Node000005" class="node">
<title>Node5</title>
<g id="a_Node000005"><a xlink:href="../../da/dd5/classTerraria_1_1Main_a5782c2405fc70824701dfb27852cd052.html#a5782c2405fc70824701dfb27852cd052" target="_top" xlink:title=" ">
<polygon fill="white" stroke="#666666" points="354,-30 211,-30 211,0 354,0 354,-30"/>
<text text-anchor="start" x="219" y="-18" font-family="Helvetica,sans-Serif" font-size="10.00">Terraria.Main.SetNPCShop</text>
<text text-anchor="middle" x="282.5" y="-7" font-family="Helvetica,sans-Serif" font-size="10.00">Index</text>
</a>
</g>
</g>
<!-- Node1&#45;&gt;Node5 -->
<g id="edge5_Node000001_Node000005" class="edge">
<title>Node1&#45;&gt;Node5</title>
<g id="a_edge5_Node000001_Node000005"><a xlink:title=" ">
<path fill="none" stroke="#63b8ff" d="M146.63,-47.94C166.84,-43.01 189.47,-37.48 210.32,-32.39"/>
<polygon fill="#63b8ff" stroke="#63b8ff" points="211.2,-35.78 220.08,-30 209.54,-28.98 211.2,-35.78"/>
</a>
</g>
</g>
<!-- Node3 -->
<g id="Node000003" class="node">
<title>Node3</title>
<g id="a_Node000003"><a xlink:href="../../dd/dc6/classTerraria_1_1ModLoader_1_1NPCLoader_a1e9eae6ec444b4a23e1a809cfea3be94.html#a1e9eae6ec444b4a23e1a809cfea3be94" target="_top" xlink:title="Gets the ModNPC template instance corresponding to the specified type (not the clone/new instance whi...">
<polygon fill="white" stroke="#666666" points="565,-144 397,-144 397,-114 565,-114 565,-144"/>
<text text-anchor="start" x="405" y="-132" font-family="Helvetica,sans-Serif" font-size="10.00">Terraria.ModLoader.NPCLoader.</text>
<text text-anchor="middle" x="481" y="-121" font-family="Helvetica,sans-Serif" font-size="10.00">GetNPC</text>
</a>
</g>
</g>
<!-- Node2&#45;&gt;Node3 -->
<g id="edge2_Node000002_Node000003" class="edge">
<title>Node2&#45;&gt;Node3</title>
<g id="a_edge2_Node000002_Node000003"><a xlink:title=" ">
<path fill="none" stroke="#63b8ff" d="M361.16,-129C369.57,-129 378.18,-129 386.75,-129"/>
<polygon fill="#63b8ff" stroke="#63b8ff" points="386.76,-132.5 396.76,-129 386.76,-125.5 386.76,-132.5"/>
</a>
</g>
</g>
<!-- Node4&#45;&gt;Node4 -->
<g id="edge4_Node000004_Node000004" class="edge">
<title>Node4&#45;&gt;Node4</title>
<g id="a_edge4_Node000004_Node000004"><a xlink:title=" ">
<path fill="none" stroke="#63b8ff" d="M247.7,-78.28C239.96,-87.41 251.56,-96 282.5,-96 300.87,-96 312.42,-92.97 317.16,-88.6"/>
<polygon fill="#63b8ff" stroke="#63b8ff" points="320.66,-88.32 317.3,-78.28 313.66,-88.22 320.66,-88.32"/>
</a>
</g>
</g>
</g>
</svg>
