<?xml version="1.0" encoding="UTF-8" standalone="no"?>
<!DOCTYPE svg PUBLIC "-//W3C//DTD SVG 1.1//EN"
 "http://www.w3.org/Graphics/SVG/1.1/DTD/svg11.dtd">
<!-- Generated by graphviz version 2.43.0 (0)
 -->
<!-- Title: UwUPnP.Gateway.GetGenericPortMappingEntry Pages: 1 -->
<svg width="570pt" height="38pt"
 viewBox="0.00 0.00 570.00 38.00" xmlns="http://www.w3.org/2000/svg" xmlns:xlink="http://www.w3.org/1999/xlink">
<g id="graph0" class="graph" transform="scale(1 1) rotate(0) translate(4 34)">
<title>UwUPnP.Gateway.GetGenericPortMappingEntry</title>
<!-- Node1 -->
<g id="Node000001" class="node">
<title>Node1</title>
<g id="a_Node000001"><a xlink:title="2.4.14.GetGenericPortMappingEntry">
<polygon fill="#999999" stroke="#666666" points="562,-30 403,-30 403,0 562,0 562,-30"/>
<text text-anchor="start" x="411" y="-18" font-family="Helvetica,sans-Serif" font-size="10.00">UwUPnP.Gateway.GetGeneric</text>
<text text-anchor="middle" x="482.5" y="-7" font-family="Helvetica,sans-Serif" font-size="10.00">PortMappingEntry</text>
</a>
</g>
</g>
<!-- Node2 -->
<g id="Node000002" class="node">
<title>Node2</title>
<g id="a_Node000002"><a xlink:href="../../d1/dbc/classUwUPnP_1_1UPnP_af2f6cc41d3a3732989cba1e3b56687a1.html#af2f6cc41d3a3732989cba1e3b56687a1" target="_top" xlink:title=" ">
<polygon fill="white" stroke="#666666" points="367,-30 206,-30 206,0 367,0 367,-30"/>
<text text-anchor="start" x="214" y="-18" font-family="Helvetica,sans-Serif" font-size="10.00">UwUPnP.UPnP.GetGenericPort</text>
<text text-anchor="middle" x="286.5" y="-7" font-family="Helvetica,sans-Serif" font-size="10.00">MappingEntry</text>
</a>
</g>
</g>
<!-- Node1&#45;&gt;Node2 -->
<g id="edge1_Node000001_Node000002" class="edge">
<title>Node1&#45;&gt;Node2</title>
<g id="a_edge1_Node000001_Node000002"><a xlink:title=" ">
<path fill="none" stroke="#63b8ff" d="M392.59,-15C384.12,-15 375.56,-15 367.19,-15"/>
<polygon fill="#63b8ff" stroke="#63b8ff" points="392.87,-18.5 402.87,-15 392.87,-11.5 392.87,-18.5"/>
</a>
</g>
</g>
<!-- Node3 -->
<g id="Node000003" class="node">
<title>Node3</title>
<g id="a_Node000003"><a xlink:href="../../da/dc3/classNATUPNPLib_1_1UPnPNAT_1_1MappingCollection_ac32b989871f5953604c224062ce8a4a7.html#ac32b989871f5953604c224062ce8a4a7" target="_top" xlink:title=" ">
<polygon fill="white" stroke="#666666" points="170,-30 0,-30 0,0 170,0 170,-30"/>
<text text-anchor="start" x="8" y="-18" font-family="Helvetica,sans-Serif" font-size="10.00">NATUPNPLib.UPnPNAT.Mapping</text>
<text text-anchor="middle" x="85" y="-7" font-family="Helvetica,sans-Serif" font-size="10.00">Collection.GetEnumerator</text>
</a>
</g>
</g>
<!-- Node2&#45;&gt;Node3 -->
<g id="edge2_Node000002_Node000003" class="edge">
<title>Node2&#45;&gt;Node3</title>
<g id="a_edge2_Node000002_Node000003"><a xlink:title=" ">
<path fill="none" stroke="#63b8ff" d="M195.55,-15C187.1,-15 178.55,-15 170.16,-15"/>
<polygon fill="#63b8ff" stroke="#63b8ff" points="195.79,-18.5 205.79,-15 195.79,-11.5 195.79,-18.5"/>
</a>
</g>
</g>
</g>
</svg>
