<?xml version="1.0" encoding="UTF-8" standalone="no"?>
<!DOCTYPE svg PUBLIC "-//W3C//DTD SVG 1.1//EN"
 "http://www.w3.org/Graphics/SVG/1.1/DTD/svg11.dtd">
<!-- Generated by graphviz version 2.43.0 (0)
 -->
<!-- Title: Terraria.ModLoader.ExtraJump.ShowVisuals Pages: 1 -->
<svg width="666pt" height="38pt"
 viewBox="0.00 0.00 666.00 38.00" xmlns="http://www.w3.org/2000/svg" xmlns:xlink="http://www.w3.org/1999/xlink">
<g id="graph0" class="graph" transform="scale(1 1) rotate(0) translate(4 34)">
<title>Terraria.ModLoader.ExtraJump.ShowVisuals</title>
<!-- Node1 -->
<g id="Node000001" class="node">
<title>Node1</title>
<g id="a_Node000001"><a xlink:title="Spawn effects that should appear while the player is performing this jump here. &#160;Only runs while the ...">
<polygon fill="#999999" stroke="#666666" points="658,-30 520,-30 520,0 658,0 658,-30"/>
<text text-anchor="start" x="528" y="-18" font-family="Helvetica,sans-Serif" font-size="10.00">Terraria.ModLoader.Extra</text>
<text text-anchor="middle" x="589" y="-7" font-family="Helvetica,sans-Serif" font-size="10.00">Jump.ShowVisuals</text>
</a>
</g>
</g>
<!-- Node2 -->
<g id="Node000002" class="node">
<title>Node2</title>
<g id="a_Node000002"><a xlink:href="../../d7/d95/classTerraria_1_1ModLoader_1_1ExtraJumpLoader_a63dce5e7c530d68e36c3e45a11739113.html#a63dce5e7c530d68e36c3e45a11739113" target="_top" xlink:title=" ">
<polygon fill="white" stroke="#666666" points="484,-30 346,-30 346,0 484,0 484,-30"/>
<text text-anchor="start" x="354" y="-18" font-family="Helvetica,sans-Serif" font-size="10.00">Terraria.ModLoader.Extra</text>
<text text-anchor="middle" x="415" y="-7" font-family="Helvetica,sans-Serif" font-size="10.00">JumpLoader.JumpVisuals</text>
</a>
</g>
</g>
<!-- Node1&#45;&gt;Node2 -->
<g id="edge1_Node000001_Node000002" class="edge">
<title>Node1&#45;&gt;Node2</title>
<g id="a_edge1_Node000001_Node000002"><a xlink:title=" ">
<path fill="none" stroke="#63b8ff" d="M509.36,-15C500.97,-15 492.49,-15 484.24,-15"/>
<polygon fill="#63b8ff" stroke="#63b8ff" points="509.53,-18.5 519.53,-15 509.53,-11.5 509.53,-18.5"/>
</a>
</g>
</g>
<!-- Node3 -->
<g id="Node000003" class="node">
<title>Node3</title>
<g id="a_Node000003"><a xlink:href="../../d4/d03/classTerraria_1_1Player_a93345fa8fb616b3b3ea6bef542f0e938.html#a93345fa8fb616b3b3ea6bef542f0e938" target="_top" xlink:title=" ">
<polygon fill="white" stroke="#666666" points="310,-30 161,-30 161,0 310,0 310,-30"/>
<text text-anchor="start" x="169" y="-18" font-family="Helvetica,sans-Serif" font-size="10.00">Terraria.Player.DoubleJump</text>
<text text-anchor="middle" x="235.5" y="-7" font-family="Helvetica,sans-Serif" font-size="10.00">Visuals</text>
</a>
</g>
</g>
<!-- Node2&#45;&gt;Node3 -->
<g id="edge2_Node000002_Node000003" class="edge">
<title>Node2&#45;&gt;Node3</title>
<g id="a_edge2_Node000002_Node000003"><a xlink:title=" ">
<path fill="none" stroke="#63b8ff" d="M335.6,-15C327.1,-15 318.48,-15 310.04,-15"/>
<polygon fill="#63b8ff" stroke="#63b8ff" points="335.88,-18.5 345.88,-15 335.88,-11.5 335.88,-18.5"/>
</a>
</g>
</g>
<!-- Node4 -->
<g id="Node000004" class="node">
<title>Node4</title>
<g id="a_Node000004"><a xlink:href="../../d4/d03/classTerraria_1_1Player_af44290f5d38b6d5076a5fa8d6ee3dd12.html#af44290f5d38b6d5076a5fa8d6ee3dd12" target="_top" xlink:title=" ">
<polygon fill="white" stroke="#666666" points="125,-24.5 0,-24.5 0,-5.5 125,-5.5 125,-24.5"/>
<text text-anchor="middle" x="62.5" y="-12.5" font-family="Helvetica,sans-Serif" font-size="10.00">Terraria.Player.Update</text>
</a>
</g>
</g>
<!-- Node3&#45;&gt;Node4 -->
<g id="edge3_Node000003_Node000004" class="edge">
<title>Node3&#45;&gt;Node4</title>
<g id="a_edge3_Node000003_Node000004"><a xlink:title=" ">
<path fill="none" stroke="#63b8ff" d="M150.85,-15C142.19,-15 133.5,-15 125.14,-15"/>
<polygon fill="#63b8ff" stroke="#63b8ff" points="150.99,-18.5 160.99,-15 150.99,-11.5 150.99,-18.5"/>
</a>
</g>
</g>
</g>
</svg>
