<?xml version="1.0" encoding="UTF-8" standalone="no"?>
<!DOCTYPE svg PUBLIC "-//W3C//DTD SVG 1.1//EN"
 "http://www.w3.org/Graphics/SVG/1.1/DTD/svg11.dtd">
<!-- Generated by graphviz version 2.43.0 (0)
 -->
<!-- Title: Terraria.ModLoader.Config.UI.Vector2Element.OnBind Pages: 1 -->
<!--zoomable 152 -->

<svg id="main" version="1.1" xmlns="http://www.w3.org/2000/svg" xmlns:xlink="http://www.w3.org/1999/xlink" xml:space="preserve" onload="init(evt)">
<style type="text/css"><![CDATA[
.node, .edge {opacity: 0.7;}
.node.selected, .edge.selected {opacity: 1;}
.edge:hover path { stroke: red; }
.edge:hover polygon { stroke: red; fill: red; }
]]></style>

<defs>
  <circle id="rim" cx="0" cy="0" r="7"/>
  <circle id="rim2" cx="0" cy="0" r="3.5"/>
  <g id="zoomPlus">
    <use xlink:href="#rim" fill="#404040"><set attributeName="fill" to="#808080" begin="zoomplus.mouseover" end="zoomplus.mouseout"/></use>
    <path d="M-4,0h8M0,-4v8" fill="none" stroke="white" stroke-width="1.5" pointer-events="none"/>
  </g>
  <g id="zoomMin">
    <use xlink:href="#rim" fill="#404040"><set attributeName="fill" to="#808080" begin="zoomminus.mouseover" end="zoomminus.mouseout"/></use>
    <path d="M-4,0h8" fill="none" stroke="white" stroke-width="1.5" pointer-events="none"/>
  </g>
  <g id="arrowUp" transform="translate(30 24)">
    <use xlink:href="#rim"/>
    <path pointer-events="none" fill="none" stroke="white" stroke-width="1.5" d="M0,-3.0v7 M-2.5,-0.5L0,-3.0L2.5,-0.5"/>
  </g>
  <g id="arrowRight" transform="rotate(90) translate(36 -43)">
    <use xlink:href="#rim"/>
    <path pointer-events="none" fill="none" stroke="white" stroke-width="1.5" d="M0,-3.0v7 M-2.5,-0.5L0,-3.0L2.5,-0.5"/>
  </g>
  <g id="arrowDown" transform="rotate(180) translate(-30 -48)">
    <use xlink:href="#rim"/>
    <path pointer-events="none" fill="none" stroke="white" stroke-width="1.5" d="M0,-3.0v7 M-2.5,-0.5L0,-3.0L2.5,-0.5"/>
  </g>
  <g id="arrowLeft" transform="rotate(270) translate(-36 17)">
    <use xlink:href="#rim"/>
    <path pointer-events="none" fill="none" stroke="white" stroke-width="1.5" d="M0,-3.0v7 M-2.5,-0.5L0,-3.0L2.5,-0.5"/>
  </g>
  <g id="resetDef">
    <use xlink:href="#rim2" fill="#404040"><set attributeName="fill" to="#808080" begin="reset.mouseover" end="reset.mouseout"/></use>
  </g>
</defs>
<script type="application/ecmascript">
var viewWidth = 614;
var viewHeight = 152;
var sectionId = 'dynsection-0';
</script>
<script type="application/ecmascript" xlink:href="../../svg.min.js"/>
<svg id="graph" class="graph">
<g id="viewport">
<title>Terraria.ModLoader.Config.UI.Vector2Element.OnBind</title>
<!-- Node1 -->
<g id="Node000001" class="node">
<title>Node1</title>
<g id="a_Node000001"><a xlink:title=" ">
<polygon fill="#999999" stroke="#666666" points="146,-102 0,-102 0,-72 146,-72 146,-102"/>
<text text-anchor="start" x="8" y="-90" font-family="Helvetica,sans-Serif" font-size="10.00">Terraria.ModLoader.Config.</text>
<text text-anchor="middle" x="73" y="-79" font-family="Helvetica,sans-Serif" font-size="10.00">UI.Vector2Element.OnBind</text>
</a>
</g>
</g>
<!-- Node2 -->
<g id="Node000002" class="node">
<title>Node2</title>
<g id="a_Node000002"><a xlink:href="../../d5/d69/classTerraria_1_1ModLoader_1_1Config_1_1ConfigManager_abb73b63d5c3352797db2ad6189f4dcfb.html#abb73b63d5c3352797db2ad6189f4dcfb" target="_top" xlink:title=" ">
<polygon fill="white" stroke="#666666" points="388,-126 182,-126 182,-96 388,-96 388,-126"/>
<text text-anchor="start" x="190" y="-114" font-family="Helvetica,sans-Serif" font-size="10.00">Terraria.ModLoader.Config.</text>
<text text-anchor="middle" x="285" y="-103" font-family="Helvetica,sans-Serif" font-size="10.00">ConfigManager.GetFieldsAndProperties</text>
</a>
</g>
</g>
<!-- Node1&#45;&gt;Node2 -->
<g id="edge1_Node000001_Node000002" class="edge">
<title>Node1&#45;&gt;Node2</title>
<g id="a_edge1_Node000001_Node000002"><a xlink:title=" ">
<path fill="none" stroke="#63b8ff" d="M146.27,-95.26C154.54,-96.2 163.11,-97.18 171.75,-98.17"/>
<polygon fill="#63b8ff" stroke="#63b8ff" points="171.58,-101.67 181.91,-99.33 172.37,-94.72 171.58,-101.67"/>
</a>
</g>
</g>
<!-- Node3 -->
<g id="Node000003" class="node">
<title>Node3</title>
<g id="a_Node000003"><a xlink:href="../../d6/d3f/classTerraria_1_1ModLoader_1_1Config_1_1UI_1_1UIModConfig_aa5415899424b18a2f8b1642a2d654ab9.html#aa5415899424b18a2f8b1642a2d654ab9" target="_top" xlink:title=" ">
<polygon fill="white" stroke="#666666" points="358,-78 212,-78 212,-48 358,-48 358,-78"/>
<text text-anchor="start" x="220" y="-66" font-family="Helvetica,sans-Serif" font-size="10.00">Terraria.ModLoader.Config.</text>
<text text-anchor="middle" x="285" y="-55" font-family="Helvetica,sans-Serif" font-size="10.00">UI.UIModConfig.WrapIt</text>
</a>
</g>
</g>
<!-- Node1&#45;&gt;Node3 -->
<g id="edge3_Node000001_Node000003" class="edge">
<title>Node1&#45;&gt;Node3</title>
<g id="a_edge3_Node000001_Node000003"><a xlink:title=" ">
<path fill="none" stroke="#63b8ff" d="M146.27,-78.74C164.19,-76.69 183.52,-74.48 201.87,-72.39"/>
<polygon fill="#63b8ff" stroke="#63b8ff" points="202.41,-75.85 211.95,-71.23 201.62,-68.89 202.41,-75.85"/>
</a>
</g>
</g>
<!-- Node2&#45;&gt;Node2 -->
<g id="edge2_Node000002_Node000002" class="edge">
<title>Node2&#45;&gt;Node2</title>
<g id="a_edge2_Node000002_Node000002"><a xlink:title=" ">
<path fill="none" stroke="#63b8ff" d="M247.73,-126.28C239.45,-135.41 251.88,-144 285,-144 304.67,-144 317.04,-140.97 322.11,-136.6"/>
<polygon fill="#63b8ff" stroke="#63b8ff" points="325.61,-136.33 322.27,-126.28 318.61,-136.22 325.61,-136.33"/>
</a>
</g>
</g>
<!-- Node4 -->
<g id="Node000004" class="node">
<title>Node4</title>
<g id="a_Node000004"><a xlink:href="../../d7/d72/classTerraria_1_1UI_1_1UIElement_a0505f97ff1fad3dcbaf3a1b399d5a23b.html#a0505f97ff1fad3dcbaf3a1b399d5a23b" target="_top" xlink:title=" ">
<polygon fill="white" stroke="#666666" points="602.5,-115.5 427.5,-115.5 427.5,-96.5 602.5,-96.5 602.5,-115.5"/>
<text text-anchor="middle" x="515" y="-103.5" font-family="Helvetica,sans-Serif" font-size="10.00">Terraria.UI.UIElement.UIElement</text>
</a>
</g>
</g>
<!-- Node3&#45;&gt;Node4 -->
<g id="edge4_Node000003_Node000004" class="edge">
<title>Node3&#45;&gt;Node4</title>
<g id="a_edge4_Node000003_Node000004"><a xlink:title=" ">
<path fill="none" stroke="#63b8ff" d="M358.14,-76.61C388.83,-82.39 424.23,-89.07 453.52,-94.59"/>
<polygon fill="#63b8ff" stroke="#63b8ff" points="453.14,-98.08 463.61,-96.5 454.43,-91.2 453.14,-98.08"/>
</a>
</g>
</g>
<!-- Node5 -->
<g id="Node000005" class="node">
<title>Node5</title>
<g id="a_Node000005"><a xlink:href="../../d6/d3f/classTerraria_1_1ModLoader_1_1Config_1_1UI_1_1UIModConfig_a0042f8ac6b84ba7d0a9aa61f030444d5.html#a0042f8ac6b84ba7d0a9aa61f030444d5" target="_top" xlink:title=" ">
<polygon fill="white" stroke="#666666" points="595,-78 435,-78 435,-48 595,-48 595,-78"/>
<text text-anchor="start" x="443" y="-66" font-family="Helvetica,sans-Serif" font-size="10.00">Terraria.ModLoader.Config.</text>
<text text-anchor="middle" x="515" y="-55" font-family="Helvetica,sans-Serif" font-size="10.00">UI.UIModConfig.GetContainer</text>
</a>
</g>
</g>
<!-- Node3&#45;&gt;Node5 -->
<g id="edge5_Node000003_Node000005" class="edge">
<title>Node3&#45;&gt;Node5</title>
<g id="a_edge5_Node000003_Node000005"><a xlink:title=" ">
<path fill="none" stroke="#63b8ff" d="M358.14,-63C379.3,-63 402.69,-63 424.77,-63"/>
<polygon fill="#63b8ff" stroke="#63b8ff" points="424.82,-66.5 434.82,-63 424.82,-59.5 424.82,-66.5"/>
</a>
</g>
</g>
<!-- Node6 -->
<g id="Node000006" class="node">
<title>Node6</title>
<g id="a_Node000006"><a xlink:href="../../d8/ddf/classTerraria_1_1ModLoader_1_1Config_1_1UI_1_1PropertyFieldWrapper_a2c13a9adcb2476f32cb803ee797485d6.html#a2c13a9adcb2476f32cb803ee797485d6" target="_top" xlink:title=" ">
<polygon fill="white" stroke="#666666" points="606,-30 424,-30 424,0 606,0 606,-30"/>
<text text-anchor="start" x="432" y="-18" font-family="Helvetica,sans-Serif" font-size="10.00">Terraria.ModLoader.Config.</text>
<text text-anchor="middle" x="515" y="-7" font-family="Helvetica,sans-Serif" font-size="10.00">UI.PropertyFieldWrapper.GetValue</text>
</a>
</g>
</g>
<!-- Node3&#45;&gt;Node6 -->
<g id="edge6_Node000003_Node000006" class="edge">
<title>Node3&#45;&gt;Node6</title>
<g id="a_edge6_Node000003_Node000006"><a xlink:title=" ">
<path fill="none" stroke="#63b8ff" d="M357.52,-47.94C381.39,-42.92 408.17,-37.28 432.73,-32.11"/>
<polygon fill="#63b8ff" stroke="#63b8ff" points="433.67,-35.49 442.74,-30 432.23,-28.64 433.67,-35.49"/>
</a>
</g>
</g>
</g>
</svg>

<g id="navigator" transform="translate(0 0)" fill="#404254">
  <rect fill="#f2f5e9" fill-opacity="0.5" stroke="#606060" stroke-width=".5" x="0" y="0" width="60" height="60"/>
  <use id="zoomplus" xlink:href="#zoomPlus" x="17" y="9" onmousedown="handleZoom(evt,'in')"/>
  <use id="zoomminus" xlink:href="#zoomMin" x="42" y="9" onmousedown="handleZoom(evt,'out')"/>
  <use id="reset" xlink:href="#resetDef" x="30" y="36" onmousedown="handleReset()"/>
   <use id="arrowup" xlink:href="#arrowUp" x="0" y="0" onmousedown="handlePan(0,-1)"/>
  <use id="arrowright" xlink:href="#arrowRight" x="0" y="0" onmousedown="handlePan(1,0)"/>
  <use id="arrowdown" xlink:href="#arrowDown" x="0" y="0" onmousedown="handlePan(0,1)"/>
  <use id="arrowleft" xlink:href="#arrowLeft" x="0" y="0" onmousedown="handlePan(-1,0)"/>
</g>
<svg viewBox="0 0 15 15" width="100%" height="30px" preserveAspectRatio="xMaxYMin meet">
 <g id="arrow_out" transform="scale(0.3 0.3)">
  <a xlink:href="classTerraria_1_1ModLoader_1_1Config_1_1UI_1_1Vector2Element_aaeb8e17b6653888e9be4a9e4812a1e95_aaeb8e17b6653888e9be4a9e4812a1e95_cgraph_org.svg" target="_base">
   <rect id="button" ry="5" rx="5" y="6" x="6" height="38" width="38"
        fill="#f2f5e9" fill-opacity="0.5" stroke="#606060" stroke-width="1.0"/>
   <path id="arrow"
     d="M 11.500037,31.436501 C 11.940474,20.09759 22.043105,11.32322 32.158766,21.979434 L 37.068811,17.246167 C 37.068811,17.246167 37.088388,32 37.088388,32 L 22.160133,31.978069 C 22.160133,31.978069 26.997745,27.140456 26.997745,27.140456 C 18.528582,18.264221 13.291696,25.230495 11.500037,31.436501 z"
     style="fill:#404040;"/>
  </a>
 </g>
</svg>

<style type='text/css'>
<![CDATA[
[data-mouse-over-selected='false'] { opacity: 0.7; }
[data-mouse-over-selected='true']  { opacity: 1.0; }
]]>
</style>
<script type="application/ecmascript"><![CDATA[
document.addEventListener('DOMContentLoaded', (event) => {
  highlightEdges();
  highlightAdjacentNodes();
});
]]></script>
</svg>
