<?xml version="1.0" encoding="UTF-8" standalone="no"?>
<!DOCTYPE svg PUBLIC "-//W3C//DTD SVG 1.1//EN"
 "http://www.w3.org/Graphics/SVG/1.1/DTD/svg11.dtd">
<!-- Generated by graphviz version 2.43.0 (0)
 -->
<!-- Title: Terraria.UI.UserInterface.Recalculate Pages: 1 -->
<svg width="2010pt" height="480pt"
 viewBox="0.00 0.00 2010.00 480.05" xmlns="http://www.w3.org/2000/svg" xmlns:xlink="http://www.w3.org/1999/xlink">
<g id="graph0" class="graph" transform="scale(1 1) rotate(0) translate(4 476.05)">
<title>Terraria.UI.UserInterface.Recalculate</title>
<!-- Node1 -->
<g id="Node000001" class="node">
<title>Node1</title>
<g id="a_Node000001"><a xlink:title=" ">
<polygon fill="#999999" stroke="#666666" points="2002,-154 1863,-154 1863,-124 2002,-124 2002,-154"/>
<text text-anchor="start" x="1871" y="-142" font-family="Helvetica,sans-Serif" font-size="10.00">Terraria.UI.UserInterface.</text>
<text text-anchor="middle" x="1932.5" y="-131" font-family="Helvetica,sans-Serif" font-size="10.00">Recalculate</text>
</a>
</g>
</g>
<!-- Node2 -->
<g id="Node000002" class="node">
<title>Node2</title>
<g id="a_Node000002"><a xlink:href="../../da/dd5/classTerraria_1_1Main_a2b453fcd0bee550a37b8d5a90fdbda4c.html#a2b453fcd0bee550a37b8d5a90fdbda4c" target="_top" xlink:title=" ">
<polygon fill="white" stroke="#666666" points="1627,-35.5 1475,-35.5 1475,-16.5 1627,-16.5 1627,-35.5"/>
<text text-anchor="middle" x="1551" y="-23.5" font-family="Helvetica,sans-Serif" font-size="10.00">Terraria.Main.PreDrawMenu</text>
</a>
</g>
</g>
<!-- Node1&#45;&gt;Node2 -->
<g id="edge1_Node000001_Node000002" class="edge">
<title>Node1&#45;&gt;Node2</title>
<g id="a_edge1_Node000001_Node000002"><a xlink:title=" ">
<path fill="none" stroke="#63b8ff" d="M1871.49,-121.13C1790.04,-96.88 1647.41,-54.41 1583.98,-35.52"/>
<polygon fill="#63b8ff" stroke="#63b8ff" points="1870.52,-124.5 1881.11,-123.99 1872.52,-117.79 1870.52,-124.5"/>
</a>
</g>
</g>
<!-- Node6 -->
<g id="Node000006" class="node">
<title>Node6</title>
<g id="a_Node000006"><a xlink:href="../../da/dd5/classTerraria_1_1Main_ad483d085ab9eae95b981db328f9997cb.html#ad483d085ab9eae95b981db328f9997cb" target="_top" xlink:title=" ">
<polygon fill="white" stroke="#666666" points="1429,-350.5 1266,-350.5 1266,-331.5 1429,-331.5 1429,-350.5"/>
<text text-anchor="middle" x="1347.5" y="-338.5" font-family="Helvetica,sans-Serif" font-size="10.00">Terraria.Main.SetDisplayMode</text>
</a>
</g>
</g>
<!-- Node1&#45;&gt;Node6 -->
<g id="edge5_Node000001_Node000006" class="edge">
<title>Node1&#45;&gt;Node6</title>
<g id="a_edge5_Node000001_Node000006"><a xlink:title=" ">
<path fill="none" stroke="#63b8ff" d="M1878.41,-157.4C1757.92,-199.14 1467.2,-299.87 1376.21,-331.4"/>
<polygon fill="#63b8ff" stroke="#63b8ff" points="1879.85,-160.6 1888.16,-154.02 1877.56,-153.98 1879.85,-160.6"/>
</a>
</g>
</g>
<!-- Node22 -->
<g id="Node000022" class="node">
<title>Node22</title>
<g id="a_Node000022"><a xlink:href="../../dc/dc4/classTerraria_1_1UI_1_1UserInterface_ac02d3eb3610b39ef6883bf10e4eee199.html#ac02d3eb3610b39ef6883bf10e4eee199" target="_top" xlink:title=" ">
<polygon fill="white" stroke="#666666" points="1827,-148.5 1669,-148.5 1669,-129.5 1827,-129.5 1827,-148.5"/>
<text text-anchor="middle" x="1748" y="-136.5" font-family="Helvetica,sans-Serif" font-size="10.00">Terraria.UI.UserInterface.Use</text>
</a>
</g>
</g>
<!-- Node1&#45;&gt;Node22 -->
<g id="edge33_Node000001_Node000022" class="edge">
<title>Node1&#45;&gt;Node22</title>
<g id="a_edge33_Node000001_Node000022"><a xlink:title=" ">
<path fill="none" stroke="#63b8ff" d="M1852.58,-139C1844.15,-139 1835.58,-139 1827.17,-139"/>
<polygon fill="#63b8ff" stroke="#63b8ff" points="1852.76,-142.5 1862.76,-139 1852.76,-135.5 1852.76,-142.5"/>
</a>
</g>
</g>
<!-- Node3 -->
<g id="Node000003" class="node">
<title>Node3</title>
<g id="a_Node000003"><a xlink:href="../../da/dd5/classTerraria_1_1Main_a474beeecaea4d6dd108fba56cd554d46.html#a474beeecaea4d6dd108fba56cd554d46" target="_top" xlink:title=" ">
<polygon fill="white" stroke="#666666" points="426.5,-238.5 304.5,-238.5 304.5,-219.5 426.5,-219.5 426.5,-238.5"/>
<text text-anchor="middle" x="365.5" y="-226.5" font-family="Helvetica,sans-Serif" font-size="10.00">Terraria.Main.DoDraw</text>
</a>
</g>
</g>
<!-- Node2&#45;&gt;Node3 -->
<g id="edge2_Node000002_Node000003" class="edge">
<title>Node2&#45;&gt;Node3</title>
<g id="a_edge2_Node000002_Node000003"><a xlink:title=" ">
<path fill="none" stroke="#63b8ff" d="M1464.66,-17.24C1383.64,-9.69 1258.42,0 1149.5,0 1149.5,0 1149.5,0 756,0 579.9,0 413.12,-176.11 374.74,-219.45"/>
<polygon fill="#63b8ff" stroke="#63b8ff" points="1464.52,-20.75 1474.8,-18.2 1465.18,-13.78 1464.52,-20.75"/>
</a>
</g>
</g>
<!-- Node4 -->
<g id="Node000004" class="node">
<title>Node4</title>
<g id="a_Node000004"><a xlink:href="../../da/dd5/classTerraria_1_1Main_aa597dbafa085227bb056d05d0b0f9abe.html#aa597dbafa085227bb056d05d0b0f9abe" target="_top" xlink:title=" ">
<polygon fill="white" stroke="#666666" points="254,-265 145,-265 145,-235 254,-235 254,-265"/>
<text text-anchor="start" x="153" y="-253" font-family="Helvetica,sans-Serif" font-size="10.00">Terraria.Main.Draw</text>
<text text-anchor="middle" x="199.5" y="-242" font-family="Helvetica,sans-Serif" font-size="10.00">_Inner</text>
</a>
</g>
</g>
<!-- Node3&#45;&gt;Node4 -->
<g id="edge3_Node000003_Node000004" class="edge">
<title>Node3&#45;&gt;Node4</title>
<g id="a_edge3_Node000003_Node000004"><a xlink:title=" ">
<path fill="none" stroke="#63b8ff" d="M294.2,-238C280.78,-239.72 266.92,-241.49 254.12,-243.13"/>
<polygon fill="#63b8ff" stroke="#63b8ff" points="294.89,-241.44 304.36,-236.7 294,-234.5 294.89,-241.44"/>
</a>
</g>
</g>
<!-- Node5 -->
<g id="Node000005" class="node">
<title>Node5</title>
<g id="a_Node000005"><a xlink:href="../../da/dd5/classTerraria_1_1Main_a516aa31311860bad4242ade32e5effcd.html#a516aa31311860bad4242ade32e5effcd" target="_top" xlink:title=" ">
<polygon fill="white" stroke="#666666" points="109,-259.5 0,-259.5 0,-240.5 109,-240.5 109,-259.5"/>
<text text-anchor="middle" x="54.5" y="-247.5" font-family="Helvetica,sans-Serif" font-size="10.00">Terraria.Main.Draw</text>
</a>
</g>
</g>
<!-- Node4&#45;&gt;Node5 -->
<g id="edge4_Node000004_Node000005" class="edge">
<title>Node4&#45;&gt;Node5</title>
<g id="a_edge4_Node000004_Node000005"><a xlink:title=" ">
<path fill="none" stroke="#63b8ff" d="M134.68,-250C126.25,-250 117.69,-250 109.46,-250"/>
<polygon fill="#63b8ff" stroke="#63b8ff" points="134.85,-253.5 144.85,-250 134.85,-246.5 134.85,-253.5"/>
</a>
</g>
</g>
<!-- Node7 -->
<g id="Node000007" class="node">
<title>Node7</title>
<g id="a_Node000007"><a xlink:href="../../da/dd5/classTerraria_1_1Main_a33ebcc7c2ffd00538f8d513334d41df1.html#a33ebcc7c2ffd00538f8d513334d41df1" target="_top" xlink:title=" ">
<polygon fill="white" stroke="#666666" points="1025.5,-402 892.5,-402 892.5,-372 1025.5,-372 1025.5,-402"/>
<text text-anchor="start" x="900.5" y="-390" font-family="Helvetica,sans-Serif" font-size="10.00">Terraria.Main.Fullscreen</text>
<text text-anchor="middle" x="959" y="-379" font-family="Helvetica,sans-Serif" font-size="10.00">Startup</text>
</a>
</g>
</g>
<!-- Node6&#45;&gt;Node7 -->
<g id="edge6_Node000006_Node000007" class="edge">
<title>Node6&#45;&gt;Node7</title>
<g id="a_edge6_Node000006_Node000007"><a xlink:title=" ">
<path fill="none" stroke="#63b8ff" d="M1255.74,-343.99C1201.82,-346.66 1132.24,-351.66 1071,-361 1053.1,-363.73 1033.81,-367.83 1016.42,-371.97"/>
<polygon fill="#63b8ff" stroke="#63b8ff" points="1256.14,-347.47 1265.96,-343.5 1255.8,-340.48 1256.14,-347.47"/>
</a>
</g>
</g>
<!-- Node8 -->
<g id="Node000008" class="node">
<title>Node8</title>
<g id="a_Node000008"><a xlink:href="../../da/dd5/classTerraria_1_1Main_af31eb711f61c1646b4c3ddc8c5ab53d8.html#af31eb711f61c1646b4c3ddc8c5ab53d8" target="_top" xlink:title=" ">
<polygon fill="white" stroke="#666666" points="830,-441.5 684,-441.5 684,-422.5 830,-422.5 830,-441.5"/>
<text text-anchor="middle" x="757" y="-429.5" font-family="Helvetica,sans-Serif" font-size="10.00">Terraria.Main.LoadSettings</text>
</a>
</g>
</g>
<!-- Node6&#45;&gt;Node8 -->
<g id="edge19_Node000006_Node000008" class="edge">
<title>Node6&#45;&gt;Node8</title>
<g id="a_edge19_Node000006_Node000008"><a xlink:title=" ">
<path fill="none" stroke="#63b8ff" d="M1328.55,-357.61C1306.27,-377.23 1266.27,-409.32 1226,-426 1084.51,-484.61 1035.28,-475.26 883,-459 851.98,-455.69 817.36,-447.88 792.43,-441.51"/>
<polygon fill="#63b8ff" stroke="#63b8ff" points="1331.08,-360.04 1336.19,-350.75 1326.41,-354.83 1331.08,-360.04"/>
</a>
</g>
</g>
<!-- Node14 -->
<g id="Node000014" class="node">
<title>Node14</title>
<g id="a_Node000014"><a xlink:href="../../da/dd5/classTerraria_1_1Main_aeb8c9a26d9489a57219d500ca0187b93.html#aeb8c9a26d9489a57219d500ca0187b93" target="_top" xlink:title=" ">
<polygon fill="white" stroke="#666666" points="1030.5,-450 887.5,-450 887.5,-420 1030.5,-420 1030.5,-450"/>
<text text-anchor="start" x="895.5" y="-438" font-family="Helvetica,sans-Serif" font-size="10.00">Terraria.Main.OpenLegacy</text>
<text text-anchor="middle" x="959" y="-427" font-family="Helvetica,sans-Serif" font-size="10.00">Settings</text>
</a>
</g>
</g>
<!-- Node6&#45;&gt;Node14 -->
<g id="edge20_Node000006_Node000014" class="edge">
<title>Node6&#45;&gt;Node14</title>
<g id="a_edge20_Node000006_Node000014"><a xlink:title=" ">
<path fill="none" stroke="#63b8ff" d="M1321.66,-355.51C1297.9,-368.71 1260.65,-387.66 1226,-398 1161.44,-417.27 1085.01,-426.57 1030.68,-431.02"/>
<polygon fill="#63b8ff" stroke="#63b8ff" points="1323.38,-358.55 1330.37,-350.59 1319.94,-352.46 1323.38,-358.55"/>
</a>
</g>
</g>
<!-- Node15 -->
<g id="Node000015" class="node">
<title>Node15</title>
<g id="a_Node000015"><a xlink:href="../../da/dd5/classTerraria_1_1Main_a635c2c8101a6e453a46178b00a709acb.html#a635c2c8101a6e453a46178b00a709acb" target="_top" xlink:title=" ">
<polygon fill="white" stroke="#666666" points="1223,-388.5 1074,-388.5 1074,-369.5 1223,-369.5 1223,-388.5"/>
<text text-anchor="middle" x="1148.5" y="-376.5" font-family="Helvetica,sans-Serif" font-size="10.00">Terraria.Main.SetFullScreen</text>
</a>
</g>
</g>
<!-- Node6&#45;&gt;Node15 -->
<g id="edge22_Node000006_Node000015" class="edge">
<title>Node6&#45;&gt;Node15</title>
<g id="a_edge22_Node000006_Node000015"><a xlink:title=" ">
<path fill="none" stroke="#63b8ff" d="M1286.94,-352.49C1258.83,-357.91 1225.68,-364.31 1198.98,-369.46"/>
<polygon fill="#63b8ff" stroke="#63b8ff" points="1287.89,-355.87 1297.04,-350.54 1286.56,-349 1287.89,-355.87"/>
</a>
</g>
</g>
<!-- Node21 -->
<g id="Node000021" class="node">
<title>Node21</title>
<g id="a_Node000021"><a xlink:href="../../da/dd5/classTerraria_1_1Main_a49ddf20cfa12cedfef6920f6183dcf44.html#a49ddf20cfa12cedfef6920f6183dcf44" target="_top" xlink:title=" ">
<polygon fill="white" stroke="#666666" points="1034.5,-267.5 883.5,-267.5 883.5,-248.5 1034.5,-248.5 1034.5,-267.5"/>
<text text-anchor="middle" x="959" y="-255.5" font-family="Helvetica,sans-Serif" font-size="10.00">Terraria.Main.SetResolution</text>
</a>
</g>
</g>
<!-- Node6&#45;&gt;Node21 -->
<g id="edge30_Node000006_Node000021" class="edge">
<title>Node6&#45;&gt;Node21</title>
<g id="a_edge30_Node000006_Node000021"><a xlink:title=" ">
<path fill="none" stroke="#63b8ff" d="M1323.03,-326.28C1299.47,-312.29 1261.65,-291.97 1226,-282 1163.04,-264.39 1088.74,-258.9 1034.69,-257.52"/>
<polygon fill="#63b8ff" stroke="#63b8ff" points="1321.25,-329.29 1331.62,-331.47 1324.88,-323.3 1321.25,-329.29"/>
</a>
</g>
</g>
<!-- Node7&#45;&gt;Node8 -->
<g id="edge7_Node000007_Node000008" class="edge">
<title>Node7&#45;&gt;Node8</title>
<g id="a_edge7_Node000007_Node000008"><a xlink:title=" ">
<path fill="none" stroke="#63b8ff" d="M882.18,-404.06C854.53,-410.28 824.25,-417.09 800.51,-422.43"/>
<polygon fill="#63b8ff" stroke="#63b8ff" points="883.25,-407.41 892.24,-401.8 881.71,-400.58 883.25,-407.41"/>
</a>
</g>
</g>
<!-- Node11 -->
<g id="Node000011" class="node">
<title>Node11</title>
<g id="a_Node000011"><a xlink:href="../../da/dd5/classTerraria_1_1Main_a8d46d3bb048079b4d5df16b5b29229b8.html#a8d46d3bb048079b4d5df16b5b29229b8" target="_top" xlink:title=" ">
<polygon fill="white" stroke="#666666" points="834.5,-354 679.5,-354 679.5,-324 834.5,-324 834.5,-354"/>
<text text-anchor="start" x="687.5" y="-342" font-family="Helvetica,sans-Serif" font-size="10.00">Terraria.Main.UpdateDisplay</text>
<text text-anchor="middle" x="757" y="-331" font-family="Helvetica,sans-Serif" font-size="10.00">Settings</text>
</a>
</g>
</g>
<!-- Node7&#45;&gt;Node11 -->
<g id="edge10_Node000007_Node000011" class="edge">
<title>Node7&#45;&gt;Node11</title>
<g id="a_edge10_Node000007_Node000011"><a xlink:title=" ">
<path fill="none" stroke="#63b8ff" d="M885.33,-369.56C864.09,-364.46 841.06,-358.93 820.51,-354"/>
<polygon fill="#63b8ff" stroke="#63b8ff" points="884.73,-373.01 895.27,-371.94 886.36,-366.21 884.73,-373.01"/>
</a>
</g>
</g>
<!-- Node9 -->
<g id="Node000009" class="node">
<title>Node9</title>
<g id="a_Node000009"><a xlink:href="../../da/dd5/classTerraria_1_1Main_a25091de3c91f3e2202d5085499eda062.html#a25091de3c91f3e2202d5085499eda062" target="_top" xlink:title=" ">
<polygon fill="white" stroke="#666666" points="631,-360.5 477,-360.5 477,-341.5 631,-341.5 631,-360.5"/>
<text text-anchor="middle" x="554" y="-348.5" font-family="Helvetica,sans-Serif" font-size="10.00">Terraria.Main.ClientInitialize</text>
</a>
</g>
</g>
<!-- Node8&#45;&gt;Node9 -->
<g id="edge8_Node000008_Node000009" class="edge">
<title>Node8&#45;&gt;Node9</title>
<g id="a_edge8_Node000008_Node000009"><a xlink:title=" ">
<path fill="none" stroke="#63b8ff" d="M683.46,-418.97C677.71,-416.73 672.14,-414.09 667,-411 646.21,-398.51 651.7,-382.63 631,-370 624.61,-366.11 617.46,-363.01 610.17,-360.54"/>
<polygon fill="#63b8ff" stroke="#63b8ff" points="682.67,-422.41 693.27,-422.4 684.98,-415.8 682.67,-422.41"/>
</a>
</g>
</g>
<!-- Node10 -->
<g id="Node000010" class="node">
<title>Node10</title>
<g id="a_Node000010"><a xlink:href="../../da/dd5/classTerraria_1_1Main_aed4b6a8ad3e867bdb2bdcab2ab6ab0f9.html#aed4b6a8ad3e867bdb2bdcab2ab6ab0f9" target="_top" xlink:title=" ">
<polygon fill="white" stroke="#666666" points="428,-360.5 303,-360.5 303,-341.5 428,-341.5 428,-360.5"/>
<text text-anchor="middle" x="365.5" y="-348.5" font-family="Helvetica,sans-Serif" font-size="10.00">Terraria.Main.Initialize</text>
</a>
</g>
</g>
<!-- Node9&#45;&gt;Node10 -->
<g id="edge9_Node000009_Node000010" class="edge">
<title>Node9&#45;&gt;Node10</title>
<g id="a_edge9_Node000009_Node000010"><a xlink:title=" ">
<path fill="none" stroke="#63b8ff" d="M466.54,-351C453.57,-351 440.44,-351 428.13,-351"/>
<polygon fill="#63b8ff" stroke="#63b8ff" points="466.87,-354.5 476.87,-351 466.87,-347.5 466.87,-354.5"/>
</a>
</g>
</g>
<!-- Node11&#45;&gt;Node3 -->
<g id="edge12_Node000011_Node000003" class="edge">
<title>Node11&#45;&gt;Node3</title>
<g id="a_edge12_Node000011_Node000003"><a xlink:title=" ">
<path fill="none" stroke="#63b8ff" d="M721.16,-318.82C696.66,-305.43 662.72,-288.46 631,-278 593.97,-265.79 492.69,-248.66 426.75,-238.22"/>
<polygon fill="#63b8ff" stroke="#63b8ff" points="719.61,-321.96 730.06,-323.75 723.01,-315.84 719.61,-321.96"/>
</a>
</g>
</g>
<!-- Node11&#45;&gt;Node9 -->
<g id="edge11_Node000011_Node000009" class="edge">
<title>Node11&#45;&gt;Node9</title>
<g id="a_edge11_Node000011_Node000009"><a xlink:title=" ">
<path fill="none" stroke="#63b8ff" d="M669.3,-344.18C656.56,-344.94 643.52,-345.72 631.02,-346.46"/>
<polygon fill="#63b8ff" stroke="#63b8ff" points="669.66,-347.66 679.44,-343.57 669.25,-340.67 669.66,-347.66"/>
</a>
</g>
</g>
<!-- Node12 -->
<g id="Node000012" class="node">
<title>Node12</title>
<g id="a_Node000012"><a xlink:href="../../da/dd5/classTerraria_1_1Main_abb9536f8a67aed85ce043b7aa5d67ac9.html#abb9536f8a67aed85ce043b7aa5d67ac9" target="_top" xlink:title=" ">
<polygon fill="white" stroke="#666666" points="621,-305.5 487,-305.5 487,-286.5 621,-286.5 621,-305.5"/>
<text text-anchor="middle" x="554" y="-293.5" font-family="Helvetica,sans-Serif" font-size="10.00">Terraria.Main.InitTargets</text>
</a>
</g>
</g>
<!-- Node11&#45;&gt;Node12 -->
<g id="edge13_Node000011_Node000012" class="edge">
<title>Node11&#45;&gt;Node12</title>
<g id="a_edge13_Node000011_Node000012"><a xlink:title=" ">
<path fill="none" stroke="#63b8ff" d="M675.84,-321.85C649.84,-316.29 621.94,-310.32 599.51,-305.52"/>
<polygon fill="#63b8ff" stroke="#63b8ff" points="675.19,-325.29 685.7,-323.96 676.65,-318.45 675.19,-325.29"/>
</a>
</g>
</g>
<!-- Node12&#45;&gt;Node3 -->
<g id="edge14_Node000012_Node000003" class="edge">
<title>Node12&#45;&gt;Node3</title>
<g id="a_edge14_Node000012_Node000003"><a xlink:title=" ">
<path fill="none" stroke="#63b8ff" d="M510.07,-283.37C499.2,-279.92 487.6,-276.01 477,-272 460.63,-265.8 457.24,-262.54 441,-256 425.69,-249.83 408.36,-243.51 394.27,-238.54"/>
<polygon fill="#63b8ff" stroke="#63b8ff" points="509.21,-286.77 519.8,-286.4 511.3,-280.09 509.21,-286.77"/>
</a>
</g>
</g>
<!-- Node12&#45;&gt;Node6 -->
<g id="edge18_Node000012_Node000006" class="edge">
<title>Node12&#45;&gt;Node6</title>
<g id="a_edge18_Node000012_Node000006"><a xlink:title=" ">
<path fill="none" stroke="#63b8ff" d="M631.1,-297.99C725.8,-300.69 892.44,-306.23 1035,-315 1113.54,-319.83 1203.04,-327.53 1265.89,-333.3"/>
<polygon fill="#63b8ff" stroke="#63b8ff" points="631.14,-294.49 621.04,-297.7 630.94,-301.48 631.14,-294.49"/>
</a>
</g>
</g>
<!-- Node12&#45;&gt;Node12 -->
<g id="edge17_Node000012_Node000012" class="edge">
<title>Node12&#45;&gt;Node12</title>
<g id="a_edge17_Node000012_Node000012"><a xlink:title=" ">
<path fill="none" stroke="#63b8ff" d="M589.23,-313.57C588.72,-319.12 576.97,-323.5 554,-323.5 520.59,-323.5 510.93,-314.23 525.02,-305.58"/>
<polygon fill="#63b8ff" stroke="#63b8ff" points="591.9,-311.3 582.98,-305.58 586.39,-315.61 591.9,-311.3"/>
</a>
</g>
</g>
<!-- Node13 -->
<g id="Node000013" class="node">
<title>Node13</title>
<g id="a_Node000013"><a xlink:href="../../da/dd5/classTerraria_1_1Main_a048ceb3339184c082116d402a6fb357f.html#a048ceb3339184c082116d402a6fb357f" target="_top" xlink:title=" ">
<polygon fill="white" stroke="#666666" points="441,-295 290,-295 290,-265 441,-265 441,-295"/>
<text text-anchor="start" x="298" y="-283" font-family="Helvetica,sans-Serif" font-size="10.00">Terraria.Main.EnsureRender</text>
<text text-anchor="middle" x="365.5" y="-272" font-family="Helvetica,sans-Serif" font-size="10.00">TargetContent</text>
</a>
</g>
</g>
<!-- Node12&#45;&gt;Node13 -->
<g id="edge15_Node000012_Node000013" class="edge">
<title>Node12&#45;&gt;Node13</title>
<g id="a_edge15_Node000012_Node000013"><a xlink:title=" ">
<path fill="none" stroke="#63b8ff" d="M476.73,-289.46C464.94,-288.45 452.77,-287.4 441.01,-286.39"/>
<polygon fill="#63b8ff" stroke="#63b8ff" points="476.72,-292.97 486.98,-290.34 477.32,-285.99 476.72,-292.97"/>
</a>
</g>
</g>
<!-- Node13&#45;&gt;Node4 -->
<g id="edge16_Node000013_Node000004" class="edge">
<title>Node13&#45;&gt;Node4</title>
<g id="a_edge16_Node000013_Node000004"><a xlink:title=" ">
<path fill="none" stroke="#63b8ff" d="M279.83,-264.51C271.09,-262.91 262.39,-261.32 254.13,-259.81"/>
<polygon fill="#63b8ff" stroke="#63b8ff" points="279.23,-267.96 289.7,-266.32 280.49,-261.07 279.23,-267.96"/>
</a>
</g>
</g>
<!-- Node14&#45;&gt;Node8 -->
<g id="edge21_Node000014_Node000008" class="edge">
<title>Node14&#45;&gt;Node8</title>
<g id="a_edge21_Node000014_Node000008"><a xlink:title=" ">
<path fill="none" stroke="#63b8ff" d="M877.36,-433.79C861.77,-433.56 845.54,-433.31 830.24,-433.08"/>
<polygon fill="#63b8ff" stroke="#63b8ff" points="877.44,-437.29 887.49,-433.94 877.54,-430.29 877.44,-437.29"/>
</a>
</g>
</g>
<!-- Node15&#45;&gt;Node14 -->
<g id="edge23_Node000015_Node000014" class="edge">
<title>Node15&#45;&gt;Node14</title>
<g id="a_edge23_Node000015_Node000014"><a xlink:title=" ">
<path fill="none" stroke="#63b8ff" d="M1105.35,-391.59C1077.25,-399.98 1040.17,-411.05 1010.5,-419.92"/>
<polygon fill="#63b8ff" stroke="#63b8ff" points="1106.69,-394.84 1115.27,-388.63 1104.68,-388.13 1106.69,-394.84"/>
</a>
</g>
</g>
<!-- Node16 -->
<g id="Node000016" class="node">
<title>Node16</title>
<g id="a_Node000016"><a xlink:href="../../da/dd5/classTerraria_1_1Main_ac783495d992f49dfd84de363d5fbad0b.html#ac783495d992f49dfd84de363d5fbad0b" target="_top" xlink:title=" ">
<polygon fill="white" stroke="#666666" points="1025,-354 893,-354 893,-324 1025,-324 1025,-354"/>
<text text-anchor="start" x="901" y="-342" font-family="Helvetica,sans-Serif" font-size="10.00">Terraria.Main.ToggleFull</text>
<text text-anchor="middle" x="959" y="-331" font-family="Helvetica,sans-Serif" font-size="10.00">Screen</text>
</a>
</g>
</g>
<!-- Node15&#45;&gt;Node16 -->
<g id="edge24_Node000015_Node000016" class="edge">
<title>Node15&#45;&gt;Node16</title>
<g id="a_edge24_Node000015_Node000016"><a xlink:title=" ">
<path fill="none" stroke="#63b8ff" d="M1092.79,-367.33C1071.61,-362.81 1047.19,-357.6 1025.12,-352.89"/>
<polygon fill="#63b8ff" stroke="#63b8ff" points="1092.08,-370.76 1102.59,-369.42 1093.54,-363.91 1092.08,-370.76"/>
</a>
</g>
</g>
<!-- Node17 -->
<g id="Node000017" class="node">
<title>Node17</title>
<g id="a_Node000017"><a xlink:href="../../da/dd5/classTerraria_1_1Main_a76e0b0d85cdce1676079eca6707aa97e.html#a76e0b0d85cdce1676079eca6707aa97e" target="_top" xlink:title=" ">
<polygon fill="white" stroke="#666666" points="830.5,-402 683.5,-402 683.5,-372 830.5,-372 830.5,-402"/>
<text text-anchor="start" x="691.5" y="-390" font-family="Helvetica,sans-Serif" font-size="10.00">Terraria.Main.DoUpdate</text>
<text text-anchor="middle" x="757" y="-379" font-family="Helvetica,sans-Serif" font-size="10.00">_AltEnter_ToggleFullscreen</text>
</a>
</g>
</g>
<!-- Node16&#45;&gt;Node17 -->
<g id="edge25_Node000016_Node000017" class="edge">
<title>Node16&#45;&gt;Node17</title>
<g id="a_edge25_Node000016_Node000017"><a xlink:title=" ">
<path fill="none" stroke="#63b8ff" d="M885.33,-356.44C864.09,-361.54 841.06,-367.07 820.51,-372"/>
<polygon fill="#63b8ff" stroke="#63b8ff" points="886.36,-359.79 895.27,-354.06 884.73,-352.99 886.36,-359.79"/>
</a>
</g>
</g>
<!-- Node20 -->
<g id="Node000020" class="node">
<title>Node20</title>
<g id="a_Node000020"><a xlink:href="../../da/dd5/classTerraria_1_1Main_ae7acc9fe7fb0914ed02aacdfdc9039c5.html#ae7acc9fe7fb0914ed02aacdfdc9039c5" target="_top" xlink:title=" ">
<polygon fill="white" stroke="#666666" points="825,-248.5 689,-248.5 689,-229.5 825,-229.5 825,-248.5"/>
<text text-anchor="middle" x="757" y="-236.5" font-family="Helvetica,sans-Serif" font-size="10.00">Terraria.Main.DrawMenu</text>
</a>
</g>
</g>
<!-- Node16&#45;&gt;Node20 -->
<g id="edge28_Node000016_Node000020" class="edge">
<title>Node16&#45;&gt;Node20</title>
<g id="a_edge28_Node000016_Node000020"><a xlink:title=" ">
<path fill="none" stroke="#63b8ff" d="M918.64,-319.32C875.96,-297.98 809.62,-264.81 777.18,-248.59"/>
<polygon fill="#63b8ff" stroke="#63b8ff" points="917.11,-322.47 927.62,-323.81 920.25,-316.21 917.11,-322.47"/>
</a>
</g>
</g>
<!-- Node18 -->
<g id="Node000018" class="node">
<title>Node18</title>
<g id="a_Node000018"><a xlink:href="../../da/dd5/classTerraria_1_1Main_a96341b8439a15bcefc0f119767e24e35.html#a96341b8439a15bcefc0f119767e24e35" target="_top" xlink:title=" ">
<polygon fill="white" stroke="#666666" points="620,-397.5 488,-397.5 488,-378.5 620,-378.5 620,-397.5"/>
<text text-anchor="middle" x="554" y="-385.5" font-family="Helvetica,sans-Serif" font-size="10.00">Terraria.Main.DoUpdate</text>
</a>
</g>
</g>
<!-- Node17&#45;&gt;Node18 -->
<g id="edge26_Node000017_Node000018" class="edge">
<title>Node17&#45;&gt;Node18</title>
<g id="a_edge26_Node000017_Node000018"><a xlink:title=" ">
<path fill="none" stroke="#63b8ff" d="M673.13,-387.41C655.45,-387.5 637.02,-387.59 620.12,-387.68"/>
<polygon fill="#63b8ff" stroke="#63b8ff" points="673.45,-390.91 683.43,-387.36 673.42,-383.91 673.45,-390.91"/>
</a>
</g>
</g>
<!-- Node19 -->
<g id="Node000019" class="node">
<title>Node19</title>
<g id="a_Node000019"><a xlink:href="../../da/dd5/classTerraria_1_1Main_a49776516aea1626e33c722fc8896a7de.html#a49776516aea1626e33c722fc8896a7de" target="_top" xlink:title=" ">
<polygon fill="white" stroke="#666666" points="425,-397.5 306,-397.5 306,-378.5 425,-378.5 425,-397.5"/>
<text text-anchor="middle" x="365.5" y="-385.5" font-family="Helvetica,sans-Serif" font-size="10.00">Terraria.Main.Update</text>
</a>
</g>
</g>
<!-- Node18&#45;&gt;Node19 -->
<g id="edge27_Node000018_Node000019" class="edge">
<title>Node18&#45;&gt;Node19</title>
<g id="a_edge27_Node000018_Node000019"><a xlink:title=" ">
<path fill="none" stroke="#63b8ff" d="M477.6,-388C460.13,-388 441.78,-388 425.15,-388"/>
<polygon fill="#63b8ff" stroke="#63b8ff" points="477.77,-391.5 487.77,-388 477.77,-384.5 477.77,-391.5"/>
</a>
</g>
</g>
<!-- Node20&#45;&gt;Node3 -->
<g id="edge29_Node000020_Node000003" class="edge">
<title>Node20&#45;&gt;Node3</title>
<g id="a_edge29_Node000020_Node000003"><a xlink:title=" ">
<path fill="none" stroke="#63b8ff" d="M678.4,-237.01C604.34,-235.11 494.33,-232.28 426.69,-230.55"/>
<polygon fill="#63b8ff" stroke="#63b8ff" points="678.51,-240.51 688.6,-237.27 678.69,-233.51 678.51,-240.51"/>
</a>
</g>
</g>
<!-- Node21&#45;&gt;Node11 -->
<g id="edge32_Node000021_Node000011" class="edge">
<title>Node21&#45;&gt;Node11</title>
<g id="a_edge32_Node000021_Node000011"><a xlink:title=" ">
<path fill="none" stroke="#63b8ff" d="M924.79,-271.45C889.1,-285.9 832.5,-308.83 795.3,-323.89"/>
<polygon fill="#63b8ff" stroke="#63b8ff" points="926.32,-274.61 934.27,-267.61 923.69,-268.12 926.32,-274.61"/>
</a>
</g>
</g>
<!-- Node21&#45;&gt;Node20 -->
<g id="edge31_Node000021_Node000020" class="edge">
<title>Node21&#45;&gt;Node20</title>
<g id="a_edge31_Node000021_Node000020"><a xlink:title=" ">
<path fill="none" stroke="#63b8ff" d="M872.85,-249.91C856.89,-248.39 840.41,-246.83 825.09,-245.37"/>
<polygon fill="#63b8ff" stroke="#63b8ff" points="872.96,-253.44 883.24,-250.9 873.62,-246.47 872.96,-253.44"/>
</a>
</g>
</g>
<!-- Node23 -->
<g id="Node000023" class="node">
<title>Node23</title>
<g id="a_Node000023"><a xlink:href="../../dc/dc4/classTerraria_1_1UI_1_1UserInterface_a5ab4e3c3b894e8228528a535f624d90e.html#a5ab4e3c3b894e8228528a535f624d90e" target="_top" xlink:title=" ">
<polygon fill="white" stroke="#666666" points="1633,-148.5 1469,-148.5 1469,-129.5 1633,-129.5 1633,-148.5"/>
<text text-anchor="middle" x="1551" y="-136.5" font-family="Helvetica,sans-Serif" font-size="10.00">Terraria.UI.UserInterface.Draw</text>
</a>
</g>
</g>
<!-- Node22&#45;&gt;Node23 -->
<g id="edge34_Node000022_Node000023" class="edge">
<title>Node22&#45;&gt;Node23</title>
<g id="a_edge34_Node000022_Node000023"><a xlink:title=" ">
<path fill="none" stroke="#63b8ff" d="M1658.81,-139C1650.24,-139 1641.57,-139 1633.08,-139"/>
<polygon fill="#63b8ff" stroke="#63b8ff" points="1658.81,-142.5 1668.81,-139 1658.81,-135.5 1658.81,-142.5"/>
</a>
</g>
</g>
<!-- Node23&#45;&gt;Node20 -->
<g id="edge45_Node000023_Node000020" class="edge">
<title>Node23&#45;&gt;Node20</title>
<g id="a_edge45_Node000023_Node000020"><a xlink:title=" ">
<path fill="none" stroke="#63b8ff" d="M1520.98,-152.84C1497.73,-163.26 1464,-176.92 1433,-184 1318.59,-210.13 972.17,-228.95 825.14,-235.97"/>
<polygon fill="#63b8ff" stroke="#63b8ff" points="1522.61,-155.94 1530.26,-148.6 1519.71,-149.57 1522.61,-155.94"/>
</a>
</g>
</g>
<!-- Node24 -->
<g id="Node000024" class="node">
<title>Node24</title>
<g id="a_Node000024"><a xlink:href="../../d7/d7a/classTerraria_1_1GameContent_1_1Creative_1_1CreativeUI_a0947e47d8132c8fe044b387ce72eff41.html#a0947e47d8132c8fe044b387ce72eff41" target="_top" xlink:title=" ">
<polygon fill="white" stroke="#666666" points="1433,-154 1262,-154 1262,-124 1433,-124 1433,-154"/>
<text text-anchor="start" x="1270" y="-142" font-family="Helvetica,sans-Serif" font-size="10.00">Terraria.GameContent.Creative.</text>
<text text-anchor="middle" x="1347.5" y="-131" font-family="Helvetica,sans-Serif" font-size="10.00">CreativeUI.Draw</text>
</a>
</g>
</g>
<!-- Node23&#45;&gt;Node24 -->
<g id="edge35_Node000023_Node000024" class="edge">
<title>Node23&#45;&gt;Node24</title>
<g id="a_edge35_Node000023_Node000024"><a xlink:title=" ">
<path fill="none" stroke="#63b8ff" d="M1458.87,-139C1450.27,-139 1441.58,-139 1433.04,-139"/>
<polygon fill="#63b8ff" stroke="#63b8ff" points="1458.91,-142.5 1468.91,-139 1458.91,-135.5 1458.91,-142.5"/>
</a>
</g>
</g>
<!-- Node29 -->
<g id="Node000029" class="node">
<title>Node29</title>
<g id="a_Node000029"><a xlink:href="../../d2/d8f/classTerraria_1_1GameContent_1_1UI_1_1States_1_1UICharacterSelect_a1caa4cad2abf62f6c09a858241a43c48.html#a1caa4cad2abf62f6c09a858241a43c48" target="_top" xlink:title=" ">
<polygon fill="white" stroke="#666666" points="1431,-106 1264,-106 1264,-76 1431,-76 1431,-106"/>
<text text-anchor="start" x="1272" y="-94" font-family="Helvetica,sans-Serif" font-size="10.00">Terraria.GameContent.UI.</text>
<text text-anchor="middle" x="1347.5" y="-83" font-family="Helvetica,sans-Serif" font-size="10.00">States.UICharacterSelect.Draw</text>
</a>
</g>
</g>
<!-- Node23&#45;&gt;Node29 -->
<g id="edge41_Node000023_Node000029" class="edge">
<title>Node23&#45;&gt;Node29</title>
<g id="a_edge41_Node000023_Node000029"><a xlink:title=" ">
<path fill="none" stroke="#63b8ff" d="M1499.83,-127.05C1473.17,-120.7 1440.13,-112.83 1411.73,-106.06"/>
<polygon fill="#63b8ff" stroke="#63b8ff" points="1499.17,-130.49 1509.71,-129.4 1500.79,-123.68 1499.17,-130.49"/>
</a>
</g>
</g>
<!-- Node30 -->
<g id="Node000030" class="node">
<title>Node30</title>
<g id="a_Node000030"><a xlink:href="../../d0/d26/classTerraria_1_1GameContent_1_1UI_1_1States_1_1UIWorldSelect_a0ce9af7cc6a7b43e4d34e0c2f81ebfc5.html#a0ce9af7cc6a7b43e4d34e0c2f81ebfc5" target="_top" xlink:title=" ">
<polygon fill="white" stroke="#666666" points="1421,-58 1274,-58 1274,-28 1421,-28 1421,-58"/>
<text text-anchor="start" x="1282" y="-46" font-family="Helvetica,sans-Serif" font-size="10.00">Terraria.GameContent.UI.</text>
<text text-anchor="middle" x="1347.5" y="-35" font-family="Helvetica,sans-Serif" font-size="10.00">States.UIWorldSelect.Draw</text>
</a>
</g>
</g>
<!-- Node23&#45;&gt;Node30 -->
<g id="edge42_Node000023_Node000030" class="edge">
<title>Node23&#45;&gt;Node30</title>
<g id="a_edge42_Node000023_Node000030"><a xlink:title=" ">
<path fill="none" stroke="#63b8ff" d="M1528.75,-123.43C1506.03,-107.39 1468.47,-82.59 1433,-67 1425.46,-63.69 1417.34,-60.7 1409.23,-58.06"/>
<polygon fill="#63b8ff" stroke="#63b8ff" points="1526.81,-126.34 1536.97,-129.31 1530.88,-120.64 1526.81,-126.34"/>
</a>
</g>
</g>
<!-- Node31 -->
<g id="Node000031" class="node">
<title>Node31</title>
<g id="a_Node000031"><a xlink:href="../../da/dd5/classTerraria_1_1Main_a0645b9bdd9bbcdc3e250041b2b0dc0c3.html#a0645b9bdd9bbcdc3e250041b2b0dc0c3" target="_top" xlink:title=" ">
<polygon fill="white" stroke="#666666" points="1224.5,-192 1072.5,-192 1072.5,-162 1224.5,-162 1224.5,-192"/>
<text text-anchor="start" x="1080.5" y="-180" font-family="Helvetica,sans-Serif" font-size="10.00">Terraria.Main.DrawInterface</text>
<text text-anchor="middle" x="1148.5" y="-169" font-family="Helvetica,sans-Serif" font-size="10.00">_12_IngameFancyUI</text>
</a>
</g>
</g>
<!-- Node23&#45;&gt;Node31 -->
<g id="edge43_Node000023_Node000031" class="edge">
<title>Node23&#45;&gt;Node31</title>
<g id="a_edge43_Node000023_Node000031"><a xlink:title=" ">
<path fill="none" stroke="#63b8ff" d="M1501.32,-150.72C1480.41,-155.3 1455.63,-160.14 1433,-163 1362.72,-171.89 1281.98,-175.21 1224.68,-176.41"/>
<polygon fill="#63b8ff" stroke="#63b8ff" points="1502.25,-154.1 1511.25,-148.5 1500.73,-147.27 1502.25,-154.1"/>
</a>
</g>
</g>
<!-- Node25 -->
<g id="Node000025" class="node">
<title>Node25</title>
<g id="a_Node000025"><a xlink:href="../../da/dd5/classTerraria_1_1Main_a3d98f18e1b3a22533d5282611b6d8dfe.html#a3d98f18e1b3a22533d5282611b6d8dfe" target="_top" xlink:title=" ">
<polygon fill="white" stroke="#666666" points="1226,-143.5 1071,-143.5 1071,-124.5 1226,-124.5 1226,-143.5"/>
<text text-anchor="middle" x="1148.5" y="-131.5" font-family="Helvetica,sans-Serif" font-size="10.00">Terraria.Main.DrawInventory</text>
</a>
</g>
</g>
<!-- Node24&#45;&gt;Node25 -->
<g id="edge36_Node000024_Node000025" class="edge">
<title>Node24&#45;&gt;Node25</title>
<g id="a_edge36_Node000024_Node000025"><a xlink:title=" ">
<path fill="none" stroke="#63b8ff" d="M1251.73,-136.59C1243.12,-136.38 1234.46,-136.16 1226.04,-135.94"/>
<polygon fill="#63b8ff" stroke="#63b8ff" points="1251.73,-140.1 1261.81,-136.85 1251.9,-133.1 1251.73,-140.1"/>
</a>
</g>
</g>
<!-- Node26 -->
<g id="Node000026" class="node">
<title>Node26</title>
<g id="a_Node000026"><a xlink:href="../../da/dd5/classTerraria_1_1Main_a6ec2a6dd6eea7cf9082122035842a01b.html#a6ec2a6dd6eea7cf9082122035842a01b" target="_top" xlink:title=" ">
<polygon fill="white" stroke="#666666" points="1035,-149 883,-149 883,-119 1035,-119 1035,-149"/>
<text text-anchor="start" x="891" y="-137" font-family="Helvetica,sans-Serif" font-size="10.00">Terraria.Main.DrawInterface</text>
<text text-anchor="middle" x="959" y="-126" font-family="Helvetica,sans-Serif" font-size="10.00">_27_Inventory</text>
</a>
</g>
</g>
<!-- Node25&#45;&gt;Node26 -->
<g id="edge37_Node000025_Node000026" class="edge">
<title>Node25&#45;&gt;Node26</title>
<g id="a_edge37_Node000025_Node000026"><a xlink:title=" ">
<path fill="none" stroke="#63b8ff" d="M1060.9,-134C1052.27,-134 1043.57,-134 1035.08,-134"/>
<polygon fill="#63b8ff" stroke="#63b8ff" points="1060.97,-137.5 1070.97,-134 1060.97,-130.5 1060.97,-137.5"/>
</a>
</g>
</g>
<!-- Node27 -->
<g id="Node000027" class="node">
<title>Node27</title>
<g id="a_Node000027"><a xlink:href="../../da/dd5/classTerraria_1_1Main_a635639e6a6d3795bbfbcf0e24fc3aac5.html#a635639e6a6d3795bbfbcf0e24fc3aac5" target="_top" xlink:title=" ">
<polygon fill="white" stroke="#666666" points="847,-192 667,-192 667,-162 847,-162 847,-192"/>
<text text-anchor="start" x="675" y="-180" font-family="Helvetica,sans-Serif" font-size="10.00">Terraria.Main.SetupDrawInterface</text>
<text text-anchor="middle" x="757" y="-169" font-family="Helvetica,sans-Serif" font-size="10.00">Layers</text>
</a>
</g>
</g>
<!-- Node26&#45;&gt;Node27 -->
<g id="edge38_Node000026_Node000027" class="edge">
<title>Node26&#45;&gt;Node27</title>
<g id="a_edge38_Node000026_Node000027"><a xlink:title=" ">
<path fill="none" stroke="#63b8ff" d="M877.87,-151.23C861.34,-154.78 844.05,-158.5 827.91,-161.97"/>
<polygon fill="#63b8ff" stroke="#63b8ff" points="879.01,-154.56 888.05,-149.04 877.54,-147.72 879.01,-154.56"/>
</a>
</g>
</g>
<!-- Node28 -->
<g id="Node000028" class="node">
<title>Node28</title>
<g id="a_Node000028"><a xlink:href="../../da/dd5/classTerraria_1_1Main_a36d139a1fd2647d53f25a241f3d5d5f4.html#a36d139a1fd2647d53f25a241f3d5d5f4" target="_top" xlink:title=" ">
<polygon fill="white" stroke="#666666" points="630,-188.5 478,-188.5 478,-169.5 630,-169.5 630,-188.5"/>
<text text-anchor="middle" x="554" y="-176.5" font-family="Helvetica,sans-Serif" font-size="10.00">Terraria.Main.DrawInterface</text>
</a>
</g>
</g>
<!-- Node27&#45;&gt;Node28 -->
<g id="edge39_Node000027_Node000028" class="edge">
<title>Node27&#45;&gt;Node28</title>
<g id="a_edge39_Node000027_Node000028"><a xlink:title=" ">
<path fill="none" stroke="#63b8ff" d="M656.85,-177.99C647.87,-178.08 638.88,-178.17 630.16,-178.25"/>
<polygon fill="#63b8ff" stroke="#63b8ff" points="657,-181.49 666.96,-177.89 656.93,-174.49 657,-181.49"/>
</a>
</g>
</g>
<!-- Node28&#45;&gt;Node3 -->
<g id="edge40_Node000028_Node000003" class="edge">
<title>Node28&#45;&gt;Node3</title>
<g id="a_edge40_Node000028_Node000003"><a xlink:title=" ">
<path fill="none" stroke="#63b8ff" d="M507.78,-191.12C475.34,-199.82 432.24,-211.38 402.2,-219.43"/>
<polygon fill="#63b8ff" stroke="#63b8ff" points="508.73,-194.49 517.48,-188.52 506.92,-187.73 508.73,-194.49"/>
</a>
</g>
</g>
<!-- Node31&#45;&gt;Node27 -->
<g id="edge44_Node000031_Node000027" class="edge">
<title>Node31&#45;&gt;Node27</title>
<g id="a_edge44_Node000031_Node000027"><a xlink:title=" ">
<path fill="none" stroke="#63b8ff" d="M1062.39,-177C998.71,-177 911.85,-177 847.21,-177"/>
<polygon fill="#63b8ff" stroke="#63b8ff" points="1062.4,-180.5 1072.4,-177 1062.4,-173.5 1062.4,-180.5"/>
</a>
</g>
</g>
</g>
</svg>
