<?xml version="1.0" encoding="UTF-8" standalone="no"?>
<!DOCTYPE svg PUBLIC "-//W3C//DTD SVG 1.1//EN"
 "http://www.w3.org/Graphics/SVG/1.1/DTD/svg11.dtd">
<!-- Generated by graphviz version 2.43.0 (0)
 -->
<!-- Title: Terraria.UI.UserInterface.ImmediatelyUpdateInputPointers Pages: 1 -->
<svg width="951pt" height="110pt"
 viewBox="0.00 0.00 951.00 110.00" xmlns="http://www.w3.org/2000/svg" xmlns:xlink="http://www.w3.org/1999/xlink">
<g id="graph0" class="graph" transform="scale(1 1) rotate(0) translate(4 106)">
<title>Terraria.UI.UserInterface.ImmediatelyUpdateInputPointers</title>
<!-- Node1 -->
<g id="Node000001" class="node">
<title>Node1</title>
<g id="a_Node000001"><a xlink:title=" ">
<polygon fill="#999999" stroke="#666666" points="943,-78 764,-78 764,-48 943,-48 943,-78"/>
<text text-anchor="start" x="772" y="-66" font-family="Helvetica,sans-Serif" font-size="10.00">Terraria.UI.UserInterface.</text>
<text text-anchor="middle" x="853.5" y="-55" font-family="Helvetica,sans-Serif" font-size="10.00">ImmediatelyUpdateInputPointers</text>
</a>
</g>
</g>
<!-- Node2 -->
<g id="Node000002" class="node">
<title>Node2</title>
<g id="a_Node000002"><a xlink:href="../../dc/dc4/classTerraria_1_1UI_1_1UserInterface_a700e4c651872be926b43d293f89f1a59.html#a700e4c651872be926b43d293f89f1a59" target="_top" xlink:title=" ">
<polygon fill="white" stroke="#666666" points="728,-78 589,-78 589,-48 728,-48 728,-78"/>
<text text-anchor="start" x="597" y="-66" font-family="Helvetica,sans-Serif" font-size="10.00">Terraria.UI.UserInterface.</text>
<text text-anchor="middle" x="658.5" y="-55" font-family="Helvetica,sans-Serif" font-size="10.00">ResetState</text>
</a>
</g>
</g>
<!-- Node1&#45;&gt;Node2 -->
<g id="edge1_Node000001_Node000002" class="edge">
<title>Node1&#45;&gt;Node2</title>
<g id="a_edge1_Node000001_Node000002"><a xlink:title=" ">
<path fill="none" stroke="#63b8ff" d="M753.77,-63C745.13,-63 736.51,-63 728.19,-63"/>
<polygon fill="#63b8ff" stroke="#63b8ff" points="753.91,-66.5 763.91,-63 753.91,-59.5 753.91,-66.5"/>
</a>
</g>
</g>
<!-- Node3 -->
<g id="Node000003" class="node">
<title>Node3</title>
<g id="a_Node000003"><a xlink:href="../../dc/dc4/classTerraria_1_1UI_1_1UserInterface_ac154e9131e371495cda429202d80e293.html#ac154e9131e371495cda429202d80e293" target="_top" xlink:title=" ">
<polygon fill="white" stroke="#666666" points="553,-102 414,-102 414,-72 553,-72 553,-102"/>
<text text-anchor="start" x="422" y="-90" font-family="Helvetica,sans-Serif" font-size="10.00">Terraria.UI.UserInterface.</text>
<text text-anchor="middle" x="483.5" y="-79" font-family="Helvetica,sans-Serif" font-size="10.00">RefreshState</text>
</a>
</g>
</g>
<!-- Node2&#45;&gt;Node3 -->
<g id="edge2_Node000002_Node000003" class="edge">
<title>Node2&#45;&gt;Node3</title>
<g id="a_edge2_Node000002_Node000003"><a xlink:title=" ">
<path fill="none" stroke="#63b8ff" d="M578.68,-73.93C570.16,-75.12 561.53,-76.31 553.13,-77.48"/>
<polygon fill="#63b8ff" stroke="#63b8ff" points="579.2,-77.4 588.63,-72.55 578.24,-70.46 579.2,-77.4"/>
</a>
</g>
</g>
<!-- Node4 -->
<g id="Node000004" class="node">
<title>Node4</title>
<g id="a_Node000004"><a xlink:href="../../dc/dc4/classTerraria_1_1UI_1_1UserInterface_a3a6102198df79471f13a3a9993c152a4.html#a3a6102198df79471f13a3a9993c152a4" target="_top" xlink:title=" ">
<polygon fill="white" stroke="#666666" points="553,-54 414,-54 414,-24 553,-24 553,-54"/>
<text text-anchor="start" x="422" y="-42" font-family="Helvetica,sans-Serif" font-size="10.00">Terraria.UI.UserInterface.</text>
<text text-anchor="middle" x="483.5" y="-31" font-family="Helvetica,sans-Serif" font-size="10.00">SetState</text>
</a>
</g>
</g>
<!-- Node2&#45;&gt;Node4 -->
<g id="edge3_Node000002_Node000004" class="edge">
<title>Node2&#45;&gt;Node4</title>
<g id="a_edge3_Node000002_Node000004"><a xlink:title=" ">
<path fill="none" stroke="#63b8ff" d="M578.68,-52.07C570.16,-50.88 561.53,-49.69 553.13,-48.52"/>
<polygon fill="#63b8ff" stroke="#63b8ff" points="578.24,-55.54 588.63,-53.45 579.2,-48.6 578.24,-55.54"/>
</a>
</g>
</g>
<!-- Node5 -->
<g id="Node000005" class="node">
<title>Node5</title>
<g id="a_Node000005"><a xlink:href="../../dc/dc4/classTerraria_1_1UI_1_1UserInterface_aead303b76d389bd4c72d5c6c00bd1f17.html#aead303b76d389bd4c72d5c6c00bd1f17" target="_top" xlink:title=" ">
<polygon fill="white" stroke="#666666" points="362,-78 223,-78 223,-48 362,-48 362,-78"/>
<text text-anchor="start" x="231" y="-66" font-family="Helvetica,sans-Serif" font-size="10.00">Terraria.UI.UserInterface.</text>
<text text-anchor="middle" x="292.5" y="-55" font-family="Helvetica,sans-Serif" font-size="10.00">GoBack</text>
</a>
</g>
</g>
<!-- Node4&#45;&gt;Node5 -->
<g id="edge4_Node000004_Node000005" class="edge">
<title>Node4&#45;&gt;Node5</title>
<g id="a_edge4_Node000004_Node000005"><a xlink:title=" ">
<path fill="none" stroke="#63b8ff" d="M403.98,-48.97C390.07,-50.74 375.69,-52.56 362.08,-54.29"/>
<polygon fill="#63b8ff" stroke="#63b8ff" points="404.52,-52.43 414,-47.7 403.64,-45.49 404.52,-52.43"/>
</a>
</g>
</g>
<!-- Node6 -->
<g id="Node000006" class="node">
<title>Node6</title>
<g id="a_Node000006"><a xlink:href="../../d7/d7a/classTerraria_1_1GameContent_1_1Creative_1_1CreativeUI_ae1860454370400994f84084a167c4519.html#ae1860454370400994f84084a167c4519" target="_top" xlink:title=" ">
<polygon fill="white" stroke="#666666" points="378,-30 207,-30 207,0 378,0 378,-30"/>
<text text-anchor="start" x="215" y="-18" font-family="Helvetica,sans-Serif" font-size="10.00">Terraria.GameContent.Creative.</text>
<text text-anchor="middle" x="292.5" y="-7" font-family="Helvetica,sans-Serif" font-size="10.00">CreativeUI.Initialize</text>
</a>
</g>
</g>
<!-- Node4&#45;&gt;Node6 -->
<g id="edge5_Node000004_Node000006" class="edge">
<title>Node4&#45;&gt;Node6</title>
<g id="a_edge5_Node000004_Node000006"><a xlink:title=" ">
<path fill="none" stroke="#63b8ff" d="M404.08,-29.04C395.54,-27.96 386.82,-26.85 378.21,-25.76"/>
<polygon fill="#63b8ff" stroke="#63b8ff" points="403.64,-32.51 414,-30.3 404.52,-25.57 403.64,-32.51"/>
</a>
</g>
</g>
<!-- Node7 -->
<g id="Node000007" class="node">
<title>Node7</title>
<g id="a_Node000007"><a xlink:href="../../d7/d7a/classTerraria_1_1GameContent_1_1Creative_1_1CreativeUI_a0947e47d8132c8fe044b387ce72eff41.html#a0947e47d8132c8fe044b387ce72eff41" target="_top" xlink:title=" ">
<polygon fill="white" stroke="#666666" points="171,-30 0,-30 0,0 171,0 171,-30"/>
<text text-anchor="start" x="8" y="-18" font-family="Helvetica,sans-Serif" font-size="10.00">Terraria.GameContent.Creative.</text>
<text text-anchor="middle" x="85.5" y="-7" font-family="Helvetica,sans-Serif" font-size="10.00">CreativeUI.Draw</text>
</a>
</g>
</g>
<!-- Node6&#45;&gt;Node7 -->
<g id="edge6_Node000006_Node000007" class="edge">
<title>Node6&#45;&gt;Node7</title>
<g id="a_edge6_Node000006_Node000007"><a xlink:title=" ">
<path fill="none" stroke="#63b8ff" d="M196.91,-15C188.34,-15 179.69,-15 171.2,-15"/>
<polygon fill="#63b8ff" stroke="#63b8ff" points="196.94,-18.5 206.94,-15 196.94,-11.5 196.94,-18.5"/>
</a>
</g>
</g>
</g>
</svg>
