<?xml version="1.0" encoding="UTF-8" standalone="no"?>
<!DOCTYPE svg PUBLIC "-//W3C//DTD SVG 1.1//EN"
 "http://www.w3.org/Graphics/SVG/1.1/DTD/svg11.dtd">
<!-- Generated by graphviz version 2.43.0 (0)
 -->
<!-- Title: Terraria.UI.UserInterface.Recalculate Pages: 1 -->
<svg width="792pt" height="134pt"
 viewBox="0.00 0.00 792.00 134.00" xmlns="http://www.w3.org/2000/svg" xmlns:xlink="http://www.w3.org/1999/xlink">
<g id="graph0" class="graph" transform="scale(1 1) rotate(0) translate(4 130)">
<title>Terraria.UI.UserInterface.Recalculate</title>
<!-- Node1 -->
<g id="Node000001" class="node">
<title>Node1</title>
<g id="a_Node000001"><a xlink:title=" ">
<polygon fill="#999999" stroke="#666666" points="139,-78 0,-78 0,-48 139,-48 139,-78"/>
<text text-anchor="start" x="8" y="-66" font-family="Helvetica,sans-Serif" font-size="10.00">Terraria.UI.UserInterface.</text>
<text text-anchor="middle" x="69.5" y="-55" font-family="Helvetica,sans-Serif" font-size="10.00">Recalculate</text>
</a>
</g>
</g>
<!-- Node2 -->
<g id="Node000002" class="node">
<title>Node2</title>
<g id="a_Node000002"><a xlink:href="../../d7/d72/classTerraria_1_1UI_1_1UIElement_aa33dca6c66f9820ef270bc2e23ef1496.html#aa33dca6c66f9820ef270bc2e23ef1496" target="_top" xlink:title=" ">
<polygon fill="white" stroke="#666666" points="356,-72.5 175,-72.5 175,-53.5 356,-53.5 356,-72.5"/>
<text text-anchor="middle" x="265.5" y="-60.5" font-family="Helvetica,sans-Serif" font-size="10.00">Terraria.UI.UIElement.Recalculate</text>
</a>
</g>
</g>
<!-- Node1&#45;&gt;Node2 -->
<g id="edge1_Node000001_Node000002" class="edge">
<title>Node1&#45;&gt;Node2</title>
<g id="a_edge1_Node000001_Node000002"><a xlink:title=" ">
<path fill="none" stroke="#63b8ff" d="M139.17,-63C147.47,-63 156.08,-63 164.72,-63"/>
<polygon fill="#63b8ff" stroke="#63b8ff" points="164.86,-66.5 174.86,-63 164.86,-59.5 164.86,-66.5"/>
</a>
</g>
</g>
<!-- Node3 -->
<g id="Node000003" class="node">
<title>Node3</title>
<g id="a_Node000003"><a xlink:href="../../d7/d72/classTerraria_1_1UI_1_1UIElement_a8cb8692a001e504adb564ae67833de3d.html#a8cb8692a001e504adb564ae67833de3d" target="_top" xlink:title=" ">
<polygon fill="white" stroke="#666666" points="598,-126 392,-126 392,-96 598,-96 598,-126"/>
<text text-anchor="start" x="400" y="-114" font-family="Helvetica,sans-Serif" font-size="10.00">Terraria.UI.UIElement.Get</text>
<text text-anchor="middle" x="495" y="-103" font-family="Helvetica,sans-Serif" font-size="10.00">DimensionsBasedOnParentDimensions</text>
</a>
</g>
</g>
<!-- Node2&#45;&gt;Node3 -->
<g id="edge2_Node000002_Node000003" class="edge">
<title>Node2&#45;&gt;Node3</title>
<g id="a_edge2_Node000002_Node000003"><a xlink:title=" ">
<path fill="none" stroke="#63b8ff" d="M311.72,-72.54C340.61,-78.64 378.92,-86.72 412.95,-93.9"/>
<polygon fill="#63b8ff" stroke="#63b8ff" points="412.38,-97.36 422.89,-96 413.83,-90.51 412.38,-97.36"/>
</a>
</g>
</g>
<!-- Node5 -->
<g id="Node000005" class="node">
<title>Node5</title>
<g id="a_Node000005"><a xlink:href="../../d7/d72/classTerraria_1_1UI_1_1UIElement_a5ad03f5ce0e776511a3b7e4a29e16caf.html#a5ad03f5ce0e776511a3b7e4a29e16caf" target="_top" xlink:title=" ">
<polygon fill="white" stroke="#666666" points="565.5,-78 424.5,-78 424.5,-48 565.5,-48 565.5,-78"/>
<text text-anchor="start" x="432.5" y="-66" font-family="Helvetica,sans-Serif" font-size="10.00">Terraria.UI.UIElement.Get</text>
<text text-anchor="middle" x="495" y="-55" font-family="Helvetica,sans-Serif" font-size="10.00">InnerDimensions</text>
</a>
</g>
</g>
<!-- Node2&#45;&gt;Node5 -->
<g id="edge4_Node000002_Node000005" class="edge">
<title>Node2&#45;&gt;Node5</title>
<g id="a_edge4_Node000002_Node000005"><a xlink:title=" ">
<path fill="none" stroke="#63b8ff" d="M356.09,-63C375.18,-63 395.23,-63 413.94,-63"/>
<polygon fill="#63b8ff" stroke="#63b8ff" points="414.18,-66.5 424.18,-63 414.18,-59.5 414.18,-66.5"/>
</a>
</g>
</g>
<!-- Node6 -->
<g id="Node000006" class="node">
<title>Node6</title>
<g id="a_Node000006"><a xlink:href="../../d7/d72/classTerraria_1_1UI_1_1UIElement_a8bf52a8c33b045d1df8dbcc96bcbc818.html#a8bf52a8c33b045d1df8dbcc96bcbc818" target="_top" xlink:title=" ">
<polygon fill="white" stroke="#666666" points="585.5,-30 404.5,-30 404.5,0 585.5,0 585.5,-30"/>
<text text-anchor="start" x="412.5" y="-18" font-family="Helvetica,sans-Serif" font-size="10.00">Terraria.UI.UIElement.Recalculate</text>
<text text-anchor="middle" x="495" y="-7" font-family="Helvetica,sans-Serif" font-size="10.00">Children</text>
</a>
</g>
</g>
<!-- Node2&#45;&gt;Node6 -->
<g id="edge5_Node000002_Node000006" class="edge">
<title>Node2&#45;&gt;Node6</title>
<g id="a_edge5_Node000002_Node000006"><a xlink:title=" ">
<path fill="none" stroke="#63b8ff" d="M311.72,-53.46C340.61,-47.36 378.92,-39.28 412.95,-32.1"/>
<polygon fill="#63b8ff" stroke="#63b8ff" points="413.83,-35.49 422.89,-30 412.38,-28.64 413.83,-35.49"/>
</a>
</g>
</g>
<!-- Node4 -->
<g id="Node000004" class="node">
<title>Node4</title>
<g id="a_Node000004"><a xlink:href="../../d8/d74/structTerraria_1_1UI_1_1StyleDimension_acffa4ba4c6fbf99b983c8c59f17cc855.html#acffa4ba4c6fbf99b983c8c59f17cc855" target="_top" xlink:title=" ">
<polygon fill="white" stroke="#666666" points="784,-126 634,-126 634,-96 784,-96 784,-126"/>
<text text-anchor="start" x="642" y="-114" font-family="Helvetica,sans-Serif" font-size="10.00">Terraria.UI.StyleDimension.</text>
<text text-anchor="middle" x="709" y="-103" font-family="Helvetica,sans-Serif" font-size="10.00">GetValue</text>
</a>
</g>
</g>
<!-- Node3&#45;&gt;Node4 -->
<g id="edge3_Node000003_Node000004" class="edge">
<title>Node3&#45;&gt;Node4</title>
<g id="a_edge3_Node000003_Node000004"><a xlink:title=" ">
<path fill="none" stroke="#63b8ff" d="M598.27,-111C606.78,-111 615.32,-111 623.67,-111"/>
<polygon fill="#63b8ff" stroke="#63b8ff" points="623.75,-114.5 633.75,-111 623.75,-107.5 623.75,-114.5"/>
</a>
</g>
</g>
</g>
</svg>
