<?xml version="1.0" encoding="UTF-8" standalone="no"?>
<!DOCTYPE svg PUBLIC "-//W3C//DTD SVG 1.1//EN"
 "http://www.w3.org/Graphics/SVG/1.1/DTD/svg11.dtd">
<!-- Generated by graphviz version 2.43.0 (0)
 -->
<!-- Title: Terraria.ModLoader.MusicLoader.LoadMusic Pages: 1 -->
<svg width="775pt" height="86pt"
 viewBox="0.00 0.00 775.00 86.00" xmlns="http://www.w3.org/2000/svg" xmlns:xlink="http://www.w3.org/1999/xlink">
<g id="graph0" class="graph" transform="scale(1 1) rotate(0) translate(4 82)">
<title>Terraria.ModLoader.MusicLoader.LoadMusic</title>
<!-- Node1 -->
<g id="Node000001" class="node">
<title>Node1</title>
<g id="a_Node000001"><a xlink:title=" ">
<polygon fill="#999999" stroke="#666666" points="141,-54 0,-54 0,-24 141,-24 141,-54"/>
<text text-anchor="start" x="8" y="-42" font-family="Helvetica,sans-Serif" font-size="10.00">Terraria.ModLoader.Music</text>
<text text-anchor="middle" x="70.5" y="-31" font-family="Helvetica,sans-Serif" font-size="10.00">Loader.LoadMusic</text>
</a>
</g>
</g>
<!-- Node2 -->
<g id="Node000002" class="node">
<title>Node2</title>
<g id="a_Node000002"><a xlink:href="../../da/d9e/classTerraria_1_1ModLoader_1_1ModContent_a7d35872c47802050843cea0404e40112.html#a7d35872c47802050843cea0404e40112" target="_top" xlink:title=" ">
<polygon fill="white" stroke="#666666" points="352,-54 177,-54 177,-24 352,-24 352,-54"/>
<text text-anchor="start" x="185" y="-42" font-family="Helvetica,sans-Serif" font-size="10.00">Terraria.ModLoader.ModContent.</text>
<text text-anchor="middle" x="264.5" y="-31" font-family="Helvetica,sans-Serif" font-size="10.00">OpenRead</text>
</a>
</g>
</g>
<!-- Node1&#45;&gt;Node2 -->
<g id="edge1_Node000001_Node000002" class="edge">
<title>Node1&#45;&gt;Node2</title>
<g id="a_edge1_Node000001_Node000002"><a xlink:title=" ">
<path fill="none" stroke="#63b8ff" d="M141.09,-39C149.42,-39 158.04,-39 166.66,-39"/>
<polygon fill="#63b8ff" stroke="#63b8ff" points="166.78,-42.5 176.78,-39 166.78,-35.5 166.78,-42.5"/>
</a>
</g>
</g>
<!-- Node3 -->
<g id="Node000003" class="node">
<title>Node3</title>
<g id="a_Node000003"><a xlink:href="../../dc/d1f/classTerraria_1_1ModLoader_1_1ModLoader_aed988cac63e90351b6ed0bd72495f3af.html#aed988cac63e90351b6ed0bd72495f3af" target="_top" xlink:title="Gets the instance of the Mod with the specified name. This will throw an exception if the mod cannot ...">
<polygon fill="white" stroke="#666666" points="560,-78 391,-78 391,-48 560,-48 560,-78"/>
<text text-anchor="start" x="399" y="-66" font-family="Helvetica,sans-Serif" font-size="10.00">Terraria.ModLoader.ModLoader.</text>
<text text-anchor="middle" x="475.5" y="-55" font-family="Helvetica,sans-Serif" font-size="10.00">GetMod</text>
</a>
</g>
</g>
<!-- Node2&#45;&gt;Node3 -->
<g id="edge2_Node000002_Node000003" class="edge">
<title>Node2&#45;&gt;Node3</title>
<g id="a_edge2_Node000002_Node000003"><a xlink:title=" ">
<path fill="none" stroke="#63b8ff" d="M352.02,-48.93C361.42,-50.01 371.02,-51.12 380.51,-52.21"/>
<polygon fill="#63b8ff" stroke="#63b8ff" points="380.4,-55.72 390.74,-53.38 381.2,-48.76 380.4,-55.72"/>
</a>
</g>
</g>
<!-- Node4 -->
<g id="Node000004" class="node">
<title>Node4</title>
<g id="a_Node000004"><a xlink:href="../../da/d9e/classTerraria_1_1ModLoader_1_1ModContent_a84557c47d63f1cce2545d8903ff3fcfe.html#a84557c47d63f1cce2545d8903ff3fcfe" target="_top" xlink:title=" ">
<polygon fill="white" stroke="#666666" points="563,-30 388,-30 388,0 563,0 563,-30"/>
<text text-anchor="start" x="396" y="-18" font-family="Helvetica,sans-Serif" font-size="10.00">Terraria.ModLoader.ModContent.</text>
<text text-anchor="middle" x="475.5" y="-7" font-family="Helvetica,sans-Serif" font-size="10.00">SplitName</text>
</a>
</g>
</g>
<!-- Node2&#45;&gt;Node4 -->
<g id="edge3_Node000002_Node000004" class="edge">
<title>Node2&#45;&gt;Node4</title>
<g id="a_edge3_Node000002_Node000004"><a xlink:title=" ">
<path fill="none" stroke="#63b8ff" d="M352.02,-29.07C360.49,-28.09 369.13,-27.1 377.7,-26.12"/>
<polygon fill="#63b8ff" stroke="#63b8ff" points="378.18,-29.58 387.71,-24.97 377.38,-22.63 378.18,-29.58"/>
</a>
</g>
</g>
<!-- Node5 -->
<g id="Node000005" class="node">
<title>Node5</title>
<g id="a_Node000005"><a xlink:href="../../d4/d8f/classTerraria_1_1Localization_1_1Language_ae4636a4800b9ecbaa498954520462f78.html#ae4636a4800b9ecbaa498954520462f78" target="_top" xlink:title="Retrieves the text value for a specified localization key. The text returned will be for the currentl...">
<polygon fill="white" stroke="#666666" points="767,-30 599,-30 599,0 767,0 767,-30"/>
<text text-anchor="start" x="607" y="-18" font-family="Helvetica,sans-Serif" font-size="10.00">Terraria.Localization.Language.</text>
<text text-anchor="middle" x="683" y="-7" font-family="Helvetica,sans-Serif" font-size="10.00">GetTextValue</text>
</a>
</g>
</g>
<!-- Node4&#45;&gt;Node5 -->
<g id="edge4_Node000004_Node000005" class="edge">
<title>Node4&#45;&gt;Node5</title>
<g id="a_edge4_Node000004_Node000005"><a xlink:title=" ">
<path fill="none" stroke="#63b8ff" d="M563.05,-15C571.57,-15 580.24,-15 588.81,-15"/>
<polygon fill="#63b8ff" stroke="#63b8ff" points="588.83,-18.5 598.83,-15 588.83,-11.5 588.83,-18.5"/>
</a>
</g>
</g>
</g>
</svg>
