<?xml version="1.0" encoding="UTF-8" standalone="no"?>
<!DOCTYPE svg PUBLIC "-//W3C//DTD SVG 1.1//EN"
 "http://www.w3.org/Graphics/SVG/1.1/DTD/svg11.dtd">
<!-- Generated by graphviz version 2.43.0 (0)
 -->
<!-- Title: Terraria.DelegateMethods.CastLightOpen_StopForSolids Pages: 1 -->
<svg width="344pt" height="51pt"
 viewBox="0.00 0.00 344.00 50.50" xmlns="http://www.w3.org/2000/svg" xmlns:xlink="http://www.w3.org/1999/xlink">
<g id="graph0" class="graph" transform="scale(1 1) rotate(0) translate(4 46.5)">
<title>Terraria.DelegateMethods.CastLightOpen_StopForSolids</title>
<!-- Node1 -->
<g id="Node000001" class="node">
<title>Node1</title>
<g id="a_Node000001"><a xlink:title=" ">
<polygon fill="#999999" stroke="#666666" points="159,-30 0,-30 0,0 159,0 159,-30"/>
<text text-anchor="start" x="8" y="-18" font-family="Helvetica,sans-Serif" font-size="10.00">Terraria.DelegateMethods.</text>
<text text-anchor="middle" x="79.5" y="-7" font-family="Helvetica,sans-Serif" font-size="10.00">CastLightOpen_StopForSolids</text>
</a>
</g>
</g>
<!-- Node2 -->
<g id="Node000002" class="node">
<title>Node2</title>
<g id="a_Node000002"><a xlink:href="../../d0/d12/classTerraria_1_1Lighting_ae428de99ded78bcdb8e44e80d98d6216.html#ae428de99ded78bcdb8e44e80d98d6216" target="_top" xlink:title="Adds light to the world at the specified coordinates.">
<polygon fill="white" stroke="#666666" points="336,-24.5 195,-24.5 195,-5.5 336,-5.5 336,-24.5"/>
<text text-anchor="middle" x="265.5" y="-12.5" font-family="Helvetica,sans-Serif" font-size="10.00">Terraria.Lighting.AddLight</text>
</a>
</g>
</g>
<!-- Node1&#45;&gt;Node2 -->
<g id="edge1_Node000001_Node000002" class="edge">
<title>Node1&#45;&gt;Node2</title>
<g id="a_edge1_Node000001_Node000002"><a xlink:title=" ">
<path fill="none" stroke="#63b8ff" d="M159.07,-15C167.54,-15 176.17,-15 184.65,-15"/>
<polygon fill="#63b8ff" stroke="#63b8ff" points="184.91,-18.5 194.91,-15 184.91,-11.5 184.91,-18.5"/>
</a>
</g>
</g>
<!-- Node2&#45;&gt;Node2 -->
<g id="edge2_Node000002_Node000002" class="edge">
<title>Node2&#45;&gt;Node2</title>
<g id="a_edge2_Node000002_Node000002"><a xlink:title=" ">
<path fill="none" stroke="#63b8ff" d="M236.83,-24.58C222.89,-33.23 232.44,-42.5 265.5,-42.5 288.23,-42.5 299.85,-38.12 300.36,-32.57"/>
<polygon fill="#63b8ff" stroke="#63b8ff" points="303.06,-30.34 294.17,-24.58 297.53,-34.63 303.06,-30.34"/>
</a>
</g>
</g>
</g>
</svg>
