<?xml version="1.0" encoding="UTF-8" standalone="no"?>
<!DOCTYPE svg PUBLIC "-//W3C//DTD SVG 1.1//EN"
 "http://www.w3.org/Graphics/SVG/1.1/DTD/svg11.dtd">
<!-- Generated by graphviz version 2.43.0 (0)
 -->
<!-- Title: Terraria.GameContent.RGB.CommonConditions.SurfaceBiome Pages: 1 -->
<svg width="186pt" height="241pt"
 viewBox="0.00 0.00 186.00 241.00" xmlns="http://www.w3.org/2000/svg" xmlns:xlink="http://www.w3.org/1999/xlink">

<svg id="main" version="1.1" xmlns="http://www.w3.org/2000/svg" xmlns:xlink="http://www.w3.org/1999/xlink" xml:space="preserve" onload="init(evt)">
<style type="text/css"><![CDATA[
.node, .edge {opacity: 0.7;}
.node.selected, .edge.selected {opacity: 1;}
.edge:hover path { stroke: red; }
.edge:hover polygon { stroke: red; fill: red; }
]]></style>
<script type="application/ecmascript" xlink:href="../../svg.min.js"/>
<svg id="graph" class="graph">
<g id="graph0" class="graph" transform="scale(1 1) rotate(0) translate(4 237)">
<title>Terraria.GameContent.RGB.CommonConditions.SurfaceBiome</title>
<!-- Node1 -->
<g id="Node000001" class="node">
<title>Node1</title>
<g id="a_Node000001"><a xlink:title=" ">
<polygon fill="#999999" stroke="transparent" points="178,-60 0,-60 0,0 178,0 178,-60"/>
<text text-anchor="start" x="5" y="-48" font-family="Helvetica,sans-Serif" font-size="10.00">Terraria.GameContent.RGB.</text>
<text text-anchor="start" x="5" y="-37" font-family="Helvetica,sans-Serif" font-size="10.00">CommonConditions.SurfaceBiome</text>
<text text-anchor="start" x="87" y="-22" font-family="Helvetica,sans-Serif" font-size="10.00"> </text>
<text text-anchor="start" x="87" y="-7" font-family="Helvetica,sans-Serif" font-size="10.00"> </text>
<polygon fill="#666666" stroke="#666666" points="0,-32 0,-32 178,-32 178,-32 0,-32"/>
<polygon fill="#666666" stroke="#666666" points="0,-17 0,-17 178,-17 178,-17 0,-17"/>
<polygon fill="none" stroke="#666666" points="0,0 0,-60 178,-60 178,0 0,0"/>
</a>
</g>
</g>
<!-- Node2 -->
<g id="Node000002" class="node">
<title>Node2</title>
<g id="a_Node000002"><a xlink:title=" ">
<polygon fill="white" stroke="transparent" points="174.5,-233 3.5,-233 3.5,-184 174.5,-184 174.5,-233"/>
<text text-anchor="start" x="9" y="-220.5" font-family="Helvetica,sans-Serif" font-size="10.00">static readonly ChromaCondition</text>
<text text-anchor="start" x="87.5" y="-205.5" font-family="Helvetica,sans-Serif" font-size="10.00"> </text>
<text text-anchor="start" x="87.5" y="-190.5" font-family="Helvetica,sans-Serif" font-size="10.00"> </text>
<polygon fill="#666666" stroke="#666666" points="4,-215.5 4,-215.5 175,-215.5 175,-215.5 4,-215.5"/>
<polygon fill="#666666" stroke="#666666" points="4,-200.5 4,-200.5 175,-200.5 175,-200.5 4,-200.5"/>
<polygon fill="none" stroke="#666666" points="3.5,-184 3.5,-233 174.5,-233 174.5,-184 3.5,-184"/>
</a>
</g>
</g>
<!-- Node2&#45;&gt;Node1 -->
<g id="edge1_Node000001_Node000002" class="edge">
<title>Node2&#45;&gt;Node1</title>
<g id="a_edge1_Node000001_Node000002"><a xlink:title=" ">
<path fill="none" stroke="#63b8ff" d="M89,-183.7C89,-155.2 89,-107 89,-72.37"/>
<polygon fill="none" stroke="#63b8ff" points="89,-72.29 85,-66.29 89,-60.29 93,-66.29 89,-72.29"/>
</a>
</g>
<text text-anchor="middle" x="120.5" y="-158" font-family="Helvetica,sans-Serif" font-size="10.00" fill="grey"> +Corruption</text>
<text text-anchor="middle" x="120.5" y="-147" font-family="Helvetica,sans-Serif" font-size="10.00" fill="grey">+Crimson</text>
<text text-anchor="middle" x="120.5" y="-136" font-family="Helvetica,sans-Serif" font-size="10.00" fill="grey">+Desert</text>
<text text-anchor="middle" x="120.5" y="-125" font-family="Helvetica,sans-Serif" font-size="10.00" fill="grey">+Hallow</text>
<text text-anchor="middle" x="120.5" y="-114" font-family="Helvetica,sans-Serif" font-size="10.00" fill="grey">+Jungle</text>
<text text-anchor="middle" x="120.5" y="-103" font-family="Helvetica,sans-Serif" font-size="10.00" fill="grey">+Mushroom</text>
<text text-anchor="middle" x="120.5" y="-92" font-family="Helvetica,sans-Serif" font-size="10.00" fill="grey">+Ocean</text>
<text text-anchor="middle" x="120.5" y="-81" font-family="Helvetica,sans-Serif" font-size="10.00" fill="grey">+Snow</text>
</g>
</g>
</svg>
</svg>

<style type='text/css'>
<![CDATA[
[data-mouse-over-selected='false'] { opacity: 0.7; }
[data-mouse-over-selected='true']  { opacity: 1.0; }
]]>
</style>
<script type="application/ecmascript"><![CDATA[
document.addEventListener('DOMContentLoaded', (event) => {
  highlightEdges();
  highlightAdjacentNodes();
});
]]></script>
</svg>
