<?xml version="1.0" encoding="UTF-8" standalone="no"?>
<!DOCTYPE svg PUBLIC "-//W3C//DTD SVG 1.1//EN"
 "http://www.w3.org/Graphics/SVG/1.1/DTD/svg11.dtd">
<!-- Generated by graphviz version 2.43.0 (0)
 -->
<!-- Title: Terraria.ModLoader.UI.UIModSources.Update Pages: 1 -->
<svg width="1022pt" height="220pt"
 viewBox="0.00 0.00 1022.00 220.00" xmlns="http://www.w3.org/2000/svg" xmlns:xlink="http://www.w3.org/1999/xlink">
<g id="graph0" class="graph" transform="scale(1 1) rotate(0) translate(4 216)">
<title>Terraria.ModLoader.UI.UIModSources.Update</title>
<!-- Node1 -->
<g id="Node000001" class="node">
<title>Node1</title>
<g id="a_Node000001"><a xlink:title=" ">
<polygon fill="#999999" stroke="#666666" points="158,-99 0,-99 0,-69 158,-69 158,-99"/>
<text text-anchor="start" x="8" y="-87" font-family="Helvetica,sans-Serif" font-size="10.00">Terraria.ModLoader.UI.UIMod</text>
<text text-anchor="middle" x="79" y="-76" font-family="Helvetica,sans-Serif" font-size="10.00">Sources.Update</text>
</a>
</g>
</g>
<!-- Node2 -->
<g id="Node000002" class="node">
<title>Node2</title>
<g id="a_Node000002"><a xlink:href="../../d5/dda/classTerraria_1_1GameContent_1_1UI_1_1Elements_1_1UIList_a42559a91a8a9bb94b5082c12e2a44262.html#a42559a91a8a9bb94b5082c12e2a44262" target="_top" xlink:title=" ">
<polygon fill="white" stroke="#666666" points="349,-164 203,-164 203,-134 349,-134 349,-164"/>
<text text-anchor="start" x="211" y="-152" font-family="Helvetica,sans-Serif" font-size="10.00">Terraria.GameContent.UI.</text>
<text text-anchor="middle" x="276" y="-141" font-family="Helvetica,sans-Serif" font-size="10.00">Elements.UIList.AddRange</text>
</a>
</g>
</g>
<!-- Node1&#45;&gt;Node2 -->
<g id="edge1_Node000001_Node000002" class="edge">
<title>Node1&#45;&gt;Node2</title>
<g id="a_edge1_Node000001_Node000002"><a xlink:title=" ">
<path fill="none" stroke="#63b8ff" d="M125.23,-99.08C153.43,-108.48 189.92,-120.64 219.82,-130.61"/>
<polygon fill="#63b8ff" stroke="#63b8ff" points="219.09,-134.05 229.68,-133.89 221.3,-127.41 219.09,-134.05"/>
</a>
</g>
</g>
<!-- Node4 -->
<g id="Node000004" class="node">
<title>Node4</title>
<g id="a_Node000004"><a xlink:href="../../d7/d72/classTerraria_1_1UI_1_1UIElement_aa33dca6c66f9820ef270bc2e23ef1496.html#aa33dca6c66f9820ef270bc2e23ef1496" target="_top" xlink:title=" ">
<polygon fill="white" stroke="#666666" points="575,-115.5 394,-115.5 394,-96.5 575,-96.5 575,-115.5"/>
<text text-anchor="middle" x="484.5" y="-103.5" font-family="Helvetica,sans-Serif" font-size="10.00">Terraria.UI.UIElement.Recalculate</text>
</a>
</g>
</g>
<!-- Node1&#45;&gt;Node4 -->
<g id="edge15_Node000001_Node000004" class="edge">
<title>Node1&#45;&gt;Node4</title>
<g id="a_edge15_Node000001_Node000004"><a xlink:title=" ">
<path fill="none" stroke="#63b8ff" d="M158.28,-88.27C222.61,-91.78 314.15,-96.77 383.73,-100.56"/>
<polygon fill="#63b8ff" stroke="#63b8ff" points="383.66,-104.06 393.83,-101.11 384.04,-97.07 383.66,-104.06"/>
</a>
</g>
</g>
<!-- Node13 -->
<g id="Node000013" class="node">
<title>Node13</title>
<g id="a_Node000013"><a xlink:href="../../d5/dda/classTerraria_1_1GameContent_1_1UI_1_1Elements_1_1UIList_a376935bd3ae1fe4fddc4feb793ef9221.html#a376935bd3ae1fe4fddc4feb793ef9221" target="_top" xlink:title=" ">
<polygon fill="white" stroke="#666666" points="346,-78 206,-78 206,-48 346,-48 346,-78"/>
<text text-anchor="start" x="214" y="-66" font-family="Helvetica,sans-Serif" font-size="10.00">Terraria.GameContent.UI.</text>
<text text-anchor="middle" x="276" y="-55" font-family="Helvetica,sans-Serif" font-size="10.00">Elements.UIList.Clear</text>
</a>
</g>
</g>
<!-- Node1&#45;&gt;Node13 -->
<g id="edge13_Node000001_Node000013" class="edge">
<title>Node1&#45;&gt;Node13</title>
<g id="a_edge13_Node000001_Node000013"><a xlink:title=" ">
<path fill="none" stroke="#63b8ff" d="M158.19,-75.58C170.52,-74.25 183.29,-72.88 195.65,-71.55"/>
<polygon fill="#63b8ff" stroke="#63b8ff" points="196.35,-74.99 205.92,-70.44 195.6,-68.03 196.35,-74.99"/>
</a>
</g>
</g>
<!-- Node15 -->
<g id="Node000015" class="node">
<title>Node15</title>
<g id="a_Node000015"><a xlink:href="../../d7/d72/classTerraria_1_1UI_1_1UIElement_ac407afd27d2b68e6c175951c22e263b5.html#ac407afd27d2b68e6c175951c22e263b5" target="_top" xlink:title=" ">
<polygon fill="white" stroke="#666666" points="358,-30 194,-30 194,0 358,0 358,-30"/>
<text text-anchor="start" x="202" y="-18" font-family="Helvetica,sans-Serif" font-size="10.00">Terraria.UI.UIElement.Remove</text>
<text text-anchor="middle" x="276" y="-7" font-family="Helvetica,sans-Serif" font-size="10.00">Child</text>
</a>
</g>
</g>
<!-- Node1&#45;&gt;Node15 -->
<g id="edge16_Node000001_Node000015" class="edge">
<title>Node1&#45;&gt;Node15</title>
<g id="a_edge16_Node000001_Node000015"><a xlink:title=" ">
<path fill="none" stroke="#63b8ff" d="M115.64,-69C137.97,-59.83 167.45,-48.15 194,-39 199.82,-36.99 205.92,-35 212.03,-33.06"/>
<polygon fill="#63b8ff" stroke="#63b8ff" points="213.12,-36.39 221.63,-30.09 211.04,-29.71 213.12,-36.39"/>
</a>
</g>
</g>
<!-- Node3 -->
<g id="Node000003" class="node">
<title>Node3</title>
<g id="a_Node000003"><a xlink:href="../../d7/d72/classTerraria_1_1UI_1_1UIElement_a4f78a3ab59b3dffcdc5b68328a46f103.html#a4f78a3ab59b3dffcdc5b68328a46f103" target="_top" xlink:title=" ">
<polygon fill="white" stroke="#666666" points="565,-201.5 404,-201.5 404,-182.5 565,-182.5 565,-201.5"/>
<text text-anchor="middle" x="484.5" y="-189.5" font-family="Helvetica,sans-Serif" font-size="10.00">Terraria.UI.UIElement.Append</text>
</a>
</g>
</g>
<!-- Node2&#45;&gt;Node3 -->
<g id="edge2_Node000002_Node000003" class="edge">
<title>Node2&#45;&gt;Node3</title>
<g id="a_edge2_Node000002_Node000003"><a xlink:title=" ">
<path fill="none" stroke="#63b8ff" d="M349.22,-164.04C374.97,-169.4 403.56,-175.35 427.71,-180.38"/>
<polygon fill="#63b8ff" stroke="#63b8ff" points="427.27,-183.87 437.77,-182.48 428.69,-177.01 427.27,-183.87"/>
</a>
</g>
</g>
<!-- Node2&#45;&gt;Node4 -->
<g id="edge3_Node000002_Node000004" class="edge">
<title>Node2&#45;&gt;Node4</title>
<g id="a_edge3_Node000002_Node000004"><a xlink:title=" ">
<path fill="none" stroke="#63b8ff" d="M349.22,-133.96C374.97,-128.6 403.56,-122.65 427.71,-117.62"/>
<polygon fill="#63b8ff" stroke="#63b8ff" points="428.69,-120.99 437.77,-115.52 427.27,-114.13 428.69,-120.99"/>
</a>
</g>
</g>
<!-- Node9 -->
<g id="Node000009" class="node">
<title>Node9</title>
<g id="a_Node000009"><a xlink:href="../../d5/dda/classTerraria_1_1GameContent_1_1UI_1_1Elements_1_1UIList_a18ed60e2018174ed4dbc48331b1b2e33.html#a18ed60e2018174ed4dbc48331b1b2e33" target="_top" xlink:title=" ">
<polygon fill="white" stroke="#666666" points="563.5,-164 405.5,-164 405.5,-134 563.5,-134 563.5,-164"/>
<text text-anchor="start" x="413.5" y="-152" font-family="Helvetica,sans-Serif" font-size="10.00">Terraria.GameContent.UI.</text>
<text text-anchor="middle" x="484.5" y="-141" font-family="Helvetica,sans-Serif" font-size="10.00">Elements.UIList.UpdateOrder</text>
</a>
</g>
</g>
<!-- Node2&#45;&gt;Node9 -->
<g id="edge8_Node000002_Node000009" class="edge">
<title>Node2&#45;&gt;Node9</title>
<g id="a_edge8_Node000002_Node000009"><a xlink:title=" ">
<path fill="none" stroke="#63b8ff" d="M349.22,-149C364.11,-149 379.94,-149 395.32,-149"/>
<polygon fill="#63b8ff" stroke="#63b8ff" points="395.34,-152.5 405.34,-149 395.34,-145.5 395.34,-152.5"/>
</a>
</g>
</g>
<!-- Node5 -->
<g id="Node000005" class="node">
<title>Node5</title>
<g id="a_Node000005"><a xlink:href="../../d7/d72/classTerraria_1_1UI_1_1UIElement_a8cb8692a001e504adb564ae67833de3d.html#a8cb8692a001e504adb564ae67833de3d" target="_top" xlink:title=" ">
<polygon fill="white" stroke="#666666" points="817,-78 611,-78 611,-48 817,-48 817,-78"/>
<text text-anchor="start" x="619" y="-66" font-family="Helvetica,sans-Serif" font-size="10.00">Terraria.UI.UIElement.Get</text>
<text text-anchor="middle" x="714" y="-55" font-family="Helvetica,sans-Serif" font-size="10.00">DimensionsBasedOnParentDimensions</text>
</a>
</g>
</g>
<!-- Node4&#45;&gt;Node5 -->
<g id="edge4_Node000004_Node000005" class="edge">
<title>Node4&#45;&gt;Node5</title>
<g id="a_edge4_Node000004_Node000005"><a xlink:title=" ">
<path fill="none" stroke="#63b8ff" d="M535.99,-96.46C561.75,-91.59 593.85,-85.52 623.61,-79.89"/>
<polygon fill="#63b8ff" stroke="#63b8ff" points="624.43,-83.3 633.61,-78.01 623.13,-76.42 624.43,-83.3"/>
</a>
</g>
</g>
<!-- Node7 -->
<g id="Node000007" class="node">
<title>Node7</title>
<g id="a_Node000007"><a xlink:href="../../d7/d72/classTerraria_1_1UI_1_1UIElement_a5ad03f5ce0e776511a3b7e4a29e16caf.html#a5ad03f5ce0e776511a3b7e4a29e16caf" target="_top" xlink:title=" ">
<polygon fill="white" stroke="#666666" points="1004,-145 863,-145 863,-115 1004,-115 1004,-145"/>
<text text-anchor="start" x="871" y="-133" font-family="Helvetica,sans-Serif" font-size="10.00">Terraria.UI.UIElement.Get</text>
<text text-anchor="middle" x="933.5" y="-122" font-family="Helvetica,sans-Serif" font-size="10.00">InnerDimensions</text>
</a>
</g>
</g>
<!-- Node4&#45;&gt;Node7 -->
<g id="edge6_Node000004_Node000007" class="edge">
<title>Node4&#45;&gt;Node7</title>
<g id="a_edge6_Node000004_Node000007"><a xlink:title=" ">
<path fill="none" stroke="#63b8ff" d="M575.15,-110.81C656.25,-115.17 774.58,-121.52 852.53,-125.71"/>
<polygon fill="#63b8ff" stroke="#63b8ff" points="852.6,-129.22 862.78,-126.26 852.98,-122.23 852.6,-129.22"/>
</a>
</g>
</g>
<!-- Node8 -->
<g id="Node000008" class="node">
<title>Node8</title>
<g id="a_Node000008"><a xlink:href="../../d7/d72/classTerraria_1_1UI_1_1UIElement_a8bf52a8c33b045d1df8dbcc96bcbc818.html#a8bf52a8c33b045d1df8dbcc96bcbc818" target="_top" xlink:title=" ">
<polygon fill="white" stroke="#666666" points="804.5,-30 623.5,-30 623.5,0 804.5,0 804.5,-30"/>
<text text-anchor="start" x="631.5" y="-18" font-family="Helvetica,sans-Serif" font-size="10.00">Terraria.UI.UIElement.Recalculate</text>
<text text-anchor="middle" x="714" y="-7" font-family="Helvetica,sans-Serif" font-size="10.00">Children</text>
</a>
</g>
</g>
<!-- Node4&#45;&gt;Node8 -->
<g id="edge7_Node000004_Node000008" class="edge">
<title>Node4&#45;&gt;Node8</title>
<g id="a_edge7_Node000004_Node000008"><a xlink:title=" ">
<path fill="none" stroke="#63b8ff" d="M555.4,-96.39C562.3,-93.93 568.98,-90.85 575,-87 597.48,-72.65 588.68,-53.6 611,-39 613.46,-37.39 616.02,-35.89 618.65,-34.48"/>
<polygon fill="#63b8ff" stroke="#63b8ff" points="620.34,-37.56 627.85,-30.09 617.32,-31.24 620.34,-37.56"/>
</a>
</g>
</g>
<!-- Node6 -->
<g id="Node000006" class="node">
<title>Node6</title>
<g id="a_Node000006"><a xlink:href="../../d8/d74/structTerraria_1_1UI_1_1StyleDimension_acffa4ba4c6fbf99b983c8c59f17cc855.html#acffa4ba4c6fbf99b983c8c59f17cc855" target="_top" xlink:title=" ">
<polygon fill="white" stroke="#666666" points="1008.5,-78 858.5,-78 858.5,-48 1008.5,-48 1008.5,-78"/>
<text text-anchor="start" x="866.5" y="-66" font-family="Helvetica,sans-Serif" font-size="10.00">Terraria.UI.StyleDimension.</text>
<text text-anchor="middle" x="933.5" y="-55" font-family="Helvetica,sans-Serif" font-size="10.00">GetValue</text>
</a>
</g>
</g>
<!-- Node5&#45;&gt;Node6 -->
<g id="edge5_Node000005_Node000006" class="edge">
<title>Node5&#45;&gt;Node6</title>
<g id="a_edge5_Node000005_Node000006"><a xlink:title=" ">
<path fill="none" stroke="#63b8ff" d="M817.06,-63C827.49,-63 838.01,-63 848.21,-63"/>
<polygon fill="#63b8ff" stroke="#63b8ff" points="848.31,-66.5 858.31,-63 848.31,-59.5 848.31,-66.5"/>
</a>
</g>
</g>
<!-- Node10 -->
<g id="Node000010" class="node">
<title>Node10</title>
<g id="a_Node000010"><a xlink:href="../../d5/dda/classTerraria_1_1GameContent_1_1UI_1_1Elements_1_1UIList_ab7c6d0b1a81e3f3f1f22c6685146a9dc.html#ab7c6d0b1a81e3f3f1f22c6685146a9dc" target="_top" xlink:title=" ">
<polygon fill="white" stroke="#666666" points="790,-164 638,-164 638,-134 790,-134 790,-164"/>
<text text-anchor="start" x="646" y="-152" font-family="Helvetica,sans-Serif" font-size="10.00">Terraria.GameContent.UI.</text>
<text text-anchor="middle" x="714" y="-141" font-family="Helvetica,sans-Serif" font-size="10.00">Elements.UIList.SortMethod</text>
</a>
</g>
</g>
<!-- Node9&#45;&gt;Node10 -->
<g id="edge9_Node000009_Node000010" class="edge">
<title>Node9&#45;&gt;Node10</title>
<g id="a_edge9_Node000009_Node000010"><a xlink:title=" ">
<path fill="none" stroke="#63b8ff" d="M563.79,-149C584.34,-149 606.6,-149 627.5,-149"/>
<polygon fill="#63b8ff" stroke="#63b8ff" points="627.64,-152.5 637.64,-149 627.64,-145.5 627.64,-152.5"/>
</a>
</g>
</g>
<!-- Node11 -->
<g id="Node000011" class="node">
<title>Node11</title>
<g id="a_Node000011"><a xlink:href="../../d5/dda/classTerraria_1_1GameContent_1_1UI_1_1Elements_1_1UIList_a60a4c2955855c090a210914877fd7705.html#a60a4c2955855c090a210914877fd7705" target="_top" xlink:title=" ">
<polygon fill="white" stroke="#666666" points="801,-212 627,-212 627,-182 801,-182 801,-212"/>
<text text-anchor="start" x="635" y="-200" font-family="Helvetica,sans-Serif" font-size="10.00">Terraria.GameContent.UI.</text>
<text text-anchor="middle" x="714" y="-189" font-family="Helvetica,sans-Serif" font-size="10.00">Elements.UIList.UpdateScrollbar</text>
</a>
</g>
</g>
<!-- Node9&#45;&gt;Node11 -->
<g id="edge10_Node000009_Node000011" class="edge">
<title>Node9&#45;&gt;Node11</title>
<g id="a_edge10_Node000009_Node000011"><a xlink:title=" ">
<path fill="none" stroke="#63b8ff" d="M556.86,-164.06C580.68,-169.08 607.4,-174.72 631.9,-179.89"/>
<polygon fill="#63b8ff" stroke="#63b8ff" points="631.39,-183.36 641.89,-182 632.83,-176.51 631.39,-183.36"/>
</a>
</g>
</g>
<!-- Node11&#45;&gt;Node7 -->
<g id="edge11_Node000011_Node000007" class="edge">
<title>Node11&#45;&gt;Node7</title>
<g id="a_edge11_Node000011_Node000007"><a xlink:title=" ">
<path fill="none" stroke="#63b8ff" d="M784.17,-181.96C795.21,-179.21 806.47,-176.19 817,-173 840.07,-166.02 865.21,-156.86 886.12,-148.78"/>
<polygon fill="#63b8ff" stroke="#63b8ff" points="887.67,-151.94 895.71,-145.04 885.12,-145.41 887.67,-151.94"/>
</a>
</g>
</g>
<!-- Node12 -->
<g id="Node000012" class="node">
<title>Node12</title>
<g id="a_Node000012"><a xlink:href="../../d6/dea/classTerraria_1_1GameContent_1_1UI_1_1Elements_1_1UIScrollbar_ab94392501a400e8db7dbba6c8294ebff.html#ab94392501a400e8db7dbba6c8294ebff" target="_top" xlink:title=" ">
<polygon fill="white" stroke="#666666" points="1014,-212 853,-212 853,-182 1014,-182 1014,-212"/>
<text text-anchor="start" x="861" y="-200" font-family="Helvetica,sans-Serif" font-size="10.00">Terraria.GameContent.UI.</text>
<text text-anchor="middle" x="933.5" y="-189" font-family="Helvetica,sans-Serif" font-size="10.00">Elements.UIScrollbar.SetView</text>
</a>
</g>
</g>
<!-- Node11&#45;&gt;Node12 -->
<g id="edge12_Node000011_Node000012" class="edge">
<title>Node11&#45;&gt;Node12</title>
<g id="a_edge12_Node000011_Node000012"><a xlink:title=" ">
<path fill="none" stroke="#63b8ff" d="M801.27,-197C814.79,-197 828.79,-197 842.39,-197"/>
<polygon fill="#63b8ff" stroke="#63b8ff" points="842.69,-200.5 852.69,-197 842.69,-193.5 842.69,-200.5"/>
</a>
</g>
</g>
<!-- Node14 -->
<g id="Node000014" class="node">
<title>Node14</title>
<g id="a_Node000014"><a xlink:href="../../d7/d72/classTerraria_1_1UI_1_1UIElement_a8358ff058ca4696cbdf817c755f2e568.html#a8358ff058ca4696cbdf817c755f2e568" target="_top" xlink:title=" ">
<polygon fill="white" stroke="#666666" points="566.5,-78 402.5,-78 402.5,-48 566.5,-48 566.5,-78"/>
<text text-anchor="start" x="410.5" y="-66" font-family="Helvetica,sans-Serif" font-size="10.00">Terraria.UI.UIElement.Remove</text>
<text text-anchor="middle" x="484.5" y="-55" font-family="Helvetica,sans-Serif" font-size="10.00">AllChildren</text>
</a>
</g>
</g>
<!-- Node13&#45;&gt;Node14 -->
<g id="edge14_Node000013_Node000014" class="edge">
<title>Node13&#45;&gt;Node14</title>
<g id="a_edge14_Node000013_Node000014"><a xlink:title=" ">
<path fill="none" stroke="#63b8ff" d="M346.05,-63C360.86,-63 376.73,-63 392.24,-63"/>
<polygon fill="#63b8ff" stroke="#63b8ff" points="392.36,-66.5 402.36,-63 392.36,-59.5 392.36,-66.5"/>
</a>
</g>
</g>
</g>
</svg>
