<?xml version="1.0" encoding="UTF-8" standalone="no"?>
<!DOCTYPE svg PUBLIC "-//W3C//DTD SVG 1.1//EN"
 "http://www.w3.org/Graphics/SVG/1.1/DTD/svg11.dtd">
<!-- Generated by graphviz version 2.43.0 (0)
 -->
<!-- Title: Terraria.GameContent.ItemDropRules.CommonDropNotScalingWithLuck Pages: 1 -->
<svg width="328pt" height="674pt"
 viewBox="0.00 0.00 327.50 674.00" xmlns="http://www.w3.org/2000/svg" xmlns:xlink="http://www.w3.org/1999/xlink">
<g id="graph0" class="graph" transform="scale(1 1) rotate(0) translate(4 670)">
<title>Terraria.GameContent.ItemDropRules.CommonDropNotScalingWithLuck</title>
<!-- Node1 -->
<g id="Node000001" class="node">
<title>Node1</title>
<g id="a_Node000001"><a xlink:title=" ">
<polygon fill="#999999" stroke="transparent" points="283,-189 6,-189 6,0 283,0 283,-189"/>
<text text-anchor="start" x="58" y="-176.5" font-family="Helvetica,sans-Serif" font-size="10.00">Terraria.GameContent.Item</text>
<text text-anchor="start" x="58" y="-165.5" font-family="Helvetica,sans-Serif" font-size="10.00">DropRules.CommonDropNotScaling</text>
<text text-anchor="start" x="122" y="-154.5" font-family="Helvetica,sans-Serif" font-size="10.00">WithLuck</text>
<text text-anchor="start" x="143" y="-139.5" font-family="Helvetica,sans-Serif" font-size="10.00"> </text>
<text text-anchor="start" x="10.5" y="-124.5" font-family="Helvetica,sans-Serif" font-size="10.00">+</text>
<text text-anchor="start" x="23.5" y="-124.5" font-family="Helvetica,sans-Serif" font-size="10.00">CommonDropNotScalingWith</text>
<text text-anchor="start" x="23.5" y="-113.5" font-family="Helvetica,sans-Serif" font-size="10.00">Luck(int itemId, int chanceDenominator,</text>
<text text-anchor="start" x="23.5" y="-102.5" font-family="Helvetica,sans-Serif" font-size="10.00"> int amountDroppedMinimum, int amountDropped</text>
<text text-anchor="start" x="23.5" y="-91.5" font-family="Helvetica,sans-Serif" font-size="10.00">Maximum)</text>
<text text-anchor="start" x="10.5" y="-76.5" font-family="Helvetica,sans-Serif" font-size="10.00">+</text>
<text text-anchor="start" x="23.5" y="-76.5" font-family="Helvetica,sans-Serif" font-size="10.00">CommonDropNotScalingWith</text>
<text text-anchor="start" x="23.5" y="-65.5" font-family="Helvetica,sans-Serif" font-size="10.00">Luck(int itemId, int chanceDenominator,</text>
<text text-anchor="start" x="23.5" y="-54.5" font-family="Helvetica,sans-Serif" font-size="10.00"> int chanceNumerator, int amountDroppedMinimum,</text>
<text text-anchor="start" x="23.5" y="-43.5" font-family="Helvetica,sans-Serif" font-size="10.00"> int amountDroppedMaximum)</text>
<text text-anchor="start" x="10.5" y="-28.5" font-family="Helvetica,sans-Serif" font-size="10.00">+</text>
<text text-anchor="start" x="23.5" y="-28.5" font-family="Helvetica,sans-Serif" font-size="10.00">override ItemDropAttempt</text>
<text text-anchor="start" x="23.5" y="-17.5" font-family="Helvetica,sans-Serif" font-size="10.00">Result TryDroppingItem</text>
<text text-anchor="start" x="23.5" y="-6.5" font-family="Helvetica,sans-Serif" font-size="10.00">(DropAttemptInfo info)</text>
<polygon fill="#666666" stroke="#666666" points="6.5,-149.5 6.5,-149.5 283.5,-149.5 283.5,-149.5 6.5,-149.5"/>
<polygon fill="#666666" stroke="#666666" points="6.5,-134.5 6.5,-134.5 283.5,-134.5 283.5,-134.5 6.5,-134.5"/>
<polygon fill="none" stroke="#666666" points="6,0 6,-189 283,-189 283,0 6,0"/>
</a>
</g>
</g>
<!-- Node2 -->
<g id="Node000002" class="node">
<title>Node2</title>
<g id="a_Node000002"><a xlink:href="../../da/d1e/classTerraria_1_1GameContent_1_1ItemDropRules_1_1CommonDrop.html" target="_top" xlink:title=" ">
<polygon fill="white" stroke="transparent" points="253,-419 36,-419 36,-226 253,-226 253,-419"/>
<text text-anchor="start" x="111" y="-406.5" font-family="Helvetica,sans-Serif" font-size="10.00">CommonDrop</text>
<text text-anchor="start" x="40.5" y="-391.5" font-family="Helvetica,sans-Serif" font-size="10.00">+</text>
<text text-anchor="start" x="53.5" y="-391.5" font-family="Helvetica,sans-Serif" font-size="10.00">List&lt; IItemDropRuleChain</text>
<text text-anchor="start" x="53.5" y="-380.5" font-family="Helvetica,sans-Serif" font-size="10.00">Attempt &gt; ChainedRules</text>
<text text-anchor="start" x="40.5" y="-365.5" font-family="Helvetica,sans-Serif" font-size="10.00">+</text>
<text text-anchor="start" x="53.5" y="-365.5" font-family="Helvetica,sans-Serif" font-size="10.00">CommonDrop(int itemId,</text>
<text text-anchor="start" x="53.5" y="-354.5" font-family="Helvetica,sans-Serif" font-size="10.00"> int chanceDenominator,</text>
<text text-anchor="start" x="53.5" y="-343.5" font-family="Helvetica,sans-Serif" font-size="10.00"> int amountDroppedMinimum</text>
<text text-anchor="start" x="53.5" y="-332.5" font-family="Helvetica,sans-Serif" font-size="10.00">=1, int amountDroppedMaximum</text>
<text text-anchor="start" x="53.5" y="-321.5" font-family="Helvetica,sans-Serif" font-size="10.00">=1, int chanceNumerator=1)</text>
<text text-anchor="start" x="40.5" y="-306.5" font-family="Helvetica,sans-Serif" font-size="10.00">+</text>
<text text-anchor="start" x="53.5" y="-306.5" font-family="Helvetica,sans-Serif" font-size="10.00">virtual bool CanDrop</text>
<text text-anchor="start" x="53.5" y="-295.5" font-family="Helvetica,sans-Serif" font-size="10.00">(DropAttemptInfo info)</text>
<text text-anchor="start" x="40.5" y="-280.5" font-family="Helvetica,sans-Serif" font-size="10.00">+</text>
<text text-anchor="start" x="53.5" y="-280.5" font-family="Helvetica,sans-Serif" font-size="10.00">virtual ItemDropAttemptResult</text>
<text text-anchor="start" x="53.5" y="-269.5" font-family="Helvetica,sans-Serif" font-size="10.00"> TryDroppingItem(DropAttemptInfo info)</text>
<text text-anchor="start" x="40.5" y="-254.5" font-family="Helvetica,sans-Serif" font-size="10.00">+</text>
<text text-anchor="start" x="53.5" y="-254.5" font-family="Helvetica,sans-Serif" font-size="10.00">virtual void ReportDroprates</text>
<text text-anchor="start" x="53.5" y="-243.5" font-family="Helvetica,sans-Serif" font-size="10.00">(List&lt; DropRateInfo &gt; drops,</text>
<text text-anchor="start" x="53.5" y="-232.5" font-family="Helvetica,sans-Serif" font-size="10.00"> DropRateInfoChainFeed ratesInfo)</text>
<polygon fill="#666666" stroke="#666666" points="36.5,-401.5 36.5,-401.5 253.5,-401.5 253.5,-401.5 36.5,-401.5"/>
<polygon fill="#666666" stroke="#666666" points="36.5,-375.5 36.5,-375.5 51.5,-375.5 51.5,-375.5 36.5,-375.5"/>
<polygon fill="#666666" stroke="#666666" points="51.5,-375.5 51.5,-375.5 253.5,-375.5 253.5,-375.5 51.5,-375.5"/>
<polygon fill="none" stroke="#666666" points="36,-226 36,-419 253,-419 253,-226 36,-226"/>
</a>
</g>
</g>
<!-- Node2&#45;&gt;Node1 -->
<g id="edge1_Node000001_Node000002" class="edge">
<title>Node2&#45;&gt;Node1</title>
<g id="a_edge1_Node000001_Node000002"><a xlink:title=" ">
<path fill="none" stroke="#63b8ff" d="M144.5,-215.95C144.5,-207.03 144.5,-198.05 144.5,-189.23"/>
<polygon fill="none" stroke="#63b8ff" points="141,-215.98 144.5,-225.98 148,-215.98 141,-215.98"/>
</a>
</g>
</g>
<!-- Node3 -->
<g id="Node000003" class="node">
<title>Node3</title>
<g id="a_Node000003"><a xlink:href="../../de/dd1/interfaceTerraria_1_1GameContent_1_1ItemDropRules_1_1IItemDropRule.html" target="_top" xlink:title=" ">
<polygon fill="white" stroke="transparent" points="173,-666 0,-666 0,-510 173,-510 173,-666"/>
<text text-anchor="start" x="51.5" y="-654" font-family="Helvetica,sans-Serif" font-size="10.00">IItemDropRule</text>
<text text-anchor="start" x="4.5" y="-639" font-family="Helvetica,sans-Serif" font-size="10.00">+</text>
<text text-anchor="start" x="17.5" y="-639" font-family="Helvetica,sans-Serif" font-size="10.00">List&lt; IItemDropRuleChain</text>
<text text-anchor="start" x="17.5" y="-628" font-family="Helvetica,sans-Serif" font-size="10.00">Attempt &gt; ChainedRules</text>
<text text-anchor="start" x="4.5" y="-613" font-family="Helvetica,sans-Serif" font-size="10.00">+</text>
<text text-anchor="start" x="17.5" y="-613" font-family="Helvetica,sans-Serif" font-size="10.00">bool CanDrop(DropAttempt</text>
<text text-anchor="start" x="17.5" y="-602" font-family="Helvetica,sans-Serif" font-size="10.00">Info info)</text>
<text text-anchor="start" x="4.5" y="-587" font-family="Helvetica,sans-Serif" font-size="10.00">+</text>
<text text-anchor="start" x="17.5" y="-587" font-family="Helvetica,sans-Serif" font-size="10.00">void ReportDroprates</text>
<text text-anchor="start" x="17.5" y="-576" font-family="Helvetica,sans-Serif" font-size="10.00">(List&lt; DropRateInfo &gt;</text>
<text text-anchor="start" x="17.5" y="-565" font-family="Helvetica,sans-Serif" font-size="10.00"> drops, DropRateInfoChainFeed</text>
<text text-anchor="start" x="17.5" y="-554" font-family="Helvetica,sans-Serif" font-size="10.00"> ratesInfo)</text>
<text text-anchor="start" x="4.5" y="-539" font-family="Helvetica,sans-Serif" font-size="10.00">+</text>
<text text-anchor="start" x="17.5" y="-539" font-family="Helvetica,sans-Serif" font-size="10.00">ItemDropAttemptResult</text>
<text text-anchor="start" x="17.5" y="-528" font-family="Helvetica,sans-Serif" font-size="10.00"> TryDroppingItem(DropAttempt</text>
<text text-anchor="start" x="17.5" y="-517" font-family="Helvetica,sans-Serif" font-size="10.00">Info info)</text>
<polygon fill="#666666" stroke="#666666" points="0.5,-649 0.5,-649 173.5,-649 173.5,-649 0.5,-649"/>
<polygon fill="#666666" stroke="#666666" points="0.5,-623 0.5,-623 15.5,-623 15.5,-623 0.5,-623"/>
<polygon fill="#666666" stroke="#666666" points="15.5,-623 15.5,-623 173.5,-623 173.5,-623 15.5,-623"/>
<polygon fill="none" stroke="#666666" points="0,-510 0,-666 173,-666 173,-510 0,-510"/>
</a>
</g>
</g>
<!-- Node3&#45;&gt;Node2 -->
<g id="edge2_Node000002_Node000003" class="edge">
<title>Node3&#45;&gt;Node2</title>
<g id="a_edge2_Node000002_Node000003"><a xlink:title=" ">
<path fill="none" stroke="#63b8ff" d="M105.67,-499.92C111.37,-474 117.66,-445.45 123.48,-419.02"/>
<polygon fill="none" stroke="#63b8ff" points="102.24,-499.2 103.51,-509.72 109.08,-500.71 102.24,-499.2"/>
</a>
</g>
</g>
<!-- Node4 -->
<g id="Node000004" class="node">
<title>Node4</title>
<g id="a_Node000004"><a xlink:title=" ">
<polygon fill="white" stroke="transparent" points="214,-612.5 191,-612.5 191,-563.5 214,-563.5 214,-612.5"/>
<text text-anchor="start" x="196.5" y="-600" font-family="Helvetica,sans-Serif" font-size="10.00">int</text>
<text text-anchor="start" x="201" y="-585" font-family="Helvetica,sans-Serif" font-size="10.00"> </text>
<text text-anchor="start" x="201" y="-570" font-family="Helvetica,sans-Serif" font-size="10.00"> </text>
<polygon fill="#666666" stroke="#666666" points="191.5,-595 191.5,-595 214.5,-595 214.5,-595 191.5,-595"/>
<polygon fill="#666666" stroke="#666666" points="191.5,-580 191.5,-580 214.5,-580 214.5,-580 191.5,-580"/>
<polygon fill="none" stroke="#666666" points="191,-563.5 191,-612.5 214,-612.5 214,-563.5 191,-563.5"/>
</a>
</g>
</g>
<!-- Node4&#45;&gt;Node2 -->
<g id="edge3_Node000002_Node000004" class="edge">
<title>Node4&#45;&gt;Node2</title>
<g id="a_edge3_Node000002_Node000004"><a xlink:title=" ">
<path fill="none" stroke="#63b8ff" d="M197.25,-563.15C190.66,-533.19 178.9,-479.77 168.15,-430.97"/>
<polygon fill="none" stroke="#63b8ff" points="168.1,-430.72 162.9,-425.72 165.52,-419 170.72,-424 168.1,-430.72"/>
</a>
</g>
<text text-anchor="middle" x="249.5" y="-484" font-family="Helvetica,sans-Serif" font-size="10.00" fill="grey"> +amountDroppedMaximum</text>
<text text-anchor="middle" x="249.5" y="-473" font-family="Helvetica,sans-Serif" font-size="10.00" fill="grey">+amountDroppedMinimum</text>
<text text-anchor="middle" x="249.5" y="-462" font-family="Helvetica,sans-Serif" font-size="10.00" fill="grey">+chanceDenominator</text>
<text text-anchor="middle" x="249.5" y="-451" font-family="Helvetica,sans-Serif" font-size="10.00" fill="grey">+chanceNumerator</text>
<text text-anchor="middle" x="249.5" y="-440" font-family="Helvetica,sans-Serif" font-size="10.00" fill="grey">+itemId</text>
</g>
</g>
</svg>
