<?xml version="1.0" encoding="UTF-8" standalone="no"?>
<!DOCTYPE svg PUBLIC "-//W3C//DTD SVG 1.1//EN"
 "http://www.w3.org/Graphics/SVG/1.1/DTD/svg11.dtd">
<!-- Generated by graphviz version 2.43.0 (0)
 -->
<!-- Title: Terraria.GameContent.UI.States.UICharacterCreation.SelectColorPicker Pages: 1 -->
<!--zoomable 578 -->

<svg id="main" version="1.1" xmlns="http://www.w3.org/2000/svg" xmlns:xlink="http://www.w3.org/1999/xlink" xml:space="preserve" onload="init(evt)">
<style type="text/css"><![CDATA[
.node, .edge {opacity: 0.7;}
.node.selected, .edge.selected {opacity: 1;}
.edge:hover path { stroke: red; }
.edge:hover polygon { stroke: red; fill: red; }
]]></style>

<defs>
  <circle id="rim" cx="0" cy="0" r="7"/>
  <circle id="rim2" cx="0" cy="0" r="3.5"/>
  <g id="zoomPlus">
    <use xlink:href="#rim" fill="#404040"><set attributeName="fill" to="#808080" begin="zoomplus.mouseover" end="zoomplus.mouseout"/></use>
    <path d="M-4,0h8M0,-4v8" fill="none" stroke="white" stroke-width="1.5" pointer-events="none"/>
  </g>
  <g id="zoomMin">
    <use xlink:href="#rim" fill="#404040"><set attributeName="fill" to="#808080" begin="zoomminus.mouseover" end="zoomminus.mouseout"/></use>
    <path d="M-4,0h8" fill="none" stroke="white" stroke-width="1.5" pointer-events="none"/>
  </g>
  <g id="arrowUp" transform="translate(30 24)">
    <use xlink:href="#rim"/>
    <path pointer-events="none" fill="none" stroke="white" stroke-width="1.5" d="M0,-3.0v7 M-2.5,-0.5L0,-3.0L2.5,-0.5"/>
  </g>
  <g id="arrowRight" transform="rotate(90) translate(36 -43)">
    <use xlink:href="#rim"/>
    <path pointer-events="none" fill="none" stroke="white" stroke-width="1.5" d="M0,-3.0v7 M-2.5,-0.5L0,-3.0L2.5,-0.5"/>
  </g>
  <g id="arrowDown" transform="rotate(180) translate(-30 -48)">
    <use xlink:href="#rim"/>
    <path pointer-events="none" fill="none" stroke="white" stroke-width="1.5" d="M0,-3.0v7 M-2.5,-0.5L0,-3.0L2.5,-0.5"/>
  </g>
  <g id="arrowLeft" transform="rotate(270) translate(-36 17)">
    <use xlink:href="#rim"/>
    <path pointer-events="none" fill="none" stroke="white" stroke-width="1.5" d="M0,-3.0v7 M-2.5,-0.5L0,-3.0L2.5,-0.5"/>
  </g>
  <g id="resetDef">
    <use xlink:href="#rim2" fill="#404040"><set attributeName="fill" to="#808080" begin="reset.mouseover" end="reset.mouseout"/></use>
  </g>
</defs>
<script type="application/ecmascript">
var viewWidth = 1460;
var viewHeight = 578;
var sectionId = 'dynsection-0';
</script>
<script type="application/ecmascript" xlink:href="../../svg.min.js"/>
<svg id="graph" class="graph">
<g id="viewport">
<title>Terraria.GameContent.UI.States.UICharacterCreation.SelectColorPicker</title>
<!-- Node1 -->
<g id="Node000001" class="node">
<title>Node1</title>
<g id="a_Node000001"><a xlink:title=" ">
<polygon fill="#999999" stroke="#666666" points="182,-334 0,-334 0,-293 182,-293 182,-334"/>
<text text-anchor="start" x="8" y="-322" font-family="Helvetica,sans-Serif" font-size="10.00">Terraria.GameContent.UI.</text>
<text text-anchor="start" x="8" y="-311" font-family="Helvetica,sans-Serif" font-size="10.00">States.UICharacterCreation.Select</text>
<text text-anchor="middle" x="91" y="-300" font-family="Helvetica,sans-Serif" font-size="10.00">ColorPicker</text>
</a>
</g>
</g>
<!-- Node2 -->
<g id="Node000002" class="node">
<title>Node2</title>
<g id="a_Node000002"><a xlink:href="../../d7/d72/classTerraria_1_1UI_1_1UIElement_a4f78a3ab59b3dffcdc5b68328a46f103.html#a4f78a3ab59b3dffcdc5b68328a46f103" target="_top" xlink:title=" ">
<polygon fill="white" stroke="#666666" points="620,-476 459,-476 459,-457 620,-457 620,-476"/>
<text text-anchor="middle" x="539.5" y="-464" font-family="Helvetica,sans-Serif" font-size="10.00">Terraria.UI.UIElement.Append</text>
</a>
</g>
</g>
<!-- Node1&#45;&gt;Node2 -->
<g id="edge1_Node000001_Node000002" class="edge">
<title>Node1&#45;&gt;Node2</title>
<g id="a_edge1_Node000001_Node000002"><a xlink:title=" ">
<path fill="none" stroke="#63b8ff" d="M114.82,-334.13C138.77,-354.64 178.4,-385.45 218,-402.5 229.92,-407.63 388.49,-438.11 478.01,-455.09"/>
<polygon fill="#63b8ff" stroke="#63b8ff" points="477.57,-458.57 488.04,-456.99 478.87,-451.69 477.57,-458.57"/>
</a>
</g>
</g>
<!-- Node3 -->
<g id="Node000003" class="node">
<title>Node3</title>
<g id="a_Node000003"><a xlink:href="../../d8/db0/classTerraria_1_1GameContent_1_1UI_1_1States_1_1UICharacterCreation_abe11ab6fb87c9f6b210e97f57c4f21ec.html#abe11ab6fb87c9f6b210e97f57c4f21ec" target="_top" xlink:title=" ">
<polygon fill="white" stroke="#666666" points="400,-491 224,-491 224,-450 400,-450 400,-491"/>
<text text-anchor="start" x="232" y="-479" font-family="Helvetica,sans-Serif" font-size="10.00">Terraria.GameContent.UI.</text>
<text text-anchor="start" x="232" y="-468" font-family="Helvetica,sans-Serif" font-size="10.00">States.UICharacterCreation.Click</text>
<text text-anchor="middle" x="312" y="-457" font-family="Helvetica,sans-Serif" font-size="10.00">_CharInfo</text>
</a>
</g>
</g>
<!-- Node1&#45;&gt;Node3 -->
<g id="edge2_Node000001_Node000003" class="edge">
<title>Node1&#45;&gt;Node3</title>
<g id="a_edge2_Node000001_Node000003"><a xlink:title=" ">
<path fill="none" stroke="#63b8ff" d="M108.72,-334.31C131.12,-360.98 173.24,-407.15 218,-435.5 223.78,-439.16 230,-442.52 236.38,-445.6"/>
<polygon fill="#63b8ff" stroke="#63b8ff" points="235.27,-448.94 245.82,-449.9 238.17,-442.57 235.27,-448.94"/>
</a>
</g>
</g>
<!-- Node5 -->
<g id="Node000005" class="node">
<title>Node5</title>
<g id="a_Node000005"><a xlink:href="../../d7/d36/classTerraria_1_1GameContent_1_1UI_1_1Elements_1_1UIColoredImageButton_ad3732de572c260c9c168d97912a9b8e1.html#ad3732de572c260c9c168d97912a9b8e1" target="_top" xlink:title=" ">
<polygon fill="white" stroke="#666666" points="852,-358 673,-358 673,-317 852,-317 852,-358"/>
<text text-anchor="start" x="681" y="-346" font-family="Helvetica,sans-Serif" font-size="10.00">Terraria.GameContent.UI.</text>
<text text-anchor="start" x="681" y="-335" font-family="Helvetica,sans-Serif" font-size="10.00">Elements.UIColoredImageButton.</text>
<text text-anchor="middle" x="762.5" y="-324" font-family="Helvetica,sans-Serif" font-size="10.00">SetSelected</text>
</a>
</g>
</g>
<!-- Node1&#45;&gt;Node5 -->
<g id="edge27_Node000001_Node000005" class="edge">
<title>Node1&#45;&gt;Node5</title>
<g id="a_edge27_Node000001_Node000005"><a xlink:title=" ">
<path fill="none" stroke="#63b8ff" d="M163.81,-292.99C269.26,-266.16 471.44,-227.23 637,-269.5 668.88,-277.64 701.39,-295.8 725.19,-311.31"/>
<polygon fill="#63b8ff" stroke="#63b8ff" points="723.29,-314.25 733.55,-316.88 727.17,-308.42 723.29,-314.25"/>
</a>
</g>
</g>
<!-- Node6 -->
<g id="Node000006" class="node">
<title>Node6</title>
<g id="a_Node000006"><a xlink:href="../../d8/db0/classTerraria_1_1GameContent_1_1UI_1_1States_1_1UICharacterCreation_ad73dd19e72d685f4274ef66b4c76c122.html#ad73dd19e72d685f4274ef66b4c76c122" target="_top" xlink:title=" ">
<polygon fill="white" stroke="#666666" points="637,-535 442,-535 442,-494 637,-494 637,-535"/>
<text text-anchor="start" x="450" y="-523" font-family="Helvetica,sans-Serif" font-size="10.00">Terraria.GameContent.UI.</text>
<text text-anchor="start" x="450" y="-512" font-family="Helvetica,sans-Serif" font-size="10.00">States.UICharacterCreation.Unselect</text>
<text text-anchor="middle" x="539.5" y="-501" font-family="Helvetica,sans-Serif" font-size="10.00">AllCategories</text>
</a>
</g>
</g>
<!-- Node1&#45;&gt;Node6 -->
<g id="edge28_Node000001_Node000006" class="edge">
<title>Node1&#45;&gt;Node6</title>
<g id="a_edge28_Node000001_Node000006"><a xlink:title=" ">
<path fill="none" stroke="#63b8ff" d="M98.82,-334.25C113.35,-374.67 151.58,-463.28 218,-500.5 282.47,-536.63 366.21,-539.06 431.93,-533.03"/>
<polygon fill="#63b8ff" stroke="#63b8ff" points="432.29,-536.51 441.9,-532.04 431.6,-529.55 432.29,-536.51"/>
</a>
</g>
</g>
<!-- Node9 -->
<g id="Node000009" class="node">
<title>Node9</title>
<g id="a_Node000009"><a xlink:href="../../d8/db0/classTerraria_1_1GameContent_1_1UI_1_1States_1_1UICharacterCreation_ad84c8a5202e064ba56814120d6b2b92a.html#ad84c8a5202e064ba56814120d6b2b92a" target="_top" xlink:title=" ">
<polygon fill="white" stroke="#666666" points="400,-334 224,-334 224,-293 400,-293 400,-334"/>
<text text-anchor="start" x="232" y="-322" font-family="Helvetica,sans-Serif" font-size="10.00">Terraria.GameContent.UI.</text>
<text text-anchor="start" x="232" y="-311" font-family="Helvetica,sans-Serif" font-size="10.00">States.UICharacterCreation.Click</text>
<text text-anchor="middle" x="312" y="-300" font-family="Helvetica,sans-Serif" font-size="10.00">_ClothStyles</text>
</a>
</g>
</g>
<!-- Node1&#45;&gt;Node9 -->
<g id="edge11_Node000001_Node000009" class="edge">
<title>Node1&#45;&gt;Node9</title>
<g id="a_edge11_Node000001_Node000009"><a xlink:title=" ">
<path fill="none" stroke="#63b8ff" d="M182.02,-313.5C192.48,-313.5 203.19,-313.5 213.74,-313.5"/>
<polygon fill="#63b8ff" stroke="#63b8ff" points="213.8,-317 223.8,-313.5 213.8,-310 213.8,-317"/>
</a>
</g>
</g>
<!-- Node11 -->
<g id="Node000011" class="node">
<title>Node11</title>
<g id="a_Node000011"><a xlink:href="../../d8/db0/classTerraria_1_1GameContent_1_1UI_1_1States_1_1UICharacterCreation_ab2aab062754248b28f7486454eea65ae.html#ab2aab062754248b28f7486454eea65ae" target="_top" xlink:title=" ">
<polygon fill="white" stroke="#666666" points="400,-393 224,-393 224,-352 400,-352 400,-393"/>
<text text-anchor="start" x="232" y="-381" font-family="Helvetica,sans-Serif" font-size="10.00">Terraria.GameContent.UI.</text>
<text text-anchor="start" x="232" y="-370" font-family="Helvetica,sans-Serif" font-size="10.00">States.UICharacterCreation.Click</text>
<text text-anchor="middle" x="312" y="-359" font-family="Helvetica,sans-Serif" font-size="10.00">_HairStyles</text>
</a>
</g>
</g>
<!-- Node1&#45;&gt;Node11 -->
<g id="edge18_Node000001_Node000011" class="edge">
<title>Node1&#45;&gt;Node11</title>
<g id="a_edge18_Node000001_Node000011"><a xlink:title=" ">
<path fill="none" stroke="#63b8ff" d="M168.29,-334.05C186.58,-338.98 206.24,-344.28 224.94,-349.31"/>
<polygon fill="#63b8ff" stroke="#63b8ff" points="224.05,-352.7 234.61,-351.92 225.87,-345.94 224.05,-352.7"/>
</a>
</g>
</g>
<!-- Node12 -->
<g id="Node000012" class="node">
<title>Node12</title>
<g id="a_Node000012"><a xlink:href="../../d8/db0/classTerraria_1_1GameContent_1_1UI_1_1States_1_1UICharacterCreation_ac0777feb6237ae066003e0cad4beb090.html#ac0777feb6237ae066003e0cad4beb090" target="_top" xlink:title=" ">
<polygon fill="white" stroke="#666666" points="397.5,-204 226.5,-204 226.5,-163 397.5,-163 397.5,-204"/>
<text text-anchor="start" x="234.5" y="-192" font-family="Helvetica,sans-Serif" font-size="10.00">Terraria.GameContent.UI.</text>
<text text-anchor="start" x="234.5" y="-181" font-family="Helvetica,sans-Serif" font-size="10.00">States.UICharacterCreation.Rgb</text>
<text text-anchor="middle" x="312" y="-170" font-family="Helvetica,sans-Serif" font-size="10.00">ToScaledHsl</text>
</a>
</g>
</g>
<!-- Node1&#45;&gt;Node12 -->
<g id="edge23_Node000001_Node000012" class="edge">
<title>Node1&#45;&gt;Node12</title>
<g id="a_edge23_Node000001_Node000012"><a xlink:title=" ">
<path fill="none" stroke="#63b8ff" d="M115.21,-292.75C139.48,-271.86 179.36,-239.76 218,-218.5 224.8,-214.76 232.09,-211.25 239.47,-208.01"/>
<polygon fill="#63b8ff" stroke="#63b8ff" points="241,-211.16 248.86,-204.05 238.28,-204.71 241,-211.16"/>
</a>
</g>
</g>
<!-- Node14 -->
<g id="Node000014" class="node">
<title>Node14</title>
<g id="a_Node000014"><a xlink:href="../../d8/db0/classTerraria_1_1GameContent_1_1UI_1_1States_1_1UICharacterCreation_ab24fa6617128fae342d1d7d53b0f8856.html#ab24fa6617128fae342d1d7d53b0f8856" target="_top" xlink:title=" ">
<polygon fill="white" stroke="#666666" points="404.5,-127 219.5,-127 219.5,-86 404.5,-86 404.5,-127"/>
<text text-anchor="start" x="227.5" y="-115" font-family="Helvetica,sans-Serif" font-size="10.00">Terraria.GameContent.UI.</text>
<text text-anchor="start" x="227.5" y="-104" font-family="Helvetica,sans-Serif" font-size="10.00">States.UICharacterCreation.Scaled</text>
<text text-anchor="middle" x="312" y="-93" font-family="Helvetica,sans-Serif" font-size="10.00">HslToRgb</text>
</a>
</g>
</g>
<!-- Node1&#45;&gt;Node14 -->
<g id="edge25_Node000001_Node000014" class="edge">
<title>Node1&#45;&gt;Node14</title>
<g id="a_edge25_Node000001_Node000014"><a xlink:title=" ">
<path fill="none" stroke="#63b8ff" d="M104.25,-292.88C124.53,-260.15 167.82,-195.79 218,-154.5 228.4,-145.94 240.57,-138.32 252.62,-131.8"/>
<polygon fill="#63b8ff" stroke="#63b8ff" points="254.52,-134.76 261.77,-127.04 251.29,-128.55 254.52,-134.76"/>
</a>
</g>
</g>
<!-- Node15 -->
<g id="Node000015" class="node">
<title>Node15</title>
<g id="a_Node000015"><a xlink:href="../../d8/db0/classTerraria_1_1GameContent_1_1UI_1_1States_1_1UICharacterCreation_a1de0af41411514626b5678b76157b720.html#a1de0af41411514626b5678b76157b720" target="_top" xlink:title=" ">
<polygon fill="white" stroke="#666666" points="406,-68 218,-68 218,-27 406,-27 406,-68"/>
<text text-anchor="start" x="226" y="-56" font-family="Helvetica,sans-Serif" font-size="10.00">Terraria.GameContent.UI.</text>
<text text-anchor="start" x="226" y="-45" font-family="Helvetica,sans-Serif" font-size="10.00">States.UICharacterCreation.Update</text>
<text text-anchor="middle" x="312" y="-34" font-family="Helvetica,sans-Serif" font-size="10.00">HexText</text>
</a>
</g>
</g>
<!-- Node1&#45;&gt;Node15 -->
<g id="edge29_Node000001_Node000015" class="edge">
<title>Node1&#45;&gt;Node15</title>
<g id="a_edge29_Node000001_Node000015"><a xlink:title=" ">
<path fill="none" stroke="#63b8ff" d="M97.31,-292.77C110.1,-247.05 146.9,-136.92 218,-77.5 219.56,-76.19 221.18,-74.95 222.85,-73.75"/>
<polygon fill="#63b8ff" stroke="#63b8ff" points="225,-76.53 231.56,-68.21 221.25,-70.62 225,-76.53"/>
</a>
</g>
</g>
<!-- Node3&#45;&gt;Node2 -->
<g id="edge3_Node000003_Node000002" class="edge">
<title>Node3&#45;&gt;Node2</title>
<g id="a_edge3_Node000003_Node000002"><a xlink:title=" ">
<path fill="none" stroke="#63b8ff" d="M400.18,-468.95C416.04,-468.67 432.62,-468.38 448.55,-468.1"/>
<polygon fill="#63b8ff" stroke="#63b8ff" points="448.99,-471.59 458.92,-467.91 448.86,-464.59 448.99,-471.59"/>
</a>
</g>
</g>
<!-- Node4 -->
<g id="Node000004" class="node">
<title>Node4</title>
<g id="a_Node000004"><a xlink:href="../../d3/d78/classTerraria_1_1Audio_1_1SoundEngine_af55950ae09b294fad1dd58e37fecf28b.html#af55950ae09b294fad1dd58e37fecf28b" target="_top" xlink:title="Attempts to play a sound style with the provided sound style (if it&#39;s not null), and returns a valid ...">
<polygon fill="white" stroke="#666666" points="616,-420.5 463,-420.5 463,-390.5 616,-390.5 616,-420.5"/>
<text text-anchor="start" x="471" y="-408.5" font-family="Helvetica,sans-Serif" font-size="10.00">Terraria.Audio.SoundEngine.</text>
<text text-anchor="middle" x="539.5" y="-397.5" font-family="Helvetica,sans-Serif" font-size="10.00">PlaySound</text>
</a>
</g>
</g>
<!-- Node3&#45;&gt;Node4 -->
<g id="edge4_Node000003_Node000004" class="edge">
<title>Node3&#45;&gt;Node4</title>
<g id="a_edge4_Node000003_Node000004"><a xlink:title=" ">
<path fill="none" stroke="#63b8ff" d="M384.35,-449.93C413.9,-441.42 447.85,-431.63 476.36,-423.41"/>
<polygon fill="#63b8ff" stroke="#63b8ff" points="477.56,-426.71 486.2,-420.58 475.62,-419.98 477.56,-426.71"/>
</a>
</g>
</g>
<!-- Node3&#45;&gt;Node5 -->
<g id="edge6_Node000003_Node000005" class="edge">
<title>Node3&#45;&gt;Node5</title>
<g id="a_edge6_Node000003_Node000005"><a xlink:title=" ">
<path fill="none" stroke="#63b8ff" d="M339.34,-491.16C364.2,-509.24 403.33,-534.2 442,-544.5 525.74,-566.81 561.56,-587.16 637,-544.5 654.6,-534.55 716.33,-422.13 745.72,-367.26"/>
<polygon fill="#63b8ff" stroke="#63b8ff" points="748.86,-368.82 750.48,-358.35 742.68,-365.52 748.86,-368.82"/>
</a>
</g>
</g>
<!-- Node3&#45;&gt;Node6 -->
<g id="edge7_Node000003_Node000006" class="edge">
<title>Node3&#45;&gt;Node6</title>
<g id="a_edge7_Node000003_Node000006"><a xlink:title=" ">
<path fill="none" stroke="#63b8ff" d="M400.18,-487.51C410.52,-489.53 421.15,-491.6 431.71,-493.66"/>
<polygon fill="#63b8ff" stroke="#63b8ff" points="431.32,-497.15 441.81,-495.63 432.66,-490.28 431.32,-497.15"/>
</a>
</g>
</g>
<!-- Node4&#45;&gt;Node4 -->
<g id="edge5_Node000004_Node000004" class="edge">
<title>Node4&#45;&gt;Node4</title>
<g id="a_edge5_Node000004_Node000004"><a xlink:title=" ">
<path fill="none" stroke="#63b8ff" d="M500.48,-420.78C491.8,-429.91 504.81,-438.5 539.5,-438.5 560.1,-438.5 573.05,-435.47 578.36,-431.1"/>
<polygon fill="#63b8ff" stroke="#63b8ff" points="581.86,-430.83 578.52,-420.78 574.86,-430.72 581.86,-430.83"/>
</a>
</g>
</g>
<!-- Node6&#45;&gt;Node5 -->
<g id="edge10_Node000006_Node000005" class="edge">
<title>Node6&#45;&gt;Node5</title>
<g id="a_edge10_Node000006_Node000005"><a xlink:title=" ">
<path fill="none" stroke="#63b8ff" d="M622.11,-493.81C627.31,-491.34 632.32,-488.58 637,-485.5 684.06,-454.56 722.9,-400.63 744.09,-367.12"/>
<polygon fill="#63b8ff" stroke="#63b8ff" points="747.29,-368.59 749.59,-358.24 741.34,-364.9 747.29,-368.59"/>
</a>
</g>
</g>
<!-- Node7 -->
<g id="Node000007" class="node">
<title>Node7</title>
<g id="a_Node000007"><a xlink:href="../../d7/d72/classTerraria_1_1UI_1_1UIElement_a336d1ad28adbb657010e263b19095502.html#a336d1ad28adbb657010e263b19095502" target="_top" xlink:title=" ">
<polygon fill="white" stroke="#666666" points="844.5,-524 680.5,-524 680.5,-505 844.5,-505 844.5,-524"/>
<text text-anchor="middle" x="762.5" y="-512" font-family="Helvetica,sans-Serif" font-size="10.00">Terraria.UI.UIElement.Remove</text>
</a>
</g>
</g>
<!-- Node6&#45;&gt;Node7 -->
<g id="edge8_Node000006_Node000007" class="edge">
<title>Node6&#45;&gt;Node7</title>
<g id="a_edge8_Node000006_Node000007"><a xlink:title=" ">
<path fill="none" stroke="#63b8ff" d="M637.11,-514.5C648.03,-514.5 659.12,-514.5 669.97,-514.5"/>
<polygon fill="#63b8ff" stroke="#63b8ff" points="670.28,-518 680.28,-514.5 670.28,-511 670.28,-518"/>
</a>
</g>
</g>
<!-- Node8 -->
<g id="Node000008" class="node">
<title>Node8</title>
<g id="a_Node000008"><a xlink:href="../../d7/d72/classTerraria_1_1UI_1_1UIElement_ac407afd27d2b68e6c175951c22e263b5.html#ac407afd27d2b68e6c175951c22e263b5" target="_top" xlink:title=" ">
<polygon fill="white" stroke="#666666" points="1053,-529.5 889,-529.5 889,-499.5 1053,-499.5 1053,-529.5"/>
<text text-anchor="start" x="897" y="-517.5" font-family="Helvetica,sans-Serif" font-size="10.00">Terraria.UI.UIElement.Remove</text>
<text text-anchor="middle" x="971" y="-506.5" font-family="Helvetica,sans-Serif" font-size="10.00">Child</text>
</a>
</g>
</g>
<!-- Node7&#45;&gt;Node8 -->
<g id="edge9_Node000007_Node000008" class="edge">
<title>Node7&#45;&gt;Node8</title>
<g id="a_edge9_Node000007_Node000008"><a xlink:title=" ">
<path fill="none" stroke="#63b8ff" d="M844.52,-514.5C855.68,-514.5 867.2,-514.5 878.54,-514.5"/>
<polygon fill="#63b8ff" stroke="#63b8ff" points="878.87,-518 888.87,-514.5 878.87,-511 878.87,-518"/>
</a>
</g>
</g>
<!-- Node9&#45;&gt;Node2 -->
<g id="edge12_Node000009_Node000002" class="edge">
<title>Node9&#45;&gt;Node2</title>
<g id="a_edge12_Node000009_Node000002"><a xlink:title=" ">
<path fill="none" stroke="#63b8ff" d="M393.96,-334.04C398.3,-336.8 402.36,-339.94 406,-343.5 440.95,-377.72 405.1,-415.4 442,-447.5 444.51,-449.69 447.2,-451.65 450.03,-453.41"/>
<polygon fill="#63b8ff" stroke="#63b8ff" points="448.39,-456.51 458.87,-458.11 451.68,-450.32 448.39,-456.51"/>
</a>
</g>
</g>
<!-- Node9&#45;&gt;Node4 -->
<g id="edge13_Node000009_Node000004" class="edge">
<title>Node9&#45;&gt;Node4</title>
<g id="a_edge13_Node000009_Node000004"><a xlink:title=" ">
<path fill="none" stroke="#63b8ff" d="M380.16,-334.05C388.91,-337.05 397.71,-340.24 406,-343.5 438.2,-356.17 473.67,-372.92 499.79,-385.81"/>
<polygon fill="#63b8ff" stroke="#63b8ff" points="498.46,-389.06 508.97,-390.38 501.58,-382.79 498.46,-389.06"/>
</a>
</g>
</g>
<!-- Node9&#45;&gt;Node5 -->
<g id="edge14_Node000009_Node000005" class="edge">
<title>Node9&#45;&gt;Node5</title>
<g id="a_edge14_Node000009_Node000005"><a xlink:title=" ">
<path fill="none" stroke="#63b8ff" d="M391.33,-292.99C407.94,-289.46 425.46,-286.34 442,-284.5 528.14,-274.94 552.08,-267.18 637,-284.5 663.91,-289.99 692.2,-301.52 715,-312.42"/>
<polygon fill="#63b8ff" stroke="#63b8ff" points="713.58,-315.62 724.1,-316.88 716.66,-309.33 713.58,-315.62"/>
</a>
</g>
</g>
<!-- Node9&#45;&gt;Node6 -->
<g id="edge15_Node000009_Node000006" class="edge">
<title>Node9&#45;&gt;Node6</title>
<g id="a_edge15_Node000009_Node000006"><a xlink:title=" ">
<path fill="none" stroke="#63b8ff" d="M395.17,-334.26C399.1,-336.97 402.75,-340.04 406,-343.5 450.55,-390.98 396.98,-438.47 442,-485.5 442.66,-486.19 443.34,-486.87 444.03,-487.52"/>
<polygon fill="#63b8ff" stroke="#63b8ff" points="442.01,-490.39 451.97,-493.99 446.43,-484.96 442.01,-490.39"/>
</a>
</g>
</g>
<!-- Node10 -->
<g id="Node000010" class="node">
<title>Node10</title>
<g id="a_Node000010"><a xlink:href="../../d8/db0/classTerraria_1_1GameContent_1_1UI_1_1States_1_1UICharacterCreation_a6cf9d4c178d0fb58a245488a00bf47f3.html#a6cf9d4c178d0fb58a245488a00bf47f3" target="_top" xlink:title=" ">
<polygon fill="white" stroke="#666666" points="633.5,-334 445.5,-334 445.5,-293 633.5,-293 633.5,-334"/>
<text text-anchor="start" x="453.5" y="-322" font-family="Helvetica,sans-Serif" font-size="10.00">Terraria.GameContent.UI.</text>
<text text-anchor="start" x="453.5" y="-311" font-family="Helvetica,sans-Serif" font-size="10.00">States.UICharacterCreation.Update</text>
<text text-anchor="middle" x="539.5" y="-300" font-family="Helvetica,sans-Serif" font-size="10.00">SelectedGender</text>
</a>
</g>
</g>
<!-- Node9&#45;&gt;Node10 -->
<g id="edge16_Node000009_Node000010" class="edge">
<title>Node9&#45;&gt;Node10</title>
<g id="a_edge16_Node000009_Node000010"><a xlink:title=" ">
<path fill="none" stroke="#63b8ff" d="M400.18,-313.5C411.59,-313.5 423.37,-313.5 435.01,-313.5"/>
<polygon fill="#63b8ff" stroke="#63b8ff" points="435.19,-317 445.19,-313.5 435.19,-310 435.19,-317"/>
</a>
</g>
</g>
<!-- Node10&#45;&gt;Node5 -->
<g id="edge17_Node000010_Node000005" class="edge">
<title>Node10&#45;&gt;Node5</title>
<g id="a_edge17_Node000010_Node000005"><a xlink:title=" ">
<path fill="none" stroke="#63b8ff" d="M633.58,-323.61C643.21,-324.65 653.03,-325.72 662.72,-326.77"/>
<polygon fill="#63b8ff" stroke="#63b8ff" points="662.44,-330.26 672.76,-327.86 663.19,-323.3 662.44,-330.26"/>
</a>
</g>
</g>
<!-- Node11&#45;&gt;Node2 -->
<g id="edge19_Node000011_Node000002" class="edge">
<title>Node11&#45;&gt;Node2</title>
<g id="a_edge19_Node000011_Node000002"><a xlink:title=" ">
<path fill="none" stroke="#63b8ff" d="M379.5,-393.02C388.76,-397.15 397.88,-401.96 406,-407.5 425.75,-420.98 421.2,-435.69 442,-447.5 445.95,-449.74 450.12,-451.72 454.42,-453.47"/>
<polygon fill="#63b8ff" stroke="#63b8ff" points="453.42,-456.83 464.02,-456.95 455.81,-450.25 453.42,-456.83"/>
</a>
</g>
</g>
<!-- Node11&#45;&gt;Node4 -->
<g id="edge20_Node000011_Node000004" class="edge">
<title>Node11&#45;&gt;Node4</title>
<g id="a_edge20_Node000011_Node000004"><a xlink:title=" ">
<path fill="none" stroke="#63b8ff" d="M400.18,-385.26C417.49,-387.79 435.64,-390.45 452.88,-392.97"/>
<polygon fill="#63b8ff" stroke="#63b8ff" points="452.52,-396.45 462.92,-394.44 453.54,-389.53 452.52,-396.45"/>
</a>
</g>
</g>
<!-- Node11&#45;&gt;Node5 -->
<g id="edge21_Node000011_Node000005" class="edge">
<title>Node11&#45;&gt;Node5</title>
<g id="a_edge21_Node000011_Node000005"><a xlink:title=" ">
<path fill="none" stroke="#63b8ff" d="M400.01,-365.71C475.22,-359.84 583.89,-351.36 662.43,-345.23"/>
<polygon fill="#63b8ff" stroke="#63b8ff" points="663.12,-348.69 672.82,-344.42 662.58,-341.71 663.12,-348.69"/>
</a>
</g>
</g>
<!-- Node11&#45;&gt;Node6 -->
<g id="edge22_Node000011_Node000006" class="edge">
<title>Node11&#45;&gt;Node6</title>
<g id="a_edge22_Node000011_Node000006"><a xlink:title=" ">
<path fill="none" stroke="#63b8ff" d="M344.66,-393.08C363.4,-405.95 387.09,-423.46 406,-441.5 424.28,-458.94 420.98,-471.47 442,-485.5 443.89,-486.76 445.84,-487.97 447.83,-489.13"/>
<polygon fill="#63b8ff" stroke="#63b8ff" points="446.36,-492.31 456.84,-493.88 449.63,-486.12 446.36,-492.31"/>
</a>
</g>
</g>
<!-- Node13 -->
<g id="Node000013" class="node">
<title>Node13</title>
<g id="a_Node000013"><a xlink:href="../../da/dd5/classTerraria_1_1Main_a03be73ec24b9b6db3a88da71c2748539.html#a03be73ec24b9b6db3a88da71c2748539" target="_top" xlink:title=" ">
<polygon fill="white" stroke="#666666" points="602,-193 477,-193 477,-174 602,-174 602,-193"/>
<text text-anchor="middle" x="539.5" y="-181" font-family="Helvetica,sans-Serif" font-size="10.00">Terraria.Main.rgbToHsl</text>
</a>
</g>
</g>
<!-- Node12&#45;&gt;Node13 -->
<g id="edge24_Node000012_Node000013" class="edge">
<title>Node12&#45;&gt;Node13</title>
<g id="a_edge24_Node000012_Node000013"><a xlink:title=" ">
<path fill="none" stroke="#63b8ff" d="M397.61,-183.5C420.27,-183.5 444.54,-183.5 466.45,-183.5"/>
<polygon fill="#63b8ff" stroke="#63b8ff" points="466.66,-187 476.66,-183.5 466.66,-180 466.66,-187"/>
</a>
</g>
</g>
<!-- Node14&#45;&gt;Node14 -->
<g id="edge26_Node000014_Node000014" class="edge">
<title>Node14&#45;&gt;Node14</title>
<g id="a_edge26_Node000014_Node000014"><a xlink:title=" ">
<path fill="none" stroke="#63b8ff" d="M271.57,-127.1C267.15,-136.65 280.63,-145 312,-145 331.6,-145 344.22,-141.74 349.85,-136.96"/>
<polygon fill="#63b8ff" stroke="#63b8ff" points="353.29,-137.66 352.43,-127.1 346.51,-135.88 353.29,-137.66"/>
</a>
</g>
</g>
<!-- Node16 -->
<g id="Node000016" class="node">
<title>Node16</title>
<g id="a_Node000016"><a xlink:href="../../d8/db0/classTerraria_1_1GameContent_1_1UI_1_1States_1_1UICharacterCreation_acb91d789cabbe191e7eb2779c0d3c7b1.html#acb91d789cabbe191e7eb2779c0d3c7b1" target="_top" xlink:title=" ">
<polygon fill="white" stroke="#666666" points="624.5,-41 454.5,-41 454.5,0 624.5,0 624.5,-41"/>
<text text-anchor="start" x="462.5" y="-29" font-family="Helvetica,sans-Serif" font-size="10.00">Terraria.GameContent.UI.</text>
<text text-anchor="start" x="462.5" y="-18" font-family="Helvetica,sans-Serif" font-size="10.00">States.UICharacterCreation.Get</text>
<text text-anchor="middle" x="539.5" y="-7" font-family="Helvetica,sans-Serif" font-size="10.00">HexText</text>
</a>
</g>
</g>
<!-- Node15&#45;&gt;Node16 -->
<g id="edge30_Node000015_Node000016" class="edge">
<title>Node15&#45;&gt;Node16</title>
<g id="a_edge30_Node000015_Node000016"><a xlink:title=" ">
<path fill="none" stroke="#63b8ff" d="M406.02,-36.36C418.66,-34.85 431.64,-33.3 444.29,-31.78"/>
<polygon fill="#63b8ff" stroke="#63b8ff" points="444.85,-35.24 454.36,-30.57 444.02,-28.29 444.85,-35.24"/>
</a>
</g>
</g>
<!-- Node17 -->
<g id="Node000017" class="node">
<title>Node17</title>
<g id="a_Node000017"><a xlink:href="../../df/da8/classTerraria_1_1GameContent_1_1UI_1_1Elements_1_1UIText_a3f27882b54715c7adb4e9859ec77c395.html#a3f27882b54715c7adb4e9859ec77c395" target="_top" xlink:title=" ">
<polygon fill="white" stroke="#666666" points="609.5,-89.5 469.5,-89.5 469.5,-59.5 609.5,-59.5 609.5,-89.5"/>
<text text-anchor="start" x="477.5" y="-77.5" font-family="Helvetica,sans-Serif" font-size="10.00">Terraria.GameContent.UI.</text>
<text text-anchor="middle" x="539.5" y="-66.5" font-family="Helvetica,sans-Serif" font-size="10.00">Elements.UIText.SetText</text>
</a>
</g>
</g>
<!-- Node15&#45;&gt;Node17 -->
<g id="edge31_Node000015_Node000017" class="edge">
<title>Node15&#45;&gt;Node17</title>
<g id="a_edge31_Node000015_Node000017"><a xlink:title=" ">
<path fill="none" stroke="#63b8ff" d="M406.02,-58.64C423.77,-60.76 442.19,-62.97 459.45,-65.04"/>
<polygon fill="#63b8ff" stroke="#63b8ff" points="459.12,-68.52 469.47,-66.23 459.95,-61.57 459.12,-68.52"/>
</a>
</g>
</g>
<!-- Node18 -->
<g id="Node000018" class="node">
<title>Node18</title>
<g id="a_Node000018"><a xlink:href="../../df/da8/classTerraria_1_1GameContent_1_1UI_1_1Elements_1_1UIText_a6b38a5021c0225460c802dc8376d39ac.html#a6b38a5021c0225460c802dc8376d39ac" target="_top" xlink:title=" ">
<polygon fill="white" stroke="#666666" points="849,-89.5 676,-89.5 676,-59.5 849,-59.5 849,-89.5"/>
<text text-anchor="start" x="684" y="-77.5" font-family="Helvetica,sans-Serif" font-size="10.00">Terraria.GameContent.UI.</text>
<text text-anchor="middle" x="762.5" y="-66.5" font-family="Helvetica,sans-Serif" font-size="10.00">Elements.UIText.InternalSetText</text>
</a>
</g>
</g>
<!-- Node17&#45;&gt;Node18 -->
<g id="edge32_Node000017_Node000018" class="edge">
<title>Node17&#45;&gt;Node18</title>
<g id="a_edge32_Node000017_Node000018"><a xlink:title=" ">
<path fill="none" stroke="#63b8ff" d="M609.52,-74.5C627.34,-74.5 646.84,-74.5 665.76,-74.5"/>
<polygon fill="#63b8ff" stroke="#63b8ff" points="665.89,-78 675.89,-74.5 665.89,-71 665.89,-78"/>
</a>
</g>
</g>
<!-- Node19 -->
<g id="Node000019" class="node">
<title>Node19</title>
<g id="a_Node000019"><a xlink:href="../../d7/d72/classTerraria_1_1UI_1_1UIElement_a5ad03f5ce0e776511a3b7e4a29e16caf.html#a5ad03f5ce0e776511a3b7e4a29e16caf" target="_top" xlink:title=" ">
<polygon fill="white" stroke="#666666" points="1041.5,-155.5 900.5,-155.5 900.5,-125.5 1041.5,-125.5 1041.5,-155.5"/>
<text text-anchor="start" x="908.5" y="-143.5" font-family="Helvetica,sans-Serif" font-size="10.00">Terraria.UI.UIElement.Get</text>
<text text-anchor="middle" x="971" y="-132.5" font-family="Helvetica,sans-Serif" font-size="10.00">InnerDimensions</text>
</a>
</g>
</g>
<!-- Node18&#45;&gt;Node19 -->
<g id="edge33_Node000018_Node000019" class="edge">
<title>Node18&#45;&gt;Node19</title>
<g id="a_edge33_Node000018_Node000019"><a xlink:title=" ">
<path fill="none" stroke="#63b8ff" d="M806.57,-89.51C830.48,-97.72 860.8,-107.94 888,-116.5 894.37,-118.51 901.03,-120.55 907.69,-122.55"/>
<polygon fill="#63b8ff" stroke="#63b8ff" points="906.83,-125.95 917.41,-125.45 908.83,-119.24 906.83,-125.95"/>
</a>
</g>
</g>
<!-- Node20 -->
<g id="Node000020" class="node">
<title>Node20</title>
<g id="a_Node000020"><a xlink:href="../../d7/df6/classTerraria_1_1UI_1_1Chat_1_1ChatManager_ad0daac781e8696c59955af964519db95.html#ad0daac781e8696c59955af964519db95" target="_top" xlink:title=" ">
<polygon fill="white" stroke="#666666" points="1052.5,-89.5 889.5,-89.5 889.5,-59.5 1052.5,-59.5 1052.5,-89.5"/>
<text text-anchor="start" x="897.5" y="-77.5" font-family="Helvetica,sans-Serif" font-size="10.00">Terraria.UI.Chat.ChatManager.</text>
<text text-anchor="middle" x="971" y="-66.5" font-family="Helvetica,sans-Serif" font-size="10.00">GetStringSize</text>
</a>
</g>
</g>
<!-- Node18&#45;&gt;Node20 -->
<g id="edge34_Node000018_Node000020" class="edge">
<title>Node18&#45;&gt;Node20</title>
<g id="a_edge34_Node000018_Node000020"><a xlink:title=" ">
<path fill="none" stroke="#63b8ff" d="M849.28,-74.5C859.15,-74.5 869.24,-74.5 879.17,-74.5"/>
<polygon fill="#63b8ff" stroke="#63b8ff" points="879.45,-78 889.45,-74.5 879.45,-71 879.45,-78"/>
</a>
</g>
</g>
<!-- Node24 -->
<g id="Node000024" class="node">
<title>Node24</title>
<g id="a_Node000024"><a xlink:href="../../d8/d74/structTerraria_1_1UI_1_1StyleDimension_a93e6acf229427c6435d7ee83958efba0.html#a93e6acf229427c6435d7ee83958efba0" target="_top" xlink:title=" ">
<polygon fill="white" stroke="#666666" points="1054,-41 888,-41 888,-22 1054,-22 1054,-41"/>
<text text-anchor="middle" x="971" y="-29" font-family="Helvetica,sans-Serif" font-size="10.00">Terraria.UI.StyleDimension.Set</text>
</a>
</g>
</g>
<!-- Node18&#45;&gt;Node24 -->
<g id="edge39_Node000018_Node000024" class="edge">
<title>Node18&#45;&gt;Node24</title>
<g id="a_edge39_Node000018_Node000024"><a xlink:title=" ">
<path fill="none" stroke="#63b8ff" d="M835.72,-59.46C861.47,-54.1 890.06,-48.15 914.21,-43.12"/>
<polygon fill="#63b8ff" stroke="#63b8ff" points="915.19,-46.49 924.27,-41.02 913.77,-39.63 915.19,-46.49"/>
</a>
</g>
</g>
<!-- Node20&#45;&gt;Node20 -->
<g id="edge35_Node000020_Node000020" class="edge">
<title>Node20&#45;&gt;Node20</title>
<g id="a_edge35_Node000020_Node000020"><a xlink:title=" ">
<path fill="none" stroke="#63b8ff" d="M935.84,-89.78C928.03,-98.91 939.75,-107.5 971,-107.5 989.55,-107.5 1001.22,-104.47 1006.01,-100.1"/>
<polygon fill="#63b8ff" stroke="#63b8ff" points="1009.51,-99.82 1006.16,-89.78 1002.51,-99.72 1009.51,-99.82"/>
</a>
</g>
</g>
<!-- Node21 -->
<g id="Node000021" class="node">
<title>Node21</title>
<g id="a_Node000021"><a xlink:href="../../d7/df6/classTerraria_1_1UI_1_1Chat_1_1ChatManager_af687cd1f70060817f5984ef2b554cf40.html#af687cd1f70060817f5984ef2b554cf40" target="_top" xlink:title=" ">
<polygon fill="white" stroke="#666666" points="1253,-89.5 1090,-89.5 1090,-59.5 1253,-59.5 1253,-89.5"/>
<text text-anchor="start" x="1098" y="-77.5" font-family="Helvetica,sans-Serif" font-size="10.00">Terraria.UI.Chat.ChatManager.</text>
<text text-anchor="middle" x="1171.5" y="-66.5" font-family="Helvetica,sans-Serif" font-size="10.00">ParseMessage</text>
</a>
</g>
</g>
<!-- Node20&#45;&gt;Node21 -->
<g id="edge36_Node000020_Node000021" class="edge">
<title>Node20&#45;&gt;Node21</title>
<g id="a_edge36_Node000020_Node000021"><a xlink:title=" ">
<path fill="none" stroke="#63b8ff" d="M1052.74,-74.5C1061.63,-74.5 1070.72,-74.5 1079.73,-74.5"/>
<polygon fill="#63b8ff" stroke="#63b8ff" points="1079.83,-78 1089.83,-74.5 1079.83,-71 1079.83,-78"/>
</a>
</g>
</g>
<!-- Node22 -->
<g id="Node000022" class="node">
<title>Node22</title>
<g id="a_Node000022"><a xlink:href="../../d7/df6/classTerraria_1_1UI_1_1Chat_1_1ChatManager_ad57d7ce4542b2df5cd9ff15c86855f3f.html#ad57d7ce4542b2df5cd9ff15c86855f3f" target="_top" xlink:title=" ">
<polygon fill="white" stroke="#666666" points="1452,-113.5 1289,-113.5 1289,-83.5 1452,-83.5 1452,-113.5"/>
<text text-anchor="start" x="1297" y="-101.5" font-family="Helvetica,sans-Serif" font-size="10.00">Terraria.UI.Chat.ChatManager.</text>
<text text-anchor="middle" x="1370.5" y="-90.5" font-family="Helvetica,sans-Serif" font-size="10.00">GetHandler</text>
</a>
</g>
</g>
<!-- Node21&#45;&gt;Node22 -->
<g id="edge37_Node000021_Node000022" class="edge">
<title>Node21&#45;&gt;Node22</title>
<g id="a_edge37_Node000021_Node000022"><a xlink:title=" ">
<path fill="none" stroke="#63b8ff" d="M1253.2,-84.33C1261.67,-85.36 1270.33,-86.42 1278.91,-87.46"/>
<polygon fill="#63b8ff" stroke="#63b8ff" points="1278.58,-90.95 1288.93,-88.68 1279.43,-84 1278.58,-90.95"/>
</a>
</g>
</g>
<!-- Node23 -->
<g id="Node000023" class="node">
<title>Node23</title>
<g id="a_Node000023"><a xlink:href="../../dc/d25/interfaceTerraria_1_1UI_1_1Chat_1_1ITagHandler_aa5a15f340434dc9990b2b10b306642a6.html#aa5a15f340434dc9990b2b10b306642a6" target="_top" xlink:title=" ">
<polygon fill="white" stroke="#666666" points="1448,-65.5 1293,-65.5 1293,-35.5 1448,-35.5 1448,-65.5"/>
<text text-anchor="start" x="1301" y="-53.5" font-family="Helvetica,sans-Serif" font-size="10.00">Terraria.UI.Chat.ITagHandler.</text>
<text text-anchor="middle" x="1370.5" y="-42.5" font-family="Helvetica,sans-Serif" font-size="10.00">Parse</text>
</a>
</g>
</g>
<!-- Node21&#45;&gt;Node23 -->
<g id="edge38_Node000021_Node000023" class="edge">
<title>Node21&#45;&gt;Node23</title>
<g id="a_edge38_Node000021_Node000023"><a xlink:title=" ">
<path fill="none" stroke="#63b8ff" d="M1253.2,-64.67C1262.9,-63.49 1272.83,-62.28 1282.62,-61.08"/>
<polygon fill="#63b8ff" stroke="#63b8ff" points="1283.24,-64.54 1292.74,-59.85 1282.39,-57.59 1283.24,-64.54"/>
</a>
</g>
</g>
</g>
</svg>

<g id="navigator" transform="translate(0 0)" fill="#404254">
  <rect fill="#f2f5e9" fill-opacity="0.5" stroke="#606060" stroke-width=".5" x="0" y="0" width="60" height="60"/>
  <use id="zoomplus" xlink:href="#zoomPlus" x="17" y="9" onmousedown="handleZoom(evt,'in')"/>
  <use id="zoomminus" xlink:href="#zoomMin" x="42" y="9" onmousedown="handleZoom(evt,'out')"/>
  <use id="reset" xlink:href="#resetDef" x="30" y="36" onmousedown="handleReset()"/>
   <use id="arrowup" xlink:href="#arrowUp" x="0" y="0" onmousedown="handlePan(0,-1)"/>
  <use id="arrowright" xlink:href="#arrowRight" x="0" y="0" onmousedown="handlePan(1,0)"/>
  <use id="arrowdown" xlink:href="#arrowDown" x="0" y="0" onmousedown="handlePan(0,1)"/>
  <use id="arrowleft" xlink:href="#arrowLeft" x="0" y="0" onmousedown="handlePan(-1,0)"/>
</g>
<svg viewBox="0 0 15 15" width="100%" height="30px" preserveAspectRatio="xMaxYMin meet">
 <g id="arrow_out" transform="scale(0.3 0.3)">
  <a xlink:href="classTerraria_1_1GameContent_1_1UI_1_1States_1_1UICharacterCreation_ae3b42ad69abaaea0c4a6f72e275eae05_ae3b42ad69abaaea0c4a6f72e275eae05_cgraph_org.svg" target="_base">
   <rect id="button" ry="5" rx="5" y="6" x="6" height="38" width="38"
        fill="#f2f5e9" fill-opacity="0.5" stroke="#606060" stroke-width="1.0"/>
   <path id="arrow"
     d="M 11.500037,31.436501 C 11.940474,20.09759 22.043105,11.32322 32.158766,21.979434 L 37.068811,17.246167 C 37.068811,17.246167 37.088388,32 37.088388,32 L 22.160133,31.978069 C 22.160133,31.978069 26.997745,27.140456 26.997745,27.140456 C 18.528582,18.264221 13.291696,25.230495 11.500037,31.436501 z"
     style="fill:#404040;"/>
  </a>
 </g>
</svg>

<style type='text/css'>
<![CDATA[
[data-mouse-over-selected='false'] { opacity: 0.7; }
[data-mouse-over-selected='true']  { opacity: 1.0; }
]]>
</style>
<script type="application/ecmascript"><![CDATA[
document.addEventListener('DOMContentLoaded', (event) => {
  highlightEdges();
  highlightAdjacentNodes();
});
]]></script>
</svg>
