<?xml version="1.0" encoding="UTF-8" standalone="no"?>
<!DOCTYPE svg PUBLIC "-//W3C//DTD SVG 1.1//EN"
 "http://www.w3.org/Graphics/SVG/1.1/DTD/svg11.dtd">
<!-- Generated by graphviz version 2.43.0 (0)
 -->
<!-- Title: Terraria.GameContent.UI.States.UICharacterCreation.UpdateHSL_S Pages: 1 -->
<!--zoomable 303 -->

<svg id="main" version="1.1" xmlns="http://www.w3.org/2000/svg" xmlns:xlink="http://www.w3.org/1999/xlink" xml:space="preserve" onload="init(evt)">
<style type="text/css"><![CDATA[
.node, .edge {opacity: 0.7;}
.node.selected, .edge.selected {opacity: 1;}
.edge:hover path { stroke: red; }
.edge:hover polygon { stroke: red; fill: red; }
]]></style>

<defs>
  <circle id="rim" cx="0" cy="0" r="7"/>
  <circle id="rim2" cx="0" cy="0" r="3.5"/>
  <g id="zoomPlus">
    <use xlink:href="#rim" fill="#404040"><set attributeName="fill" to="#808080" begin="zoomplus.mouseover" end="zoomplus.mouseout"/></use>
    <path d="M-4,0h8M0,-4v8" fill="none" stroke="white" stroke-width="1.5" pointer-events="none"/>
  </g>
  <g id="zoomMin">
    <use xlink:href="#rim" fill="#404040"><set attributeName="fill" to="#808080" begin="zoomminus.mouseover" end="zoomminus.mouseout"/></use>
    <path d="M-4,0h8" fill="none" stroke="white" stroke-width="1.5" pointer-events="none"/>
  </g>
  <g id="arrowUp" transform="translate(30 24)">
    <use xlink:href="#rim"/>
    <path pointer-events="none" fill="none" stroke="white" stroke-width="1.5" d="M0,-3.0v7 M-2.5,-0.5L0,-3.0L2.5,-0.5"/>
  </g>
  <g id="arrowRight" transform="rotate(90) translate(36 -43)">
    <use xlink:href="#rim"/>
    <path pointer-events="none" fill="none" stroke="white" stroke-width="1.5" d="M0,-3.0v7 M-2.5,-0.5L0,-3.0L2.5,-0.5"/>
  </g>
  <g id="arrowDown" transform="rotate(180) translate(-30 -48)">
    <use xlink:href="#rim"/>
    <path pointer-events="none" fill="none" stroke="white" stroke-width="1.5" d="M0,-3.0v7 M-2.5,-0.5L0,-3.0L2.5,-0.5"/>
  </g>
  <g id="arrowLeft" transform="rotate(270) translate(-36 17)">
    <use xlink:href="#rim"/>
    <path pointer-events="none" fill="none" stroke="white" stroke-width="1.5" d="M0,-3.0v7 M-2.5,-0.5L0,-3.0L2.5,-0.5"/>
  </g>
  <g id="resetDef">
    <use xlink:href="#rim2" fill="#404040"><set attributeName="fill" to="#808080" begin="reset.mouseover" end="reset.mouseout"/></use>
  </g>
</defs>
<script type="application/ecmascript">
var viewWidth = 1703;
var viewHeight = 303;
var sectionId = 'dynsection-0';
</script>
<script type="application/ecmascript" xlink:href="../../svg.min.js"/>
<svg id="graph" class="graph">
<g id="viewport">
<title>Terraria.GameContent.UI.States.UICharacterCreation.UpdateHSL_S</title>
<!-- Node1 -->
<g id="Node000001" class="node">
<title>Node1</title>
<g id="a_Node000001"><a xlink:title=" ">
<polygon fill="#999999" stroke="#666666" points="218,-209.5 0,-209.5 0,-179.5 218,-179.5 218,-209.5"/>
<text text-anchor="start" x="8" y="-197.5" font-family="Helvetica,sans-Serif" font-size="10.00">Terraria.GameContent.UI.</text>
<text text-anchor="middle" x="109" y="-186.5" font-family="Helvetica,sans-Serif" font-size="10.00">States.UICharacterCreation.UpdateHSL_S</text>
</a>
</g>
</g>
<!-- Node2 -->
<g id="Node000002" class="node">
<title>Node2</title>
<g id="a_Node000002"><a xlink:href="../../d4/d2e/classTerraria_1_1Initializers_1_1UILinksInitializer_a43b7a23d3815890cbad43cd8daf92ab4.html#a43b7a23d3815890cbad43cd8daf92ab4" target="_top" xlink:title=" ">
<polygon fill="white" stroke="#666666" points="456,-236.5 254,-236.5 254,-206.5 456,-206.5 456,-236.5"/>
<text text-anchor="start" x="262" y="-224.5" font-family="Helvetica,sans-Serif" font-size="10.00">Terraria.Initializers.UILinks</text>
<text text-anchor="middle" x="355" y="-213.5" font-family="Helvetica,sans-Serif" font-size="10.00">Initializer.HandleSliderHorizontalInput</text>
</a>
</g>
</g>
<!-- Node1&#45;&gt;Node2 -->
<g id="edge1_Node000001_Node000002" class="edge">
<title>Node1&#45;&gt;Node2</title>
<g id="a_edge1_Node000001_Node000002"><a xlink:title=" ">
<path fill="none" stroke="#63b8ff" d="M218.09,-206.46C226.61,-207.4 235.22,-208.36 243.76,-209.3"/>
<polygon fill="#63b8ff" stroke="#63b8ff" points="243.4,-212.78 253.73,-210.4 244.17,-205.83 243.4,-212.78"/>
</a>
</g>
</g>
<!-- Node3 -->
<g id="Node000003" class="node">
<title>Node3</title>
<g id="a_Node000003"><a xlink:href="../../d8/db0/classTerraria_1_1GameContent_1_1UI_1_1States_1_1UICharacterCreation_a3e880decd1b77a413934abbfed353bcc.html#a3e880decd1b77a413934abbfed353bcc" target="_top" xlink:title=" ">
<polygon fill="white" stroke="#666666" points="449,-188 261,-188 261,-147 449,-147 449,-188"/>
<text text-anchor="start" x="269" y="-176" font-family="Helvetica,sans-Serif" font-size="10.00">Terraria.GameContent.UI.</text>
<text text-anchor="start" x="269" y="-165" font-family="Helvetica,sans-Serif" font-size="10.00">States.UICharacterCreation.Update</text>
<text text-anchor="middle" x="355" y="-154" font-family="Helvetica,sans-Serif" font-size="10.00">HSLValue</text>
</a>
</g>
</g>
<!-- Node1&#45;&gt;Node3 -->
<g id="edge2_Node000001_Node000003" class="edge">
<title>Node1&#45;&gt;Node3</title>
<g id="a_edge2_Node000001_Node000003"><a xlink:title=" ">
<path fill="none" stroke="#63b8ff" d="M218.09,-182.54C228.91,-181.34 239.87,-180.13 250.64,-178.94"/>
<polygon fill="#63b8ff" stroke="#63b8ff" points="251.34,-182.38 260.89,-177.8 250.57,-175.42 251.34,-182.38"/>
</a>
</g>
</g>
<!-- Node4 -->
<g id="Node000004" class="node">
<title>Node4</title>
<g id="a_Node000004"><a xlink:href="../../d8/db0/classTerraria_1_1GameContent_1_1UI_1_1States_1_1UICharacterCreation_aed264a85a663872b1e8786396349e01a.html#aed264a85a663872b1e8786396349e01a" target="_top" xlink:title=" ">
<polygon fill="white" stroke="#666666" points="676,-295 496,-295 496,-254 676,-254 676,-295"/>
<text text-anchor="start" x="504" y="-283" font-family="Helvetica,sans-Serif" font-size="10.00">Terraria.GameContent.UI.</text>
<text text-anchor="start" x="504" y="-272" font-family="Helvetica,sans-Serif" font-size="10.00">States.UICharacterCreation.Apply</text>
<text text-anchor="middle" x="586" y="-261" font-family="Helvetica,sans-Serif" font-size="10.00">PendingColor</text>
</a>
</g>
</g>
<!-- Node3&#45;&gt;Node4 -->
<g id="edge3_Node000003_Node000004" class="edge">
<title>Node3&#45;&gt;Node4</title>
<g id="a_edge3_Node000003_Node000004"><a xlink:title=" ">
<path fill="none" stroke="#63b8ff" d="M439.78,-188.1C445.47,-190.85 450.95,-193.97 456,-197.5 477.87,-212.76 470.22,-230.12 492,-245.5 493.66,-246.67 495.36,-247.8 497.11,-248.88"/>
<polygon fill="#63b8ff" stroke="#63b8ff" points="495.71,-252.1 506.15,-253.92 499.12,-245.99 495.71,-252.1"/>
</a>
</g>
</g>
<!-- Node5 -->
<g id="Node000005" class="node">
<title>Node5</title>
<g id="a_Node000005"><a xlink:href="../../d8/db0/classTerraria_1_1GameContent_1_1UI_1_1States_1_1UICharacterCreation_ab24fa6617128fae342d1d7d53b0f8856.html#ab24fa6617128fae342d1d7d53b0f8856" target="_top" xlink:title=" ">
<polygon fill="white" stroke="#666666" points="678.5,-218 493.5,-218 493.5,-177 678.5,-177 678.5,-218"/>
<text text-anchor="start" x="501.5" y="-206" font-family="Helvetica,sans-Serif" font-size="10.00">Terraria.GameContent.UI.</text>
<text text-anchor="start" x="501.5" y="-195" font-family="Helvetica,sans-Serif" font-size="10.00">States.UICharacterCreation.Scaled</text>
<text text-anchor="middle" x="586" y="-184" font-family="Helvetica,sans-Serif" font-size="10.00">HslToRgb</text>
</a>
</g>
</g>
<!-- Node3&#45;&gt;Node5 -->
<g id="edge4_Node000003_Node000005" class="edge">
<title>Node3&#45;&gt;Node5</title>
<g id="a_edge4_Node000003_Node000005"><a xlink:title=" ">
<path fill="none" stroke="#63b8ff" d="M449.14,-179.7C460.44,-181.18 472.03,-182.7 483.45,-184.2"/>
<polygon fill="#63b8ff" stroke="#63b8ff" points="483.05,-187.67 493.42,-185.5 483.96,-180.73 483.05,-187.67"/>
</a>
</g>
</g>
<!-- Node6 -->
<g id="Node000006" class="node">
<title>Node6</title>
<g id="a_Node000006"><a xlink:href="../../d7/d36/classTerraria_1_1GameContent_1_1UI_1_1Elements_1_1UIColoredImageButton_aca4cf46819125c5159c6b974743ace30.html#aca4cf46819125c5159c6b974743ace30" target="_top" xlink:title=" ">
<polygon fill="white" stroke="#666666" points="675.5,-159 496.5,-159 496.5,-118 675.5,-118 675.5,-159"/>
<text text-anchor="start" x="504.5" y="-147" font-family="Helvetica,sans-Serif" font-size="10.00">Terraria.GameContent.UI.</text>
<text text-anchor="start" x="504.5" y="-136" font-family="Helvetica,sans-Serif" font-size="10.00">Elements.UIColoredImageButton.</text>
<text text-anchor="middle" x="586" y="-125" font-family="Helvetica,sans-Serif" font-size="10.00">SetColor</text>
</a>
</g>
</g>
<!-- Node3&#45;&gt;Node6 -->
<g id="edge6_Node000003_Node000006" class="edge">
<title>Node3&#45;&gt;Node6</title>
<g id="a_edge6_Node000003_Node000006"><a xlink:title=" ">
<path fill="none" stroke="#63b8ff" d="M449.14,-155.7C461.33,-154.16 473.86,-152.57 486.14,-151.02"/>
<polygon fill="#63b8ff" stroke="#63b8ff" points="486.9,-154.45 496.38,-149.72 486.02,-147.51 486.9,-154.45"/>
</a>
</g>
</g>
<!-- Node7 -->
<g id="Node000007" class="node">
<title>Node7</title>
<g id="a_Node000007"><a xlink:href="../../d8/db0/classTerraria_1_1GameContent_1_1UI_1_1States_1_1UICharacterCreation_a1de0af41411514626b5678b76157b720.html#a1de0af41411514626b5678b76157b720" target="_top" xlink:title=" ">
<polygon fill="white" stroke="#666666" points="680,-100 492,-100 492,-59 680,-59 680,-100"/>
<text text-anchor="start" x="500" y="-88" font-family="Helvetica,sans-Serif" font-size="10.00">Terraria.GameContent.UI.</text>
<text text-anchor="start" x="500" y="-77" font-family="Helvetica,sans-Serif" font-size="10.00">States.UICharacterCreation.Update</text>
<text text-anchor="middle" x="586" y="-66" font-family="Helvetica,sans-Serif" font-size="10.00">HexText</text>
</a>
</g>
</g>
<!-- Node3&#45;&gt;Node7 -->
<g id="edge7_Node000003_Node000007" class="edge">
<title>Node3&#45;&gt;Node7</title>
<g id="a_edge7_Node000003_Node000007"><a xlink:title=" ">
<path fill="none" stroke="#63b8ff" d="M401.23,-146.99C427.49,-135.39 461.34,-120.95 492,-109.5 497.5,-107.45 503.21,-105.4 508.97,-103.4"/>
<polygon fill="#63b8ff" stroke="#63b8ff" points="510.37,-106.62 518.7,-100.07 508.1,-99.99 510.37,-106.62"/>
</a>
</g>
</g>
<!-- Node5&#45;&gt;Node5 -->
<g id="edge5_Node000005_Node000005" class="edge">
<title>Node5&#45;&gt;Node5</title>
<g id="a_edge5_Node000005_Node000005"><a xlink:title=" ">
<path fill="none" stroke="#63b8ff" d="M546.67,-218.1C542.38,-227.65 555.49,-236 586,-236 605.07,-236 617.34,-232.74 622.82,-227.96"/>
<polygon fill="#63b8ff" stroke="#63b8ff" points="626.25,-228.65 625.33,-218.1 619.47,-226.92 626.25,-228.65"/>
</a>
</g>
</g>
<!-- Node8 -->
<g id="Node000008" class="node">
<title>Node8</title>
<g id="a_Node000008"><a xlink:href="../../d8/db0/classTerraria_1_1GameContent_1_1UI_1_1States_1_1UICharacterCreation_acb91d789cabbe191e7eb2779c0d3c7b1.html#acb91d789cabbe191e7eb2779c0d3c7b1" target="_top" xlink:title=" ">
<polygon fill="white" stroke="#666666" points="886,-127 716,-127 716,-86 886,-86 886,-127"/>
<text text-anchor="start" x="724" y="-115" font-family="Helvetica,sans-Serif" font-size="10.00">Terraria.GameContent.UI.</text>
<text text-anchor="start" x="724" y="-104" font-family="Helvetica,sans-Serif" font-size="10.00">States.UICharacterCreation.Get</text>
<text text-anchor="middle" x="801" y="-93" font-family="Helvetica,sans-Serif" font-size="10.00">HexText</text>
</a>
</g>
</g>
<!-- Node7&#45;&gt;Node8 -->
<g id="edge8_Node000007_Node000008" class="edge">
<title>Node7&#45;&gt;Node8</title>
<g id="a_edge8_Node000007_Node000008"><a xlink:title=" ">
<path fill="none" stroke="#63b8ff" d="M680.12,-91.3C688.64,-92.38 697.29,-93.48 705.83,-94.56"/>
<polygon fill="#63b8ff" stroke="#63b8ff" points="705.43,-98.04 715.79,-95.83 706.31,-91.1 705.43,-98.04"/>
</a>
</g>
</g>
<!-- Node9 -->
<g id="Node000009" class="node">
<title>Node9</title>
<g id="a_Node000009"><a xlink:href="../../df/da8/classTerraria_1_1GameContent_1_1UI_1_1Elements_1_1UIText_a3f27882b54715c7adb4e9859ec77c395.html#a3f27882b54715c7adb4e9859ec77c395" target="_top" xlink:title=" ">
<polygon fill="white" stroke="#666666" points="871,-67.5 731,-67.5 731,-37.5 871,-37.5 871,-67.5"/>
<text text-anchor="start" x="739" y="-55.5" font-family="Helvetica,sans-Serif" font-size="10.00">Terraria.GameContent.UI.</text>
<text text-anchor="middle" x="801" y="-44.5" font-family="Helvetica,sans-Serif" font-size="10.00">Elements.UIText.SetText</text>
</a>
</g>
</g>
<!-- Node7&#45;&gt;Node9 -->
<g id="edge9_Node000007_Node000009" class="edge">
<title>Node7&#45;&gt;Node9</title>
<g id="a_edge9_Node000007_Node000009"><a xlink:title=" ">
<path fill="none" stroke="#63b8ff" d="M680.12,-67.7C693.67,-65.98 707.53,-64.22 720.78,-62.54"/>
<polygon fill="#63b8ff" stroke="#63b8ff" points="721.3,-66 730.78,-61.27 720.42,-59.06 721.3,-66"/>
</a>
</g>
</g>
<!-- Node10 -->
<g id="Node000010" class="node">
<title>Node10</title>
<g id="a_Node000010"><a xlink:href="../../df/da8/classTerraria_1_1GameContent_1_1UI_1_1Elements_1_1UIText_a6b38a5021c0225460c802dc8376d39ac.html#a6b38a5021c0225460c802dc8376d39ac" target="_top" xlink:title=" ">
<polygon fill="white" stroke="#666666" points="1095,-67.5 922,-67.5 922,-37.5 1095,-37.5 1095,-67.5"/>
<text text-anchor="start" x="930" y="-55.5" font-family="Helvetica,sans-Serif" font-size="10.00">Terraria.GameContent.UI.</text>
<text text-anchor="middle" x="1008.5" y="-44.5" font-family="Helvetica,sans-Serif" font-size="10.00">Elements.UIText.InternalSetText</text>
</a>
</g>
</g>
<!-- Node9&#45;&gt;Node10 -->
<g id="edge10_Node000009_Node000010" class="edge">
<title>Node9&#45;&gt;Node10</title>
<g id="a_edge10_Node000009_Node000010"><a xlink:title=" ">
<path fill="none" stroke="#63b8ff" d="M871,-52.5C884.01,-52.5 897.83,-52.5 911.49,-52.5"/>
<polygon fill="#63b8ff" stroke="#63b8ff" points="911.89,-56 921.89,-52.5 911.89,-49 911.89,-56"/>
</a>
</g>
</g>
<!-- Node11 -->
<g id="Node000011" class="node">
<title>Node11</title>
<g id="a_Node000011"><a xlink:href="../../d7/d72/classTerraria_1_1UI_1_1UIElement_a5ad03f5ce0e776511a3b7e4a29e16caf.html#a5ad03f5ce0e776511a3b7e4a29e16caf" target="_top" xlink:title=" ">
<polygon fill="white" stroke="#666666" points="1284.5,-133.5 1143.5,-133.5 1143.5,-103.5 1284.5,-103.5 1284.5,-133.5"/>
<text text-anchor="start" x="1151.5" y="-121.5" font-family="Helvetica,sans-Serif" font-size="10.00">Terraria.UI.UIElement.Get</text>
<text text-anchor="middle" x="1214" y="-110.5" font-family="Helvetica,sans-Serif" font-size="10.00">InnerDimensions</text>
</a>
</g>
</g>
<!-- Node10&#45;&gt;Node11 -->
<g id="edge11_Node000010_Node000011" class="edge">
<title>Node10&#45;&gt;Node11</title>
<g id="a_edge11_Node000010_Node000011"><a xlink:title=" ">
<path fill="none" stroke="#63b8ff" d="M1051.51,-67.58C1074.83,-75.81 1104.42,-86.02 1131,-94.5 1137.12,-96.45 1143.52,-98.43 1149.92,-100.37"/>
<polygon fill="#63b8ff" stroke="#63b8ff" points="1149.37,-103.86 1159.95,-103.38 1151.38,-97.15 1149.37,-103.86"/>
</a>
</g>
</g>
<!-- Node12 -->
<g id="Node000012" class="node">
<title>Node12</title>
<g id="a_Node000012"><a xlink:href="../../d7/df6/classTerraria_1_1UI_1_1Chat_1_1ChatManager_ad0daac781e8696c59955af964519db95.html#ad0daac781e8696c59955af964519db95" target="_top" xlink:title=" ">
<polygon fill="white" stroke="#666666" points="1295.5,-67.5 1132.5,-67.5 1132.5,-37.5 1295.5,-37.5 1295.5,-67.5"/>
<text text-anchor="start" x="1140.5" y="-55.5" font-family="Helvetica,sans-Serif" font-size="10.00">Terraria.UI.Chat.ChatManager.</text>
<text text-anchor="middle" x="1214" y="-44.5" font-family="Helvetica,sans-Serif" font-size="10.00">GetStringSize</text>
</a>
</g>
</g>
<!-- Node10&#45;&gt;Node12 -->
<g id="edge12_Node000010_Node000012" class="edge">
<title>Node10&#45;&gt;Node12</title>
<g id="a_edge12_Node000010_Node000012"><a xlink:title=" ">
<path fill="none" stroke="#63b8ff" d="M1095.21,-52.5C1104.13,-52.5 1113.22,-52.5 1122.19,-52.5"/>
<polygon fill="#63b8ff" stroke="#63b8ff" points="1122.26,-56 1132.26,-52.5 1122.26,-49 1122.26,-56"/>
</a>
</g>
</g>
<!-- Node16 -->
<g id="Node000016" class="node">
<title>Node16</title>
<g id="a_Node000016"><a xlink:href="../../d8/d74/structTerraria_1_1UI_1_1StyleDimension_a93e6acf229427c6435d7ee83958efba0.html#a93e6acf229427c6435d7ee83958efba0" target="_top" xlink:title=" ">
<polygon fill="white" stroke="#666666" points="1297,-19 1131,-19 1131,0 1297,0 1297,-19"/>
<text text-anchor="middle" x="1214" y="-7" font-family="Helvetica,sans-Serif" font-size="10.00">Terraria.UI.StyleDimension.Set</text>
</a>
</g>
</g>
<!-- Node10&#45;&gt;Node16 -->
<g id="edge17_Node000010_Node000016" class="edge">
<title>Node10&#45;&gt;Node16</title>
<g id="a_edge17_Node000010_Node000016"><a xlink:title=" ">
<path fill="none" stroke="#63b8ff" d="M1080.67,-37.46C1106.05,-32.1 1134.22,-26.15 1158.02,-21.12"/>
<polygon fill="#63b8ff" stroke="#63b8ff" points="1158.88,-24.51 1167.94,-19.02 1157.43,-17.67 1158.88,-24.51"/>
</a>
</g>
</g>
<!-- Node12&#45;&gt;Node12 -->
<g id="edge13_Node000012_Node000012" class="edge">
<title>Node12&#45;&gt;Node12</title>
<g id="a_edge13_Node000012_Node000012"><a xlink:title=" ">
<path fill="none" stroke="#63b8ff" d="M1178.84,-67.78C1171.03,-76.91 1182.75,-85.5 1214,-85.5 1232.55,-85.5 1244.22,-82.47 1249.01,-78.1"/>
<polygon fill="#63b8ff" stroke="#63b8ff" points="1252.51,-77.82 1249.16,-67.78 1245.51,-77.72 1252.51,-77.82"/>
</a>
</g>
</g>
<!-- Node13 -->
<g id="Node000013" class="node">
<title>Node13</title>
<g id="a_Node000013"><a xlink:href="../../d7/df6/classTerraria_1_1UI_1_1Chat_1_1ChatManager_af687cd1f70060817f5984ef2b554cf40.html#af687cd1f70060817f5984ef2b554cf40" target="_top" xlink:title=" ">
<polygon fill="white" stroke="#666666" points="1496,-67.5 1333,-67.5 1333,-37.5 1496,-37.5 1496,-67.5"/>
<text text-anchor="start" x="1341" y="-55.5" font-family="Helvetica,sans-Serif" font-size="10.00">Terraria.UI.Chat.ChatManager.</text>
<text text-anchor="middle" x="1414.5" y="-44.5" font-family="Helvetica,sans-Serif" font-size="10.00">ParseMessage</text>
</a>
</g>
</g>
<!-- Node12&#45;&gt;Node13 -->
<g id="edge14_Node000012_Node000013" class="edge">
<title>Node12&#45;&gt;Node13</title>
<g id="a_edge14_Node000012_Node000013"><a xlink:title=" ">
<path fill="none" stroke="#63b8ff" d="M1295.74,-52.5C1304.63,-52.5 1313.72,-52.5 1322.73,-52.5"/>
<polygon fill="#63b8ff" stroke="#63b8ff" points="1322.83,-56 1332.83,-52.5 1322.83,-49 1322.83,-56"/>
</a>
</g>
</g>
<!-- Node14 -->
<g id="Node000014" class="node">
<title>Node14</title>
<g id="a_Node000014"><a xlink:href="../../d7/df6/classTerraria_1_1UI_1_1Chat_1_1ChatManager_ad57d7ce4542b2df5cd9ff15c86855f3f.html#ad57d7ce4542b2df5cd9ff15c86855f3f" target="_top" xlink:title=" ">
<polygon fill="white" stroke="#666666" points="1695,-91.5 1532,-91.5 1532,-61.5 1695,-61.5 1695,-91.5"/>
<text text-anchor="start" x="1540" y="-79.5" font-family="Helvetica,sans-Serif" font-size="10.00">Terraria.UI.Chat.ChatManager.</text>
<text text-anchor="middle" x="1613.5" y="-68.5" font-family="Helvetica,sans-Serif" font-size="10.00">GetHandler</text>
</a>
</g>
</g>
<!-- Node13&#45;&gt;Node14 -->
<g id="edge15_Node000013_Node000014" class="edge">
<title>Node13&#45;&gt;Node14</title>
<g id="a_edge15_Node000013_Node000014"><a xlink:title=" ">
<path fill="none" stroke="#63b8ff" d="M1496.2,-62.33C1504.67,-63.36 1513.33,-64.42 1521.91,-65.46"/>
<polygon fill="#63b8ff" stroke="#63b8ff" points="1521.58,-68.95 1531.93,-66.68 1522.43,-62 1521.58,-68.95"/>
</a>
</g>
</g>
<!-- Node15 -->
<g id="Node000015" class="node">
<title>Node15</title>
<g id="a_Node000015"><a xlink:href="../../dc/d25/interfaceTerraria_1_1UI_1_1Chat_1_1ITagHandler_aa5a15f340434dc9990b2b10b306642a6.html#aa5a15f340434dc9990b2b10b306642a6" target="_top" xlink:title=" ">
<polygon fill="white" stroke="#666666" points="1691,-43.5 1536,-43.5 1536,-13.5 1691,-13.5 1691,-43.5"/>
<text text-anchor="start" x="1544" y="-31.5" font-family="Helvetica,sans-Serif" font-size="10.00">Terraria.UI.Chat.ITagHandler.</text>
<text text-anchor="middle" x="1613.5" y="-20.5" font-family="Helvetica,sans-Serif" font-size="10.00">Parse</text>
</a>
</g>
</g>
<!-- Node13&#45;&gt;Node15 -->
<g id="edge16_Node000013_Node000015" class="edge">
<title>Node13&#45;&gt;Node15</title>
<g id="a_edge16_Node000013_Node000015"><a xlink:title=" ">
<path fill="none" stroke="#63b8ff" d="M1496.2,-42.67C1505.9,-41.49 1515.83,-40.28 1525.62,-39.08"/>
<polygon fill="#63b8ff" stroke="#63b8ff" points="1526.24,-42.54 1535.74,-37.85 1525.39,-35.59 1526.24,-42.54"/>
</a>
</g>
</g>
</g>
</svg>

<g id="navigator" transform="translate(0 0)" fill="#404254">
  <rect fill="#f2f5e9" fill-opacity="0.5" stroke="#606060" stroke-width=".5" x="0" y="0" width="60" height="60"/>
  <use id="zoomplus" xlink:href="#zoomPlus" x="17" y="9" onmousedown="handleZoom(evt,'in')"/>
  <use id="zoomminus" xlink:href="#zoomMin" x="42" y="9" onmousedown="handleZoom(evt,'out')"/>
  <use id="reset" xlink:href="#resetDef" x="30" y="36" onmousedown="handleReset()"/>
   <use id="arrowup" xlink:href="#arrowUp" x="0" y="0" onmousedown="handlePan(0,-1)"/>
  <use id="arrowright" xlink:href="#arrowRight" x="0" y="0" onmousedown="handlePan(1,0)"/>
  <use id="arrowdown" xlink:href="#arrowDown" x="0" y="0" onmousedown="handlePan(0,1)"/>
  <use id="arrowleft" xlink:href="#arrowLeft" x="0" y="0" onmousedown="handlePan(-1,0)"/>
</g>
<svg viewBox="0 0 15 15" width="100%" height="30px" preserveAspectRatio="xMaxYMin meet">
 <g id="arrow_out" transform="scale(0.3 0.3)">
  <a xlink:href="classTerraria_1_1GameContent_1_1UI_1_1States_1_1UICharacterCreation_af1a15bee7852ad37a4e3a175daacccda_af1a15bee7852ad37a4e3a175daacccda_cgraph_org.svg" target="_base">
   <rect id="button" ry="5" rx="5" y="6" x="6" height="38" width="38"
        fill="#f2f5e9" fill-opacity="0.5" stroke="#606060" stroke-width="1.0"/>
   <path id="arrow"
     d="M 11.500037,31.436501 C 11.940474,20.09759 22.043105,11.32322 32.158766,21.979434 L 37.068811,17.246167 C 37.068811,17.246167 37.088388,32 37.088388,32 L 22.160133,31.978069 C 22.160133,31.978069 26.997745,27.140456 26.997745,27.140456 C 18.528582,18.264221 13.291696,25.230495 11.500037,31.436501 z"
     style="fill:#404040;"/>
  </a>
 </g>
</svg>

<style type='text/css'>
<![CDATA[
[data-mouse-over-selected='false'] { opacity: 0.7; }
[data-mouse-over-selected='true']  { opacity: 1.0; }
]]>
</style>
<script type="application/ecmascript"><![CDATA[
document.addEventListener('DOMContentLoaded', (event) => {
  highlightEdges();
  highlightAdjacentNodes();
});
]]></script>
</svg>
