<?xml version="1.0" encoding="UTF-8" standalone="no"?>
<!DOCTYPE svg PUBLIC "-//W3C//DTD SVG 1.1//EN"
 "http://www.w3.org/Graphics/SVG/1.1/DTD/svg11.dtd">
<!-- Generated by graphviz version 2.43.0 (0)
 -->
<!-- Title: Terraria.GameContent.ShopHelper.IsPlayerInEvilBiomes Pages: 1 -->
<svg width="986pt" height="182pt"
 viewBox="0.00 0.00 986.00 182.00" xmlns="http://www.w3.org/2000/svg" xmlns:xlink="http://www.w3.org/1999/xlink">
<g id="graph0" class="graph" transform="scale(1 1) rotate(0) translate(4 178)">
<title>Terraria.GameContent.ShopHelper.IsPlayerInEvilBiomes</title>
<!-- Node1 -->
<g id="Node000001" class="node">
<title>Node1</title>
<g id="a_Node000001"><a xlink:title=" ">
<polygon fill="#999999" stroke="#666666" points="154,-90 0,-90 0,-60 154,-60 154,-90"/>
<text text-anchor="start" x="8" y="-78" font-family="Helvetica,sans-Serif" font-size="10.00">Terraria.GameContent.Shop</text>
<text text-anchor="middle" x="77" y="-67" font-family="Helvetica,sans-Serif" font-size="10.00">Helper.IsPlayerInEvilBiomes</text>
</a>
</g>
</g>
<!-- Node2 -->
<g id="Node000002" class="node">
<title>Node2</title>
<g id="a_Node000002"><a xlink:href="../../d9/d8a/classTerraria_1_1GameContent_1_1ShopHelper_a0b1833ca0f49cb027c21817bd20affb6.html#a0b1833ca0f49cb027c21817bd20affb6" target="_top" xlink:title=" ">
<polygon fill="white" stroke="#666666" points="363,-120 190,-120 190,-90 363,-90 363,-120"/>
<text text-anchor="start" x="198" y="-108" font-family="Helvetica,sans-Serif" font-size="10.00">Terraria.GameContent.Shop</text>
<text text-anchor="middle" x="276.5" y="-97" font-family="Helvetica,sans-Serif" font-size="10.00">Helper.AddHappinessReportText</text>
</a>
</g>
</g>
<!-- Node1&#45;&gt;Node2 -->
<g id="edge1_Node000001_Node000002" class="edge">
<title>Node1&#45;&gt;Node2</title>
<g id="a_edge1_Node000001_Node000002"><a xlink:title=" ">
<path fill="none" stroke="#63b8ff" d="M154.08,-86.56C162.51,-87.84 171.18,-89.15 179.82,-90.47"/>
<polygon fill="#63b8ff" stroke="#63b8ff" points="179.51,-93.96 189.93,-92 180.56,-87.04 179.51,-93.96"/>
</a>
</g>
</g>
<!-- Node9 -->
<g id="Node000009" class="node">
<title>Node9</title>
<g id="a_Node000009"><a xlink:href="../../d9/d8a/classTerraria_1_1GameContent_1_1ShopHelper_a28d7b0bc5f1b94fd769a461b5d9ac6f7.html#a28d7b0bc5f1b94fd769a461b5d9ac6f7" target="_top" xlink:title=" ">
<polygon fill="white" stroke="#666666" points="352,-66 201,-66 201,-36 352,-36 352,-66"/>
<text text-anchor="start" x="209" y="-54" font-family="Helvetica,sans-Serif" font-size="10.00">Terraria.GameContent.Shop</text>
<text text-anchor="middle" x="276.5" y="-43" font-family="Helvetica,sans-Serif" font-size="10.00">Helper.BiomeNameByKey</text>
</a>
</g>
</g>
<!-- Node1&#45;&gt;Node9 -->
<g id="edge8_Node000001_Node000009" class="edge">
<title>Node1&#45;&gt;Node9</title>
<g id="a_edge8_Node000001_Node000009"><a xlink:title=" ">
<path fill="none" stroke="#63b8ff" d="M154.08,-65.76C166.05,-64.3 178.49,-62.79 190.64,-61.31"/>
<polygon fill="#63b8ff" stroke="#63b8ff" points="191.26,-64.76 200.76,-60.08 190.42,-57.81 191.26,-64.76"/>
</a>
</g>
</g>
<!-- Node3 -->
<g id="Node000003" class="node">
<title>Node3</title>
<g id="a_Node000003"><a xlink:href="../../da/d9e/classTerraria_1_1ModLoader_1_1ModContent_ad08e83bcc3e1bd0c47c91ae3764c006f.html#ad08e83bcc3e1bd0c47c91ae3764c006f" target="_top" xlink:title=" ">
<polygon fill="white" stroke="#666666" points="574,-171 399,-171 399,-141 574,-141 574,-171"/>
<text text-anchor="start" x="407" y="-159" font-family="Helvetica,sans-Serif" font-size="10.00">Terraria.ModLoader.ModContent.</text>
<text text-anchor="middle" x="486.5" y="-148" font-family="Helvetica,sans-Serif" font-size="10.00">GetModNPC</text>
</a>
</g>
</g>
<!-- Node2&#45;&gt;Node3 -->
<g id="edge2_Node000002_Node000003" class="edge">
<title>Node2&#45;&gt;Node3</title>
<g id="a_edge2_Node000002_Node000003"><a xlink:title=" ">
<path fill="none" stroke="#63b8ff" d="M338.78,-120.03C362.48,-125.84 389.76,-132.52 414.32,-138.55"/>
<polygon fill="#63b8ff" stroke="#63b8ff" points="413.75,-142.01 424.3,-140.99 415.42,-135.21 413.75,-142.01"/>
</a>
</g>
</g>
<!-- Node5 -->
<g id="Node000005" class="node">
<title>Node5</title>
<g id="a_Node000005"><a xlink:href="../../d4/d8f/classTerraria_1_1Localization_1_1Language_aee1558e43a43c3c4a8bcbfd1d84ffe43.html#aee1558e43a43c3c4a8bcbfd1d84ffe43" target="_top" xlink:title=" ">
<polygon fill="white" stroke="#666666" points="570.5,-120 402.5,-120 402.5,-90 570.5,-90 570.5,-120"/>
<text text-anchor="start" x="410.5" y="-108" font-family="Helvetica,sans-Serif" font-size="10.00">Terraria.Localization.Language.</text>
<text text-anchor="middle" x="486.5" y="-97" font-family="Helvetica,sans-Serif" font-size="10.00">GetTextValueWith</text>
</a>
</g>
</g>
<!-- Node2&#45;&gt;Node5 -->
<g id="edge4_Node000002_Node000005" class="edge">
<title>Node2&#45;&gt;Node5</title>
<g id="a_edge4_Node000002_Node000005"><a xlink:title=" ">
<path fill="none" stroke="#63b8ff" d="M363,-105C372.65,-105 382.51,-105 392.25,-105"/>
<polygon fill="#63b8ff" stroke="#63b8ff" points="392.34,-108.5 402.34,-105 392.34,-101.5 392.34,-108.5"/>
</a>
</g>
</g>
<!-- Node4 -->
<g id="Node000004" class="node">
<title>Node4</title>
<g id="a_Node000004"><a xlink:href="../../dd/dc6/classTerraria_1_1ModLoader_1_1NPCLoader_a1e9eae6ec444b4a23e1a809cfea3be94.html#a1e9eae6ec444b4a23e1a809cfea3be94" target="_top" xlink:title="Gets the ModNPC template instance corresponding to the specified type (not the clone/new instance whi...">
<polygon fill="white" stroke="#666666" points="778,-174 610,-174 610,-144 778,-144 778,-174"/>
<text text-anchor="start" x="618" y="-162" font-family="Helvetica,sans-Serif" font-size="10.00">Terraria.ModLoader.NPCLoader.</text>
<text text-anchor="middle" x="694" y="-151" font-family="Helvetica,sans-Serif" font-size="10.00">GetNPC</text>
</a>
</g>
</g>
<!-- Node3&#45;&gt;Node4 -->
<g id="edge3_Node000003_Node000004" class="edge">
<title>Node3&#45;&gt;Node4</title>
<g id="a_edge3_Node000003_Node000004"><a xlink:title=" ">
<path fill="none" stroke="#63b8ff" d="M574.05,-157.26C582.57,-157.39 591.24,-157.51 599.81,-157.64"/>
<polygon fill="#63b8ff" stroke="#63b8ff" points="599.78,-161.14 609.83,-157.79 599.88,-154.14 599.78,-161.14"/>
</a>
</g>
</g>
<!-- Node6 -->
<g id="Node000006" class="node">
<title>Node6</title>
<g id="a_Node000006"><a xlink:href="../../d5/d73/classTerraria_1_1Localization_1_1LocalizedText_a3a3b4c3c6cbb09daed1b0513c8b53807.html#a3a3b4c3c6cbb09daed1b0513c8b53807" target="_top" xlink:title="Creates a string from this LocalizedText populated with data from the provided obj &#160;parameter....">
<polygon fill="white" stroke="#666666" points="776,-126 612,-126 612,-96 776,-96 776,-126"/>
<text text-anchor="start" x="620" y="-114" font-family="Helvetica,sans-Serif" font-size="10.00">Terraria.Localization.Localized</text>
<text text-anchor="middle" x="694" y="-103" font-family="Helvetica,sans-Serif" font-size="10.00">Text.FormatWith</text>
</a>
</g>
</g>
<!-- Node5&#45;&gt;Node6 -->
<g id="edge5_Node000005_Node000006" class="edge">
<title>Node5&#45;&gt;Node6</title>
<g id="a_edge5_Node000005_Node000006"><a xlink:title=" ">
<path fill="none" stroke="#63b8ff" d="M570.79,-107.43C580.97,-107.73 591.41,-108.03 601.7,-108.33"/>
<polygon fill="#63b8ff" stroke="#63b8ff" points="601.83,-111.84 611.93,-108.63 602.03,-104.84 601.83,-111.84"/>
</a>
</g>
</g>
<!-- Node8 -->
<g id="Node000008" class="node">
<title>Node8</title>
<g id="a_Node000008"><a xlink:href="../../d8/d74/classTerraria_1_1Localization_1_1LanguageManager_ad292c2b15ad9179331427a23cc8c4e8c.html#ad292c2b15ad9179331427a23cc8c4e8c" target="_top" xlink:title=" ">
<polygon fill="white" stroke="#666666" points="776.5,-78 611.5,-78 611.5,-48 776.5,-48 776.5,-78"/>
<text text-anchor="start" x="619.5" y="-66" font-family="Helvetica,sans-Serif" font-size="10.00">Terraria.Localization.Language</text>
<text text-anchor="middle" x="694" y="-55" font-family="Helvetica,sans-Serif" font-size="10.00">Manager.GetText</text>
</a>
</g>
</g>
<!-- Node5&#45;&gt;Node8 -->
<g id="edge7_Node000005_Node000008" class="edge">
<title>Node5&#45;&gt;Node8</title>
<g id="a_edge7_Node000005_Node000008"><a xlink:title=" ">
<path fill="none" stroke="#63b8ff" d="M561.11,-89.96C576.85,-86.74 593.58,-83.32 609.65,-80.03"/>
<polygon fill="#63b8ff" stroke="#63b8ff" points="610.46,-83.44 619.56,-78.01 609.06,-76.58 610.46,-83.44"/>
</a>
</g>
</g>
<!-- Node7 -->
<g id="Node000007" class="node">
<title>Node7</title>
<g id="a_Node000007"><a xlink:href="../../d5/d73/classTerraria_1_1Localization_1_1LocalizedText_a9598543af1ef9d9b4b30547c5bdfa250.html#a9598543af1ef9d9b4b30547c5bdfa250" target="_top" xlink:title=" ">
<polygon fill="white" stroke="#666666" points="978,-126 814,-126 814,-96 978,-96 978,-126"/>
<text text-anchor="start" x="822" y="-114" font-family="Helvetica,sans-Serif" font-size="10.00">Terraria.Localization.Localized</text>
<text text-anchor="middle" x="896" y="-103" font-family="Helvetica,sans-Serif" font-size="10.00">Text.ToString</text>
</a>
</g>
</g>
<!-- Node6&#45;&gt;Node7 -->
<g id="edge6_Node000006_Node000007" class="edge">
<title>Node6&#45;&gt;Node7</title>
<g id="a_edge6_Node000006_Node000007"><a xlink:title=" ">
<path fill="none" stroke="#63b8ff" d="M776.06,-111C785.11,-111 794.37,-111 803.53,-111"/>
<polygon fill="#63b8ff" stroke="#63b8ff" points="803.83,-114.5 813.83,-111 803.83,-107.5 803.83,-114.5"/>
</a>
</g>
</g>
<!-- Node10 -->
<g id="Node000010" class="node">
<title>Node10</title>
<g id="a_Node000010"><a xlink:href="../../d4/d8f/classTerraria_1_1Localization_1_1Language_ae4636a4800b9ecbaa498954520462f78.html#ae4636a4800b9ecbaa498954520462f78" target="_top" xlink:title="Retrieves the text value for a specified localization key. The text returned will be for the currentl...">
<polygon fill="white" stroke="#666666" points="570.5,-54 402.5,-54 402.5,-24 570.5,-24 570.5,-54"/>
<text text-anchor="start" x="410.5" y="-42" font-family="Helvetica,sans-Serif" font-size="10.00">Terraria.Localization.Language.</text>
<text text-anchor="middle" x="486.5" y="-31" font-family="Helvetica,sans-Serif" font-size="10.00">GetTextValue</text>
</a>
</g>
</g>
<!-- Node9&#45;&gt;Node10 -->
<g id="edge9_Node000009_Node000010" class="edge">
<title>Node9&#45;&gt;Node10</title>
<g id="a_edge9_Node000009_Node000010"><a xlink:title=" ">
<path fill="none" stroke="#63b8ff" d="M352.01,-46.7C365.01,-45.95 378.69,-45.16 392.12,-44.39"/>
<polygon fill="#63b8ff" stroke="#63b8ff" points="392.55,-47.87 402.34,-43.8 392.15,-40.88 392.55,-47.87"/>
</a>
</g>
</g>
<!-- Node11 -->
<g id="Node000011" class="node">
<title>Node11</title>
<g id="a_Node000011"><a xlink:href="../../d8/d74/classTerraria_1_1Localization_1_1LanguageManager_a9f1901e50105d9873d2fdf8816e122de.html#a9f1901e50105d9873d2fdf8816e122de" target="_top" xlink:title=" ">
<polygon fill="white" stroke="#666666" points="776.5,-30 611.5,-30 611.5,0 776.5,0 776.5,-30"/>
<text text-anchor="start" x="619.5" y="-18" font-family="Helvetica,sans-Serif" font-size="10.00">Terraria.Localization.Language</text>
<text text-anchor="middle" x="694" y="-7" font-family="Helvetica,sans-Serif" font-size="10.00">Manager.GetTextValue</text>
</a>
</g>
</g>
<!-- Node10&#45;&gt;Node11 -->
<g id="edge10_Node000010_Node000011" class="edge">
<title>Node10&#45;&gt;Node11</title>
<g id="a_edge10_Node000010_Node000011"><a xlink:title=" ">
<path fill="none" stroke="#63b8ff" d="M570.79,-29.27C580.8,-28.1 591.07,-26.9 601.2,-25.72"/>
<polygon fill="#63b8ff" stroke="#63b8ff" points="601.73,-29.18 611.26,-24.55 600.92,-22.23 601.73,-29.18"/>
</a>
</g>
</g>
</g>
</svg>
