<?xml version="1.0" encoding="UTF-8" standalone="no"?>
<!DOCTYPE svg PUBLIC "-//W3C//DTD SVG 1.1//EN"
 "http://www.w3.org/Graphics/SVG/1.1/DTD/svg11.dtd">
<!-- Generated by graphviz version 2.43.0 (0)
 -->
<!-- Title: Terraria.GameContent.UI.Elements.UICharacterListItem.DeleteMouseOut Pages: 1 -->
<svg width="1159pt" height="142pt"
 viewBox="0.00 0.00 1159.00 141.50" xmlns="http://www.w3.org/2000/svg" xmlns:xlink="http://www.w3.org/1999/xlink">
<g id="graph0" class="graph" transform="scale(1 1) rotate(0) translate(4 137.5)">
<title>Terraria.GameContent.UI.Elements.UICharacterListItem.DeleteMouseOut</title>
<!-- Node1 -->
<g id="Node000001" class="node">
<title>Node1</title>
<g id="a_Node000001"><a xlink:title=" ">
<polygon fill="#999999" stroke="#666666" points="166,-73 0,-73 0,-32 166,-32 166,-73"/>
<text text-anchor="start" x="8" y="-61" font-family="Helvetica,sans-Serif" font-size="10.00">Terraria.GameContent.UI.</text>
<text text-anchor="start" x="8" y="-50" font-family="Helvetica,sans-Serif" font-size="10.00">Elements.UICharacterListItem.</text>
<text text-anchor="middle" x="83" y="-39" font-family="Helvetica,sans-Serif" font-size="10.00">DeleteMouseOut</text>
</a>
</g>
</g>
<!-- Node2 -->
<g id="Node000002" class="node">
<title>Node2</title>
<g id="a_Node000002"><a xlink:href="../../df/da8/classTerraria_1_1GameContent_1_1UI_1_1Elements_1_1UIText_a3f27882b54715c7adb4e9859ec77c395.html#a3f27882b54715c7adb4e9859ec77c395" target="_top" xlink:title=" ">
<polygon fill="white" stroke="#666666" points="342,-67.5 202,-67.5 202,-37.5 342,-37.5 342,-67.5"/>
<text text-anchor="start" x="210" y="-55.5" font-family="Helvetica,sans-Serif" font-size="10.00">Terraria.GameContent.UI.</text>
<text text-anchor="middle" x="272" y="-44.5" font-family="Helvetica,sans-Serif" font-size="10.00">Elements.UIText.SetText</text>
</a>
</g>
</g>
<!-- Node1&#45;&gt;Node2 -->
<g id="edge1_Node000001_Node000002" class="edge">
<title>Node1&#45;&gt;Node2</title>
<g id="a_edge1_Node000001_Node000002"><a xlink:title=" ">
<path fill="none" stroke="#63b8ff" d="M166.02,-52.5C174.53,-52.5 183.17,-52.5 191.65,-52.5"/>
<polygon fill="#63b8ff" stroke="#63b8ff" points="191.9,-56 201.9,-52.5 191.9,-49 191.9,-56"/>
</a>
</g>
</g>
<!-- Node3 -->
<g id="Node000003" class="node">
<title>Node3</title>
<g id="a_Node000003"><a xlink:href="../../df/da8/classTerraria_1_1GameContent_1_1UI_1_1Elements_1_1UIText_a6b38a5021c0225460c802dc8376d39ac.html#a6b38a5021c0225460c802dc8376d39ac" target="_top" xlink:title=" ">
<polygon fill="white" stroke="#666666" points="551,-67.5 378,-67.5 378,-37.5 551,-37.5 551,-67.5"/>
<text text-anchor="start" x="386" y="-55.5" font-family="Helvetica,sans-Serif" font-size="10.00">Terraria.GameContent.UI.</text>
<text text-anchor="middle" x="464.5" y="-44.5" font-family="Helvetica,sans-Serif" font-size="10.00">Elements.UIText.InternalSetText</text>
</a>
</g>
</g>
<!-- Node2&#45;&gt;Node3 -->
<g id="edge2_Node000002_Node000003" class="edge">
<title>Node2&#45;&gt;Node3</title>
<g id="a_edge2_Node000002_Node000003"><a xlink:title=" ">
<path fill="none" stroke="#63b8ff" d="M342.04,-52.5C350.39,-52.5 359.02,-52.5 367.66,-52.5"/>
<polygon fill="#63b8ff" stroke="#63b8ff" points="367.79,-56 377.79,-52.5 367.79,-49 367.79,-56"/>
</a>
</g>
</g>
<!-- Node4 -->
<g id="Node000004" class="node">
<title>Node4</title>
<g id="a_Node000004"><a xlink:href="../../d7/d72/classTerraria_1_1UI_1_1UIElement_a5ad03f5ce0e776511a3b7e4a29e16caf.html#a5ad03f5ce0e776511a3b7e4a29e16caf" target="_top" xlink:title=" ">
<polygon fill="white" stroke="#666666" points="740.5,-133.5 599.5,-133.5 599.5,-103.5 740.5,-103.5 740.5,-133.5"/>
<text text-anchor="start" x="607.5" y="-121.5" font-family="Helvetica,sans-Serif" font-size="10.00">Terraria.UI.UIElement.Get</text>
<text text-anchor="middle" x="670" y="-110.5" font-family="Helvetica,sans-Serif" font-size="10.00">InnerDimensions</text>
</a>
</g>
</g>
<!-- Node3&#45;&gt;Node4 -->
<g id="edge3_Node000003_Node000004" class="edge">
<title>Node3&#45;&gt;Node4</title>
<g id="a_edge3_Node000003_Node000004"><a xlink:title=" ">
<path fill="none" stroke="#63b8ff" d="M507.51,-67.58C530.83,-75.81 560.42,-86.02 587,-94.5 593.12,-96.45 599.52,-98.43 605.92,-100.37"/>
<polygon fill="#63b8ff" stroke="#63b8ff" points="605.37,-103.86 615.95,-103.38 607.38,-97.15 605.37,-103.86"/>
</a>
</g>
</g>
<!-- Node5 -->
<g id="Node000005" class="node">
<title>Node5</title>
<g id="a_Node000005"><a xlink:href="../../d7/df6/classTerraria_1_1UI_1_1Chat_1_1ChatManager_ad0daac781e8696c59955af964519db95.html#ad0daac781e8696c59955af964519db95" target="_top" xlink:title=" ">
<polygon fill="white" stroke="#666666" points="751.5,-67.5 588.5,-67.5 588.5,-37.5 751.5,-37.5 751.5,-67.5"/>
<text text-anchor="start" x="596.5" y="-55.5" font-family="Helvetica,sans-Serif" font-size="10.00">Terraria.UI.Chat.ChatManager.</text>
<text text-anchor="middle" x="670" y="-44.5" font-family="Helvetica,sans-Serif" font-size="10.00">GetStringSize</text>
</a>
</g>
</g>
<!-- Node3&#45;&gt;Node5 -->
<g id="edge4_Node000003_Node000005" class="edge">
<title>Node3&#45;&gt;Node5</title>
<g id="a_edge4_Node000003_Node000005"><a xlink:title=" ">
<path fill="none" stroke="#63b8ff" d="M551.21,-52.5C560.13,-52.5 569.22,-52.5 578.19,-52.5"/>
<polygon fill="#63b8ff" stroke="#63b8ff" points="578.26,-56 588.26,-52.5 578.26,-49 578.26,-56"/>
</a>
</g>
</g>
<!-- Node9 -->
<g id="Node000009" class="node">
<title>Node9</title>
<g id="a_Node000009"><a xlink:href="../../d8/d74/structTerraria_1_1UI_1_1StyleDimension_a93e6acf229427c6435d7ee83958efba0.html#a93e6acf229427c6435d7ee83958efba0" target="_top" xlink:title=" ">
<polygon fill="white" stroke="#666666" points="753,-19 587,-19 587,0 753,0 753,-19"/>
<text text-anchor="middle" x="670" y="-7" font-family="Helvetica,sans-Serif" font-size="10.00">Terraria.UI.StyleDimension.Set</text>
</a>
</g>
</g>
<!-- Node3&#45;&gt;Node9 -->
<g id="edge9_Node000003_Node000009" class="edge">
<title>Node3&#45;&gt;Node9</title>
<g id="a_edge9_Node000003_Node000009"><a xlink:title=" ">
<path fill="none" stroke="#63b8ff" d="M536.67,-37.46C562.05,-32.1 590.22,-26.15 614.02,-21.12"/>
<polygon fill="#63b8ff" stroke="#63b8ff" points="614.88,-24.51 623.94,-19.02 613.43,-17.67 614.88,-24.51"/>
</a>
</g>
</g>
<!-- Node5&#45;&gt;Node5 -->
<g id="edge5_Node000005_Node000005" class="edge">
<title>Node5&#45;&gt;Node5</title>
<g id="a_edge5_Node000005_Node000005"><a xlink:title=" ">
<path fill="none" stroke="#63b8ff" d="M634.84,-67.78C627.03,-76.91 638.75,-85.5 670,-85.5 688.55,-85.5 700.22,-82.47 705.01,-78.1"/>
<polygon fill="#63b8ff" stroke="#63b8ff" points="708.51,-77.82 705.16,-67.78 701.51,-77.72 708.51,-77.82"/>
</a>
</g>
</g>
<!-- Node6 -->
<g id="Node000006" class="node">
<title>Node6</title>
<g id="a_Node000006"><a xlink:href="../../d7/df6/classTerraria_1_1UI_1_1Chat_1_1ChatManager_af687cd1f70060817f5984ef2b554cf40.html#af687cd1f70060817f5984ef2b554cf40" target="_top" xlink:title=" ">
<polygon fill="white" stroke="#666666" points="952,-67.5 789,-67.5 789,-37.5 952,-37.5 952,-67.5"/>
<text text-anchor="start" x="797" y="-55.5" font-family="Helvetica,sans-Serif" font-size="10.00">Terraria.UI.Chat.ChatManager.</text>
<text text-anchor="middle" x="870.5" y="-44.5" font-family="Helvetica,sans-Serif" font-size="10.00">ParseMessage</text>
</a>
</g>
</g>
<!-- Node5&#45;&gt;Node6 -->
<g id="edge6_Node000005_Node000006" class="edge">
<title>Node5&#45;&gt;Node6</title>
<g id="a_edge6_Node000005_Node000006"><a xlink:title=" ">
<path fill="none" stroke="#63b8ff" d="M751.74,-52.5C760.63,-52.5 769.72,-52.5 778.73,-52.5"/>
<polygon fill="#63b8ff" stroke="#63b8ff" points="778.83,-56 788.83,-52.5 778.83,-49 778.83,-56"/>
</a>
</g>
</g>
<!-- Node7 -->
<g id="Node000007" class="node">
<title>Node7</title>
<g id="a_Node000007"><a xlink:href="../../d7/df6/classTerraria_1_1UI_1_1Chat_1_1ChatManager_ad57d7ce4542b2df5cd9ff15c86855f3f.html#ad57d7ce4542b2df5cd9ff15c86855f3f" target="_top" xlink:title=" ">
<polygon fill="white" stroke="#666666" points="1151,-91.5 988,-91.5 988,-61.5 1151,-61.5 1151,-91.5"/>
<text text-anchor="start" x="996" y="-79.5" font-family="Helvetica,sans-Serif" font-size="10.00">Terraria.UI.Chat.ChatManager.</text>
<text text-anchor="middle" x="1069.5" y="-68.5" font-family="Helvetica,sans-Serif" font-size="10.00">GetHandler</text>
</a>
</g>
</g>
<!-- Node6&#45;&gt;Node7 -->
<g id="edge7_Node000006_Node000007" class="edge">
<title>Node6&#45;&gt;Node7</title>
<g id="a_edge7_Node000006_Node000007"><a xlink:title=" ">
<path fill="none" stroke="#63b8ff" d="M952.2,-62.33C960.67,-63.36 969.33,-64.42 977.91,-65.46"/>
<polygon fill="#63b8ff" stroke="#63b8ff" points="977.58,-68.95 987.93,-66.68 978.43,-62 977.58,-68.95"/>
</a>
</g>
</g>
<!-- Node8 -->
<g id="Node000008" class="node">
<title>Node8</title>
<g id="a_Node000008"><a xlink:href="../../dc/d25/interfaceTerraria_1_1UI_1_1Chat_1_1ITagHandler_aa5a15f340434dc9990b2b10b306642a6.html#aa5a15f340434dc9990b2b10b306642a6" target="_top" xlink:title=" ">
<polygon fill="white" stroke="#666666" points="1147,-43.5 992,-43.5 992,-13.5 1147,-13.5 1147,-43.5"/>
<text text-anchor="start" x="1000" y="-31.5" font-family="Helvetica,sans-Serif" font-size="10.00">Terraria.UI.Chat.ITagHandler.</text>
<text text-anchor="middle" x="1069.5" y="-20.5" font-family="Helvetica,sans-Serif" font-size="10.00">Parse</text>
</a>
</g>
</g>
<!-- Node6&#45;&gt;Node8 -->
<g id="edge8_Node000006_Node000008" class="edge">
<title>Node6&#45;&gt;Node8</title>
<g id="a_edge8_Node000006_Node000008"><a xlink:title=" ">
<path fill="none" stroke="#63b8ff" d="M952.2,-42.67C961.9,-41.49 971.83,-40.28 981.62,-39.08"/>
<polygon fill="#63b8ff" stroke="#63b8ff" points="982.24,-42.54 991.74,-37.85 981.39,-35.59 982.24,-42.54"/>
</a>
</g>
</g>
</g>
</svg>
