<?xml version="1.0" encoding="UTF-8" standalone="no"?>
<!DOCTYPE svg PUBLIC "-//W3C//DTD SVG 1.1//EN"
 "http://www.w3.org/Graphics/SVG/1.1/DTD/svg11.dtd">
<!-- Generated by graphviz version 2.43.0 (0)
 -->
<!-- Title: Terraria.GameContent.UI.States.UIWorkshopSelectResourcePackToPublish.HandleBackButtonUsage Pages: 1 -->
<!--zoomable 262 -->

<svg id="main" version="1.1" xmlns="http://www.w3.org/2000/svg" xmlns:xlink="http://www.w3.org/1999/xlink" xml:space="preserve" onload="init(evt)">
<style type="text/css"><![CDATA[
.node, .edge {opacity: 0.7;}
.node.selected, .edge.selected {opacity: 1;}
.edge:hover path { stroke: red; }
.edge:hover polygon { stroke: red; fill: red; }
]]></style>

<defs>
  <circle id="rim" cx="0" cy="0" r="7"/>
  <circle id="rim2" cx="0" cy="0" r="3.5"/>
  <g id="zoomPlus">
    <use xlink:href="#rim" fill="#404040"><set attributeName="fill" to="#808080" begin="zoomplus.mouseover" end="zoomplus.mouseout"/></use>
    <path d="M-4,0h8M0,-4v8" fill="none" stroke="white" stroke-width="1.5" pointer-events="none"/>
  </g>
  <g id="zoomMin">
    <use xlink:href="#rim" fill="#404040"><set attributeName="fill" to="#808080" begin="zoomminus.mouseover" end="zoomminus.mouseout"/></use>
    <path d="M-4,0h8" fill="none" stroke="white" stroke-width="1.5" pointer-events="none"/>
  </g>
  <g id="arrowUp" transform="translate(30 24)">
    <use xlink:href="#rim"/>
    <path pointer-events="none" fill="none" stroke="white" stroke-width="1.5" d="M0,-3.0v7 M-2.5,-0.5L0,-3.0L2.5,-0.5"/>
  </g>
  <g id="arrowRight" transform="rotate(90) translate(36 -43)">
    <use xlink:href="#rim"/>
    <path pointer-events="none" fill="none" stroke="white" stroke-width="1.5" d="M0,-3.0v7 M-2.5,-0.5L0,-3.0L2.5,-0.5"/>
  </g>
  <g id="arrowDown" transform="rotate(180) translate(-30 -48)">
    <use xlink:href="#rim"/>
    <path pointer-events="none" fill="none" stroke="white" stroke-width="1.5" d="M0,-3.0v7 M-2.5,-0.5L0,-3.0L2.5,-0.5"/>
  </g>
  <g id="arrowLeft" transform="rotate(270) translate(-36 17)">
    <use xlink:href="#rim"/>
    <path pointer-events="none" fill="none" stroke="white" stroke-width="1.5" d="M0,-3.0v7 M-2.5,-0.5L0,-3.0L2.5,-0.5"/>
  </g>
  <g id="resetDef">
    <use xlink:href="#rim2" fill="#404040"><set attributeName="fill" to="#808080" begin="reset.mouseover" end="reset.mouseout"/></use>
  </g>
</defs>
<script type="application/ecmascript">
var viewWidth = 1009;
var viewHeight = 262;
var sectionId = 'dynsection-0';
</script>
<script type="application/ecmascript" xlink:href="../../svg.min.js"/>
<svg id="graph" class="graph">
<g id="viewport">
<title>Terraria.GameContent.UI.States.UIWorkshopSelectResourcePackToPublish.HandleBackButtonUsage</title>
<!-- Node1 -->
<g id="Node000001" class="node">
<title>Node1</title>
<g id="a_Node000001"><a xlink:title=" ">
<polygon fill="#999999" stroke="#666666" points="209,-217.5 0,-217.5 0,-176.5 209,-176.5 209,-217.5"/>
<text text-anchor="start" x="8" y="-205.5" font-family="Helvetica,sans-Serif" font-size="10.00">Terraria.GameContent.UI.</text>
<text text-anchor="start" x="8" y="-194.5" font-family="Helvetica,sans-Serif" font-size="10.00">States.UIWorkshopSelectResource</text>
<text text-anchor="middle" x="104.5" y="-183.5" font-family="Helvetica,sans-Serif" font-size="10.00">PackToPublish.HandleBackButtonUsage</text>
</a>
</g>
</g>
<!-- Node2 -->
<g id="Node000002" class="node">
<title>Node2</title>
<g id="a_Node000002"><a xlink:href="../../d3/d78/classTerraria_1_1Audio_1_1SoundEngine_af55950ae09b294fad1dd58e37fecf28b.html#af55950ae09b294fad1dd58e37fecf28b" target="_top" xlink:title="Attempts to play a sound style with the provided sound style (if it&#39;s not null), and returns a valid ...">
<polygon fill="white" stroke="#666666" points="398,-236 245,-236 245,-206 398,-206 398,-236"/>
<text text-anchor="start" x="253" y="-224" font-family="Helvetica,sans-Serif" font-size="10.00">Terraria.Audio.SoundEngine.</text>
<text text-anchor="middle" x="321.5" y="-213" font-family="Helvetica,sans-Serif" font-size="10.00">PlaySound</text>
</a>
</g>
</g>
<!-- Node1&#45;&gt;Node2 -->
<g id="edge1_Node000001_Node000002" class="edge">
<title>Node1&#45;&gt;Node2</title>
<g id="a_edge1_Node000001_Node000002"><a xlink:title=" ">
<path fill="none" stroke="#63b8ff" d="M209.22,-208.58C217.77,-209.53 226.35,-210.49 234.75,-211.43"/>
<polygon fill="#63b8ff" stroke="#63b8ff" points="234.56,-214.93 244.89,-212.56 235.34,-207.97 234.56,-214.93"/>
</a>
</g>
</g>
<!-- Node3 -->
<g id="Node000003" class="node">
<title>Node3</title>
<g id="a_Node000003"><a xlink:href="../../dc/dc4/classTerraria_1_1UI_1_1UserInterface_a3a6102198df79471f13a3a9993c152a4.html#a3a6102198df79471f13a3a9993c152a4" target="_top" xlink:title=" ">
<polygon fill="white" stroke="#666666" points="391,-188 252,-188 252,-158 391,-158 391,-188"/>
<text text-anchor="start" x="260" y="-176" font-family="Helvetica,sans-Serif" font-size="10.00">Terraria.UI.UserInterface.</text>
<text text-anchor="middle" x="321.5" y="-165" font-family="Helvetica,sans-Serif" font-size="10.00">SetState</text>
</a>
</g>
</g>
<!-- Node1&#45;&gt;Node3 -->
<g id="edge3_Node000001_Node000003" class="edge">
<title>Node1&#45;&gt;Node3</title>
<g id="a_edge3_Node000001_Node000003"><a xlink:title=" ">
<path fill="none" stroke="#63b8ff" d="M209.22,-185.42C220.21,-184.2 231.25,-182.96 241.88,-181.78"/>
<polygon fill="#63b8ff" stroke="#63b8ff" points="242.38,-185.24 251.93,-180.65 241.6,-178.29 242.38,-185.24"/>
</a>
</g>
</g>
<!-- Node2&#45;&gt;Node2 -->
<g id="edge2_Node000002_Node000002" class="edge">
<title>Node2&#45;&gt;Node2</title>
<g id="a_edge2_Node000002_Node000002"><a xlink:title=" ">
<path fill="none" stroke="#63b8ff" d="M286.34,-236.28C278.53,-245.41 290.25,-254 321.5,-254 340.05,-254 351.72,-250.97 356.51,-246.6"/>
<polygon fill="#63b8ff" stroke="#63b8ff" points="360.01,-246.32 356.66,-236.28 353.01,-246.22 360.01,-246.32"/>
</a>
</g>
</g>
<!-- Node4 -->
<g id="Node000004" class="node">
<title>Node4</title>
<g id="a_Node000004"><a xlink:href="../../dc/dc4/classTerraria_1_1UI_1_1UserInterface_a55c8c67209f0a24361ad382cd714f0e0.html#a55c8c67209f0a24361ad382cd714f0e0" target="_top" xlink:title=" ">
<polygon fill="white" stroke="#666666" points="592,-250 453,-250 453,-220 592,-220 592,-250"/>
<text text-anchor="start" x="461" y="-238" font-family="Helvetica,sans-Serif" font-size="10.00">Terraria.UI.UserInterface.</text>
<text text-anchor="middle" x="522.5" y="-227" font-family="Helvetica,sans-Serif" font-size="10.00">AddToHistory</text>
</a>
</g>
</g>
<!-- Node3&#45;&gt;Node4 -->
<g id="edge4_Node000003_Node000004" class="edge">
<title>Node3&#45;&gt;Node4</title>
<g id="a_edge4_Node000003_Node000004"><a xlink:title=" ">
<path fill="none" stroke="#63b8ff" d="M371.39,-188.04C380.28,-190.92 389.44,-193.98 398,-197 414.19,-202.71 417.7,-205.61 434,-211 440.33,-213.09 446.96,-215.15 453.62,-217.13"/>
<polygon fill="#63b8ff" stroke="#63b8ff" points="452.78,-220.53 463.36,-219.96 454.73,-213.8 452.78,-220.53"/>
</a>
</g>
</g>
<!-- Node5 -->
<g id="Node000005" class="node">
<title>Node5</title>
<g id="a_Node000005"><a xlink:href="../../d7/d72/classTerraria_1_1UI_1_1UIElement_a172ab329792a6b10d313e66ccd63f30f.html#a172ab329792a6b10d313e66ccd63f30f" target="_top" xlink:title=" ">
<polygon fill="white" stroke="#666666" points="611,-201.5 434,-201.5 434,-182.5 611,-182.5 611,-201.5"/>
<text text-anchor="middle" x="522.5" y="-189.5" font-family="Helvetica,sans-Serif" font-size="10.00">Terraria.UI.UIElement.Deactivate</text>
</a>
</g>
</g>
<!-- Node3&#45;&gt;Node5 -->
<g id="edge5_Node000003_Node000005" class="edge">
<title>Node3&#45;&gt;Node5</title>
<g id="a_edge5_Node000003_Node000005"><a xlink:title=" ">
<path fill="none" stroke="#63b8ff" d="M391.26,-179.57C401.76,-180.57 412.76,-181.62 423.73,-182.66"/>
<polygon fill="#63b8ff" stroke="#63b8ff" points="423.49,-186.16 433.78,-183.62 424.16,-179.19 423.49,-186.16"/>
</a>
</g>
</g>
<!-- Node7 -->
<g id="Node000007" class="node">
<title>Node7</title>
<g id="a_Node000007"><a xlink:href="../../d7/d72/classTerraria_1_1UI_1_1UIElement_a63d1218ad7ff0138d7884578aa121750.html#a63d1218ad7ff0138d7884578aa121750" target="_top" xlink:title=" ">
<polygon fill="white" stroke="#666666" points="823,-163.5 650,-163.5 650,-144.5 823,-144.5 823,-163.5"/>
<text text-anchor="middle" x="736.5" y="-151.5" font-family="Helvetica,sans-Serif" font-size="10.00">Terraria.UI.UIElement.MouseOut</text>
</a>
</g>
</g>
<!-- Node3&#45;&gt;Node7 -->
<g id="edge7_Node000003_Node000007" class="edge">
<title>Node3&#45;&gt;Node7</title>
<g id="a_edge7_Node000003_Node000007"><a xlink:title=" ">
<path fill="none" stroke="#63b8ff" d="M391.16,-169.84C459.1,-166.72 563.68,-161.9 639.76,-158.4"/>
<polygon fill="#63b8ff" stroke="#63b8ff" points="640,-161.9 649.83,-157.94 639.68,-154.9 640,-161.9"/>
</a>
</g>
</g>
<!-- Node8 -->
<g id="Node000008" class="node">
<title>Node8</title>
<g id="a_Node000008"><a xlink:href="../../dc/dc4/classTerraria_1_1UI_1_1UserInterface_a700e4c651872be926b43d293f89f1a59.html#a700e4c651872be926b43d293f89f1a59" target="_top" xlink:title=" ">
<polygon fill="white" stroke="#666666" points="592,-126 453,-126 453,-96 592,-96 592,-126"/>
<text text-anchor="start" x="461" y="-114" font-family="Helvetica,sans-Serif" font-size="10.00">Terraria.UI.UserInterface.</text>
<text text-anchor="middle" x="522.5" y="-103" font-family="Helvetica,sans-Serif" font-size="10.00">ResetState</text>
</a>
</g>
</g>
<!-- Node3&#45;&gt;Node8 -->
<g id="edge9_Node000003_Node000008" class="edge">
<title>Node3&#45;&gt;Node8</title>
<g id="a_edge9_Node000003_Node000008"><a xlink:title=" ">
<path fill="none" stroke="#63b8ff" d="M370.67,-157.99C398.58,-149.3 433.9,-138.29 463.34,-129.12"/>
<polygon fill="#63b8ff" stroke="#63b8ff" points="464.58,-132.4 473.08,-126.09 462.49,-125.72 464.58,-132.4"/>
</a>
</g>
</g>
<!-- Node6 -->
<g id="Node000006" class="node">
<title>Node6</title>
<g id="a_Node000006"><a xlink:href="../../d7/d72/classTerraria_1_1UI_1_1UIElement_a4e031c26854166a38a711b02f2f12f49.html#a4e031c26854166a38a711b02f2f12f49" target="_top" xlink:title=" ">
<polygon fill="white" stroke="#666666" points="805,-230 668,-230 668,-200 805,-200 805,-230"/>
<text text-anchor="start" x="676" y="-218" font-family="Helvetica,sans-Serif" font-size="10.00">Terraria.UI.UIElement.On</text>
<text text-anchor="middle" x="736.5" y="-207" font-family="Helvetica,sans-Serif" font-size="10.00">Deactivate</text>
</a>
</g>
</g>
<!-- Node5&#45;&gt;Node6 -->
<g id="edge6_Node000005_Node000006" class="edge">
<title>Node5&#45;&gt;Node6</title>
<g id="a_edge6_Node000005_Node000006"><a xlink:title=" ">
<path fill="none" stroke="#63b8ff" d="M611.26,-201.52C626.62,-203.19 642.51,-204.91 657.59,-206.55"/>
<polygon fill="#63b8ff" stroke="#63b8ff" points="657.56,-210.06 667.88,-207.66 658.31,-203.11 657.56,-210.06"/>
</a>
</g>
</g>
<!-- Node7&#45;&gt;Node7 -->
<g id="edge8_Node000007_Node000007" class="edge">
<title>Node7&#45;&gt;Node7</title>
<g id="a_edge8_Node000007_Node000007"><a xlink:title=" ">
<path fill="none" stroke="#63b8ff" d="M706.6,-163.58C692.05,-172.23 702.02,-181.5 736.5,-181.5 760.21,-181.5 772.32,-177.12 772.86,-171.57"/>
<polygon fill="#63b8ff" stroke="#63b8ff" points="775.41,-169.16 766.4,-163.58 769.96,-173.56 775.41,-169.16"/>
</a>
</g>
</g>
<!-- Node8&#45;&gt;Node7 -->
<g id="edge14_Node000008_Node000007" class="edge">
<title>Node8&#45;&gt;Node7</title>
<g id="a_edge14_Node000008_Node000007"><a xlink:title=" ">
<path fill="none" stroke="#63b8ff" d="M592.04,-124.9C620.04,-130.58 652.03,-137.07 678.7,-142.48"/>
<polygon fill="#63b8ff" stroke="#63b8ff" points="678.14,-145.94 688.63,-144.49 679.53,-139.08 678.14,-145.94"/>
</a>
</g>
</g>
<!-- Node9 -->
<g id="Node000009" class="node">
<title>Node9</title>
<g id="a_Node000009"><a xlink:href="../../dc/dc4/classTerraria_1_1UI_1_1UserInterface_acfe538a1d130b3508ff7e95a8678e967.html#acfe538a1d130b3508ff7e95a8678e967" target="_top" xlink:title=" ">
<polygon fill="white" stroke="#666666" points="806,-126 667,-126 667,-96 806,-96 806,-126"/>
<text text-anchor="start" x="675" y="-114" font-family="Helvetica,sans-Serif" font-size="10.00">Terraria.UI.UserInterface.</text>
<text text-anchor="middle" x="736.5" y="-103" font-family="Helvetica,sans-Serif" font-size="10.00">ClearPointers</text>
</a>
</g>
</g>
<!-- Node8&#45;&gt;Node9 -->
<g id="edge10_Node000008_Node000009" class="edge">
<title>Node8&#45;&gt;Node9</title>
<g id="a_edge10_Node000008_Node000009"><a xlink:title=" ">
<path fill="none" stroke="#63b8ff" d="M592.04,-111C612.62,-111 635.37,-111 656.57,-111"/>
<polygon fill="#63b8ff" stroke="#63b8ff" points="656.84,-114.5 666.84,-111 656.84,-107.5 656.84,-114.5"/>
</a>
</g>
</g>
<!-- Node11 -->
<g id="Node000011" class="node">
<title>Node11</title>
<g id="a_Node000011"><a xlink:href="../../dc/dc4/classTerraria_1_1UI_1_1UserInterface_afd497e75a0f15df007150576920ee8d9.html#afd497e75a0f15df007150576920ee8d9" target="_top" xlink:title=" ">
<polygon fill="white" stroke="#666666" points="806,-78 667,-78 667,-48 806,-48 806,-78"/>
<text text-anchor="start" x="675" y="-66" font-family="Helvetica,sans-Serif" font-size="10.00">Terraria.UI.UserInterface.</text>
<text text-anchor="middle" x="736.5" y="-55" font-family="Helvetica,sans-Serif" font-size="10.00">GetMousePosition</text>
</a>
</g>
</g>
<!-- Node8&#45;&gt;Node11 -->
<g id="edge12_Node000008_Node000011" class="edge">
<title>Node8&#45;&gt;Node11</title>
<g id="a_edge12_Node000008_Node000011"><a xlink:title=" ">
<path fill="none" stroke="#63b8ff" d="M590,-95.94C612,-90.96 636.65,-85.38 659.32,-80.25"/>
<polygon fill="#63b8ff" stroke="#63b8ff" points="660.26,-83.62 669.24,-78 658.71,-76.8 660.26,-83.62"/>
</a>
</g>
</g>
<!-- Node12 -->
<g id="Node000012" class="node">
<title>Node12</title>
<g id="a_Node000012"><a xlink:href="../../dc/dc4/classTerraria_1_1UI_1_1UserInterface_ab378b5b38fb675be20df690581fe0d52.html#ab378b5b38fb675be20df690581fe0d52" target="_top" xlink:title=" ">
<polygon fill="white" stroke="#666666" points="826,-30 647,-30 647,0 826,0 826,-30"/>
<text text-anchor="start" x="655" y="-18" font-family="Helvetica,sans-Serif" font-size="10.00">Terraria.UI.UserInterface.</text>
<text text-anchor="middle" x="736.5" y="-7" font-family="Helvetica,sans-Serif" font-size="10.00">ImmediatelyUpdateInputPointers</text>
</a>
</g>
</g>
<!-- Node8&#45;&gt;Node12 -->
<g id="edge13_Node000008_Node000012" class="edge">
<title>Node8&#45;&gt;Node12</title>
<g id="a_edge13_Node000008_Node000012"><a xlink:title=" ">
<path fill="none" stroke="#63b8ff" d="M545.34,-95.87C569.33,-79.84 609.45,-54.71 647,-39 651.96,-36.93 657.14,-34.98 662.42,-33.17"/>
<polygon fill="#63b8ff" stroke="#63b8ff" points="663.55,-36.48 671.96,-30.05 661.37,-29.83 663.55,-36.48"/>
</a>
</g>
</g>
<!-- Node10 -->
<g id="Node000010" class="node">
<title>Node10</title>
<g id="a_Node000010"><a xlink:href="../../dd/d9a/classTerraria_1_1UI_1_1UserInterface_1_1InputPointerCache_a22f4b7b022203e702cd2edd238a20607.html#a22f4b7b022203e702cd2edd238a20607" target="_top" xlink:title=" ">
<polygon fill="white" stroke="#666666" points="1001,-126 862,-126 862,-96 1001,-96 1001,-126"/>
<text text-anchor="start" x="870" y="-114" font-family="Helvetica,sans-Serif" font-size="10.00">Terraria.UI.UserInterface.</text>
<text text-anchor="middle" x="931.5" y="-103" font-family="Helvetica,sans-Serif" font-size="10.00">InputPointerCache.Clear</text>
</a>
</g>
</g>
<!-- Node9&#45;&gt;Node10 -->
<g id="edge11_Node000009_Node000010" class="edge">
<title>Node9&#45;&gt;Node10</title>
<g id="a_edge11_Node000009_Node000010"><a xlink:title=" ">
<path fill="none" stroke="#63b8ff" d="M806.09,-111C820.79,-111 836.44,-111 851.5,-111"/>
<polygon fill="#63b8ff" stroke="#63b8ff" points="851.81,-114.5 861.81,-111 851.81,-107.5 851.81,-114.5"/>
</a>
</g>
</g>
</g>
</svg>

<g id="navigator" transform="translate(0 0)" fill="#404254">
  <rect fill="#f2f5e9" fill-opacity="0.5" stroke="#606060" stroke-width=".5" x="0" y="0" width="60" height="60"/>
  <use id="zoomplus" xlink:href="#zoomPlus" x="17" y="9" onmousedown="handleZoom(evt,'in')"/>
  <use id="zoomminus" xlink:href="#zoomMin" x="42" y="9" onmousedown="handleZoom(evt,'out')"/>
  <use id="reset" xlink:href="#resetDef" x="30" y="36" onmousedown="handleReset()"/>
   <use id="arrowup" xlink:href="#arrowUp" x="0" y="0" onmousedown="handlePan(0,-1)"/>
  <use id="arrowright" xlink:href="#arrowRight" x="0" y="0" onmousedown="handlePan(1,0)"/>
  <use id="arrowdown" xlink:href="#arrowDown" x="0" y="0" onmousedown="handlePan(0,1)"/>
  <use id="arrowleft" xlink:href="#arrowLeft" x="0" y="0" onmousedown="handlePan(-1,0)"/>
</g>
<svg viewBox="0 0 15 15" width="100%" height="30px" preserveAspectRatio="xMaxYMin meet">
 <g id="arrow_out" transform="scale(0.3 0.3)">
  <a xlink:href="classTerraria_1_1GameContent_1_1UI_1_1States_1_1UIWorkshopSelectResourcePackToPublish_aa4cbcecb12920ba943f42183624bd89c_aa4cbcecb12920ba943f42183624bd89c_cgraph_org.svg" target="_base">
   <rect id="button" ry="5" rx="5" y="6" x="6" height="38" width="38"
        fill="#f2f5e9" fill-opacity="0.5" stroke="#606060" stroke-width="1.0"/>
   <path id="arrow"
     d="M 11.500037,31.436501 C 11.940474,20.09759 22.043105,11.32322 32.158766,21.979434 L 37.068811,17.246167 C 37.068811,17.246167 37.088388,32 37.088388,32 L 22.160133,31.978069 C 22.160133,31.978069 26.997745,27.140456 26.997745,27.140456 C 18.528582,18.264221 13.291696,25.230495 11.500037,31.436501 z"
     style="fill:#404040;"/>
  </a>
 </g>
</svg>

<style type='text/css'>
<![CDATA[
[data-mouse-over-selected='false'] { opacity: 0.7; }
[data-mouse-over-selected='true']  { opacity: 1.0; }
]]>
</style>
<script type="application/ecmascript"><![CDATA[
document.addEventListener('DOMContentLoaded', (event) => {
  highlightEdges();
  highlightAdjacentNodes();
});
]]></script>
</svg>
