<?xml version="1.0" encoding="UTF-8" standalone="no"?>
<!DOCTYPE svg PUBLIC "-//W3C//DTD SVG 1.1//EN"
 "http://www.w3.org/Graphics/SVG/1.1/DTD/svg11.dtd">
<!-- Generated by graphviz version 2.43.0 (0)
 -->
<!-- Title: Terraria.GameContent.UI.States.UIWorkshopSelectResourcePackToPublish.Draw Pages: 1 -->
<svg width="1028pt" height="206pt"
 viewBox="0.00 0.00 1028.00 206.00" xmlns="http://www.w3.org/2000/svg" xmlns:xlink="http://www.w3.org/1999/xlink">
<g id="graph0" class="graph" transform="scale(1 1) rotate(0) translate(4 202)">
<title>Terraria.GameContent.UI.States.UIWorkshopSelectResourcePackToPublish.Draw</title>
<!-- Node1 -->
<g id="Node000001" class="node">
<title>Node1</title>
<g id="a_Node000001"><a xlink:title=" ">
<polygon fill="#999999" stroke="#666666" points="184,-107.5 0,-107.5 0,-66.5 184,-66.5 184,-107.5"/>
<text text-anchor="start" x="8" y="-95.5" font-family="Helvetica,sans-Serif" font-size="10.00">Terraria.GameContent.UI.</text>
<text text-anchor="start" x="8" y="-84.5" font-family="Helvetica,sans-Serif" font-size="10.00">States.UIWorkshopSelectResource</text>
<text text-anchor="middle" x="92" y="-73.5" font-family="Helvetica,sans-Serif" font-size="10.00">PackToPublish.Draw</text>
</a>
</g>
</g>
<!-- Node2 -->
<g id="Node000002" class="node">
<title>Node2</title>
<g id="a_Node000002"><a xlink:href="../../d8/df1/classTerraria_1_1GameContent_1_1UI_1_1States_1_1UIWorkshopSelectResourcePackToPublish_a86c07ff2de1bfb1c478345de53d22528.html#a86c07ff2de1bfb1c478345de53d22528" target="_top" xlink:title=" ">
<polygon fill="white" stroke="#666666" points="413,-107.5 220,-107.5 220,-66.5 413,-66.5 413,-107.5"/>
<text text-anchor="start" x="228" y="-95.5" font-family="Helvetica,sans-Serif" font-size="10.00">Terraria.GameContent.UI.</text>
<text text-anchor="start" x="228" y="-84.5" font-family="Helvetica,sans-Serif" font-size="10.00">States.UIWorkshopSelectResource</text>
<text text-anchor="middle" x="316.5" y="-73.5" font-family="Helvetica,sans-Serif" font-size="10.00">PackToPublish.SetupGamepadPoints</text>
</a>
</g>
</g>
<!-- Node1&#45;&gt;Node2 -->
<g id="edge1_Node000001_Node000002" class="edge">
<title>Node1&#45;&gt;Node2</title>
<g id="a_edge1_Node000001_Node000002"><a xlink:title=" ">
<path fill="none" stroke="#63b8ff" d="M184.14,-87C192.59,-87 201.21,-87 209.78,-87"/>
<polygon fill="#63b8ff" stroke="#63b8ff" points="209.81,-90.5 219.81,-87 209.81,-83.5 209.81,-90.5"/>
</a>
</g>
</g>
<!-- Node3 -->
<g id="Node000003" class="node">
<title>Node3</title>
<g id="a_Node000003"><a xlink:href="../../d4/dc5/classTerraria_1_1UI_1_1Gamepad_1_1UILinkPointNavigator_a777aac1c14d559cf80455e2e5e7322b4.html#a777aac1c14d559cf80455e2e5e7322b4" target="_top" xlink:title=" ">
<polygon fill="white" stroke="#666666" points="602,-174 449,-174 449,-144 602,-144 602,-174"/>
<text text-anchor="start" x="457" y="-162" font-family="Helvetica,sans-Serif" font-size="10.00">Terraria.UI.Gamepad.UILink</text>
<text text-anchor="middle" x="525.5" y="-151" font-family="Helvetica,sans-Serif" font-size="10.00">PointNavigator.ChangePoint</text>
</a>
</g>
</g>
<!-- Node2&#45;&gt;Node3 -->
<g id="edge2_Node000002_Node000003" class="edge">
<title>Node2&#45;&gt;Node3</title>
<g id="a_edge2_Node000002_Node000003"><a xlink:title=" ">
<path fill="none" stroke="#63b8ff" d="M372.34,-107.6C395.86,-116.29 423.7,-126.37 449,-135 454.59,-136.91 460.42,-138.85 466.27,-140.76"/>
<polygon fill="#63b8ff" stroke="#63b8ff" points="465.48,-144.18 476.07,-143.94 467.64,-137.52 465.48,-144.18"/>
</a>
</g>
</g>
<!-- Node7 -->
<g id="Node000007" class="node">
<title>Node7</title>
<g id="a_Node000007"><a xlink:href="../../d7/d72/classTerraria_1_1UI_1_1UIElement_afb84cbf07b70e4953ade34b6d01c4738.html#afb84cbf07b70e4953ade34b6d01c4738" target="_top" xlink:title=" ">
<polygon fill="white" stroke="#666666" points="596,-126 455,-126 455,-96 596,-96 596,-126"/>
<text text-anchor="start" x="463" y="-114" font-family="Helvetica,sans-Serif" font-size="10.00">Terraria.UI.UIElement.Get</text>
<text text-anchor="middle" x="525.5" y="-103" font-family="Helvetica,sans-Serif" font-size="10.00">ClippingRectangle</text>
</a>
</g>
</g>
<!-- Node2&#45;&gt;Node7 -->
<g id="edge7_Node000002_Node000007" class="edge">
<title>Node2&#45;&gt;Node7</title>
<g id="a_edge7_Node000002_Node000007"><a xlink:title=" ">
<path fill="none" stroke="#63b8ff" d="M413.12,-98.09C423.69,-99.31 434.37,-100.55 444.71,-101.75"/>
<polygon fill="#63b8ff" stroke="#63b8ff" points="444.59,-105.26 454.93,-102.93 445.39,-98.3 444.59,-105.26"/>
</a>
</g>
</g>
<!-- Node8 -->
<g id="Node000008" class="node">
<title>Node8</title>
<g id="a_Node000008"><a xlink:href="../../d7/d72/classTerraria_1_1UI_1_1UIElement_aed036064fe14a49d7f2fe9da836eef78.html#aed036064fe14a49d7f2fe9da836eef78" target="_top" xlink:title=" ">
<polygon fill="white" stroke="#666666" points="596,-78 455,-78 455,-48 596,-48 596,-78"/>
<text text-anchor="start" x="463" y="-66" font-family="Helvetica,sans-Serif" font-size="10.00">Terraria.UI.UIElement.Get</text>
<text text-anchor="middle" x="525.5" y="-55" font-family="Helvetica,sans-Serif" font-size="10.00">SnapPoints</text>
</a>
</g>
</g>
<!-- Node2&#45;&gt;Node8 -->
<g id="edge8_Node000002_Node000008" class="edge">
<title>Node2&#45;&gt;Node8</title>
<g id="a_edge8_Node000002_Node000008"><a xlink:title=" ">
<path fill="none" stroke="#63b8ff" d="M413.12,-75.91C423.69,-74.69 434.37,-73.45 444.71,-72.25"/>
<polygon fill="#63b8ff" stroke="#63b8ff" points="445.39,-75.7 454.93,-71.07 444.59,-68.74 445.39,-75.7"/>
</a>
</g>
</g>
<!-- Node11 -->
<g id="Node000011" class="node">
<title>Node11</title>
<g id="a_Node000011"><a xlink:href="../../d4/dc5/classTerraria_1_1UI_1_1Gamepad_1_1UILinkPointNavigator_ac28776d33a359203c79dd1d72f217981.html#ac28776d33a359203c79dd1d72f217981" target="_top" xlink:title=" ">
<polygon fill="white" stroke="#666666" points="601,-30 450,-30 450,0 601,0 601,-30"/>
<text text-anchor="start" x="458" y="-18" font-family="Helvetica,sans-Serif" font-size="10.00">Terraria.UI.Gamepad.UILink</text>
<text text-anchor="middle" x="525.5" y="-7" font-family="Helvetica,sans-Serif" font-size="10.00">PointNavigator.SetPosition</text>
</a>
</g>
</g>
<!-- Node2&#45;&gt;Node11 -->
<g id="edge11_Node000002_Node000011" class="edge">
<title>Node2&#45;&gt;Node11</title>
<g id="a_edge11_Node000002_Node000011"><a xlink:title=" ">
<path fill="none" stroke="#63b8ff" d="M372.34,-66.4C395.86,-57.71 423.7,-47.63 449,-39 454.59,-37.09 460.42,-35.15 466.27,-33.24"/>
<polygon fill="#63b8ff" stroke="#63b8ff" points="467.64,-36.48 476.07,-30.06 465.48,-29.82 467.64,-36.48"/>
</a>
</g>
</g>
<!-- Node4 -->
<g id="Node000004" class="node">
<title>Node4</title>
<g id="a_Node000004"><a xlink:href="../../d4/dc5/classTerraria_1_1UI_1_1Gamepad_1_1UILinkPointNavigator_af5f96f175199246e97dad3c0537fe93d.html#af5f96f175199246e97dad3c0537fe93d" target="_top" xlink:title=" ">
<polygon fill="white" stroke="#666666" points="809,-174 638,-174 638,-144 809,-144 809,-174"/>
<text text-anchor="start" x="646" y="-162" font-family="Helvetica,sans-Serif" font-size="10.00">Terraria.UI.Gamepad.UILink</text>
<text text-anchor="middle" x="723.5" y="-151" font-family="Helvetica,sans-Serif" font-size="10.00">PointNavigator.ProcessChanges</text>
</a>
</g>
</g>
<!-- Node3&#45;&gt;Node4 -->
<g id="edge3_Node000003_Node000004" class="edge">
<title>Node3&#45;&gt;Node4</title>
<g id="a_edge3_Node000003_Node000004"><a xlink:title=" ">
<path fill="none" stroke="#63b8ff" d="M602.28,-159C610.64,-159 619.23,-159 627.79,-159"/>
<polygon fill="#63b8ff" stroke="#63b8ff" points="627.8,-162.5 637.8,-159 627.8,-155.5 627.8,-162.5"/>
</a>
</g>
</g>
<!-- Node4&#45;&gt;Node4 -->
<g id="edge6_Node000004_Node000004" class="edge">
<title>Node4&#45;&gt;Node4</title>
<g id="a_edge6_Node000004_Node000004"><a xlink:title=" ">
<path fill="none" stroke="#63b8ff" d="M688.7,-174.28C680.96,-183.41 692.56,-192 723.5,-192 741.87,-192 753.42,-188.97 758.16,-184.6"/>
<polygon fill="#63b8ff" stroke="#63b8ff" points="761.66,-184.32 758.3,-174.28 754.66,-184.22 761.66,-184.32"/>
</a>
</g>
</g>
<!-- Node5 -->
<g id="Node000005" class="node">
<title>Node5</title>
<g id="a_Node000005"><a xlink:href="../../d4/dc5/classTerraria_1_1UI_1_1Gamepad_1_1UILinkPointNavigator_a0cda74434ec0c5433d97c8590e7b6868.html#a0cda74434ec0c5433d97c8590e7b6868" target="_top" xlink:title=" ">
<polygon fill="white" stroke="#666666" points="1020,-198 845,-198 845,-168 1020,-168 1020,-198"/>
<text text-anchor="start" x="853" y="-186" font-family="Helvetica,sans-Serif" font-size="10.00">Terraria.UI.Gamepad.UILink</text>
<text text-anchor="middle" x="932.5" y="-175" font-family="Helvetica,sans-Serif" font-size="10.00">PointNavigator.GoToDefaultPage</text>
</a>
</g>
</g>
<!-- Node4&#45;&gt;Node5 -->
<g id="edge4_Node000004_Node000005" class="edge">
<title>Node4&#45;&gt;Node5</title>
<g id="a_edge4_Node000004_Node000005"><a xlink:title=" ">
<path fill="none" stroke="#63b8ff" d="M809.29,-168.83C817.72,-169.81 826.32,-170.8 834.85,-171.79"/>
<polygon fill="#63b8ff" stroke="#63b8ff" points="834.49,-175.28 844.83,-172.95 835.3,-168.32 834.49,-175.28"/>
</a>
</g>
</g>
<!-- Node6 -->
<g id="Node000006" class="node">
<title>Node6</title>
<g id="a_Node000006"><a xlink:href="../../d0/d91/classTerraria_1_1UI_1_1Gamepad_1_1UILinkPage_a00e5839c8d7499b2169a7c9a0899ab05.html#a00e5839c8d7499b2169a7c9a0899ab05" target="_top" xlink:title=" ">
<polygon fill="white" stroke="#666666" points="1008,-150 857,-150 857,-120 1008,-120 1008,-150"/>
<text text-anchor="start" x="865" y="-138" font-family="Helvetica,sans-Serif" font-size="10.00">Terraria.UI.Gamepad.UILink</text>
<text text-anchor="middle" x="932.5" y="-127" font-family="Helvetica,sans-Serif" font-size="10.00">Page.Leave</text>
</a>
</g>
</g>
<!-- Node4&#45;&gt;Node6 -->
<g id="edge5_Node000004_Node000006" class="edge">
<title>Node4&#45;&gt;Node6</title>
<g id="a_edge5_Node000004_Node000006"><a xlink:title=" ">
<path fill="none" stroke="#63b8ff" d="M809.29,-149.17C821.59,-147.74 834.26,-146.27 846.56,-144.85"/>
<polygon fill="#63b8ff" stroke="#63b8ff" points="847.26,-148.29 856.79,-143.66 846.45,-141.34 847.26,-148.29"/>
</a>
</g>
</g>
<!-- Node9 -->
<g id="Node000009" class="node">
<title>Node9</title>
<g id="a_Node000009"><a xlink:href="../../d7/d72/classTerraria_1_1UI_1_1UIElement_a9109cc8df866b3b0e14bb7dda7dd9e15.html#a9109cc8df866b3b0e14bb7dda7dd9e15" target="_top" xlink:title=" ">
<polygon fill="white" stroke="#666666" points="794,-78 653,-78 653,-48 794,-48 794,-78"/>
<text text-anchor="start" x="661" y="-66" font-family="Helvetica,sans-Serif" font-size="10.00">Terraria.UI.UIElement.Get</text>
<text text-anchor="middle" x="723.5" y="-55" font-family="Helvetica,sans-Serif" font-size="10.00">SnapPoint</text>
</a>
</g>
</g>
<!-- Node8&#45;&gt;Node9 -->
<g id="edge9_Node000008_Node000009" class="edge">
<title>Node8&#45;&gt;Node9</title>
<g id="a_edge9_Node000008_Node000009"><a xlink:title=" ">
<path fill="none" stroke="#63b8ff" d="M596.15,-63C611.23,-63 627.28,-63 642.71,-63"/>
<polygon fill="#63b8ff" stroke="#63b8ff" points="642.74,-66.5 652.74,-63 642.74,-59.5 642.74,-66.5"/>
</a>
</g>
</g>
<!-- Node10 -->
<g id="Node000010" class="node">
<title>Node10</title>
<g id="a_Node000010"><a xlink:href="../../da/d90/classTerraria_1_1UI_1_1SnapPoint_a1ee689cd010e6ada067cb86366b22ebb.html#a1ee689cd010e6ada067cb86366b22ebb" target="_top" xlink:title=" ">
<polygon fill="white" stroke="#666666" points="1016,-72.5 849,-72.5 849,-53.5 1016,-53.5 1016,-72.5"/>
<text text-anchor="middle" x="932.5" y="-60.5" font-family="Helvetica,sans-Serif" font-size="10.00">Terraria.UI.SnapPoint.Calculate</text>
</a>
</g>
</g>
<!-- Node9&#45;&gt;Node10 -->
<g id="edge10_Node000009_Node000010" class="edge">
<title>Node9&#45;&gt;Node10</title>
<g id="a_edge10_Node000009_Node000010"><a xlink:title=" ">
<path fill="none" stroke="#63b8ff" d="M794,-63C808.32,-63 823.61,-63 838.6,-63"/>
<polygon fill="#63b8ff" stroke="#63b8ff" points="838.91,-66.5 848.91,-63 838.91,-59.5 838.91,-66.5"/>
</a>
</g>
</g>
</g>
</svg>
