<?xml version="1.0" encoding="UTF-8" standalone="no"?>
<!DOCTYPE svg PUBLIC "-//W3C//DTD SVG 1.1//EN"
 "http://www.w3.org/Graphics/SVG/1.1/DTD/svg11.dtd">
<!-- Generated by graphviz version 2.43.0 (0)
 -->
<!-- Title: Terraria.ModLoader.Config.ConfigManager.ObjectEquals Pages: 1 -->
<!--zoomable 146 -->

<svg id="main" version="1.1" xmlns="http://www.w3.org/2000/svg" xmlns:xlink="http://www.w3.org/1999/xlink" xml:space="preserve" onload="init(evt)">
<style type="text/css"><![CDATA[
.node, .edge {opacity: 0.7;}
.node.selected, .edge.selected {opacity: 1;}
.edge:hover path { stroke: red; }
.edge:hover polygon { stroke: red; fill: red; }
]]></style>

<defs>
  <circle id="rim" cx="0" cy="0" r="7"/>
  <circle id="rim2" cx="0" cy="0" r="3.5"/>
  <g id="zoomPlus">
    <use xlink:href="#rim" fill="#404040"><set attributeName="fill" to="#808080" begin="zoomplus.mouseover" end="zoomplus.mouseout"/></use>
    <path d="M-4,0h8M0,-4v8" fill="none" stroke="white" stroke-width="1.5" pointer-events="none"/>
  </g>
  <g id="zoomMin">
    <use xlink:href="#rim" fill="#404040"><set attributeName="fill" to="#808080" begin="zoomminus.mouseover" end="zoomminus.mouseout"/></use>
    <path d="M-4,0h8" fill="none" stroke="white" stroke-width="1.5" pointer-events="none"/>
  </g>
  <g id="arrowUp" transform="translate(30 24)">
    <use xlink:href="#rim"/>
    <path pointer-events="none" fill="none" stroke="white" stroke-width="1.5" d="M0,-3.0v7 M-2.5,-0.5L0,-3.0L2.5,-0.5"/>
  </g>
  <g id="arrowRight" transform="rotate(90) translate(36 -43)">
    <use xlink:href="#rim"/>
    <path pointer-events="none" fill="none" stroke="white" stroke-width="1.5" d="M0,-3.0v7 M-2.5,-0.5L0,-3.0L2.5,-0.5"/>
  </g>
  <g id="arrowDown" transform="rotate(180) translate(-30 -48)">
    <use xlink:href="#rim"/>
    <path pointer-events="none" fill="none" stroke="white" stroke-width="1.5" d="M0,-3.0v7 M-2.5,-0.5L0,-3.0L2.5,-0.5"/>
  </g>
  <g id="arrowLeft" transform="rotate(270) translate(-36 17)">
    <use xlink:href="#rim"/>
    <path pointer-events="none" fill="none" stroke="white" stroke-width="1.5" d="M0,-3.0v7 M-2.5,-0.5L0,-3.0L2.5,-0.5"/>
  </g>
  <g id="resetDef">
    <use xlink:href="#rim2" fill="#404040"><set attributeName="fill" to="#808080" begin="reset.mouseover" end="reset.mouseout"/></use>
  </g>
</defs>
<script type="application/ecmascript">
var viewWidth = 777;
var viewHeight = 146;
var sectionId = 'dynsection-1';
</script>
<script type="application/ecmascript" xlink:href="../../svg.min.js"/>
<svg id="graph" class="graph">
<g id="viewport">
<title>Terraria.ModLoader.Config.ConfigManager.ObjectEquals</title>
<!-- Node1 -->
<g id="Node000001" class="node">
<title>Node1</title>
<g id="a_Node000001"><a xlink:title=" ">
<polygon fill="#999999" stroke="#666666" points="769,-78 613,-78 613,-48 769,-48 769,-78"/>
<text text-anchor="start" x="621" y="-66" font-family="Helvetica,sans-Serif" font-size="10.00">Terraria.ModLoader.Config.</text>
<text text-anchor="middle" x="691" y="-55" font-family="Helvetica,sans-Serif" font-size="10.00">ConfigManager.ObjectEquals</text>
</a>
</g>
</g>
<!-- Node2 -->
<g id="Node000002" class="node">
<title>Node2</title>
<g id="a_Node000002"><a xlink:href="../../d2/d93/classTerraria_1_1ModLoader_1_1Config_1_1ReferenceDefaultsPreservingResolver_a65b84a0d7e0732f00f2f472c88c9593b.html#a65b84a0d7e0732f00f2f472c88c9593b" target="_top" xlink:title=" ">
<polygon fill="white" stroke="#666666" points="577,-137.5 373,-137.5 373,-96.5 577,-96.5 577,-137.5"/>
<text text-anchor="start" x="381" y="-125.5" font-family="Helvetica,sans-Serif" font-size="10.00">Terraria.ModLoader.Config.</text>
<text text-anchor="start" x="381" y="-114.5" font-family="Helvetica,sans-Serif" font-size="10.00">ReferenceDefaultsPreservingResolver.</text>
<text text-anchor="middle" x="475" y="-103.5" font-family="Helvetica,sans-Serif" font-size="10.00">CreateProperties</text>
</a>
</g>
</g>
<!-- Node1&#45;&gt;Node2 -->
<g id="edge1_Node000001_Node000002" class="edge">
<title>Node1&#45;&gt;Node2</title>
<g id="a_edge1_Node000001_Node000002"><a xlink:title=" ">
<path fill="none" stroke="#63b8ff" d="M620.65,-80.5C600.43,-85.6 578.16,-91.22 557.28,-96.49"/>
<polygon fill="#63b8ff" stroke="#63b8ff" points="621.55,-83.88 630.39,-78.04 619.84,-77.1 621.55,-83.88"/>
</a>
</g>
</g>
<!-- Node3 -->
<g id="Node000003" class="node">
<title>Node3</title>
<g id="a_Node000003"><a xlink:href="../../d5/d69/classTerraria_1_1ModLoader_1_1Config_1_1ConfigManager_aa31cef08fb4a15991c00b9f9a5ccaa2c.html#aa31cef08fb4a15991c00b9f9a5ccaa2c" target="_top" xlink:title=" ">
<polygon fill="white" stroke="#666666" points="566.5,-78 383.5,-78 383.5,-48 566.5,-48 566.5,-78"/>
<text text-anchor="start" x="391.5" y="-66" font-family="Helvetica,sans-Serif" font-size="10.00">Terraria.ModLoader.Config.</text>
<text text-anchor="middle" x="475" y="-55" font-family="Helvetica,sans-Serif" font-size="10.00">ConfigManager.EnumerableEquals</text>
</a>
</g>
</g>
<!-- Node1&#45;&gt;Node3 -->
<g id="edge2_Node000001_Node000003" class="edge">
<title>Node1&#45;&gt;Node3</title>
<g id="a_edge2_Node000001_Node000003"><a xlink:title=" ">
<path fill="none" stroke="#63b8ff" d="M602.45,-56.35C590.64,-56.23 578.49,-56.22 566.62,-56.32"/>
<polygon fill="#63b8ff" stroke="#63b8ff" points="602.7,-59.85 612.74,-56.49 602.79,-52.85 602.7,-59.85"/>
</a>
</g>
</g>
<!-- Node4 -->
<g id="Node000004" class="node">
<title>Node4</title>
<g id="a_Node000004"><a xlink:href="../../d6/d18/classTerraria_1_1ModLoader_1_1Config_1_1ModConfig_ab905bc1e570eded8e8c4daa4fb50d53e.html#ab905bc1e570eded8e8c4daa4fb50d53e" target="_top" xlink:title="Whether or not a reload is required. The default implementation compares properties and fields annota...">
<polygon fill="white" stroke="#666666" points="548,-30 402,-30 402,0 548,0 548,-30"/>
<text text-anchor="start" x="410" y="-18" font-family="Helvetica,sans-Serif" font-size="10.00">Terraria.ModLoader.Config.</text>
<text text-anchor="middle" x="475" y="-7" font-family="Helvetica,sans-Serif" font-size="10.00">ModConfig.NeedsReload</text>
</a>
</g>
</g>
<!-- Node1&#45;&gt;Node4 -->
<g id="edge4_Node000001_Node000004" class="edge">
<title>Node1&#45;&gt;Node4</title>
<g id="a_edge4_Node000001_Node000004"><a xlink:title=" ">
<path fill="none" stroke="#63b8ff" d="M612.86,-45.7C589.96,-40.56 565.08,-34.98 542.89,-30"/>
<polygon fill="#63b8ff" stroke="#63b8ff" points="612.35,-49.17 622.88,-47.94 613.88,-42.34 612.35,-49.17"/>
</a>
</g>
</g>
<!-- Node3&#45;&gt;Node1 -->
<g id="edge3_Node000003_Node000001" class="edge">
<title>Node3&#45;&gt;Node1</title>
<g id="a_edge3_Node000003_Node000001"><a xlink:title=" ">
<path fill="none" stroke="#63b8ff" d="M576.74,-69.74C588.84,-69.78 601.05,-69.7 612.74,-69.51"/>
<polygon fill="#63b8ff" stroke="#63b8ff" points="576.64,-66.24 566.62,-69.68 576.6,-73.24 576.64,-66.24"/>
</a>
</g>
</g>
<!-- Node5 -->
<g id="Node000005" class="node">
<title>Node5</title>
<g id="a_Node000005"><a xlink:href="../../d6/d3f/classTerraria_1_1ModLoader_1_1Config_1_1UI_1_1UIModConfig_a2c6d1215e1faaf099bc69233b099739a.html#a2c6d1215e1faaf099bc69233b099739a" target="_top" xlink:title=" ">
<polygon fill="white" stroke="#666666" points="337,-30 187,-30 187,0 337,0 337,-30"/>
<text text-anchor="start" x="195" y="-18" font-family="Helvetica,sans-Serif" font-size="10.00">Terraria.ModLoader.Config.</text>
<text text-anchor="middle" x="262" y="-7" font-family="Helvetica,sans-Serif" font-size="10.00">UI.UIModConfig.SaveConfig</text>
</a>
</g>
</g>
<!-- Node4&#45;&gt;Node5 -->
<g id="edge5_Node000004_Node000005" class="edge">
<title>Node4&#45;&gt;Node5</title>
<g id="a_edge5_Node000004_Node000005"><a xlink:title=" ">
<path fill="none" stroke="#63b8ff" d="M391.8,-15C373.81,-15 354.87,-15 337.21,-15"/>
<polygon fill="#63b8ff" stroke="#63b8ff" points="391.98,-18.5 401.98,-15 391.98,-11.5 391.98,-18.5"/>
</a>
</g>
</g>
<!-- Node6 -->
<g id="Node000006" class="node">
<title>Node6</title>
<g id="a_Node000006"><a xlink:href="../../d6/d3f/classTerraria_1_1ModLoader_1_1Config_1_1UI_1_1UIModConfig_a1c191167e187d2cb7b8bd388aa379b74.html#a1c191167e187d2cb7b8bd388aa379b74" target="_top" xlink:title=" ">
<polygon fill="white" stroke="#666666" points="151,-30 0,-30 0,0 151,0 151,-30"/>
<text text-anchor="start" x="8" y="-18" font-family="Helvetica,sans-Serif" font-size="10.00">Terraria.ModLoader.Config.</text>
<text text-anchor="middle" x="75.5" y="-7" font-family="Helvetica,sans-Serif" font-size="10.00">UI.UIModConfig.OnInitialize</text>
</a>
</g>
</g>
<!-- Node5&#45;&gt;Node6 -->
<g id="edge6_Node000005_Node000006" class="edge">
<title>Node5&#45;&gt;Node6</title>
<g id="a_edge6_Node000005_Node000006"><a xlink:title=" ">
<path fill="none" stroke="#63b8ff" d="M176.51,-15C168.07,-15 159.53,-15 151.19,-15"/>
<polygon fill="#63b8ff" stroke="#63b8ff" points="176.75,-18.5 186.75,-15 176.75,-11.5 176.75,-18.5"/>
</a>
</g>
</g>
</g>
</svg>

<g id="navigator" transform="translate(0 0)" fill="#404254">
  <rect fill="#f2f5e9" fill-opacity="0.5" stroke="#606060" stroke-width=".5" x="0" y="0" width="60" height="60"/>
  <use id="zoomplus" xlink:href="#zoomPlus" x="17" y="9" onmousedown="handleZoom(evt,'in')"/>
  <use id="zoomminus" xlink:href="#zoomMin" x="42" y="9" onmousedown="handleZoom(evt,'out')"/>
  <use id="reset" xlink:href="#resetDef" x="30" y="36" onmousedown="handleReset()"/>
   <use id="arrowup" xlink:href="#arrowUp" x="0" y="0" onmousedown="handlePan(0,-1)"/>
  <use id="arrowright" xlink:href="#arrowRight" x="0" y="0" onmousedown="handlePan(1,0)"/>
  <use id="arrowdown" xlink:href="#arrowDown" x="0" y="0" onmousedown="handlePan(0,1)"/>
  <use id="arrowleft" xlink:href="#arrowLeft" x="0" y="0" onmousedown="handlePan(-1,0)"/>
</g>
<svg viewBox="0 0 15 15" width="100%" height="30px" preserveAspectRatio="xMaxYMin meet">
 <g id="arrow_out" transform="scale(0.3 0.3)">
  <a xlink:href="classTerraria_1_1ModLoader_1_1Config_1_1ConfigManager_ab5489bdacf1d43f387ed759497a251f4_ab5489bdacf1d43f387ed759497a251f4_icgraph_org.svg" target="_base">
   <rect id="button" ry="5" rx="5" y="6" x="6" height="38" width="38"
        fill="#f2f5e9" fill-opacity="0.5" stroke="#606060" stroke-width="1.0"/>
   <path id="arrow"
     d="M 11.500037,31.436501 C 11.940474,20.09759 22.043105,11.32322 32.158766,21.979434 L 37.068811,17.246167 C 37.068811,17.246167 37.088388,32 37.088388,32 L 22.160133,31.978069 C 22.160133,31.978069 26.997745,27.140456 26.997745,27.140456 C 18.528582,18.264221 13.291696,25.230495 11.500037,31.436501 z"
     style="fill:#404040;"/>
  </a>
 </g>
</svg>

<style type='text/css'>
<![CDATA[
[data-mouse-over-selected='false'] { opacity: 0.7; }
[data-mouse-over-selected='true']  { opacity: 1.0; }
]]>
</style>
<script type="application/ecmascript"><![CDATA[
document.addEventListener('DOMContentLoaded', (event) => {
  highlightEdges();
  highlightAdjacentNodes();
});
]]></script>
</svg>
