<?xml version="1.0" encoding="UTF-8" standalone="no"?>
<!DOCTYPE svg PUBLIC "-//W3C//DTD SVG 1.1//EN"
 "http://www.w3.org/Graphics/SVG/1.1/DTD/svg11.dtd">
<!-- Generated by graphviz version 2.43.0 (0)
 -->
<!-- Title: Terraria.ModLoader.Config.ConfigManager.FinishSetup Pages: 1 -->
<!--zoomable 393 -->

<svg id="main" version="1.1" xmlns="http://www.w3.org/2000/svg" xmlns:xlink="http://www.w3.org/1999/xlink" xml:space="preserve" onload="init(evt)">
<style type="text/css"><![CDATA[
.node, .edge {opacity: 0.7;}
.node.selected, .edge.selected {opacity: 1;}
.edge:hover path { stroke: red; }
.edge:hover polygon { stroke: red; fill: red; }
]]></style>

<defs>
  <circle id="rim" cx="0" cy="0" r="7"/>
  <circle id="rim2" cx="0" cy="0" r="3.5"/>
  <g id="zoomPlus">
    <use xlink:href="#rim" fill="#404040"><set attributeName="fill" to="#808080" begin="zoomplus.mouseover" end="zoomplus.mouseout"/></use>
    <path d="M-4,0h8M0,-4v8" fill="none" stroke="white" stroke-width="1.5" pointer-events="none"/>
  </g>
  <g id="zoomMin">
    <use xlink:href="#rim" fill="#404040"><set attributeName="fill" to="#808080" begin="zoomminus.mouseover" end="zoomminus.mouseout"/></use>
    <path d="M-4,0h8" fill="none" stroke="white" stroke-width="1.5" pointer-events="none"/>
  </g>
  <g id="arrowUp" transform="translate(30 24)">
    <use xlink:href="#rim"/>
    <path pointer-events="none" fill="none" stroke="white" stroke-width="1.5" d="M0,-3.0v7 M-2.5,-0.5L0,-3.0L2.5,-0.5"/>
  </g>
  <g id="arrowRight" transform="rotate(90) translate(36 -43)">
    <use xlink:href="#rim"/>
    <path pointer-events="none" fill="none" stroke="white" stroke-width="1.5" d="M0,-3.0v7 M-2.5,-0.5L0,-3.0L2.5,-0.5"/>
  </g>
  <g id="arrowDown" transform="rotate(180) translate(-30 -48)">
    <use xlink:href="#rim"/>
    <path pointer-events="none" fill="none" stroke="white" stroke-width="1.5" d="M0,-3.0v7 M-2.5,-0.5L0,-3.0L2.5,-0.5"/>
  </g>
  <g id="arrowLeft" transform="rotate(270) translate(-36 17)">
    <use xlink:href="#rim"/>
    <path pointer-events="none" fill="none" stroke="white" stroke-width="1.5" d="M0,-3.0v7 M-2.5,-0.5L0,-3.0L2.5,-0.5"/>
  </g>
  <g id="resetDef">
    <use xlink:href="#rim2" fill="#404040"><set attributeName="fill" to="#808080" begin="reset.mouseover" end="reset.mouseout"/></use>
  </g>
</defs>
<script type="application/ecmascript">
var viewWidth = 1334;
var viewHeight = 393;
var sectionId = 'dynsection-0';
</script>
<script type="application/ecmascript" xlink:href="../../svg.min.js"/>
<svg id="graph" class="graph">
<g id="viewport">
<title>Terraria.ModLoader.Config.ConfigManager.FinishSetup</title>
<!-- Node1 -->
<g id="Node000001" class="node">
<title>Node1</title>
<g id="a_Node000001"><a xlink:title=" ">
<polygon fill="#999999" stroke="#666666" points="149,-180.26 0,-180.26 0,-150.26 149,-150.26 149,-180.26"/>
<text text-anchor="start" x="8" y="-168.26" font-family="Helvetica,sans-Serif" font-size="10.00">Terraria.ModLoader.Config.</text>
<text text-anchor="middle" x="74.5" y="-157.26" font-family="Helvetica,sans-Serif" font-size="10.00">ConfigManager.FinishSetup</text>
</a>
</g>
</g>
<!-- Node2 -->
<g id="Node000002" class="node">
<title>Node2</title>
<g id="a_Node000002"><a xlink:href="../../d5/d69/classTerraria_1_1ModLoader_1_1Config_1_1ConfigManager_a16b94476dd0cc299fc3c325a0aea5ebc.html#a16b94476dd0cc299fc3c325a0aea5ebc" target="_top" xlink:title=" ">
<polygon fill="white" stroke="#666666" points="376,-185.76 185,-185.76 185,-144.76 376,-144.76 376,-185.76"/>
<text text-anchor="start" x="193" y="-173.76" font-family="Helvetica,sans-Serif" font-size="10.00">Terraria.ModLoader.Config.</text>
<text text-anchor="start" x="193" y="-162.76" font-family="Helvetica,sans-Serif" font-size="10.00">ConfigManager.RegisterLocalization</text>
<text text-anchor="middle" x="280.5" y="-151.76" font-family="Helvetica,sans-Serif" font-size="10.00">KeysForMembers</text>
</a>
</g>
</g>
<!-- Node1&#45;&gt;Node2 -->
<g id="edge1_Node000001_Node000002" class="edge">
<title>Node1&#45;&gt;Node2</title>
<g id="a_edge1_Node000001_Node000002"><a xlink:title=" ">
<path fill="none" stroke="#63b8ff" d="M149.15,-165.26C157.43,-165.26 165.99,-165.26 174.57,-165.26"/>
<polygon fill="#63b8ff" stroke="#63b8ff" points="174.65,-168.76 184.65,-165.26 174.65,-161.76 174.65,-168.76"/>
</a>
</g>
</g>
<!-- Node3 -->
<g id="Node000003" class="node">
<title>Node3</title>
<g id="a_Node000003"><a xlink:href="../../d8/d6f/classTerraria_1_1ModLoader_1_1Core_1_1AssemblyManager_aa052a937a82feae97a2494ea5288562b.html#aa052a937a82feae97a2494ea5288562b" target="_top" xlink:title=" ">
<polygon fill="white" stroke="#666666" points="1121.5,-340.26 915.5,-340.26 915.5,-310.26 1121.5,-310.26 1121.5,-340.26"/>
<text text-anchor="start" x="923.5" y="-328.26" font-family="Helvetica,sans-Serif" font-size="10.00">Terraria.ModLoader.Core.</text>
<text text-anchor="middle" x="1018.5" y="-317.26" font-family="Helvetica,sans-Serif" font-size="10.00">AssemblyManager.GetAssemblyOwner</text>
</a>
</g>
</g>
<!-- Node2&#45;&gt;Node3 -->
<g id="edge2_Node000002_Node000003" class="edge">
<title>Node2&#45;&gt;Node3</title>
<g id="a_edge2_Node000002_Node000003"><a xlink:title=" ">
<path fill="none" stroke="#63b8ff" d="M289.91,-185.78C306.65,-223.51 348.12,-302.88 412,-334.26 593.82,-423.58 844.96,-373.34 958.07,-343.03"/>
<polygon fill="#63b8ff" stroke="#63b8ff" points="959.2,-346.35 967.93,-340.34 957.36,-339.6 959.2,-346.35"/>
</a>
</g>
</g>
<!-- Node4 -->
<g id="Node000004" class="node">
<title>Node4</title>
<g id="a_Node000004"><a xlink:href="../../d5/d69/classTerraria_1_1ModLoader_1_1Config_1_1ConfigManager_abb73b63d5c3352797db2ad6189f4dcfb.html#abb73b63d5c3352797db2ad6189f4dcfb" target="_top" xlink:title=" ">
<polygon fill="white" stroke="#666666" points="618,-307.26 412,-307.26 412,-277.26 618,-277.26 618,-307.26"/>
<text text-anchor="start" x="420" y="-295.26" font-family="Helvetica,sans-Serif" font-size="10.00">Terraria.ModLoader.Config.</text>
<text text-anchor="middle" x="515" y="-284.26" font-family="Helvetica,sans-Serif" font-size="10.00">ConfigManager.GetFieldsAndProperties</text>
</a>
</g>
</g>
<!-- Node2&#45;&gt;Node4 -->
<g id="edge3_Node000002_Node000004" class="edge">
<title>Node2&#45;&gt;Node4</title>
<g id="a_edge3_Node000002_Node000004"><a xlink:title=" ">
<path fill="none" stroke="#63b8ff" d="M301.68,-185.93C325.78,-209.41 368.33,-247.19 412,-268.26 416.12,-270.25 420.42,-272.08 424.81,-273.76"/>
<polygon fill="#63b8ff" stroke="#63b8ff" points="423.97,-277.18 434.57,-277.21 426.31,-270.58 423.97,-277.18"/>
</a>
</g>
</g>
<!-- Node5 -->
<g id="Node000005" class="node">
<title>Node5</title>
<g id="a_Node000005"><a xlink:href="../../d5/d69/classTerraria_1_1ModLoader_1_1Config_1_1ConfigManager_a4511ebe4682b66db9636b5925c181d66.html#a4511ebe4682b66db9636b5925c181d66" target="_top" xlink:title=" ">
<polygon fill="white" stroke="#666666" points="1125,-131.26 912,-131.26 912,-101.26 1125,-101.26 1125,-131.26"/>
<text text-anchor="start" x="920" y="-119.26" font-family="Helvetica,sans-Serif" font-size="10.00">Terraria.ModLoader.Config.</text>
<text text-anchor="middle" x="1018.5" y="-108.26" font-family="Helvetica,sans-Serif" font-size="10.00">ConfigManager.GetLegacyLabelAttribute</text>
</a>
</g>
</g>
<!-- Node2&#45;&gt;Node5 -->
<g id="edge5_Node000002_Node000005" class="edge">
<title>Node2&#45;&gt;Node5</title>
<g id="a_edge5_Node000002_Node000005"><a xlink:title=" ">
<path fill="none" stroke="#63b8ff" d="M376.21,-158.95C510.62,-150.01 756.45,-133.64 901.58,-123.98"/>
<polygon fill="#63b8ff" stroke="#63b8ff" points="902.11,-127.45 911.85,-123.29 901.64,-120.47 902.11,-127.45"/>
</a>
</g>
</g>
<!-- Node6 -->
<g id="Node000006" class="node">
<title>Node6</title>
<g id="a_Node000006"><a xlink:href="../../d5/d69/classTerraria_1_1ModLoader_1_1Config_1_1ConfigManager_a500b15ba59e5a77d1c6e19c9f088a5c2.html#a500b15ba59e5a77d1c6e19c9f088a5c2" target="_top" xlink:title=" ">
<polygon fill="white" stroke="#666666" points="603,-210.76 427,-210.76 427,-169.76 603,-169.76 603,-210.76"/>
<text text-anchor="start" x="435" y="-198.76" font-family="Helvetica,sans-Serif" font-size="10.00">Terraria.ModLoader.Config.</text>
<text text-anchor="start" x="435" y="-187.76" font-family="Helvetica,sans-Serif" font-size="10.00">ConfigManager.GetLegacyTooltip</text>
<text text-anchor="middle" x="515" y="-176.76" font-family="Helvetica,sans-Serif" font-size="10.00">Attribute</text>
</a>
</g>
</g>
<!-- Node2&#45;&gt;Node6 -->
<g id="edge6_Node000002_Node000006" class="edge">
<title>Node2&#45;&gt;Node6</title>
<g id="a_edge6_Node000002_Node000006"><a xlink:title=" ">
<path fill="none" stroke="#63b8ff" d="M376.07,-175.43C389.39,-176.86 403.11,-178.34 416.49,-179.78"/>
<polygon fill="#63b8ff" stroke="#63b8ff" points="416.32,-183.28 426.64,-180.87 417.07,-176.32 416.32,-183.28"/>
</a>
</g>
</g>
<!-- Node7 -->
<g id="Node000007" class="node">
<title>Node7</title>
<g id="a_Node000007"><a xlink:href="../../d5/d69/classTerraria_1_1ModLoader_1_1Config_1_1ConfigManager_aa0da9deda992f2d331bb8f4347f688e1.html#aa0da9deda992f2d331bb8f4347f688e1" target="_top" xlink:title=" ">
<polygon fill="white" stroke="#666666" points="610.5,-259.26 419.5,-259.26 419.5,-229.26 610.5,-229.26 610.5,-259.26"/>
<text text-anchor="start" x="427.5" y="-247.26" font-family="Helvetica,sans-Serif" font-size="10.00">Terraria.ModLoader.Config.</text>
<text text-anchor="middle" x="515" y="-236.26" font-family="Helvetica,sans-Serif" font-size="10.00">ConfigManager.GetLocalizedHeader</text>
</a>
</g>
</g>
<!-- Node2&#45;&gt;Node7 -->
<g id="edge7_Node000002_Node000007" class="edge">
<title>Node2&#45;&gt;Node7</title>
<g id="a_edge7_Node000002_Node000007"><a xlink:title=" ">
<path fill="none" stroke="#63b8ff" d="M325.2,-185.85C350.22,-197.08 382.43,-210.63 412,-220.26 418.84,-222.49 426,-224.6 433.21,-226.58"/>
<polygon fill="#63b8ff" stroke="#63b8ff" points="432.5,-230.01 443.06,-229.19 434.3,-223.25 432.5,-230.01"/>
</a>
</g>
</g>
<!-- Node9 -->
<g id="Node000009" class="node">
<title>Node9</title>
<g id="a_Node000009"><a xlink:href="../../d4/d8f/classTerraria_1_1Localization_1_1Language_ac00671f47bd1dfaa3b958d73cc6ce93d.html#ac00671f47bd1dfaa3b958d73cc6ce93d" target="_top" xlink:title="Returns a T:Terraria.Localization.LocalizedText for a given key. &#160;If no existing localization exists ...">
<polygon fill="white" stroke="#666666" points="1102.5,-58.26 934.5,-58.26 934.5,-28.26 1102.5,-28.26 1102.5,-58.26"/>
<text text-anchor="start" x="942.5" y="-46.26" font-family="Helvetica,sans-Serif" font-size="10.00">Terraria.Localization.Language.</text>
<text text-anchor="middle" x="1018.5" y="-35.26" font-family="Helvetica,sans-Serif" font-size="10.00">GetOrRegister</text>
</a>
</g>
</g>
<!-- Node2&#45;&gt;Node9 -->
<g id="edge10_Node000002_Node000009" class="edge">
<title>Node2&#45;&gt;Node9</title>
<g id="a_edge10_Node000002_Node000009"><a xlink:title=" ">
<path fill="none" stroke="#63b8ff" d="M295.85,-144.5C317.24,-115.59 360.53,-64.5 412,-44.26 590.95,26.11 823.31,-3.57 941.39,-26.25"/>
<polygon fill="#63b8ff" stroke="#63b8ff" points="940.93,-29.73 951.42,-28.22 942.28,-22.86 940.93,-29.73"/>
</a>
</g>
</g>
<!-- Node11 -->
<g id="Node000011" class="node">
<title>Node11</title>
<g id="a_Node000011"><a xlink:href="../../d5/d69/classTerraria_1_1ModLoader_1_1Config_1_1ConfigManager_a8706a59d1e22ff7b6a63c37382c581de.html#a8706a59d1e22ff7b6a63c37382c581de" target="_top" xlink:title=" ">
<polygon fill="white" stroke="#666666" points="610.5,-94.76 419.5,-94.76 419.5,-53.76 610.5,-53.76 610.5,-94.76"/>
<text text-anchor="start" x="427.5" y="-82.76" font-family="Helvetica,sans-Serif" font-size="10.00">Terraria.ModLoader.Config.</text>
<text text-anchor="start" x="427.5" y="-71.76" font-family="Helvetica,sans-Serif" font-size="10.00">ConfigManager.RegisterLocalization</text>
<text text-anchor="middle" x="515" y="-60.76" font-family="Helvetica,sans-Serif" font-size="10.00">KeysForMemberType</text>
</a>
</g>
</g>
<!-- Node2&#45;&gt;Node11 -->
<g id="edge12_Node000002_Node000011" class="edge">
<title>Node2&#45;&gt;Node11</title>
<g id="a_edge12_Node000002_Node000011"><a xlink:title=" ">
<path fill="none" stroke="#63b8ff" d="M320.68,-144.72C352.05,-130.93 397.07,-112.91 435.76,-98.46"/>
<polygon fill="#63b8ff" stroke="#63b8ff" points="437.29,-101.63 445.45,-94.87 434.86,-95.07 437.29,-101.63"/>
</a>
</g>
</g>
<!-- Node4&#45;&gt;Node4 -->
<g id="edge4_Node000004_Node000004" class="edge">
<title>Node4&#45;&gt;Node4</title>
<g id="a_edge4_Node000004_Node000004"><a xlink:title=" ">
<path fill="none" stroke="#63b8ff" d="M473.87,-307.54C464.73,-316.67 478.44,-325.26 515,-325.26 536.71,-325.26 550.36,-322.23 555.96,-317.86"/>
<polygon fill="#63b8ff" stroke="#63b8ff" points="559.46,-317.59 556.13,-307.54 552.46,-317.48 559.46,-317.59"/>
</a>
</g>
</g>
<!-- Node8 -->
<g id="Node000008" class="node">
<title>Node8</title>
<g id="a_Node000008"><a xlink:href="../../d5/d69/classTerraria_1_1ModLoader_1_1Config_1_1ConfigManager_a1f8ffef01bd1895eafcae2919791bbcf.html#a1f8ffef01bd1895eafcae2919791bbcf" target="_top" xlink:title=" ">
<polygon fill="white" stroke="#666666" points="876,-286.26 654,-286.26 654,-256.26 876,-256.26 876,-286.26"/>
<text text-anchor="start" x="662" y="-274.26" font-family="Helvetica,sans-Serif" font-size="10.00">Terraria.ModLoader.Config.</text>
<text text-anchor="middle" x="765" y="-263.26" font-family="Helvetica,sans-Serif" font-size="10.00">ConfigManager.GetDefaultLocalizationKey</text>
</a>
</g>
</g>
<!-- Node7&#45;&gt;Node8 -->
<g id="edge8_Node000007_Node000008" class="edge">
<title>Node7&#45;&gt;Node8</title>
<g id="a_edge8_Node000007_Node000008"><a xlink:title=" ">
<path fill="none" stroke="#63b8ff" d="M610.82,-254.58C621.6,-255.76 632.7,-256.97 643.75,-258.17"/>
<polygon fill="#63b8ff" stroke="#63b8ff" points="643.57,-261.67 653.89,-259.27 644.32,-254.71 643.57,-261.67"/>
</a>
</g>
</g>
<!-- Node8&#45;&gt;Node3 -->
<g id="edge9_Node000008_Node000003" class="edge">
<title>Node8&#45;&gt;Node3</title>
<g id="a_edge9_Node000008_Node000003"><a xlink:title=" ">
<path fill="none" stroke="#63b8ff" d="M836.06,-286.3C867.54,-293.06 904.85,-301.07 937.44,-308.07"/>
<polygon fill="#63b8ff" stroke="#63b8ff" points="936.87,-311.53 947.38,-310.21 938.34,-304.68 936.87,-311.53"/>
</a>
</g>
</g>
<!-- Node10 -->
<g id="Node000010" class="node">
<title>Node10</title>
<g id="a_Node000010"><a xlink:href="../../d8/d74/classTerraria_1_1Localization_1_1LanguageManager_a65acf6b4aff24386fb450dac9ec31ca4.html#a65acf6b4aff24386fb450dac9ec31ca4" target="_top" xlink:title=" ">
<polygon fill="white" stroke="#666666" points="1326,-58.26 1161,-58.26 1161,-28.26 1326,-28.26 1326,-58.26"/>
<text text-anchor="start" x="1169" y="-46.26" font-family="Helvetica,sans-Serif" font-size="10.00">Terraria.Localization.Language</text>
<text text-anchor="middle" x="1243.5" y="-35.26" font-family="Helvetica,sans-Serif" font-size="10.00">Manager.GetOrRegister</text>
</a>
</g>
</g>
<!-- Node9&#45;&gt;Node10 -->
<g id="edge11_Node000009_Node000010" class="edge">
<title>Node9&#45;&gt;Node10</title>
<g id="a_edge11_Node000009_Node000010"><a xlink:title=" ">
<path fill="none" stroke="#63b8ff" d="M1102.54,-43.26C1118.18,-43.26 1134.63,-43.26 1150.52,-43.26"/>
<polygon fill="#63b8ff" stroke="#63b8ff" points="1150.88,-46.76 1160.88,-43.26 1150.88,-39.76 1150.88,-46.76"/>
</a>
</g>
</g>
<!-- Node11&#45;&gt;Node2 -->
<g id="edge17_Node000011_Node000002" class="edge">
<title>Node11&#45;&gt;Node2</title>
<g id="a_edge17_Node000011_Node000002"><a xlink:title=" ">
<path fill="none" stroke="#63b8ff" d="M474.62,-94.89C443.23,-108.67 398.3,-126.66 359.67,-141.08"/>
<polygon fill="#63b8ff" stroke="#63b8ff" points="358.16,-137.91 350,-144.67 360.59,-144.47 358.16,-137.91"/>
</a>
</g>
</g>
<!-- Node11&#45;&gt;Node9 -->
<g id="edge13_Node000011_Node000009" class="edge">
<title>Node11&#45;&gt;Node9</title>
<g id="a_edge13_Node000011_Node000009"><a xlink:title=" ">
<path fill="none" stroke="#63b8ff" d="M610.63,-66.41C625.15,-65.29 639.97,-64.21 654,-63.26 745.85,-57.07 850.85,-51.45 924.3,-47.76"/>
<polygon fill="#63b8ff" stroke="#63b8ff" points="924.64,-51.24 934.45,-47.25 924.29,-44.25 924.64,-51.24"/>
</a>
</g>
</g>
<!-- Node11&#45;&gt;Node11 -->
<g id="edge18_Node000011_Node000011" class="edge">
<title>Node11&#45;&gt;Node11</title>
<g id="a_edge18_Node000011_Node000011"><a xlink:title=" ">
<path fill="none" stroke="#63b8ff" d="M471.99,-94.86C467.3,-104.41 481.64,-112.76 515,-112.76 535.85,-112.76 549.27,-109.5 555.26,-104.72"/>
<polygon fill="#63b8ff" stroke="#63b8ff" points="558.69,-105.43 558.01,-94.86 551.95,-103.55 558.69,-105.43"/>
</a>
</g>
</g>
<!-- Node12 -->
<g id="Node000012" class="node">
<title>Node12</title>
<g id="a_Node000012"><a xlink:href="../../d5/d69/classTerraria_1_1ModLoader_1_1Config_1_1ConfigManager_a474640ab38bec70f3b59059a64116414.html#a474640ab38bec70f3b59059a64116414" target="_top" xlink:title=" ">
<polygon fill="white" stroke="#666666" points="860.5,-112.76 669.5,-112.76 669.5,-71.76 860.5,-71.76 860.5,-112.76"/>
<text text-anchor="start" x="677.5" y="-100.76" font-family="Helvetica,sans-Serif" font-size="10.00">Terraria.ModLoader.Config.</text>
<text text-anchor="start" x="677.5" y="-89.76" font-family="Helvetica,sans-Serif" font-size="10.00">ConfigManager.RegisterLocalization</text>
<text text-anchor="middle" x="765" y="-78.76" font-family="Helvetica,sans-Serif" font-size="10.00">KeysForEnumMembers</text>
</a>
</g>
</g>
<!-- Node11&#45;&gt;Node12 -->
<g id="edge14_Node000011_Node000012" class="edge">
<title>Node11&#45;&gt;Node12</title>
<g id="a_edge14_Node000011_Node000012"><a xlink:title=" ">
<path fill="none" stroke="#63b8ff" d="M610.82,-81.14C626.52,-82.28 642.89,-83.47 658.83,-84.63"/>
<polygon fill="#63b8ff" stroke="#63b8ff" points="659.01,-88.15 669.23,-85.38 659.51,-81.17 659.01,-88.15"/>
</a>
</g>
</g>
<!-- Node12&#45;&gt;Node5 -->
<g id="edge15_Node000012_Node000005" class="edge">
<title>Node12&#45;&gt;Node5</title>
<g id="a_edge15_Node000012_Node000005"><a xlink:title=" ">
<path fill="none" stroke="#63b8ff" d="M860.72,-101.3C874.17,-102.58 888.12,-103.91 901.91,-105.23"/>
<polygon fill="#63b8ff" stroke="#63b8ff" points="901.62,-108.72 911.91,-106.18 902.28,-101.75 901.62,-108.72"/>
</a>
</g>
</g>
<!-- Node12&#45;&gt;Node9 -->
<g id="edge16_Node000012_Node000009" class="edge">
<title>Node12&#45;&gt;Node9</title>
<g id="a_edge16_Node000012_Node000009"><a xlink:title=" ">
<path fill="none" stroke="#63b8ff" d="M860.72,-73.81C883.65,-69.34 908.04,-64.59 930.58,-60.19"/>
<polygon fill="#63b8ff" stroke="#63b8ff" points="931.32,-63.62 940.46,-58.27 929.98,-56.75 931.32,-63.62"/>
</a>
</g>
</g>
</g>
</svg>

<g id="navigator" transform="translate(0 0)" fill="#404254">
  <rect fill="#f2f5e9" fill-opacity="0.5" stroke="#606060" stroke-width=".5" x="0" y="0" width="60" height="60"/>
  <use id="zoomplus" xlink:href="#zoomPlus" x="17" y="9" onmousedown="handleZoom(evt,'in')"/>
  <use id="zoomminus" xlink:href="#zoomMin" x="42" y="9" onmousedown="handleZoom(evt,'out')"/>
  <use id="reset" xlink:href="#resetDef" x="30" y="36" onmousedown="handleReset()"/>
   <use id="arrowup" xlink:href="#arrowUp" x="0" y="0" onmousedown="handlePan(0,-1)"/>
  <use id="arrowright" xlink:href="#arrowRight" x="0" y="0" onmousedown="handlePan(1,0)"/>
  <use id="arrowdown" xlink:href="#arrowDown" x="0" y="0" onmousedown="handlePan(0,1)"/>
  <use id="arrowleft" xlink:href="#arrowLeft" x="0" y="0" onmousedown="handlePan(-1,0)"/>
</g>
<svg viewBox="0 0 15 15" width="100%" height="30px" preserveAspectRatio="xMaxYMin meet">
 <g id="arrow_out" transform="scale(0.3 0.3)">
  <a xlink:href="classTerraria_1_1ModLoader_1_1Config_1_1ConfigManager_a65535df3219355d1c879a1413233bf27_a65535df3219355d1c879a1413233bf27_cgraph_org.svg" target="_base">
   <rect id="button" ry="5" rx="5" y="6" x="6" height="38" width="38"
        fill="#f2f5e9" fill-opacity="0.5" stroke="#606060" stroke-width="1.0"/>
   <path id="arrow"
     d="M 11.500037,31.436501 C 11.940474,20.09759 22.043105,11.32322 32.158766,21.979434 L 37.068811,17.246167 C 37.068811,17.246167 37.088388,32 37.088388,32 L 22.160133,31.978069 C 22.160133,31.978069 26.997745,27.140456 26.997745,27.140456 C 18.528582,18.264221 13.291696,25.230495 11.500037,31.436501 z"
     style="fill:#404040;"/>
  </a>
 </g>
</svg>

<style type='text/css'>
<![CDATA[
[data-mouse-over-selected='false'] { opacity: 0.7; }
[data-mouse-over-selected='true']  { opacity: 1.0; }
]]>
</style>
<script type="application/ecmascript"><![CDATA[
document.addEventListener('DOMContentLoaded', (event) => {
  highlightEdges();
  highlightAdjacentNodes();
});
]]></script>
</svg>
