<?xml version="1.0" encoding="UTF-8" standalone="no"?>
<!DOCTYPE svg PUBLIC "-//W3C//DTD SVG 1.1//EN"
 "http://www.w3.org/Graphics/SVG/1.1/DTD/svg11.dtd">
<!-- Generated by graphviz version 2.43.0 (0)
 -->
<!-- Title: Terraria.Projectile.UpdateEnchantmentVisuals Pages: 1 -->
<svg width="959pt" height="175pt"
 viewBox="0.00 0.00 959.00 175.00" xmlns="http://www.w3.org/2000/svg" xmlns:xlink="http://www.w3.org/1999/xlink">
<g id="graph0" class="graph" transform="scale(1 1) rotate(0) translate(4 171)">
<title>Terraria.Projectile.UpdateEnchantmentVisuals</title>
<!-- Node1 -->
<g id="Node000001" class="node">
<title>Node1</title>
<g id="a_Node000001"><a xlink:title=" ">
<polygon fill="#999999" stroke="#666666" points="140,-78 0,-78 0,-48 140,-48 140,-78"/>
<text text-anchor="start" x="8" y="-66" font-family="Helvetica,sans-Serif" font-size="10.00">Terraria.Projectile.Update</text>
<text text-anchor="middle" x="70" y="-55" font-family="Helvetica,sans-Serif" font-size="10.00">EnchantmentVisuals</text>
</a>
</g>
</g>
<!-- Node2 -->
<g id="Node000002" class="node">
<title>Node2</title>
<g id="a_Node000002"><a xlink:href="../../d1/d9c/classTerraria_1_1Utils_af1719e7aa7cb20441b26320d7eef901c.html#af1719e7aa7cb20441b26320d7eef901c" target="_top" xlink:title=" ">
<polygon fill="white" stroke="#666666" points="351,-115.5 176,-115.5 176,-96.5 351,-96.5 351,-115.5"/>
<text text-anchor="middle" x="263.5" y="-103.5" font-family="Helvetica,sans-Serif" font-size="10.00">Terraria.Utils.CenteredRectangle</text>
</a>
</g>
</g>
<!-- Node1&#45;&gt;Node2 -->
<g id="edge1_Node000001_Node000002" class="edge">
<title>Node1&#45;&gt;Node2</title>
<g id="a_edge1_Node000001_Node000002"><a xlink:title=" ">
<path fill="none" stroke="#63b8ff" d="M136.23,-78C149.39,-81 163.14,-84.12 176,-87 186.57,-89.37 197.87,-91.87 208.7,-94.26"/>
<polygon fill="#63b8ff" stroke="#63b8ff" points="207.96,-97.68 218.48,-96.41 209.46,-90.84 207.96,-97.68"/>
</a>
</g>
</g>
<!-- Node3 -->
<g id="Node000003" class="node">
<title>Node3</title>
<g id="a_Node000003"><a xlink:href="../../da/dd3/classTerraria_1_1Projectile_a4f3169ec50f437bea8de6b40f12d7295.html#a4f3169ec50f437bea8de6b40f12d7295" target="_top" xlink:title=" ">
<polygon fill="white" stroke="#666666" points="327.5,-78 199.5,-78 199.5,-48 327.5,-48 327.5,-78"/>
<text text-anchor="start" x="207.5" y="-66" font-family="Helvetica,sans-Serif" font-size="10.00">Terraria.Projectile.Emit</text>
<text text-anchor="middle" x="263.5" y="-55" font-family="Helvetica,sans-Serif" font-size="10.00">EnchantmentVisualsAt</text>
</a>
</g>
</g>
<!-- Node1&#45;&gt;Node3 -->
<g id="edge2_Node000001_Node000003" class="edge">
<title>Node1&#45;&gt;Node3</title>
<g id="a_edge2_Node000001_Node000003"><a xlink:title=" ">
<path fill="none" stroke="#63b8ff" d="M140.14,-63C155.95,-63 172.83,-63 188.83,-63"/>
<polygon fill="#63b8ff" stroke="#63b8ff" points="189.2,-66.5 199.2,-63 189.2,-59.5 189.2,-66.5"/>
</a>
</g>
</g>
<!-- Node10 -->
<g id="Node000010" class="node">
<title>Node10</title>
<g id="a_Node000010"><a xlink:href="../../da/dd3/classTerraria_1_1Projectile_a4e55194f64061372c717ff49e7b80942.html#a4e55194f64061372c717ff49e7b80942" target="_top" xlink:title=" ">
<polygon fill="white" stroke="#666666" points="323,-30 204,-30 204,0 323,0 323,-30"/>
<text text-anchor="start" x="212" y="-18" font-family="Helvetica,sans-Serif" font-size="10.00">Terraria.Projectile.Fill</text>
<text text-anchor="middle" x="263.5" y="-7" font-family="Helvetica,sans-Serif" font-size="10.00">WhipControlPoints</text>
</a>
</g>
</g>
<!-- Node1&#45;&gt;Node10 -->
<g id="edge10_Node000001_Node000010" class="edge">
<title>Node1&#45;&gt;Node10</title>
<g id="a_edge10_Node000001_Node000010"><a xlink:title=" ">
<path fill="none" stroke="#63b8ff" d="M131.07,-47.94C151.05,-42.94 173.45,-37.32 194.03,-32.16"/>
<polygon fill="#63b8ff" stroke="#63b8ff" points="195.11,-35.5 203.96,-29.67 193.41,-28.71 195.11,-35.5"/>
</a>
</g>
</g>
<!-- Node4 -->
<g id="Node000004" class="node">
<title>Node4</title>
<g id="a_Node000004"><a xlink:href="../../dc/de5/classTerraria_1_1Dust_a977a36a9376966862406a3094e3b70ab.html#a977a36a9376966862406a3094e3b70ab" target="_top" xlink:title="Attempts to spawn a single Dust into the game world. The Position, Width, and Height parameters dicta...">
<polygon fill="white" stroke="#666666" points="526,-124.5 400,-124.5 400,-105.5 526,-105.5 526,-124.5"/>
<text text-anchor="middle" x="463" y="-112.5" font-family="Helvetica,sans-Serif" font-size="10.00">Terraria.Dust.NewDust</text>
</a>
</g>
</g>
<!-- Node3&#45;&gt;Node4 -->
<g id="edge3_Node000003_Node000004" class="edge">
<title>Node3&#45;&gt;Node4</title>
<g id="a_edge3_Node000003_Node000004"><a xlink:title=" ">
<path fill="none" stroke="#63b8ff" d="M317.15,-78.05C338.75,-84.11 364.03,-91.06 387,-97 394.83,-99.03 403.15,-101.1 411.28,-103.08"/>
<polygon fill="#63b8ff" stroke="#63b8ff" points="410.52,-106.5 421.06,-105.45 412.17,-99.7 410.52,-106.5"/>
</a>
</g>
</g>
<!-- Node8 -->
<g id="Node000008" class="node">
<title>Node8</title>
<g id="a_Node000008"><a xlink:href="../../d1/ddf/classTerraria_1_1Gore_a99c43465db05b0c96da5f5d941e780d1.html#a99c43465db05b0c96da5f5d941e780d1" target="_top" xlink:title=" ">
<polygon fill="white" stroke="#666666" points="527,-69.5 399,-69.5 399,-50.5 527,-50.5 527,-69.5"/>
<text text-anchor="middle" x="463" y="-57.5" font-family="Helvetica,sans-Serif" font-size="10.00">Terraria.Gore.NewGore</text>
</a>
</g>
</g>
<!-- Node3&#45;&gt;Node8 -->
<g id="edge7_Node000003_Node000008" class="edge">
<title>Node3&#45;&gt;Node8</title>
<g id="a_edge7_Node000003_Node000008"><a xlink:title=" ">
<path fill="none" stroke="#63b8ff" d="M327.53,-62.04C347.04,-61.75 368.7,-61.42 388.83,-61.11"/>
<polygon fill="#63b8ff" stroke="#63b8ff" points="388.94,-64.61 398.89,-60.96 388.84,-57.61 388.94,-64.61"/>
</a>
</g>
</g>
<!-- Node5 -->
<g id="Node000005" class="node">
<title>Node5</title>
<g id="a_Node000005"><a xlink:href="../../df/dd6/classTerraria_1_1ModLoader_1_1DustLoader_a8374be843b9b2b0143bc000e8663d3ec.html#a8374be843b9b2b0143bc000e8663d3ec" target="_top" xlink:title=" ">
<polygon fill="white" stroke="#666666" points="745,-167 575,-167 575,-137 745,-137 745,-167"/>
<text text-anchor="start" x="583" y="-155" font-family="Helvetica,sans-Serif" font-size="10.00">Terraria.ModLoader.DustLoader.</text>
<text text-anchor="middle" x="660" y="-144" font-family="Helvetica,sans-Serif" font-size="10.00">SetupDust</text>
</a>
</g>
</g>
<!-- Node4&#45;&gt;Node5 -->
<g id="edge4_Node000004_Node000005" class="edge">
<title>Node4&#45;&gt;Node5</title>
<g id="a_edge4_Node000004_Node000005"><a xlink:title=" ">
<path fill="none" stroke="#63b8ff" d="M514.22,-124.53C531.23,-127.76 550.77,-131.46 569.88,-135.09"/>
<polygon fill="#63b8ff" stroke="#63b8ff" points="569.34,-138.55 579.82,-136.98 570.64,-131.67 569.34,-138.55"/>
</a>
</g>
</g>
<!-- Node7 -->
<g id="Node000007" class="node">
<title>Node7</title>
<g id="a_Node000007"><a xlink:href="../../de/d1d/classTerraria_1_1Collision_a1c65206ace403aa59afc32d20e5d282e.html#a1c65206ace403aa59afc32d20e5d282e" target="_top" xlink:title=" ">
<polygon fill="white" stroke="#666666" points="741,-118.5 579,-118.5 579,-99.5 741,-99.5 741,-118.5"/>
<text text-anchor="middle" x="660" y="-106.5" font-family="Helvetica,sans-Serif" font-size="10.00">Terraria.Collision.WetCollision</text>
</a>
</g>
</g>
<!-- Node4&#45;&gt;Node7 -->
<g id="edge6_Node000004_Node000007" class="edge">
<title>Node4&#45;&gt;Node7</title>
<g id="a_edge6_Node000004_Node000007"><a xlink:title=" ">
<path fill="none" stroke="#63b8ff" d="M526.24,-113.09C539.69,-112.67 554.18,-112.23 568.47,-111.79"/>
<polygon fill="#63b8ff" stroke="#63b8ff" points="568.93,-115.27 578.82,-111.47 568.71,-108.28 568.93,-115.27"/>
</a>
</g>
</g>
<!-- Node6 -->
<g id="Node000006" class="node">
<title>Node6</title>
<g id="a_Node000006"><a xlink:href="../../df/dd6/classTerraria_1_1ModLoader_1_1DustLoader_a0cb616c3c6776d3bba899e7f1fb0e221.html#a0cb616c3c6776d3bba899e7f1fb0e221" target="_top" xlink:title="Gets the ModDust instance with the given type. Returns null if no ModDust with the given type exists.">
<polygon fill="white" stroke="#666666" points="951,-167 781,-167 781,-137 951,-137 951,-167"/>
<text text-anchor="start" x="789" y="-155" font-family="Helvetica,sans-Serif" font-size="10.00">Terraria.ModLoader.DustLoader.</text>
<text text-anchor="middle" x="866" y="-144" font-family="Helvetica,sans-Serif" font-size="10.00">GetDust</text>
</a>
</g>
</g>
<!-- Node5&#45;&gt;Node6 -->
<g id="edge5_Node000005_Node000006" class="edge">
<title>Node5&#45;&gt;Node6</title>
<g id="a_edge5_Node000005_Node000006"><a xlink:title=" ">
<path fill="none" stroke="#63b8ff" d="M745.15,-152C753.5,-152 762.02,-152 770.46,-152"/>
<polygon fill="#63b8ff" stroke="#63b8ff" points="770.71,-155.5 780.71,-152 770.71,-148.5 770.71,-155.5"/>
</a>
</g>
</g>
<!-- Node8&#45;&gt;Node8 -->
<g id="edge9_Node000008_Node000008" class="edge">
<title>Node8&#45;&gt;Node8</title>
<g id="a_edge9_Node000008_Node000008"><a xlink:title=" ">
<path fill="none" stroke="#63b8ff" d="M432.79,-69.58C418.09,-78.23 428.16,-87.5 463,-87.5 487.49,-87.5 499.74,-82.92 499.75,-77.19"/>
<polygon fill="#63b8ff" stroke="#63b8ff" points="502.38,-74.88 493.21,-69.58 497.07,-79.45 502.38,-74.88"/>
</a>
</g>
</g>
<!-- Node9 -->
<g id="Node000009" class="node">
<title>Node9</title>
<g id="a_Node000009"><a xlink:href="../../d9/d62/interfaceTerraria_1_1DataStructures_1_1IEntitySource_aad02a637d76bfd16f138769722291901.html#aad02a637d76bfd16f138769722291901" target="_top" xlink:title=" ">
<polygon fill="white" stroke="#666666" points="742,-75 578,-75 578,-45 742,-45 742,-75"/>
<text text-anchor="start" x="586" y="-63" font-family="Helvetica,sans-Serif" font-size="10.00">Terraria.DataStructures.</text>
<text text-anchor="middle" x="660" y="-52" font-family="Helvetica,sans-Serif" font-size="10.00">IEntitySource.GetGoreFallback</text>
</a>
</g>
</g>
<!-- Node8&#45;&gt;Node9 -->
<g id="edge8_Node000008_Node000009" class="edge">
<title>Node8&#45;&gt;Node9</title>
<g id="a_edge8_Node000008_Node000009"><a xlink:title=" ">
<path fill="none" stroke="#63b8ff" d="M527.04,-60C539.9,-60 553.67,-60 567.3,-60"/>
<polygon fill="#63b8ff" stroke="#63b8ff" points="567.67,-63.5 577.67,-60 567.67,-56.5 567.67,-63.5"/>
</a>
</g>
</g>
<!-- Node11 -->
<g id="Node000011" class="node">
<title>Node11</title>
<g id="a_Node000011"><a xlink:href="../../da/dd5/classTerraria_1_1Main_a307153570378acdbe2d164574ba004de.html#a307153570378acdbe2d164574ba004de" target="_top" xlink:title=" ">
<polygon fill="white" stroke="#666666" points="539,-30 387,-30 387,0 539,0 539,-30"/>
<text text-anchor="start" x="395" y="-18" font-family="Helvetica,sans-Serif" font-size="10.00">Terraria.Main.GetPlayerArm</text>
<text text-anchor="middle" x="463" y="-7" font-family="Helvetica,sans-Serif" font-size="10.00">Position</text>
</a>
</g>
</g>
<!-- Node10&#45;&gt;Node11 -->
<g id="edge11_Node000010_Node000011" class="edge">
<title>Node10&#45;&gt;Node11</title>
<g id="a_edge11_Node000010_Node000011"><a xlink:title=" ">
<path fill="none" stroke="#63b8ff" d="M323.22,-15C340.03,-15 358.7,-15 376.75,-15"/>
<polygon fill="#63b8ff" stroke="#63b8ff" points="377,-18.5 387,-15 377,-11.5 377,-18.5"/>
</a>
</g>
</g>
</g>
</svg>
