<?xml version="1.0" encoding="UTF-8" standalone="no"?>
<!DOCTYPE svg PUBLIC "-//W3C//DTD SVG 1.1//EN"
 "http://www.w3.org/Graphics/SVG/1.1/DTD/svg11.dtd">
<!-- Generated by graphviz version 2.43.0 (0)
 -->
<!-- Title: Terraria.Projectile.AI_067_TigerSpecialAttack Pages: 1 -->
<svg width="526pt" height="124pt"
 viewBox="0.00 0.00 526.00 123.50" xmlns="http://www.w3.org/2000/svg" xmlns:xlink="http://www.w3.org/1999/xlink">
<g id="graph0" class="graph" transform="scale(1 1) rotate(0) translate(4 119.5)">
<title>Terraria.Projectile.AI_067_TigerSpecialAttack</title>
<!-- Node1 -->
<g id="Node000001" class="node">
<title>Node1</title>
<g id="a_Node000001"><a xlink:title=" ">
<polygon fill="#999999" stroke="#666666" points="137,-78 0,-78 0,-48 137,-48 137,-78"/>
<text text-anchor="start" x="8" y="-66" font-family="Helvetica,sans-Serif" font-size="10.00">Terraria.Projectile.AI</text>
<text text-anchor="middle" x="68.5" y="-55" font-family="Helvetica,sans-Serif" font-size="10.00">_067_TigerSpecialAttack</text>
</a>
</g>
</g>
<!-- Node2 -->
<g id="Node000002" class="node">
<title>Node2</title>
<g id="a_Node000002"><a xlink:href="../../d1/d9c/classTerraria_1_1Utils_af1719e7aa7cb20441b26320d7eef901c.html#af1719e7aa7cb20441b26320d7eef901c" target="_top" xlink:title=" ">
<polygon fill="white" stroke="#666666" points="348,-115.5 173,-115.5 173,-96.5 348,-96.5 348,-115.5"/>
<text text-anchor="middle" x="260.5" y="-103.5" font-family="Helvetica,sans-Serif" font-size="10.00">Terraria.Utils.CenteredRectangle</text>
</a>
</g>
</g>
<!-- Node1&#45;&gt;Node2 -->
<g id="edge1_Node000001_Node000002" class="edge">
<title>Node1&#45;&gt;Node2</title>
<g id="a_edge1_Node000001_Node000002"><a xlink:title=" ">
<path fill="none" stroke="#63b8ff" d="M133.79,-78.03C146.77,-81.03 160.32,-84.14 173,-87 183.56,-89.38 194.86,-91.9 205.69,-94.28"/>
<polygon fill="#63b8ff" stroke="#63b8ff" points="204.95,-97.7 215.47,-96.43 206.46,-90.87 204.95,-97.7"/>
</a>
</g>
</g>
<!-- Node3 -->
<g id="Node000003" class="node">
<title>Node3</title>
<g id="a_Node000003"><a xlink:href="../../d9/db1/classTerraria_1_1Utilities_1_1UnifiedRandom_ac4ecc6320b69ab939b9c45eaf7d89000.html#ac4ecc6320b69ab939b9c45eaf7d89000" target="_top" xlink:title=" ">
<polygon fill="white" stroke="#666666" points="326.5,-78 194.5,-78 194.5,-48 326.5,-48 326.5,-78"/>
<text text-anchor="start" x="202.5" y="-66" font-family="Helvetica,sans-Serif" font-size="10.00">Terraria.Utilities.Unified</text>
<text text-anchor="middle" x="260.5" y="-55" font-family="Helvetica,sans-Serif" font-size="10.00">Random.Next</text>
</a>
</g>
</g>
<!-- Node1&#45;&gt;Node3 -->
<g id="edge2_Node000001_Node000003" class="edge">
<title>Node1&#45;&gt;Node3</title>
<g id="a_edge2_Node000001_Node000003"><a xlink:title=" ">
<path fill="none" stroke="#63b8ff" d="M137.02,-63C152.33,-63 168.69,-63 184.3,-63"/>
<polygon fill="#63b8ff" stroke="#63b8ff" points="184.43,-66.5 194.43,-63 184.43,-59.5 184.43,-66.5"/>
</a>
</g>
</g>
<!-- Node5 -->
<g id="Node000005" class="node">
<title>Node5</title>
<g id="a_Node000005"><a xlink:href="../../de/d1d/classTerraria_1_1Collision_ab90b2aba94f5d7de3ee33f3c0b27ea3e.html#ab90b2aba94f5d7de3ee33f3c0b27ea3e" target="_top" xlink:title=" ">
<polygon fill="white" stroke="#666666" points="323,-30 198,-30 198,0 323,0 323,-30"/>
<text text-anchor="start" x="206" y="-18" font-family="Helvetica,sans-Serif" font-size="10.00">Terraria.Collision.Solid</text>
<text text-anchor="middle" x="260.5" y="-7" font-family="Helvetica,sans-Serif" font-size="10.00">Collision</text>
</a>
</g>
</g>
<!-- Node1&#45;&gt;Node5 -->
<g id="edge4_Node000001_Node000005" class="edge">
<title>Node1&#45;&gt;Node5</title>
<g id="a_edge4_Node000001_Node000005"><a xlink:title=" ">
<path fill="none" stroke="#63b8ff" d="M129.1,-47.94C148.55,-43.03 170.31,-37.53 190.4,-32.46"/>
<polygon fill="#63b8ff" stroke="#63b8ff" points="191.28,-35.85 200.12,-30 189.56,-29.06 191.28,-35.85"/>
</a>
</g>
</g>
<!-- Node4 -->
<g id="Node000004" class="node">
<title>Node4</title>
<g id="a_Node000004"><a xlink:href="../../d9/db1/classTerraria_1_1Utilities_1_1UnifiedRandom_a173f09196ff526b107c0223c2d58c59a.html#a173f09196ff526b107c0223c2d58c59a" target="_top" xlink:title=" ">
<polygon fill="white" stroke="#666666" points="518,-78 384,-78 384,-48 518,-48 518,-78"/>
<text text-anchor="start" x="392" y="-66" font-family="Helvetica,sans-Serif" font-size="10.00">Terraria.Utilities.Unified</text>
<text text-anchor="middle" x="451" y="-55" font-family="Helvetica,sans-Serif" font-size="10.00">Random.InternalSample</text>
</a>
</g>
</g>
<!-- Node3&#45;&gt;Node4 -->
<g id="edge3_Node000003_Node000004" class="edge">
<title>Node3&#45;&gt;Node4</title>
<g id="a_edge3_Node000003_Node000004"><a xlink:title=" ">
<path fill="none" stroke="#63b8ff" d="M326.63,-63C341.82,-63 358.13,-63 373.75,-63"/>
<polygon fill="#63b8ff" stroke="#63b8ff" points="373.9,-66.5 383.9,-63 373.9,-59.5 373.9,-66.5"/>
</a>
</g>
</g>
</g>
</svg>
