<?xml version="1.0" encoding="UTF-8" standalone="no"?>
<!DOCTYPE svg PUBLIC "-//W3C//DTD SVG 1.1//EN"
 "http://www.w3.org/Graphics/SVG/1.1/DTD/svg11.dtd">
<!-- Generated by graphviz version 2.43.0 (0)
 -->
<!-- Title: Terraria.Projectile.AI_140_MonkStaffT1 Pages: 1 -->
<svg width="981pt" height="492pt"
 viewBox="0.00 0.00 981.00 492.00" xmlns="http://www.w3.org/2000/svg" xmlns:xlink="http://www.w3.org/1999/xlink">
<g id="graph0" class="graph" transform="scale(1 1) rotate(0) translate(4 488)">
<title>Terraria.Projectile.AI_140_MonkStaffT1</title>
<!-- Node1 -->
<g id="Node000001" class="node">
<title>Node1</title>
<g id="a_Node000001"><a xlink:title=" ">
<polygon fill="#999999" stroke="#666666" points="115,-262.5 0,-262.5 0,-232.5 115,-232.5 115,-262.5"/>
<text text-anchor="start" x="8" y="-250.5" font-family="Helvetica,sans-Serif" font-size="10.00">Terraria.Projectile.AI</text>
<text text-anchor="middle" x="57.5" y="-239.5" font-family="Helvetica,sans-Serif" font-size="10.00">_140_MonkStaffT1</text>
</a>
</g>
</g>
<!-- Node2 -->
<g id="Node000002" class="node">
<title>Node2</title>
<g id="a_Node000002"><a xlink:href="../../d0/d12/classTerraria_1_1Lighting_ae428de99ded78bcdb8e44e80d98d6216.html#ae428de99ded78bcdb8e44e80d98d6216" target="_top" xlink:title="Adds light to the world at the specified coordinates.">
<polygon fill="white" stroke="#666666" points="308.5,-466 167.5,-466 167.5,-447 308.5,-447 308.5,-466"/>
<text text-anchor="middle" x="238" y="-454" font-family="Helvetica,sans-Serif" font-size="10.00">Terraria.Lighting.AddLight</text>
</a>
</g>
</g>
<!-- Node1&#45;&gt;Node2 -->
<g id="edge1_Node000001_Node000002" class="edge">
<title>Node1&#45;&gt;Node2</title>
<g id="a_edge1_Node000001_Node000002"><a xlink:title=" ">
<path fill="none" stroke="#63b8ff" d="M61.23,-262.63C68.62,-298.94 92.51,-391.39 151,-437.5 153.31,-439.32 155.75,-440.97 158.3,-442.47"/>
<polygon fill="#63b8ff" stroke="#63b8ff" points="156.82,-445.65 167.33,-447.02 159.97,-439.4 156.82,-445.65"/>
</a>
</g>
</g>
<!-- Node3 -->
<g id="Node000003" class="node">
<title>Node3</title>
<g id="a_Node000003"><a xlink:href="../../d0/db6/classTerraria_1_1WorldBuilding_1_1Searches_a0a2b7ab503ac7ec649d55daaf8612a42.html#a0a2b7ab503ac7ec649d55daaf8612a42" target="_top" xlink:title=" ">
<polygon fill="white" stroke="#666666" points="325,-428.5 151,-428.5 151,-398.5 325,-398.5 325,-428.5"/>
<text text-anchor="start" x="159" y="-416.5" font-family="Helvetica,sans-Serif" font-size="10.00">Terraria.WorldBuilding.Searches.</text>
<text text-anchor="middle" x="238" y="-405.5" font-family="Helvetica,sans-Serif" font-size="10.00">Chain</text>
</a>
</g>
</g>
<!-- Node1&#45;&gt;Node3 -->
<g id="edge3_Node000001_Node000003" class="edge">
<title>Node1&#45;&gt;Node3</title>
<g id="a_edge3_Node000001_Node000003"><a xlink:title=" ">
<path fill="none" stroke="#63b8ff" d="M64.05,-262.51C75.58,-291.6 104.97,-355.74 151,-389.5 152.88,-390.88 154.83,-392.18 156.85,-393.4"/>
<polygon fill="#63b8ff" stroke="#63b8ff" points="155.55,-396.68 166.02,-398.31 158.86,-390.5 155.55,-396.68"/>
</a>
</g>
</g>
<!-- Node4 -->
<g id="Node000004" class="node">
<title>Node4</title>
<g id="a_Node000004"><a xlink:href="../../d4/d03/classTerraria_1_1Player_a8b56b3a06a4d40b7cfb9aebd7241b6df.html#a8b56b3a06a4d40b7cfb9aebd7241b6df" target="_top" xlink:title=" ">
<polygon fill="white" stroke="#666666" points="308,-380 168,-380 168,-361 308,-361 308,-380"/>
<text text-anchor="middle" x="238" y="-368" font-family="Helvetica,sans-Serif" font-size="10.00">Terraria.Player.ChangeDir</text>
</a>
</g>
</g>
<!-- Node1&#45;&gt;Node4 -->
<g id="edge4_Node000001_Node000004" class="edge">
<title>Node1&#45;&gt;Node4</title>
<g id="a_edge4_Node000001_Node000004"><a xlink:title=" ">
<path fill="none" stroke="#63b8ff" d="M67.4,-262.79C81.82,-286.08 112.58,-330.12 151,-352.5 153.99,-354.24 157.13,-355.82 160.36,-357.24"/>
<polygon fill="#63b8ff" stroke="#63b8ff" points="159.09,-360.5 169.68,-360.86 161.63,-353.98 159.09,-360.5"/>
</a>
</g>
</g>
<!-- Node6 -->
<g id="Node000006" class="node">
<title>Node6</title>
<g id="a_Node000006"><a xlink:href="../../df/df6/classTerraria_1_1Entity_aeb1fb87ec64885779ad48757d4e21c0a.html#aeb1fb87ec64885779ad48757d4e21c0a" target="_top" xlink:title=" ">
<polygon fill="white" stroke="#666666" points="308.5,-343 167.5,-343 167.5,-324 308.5,-324 308.5,-343"/>
<text text-anchor="middle" x="238" y="-331" font-family="Helvetica,sans-Serif" font-size="10.00">Terraria.Entity.DirectionTo</text>
</a>
</g>
</g>
<!-- Node1&#45;&gt;Node6 -->
<g id="edge6_Node000001_Node000006" class="edge">
<title>Node1&#45;&gt;Node6</title>
<g id="a_edge6_Node000001_Node000006"><a xlink:title=" ">
<path fill="none" stroke="#63b8ff" d="M74.9,-262.64C92.44,-278 121.7,-301.34 151,-314.5 156.68,-317.05 162.72,-319.27 168.87,-321.2"/>
<polygon fill="#63b8ff" stroke="#63b8ff" points="168.01,-324.59 178.59,-324 169.95,-317.86 168.01,-324.59"/>
</a>
</g>
</g>
<!-- Node7 -->
<g id="Node000007" class="node">
<title>Node7</title>
<g id="a_Node000007"><a xlink:href="../../d6/d1f/classTerraria_1_1WorldBuilding_1_1WorldUtils_a2afa71136849722c517115ad53e5ea65.html#a2afa71136849722c517115ad53e5ea65" target="_top" xlink:title=" ">
<polygon fill="white" stroke="#666666" points="315.5,-305.5 160.5,-305.5 160.5,-275.5 315.5,-275.5 315.5,-305.5"/>
<text text-anchor="start" x="168.5" y="-293.5" font-family="Helvetica,sans-Serif" font-size="10.00">Terraria.WorldBuilding.World</text>
<text text-anchor="middle" x="238" y="-282.5" font-family="Helvetica,sans-Serif" font-size="10.00">Utils.Find</text>
</a>
</g>
</g>
<!-- Node1&#45;&gt;Node7 -->
<g id="edge7_Node000001_Node000007" class="edge">
<title>Node1&#45;&gt;Node7</title>
<g id="a_edge7_Node000001_Node000007"><a xlink:title=" ">
<path fill="none" stroke="#63b8ff" d="M115.47,-261.22C131.1,-264.99 148.26,-269.12 164.63,-273.07"/>
<polygon fill="#63b8ff" stroke="#63b8ff" points="164.16,-276.55 174.7,-275.49 165.8,-269.75 164.16,-276.55"/>
</a>
</g>
</g>
<!-- Node8 -->
<g id="Node000008" class="node">
<title>Node8</title>
<g id="a_Node000008"><a xlink:href="../../dc/de5/classTerraria_1_1Dust_acb51111c9d1ff81d2e7f55da6ff8831f.html#acb51111c9d1ff81d2e7f55da6ff8831f" target="_top" xlink:title=" ">
<polygon fill="white" stroke="#666666" points="315.5,-219 160.5,-219 160.5,-200 315.5,-200 315.5,-219"/>
<text text-anchor="middle" x="238" y="-207" font-family="Helvetica,sans-Serif" font-size="10.00">Terraria.Dust.NewDustDirect</text>
</a>
</g>
</g>
<!-- Node1&#45;&gt;Node8 -->
<g id="edge8_Node000001_Node000008" class="edge">
<title>Node1&#45;&gt;Node8</title>
<g id="a_edge8_Node000001_Node000008"><a xlink:title=" ">
<path fill="none" stroke="#63b8ff" d="M115.47,-235.37C136.87,-230.82 161.14,-225.65 182.33,-221.14"/>
<polygon fill="#63b8ff" stroke="#63b8ff" points="183.09,-224.56 192.14,-219.05 181.63,-217.71 183.09,-224.56"/>
</a>
</g>
</g>
<!-- Node10 -->
<g id="Node000010" class="node">
<title>Node10</title>
<g id="a_Node000010"><a xlink:href="../../d9/db1/classTerraria_1_1Utilities_1_1UnifiedRandom_ac4ecc6320b69ab939b9c45eaf7d89000.html#ac4ecc6320b69ab939b9c45eaf7d89000" target="_top" xlink:title=" ">
<polygon fill="white" stroke="#666666" points="748,-267.5 616,-267.5 616,-237.5 748,-237.5 748,-267.5"/>
<text text-anchor="start" x="624" y="-255.5" font-family="Helvetica,sans-Serif" font-size="10.00">Terraria.Utilities.Unified</text>
<text text-anchor="middle" x="682" y="-244.5" font-family="Helvetica,sans-Serif" font-size="10.00">Random.Next</text>
</a>
</g>
</g>
<!-- Node1&#45;&gt;Node10 -->
<g id="edge15_Node000001_Node000010" class="edge">
<title>Node1&#45;&gt;Node10</title>
<g id="a_edge15_Node000001_Node000010"><a xlink:title=" ">
<path fill="none" stroke="#63b8ff" d="M115.12,-247.95C227.5,-248.86 478.77,-250.88 605.23,-251.89"/>
<polygon fill="#63b8ff" stroke="#63b8ff" points="605.57,-255.39 615.6,-251.97 605.63,-248.39 605.57,-255.39"/>
</a>
</g>
</g>
<!-- Node15 -->
<g id="Node000015" class="node">
<title>Node15</title>
<g id="a_Node000015"><a xlink:href="../../d3/d78/classTerraria_1_1Audio_1_1SoundEngine_ae0319a3b2346b9bac36e6b8c6ea74a11.html#ae0319a3b2346b9bac36e6b8c6ea74a11" target="_top" xlink:title=" ">
<polygon fill="white" stroke="#666666" points="314.5,-172.5 161.5,-172.5 161.5,-142.5 314.5,-142.5 314.5,-172.5"/>
<text text-anchor="start" x="169.5" y="-160.5" font-family="Helvetica,sans-Serif" font-size="10.00">Terraria.Audio.SoundEngine.</text>
<text text-anchor="middle" x="238" y="-149.5" font-family="Helvetica,sans-Serif" font-size="10.00">PlayTrackedSound</text>
</a>
</g>
</g>
<!-- Node1&#45;&gt;Node15 -->
<g id="edge16_Node000001_Node000015" class="edge">
<title>Node1&#45;&gt;Node15</title>
<g id="a_edge16_Node000001_Node000015"><a xlink:title=" ">
<path fill="none" stroke="#63b8ff" d="M81.08,-232.36C99.45,-220.41 126.28,-203.76 151,-191.5 161.9,-186.09 173.88,-180.91 185.35,-176.29"/>
<polygon fill="#63b8ff" stroke="#63b8ff" points="186.81,-179.47 194.83,-172.55 184.24,-172.96 186.81,-179.47"/>
</a>
</g>
</g>
<!-- Node17 -->
<g id="Node000017" class="node">
<title>Node17</title>
<g id="a_Node000017"><a xlink:href="../../d4/d03/classTerraria_1_1Player_aced636f7d8226147a3bf19c099b2bbee.html#aced636f7d8226147a3bf19c099b2bbee" target="_top" xlink:title="Takes an input position and returns the position adjusted to the players visual rotation and offset....">
<polygon fill="white" stroke="#666666" points="322,-119.5 154,-119.5 154,-89.5 322,-89.5 322,-119.5"/>
<text text-anchor="start" x="162" y="-107.5" font-family="Helvetica,sans-Serif" font-size="10.00">Terraria.Player.RotatedRelative</text>
<text text-anchor="middle" x="238" y="-96.5" font-family="Helvetica,sans-Serif" font-size="10.00">Point</text>
</a>
</g>
</g>
<!-- Node1&#45;&gt;Node17 -->
<g id="edge19_Node000001_Node000017" class="edge">
<title>Node1&#45;&gt;Node17</title>
<g id="a_edge19_Node000001_Node000017"><a xlink:title=" ">
<path fill="none" stroke="#63b8ff" d="M66.96,-232.27C81.21,-207.96 112.28,-160.4 151,-133.5 156.27,-129.84 162.03,-126.61 168,-123.77"/>
<polygon fill="#63b8ff" stroke="#63b8ff" points="169.75,-126.83 177.51,-119.62 166.95,-120.41 169.75,-126.83"/>
</a>
</g>
</g>
<!-- Node21 -->
<g id="Node000021" class="node">
<title>Node21</title>
<g id="a_Node000021"><a xlink:href="../../d4/d03/classTerraria_1_1Player_adf87e077910b690e8e325db1190926df.html#adf87e077910b690e8e325db1190926df" target="_top" xlink:title=" ">
<polygon fill="white" stroke="#666666" points="310,-71.5 166,-71.5 166,-41.5 310,-41.5 310,-71.5"/>
<text text-anchor="start" x="174" y="-59.5" font-family="Helvetica,sans-Serif" font-size="10.00">Terraria.Player.SetDummy</text>
<text text-anchor="middle" x="238" y="-48.5" font-family="Helvetica,sans-Serif" font-size="10.00">ItemTime</text>
</a>
</g>
</g>
<!-- Node1&#45;&gt;Node21 -->
<g id="edge23_Node000001_Node000021" class="edge">
<title>Node1&#45;&gt;Node21</title>
<g id="a_edge23_Node000001_Node000021"><a xlink:title=" ">
<path fill="none" stroke="#63b8ff" d="M62.52,-232.43C72.06,-199.62 99.24,-121.38 151,-80.5 152.83,-79.06 154.74,-77.7 156.71,-76.42"/>
<polygon fill="#63b8ff" stroke="#63b8ff" points="158.75,-79.29 165.75,-71.34 155.32,-73.19 158.75,-79.29"/>
</a>
</g>
</g>
<!-- Node22 -->
<g id="Node000022" class="node">
<title>Node22</title>
<g id="a_Node000022"><a xlink:href="../../d1/d9c/classTerraria_1_1Utils_af92d29854b9640ec7d7455a5e64fcabc.html#af92d29854b9640ec7d7455a5e64fcabc" target="_top" xlink:title=" ">
<polygon fill="white" stroke="#666666" points="305,-23 171,-23 171,-4 305,-4 305,-23"/>
<text text-anchor="middle" x="238" y="-11" font-family="Helvetica,sans-Serif" font-size="10.00">Terraria.Utils.ToRotation</text>
</a>
</g>
</g>
<!-- Node1&#45;&gt;Node22 -->
<g id="edge24_Node000001_Node000022" class="edge">
<title>Node1&#45;&gt;Node22</title>
<g id="a_edge24_Node000001_Node000022"><a xlink:title=" ">
<path fill="none" stroke="#63b8ff" d="M60.28,-232.49C65.81,-193.07 86.34,-85.97 151,-32.5 154.16,-29.89 157.6,-27.62 161.22,-25.64"/>
<polygon fill="#63b8ff" stroke="#63b8ff" points="162.97,-28.69 170.57,-21.31 160.03,-22.34 162.97,-28.69"/>
</a>
</g>
</g>
<!-- Node2&#45;&gt;Node2 -->
<g id="edge2_Node000002_Node000002" class="edge">
<title>Node2&#45;&gt;Node2</title>
<g id="a_edge2_Node000002_Node000002"><a xlink:title=" ">
<path fill="none" stroke="#63b8ff" d="M210.26,-466.08C196.76,-474.73 206.01,-484 238,-484 259.49,-484 270.72,-479.82 271.68,-474.45"/>
<polygon fill="#63b8ff" stroke="#63b8ff" points="274.39,-472.21 265.74,-466.08 268.68,-476.26 274.39,-472.21"/>
</a>
</g>
</g>
<!-- Node5 -->
<g id="Node000005" class="node">
<title>Node5</title>
<g id="a_Node000005"><a xlink:href="../../de/d1d/classTerraria_1_1Collision_ab90b2aba94f5d7de3ee33f3c0b27ea3e.html#ab90b2aba94f5d7de3ee33f3c0b27ea3e" target="_top" xlink:title=" ">
<polygon fill="white" stroke="#666666" points="523.5,-385.5 398.5,-385.5 398.5,-355.5 523.5,-355.5 523.5,-385.5"/>
<text text-anchor="start" x="406.5" y="-373.5" font-family="Helvetica,sans-Serif" font-size="10.00">Terraria.Collision.Solid</text>
<text text-anchor="middle" x="461" y="-362.5" font-family="Helvetica,sans-Serif" font-size="10.00">Collision</text>
</a>
</g>
</g>
<!-- Node4&#45;&gt;Node5 -->
<g id="edge5_Node000004_Node000005" class="edge">
<title>Node4&#45;&gt;Node5</title>
<g id="a_edge5_Node000004_Node000005"><a xlink:title=" ">
<path fill="none" stroke="#63b8ff" d="M308.02,-370.5C333.51,-370.5 362.45,-370.5 388.18,-370.5"/>
<polygon fill="#63b8ff" stroke="#63b8ff" points="388.24,-374 398.24,-370.5 388.24,-367 388.24,-374"/>
</a>
</g>
</g>
<!-- Node9 -->
<g id="Node000009" class="node">
<title>Node9</title>
<g id="a_Node000009"><a xlink:href="../../dc/de5/classTerraria_1_1Dust_a977a36a9376966862406a3094e3b70ab.html#a977a36a9376966862406a3094e3b70ab" target="_top" xlink:title="Attempts to spawn a single Dust into the game world. The Position, Width, and Height parameters dicta...">
<polygon fill="white" stroke="#666666" points="524,-219 398,-219 398,-200 524,-200 524,-219"/>
<text text-anchor="middle" x="461" y="-207" font-family="Helvetica,sans-Serif" font-size="10.00">Terraria.Dust.NewDust</text>
</a>
</g>
</g>
<!-- Node8&#45;&gt;Node9 -->
<g id="edge9_Node000008_Node000009" class="edge">
<title>Node8&#45;&gt;Node9</title>
<g id="a_edge9_Node000008_Node000009"><a xlink:title=" ">
<path fill="none" stroke="#63b8ff" d="M315.67,-209.5C339.02,-209.5 364.6,-209.5 387.65,-209.5"/>
<polygon fill="#63b8ff" stroke="#63b8ff" points="387.71,-213 397.71,-209.5 387.71,-206 387.71,-213"/>
</a>
</g>
</g>
<!-- Node9&#45;&gt;Node10 -->
<g id="edge10_Node000009_Node000010" class="edge">
<title>Node9&#45;&gt;Node10</title>
<g id="a_edge10_Node000009_Node000010"><a xlink:title=" ">
<path fill="none" stroke="#63b8ff" d="M510.6,-219.04C538.58,-224.54 574.32,-231.55 605.84,-237.74"/>
<polygon fill="#63b8ff" stroke="#63b8ff" points="605.43,-241.23 615.91,-239.72 606.78,-234.36 605.43,-241.23"/>
</a>
</g>
</g>
<!-- Node12 -->
<g id="Node000012" class="node">
<title>Node12</title>
<g id="a_Node000012"><a xlink:href="../../df/dd6/classTerraria_1_1ModLoader_1_1DustLoader_a8374be843b9b2b0143bc000e8663d3ec.html#a8374be843b9b2b0143bc000e8663d3ec" target="_top" xlink:title=" ">
<polygon fill="white" stroke="#666666" points="767,-219.5 597,-219.5 597,-189.5 767,-189.5 767,-219.5"/>
<text text-anchor="start" x="605" y="-207.5" font-family="Helvetica,sans-Serif" font-size="10.00">Terraria.ModLoader.DustLoader.</text>
<text text-anchor="middle" x="682" y="-196.5" font-family="Helvetica,sans-Serif" font-size="10.00">SetupDust</text>
</a>
</g>
</g>
<!-- Node9&#45;&gt;Node12 -->
<g id="edge12_Node000009_Node000012" class="edge">
<title>Node9&#45;&gt;Node12</title>
<g id="a_edge12_Node000009_Node000012"><a xlink:title=" ">
<path fill="none" stroke="#63b8ff" d="M524.17,-208.08C543.71,-207.63 565.74,-207.13 586.98,-206.65"/>
<polygon fill="#63b8ff" stroke="#63b8ff" points="587.08,-210.15 597,-206.42 586.92,-203.15 587.08,-210.15"/>
</a>
</g>
</g>
<!-- Node14 -->
<g id="Node000014" class="node">
<title>Node14</title>
<g id="a_Node000014"><a xlink:href="../../de/d1d/classTerraria_1_1Collision_a1c65206ace403aa59afc32d20e5d282e.html#a1c65206ace403aa59afc32d20e5d282e" target="_top" xlink:title=" ">
<polygon fill="white" stroke="#666666" points="763,-171 601,-171 601,-152 763,-152 763,-171"/>
<text text-anchor="middle" x="682" y="-159" font-family="Helvetica,sans-Serif" font-size="10.00">Terraria.Collision.WetCollision</text>
</a>
</g>
</g>
<!-- Node9&#45;&gt;Node14 -->
<g id="edge14_Node000009_Node000014" class="edge">
<title>Node9&#45;&gt;Node14</title>
<g id="a_edge14_Node000009_Node000014"><a xlink:title=" ">
<path fill="none" stroke="#63b8ff" d="M515.86,-199.99C530.55,-197.17 546.43,-193.92 561,-190.5 577.17,-186.71 580.9,-184.56 597,-180.5 606.68,-178.06 617.02,-175.6 627.02,-173.3"/>
<polygon fill="#63b8ff" stroke="#63b8ff" points="627.9,-176.69 636.87,-171.06 626.35,-169.87 627.9,-176.69"/>
</a>
</g>
</g>
<!-- Node11 -->
<g id="Node000011" class="node">
<title>Node11</title>
<g id="a_Node000011"><a xlink:href="../../d9/db1/classTerraria_1_1Utilities_1_1UnifiedRandom_a173f09196ff526b107c0223c2d58c59a.html#a173f09196ff526b107c0223c2d58c59a" target="_top" xlink:title=" ">
<polygon fill="white" stroke="#666666" points="955,-267.5 821,-267.5 821,-237.5 955,-237.5 955,-267.5"/>
<text text-anchor="start" x="829" y="-255.5" font-family="Helvetica,sans-Serif" font-size="10.00">Terraria.Utilities.Unified</text>
<text text-anchor="middle" x="888" y="-244.5" font-family="Helvetica,sans-Serif" font-size="10.00">Random.InternalSample</text>
</a>
</g>
</g>
<!-- Node10&#45;&gt;Node11 -->
<g id="edge11_Node000010_Node000011" class="edge">
<title>Node10&#45;&gt;Node11</title>
<g id="a_edge11_Node000010_Node000011"><a xlink:title=" ">
<path fill="none" stroke="#63b8ff" d="M748.11,-252.5C767.96,-252.5 789.96,-252.5 810.5,-252.5"/>
<polygon fill="#63b8ff" stroke="#63b8ff" points="810.76,-256 820.76,-252.5 810.76,-249 810.76,-256"/>
</a>
</g>
</g>
<!-- Node13 -->
<g id="Node000013" class="node">
<title>Node13</title>
<g id="a_Node000013"><a xlink:href="../../df/dd6/classTerraria_1_1ModLoader_1_1DustLoader_a0cb616c3c6776d3bba899e7f1fb0e221.html#a0cb616c3c6776d3bba899e7f1fb0e221" target="_top" xlink:title="Gets the ModDust instance with the given type. Returns null if no ModDust with the given type exists.">
<polygon fill="white" stroke="#666666" points="973,-219.5 803,-219.5 803,-189.5 973,-189.5 973,-219.5"/>
<text text-anchor="start" x="811" y="-207.5" font-family="Helvetica,sans-Serif" font-size="10.00">Terraria.ModLoader.DustLoader.</text>
<text text-anchor="middle" x="888" y="-196.5" font-family="Helvetica,sans-Serif" font-size="10.00">GetDust</text>
</a>
</g>
</g>
<!-- Node12&#45;&gt;Node13 -->
<g id="edge13_Node000012_Node000013" class="edge">
<title>Node12&#45;&gt;Node13</title>
<g id="a_edge13_Node000012_Node000013"><a xlink:title=" ">
<path fill="none" stroke="#63b8ff" d="M767.15,-204.5C775.5,-204.5 784.02,-204.5 792.46,-204.5"/>
<polygon fill="#63b8ff" stroke="#63b8ff" points="792.71,-208 802.71,-204.5 792.71,-201 792.71,-208"/>
</a>
</g>
</g>
<!-- Node16 -->
<g id="Node000016" class="node">
<title>Node16</title>
<g id="a_Node000016"><a xlink:href="../../d3/d78/classTerraria_1_1Audio_1_1SoundEngine_af55950ae09b294fad1dd58e37fecf28b.html#af55950ae09b294fad1dd58e37fecf28b" target="_top" xlink:title="Attempts to play a sound style with the provided sound style (if it&#39;s not null), and returns a valid ...">
<polygon fill="white" stroke="#666666" points="537.5,-163.5 384.5,-163.5 384.5,-133.5 537.5,-133.5 537.5,-163.5"/>
<text text-anchor="start" x="392.5" y="-151.5" font-family="Helvetica,sans-Serif" font-size="10.00">Terraria.Audio.SoundEngine.</text>
<text text-anchor="middle" x="461" y="-140.5" font-family="Helvetica,sans-Serif" font-size="10.00">PlaySound</text>
</a>
</g>
</g>
<!-- Node15&#45;&gt;Node16 -->
<g id="edge17_Node000015_Node000016" class="edge">
<title>Node15&#45;&gt;Node16</title>
<g id="a_edge17_Node000015_Node000016"><a xlink:title=" ">
<path fill="none" stroke="#63b8ff" d="M314.75,-154.42C333.9,-153.64 354.6,-152.79 374.21,-151.99"/>
<polygon fill="#63b8ff" stroke="#63b8ff" points="374.5,-155.48 384.35,-151.58 374.22,-148.49 374.5,-155.48"/>
</a>
</g>
</g>
<!-- Node16&#45;&gt;Node16 -->
<g id="edge18_Node000016_Node000016" class="edge">
<title>Node16&#45;&gt;Node16</title>
<g id="a_edge18_Node000016_Node000016"><a xlink:title=" ">
<path fill="none" stroke="#63b8ff" d="M422.33,-163.78C413.73,-172.91 426.62,-181.5 461,-181.5 481.41,-181.5 494.25,-178.47 499.51,-174.1"/>
<polygon fill="#63b8ff" stroke="#63b8ff" points="503.01,-173.83 499.67,-163.78 496.01,-173.72 503.01,-173.83"/>
</a>
</g>
</g>
<!-- Node18 -->
<g id="Node000018" class="node">
<title>Node18</title>
<g id="a_Node000018"><a xlink:href="../../d6/dc6/structTerraria_1_1GameContent_1_1PlayerSittingHelper_a7033d8d348143933744d07414f183dea.html#a7033d8d348143933744d07414f183dea" target="_top" xlink:title=" ">
<polygon fill="white" stroke="#666666" points="550.5,-115.5 371.5,-115.5 371.5,-85.5 550.5,-85.5 550.5,-115.5"/>
<text text-anchor="start" x="379.5" y="-103.5" font-family="Helvetica,sans-Serif" font-size="10.00">Terraria.GameContent.Player</text>
<text text-anchor="middle" x="461" y="-92.5" font-family="Helvetica,sans-Serif" font-size="10.00">SittingHelper.GetSittingOffsetInfo</text>
</a>
</g>
</g>
<!-- Node17&#45;&gt;Node18 -->
<g id="edge20_Node000017_Node000018" class="edge">
<title>Node17&#45;&gt;Node18</title>
<g id="a_edge20_Node000017_Node000018"><a xlink:title=" ">
<path fill="none" stroke="#63b8ff" d="M322.24,-102.99C334.88,-102.76 348.04,-102.53 360.98,-102.29"/>
<polygon fill="#63b8ff" stroke="#63b8ff" points="361.37,-105.79 371.3,-102.11 361.24,-98.79 361.37,-105.79"/>
</a>
</g>
</g>
<!-- Node19 -->
<g id="Node000019" class="node">
<title>Node19</title>
<g id="a_Node000019"><a xlink:href="../../d2/d74/structTerraria_1_1GameContent_1_1PlayerSleepingHelper_af42474b2d26f9866f0f0c28f0df6f918.html#af42474b2d26f9866f0f0c28f0df6f918" target="_top" xlink:title=" ">
<polygon fill="white" stroke="#666666" points="561,-67.5 361,-67.5 361,-37.5 561,-37.5 561,-67.5"/>
<text text-anchor="start" x="369" y="-55.5" font-family="Helvetica,sans-Serif" font-size="10.00">Terraria.GameContent.Player</text>
<text text-anchor="middle" x="461" y="-44.5" font-family="Helvetica,sans-Serif" font-size="10.00">SleepingHelper.GetSleepingOffsetInfo</text>
</a>
</g>
</g>
<!-- Node17&#45;&gt;Node19 -->
<g id="edge21_Node000017_Node000019" class="edge">
<title>Node17&#45;&gt;Node19</title>
<g id="a_edge21_Node000017_Node000019"><a xlink:title=" ">
<path fill="none" stroke="#63b8ff" d="M302.92,-89.46C329.04,-83.32 359.4,-76.17 386.43,-69.81"/>
<polygon fill="#63b8ff" stroke="#63b8ff" points="387.29,-73.2 396.22,-67.51 385.69,-66.39 387.29,-73.2"/>
</a>
</g>
</g>
<!-- Node20 -->
<g id="Node000020" class="node">
<title>Node20</title>
<g id="a_Node000020"><a xlink:href="../../d1/d9c/classTerraria_1_1Utils_a89794e51eb6b0bd3f2b823efbf193fb3.html#a89794e51eb6b0bd3f2b823efbf193fb3" target="_top" xlink:title=" ">
<polygon fill="white" stroke="#666666" points="527.5,-19 394.5,-19 394.5,0 527.5,0 527.5,-19"/>
<text text-anchor="middle" x="461" y="-7" font-family="Helvetica,sans-Serif" font-size="10.00">Terraria.Utils.RotatedBy</text>
</a>
</g>
</g>
<!-- Node17&#45;&gt;Node20 -->
<g id="edge22_Node000017_Node000020" class="edge">
<title>Node17&#45;&gt;Node20</title>
<g id="a_edge22_Node000017_Node000020"><a xlink:title=" ">
<path fill="none" stroke="#63b8ff" d="M309.44,-89.36C314.93,-86.85 320.2,-83.92 325,-80.5 347.9,-64.2 337.45,-43.84 361,-28.5 368.17,-23.83 376.21,-20.25 384.52,-17.52"/>
<polygon fill="#63b8ff" stroke="#63b8ff" points="385.74,-20.81 394.38,-14.68 383.8,-14.08 385.74,-20.81"/>
</a>
</g>
</g>
</g>
</svg>
