<?xml version="1.0" encoding="UTF-8" standalone="no"?>
<!DOCTYPE svg PUBLIC "-//W3C//DTD SVG 1.1//EN"
 "http://www.w3.org/Graphics/SVG/1.1/DTD/svg11.dtd">
<!-- Generated by graphviz version 2.43.0 (0)
 -->
<!-- Title: Terraria.Projectile.AI_016 Pages: 1 -->
<!--zoomable 561 -->

<svg id="main" version="1.1" xmlns="http://www.w3.org/2000/svg" xmlns:xlink="http://www.w3.org/1999/xlink" xml:space="preserve" onload="init(evt)">
<style type="text/css"><![CDATA[
.node, .edge {opacity: 0.7;}
.node.selected, .edge.selected {opacity: 1;}
.edge:hover path { stroke: red; }
.edge:hover polygon { stroke: red; fill: red; }
]]></style>

<defs>
  <circle id="rim" cx="0" cy="0" r="7"/>
  <circle id="rim2" cx="0" cy="0" r="3.5"/>
  <g id="zoomPlus">
    <use xlink:href="#rim" fill="#404040"><set attributeName="fill" to="#808080" begin="zoomplus.mouseover" end="zoomplus.mouseout"/></use>
    <path d="M-4,0h8M0,-4v8" fill="none" stroke="white" stroke-width="1.5" pointer-events="none"/>
  </g>
  <g id="zoomMin">
    <use xlink:href="#rim" fill="#404040"><set attributeName="fill" to="#808080" begin="zoomminus.mouseover" end="zoomminus.mouseout"/></use>
    <path d="M-4,0h8" fill="none" stroke="white" stroke-width="1.5" pointer-events="none"/>
  </g>
  <g id="arrowUp" transform="translate(30 24)">
    <use xlink:href="#rim"/>
    <path pointer-events="none" fill="none" stroke="white" stroke-width="1.5" d="M0,-3.0v7 M-2.5,-0.5L0,-3.0L2.5,-0.5"/>
  </g>
  <g id="arrowRight" transform="rotate(90) translate(36 -43)">
    <use xlink:href="#rim"/>
    <path pointer-events="none" fill="none" stroke="white" stroke-width="1.5" d="M0,-3.0v7 M-2.5,-0.5L0,-3.0L2.5,-0.5"/>
  </g>
  <g id="arrowDown" transform="rotate(180) translate(-30 -48)">
    <use xlink:href="#rim"/>
    <path pointer-events="none" fill="none" stroke="white" stroke-width="1.5" d="M0,-3.0v7 M-2.5,-0.5L0,-3.0L2.5,-0.5"/>
  </g>
  <g id="arrowLeft" transform="rotate(270) translate(-36 17)">
    <use xlink:href="#rim"/>
    <path pointer-events="none" fill="none" stroke="white" stroke-width="1.5" d="M0,-3.0v7 M-2.5,-0.5L0,-3.0L2.5,-0.5"/>
  </g>
  <g id="resetDef">
    <use xlink:href="#rim2" fill="#404040"><set attributeName="fill" to="#808080" begin="reset.mouseover" end="reset.mouseout"/></use>
  </g>
</defs>
<script type="application/ecmascript">
var viewWidth = 917;
var viewHeight = 561;
var sectionId = 'dynsection-0';
</script>
<script type="application/ecmascript" xlink:href="../../svg.min.js"/>
<svg id="graph" class="graph">
<g id="viewport">
<title>Terraria.Projectile.AI_016</title>
<!-- Node1 -->
<g id="Node000001" class="node">
<title>Node1</title>
<g id="a_Node000001"><a xlink:title=" ">
<polygon fill="#999999" stroke="#666666" points="138,-279 0,-279 0,-260 138,-260 138,-279"/>
<text text-anchor="middle" x="69" y="-267" font-family="Helvetica,sans-Serif" font-size="10.00">Terraria.Projectile.AI_016</text>
</a>
</g>
</g>
<!-- Node2 -->
<g id="Node000002" class="node">
<title>Node2</title>
<g id="a_Node000002"><a xlink:href="../../d6/d21/structTerraria_1_1Tile_a9a3f37926e6d7f23ba057d6c0aeab1a5.html#a9a3f37926e6d7f23ba057d6c0aeab1a5" target="_top" xlink:title="Legacy code, use P:Terraria.Tile.HasTile instead.">
<polygon fill="white" stroke="#666666" points="487.5,-436 380.5,-436 380.5,-417 487.5,-417 487.5,-436"/>
<text text-anchor="middle" x="434" y="-424" font-family="Helvetica,sans-Serif" font-size="10.00">Terraria.Tile.active</text>
</a>
</g>
</g>
<!-- Node1&#45;&gt;Node2 -->
<g id="edge1_Node000001_Node000002" class="edge">
<title>Node1&#45;&gt;Node2</title>
<g id="a_edge1_Node000001_Node000002"><a xlink:title=" ">
<path fill="none" stroke="#63b8ff" d="M70.33,-279.03C72.25,-318.22 85.34,-467.65 174,-527.5 233.31,-567.54 269.1,-555.38 335,-527.5 374.73,-510.69 406.27,-469.02 422.02,-444.78"/>
<polygon fill="#63b8ff" stroke="#63b8ff" points="425.09,-446.48 427.44,-436.15 419.16,-442.76 425.09,-446.48"/>
</a>
</g>
</g>
<!-- Node3 -->
<g id="Node000003" class="node">
<title>Node3</title>
<g id="a_Node000003"><a xlink:href="../../df/d0d/classTerraria_1_1NPC_a88fb04cefeb3d121612538889bd56102.html#a88fb04cefeb3d121612538889bd56102" target="_top" xlink:title=" ">
<polygon fill="white" stroke="#666666" points="334.5,-518 174.5,-518 174.5,-499 334.5,-499 334.5,-518"/>
<text text-anchor="middle" x="254.5" y="-506" font-family="Helvetica,sans-Serif" font-size="10.00">Terraria.NPC.CanBeChasedBy</text>
</a>
</g>
</g>
<!-- Node1&#45;&gt;Node3 -->
<g id="edge2_Node000001_Node000003" class="edge">
<title>Node1&#45;&gt;Node3</title>
<g id="a_edge2_Node000001_Node000003"><a xlink:title=" ">
<path fill="none" stroke="#63b8ff" d="M71.51,-279.31C77.42,-314.15 102.27,-432.87 174,-490.5 175.57,-491.76 177.22,-492.94 178.92,-494.04"/>
<polygon fill="#63b8ff" stroke="#63b8ff" points="177.4,-497.2 187.86,-498.9 180.74,-491.05 177.4,-497.2"/>
</a>
</g>
</g>
<!-- Node4 -->
<g id="Node000004" class="node">
<title>Node4</title>
<g id="a_Node000004"><a xlink:href="../../de/d1d/classTerraria_1_1Collision_a034b07537f9fbe3ac9b208ce884d2d16.html#a034b07537f9fbe3ac9b208ce884d2d16" target="_top" xlink:title=" ">
<polygon fill="white" stroke="#666666" points="321.5,-463 187.5,-463 187.5,-444 321.5,-444 321.5,-463"/>
<text text-anchor="middle" x="254.5" y="-451" font-family="Helvetica,sans-Serif" font-size="10.00">Terraria.Collision.CanHit</text>
</a>
</g>
</g>
<!-- Node1&#45;&gt;Node4 -->
<g id="edge3_Node000001_Node000004" class="edge">
<title>Node1&#45;&gt;Node4</title>
<g id="a_edge3_Node000001_Node000004"><a xlink:title=" ">
<path fill="none" stroke="#63b8ff" d="M73.09,-279.24C82.77,-308.14 115.47,-393.99 174,-435.5 175.92,-436.86 177.93,-438.13 180.01,-439.29"/>
<polygon fill="#63b8ff" stroke="#63b8ff" points="178.95,-442.67 189.48,-443.84 181.98,-436.36 178.95,-442.67"/>
</a>
</g>
</g>
<!-- Node5 -->
<g id="Node000005" class="node">
<title>Node5</title>
<g id="a_Node000005"><a xlink:href="../../dc/de5/classTerraria_1_1Dust_a66a210f6393d4cdbd9f383c494cdec25.html#a66a210f6393d4cdbd9f383c494cdec25" target="_top" xlink:title=" ">
<polygon fill="white" stroke="#666666" points="320,-426 189,-426 189,-407 320,-407 320,-426"/>
<text text-anchor="middle" x="254.5" y="-414" font-family="Helvetica,sans-Serif" font-size="10.00">Terraria.Dust.dustWater</text>
</a>
</g>
</g>
<!-- Node1&#45;&gt;Node5 -->
<g id="edge5_Node000001_Node000005" class="edge">
<title>Node1&#45;&gt;Node5</title>
<g id="a_edge5_Node000001_Node000005"><a xlink:title=" ">
<path fill="none" stroke="#63b8ff" d="M75.01,-279.35C87.87,-303.58 124.56,-366.4 174,-397.5 177.35,-399.61 180.91,-401.48 184.61,-403.15"/>
<polygon fill="#63b8ff" stroke="#63b8ff" points="183.41,-406.44 193.99,-406.88 185.99,-399.93 183.41,-406.44"/>
</a>
</g>
</g>
<!-- Node6 -->
<g id="Node000006" class="node">
<title>Node6</title>
<g id="a_Node000006"><a xlink:href="../../dc/dd7/classTerraria_1_1Framing_adf8f859033cd5cb805b13aad59a55236.html#adf8f859033cd5cb805b13aad59a55236" target="_top" xlink:title=" ">
<polygon fill="white" stroke="#666666" points="321.5,-370.5 187.5,-370.5 187.5,-340.5 321.5,-340.5 321.5,-370.5"/>
<text text-anchor="start" x="195.5" y="-358.5" font-family="Helvetica,sans-Serif" font-size="10.00">Terraria.Framing.GetTile</text>
<text text-anchor="middle" x="254.5" y="-347.5" font-family="Helvetica,sans-Serif" font-size="10.00">Safely</text>
</a>
</g>
</g>
<!-- Node1&#45;&gt;Node6 -->
<g id="edge6_Node000001_Node000006" class="edge">
<title>Node1&#45;&gt;Node6</title>
<g id="a_edge6_Node000001_Node000006"><a xlink:title=" ">
<path fill="none" stroke="#63b8ff" d="M83.55,-279.05C102.86,-292.32 139.77,-316.4 174,-331.5 178.39,-333.43 182.97,-335.27 187.64,-337"/>
<polygon fill="#63b8ff" stroke="#63b8ff" points="186.68,-340.38 197.27,-340.41 189.01,-333.78 186.68,-340.38"/>
</a>
</g>
</g>
<!-- Node7 -->
<g id="Node000007" class="node">
<title>Node7</title>
<g id="a_Node000007"><a xlink:href="../../de/da1/classTerraria_1_1WorldGen_adf59bfc3a2909993f72f0c69a5eaf553.html#adf59bfc3a2909993f72f0c69a5eaf553" target="_top" xlink:title=" ">
<polygon fill="white" stroke="#666666" points="326,-322 183,-322 183,-303 326,-303 326,-322"/>
<text text-anchor="middle" x="254.5" y="-310" font-family="Helvetica,sans-Serif" font-size="10.00">Terraria.WorldGen.InWorld</text>
</a>
</g>
</g>
<!-- Node1&#45;&gt;Node7 -->
<g id="edge8_Node000001_Node000007" class="edge">
<title>Node1&#45;&gt;Node7</title>
<g id="a_edge8_Node000001_Node000007"><a xlink:title=" ">
<path fill="none" stroke="#63b8ff" d="M110.72,-279.04C137.93,-285.42 173.9,-293.85 202.94,-300.65"/>
<polygon fill="#63b8ff" stroke="#63b8ff" points="202.35,-304.11 212.89,-302.98 203.95,-297.29 202.35,-304.11"/>
</a>
</g>
</g>
<!-- Node8 -->
<g id="Node000008" class="node">
<title>Node8</title>
<g id="a_Node000008"><a xlink:href="../../dc/de5/classTerraria_1_1Dust_a977a36a9376966862406a3094e3b70ab.html#a977a36a9376966862406a3094e3b70ab" target="_top" xlink:title="Attempts to spawn a single Dust into the game world. The Position, Width, and Height parameters dicta...">
<polygon fill="white" stroke="#666666" points="497,-168 371,-168 371,-149 497,-149 497,-168"/>
<text text-anchor="middle" x="434" y="-156" font-family="Helvetica,sans-Serif" font-size="10.00">Terraria.Dust.NewDust</text>
</a>
</g>
</g>
<!-- Node1&#45;&gt;Node8 -->
<g id="edge9_Node000001_Node000008" class="edge">
<title>Node1&#45;&gt;Node8</title>
<g id="a_edge9_Node000001_Node000008"><a xlink:title=" ">
<path fill="none" stroke="#63b8ff" d="M84.16,-259.95C103.6,-247.28 140,-225.04 174,-212.5 235.13,-189.95 308.04,-175.81 360.91,-167.68"/>
<polygon fill="#63b8ff" stroke="#63b8ff" points="361.5,-171.13 370.87,-166.18 360.46,-164.21 361.5,-171.13"/>
</a>
</g>
</g>
<!-- Node9 -->
<g id="Node000009" class="node">
<title>Node9</title>
<g id="a_Node000009"><a xlink:href="../../d9/db1/classTerraria_1_1Utilities_1_1UnifiedRandom_ac4ecc6320b69ab939b9c45eaf7d89000.html#ac4ecc6320b69ab939b9c45eaf7d89000" target="_top" xlink:title=" ">
<polygon fill="white" stroke="#666666" points="684,-237.5 552,-237.5 552,-207.5 684,-207.5 684,-237.5"/>
<text text-anchor="start" x="560" y="-225.5" font-family="Helvetica,sans-Serif" font-size="10.00">Terraria.Utilities.Unified</text>
<text text-anchor="middle" x="618" y="-214.5" font-family="Helvetica,sans-Serif" font-size="10.00">Random.Next</text>
</a>
</g>
</g>
<!-- Node1&#45;&gt;Node9 -->
<g id="edge19_Node000001_Node000009" class="edge">
<title>Node1&#45;&gt;Node9</title>
<g id="a_edge19_Node000001_Node000009"><a xlink:title=" ">
<path fill="none" stroke="#63b8ff" d="M104.38,-259.97C124.51,-254.79 150.51,-248.79 174,-245.5 302.2,-227.52 453.04,-223.24 541.52,-222.41"/>
<polygon fill="#63b8ff" stroke="#63b8ff" points="541.76,-225.91 551.73,-222.33 541.7,-218.91 541.76,-225.91"/>
</a>
</g>
</g>
<!-- Node14 -->
<g id="Node000014" class="node">
<title>Node14</title>
<g id="a_Node000014"><a xlink:href="../../dc/de5/classTerraria_1_1Dust_acb51111c9d1ff81d2e7f55da6ff8831f.html#acb51111c9d1ff81d2e7f55da6ff8831f" target="_top" xlink:title=" ">
<polygon fill="white" stroke="#666666" points="332,-160 177,-160 177,-141 332,-141 332,-160"/>
<text text-anchor="middle" x="254.5" y="-148" font-family="Helvetica,sans-Serif" font-size="10.00">Terraria.Dust.NewDustDirect</text>
</a>
</g>
</g>
<!-- Node1&#45;&gt;Node14 -->
<g id="edge15_Node000001_Node000014" class="edge">
<title>Node1&#45;&gt;Node14</title>
<g id="a_edge15_Node000001_Node000014"><a xlink:title=" ">
<path fill="none" stroke="#63b8ff" d="M77.84,-259.9C93.9,-240.85 132.54,-198.06 174,-174.5 181.92,-170 190.77,-166.26 199.61,-163.18"/>
<polygon fill="#63b8ff" stroke="#63b8ff" points="200.71,-166.5 209.15,-160.09 198.56,-159.84 200.71,-166.5"/>
</a>
</g>
</g>
<!-- Node15 -->
<g id="Node000015" class="node">
<title>Node15</title>
<g id="a_Node000015"><a xlink:href="../../dc/de5/classTerraria_1_1Dust_ac85a67b8ea46324cf328fbf3b3e227a2.html#ac85a67b8ea46324cf328fbf3b3e227a2" target="_top" xlink:title="Attempts to spawn a single Dust into the game world. Position &#160;indicates the spawn position and Veloc...">
<polygon fill="white" stroke="#666666" points="335,-19 174,-19 174,0 335,0 335,-19"/>
<text text-anchor="middle" x="254.5" y="-7" font-family="Helvetica,sans-Serif" font-size="10.00">Terraria.Dust.NewDustPerfect</text>
</a>
</g>
</g>
<!-- Node1&#45;&gt;Node15 -->
<g id="edge17_Node000001_Node000015" class="edge">
<title>Node1&#45;&gt;Node15</title>
<g id="a_edge17_Node000001_Node000015"><a xlink:title=" ">
<path fill="none" stroke="#63b8ff" d="M71.06,-259.81C75.63,-223.11 97,-91.54 174,-27.5 175.38,-26.35 176.83,-25.27 178.32,-24.25"/>
<polygon fill="#63b8ff" stroke="#63b8ff" points="180.37,-27.11 187.34,-19.13 176.92,-21.02 180.37,-27.11"/>
</a>
</g>
</g>
<!-- Node16 -->
<g id="Node000016" class="node">
<title>Node16</title>
<g id="a_Node000016"><a xlink:href="../../d3/d78/classTerraria_1_1Audio_1_1SoundEngine_af55950ae09b294fad1dd58e37fecf28b.html#af55950ae09b294fad1dd58e37fecf28b" target="_top" xlink:title="Attempts to play a sound style with the provided sound style (if it&#39;s not null), and returns a valid ...">
<polygon fill="white" stroke="#666666" points="331,-104.5 178,-104.5 178,-74.5 331,-74.5 331,-104.5"/>
<text text-anchor="start" x="186" y="-92.5" font-family="Helvetica,sans-Serif" font-size="10.00">Terraria.Audio.SoundEngine.</text>
<text text-anchor="middle" x="254.5" y="-81.5" font-family="Helvetica,sans-Serif" font-size="10.00">PlaySound</text>
</a>
</g>
</g>
<!-- Node1&#45;&gt;Node16 -->
<g id="edge20_Node000001_Node000016" class="edge">
<title>Node1&#45;&gt;Node16</title>
<g id="a_edge20_Node000001_Node000016"><a xlink:title=" ">
<path fill="none" stroke="#63b8ff" d="M75.4,-259.75C89.17,-235.6 127.75,-172.15 174,-132.5 184.44,-123.55 197.06,-115.69 209.13,-109.22"/>
<polygon fill="#63b8ff" stroke="#63b8ff" points="210.92,-112.23 218.21,-104.54 207.71,-106.01 210.92,-112.23"/>
</a>
</g>
</g>
<!-- Node17 -->
<g id="Node000017" class="node">
<title>Node17</title>
<g id="a_Node000017"><a xlink:href="../../d1/d9c/classTerraria_1_1Utils_a89794e51eb6b0bd3f2b823efbf193fb3.html#a89794e51eb6b0bd3f2b823efbf193fb3" target="_top" xlink:title=" ">
<polygon fill="white" stroke="#666666" points="321,-56 188,-56 188,-37 321,-37 321,-56"/>
<text text-anchor="middle" x="254.5" y="-44" font-family="Helvetica,sans-Serif" font-size="10.00">Terraria.Utils.RotatedBy</text>
</a>
</g>
</g>
<!-- Node1&#45;&gt;Node17 -->
<g id="edge22_Node000001_Node000017" class="edge">
<title>Node1&#45;&gt;Node17</title>
<g id="a_edge22_Node000001_Node000017"><a xlink:title=" ">
<path fill="none" stroke="#63b8ff" d="M71.98,-259.55C79.13,-226.32 106.85,-118.37 174,-65.5 176.3,-63.69 178.74,-62.05 181.3,-60.56"/>
<polygon fill="#63b8ff" stroke="#63b8ff" points="182.94,-63.65 190.33,-56.06 179.82,-57.38 182.94,-63.65"/>
</a>
</g>
</g>
<!-- Node18 -->
<g id="Node000018" class="node">
<title>Node18</title>
<g id="a_Node000018"><a xlink:href="../../de/da1/classTerraria_1_1WorldGen_afaddd88e31ca4f3c708ff2e806929408.html#afaddd88e31ca4f3c708ff2e806929408" target="_top" xlink:title=" ">
<polygon fill="white" stroke="#666666" points="325.5,-284.5 183.5,-284.5 183.5,-254.5 325.5,-254.5 325.5,-284.5"/>
<text text-anchor="start" x="191.5" y="-272.5" font-family="Helvetica,sans-Serif" font-size="10.00">Terraria.WorldGen.SolidOr</text>
<text text-anchor="middle" x="254.5" y="-261.5" font-family="Helvetica,sans-Serif" font-size="10.00">SlopedTile</text>
</a>
</g>
</g>
<!-- Node1&#45;&gt;Node18 -->
<g id="edge23_Node000001_Node000018" class="edge">
<title>Node1&#45;&gt;Node18</title>
<g id="a_edge23_Node000001_Node000018"><a xlink:title=" ">
<path fill="none" stroke="#63b8ff" d="M138.07,-269.5C149.51,-269.5 161.47,-269.5 173.19,-269.5"/>
<polygon fill="#63b8ff" stroke="#63b8ff" points="173.39,-273 183.39,-269.5 173.39,-266 173.39,-273"/>
</a>
</g>
</g>
<!-- Node4&#45;&gt;Node4 -->
<g id="edge4_Node000004_Node000004" class="edge">
<title>Node4&#45;&gt;Node4</title>
<g id="a_edge4_Node000004_Node000004"><a xlink:title=" ">
<path fill="none" stroke="#63b8ff" d="M227.07,-463.08C213.72,-471.73 222.86,-481 254.5,-481 275.76,-481 286.86,-476.82 287.81,-471.45"/>
<polygon fill="#63b8ff" stroke="#63b8ff" points="290.55,-469.26 281.93,-463.08 284.82,-473.28 290.55,-469.26"/>
</a>
</g>
</g>
<!-- Node6&#45;&gt;Node6 -->
<g id="edge7_Node000006_Node000006" class="edge">
<title>Node6&#45;&gt;Node6</title>
<g id="a_edge7_Node000006_Node000006"><a xlink:title=" ">
<path fill="none" stroke="#63b8ff" d="M223.21,-370.78C216.26,-379.91 226.69,-388.5 254.5,-388.5 271.01,-388.5 281.4,-385.47 285.66,-381.1"/>
<polygon fill="#63b8ff" stroke="#63b8ff" points="289.16,-380.82 285.79,-370.78 282.16,-380.73 289.16,-380.82"/>
</a>
</g>
</g>
<!-- Node8&#45;&gt;Node9 -->
<g id="edge10_Node000008_Node000009" class="edge">
<title>Node8&#45;&gt;Node9</title>
<g id="a_edge10_Node000008_Node000009"><a xlink:title=" ">
<path fill="none" stroke="#63b8ff" d="M462.25,-168.08C489.23,-177.57 531.25,-192.35 564.7,-204.11"/>
<polygon fill="#63b8ff" stroke="#63b8ff" points="563.74,-207.48 574.33,-207.5 566.06,-200.88 563.74,-207.48"/>
</a>
</g>
</g>
<!-- Node11 -->
<g id="Node000011" class="node">
<title>Node11</title>
<g id="a_Node000011"><a xlink:href="../../df/dd6/classTerraria_1_1ModLoader_1_1DustLoader_a8374be843b9b2b0143bc000e8663d3ec.html#a8374be843b9b2b0143bc000e8663d3ec" target="_top" xlink:title=" ">
<polygon fill="white" stroke="#666666" points="703,-135.5 533,-135.5 533,-105.5 703,-105.5 703,-135.5"/>
<text text-anchor="start" x="541" y="-123.5" font-family="Helvetica,sans-Serif" font-size="10.00">Terraria.ModLoader.DustLoader.</text>
<text text-anchor="middle" x="618" y="-112.5" font-family="Helvetica,sans-Serif" font-size="10.00">SetupDust</text>
</a>
</g>
</g>
<!-- Node8&#45;&gt;Node11 -->
<g id="edge12_Node000008_Node000011" class="edge">
<title>Node8&#45;&gt;Node11</title>
<g id="a_edge12_Node000008_Node000011"><a xlink:title=" ">
<path fill="none" stroke="#63b8ff" d="M480.93,-148.91C497.35,-145.48 516.4,-141.51 534.94,-137.63"/>
<polygon fill="#63b8ff" stroke="#63b8ff" points="535.8,-141.03 544.87,-135.56 534.37,-134.18 535.8,-141.03"/>
</a>
</g>
</g>
<!-- Node13 -->
<g id="Node000013" class="node">
<title>Node13</title>
<g id="a_Node000013"><a xlink:href="../../de/d1d/classTerraria_1_1Collision_a1c65206ace403aa59afc32d20e5d282e.html#a1c65206ace403aa59afc32d20e5d282e" target="_top" xlink:title=" ">
<polygon fill="white" stroke="#666666" points="699,-173 537,-173 537,-154 699,-154 699,-173"/>
<text text-anchor="middle" x="618" y="-161" font-family="Helvetica,sans-Serif" font-size="10.00">Terraria.Collision.WetCollision</text>
</a>
</g>
</g>
<!-- Node8&#45;&gt;Node13 -->
<g id="edge14_Node000008_Node000013" class="edge">
<title>Node8&#45;&gt;Node13</title>
<g id="a_edge14_Node000008_Node000013"><a xlink:title=" ">
<path fill="none" stroke="#63b8ff" d="M497.13,-160.21C506.7,-160.47 516.75,-160.75 526.79,-161.02"/>
<polygon fill="#63b8ff" stroke="#63b8ff" points="526.72,-164.52 536.81,-161.3 526.91,-157.52 526.72,-164.52"/>
</a>
</g>
</g>
<!-- Node10 -->
<g id="Node000010" class="node">
<title>Node10</title>
<g id="a_Node000010"><a xlink:href="../../d9/db1/classTerraria_1_1Utilities_1_1UnifiedRandom_a173f09196ff526b107c0223c2d58c59a.html#a173f09196ff526b107c0223c2d58c59a" target="_top" xlink:title=" ">
<polygon fill="white" stroke="#666666" points="891,-237.5 757,-237.5 757,-207.5 891,-207.5 891,-237.5"/>
<text text-anchor="start" x="765" y="-225.5" font-family="Helvetica,sans-Serif" font-size="10.00">Terraria.Utilities.Unified</text>
<text text-anchor="middle" x="824" y="-214.5" font-family="Helvetica,sans-Serif" font-size="10.00">Random.InternalSample</text>
</a>
</g>
</g>
<!-- Node9&#45;&gt;Node10 -->
<g id="edge11_Node000009_Node000010" class="edge">
<title>Node9&#45;&gt;Node10</title>
<g id="a_edge11_Node000009_Node000010"><a xlink:title=" ">
<path fill="none" stroke="#63b8ff" d="M684.11,-222.5C703.96,-222.5 725.96,-222.5 746.5,-222.5"/>
<polygon fill="#63b8ff" stroke="#63b8ff" points="746.76,-226 756.76,-222.5 746.76,-219 746.76,-226"/>
</a>
</g>
</g>
<!-- Node12 -->
<g id="Node000012" class="node">
<title>Node12</title>
<g id="a_Node000012"><a xlink:href="../../df/dd6/classTerraria_1_1ModLoader_1_1DustLoader_a0cb616c3c6776d3bba899e7f1fb0e221.html#a0cb616c3c6776d3bba899e7f1fb0e221" target="_top" xlink:title="Gets the ModDust instance with the given type. Returns null if no ModDust with the given type exists.">
<polygon fill="white" stroke="#666666" points="909,-135.5 739,-135.5 739,-105.5 909,-105.5 909,-135.5"/>
<text text-anchor="start" x="747" y="-123.5" font-family="Helvetica,sans-Serif" font-size="10.00">Terraria.ModLoader.DustLoader.</text>
<text text-anchor="middle" x="824" y="-112.5" font-family="Helvetica,sans-Serif" font-size="10.00">GetDust</text>
</a>
</g>
</g>
<!-- Node11&#45;&gt;Node12 -->
<g id="edge13_Node000011_Node000012" class="edge">
<title>Node11&#45;&gt;Node12</title>
<g id="a_edge13_Node000011_Node000012"><a xlink:title=" ">
<path fill="none" stroke="#63b8ff" d="M703.15,-120.5C711.5,-120.5 720.02,-120.5 728.46,-120.5"/>
<polygon fill="#63b8ff" stroke="#63b8ff" points="728.71,-124 738.71,-120.5 728.71,-117 728.71,-124"/>
</a>
</g>
</g>
<!-- Node14&#45;&gt;Node8 -->
<g id="edge16_Node000014_Node000008" class="edge">
<title>Node14&#45;&gt;Node8</title>
<g id="a_edge16_Node000014_Node000008"><a xlink:title=" ">
<path fill="none" stroke="#63b8ff" d="M332.06,-153.95C341.57,-154.38 351.27,-154.82 360.71,-155.24"/>
<polygon fill="#63b8ff" stroke="#63b8ff" points="360.69,-158.74 370.84,-155.7 361,-151.75 360.69,-158.74"/>
</a>
</g>
</g>
<!-- Node15&#45;&gt;Node8 -->
<g id="edge18_Node000015_Node000008" class="edge">
<title>Node15&#45;&gt;Node8</title>
<g id="a_edge18_Node000015_Node000008"><a xlink:title=" ">
<path fill="none" stroke="#63b8ff" d="M318.02,-19.11C324,-21.35 329.78,-24.11 335,-27.5 378.69,-55.85 410.07,-110.8 424.36,-139.7"/>
<polygon fill="#63b8ff" stroke="#63b8ff" points="421.22,-141.24 428.7,-148.75 427.53,-138.22 421.22,-141.24"/>
</a>
</g>
</g>
<!-- Node16&#45;&gt;Node16 -->
<g id="edge21_Node000016_Node000016" class="edge">
<title>Node16&#45;&gt;Node16</title>
<g id="a_edge21_Node000016_Node000016"><a xlink:title=" ">
<path fill="none" stroke="#63b8ff" d="M223.21,-104.78C216.26,-113.91 226.69,-122.5 254.5,-122.5 271.01,-122.5 281.4,-119.47 285.66,-115.1"/>
<polygon fill="#63b8ff" stroke="#63b8ff" points="289.16,-114.82 285.79,-104.78 282.16,-114.73 289.16,-114.82"/>
</a>
</g>
</g>
<!-- Node18&#45;&gt;Node2 -->
<g id="edge24_Node000018_Node000002" class="edge">
<title>Node18&#45;&gt;Node2</title>
<g id="a_edge24_Node000018_Node000002"><a xlink:title=" ">
<path fill="none" stroke="#63b8ff" d="M317.27,-284.58C323.54,-287.36 329.58,-290.64 335,-294.5 377.46,-324.71 409.2,-378.97 423.92,-407.61"/>
<polygon fill="#63b8ff" stroke="#63b8ff" points="420.96,-409.52 428.56,-416.91 427.23,-406.4 420.96,-409.52"/>
</a>
</g>
</g>
<!-- Node19 -->
<g id="Node000019" class="node">
<title>Node19</title>
<g id="a_Node000019"><a xlink:href="../../d6/d21/structTerraria_1_1Tile_a68f45508d63b5e1bac9a703a1a99853b.html#a68f45508d63b5e1bac9a703a1a99853b" target="_top" xlink:title="Legacy code, use P:Terraria.Tile.IsActuated instead.">
<polygon fill="white" stroke="#666666" points="492.5,-279 375.5,-279 375.5,-260 492.5,-260 492.5,-279"/>
<text text-anchor="middle" x="434" y="-267" font-family="Helvetica,sans-Serif" font-size="10.00">Terraria.Tile.inActive</text>
</a>
</g>
</g>
<!-- Node18&#45;&gt;Node19 -->
<g id="edge25_Node000018_Node000019" class="edge">
<title>Node18&#45;&gt;Node19</title>
<g id="a_edge25_Node000018_Node000019"><a xlink:title=" ">
<path fill="none" stroke="#63b8ff" d="M325.65,-269.5C338.65,-269.5 352.21,-269.5 365.14,-269.5"/>
<polygon fill="#63b8ff" stroke="#63b8ff" points="365.35,-273 375.35,-269.5 365.35,-266 365.35,-273"/>
</a>
</g>
</g>
</g>
</svg>

<g id="navigator" transform="translate(0 0)" fill="#404254">
  <rect fill="#f2f5e9" fill-opacity="0.5" stroke="#606060" stroke-width=".5" x="0" y="0" width="60" height="60"/>
  <use id="zoomplus" xlink:href="#zoomPlus" x="17" y="9" onmousedown="handleZoom(evt,'in')"/>
  <use id="zoomminus" xlink:href="#zoomMin" x="42" y="9" onmousedown="handleZoom(evt,'out')"/>
  <use id="reset" xlink:href="#resetDef" x="30" y="36" onmousedown="handleReset()"/>
   <use id="arrowup" xlink:href="#arrowUp" x="0" y="0" onmousedown="handlePan(0,-1)"/>
  <use id="arrowright" xlink:href="#arrowRight" x="0" y="0" onmousedown="handlePan(1,0)"/>
  <use id="arrowdown" xlink:href="#arrowDown" x="0" y="0" onmousedown="handlePan(0,1)"/>
  <use id="arrowleft" xlink:href="#arrowLeft" x="0" y="0" onmousedown="handlePan(-1,0)"/>
</g>
<svg viewBox="0 0 15 15" width="100%" height="30px" preserveAspectRatio="xMaxYMin meet">
 <g id="arrow_out" transform="scale(0.3 0.3)">
  <a xlink:href="classTerraria_1_1Projectile_ac24d22e59810ec5f80bc58232bf0c8ee_ac24d22e59810ec5f80bc58232bf0c8ee_cgraph_org.svg" target="_base">
   <rect id="button" ry="5" rx="5" y="6" x="6" height="38" width="38"
        fill="#f2f5e9" fill-opacity="0.5" stroke="#606060" stroke-width="1.0"/>
   <path id="arrow"
     d="M 11.500037,31.436501 C 11.940474,20.09759 22.043105,11.32322 32.158766,21.979434 L 37.068811,17.246167 C 37.068811,17.246167 37.088388,32 37.088388,32 L 22.160133,31.978069 C 22.160133,31.978069 26.997745,27.140456 26.997745,27.140456 C 18.528582,18.264221 13.291696,25.230495 11.500037,31.436501 z"
     style="fill:#404040;"/>
  </a>
 </g>
</svg>

<style type='text/css'>
<![CDATA[
[data-mouse-over-selected='false'] { opacity: 0.7; }
[data-mouse-over-selected='true']  { opacity: 1.0; }
]]>
</style>
<script type="application/ecmascript"><![CDATA[
document.addEventListener('DOMContentLoaded', (event) => {
  highlightEdges();
  highlightAdjacentNodes();
});
]]></script>
</svg>
