<?xml version="1.0" encoding="UTF-8" standalone="no"?>
<!DOCTYPE svg PUBLIC "-//W3C//DTD SVG 1.1//EN"
 "http://www.w3.org/Graphics/SVG/1.1/DTD/svg11.dtd">
<!-- Generated by graphviz version 2.43.0 (0)
 -->
<!-- Title: Terraria.Projectile.FillWhipControlPoints Pages: 1 -->
<!--zoomable 124 -->

<svg id="main" version="1.1" xmlns="http://www.w3.org/2000/svg" xmlns:xlink="http://www.w3.org/1999/xlink" xml:space="preserve" onload="init(evt)">
<style type="text/css"><![CDATA[
.node, .edge {opacity: 0.7;}
.node.selected, .edge.selected {opacity: 1;}
.edge:hover path { stroke: red; }
.edge:hover polygon { stroke: red; fill: red; }
]]></style>

<defs>
  <circle id="rim" cx="0" cy="0" r="7"/>
  <circle id="rim2" cx="0" cy="0" r="3.5"/>
  <g id="zoomPlus">
    <use xlink:href="#rim" fill="#404040"><set attributeName="fill" to="#808080" begin="zoomplus.mouseover" end="zoomplus.mouseout"/></use>
    <path d="M-4,0h8M0,-4v8" fill="none" stroke="white" stroke-width="1.5" pointer-events="none"/>
  </g>
  <g id="zoomMin">
    <use xlink:href="#rim" fill="#404040"><set attributeName="fill" to="#808080" begin="zoomminus.mouseover" end="zoomminus.mouseout"/></use>
    <path d="M-4,0h8" fill="none" stroke="white" stroke-width="1.5" pointer-events="none"/>
  </g>
  <g id="arrowUp" transform="translate(30 24)">
    <use xlink:href="#rim"/>
    <path pointer-events="none" fill="none" stroke="white" stroke-width="1.5" d="M0,-3.0v7 M-2.5,-0.5L0,-3.0L2.5,-0.5"/>
  </g>
  <g id="arrowRight" transform="rotate(90) translate(36 -43)">
    <use xlink:href="#rim"/>
    <path pointer-events="none" fill="none" stroke="white" stroke-width="1.5" d="M0,-3.0v7 M-2.5,-0.5L0,-3.0L2.5,-0.5"/>
  </g>
  <g id="arrowDown" transform="rotate(180) translate(-30 -48)">
    <use xlink:href="#rim"/>
    <path pointer-events="none" fill="none" stroke="white" stroke-width="1.5" d="M0,-3.0v7 M-2.5,-0.5L0,-3.0L2.5,-0.5"/>
  </g>
  <g id="arrowLeft" transform="rotate(270) translate(-36 17)">
    <use xlink:href="#rim"/>
    <path pointer-events="none" fill="none" stroke="white" stroke-width="1.5" d="M0,-3.0v7 M-2.5,-0.5L0,-3.0L2.5,-0.5"/>
  </g>
  <g id="resetDef">
    <use xlink:href="#rim2" fill="#404040"><set attributeName="fill" to="#808080" begin="reset.mouseover" end="reset.mouseout"/></use>
  </g>
</defs>
<script type="application/ecmascript">
var viewWidth = 755;
var viewHeight = 124;
var sectionId = 'dynsection-0';
</script>
<script type="application/ecmascript" xlink:href="../../svg.min.js"/>
<svg id="graph" class="graph">
<g id="viewport">
<title>Terraria.Projectile.FillWhipControlPoints</title>
<!-- Node1 -->
<g id="Node000001" class="node">
<title>Node1</title>
<g id="a_Node000001"><a xlink:title=" ">
<polygon fill="#999999" stroke="#666666" points="119,-67.5 0,-67.5 0,-37.5 119,-37.5 119,-67.5"/>
<text text-anchor="start" x="8" y="-55.5" font-family="Helvetica,sans-Serif" font-size="10.00">Terraria.Projectile.Fill</text>
<text text-anchor="middle" x="59.5" y="-44.5" font-family="Helvetica,sans-Serif" font-size="10.00">WhipControlPoints</text>
</a>
</g>
</g>
<!-- Node2 -->
<g id="Node000002" class="node">
<title>Node2</title>
<g id="a_Node000002"><a xlink:href="../../da/dd5/classTerraria_1_1Main_a307153570378acdbe2d164574ba004de.html#a307153570378acdbe2d164574ba004de" target="_top" xlink:title=" ">
<polygon fill="white" stroke="#666666" points="307,-67.5 155,-67.5 155,-37.5 307,-37.5 307,-67.5"/>
<text text-anchor="start" x="163" y="-55.5" font-family="Helvetica,sans-Serif" font-size="10.00">Terraria.Main.GetPlayerArm</text>
<text text-anchor="middle" x="231" y="-44.5" font-family="Helvetica,sans-Serif" font-size="10.00">Position</text>
</a>
</g>
</g>
<!-- Node1&#45;&gt;Node2 -->
<g id="edge1_Node000001_Node000002" class="edge">
<title>Node1&#45;&gt;Node2</title>
<g id="a_edge1_Node000001_Node000002"><a xlink:title=" ">
<path fill="none" stroke="#63b8ff" d="M119.31,-52.5C127.55,-52.5 136.16,-52.5 144.78,-52.5"/>
<polygon fill="#63b8ff" stroke="#63b8ff" points="144.88,-56 154.88,-52.5 144.88,-49 144.88,-56"/>
</a>
</g>
</g>
<!-- Node3 -->
<g id="Node000003" class="node">
<title>Node3</title>
<g id="a_Node000003"><a xlink:href="../../d4/d03/classTerraria_1_1Player_aced636f7d8226147a3bf19c099b2bbee.html#aced636f7d8226147a3bf19c099b2bbee" target="_top" xlink:title="Takes an input position and returns the position adjusted to the players visual rotation and offset....">
<polygon fill="white" stroke="#666666" points="511,-67.5 343,-67.5 343,-37.5 511,-37.5 511,-67.5"/>
<text text-anchor="start" x="351" y="-55.5" font-family="Helvetica,sans-Serif" font-size="10.00">Terraria.Player.RotatedRelative</text>
<text text-anchor="middle" x="427" y="-44.5" font-family="Helvetica,sans-Serif" font-size="10.00">Point</text>
</a>
</g>
</g>
<!-- Node2&#45;&gt;Node3 -->
<g id="edge2_Node000002_Node000003" class="edge">
<title>Node2&#45;&gt;Node3</title>
<g id="a_edge2_Node000002_Node000003"><a xlink:title=" ">
<path fill="none" stroke="#63b8ff" d="M307.01,-52.5C315.44,-52.5 324.1,-52.5 332.72,-52.5"/>
<polygon fill="#63b8ff" stroke="#63b8ff" points="332.81,-56 342.81,-52.5 332.81,-49 332.81,-56"/>
</a>
</g>
</g>
<!-- Node4 -->
<g id="Node000004" class="node">
<title>Node4</title>
<g id="a_Node000004"><a xlink:href="../../d6/dc6/structTerraria_1_1GameContent_1_1PlayerSittingHelper_a7033d8d348143933744d07414f183dea.html#a7033d8d348143933744d07414f183dea" target="_top" xlink:title=" ">
<polygon fill="white" stroke="#666666" points="736.5,-115.5 557.5,-115.5 557.5,-85.5 736.5,-85.5 736.5,-115.5"/>
<text text-anchor="start" x="565.5" y="-103.5" font-family="Helvetica,sans-Serif" font-size="10.00">Terraria.GameContent.Player</text>
<text text-anchor="middle" x="647" y="-92.5" font-family="Helvetica,sans-Serif" font-size="10.00">SittingHelper.GetSittingOffsetInfo</text>
</a>
</g>
</g>
<!-- Node3&#45;&gt;Node4 -->
<g id="edge3_Node000003_Node000004" class="edge">
<title>Node3&#45;&gt;Node4</title>
<g id="a_edge3_Node000003_Node000004"><a xlink:title=" ">
<path fill="none" stroke="#63b8ff" d="M496.38,-67.56C519.1,-72.56 544.58,-78.17 567.98,-83.32"/>
<polygon fill="#63b8ff" stroke="#63b8ff" points="567.35,-86.77 577.86,-85.5 568.85,-79.93 567.35,-86.77"/>
</a>
</g>
</g>
<!-- Node5 -->
<g id="Node000005" class="node">
<title>Node5</title>
<g id="a_Node000005"><a xlink:href="../../d2/d74/structTerraria_1_1GameContent_1_1PlayerSleepingHelper_af42474b2d26f9866f0f0c28f0df6f918.html#af42474b2d26f9866f0f0c28f0df6f918" target="_top" xlink:title=" ">
<polygon fill="white" stroke="#666666" points="747,-67.5 547,-67.5 547,-37.5 747,-37.5 747,-67.5"/>
<text text-anchor="start" x="555" y="-55.5" font-family="Helvetica,sans-Serif" font-size="10.00">Terraria.GameContent.Player</text>
<text text-anchor="middle" x="647" y="-44.5" font-family="Helvetica,sans-Serif" font-size="10.00">SleepingHelper.GetSleepingOffsetInfo</text>
</a>
</g>
</g>
<!-- Node3&#45;&gt;Node5 -->
<g id="edge4_Node000003_Node000005" class="edge">
<title>Node3&#45;&gt;Node5</title>
<g id="a_edge4_Node000003_Node000005"><a xlink:title=" ">
<path fill="none" stroke="#63b8ff" d="M511.04,-52.5C519.43,-52.5 528.03,-52.5 536.64,-52.5"/>
<polygon fill="#63b8ff" stroke="#63b8ff" points="536.74,-56 546.74,-52.5 536.74,-49 536.74,-56"/>
</a>
</g>
</g>
<!-- Node6 -->
<g id="Node000006" class="node">
<title>Node6</title>
<g id="a_Node000006"><a xlink:href="../../d1/d9c/classTerraria_1_1Utils_a89794e51eb6b0bd3f2b823efbf193fb3.html#a89794e51eb6b0bd3f2b823efbf193fb3" target="_top" xlink:title=" ">
<polygon fill="white" stroke="#666666" points="713.5,-19 580.5,-19 580.5,0 713.5,0 713.5,-19"/>
<text text-anchor="middle" x="647" y="-7" font-family="Helvetica,sans-Serif" font-size="10.00">Terraria.Utils.RotatedBy</text>
</a>
</g>
</g>
<!-- Node3&#45;&gt;Node6 -->
<g id="edge5_Node000003_Node000006" class="edge">
<title>Node3&#45;&gt;Node6</title>
<g id="a_edge5_Node000003_Node000006"><a xlink:title=" ">
<path fill="none" stroke="#63b8ff" d="M501.93,-37.48C516.85,-34.48 532.42,-31.37 547,-28.5 559.53,-26.03 572.97,-23.43 585.77,-20.97"/>
<polygon fill="#63b8ff" stroke="#63b8ff" points="586.71,-24.35 595.87,-19.03 585.39,-17.47 586.71,-24.35"/>
</a>
</g>
</g>
</g>
</svg>

<g id="navigator" transform="translate(0 0)" fill="#404254">
  <rect fill="#f2f5e9" fill-opacity="0.5" stroke="#606060" stroke-width=".5" x="0" y="0" width="60" height="60"/>
  <use id="zoomplus" xlink:href="#zoomPlus" x="17" y="9" onmousedown="handleZoom(evt,'in')"/>
  <use id="zoomminus" xlink:href="#zoomMin" x="42" y="9" onmousedown="handleZoom(evt,'out')"/>
  <use id="reset" xlink:href="#resetDef" x="30" y="36" onmousedown="handleReset()"/>
   <use id="arrowup" xlink:href="#arrowUp" x="0" y="0" onmousedown="handlePan(0,-1)"/>
  <use id="arrowright" xlink:href="#arrowRight" x="0" y="0" onmousedown="handlePan(1,0)"/>
  <use id="arrowdown" xlink:href="#arrowDown" x="0" y="0" onmousedown="handlePan(0,1)"/>
  <use id="arrowleft" xlink:href="#arrowLeft" x="0" y="0" onmousedown="handlePan(-1,0)"/>
</g>
<svg viewBox="0 0 15 15" width="100%" height="30px" preserveAspectRatio="xMaxYMin meet">
 <g id="arrow_out" transform="scale(0.3 0.3)">
  <a xlink:href="classTerraria_1_1Projectile_a4e55194f64061372c717ff49e7b80942_a4e55194f64061372c717ff49e7b80942_cgraph_org.svg" target="_base">
   <rect id="button" ry="5" rx="5" y="6" x="6" height="38" width="38"
        fill="#f2f5e9" fill-opacity="0.5" stroke="#606060" stroke-width="1.0"/>
   <path id="arrow"
     d="M 11.500037,31.436501 C 11.940474,20.09759 22.043105,11.32322 32.158766,21.979434 L 37.068811,17.246167 C 37.068811,17.246167 37.088388,32 37.088388,32 L 22.160133,31.978069 C 22.160133,31.978069 26.997745,27.140456 26.997745,27.140456 C 18.528582,18.264221 13.291696,25.230495 11.500037,31.436501 z"
     style="fill:#404040;"/>
  </a>
 </g>
</svg>

<style type='text/css'>
<![CDATA[
[data-mouse-over-selected='false'] { opacity: 0.7; }
[data-mouse-over-selected='true']  { opacity: 1.0; }
]]>
</style>
<script type="application/ecmascript"><![CDATA[
document.addEventListener('DOMContentLoaded', (event) => {
  highlightEdges();
  highlightAdjacentNodes();
});
]]></script>
</svg>
