<?xml version="1.0" encoding="UTF-8" standalone="no"?>
<!DOCTYPE svg PUBLIC "-//W3C//DTD SVG 1.1//EN"
 "http://www.w3.org/Graphics/SVG/1.1/DTD/svg11.dtd">
<!-- Generated by graphviz version 2.43.0 (0)
 -->
<!-- Title: Terraria.Player.SetArmorEffectVisuals Pages: 1 -->
<svg width="525pt" height="38pt"
 viewBox="0.00 0.00 525.00 38.00" xmlns="http://www.w3.org/2000/svg" xmlns:xlink="http://www.w3.org/1999/xlink">
<g id="graph0" class="graph" transform="scale(1 1) rotate(0) translate(4 34)">
<title>Terraria.Player.SetArmorEffectVisuals</title>
<!-- Node1 -->
<g id="Node000001" class="node">
<title>Node1</title>
<g id="a_Node000001"><a xlink:title=" ">
<polygon fill="#999999" stroke="#666666" points="135,-30 0,-30 0,0 135,0 135,-30"/>
<text text-anchor="start" x="8" y="-18" font-family="Helvetica,sans-Serif" font-size="10.00">Terraria.Player.SetArmor</text>
<text text-anchor="middle" x="67.5" y="-7" font-family="Helvetica,sans-Serif" font-size="10.00">EffectVisuals</text>
</a>
</g>
</g>
<!-- Node2 -->
<g id="Node000002" class="node">
<title>Node2</title>
<g id="a_Node000002"><a xlink:href="../../d7/de6/classTerraria_1_1ModLoader_1_1ItemLoader_afa662b41f42817230101c10acad7ae47.html#afa662b41f42817230101c10acad7ae47" target="_top" xlink:title="If the player&#39;s head texture&#39;s IsVanitySet returns true, calls the equipment texture&#39;s ArmorSetShadow...">
<polygon fill="white" stroke="#666666" points="341,-30 171,-30 171,0 341,0 341,-30"/>
<text text-anchor="start" x="179" y="-18" font-family="Helvetica,sans-Serif" font-size="10.00">Terraria.ModLoader.ItemLoader.</text>
<text text-anchor="middle" x="256" y="-7" font-family="Helvetica,sans-Serif" font-size="10.00">ArmorSetShadows</text>
</a>
</g>
</g>
<!-- Node1&#45;&gt;Node2 -->
<g id="edge1_Node000001_Node000002" class="edge">
<title>Node1&#45;&gt;Node2</title>
<g id="a_edge1_Node000001_Node000002"><a xlink:title=" ">
<path fill="none" stroke="#63b8ff" d="M135.04,-15C143.39,-15 152.04,-15 160.71,-15"/>
<polygon fill="#63b8ff" stroke="#63b8ff" points="160.88,-18.5 170.88,-15 160.88,-11.5 160.88,-18.5"/>
</a>
</g>
</g>
<!-- Node3 -->
<g id="Node000003" class="node">
<title>Node3</title>
<g id="a_Node000003"><a xlink:href="../../d3/daa/classTerraria_1_1ModLoader_1_1EquipLoader_a87c1e9bb37d938a07111fa76bae78575.html#a87c1e9bb37d938a07111fa76bae78575" target="_top" xlink:title="Gets the equipment texture for the specified equipment type and ID.">
<polygon fill="white" stroke="#666666" points="517,-30 377,-30 377,0 517,0 517,-30"/>
<text text-anchor="start" x="385" y="-18" font-family="Helvetica,sans-Serif" font-size="10.00">Terraria.ModLoader.Equip</text>
<text text-anchor="middle" x="447" y="-7" font-family="Helvetica,sans-Serif" font-size="10.00">Loader.GetEquipTexture</text>
</a>
</g>
</g>
<!-- Node2&#45;&gt;Node3 -->
<g id="edge2_Node000002_Node000003" class="edge">
<title>Node2&#45;&gt;Node3</title>
<g id="a_edge2_Node000002_Node000003"><a xlink:title=" ">
<path fill="none" stroke="#63b8ff" d="M341.27,-15C349.74,-15 358.32,-15 366.73,-15"/>
<polygon fill="#63b8ff" stroke="#63b8ff" points="366.9,-18.5 376.9,-15 366.9,-11.5 366.9,-18.5"/>
</a>
</g>
</g>
</g>
</svg>
