<?xml version="1.0" encoding="UTF-8" standalone="no"?>
<!DOCTYPE svg PUBLIC "-//W3C//DTD SVG 1.1//EN"
 "http://www.w3.org/Graphics/SVG/1.1/DTD/svg11.dtd">
<!-- Generated by graphviz version 2.43.0 (0)
 -->
<!-- Title: Terraria.Player.QuickHeal_GetItemToUse Pages: 1 -->
<svg width="1392pt" height="134pt"
 viewBox="0.00 0.00 1392.00 134.00" xmlns="http://www.w3.org/2000/svg" xmlns:xlink="http://www.w3.org/1999/xlink">
<g id="graph0" class="graph" transform="scale(1 1) rotate(0) translate(4 130)">
<title>Terraria.Player.QuickHeal_GetItemToUse</title>
<!-- Node1 -->
<g id="Node000001" class="node">
<title>Node1</title>
<g id="a_Node000001"><a xlink:title=" ">
<polygon fill="#999999" stroke="#666666" points="1384,-78 1244,-78 1244,-48 1384,-48 1384,-78"/>
<text text-anchor="start" x="1252" y="-66" font-family="Helvetica,sans-Serif" font-size="10.00">Terraria.Player.QuickHeal</text>
<text text-anchor="middle" x="1314" y="-55" font-family="Helvetica,sans-Serif" font-size="10.00">_GetItemToUse</text>
</a>
</g>
</g>
<!-- Node2 -->
<g id="Node000002" class="node">
<title>Node2</title>
<g id="a_Node000002"><a xlink:href="../../dd/de1/classTerraria_1_1UI_1_1ItemSlot_a7ae0b61112292ef0d1b04e5bac61bcaa.html#a7ae0b61112292ef0d1b04e5bac61bcaa" target="_top" xlink:title=" ">
<polygon fill="white" stroke="#666666" points="1195.5,-122 1055.5,-122 1055.5,-92 1195.5,-92 1195.5,-122"/>
<text text-anchor="start" x="1063.5" y="-110" font-family="Helvetica,sans-Serif" font-size="10.00">Terraria.UI.ItemSlot.Draw</text>
<text text-anchor="middle" x="1125.5" y="-99" font-family="Helvetica,sans-Serif" font-size="10.00">RadialQuicks</text>
</a>
</g>
</g>
<!-- Node1&#45;&gt;Node2 -->
<g id="edge1_Node000001_Node000002" class="edge">
<title>Node1&#45;&gt;Node2</title>
<g id="a_edge1_Node000001_Node000002"><a xlink:title=" ">
<path fill="none" stroke="#63b8ff" d="M1239.35,-80.38C1223.09,-84.21 1206.01,-88.24 1190.19,-91.97"/>
<polygon fill="#63b8ff" stroke="#63b8ff" points="1240.41,-83.72 1249.34,-78.02 1238.8,-76.91 1240.41,-83.72"/>
</a>
</g>
</g>
<!-- Node9 -->
<g id="Node000009" class="node">
<title>Node9</title>
<g id="a_Node000009"><a xlink:href="../../d4/d03/classTerraria_1_1Player_a73a1d6af46b1f641705f4f248b5c1094.html#a73a1d6af46b1f641705f4f248b5c1094" target="_top" xlink:title=" ">
<polygon fill="white" stroke="#666666" points="1195.5,-72.5 1055.5,-72.5 1055.5,-53.5 1195.5,-53.5 1195.5,-72.5"/>
<text text-anchor="middle" x="1125.5" y="-60.5" font-family="Helvetica,sans-Serif" font-size="10.00">Terraria.Player.QuickHeal</text>
</a>
</g>
</g>
<!-- Node1&#45;&gt;Node9 -->
<g id="edge8_Node000001_Node000009" class="edge">
<title>Node1&#45;&gt;Node9</title>
<g id="a_edge8_Node000001_Node000009"><a xlink:title=" ">
<path fill="none" stroke="#63b8ff" d="M1233.74,-63C1221.04,-63 1208,-63 1195.57,-63"/>
<polygon fill="#63b8ff" stroke="#63b8ff" points="1233.82,-66.5 1243.82,-63 1233.82,-59.5 1233.82,-66.5"/>
</a>
</g>
</g>
<!-- Node14 -->
<g id="Node000014" class="node">
<title>Node14</title>
<g id="a_Node000014"><a xlink:href="../../d3/d7f/classTerraria_1_1GameContent_1_1ChromaHotkeyPainter_af6193d02d270bf74aad4cbb5c92ad9fb.html#af6193d02d270bf74aad4cbb5c92ad9fb" target="_top" xlink:title=" ">
<polygon fill="white" stroke="#666666" points="1208,-33 1043,-33 1043,-3 1208,-3 1208,-33"/>
<text text-anchor="start" x="1051" y="-21" font-family="Helvetica,sans-Serif" font-size="10.00">Terraria.GameContent.Chroma</text>
<text text-anchor="middle" x="1125.5" y="-10" font-family="Helvetica,sans-Serif" font-size="10.00">HotkeyPainter.Step_QuickHeal</text>
</a>
</g>
</g>
<!-- Node1&#45;&gt;Node14 -->
<g id="edge13_Node000001_Node000014" class="edge">
<title>Node1&#45;&gt;Node14</title>
<g id="a_edge13_Node000001_Node000014"><a xlink:title=" ">
<path fill="none" stroke="#63b8ff" d="M1240.69,-45.55C1223.56,-41.42 1205.44,-37.05 1188.8,-33.03"/>
<polygon fill="#63b8ff" stroke="#63b8ff" points="1240.1,-49.01 1250.64,-47.95 1241.74,-42.21 1240.1,-49.01"/>
</a>
</g>
</g>
<!-- Node3 -->
<g id="Node000003" class="node">
<title>Node3</title>
<g id="a_Node000003"><a xlink:href="../../da/dd5/classTerraria_1_1Main_abb0e6f37d78e7f2dc3df275587f20193.html#abb0e6f37d78e7f2dc3df275587f20193" target="_top" xlink:title=" ">
<polygon fill="white" stroke="#666666" points="1007,-123 852,-123 852,-93 1007,-93 1007,-123"/>
<text text-anchor="start" x="860" y="-111" font-family="Helvetica,sans-Serif" font-size="10.00">Terraria.Main.DrawInterface</text>
<text text-anchor="middle" x="929.5" y="-100" font-family="Helvetica,sans-Serif" font-size="10.00">_32_GamepadRadialHotbars</text>
</a>
</g>
</g>
<!-- Node2&#45;&gt;Node3 -->
<g id="edge2_Node000002_Node000003" class="edge">
<title>Node2&#45;&gt;Node3</title>
<g id="a_edge2_Node000002_Node000003"><a xlink:title=" ">
<path fill="none" stroke="#63b8ff" d="M1044.94,-107.41C1032.49,-107.47 1019.65,-107.54 1007.27,-107.6"/>
<polygon fill="#63b8ff" stroke="#63b8ff" points="1045.3,-110.91 1055.28,-107.36 1045.27,-103.91 1045.3,-110.91"/>
</a>
</g>
</g>
<!-- Node4 -->
<g id="Node000004" class="node">
<title>Node4</title>
<g id="a_Node000004"><a xlink:href="../../da/dd5/classTerraria_1_1Main_a635639e6a6d3795bbfbcf0e24fc3aac5.html#a635639e6a6d3795bbfbcf0e24fc3aac5" target="_top" xlink:title=" ">
<polygon fill="white" stroke="#666666" points="816,-126 636,-126 636,-96 816,-96 816,-126"/>
<text text-anchor="start" x="644" y="-114" font-family="Helvetica,sans-Serif" font-size="10.00">Terraria.Main.SetupDrawInterface</text>
<text text-anchor="middle" x="726" y="-103" font-family="Helvetica,sans-Serif" font-size="10.00">Layers</text>
</a>
</g>
</g>
<!-- Node3&#45;&gt;Node4 -->
<g id="edge3_Node000003_Node000004" class="edge">
<title>Node3&#45;&gt;Node4</title>
<g id="a_edge3_Node000003_Node000004"><a xlink:title=" ">
<path fill="none" stroke="#63b8ff" d="M841.52,-109.29C833.07,-109.42 824.49,-109.55 816.02,-109.67"/>
<polygon fill="#63b8ff" stroke="#63b8ff" points="841.8,-112.79 851.75,-109.14 841.7,-105.79 841.8,-112.79"/>
</a>
</g>
</g>
<!-- Node5 -->
<g id="Node000005" class="node">
<title>Node5</title>
<g id="a_Node000005"><a xlink:href="../../da/dd5/classTerraria_1_1Main_a36d139a1fd2647d53f25a241f3d5d5f4.html#a36d139a1fd2647d53f25a241f3d5d5f4" target="_top" xlink:title=" ">
<polygon fill="white" stroke="#666666" points="600,-120.5 448,-120.5 448,-101.5 600,-101.5 600,-120.5"/>
<text text-anchor="middle" x="524" y="-108.5" font-family="Helvetica,sans-Serif" font-size="10.00">Terraria.Main.DrawInterface</text>
</a>
</g>
</g>
<!-- Node4&#45;&gt;Node5 -->
<g id="edge4_Node000004_Node000005" class="edge">
<title>Node4&#45;&gt;Node5</title>
<g id="a_edge4_Node000004_Node000005"><a xlink:title=" ">
<path fill="none" stroke="#63b8ff" d="M625.77,-111C617.19,-111 608.6,-111 600.26,-111"/>
<polygon fill="#63b8ff" stroke="#63b8ff" points="625.82,-114.5 635.82,-111 625.82,-107.5 625.82,-114.5"/>
</a>
</g>
</g>
<!-- Node6 -->
<g id="Node000006" class="node">
<title>Node6</title>
<g id="a_Node000006"><a xlink:href="../../da/dd5/classTerraria_1_1Main_a474beeecaea4d6dd108fba56cd554d46.html#a474beeecaea4d6dd108fba56cd554d46" target="_top" xlink:title=" ">
<polygon fill="white" stroke="#666666" points="412,-120.5 290,-120.5 290,-101.5 412,-101.5 412,-120.5"/>
<text text-anchor="middle" x="351" y="-108.5" font-family="Helvetica,sans-Serif" font-size="10.00">Terraria.Main.DoDraw</text>
</a>
</g>
</g>
<!-- Node5&#45;&gt;Node6 -->
<g id="edge5_Node000005_Node000006" class="edge">
<title>Node5&#45;&gt;Node6</title>
<g id="a_edge5_Node000005_Node000006"><a xlink:title=" ">
<path fill="none" stroke="#63b8ff" d="M437.81,-111C429.1,-111 420.4,-111 412.05,-111"/>
<polygon fill="#63b8ff" stroke="#63b8ff" points="438,-114.5 448,-111 438,-107.5 438,-114.5"/>
</a>
</g>
</g>
<!-- Node7 -->
<g id="Node000007" class="node">
<title>Node7</title>
<g id="a_Node000007"><a xlink:href="../../da/dd5/classTerraria_1_1Main_aa597dbafa085227bb056d05d0b0f9abe.html#aa597dbafa085227bb056d05d0b0f9abe" target="_top" xlink:title=" ">
<polygon fill="white" stroke="#666666" points="254,-126 145,-126 145,-96 254,-96 254,-126"/>
<text text-anchor="start" x="153" y="-114" font-family="Helvetica,sans-Serif" font-size="10.00">Terraria.Main.Draw</text>
<text text-anchor="middle" x="199.5" y="-103" font-family="Helvetica,sans-Serif" font-size="10.00">_Inner</text>
</a>
</g>
</g>
<!-- Node6&#45;&gt;Node7 -->
<g id="edge6_Node000006_Node000007" class="edge">
<title>Node6&#45;&gt;Node7</title>
<g id="a_edge6_Node000006_Node000007"><a xlink:title=" ">
<path fill="none" stroke="#63b8ff" d="M279.41,-111C270.99,-111 262.49,-111 254.35,-111"/>
<polygon fill="#63b8ff" stroke="#63b8ff" points="279.62,-114.5 289.62,-111 279.62,-107.5 279.62,-114.5"/>
</a>
</g>
</g>
<!-- Node8 -->
<g id="Node000008" class="node">
<title>Node8</title>
<g id="a_Node000008"><a xlink:href="../../da/dd5/classTerraria_1_1Main_a516aa31311860bad4242ade32e5effcd.html#a516aa31311860bad4242ade32e5effcd" target="_top" xlink:title=" ">
<polygon fill="white" stroke="#666666" points="109,-120.5 0,-120.5 0,-101.5 109,-101.5 109,-120.5"/>
<text text-anchor="middle" x="54.5" y="-108.5" font-family="Helvetica,sans-Serif" font-size="10.00">Terraria.Main.Draw</text>
</a>
</g>
</g>
<!-- Node7&#45;&gt;Node8 -->
<g id="edge7_Node000007_Node000008" class="edge">
<title>Node7&#45;&gt;Node8</title>
<g id="a_edge7_Node000007_Node000008"><a xlink:title=" ">
<path fill="none" stroke="#63b8ff" d="M134.68,-111C126.25,-111 117.69,-111 109.46,-111"/>
<polygon fill="#63b8ff" stroke="#63b8ff" points="134.85,-114.5 144.85,-111 134.85,-107.5 134.85,-114.5"/>
</a>
</g>
</g>
<!-- Node10 -->
<g id="Node000010" class="node">
<title>Node10</title>
<g id="a_Node000010"><a xlink:href="../../d4/d03/classTerraria_1_1Player_af44290f5d38b6d5076a5fa8d6ee3dd12.html#af44290f5d38b6d5076a5fa8d6ee3dd12" target="_top" xlink:title=" ">
<polygon fill="white" stroke="#666666" points="992,-72.5 867,-72.5 867,-53.5 992,-53.5 992,-72.5"/>
<text text-anchor="middle" x="929.5" y="-60.5" font-family="Helvetica,sans-Serif" font-size="10.00">Terraria.Player.Update</text>
</a>
</g>
</g>
<!-- Node9&#45;&gt;Node10 -->
<g id="edge9_Node000009_Node000010" class="edge">
<title>Node9&#45;&gt;Node10</title>
<g id="a_edge9_Node000009_Node000010"><a xlink:title=" ">
<path fill="none" stroke="#63b8ff" d="M1045.03,-63C1027.43,-63 1009.04,-63 992.27,-63"/>
<polygon fill="#63b8ff" stroke="#63b8ff" points="1045.28,-66.5 1055.28,-63 1045.28,-59.5 1045.28,-66.5"/>
</a>
</g>
</g>
<!-- Node11 -->
<g id="Node000011" class="node">
<title>Node11</title>
<g id="a_Node000011"><a xlink:href="../../da/dd5/classTerraria_1_1Main_a39cdec3f201787a467045358bfcba377.html#a39cdec3f201787a467045358bfcba377" target="_top" xlink:title=" ">
<polygon fill="white" stroke="#666666" points="796.5,-78 655.5,-78 655.5,-48 796.5,-48 796.5,-78"/>
<text text-anchor="start" x="663.5" y="-66" font-family="Helvetica,sans-Serif" font-size="10.00">Terraria.Main.DoUpdateIn</text>
<text text-anchor="middle" x="726" y="-55" font-family="Helvetica,sans-Serif" font-size="10.00">World</text>
</a>
</g>
</g>
<!-- Node10&#45;&gt;Node11 -->
<g id="edge10_Node000010_Node000011" class="edge">
<title>Node10&#45;&gt;Node11</title>
<g id="a_edge10_Node000010_Node000011"><a xlink:title=" ">
<path fill="none" stroke="#63b8ff" d="M856.87,-63C837.29,-63 816.1,-63 796.63,-63"/>
<polygon fill="#63b8ff" stroke="#63b8ff" points="856.95,-66.5 866.95,-63 856.95,-59.5 856.95,-66.5"/>
</a>
</g>
</g>
<!-- Node12 -->
<g id="Node000012" class="node">
<title>Node12</title>
<g id="a_Node000012"><a xlink:href="../../da/dd5/classTerraria_1_1Main_a96341b8439a15bcefc0f119767e24e35.html#a96341b8439a15bcefc0f119767e24e35" target="_top" xlink:title=" ">
<polygon fill="white" stroke="#666666" points="590,-48.5 458,-48.5 458,-29.5 590,-29.5 590,-48.5"/>
<text text-anchor="middle" x="524" y="-36.5" font-family="Helvetica,sans-Serif" font-size="10.00">Terraria.Main.DoUpdate</text>
</a>
</g>
</g>
<!-- Node11&#45;&gt;Node12 -->
<g id="edge11_Node000011_Node000012" class="edge">
<title>Node11&#45;&gt;Node12</title>
<g id="a_edge11_Node000011_Node000012"><a xlink:title=" ">
<path fill="none" stroke="#63b8ff" d="M645.27,-53.43C626.94,-51.23 607.67,-48.92 590.06,-46.81"/>
<polygon fill="#63b8ff" stroke="#63b8ff" points="644.98,-56.92 655.33,-54.64 645.82,-49.97 644.98,-56.92"/>
</a>
</g>
</g>
<!-- Node13 -->
<g id="Node000013" class="node">
<title>Node13</title>
<g id="a_Node000013"><a xlink:href="../../da/dd5/classTerraria_1_1Main_a49776516aea1626e33c722fc8896a7de.html#a49776516aea1626e33c722fc8896a7de" target="_top" xlink:title=" ">
<polygon fill="white" stroke="#666666" points="410.5,-48.5 291.5,-48.5 291.5,-29.5 410.5,-29.5 410.5,-48.5"/>
<text text-anchor="middle" x="351" y="-36.5" font-family="Helvetica,sans-Serif" font-size="10.00">Terraria.Main.Update</text>
</a>
</g>
</g>
<!-- Node12&#45;&gt;Node13 -->
<g id="edge12_Node000012_Node000013" class="edge">
<title>Node12&#45;&gt;Node13</title>
<g id="a_edge12_Node000012_Node000013"><a xlink:title=" ">
<path fill="none" stroke="#63b8ff" d="M447.53,-39C435.12,-39 422.42,-39 410.51,-39"/>
<polygon fill="#63b8ff" stroke="#63b8ff" points="447.86,-42.5 457.86,-39 447.86,-35.5 447.86,-42.5"/>
</a>
</g>
</g>
<!-- Node15 -->
<g id="Node000015" class="node">
<title>Node15</title>
<g id="a_Node000015"><a xlink:href="../../d3/d7f/classTerraria_1_1GameContent_1_1ChromaHotkeyPainter_a3733cd329046b9c075e79f2c6cb07b2e.html#a3733cd329046b9c075e79f2c6cb07b2e" target="_top" xlink:title=" ">
<polygon fill="white" stroke="#666666" points="808.5,-30 643.5,-30 643.5,0 808.5,0 808.5,-30"/>
<text text-anchor="start" x="651.5" y="-18" font-family="Helvetica,sans-Serif" font-size="10.00">Terraria.GameContent.Chroma</text>
<text text-anchor="middle" x="726" y="-7" font-family="Helvetica,sans-Serif" font-size="10.00">HotkeyPainter.Update</text>
</a>
</g>
</g>
<!-- Node14&#45;&gt;Node15 -->
<g id="edge14_Node000014_Node000015" class="edge">
<title>Node14&#45;&gt;Node15</title>
<g id="a_edge14_Node000014_Node000015"><a xlink:title=" ">
<path fill="none" stroke="#63b8ff" d="M1032.4,-17.3C964.8,-16.79 873.81,-16.11 808.77,-15.62"/>
<polygon fill="#63b8ff" stroke="#63b8ff" points="1032.59,-20.81 1042.62,-17.38 1032.65,-13.81 1032.59,-20.81"/>
</a>
</g>
</g>
<!-- Node15&#45;&gt;Node12 -->
<g id="edge15_Node000015_Node000012" class="edge">
<title>Node15&#45;&gt;Node12</title>
<g id="a_edge15_Node000015_Node000012"><a xlink:title=" ">
<path fill="none" stroke="#63b8ff" d="M633.33,-26C618.76,-27.75 603.96,-29.53 590.16,-31.18"/>
<polygon fill="#63b8ff" stroke="#63b8ff" points="633.85,-29.46 643.36,-24.8 633.02,-22.51 633.85,-29.46"/>
</a>
</g>
</g>
</g>
</svg>
