<?xml version="1.0" encoding="UTF-8" standalone="no"?>
<!DOCTYPE svg PUBLIC "-//W3C//DTD SVG 1.1//EN"
 "http://www.w3.org/Graphics/SVG/1.1/DTD/svg11.dtd">
<!-- Generated by graphviz version 2.43.0 (0)
 -->
<!-- Title: Terraria.Player.RollLuck Pages: 1 -->
<!--zoomable 344 -->

<svg id="main" version="1.1" xmlns="http://www.w3.org/2000/svg" xmlns:xlink="http://www.w3.org/1999/xlink" xml:space="preserve" onload="init(evt)">
<style type="text/css"><![CDATA[
.node, .edge {opacity: 0.7;}
.node.selected, .edge.selected {opacity: 1;}
.edge:hover path { stroke: red; }
.edge:hover polygon { stroke: red; fill: red; }
]]></style>

<defs>
  <circle id="rim" cx="0" cy="0" r="7"/>
  <circle id="rim2" cx="0" cy="0" r="3.5"/>
  <g id="zoomPlus">
    <use xlink:href="#rim" fill="#404040"><set attributeName="fill" to="#808080" begin="zoomplus.mouseover" end="zoomplus.mouseout"/></use>
    <path d="M-4,0h8M0,-4v8" fill="none" stroke="white" stroke-width="1.5" pointer-events="none"/>
  </g>
  <g id="zoomMin">
    <use xlink:href="#rim" fill="#404040"><set attributeName="fill" to="#808080" begin="zoomminus.mouseover" end="zoomminus.mouseout"/></use>
    <path d="M-4,0h8" fill="none" stroke="white" stroke-width="1.5" pointer-events="none"/>
  </g>
  <g id="arrowUp" transform="translate(30 24)">
    <use xlink:href="#rim"/>
    <path pointer-events="none" fill="none" stroke="white" stroke-width="1.5" d="M0,-3.0v7 M-2.5,-0.5L0,-3.0L2.5,-0.5"/>
  </g>
  <g id="arrowRight" transform="rotate(90) translate(36 -43)">
    <use xlink:href="#rim"/>
    <path pointer-events="none" fill="none" stroke="white" stroke-width="1.5" d="M0,-3.0v7 M-2.5,-0.5L0,-3.0L2.5,-0.5"/>
  </g>
  <g id="arrowDown" transform="rotate(180) translate(-30 -48)">
    <use xlink:href="#rim"/>
    <path pointer-events="none" fill="none" stroke="white" stroke-width="1.5" d="M0,-3.0v7 M-2.5,-0.5L0,-3.0L2.5,-0.5"/>
  </g>
  <g id="arrowLeft" transform="rotate(270) translate(-36 17)">
    <use xlink:href="#rim"/>
    <path pointer-events="none" fill="none" stroke="white" stroke-width="1.5" d="M0,-3.0v7 M-2.5,-0.5L0,-3.0L2.5,-0.5"/>
  </g>
  <g id="resetDef">
    <use xlink:href="#rim2" fill="#404040"><set attributeName="fill" to="#808080" begin="reset.mouseover" end="reset.mouseout"/></use>
  </g>
</defs>
<script type="application/ecmascript">
var viewWidth = 1264;
var viewHeight = 344;
var sectionId = 'dynsection-1';
</script>
<script type="application/ecmascript" xlink:href="../../svg.min.js"/>
<svg id="graph" class="graph">
<g id="viewport">
<title>Terraria.Player.RollLuck</title>
<!-- Node1 -->
<g id="Node000001" class="node">
<title>Node1</title>
<g id="a_Node000001"><a xlink:title=" ">
<polygon fill="#999999" stroke="#666666" points="1256,-134.5 1125,-134.5 1125,-115.5 1256,-115.5 1256,-134.5"/>
<text text-anchor="middle" x="1190.5" y="-122.5" font-family="Helvetica,sans-Serif" font-size="10.00">Terraria.Player.RollLuck</text>
</a>
</g>
</g>
<!-- Node2 -->
<g id="Node000002" class="node">
<title>Node2</title>
<g id="a_Node000002"><a xlink:href="../../d4/d03/classTerraria_1_1Player_a12baf9a8aa32a68e64d1dc333edd10d9.html#a12baf9a8aa32a68e64d1dc333edd10d9" target="_top" xlink:title=" ">
<polygon fill="white" stroke="#666666" points="1070,-298 927,-298 927,-268 1070,-268 1070,-298"/>
<text text-anchor="start" x="935" y="-286" font-family="Helvetica,sans-Serif" font-size="10.00">Terraria.Player.GetClosest</text>
<text text-anchor="middle" x="998.5" y="-275" font-family="Helvetica,sans-Serif" font-size="10.00">RollLuck</text>
</a>
</g>
</g>
<!-- Node1&#45;&gt;Node2 -->
<g id="edge1_Node000001_Node000002" class="edge">
<title>Node1&#45;&gt;Node2</title>
<g id="a_edge1_Node000001_Node000002"><a xlink:title=" ">
<path fill="none" stroke="#63b8ff" d="M1180.49,-144.02C1165.63,-173.29 1133.17,-229.13 1089,-259 1083.27,-262.88 1076.94,-266.13 1070.37,-268.85"/>
<polygon fill="#63b8ff" stroke="#63b8ff" points="1183.72,-145.38 1185,-134.86 1177.44,-142.28 1183.72,-145.38"/>
</a>
</g>
</g>
<!-- Node3 -->
<g id="Node000003" class="node">
<title>Node3</title>
<g id="a_Node000003"><a xlink:href="../../d4/d03/classTerraria_1_1Player_a3509b9a2b7ac30a1d385a6bd41336a55.html#a3509b9a2b7ac30a1d385a6bd41336a55" target="_top" xlink:title=" ">
<polygon fill="white" stroke="#666666" points="1070,-250 927,-250 927,-220 1070,-220 1070,-250"/>
<text text-anchor="start" x="935" y="-238" font-family="Helvetica,sans-Serif" font-size="10.00">Terraria.Player.GetClosest</text>
<text text-anchor="middle" x="998.5" y="-227" font-family="Helvetica,sans-Serif" font-size="10.00">RollLuck</text>
</a>
</g>
</g>
<!-- Node1&#45;&gt;Node3 -->
<g id="edge2_Node000001_Node000003" class="edge">
<title>Node1&#45;&gt;Node3</title>
<g id="a_edge2_Node000001_Node000003"><a xlink:title=" ">
<path fill="none" stroke="#63b8ff" d="M1164.05,-139.74C1127.95,-160.64 1062.22,-198.69 1025.71,-219.82"/>
<polygon fill="#63b8ff" stroke="#63b8ff" points="1166.07,-142.61 1172.97,-134.57 1162.56,-136.55 1166.07,-142.61"/>
</a>
</g>
</g>
<!-- Node7 -->
<g id="Node000007" class="node">
<title>Node7</title>
<g id="a_Node000007"><a xlink:href="../../dc/ddf/classTerraria_1_1Chest_abdd47ee072ef3ae25a38c0a2ea962e27.html#abdd47ee072ef3ae25a38c0a2ea962e27" target="_top" xlink:title="Sets up the F:Terraria.ID.NPCID.TravellingMerchant&#39;s shop.">
<polygon fill="white" stroke="#666666" points="1082.5,-153.5 914.5,-153.5 914.5,-134.5 1082.5,-134.5 1082.5,-153.5"/>
<text text-anchor="middle" x="998.5" y="-141.5" font-family="Helvetica,sans-Serif" font-size="10.00">Terraria.Chest.SetupTravelShop</text>
</a>
</g>
</g>
<!-- Node1&#45;&gt;Node7 -->
<g id="edge6_Node000001_Node000007" class="edge">
<title>Node1&#45;&gt;Node7</title>
<g id="a_edge6_Node000001_Node000007"><a xlink:title=" ">
<path fill="none" stroke="#63b8ff" d="M1114.92,-132.46C1104.36,-133.51 1093.45,-134.6 1082.75,-135.68"/>
<polygon fill="#63b8ff" stroke="#63b8ff" points="1115.31,-135.94 1124.91,-131.46 1114.61,-128.97 1115.31,-135.94"/>
</a>
</g>
</g>
<!-- Node20 -->
<g id="Node000020" class="node">
<title>Node20</title>
<g id="a_Node000020"><a xlink:href="../../df/d0d/classTerraria_1_1NPC_abf7db6376db1730f55aa8a580188b87b.html#abf7db6376db1730f55aa8a580188b87b" target="_top" xlink:title=" ">
<polygon fill="white" stroke="#666666" points="642.5,-115.5 510.5,-115.5 510.5,-96.5 642.5,-96.5 642.5,-115.5"/>
<text text-anchor="middle" x="576.5" y="-103.5" font-family="Helvetica,sans-Serif" font-size="10.00">Terraria.NPC.SpawnNPC</text>
</a>
</g>
</g>
<!-- Node1&#45;&gt;Node20 -->
<g id="edge20_Node000001_Node000020" class="edge">
<title>Node1&#45;&gt;Node20</title>
<g id="a_edge20_Node000001_Node000020"><a xlink:title=" ">
<path fill="none" stroke="#63b8ff" d="M1114.6,-122.67C993.62,-118.92 757.23,-111.58 642.74,-108.03"/>
<polygon fill="#63b8ff" stroke="#63b8ff" points="1114.77,-126.18 1124.87,-122.99 1114.99,-119.18 1114.77,-126.18"/>
</a>
</g>
</g>
<!-- Node21 -->
<g id="Node000021" class="node">
<title>Node21</title>
<g id="a_Node000021"><a xlink:href="../../df/d0d/classTerraria_1_1NPC_a8cb3db4c7b6f9892374132b74d0799af.html#a8cb3db4c7b6f9892374132b74d0799af" target="_top" xlink:title=" ">
<polygon fill="white" stroke="#666666" points="1089,-78 908,-78 908,-48 1089,-48 1089,-78"/>
<text text-anchor="start" x="916" y="-66" font-family="Helvetica,sans-Serif" font-size="10.00">Terraria.NPC.SpawnNPC</text>
<text text-anchor="middle" x="998.5" y="-55" font-family="Helvetica,sans-Serif" font-size="10.00">_CheckToSpawnUndergroundFairy</text>
</a>
</g>
</g>
<!-- Node1&#45;&gt;Node21 -->
<g id="edge22_Node000001_Node000021" class="edge">
<title>Node1&#45;&gt;Node21</title>
<g id="a_edge22_Node000001_Node000021"><a xlink:title=" ">
<path fill="none" stroke="#63b8ff" d="M1150.84,-112.27C1132.17,-106.13 1109.42,-98.66 1089,-92 1075.02,-87.44 1059.81,-82.5 1045.96,-78.02"/>
<polygon fill="#63b8ff" stroke="#63b8ff" points="1149.89,-115.64 1160.48,-115.44 1152.08,-108.99 1149.89,-115.64"/>
</a>
</g>
</g>
<!-- Node22 -->
<g id="Node000022" class="node">
<title>Node22</title>
<g id="a_Node000022"><a xlink:href="../../df/d0d/classTerraria_1_1NPC_a02861489d3e43f4fc3409cb4c849ab2a.html#a02861489d3e43f4fc3409cb4c849ab2a" target="_top" xlink:title=" ">
<polygon fill="white" stroke="#666666" points="1064.5,-30 932.5,-30 932.5,0 1064.5,0 1064.5,-30"/>
<text text-anchor="start" x="940.5" y="-18" font-family="Helvetica,sans-Serif" font-size="10.00">Terraria.NPC.SpawnNPC</text>
<text text-anchor="middle" x="998.5" y="-7" font-family="Helvetica,sans-Serif" font-size="10.00">_SpawnFrog</text>
</a>
</g>
</g>
<!-- Node1&#45;&gt;Node22 -->
<g id="edge23_Node000001_Node000022" class="edge">
<title>Node1&#45;&gt;Node22</title>
<g id="a_edge23_Node000001_Node000022"><a xlink:title=" ">
<path fill="none" stroke="#63b8ff" d="M1174.14,-107.87C1155.75,-88.4 1123.13,-56.98 1089,-39 1081.46,-35.03 1073.2,-31.67 1064.85,-28.84"/>
<polygon fill="#63b8ff" stroke="#63b8ff" points="1171.75,-110.45 1181.11,-115.42 1176.89,-105.7 1171.75,-110.45"/>
</a>
</g>
</g>
<!-- Node4 -->
<g id="Node000004" class="node">
<title>Node4</title>
<g id="a_Node000004"><a xlink:href="../../de/da1/classTerraria_1_1WorldGen_afe75d8b9b117906307674590f2cc98c2.html#afe75d8b9b117906307674590f2cc98c2" target="_top" xlink:title=" ">
<polygon fill="white" stroke="#666666" points="848,-336 708,-336 708,-306 848,-306 848,-336"/>
<text text-anchor="start" x="716" y="-324" font-family="Helvetica,sans-Serif" font-size="10.00">Terraria.WorldGen.KillTile</text>
<text text-anchor="middle" x="778" y="-313" font-family="Helvetica,sans-Serif" font-size="10.00">_DropBait</text>
</a>
</g>
</g>
<!-- Node3&#45;&gt;Node4 -->
<g id="edge3_Node000003_Node000004" class="edge">
<title>Node3&#45;&gt;Node4</title>
<g id="a_edge3_Node000003_Node000004"><a xlink:title=" ">
<path fill="none" stroke="#63b8ff" d="M917.34,-254.03C914.12,-255.56 910.99,-257.22 908,-259 888.01,-270.91 892.04,-285.19 872,-297 864.67,-301.32 856.57,-304.87 848.3,-307.78"/>
<polygon fill="#63b8ff" stroke="#63b8ff" points="918.82,-257.21 926.61,-250.03 916.04,-250.78 918.82,-257.21"/>
</a>
</g>
</g>
<!-- Node5 -->
<g id="Node000005" class="node">
<title>Node5</title>
<g id="a_Node000005"><a xlink:href="../../de/da1/classTerraria_1_1WorldGen_ac79f6f303f1fbf0d6a9fcb775bf29091.html#ac79f6f303f1fbf0d6a9fcb775bf29091" target="_top" xlink:title=" ">
<polygon fill="white" stroke="#666666" points="856,-287.5 700,-287.5 700,-268.5 856,-268.5 856,-287.5"/>
<text text-anchor="middle" x="778" y="-275.5" font-family="Helvetica,sans-Serif" font-size="10.00">Terraria.WorldGen.ShakeTree</text>
</a>
</g>
</g>
<!-- Node3&#45;&gt;Node5 -->
<g id="edge4_Node000003_Node000005" class="edge">
<title>Node3&#45;&gt;Node5</title>
<g id="a_edge4_Node000003_Node000005"><a xlink:title=" ">
<path fill="none" stroke="#63b8ff" d="M916.8,-250.88C886.73,-256.8 853.56,-263.33 827.3,-268.49"/>
<polygon fill="#63b8ff" stroke="#63b8ff" points="917.73,-254.27 926.86,-248.9 916.37,-247.4 917.73,-254.27"/>
</a>
</g>
</g>
<!-- Node6 -->
<g id="Node000006" class="node">
<title>Node6</title>
<g id="a_Node000006"><a xlink:href="../../de/da1/classTerraria_1_1WorldGen_aa6229aa3c50b9e544a2ebec9efb3be4a.html#aa6229aa3c50b9e544a2ebec9efb3be4a" target="_top" xlink:title=" ">
<polygon fill="white" stroke="#666666" points="863.5,-250 692.5,-250 692.5,-220 863.5,-220 863.5,-250"/>
<text text-anchor="start" x="700.5" y="-238" font-family="Helvetica,sans-Serif" font-size="10.00">Terraria.WorldGen.SpawnThings</text>
<text text-anchor="middle" x="778" y="-227" font-family="Helvetica,sans-Serif" font-size="10.00">FromPot</text>
</a>
</g>
</g>
<!-- Node3&#45;&gt;Node6 -->
<g id="edge5_Node000003_Node000006" class="edge">
<title>Node3&#45;&gt;Node6</title>
<g id="a_edge5_Node000003_Node000006"><a xlink:title=" ">
<path fill="none" stroke="#63b8ff" d="M916.77,-235C899.41,-235 881.01,-235 863.5,-235"/>
<polygon fill="#63b8ff" stroke="#63b8ff" points="916.86,-238.5 926.86,-235 916.86,-231.5 916.86,-238.5"/>
</a>
</g>
</g>
<!-- Node8 -->
<g id="Node000008" class="node">
<title>Node8</title>
<g id="a_Node000008"><a xlink:href="../../da/dd5/classTerraria_1_1Main_a8428815a84cf887c2adf13c19aad4caf.html#a8428815a84cf887c2adf13c19aad4caf" target="_top" xlink:title=" ">
<polygon fill="white" stroke="#666666" points="840.5,-202 715.5,-202 715.5,-172 840.5,-172 840.5,-202"/>
<text text-anchor="start" x="723.5" y="-190" font-family="Helvetica,sans-Serif" font-size="10.00">Terraria.Main.Initialize</text>
<text text-anchor="middle" x="778" y="-179" font-family="Helvetica,sans-Serif" font-size="10.00">_AlmostEverything</text>
</a>
</g>
</g>
<!-- Node7&#45;&gt;Node8 -->
<g id="edge7_Node000007_Node000008" class="edge">
<title>Node7&#45;&gt;Node8</title>
<g id="a_edge7_Node000007_Node000008"><a xlink:title=" ">
<path fill="none" stroke="#63b8ff" d="M938.98,-155.52C908.6,-161.49 871.5,-168.8 840.67,-174.86"/>
<polygon fill="#63b8ff" stroke="#63b8ff" points="939.87,-158.91 949.01,-153.54 938.52,-152.04 939.87,-158.91"/>
</a>
</g>
</g>
<!-- Node14 -->
<g id="Node000014" class="node">
<title>Node14</title>
<g id="a_Node000014"><a xlink:href="../../de/da1/classTerraria_1_1WorldGen_a2a41f17e66ccb45f8e7f09e9e2d3e8e2.html#a2a41f17e66ccb45f8e7f09e9e2d3e8e2" target="_top" xlink:title=" ">
<polygon fill="white" stroke="#666666" points="872,-153.5 684,-153.5 684,-134.5 872,-134.5 872,-153.5"/>
<text text-anchor="middle" x="778" y="-141.5" font-family="Helvetica,sans-Serif" font-size="10.00">Terraria.WorldGen.SpawnTravelNPC</text>
</a>
</g>
</g>
<!-- Node7&#45;&gt;Node14 -->
<g id="edge13_Node000007_Node000014" class="edge">
<title>Node7&#45;&gt;Node14</title>
<g id="a_edge13_Node000007_Node000014"><a xlink:title=" ">
<path fill="none" stroke="#63b8ff" d="M904.19,-144C893.6,-144 882.81,-144 872.22,-144"/>
<polygon fill="#63b8ff" stroke="#63b8ff" points="904.27,-147.5 914.27,-144 904.27,-140.5 904.27,-147.5"/>
</a>
</g>
</g>
<!-- Node9 -->
<g id="Node000009" class="node">
<title>Node9</title>
<g id="a_Node000009"><a xlink:href="../../da/dd5/classTerraria_1_1Main_aeb59718d838663ea500b4619b081d791.html#aeb59718d838663ea500b4619b081d791" target="_top" xlink:title=" ">
<polygon fill="white" stroke="#666666" points="647,-230.5 506,-230.5 506,-211.5 647,-211.5 647,-230.5"/>
<text text-anchor="middle" x="576.5" y="-218.5" font-family="Helvetica,sans-Serif" font-size="10.00">Terraria.Main.DrawSplash</text>
</a>
</g>
</g>
<!-- Node8&#45;&gt;Node9 -->
<g id="edge8_Node000008_Node000009" class="edge">
<title>Node8&#45;&gt;Node9</title>
<g id="a_edge8_Node000008_Node000009"><a xlink:title=" ">
<path fill="none" stroke="#63b8ff" d="M705.29,-199.22C681.68,-203.24 655.8,-207.66 633.54,-211.45"/>
<polygon fill="#63b8ff" stroke="#63b8ff" points="705.97,-202.66 715.24,-197.52 704.8,-195.75 705.97,-202.66"/>
</a>
</g>
</g>
<!-- Node13 -->
<g id="Node000013" class="node">
<title>Node13</title>
<g id="a_Node000013"><a xlink:href="../../da/dd5/classTerraria_1_1Main_aed4b6a8ad3e867bdb2bdcab2ab6ab0f9.html#aed4b6a8ad3e867bdb2bdcab2ab6ab0f9" target="_top" xlink:title=" ">
<polygon fill="white" stroke="#666666" points="639,-193.5 514,-193.5 514,-174.5 639,-174.5 639,-193.5"/>
<text text-anchor="middle" x="576.5" y="-181.5" font-family="Helvetica,sans-Serif" font-size="10.00">Terraria.Main.Initialize</text>
</a>
</g>
</g>
<!-- Node8&#45;&gt;Node13 -->
<g id="edge12_Node000008_Node000013" class="edge">
<title>Node8&#45;&gt;Node13</title>
<g id="a_edge12_Node000008_Node000013"><a xlink:title=" ">
<path fill="none" stroke="#63b8ff" d="M705.16,-185.92C683.61,-185.6 660.16,-185.24 639.31,-184.93"/>
<polygon fill="#63b8ff" stroke="#63b8ff" points="705.19,-189.42 715.24,-186.07 705.3,-182.42 705.19,-189.42"/>
</a>
</g>
</g>
<!-- Node10 -->
<g id="Node000010" class="node">
<title>Node10</title>
<g id="a_Node000010"><a xlink:href="../../da/dd5/classTerraria_1_1Main_a474beeecaea4d6dd108fba56cd554d46.html#a474beeecaea4d6dd108fba56cd554d46" target="_top" xlink:title=" ">
<polygon fill="white" stroke="#666666" points="457,-230.5 335,-230.5 335,-211.5 457,-211.5 457,-230.5"/>
<text text-anchor="middle" x="396" y="-218.5" font-family="Helvetica,sans-Serif" font-size="10.00">Terraria.Main.DoDraw</text>
</a>
</g>
</g>
<!-- Node9&#45;&gt;Node10 -->
<g id="edge9_Node000009_Node000010" class="edge">
<title>Node9&#45;&gt;Node10</title>
<g id="a_edge9_Node000009_Node000010"><a xlink:title=" ">
<path fill="none" stroke="#63b8ff" d="M495.66,-221C482.69,-221 469.45,-221 457.06,-221"/>
<polygon fill="#63b8ff" stroke="#63b8ff" points="495.98,-224.5 505.98,-221 495.98,-217.5 495.98,-224.5"/>
</a>
</g>
</g>
<!-- Node11 -->
<g id="Node000011" class="node">
<title>Node11</title>
<g id="a_Node000011"><a xlink:href="../../da/dd5/classTerraria_1_1Main_aa597dbafa085227bb056d05d0b0f9abe.html#aa597dbafa085227bb056d05d0b0f9abe" target="_top" xlink:title=" ">
<polygon fill="white" stroke="#666666" points="275.5,-236 166.5,-236 166.5,-206 275.5,-206 275.5,-236"/>
<text text-anchor="start" x="174.5" y="-224" font-family="Helvetica,sans-Serif" font-size="10.00">Terraria.Main.Draw</text>
<text text-anchor="middle" x="221" y="-213" font-family="Helvetica,sans-Serif" font-size="10.00">_Inner</text>
</a>
</g>
</g>
<!-- Node10&#45;&gt;Node11 -->
<g id="edge10_Node000010_Node000011" class="edge">
<title>Node10&#45;&gt;Node11</title>
<g id="a_edge10_Node000010_Node000011"><a xlink:title=" ">
<path fill="none" stroke="#63b8ff" d="M324.86,-221C308.41,-221 291.15,-221 275.56,-221"/>
<polygon fill="#63b8ff" stroke="#63b8ff" points="324.98,-224.5 334.98,-221 324.98,-217.5 324.98,-224.5"/>
</a>
</g>
</g>
<!-- Node12 -->
<g id="Node000012" class="node">
<title>Node12</title>
<g id="a_Node000012"><a xlink:href="../../da/dd5/classTerraria_1_1Main_a516aa31311860bad4242ade32e5effcd.html#a516aa31311860bad4242ade32e5effcd" target="_top" xlink:title=" ">
<polygon fill="white" stroke="#666666" points="114,-230.5 5,-230.5 5,-211.5 114,-211.5 114,-230.5"/>
<text text-anchor="middle" x="59.5" y="-218.5" font-family="Helvetica,sans-Serif" font-size="10.00">Terraria.Main.Draw</text>
</a>
</g>
</g>
<!-- Node11&#45;&gt;Node12 -->
<g id="edge11_Node000011_Node000012" class="edge">
<title>Node11&#45;&gt;Node12</title>
<g id="a_edge11_Node000011_Node000012"><a xlink:title=" ">
<path fill="none" stroke="#63b8ff" d="M156.41,-221C142.42,-221 127.74,-221 114.19,-221"/>
<polygon fill="#63b8ff" stroke="#63b8ff" points="156.45,-224.5 166.45,-221 156.45,-217.5 156.45,-224.5"/>
</a>
</g>
</g>
<!-- Node15 -->
<g id="Node000015" class="node">
<title>Node15</title>
<g id="a_Node000015"><a xlink:href="../../da/dd5/classTerraria_1_1Main_a172d9fc82fc36587b85bb266f9868bf2.html#a172d9fc82fc36587b85bb266f9868bf2" target="_top" xlink:title=" ">
<polygon fill="white" stroke="#666666" points="648,-153.5 505,-153.5 505,-134.5 648,-134.5 648,-153.5"/>
<text text-anchor="middle" x="576.5" y="-141.5" font-family="Helvetica,sans-Serif" font-size="10.00">Terraria.Main.UpdateTime</text>
</a>
</g>
</g>
<!-- Node14&#45;&gt;Node15 -->
<g id="edge14_Node000014_Node000015" class="edge">
<title>Node14&#45;&gt;Node15</title>
<g id="a_edge14_Node000014_Node000015"><a xlink:title=" ">
<path fill="none" stroke="#63b8ff" d="M673.75,-144C665.05,-144 656.38,-144 648.02,-144"/>
<polygon fill="#63b8ff" stroke="#63b8ff" points="673.97,-147.5 683.97,-144 673.97,-140.5 673.97,-147.5"/>
</a>
</g>
</g>
<!-- Node16 -->
<g id="Node000016" class="node">
<title>Node16</title>
<g id="a_Node000016"><a xlink:href="../../da/dd5/classTerraria_1_1Main_a39cdec3f201787a467045358bfcba377.html#a39cdec3f201787a467045358bfcba377" target="_top" xlink:title=" ">
<polygon fill="white" stroke="#666666" points="466.5,-121 325.5,-121 325.5,-91 466.5,-91 466.5,-121"/>
<text text-anchor="start" x="333.5" y="-109" font-family="Helvetica,sans-Serif" font-size="10.00">Terraria.Main.DoUpdateIn</text>
<text text-anchor="middle" x="396" y="-98" font-family="Helvetica,sans-Serif" font-size="10.00">World</text>
</a>
</g>
</g>
<!-- Node15&#45;&gt;Node16 -->
<g id="edge15_Node000015_Node000016" class="edge">
<title>Node15&#45;&gt;Node16</title>
<g id="a_edge15_Node000015_Node000016"><a xlink:title=" ">
<path fill="none" stroke="#63b8ff" d="M520.68,-132.33C503.64,-128.7 484.62,-124.65 466.71,-120.84"/>
<polygon fill="#63b8ff" stroke="#63b8ff" points="519.95,-135.75 530.46,-134.41 521.4,-128.91 519.95,-135.75"/>
</a>
</g>
</g>
<!-- Node19 -->
<g id="Node000019" class="node">
<title>Node19</title>
<g id="a_Node000019"><a xlink:href="../../da/dd5/classTerraria_1_1Main_a7f3b3b6ca2af07b7eef45694f12678f4.html#a7f3b3b6ca2af07b7eef45694f12678f4" target="_top" xlink:title=" ">
<polygon fill="white" stroke="#666666" points="469,-158.5 323,-158.5 323,-139.5 469,-139.5 469,-158.5"/>
<text text-anchor="middle" x="396" y="-146.5" font-family="Helvetica,sans-Serif" font-size="10.00">Terraria.Main.UpdateMenu</text>
</a>
</g>
</g>
<!-- Node15&#45;&gt;Node19 -->
<g id="edge18_Node000015_Node000019" class="edge">
<title>Node15&#45;&gt;Node19</title>
<g id="a_edge18_Node000015_Node000019"><a xlink:title=" ">
<path fill="none" stroke="#63b8ff" d="M494.91,-146.26C486.3,-146.5 477.59,-146.74 469.08,-146.98"/>
<polygon fill="#63b8ff" stroke="#63b8ff" points="495.05,-149.75 504.95,-145.98 494.86,-142.76 495.05,-149.75"/>
</a>
</g>
</g>
<!-- Node17 -->
<g id="Node000017" class="node">
<title>Node17</title>
<g id="a_Node000017"><a xlink:href="../../da/dd5/classTerraria_1_1Main_a96341b8439a15bcefc0f119767e24e35.html#a96341b8439a15bcefc0f119767e24e35" target="_top" xlink:title=" ">
<polygon fill="white" stroke="#666666" points="287,-137.5 155,-137.5 155,-118.5 287,-118.5 287,-137.5"/>
<text text-anchor="middle" x="221" y="-125.5" font-family="Helvetica,sans-Serif" font-size="10.00">Terraria.Main.DoUpdate</text>
</a>
</g>
</g>
<!-- Node16&#45;&gt;Node17 -->
<g id="edge16_Node000016_Node000017" class="edge">
<title>Node16&#45;&gt;Node17</title>
<g id="a_edge16_Node000016_Node000017"><a xlink:title=" ">
<path fill="none" stroke="#63b8ff" d="M315.04,-116.17C305.68,-117.36 296.21,-118.56 287.09,-119.72"/>
<polygon fill="#63b8ff" stroke="#63b8ff" points="315.65,-119.62 325.13,-114.88 314.77,-112.67 315.65,-119.62"/>
</a>
</g>
</g>
<!-- Node18 -->
<g id="Node000018" class="node">
<title>Node18</title>
<g id="a_Node000018"><a xlink:href="../../da/dd5/classTerraria_1_1Main_a49776516aea1626e33c722fc8896a7de.html#a49776516aea1626e33c722fc8896a7de" target="_top" xlink:title=" ">
<polygon fill="white" stroke="#666666" points="119,-137.5 0,-137.5 0,-118.5 119,-118.5 119,-137.5"/>
<text text-anchor="middle" x="59.5" y="-125.5" font-family="Helvetica,sans-Serif" font-size="10.00">Terraria.Main.Update</text>
</a>
</g>
</g>
<!-- Node17&#45;&gt;Node18 -->
<g id="edge17_Node000017_Node000018" class="edge">
<title>Node17&#45;&gt;Node18</title>
<g id="a_edge17_Node000017_Node000018"><a xlink:title=" ">
<path fill="none" stroke="#63b8ff" d="M144.64,-128C136.06,-128 127.4,-128 119.08,-128"/>
<polygon fill="#63b8ff" stroke="#63b8ff" points="144.67,-131.5 154.67,-128 144.66,-124.5 144.67,-131.5"/>
</a>
</g>
</g>
<!-- Node19&#45;&gt;Node17 -->
<g id="edge19_Node000019_Node000017" class="edge">
<title>Node19&#45;&gt;Node17</title>
<g id="a_edge19_Node000019_Node000017"><a xlink:title=" ">
<path fill="none" stroke="#63b8ff" d="M312.8,-139.02C304.18,-137.98 295.49,-136.92 287.1,-135.9"/>
<polygon fill="#63b8ff" stroke="#63b8ff" points="312.54,-142.52 322.89,-140.25 313.38,-135.57 312.54,-142.52"/>
</a>
</g>
</g>
<!-- Node20&#45;&gt;Node16 -->
<g id="edge21_Node000020_Node000016" class="edge">
<title>Node20&#45;&gt;Node16</title>
<g id="a_edge21_Node000020_Node000016"><a xlink:title=" ">
<path fill="none" stroke="#63b8ff" d="M500.16,-106C489.01,-106 477.56,-106 466.53,-106"/>
<polygon fill="#63b8ff" stroke="#63b8ff" points="500.3,-109.5 510.3,-106 500.3,-102.5 500.3,-109.5"/>
</a>
</g>
</g>
</g>
</svg>

<g id="navigator" transform="translate(0 0)" fill="#404254">
  <rect fill="#f2f5e9" fill-opacity="0.5" stroke="#606060" stroke-width=".5" x="0" y="0" width="60" height="60"/>
  <use id="zoomplus" xlink:href="#zoomPlus" x="17" y="9" onmousedown="handleZoom(evt,'in')"/>
  <use id="zoomminus" xlink:href="#zoomMin" x="42" y="9" onmousedown="handleZoom(evt,'out')"/>
  <use id="reset" xlink:href="#resetDef" x="30" y="36" onmousedown="handleReset()"/>
   <use id="arrowup" xlink:href="#arrowUp" x="0" y="0" onmousedown="handlePan(0,-1)"/>
  <use id="arrowright" xlink:href="#arrowRight" x="0" y="0" onmousedown="handlePan(1,0)"/>
  <use id="arrowdown" xlink:href="#arrowDown" x="0" y="0" onmousedown="handlePan(0,1)"/>
  <use id="arrowleft" xlink:href="#arrowLeft" x="0" y="0" onmousedown="handlePan(-1,0)"/>
</g>
<svg viewBox="0 0 15 15" width="100%" height="30px" preserveAspectRatio="xMaxYMin meet">
 <g id="arrow_out" transform="scale(0.3 0.3)">
  <a xlink:href="classTerraria_1_1Player_aca77d08fbf4c016d1b6524710ad066b1_aca77d08fbf4c016d1b6524710ad066b1_icgraph_org.svg" target="_base">
   <rect id="button" ry="5" rx="5" y="6" x="6" height="38" width="38"
        fill="#f2f5e9" fill-opacity="0.5" stroke="#606060" stroke-width="1.0"/>
   <path id="arrow"
     d="M 11.500037,31.436501 C 11.940474,20.09759 22.043105,11.32322 32.158766,21.979434 L 37.068811,17.246167 C 37.068811,17.246167 37.088388,32 37.088388,32 L 22.160133,31.978069 C 22.160133,31.978069 26.997745,27.140456 26.997745,27.140456 C 18.528582,18.264221 13.291696,25.230495 11.500037,31.436501 z"
     style="fill:#404040;"/>
  </a>
 </g>
</svg>

<style type='text/css'>
<![CDATA[
[data-mouse-over-selected='false'] { opacity: 0.7; }
[data-mouse-over-selected='true']  { opacity: 1.0; }
]]>
</style>
<script type="application/ecmascript"><![CDATA[
document.addEventListener('DOMContentLoaded', (event) => {
  highlightEdges();
  highlightAdjacentNodes();
});
]]></script>
</svg>
