<?xml version="1.0" encoding="UTF-8" standalone="no"?>
<!DOCTYPE svg PUBLIC "-//W3C//DTD SVG 1.1//EN"
 "http://www.w3.org/Graphics/SVG/1.1/DTD/svg11.dtd">
<!-- Generated by graphviz version 2.43.0 (0)
 -->
<!-- Title: Terraria.Player.ToggleInv Pages: 1 -->
<svg width="1255pt" height="194pt"
 viewBox="0.00 0.00 1255.00 194.00" xmlns="http://www.w3.org/2000/svg" xmlns:xlink="http://www.w3.org/1999/xlink">
<g id="graph0" class="graph" transform="scale(1 1) rotate(0) translate(4 190)">
<title>Terraria.Player.ToggleInv</title>
<!-- Node1 -->
<g id="Node000001" class="node">
<title>Node1</title>
<g id="a_Node000001"><a xlink:title=" ">
<polygon fill="#999999" stroke="#666666" points="1247,-97.5 1111,-97.5 1111,-78.5 1247,-78.5 1247,-97.5"/>
<text text-anchor="middle" x="1179" y="-85.5" font-family="Helvetica,sans-Serif" font-size="10.00">Terraria.Player.ToggleInv</text>
</a>
</g>
</g>
<!-- Node2 -->
<g id="Node000002" class="node">
<title>Node2</title>
<g id="a_Node000002"><a xlink:href="../../da/dd5/classTerraria_1_1Main_a474beeecaea4d6dd108fba56cd554d46.html#a474beeecaea4d6dd108fba56cd554d46" target="_top" xlink:title=" ">
<polygon fill="white" stroke="#666666" points="1046.5,-176.5 924.5,-176.5 924.5,-157.5 1046.5,-157.5 1046.5,-176.5"/>
<text text-anchor="middle" x="985.5" y="-164.5" font-family="Helvetica,sans-Serif" font-size="10.00">Terraria.Main.DoDraw</text>
</a>
</g>
</g>
<!-- Node1&#45;&gt;Node2 -->
<g id="edge1_Node000001_Node000002" class="edge">
<title>Node1&#45;&gt;Node2</title>
<g id="a_edge1_Node000001_Node000002"><a xlink:title=" ">
<path fill="none" stroke="#63b8ff" d="M1155.03,-103.01C1134.7,-115.73 1103.87,-133.65 1075,-145 1062.18,-150.04 1047.85,-154.19 1034.52,-157.48"/>
<polygon fill="#63b8ff" stroke="#63b8ff" points="1157.02,-105.89 1163.59,-97.58 1153.27,-99.99 1157.02,-105.89"/>
</a>
</g>
</g>
<!-- Node5 -->
<g id="Node000005" class="node">
<title>Node5</title>
<g id="a_Node000005"><a xlink:href="../../da/dd5/classTerraria_1_1Main_a16fc61537635fb59b4edde415f32fc84.html#a16fc61537635fb59b4edde415f32fc84" target="_top" xlink:title=" ">
<polygon fill="white" stroke="#666666" points="836.5,-30 704.5,-30 704.5,0 836.5,0 836.5,-30"/>
<text text-anchor="start" x="712.5" y="-18" font-family="Helvetica,sans-Serif" font-size="10.00">Terraria.Main.DoUpdate</text>
<text text-anchor="middle" x="770.5" y="-7" font-family="Helvetica,sans-Serif" font-size="10.00">_WhilePaused</text>
</a>
</g>
</g>
<!-- Node1&#45;&gt;Node5 -->
<g id="edge4_Node000001_Node000005" class="edge">
<title>Node1&#45;&gt;Node5</title>
<g id="a_edge4_Node000001_Node000005"><a xlink:title=" ">
<path fill="none" stroke="#63b8ff" d="M1150.61,-73.93C1130.28,-64.15 1101.6,-51.71 1075,-45 994.52,-24.71 898.81,-18.02 836.69,-15.88"/>
<polygon fill="#63b8ff" stroke="#63b8ff" points="1149.07,-77.07 1159.59,-78.34 1152.16,-70.79 1149.07,-77.07"/>
</a>
</g>
</g>
<!-- Node8 -->
<g id="Node000008" class="node">
<title>Node8</title>
<g id="a_Node000008"><a xlink:href="../../d8/d31/classTerraria_1_1GameContent_1_1UI_1_1Elements_1_1UICreativeInfiniteItemsDisplay_a0140a3c4680e69542a1b82a798d70a86.html#a0140a3c4680e69542a1b82a798d70a86" target="_top" xlink:title=" ">
<polygon fill="white" stroke="#666666" points="1075,-135.5 896,-135.5 896,-94.5 1075,-94.5 1075,-135.5"/>
<text text-anchor="start" x="904" y="-123.5" font-family="Helvetica,sans-Serif" font-size="10.00">Terraria.GameContent.UI.</text>
<text text-anchor="start" x="904" y="-112.5" font-family="Helvetica,sans-Serif" font-size="10.00">Elements.UICreativeInfiniteItems</text>
<text text-anchor="middle" x="985.5" y="-101.5" font-family="Helvetica,sans-Serif" font-size="10.00">Display.OnCanceledInput</text>
</a>
</g>
</g>
<!-- Node1&#45;&gt;Node8 -->
<g id="edge7_Node000001_Node000008" class="edge">
<title>Node1&#45;&gt;Node8</title>
<g id="a_edge7_Node000001_Node000008"><a xlink:title=" ">
<path fill="none" stroke="#63b8ff" d="M1100.62,-98.91C1092.22,-100.09 1083.62,-101.31 1075.1,-102.51"/>
<polygon fill="#63b8ff" stroke="#63b8ff" points="1101.34,-102.34 1110.75,-97.48 1100.36,-95.41 1101.34,-102.34"/>
</a>
</g>
</g>
<!-- Node13 -->
<g id="Node000013" class="node">
<title>Node13</title>
<g id="a_Node000013"><a xlink:href="../../d4/d03/classTerraria_1_1Player_af44290f5d38b6d5076a5fa8d6ee3dd12.html#af44290f5d38b6d5076a5fa8d6ee3dd12" target="_top" xlink:title=" ">
<polygon fill="white" stroke="#666666" points="1048,-73.5 923,-73.5 923,-54.5 1048,-54.5 1048,-73.5"/>
<text text-anchor="middle" x="985.5" y="-61.5" font-family="Helvetica,sans-Serif" font-size="10.00">Terraria.Player.Update</text>
</a>
</g>
</g>
<!-- Node1&#45;&gt;Node13 -->
<g id="edge12_Node000001_Node000013" class="edge">
<title>Node1&#45;&gt;Node13</title>
<g id="a_edge12_Node000001_Node000013"><a xlink:title=" ">
<path fill="none" stroke="#63b8ff" d="M1100.59,-78.3C1083.14,-76.11 1064.84,-73.82 1048.14,-71.73"/>
<polygon fill="#63b8ff" stroke="#63b8ff" points="1100.4,-81.8 1110.75,-79.57 1101.27,-74.86 1100.4,-81.8"/>
</a>
</g>
</g>
<!-- Node3 -->
<g id="Node000003" class="node">
<title>Node3</title>
<g id="a_Node000003"><a xlink:href="../../da/dd5/classTerraria_1_1Main_aa597dbafa085227bb056d05d0b0f9abe.html#aa597dbafa085227bb056d05d0b0f9abe" target="_top" xlink:title=" ">
<polygon fill="white" stroke="#666666" points="825,-186 716,-186 716,-156 825,-156 825,-186"/>
<text text-anchor="start" x="724" y="-174" font-family="Helvetica,sans-Serif" font-size="10.00">Terraria.Main.Draw</text>
<text text-anchor="middle" x="770.5" y="-163" font-family="Helvetica,sans-Serif" font-size="10.00">_Inner</text>
</a>
</g>
</g>
<!-- Node2&#45;&gt;Node3 -->
<g id="edge2_Node000002_Node000003" class="edge">
<title>Node2&#45;&gt;Node3</title>
<g id="a_edge2_Node000002_Node000003"><a xlink:title=" ">
<path fill="none" stroke="#63b8ff" d="M914.23,-168.32C885.17,-168.87 852.03,-169.49 825,-170"/>
<polygon fill="#63b8ff" stroke="#63b8ff" points="914.38,-171.82 924.32,-168.13 914.25,-164.82 914.38,-171.82"/>
</a>
</g>
</g>
<!-- Node4 -->
<g id="Node000004" class="node">
<title>Node4</title>
<g id="a_Node000004"><a xlink:href="../../da/dd5/classTerraria_1_1Main_a516aa31311860bad4242ade32e5effcd.html#a516aa31311860bad4242ade32e5effcd" target="_top" xlink:title=" ">
<polygon fill="white" stroke="#666666" points="605,-180.5 496,-180.5 496,-161.5 605,-161.5 605,-180.5"/>
<text text-anchor="middle" x="550.5" y="-168.5" font-family="Helvetica,sans-Serif" font-size="10.00">Terraria.Main.Draw</text>
</a>
</g>
</g>
<!-- Node3&#45;&gt;Node4 -->
<g id="edge3_Node000003_Node000004" class="edge">
<title>Node3&#45;&gt;Node4</title>
<g id="a_edge3_Node000003_Node000004"><a xlink:title=" ">
<path fill="none" stroke="#63b8ff" d="M705.77,-171C673.87,-171 635.68,-171 605.28,-171"/>
<polygon fill="#63b8ff" stroke="#63b8ff" points="705.89,-174.5 715.89,-171 705.89,-167.5 705.89,-174.5"/>
</a>
</g>
</g>
<!-- Node6 -->
<g id="Node000006" class="node">
<title>Node6</title>
<g id="a_Node000006"><a xlink:href="../../da/dd5/classTerraria_1_1Main_a96341b8439a15bcefc0f119767e24e35.html#a96341b8439a15bcefc0f119767e24e35" target="_top" xlink:title=" ">
<polygon fill="white" stroke="#666666" points="616.5,-48.5 484.5,-48.5 484.5,-29.5 616.5,-29.5 616.5,-48.5"/>
<text text-anchor="middle" x="550.5" y="-36.5" font-family="Helvetica,sans-Serif" font-size="10.00">Terraria.Main.DoUpdate</text>
</a>
</g>
</g>
<!-- Node5&#45;&gt;Node6 -->
<g id="edge5_Node000005_Node000006" class="edge">
<title>Node5&#45;&gt;Node6</title>
<g id="a_edge5_Node000005_Node000006"><a xlink:title=" ">
<path fill="none" stroke="#63b8ff" d="M694.13,-23.3C668.91,-26.07 641.03,-29.14 616.65,-31.83"/>
<polygon fill="#63b8ff" stroke="#63b8ff" points="694.83,-26.74 704.39,-22.17 694.07,-19.78 694.83,-26.74"/>
</a>
</g>
</g>
<!-- Node7 -->
<g id="Node000007" class="node">
<title>Node7</title>
<g id="a_Node000007"><a xlink:href="../../da/dd5/classTerraria_1_1Main_a49776516aea1626e33c722fc8896a7de.html#a49776516aea1626e33c722fc8896a7de" target="_top" xlink:title=" ">
<polygon fill="white" stroke="#666666" points="390,-48.5 271,-48.5 271,-29.5 390,-29.5 390,-48.5"/>
<text text-anchor="middle" x="330.5" y="-36.5" font-family="Helvetica,sans-Serif" font-size="10.00">Terraria.Main.Update</text>
</a>
</g>
</g>
<!-- Node6&#45;&gt;Node7 -->
<g id="edge6_Node000006_Node000007" class="edge">
<title>Node6&#45;&gt;Node7</title>
<g id="a_edge6_Node000006_Node000007"><a xlink:title=" ">
<path fill="none" stroke="#63b8ff" d="M474.05,-39C446.65,-39 416.1,-39 390.34,-39"/>
<polygon fill="#63b8ff" stroke="#63b8ff" points="474.39,-42.5 484.39,-39 474.39,-35.5 474.39,-42.5"/>
</a>
</g>
</g>
<!-- Node9 -->
<g id="Node000009" class="node">
<title>Node9</title>
<g id="a_Node000009"><a xlink:href="../../d8/d31/classTerraria_1_1GameContent_1_1UI_1_1Elements_1_1UICreativeInfiniteItemsDisplay_a513a6be7b58af5e94ab9b753a5f1f898.html#a513a6be7b58af5e94ab9b753a5f1f898" target="_top" xlink:title=" ">
<polygon fill="white" stroke="#666666" points="860,-137.5 681,-137.5 681,-96.5 860,-96.5 860,-137.5"/>
<text text-anchor="start" x="689" y="-125.5" font-family="Helvetica,sans-Serif" font-size="10.00">Terraria.GameContent.UI.</text>
<text text-anchor="start" x="689" y="-114.5" font-family="Helvetica,sans-Serif" font-size="10.00">Elements.UICreativeInfiniteItems</text>
<text text-anchor="middle" x="770.5" y="-103.5" font-family="Helvetica,sans-Serif" font-size="10.00">Display.AddSearchBar</text>
</a>
</g>
</g>
<!-- Node8&#45;&gt;Node9 -->
<g id="edge8_Node000008_Node000009" class="edge">
<title>Node8&#45;&gt;Node9</title>
<g id="a_edge8_Node000008_Node000009"><a xlink:title=" ">
<path fill="none" stroke="#63b8ff" d="M885.46,-115.93C877.01,-116.01 868.5,-116.09 860.14,-116.17"/>
<polygon fill="#63b8ff" stroke="#63b8ff" points="885.74,-119.43 895.71,-115.83 885.68,-112.43 885.74,-119.43"/>
</a>
</g>
</g>
<!-- Node10 -->
<g id="Node000010" class="node">
<title>Node10</title>
<g id="a_Node000010"><a xlink:href="../../d8/d31/classTerraria_1_1GameContent_1_1UI_1_1Elements_1_1UICreativeInfiniteItemsDisplay_aff0c33239480800ff90171f9650d7b6d.html#aff0c33239480800ff90171f9650d7b6d" target="_top" xlink:title=" ">
<polygon fill="white" stroke="#666666" points="645,-137.5 456,-137.5 456,-96.5 645,-96.5 645,-137.5"/>
<text text-anchor="start" x="464" y="-125.5" font-family="Helvetica,sans-Serif" font-size="10.00">Terraria.GameContent.UI.</text>
<text text-anchor="start" x="464" y="-114.5" font-family="Helvetica,sans-Serif" font-size="10.00">Elements.UICreativeInfiniteItems</text>
<text text-anchor="middle" x="550.5" y="-103.5" font-family="Helvetica,sans-Serif" font-size="10.00">Display.BuildInfinitesMenuContents</text>
</a>
</g>
</g>
<!-- Node9&#45;&gt;Node10 -->
<g id="edge9_Node000009_Node000010" class="edge">
<title>Node9&#45;&gt;Node10</title>
<g id="a_edge9_Node000009_Node000010"><a xlink:title=" ">
<path fill="none" stroke="#63b8ff" d="M670.82,-117C662.25,-117 653.59,-117 645.06,-117"/>
<polygon fill="#63b8ff" stroke="#63b8ff" points="670.83,-120.5 680.83,-117 670.83,-113.5 670.83,-120.5"/>
</a>
</g>
</g>
<!-- Node11 -->
<g id="Node000011" class="node">
<title>Node11</title>
<g id="a_Node000011"><a xlink:href="../../d8/d31/classTerraria_1_1GameContent_1_1UI_1_1Elements_1_1UICreativeInfiniteItemsDisplay_ab184ee17314228f8d4939f76cdc61041.html#ab184ee17314228f8d4939f76cdc61041" target="_top" xlink:title=" ">
<polygon fill="white" stroke="#666666" points="420,-137.5 241,-137.5 241,-96.5 420,-96.5 420,-137.5"/>
<text text-anchor="start" x="249" y="-125.5" font-family="Helvetica,sans-Serif" font-size="10.00">Terraria.GameContent.UI.</text>
<text text-anchor="start" x="249" y="-114.5" font-family="Helvetica,sans-Serif" font-size="10.00">Elements.UICreativeInfiniteItems</text>
<text text-anchor="middle" x="330.5" y="-103.5" font-family="Helvetica,sans-Serif" font-size="10.00">Display.BuildPage</text>
</a>
</g>
</g>
<!-- Node10&#45;&gt;Node11 -->
<g id="edge10_Node000010_Node000011" class="edge">
<title>Node10&#45;&gt;Node11</title>
<g id="a_edge10_Node000010_Node000011"><a xlink:title=" ">
<path fill="none" stroke="#63b8ff" d="M445.53,-117C437.09,-117 428.62,-117 420.31,-117"/>
<polygon fill="#63b8ff" stroke="#63b8ff" points="445.78,-120.5 455.78,-117 445.78,-113.5 445.78,-120.5"/>
</a>
</g>
</g>
<!-- Node12 -->
<g id="Node000012" class="node">
<title>Node12</title>
<g id="a_Node000012"><a xlink:href="../../d8/d31/classTerraria_1_1GameContent_1_1UI_1_1Elements_1_1UICreativeInfiniteItemsDisplay_a03ee1f635a5e08a8814778745d83b062.html#a03ee1f635a5e08a8814778745d83b062" target="_top" xlink:title=" ">
<polygon fill="white" stroke="#666666" points="205,-137.5 0,-137.5 0,-96.5 205,-96.5 205,-137.5"/>
<text text-anchor="start" x="8" y="-125.5" font-family="Helvetica,sans-Serif" font-size="10.00">Terraria.GameContent.UI.</text>
<text text-anchor="start" x="8" y="-114.5" font-family="Helvetica,sans-Serif" font-size="10.00">Elements.UICreativeInfiniteItems</text>
<text text-anchor="middle" x="102.5" y="-103.5" font-family="Helvetica,sans-Serif" font-size="10.00">Display.UICreativeInfiniteItemsDisplay</text>
</a>
</g>
</g>
<!-- Node11&#45;&gt;Node12 -->
<g id="edge11_Node000011_Node000012" class="edge">
<title>Node11&#45;&gt;Node12</title>
<g id="a_edge11_Node000011_Node000012"><a xlink:title=" ">
<path fill="none" stroke="#63b8ff" d="M230.56,-117C222.09,-117 213.51,-117 205.02,-117"/>
<polygon fill="#63b8ff" stroke="#63b8ff" points="230.83,-120.5 240.83,-117 230.83,-113.5 230.83,-120.5"/>
</a>
</g>
</g>
<!-- Node14 -->
<g id="Node000014" class="node">
<title>Node14</title>
<g id="a_Node000014"><a xlink:href="../../da/dd5/classTerraria_1_1Main_a39cdec3f201787a467045358bfcba377.html#a39cdec3f201787a467045358bfcba377" target="_top" xlink:title=" ">
<polygon fill="white" stroke="#666666" points="841,-78 700,-78 700,-48 841,-48 841,-78"/>
<text text-anchor="start" x="708" y="-66" font-family="Helvetica,sans-Serif" font-size="10.00">Terraria.Main.DoUpdateIn</text>
<text text-anchor="middle" x="770.5" y="-55" font-family="Helvetica,sans-Serif" font-size="10.00">World</text>
</a>
</g>
</g>
<!-- Node13&#45;&gt;Node14 -->
<g id="edge13_Node000013_Node000014" class="edge">
<title>Node13&#45;&gt;Node14</title>
<g id="a_edge13_Node000013_Node000014"><a xlink:title=" ">
<path fill="none" stroke="#63b8ff" d="M912.81,-63.66C889.72,-63.56 864.16,-63.44 841.21,-63.33"/>
<polygon fill="#63b8ff" stroke="#63b8ff" points="912.88,-67.16 922.89,-63.71 912.91,-60.16 912.88,-67.16"/>
</a>
</g>
</g>
<!-- Node14&#45;&gt;Node6 -->
<g id="edge14_Node000014_Node000006" class="edge">
<title>Node14&#45;&gt;Node6</title>
<g id="a_edge14_Node000014_Node000006"><a xlink:title=" ">
<path fill="none" stroke="#63b8ff" d="M689.77,-54.22C665.75,-51.58 639.67,-48.71 616.71,-46.18"/>
<polygon fill="#63b8ff" stroke="#63b8ff" points="689.6,-57.72 699.92,-55.34 690.37,-50.77 689.6,-57.72"/>
</a>
</g>
</g>
</g>
</svg>
