<?xml version="1.0" encoding="UTF-8" standalone="no"?>
<!DOCTYPE svg PUBLIC "-//W3C//DTD SVG 1.1//EN"
 "http://www.w3.org/Graphics/SVG/1.1/DTD/svg11.dtd">
<!-- Generated by graphviz version 2.43.0 (0)
 -->
<!-- Title: Terraria.Player.GetTotalArmorPenetration Pages: 1 -->
<svg width="1643pt" height="297pt"
 viewBox="0.00 0.00 1643.00 297.49" xmlns="http://www.w3.org/2000/svg" xmlns:xlink="http://www.w3.org/1999/xlink">
<g id="graph0" class="graph" transform="scale(1 1) rotate(0) translate(4 293.49)">
<title>Terraria.Player.GetTotalArmorPenetration</title>
<!-- Node1 -->
<g id="Node000001" class="node">
<title>Node1</title>
<g id="a_Node000001"><a xlink:title=" ">
<polygon fill="#999999" stroke="#666666" points="1635,-91.5 1505,-91.5 1505,-61.5 1635,-61.5 1635,-91.5"/>
<text text-anchor="start" x="1513" y="-79.5" font-family="Helvetica,sans-Serif" font-size="10.00">Terraria.Player.GetTotal</text>
<text text-anchor="middle" x="1570" y="-68.5" font-family="Helvetica,sans-Serif" font-size="10.00">ArmorPenetration</text>
</a>
</g>
</g>
<!-- Node2 -->
<g id="Node000002" class="node">
<title>Node2</title>
<g id="a_Node000002"><a xlink:href="../../d4/d03/classTerraria_1_1Player_ace6c0a0121af4ef0afe5a801c10c0856.html#ace6c0a0121af4ef0afe5a801c10c0856" target="_top" xlink:title="Deals damage to an NPC (and syncs the hit in multiplayer). &#160;&#160;The damage will be affected by modifiers...">
<polygon fill="white" stroke="#666666" points="932,-167.5 774,-167.5 774,-137.5 932,-137.5 932,-167.5"/>
<text text-anchor="start" x="782" y="-155.5" font-family="Helvetica,sans-Serif" font-size="10.00">Terraria.Player.ApplyDamage</text>
<text text-anchor="middle" x="853" y="-144.5" font-family="Helvetica,sans-Serif" font-size="10.00">ToNPC</text>
</a>
</g>
</g>
<!-- Node1&#45;&gt;Node2 -->
<g id="edge1_Node000001_Node000002" class="edge">
<title>Node1&#45;&gt;Node2</title>
<g id="a_edge1_Node000001_Node000002"><a xlink:title=" ">
<path fill="none" stroke="#63b8ff" d="M1535.79,-96.61C1516.92,-106.96 1492.43,-118.6 1469,-124.5 1280.87,-171.84 1050.37,-166.13 932.14,-158.79"/>
<polygon fill="#63b8ff" stroke="#63b8ff" points="1537.58,-99.62 1544.58,-91.67 1534.15,-93.52 1537.58,-99.62"/>
</a>
</g>
</g>
<!-- Node11 -->
<g id="Node000011" class="node">
<title>Node11</title>
<g id="a_Node000011"><a xlink:href="../../d4/d03/classTerraria_1_1Player_aef8a32b698a87fa5a183c9f5dcc85358.html#aef8a32b698a87fa5a183c9f5dcc85358" target="_top" xlink:title=" ">
<polygon fill="white" stroke="#666666" points="1461.5,-115.5 1330.5,-115.5 1330.5,-85.5 1461.5,-85.5 1461.5,-115.5"/>
<text text-anchor="start" x="1338.5" y="-103.5" font-family="Helvetica,sans-Serif" font-size="10.00">Terraria.Player.GetTotal</text>
<text text-anchor="middle" x="1396" y="-92.5" font-family="Helvetica,sans-Serif" font-size="10.00">ArmorPenetration&lt; T &gt;</text>
</a>
</g>
</g>
<!-- Node1&#45;&gt;Node11 -->
<g id="edge16_Node000001_Node000011" class="edge">
<title>Node1&#45;&gt;Node11</title>
<g id="a_edge16_Node000001_Node000011"><a xlink:title=" ">
<path fill="none" stroke="#63b8ff" d="M1494.9,-86.84C1483.84,-88.38 1472.52,-89.96 1461.67,-91.48"/>
<polygon fill="#63b8ff" stroke="#63b8ff" points="1495.53,-90.29 1504.95,-85.44 1494.57,-83.35 1495.53,-90.29"/>
</a>
</g>
</g>
<!-- Node12 -->
<g id="Node000012" class="node">
<title>Node12</title>
<g id="a_Node000012"><a xlink:href="../../d4/d03/classTerraria_1_1Player_ad7e26d1a38e35debd5e3fd36fb36ba7d.html#ad7e26d1a38e35debd5e3fd36fb36ba7d" target="_top" xlink:title=" ">
<polygon fill="white" stroke="#666666" points="1469,-67.5 1323,-67.5 1323,-37.5 1469,-37.5 1469,-67.5"/>
<text text-anchor="start" x="1331" y="-55.5" font-family="Helvetica,sans-Serif" font-size="10.00">Terraria.Player.GetWeapon</text>
<text text-anchor="middle" x="1396" y="-44.5" font-family="Helvetica,sans-Serif" font-size="10.00">ArmorPenetration</text>
</a>
</g>
</g>
<!-- Node1&#45;&gt;Node12 -->
<g id="edge17_Node000001_Node000012" class="edge">
<title>Node1&#45;&gt;Node12</title>
<g id="a_edge17_Node000001_Node000012"><a xlink:title=" ">
<path fill="none" stroke="#63b8ff" d="M1495.01,-66.18C1486.45,-64.98 1477.73,-63.77 1469.2,-62.57"/>
<polygon fill="#63b8ff" stroke="#63b8ff" points="1494.57,-69.65 1504.95,-67.56 1495.53,-62.71 1494.57,-69.65"/>
</a>
</g>
</g>
<!-- Node19 -->
<g id="Node000019" class="node">
<title>Node19</title>
<g id="a_Node000019"><a xlink:href="../../da/dd3/classTerraria_1_1Projectile_a4decd5f61fc00b54a872757322a269c9.html#a4decd5f61fc00b54a872757322a269c9" target="_top" xlink:title=" ">
<polygon fill="white" stroke="#666666" points="1466,-19 1326,-19 1326,0 1466,0 1466,-19"/>
<text text-anchor="middle" x="1396" y="-7" font-family="Helvetica,sans-Serif" font-size="10.00">Terraria.Projectile.Update</text>
</a>
</g>
</g>
<!-- Node1&#45;&gt;Node19 -->
<g id="edge25_Node000001_Node000019" class="edge">
<title>Node1&#45;&gt;Node19</title>
<g id="a_edge25_Node000001_Node000019"><a xlink:title=" ">
<path fill="none" stroke="#63b8ff" d="M1532.17,-56.75C1513.59,-47.33 1490.49,-36.41 1469,-28.5 1459.29,-24.93 1448.62,-21.73 1438.54,-19.03"/>
<polygon fill="#63b8ff" stroke="#63b8ff" points="1530.68,-59.92 1541.17,-61.38 1533.88,-53.7 1530.68,-59.92"/>
</a>
</g>
</g>
<!-- Node3 -->
<g id="Node000003" class="node">
<title>Node3</title>
<g id="a_Node000003"><a xlink:href="../../d4/d03/classTerraria_1_1Player_ab266ed8b7d23e49a5bd11a1f5a67dca1.html#ab266ed8b7d23e49a5bd11a1f5a67dca1" target="_top" xlink:title=" ">
<polygon fill="white" stroke="#666666" points="738,-276 567,-276 567,-257 738,-257 738,-276"/>
<text text-anchor="middle" x="652.5" y="-264" font-family="Helvetica,sans-Serif" font-size="10.00">Terraria.Player.CollideWithNPCs</text>
</a>
</g>
</g>
<!-- Node2&#45;&gt;Node3 -->
<g id="edge2_Node000002_Node000003" class="edge">
<title>Node2&#45;&gt;Node3</title>
<g id="a_edge2_Node000002_Node000003"><a xlink:title=" ">
<path fill="none" stroke="#63b8ff" d="M829.38,-174.83C807.63,-195.15 773,-224.61 738,-242.5 726.05,-248.61 712.33,-253.35 699.47,-256.95"/>
<polygon fill="#63b8ff" stroke="#63b8ff" points="831.94,-177.22 836.78,-167.8 827.12,-172.15 831.94,-177.22"/>
</a>
</g>
</g>
<!-- Node5 -->
<g id="Node000005" class="node">
<title>Node5</title>
<g id="a_Node000005"><a xlink:href="../../d4/d03/classTerraria_1_1Player_af44290f5d38b6d5076a5fa8d6ee3dd12.html#af44290f5d38b6d5076a5fa8d6ee3dd12" target="_top" xlink:title=" ">
<polygon fill="white" stroke="#666666" points="125,-162 0,-162 0,-143 125,-143 125,-162"/>
<text text-anchor="middle" x="62.5" y="-150" font-family="Helvetica,sans-Serif" font-size="10.00">Terraria.Player.Update</text>
</a>
</g>
</g>
<!-- Node2&#45;&gt;Node5 -->
<g id="edge11_Node000002_Node000005" class="edge">
<title>Node2&#45;&gt;Node5</title>
<g id="a_edge11_Node000002_Node000005"><a xlink:title=" ">
<path fill="none" stroke="#63b8ff" d="M800.46,-170.62C781.09,-176.82 758.73,-183.26 738,-187.5 486.75,-238.92 410.32,-252.57 161,-192.5 132.36,-185.6 101.18,-171.56 81.98,-162.09"/>
<polygon fill="#63b8ff" stroke="#63b8ff" points="801.58,-173.94 810,-167.51 799.41,-167.28 801.58,-173.94"/>
</a>
</g>
</g>
<!-- Node7 -->
<g id="Node000007" class="node">
<title>Node7</title>
<g id="a_Node000007"><a xlink:href="../../d4/d03/classTerraria_1_1Player_aa98744e57552c41243d3812f03c7383c.html#aa98744e57552c41243d3812f03c7383c" target="_top" xlink:title=" ">
<polygon fill="white" stroke="#666666" points="531,-200 364,-200 364,-181 531,-181 531,-200"/>
<text text-anchor="middle" x="447.5" y="-188" font-family="Helvetica,sans-Serif" font-size="10.00">Terraria.Player.DashMovement</text>
</a>
</g>
</g>
<!-- Node2&#45;&gt;Node7 -->
<g id="edge7_Node000002_Node000007" class="edge">
<title>Node2&#45;&gt;Node7</title>
<g id="a_edge7_Node000002_Node000007"><a xlink:title=" ">
<path fill="none" stroke="#63b8ff" d="M763.69,-163.69C755.02,-164.69 746.34,-165.64 738,-166.5 668.39,-173.66 589.2,-180.11 531.25,-184.51"/>
<polygon fill="#63b8ff" stroke="#63b8ff" points="764.33,-167.14 773.86,-162.51 763.52,-160.19 764.33,-167.14"/>
</a>
</g>
</g>
<!-- Node8 -->
<g id="Node000008" class="node">
<title>Node8</title>
<g id="a_Node000008"><a xlink:href="../../d4/d03/classTerraria_1_1Player_aa6d93fb6c9562517fa09ad6311320897.html#aa6d93fb6c9562517fa09ad6311320897" target="_top" xlink:title=" ">
<polygon fill="white" stroke="#666666" points="328,-162 161,-162 161,-143 328,-143 328,-162"/>
<text text-anchor="middle" x="244.5" y="-150" font-family="Helvetica,sans-Serif" font-size="10.00">Terraria.Player.JumpMovement</text>
</a>
</g>
</g>
<!-- Node2&#45;&gt;Node8 -->
<g id="edge9_Node000002_Node000008" class="edge">
<title>Node2&#45;&gt;Node8</title>
<g id="a_edge9_Node000002_Node000008"><a xlink:title=" ">
<path fill="none" stroke="#63b8ff" d="M763.61,-152.5C646.66,-152.5 442.06,-152.5 328.1,-152.5"/>
<polygon fill="#63b8ff" stroke="#63b8ff" points="763.95,-156 773.95,-152.5 763.95,-149 763.95,-156"/>
</a>
</g>
</g>
<!-- Node9 -->
<g id="Node000009" class="node">
<title>Node9</title>
<g id="a_Node000009"><a xlink:href="../../d4/d03/classTerraria_1_1Player_a0ee2a52a8aa8d4539051ce29283b3565.html#a0ee2a52a8aa8d4539051ce29283b3565" target="_top" xlink:title=" ">
<polygon fill="white" stroke="#666666" points="510,-124.5 385,-124.5 385,-94.5 510,-94.5 510,-124.5"/>
<text text-anchor="start" x="393" y="-112.5" font-family="Helvetica,sans-Serif" font-size="10.00">Terraria.Player.Update</text>
<text text-anchor="middle" x="447.5" y="-101.5" font-family="Helvetica,sans-Serif" font-size="10.00">_NPCCollision</text>
</a>
</g>
</g>
<!-- Node2&#45;&gt;Node9 -->
<g id="edge12_Node000002_Node000009" class="edge">
<title>Node2&#45;&gt;Node9</title>
<g id="a_edge12_Node000002_Node000009"><a xlink:title=" ">
<path fill="none" stroke="#63b8ff" d="M763.68,-141.46C755,-140.43 746.33,-139.43 738,-138.5 659.44,-129.74 568.74,-120.85 510.1,-115.27"/>
<polygon fill="#63b8ff" stroke="#63b8ff" points="763.49,-144.96 773.84,-142.67 764.32,-138.01 763.49,-144.96"/>
</a>
</g>
</g>
<!-- Node10 -->
<g id="Node000010" class="node">
<title>Node10</title>
<g id="a_Node000010"><a xlink:href="../../d4/d03/classTerraria_1_1Player_a819e258583776db3fb62b1e22892d69d.html#a819e258583776db3fb62b1e22892d69d" target="_top" xlink:title=" ">
<polygon fill="white" stroke="#666666" points="727,-83 578,-83 578,-64 727,-64 727,-83"/>
<text text-anchor="middle" x="652.5" y="-71" font-family="Helvetica,sans-Serif" font-size="10.00">Terraria.Player.UpdateBuffs</text>
</a>
</g>
</g>
<!-- Node2&#45;&gt;Node10 -->
<g id="edge14_Node000002_Node000010" class="edge">
<title>Node2&#45;&gt;Node10</title>
<g id="a_edge14_Node000002_Node000010"><a xlink:title=" ">
<path fill="none" stroke="#63b8ff" d="M813.23,-132.87C791.44,-122.24 763.56,-109.32 738,-99.5 721.95,-93.33 703.77,-87.59 688.4,-83.07"/>
<polygon fill="#63b8ff" stroke="#63b8ff" points="811.96,-136.14 822.48,-137.42 815.05,-129.86 811.96,-136.14"/>
</a>
</g>
</g>
<!-- Node4 -->
<g id="Node000004" class="node">
<title>Node4</title>
<g id="a_Node000004"><a xlink:href="../../d4/d03/classTerraria_1_1Player_a66ae541e79f8ca71a9a071439b7292f6.html#a66ae541e79f8ca71a9a071439b7292f6" target="_top" xlink:title=" ">
<polygon fill="white" stroke="#666666" points="314.5,-286.5 174.5,-286.5 174.5,-256.5 314.5,-256.5 314.5,-286.5"/>
<text text-anchor="start" x="182.5" y="-274.5" font-family="Helvetica,sans-Serif" font-size="10.00">Terraria.Player.Horizontal</text>
<text text-anchor="middle" x="244.5" y="-263.5" font-family="Helvetica,sans-Serif" font-size="10.00">Movement</text>
</a>
</g>
</g>
<!-- Node3&#45;&gt;Node4 -->
<g id="edge3_Node000003_Node000004" class="edge">
<title>Node3&#45;&gt;Node4</title>
<g id="a_edge3_Node000003_Node000004"><a xlink:title=" ">
<path fill="none" stroke="#63b8ff" d="M592.5,-277.69C573,-280.88 551.14,-283.92 531,-285.5 457,-291.3 438.09,-289.86 364,-285.5 347.97,-284.56 330.79,-282.9 314.62,-281.05"/>
<polygon fill="#63b8ff" stroke="#63b8ff" points="593.18,-281.12 602.46,-276.01 592.02,-274.22 593.18,-281.12"/>
</a>
</g>
</g>
<!-- Node6 -->
<g id="Node000006" class="node">
<title>Node6</title>
<g id="a_Node000006"><a xlink:href="../../d4/d03/classTerraria_1_1Player_a5f7e71a854cc58dcb53eb04ec4326d96.html#a5f7e71a854cc58dcb53eb04ec4326d96" target="_top" xlink:title=" ">
<polygon fill="white" stroke="#666666" points="525.5,-276 369.5,-276 369.5,-257 525.5,-257 525.5,-276"/>
<text text-anchor="middle" x="447.5" y="-264" font-family="Helvetica,sans-Serif" font-size="10.00">Terraria.Player.MowTheLawn</text>
</a>
</g>
</g>
<!-- Node3&#45;&gt;Node6 -->
<g id="edge5_Node000003_Node000006" class="edge">
<title>Node3&#45;&gt;Node6</title>
<g id="a_edge5_Node000003_Node000006"><a xlink:title=" ">
<path fill="none" stroke="#63b8ff" d="M556.86,-266.5C546.36,-266.5 535.77,-266.5 525.53,-266.5"/>
<polygon fill="#63b8ff" stroke="#63b8ff" points="556.88,-270 566.88,-266.5 556.88,-263 556.88,-270"/>
</a>
</g>
</g>
<!-- Node4&#45;&gt;Node5 -->
<g id="edge4_Node000004_Node000005" class="edge">
<title>Node4&#45;&gt;Node5</title>
<g id="a_edge4_Node000004_Node000005"><a xlink:title=" ">
<path fill="none" stroke="#63b8ff" d="M181.03,-252.64C174.08,-249.64 167.26,-246.27 161,-242.5 122.91,-219.58 86.83,-180.06 71.39,-162"/>
<polygon fill="#63b8ff" stroke="#63b8ff" points="179.97,-255.99 190.55,-256.5 182.6,-249.5 179.97,-255.99"/>
</a>
</g>
</g>
<!-- Node6&#45;&gt;Node4 -->
<g id="edge6_Node000006_Node000004" class="edge">
<title>Node6&#45;&gt;Node4</title>
<g id="a_edge6_Node000006_Node000004"><a xlink:title=" ">
<path fill="none" stroke="#63b8ff" d="M359.12,-268.67C344.2,-269.04 328.9,-269.43 314.54,-269.78"/>
<polygon fill="#63b8ff" stroke="#63b8ff" points="359.45,-272.17 369.36,-268.42 359.28,-265.17 359.45,-272.17"/>
</a>
</g>
</g>
<!-- Node7&#45;&gt;Node5 -->
<g id="edge8_Node000007_Node000005" class="edge">
<title>Node7&#45;&gt;Node5</title>
<g id="a_edge8_Node000007_Node000005"><a xlink:title=" ">
<path fill="none" stroke="#63b8ff" d="M353.52,-187.28C297.56,-184.6 225,-179.83 161,-171.5 143.04,-169.16 123.41,-165.55 106.51,-162.09"/>
<polygon fill="#63b8ff" stroke="#63b8ff" points="353.62,-190.78 363.77,-187.75 353.95,-183.79 353.62,-190.78"/>
</a>
</g>
</g>
<!-- Node8&#45;&gt;Node5 -->
<g id="edge10_Node000008_Node000005" class="edge">
<title>Node8&#45;&gt;Node5</title>
<g id="a_edge10_Node000008_Node000005"><a xlink:title=" ">
<path fill="none" stroke="#63b8ff" d="M150.72,-152.5C142.06,-152.5 133.43,-152.5 125.17,-152.5"/>
<polygon fill="#63b8ff" stroke="#63b8ff" points="150.88,-156 160.88,-152.5 150.88,-149 150.88,-156"/>
</a>
</g>
</g>
<!-- Node9&#45;&gt;Node5 -->
<g id="edge13_Node000009_Node000005" class="edge">
<title>Node9&#45;&gt;Node5</title>
<g id="a_edge13_Node000009_Node000005"><a xlink:title=" ">
<path fill="none" stroke="#63b8ff" d="M374.63,-113.89C316.77,-117.88 233.44,-124.66 161,-134.5 144.28,-136.77 126.08,-139.94 109.97,-142.99"/>
<polygon fill="#63b8ff" stroke="#63b8ff" points="375.03,-117.37 384.77,-113.2 374.56,-110.39 375.03,-117.37"/>
</a>
</g>
</g>
<!-- Node10&#45;&gt;Node5 -->
<g id="edge15_Node000010_Node000005" class="edge">
<title>Node10&#45;&gt;Node5</title>
<g id="a_edge15_Node000010_Node000005"><a xlink:title=" ">
<path fill="none" stroke="#63b8ff" d="M567.6,-71.41C468.71,-70.98 300.2,-76.65 161,-113.5 133.15,-120.87 102.54,-134 83.18,-142.97"/>
<polygon fill="#63b8ff" stroke="#63b8ff" points="567.81,-74.91 577.84,-71.48 567.86,-67.91 567.81,-74.91"/>
</a>
</g>
</g>
<!-- Node13 -->
<g id="Node000013" class="node">
<title>Node13</title>
<g id="a_Node000013"><a xlink:href="../../d4/d03/classTerraria_1_1Player_af1859a25aaa70aa40fb8084c12122a6b.html#af1859a25aaa70aa40fb8084c12122a6b" target="_top" xlink:title=" ">
<polygon fill="white" stroke="#666666" points="1287,-65.5 1146,-65.5 1146,-35.5 1287,-35.5 1287,-65.5"/>
<text text-anchor="start" x="1154" y="-53.5" font-family="Helvetica,sans-Serif" font-size="10.00">Terraria.Player.ProcessHit</text>
<text text-anchor="middle" x="1216.5" y="-42.5" font-family="Helvetica,sans-Serif" font-size="10.00">AgainstNPC</text>
</a>
</g>
</g>
<!-- Node12&#45;&gt;Node13 -->
<g id="edge18_Node000012_Node000013" class="edge">
<title>Node12&#45;&gt;Node13</title>
<g id="a_edge18_Node000012_Node000013"><a xlink:title=" ">
<path fill="none" stroke="#63b8ff" d="M1312.77,-51.57C1304.17,-51.48 1295.49,-51.38 1287.05,-51.28"/>
<polygon fill="#63b8ff" stroke="#63b8ff" points="1312.77,-55.07 1322.8,-51.69 1312.84,-48.07 1312.77,-55.07"/>
</a>
</g>
</g>
<!-- Node14 -->
<g id="Node000014" class="node">
<title>Node14</title>
<g id="a_Node000014"><a xlink:href="../../d4/d03/classTerraria_1_1Player_a8ec4e53ec61d5152f437cfdd34a59f62.html#a8ec4e53ec61d5152f437cfdd34a59f62" target="_top" xlink:title=" ">
<polygon fill="white" stroke="#666666" points="1110,-63.5 968,-63.5 968,-33.5 1110,-33.5 1110,-63.5"/>
<text text-anchor="start" x="976" y="-51.5" font-family="Helvetica,sans-Serif" font-size="10.00">Terraria.Player.ItemCheck</text>
<text text-anchor="middle" x="1039" y="-40.5" font-family="Helvetica,sans-Serif" font-size="10.00">_MeleeHitNPCs</text>
</a>
</g>
</g>
<!-- Node13&#45;&gt;Node14 -->
<g id="edge19_Node000013_Node000014" class="edge">
<title>Node13&#45;&gt;Node14</title>
<g id="a_edge19_Node000013_Node000014"><a xlink:title=" ">
<path fill="none" stroke="#63b8ff" d="M1135.87,-49.59C1127.27,-49.49 1118.57,-49.4 1110.1,-49.3"/>
<polygon fill="#63b8ff" stroke="#63b8ff" points="1135.85,-53.09 1145.89,-49.71 1135.93,-46.09 1135.85,-53.09"/>
</a>
</g>
</g>
<!-- Node15 -->
<g id="Node000015" class="node">
<title>Node15</title>
<g id="a_Node000015"><a xlink:href="../../d4/d03/classTerraria_1_1Player_ac1293a17d359c543df00ce543ac20f02.html#ac1293a17d359c543df00ce543ac20f02" target="_top" xlink:title=" ">
<polygon fill="white" stroke="#666666" points="924,-49.5 782,-49.5 782,-19.5 924,-19.5 924,-49.5"/>
<text text-anchor="start" x="790" y="-37.5" font-family="Helvetica,sans-Serif" font-size="10.00">Terraria.Player.ItemCheck</text>
<text text-anchor="middle" x="853" y="-26.5" font-family="Helvetica,sans-Serif" font-size="10.00">_OwnerOnlyCode</text>
</a>
</g>
</g>
<!-- Node14&#45;&gt;Node15 -->
<g id="edge20_Node000014_Node000015" class="edge">
<title>Node14&#45;&gt;Node15</title>
<g id="a_edge20_Node000014_Node000015"><a xlink:title=" ">
<path fill="none" stroke="#63b8ff" d="M957.74,-42.39C946.57,-41.54 935.16,-40.68 924.2,-39.84"/>
<polygon fill="#63b8ff" stroke="#63b8ff" points="957.68,-45.9 967.91,-43.17 958.21,-38.92 957.68,-45.9"/>
</a>
</g>
</g>
<!-- Node16 -->
<g id="Node000016" class="node">
<title>Node16</title>
<g id="a_Node000016"><a xlink:href="../../d4/d03/classTerraria_1_1Player_a3eacd4d33ca74609db3633d339c047f8.html#a3eacd4d33ca74609db3633d339c047f8" target="_top" xlink:title=" ">
<polygon fill="white" stroke="#666666" points="723.5,-42.5 581.5,-42.5 581.5,-12.5 723.5,-12.5 723.5,-42.5"/>
<text text-anchor="start" x="589.5" y="-30.5" font-family="Helvetica,sans-Serif" font-size="10.00">Terraria.Player.ItemCheck</text>
<text text-anchor="middle" x="652.5" y="-19.5" font-family="Helvetica,sans-Serif" font-size="10.00">_Inner</text>
</a>
</g>
</g>
<!-- Node15&#45;&gt;Node16 -->
<g id="edge21_Node000015_Node000016" class="edge">
<title>Node15&#45;&gt;Node16</title>
<g id="a_edge21_Node000015_Node000016"><a xlink:title=" ">
<path fill="none" stroke="#63b8ff" d="M771.45,-31.66C755.62,-31.1 739.13,-30.52 723.67,-29.97"/>
<polygon fill="#63b8ff" stroke="#63b8ff" points="771.62,-35.17 781.74,-32.02 771.87,-28.17 771.62,-35.17"/>
</a>
</g>
</g>
<!-- Node17 -->
<g id="Node000017" class="node">
<title>Node17</title>
<g id="a_Node000017"><a xlink:href="../../d4/d03/classTerraria_1_1Player_a2ec9343f552a36a4a82b36dbae10c965.html#a2ec9343f552a36a4a82b36dbae10c965" target="_top" xlink:title=" ">
<polygon fill="white" stroke="#666666" points="518.5,-36 376.5,-36 376.5,-17 518.5,-17 518.5,-36"/>
<text text-anchor="middle" x="447.5" y="-24" font-family="Helvetica,sans-Serif" font-size="10.00">Terraria.Player.ItemCheck</text>
</a>
</g>
</g>
<!-- Node16&#45;&gt;Node17 -->
<g id="edge22_Node000016_Node000017" class="edge">
<title>Node16&#45;&gt;Node17</title>
<g id="a_edge22_Node000016_Node000017"><a xlink:title=" ">
<path fill="none" stroke="#63b8ff" d="M571.24,-27.1C553.86,-27.02 535.6,-26.93 518.65,-26.85"/>
<polygon fill="#63b8ff" stroke="#63b8ff" points="571.34,-30.61 581.35,-27.15 571.37,-23.61 571.34,-30.61"/>
</a>
</g>
</g>
<!-- Node18 -->
<g id="Node000018" class="node">
<title>Node18</title>
<g id="a_Node000018"><a xlink:href="../../d4/d03/classTerraria_1_1Player_a687261287a0d6ac3be2592f9a734f199.html#a687261287a0d6ac3be2592f9a734f199" target="_top" xlink:title=" ">
<polygon fill="white" stroke="#666666" points="315.5,-38.5 173.5,-38.5 173.5,-8.5 315.5,-8.5 315.5,-38.5"/>
<text text-anchor="start" x="181.5" y="-26.5" font-family="Helvetica,sans-Serif" font-size="10.00">Terraria.Player.ItemCheck</text>
<text text-anchor="middle" x="244.5" y="-15.5" font-family="Helvetica,sans-Serif" font-size="10.00">Wrapped</text>
</a>
</g>
</g>
<!-- Node17&#45;&gt;Node18 -->
<g id="edge23_Node000017_Node000018" class="edge">
<title>Node17&#45;&gt;Node18</title>
<g id="a_edge23_Node000017_Node000018"><a xlink:title=" ">
<path fill="none" stroke="#63b8ff" d="M366.18,-25.3C349.45,-25.05 331.94,-24.79 315.61,-24.55"/>
<polygon fill="#63b8ff" stroke="#63b8ff" points="366.43,-28.81 376.48,-25.45 366.54,-21.81 366.43,-28.81"/>
</a>
</g>
</g>
<!-- Node18&#45;&gt;Node5 -->
<g id="edge24_Node000018_Node000005" class="edge">
<title>Node18&#45;&gt;Node5</title>
<g id="a_edge24_Node000018_Node000005"><a xlink:title=" ">
<path fill="none" stroke="#63b8ff" d="M179.49,-42.63C173.05,-45.54 166.76,-48.82 161,-52.5 120.94,-78.07 85.07,-123.1 70.46,-142.81"/>
<polygon fill="#63b8ff" stroke="#63b8ff" points="181.15,-45.73 189.02,-38.63 178.44,-39.28 181.15,-45.73"/>
</a>
</g>
</g>
</g>
</svg>
