<?xml version="1.0" encoding="UTF-8" standalone="no"?>
<!DOCTYPE svg PUBLIC "-//W3C//DTD SVG 1.1//EN"
 "http://www.w3.org/Graphics/SVG/1.1/DTD/svg11.dtd">
<!-- Generated by graphviz version 2.43.0 (0)
 -->
<!-- Title: Terraria.Player.SmartInteractLookup Pages: 1 -->
<!--zoomable 173 -->

<svg id="main" version="1.1" xmlns="http://www.w3.org/2000/svg" xmlns:xlink="http://www.w3.org/1999/xlink" xml:space="preserve" onload="init(evt)">
<style type="text/css"><![CDATA[
.node, .edge {opacity: 0.7;}
.node.selected, .edge.selected {opacity: 1;}
.edge:hover path { stroke: red; }
.edge:hover polygon { stroke: red; fill: red; }
]]></style>

<defs>
  <circle id="rim" cx="0" cy="0" r="7"/>
  <circle id="rim2" cx="0" cy="0" r="3.5"/>
  <g id="zoomPlus">
    <use xlink:href="#rim" fill="#404040"><set attributeName="fill" to="#808080" begin="zoomplus.mouseover" end="zoomplus.mouseout"/></use>
    <path d="M-4,0h8M0,-4v8" fill="none" stroke="white" stroke-width="1.5" pointer-events="none"/>
  </g>
  <g id="zoomMin">
    <use xlink:href="#rim" fill="#404040"><set attributeName="fill" to="#808080" begin="zoomminus.mouseover" end="zoomminus.mouseout"/></use>
    <path d="M-4,0h8" fill="none" stroke="white" stroke-width="1.5" pointer-events="none"/>
  </g>
  <g id="arrowUp" transform="translate(30 24)">
    <use xlink:href="#rim"/>
    <path pointer-events="none" fill="none" stroke="white" stroke-width="1.5" d="M0,-3.0v7 M-2.5,-0.5L0,-3.0L2.5,-0.5"/>
  </g>
  <g id="arrowRight" transform="rotate(90) translate(36 -43)">
    <use xlink:href="#rim"/>
    <path pointer-events="none" fill="none" stroke="white" stroke-width="1.5" d="M0,-3.0v7 M-2.5,-0.5L0,-3.0L2.5,-0.5"/>
  </g>
  <g id="arrowDown" transform="rotate(180) translate(-30 -48)">
    <use xlink:href="#rim"/>
    <path pointer-events="none" fill="none" stroke="white" stroke-width="1.5" d="M0,-3.0v7 M-2.5,-0.5L0,-3.0L2.5,-0.5"/>
  </g>
  <g id="arrowLeft" transform="rotate(270) translate(-36 17)">
    <use xlink:href="#rim"/>
    <path pointer-events="none" fill="none" stroke="white" stroke-width="1.5" d="M0,-3.0v7 M-2.5,-0.5L0,-3.0L2.5,-0.5"/>
  </g>
  <g id="resetDef">
    <use xlink:href="#rim2" fill="#404040"><set attributeName="fill" to="#808080" begin="reset.mouseover" end="reset.mouseout"/></use>
  </g>
</defs>
<script type="application/ecmascript">
var viewWidth = 877;
var viewHeight = 173;
var sectionId = 'dynsection-0';
</script>
<script type="application/ecmascript" xlink:href="../../svg.min.js"/>
<svg id="graph" class="graph">
<g id="viewport">
<title>Terraria.Player.SmartInteractLookup</title>
<!-- Node1 -->
<g id="Node000001" class="node">
<title>Node1</title>
<g id="a_Node000001"><a xlink:title=" ">
<polygon fill="#999999" stroke="#666666" points="156,-111 0,-111 0,-81 156,-81 156,-111"/>
<text text-anchor="start" x="8" y="-99" font-family="Helvetica,sans-Serif" font-size="10.00">Terraria.Player.SmartInteract</text>
<text text-anchor="middle" x="78" y="-88" font-family="Helvetica,sans-Serif" font-size="10.00">Lookup</text>
</a>
</g>
</g>
<!-- Node2 -->
<g id="Node000002" class="node">
<title>Node2</title>
<g id="a_Node000002"><a xlink:href="../../df/d6a/classTerraria_1_1GameContent_1_1ObjectInteractions_1_1SmartInteractSystem_a7cb8a87bc6bd66ede40de65d8a1b3f5f.html#a7cb8a87bc6bd66ede40de65d8a1b3f5f" target="_top" xlink:title=" ">
<polygon fill="white" stroke="#666666" points="628,-159 419,-159 419,-129 628,-129 628,-159"/>
<text text-anchor="start" x="427" y="-147" font-family="Helvetica,sans-Serif" font-size="10.00">Terraria.GameContent.Object</text>
<text text-anchor="middle" x="523.5" y="-136" font-family="Helvetica,sans-Serif" font-size="10.00">Interactions.SmartInteractSystem.Clear</text>
</a>
</g>
</g>
<!-- Node1&#45;&gt;Node2 -->
<g id="edge1_Node000001_Node000002" class="edge">
<title>Node1&#45;&gt;Node2</title>
<g id="a_edge1_Node000001_Node000002"><a xlink:title=" ">
<path fill="none" stroke="#63b8ff" d="M103.96,-111C126.18,-123.43 160.02,-140.12 192,-147 262.95,-162.27 344.47,-161.72 408.8,-157.25"/>
<polygon fill="#63b8ff" stroke="#63b8ff" points="409.25,-160.73 418.97,-156.5 408.74,-153.75 409.25,-160.73"/>
</a>
</g>
</g>
<!-- Node4 -->
<g id="Node000004" class="node">
<title>Node4</title>
<g id="a_Node000004"><a xlink:href="../../da/dd5/classTerraria_1_1Main_adee9e129a417f7b69e4284b8c22c635f.html#adee9e129a417f7b69e4284b8c22c635f" target="_top" xlink:title=" ">
<polygon fill="white" stroke="#666666" points="356.5,-138 218.5,-138 218.5,-108 356.5,-108 356.5,-138"/>
<text text-anchor="start" x="226.5" y="-126" font-family="Helvetica,sans-Serif" font-size="10.00">Terraria.Main.ClearSmart</text>
<text text-anchor="middle" x="287.5" y="-115" font-family="Helvetica,sans-Serif" font-size="10.00">Interact</text>
</a>
</g>
</g>
<!-- Node1&#45;&gt;Node4 -->
<g id="edge3_Node000001_Node000004" class="edge">
<title>Node1&#45;&gt;Node4</title>
<g id="a_edge3_Node000001_Node000004"><a xlink:title=" ">
<path fill="none" stroke="#63b8ff" d="M156.27,-106.05C173.31,-108.27 191.39,-110.62 208.46,-112.85"/>
<polygon fill="#63b8ff" stroke="#63b8ff" points="208.02,-116.32 218.39,-114.14 208.93,-109.38 208.02,-116.32"/>
</a>
</g>
</g>
<!-- Node5 -->
<g id="Node000005" class="node">
<title>Node5</title>
<g id="a_Node000005"><a xlink:href="../../df/d6a/classTerraria_1_1GameContent_1_1ObjectInteractions_1_1SmartInteractSystem_aeaf9ce622b011ce2db949e463eface04.html#aeaf9ce622b011ce2db949e463eface04" target="_top" xlink:title=" ">
<polygon fill="white" stroke="#666666" points="379.5,-89.5 195.5,-89.5 195.5,-48.5 379.5,-48.5 379.5,-89.5"/>
<text text-anchor="start" x="203.5" y="-77.5" font-family="Helvetica,sans-Serif" font-size="10.00">Terraria.GameContent.Object</text>
<text text-anchor="start" x="203.5" y="-66.5" font-family="Helvetica,sans-Serif" font-size="10.00">Interactions.SmartInteractSystem.</text>
<text text-anchor="middle" x="287.5" y="-55.5" font-family="Helvetica,sans-Serif" font-size="10.00">RunQuery</text>
</a>
</g>
</g>
<!-- Node1&#45;&gt;Node5 -->
<g id="edge4_Node000001_Node000005" class="edge">
<title>Node1&#45;&gt;Node5</title>
<g id="a_edge4_Node000001_Node000005"><a xlink:title=" ">
<path fill="none" stroke="#63b8ff" d="M156.27,-85.95C165.67,-84.72 175.39,-83.46 185.08,-82.2"/>
<polygon fill="#63b8ff" stroke="#63b8ff" points="185.69,-85.65 195.16,-80.89 184.79,-78.71 185.69,-85.65"/>
</a>
</g>
</g>
<!-- Node7 -->
<g id="Node000007" class="node">
<title>Node7</title>
<g id="a_Node000007"><a xlink:href="../../d4/d03/classTerraria_1_1Player_a77d1e3f277a5202f2a670b55a798ba52.html#a77d1e3f277a5202f2a670b55a798ba52" target="_top" xlink:title=" ">
<polygon fill="white" stroke="#666666" points="383,-30 192,-30 192,0 383,0 383,-30"/>
<text text-anchor="start" x="200" y="-18" font-family="Helvetica,sans-Serif" font-size="10.00">Terraria.Player.SmartInteract</text>
<text text-anchor="middle" x="287.5" y="-7" font-family="Helvetica,sans-Serif" font-size="10.00">Lookup_PrepareCommonlyUsedInfo</text>
</a>
</g>
</g>
<!-- Node1&#45;&gt;Node7 -->
<g id="edge7_Node000001_Node000007" class="edge">
<title>Node1&#45;&gt;Node7</title>
<g id="a_edge7_Node000001_Node000007"><a xlink:title=" ">
<path fill="none" stroke="#63b8ff" d="M104.75,-80.97C127.19,-68.37 160.92,-50.62 192,-39 197.77,-36.84 203.82,-34.81 209.94,-32.91"/>
<polygon fill="#63b8ff" stroke="#63b8ff" points="211,-36.25 219.59,-30.05 209.01,-29.54 211,-36.25"/>
</a>
</g>
</g>
<!-- Node3 -->
<g id="Node000003" class="node">
<title>Node3</title>
<g id="a_Node000003"><a xlink:href="../../da/ddc/interfaceTerraria_1_1GameContent_1_1ObjectInteractions_1_1ISmartInteractCandidateProvider_a146a74053a54922cf90598af1df4eaec.html#a146a74053a54922cf90598af1df4eaec" target="_top" xlink:title=" ">
<polygon fill="white" stroke="#666666" points="869,-164.5 664,-164.5 664,-123.5 869,-123.5 869,-164.5"/>
<text text-anchor="start" x="672" y="-152.5" font-family="Helvetica,sans-Serif" font-size="10.00">Terraria.GameContent.Object</text>
<text text-anchor="start" x="672" y="-141.5" font-family="Helvetica,sans-Serif" font-size="10.00">Interactions.ISmartInteractCandidate</text>
<text text-anchor="middle" x="766.5" y="-130.5" font-family="Helvetica,sans-Serif" font-size="10.00">Provider.ClearSelfAndPrepareForCheck</text>
</a>
</g>
</g>
<!-- Node2&#45;&gt;Node3 -->
<g id="edge2_Node000002_Node000003" class="edge">
<title>Node2&#45;&gt;Node3</title>
<g id="a_edge2_Node000002_Node000003"><a xlink:title=" ">
<path fill="none" stroke="#63b8ff" d="M628.1,-144C636.63,-144 645.27,-144 653.86,-144"/>
<polygon fill="#63b8ff" stroke="#63b8ff" points="653.89,-147.5 663.89,-144 653.89,-140.5 653.89,-147.5"/>
</a>
</g>
</g>
<!-- Node5&#45;&gt;Node2 -->
<g id="edge5_Node000005_Node000002" class="edge">
<title>Node5&#45;&gt;Node2</title>
<g id="a_edge5_Node000005_Node000002"><a xlink:title=" ">
<path fill="none" stroke="#63b8ff" d="M353.33,-89.54C363.27,-92.7 373.41,-95.93 383,-99 410.39,-107.76 440.78,-117.56 466.18,-125.77"/>
<polygon fill="#63b8ff" stroke="#63b8ff" points="465.43,-129.2 476.02,-128.95 467.58,-122.54 465.43,-129.2"/>
</a>
</g>
</g>
<!-- Node6 -->
<g id="Node000006" class="node">
<title>Node6</title>
<g id="a_Node000006"><a xlink:href="../../da/ddc/interfaceTerraria_1_1GameContent_1_1ObjectInteractions_1_1ISmartInteractCandidateProvider_a38508ae27905aaacbba1ff9ea64dea1e.html#a38508ae27905aaacbba1ff9ea64dea1e" target="_top" xlink:title=" ">
<polygon fill="white" stroke="#666666" points="622,-89.5 425,-89.5 425,-48.5 622,-48.5 622,-89.5"/>
<text text-anchor="start" x="433" y="-77.5" font-family="Helvetica,sans-Serif" font-size="10.00">Terraria.GameContent.Object</text>
<text text-anchor="start" x="433" y="-66.5" font-family="Helvetica,sans-Serif" font-size="10.00">Interactions.ISmartInteractCandidate</text>
<text text-anchor="middle" x="523.5" y="-55.5" font-family="Helvetica,sans-Serif" font-size="10.00">Provider.ProvideCandidate</text>
</a>
</g>
</g>
<!-- Node5&#45;&gt;Node6 -->
<g id="edge6_Node000005_Node000006" class="edge">
<title>Node5&#45;&gt;Node6</title>
<g id="a_edge6_Node000005_Node000006"><a xlink:title=" ">
<path fill="none" stroke="#63b8ff" d="M379.64,-69C391.05,-69 402.81,-69 414.46,-69"/>
<polygon fill="#63b8ff" stroke="#63b8ff" points="414.64,-72.5 424.64,-69 414.64,-65.5 414.64,-72.5"/>
</a>
</g>
</g>
<!-- Node8 -->
<g id="Node000008" class="node">
<title>Node8</title>
<g id="a_Node000008"><a xlink:href="../../da/dd5/classTerraria_1_1Main_a433873fe233ad6228260abd07c38edbe.html#a433873fe233ad6228260abd07c38edbe" target="_top" xlink:title=" ">
<polygon fill="white" stroke="#666666" points="603,-30 444,-30 444,0 603,0 603,-30"/>
<text text-anchor="start" x="452" y="-18" font-family="Helvetica,sans-Serif" font-size="10.00">Terraria.Main.ReverseGravity</text>
<text text-anchor="middle" x="523.5" y="-7" font-family="Helvetica,sans-Serif" font-size="10.00">Support</text>
</a>
</g>
</g>
<!-- Node7&#45;&gt;Node8 -->
<g id="edge8_Node000007_Node000008" class="edge">
<title>Node7&#45;&gt;Node8</title>
<g id="a_edge8_Node000007_Node000008"><a xlink:title=" ">
<path fill="none" stroke="#63b8ff" d="M383,-15C399.7,-15 417.04,-15 433.58,-15"/>
<polygon fill="#63b8ff" stroke="#63b8ff" points="433.77,-18.5 443.77,-15 433.77,-11.5 433.77,-18.5"/>
</a>
</g>
</g>
</g>
</svg>

<g id="navigator" transform="translate(0 0)" fill="#404254">
  <rect fill="#f2f5e9" fill-opacity="0.5" stroke="#606060" stroke-width=".5" x="0" y="0" width="60" height="60"/>
  <use id="zoomplus" xlink:href="#zoomPlus" x="17" y="9" onmousedown="handleZoom(evt,'in')"/>
  <use id="zoomminus" xlink:href="#zoomMin" x="42" y="9" onmousedown="handleZoom(evt,'out')"/>
  <use id="reset" xlink:href="#resetDef" x="30" y="36" onmousedown="handleReset()"/>
   <use id="arrowup" xlink:href="#arrowUp" x="0" y="0" onmousedown="handlePan(0,-1)"/>
  <use id="arrowright" xlink:href="#arrowRight" x="0" y="0" onmousedown="handlePan(1,0)"/>
  <use id="arrowdown" xlink:href="#arrowDown" x="0" y="0" onmousedown="handlePan(0,1)"/>
  <use id="arrowleft" xlink:href="#arrowLeft" x="0" y="0" onmousedown="handlePan(-1,0)"/>
</g>
<svg viewBox="0 0 15 15" width="100%" height="30px" preserveAspectRatio="xMaxYMin meet">
 <g id="arrow_out" transform="scale(0.3 0.3)">
  <a xlink:href="classTerraria_1_1Player_a4e907711c12ddeeb204e987e3164e4a0_a4e907711c12ddeeb204e987e3164e4a0_cgraph_org.svg" target="_base">
   <rect id="button" ry="5" rx="5" y="6" x="6" height="38" width="38"
        fill="#f2f5e9" fill-opacity="0.5" stroke="#606060" stroke-width="1.0"/>
   <path id="arrow"
     d="M 11.500037,31.436501 C 11.940474,20.09759 22.043105,11.32322 32.158766,21.979434 L 37.068811,17.246167 C 37.068811,17.246167 37.088388,32 37.088388,32 L 22.160133,31.978069 C 22.160133,31.978069 26.997745,27.140456 26.997745,27.140456 C 18.528582,18.264221 13.291696,25.230495 11.500037,31.436501 z"
     style="fill:#404040;"/>
  </a>
 </g>
</svg>

<style type='text/css'>
<![CDATA[
[data-mouse-over-selected='false'] { opacity: 0.7; }
[data-mouse-over-selected='true']  { opacity: 1.0; }
]]>
</style>
<script type="application/ecmascript"><![CDATA[
document.addEventListener('DOMContentLoaded', (event) => {
  highlightEdges();
  highlightAdjacentNodes();
});
]]></script>
</svg>
