<?xml version="1.0" encoding="UTF-8" standalone="no"?>
<!DOCTYPE svg PUBLIC "-//W3C//DTD SVG 1.1//EN"
 "http://www.w3.org/Graphics/SVG/1.1/DTD/svg11.dtd">
<!-- Generated by graphviz version 2.43.0 (0)
 -->
<!-- Title: Terraria.Player.PurgeDD2EnergyCrystals Pages: 1 -->
<svg width="1138pt" height="1208pt"
 viewBox="0.00 0.00 1138.00 1207.50" xmlns="http://www.w3.org/2000/svg" xmlns:xlink="http://www.w3.org/1999/xlink">
<g id="graph0" class="graph" transform="scale(1 1) rotate(0) translate(4 1203.5)">
<title>Terraria.Player.PurgeDD2EnergyCrystals</title>
<!-- Node1 -->
<g id="Node000001" class="node">
<title>Node1</title>
<g id="a_Node000001"><a xlink:title=" ">
<polygon fill="#999999" stroke="#666666" points="138,-276.5 0,-276.5 0,-246.5 138,-246.5 138,-276.5"/>
<text text-anchor="start" x="8" y="-264.5" font-family="Helvetica,sans-Serif" font-size="10.00">Terraria.Player.PurgeDD2</text>
<text text-anchor="middle" x="69" y="-253.5" font-family="Helvetica,sans-Serif" font-size="10.00">EnergyCrystals</text>
</a>
</g>
</g>
<!-- Node2 -->
<g id="Node000002" class="node">
<title>Node2</title>
<g id="a_Node000002"><a xlink:href="../../d2/dfe/classTerraria_1_1NetMessage_a0099400efdc729b71368da55adc01263.html#a0099400efdc729b71368da55adc01263" target="_top" xlink:title=" ">
<polygon fill="white" stroke="#666666" points="341,-503 174,-503 174,-484 341,-484 341,-503"/>
<text text-anchor="middle" x="257.5" y="-491" font-family="Helvetica,sans-Serif" font-size="10.00">Terraria.NetMessage.SendData</text>
</a>
</g>
</g>
<!-- Node1&#45;&gt;Node2 -->
<g id="edge1_Node000001_Node000002" class="edge">
<title>Node1&#45;&gt;Node2</title>
<g id="a_edge1_Node000001_Node000002"><a xlink:title=" ">
<path fill="none" stroke="#63b8ff" d="M82.24,-276.72C115.44,-318.03 207.12,-432.07 242.4,-475.96"/>
<polygon fill="#63b8ff" stroke="#63b8ff" points="239.86,-478.39 248.86,-483.99 245.32,-474 239.86,-478.39"/>
</a>
</g>
</g>
<!-- Node37 -->
<g id="Node000037" class="node">
<title>Node37</title>
<g id="a_Node000037"><a xlink:href="../../db/d79/classTerraria_1_1Item_ace3f30b7386560df4055302fd96292f1.html#ace3f30b7386560df4055302fd96292f1" target="_top" xlink:title=" ">
<polygon fill="white" stroke="#666666" points="320.5,-253 194.5,-253 194.5,-234 320.5,-234 320.5,-253"/>
<text text-anchor="middle" x="257.5" y="-241" font-family="Helvetica,sans-Serif" font-size="10.00">Terraria.Item.TurnToAir</text>
</a>
</g>
</g>
<!-- Node1&#45;&gt;Node37 -->
<g id="edge41_Node000001_Node000037" class="edge">
<title>Node1&#45;&gt;Node37</title>
<g id="a_edge41_Node000001_Node000037"><a xlink:title=" ">
<path fill="none" stroke="#63b8ff" d="M138.12,-254.93C153.09,-253.48 168.98,-251.95 184.11,-250.49"/>
<polygon fill="#63b8ff" stroke="#63b8ff" points="184.82,-253.93 194.44,-249.49 184.15,-246.97 184.82,-253.93"/>
</a>
</g>
</g>
<!-- Node3 -->
<g id="Node000003" class="node">
<title>Node3</title>
<g id="a_Node000003"><a xlink:href="../../d2/dfe/classTerraria_1_1NetMessage_a8bd80eec85317f48bb6a6fd7a8a8312b.html#a8bd80eec85317f48bb6a6fd7a8a8312b" target="_top" xlink:title=" ">
<polygon fill="white" stroke="#666666" points="547,-943.5 378,-943.5 378,-913.5 547,-913.5 547,-943.5"/>
<text text-anchor="start" x="386" y="-931.5" font-family="Helvetica,sans-Serif" font-size="10.00">Terraria.NetMessage.Compress</text>
<text text-anchor="middle" x="462.5" y="-920.5" font-family="Helvetica,sans-Serif" font-size="10.00">TileBlock</text>
</a>
</g>
</g>
<!-- Node2&#45;&gt;Node3 -->
<g id="edge2_Node000002_Node000003" class="edge">
<title>Node2&#45;&gt;Node3</title>
<g id="a_edge2_Node000002_Node000003"><a xlink:title=" ">
<path fill="none" stroke="#63b8ff" d="M259.51,-503.26C264.6,-548.24 290.56,-738.62 377,-862.5 389.7,-880.7 408.9,-896.26 425.78,-907.7"/>
<polygon fill="#63b8ff" stroke="#63b8ff" points="424.07,-910.76 434.36,-913.29 427.9,-904.9 424.07,-910.76"/>
</a>
</g>
</g>
<!-- Node15 -->
<g id="Node000015" class="node">
<title>Node15</title>
<g id="a_Node000015"><a xlink:href="../../db/d56/classTerraria_1_1DataStructures_1_1TileEntity_a94671f9097e4ebf6de668b08e9f0b50a.html#a94671f9097e4ebf6de668b08e9f0b50a" target="_top" xlink:title=" ">
<polygon fill="white" stroke="#666666" points="949,-788.5 817,-788.5 817,-758.5 949,-758.5 949,-788.5"/>
<text text-anchor="start" x="825" y="-776.5" font-family="Helvetica,sans-Serif" font-size="10.00">Terraria.DataStructures.</text>
<text text-anchor="middle" x="883" y="-765.5" font-family="Helvetica,sans-Serif" font-size="10.00">TileEntity.Write</text>
</a>
</g>
</g>
<!-- Node2&#45;&gt;Node15 -->
<g id="edge35_Node000002_Node000015" class="edge">
<title>Node2&#45;&gt;Node15</title>
<g id="a_edge35_Node000002_Node000015"><a xlink:title=" ">
<path fill="none" stroke="#63b8ff" d="M258.38,-503.05C258.36,-548.47 264.99,-743.79 377,-822.5 445.61,-870.71 691.5,-820.11 813.02,-791"/>
<polygon fill="#63b8ff" stroke="#63b8ff" points="814.07,-794.35 822.97,-788.6 812.43,-787.55 814.07,-794.35"/>
</a>
</g>
</g>
<!-- Node16 -->
<g id="Node000016" class="node">
<title>Node16</title>
<g id="a_Node000016"><a xlink:href="../../db/d90/classTerraria_1_1Netplay_a8a3ee13aeab7ca5a142d52fc6a7c94a8.html#a8a3ee13aeab7ca5a142d52fc6a7c94a8" target="_top" xlink:title=" ">
<polygon fill="white" stroke="#666666" points="540.5,-782 384.5,-782 384.5,-763 540.5,-763 540.5,-782"/>
<text text-anchor="middle" x="462.5" y="-770" font-family="Helvetica,sans-Serif" font-size="10.00">Terraria.Netplay.GetSectionX</text>
</a>
</g>
</g>
<!-- Node2&#45;&gt;Node16 -->
<g id="edge15_Node000002_Node000016" class="edge">
<title>Node2&#45;&gt;Node16</title>
<g id="a_edge15_Node000002_Node000016"><a xlink:title=" ">
<path fill="none" stroke="#63b8ff" d="M259.77,-503.2C265.37,-541.8 291.49,-685.74 377,-754.5 378.58,-755.77 380.22,-756.95 381.93,-758.06"/>
<polygon fill="#63b8ff" stroke="#63b8ff" points="380.42,-761.22 390.87,-762.96 383.78,-755.09 380.42,-761.22"/>
</a>
</g>
</g>
<!-- Node17 -->
<g id="Node000017" class="node">
<title>Node17</title>
<g id="a_Node000017"><a xlink:href="../../db/d90/classTerraria_1_1Netplay_aae951351c7bd7fff569a8f67e4a700a0.html#aae951351c7bd7fff569a8f67e4a700a0" target="_top" xlink:title=" ">
<polygon fill="white" stroke="#666666" points="540,-745 385,-745 385,-726 540,-726 540,-745"/>
<text text-anchor="middle" x="462.5" y="-733" font-family="Helvetica,sans-Serif" font-size="10.00">Terraria.Netplay.GetSectionY</text>
</a>
</g>
</g>
<!-- Node2&#45;&gt;Node17 -->
<g id="edge16_Node000002_Node000017" class="edge">
<title>Node2&#45;&gt;Node17</title>
<g id="a_edge16_Node000002_Node000017"><a xlink:title=" ">
<path fill="none" stroke="#63b8ff" d="M260.65,-503.43C268.81,-538.69 301.36,-658.79 377,-716.5 379.35,-718.3 381.84,-719.93 384.44,-721.41"/>
<polygon fill="#63b8ff" stroke="#63b8ff" points="383.08,-724.64 393.6,-725.9 386.16,-718.36 383.08,-724.64"/>
</a>
</g>
</g>
<!-- Node18 -->
<g id="Node000018" class="node">
<title>Node18</title>
<g id="a_Node000018"><a xlink:href="../../d4/d8f/classTerraria_1_1Localization_1_1Language_ae4636a4800b9ecbaa498954520462f78.html#ae4636a4800b9ecbaa498954520462f78" target="_top" xlink:title="Retrieves the text value for a specified localization key. The text returned will be for the currentl...">
<polygon fill="white" stroke="#666666" points="546.5,-707.5 378.5,-707.5 378.5,-677.5 546.5,-677.5 546.5,-707.5"/>
<text text-anchor="start" x="386.5" y="-695.5" font-family="Helvetica,sans-Serif" font-size="10.00">Terraria.Localization.Language.</text>
<text text-anchor="middle" x="462.5" y="-684.5" font-family="Helvetica,sans-Serif" font-size="10.00">GetTextValue</text>
</a>
</g>
</g>
<!-- Node2&#45;&gt;Node18 -->
<g id="edge17_Node000002_Node000018" class="edge">
<title>Node2&#45;&gt;Node18</title>
<g id="a_edge17_Node000002_Node000018"><a xlink:title=" ">
<path fill="none" stroke="#63b8ff" d="M262.21,-503.19C274.07,-532.82 313.97,-622.91 377,-668.5 378.91,-669.88 380.89,-671.18 382.94,-672.41"/>
<polygon fill="#63b8ff" stroke="#63b8ff" points="381.77,-675.75 392.25,-677.32 385.04,-669.56 381.77,-675.75"/>
</a>
</g>
</g>
<!-- Node19 -->
<g id="Node000019" class="node">
<title>Node19</title>
<g id="a_Node000019"><a xlink:href="../../df/d47/classTerraria_1_1ModLoader_1_1ModNet_a1c1f9ace6611e69d54aa7a1f2cce68f2.html#a1c1f9ace6611e69d54aa7a1f2cce68f2" target="_top" xlink:title=" ">
<polygon fill="white" stroke="#666666" points="539.5,-659.5 385.5,-659.5 385.5,-629.5 539.5,-629.5 539.5,-659.5"/>
<text text-anchor="start" x="393.5" y="-647.5" font-family="Helvetica,sans-Serif" font-size="10.00">Terraria.ModLoader.ModNet.</text>
<text text-anchor="middle" x="462.5" y="-636.5" font-family="Helvetica,sans-Serif" font-size="10.00">HijackSendData</text>
</a>
</g>
</g>
<!-- Node2&#45;&gt;Node19 -->
<g id="edge18_Node000002_Node000019" class="edge">
<title>Node2&#45;&gt;Node19</title>
<g id="a_edge18_Node000002_Node000019"><a xlink:title=" ">
<path fill="none" stroke="#63b8ff" d="M264.68,-503.12C280.42,-526.83 324.5,-588.43 377,-620.5 379.8,-622.21 382.72,-623.8 385.73,-625.28"/>
<polygon fill="#63b8ff" stroke="#63b8ff" points="384.41,-628.53 394.97,-629.4 387.27,-622.13 384.41,-628.53"/>
</a>
</g>
</g>
<!-- Node21 -->
<g id="Node000021" class="node">
<title>Node21</title>
<g id="a_Node000021"><a xlink:href="../../d6/d21/structTerraria_1_1Tile_aae758079f57e61378841aaf0fc884e71.html#aae758079f57e61378841aaf0fc884e71" target="_top" xlink:title="Legacy code, use P:Terraria.Tile.LiquidType instead.">
<polygon fill="white" stroke="#666666" points="526,-611 399,-611 399,-592 526,-592 526,-611"/>
<text text-anchor="middle" x="462.5" y="-599" font-family="Helvetica,sans-Serif" font-size="10.00">Terraria.Tile.liquidType</text>
</a>
</g>
</g>
<!-- Node2&#45;&gt;Node21 -->
<g id="edge20_Node000002_Node000021" class="edge">
<title>Node2&#45;&gt;Node21</title>
<g id="a_edge20_Node000002_Node000021"><a xlink:title=" ">
<path fill="none" stroke="#63b8ff" d="M268.31,-503.23C287.46,-521.67 331.92,-561.68 377,-582.5 382.33,-584.96 388.01,-587.12 393.8,-589"/>
<polygon fill="#63b8ff" stroke="#63b8ff" points="393.02,-592.42 403.6,-591.92 395.01,-585.71 393.02,-592.42"/>
</a>
</g>
</g>
<!-- Node22 -->
<g id="Node000022" class="node">
<title>Node22</title>
<g id="a_Node000022"><a xlink:href="../../df/d47/classTerraria_1_1ModLoader_1_1ModNet_a84b918169aabe8b707d77626bfa3a734.html#a84b918169aabe8b707d77626bfa3a734" target="_top" xlink:title=" ">
<polygon fill="white" stroke="#666666" points="539.5,-487.5 385.5,-487.5 385.5,-457.5 539.5,-457.5 539.5,-487.5"/>
<text text-anchor="start" x="393.5" y="-475.5" font-family="Helvetica,sans-Serif" font-size="10.00">Terraria.ModLoader.ModNet.</text>
<text text-anchor="middle" x="462.5" y="-464.5" font-family="Helvetica,sans-Serif" font-size="10.00">LogSend</text>
</a>
</g>
</g>
<!-- Node2&#45;&gt;Node22 -->
<g id="edge21_Node000002_Node000022" class="edge">
<title>Node2&#45;&gt;Node22</title>
<g id="a_edge21_Node000002_Node000022"><a xlink:title=" ">
<path fill="none" stroke="#63b8ff" d="M341.07,-484.96C352.25,-483.8 363.74,-482.61 374.98,-481.45"/>
<polygon fill="#63b8ff" stroke="#63b8ff" points="375.64,-484.9 385.22,-480.39 374.92,-477.94 375.64,-484.9"/>
</a>
</g>
</g>
<!-- Node25 -->
<g id="Node000025" class="node">
<title>Node25</title>
<g id="a_Node000025"><a xlink:href="../../d0/d8b/classTerraria_1_1ModLoader_1_1IO_1_1ItemIO_acb34dd650cec49c955ce0297fe6d0ce1.html#acb34dd650cec49c955ce0297fe6d0ce1" target="_top" xlink:title=" ">
<polygon fill="white" stroke="#666666" points="743,-573.5 594,-573.5 594,-543.5 743,-543.5 743,-573.5"/>
<text text-anchor="start" x="602" y="-561.5" font-family="Helvetica,sans-Serif" font-size="10.00">Terraria.ModLoader.IO.Item</text>
<text text-anchor="middle" x="668.5" y="-550.5" font-family="Helvetica,sans-Serif" font-size="10.00">IO.Send</text>
</a>
</g>
</g>
<!-- Node2&#45;&gt;Node25 -->
<g id="edge25_Node000002_Node000025" class="edge">
<title>Node2&#45;&gt;Node25</title>
<g id="a_edge25_Node000002_Node000025"><a xlink:title=" ">
<path fill="none" stroke="#63b8ff" d="M334.27,-503.02C392.78,-510.66 475.7,-522.13 548,-534.5 560.34,-536.61 573.37,-539.03 586.09,-541.5"/>
<polygon fill="#63b8ff" stroke="#63b8ff" points="585.73,-545 596.22,-543.49 587.08,-538.13 585.73,-545"/>
</a>
</g>
</g>
<!-- Node26 -->
<g id="Node000026" class="node">
<title>Node26</title>
<g id="a_Node000026"><a xlink:href="../../d0/d8b/classTerraria_1_1ModLoader_1_1IO_1_1ItemIO_a9d5e51fc32478bea6653b3b43783a57b.html#a9d5e51fc32478bea6653b3b43783a57b" target="_top" xlink:title=" ">
<polygon fill="white" stroke="#666666" points="957.5,-656.5 808.5,-656.5 808.5,-626.5 957.5,-626.5 957.5,-656.5"/>
<text text-anchor="start" x="816.5" y="-644.5" font-family="Helvetica,sans-Serif" font-size="10.00">Terraria.ModLoader.IO.Item</text>
<text text-anchor="middle" x="883" y="-633.5" font-family="Helvetica,sans-Serif" font-size="10.00">IO.SendModData</text>
</a>
</g>
</g>
<!-- Node2&#45;&gt;Node26 -->
<g id="edge32_Node000002_Node000026" class="edge">
<title>Node2&#45;&gt;Node26</title>
<g id="a_edge32_Node000002_Node000026"><a xlink:title=" ">
<path fill="none" stroke="#63b8ff" d="M258.75,-503.02C260.47,-545.84 273.8,-721.48 377,-791.5 537.28,-900.25 777.99,-726.41 856.35,-663.11"/>
<polygon fill="#63b8ff" stroke="#63b8ff" points="858.73,-665.69 864.26,-656.65 854.3,-660.27 858.73,-665.69"/>
</a>
</g>
</g>
<!-- Node27 -->
<g id="Node000027" class="node">
<title>Node27</title>
<g id="a_Node000027"><a xlink:href="../../dd/de0/classTerraria_1_1ModLoader_1_1BiomeLoader_a29df870ca6244b82963eeb5ce278f179.html#a29df870ca6244b82963eeb5ce278f179" target="_top" xlink:title=" ">
<polygon fill="white" stroke="#666666" points="537.5,-439.5 387.5,-439.5 387.5,-409.5 537.5,-409.5 537.5,-439.5"/>
<text text-anchor="start" x="395.5" y="-427.5" font-family="Helvetica,sans-Serif" font-size="10.00">Terraria.ModLoader.Biome</text>
<text text-anchor="middle" x="462.5" y="-416.5" font-family="Helvetica,sans-Serif" font-size="10.00">Loader.SendCustomBiomes</text>
</a>
</g>
</g>
<!-- Node2&#45;&gt;Node27 -->
<g id="edge27_Node000002_Node000027" class="edge">
<title>Node2&#45;&gt;Node27</title>
<g id="a_edge27_Node000002_Node000027"><a xlink:title=" ">
<path fill="none" stroke="#63b8ff" d="M281.89,-483.93C305.64,-474.38 343.58,-459.57 377,-448.5 383.08,-446.49 389.44,-444.49 395.82,-442.55"/>
<polygon fill="#63b8ff" stroke="#63b8ff" points="397.25,-445.78 405.84,-439.57 395.26,-439.07 397.25,-445.78"/>
</a>
</g>
</g>
<!-- Node29 -->
<g id="Node000029" class="node">
<title>Node29</title>
<g id="a_Node000029"><a xlink:href="../../dd/dc6/classTerraria_1_1ModLoader_1_1NPCLoader_ad20200fbeb8230fb9fa1026ab0e76aa0.html#ad20200fbeb8230fb9fa1026ab0e76aa0" target="_top" xlink:title=" ">
<polygon fill="white" stroke="#666666" points="546.5,-391.5 378.5,-391.5 378.5,-361.5 546.5,-361.5 546.5,-391.5"/>
<text text-anchor="start" x="386.5" y="-379.5" font-family="Helvetica,sans-Serif" font-size="10.00">Terraria.ModLoader.NPCLoader.</text>
<text text-anchor="middle" x="462.5" y="-368.5" font-family="Helvetica,sans-Serif" font-size="10.00">SendExtraAI</text>
</a>
</g>
</g>
<!-- Node2&#45;&gt;Node29 -->
<g id="edge29_Node000002_Node000029" class="edge">
<title>Node2&#45;&gt;Node29</title>
<g id="a_edge29_Node000002_Node000029"><a xlink:title=" ">
<path fill="none" stroke="#63b8ff" d="M268.03,-483.83C287.05,-465.06 331.79,-423.53 377,-400.5 380.75,-398.59 384.66,-396.82 388.67,-395.17"/>
<polygon fill="#63b8ff" stroke="#63b8ff" points="390.07,-398.38 398.16,-391.55 387.57,-391.84 390.07,-398.38"/>
</a>
</g>
</g>
<!-- Node30 -->
<g id="Node000030" class="node">
<title>Node30</title>
<g id="a_Node000030"><a xlink:href="../../dd/d93/classTerraria_1_1ModLoader_1_1ProjectileLoader_a785fe46f6008e62910dd244542345a24.html#a785fe46f6008e62910dd244542345a24" target="_top" xlink:title=" ">
<polygon fill="white" stroke="#666666" points="541.5,-343.5 383.5,-343.5 383.5,-313.5 541.5,-313.5 541.5,-343.5"/>
<text text-anchor="start" x="391.5" y="-331.5" font-family="Helvetica,sans-Serif" font-size="10.00">Terraria.ModLoader.Projectile</text>
<text text-anchor="middle" x="462.5" y="-320.5" font-family="Helvetica,sans-Serif" font-size="10.00">Loader.SendExtraAI</text>
</a>
</g>
</g>
<!-- Node2&#45;&gt;Node30 -->
<g id="edge30_Node000002_Node000030" class="edge">
<title>Node2&#45;&gt;Node30</title>
<g id="a_edge30_Node000002_Node000030"><a xlink:title=" ">
<path fill="none" stroke="#63b8ff" d="M263.75,-483.93C278.25,-458.45 321.43,-388.46 377,-352.5 379.46,-350.91 382.03,-349.42 384.67,-348.03"/>
<polygon fill="#63b8ff" stroke="#63b8ff" points="386.37,-351.1 393.92,-343.66 383.38,-344.77 386.37,-351.1"/>
</a>
</g>
</g>
<!-- Node31 -->
<g id="Node000031" class="node">
<title>Node31</title>
<g id="a_Node000031"><a xlink:href="../../d3/d8e/classTerraria_1_1ModLoader_1_1IO_1_1WorldIO_a800edd3907ce891c4cba1af54ee5ba20.html#a800edd3907ce891c4cba1af54ee5ba20" target="_top" xlink:title=" ">
<polygon fill="white" stroke="#666666" points="539.5,-295.5 385.5,-295.5 385.5,-265.5 539.5,-265.5 539.5,-295.5"/>
<text text-anchor="start" x="393.5" y="-283.5" font-family="Helvetica,sans-Serif" font-size="10.00">Terraria.ModLoader.IO.World</text>
<text text-anchor="middle" x="462.5" y="-272.5" font-family="Helvetica,sans-Serif" font-size="10.00">IO.SendModData</text>
</a>
</g>
</g>
<!-- Node2&#45;&gt;Node31 -->
<g id="edge31_Node000002_Node000031" class="edge">
<title>Node2&#45;&gt;Node31</title>
<g id="a_edge31_Node000002_Node000031"><a xlink:title=" ">
<path fill="none" stroke="#63b8ff" d="M261.67,-483.92C272.44,-452.89 310.71,-354.24 377,-304.5 378.88,-303.09 380.85,-301.76 382.87,-300.51"/>
<polygon fill="#63b8ff" stroke="#63b8ff" points="384.99,-303.34 392.12,-295.5 381.66,-297.18 384.99,-303.34"/>
</a>
</g>
</g>
<!-- Node32 -->
<g id="Node000032" class="node">
<title>Node32</title>
<g id="a_Node000032"><a xlink:href="../../d0/da6/classTerraria_1_1ModLoader_1_1Logging_ab70d2a6a87eaae1d1ea2b6df62b255ec.html#ab70d2a6a87eaae1d1ea2b6df62b255ec" target="_top" xlink:title=" ">
<polygon fill="white" stroke="#666666" points="539.5,-229.5 385.5,-229.5 385.5,-199.5 539.5,-199.5 539.5,-229.5"/>
<text text-anchor="start" x="393.5" y="-217.5" font-family="Helvetica,sans-Serif" font-size="10.00">Terraria.ModLoader.Logging.</text>
<text text-anchor="middle" x="462.5" y="-206.5" font-family="Helvetica,sans-Serif" font-size="10.00">ServerConsoleLine</text>
</a>
</g>
</g>
<!-- Node2&#45;&gt;Node32 -->
<g id="edge33_Node000002_Node000032" class="edge">
<title>Node2&#45;&gt;Node32</title>
<g id="a_edge33_Node000002_Node000032"><a xlink:title=" ">
<path fill="none" stroke="#63b8ff" d="M260.99,-483.58C270.32,-448.27 306.33,-327 377,-256.5 386.06,-247.46 397.46,-240.03 408.93,-234.06"/>
<polygon fill="#63b8ff" stroke="#63b8ff" points="410.64,-237.12 418.09,-229.59 407.57,-230.83 410.64,-237.12"/>
</a>
</g>
</g>
<!-- Node33 -->
<g id="Node000033" class="node">
<title>Node33</title>
<g id="a_Node000033"><a xlink:href="../../d2/dfe/classTerraria_1_1NetMessage_a17488582dd5650d9c0f793be3cc79b2a.html#a17488582dd5650d9c0f793be3cc79b2a" target="_top" xlink:title=" ">
<polygon fill="white" stroke="#666666" points="535.5,-181.5 389.5,-181.5 389.5,-151.5 535.5,-151.5 535.5,-181.5"/>
<text text-anchor="start" x="397.5" y="-169.5" font-family="Helvetica,sans-Serif" font-size="10.00">Terraria.NetMessage.Write</text>
<text text-anchor="middle" x="462.5" y="-158.5" font-family="Helvetica,sans-Serif" font-size="10.00">AccessoryVisibility</text>
</a>
</g>
</g>
<!-- Node2&#45;&gt;Node33 -->
<g id="edge36_Node000002_Node000033" class="edge">
<title>Node2&#45;&gt;Node33</title>
<g id="a_edge36_Node000002_Node000033"><a xlink:title=" ">
<path fill="none" stroke="#63b8ff" d="M261.69,-483.87C278.12,-434.6 353.22,-212.1 377,-190.5 378.16,-189.44 379.37,-188.43 380.62,-187.46"/>
<polygon fill="#63b8ff" stroke="#63b8ff" points="382.92,-190.14 389.33,-181.7 379.06,-184.3 382.92,-190.14"/>
</a>
</g>
</g>
<!-- Node34 -->
<g id="Node000034" class="node">
<title>Node34</title>
<g id="a_Node000034"><a xlink:href="../../dd/dc6/classTerraria_1_1ModLoader_1_1NPCLoader_acd7b32d09b1fce4d0690d6bae683d829.html#acd7b32d09b1fce4d0690d6bae683d829" target="_top" xlink:title=" ">
<polygon fill="white" stroke="#666666" points="546.5,-133.5 378.5,-133.5 378.5,-103.5 546.5,-103.5 546.5,-133.5"/>
<text text-anchor="start" x="386.5" y="-121.5" font-family="Helvetica,sans-Serif" font-size="10.00">Terraria.ModLoader.NPCLoader.</text>
<text text-anchor="middle" x="462.5" y="-110.5" font-family="Helvetica,sans-Serif" font-size="10.00">WriteExtraAI</text>
</a>
</g>
</g>
<!-- Node2&#45;&gt;Node34 -->
<g id="edge37_Node000002_Node000034" class="edge">
<title>Node2&#45;&gt;Node34</title>
<g id="a_edge37_Node000002_Node000034"><a xlink:title=" ">
<path fill="none" stroke="#63b8ff" d="M262.13,-483.83C273.97,-452.13 312.42,-348.4 341,-261.5 358.26,-209.01 337.6,-181.24 377,-142.5 378.09,-141.43 379.22,-140.41 380.39,-139.43"/>
<polygon fill="#63b8ff" stroke="#63b8ff" points="382.48,-142.24 388.62,-133.61 378.44,-136.52 382.48,-142.24"/>
</a>
</g>
</g>
<!-- Node35 -->
<g id="Node000035" class="node">
<title>Node35</title>
<g id="a_Node000035"><a xlink:href="../../dd/d93/classTerraria_1_1ModLoader_1_1ProjectileLoader_ad728f89b264d8327c66389f62f4d6a6b.html#ad728f89b264d8327c66389f62f4d6a6b" target="_top" xlink:title=" ">
<polygon fill="white" stroke="#666666" points="541.5,-85.5 383.5,-85.5 383.5,-55.5 541.5,-55.5 541.5,-85.5"/>
<text text-anchor="start" x="391.5" y="-73.5" font-family="Helvetica,sans-Serif" font-size="10.00">Terraria.ModLoader.Projectile</text>
<text text-anchor="middle" x="462.5" y="-62.5" font-family="Helvetica,sans-Serif" font-size="10.00">Loader.WriteExtraAI</text>
</a>
</g>
</g>
<!-- Node2&#45;&gt;Node35 -->
<g id="edge38_Node000002_Node000035" class="edge">
<title>Node2&#45;&gt;Node35</title>
<g id="a_edge38_Node000002_Node000035"><a xlink:title=" ">
<path fill="none" stroke="#63b8ff" d="M262.41,-483.92C275.14,-452.49 315.98,-349.5 341,-261.5 361.76,-188.47 325.07,-149.89 377,-94.5 377.91,-93.53 378.85,-92.6 379.83,-91.7"/>
<polygon fill="#63b8ff" stroke="#63b8ff" points="382.09,-94.39 387.91,-85.54 377.84,-88.82 382.09,-94.39"/>
</a>
</g>
</g>
<!-- Node36 -->
<g id="Node000036" class="node">
<title>Node36</title>
<g id="a_Node000036"><a xlink:href="../../d9/d9b/classTerraria_1_1DataStructures_1_1PlayerDeathReason_a9b526c38a2136beee6ac5ae5a6e8faa7.html#a9b526c38a2136beee6ac5ae5a6e8faa7" target="_top" xlink:title=" ">
<polygon fill="white" stroke="#666666" points="548,-573.5 377,-573.5 377,-543.5 548,-543.5 548,-573.5"/>
<text text-anchor="start" x="385" y="-561.5" font-family="Helvetica,sans-Serif" font-size="10.00">Terraria.DataStructures.</text>
<text text-anchor="middle" x="462.5" y="-550.5" font-family="Helvetica,sans-Serif" font-size="10.00">PlayerDeathReason.WriteSelfTo</text>
</a>
</g>
</g>
<!-- Node2&#45;&gt;Node36 -->
<g id="edge39_Node000002_Node000036" class="edge">
<title>Node2&#45;&gt;Node36</title>
<g id="a_edge39_Node000002_Node000036"><a xlink:title=" ">
<path fill="none" stroke="#63b8ff" d="M288.45,-503.09C318.93,-512.85 366.91,-528.21 404.62,-540.29"/>
<polygon fill="#63b8ff" stroke="#63b8ff" points="403.88,-543.72 414.47,-543.44 406.01,-537.06 403.88,-543.72"/>
</a>
</g>
</g>
<!-- Node4 -->
<g id="Node000004" class="node">
<title>Node4</title>
<g id="a_Node000004"><a xlink:href="../../d2/dfe/classTerraria_1_1NetMessage_ae9163ccde925a89a178879cda0866701.html#ae9163ccde925a89a178879cda0866701" target="_top" xlink:title=" ">
<polygon fill="white" stroke="#666666" points="753,-980.5 584,-980.5 584,-950.5 753,-950.5 753,-980.5"/>
<text text-anchor="start" x="592" y="-968.5" font-family="Helvetica,sans-Serif" font-size="10.00">Terraria.NetMessage.Compress</text>
<text text-anchor="middle" x="668.5" y="-957.5" font-family="Helvetica,sans-Serif" font-size="10.00">TileBlock_Inner</text>
</a>
</g>
</g>
<!-- Node3&#45;&gt;Node4 -->
<g id="edge3_Node000003_Node000004" class="edge">
<title>Node3&#45;&gt;Node4</title>
<g id="a_edge3_Node000003_Node000004"><a xlink:title=" ">
<path fill="none" stroke="#63b8ff" d="M546.47,-943.55C555.71,-945.22 565.16,-946.94 574.51,-948.63"/>
<polygon fill="#63b8ff" stroke="#63b8ff" points="574.13,-952.12 584.6,-950.46 575.38,-945.24 574.13,-952.12"/>
</a>
</g>
</g>
<!-- Node5 -->
<g id="Node000005" class="node">
<title>Node5</title>
<g id="a_Node000005"><a xlink:href="../../d9/d66/classTerraria_1_1GameContent_1_1Tile__Entities_1_1TEDisplayDoll_acb24e981caea1cd0c432ac84c9261c1c.html#acb24e981caea1cd0c432ac84c9261c1c" target="_top" xlink:title=" ">
<polygon fill="white" stroke="#666666" points="959.5,-1076.5 806.5,-1076.5 806.5,-1046.5 959.5,-1046.5 959.5,-1076.5"/>
<text text-anchor="start" x="814.5" y="-1064.5" font-family="Helvetica,sans-Serif" font-size="10.00">Terraria.GameContent.Tile</text>
<text text-anchor="middle" x="883" y="-1053.5" font-family="Helvetica,sans-Serif" font-size="10.00">_Entities.TEDisplayDoll.Find</text>
</a>
</g>
</g>
<!-- Node4&#45;&gt;Node5 -->
<g id="edge4_Node000004_Node000005" class="edge">
<title>Node4&#45;&gt;Node5</title>
<g id="a_edge4_Node000004_Node000005"><a xlink:title=" ">
<path fill="none" stroke="#63b8ff" d="M690.52,-980.76C713.63,-996.9 752.37,-1022.13 789,-1037.5 794,-1039.6 799.22,-1041.55 804.54,-1043.36"/>
<polygon fill="#63b8ff" stroke="#63b8ff" points="803.59,-1046.73 814.18,-1046.46 805.74,-1040.07 803.59,-1046.73"/>
</a>
</g>
</g>
<!-- Node6 -->
<g id="Node000006" class="node">
<title>Node6</title>
<g id="a_Node000006"><a xlink:href="../../df/d58/classTerraria_1_1GameContent_1_1Tile__Entities_1_1TEFoodPlatter_ab824c4ec25da97eb7b211ec27d652546.html#ab824c4ec25da97eb7b211ec27d652546" target="_top" xlink:title=" ">
<polygon fill="white" stroke="#666666" points="959,-1028.5 807,-1028.5 807,-998.5 959,-998.5 959,-1028.5"/>
<text text-anchor="start" x="815" y="-1016.5" font-family="Helvetica,sans-Serif" font-size="10.00">Terraria.GameContent.Tile</text>
<text text-anchor="middle" x="883" y="-1005.5" font-family="Helvetica,sans-Serif" font-size="10.00">_Entities.TEFoodPlatter.Find</text>
</a>
</g>
</g>
<!-- Node4&#45;&gt;Node6 -->
<g id="edge5_Node000004_Node000006" class="edge">
<title>Node4&#45;&gt;Node6</title>
<g id="a_edge5_Node000004_Node000006"><a xlink:title=" ">
<path fill="none" stroke="#63b8ff" d="M736.15,-980.56C758.21,-985.54 782.92,-991.12 805.64,-996.25"/>
<polygon fill="#63b8ff" stroke="#63b8ff" points="805.06,-999.71 815.58,-998.5 806.6,-992.88 805.06,-999.71"/>
</a>
</g>
</g>
<!-- Node7 -->
<g id="Node000007" class="node">
<title>Node7</title>
<g id="a_Node000007"><a xlink:href="../../d3/d99/classTerraria_1_1GameContent_1_1Tile__Entities_1_1TEHatRack_a0af7e34a07c3d2ba64ef18aca9013ff5.html#a0af7e34a07c3d2ba64ef18aca9013ff5" target="_top" xlink:title=" ">
<polygon fill="white" stroke="#666666" points="955.5,-980.5 810.5,-980.5 810.5,-950.5 955.5,-950.5 955.5,-980.5"/>
<text text-anchor="start" x="818.5" y="-968.5" font-family="Helvetica,sans-Serif" font-size="10.00">Terraria.GameContent.Tile</text>
<text text-anchor="middle" x="883" y="-957.5" font-family="Helvetica,sans-Serif" font-size="10.00">_Entities.TEHatRack.Find</text>
</a>
</g>
</g>
<!-- Node4&#45;&gt;Node7 -->
<g id="edge6_Node000004_Node000007" class="edge">
<title>Node4&#45;&gt;Node7</title>
<g id="a_edge6_Node000004_Node000007"><a xlink:title=" ">
<path fill="none" stroke="#63b8ff" d="M753.18,-965.5C768.71,-965.5 784.91,-965.5 800.38,-965.5"/>
<polygon fill="#63b8ff" stroke="#63b8ff" points="800.42,-969 810.42,-965.5 800.42,-962 800.42,-969"/>
</a>
</g>
</g>
<!-- Node8 -->
<g id="Node000008" class="node">
<title>Node8</title>
<g id="a_Node000008"><a xlink:href="../../d5/dad/classTerraria_1_1GameContent_1_1Tile__Entities_1_1TEItemFrame_a736981b810e7aa34c25f1ea4e0ec0c4d.html#a736981b810e7aa34c25f1ea4e0ec0c4d" target="_top" xlink:title=" ">
<polygon fill="white" stroke="#666666" points="958,-932.5 808,-932.5 808,-902.5 958,-902.5 958,-932.5"/>
<text text-anchor="start" x="816" y="-920.5" font-family="Helvetica,sans-Serif" font-size="10.00">Terraria.GameContent.Tile</text>
<text text-anchor="middle" x="883" y="-909.5" font-family="Helvetica,sans-Serif" font-size="10.00">_Entities.TEItemFrame.Find</text>
</a>
</g>
</g>
<!-- Node4&#45;&gt;Node8 -->
<g id="edge7_Node000004_Node000008" class="edge">
<title>Node4&#45;&gt;Node8</title>
<g id="a_edge7_Node000004_Node000008"><a xlink:title=" ">
<path fill="none" stroke="#63b8ff" d="M736.15,-950.44C758.21,-945.46 782.92,-939.88 805.64,-934.75"/>
<polygon fill="#63b8ff" stroke="#63b8ff" points="806.6,-938.12 815.58,-932.5 805.06,-931.29 806.6,-938.12"/>
</a>
</g>
</g>
<!-- Node9 -->
<g id="Node000009" class="node">
<title>Node9</title>
<g id="a_Node000009"><a xlink:href="../../d8/d19/classTerraria_1_1GameContent_1_1Tile__Entities_1_1TETeleportationPylon_a6fc24a8a3539899124e211733cc4f81c.html#a6fc24a8a3539899124e211733cc4f81c" target="_top" xlink:title=" ">
<polygon fill="white" stroke="#666666" points="977,-884.5 789,-884.5 789,-854.5 977,-854.5 977,-884.5"/>
<text text-anchor="start" x="797" y="-872.5" font-family="Helvetica,sans-Serif" font-size="10.00">Terraria.GameContent.Tile</text>
<text text-anchor="middle" x="883" y="-861.5" font-family="Helvetica,sans-Serif" font-size="10.00">_Entities.TETeleportationPylon.Find</text>
</a>
</g>
</g>
<!-- Node4&#45;&gt;Node9 -->
<g id="edge8_Node000004_Node000009" class="edge">
<title>Node4&#45;&gt;Node9</title>
<g id="a_edge8_Node000004_Node000009"><a xlink:title=" ">
<path fill="none" stroke="#63b8ff" d="M690.52,-950.24C713.63,-934.1 752.37,-908.87 789,-893.5 794,-891.4 799.22,-889.45 804.54,-887.64"/>
<polygon fill="#63b8ff" stroke="#63b8ff" points="805.74,-890.93 814.18,-884.54 803.59,-884.27 805.74,-890.93"/>
</a>
</g>
</g>
<!-- Node10 -->
<g id="Node000010" class="node">
<title>Node10</title>
<g id="a_Node000010"><a xlink:href="../../d1/dea/classTerraria_1_1GameContent_1_1Tile__Entities_1_1TETrainingDummy_ab9fb96c6f00d653644d815bbdf50f66a.html#ab9fb96c6f00d653644d815bbdf50f66a" target="_top" xlink:title=" ">
<polygon fill="white" stroke="#666666" points="969.5,-836.5 796.5,-836.5 796.5,-806.5 969.5,-806.5 969.5,-836.5"/>
<text text-anchor="start" x="804.5" y="-824.5" font-family="Helvetica,sans-Serif" font-size="10.00">Terraria.GameContent.Tile</text>
<text text-anchor="middle" x="883" y="-813.5" font-family="Helvetica,sans-Serif" font-size="10.00">_Entities.TETrainingDummy.Find</text>
</a>
</g>
</g>
<!-- Node4&#45;&gt;Node10 -->
<g id="edge9_Node000004_Node000010" class="edge">
<title>Node4&#45;&gt;Node10</title>
<g id="a_edge9_Node000004_Node000010"><a xlink:title=" ">
<path fill="none" stroke="#63b8ff" d="M680.16,-950.41C699.07,-924.81 741.03,-872.97 789,-845.5 792.06,-843.75 795.25,-842.12 798.52,-840.61"/>
<polygon fill="#63b8ff" stroke="#63b8ff" points="800.08,-843.76 807.95,-836.66 797.37,-837.3 800.08,-843.76"/>
</a>
</g>
</g>
<!-- Node11 -->
<g id="Node000011" class="node">
<title>Node11</title>
<g id="a_Node000011"><a xlink:href="../../d6/db4/classTerraria_1_1GameContent_1_1Tile__Entities_1_1TEWeaponsRack_aa3987ebaf1e3db83e347561e6bb8c801.html#aa3987ebaf1e3db83e347561e6bb8c801" target="_top" xlink:title=" ">
<polygon fill="white" stroke="#666666" points="965.5,-1199.5 800.5,-1199.5 800.5,-1169.5 965.5,-1169.5 965.5,-1199.5"/>
<text text-anchor="start" x="808.5" y="-1187.5" font-family="Helvetica,sans-Serif" font-size="10.00">Terraria.GameContent.Tile</text>
<text text-anchor="middle" x="883" y="-1176.5" font-family="Helvetica,sans-Serif" font-size="10.00">_Entities.TEWeaponsRack.Find</text>
</a>
</g>
</g>
<!-- Node4&#45;&gt;Node11 -->
<g id="edge10_Node000004_Node000011" class="edge">
<title>Node4&#45;&gt;Node11</title>
<g id="a_edge10_Node000004_Node000011"><a xlink:title=" ">
<path fill="none" stroke="#63b8ff" d="M674.32,-980.68C686.84,-1017.57 724.04,-1112.46 789,-1160.5 791.05,-1162.02 793.19,-1163.44 795.4,-1164.77"/>
<polygon fill="#63b8ff" stroke="#63b8ff" points="793.76,-1167.86 804.23,-1169.48 797.05,-1161.69 793.76,-1167.86"/>
</a>
</g>
</g>
<!-- Node12 -->
<g id="Node000012" class="node">
<title>Node12</title>
<g id="a_Node000012"><a xlink:href="../../dc/ddf/classTerraria_1_1Chest_acd6e0360d9c88e1b967580124250a028.html#acd6e0360d9c88e1b967580124250a028" target="_top" xlink:title="Tries to find a T:Terraria.Chest located at (X , Y ) (tile coordinates).">
<polygon fill="white" stroke="#666666" points="950.5,-1151 815.5,-1151 815.5,-1132 950.5,-1132 950.5,-1151"/>
<text text-anchor="middle" x="883" y="-1139" font-family="Helvetica,sans-Serif" font-size="10.00">Terraria.Chest.FindChest</text>
</a>
</g>
</g>
<!-- Node4&#45;&gt;Node12 -->
<g id="edge11_Node000004_Node000012" class="edge">
<title>Node4&#45;&gt;Node12</title>
<g id="a_edge11_Node000004_Node000012"><a xlink:title=" ">
<path fill="none" stroke="#63b8ff" d="M676.22,-980.61C691.33,-1012.67 731.2,-1087.49 789,-1123.5 794.1,-1126.68 799.63,-1129.31 805.38,-1131.5"/>
<polygon fill="#63b8ff" stroke="#63b8ff" points="804.61,-1134.93 815.2,-1134.77 806.82,-1128.29 804.61,-1134.93"/>
</a>
</g>
</g>
<!-- Node13 -->
<g id="Node000013" class="node">
<title>Node13</title>
<g id="a_Node000013"><a xlink:href="../../dd/d21/classTerraria_1_1Sign_a29027ab23c41a6dfb30ae54caa2be2f7.html#a29027ab23c41a6dfb30ae54caa2be2f7" target="_top" xlink:title=" ">
<polygon fill="white" stroke="#666666" points="946,-1114 820,-1114 820,-1095 946,-1095 946,-1114"/>
<text text-anchor="middle" x="883" y="-1102" font-family="Helvetica,sans-Serif" font-size="10.00">Terraria.Sign.ReadSign</text>
</a>
</g>
</g>
<!-- Node4&#45;&gt;Node13 -->
<g id="edge12_Node000004_Node000013" class="edge">
<title>Node4&#45;&gt;Node13</title>
<g id="a_edge12_Node000004_Node000013"><a xlink:title=" ">
<path fill="none" stroke="#63b8ff" d="M680.02,-980.85C698.71,-1006.85 740.35,-1059.27 789,-1085.5 795.48,-1089 802.53,-1091.85 809.76,-1094.18"/>
<polygon fill="#63b8ff" stroke="#63b8ff" points="809.11,-1097.63 819.69,-1097.04 811.05,-1090.91 809.11,-1097.63"/>
</a>
</g>
</g>
<!-- Node4&#45;&gt;Node15 -->
<g id="edge14_Node000004_Node000015" class="edge">
<title>Node4&#45;&gt;Node15</title>
<g id="a_edge14_Node000004_Node000015"><a xlink:title=" ">
<path fill="none" stroke="#63b8ff" d="M683.12,-950.45C700.42,-930.95 730.73,-895.51 753,-862.5 771.47,-835.12 762.89,-817.72 789,-797.5 794.49,-793.25 800.66,-789.74 807.14,-786.86"/>
<polygon fill="#63b8ff" stroke="#63b8ff" points="808.78,-789.97 816.81,-783.06 806.22,-783.46 808.78,-789.97"/>
</a>
</g>
</g>
<!-- Node14 -->
<g id="Node000014" class="node">
<title>Node14</title>
<g id="a_Node000014"><a xlink:href="../../dd/d21/classTerraria_1_1Sign_abdb027ce4747b58504b4900b6ea459d9.html#abdb027ce4747b58504b4900b6ea459d9" target="_top" xlink:title=" ">
<polygon fill="white" stroke="#666666" points="1130,-1114 1013,-1114 1013,-1095 1130,-1095 1130,-1114"/>
<text text-anchor="middle" x="1071.5" y="-1102" font-family="Helvetica,sans-Serif" font-size="10.00">Terraria.Sign.KillSign</text>
</a>
</g>
</g>
<!-- Node13&#45;&gt;Node14 -->
<g id="edge13_Node000013_Node000014" class="edge">
<title>Node13&#45;&gt;Node14</title>
<g id="a_edge13_Node000013_Node000014"><a xlink:title=" ">
<path fill="none" stroke="#63b8ff" d="M946.1,-1104.5C964.25,-1104.5 984.18,-1104.5 1002.66,-1104.5"/>
<polygon fill="#63b8ff" stroke="#63b8ff" points="1002.77,-1108 1012.77,-1104.5 1002.77,-1101 1002.77,-1108"/>
</a>
</g>
</g>
<!-- Node20 -->
<g id="Node000020" class="node">
<title>Node20</title>
<g id="a_Node000020"><a xlink:href="../../d1/da9/classTerraria_1_1ModLoader_1_1SystemLoader_ae99eb8c523f713e1b444bb0751fdac97.html#ae99eb8c523f713e1b444bb0751fdac97" target="_top" xlink:title=" ">
<polygon fill="white" stroke="#666666" points="743,-659.5 594,-659.5 594,-629.5 743,-629.5 743,-659.5"/>
<text text-anchor="start" x="602" y="-647.5" font-family="Helvetica,sans-Serif" font-size="10.00">Terraria.ModLoader.System</text>
<text text-anchor="middle" x="668.5" y="-636.5" font-family="Helvetica,sans-Serif" font-size="10.00">Loader.HijackSendData</text>
</a>
</g>
</g>
<!-- Node19&#45;&gt;Node20 -->
<g id="edge19_Node000019_Node000020" class="edge">
<title>Node19&#45;&gt;Node20</title>
<g id="a_edge19_Node000019_Node000020"><a xlink:title=" ">
<path fill="none" stroke="#63b8ff" d="M539.75,-644.5C553.96,-644.5 568.88,-644.5 583.31,-644.5"/>
<polygon fill="#63b8ff" stroke="#63b8ff" points="583.71,-648 593.71,-644.5 583.71,-641 583.71,-648"/>
</a>
</g>
</g>
<!-- Node23 -->
<g id="Node000023" class="node">
<title>Node23</title>
<g id="a_Node000023"><a xlink:href="../../df/d47/classTerraria_1_1ModLoader_1_1ModNet_a0887e1e6a5354d57bf79d5fb93bdb7da.html#a0887e1e6a5354d57bf79d5fb93bdb7da" target="_top" xlink:title=" ">
<polygon fill="white" stroke="#666666" points="745.5,-487.5 591.5,-487.5 591.5,-457.5 745.5,-457.5 745.5,-487.5"/>
<text text-anchor="start" x="599.5" y="-475.5" font-family="Helvetica,sans-Serif" font-size="10.00">Terraria.ModLoader.ModNet.</text>
<text text-anchor="middle" x="668.5" y="-464.5" font-family="Helvetica,sans-Serif" font-size="10.00">Debug</text>
</a>
</g>
</g>
<!-- Node22&#45;&gt;Node23 -->
<g id="edge22_Node000022_Node000023" class="edge">
<title>Node22&#45;&gt;Node23</title>
<g id="a_edge22_Node000022_Node000023"><a xlink:title=" ">
<path fill="none" stroke="#63b8ff" d="M539.75,-472.5C553.19,-472.5 567.26,-472.5 580.96,-472.5"/>
<polygon fill="#63b8ff" stroke="#63b8ff" points="581.34,-476 591.34,-472.5 581.34,-469 581.34,-476"/>
</a>
</g>
</g>
<!-- Node23&#45;&gt;Node23 -->
<g id="edge23_Node000023_Node000023" class="edge">
<title>Node23&#45;&gt;Node23</title>
<g id="a_edge23_Node000023_Node000023"><a xlink:title=" ">
<path fill="none" stroke="#63b8ff" d="M632.29,-487.78C624.24,-496.91 636.31,-505.5 668.5,-505.5 687.61,-505.5 699.63,-502.47 704.56,-498.1"/>
<polygon fill="#63b8ff" stroke="#63b8ff" points="708.06,-497.83 704.71,-487.78 701.06,-497.72 708.06,-497.83"/>
</a>
</g>
</g>
<!-- Node24 -->
<g id="Node000024" class="node">
<title>Node24</title>
<g id="a_Node000024"><a xlink:href="../../df/d47/classTerraria_1_1ModLoader_1_1ModNet_ac2c9d5a95be6bd79eeea20bdc9bd0d46.html#ac2c9d5a95be6bd79eeea20bdc9bd0d46" target="_top" xlink:title=" ">
<polygon fill="white" stroke="#666666" points="960,-487.5 806,-487.5 806,-457.5 960,-457.5 960,-487.5"/>
<text text-anchor="start" x="814" y="-475.5" font-family="Helvetica,sans-Serif" font-size="10.00">Terraria.ModLoader.ModNet.</text>
<text text-anchor="middle" x="883" y="-464.5" font-family="Helvetica,sans-Serif" font-size="10.00">Identifier</text>
</a>
</g>
</g>
<!-- Node23&#45;&gt;Node24 -->
<g id="edge24_Node000023_Node000024" class="edge">
<title>Node23&#45;&gt;Node24</title>
<g id="a_edge24_Node000023_Node000024"><a xlink:title=" ">
<path fill="none" stroke="#63b8ff" d="M745.62,-472.5C761.79,-472.5 778.98,-472.5 795.51,-472.5"/>
<polygon fill="#63b8ff" stroke="#63b8ff" points="795.7,-476 805.7,-472.5 795.7,-469 795.7,-476"/>
</a>
</g>
</g>
<!-- Node25&#45;&gt;Node26 -->
<g id="edge26_Node000025_Node000026" class="edge">
<title>Node25&#45;&gt;Node26</title>
<g id="a_edge26_Node000025_Node000026"><a xlink:title=" ">
<path fill="none" stroke="#63b8ff" d="M707.98,-573.53C743.38,-587.35 795.99,-607.9 834.09,-622.79"/>
<polygon fill="#63b8ff" stroke="#63b8ff" points="832.86,-626.06 843.45,-626.44 835.4,-619.54 832.86,-626.06"/>
</a>
</g>
</g>
<!-- Node28 -->
<g id="Node000028" class="node">
<title>Node28</title>
<g id="a_Node000028"><a xlink:href="../../d1/d9c/classTerraria_1_1Utils_a77957b27eb38a437df68fbc4467ffc54.html#a77957b27eb38a437df68fbc4467ffc54" target="_top" xlink:title="Bit packs a BitArray in to a Byte Array and then sends the byte array.">
<polygon fill="white" stroke="#666666" points="741.5,-434 595.5,-434 595.5,-415 741.5,-415 741.5,-434"/>
<text text-anchor="middle" x="668.5" y="-422" font-family="Helvetica,sans-Serif" font-size="10.00">Terraria.Utils.SendBitArray</text>
</a>
</g>
</g>
<!-- Node27&#45;&gt;Node28 -->
<g id="edge28_Node000027_Node000028" class="edge">
<title>Node27&#45;&gt;Node28</title>
<g id="a_edge28_Node000027_Node000028"><a xlink:title=" ">
<path fill="none" stroke="#63b8ff" d="M537.73,-424.5C553.15,-424.5 569.48,-424.5 585.17,-424.5"/>
<polygon fill="#63b8ff" stroke="#63b8ff" points="585.37,-428 595.37,-424.5 585.37,-421 585.37,-428"/>
</a>
</g>
</g>
<!-- Node32&#45;&gt;Node32 -->
<g id="edge34_Node000032_Node000032" class="edge">
<title>Node32&#45;&gt;Node32</title>
<g id="a_edge34_Node000032_Node000032"><a xlink:title=" ">
<path fill="none" stroke="#63b8ff" d="M426.64,-229.78C418.67,-238.91 430.62,-247.5 462.5,-247.5 481.43,-247.5 493.33,-244.47 498.21,-240.1"/>
<polygon fill="#63b8ff" stroke="#63b8ff" points="501.71,-239.83 498.36,-229.78 494.71,-239.72 501.71,-239.83"/>
</a>
</g>
</g>
<!-- Node36&#45;&gt;Node25 -->
<g id="edge40_Node000036_Node000025" class="edge">
<title>Node36&#45;&gt;Node25</title>
<g id="a_edge40_Node000036_Node000025"><a xlink:title=" ">
<path fill="none" stroke="#63b8ff" d="M548.24,-558.5C559.93,-558.5 571.92,-558.5 583.59,-558.5"/>
<polygon fill="#63b8ff" stroke="#63b8ff" points="583.75,-562 593.75,-558.5 583.75,-555 583.75,-562"/>
</a>
</g>
</g>
<!-- Node38 -->
<g id="Node000038" class="node">
<title>Node38</title>
<g id="a_Node000038"><a xlink:href="../../db/d79/classTerraria_1_1Item_adb2554f9d394eca69180ff503efd10d9.html#adb2554f9d394eca69180ff503efd10d9" target="_top" xlink:title=" ">
<polygon fill="white" stroke="#666666" points="532,-19 393,-19 393,0 532,0 532,-19"/>
<text text-anchor="middle" x="462.5" y="-7" font-family="Helvetica,sans-Serif" font-size="10.00">Terraria.Item.SetDefaults</text>
</a>
</g>
</g>
<!-- Node37&#45;&gt;Node38 -->
<g id="edge42_Node000037_Node000038" class="edge">
<title>Node37&#45;&gt;Node38</title>
<g id="a_edge42_Node000037_Node000038"><a xlink:title=" ">
<path fill="none" stroke="#63b8ff" d="M261.84,-233.89C273.14,-202.66 312.84,-102.88 377,-46.5 388.63,-36.28 403.53,-28.5 417.57,-22.78"/>
<polygon fill="#63b8ff" stroke="#63b8ff" points="419.01,-25.98 427.1,-19.14 416.51,-19.44 419.01,-25.98"/>
</a>
</g>
</g>
<!-- Node38&#45;&gt;Node38 -->
<g id="edge43_Node000038_Node000038" class="edge">
<title>Node38&#45;&gt;Node38</title>
<g id="a_edge43_Node000038_Node000038"><a xlink:title=" ">
<path fill="none" stroke="#63b8ff" d="M431.06,-19.08C415.76,-27.73 426.24,-37 462.5,-37 487.99,-37 500.74,-32.42 500.75,-26.69"/>
<polygon fill="#63b8ff" stroke="#63b8ff" points="503.22,-24.2 493.94,-19.08 498,-28.87 503.22,-24.2"/>
</a>
</g>
</g>
</g>
</svg>
