<?xml version="1.0" encoding="UTF-8" standalone="no"?>
<!DOCTYPE svg PUBLIC "-//W3C//DTD SVG 1.1//EN"
 "http://www.w3.org/Graphics/SVG/1.1/DTD/svg11.dtd">
<!-- Generated by graphviz version 2.43.0 (0)
 -->
<!-- Title: Terraria.Player.UpdateTouchingTiles Pages: 1 -->
<svg width="521pt" height="52pt"
 viewBox="0.00 0.00 521.00 51.50" xmlns="http://www.w3.org/2000/svg" xmlns:xlink="http://www.w3.org/1999/xlink">
<g id="graph0" class="graph" transform="scale(1 1) rotate(0) translate(4 47.5)">
<title>Terraria.Player.UpdateTouchingTiles</title>
<!-- Node1 -->
<g id="Node000001" class="node">
<title>Node1</title>
<g id="a_Node000001"><a xlink:title=" ">
<polygon fill="#999999" stroke="#666666" points="513,-30 346,-30 346,0 513,0 513,-30"/>
<text text-anchor="start" x="354" y="-18" font-family="Helvetica,sans-Serif" font-size="10.00">Terraria.Player.UpdateTouching</text>
<text text-anchor="middle" x="429.5" y="-7" font-family="Helvetica,sans-Serif" font-size="10.00">Tiles</text>
</a>
</g>
</g>
<!-- Node2 -->
<g id="Node000002" class="node">
<title>Node2</title>
<g id="a_Node000002"><a xlink:href="../../d4/d03/classTerraria_1_1Player_ace36901ffcd32ae3beda930abfd8f174.html#ace36901ffcd32ae3beda930abfd8f174" target="_top" xlink:title=" ">
<polygon fill="white" stroke="#666666" points="310,-43.5 161,-43.5 161,-24.5 310,-24.5 310,-43.5"/>
<text text-anchor="middle" x="235.5" y="-31.5" font-family="Helvetica,sans-Serif" font-size="10.00">Terraria.Player.DryCollision</text>
</a>
</g>
</g>
<!-- Node1&#45;&gt;Node2 -->
<g id="edge1_Node000001_Node000002" class="edge">
<title>Node1&#45;&gt;Node2</title>
<g id="a_edge1_Node000001_Node000002"><a xlink:title=" ">
<path fill="none" stroke="#63b8ff" d="M335.88,-24.17C327.26,-25.02 318.6,-25.88 310.19,-26.71"/>
<polygon fill="#63b8ff" stroke="#63b8ff" points="336.35,-27.64 345.96,-23.17 335.66,-20.67 336.35,-27.64"/>
</a>
</g>
</g>
<!-- Node3 -->
<g id="Node000003" class="node">
<title>Node3</title>
<g id="a_Node000003"><a xlink:href="../../d4/d03/classTerraria_1_1Player_af44290f5d38b6d5076a5fa8d6ee3dd12.html#af44290f5d38b6d5076a5fa8d6ee3dd12" target="_top" xlink:title=" ">
<polygon fill="white" stroke="#666666" points="125,-24.5 0,-24.5 0,-5.5 125,-5.5 125,-24.5"/>
<text text-anchor="middle" x="62.5" y="-12.5" font-family="Helvetica,sans-Serif" font-size="10.00">Terraria.Player.Update</text>
</a>
</g>
</g>
<!-- Node1&#45;&gt;Node3 -->
<g id="edge3_Node000001_Node000003" class="edge">
<title>Node1&#45;&gt;Node3</title>
<g id="a_edge3_Node000001_Node000003"><a xlink:title=" ">
<path fill="none" stroke="#63b8ff" d="M335.28,-15C269.34,-15 182.77,-15 125.24,-15"/>
<polygon fill="#63b8ff" stroke="#63b8ff" points="335.68,-18.5 345.68,-15 335.68,-11.5 335.68,-18.5"/>
</a>
</g>
</g>
<!-- Node2&#45;&gt;Node3 -->
<g id="edge2_Node000002_Node000003" class="edge">
<title>Node2&#45;&gt;Node3</title>
<g id="a_edge2_Node000002_Node000003"><a xlink:title=" ">
<path fill="none" stroke="#63b8ff" d="M150.85,-24.71C142.19,-23.74 133.5,-22.78 125.14,-21.85"/>
<polygon fill="#63b8ff" stroke="#63b8ff" points="150.66,-28.21 160.99,-25.83 151.44,-21.25 150.66,-28.21"/>
</a>
</g>
</g>
</g>
</svg>
