<?xml version="1.0" encoding="UTF-8" standalone="no"?>
<!DOCTYPE svg PUBLIC "-//W3C//DTD SVG 1.1//EN"
 "http://www.w3.org/Graphics/SVG/1.1/DTD/svg11.dtd">
<!-- Generated by graphviz version 2.43.0 (0)
 -->
<!-- Title: Terraria.Player.FindSharpTearsSpot Pages: 1 -->
<svg width="839pt" height="137pt"
 viewBox="0.00 0.00 839.00 137.00" xmlns="http://www.w3.org/2000/svg" xmlns:xlink="http://www.w3.org/1999/xlink">
<g id="graph0" class="graph" transform="scale(1 1) rotate(0) translate(4 133)">
<title>Terraria.Player.FindSharpTearsSpot</title>
<!-- Node1 -->
<g id="Node000001" class="node">
<title>Node1</title>
<g id="a_Node000001"><a xlink:title=" ">
<polygon fill="#999999" stroke="#666666" points="137,-67.5 0,-67.5 0,-37.5 137,-37.5 137,-67.5"/>
<text text-anchor="start" x="8" y="-55.5" font-family="Helvetica,sans-Serif" font-size="10.00">Terraria.Player.FindSharp</text>
<text text-anchor="middle" x="68.5" y="-44.5" font-family="Helvetica,sans-Serif" font-size="10.00">TearsSpot</text>
</a>
</g>
</g>
<!-- Node2 -->
<g id="Node000002" class="node">
<title>Node2</title>
<g id="a_Node000002"><a xlink:href="../../de/d1d/classTerraria_1_1Collision_a4004b31abf5dd1a5d42e15c6d4512a94.html#a4004b31abf5dd1a5d42e15c6d4512a94" target="_top" xlink:title=" ">
<polygon fill="white" stroke="#666666" points="318.5,-115.5 182.5,-115.5 182.5,-85.5 318.5,-85.5 318.5,-115.5"/>
<text text-anchor="start" x="190.5" y="-103.5" font-family="Helvetica,sans-Serif" font-size="10.00">Terraria.Collision.Aiming</text>
<text text-anchor="middle" x="250.5" y="-92.5" font-family="Helvetica,sans-Serif" font-size="10.00">LaserScan</text>
</a>
</g>
</g>
<!-- Node1&#45;&gt;Node2 -->
<g id="edge1_Node000001_Node000002" class="edge">
<title>Node1&#45;&gt;Node2</title>
<g id="a_edge1_Node000001_Node000002"><a xlink:title=" ">
<path fill="none" stroke="#63b8ff" d="M125.96,-67.56C144.22,-72.43 164.63,-77.87 183.52,-82.91"/>
<polygon fill="#63b8ff" stroke="#63b8ff" points="182.68,-86.3 193.24,-85.5 184.48,-79.54 182.68,-86.3"/>
</a>
</g>
</g>
<!-- Node7 -->
<g id="Node000007" class="node">
<title>Node7</title>
<g id="a_Node000007"><a xlink:href="../../d4/d03/classTerraria_1_1Player_a328c119ea6cf99f6cfe5519d033bcddd.html#a328c119ea6cf99f6cfe5519d033bcddd" target="_top" xlink:title=" ">
<polygon fill="white" stroke="#666666" points="319,-67.5 182,-67.5 182,-37.5 319,-37.5 319,-67.5"/>
<text text-anchor="start" x="190" y="-55.5" font-family="Helvetica,sans-Serif" font-size="10.00">Terraria.Player.FindSharp</text>
<text text-anchor="middle" x="250.5" y="-44.5" font-family="Helvetica,sans-Serif" font-size="10.00">TearsOpening</text>
</a>
</g>
</g>
<!-- Node1&#45;&gt;Node7 -->
<g id="edge6_Node000001_Node000007" class="edge">
<title>Node1&#45;&gt;Node7</title>
<g id="a_edge6_Node000001_Node000007"><a xlink:title=" ">
<path fill="none" stroke="#63b8ff" d="M137.04,-52.5C148.38,-52.5 160.23,-52.5 171.8,-52.5"/>
<polygon fill="#63b8ff" stroke="#63b8ff" points="171.88,-56 181.88,-52.5 171.88,-49 171.88,-56"/>
</a>
</g>
</g>
<!-- Node9 -->
<g id="Node000009" class="node">
<title>Node9</title>
<g id="a_Node000009"><a xlink:href="../../de/da1/classTerraria_1_1WorldGen_a622da04861d766a27cf7b48216e3aa00.html#a622da04861d766a27cf7b48216e3aa00" target="_top" xlink:title=" ">
<polygon fill="white" stroke="#666666" points="328,-19 173,-19 173,0 328,0 328,-19"/>
<text text-anchor="middle" x="250.5" y="-7" font-family="Helvetica,sans-Serif" font-size="10.00">Terraria.WorldGen.SolidTile2</text>
</a>
</g>
</g>
<!-- Node1&#45;&gt;Node9 -->
<g id="edge8_Node000001_Node000009" class="edge">
<title>Node1&#45;&gt;Node9</title>
<g id="a_edge8_Node000001_Node000009"><a xlink:title=" ">
<path fill="none" stroke="#63b8ff" d="M132.46,-37.46C154.5,-32.2 178.93,-26.36 199.74,-21.39"/>
<polygon fill="#63b8ff" stroke="#63b8ff" points="200.73,-24.75 209.64,-19.02 199.1,-17.94 200.73,-24.75"/>
</a>
</g>
</g>
<!-- Node3 -->
<g id="Node000003" class="node">
<title>Node3</title>
<g id="a_Node000003"><a xlink:href="../../de/d1d/classTerraria_1_1Collision_aaf7a5927ccc283ac20ebd05d48191280.html#aaf7a5927ccc283ac20ebd05d48191280" target="_top" xlink:title=" ">
<polygon fill="white" stroke="#666666" points="515,-110 364,-110 364,-91 515,-91 515,-110"/>
<text text-anchor="middle" x="439.5" y="-98" font-family="Helvetica,sans-Serif" font-size="10.00">Terraria.Collision.LaserScan</text>
</a>
</g>
</g>
<!-- Node2&#45;&gt;Node3 -->
<g id="edge2_Node000002_Node000003" class="edge">
<title>Node2&#45;&gt;Node3</title>
<g id="a_edge2_Node000002_Node000003"><a xlink:title=" ">
<path fill="none" stroke="#63b8ff" d="M318.75,-100.5C330.09,-100.5 341.98,-100.5 353.7,-100.5"/>
<polygon fill="#63b8ff" stroke="#63b8ff" points="353.93,-104 363.93,-100.5 353.93,-97 353.93,-104"/>
</a>
</g>
</g>
<!-- Node4 -->
<g id="Node000004" class="node">
<title>Node4</title>
<g id="a_Node000004"><a xlink:href="../../de/d1d/classTerraria_1_1Collision_ac48711bcdb8a975ea19360bf86fdf756.html#ac48711bcdb8a975ea19360bf86fdf756" target="_top" xlink:title=" ">
<polygon fill="white" stroke="#666666" points="678,-115.5 551,-115.5 551,-85.5 678,-85.5 678,-115.5"/>
<text text-anchor="start" x="559" y="-103.5" font-family="Helvetica,sans-Serif" font-size="10.00">Terraria.Collision.Tuple</text>
<text text-anchor="middle" x="614.5" y="-92.5" font-family="Helvetica,sans-Serif" font-size="10.00">HitLine</text>
</a>
</g>
</g>
<!-- Node3&#45;&gt;Node4 -->
<g id="edge3_Node000003_Node000004" class="edge">
<title>Node3&#45;&gt;Node4</title>
<g id="a_edge3_Node000003_Node000004"><a xlink:title=" ">
<path fill="none" stroke="#63b8ff" d="M515.12,-100.5C523.57,-100.5 532.18,-100.5 540.61,-100.5"/>
<polygon fill="#63b8ff" stroke="#63b8ff" points="540.78,-104 550.78,-100.5 540.78,-97 540.78,-104"/>
</a>
</g>
</g>
<!-- Node5 -->
<g id="Node000005" class="node">
<title>Node5</title>
<g id="a_Node000005"><a xlink:href="../../d6/d21/structTerraria_1_1Tile_a9a3f37926e6d7f23ba057d6c0aeab1a5.html#a9a3f37926e6d7f23ba057d6c0aeab1a5" target="_top" xlink:title="Legacy code, use P:Terraria.Tile.HasTile instead.">
<polygon fill="white" stroke="#666666" points="826,-129 719,-129 719,-110 826,-110 826,-129"/>
<text text-anchor="middle" x="772.5" y="-117" font-family="Helvetica,sans-Serif" font-size="10.00">Terraria.Tile.active</text>
</a>
</g>
</g>
<!-- Node4&#45;&gt;Node5 -->
<g id="edge4_Node000004_Node000005" class="edge">
<title>Node4&#45;&gt;Node5</title>
<g id="a_edge4_Node000004_Node000005"><a xlink:title=" ">
<path fill="none" stroke="#63b8ff" d="M678.05,-108.12C688.22,-109.36 698.76,-110.64 708.93,-111.88"/>
<polygon fill="#63b8ff" stroke="#63b8ff" points="708.61,-115.37 718.96,-113.1 709.45,-108.42 708.61,-115.37"/>
</a>
</g>
</g>
<!-- Node6 -->
<g id="Node000006" class="node">
<title>Node6</title>
<g id="a_Node000006"><a xlink:href="../../d6/d21/structTerraria_1_1Tile_a68f45508d63b5e1bac9a703a1a99853b.html#a68f45508d63b5e1bac9a703a1a99853b" target="_top" xlink:title="Legacy code, use P:Terraria.Tile.IsActuated instead.">
<polygon fill="white" stroke="#666666" points="831,-92 714,-92 714,-73 831,-73 831,-92"/>
<text text-anchor="middle" x="772.5" y="-80" font-family="Helvetica,sans-Serif" font-size="10.00">Terraria.Tile.inActive</text>
</a>
</g>
</g>
<!-- Node4&#45;&gt;Node6 -->
<g id="edge5_Node000004_Node000006" class="edge">
<title>Node4&#45;&gt;Node6</title>
<g id="a_edge5_Node000004_Node000006"><a xlink:title=" ">
<path fill="none" stroke="#63b8ff" d="M678.05,-93.28C686.58,-92.3 695.37,-91.28 703.98,-90.29"/>
<polygon fill="#63b8ff" stroke="#63b8ff" points="704.45,-93.76 713.99,-89.14 703.65,-86.81 704.45,-93.76"/>
</a>
</g>
</g>
<!-- Node8 -->
<g id="Node000008" class="node">
<title>Node8</title>
<g id="a_Node000008"><a xlink:href="../../de/da1/classTerraria_1_1WorldGen_a1fd0f41d2e75a087307174bc5e47823e.html#a1fd0f41d2e75a087307174bc5e47823e" target="_top" xlink:title=" ">
<polygon fill="white" stroke="#666666" points="514,-62 365,-62 365,-43 514,-43 514,-62"/>
<text text-anchor="middle" x="439.5" y="-50" font-family="Helvetica,sans-Serif" font-size="10.00">Terraria.WorldGen.SolidTile</text>
</a>
</g>
</g>
<!-- Node7&#45;&gt;Node8 -->
<g id="edge7_Node000007_Node000008" class="edge">
<title>Node7&#45;&gt;Node8</title>
<g id="a_edge7_Node000007_Node000008"><a xlink:title=" ">
<path fill="none" stroke="#63b8ff" d="M319.01,-52.5C330.5,-52.5 342.56,-52.5 354.41,-52.5"/>
<polygon fill="#63b8ff" stroke="#63b8ff" points="354.76,-56 364.76,-52.5 354.76,-49 354.76,-56"/>
</a>
</g>
</g>
</g>
</svg>
