<?xml version="1.0" encoding="UTF-8" standalone="no"?>
<!DOCTYPE svg PUBLIC "-//W3C//DTD SVG 1.1//EN"
 "http://www.w3.org/Graphics/SVG/1.1/DTD/svg11.dtd">
<!-- Generated by graphviz version 2.43.0 (0)
 -->
<!-- Title: Terraria.Player.RefreshDoubleJumps Pages: 1 -->
<svg width="761pt" height="130pt"
 viewBox="0.00 0.00 761.00 130.20" xmlns="http://www.w3.org/2000/svg" xmlns:xlink="http://www.w3.org/1999/xlink">
<g id="graph0" class="graph" transform="scale(1 1) rotate(0) translate(4 126.2)">
<title>Terraria.Player.RefreshDoubleJumps</title>
<!-- Node1 -->
<g id="Node000001" class="node">
<title>Node1</title>
<g id="a_Node000001"><a xlink:title=" ">
<polygon fill="#999999" stroke="#666666" points="753,-83.5 592,-83.5 592,-53.5 753,-53.5 753,-83.5"/>
<text text-anchor="start" x="600" y="-71.5" font-family="Helvetica,sans-Serif" font-size="10.00">Terraria.Player.RefreshDouble</text>
<text text-anchor="middle" x="672.5" y="-60.5" font-family="Helvetica,sans-Serif" font-size="10.00">Jumps</text>
</a>
</g>
</g>
<!-- Node2 -->
<g id="Node000002" class="node">
<title>Node2</title>
<g id="a_Node000002"><a xlink:href="../../d4/d03/classTerraria_1_1Player_a5256cac2783fdfafedbe40068813d04c.html#a5256cac2783fdfafedbe40068813d04c" target="_top" xlink:title=" ">
<polygon fill="white" stroke="#666666" points="341,-100 161,-100 161,-81 341,-81 341,-100"/>
<text text-anchor="middle" x="251" y="-88" font-family="Helvetica,sans-Serif" font-size="10.00">Terraria.Player.GrappleMovement</text>
</a>
</g>
</g>
<!-- Node1&#45;&gt;Node2 -->
<g id="edge1_Node000001_Node000002" class="edge">
<title>Node1&#45;&gt;Node2</title>
<g id="a_edge1_Node000001_Node000002"><a xlink:title=" ">
<path fill="none" stroke="#63b8ff" d="M633.22,-88C611.24,-98.1 582.77,-109.36 556,-114.5 461.63,-132.6 348.27,-112.97 290.28,-100.01"/>
<polygon fill="#63b8ff" stroke="#63b8ff" points="634.97,-91.05 642.52,-83.62 631.98,-84.71 634.97,-91.05"/>
</a>
</g>
</g>
<!-- Node3 -->
<g id="Node000003" class="node">
<title>Node3</title>
<g id="a_Node000003"><a xlink:href="../../d4/d03/classTerraria_1_1Player_af44290f5d38b6d5076a5fa8d6ee3dd12.html#af44290f5d38b6d5076a5fa8d6ee3dd12" target="_top" xlink:title=" ">
<polygon fill="white" stroke="#666666" points="125,-57 0,-57 0,-38 125,-38 125,-57"/>
<text text-anchor="middle" x="62.5" y="-45" font-family="Helvetica,sans-Serif" font-size="10.00">Terraria.Player.Update</text>
</a>
</g>
</g>
<!-- Node1&#45;&gt;Node3 -->
<g id="edge7_Node000001_Node000003" class="edge">
<title>Node1&#45;&gt;Node3</title>
<g id="a_edge7_Node000001_Node000003"><a xlink:title=" ">
<path fill="none" stroke="#63b8ff" d="M581.39,-65.39C456.33,-61.07 233.37,-53.37 125.43,-49.64"/>
<polygon fill="#63b8ff" stroke="#63b8ff" points="581.59,-68.9 591.7,-65.74 581.83,-61.9 581.59,-68.9"/>
</a>
</g>
</g>
<!-- Node4 -->
<g id="Node000004" class="node">
<title>Node4</title>
<g id="a_Node000004"><a xlink:href="../../d4/d03/classTerraria_1_1Player_aa6d93fb6c9562517fa09ad6311320897.html#aa6d93fb6c9562517fa09ad6311320897" target="_top" xlink:title=" ">
<polygon fill="white" stroke="#666666" points="334.5,-19 167.5,-19 167.5,0 334.5,0 334.5,-19"/>
<text text-anchor="middle" x="251" y="-7" font-family="Helvetica,sans-Serif" font-size="10.00">Terraria.Player.JumpMovement</text>
</a>
</g>
</g>
<!-- Node1&#45;&gt;Node4 -->
<g id="edge3_Node000001_Node000004" class="edge">
<title>Node1&#45;&gt;Node4</title>
<g id="a_edge3_Node000001_Node000004"><a xlink:title=" ">
<path fill="none" stroke="#63b8ff" d="M620.06,-50.32C600.27,-44.01 577.31,-37.52 556,-33.5 481.87,-19.51 396.07,-13.66 334.57,-11.22"/>
<polygon fill="#63b8ff" stroke="#63b8ff" points="619.21,-53.72 629.8,-53.49 621.38,-47.07 619.21,-53.72"/>
</a>
</g>
</g>
<!-- Node5 -->
<g id="Node000005" class="node">
<title>Node5</title>
<g id="a_Node000005"><a xlink:href="../../d4/d03/classTerraria_1_1Player_a859f0c9fa6db060c434da72842111227.html#a859f0c9fa6db060c434da72842111227" target="_top" xlink:title=" ">
<polygon fill="white" stroke="#666666" points="556,-105.5 377,-105.5 377,-75.5 556,-75.5 556,-105.5"/>
<text text-anchor="start" x="385" y="-93.5" font-family="Helvetica,sans-Serif" font-size="10.00">Terraria.Player.RefreshMovement</text>
<text text-anchor="middle" x="466.5" y="-82.5" font-family="Helvetica,sans-Serif" font-size="10.00">Abilities</text>
</a>
</g>
</g>
<!-- Node1&#45;&gt;Node5 -->
<g id="edge5_Node000001_Node000005" class="edge">
<title>Node1&#45;&gt;Node5</title>
<g id="a_edge5_Node000001_Node000005"><a xlink:title=" ">
<path fill="none" stroke="#63b8ff" d="M581.59,-78.2C573.2,-79.1 564.7,-80.02 556.31,-80.92"/>
<polygon fill="#63b8ff" stroke="#63b8ff" points="582.18,-81.65 591.75,-77.1 581.43,-74.69 582.18,-81.65"/>
</a>
</g>
</g>
<!-- Node2&#45;&gt;Node3 -->
<g id="edge2_Node000002_Node000003" class="edge">
<title>Node2&#45;&gt;Node3</title>
<g id="a_edge2_Node000002_Node000003"><a xlink:title=" ">
<path fill="none" stroke="#63b8ff" d="M198.48,-78.62C168.96,-71.81 132.4,-63.38 104.77,-57.02"/>
<polygon fill="#63b8ff" stroke="#63b8ff" points="198.08,-82.12 208.61,-80.96 199.65,-75.3 198.08,-82.12"/>
</a>
</g>
</g>
<!-- Node4&#45;&gt;Node3 -->
<g id="edge4_Node000004_Node000003" class="edge">
<title>Node4&#45;&gt;Node3</title>
<g id="a_edge4_Node000004_Node000003"><a xlink:title=" ">
<path fill="none" stroke="#63b8ff" d="M193.02,-21.11C166.5,-26.51 135.33,-32.86 110.22,-37.98"/>
<polygon fill="#63b8ff" stroke="#63b8ff" points="193.84,-24.52 202.94,-19.09 192.44,-17.66 193.84,-24.52"/>
</a>
</g>
</g>
<!-- Node5&#45;&gt;Node2 -->
<g id="edge6_Node000005_Node000002" class="edge">
<title>Node5&#45;&gt;Node2</title>
<g id="a_edge6_Node000005_Node000002"><a xlink:title=" ">
<path fill="none" stroke="#63b8ff" d="M366.8,-90.5C358.23,-90.5 349.59,-90.5 341.1,-90.5"/>
<polygon fill="#63b8ff" stroke="#63b8ff" points="366.81,-94 376.81,-90.5 366.81,-87 366.81,-94"/>
</a>
</g>
</g>
</g>
</svg>
