<?xml version="1.0" encoding="UTF-8" standalone="no"?>
<!DOCTYPE svg PUBLIC "-//W3C//DTD SVG 1.1//EN"
 "http://www.w3.org/Graphics/SVG/1.1/DTD/svg11.dtd">
<!-- Generated by graphviz version 2.43.0 (0)
 -->
<!-- Title: Terraria.Player.WingMovement Pages: 1 -->
<svg width="569pt" height="86pt"
 viewBox="0.00 0.00 569.00 86.00" xmlns="http://www.w3.org/2000/svg" xmlns:xlink="http://www.w3.org/1999/xlink">
<g id="graph0" class="graph" transform="scale(1 1) rotate(0) translate(4 82)">
<title>Terraria.Player.WingMovement</title>
<!-- Node1 -->
<g id="Node000001" class="node">
<title>Node1</title>
<g id="a_Node000001"><a xlink:title=" ">
<polygon fill="#999999" stroke="#666666" points="167,-48.5 0,-48.5 0,-29.5 167,-29.5 167,-48.5"/>
<text text-anchor="middle" x="83.5" y="-36.5" font-family="Helvetica,sans-Serif" font-size="10.00">Terraria.Player.WingMovement</text>
</a>
</g>
</g>
<!-- Node2 -->
<g id="Node000002" class="node">
<title>Node2</title>
<g id="a_Node000002"><a xlink:href="../../d7/de6/classTerraria_1_1ModLoader_1_1ItemLoader_a6eeea936b5fb5d9c5776807ac186e3b7.html#a6eeea936b5fb5d9c5776807ac186e3b7" target="_top" xlink:title="If the player is using wings, this uses the result of GetWing, and calls ModItem.VerticalWingSpeeds t...">
<polygon fill="white" stroke="#666666" points="373,-54 203,-54 203,-24 373,-24 373,-54"/>
<text text-anchor="start" x="211" y="-42" font-family="Helvetica,sans-Serif" font-size="10.00">Terraria.ModLoader.ItemLoader.</text>
<text text-anchor="middle" x="288" y="-31" font-family="Helvetica,sans-Serif" font-size="10.00">VerticalWingSpeeds</text>
</a>
</g>
</g>
<!-- Node1&#45;&gt;Node2 -->
<g id="edge1_Node000001_Node000002" class="edge">
<title>Node1&#45;&gt;Node2</title>
<g id="a_edge1_Node000001_Node000002"><a xlink:title=" ">
<path fill="none" stroke="#63b8ff" d="M167.16,-39C175.65,-39 184.32,-39 192.92,-39"/>
<polygon fill="#63b8ff" stroke="#63b8ff" points="192.97,-42.5 202.97,-39 192.97,-35.5 192.97,-42.5"/>
</a>
</g>
</g>
<!-- Node3 -->
<g id="Node000003" class="node">
<title>Node3</title>
<g id="a_Node000003"><a xlink:href="../../d3/daa/classTerraria_1_1ModLoader_1_1EquipLoader_a87c1e9bb37d938a07111fa76bae78575.html#a87c1e9bb37d938a07111fa76bae78575" target="_top" xlink:title="Gets the equipment texture for the specified equipment type and ID.">
<polygon fill="white" stroke="#666666" points="555,-78 415,-78 415,-48 555,-48 555,-78"/>
<text text-anchor="start" x="423" y="-66" font-family="Helvetica,sans-Serif" font-size="10.00">Terraria.ModLoader.Equip</text>
<text text-anchor="middle" x="485" y="-55" font-family="Helvetica,sans-Serif" font-size="10.00">Loader.GetEquipTexture</text>
</a>
</g>
</g>
<!-- Node2&#45;&gt;Node3 -->
<g id="edge2_Node000002_Node000003" class="edge">
<title>Node2&#45;&gt;Node3</title>
<g id="a_edge2_Node000002_Node000003"><a xlink:title=" ">
<path fill="none" stroke="#63b8ff" d="M373.11,-49.35C383.66,-50.65 394.42,-51.97 404.88,-53.26"/>
<polygon fill="#63b8ff" stroke="#63b8ff" points="404.46,-56.74 414.81,-54.48 405.31,-49.79 404.46,-56.74"/>
</a>
</g>
</g>
<!-- Node4 -->
<g id="Node000004" class="node">
<title>Node4</title>
<g id="a_Node000004"><a xlink:href="../../d2/daa/classTerraria_1_1ModLoader_1_1EquipTexture_ab06c1c47e2e163d59418964f40755ad9.html#ab06c1c47e2e163d59418964f40755ad9" target="_top" xlink:title="Allows you to modify vertical wing speeds.">
<polygon fill="white" stroke="#666666" points="561,-30 409,-30 409,0 561,0 561,-30"/>
<text text-anchor="start" x="417" y="-18" font-family="Helvetica,sans-Serif" font-size="10.00">Terraria.ModLoader.Equip</text>
<text text-anchor="middle" x="485" y="-7" font-family="Helvetica,sans-Serif" font-size="10.00">Texture.VerticalWingSpeeds</text>
</a>
</g>
</g>
<!-- Node2&#45;&gt;Node4 -->
<g id="edge3_Node000002_Node000004" class="edge">
<title>Node2&#45;&gt;Node4</title>
<g id="a_edge3_Node000002_Node000004"><a xlink:title=" ">
<path fill="none" stroke="#63b8ff" d="M373.11,-28.65C381.63,-27.6 390.29,-26.53 398.82,-25.48"/>
<polygon fill="#63b8ff" stroke="#63b8ff" points="399.27,-28.96 408.76,-24.26 398.41,-22.01 399.27,-28.96"/>
</a>
</g>
</g>
</g>
</svg>
