<?xml version="1.0" encoding="UTF-8" standalone="no"?>
<!DOCTYPE svg PUBLIC "-//W3C//DTD SVG 1.1//EN"
 "http://www.w3.org/Graphics/SVG/1.1/DTD/svg11.dtd">
<!-- Generated by graphviz version 2.43.0 (0)
 -->
<!-- Title: Terraria.Player.RefreshMovementAbilities Pages: 1 -->
<svg width="953pt" height="86pt"
 viewBox="0.00 0.00 953.00 86.00" xmlns="http://www.w3.org/2000/svg" xmlns:xlink="http://www.w3.org/1999/xlink">
<g id="graph0" class="graph" transform="scale(1 1) rotate(0) translate(4 82)">
<title>Terraria.Player.RefreshMovementAbilities</title>
<!-- Node1 -->
<g id="Node000001" class="node">
<title>Node1</title>
<g id="a_Node000001"><a xlink:title=" ">
<polygon fill="#999999" stroke="#666666" points="179,-54 0,-54 0,-24 179,-24 179,-54"/>
<text text-anchor="start" x="8" y="-42" font-family="Helvetica,sans-Serif" font-size="10.00">Terraria.Player.RefreshMovement</text>
<text text-anchor="middle" x="89.5" y="-31" font-family="Helvetica,sans-Serif" font-size="10.00">Abilities</text>
</a>
</g>
</g>
<!-- Node2 -->
<g id="Node000002" class="node">
<title>Node2</title>
<g id="a_Node000002"><a xlink:href="../../d4/d03/classTerraria_1_1Player_af3b12a40dc81952b20fa22d2fbe86f05.html#af3b12a40dc81952b20fa22d2fbe86f05" target="_top" xlink:title=" ">
<polygon fill="white" stroke="#666666" points="376,-54 215,-54 215,-24 376,-24 376,-54"/>
<text text-anchor="start" x="223" y="-42" font-family="Helvetica,sans-Serif" font-size="10.00">Terraria.Player.RefreshDouble</text>
<text text-anchor="middle" x="295.5" y="-31" font-family="Helvetica,sans-Serif" font-size="10.00">Jumps</text>
</a>
</g>
</g>
<!-- Node1&#45;&gt;Node2 -->
<g id="edge1_Node000001_Node000002" class="edge">
<title>Node1&#45;&gt;Node2</title>
<g id="a_edge1_Node000001_Node000002"><a xlink:title=" ">
<path fill="none" stroke="#63b8ff" d="M179.09,-39C187.67,-39 196.37,-39 204.96,-39"/>
<polygon fill="#63b8ff" stroke="#63b8ff" points="204.97,-42.5 214.97,-39 204.97,-35.5 204.97,-42.5"/>
</a>
</g>
</g>
<!-- Node3 -->
<g id="Node000003" class="node">
<title>Node3</title>
<g id="a_Node000003"><a xlink:href="../../d4/d03/classTerraria_1_1Player_a9b5fd13b3b9b90834e1627e132aa060f.html#a9b5fd13b3b9b90834e1627e132aa060f" target="_top" xlink:title="For each extra jump that is P:Terraria.DataStructures.ExtraJumpState.Enabled, its P:Terraria....">
<polygon fill="white" stroke="#666666" points="564,-54 412,-54 412,-24 564,-24 564,-54"/>
<text text-anchor="start" x="420" y="-42" font-family="Helvetica,sans-Serif" font-size="10.00">Terraria.Player.RefreshExtra</text>
<text text-anchor="middle" x="488" y="-31" font-family="Helvetica,sans-Serif" font-size="10.00">Jumps</text>
</a>
</g>
</g>
<!-- Node2&#45;&gt;Node3 -->
<g id="edge2_Node000002_Node000003" class="edge">
<title>Node2&#45;&gt;Node3</title>
<g id="a_edge2_Node000002_Node000003"><a xlink:title=" ">
<path fill="none" stroke="#63b8ff" d="M376.19,-39C384.59,-39 393.17,-39 401.64,-39"/>
<polygon fill="#63b8ff" stroke="#63b8ff" points="401.9,-42.5 411.9,-39 401.9,-35.5 401.9,-42.5"/>
</a>
</g>
</g>
<!-- Node4 -->
<g id="Node000004" class="node">
<title>Node4</title>
<g id="a_Node000004"><a xlink:href="../../d7/d95/classTerraria_1_1ModLoader_1_1ExtraJumpLoader_aca206573f050416c477c8b55a2288e64.html#aca206573f050416c477c8b55a2288e64" target="_top" xlink:title=" ">
<polygon fill="white" stroke="#666666" points="744,-54 600,-54 600,-24 744,-24 744,-54"/>
<text text-anchor="start" x="608" y="-42" font-family="Helvetica,sans-Serif" font-size="10.00">Terraria.ModLoader.Extra</text>
<text text-anchor="middle" x="672" y="-31" font-family="Helvetica,sans-Serif" font-size="10.00">JumpLoader.RefreshJumps</text>
</a>
</g>
</g>
<!-- Node3&#45;&gt;Node4 -->
<g id="edge3_Node000003_Node000004" class="edge">
<title>Node3&#45;&gt;Node4</title>
<g id="a_edge3_Node000003_Node000004"><a xlink:title=" ">
<path fill="none" stroke="#63b8ff" d="M564.08,-39C572.59,-39 581.3,-39 589.89,-39"/>
<polygon fill="#63b8ff" stroke="#63b8ff" points="589.9,-42.5 599.9,-39 589.9,-35.5 589.9,-42.5"/>
</a>
</g>
</g>
<!-- Node5 -->
<g id="Node000005" class="node">
<title>Node5</title>
<g id="a_Node000005"><a xlink:href="../../d9/de2/classTerraria_1_1ModLoader_1_1PlayerLoader_adc26880836e19c6ccd3f0c9344855ed7.html#adc26880836e19c6ccd3f0c9344855ed7" target="_top" xlink:title=" ">
<polygon fill="white" stroke="#666666" points="945,-78 780,-78 780,-48 945,-48 945,-78"/>
<text text-anchor="start" x="788" y="-66" font-family="Helvetica,sans-Serif" font-size="10.00">Terraria.ModLoader.Player</text>
<text text-anchor="middle" x="862.5" y="-55" font-family="Helvetica,sans-Serif" font-size="10.00">Loader.OnExtraJumpRefreshed</text>
</a>
</g>
</g>
<!-- Node4&#45;&gt;Node5 -->
<g id="edge4_Node000004_Node000005" class="edge">
<title>Node4&#45;&gt;Node5</title>
<g id="a_edge4_Node000004_Node000005"><a xlink:title=" ">
<path fill="none" stroke="#63b8ff" d="M744.26,-48.07C752.58,-49.13 761.15,-50.22 769.7,-51.31"/>
<polygon fill="#63b8ff" stroke="#63b8ff" points="769.34,-54.79 779.7,-52.59 770.22,-47.85 769.34,-54.79"/>
</a>
</g>
</g>
<!-- Node6 -->
<g id="Node000006" class="node">
<title>Node6</title>
<g id="a_Node000006"><a xlink:href="../../d8/d90/classTerraria_1_1ModLoader_1_1ExtraJump_a6c1a931326c7746b1b9277570bef472d.html#a6c1a931326c7746b1b9277570bef472d" target="_top" xlink:title="This hook runs before P:Terraria.DataStructures.ExtraJumpState.Available is set to true in M:Terraria...">
<polygon fill="white" stroke="#666666" points="931.5,-30 793.5,-30 793.5,0 931.5,0 931.5,-30"/>
<text text-anchor="start" x="801.5" y="-18" font-family="Helvetica,sans-Serif" font-size="10.00">Terraria.ModLoader.Extra</text>
<text text-anchor="middle" x="862.5" y="-7" font-family="Helvetica,sans-Serif" font-size="10.00">Jump.OnRefreshed</text>
</a>
</g>
</g>
<!-- Node4&#45;&gt;Node6 -->
<g id="edge5_Node000004_Node000006" class="edge">
<title>Node4&#45;&gt;Node6</title>
<g id="a_edge5_Node000004_Node000006"><a xlink:title=" ">
<path fill="none" stroke="#63b8ff" d="M744.26,-29.93C756.93,-28.31 770.19,-26.63 783.05,-24.99"/>
<polygon fill="#63b8ff" stroke="#63b8ff" points="783.77,-28.42 793.25,-23.69 782.89,-21.48 783.77,-28.42"/>
</a>
</g>
</g>
</g>
</svg>
