<?xml version="1.0" encoding="UTF-8" standalone="no"?>
<!DOCTYPE svg PUBLIC "-//W3C//DTD SVG 1.1//EN"
 "http://www.w3.org/Graphics/SVG/1.1/DTD/svg11.dtd">
<!-- Generated by graphviz version 2.43.0 (0)
 -->
<!-- Title: Terraria.Player.LaunchMinecartHook Pages: 1 -->
<svg width="1174pt" height="132pt"
 viewBox="0.00 0.00 1174.00 131.50" xmlns="http://www.w3.org/2000/svg" xmlns:xlink="http://www.w3.org/1999/xlink">
<g id="graph0" class="graph" transform="scale(1 1) rotate(0) translate(4 127.5)">
<title>Terraria.Player.LaunchMinecartHook</title>
<!-- Node1 -->
<g id="Node000001" class="node">
<title>Node1</title>
<g id="a_Node000001"><a xlink:title=" ">
<polygon fill="#999999" stroke="#666666" points="1166,-86.5 974,-86.5 974,-67.5 1166,-67.5 1166,-86.5"/>
<text text-anchor="middle" x="1070" y="-74.5" font-family="Helvetica,sans-Serif" font-size="10.00">Terraria.Player.LaunchMinecartHook</text>
</a>
</g>
</g>
<!-- Node2 -->
<g id="Node000002" class="node">
<title>Node2</title>
<g id="a_Node000002"><a xlink:href="../../d4/d03/classTerraria_1_1Player_ae8945397f815b554bae82ad9872192e2.html#ae8945397f815b554bae82ad9872192e2" target="_top" xlink:title=" ">
<polygon fill="white" stroke="#666666" points="926,-123.5 766,-123.5 766,-104.5 926,-104.5 926,-123.5"/>
<text text-anchor="middle" x="846" y="-111.5" font-family="Helvetica,sans-Serif" font-size="10.00">Terraria.Player.QuickMinecart</text>
</a>
</g>
</g>
<!-- Node1&#45;&gt;Node2 -->
<g id="edge1_Node000001_Node000002" class="edge">
<title>Node1&#45;&gt;Node2</title>
<g id="a_edge1_Node000001_Node000002"><a xlink:title=" ">
<path fill="none" stroke="#63b8ff" d="M1001.93,-88.18C970.81,-93.37 934.18,-99.47 904.36,-104.44"/>
<polygon fill="#63b8ff" stroke="#63b8ff" points="1002.54,-91.62 1011.83,-86.53 1001.39,-84.72 1002.54,-91.62"/>
</a>
</g>
</g>
<!-- Node5 -->
<g id="Node000005" class="node">
<title>Node5</title>
<g id="a_Node000005"><a xlink:href="../../d4/d03/classTerraria_1_1Player_aa04136e5fa309fdf54a5ed1a7fafd44c.html#aa04136e5fa309fdf54a5ed1a7fafd44c" target="_top" xlink:title=" ">
<polygon fill="white" stroke="#666666" points="938,-86.5 754,-86.5 754,-67.5 938,-67.5 938,-86.5"/>
<text text-anchor="middle" x="846" y="-74.5" font-family="Helvetica,sans-Serif" font-size="10.00">Terraria.Player.QuickMinecartSnap</text>
</a>
</g>
</g>
<!-- Node1&#45;&gt;Node5 -->
<g id="edge4_Node000001_Node000005" class="edge">
<title>Node1&#45;&gt;Node5</title>
<g id="a_edge4_Node000001_Node000005"><a xlink:title=" ">
<path fill="none" stroke="#63b8ff" d="M963.81,-77C955.2,-77 946.54,-77 938.04,-77"/>
<polygon fill="#63b8ff" stroke="#63b8ff" points="963.89,-80.5 973.89,-77 963.89,-73.5 963.89,-80.5"/>
</a>
</g>
</g>
<!-- Node6 -->
<g id="Node000006" class="node">
<title>Node6</title>
<g id="a_Node000006"><a xlink:href="../../d4/d03/classTerraria_1_1Player_a8b27a9ab46a3bd51b25499cdf7417694.html#a8b27a9ab46a3bd51b25499cdf7417694" target="_top" xlink:title=" ">
<polygon fill="white" stroke="#666666" points="938,-49.5 754,-49.5 754,-30.5 938,-30.5 938,-49.5"/>
<text text-anchor="middle" x="846" y="-37.5" font-family="Helvetica,sans-Serif" font-size="10.00">Terraria.Player.TileInteractionsUse</text>
</a>
</g>
</g>
<!-- Node1&#45;&gt;Node6 -->
<g id="edge6_Node000001_Node000006" class="edge">
<title>Node1&#45;&gt;Node6</title>
<g id="a_edge6_Node000001_Node000006"><a xlink:title=" ">
<path fill="none" stroke="#63b8ff" d="M1001.93,-65.82C970.81,-60.63 934.18,-54.53 904.36,-49.56"/>
<polygon fill="#63b8ff" stroke="#63b8ff" points="1001.39,-69.28 1011.83,-67.47 1002.54,-62.38 1001.39,-69.28"/>
</a>
</g>
</g>
<!-- Node3 -->
<g id="Node000003" class="node">
<title>Node3</title>
<g id="a_Node000003"><a xlink:href="../../d4/d03/classTerraria_1_1Player_a8f2dd1098d6a8f74b9d574760344b5b0.html#a8f2dd1098d6a8f74b9d574760344b5b0" target="_top" xlink:title=" ">
<polygon fill="white" stroke="#666666" points="709.5,-107.5 561.5,-107.5 561.5,-88.5 709.5,-88.5 709.5,-107.5"/>
<text text-anchor="middle" x="635.5" y="-95.5" font-family="Helvetica,sans-Serif" font-size="10.00">Terraria.Player.QuickMount</text>
</a>
</g>
</g>
<!-- Node2&#45;&gt;Node3 -->
<g id="edge2_Node000002_Node000003" class="edge">
<title>Node2&#45;&gt;Node3</title>
<g id="a_edge2_Node000002_Node000003"><a xlink:title=" ">
<path fill="none" stroke="#63b8ff" d="M755.85,-107.16C740.47,-105.98 724.64,-104.76 709.73,-103.62"/>
<polygon fill="#63b8ff" stroke="#63b8ff" points="755.64,-110.65 765.88,-107.93 756.17,-103.67 755.64,-110.65"/>
</a>
</g>
</g>
<!-- Node4 -->
<g id="Node000004" class="node">
<title>Node4</title>
<g id="a_Node000004"><a xlink:href="../../d4/d03/classTerraria_1_1Player_af44290f5d38b6d5076a5fa8d6ee3dd12.html#af44290f5d38b6d5076a5fa8d6ee3dd12" target="_top" xlink:title=" ">
<polygon fill="white" stroke="#666666" points="125,-85.5 0,-85.5 0,-66.5 125,-66.5 125,-85.5"/>
<text text-anchor="middle" x="62.5" y="-73.5" font-family="Helvetica,sans-Serif" font-size="10.00">Terraria.Player.Update</text>
</a>
</g>
</g>
<!-- Node3&#45;&gt;Node4 -->
<g id="edge3_Node000003_Node000004" class="edge">
<title>Node3&#45;&gt;Node4</title>
<g id="a_edge3_Node000003_Node000004"><a xlink:title=" ">
<path fill="none" stroke="#63b8ff" d="M551.08,-94.79C435.28,-90.32 228.47,-82.36 125.41,-78.39"/>
<polygon fill="#63b8ff" stroke="#63b8ff" points="551.18,-98.29 561.31,-95.18 551.45,-91.3 551.18,-98.29"/>
</a>
</g>
</g>
<!-- Node5&#45;&gt;Node3 -->
<g id="edge5_Node000005_Node000003" class="edge">
<title>Node5&#45;&gt;Node3</title>
<g id="a_edge5_Node000005_Node000003"><a xlink:title=" ">
<path fill="none" stroke="#63b8ff" d="M743.76,-87.2C732.24,-88.36 720.67,-89.52 709.62,-90.64"/>
<polygon fill="#63b8ff" stroke="#63b8ff" points="744.25,-90.66 753.85,-86.18 743.55,-83.7 744.25,-90.66"/>
</a>
</g>
</g>
<!-- Node7 -->
<g id="Node000007" class="node">
<title>Node7</title>
<g id="a_Node000007"><a xlink:href="../../d4/d03/classTerraria_1_1Player_ab2e21980bc1dddaa7b760abeb643179c.html#ab2e21980bc1dddaa7b760abeb643179c" target="_top" xlink:title=" ">
<polygon fill="white" stroke="#666666" points="718,-55 553,-55 553,-25 718,-25 718,-55"/>
<text text-anchor="start" x="561" y="-43" font-family="Helvetica,sans-Serif" font-size="10.00">Terraria.Player.TileInteractions</text>
<text text-anchor="middle" x="635.5" y="-32" font-family="Helvetica,sans-Serif" font-size="10.00">Check</text>
</a>
</g>
</g>
<!-- Node6&#45;&gt;Node7 -->
<g id="edge7_Node000006_Node000007" class="edge">
<title>Node6&#45;&gt;Node7</title>
<g id="a_edge7_Node000006_Node000007"><a xlink:title=" ">
<path fill="none" stroke="#63b8ff" d="M743.83,-40C735.26,-40 726.67,-40 718.29,-40"/>
<polygon fill="#63b8ff" stroke="#63b8ff" points="743.85,-43.5 753.85,-40 743.85,-36.5 743.85,-43.5"/>
</a>
</g>
</g>
<!-- Node8 -->
<g id="Node000008" class="node">
<title>Node8</title>
<g id="a_Node000008"><a xlink:href="../../d4/d03/classTerraria_1_1Player_a5510cf851b3582e9fbfa6a487da9e057.html#a5510cf851b3582e9fbfa6a487da9e057" target="_top" xlink:title=" ">
<polygon fill="white" stroke="#666666" points="307,-70 161,-70 161,-40 307,-40 307,-70"/>
<text text-anchor="start" x="169" y="-58" font-family="Helvetica,sans-Serif" font-size="10.00">Terraria.Player.LookForTile</text>
<text text-anchor="middle" x="234" y="-47" font-family="Helvetica,sans-Serif" font-size="10.00">Interactions</text>
</a>
</g>
</g>
<!-- Node7&#45;&gt;Node8 -->
<g id="edge8_Node000007_Node000008" class="edge">
<title>Node7&#45;&gt;Node8</title>
<g id="a_edge8_Node000007_Node000008"><a xlink:title=" ">
<path fill="none" stroke="#63b8ff" d="M542.34,-43.46C470.87,-46.14 373.21,-49.81 307.31,-52.28"/>
<polygon fill="#63b8ff" stroke="#63b8ff" points="542.83,-46.94 552.69,-43.07 542.57,-39.95 542.83,-46.94"/>
</a>
</g>
</g>
<!-- Node9 -->
<g id="Node000009" class="node">
<title>Node9</title>
<g id="a_Node000009"><a xlink:href="../../d4/d03/classTerraria_1_1Player_a37caf101b91643aece315d75c2d1e052.html#a37caf101b91643aece315d75c2d1e052" target="_top" xlink:title=" ">
<polygon fill="white" stroke="#666666" points="517,-30 343,-30 343,0 517,0 517,-30"/>
<text text-anchor="start" x="351" y="-18" font-family="Helvetica,sans-Serif" font-size="10.00">Terraria.Player.TryInteracting</text>
<text text-anchor="middle" x="430" y="-7" font-family="Helvetica,sans-Serif" font-size="10.00">WithMinecartTrackInNearbyArea</text>
</a>
</g>
</g>
<!-- Node7&#45;&gt;Node9 -->
<g id="edge10_Node000007_Node000009" class="edge">
<title>Node7&#45;&gt;Node9</title>
<g id="a_edge10_Node000007_Node000009"><a xlink:title=" ">
<path fill="none" stroke="#63b8ff" d="M542.94,-28.75C534.4,-27.7 525.77,-26.64 517.28,-25.6"/>
<polygon fill="#63b8ff" stroke="#63b8ff" points="542.55,-32.23 552.9,-29.98 543.4,-25.28 542.55,-32.23"/>
</a>
</g>
</g>
<!-- Node8&#45;&gt;Node4 -->
<g id="edge9_Node000008_Node000004" class="edge">
<title>Node8&#45;&gt;Node4</title>
<g id="a_edge9_Node000008_Node000004"><a xlink:title=" ">
<path fill="none" stroke="#63b8ff" d="M150.62,-65.21C142.07,-66.27 133.49,-67.33 125.22,-68.35"/>
<polygon fill="#63b8ff" stroke="#63b8ff" points="151.13,-68.67 160.63,-63.97 150.27,-61.72 151.13,-68.67"/>
</a>
</g>
</g>
<!-- Node9&#45;&gt;Node8 -->
<g id="edge11_Node000009_Node000008" class="edge">
<title>Node9&#45;&gt;Node8</title>
<g id="a_edge11_Node000009_Node000008"><a xlink:title=" ">
<path fill="none" stroke="#63b8ff" d="M346.35,-32.04C333.34,-34.72 319.98,-37.48 307.23,-40.11"/>
<polygon fill="#63b8ff" stroke="#63b8ff" points="347.12,-35.46 356.21,-30.01 345.71,-28.6 347.12,-35.46"/>
</a>
</g>
</g>
</g>
</svg>
