<?xml version="1.0" encoding="UTF-8" standalone="no"?>
<!DOCTYPE svg PUBLIC "-//W3C//DTD SVG 1.1//EN"
 "http://www.w3.org/Graphics/SVG/1.1/DTD/svg11.dtd">
<!-- Generated by graphviz version 2.43.0 (0)
 -->
<!-- Title: Terraria.ModLoader.ResourceDisplaySetLoader Pages: 1 -->
<svg width="195pt" height="216pt"
 viewBox="0.00 0.00 195.00 216.00" xmlns="http://www.w3.org/2000/svg" xmlns:xlink="http://www.w3.org/1999/xlink">

<svg id="main" version="1.1" xmlns="http://www.w3.org/2000/svg" xmlns:xlink="http://www.w3.org/1999/xlink" xml:space="preserve" onload="init(evt)">
<style type="text/css"><![CDATA[
.node, .edge {opacity: 0.7;}
.node.selected, .edge.selected {opacity: 1;}
.edge:hover path { stroke: red; }
.edge:hover polygon { stroke: red; fill: red; }
]]></style>
<script type="application/ecmascript" xlink:href="../../svg.min.js"/>
<svg id="graph" class="graph">
<g id="graph0" class="graph" transform="scale(1 1) rotate(0) translate(4 212)">
<title>Terraria.ModLoader.ResourceDisplaySetLoader</title>
<!-- Node1 -->
<g id="Node000001" class="node">
<title>Node1</title>
<g id="a_Node000001"><a xlink:title=" ">
<polygon fill="#999999" stroke="transparent" points="156,-112 0,-112 0,0 156,0 156,-112"/>
<text text-anchor="start" x="7" y="-100" font-family="Helvetica,sans-Serif" font-size="10.00">Terraria.ModLoader.Resource</text>
<text text-anchor="start" x="35" y="-89" font-family="Helvetica,sans-Serif" font-size="10.00">DisplaySetLoader</text>
<text text-anchor="start" x="4" y="-74" font-family="Helvetica,sans-Serif" font-size="10.00">+</text>
<text text-anchor="start" x="17" y="-74" font-family="Helvetica,sans-Serif" font-size="10.00">static int DisplaySetCount</text>
<text text-anchor="start" x="4" y="-59" font-family="Helvetica,sans-Serif" font-size="10.00">+</text>
<text text-anchor="start" x="17" y="-59" font-family="Helvetica,sans-Serif" font-size="10.00">static ModResourceDisplay</text>
<text text-anchor="start" x="17" y="-48" font-family="Helvetica,sans-Serif" font-size="10.00">Set GetDisplaySet(int type)</text>
<text text-anchor="start" x="4" y="-33" font-family="Helvetica,sans-Serif" font-size="10.00">~</text>
<text text-anchor="start" x="17" y="-33" font-family="Helvetica,sans-Serif" font-size="10.00">static int Add(ModResource</text>
<text text-anchor="start" x="17" y="-22" font-family="Helvetica,sans-Serif" font-size="10.00">DisplaySet displaySet)</text>
<text text-anchor="start" x="4" y="-7" font-family="Helvetica,sans-Serif" font-size="10.00">~</text>
<text text-anchor="start" x="17" y="-7" font-family="Helvetica,sans-Serif" font-size="10.00">static void Unload()</text>
<polygon fill="#666666" stroke="#666666" points="0,-84 0,-84 156,-84 156,-84 0,-84"/>
<polygon fill="#666666" stroke="#666666" points="0,-69 0,-69 15,-69 15,-69 0,-69"/>
<polygon fill="#666666" stroke="#666666" points="15,-69 15,-69 156,-69 156,-69 15,-69"/>
<polygon fill="none" stroke="#666666" points="0,0 0,-112 156,-112 156,0 0,0"/>
</a>
</g>
</g>
<!-- Node2 -->
<g id="Node000002" class="node">
<title>Node2</title>
<g id="a_Node000002"><a xlink:title=" ">
<polygon fill="white" stroke="transparent" points="97,-208 59,-208 59,-159 97,-159 97,-208"/>
<text text-anchor="start" x="64" y="-195.5" font-family="Helvetica,sans-Serif" font-size="10.00">static</text>
<text text-anchor="start" x="76" y="-180.5" font-family="Helvetica,sans-Serif" font-size="10.00"> </text>
<text text-anchor="start" x="76" y="-165.5" font-family="Helvetica,sans-Serif" font-size="10.00"> </text>
<polygon fill="#666666" stroke="#666666" points="59,-190.5 59,-190.5 97,-190.5 97,-190.5 59,-190.5"/>
<polygon fill="#666666" stroke="#666666" points="59,-175.5 59,-175.5 97,-175.5 97,-175.5 59,-175.5"/>
<polygon fill="none" stroke="#666666" points="59,-159 59,-208 97,-208 97,-159 59,-159"/>
</a>
</g>
</g>
<!-- Node2&#45;&gt;Node1 -->
<g id="edge1_Node000001_Node000002" class="edge">
<title>Node2&#45;&gt;Node1</title>
<g id="a_edge1_Node000001_Node000002"><a xlink:title=" ">
<path fill="none" stroke="#63b8ff" d="M78,-158.89C78,-148.99 78,-136.92 78,-124.6"/>
<polygon fill="none" stroke="#63b8ff" points="78,-124.26 74,-118.26 78,-112.26 82,-118.26 78,-124.26"/>
</a>
</g>
<text text-anchor="middle" x="132.5" y="-133" font-family="Helvetica,sans-Serif" font-size="10.00" fill="grey"> ~moddedDisplaySets</text>
</g>
</g>
</svg>
</svg>

<style type='text/css'>
<![CDATA[
[data-mouse-over-selected='false'] { opacity: 0.7; }
[data-mouse-over-selected='true']  { opacity: 1.0; }
]]>
</style>
<script type="application/ecmascript"><![CDATA[
document.addEventListener('DOMContentLoaded', (event) => {
  highlightEdges();
  highlightAdjacentNodes();
});
]]></script>
</svg>
