<?xml version="1.0" encoding="UTF-8" standalone="no"?>
<!DOCTYPE svg PUBLIC "-//W3C//DTD SVG 1.1//EN"
 "http://www.w3.org/Graphics/SVG/1.1/DTD/svg11.dtd">
<!-- Generated by graphviz version 2.43.0 (0)
 -->
<!-- Title: Terraria.GameContent.UI.EmoteBubble.NewBubble Pages: 1 -->
<svg width="1151pt" height="1152pt"
 viewBox="0.00 0.00 1151.00 1152.00" xmlns="http://www.w3.org/2000/svg" xmlns:xlink="http://www.w3.org/1999/xlink">
<g id="graph0" class="graph" transform="scale(1 1) rotate(0) translate(4 1148)">
<title>Terraria.GameContent.UI.EmoteBubble.NewBubble</title>
<!-- Node1 -->
<g id="Node000001" class="node">
<title>Node1</title>
<g id="a_Node000001"><a xlink:title="Use this method to spawn a emote bubble.">
<polygon fill="#999999" stroke="#666666" points="140,-563 0,-563 0,-533 140,-533 140,-563"/>
<text text-anchor="start" x="8" y="-551" font-family="Helvetica,sans-Serif" font-size="10.00">Terraria.GameContent.UI.</text>
<text text-anchor="middle" x="70" y="-540" font-family="Helvetica,sans-Serif" font-size="10.00">EmoteBubble.NewBubble</text>
</a>
</g>
</g>
<!-- Node2 -->
<g id="Node000002" class="node">
<title>Node2</title>
<g id="a_Node000002"><a xlink:href="../../d9/da6/classTerraria_1_1GameContent_1_1UI_1_1EmoteBubble_a3a7b7d891e3af241b146bc93c20783b8.html#a3a7b7d891e3af241b146bc93c20783b8" target="_top" xlink:title=" ">
<polygon fill="white" stroke="#666666" points="340,-683 190,-683 190,-653 340,-653 340,-683"/>
<text text-anchor="start" x="198" y="-671" font-family="Helvetica,sans-Serif" font-size="10.00">Terraria.GameContent.UI.</text>
<text text-anchor="middle" x="265" y="-660" font-family="Helvetica,sans-Serif" font-size="10.00">EmoteBubble.EmoteBubble</text>
</a>
</g>
</g>
<!-- Node1&#45;&gt;Node2 -->
<g id="edge1_Node000001_Node000002" class="edge">
<title>Node1&#45;&gt;Node2</title>
<g id="a_edge1_Node000001_Node000002"><a xlink:title=" ">
<path fill="none" stroke="#63b8ff" d="M83.27,-563.04C101.37,-584.23 137.27,-622.67 176,-644 179.32,-645.83 182.78,-647.52 186.34,-649.09"/>
<polygon fill="#63b8ff" stroke="#63b8ff" points="185.34,-652.47 195.92,-652.97 187.96,-645.98 185.34,-652.47"/>
</a>
</g>
</g>
<!-- Node3 -->
<g id="Node000003" class="node">
<title>Node3</title>
<g id="a_Node000003"><a xlink:href="../../d9/da6/classTerraria_1_1GameContent_1_1UI_1_1EmoteBubble_ade9723fb51f991990adfe9cc80293a9c.html#ade9723fb51f991990adfe9cc80293a9c" target="_top" xlink:title=" ">
<polygon fill="white" stroke="#666666" points="339.5,-635 190.5,-635 190.5,-605 339.5,-605 339.5,-635"/>
<text text-anchor="start" x="198.5" y="-623" font-family="Helvetica,sans-Serif" font-size="10.00">Terraria.GameContent.UI.</text>
<text text-anchor="middle" x="265" y="-612" font-family="Helvetica,sans-Serif" font-size="10.00">EmoteBubble.AssignNewID</text>
</a>
</g>
</g>
<!-- Node1&#45;&gt;Node3 -->
<g id="edge2_Node000001_Node000003" class="edge">
<title>Node1&#45;&gt;Node3</title>
<g id="a_edge2_Node000001_Node000003"><a xlink:title=" ">
<path fill="none" stroke="#63b8ff" d="M100.78,-563.19C121.51,-573.37 149.99,-586.58 176,-596 181.76,-598.09 187.8,-600.09 193.89,-601.99"/>
<polygon fill="#63b8ff" stroke="#63b8ff" points="192.89,-605.35 203.47,-604.89 194.91,-598.65 192.89,-605.35"/>
</a>
</g>
</g>
<!-- Node4 -->
<g id="Node000004" class="node">
<title>Node4</title>
<g id="a_Node000004"><a xlink:href="../../d9/da6/classTerraria_1_1GameContent_1_1UI_1_1EmoteBubble_ab9168a12857b24ff29d3f709675b267c.html#ab9168a12857b24ff29d3f709675b267c" target="_top" xlink:title=" ">
<polygon fill="white" stroke="#666666" points="349.5,-587 180.5,-587 180.5,-557 349.5,-557 349.5,-587"/>
<text text-anchor="start" x="188.5" y="-575" font-family="Helvetica,sans-Serif" font-size="10.00">Terraria.GameContent.UI.</text>
<text text-anchor="middle" x="265" y="-564" font-family="Helvetica,sans-Serif" font-size="10.00">EmoteBubble.OnBubbleChange</text>
</a>
</g>
</g>
<!-- Node1&#45;&gt;Node4 -->
<g id="edge3_Node000001_Node000004" class="edge">
<title>Node1&#45;&gt;Node4</title>
<g id="a_edge3_Node000001_Node000004"><a xlink:title=" ">
<path fill="none" stroke="#63b8ff" d="M140.13,-556.6C149.87,-557.81 160.01,-559.07 170.11,-560.32"/>
<polygon fill="#63b8ff" stroke="#63b8ff" points="169.83,-563.82 180.18,-561.58 170.69,-556.87 169.83,-563.82"/>
</a>
</g>
</g>
<!-- Node5 -->
<g id="Node000005" class="node">
<title>Node5</title>
<g id="a_Node000005"><a xlink:href="../../dd/dab/classTerraria_1_1ModLoader_1_1EmoteBubbleLoader_ae054a57714c0a407d230b1807d0aa051.html#ae054a57714c0a407d230b1807d0aa051" target="_top" xlink:title=" ">
<polygon fill="white" stroke="#666666" points="337,-539 193,-539 193,-509 337,-509 337,-539"/>
<text text-anchor="start" x="201" y="-527" font-family="Helvetica,sans-Serif" font-size="10.00">Terraria.ModLoader.Emote</text>
<text text-anchor="middle" x="265" y="-516" font-family="Helvetica,sans-Serif" font-size="10.00">BubbleLoader.OnSpawn</text>
</a>
</g>
</g>
<!-- Node1&#45;&gt;Node5 -->
<g id="edge4_Node000001_Node000005" class="edge">
<title>Node1&#45;&gt;Node5</title>
<g id="a_edge4_Node000001_Node000005"><a xlink:title=" ">
<path fill="none" stroke="#63b8ff" d="M140.13,-539.4C153.88,-537.69 168.44,-535.88 182.56,-534.13"/>
<polygon fill="#63b8ff" stroke="#63b8ff" points="183.26,-537.57 192.75,-532.86 182.39,-530.62 183.26,-537.57"/>
</a>
</g>
</g>
<!-- Node7 -->
<g id="Node000007" class="node">
<title>Node7</title>
<g id="a_Node000007"><a xlink:href="../../d2/dfe/classTerraria_1_1NetMessage_a0099400efdc729b71368da55adc01263.html#a0099400efdc729b71368da55adc01263" target="_top" xlink:title=" ">
<polygon fill="white" stroke="#666666" points="348.5,-490.5 181.5,-490.5 181.5,-471.5 348.5,-471.5 348.5,-490.5"/>
<text text-anchor="middle" x="265" y="-478.5" font-family="Helvetica,sans-Serif" font-size="10.00">Terraria.NetMessage.SendData</text>
</a>
</g>
</g>
<!-- Node1&#45;&gt;Node7 -->
<g id="edge6_Node000001_Node000007" class="edge">
<title>Node1&#45;&gt;Node7</title>
<g id="a_edge6_Node000001_Node000007"><a xlink:title=" ">
<path fill="none" stroke="#63b8ff" d="M99.74,-532.81C120.46,-522.37 149.37,-508.85 176,-500 184,-497.34 192.53,-494.96 201.01,-492.86"/>
<polygon fill="#63b8ff" stroke="#63b8ff" points="201.99,-496.23 210.92,-490.52 200.38,-489.41 201.99,-496.23"/>
</a>
</g>
</g>
<!-- Node42 -->
<g id="Node000042" class="node">
<title>Node42</title>
<g id="a_Node000042"><a xlink:href="../../d9/da6/classTerraria_1_1GameContent_1_1UI_1_1EmoteBubble_a6be89985fcd42a96903fb60226cb5884.html#a6be89985fcd42a96903fb60226cb5884" target="_top" xlink:title=" ">
<polygon fill="white" stroke="#666666" points="354,-453 176,-453 176,-423 354,-423 354,-453"/>
<text text-anchor="start" x="184" y="-441" font-family="Helvetica,sans-Serif" font-size="10.00">Terraria.GameContent.UI.</text>
<text text-anchor="middle" x="265" y="-430" font-family="Helvetica,sans-Serif" font-size="10.00">EmoteBubble.SerializeNetAnchor</text>
</a>
</g>
</g>
<!-- Node1&#45;&gt;Node42 -->
<g id="edge46_Node000001_Node000042" class="edge">
<title>Node1&#45;&gt;Node42</title>
<g id="a_edge46_Node000001_Node000042"><a xlink:title=" ">
<path fill="none" stroke="#63b8ff" d="M85.2,-532.97C104.15,-513.77 139.56,-480.8 176,-462 179.72,-460.08 183.61,-458.3 187.6,-456.65"/>
<polygon fill="#63b8ff" stroke="#63b8ff" points="188.94,-459.89 197.04,-453.05 186.45,-453.35 188.94,-459.89"/>
</a>
</g>
</g>
<!-- Node6 -->
<g id="Node000006" class="node">
<title>Node6</title>
<g id="a_Node000006"><a xlink:href="../../dd/dab/classTerraria_1_1ModLoader_1_1EmoteBubbleLoader_aa0f32761bb23b6f370a9026029fef3e5.html#aa0f32761bb23b6f370a9026029fef3e5" target="_top" xlink:title="Gets the T:Terraria.ModLoader.ModEmoteBubble instance corresponding to the specified ID.">
<polygon fill="white" stroke="#666666" points="559.5,-899 391.5,-899 391.5,-869 559.5,-869 559.5,-899"/>
<text text-anchor="start" x="399.5" y="-887" font-family="Helvetica,sans-Serif" font-size="10.00">Terraria.ModLoader.Emote</text>
<text text-anchor="middle" x="475.5" y="-876" font-family="Helvetica,sans-Serif" font-size="10.00">BubbleLoader.GetEmoteBubble</text>
</a>
</g>
</g>
<!-- Node5&#45;&gt;Node6 -->
<g id="edge5_Node000005_Node000006" class="edge">
<title>Node5&#45;&gt;Node6</title>
<g id="a_edge5_Node000005_Node000006"><a xlink:title=" ">
<path fill="none" stroke="#63b8ff" d="M337.34,-535.02C343.63,-538.35 349.36,-542.59 354,-548 444.96,-653.88 299.6,-753.64 390,-860 390.63,-860.74 391.27,-861.45 391.94,-862.15"/>
<polygon fill="#63b8ff" stroke="#63b8ff" points="389.88,-864.99 399.76,-868.8 394.42,-859.66 389.88,-864.99"/>
</a>
</g>
</g>
<!-- Node8 -->
<g id="Node000008" class="node">
<title>Node8</title>
<g id="a_Node000008"><a xlink:href="../../d2/dfe/classTerraria_1_1NetMessage_a8bd80eec85317f48bb6a6fd7a8a8312b.html#a8bd80eec85317f48bb6a6fd7a8a8312b" target="_top" xlink:title=" ">
<polygon fill="white" stroke="#666666" points="560,-851 391,-851 391,-821 560,-821 560,-851"/>
<text text-anchor="start" x="399" y="-839" font-family="Helvetica,sans-Serif" font-size="10.00">Terraria.NetMessage.Compress</text>
<text text-anchor="middle" x="475.5" y="-828" font-family="Helvetica,sans-Serif" font-size="10.00">TileBlock</text>
</a>
</g>
</g>
<!-- Node7&#45;&gt;Node8 -->
<g id="edge7_Node000007_Node000008" class="edge">
<title>Node7&#45;&gt;Node8</title>
<g id="a_edge7_Node000007_Node000008"><a xlink:title=" ">
<path fill="none" stroke="#63b8ff" d="M342.49,-490.68C346.74,-493.22 350.64,-496.3 354,-500 446.37,-601.69 303.78,-700.04 390,-807 392.43,-810.02 395.19,-812.72 398.19,-815.14"/>
<polygon fill="#63b8ff" stroke="#63b8ff" points="396.42,-818.17 406.65,-820.92 400.37,-812.39 396.42,-818.17"/>
</a>
</g>
</g>
<!-- Node20 -->
<g id="Node000020" class="node">
<title>Node20</title>
<g id="a_Node000020"><a xlink:href="../../db/d56/classTerraria_1_1DataStructures_1_1TileEntity_a94671f9097e4ebf6de668b08e9f0b50a.html#a94671f9097e4ebf6de668b08e9f0b50a" target="_top" xlink:title=" ">
<polygon fill="white" stroke="#666666" points="962,-733 830,-733 830,-703 962,-703 962,-733"/>
<text text-anchor="start" x="838" y="-721" font-family="Helvetica,sans-Serif" font-size="10.00">Terraria.DataStructures.</text>
<text text-anchor="middle" x="896" y="-710" font-family="Helvetica,sans-Serif" font-size="10.00">TileEntity.Write</text>
</a>
</g>
</g>
<!-- Node7&#45;&gt;Node20 -->
<g id="edge40_Node000007_Node000020" class="edge">
<title>Node7&#45;&gt;Node20</title>
<g id="a_edge40_Node000007_Node000020"><a xlink:title=" ">
<path fill="none" stroke="#63b8ff" d="M342.03,-490.5C346.44,-493.08 350.5,-496.21 354,-500 436.39,-589.31 298.6,-690.94 390,-771 421.63,-798.7 686.58,-755.68 819.53,-731.96"/>
<polygon fill="#63b8ff" stroke="#63b8ff" points="820.42,-735.36 829.64,-730.15 819.18,-728.47 820.42,-735.36"/>
</a>
</g>
</g>
<!-- Node21 -->
<g id="Node000021" class="node">
<title>Node21</title>
<g id="a_Node000021"><a xlink:href="../../db/d90/classTerraria_1_1Netplay_a8a3ee13aeab7ca5a142d52fc6a7c94a8.html#a8a3ee13aeab7ca5a142d52fc6a7c94a8" target="_top" xlink:title=" ">
<polygon fill="white" stroke="#666666" points="553.5,-726.5 397.5,-726.5 397.5,-707.5 553.5,-707.5 553.5,-726.5"/>
<text text-anchor="middle" x="475.5" y="-714.5" font-family="Helvetica,sans-Serif" font-size="10.00">Terraria.Netplay.GetSectionX</text>
</a>
</g>
</g>
<!-- Node7&#45;&gt;Node21 -->
<g id="edge20_Node000007_Node000021" class="edge">
<title>Node7&#45;&gt;Node21</title>
<g id="a_edge20_Node000007_Node000021"><a xlink:title=" ">
<path fill="none" stroke="#63b8ff" d="M341.83,-490.69C346.29,-493.22 350.41,-496.29 354,-500 416.48,-564.62 327.44,-634.47 390,-699 390.81,-699.83 391.65,-700.64 392.51,-701.4"/>
<polygon fill="#63b8ff" stroke="#63b8ff" points="390.76,-704.46 400.92,-707.46 394.85,-698.78 390.76,-704.46"/>
</a>
</g>
</g>
<!-- Node22 -->
<g id="Node000022" class="node">
<title>Node22</title>
<g id="a_Node000022"><a xlink:href="../../db/d90/classTerraria_1_1Netplay_aae951351c7bd7fff569a8f67e4a700a0.html#aae951351c7bd7fff569a8f67e4a700a0" target="_top" xlink:title=" ">
<polygon fill="white" stroke="#666666" points="553,-689.5 398,-689.5 398,-670.5 553,-670.5 553,-689.5"/>
<text text-anchor="middle" x="475.5" y="-677.5" font-family="Helvetica,sans-Serif" font-size="10.00">Terraria.Netplay.GetSectionY</text>
</a>
</g>
</g>
<!-- Node7&#45;&gt;Node22 -->
<g id="edge21_Node000007_Node000022" class="edge">
<title>Node7&#45;&gt;Node22</title>
<g id="a_edge21_Node000007_Node000022"><a xlink:title=" ">
<path fill="none" stroke="#63b8ff" d="M341.25,-490.64C345.91,-493.17 350.23,-496.26 354,-500 406.04,-551.66 338.18,-609.12 390,-661 391.28,-662.28 392.62,-663.48 394.03,-664.61"/>
<polygon fill="#63b8ff" stroke="#63b8ff" points="392.35,-667.7 402.62,-670.29 396.21,-661.86 392.35,-667.7"/>
</a>
</g>
</g>
<!-- Node23 -->
<g id="Node000023" class="node">
<title>Node23</title>
<g id="a_Node000023"><a xlink:href="../../d4/d8f/classTerraria_1_1Localization_1_1Language_ae4636a4800b9ecbaa498954520462f78.html#ae4636a4800b9ecbaa498954520462f78" target="_top" xlink:title="Retrieves the text value for a specified localization key. The text returned will be for the currentl...">
<polygon fill="white" stroke="#666666" points="559.5,-652 391.5,-652 391.5,-622 559.5,-622 559.5,-652"/>
<text text-anchor="start" x="399.5" y="-640" font-family="Helvetica,sans-Serif" font-size="10.00">Terraria.Localization.Language.</text>
<text text-anchor="middle" x="475.5" y="-629" font-family="Helvetica,sans-Serif" font-size="10.00">GetTextValue</text>
</a>
</g>
</g>
<!-- Node7&#45;&gt;Node23 -->
<g id="edge22_Node000007_Node000023" class="edge">
<title>Node7&#45;&gt;Node23</title>
<g id="a_edge22_Node000007_Node000023"><a xlink:title=" ">
<path fill="none" stroke="#63b8ff" d="M340.04,-490.6C345.1,-493.12 349.84,-496.22 354,-500 393.01,-535.44 352.14,-576.32 390,-613 391.1,-614.06 392.23,-615.08 393.41,-616.05"/>
<polygon fill="#63b8ff" stroke="#63b8ff" points="391.48,-618.97 401.68,-621.83 395.49,-613.23 391.48,-618.97"/>
</a>
</g>
</g>
<!-- Node24 -->
<g id="Node000024" class="node">
<title>Node24</title>
<g id="a_Node000024"><a xlink:href="../../df/d47/classTerraria_1_1ModLoader_1_1ModNet_a1c1f9ace6611e69d54aa7a1f2cce68f2.html#a1c1f9ace6611e69d54aa7a1f2cce68f2" target="_top" xlink:title=" ">
<polygon fill="white" stroke="#666666" points="552.5,-604 398.5,-604 398.5,-574 552.5,-574 552.5,-604"/>
<text text-anchor="start" x="406.5" y="-592" font-family="Helvetica,sans-Serif" font-size="10.00">Terraria.ModLoader.ModNet.</text>
<text text-anchor="middle" x="475.5" y="-581" font-family="Helvetica,sans-Serif" font-size="10.00">HijackSendData</text>
</a>
</g>
</g>
<!-- Node7&#45;&gt;Node24 -->
<g id="edge23_Node000007_Node000024" class="edge">
<title>Node7&#45;&gt;Node24</title>
<g id="a_edge23_Node000007_Node000024"><a xlink:title=" ">
<path fill="none" stroke="#63b8ff" d="M337.07,-490.61C343.1,-493.09 348.86,-496.18 354,-500 380.51,-519.69 364.13,-544.47 390,-565 391.61,-566.28 393.29,-567.49 395.02,-568.64"/>
<polygon fill="#63b8ff" stroke="#63b8ff" points="393.66,-571.89 404.07,-573.85 397.15,-565.83 393.66,-571.89"/>
</a>
</g>
</g>
<!-- Node26 -->
<g id="Node000026" class="node">
<title>Node26</title>
<g id="a_Node000026"><a xlink:href="../../d6/d21/structTerraria_1_1Tile_aae758079f57e61378841aaf0fc884e71.html#aae758079f57e61378841aaf0fc884e71" target="_top" xlink:title="Legacy code, use P:Terraria.Tile.LiquidType instead.">
<polygon fill="white" stroke="#666666" points="539,-555.5 412,-555.5 412,-536.5 539,-536.5 539,-555.5"/>
<text text-anchor="middle" x="475.5" y="-543.5" font-family="Helvetica,sans-Serif" font-size="10.00">Terraria.Tile.liquidType</text>
</a>
</g>
</g>
<!-- Node7&#45;&gt;Node26 -->
<g id="edge25_Node000007_Node000026" class="edge">
<title>Node7&#45;&gt;Node26</title>
<g id="a_edge25_Node000007_Node000026"><a xlink:title=" ">
<path fill="none" stroke="#63b8ff" d="M326.76,-490.51C336.1,-493 345.47,-496.11 354,-500 372.2,-508.3 371.84,-518.62 390,-527 395.34,-529.46 401.01,-531.62 406.8,-533.5"/>
<polygon fill="#63b8ff" stroke="#63b8ff" points="406.02,-536.92 416.6,-536.41 408.02,-530.21 406.02,-536.92"/>
</a>
</g>
</g>
<!-- Node27 -->
<g id="Node000027" class="node">
<title>Node27</title>
<g id="a_Node000027"><a xlink:href="../../df/d47/classTerraria_1_1ModLoader_1_1ModNet_a84b918169aabe8b707d77626bfa3a734.html#a84b918169aabe8b707d77626bfa3a734" target="_top" xlink:title=" ">
<polygon fill="white" stroke="#666666" points="552.5,-432 398.5,-432 398.5,-402 552.5,-402 552.5,-432"/>
<text text-anchor="start" x="406.5" y="-420" font-family="Helvetica,sans-Serif" font-size="10.00">Terraria.ModLoader.ModNet.</text>
<text text-anchor="middle" x="475.5" y="-409" font-family="Helvetica,sans-Serif" font-size="10.00">LogSend</text>
</a>
</g>
</g>
<!-- Node7&#45;&gt;Node27 -->
<g id="edge26_Node000007_Node000027" class="edge">
<title>Node7&#45;&gt;Node27</title>
<g id="a_edge26_Node000007_Node000027"><a xlink:title=" ">
<path fill="none" stroke="#63b8ff" d="M318.59,-471.5C330.36,-468.86 342.71,-465.69 354,-462 370.65,-456.57 373.7,-452.4 390,-446 399.2,-442.38 409.06,-438.77 418.68,-435.38"/>
<polygon fill="#63b8ff" stroke="#63b8ff" points="419.89,-438.67 428.19,-432.08 417.59,-432.06 419.89,-438.67"/>
</a>
</g>
</g>
<!-- Node30 -->
<g id="Node000030" class="node">
<title>Node30</title>
<g id="a_Node000030"><a xlink:href="../../d0/d8b/classTerraria_1_1ModLoader_1_1IO_1_1ItemIO_acb34dd650cec49c955ce0297fe6d0ce1.html#acb34dd650cec49c955ce0297fe6d0ce1" target="_top" xlink:title=" ">
<polygon fill="white" stroke="#666666" points="756,-518 607,-518 607,-488 756,-488 756,-518"/>
<text text-anchor="start" x="615" y="-506" font-family="Helvetica,sans-Serif" font-size="10.00">Terraria.ModLoader.IO.Item</text>
<text text-anchor="middle" x="681.5" y="-495" font-family="Helvetica,sans-Serif" font-size="10.00">IO.Send</text>
</a>
</g>
</g>
<!-- Node7&#45;&gt;Node30 -->
<g id="edge30_Node000007_Node000030" class="edge">
<title>Node7&#45;&gt;Node30</title>
<g id="a_edge30_Node000007_Node000030"><a xlink:title=" ">
<path fill="none" stroke="#63b8ff" d="M348.55,-475.78C407.82,-473.17 489.52,-471.89 561,-479 576.2,-480.51 592.33,-483.08 607.66,-485.99"/>
<polygon fill="#63b8ff" stroke="#63b8ff" points="607.11,-489.45 617.59,-487.94 608.46,-482.58 607.11,-489.45"/>
</a>
</g>
</g>
<!-- Node31 -->
<g id="Node000031" class="node">
<title>Node31</title>
<g id="a_Node000031"><a xlink:href="../../d0/d8b/classTerraria_1_1ModLoader_1_1IO_1_1ItemIO_a9d5e51fc32478bea6653b3b43783a57b.html#a9d5e51fc32478bea6653b3b43783a57b" target="_top" xlink:title=" ">
<polygon fill="white" stroke="#666666" points="970.5,-601 821.5,-601 821.5,-571 970.5,-571 970.5,-601"/>
<text text-anchor="start" x="829.5" y="-589" font-family="Helvetica,sans-Serif" font-size="10.00">Terraria.ModLoader.IO.Item</text>
<text text-anchor="middle" x="896" y="-578" font-family="Helvetica,sans-Serif" font-size="10.00">IO.SendModData</text>
</a>
</g>
</g>
<!-- Node7&#45;&gt;Node31 -->
<g id="edge37_Node000007_Node000031" class="edge">
<title>Node7&#45;&gt;Node31</title>
<g id="a_edge37_Node000007_Node000031"><a xlink:title=" ">
<path fill="none" stroke="#63b8ff" d="M341.95,-490.58C346.38,-493.14 350.47,-496.24 354,-500 426.69,-577.29 309.52,-666.86 390,-736 537.93,-863.08 789.79,-674.4 869.81,-607.8"/>
<polygon fill="#63b8ff" stroke="#63b8ff" points="872.46,-610.15 877.86,-601.03 867.95,-604.79 872.46,-610.15"/>
</a>
</g>
</g>
<!-- Node32 -->
<g id="Node000032" class="node">
<title>Node32</title>
<g id="a_Node000032"><a xlink:href="../../dd/de0/classTerraria_1_1ModLoader_1_1BiomeLoader_a29df870ca6244b82963eeb5ce278f179.html#a29df870ca6244b82963eeb5ce278f179" target="_top" xlink:title=" ">
<polygon fill="white" stroke="#666666" points="550.5,-384 400.5,-384 400.5,-354 550.5,-354 550.5,-384"/>
<text text-anchor="start" x="408.5" y="-372" font-family="Helvetica,sans-Serif" font-size="10.00">Terraria.ModLoader.Biome</text>
<text text-anchor="middle" x="475.5" y="-361" font-family="Helvetica,sans-Serif" font-size="10.00">Loader.SendCustomBiomes</text>
</a>
</g>
</g>
<!-- Node7&#45;&gt;Node32 -->
<g id="edge32_Node000007_Node000032" class="edge">
<title>Node7&#45;&gt;Node32</title>
<g id="a_edge32_Node000007_Node000032"><a xlink:title=" ">
<path fill="none" stroke="#63b8ff" d="M337.61,-471.34C343.46,-468.86 349.03,-465.79 354,-462 381.51,-441.03 363.18,-414.84 390,-393 391.6,-391.7 393.26,-390.47 394.98,-389.31"/>
<polygon fill="#63b8ff" stroke="#63b8ff" points="397.12,-392.11 403.98,-384.03 393.58,-386.07 397.12,-392.11"/>
</a>
</g>
</g>
<!-- Node34 -->
<g id="Node000034" class="node">
<title>Node34</title>
<g id="a_Node000034"><a xlink:href="../../dd/dc6/classTerraria_1_1ModLoader_1_1NPCLoader_ad20200fbeb8230fb9fa1026ab0e76aa0.html#ad20200fbeb8230fb9fa1026ab0e76aa0" target="_top" xlink:title=" ">
<polygon fill="white" stroke="#666666" points="559.5,-336 391.5,-336 391.5,-306 559.5,-306 559.5,-336"/>
<text text-anchor="start" x="399.5" y="-324" font-family="Helvetica,sans-Serif" font-size="10.00">Terraria.ModLoader.NPCLoader.</text>
<text text-anchor="middle" x="475.5" y="-313" font-family="Helvetica,sans-Serif" font-size="10.00">SendExtraAI</text>
</a>
</g>
</g>
<!-- Node7&#45;&gt;Node34 -->
<g id="edge34_Node000007_Node000034" class="edge">
<title>Node7&#45;&gt;Node34</title>
<g id="a_edge34_Node000007_Node000034"><a xlink:title=" ">
<path fill="none" stroke="#63b8ff" d="M340.08,-471.45C345.13,-468.91 349.85,-465.8 354,-462 394.09,-425.22 351.11,-383.05 390,-345 391.09,-343.93 392.22,-342.91 393.4,-341.94"/>
<polygon fill="#63b8ff" stroke="#63b8ff" points="395.48,-344.75 401.64,-336.13 391.45,-339.03 395.48,-344.75"/>
</a>
</g>
</g>
<!-- Node35 -->
<g id="Node000035" class="node">
<title>Node35</title>
<g id="a_Node000035"><a xlink:href="../../dd/d93/classTerraria_1_1ModLoader_1_1ProjectileLoader_a785fe46f6008e62910dd244542345a24.html#a785fe46f6008e62910dd244542345a24" target="_top" xlink:title=" ">
<polygon fill="white" stroke="#666666" points="554.5,-288 396.5,-288 396.5,-258 554.5,-258 554.5,-288"/>
<text text-anchor="start" x="404.5" y="-276" font-family="Helvetica,sans-Serif" font-size="10.00">Terraria.ModLoader.Projectile</text>
<text text-anchor="middle" x="475.5" y="-265" font-family="Helvetica,sans-Serif" font-size="10.00">Loader.SendExtraAI</text>
</a>
</g>
</g>
<!-- Node7&#45;&gt;Node35 -->
<g id="edge35_Node000007_Node000035" class="edge">
<title>Node7&#45;&gt;Node35</title>
<g id="a_edge35_Node000007_Node000035"><a xlink:title=" ">
<path fill="none" stroke="#63b8ff" d="M341.27,-471.38C345.92,-468.85 350.24,-465.75 354,-462 407.13,-408.98 338.59,-351.69 390,-297 390.91,-296.03 391.86,-295.1 392.84,-294.21"/>
<polygon fill="#63b8ff" stroke="#63b8ff" points="395.09,-296.89 400.92,-288.05 390.85,-291.32 395.09,-296.89"/>
</a>
</g>
</g>
<!-- Node36 -->
<g id="Node000036" class="node">
<title>Node36</title>
<g id="a_Node000036"><a xlink:href="../../d3/d8e/classTerraria_1_1ModLoader_1_1IO_1_1WorldIO_a800edd3907ce891c4cba1af54ee5ba20.html#a800edd3907ce891c4cba1af54ee5ba20" target="_top" xlink:title=" ">
<polygon fill="white" stroke="#666666" points="552.5,-240 398.5,-240 398.5,-210 552.5,-210 552.5,-240"/>
<text text-anchor="start" x="406.5" y="-228" font-family="Helvetica,sans-Serif" font-size="10.00">Terraria.ModLoader.IO.World</text>
<text text-anchor="middle" x="475.5" y="-217" font-family="Helvetica,sans-Serif" font-size="10.00">IO.SendModData</text>
</a>
</g>
</g>
<!-- Node7&#45;&gt;Node36 -->
<g id="edge36_Node000007_Node000036" class="edge">
<title>Node7&#45;&gt;Node36</title>
<g id="a_edge36_Node000007_Node000036"><a xlink:title=" ">
<path fill="none" stroke="#63b8ff" d="M341.88,-471.35C346.33,-468.81 350.44,-465.73 354,-462 420.34,-392.59 325.92,-320.5 390,-249 390.76,-248.15 391.55,-247.33 392.37,-246.53"/>
<polygon fill="#63b8ff" stroke="#63b8ff" points="394.74,-249.11 400.35,-240.12 390.36,-243.66 394.74,-249.11"/>
</a>
</g>
</g>
<!-- Node37 -->
<g id="Node000037" class="node">
<title>Node37</title>
<g id="a_Node000037"><a xlink:href="../../d0/da6/classTerraria_1_1ModLoader_1_1Logging_ab70d2a6a87eaae1d1ea2b6df62b255ec.html#ab70d2a6a87eaae1d1ea2b6df62b255ec" target="_top" xlink:title=" ">
<polygon fill="white" stroke="#666666" points="552.5,-174 398.5,-174 398.5,-144 552.5,-144 552.5,-174"/>
<text text-anchor="start" x="406.5" y="-162" font-family="Helvetica,sans-Serif" font-size="10.00">Terraria.ModLoader.Logging.</text>
<text text-anchor="middle" x="475.5" y="-151" font-family="Helvetica,sans-Serif" font-size="10.00">ServerConsoleLine</text>
</a>
</g>
</g>
<!-- Node7&#45;&gt;Node37 -->
<g id="edge38_Node000007_Node000037" class="edge">
<title>Node7&#45;&gt;Node37</title>
<g id="a_edge38_Node000007_Node000037"><a xlink:title=" ">
<path fill="none" stroke="#63b8ff" d="M342.01,-471.48C346.43,-468.91 350.49,-465.78 354,-462 433.61,-376.13 321.65,-296.08 390,-201 396.52,-191.94 405.55,-184.72 415.3,-179.01"/>
<polygon fill="#63b8ff" stroke="#63b8ff" points="417.21,-181.96 424.4,-174.19 413.93,-175.78 417.21,-181.96"/>
</a>
</g>
</g>
<!-- Node38 -->
<g id="Node000038" class="node">
<title>Node38</title>
<g id="a_Node000038"><a xlink:href="../../d2/dfe/classTerraria_1_1NetMessage_a17488582dd5650d9c0f793be3cc79b2a.html#a17488582dd5650d9c0f793be3cc79b2a" target="_top" xlink:title=" ">
<polygon fill="white" stroke="#666666" points="548.5,-126 402.5,-126 402.5,-96 548.5,-96 548.5,-126"/>
<text text-anchor="start" x="410.5" y="-114" font-family="Helvetica,sans-Serif" font-size="10.00">Terraria.NetMessage.Write</text>
<text text-anchor="middle" x="475.5" y="-103" font-family="Helvetica,sans-Serif" font-size="10.00">AccessoryVisibility</text>
</a>
</g>
</g>
<!-- Node7&#45;&gt;Node38 -->
<g id="edge41_Node000007_Node000038" class="edge">
<title>Node7&#45;&gt;Node38</title>
<g id="a_edge41_Node000007_Node000038"><a xlink:title=" ">
<path fill="none" stroke="#63b8ff" d="M342.52,-471.35C346.76,-468.8 350.65,-465.71 354,-462 451.93,-353.43 295.6,-246.65 390,-135 391.33,-133.43 392.75,-131.95 394.26,-130.57"/>
<polygon fill="#63b8ff" stroke="#63b8ff" points="396.53,-133.24 402.4,-124.42 392.31,-127.66 396.53,-133.24"/>
</a>
</g>
</g>
<!-- Node39 -->
<g id="Node000039" class="node">
<title>Node39</title>
<g id="a_Node000039"><a xlink:href="../../dd/dc6/classTerraria_1_1ModLoader_1_1NPCLoader_acd7b32d09b1fce4d0690d6bae683d829.html#acd7b32d09b1fce4d0690d6bae683d829" target="_top" xlink:title=" ">
<polygon fill="white" stroke="#666666" points="559.5,-78 391.5,-78 391.5,-48 559.5,-48 559.5,-78"/>
<text text-anchor="start" x="399.5" y="-66" font-family="Helvetica,sans-Serif" font-size="10.00">Terraria.ModLoader.NPCLoader.</text>
<text text-anchor="middle" x="475.5" y="-55" font-family="Helvetica,sans-Serif" font-size="10.00">WriteExtraAI</text>
</a>
</g>
</g>
<!-- Node7&#45;&gt;Node39 -->
<g id="edge42_Node000007_Node000039" class="edge">
<title>Node7&#45;&gt;Node39</title>
<g id="a_edge42_Node000007_Node000039"><a xlink:title=" ">
<path fill="none" stroke="#63b8ff" d="M342.58,-471.4C346.81,-468.84 350.68,-465.74 354,-462 409.64,-399.45 336.4,-151.3 390,-87 390.62,-86.26 391.26,-85.54 391.92,-84.84"/>
<polygon fill="#63b8ff" stroke="#63b8ff" points="394.4,-87.32 399.69,-78.13 389.83,-82.02 394.4,-87.32"/>
</a>
</g>
</g>
<!-- Node40 -->
<g id="Node000040" class="node">
<title>Node40</title>
<g id="a_Node000040"><a xlink:href="../../dd/d93/classTerraria_1_1ModLoader_1_1ProjectileLoader_ad728f89b264d8327c66389f62f4d6a6b.html#ad728f89b264d8327c66389f62f4d6a6b" target="_top" xlink:title=" ">
<polygon fill="white" stroke="#666666" points="554.5,-30 396.5,-30 396.5,0 554.5,0 554.5,-30"/>
<text text-anchor="start" x="404.5" y="-18" font-family="Helvetica,sans-Serif" font-size="10.00">Terraria.ModLoader.Projectile</text>
<text text-anchor="middle" x="475.5" y="-7" font-family="Helvetica,sans-Serif" font-size="10.00">Loader.WriteExtraAI</text>
</a>
</g>
</g>
<!-- Node7&#45;&gt;Node40 -->
<g id="edge43_Node000007_Node000040" class="edge">
<title>Node7&#45;&gt;Node40</title>
<g id="a_edge43_Node000007_Node000040"><a xlink:title=" ">
<path fill="none" stroke="#63b8ff" d="M342.63,-471.44C346.84,-468.87 350.7,-465.76 354,-462 416.31,-391.17 329.99,-111.79 390,-39 390.62,-38.25 391.25,-37.53 391.91,-36.83"/>
<polygon fill="#63b8ff" stroke="#63b8ff" points="394.4,-39.3 399.64,-30.1 389.8,-34.02 394.4,-39.3"/>
</a>
</g>
</g>
<!-- Node41 -->
<g id="Node000041" class="node">
<title>Node41</title>
<g id="a_Node000041"><a xlink:href="../../d9/d9b/classTerraria_1_1DataStructures_1_1PlayerDeathReason_a9b526c38a2136beee6ac5ae5a6e8faa7.html#a9b526c38a2136beee6ac5ae5a6e8faa7" target="_top" xlink:title=" ">
<polygon fill="white" stroke="#666666" points="561,-518 390,-518 390,-488 561,-488 561,-518"/>
<text text-anchor="start" x="398" y="-506" font-family="Helvetica,sans-Serif" font-size="10.00">Terraria.DataStructures.</text>
<text text-anchor="middle" x="475.5" y="-495" font-family="Helvetica,sans-Serif" font-size="10.00">PlayerDeathReason.WriteSelfTo</text>
</a>
</g>
</g>
<!-- Node7&#45;&gt;Node41 -->
<g id="edge44_Node000007_Node000041" class="edge">
<title>Node7&#45;&gt;Node41</title>
<g id="a_edge44_Node000007_Node000041"><a xlink:title=" ">
<path fill="none" stroke="#63b8ff" d="M348.7,-489.73C358.85,-490.8 369.28,-491.9 379.59,-492.99"/>
<polygon fill="#63b8ff" stroke="#63b8ff" points="379.53,-496.5 389.85,-494.07 380.27,-489.54 379.53,-496.5"/>
</a>
</g>
</g>
<!-- Node9 -->
<g id="Node000009" class="node">
<title>Node9</title>
<g id="a_Node000009"><a xlink:href="../../d2/dfe/classTerraria_1_1NetMessage_ae9163ccde925a89a178879cda0866701.html#ae9163ccde925a89a178879cda0866701" target="_top" xlink:title=" ">
<polygon fill="white" stroke="#666666" points="766,-925 597,-925 597,-895 766,-895 766,-925"/>
<text text-anchor="start" x="605" y="-913" font-family="Helvetica,sans-Serif" font-size="10.00">Terraria.NetMessage.Compress</text>
<text text-anchor="middle" x="681.5" y="-902" font-family="Helvetica,sans-Serif" font-size="10.00">TileBlock_Inner</text>
</a>
</g>
</g>
<!-- Node8&#45;&gt;Node9 -->
<g id="edge8_Node000008_Node000009" class="edge">
<title>Node8&#45;&gt;Node9</title>
<g id="a_edge8_Node000008_Node000009"><a xlink:title=" ">
<path fill="none" stroke="#63b8ff" d="M533.16,-851.08C542.52,-853.86 552.08,-856.88 561,-860 587,-869.1 615.48,-880.94 638.12,-890.81"/>
<polygon fill="#63b8ff" stroke="#63b8ff" points="636.87,-894.09 647.43,-894.91 639.69,-887.68 636.87,-894.09"/>
</a>
</g>
</g>
<!-- Node10 -->
<g id="Node000010" class="node">
<title>Node10</title>
<g id="a_Node000010"><a xlink:href="../../d9/d66/classTerraria_1_1GameContent_1_1Tile__Entities_1_1TEDisplayDoll_acb24e981caea1cd0c432ac84c9261c1c.html#acb24e981caea1cd0c432ac84c9261c1c" target="_top" xlink:title=" ">
<polygon fill="white" stroke="#666666" points="972.5,-1021 819.5,-1021 819.5,-991 972.5,-991 972.5,-1021"/>
<text text-anchor="start" x="827.5" y="-1009" font-family="Helvetica,sans-Serif" font-size="10.00">Terraria.GameContent.Tile</text>
<text text-anchor="middle" x="896" y="-998" font-family="Helvetica,sans-Serif" font-size="10.00">_Entities.TEDisplayDoll.Find</text>
</a>
</g>
</g>
<!-- Node9&#45;&gt;Node10 -->
<g id="edge9_Node000009_Node000010" class="edge">
<title>Node9&#45;&gt;Node10</title>
<g id="a_edge9_Node000009_Node000010"><a xlink:title=" ">
<path fill="none" stroke="#63b8ff" d="M703.52,-925.26C726.63,-941.4 765.37,-966.63 802,-982 807,-984.1 812.22,-986.05 817.54,-987.86"/>
<polygon fill="#63b8ff" stroke="#63b8ff" points="816.59,-991.23 827.18,-990.96 818.74,-984.57 816.59,-991.23"/>
</a>
</g>
</g>
<!-- Node11 -->
<g id="Node000011" class="node">
<title>Node11</title>
<g id="a_Node000011"><a xlink:href="../../df/d58/classTerraria_1_1GameContent_1_1Tile__Entities_1_1TEFoodPlatter_ab824c4ec25da97eb7b211ec27d652546.html#ab824c4ec25da97eb7b211ec27d652546" target="_top" xlink:title=" ">
<polygon fill="white" stroke="#666666" points="972,-973 820,-973 820,-943 972,-943 972,-973"/>
<text text-anchor="start" x="828" y="-961" font-family="Helvetica,sans-Serif" font-size="10.00">Terraria.GameContent.Tile</text>
<text text-anchor="middle" x="896" y="-950" font-family="Helvetica,sans-Serif" font-size="10.00">_Entities.TEFoodPlatter.Find</text>
</a>
</g>
</g>
<!-- Node9&#45;&gt;Node11 -->
<g id="edge10_Node000009_Node000011" class="edge">
<title>Node9&#45;&gt;Node11</title>
<g id="a_edge10_Node000009_Node000011"><a xlink:title=" ">
<path fill="none" stroke="#63b8ff" d="M749.15,-925.06C771.21,-930.04 795.92,-935.62 818.64,-940.75"/>
<polygon fill="#63b8ff" stroke="#63b8ff" points="818.06,-944.21 828.58,-943 819.6,-937.38 818.06,-944.21"/>
</a>
</g>
</g>
<!-- Node12 -->
<g id="Node000012" class="node">
<title>Node12</title>
<g id="a_Node000012"><a xlink:href="../../d3/d99/classTerraria_1_1GameContent_1_1Tile__Entities_1_1TEHatRack_a0af7e34a07c3d2ba64ef18aca9013ff5.html#a0af7e34a07c3d2ba64ef18aca9013ff5" target="_top" xlink:title=" ">
<polygon fill="white" stroke="#666666" points="968.5,-925 823.5,-925 823.5,-895 968.5,-895 968.5,-925"/>
<text text-anchor="start" x="831.5" y="-913" font-family="Helvetica,sans-Serif" font-size="10.00">Terraria.GameContent.Tile</text>
<text text-anchor="middle" x="896" y="-902" font-family="Helvetica,sans-Serif" font-size="10.00">_Entities.TEHatRack.Find</text>
</a>
</g>
</g>
<!-- Node9&#45;&gt;Node12 -->
<g id="edge11_Node000009_Node000012" class="edge">
<title>Node9&#45;&gt;Node12</title>
<g id="a_edge11_Node000009_Node000012"><a xlink:title=" ">
<path fill="none" stroke="#63b8ff" d="M766.18,-910C781.71,-910 797.91,-910 813.38,-910"/>
<polygon fill="#63b8ff" stroke="#63b8ff" points="813.42,-913.5 823.42,-910 813.42,-906.5 813.42,-913.5"/>
</a>
</g>
</g>
<!-- Node13 -->
<g id="Node000013" class="node">
<title>Node13</title>
<g id="a_Node000013"><a xlink:href="../../d5/dad/classTerraria_1_1GameContent_1_1Tile__Entities_1_1TEItemFrame_a736981b810e7aa34c25f1ea4e0ec0c4d.html#a736981b810e7aa34c25f1ea4e0ec0c4d" target="_top" xlink:title=" ">
<polygon fill="white" stroke="#666666" points="971,-877 821,-877 821,-847 971,-847 971,-877"/>
<text text-anchor="start" x="829" y="-865" font-family="Helvetica,sans-Serif" font-size="10.00">Terraria.GameContent.Tile</text>
<text text-anchor="middle" x="896" y="-854" font-family="Helvetica,sans-Serif" font-size="10.00">_Entities.TEItemFrame.Find</text>
</a>
</g>
</g>
<!-- Node9&#45;&gt;Node13 -->
<g id="edge12_Node000009_Node000013" class="edge">
<title>Node9&#45;&gt;Node13</title>
<g id="a_edge12_Node000009_Node000013"><a xlink:title=" ">
<path fill="none" stroke="#63b8ff" d="M749.15,-894.94C771.21,-889.96 795.92,-884.38 818.64,-879.25"/>
<polygon fill="#63b8ff" stroke="#63b8ff" points="819.6,-882.62 828.58,-877 818.06,-875.79 819.6,-882.62"/>
</a>
</g>
</g>
<!-- Node14 -->
<g id="Node000014" class="node">
<title>Node14</title>
<g id="a_Node000014"><a xlink:href="../../d8/d19/classTerraria_1_1GameContent_1_1Tile__Entities_1_1TETeleportationPylon_a6fc24a8a3539899124e211733cc4f81c.html#a6fc24a8a3539899124e211733cc4f81c" target="_top" xlink:title=" ">
<polygon fill="white" stroke="#666666" points="990,-829 802,-829 802,-799 990,-799 990,-829"/>
<text text-anchor="start" x="810" y="-817" font-family="Helvetica,sans-Serif" font-size="10.00">Terraria.GameContent.Tile</text>
<text text-anchor="middle" x="896" y="-806" font-family="Helvetica,sans-Serif" font-size="10.00">_Entities.TETeleportationPylon.Find</text>
</a>
</g>
</g>
<!-- Node9&#45;&gt;Node14 -->
<g id="edge13_Node000009_Node000014" class="edge">
<title>Node9&#45;&gt;Node14</title>
<g id="a_edge13_Node000009_Node000014"><a xlink:title=" ">
<path fill="none" stroke="#63b8ff" d="M703.52,-894.74C726.63,-878.6 765.37,-853.37 802,-838 807,-835.9 812.22,-833.95 817.54,-832.14"/>
<polygon fill="#63b8ff" stroke="#63b8ff" points="818.74,-835.43 827.18,-829.04 816.59,-828.77 818.74,-835.43"/>
</a>
</g>
</g>
<!-- Node15 -->
<g id="Node000015" class="node">
<title>Node15</title>
<g id="a_Node000015"><a xlink:href="../../d1/dea/classTerraria_1_1GameContent_1_1Tile__Entities_1_1TETrainingDummy_ab9fb96c6f00d653644d815bbdf50f66a.html#ab9fb96c6f00d653644d815bbdf50f66a" target="_top" xlink:title=" ">
<polygon fill="white" stroke="#666666" points="982.5,-781 809.5,-781 809.5,-751 982.5,-751 982.5,-781"/>
<text text-anchor="start" x="817.5" y="-769" font-family="Helvetica,sans-Serif" font-size="10.00">Terraria.GameContent.Tile</text>
<text text-anchor="middle" x="896" y="-758" font-family="Helvetica,sans-Serif" font-size="10.00">_Entities.TETrainingDummy.Find</text>
</a>
</g>
</g>
<!-- Node9&#45;&gt;Node15 -->
<g id="edge14_Node000009_Node000015" class="edge">
<title>Node9&#45;&gt;Node15</title>
<g id="a_edge14_Node000009_Node000015"><a xlink:title=" ">
<path fill="none" stroke="#63b8ff" d="M693.16,-894.91C712.07,-869.31 754.03,-817.47 802,-790 805.06,-788.25 808.25,-786.62 811.52,-785.11"/>
<polygon fill="#63b8ff" stroke="#63b8ff" points="813.08,-788.26 820.95,-781.16 810.37,-781.8 813.08,-788.26"/>
</a>
</g>
</g>
<!-- Node16 -->
<g id="Node000016" class="node">
<title>Node16</title>
<g id="a_Node000016"><a xlink:href="../../d6/db4/classTerraria_1_1GameContent_1_1Tile__Entities_1_1TEWeaponsRack_aa3987ebaf1e3db83e347561e6bb8c801.html#aa3987ebaf1e3db83e347561e6bb8c801" target="_top" xlink:title=" ">
<polygon fill="white" stroke="#666666" points="978.5,-1144 813.5,-1144 813.5,-1114 978.5,-1114 978.5,-1144"/>
<text text-anchor="start" x="821.5" y="-1132" font-family="Helvetica,sans-Serif" font-size="10.00">Terraria.GameContent.Tile</text>
<text text-anchor="middle" x="896" y="-1121" font-family="Helvetica,sans-Serif" font-size="10.00">_Entities.TEWeaponsRack.Find</text>
</a>
</g>
</g>
<!-- Node9&#45;&gt;Node16 -->
<g id="edge15_Node000009_Node000016" class="edge">
<title>Node9&#45;&gt;Node16</title>
<g id="a_edge15_Node000009_Node000016"><a xlink:title=" ">
<path fill="none" stroke="#63b8ff" d="M687.32,-925.18C699.84,-962.07 737.04,-1056.96 802,-1105 804.05,-1106.52 806.19,-1107.94 808.4,-1109.27"/>
<polygon fill="#63b8ff" stroke="#63b8ff" points="806.76,-1112.36 817.23,-1113.98 810.05,-1106.19 806.76,-1112.36"/>
</a>
</g>
</g>
<!-- Node17 -->
<g id="Node000017" class="node">
<title>Node17</title>
<g id="a_Node000017"><a xlink:href="../../dc/ddf/classTerraria_1_1Chest_acd6e0360d9c88e1b967580124250a028.html#acd6e0360d9c88e1b967580124250a028" target="_top" xlink:title="Tries to find a T:Terraria.Chest located at (X , Y ) (tile coordinates).">
<polygon fill="white" stroke="#666666" points="963.5,-1095.5 828.5,-1095.5 828.5,-1076.5 963.5,-1076.5 963.5,-1095.5"/>
<text text-anchor="middle" x="896" y="-1083.5" font-family="Helvetica,sans-Serif" font-size="10.00">Terraria.Chest.FindChest</text>
</a>
</g>
</g>
<!-- Node9&#45;&gt;Node17 -->
<g id="edge16_Node000009_Node000017" class="edge">
<title>Node9&#45;&gt;Node17</title>
<g id="a_edge16_Node000009_Node000017"><a xlink:title=" ">
<path fill="none" stroke="#63b8ff" d="M689.22,-925.11C704.33,-957.17 744.2,-1031.99 802,-1068 807.1,-1071.18 812.63,-1073.81 818.38,-1076"/>
<polygon fill="#63b8ff" stroke="#63b8ff" points="817.61,-1079.43 828.2,-1079.27 819.82,-1072.79 817.61,-1079.43"/>
</a>
</g>
</g>
<!-- Node18 -->
<g id="Node000018" class="node">
<title>Node18</title>
<g id="a_Node000018"><a xlink:href="../../dd/d21/classTerraria_1_1Sign_a29027ab23c41a6dfb30ae54caa2be2f7.html#a29027ab23c41a6dfb30ae54caa2be2f7" target="_top" xlink:title=" ">
<polygon fill="white" stroke="#666666" points="959,-1058.5 833,-1058.5 833,-1039.5 959,-1039.5 959,-1058.5"/>
<text text-anchor="middle" x="896" y="-1046.5" font-family="Helvetica,sans-Serif" font-size="10.00">Terraria.Sign.ReadSign</text>
</a>
</g>
</g>
<!-- Node9&#45;&gt;Node18 -->
<g id="edge17_Node000009_Node000018" class="edge">
<title>Node9&#45;&gt;Node18</title>
<g id="a_edge17_Node000009_Node000018"><a xlink:title=" ">
<path fill="none" stroke="#63b8ff" d="M693.02,-925.35C711.71,-951.35 753.35,-1003.77 802,-1030 808.48,-1033.5 815.53,-1036.35 822.76,-1038.68"/>
<polygon fill="#63b8ff" stroke="#63b8ff" points="822.11,-1042.13 832.69,-1041.54 824.05,-1035.41 822.11,-1042.13"/>
</a>
</g>
</g>
<!-- Node9&#45;&gt;Node20 -->
<g id="edge19_Node000009_Node000020" class="edge">
<title>Node9&#45;&gt;Node20</title>
<g id="a_edge19_Node000009_Node000020"><a xlink:title=" ">
<path fill="none" stroke="#63b8ff" d="M696.12,-894.95C713.42,-875.45 743.73,-840.01 766,-807 784.47,-779.62 775.89,-762.22 802,-742 807.49,-737.75 813.66,-734.24 820.14,-731.36"/>
<polygon fill="#63b8ff" stroke="#63b8ff" points="821.78,-734.47 829.81,-727.56 819.22,-727.96 821.78,-734.47"/>
</a>
</g>
</g>
<!-- Node19 -->
<g id="Node000019" class="node">
<title>Node19</title>
<g id="a_Node000019"><a xlink:href="../../dd/d21/classTerraria_1_1Sign_abdb027ce4747b58504b4900b6ea459d9.html#abdb027ce4747b58504b4900b6ea459d9" target="_top" xlink:title=" ">
<polygon fill="white" stroke="#666666" points="1143,-1058.5 1026,-1058.5 1026,-1039.5 1143,-1039.5 1143,-1058.5"/>
<text text-anchor="middle" x="1084.5" y="-1046.5" font-family="Helvetica,sans-Serif" font-size="10.00">Terraria.Sign.KillSign</text>
</a>
</g>
</g>
<!-- Node18&#45;&gt;Node19 -->
<g id="edge18_Node000018_Node000019" class="edge">
<title>Node18&#45;&gt;Node19</title>
<g id="a_edge18_Node000018_Node000019"><a xlink:title=" ">
<path fill="none" stroke="#63b8ff" d="M959.1,-1049C977.25,-1049 997.18,-1049 1015.66,-1049"/>
<polygon fill="#63b8ff" stroke="#63b8ff" points="1015.77,-1052.5 1025.77,-1049 1015.77,-1045.5 1015.77,-1052.5"/>
</a>
</g>
</g>
<!-- Node25 -->
<g id="Node000025" class="node">
<title>Node25</title>
<g id="a_Node000025"><a xlink:href="../../d1/da9/classTerraria_1_1ModLoader_1_1SystemLoader_ae99eb8c523f713e1b444bb0751fdac97.html#ae99eb8c523f713e1b444bb0751fdac97" target="_top" xlink:title=" ">
<polygon fill="white" stroke="#666666" points="756,-604 607,-604 607,-574 756,-574 756,-604"/>
<text text-anchor="start" x="615" y="-592" font-family="Helvetica,sans-Serif" font-size="10.00">Terraria.ModLoader.System</text>
<text text-anchor="middle" x="681.5" y="-581" font-family="Helvetica,sans-Serif" font-size="10.00">Loader.HijackSendData</text>
</a>
</g>
</g>
<!-- Node24&#45;&gt;Node25 -->
<g id="edge24_Node000024_Node000025" class="edge">
<title>Node24&#45;&gt;Node25</title>
<g id="a_edge24_Node000024_Node000025"><a xlink:title=" ">
<path fill="none" stroke="#63b8ff" d="M552.75,-589C566.96,-589 581.88,-589 596.31,-589"/>
<polygon fill="#63b8ff" stroke="#63b8ff" points="596.71,-592.5 606.71,-589 596.71,-585.5 596.71,-592.5"/>
</a>
</g>
</g>
<!-- Node28 -->
<g id="Node000028" class="node">
<title>Node28</title>
<g id="a_Node000028"><a xlink:href="../../df/d47/classTerraria_1_1ModLoader_1_1ModNet_a0887e1e6a5354d57bf79d5fb93bdb7da.html#a0887e1e6a5354d57bf79d5fb93bdb7da" target="_top" xlink:title=" ">
<polygon fill="white" stroke="#666666" points="758.5,-432 604.5,-432 604.5,-402 758.5,-402 758.5,-432"/>
<text text-anchor="start" x="612.5" y="-420" font-family="Helvetica,sans-Serif" font-size="10.00">Terraria.ModLoader.ModNet.</text>
<text text-anchor="middle" x="681.5" y="-409" font-family="Helvetica,sans-Serif" font-size="10.00">Debug</text>
</a>
</g>
</g>
<!-- Node27&#45;&gt;Node28 -->
<g id="edge27_Node000027_Node000028" class="edge">
<title>Node27&#45;&gt;Node28</title>
<g id="a_edge27_Node000027_Node000028"><a xlink:title=" ">
<path fill="none" stroke="#63b8ff" d="M552.75,-417C566.19,-417 580.26,-417 593.96,-417"/>
<polygon fill="#63b8ff" stroke="#63b8ff" points="594.34,-420.5 604.34,-417 594.34,-413.5 594.34,-420.5"/>
</a>
</g>
</g>
<!-- Node28&#45;&gt;Node28 -->
<g id="edge28_Node000028_Node000028" class="edge">
<title>Node28&#45;&gt;Node28</title>
<g id="a_edge28_Node000028_Node000028"><a xlink:title=" ">
<path fill="none" stroke="#63b8ff" d="M645.29,-432.28C637.24,-441.41 649.31,-450 681.5,-450 700.61,-450 712.63,-446.97 717.56,-442.6"/>
<polygon fill="#63b8ff" stroke="#63b8ff" points="721.06,-442.33 717.71,-432.28 714.06,-442.22 721.06,-442.33"/>
</a>
</g>
</g>
<!-- Node29 -->
<g id="Node000029" class="node">
<title>Node29</title>
<g id="a_Node000029"><a xlink:href="../../df/d47/classTerraria_1_1ModLoader_1_1ModNet_ac2c9d5a95be6bd79eeea20bdc9bd0d46.html#ac2c9d5a95be6bd79eeea20bdc9bd0d46" target="_top" xlink:title=" ">
<polygon fill="white" stroke="#666666" points="973,-432 819,-432 819,-402 973,-402 973,-432"/>
<text text-anchor="start" x="827" y="-420" font-family="Helvetica,sans-Serif" font-size="10.00">Terraria.ModLoader.ModNet.</text>
<text text-anchor="middle" x="896" y="-409" font-family="Helvetica,sans-Serif" font-size="10.00">Identifier</text>
</a>
</g>
</g>
<!-- Node28&#45;&gt;Node29 -->
<g id="edge29_Node000028_Node000029" class="edge">
<title>Node28&#45;&gt;Node29</title>
<g id="a_edge29_Node000028_Node000029"><a xlink:title=" ">
<path fill="none" stroke="#63b8ff" d="M758.62,-417C774.79,-417 791.98,-417 808.51,-417"/>
<polygon fill="#63b8ff" stroke="#63b8ff" points="808.7,-420.5 818.7,-417 808.7,-413.5 808.7,-420.5"/>
</a>
</g>
</g>
<!-- Node30&#45;&gt;Node31 -->
<g id="edge31_Node000030_Node000031" class="edge">
<title>Node30&#45;&gt;Node31</title>
<g id="a_edge31_Node000030_Node000031"><a xlink:title=" ">
<path fill="none" stroke="#63b8ff" d="M720.98,-518.03C756.38,-531.85 808.99,-552.4 847.09,-567.29"/>
<polygon fill="#63b8ff" stroke="#63b8ff" points="845.86,-570.56 856.45,-570.94 848.4,-564.04 845.86,-570.56"/>
</a>
</g>
</g>
<!-- Node33 -->
<g id="Node000033" class="node">
<title>Node33</title>
<g id="a_Node000033"><a xlink:href="../../d1/d9c/classTerraria_1_1Utils_a77957b27eb38a437df68fbc4467ffc54.html#a77957b27eb38a437df68fbc4467ffc54" target="_top" xlink:title="Bit packs a BitArray in to a Byte Array and then sends the byte array.">
<polygon fill="white" stroke="#666666" points="754.5,-378.5 608.5,-378.5 608.5,-359.5 754.5,-359.5 754.5,-378.5"/>
<text text-anchor="middle" x="681.5" y="-366.5" font-family="Helvetica,sans-Serif" font-size="10.00">Terraria.Utils.SendBitArray</text>
</a>
</g>
</g>
<!-- Node32&#45;&gt;Node33 -->
<g id="edge33_Node000032_Node000033" class="edge">
<title>Node32&#45;&gt;Node33</title>
<g id="a_edge33_Node000032_Node000033"><a xlink:title=" ">
<path fill="none" stroke="#63b8ff" d="M550.73,-369C566.15,-369 582.48,-369 598.17,-369"/>
<polygon fill="#63b8ff" stroke="#63b8ff" points="598.37,-372.5 608.37,-369 598.37,-365.5 598.37,-372.5"/>
</a>
</g>
</g>
<!-- Node37&#45;&gt;Node37 -->
<g id="edge39_Node000037_Node000037" class="edge">
<title>Node37&#45;&gt;Node37</title>
<g id="a_edge39_Node000037_Node000037"><a xlink:title=" ">
<path fill="none" stroke="#63b8ff" d="M439.29,-174.28C431.24,-183.41 443.31,-192 475.5,-192 494.61,-192 506.63,-188.97 511.56,-184.6"/>
<polygon fill="#63b8ff" stroke="#63b8ff" points="515.06,-184.33 511.71,-174.28 508.06,-184.22 515.06,-184.33"/>
</a>
</g>
</g>
<!-- Node41&#45;&gt;Node30 -->
<g id="edge45_Node000041_Node000030" class="edge">
<title>Node41&#45;&gt;Node30</title>
<g id="a_edge45_Node000041_Node000030"><a xlink:title=" ">
<path fill="none" stroke="#63b8ff" d="M561.24,-503C572.93,-503 584.92,-503 596.59,-503"/>
<polygon fill="#63b8ff" stroke="#63b8ff" points="596.75,-506.5 606.75,-503 596.75,-499.5 596.75,-506.5"/>
</a>
</g>
</g>
</g>
</svg>
