<?xml version="1.0" encoding="UTF-8" standalone="no"?>
<!DOCTYPE svg PUBLIC "-//W3C//DTD SVG 1.1//EN"
 "http://www.w3.org/Graphics/SVG/1.1/DTD/svg11.dtd">
<!-- Generated by graphviz version 2.43.0 (0)
 -->
<!-- Title: Terraria.GameContent.UI.Elements.UIBestiaryEntryGrid.Recalculate Pages: 1 -->
<!--zoomable 339 -->

<svg id="main" version="1.1" xmlns="http://www.w3.org/2000/svg" xmlns:xlink="http://www.w3.org/1999/xlink" xml:space="preserve" onload="init(evt)">
<style type="text/css"><![CDATA[
.node, .edge {opacity: 0.7;}
.node.selected, .edge.selected {opacity: 1;}
.edge:hover path { stroke: red; }
.edge:hover polygon { stroke: red; fill: red; }
]]></style>

<defs>
  <circle id="rim" cx="0" cy="0" r="7"/>
  <circle id="rim2" cx="0" cy="0" r="3.5"/>
  <g id="zoomPlus">
    <use xlink:href="#rim" fill="#404040"><set attributeName="fill" to="#808080" begin="zoomplus.mouseover" end="zoomplus.mouseout"/></use>
    <path d="M-4,0h8M0,-4v8" fill="none" stroke="white" stroke-width="1.5" pointer-events="none"/>
  </g>
  <g id="zoomMin">
    <use xlink:href="#rim" fill="#404040"><set attributeName="fill" to="#808080" begin="zoomminus.mouseover" end="zoomminus.mouseout"/></use>
    <path d="M-4,0h8" fill="none" stroke="white" stroke-width="1.5" pointer-events="none"/>
  </g>
  <g id="arrowUp" transform="translate(30 24)">
    <use xlink:href="#rim"/>
    <path pointer-events="none" fill="none" stroke="white" stroke-width="1.5" d="M0,-3.0v7 M-2.5,-0.5L0,-3.0L2.5,-0.5"/>
  </g>
  <g id="arrowRight" transform="rotate(90) translate(36 -43)">
    <use xlink:href="#rim"/>
    <path pointer-events="none" fill="none" stroke="white" stroke-width="1.5" d="M0,-3.0v7 M-2.5,-0.5L0,-3.0L2.5,-0.5"/>
  </g>
  <g id="arrowDown" transform="rotate(180) translate(-30 -48)">
    <use xlink:href="#rim"/>
    <path pointer-events="none" fill="none" stroke="white" stroke-width="1.5" d="M0,-3.0v7 M-2.5,-0.5L0,-3.0L2.5,-0.5"/>
  </g>
  <g id="arrowLeft" transform="rotate(270) translate(-36 17)">
    <use xlink:href="#rim"/>
    <path pointer-events="none" fill="none" stroke="white" stroke-width="1.5" d="M0,-3.0v7 M-2.5,-0.5L0,-3.0L2.5,-0.5"/>
  </g>
  <g id="resetDef">
    <use xlink:href="#rim2" fill="#404040"><set attributeName="fill" to="#808080" begin="reset.mouseover" end="reset.mouseout"/></use>
  </g>
</defs>
<script type="application/ecmascript">
var viewWidth = 761;
var viewHeight = 339;
var sectionId = 'dynsection-0';
</script>
<script type="application/ecmascript" xlink:href="../../svg.min.js"/>
<svg id="graph" class="graph">
<g id="viewport">
<title>Terraria.GameContent.UI.Elements.UIBestiaryEntryGrid.Recalculate</title>
<!-- Node1 -->
<g id="Node000001" class="node">
<title>Node1</title>
<g id="a_Node000001"><a xlink:title=" ">
<polygon fill="#999999" stroke="#666666" points="165,-181 0,-181 0,-140 165,-140 165,-181"/>
<text text-anchor="start" x="8" y="-169" font-family="Helvetica,sans-Serif" font-size="10.00">Terraria.GameContent.UI.</text>
<text text-anchor="start" x="8" y="-158" font-family="Helvetica,sans-Serif" font-size="10.00">Elements.UIBestiaryEntryGrid.</text>
<text text-anchor="middle" x="82.5" y="-147" font-family="Helvetica,sans-Serif" font-size="10.00">Recalculate</text>
</a>
</g>
</g>
<!-- Node2 -->
<g id="Node000002" class="node">
<title>Node2</title>
<g id="a_Node000002"><a xlink:href="../../da/de7/classTerraria_1_1GameContent_1_1UI_1_1Elements_1_1UIBestiaryEntryGrid_a7211c67978717fa40f4ba9edc0e2b0c0.html#a7211c67978717fa40f4ba9edc0e2b0c0" target="_top" xlink:title=" ">
<polygon fill="white" stroke="#666666" points="366,-181 201,-181 201,-140 366,-140 366,-181"/>
<text text-anchor="start" x="209" y="-169" font-family="Helvetica,sans-Serif" font-size="10.00">Terraria.GameContent.UI.</text>
<text text-anchor="start" x="209" y="-158" font-family="Helvetica,sans-Serif" font-size="10.00">Elements.UIBestiaryEntryGrid.</text>
<text text-anchor="middle" x="283.5" y="-147" font-family="Helvetica,sans-Serif" font-size="10.00">FillBestiarySpaceWithEntries</text>
</a>
</g>
</g>
<!-- Node1&#45;&gt;Node2 -->
<g id="edge1_Node000001_Node000002" class="edge">
<title>Node1&#45;&gt;Node2</title>
<g id="a_edge1_Node000001_Node000002"><a xlink:title=" ">
<path fill="none" stroke="#63b8ff" d="M165.02,-160.5C173.5,-160.5 182.17,-160.5 190.76,-160.5"/>
<polygon fill="#63b8ff" stroke="#63b8ff" points="190.79,-164 200.79,-160.5 190.79,-157 190.79,-164"/>
</a>
</g>
</g>
<!-- Node3 -->
<g id="Node000003" class="node">
<title>Node3</title>
<g id="a_Node000003"><a xlink:href="../../d7/d72/classTerraria_1_1UI_1_1UIElement_a4f78a3ab59b3dffcdc5b68328a46f103.html#a4f78a3ab59b3dffcdc5b68328a46f103" target="_top" xlink:title=" ">
<polygon fill="white" stroke="#666666" points="565.5,-331 404.5,-331 404.5,-312 565.5,-312 565.5,-331"/>
<text text-anchor="middle" x="485" y="-319" font-family="Helvetica,sans-Serif" font-size="10.00">Terraria.UI.UIElement.Append</text>
</a>
</g>
</g>
<!-- Node2&#45;&gt;Node3 -->
<g id="edge2_Node000002_Node000003" class="edge">
<title>Node2&#45;&gt;Node3</title>
<g id="a_edge2_Node000002_Node000003"><a xlink:title=" ">
<path fill="none" stroke="#63b8ff" d="M295.34,-181C313.15,-212.58 351.72,-272.7 402,-303.5 404.8,-305.21 407.73,-306.76 410.77,-308.17"/>
<polygon fill="#63b8ff" stroke="#63b8ff" points="409.53,-311.44 420.11,-311.95 412.16,-304.95 409.53,-311.44"/>
</a>
</g>
</g>
<!-- Node4 -->
<g id="Node000004" class="node">
<title>Node4</title>
<g id="a_Node000004"><a xlink:href="../../da/de7/classTerraria_1_1GameContent_1_1UI_1_1Elements_1_1UIBestiaryEntryGrid_a4425c5011f285b7783598dfef639209c.html#a4425c5011f285b7783598dfef639209c" target="_top" xlink:title=" ">
<polygon fill="white" stroke="#666666" points="567.5,-294 402.5,-294 402.5,-253 567.5,-253 567.5,-294"/>
<text text-anchor="start" x="410.5" y="-282" font-family="Helvetica,sans-Serif" font-size="10.00">Terraria.GameContent.UI.</text>
<text text-anchor="start" x="410.5" y="-271" font-family="Helvetica,sans-Serif" font-size="10.00">Elements.UIBestiaryEntryGrid.</text>
<text text-anchor="middle" x="485" y="-260" font-family="Helvetica,sans-Serif" font-size="10.00">FixBestiaryRange</text>
</a>
</g>
</g>
<!-- Node2&#45;&gt;Node4 -->
<g id="edge3_Node000002_Node000004" class="edge">
<title>Node2&#45;&gt;Node4</title>
<g id="a_edge3_Node000002_Node000004"><a xlink:title=" ">
<path fill="none" stroke="#63b8ff" d="M308.84,-181.02C331.73,-199.54 367.53,-226.54 402,-244.5 404.88,-246 407.85,-247.45 410.89,-248.86"/>
<polygon fill="#63b8ff" stroke="#63b8ff" points="409.56,-252.1 420.12,-252.91 412.37,-245.69 409.56,-252.1"/>
</a>
</g>
</g>
<!-- Node5 -->
<g id="Node000005" class="node">
<title>Node5</title>
<g id="a_Node000005"><a xlink:href="../../da/de7/classTerraria_1_1GameContent_1_1UI_1_1Elements_1_1UIBestiaryEntryGrid_a3cde061b6ec8249b7bd27fcb456d54a6.html#a3cde061b6ec8249b7bd27fcb456d54a6" target="_top" xlink:title=" ">
<polygon fill="white" stroke="#666666" points="567.5,-235 402.5,-235 402.5,-194 567.5,-194 567.5,-235"/>
<text text-anchor="start" x="410.5" y="-223" font-family="Helvetica,sans-Serif" font-size="10.00">Terraria.GameContent.UI.</text>
<text text-anchor="start" x="410.5" y="-212" font-family="Helvetica,sans-Serif" font-size="10.00">Elements.UIBestiaryEntryGrid.</text>
<text text-anchor="middle" x="485" y="-201" font-family="Helvetica,sans-Serif" font-size="10.00">GetEntriesToShow</text>
</a>
</g>
</g>
<!-- Node2&#45;&gt;Node5 -->
<g id="edge4_Node000002_Node000005" class="edge">
<title>Node2&#45;&gt;Node5</title>
<g id="a_edge4_Node000002_Node000005"><a xlink:title=" ">
<path fill="none" stroke="#63b8ff" d="M360.49,-181.07C372.83,-184.41 385.68,-187.89 398.23,-191.29"/>
<polygon fill="#63b8ff" stroke="#63b8ff" points="397.65,-194.75 408.22,-193.99 399.48,-188 397.65,-194.75"/>
</a>
</g>
</g>
<!-- Node8 -->
<g id="Node000008" class="node">
<title>Node8</title>
<g id="a_Node000008"><a xlink:href="../../d7/d72/classTerraria_1_1UI_1_1UIElement_a8358ff058ca4696cbdf817c755f2e568.html#a8358ff058ca4696cbdf817c755f2e568" target="_top" xlink:title=" ">
<polygon fill="white" stroke="#666666" points="567,-175.5 403,-175.5 403,-145.5 567,-145.5 567,-175.5"/>
<text text-anchor="start" x="411" y="-163.5" font-family="Helvetica,sans-Serif" font-size="10.00">Terraria.UI.UIElement.Remove</text>
<text text-anchor="middle" x="485" y="-152.5" font-family="Helvetica,sans-Serif" font-size="10.00">AllChildren</text>
</a>
</g>
</g>
<!-- Node2&#45;&gt;Node8 -->
<g id="edge7_Node000002_Node000008" class="edge">
<title>Node2&#45;&gt;Node8</title>
<g id="a_edge7_Node000002_Node000008"><a xlink:title=" ">
<path fill="none" stroke="#63b8ff" d="M366.22,-160.5C374.88,-160.5 383.73,-160.5 392.5,-160.5"/>
<polygon fill="#63b8ff" stroke="#63b8ff" points="392.73,-164 402.73,-160.5 392.73,-157 392.73,-164"/>
</a>
</g>
</g>
<!-- Node9 -->
<g id="Node000009" class="node">
<title>Node9</title>
<g id="a_Node000009"><a xlink:href="../../d8/d74/structTerraria_1_1UI_1_1StyleDimension_a93e6acf229427c6435d7ee83958efba0.html#a93e6acf229427c6435d7ee83958efba0" target="_top" xlink:title=" ">
<polygon fill="white" stroke="#666666" points="568,-127 402,-127 402,-108 568,-108 568,-127"/>
<text text-anchor="middle" x="485" y="-115" font-family="Helvetica,sans-Serif" font-size="10.00">Terraria.UI.StyleDimension.Set</text>
</a>
</g>
</g>
<!-- Node2&#45;&gt;Node9 -->
<g id="edge8_Node000002_Node000009" class="edge">
<title>Node2&#45;&gt;Node9</title>
<g id="a_edge8_Node000002_Node000009"><a xlink:title=" ">
<path fill="none" stroke="#63b8ff" d="M366.22,-142.89C387.66,-138.26 410.25,-133.4 429.85,-129.17"/>
<polygon fill="#63b8ff" stroke="#63b8ff" points="430.77,-132.55 439.81,-127.03 429.29,-125.71 430.77,-132.55"/>
</a>
</g>
</g>
<!-- Node10 -->
<g id="Node000010" class="node">
<title>Node10</title>
<g id="a_Node000010"><a xlink:href="../../d7/d72/classTerraria_1_1UI_1_1UIElement_a8bd017c22efc392e1fe13a78c3a0dcc8.html#a8bd017c22efc392e1fe13a78c3a0dcc8" target="_top" xlink:title=" ">
<polygon fill="white" stroke="#666666" points="555,-89.5 415,-89.5 415,-59.5 555,-59.5 555,-89.5"/>
<text text-anchor="start" x="423" y="-77.5" font-family="Helvetica,sans-Serif" font-size="10.00">Terraria.UI.UIElement.Set</text>
<text text-anchor="middle" x="485" y="-66.5" font-family="Helvetica,sans-Serif" font-size="10.00">SnapPoint</text>
</a>
</g>
</g>
<!-- Node2&#45;&gt;Node10 -->
<g id="edge9_Node000002_Node000010" class="edge">
<title>Node2&#45;&gt;Node10</title>
<g id="a_edge9_Node000002_Node000010"><a xlink:title=" ">
<path fill="none" stroke="#63b8ff" d="M319.1,-139.88C342.05,-126.8 373.14,-110.2 402,-98.5 406.98,-96.48 412.2,-94.55 417.48,-92.73"/>
<polygon fill="#63b8ff" stroke="#63b8ff" points="418.64,-96.03 427.03,-89.56 416.44,-89.39 418.64,-96.03"/>
</a>
</g>
</g>
<!-- Node11 -->
<g id="Node000011" class="node">
<title>Node11</title>
<g id="a_Node000011"><a xlink:href="../../da/de7/classTerraria_1_1GameContent_1_1UI_1_1Elements_1_1UIBestiaryEntryGrid_a5720436c530b01e89a2b8d3148c8236c.html#a5720436c530b01e89a2b8d3148c8236c" target="_top" xlink:title=" ">
<polygon fill="white" stroke="#666666" points="567.5,-41 402.5,-41 402.5,0 567.5,0 567.5,-41"/>
<text text-anchor="start" x="410.5" y="-29" font-family="Helvetica,sans-Serif" font-size="10.00">Terraria.GameContent.UI.</text>
<text text-anchor="start" x="410.5" y="-18" font-family="Helvetica,sans-Serif" font-size="10.00">Elements.UIBestiaryEntryGrid.</text>
<text text-anchor="middle" x="485" y="-7" font-family="Helvetica,sans-Serif" font-size="10.00">UpdateEntries</text>
</a>
</g>
</g>
<!-- Node2&#45;&gt;Node11 -->
<g id="edge10_Node000002_Node000011" class="edge">
<title>Node2&#45;&gt;Node11</title>
<g id="a_edge10_Node000002_Node000011"><a xlink:title=" ">
<path fill="none" stroke="#63b8ff" d="M302.05,-139.6C323.46,-115.26 361.78,-75.25 402,-50.5 404.78,-48.79 407.66,-47.16 410.63,-45.6"/>
<polygon fill="#63b8ff" stroke="#63b8ff" points="412.26,-48.7 419.69,-41.15 409.17,-42.42 412.26,-48.7"/>
</a>
</g>
</g>
<!-- Node6 -->
<g id="Node000006" class="node">
<title>Node6</title>
<g id="a_Node000006"><a xlink:href="../../d7/d72/classTerraria_1_1UI_1_1UIElement_abeb7b32927c9b86a4b1a4139e45ac6a5.html#abeb7b32927c9b86a4b1a4139e45ac6a5" target="_top" xlink:title=" ">
<polygon fill="white" stroke="#666666" points="749,-253.5 608,-253.5 608,-223.5 749,-223.5 749,-253.5"/>
<text text-anchor="start" x="616" y="-241.5" font-family="Helvetica,sans-Serif" font-size="10.00">Terraria.UI.UIElement.Get</text>
<text text-anchor="middle" x="678.5" y="-230.5" font-family="Helvetica,sans-Serif" font-size="10.00">Dimensions</text>
</a>
</g>
</g>
<!-- Node5&#45;&gt;Node6 -->
<g id="edge5_Node000005_Node000006" class="edge">
<title>Node5&#45;&gt;Node6</title>
<g id="a_edge5_Node000005_Node000006"><a xlink:title=" ">
<path fill="none" stroke="#63b8ff" d="M567.77,-224.75C577.65,-225.99 587.74,-227.25 597.6,-228.49"/>
<polygon fill="#63b8ff" stroke="#63b8ff" points="597.41,-231.99 607.77,-229.76 598.28,-225.04 597.41,-231.99"/>
</a>
</g>
</g>
<!-- Node7 -->
<g id="Node000007" class="node">
<title>Node7</title>
<g id="a_Node000007"><a xlink:href="../../d6/d3a/structTerraria_1_1UI_1_1CalculatedStyle_ae308b313a276c5961898e6a4595139ca.html#ae308b313a276c5961898e6a4595139ca" target="_top" xlink:title=" ">
<polygon fill="white" stroke="#666666" points="753,-205.5 604,-205.5 604,-175.5 753,-175.5 753,-205.5"/>
<text text-anchor="start" x="612" y="-193.5" font-family="Helvetica,sans-Serif" font-size="10.00">Terraria.UI.CalculatedStyle.</text>
<text text-anchor="middle" x="678.5" y="-182.5" font-family="Helvetica,sans-Serif" font-size="10.00">ToRectangle</text>
</a>
</g>
</g>
<!-- Node5&#45;&gt;Node7 -->
<g id="edge6_Node000005_Node000007" class="edge">
<title>Node5&#45;&gt;Node7</title>
<g id="a_edge6_Node000005_Node000007"><a xlink:title=" ">
<path fill="none" stroke="#63b8ff" d="M567.77,-204.25C576.39,-203.17 585.17,-202.07 593.81,-200.99"/>
<polygon fill="#63b8ff" stroke="#63b8ff" points="594.39,-204.44 603.88,-199.73 593.52,-197.5 594.39,-204.44"/>
</a>
</g>
</g>
</g>
</svg>

<g id="navigator" transform="translate(0 0)" fill="#404254">
  <rect fill="#f2f5e9" fill-opacity="0.5" stroke="#606060" stroke-width=".5" x="0" y="0" width="60" height="60"/>
  <use id="zoomplus" xlink:href="#zoomPlus" x="17" y="9" onmousedown="handleZoom(evt,'in')"/>
  <use id="zoomminus" xlink:href="#zoomMin" x="42" y="9" onmousedown="handleZoom(evt,'out')"/>
  <use id="reset" xlink:href="#resetDef" x="30" y="36" onmousedown="handleReset()"/>
   <use id="arrowup" xlink:href="#arrowUp" x="0" y="0" onmousedown="handlePan(0,-1)"/>
  <use id="arrowright" xlink:href="#arrowRight" x="0" y="0" onmousedown="handlePan(1,0)"/>
  <use id="arrowdown" xlink:href="#arrowDown" x="0" y="0" onmousedown="handlePan(0,1)"/>
  <use id="arrowleft" xlink:href="#arrowLeft" x="0" y="0" onmousedown="handlePan(-1,0)"/>
</g>
<svg viewBox="0 0 15 15" width="100%" height="30px" preserveAspectRatio="xMaxYMin meet">
 <g id="arrow_out" transform="scale(0.3 0.3)">
  <a xlink:href="classTerraria_1_1GameContent_1_1UI_1_1Elements_1_1UIBestiaryEntryGrid_ab664b193428eb42cf8cd5c9688067f9d_ab664b193428eb42cf8cd5c9688067f9d_cgraph_org.svg" target="_base">
   <rect id="button" ry="5" rx="5" y="6" x="6" height="38" width="38"
        fill="#f2f5e9" fill-opacity="0.5" stroke="#606060" stroke-width="1.0"/>
   <path id="arrow"
     d="M 11.500037,31.436501 C 11.940474,20.09759 22.043105,11.32322 32.158766,21.979434 L 37.068811,17.246167 C 37.068811,17.246167 37.088388,32 37.088388,32 L 22.160133,31.978069 C 22.160133,31.978069 26.997745,27.140456 26.997745,27.140456 C 18.528582,18.264221 13.291696,25.230495 11.500037,31.436501 z"
     style="fill:#404040;"/>
  </a>
 </g>
</svg>

<style type='text/css'>
<![CDATA[
[data-mouse-over-selected='false'] { opacity: 0.7; }
[data-mouse-over-selected='true']  { opacity: 1.0; }
]]>
</style>
<script type="application/ecmascript"><![CDATA[
document.addEventListener('DOMContentLoaded', (event) => {
  highlightEdges();
  highlightAdjacentNodes();
});
]]></script>
</svg>
