<?xml version="1.0" encoding="UTF-8" standalone="no"?>
<!DOCTYPE svg PUBLIC "-//W3C//DTD SVG 1.1//EN"
 "http://www.w3.org/Graphics/SVG/1.1/DTD/svg11.dtd">
<!-- Generated by graphviz version 2.43.0 (0)
 -->
<!-- Title: Terraria.ModLoader.MusicLoader Pages: 1 -->
<svg width="267pt" height="620pt"
 viewBox="0.00 0.00 266.50 620.00" xmlns="http://www.w3.org/2000/svg" xmlns:xlink="http://www.w3.org/1999/xlink">
<g id="graph0" class="graph" transform="scale(1 1) rotate(0) translate(4 616)">
<title>Terraria.ModLoader.MusicLoader</title>
<!-- Node1 -->
<g id="Node000001" class="node">
<title>Node1</title>
<g id="a_Node000001"><a xlink:title=" ">
<polygon fill="#999999" stroke="transparent" points="188.5,-446 24.5,-446 24.5,0 188.5,0 188.5,-446"/>
<text text-anchor="start" x="44" y="-434" font-family="Helvetica,sans-Serif" font-size="10.00">Terraria.ModLoader.Music</text>
<text text-anchor="start" x="89.5" y="-423" font-family="Helvetica,sans-Serif" font-size="10.00">Loader</text>
<text text-anchor="start" x="28.5" y="-408" font-family="Helvetica,sans-Serif" font-size="10.00">+</text>
<text text-anchor="start" x="41.5" y="-408" font-family="Helvetica,sans-Serif" font-size="10.00">static int MusicCount</text>
<text text-anchor="start" x="28.5" y="-393" font-family="Helvetica,sans-Serif" font-size="10.00">+</text>
<text text-anchor="start" x="41.5" y="-393" font-family="Helvetica,sans-Serif" font-size="10.00">static int GetMusicSlot</text>
<text text-anchor="start" x="41.5" y="-382" font-family="Helvetica,sans-Serif" font-size="10.00">(Mod mod, string musicPath)</text>
<text text-anchor="start" x="28.5" y="-367" font-family="Helvetica,sans-Serif" font-size="10.00">+</text>
<text text-anchor="start" x="41.5" y="-367" font-family="Helvetica,sans-Serif" font-size="10.00">static int GetMusicSlot</text>
<text text-anchor="start" x="41.5" y="-356" font-family="Helvetica,sans-Serif" font-size="10.00">(string musicPath)</text>
<text text-anchor="start" x="28.5" y="-341" font-family="Helvetica,sans-Serif" font-size="10.00">+</text>
<text text-anchor="start" x="41.5" y="-341" font-family="Helvetica,sans-Serif" font-size="10.00">static bool MusicExists</text>
<text text-anchor="start" x="41.5" y="-330" font-family="Helvetica,sans-Serif" font-size="10.00">(Mod mod, string musicPath)</text>
<text text-anchor="start" x="28.5" y="-315" font-family="Helvetica,sans-Serif" font-size="10.00">+</text>
<text text-anchor="start" x="41.5" y="-315" font-family="Helvetica,sans-Serif" font-size="10.00">static bool MusicExists</text>
<text text-anchor="start" x="41.5" y="-304" font-family="Helvetica,sans-Serif" font-size="10.00">(string musicPath)</text>
<text text-anchor="start" x="28.5" y="-289" font-family="Helvetica,sans-Serif" font-size="10.00">+</text>
<text text-anchor="start" x="41.5" y="-289" font-family="Helvetica,sans-Serif" font-size="10.00">static IAudioTrack</text>
<text text-anchor="start" x="41.5" y="-278" font-family="Helvetica,sans-Serif" font-size="10.00"> GetMusic(Mod mod, string</text>
<text text-anchor="start" x="41.5" y="-267" font-family="Helvetica,sans-Serif" font-size="10.00"> musicPath)</text>
<text text-anchor="start" x="28.5" y="-252" font-family="Helvetica,sans-Serif" font-size="10.00">+</text>
<text text-anchor="start" x="41.5" y="-252" font-family="Helvetica,sans-Serif" font-size="10.00">static IAudioTrack</text>
<text text-anchor="start" x="41.5" y="-241" font-family="Helvetica,sans-Serif" font-size="10.00"> GetMusic(string musicPath)</text>
<text text-anchor="start" x="28.5" y="-226" font-family="Helvetica,sans-Serif" font-size="10.00">+</text>
<text text-anchor="start" x="41.5" y="-226" font-family="Helvetica,sans-Serif" font-size="10.00">static void AddMusic</text>
<text text-anchor="start" x="41.5" y="-215" font-family="Helvetica,sans-Serif" font-size="10.00">(Mod mod, string musicPath)</text>
<text text-anchor="start" x="28.5" y="-200" font-family="Helvetica,sans-Serif" font-size="10.00">+</text>
<text text-anchor="start" x="41.5" y="-200" font-family="Helvetica,sans-Serif" font-size="10.00">static void AddMusicBox</text>
<text text-anchor="start" x="41.5" y="-189" font-family="Helvetica,sans-Serif" font-size="10.00">(Mod mod, int musicSlot,</text>
<text text-anchor="start" x="41.5" y="-178" font-family="Helvetica,sans-Serif" font-size="10.00"> int itemType, int tileType,</text>
<text text-anchor="start" x="41.5" y="-167" font-family="Helvetica,sans-Serif" font-size="10.00"> int tileFrameY=0)</text>
<text text-anchor="start" x="28.5" y="-152" font-family="Helvetica,sans-Serif" font-size="10.00">~</text>
<text text-anchor="start" x="41.5" y="-152" font-family="Helvetica,sans-Serif" font-size="10.00">static void AutoloadMusic</text>
<text text-anchor="start" x="41.5" y="-141" font-family="Helvetica,sans-Serif" font-size="10.00">(Mod mod)</text>
<text text-anchor="start" x="28.5" y="-126" font-family="Helvetica,sans-Serif" font-size="10.00">~</text>
<text text-anchor="start" x="41.5" y="-126" font-family="Helvetica,sans-Serif" font-size="10.00">static int ReserveMusicID()</text>
<text text-anchor="start" x="28.5" y="-111" font-family="Helvetica,sans-Serif" font-size="10.00">~</text>
<text text-anchor="start" x="41.5" y="-111" font-family="Helvetica,sans-Serif" font-size="10.00">static IAudioTrack</text>
<text text-anchor="start" x="41.5" y="-100" font-family="Helvetica,sans-Serif" font-size="10.00"> LoadMusic(string path,</text>
<text text-anchor="start" x="41.5" y="-89" font-family="Helvetica,sans-Serif" font-size="10.00"> string extension)</text>
<text text-anchor="start" x="28.5" y="-74" font-family="Helvetica,sans-Serif" font-size="10.00">~</text>
<text text-anchor="start" x="41.5" y="-74" font-family="Helvetica,sans-Serif" font-size="10.00">static void CloseModStreams</text>
<text text-anchor="start" x="41.5" y="-63" font-family="Helvetica,sans-Serif" font-size="10.00">(Mod mod)</text>
<text text-anchor="start" x="28.5" y="-48" font-family="Helvetica,sans-Serif" font-size="10.00">~</text>
<text text-anchor="start" x="41.5" y="-48" font-family="Helvetica,sans-Serif" font-size="10.00">static void CloseStream</text>
<text text-anchor="start" x="41.5" y="-37" font-family="Helvetica,sans-Serif" font-size="10.00">(string musicPath)</text>
<text text-anchor="start" x="31" y="-22" font-family="Helvetica,sans-Serif" font-size="10.00">&#45;</text>
<text text-anchor="start" x="41.5" y="-22" font-family="Helvetica,sans-Serif" font-size="10.00">void ILoader. ResizeArrays()</text>
<text text-anchor="start" x="31" y="-7" font-family="Helvetica,sans-Serif" font-size="10.00">&#45;</text>
<text text-anchor="start" x="41.5" y="-7" font-family="Helvetica,sans-Serif" font-size="10.00">void ILoader. Unload()</text>
<polygon fill="#666666" stroke="#666666" points="24.5,-418 24.5,-418 188.5,-418 188.5,-418 24.5,-418"/>
<polygon fill="#666666" stroke="#666666" points="24.5,-403 24.5,-403 39.5,-403 39.5,-403 24.5,-403"/>
<polygon fill="#666666" stroke="#666666" points="39.5,-403 39.5,-403 188.5,-403 188.5,-403 39.5,-403"/>
<polygon fill="none" stroke="#666666" points="24.5,0 24.5,-446 188.5,-446 188.5,0 24.5,0"/>
</a>
</g>
</g>
<!-- Node2 -->
<g id="Node000002" class="node">
<title>Node2</title>
<g id="a_Node000002"><a xlink:href="../../dc/dc0/interfaceTerraria_1_1ModLoader_1_1ILoader.html" target="_top" xlink:title=" ">
<polygon fill="white" stroke="transparent" points="117,-612 0,-612 0,-548 117,-548 117,-612"/>
<text text-anchor="start" x="40.5" y="-600" font-family="Helvetica,sans-Serif" font-size="10.00">ILoader</text>
<text text-anchor="start" x="57" y="-585" font-family="Helvetica,sans-Serif" font-size="10.00"> </text>
<text text-anchor="start" x="4.5" y="-570" font-family="Helvetica,sans-Serif" font-size="10.00">~</text>
<text text-anchor="start" x="17.5" y="-570" font-family="Helvetica,sans-Serif" font-size="10.00">void ResizeArrays()</text>
<text text-anchor="start" x="4.5" y="-555" font-family="Helvetica,sans-Serif" font-size="10.00">~</text>
<text text-anchor="start" x="17.5" y="-555" font-family="Helvetica,sans-Serif" font-size="10.00">void Unload()</text>
<polygon fill="#666666" stroke="#666666" points="0.5,-595 0.5,-595 117.5,-595 117.5,-595 0.5,-595"/>
<polygon fill="#666666" stroke="#666666" points="0.5,-580 0.5,-580 117.5,-580 117.5,-580 0.5,-580"/>
<polygon fill="none" stroke="#666666" points="0,-548 0,-612 117,-612 117,-548 0,-548"/>
</a>
</g>
</g>
<!-- Node2&#45;&gt;Node1 -->
<g id="edge1_Node000001_Node000002" class="edge">
<title>Node2&#45;&gt;Node1</title>
<g id="a_edge1_Node000001_Node000002"><a xlink:title=" ">
<path fill="none" stroke="#63b8ff" d="M64.08,-537.7C67.34,-513.65 71.72,-481.25 76.43,-446.38"/>
<polygon fill="none" stroke="#63b8ff" points="60.59,-537.43 62.72,-547.81 67.53,-538.37 60.59,-537.43"/>
</a>
</g>
</g>
<!-- Node3 -->
<g id="Node000003" class="node">
<title>Node3</title>
<g id="a_Node000003"><a xlink:title=" ">
<polygon fill="white" stroke="transparent" points="173.5,-604.5 135.5,-604.5 135.5,-555.5 173.5,-555.5 173.5,-604.5"/>
<text text-anchor="start" x="140.5" y="-592" font-family="Helvetica,sans-Serif" font-size="10.00">static</text>
<text text-anchor="start" x="152.5" y="-577" font-family="Helvetica,sans-Serif" font-size="10.00"> </text>
<text text-anchor="start" x="152.5" y="-562" font-family="Helvetica,sans-Serif" font-size="10.00"> </text>
<polygon fill="#666666" stroke="#666666" points="135.5,-587 135.5,-587 173.5,-587 173.5,-587 135.5,-587"/>
<polygon fill="#666666" stroke="#666666" points="135.5,-572 135.5,-572 173.5,-572 173.5,-572 135.5,-572"/>
<polygon fill="none" stroke="#666666" points="135.5,-555.5 135.5,-604.5 173.5,-604.5 173.5,-555.5 135.5,-555.5"/>
</a>
</g>
</g>
<!-- Node3&#45;&gt;Node1 -->
<g id="edge2_Node000001_Node000003" class="edge">
<title>Node3&#45;&gt;Node1</title>
<g id="a_edge2_Node000001_Node000003"><a xlink:title=" ">
<path fill="none" stroke="#63b8ff" d="M151.31,-555.43C148.34,-533.42 143.56,-498.09 138.21,-458.53"/>
<polygon fill="none" stroke="#63b8ff" points="138.18,-458.31 133.41,-452.9 136.57,-446.41 141.34,-451.82 138.18,-458.31"/>
</a>
</g>
<text text-anchor="middle" x="203" y="-522" font-family="Helvetica,sans-Serif" font-size="10.00" fill="grey"> ~itemToMusic</text>
<text text-anchor="middle" x="203" y="-511" font-family="Helvetica,sans-Serif" font-size="10.00" fill="grey">~musicByPath</text>
<text text-anchor="middle" x="203" y="-500" font-family="Helvetica,sans-Serif" font-size="10.00" fill="grey">~musicExtensions</text>
<text text-anchor="middle" x="203" y="-489" font-family="Helvetica,sans-Serif" font-size="10.00" fill="grey">~musicToItem</text>
<text text-anchor="middle" x="203" y="-478" font-family="Helvetica,sans-Serif" font-size="10.00" fill="grey">~supportedExtensions</text>
<text text-anchor="middle" x="203" y="-467" font-family="Helvetica,sans-Serif" font-size="10.00" fill="grey">~tileToMusic</text>
</g>
</g>
</svg>
