<?xml version="1.0" encoding="UTF-8" standalone="no"?>
<!DOCTYPE svg PUBLIC "-//W3C//DTD SVG 1.1//EN"
 "http://www.w3.org/Graphics/SVG/1.1/DTD/svg11.dtd">
<!-- Generated by graphviz version 2.43.0 (0)
 -->
<!-- Title: Terraria.ModLoader.Config.UI.UIModConfig.HandleHeader Pages: 1 -->
<svg width="786pt" height="124pt"
 viewBox="0.00 0.00 786.00 124.00" xmlns="http://www.w3.org/2000/svg" xmlns:xlink="http://www.w3.org/1999/xlink">
<g id="graph0" class="graph" transform="scale(1 1) rotate(0) translate(4 120)">
<title>Terraria.ModLoader.Config.UI.UIModConfig.HandleHeader</title>
<!-- Node1 -->
<g id="Node000001" class="node">
<title>Node1</title>
<g id="a_Node000001"><a xlink:title=" ">
<polygon fill="#999999" stroke="#666666" points="778,-73 613,-73 613,-43 778,-43 778,-73"/>
<text text-anchor="start" x="621" y="-61" font-family="Helvetica,sans-Serif" font-size="10.00">Terraria.ModLoader.Config.</text>
<text text-anchor="middle" x="695.5" y="-50" font-family="Helvetica,sans-Serif" font-size="10.00">UI.UIModConfig.HandleHeader</text>
</a>
</g>
</g>
<!-- Node2 -->
<g id="Node000002" class="node">
<title>Node2</title>
<g id="a_Node000002"><a xlink:href="../../d6/d3f/classTerraria_1_1ModLoader_1_1Config_1_1UI_1_1UIModConfig_abb18bb6a99b0630f767beda815975b63.html#abb18bb6a99b0630f767beda815975b63" target="_top" xlink:title=" ">
<polygon fill="white" stroke="#666666" points="577,-116 368,-116 368,-86 577,-86 577,-116"/>
<text text-anchor="start" x="376" y="-104" font-family="Helvetica,sans-Serif" font-size="10.00">Terraria.ModLoader.Config.</text>
<text text-anchor="middle" x="472.5" y="-93" font-family="Helvetica,sans-Serif" font-size="10.00">UI.UIModConfig.MakeSeparateListPanel</text>
</a>
</g>
</g>
<!-- Node1&#45;&gt;Node2 -->
<g id="edge1_Node000001_Node000002" class="edge">
<title>Node1&#45;&gt;Node2</title>
<g id="a_edge1_Node000001_Node000002"><a xlink:title=" ">
<path fill="none" stroke="#63b8ff" d="M607.25,-74.98C588.59,-78.61 569,-82.42 550.75,-85.97"/>
<polygon fill="#63b8ff" stroke="#63b8ff" points="608.06,-78.38 617.2,-73.04 606.72,-71.51 608.06,-78.38"/>
</a>
</g>
</g>
<!-- Node3 -->
<g id="Node000003" class="node">
<title>Node3</title>
<g id="a_Node000003"><a xlink:href="../../d7/d3c/classTerraria_1_1ModLoader_1_1Config_1_1UI_1_1ObjectElement_aae6ace18197cde976c3d75c53a20102f.html#aae6ace18197cde976c3d75c53a20102f" target="_top" xlink:title=" ">
<polygon fill="white" stroke="#666666" points="332,-94 182,-94 182,-64 332,-64 332,-94"/>
<text text-anchor="start" x="190" y="-82" font-family="Helvetica,sans-Serif" font-size="10.00">Terraria.ModLoader.Config.</text>
<text text-anchor="middle" x="257" y="-71" font-family="Helvetica,sans-Serif" font-size="10.00">UI.ObjectElement.SetupList</text>
</a>
</g>
</g>
<!-- Node1&#45;&gt;Node3 -->
<g id="edge5_Node000001_Node000003" class="edge">
<title>Node1&#45;&gt;Node3</title>
<g id="a_edge5_Node000001_Node000003"><a xlink:title=" ">
<path fill="none" stroke="#63b8ff" d="M602.79,-62.41C522.4,-66.28 407.01,-71.83 332.28,-75.43"/>
<polygon fill="#63b8ff" stroke="#63b8ff" points="603.09,-65.9 612.91,-61.93 602.75,-58.91 603.09,-65.9"/>
</a>
</g>
</g>
<!-- Node5 -->
<g id="Node000005" class="node">
<title>Node5</title>
<g id="a_Node000005"><a xlink:href="../../d6/d3f/classTerraria_1_1ModLoader_1_1Config_1_1UI_1_1UIModConfig_a4ec9f6f0f3a1d9c84909686d5b387632.html#a4ec9f6f0f3a1d9c84909686d5b387632" target="_top" xlink:title=" ">
<polygon fill="white" stroke="#666666" points="547,-30 398,-30 398,0 547,0 547,-30"/>
<text text-anchor="start" x="406" y="-18" font-family="Helvetica,sans-Serif" font-size="10.00">Terraria.ModLoader.Config.</text>
<text text-anchor="middle" x="472.5" y="-7" font-family="Helvetica,sans-Serif" font-size="10.00">UI.UIModConfig.OnActivate</text>
</a>
</g>
</g>
<!-- Node1&#45;&gt;Node5 -->
<g id="edge4_Node000001_Node000005" class="edge">
<title>Node1&#45;&gt;Node5</title>
<g id="a_edge4_Node000001_Node000005"><a xlink:title=" ">
<path fill="none" stroke="#63b8ff" d="M607.21,-41.02C587.29,-37.14 566.32,-33.06 547.04,-29.31"/>
<polygon fill="#63b8ff" stroke="#63b8ff" points="606.72,-44.49 617.2,-42.96 608.06,-37.62 606.72,-44.49"/>
</a>
</g>
</g>
<!-- Node2&#45;&gt;Node3 -->
<g id="edge2_Node000002_Node000003" class="edge">
<title>Node2&#45;&gt;Node3</title>
<g id="a_edge2_Node000002_Node000003"><a xlink:title=" ">
<path fill="none" stroke="#63b8ff" d="M357.66,-89.27C348.97,-88.37 340.34,-87.48 332,-86.63"/>
<polygon fill="#63b8ff" stroke="#63b8ff" points="357.57,-92.78 367.88,-90.32 358.29,-85.82 357.57,-92.78"/>
</a>
</g>
</g>
<!-- Node4 -->
<g id="Node000004" class="node">
<title>Node4</title>
<g id="a_Node000004"><a xlink:href="../../d7/d3c/classTerraria_1_1ModLoader_1_1Config_1_1UI_1_1ObjectElement_a27a3807bd4da8142377a273dc0f4fcd1.html#a27a3807bd4da8142377a273dc0f4fcd1" target="_top" xlink:title=" ">
<polygon fill="white" stroke="#666666" points="146,-94 0,-94 0,-64 146,-64 146,-94"/>
<text text-anchor="start" x="8" y="-82" font-family="Helvetica,sans-Serif" font-size="10.00">Terraria.ModLoader.Config.</text>
<text text-anchor="middle" x="73" y="-71" font-family="Helvetica,sans-Serif" font-size="10.00">UI.ObjectElement.OnBind</text>
</a>
</g>
</g>
<!-- Node3&#45;&gt;Node4 -->
<g id="edge3_Node000003_Node000004" class="edge">
<title>Node3&#45;&gt;Node4</title>
<g id="a_edge3_Node000003_Node000004"><a xlink:title=" ">
<path fill="none" stroke="#63b8ff" d="M171.93,-79C163.33,-79 154.65,-79 146.19,-79"/>
<polygon fill="#63b8ff" stroke="#63b8ff" points="171.97,-82.5 181.97,-79 171.97,-75.5 171.97,-82.5"/>
</a>
</g>
</g>
</g>
</svg>
