<?xml version="1.0" encoding="UTF-8" standalone="no"?>
<!DOCTYPE svg PUBLIC "-//W3C//DTD SVG 1.1//EN"
 "http://www.w3.org/Graphics/SVG/1.1/DTD/svg11.dtd">
<!-- Generated by graphviz version 2.43.0 (0)
 -->
<!-- Title: Terraria.ModLoader.Config.DefaultDictionaryKeyValueAttribute Pages: 1 -->
<svg width="193pt" height="502pt"
 viewBox="0.00 0.00 193.00 502.00" xmlns="http://www.w3.org/2000/svg" xmlns:xlink="http://www.w3.org/1999/xlink">
<g id="graph0" class="graph" transform="scale(1 1) rotate(0) translate(4 498)">
<title>Terraria.ModLoader.Config.DefaultDictionaryKeyValueAttribute</title>
<!-- Node1 -->
<g id="Node000001" class="node">
<title>Node1</title>
<g id="a_Node000001"><a xlink:title="Defines the default key value to be added when using the ModConfig UI to add elements to a Dictionary...">
<polygon fill="#999999" stroke="transparent" points="185,-398 0,-398 0,0 185,0 185,-398"/>
<text text-anchor="start" x="5.5" y="-386" font-family="Helvetica,sans-Serif" font-size="10.00">Terraria.ModLoader.Config.</text>
<text text-anchor="start" x="5.5" y="-375" font-family="Helvetica,sans-Serif" font-size="10.00">DefaultDictionaryKeyValueAttribute</text>
<text text-anchor="start" x="5" y="-360" font-family="Helvetica,sans-Serif" font-size="10.00">+</text>
<text text-anchor="start" x="18.5" y="-360" font-family="Helvetica,sans-Serif" font-size="10.00">virtual object Value</text>
<text text-anchor="start" x="5" y="-345" font-family="Helvetica,sans-Serif" font-size="10.00">+</text>
<text text-anchor="start" x="18.5" y="-345" font-family="Helvetica,sans-Serif" font-size="10.00">DefaultDictionaryKeyValue</text>
<text text-anchor="start" x="18.5" y="-334" font-family="Helvetica,sans-Serif" font-size="10.00">Attribute(Type type, string value)</text>
<text text-anchor="start" x="5" y="-319" font-family="Helvetica,sans-Serif" font-size="10.00">+</text>
<text text-anchor="start" x="18.5" y="-319" font-family="Helvetica,sans-Serif" font-size="10.00">DefaultDictionaryKeyValue</text>
<text text-anchor="start" x="18.5" y="-308" font-family="Helvetica,sans-Serif" font-size="10.00">Attribute(char value)</text>
<text text-anchor="start" x="5" y="-293" font-family="Helvetica,sans-Serif" font-size="10.00">+</text>
<text text-anchor="start" x="18.5" y="-293" font-family="Helvetica,sans-Serif" font-size="10.00">DefaultDictionaryKeyValue</text>
<text text-anchor="start" x="18.5" y="-282" font-family="Helvetica,sans-Serif" font-size="10.00">Attribute(byte value)</text>
<text text-anchor="start" x="5" y="-267" font-family="Helvetica,sans-Serif" font-size="10.00">+</text>
<text text-anchor="start" x="18.5" y="-267" font-family="Helvetica,sans-Serif" font-size="10.00">DefaultDictionaryKeyValue</text>
<text text-anchor="start" x="18.5" y="-256" font-family="Helvetica,sans-Serif" font-size="10.00">Attribute(short value)</text>
<text text-anchor="start" x="5" y="-241" font-family="Helvetica,sans-Serif" font-size="10.00">+</text>
<text text-anchor="start" x="18.5" y="-241" font-family="Helvetica,sans-Serif" font-size="10.00">DefaultDictionaryKeyValue</text>
<text text-anchor="start" x="18.5" y="-230" font-family="Helvetica,sans-Serif" font-size="10.00">Attribute(int value)</text>
<text text-anchor="start" x="5" y="-215" font-family="Helvetica,sans-Serif" font-size="10.00">+</text>
<text text-anchor="start" x="18.5" y="-215" font-family="Helvetica,sans-Serif" font-size="10.00">DefaultDictionaryKeyValue</text>
<text text-anchor="start" x="18.5" y="-204" font-family="Helvetica,sans-Serif" font-size="10.00">Attribute(long value)</text>
<text text-anchor="start" x="5" y="-189" font-family="Helvetica,sans-Serif" font-size="10.00">+</text>
<text text-anchor="start" x="18.5" y="-189" font-family="Helvetica,sans-Serif" font-size="10.00">DefaultDictionaryKeyValue</text>
<text text-anchor="start" x="18.5" y="-178" font-family="Helvetica,sans-Serif" font-size="10.00">Attribute(float value)</text>
<text text-anchor="start" x="5" y="-163" font-family="Helvetica,sans-Serif" font-size="10.00">+</text>
<text text-anchor="start" x="18.5" y="-163" font-family="Helvetica,sans-Serif" font-size="10.00">DefaultDictionaryKeyValue</text>
<text text-anchor="start" x="18.5" y="-152" font-family="Helvetica,sans-Serif" font-size="10.00">Attribute(double value)</text>
<text text-anchor="start" x="5" y="-137" font-family="Helvetica,sans-Serif" font-size="10.00">+</text>
<text text-anchor="start" x="18.5" y="-137" font-family="Helvetica,sans-Serif" font-size="10.00">DefaultDictionaryKeyValue</text>
<text text-anchor="start" x="18.5" y="-126" font-family="Helvetica,sans-Serif" font-size="10.00">Attribute(bool value)</text>
<text text-anchor="start" x="5" y="-111" font-family="Helvetica,sans-Serif" font-size="10.00">+</text>
<text text-anchor="start" x="18.5" y="-111" font-family="Helvetica,sans-Serif" font-size="10.00">DefaultDictionaryKeyValue</text>
<text text-anchor="start" x="18.5" y="-100" font-family="Helvetica,sans-Serif" font-size="10.00">Attribute(string value)</text>
<text text-anchor="start" x="5" y="-85" font-family="Helvetica,sans-Serif" font-size="10.00">+</text>
<text text-anchor="start" x="18.5" y="-85" font-family="Helvetica,sans-Serif" font-size="10.00">DefaultDictionaryKeyValue</text>
<text text-anchor="start" x="18.5" y="-74" font-family="Helvetica,sans-Serif" font-size="10.00">Attribute(object value)</text>
<text text-anchor="start" x="5" y="-59" font-family="Helvetica,sans-Serif" font-size="10.00">+</text>
<text text-anchor="start" x="18.5" y="-59" font-family="Helvetica,sans-Serif" font-size="10.00">override bool Equals</text>
<text text-anchor="start" x="18.5" y="-48" font-family="Helvetica,sans-Serif" font-size="10.00">(object obj)</text>
<text text-anchor="start" x="5" y="-33" font-family="Helvetica,sans-Serif" font-size="10.00">+</text>
<text text-anchor="start" x="18.5" y="-33" font-family="Helvetica,sans-Serif" font-size="10.00">override int GetHashCode()</text>
<text text-anchor="start" x="5" y="-18" font-family="Helvetica,sans-Serif" font-size="10.00">#</text>
<text text-anchor="start" x="18.5" y="-18" font-family="Helvetica,sans-Serif" font-size="10.00">void SetValue(object</text>
<text text-anchor="start" x="18.5" y="-7" font-family="Helvetica,sans-Serif" font-size="10.00"> value)</text>
<polygon fill="#666666" stroke="#666666" points="0.5,-370 0.5,-370 185.5,-370 185.5,-370 0.5,-370"/>
<polygon fill="#666666" stroke="#666666" points="0.5,-355 0.5,-355 16.5,-355 16.5,-355 0.5,-355"/>
<polygon fill="#666666" stroke="#666666" points="16.5,-355 16.5,-355 185.5,-355 185.5,-355 16.5,-355"/>
<polygon fill="none" stroke="#666666" points="0,0 0,-398 185,-398 185,0 0,0"/>
</a>
</g>
</g>
<!-- Node2 -->
<g id="Node000002" class="node">
<title>Node2</title>
<g id="a_Node000002"><a xlink:href="../../de/d9d/classAttribute.html" target="_top" xlink:title=" ">
<polygon fill="white" stroke="transparent" points="87,-494 34,-494 34,-445 87,-445 87,-494"/>
<text text-anchor="start" x="39.5" y="-481.5" font-family="Helvetica,sans-Serif" font-size="10.00">Attribute</text>
<text text-anchor="start" x="59" y="-466.5" font-family="Helvetica,sans-Serif" font-size="10.00"> </text>
<text text-anchor="start" x="59" y="-451.5" font-family="Helvetica,sans-Serif" font-size="10.00"> </text>
<polygon fill="#666666" stroke="#666666" points="34.5,-476.5 34.5,-476.5 87.5,-476.5 87.5,-476.5 34.5,-476.5"/>
<polygon fill="#666666" stroke="#666666" points="34.5,-461.5 34.5,-461.5 87.5,-461.5 87.5,-461.5 34.5,-461.5"/>
<polygon fill="none" stroke="#666666" points="34,-445 34,-494 87,-494 87,-445 34,-445"/>
</a>
</g>
</g>
<!-- Node2&#45;&gt;Node1 -->
<g id="edge1_Node000001_Node000002" class="edge">
<title>Node2&#45;&gt;Node1</title>
<g id="a_edge1_Node000001_Node000002"><a xlink:title=" ">
<path fill="none" stroke="#63b8ff" d="M64.55,-434.5C65.8,-424.05 67.27,-411.72 68.87,-398.26"/>
<polygon fill="none" stroke="#63b8ff" points="61.05,-434.33 63.34,-444.67 68,-435.16 61.05,-434.33"/>
</a>
</g>
</g>
<!-- Node3 -->
<g id="Node000003" class="node">
<title>Node3</title>
<g id="a_Node000003"><a xlink:title=" ">
<polygon fill="white" stroke="transparent" points="146,-494 105,-494 105,-445 146,-445 146,-494"/>
<text text-anchor="start" x="110.5" y="-481.5" font-family="Helvetica,sans-Serif" font-size="10.00">object</text>
<text text-anchor="start" x="124" y="-466.5" font-family="Helvetica,sans-Serif" font-size="10.00"> </text>
<text text-anchor="start" x="124" y="-451.5" font-family="Helvetica,sans-Serif" font-size="10.00"> </text>
<polygon fill="#666666" stroke="#666666" points="105.5,-476.5 105.5,-476.5 146.5,-476.5 146.5,-476.5 105.5,-476.5"/>
<polygon fill="#666666" stroke="#666666" points="105.5,-461.5 105.5,-461.5 146.5,-461.5 146.5,-461.5 105.5,-461.5"/>
<polygon fill="none" stroke="#666666" points="105,-445 105,-494 146,-494 146,-445 105,-445"/>
</a>
</g>
</g>
<!-- Node3&#45;&gt;Node1 -->
<g id="edge2_Node000001_Node000003" class="edge">
<title>Node3&#45;&gt;Node1</title>
<g id="a_edge2_Node000001_Node000003"><a xlink:title=" ">
<path fill="none" stroke="#63b8ff" d="M122.57,-444.67C121.41,-435.24 119.97,-423.48 118.34,-410.25"/>
<polygon fill="none" stroke="#63b8ff" points="118.33,-410.17 113.63,-404.71 116.87,-398.26 121.57,-403.73 118.33,-410.17"/>
</a>
</g>
<text text-anchor="middle" x="136.5" y="-419" font-family="Helvetica,sans-Serif" font-size="10.00" fill="grey"> &#45;value</text>
</g>
</g>
</svg>
