<?xml version="1.0" encoding="UTF-8" standalone="no"?>
<!DOCTYPE svg PUBLIC "-//W3C//DTD SVG 1.1//EN"
 "http://www.w3.org/Graphics/SVG/1.1/DTD/svg11.dtd">
<!-- Generated by graphviz version 2.43.0 (0)
 -->
<!-- Title: Terraria.ModLoader.ModNet.Error Pages: 1 -->
<svg width="542pt" height="78pt"
 viewBox="0.00 0.00 542.00 78.00" xmlns="http://www.w3.org/2000/svg" xmlns:xlink="http://www.w3.org/1999/xlink">
<g id="graph0" class="graph" transform="scale(1 1) rotate(0) translate(4 74)">
<title>Terraria.ModLoader.ModNet.Error</title>
<!-- Node1 -->
<g id="Node000001" class="node">
<title>Node1</title>
<g id="a_Node000001"><a xlink:title=" ">
<polygon fill="#999999" stroke="#666666" points="154,-30 0,-30 0,0 154,0 154,-30"/>
<text text-anchor="start" x="8" y="-18" font-family="Helvetica,sans-Serif" font-size="10.00">Terraria.ModLoader.ModNet.</text>
<text text-anchor="middle" x="77" y="-7" font-family="Helvetica,sans-Serif" font-size="10.00">Error</text>
</a>
</g>
</g>
<!-- Node2 -->
<g id="Node000002" class="node">
<title>Node2</title>
<g id="a_Node000002"><a xlink:href="../../df/d47/classTerraria_1_1ModLoader_1_1ModNet_a119880a17f4d3cb4637eb1c0c5f1e0e2.html#a119880a17f4d3cb4637eb1c0c5f1e0e2" target="_top" xlink:title=" ">
<polygon fill="white" stroke="#666666" points="344,-52 190,-52 190,-22 344,-22 344,-52"/>
<text text-anchor="start" x="198" y="-40" font-family="Helvetica,sans-Serif" font-size="10.00">Terraria.ModLoader.ModNet.</text>
<text text-anchor="middle" x="267" y="-29" font-family="Helvetica,sans-Serif" font-size="10.00">Error</text>
</a>
</g>
</g>
<!-- Node1&#45;&gt;Node2 -->
<g id="edge1_Node000001_Node000002" class="edge">
<title>Node1&#45;&gt;Node2</title>
<g id="a_edge1_Node000001_Node000002"><a xlink:title=" ">
<path fill="none" stroke="#63b8ff" d="M154.2,-23.92C162.61,-24.9 171.22,-25.91 179.74,-26.91"/>
<polygon fill="#63b8ff" stroke="#63b8ff" points="179.36,-30.38 189.7,-28.07 180.17,-23.43 179.36,-30.38"/>
</a>
</g>
</g>
<!-- Node3 -->
<g id="Node000003" class="node">
<title>Node3</title>
<g id="a_Node000003"><a xlink:href="../../df/d47/classTerraria_1_1ModLoader_1_1ModNet_ac2c9d5a95be6bd79eeea20bdc9bd0d46.html#ac2c9d5a95be6bd79eeea20bdc9bd0d46" target="_top" xlink:title=" ">
<polygon fill="white" stroke="#666666" points="534,-30 380,-30 380,0 534,0 534,-30"/>
<text text-anchor="start" x="388" y="-18" font-family="Helvetica,sans-Serif" font-size="10.00">Terraria.ModLoader.ModNet.</text>
<text text-anchor="middle" x="457" y="-7" font-family="Helvetica,sans-Serif" font-size="10.00">Identifier</text>
</a>
</g>
</g>
<!-- Node1&#45;&gt;Node3 -->
<g id="edge4_Node000001_Node000003" class="edge">
<title>Node1&#45;&gt;Node3</title>
<g id="a_edge4_Node000001_Node000003"><a xlink:title=" ">
<path fill="none" stroke="#63b8ff" d="M154.21,-13.46C166.19,-13.27 178.43,-13.1 190,-13 258.44,-12.39 275.56,-12.39 344,-13 352.32,-13.07 360.98,-13.18 369.64,-13.3"/>
<polygon fill="#63b8ff" stroke="#63b8ff" points="369.74,-16.81 379.79,-13.46 369.84,-9.81 369.74,-16.81"/>
</a>
</g>
</g>
<!-- Node2&#45;&gt;Node2 -->
<g id="edge2_Node000002_Node000002" class="edge">
<title>Node2&#45;&gt;Node2</title>
<g id="a_edge2_Node000002_Node000002"><a xlink:title=" ">
<path fill="none" stroke="#63b8ff" d="M233.6,-52.28C226.18,-61.41 237.31,-70 267,-70 284.63,-70 295.71,-66.97 300.26,-62.6"/>
<polygon fill="#63b8ff" stroke="#63b8ff" points="303.76,-62.32 300.4,-52.28 296.76,-62.23 303.76,-62.32"/>
</a>
</g>
</g>
<!-- Node2&#45;&gt;Node3 -->
<g id="edge3_Node000002_Node000003" class="edge">
<title>Node2&#45;&gt;Node3</title>
<g id="a_edge3_Node000002_Node000003"><a xlink:title=" ">
<path fill="none" stroke="#63b8ff" d="M344.2,-28.08C352.61,-27.1 361.22,-26.09 369.74,-25.09"/>
<polygon fill="#63b8ff" stroke="#63b8ff" points="370.17,-28.57 379.7,-23.93 369.36,-21.62 370.17,-28.57"/>
</a>
</g>
</g>
</g>
</svg>
