<?xml version="1.0" encoding="UTF-8" standalone="no"?>
<!DOCTYPE svg PUBLIC "-//W3C//DTD SVG 1.1//EN"
 "http://www.w3.org/Graphics/SVG/1.1/DTD/svg11.dtd">
<!-- Generated by graphviz version 2.43.0 (0)
 -->
<!-- Title: Terraria.ModLoader.ModNet.NetReload Pages: 1 -->
<svg width="750pt" height="104pt"
 viewBox="0.00 0.00 750.00 104.00" xmlns="http://www.w3.org/2000/svg" xmlns:xlink="http://www.w3.org/1999/xlink">
<g id="graph0" class="graph" transform="scale(1 1) rotate(0) translate(4 100)">
<title>Terraria.ModLoader.ModNet.NetReload</title>
<!-- Node1 -->
<g id="Node000001" class="node">
<title>Node1</title>
<g id="a_Node000001"><a xlink:title=" ">
<polygon fill="#999999" stroke="#666666" points="742,-63 588,-63 588,-33 742,-33 742,-63"/>
<text text-anchor="start" x="596" y="-51" font-family="Helvetica,sans-Serif" font-size="10.00">Terraria.ModLoader.ModNet.</text>
<text text-anchor="middle" x="665" y="-40" font-family="Helvetica,sans-Serif" font-size="10.00">NetReload</text>
</a>
</g>
</g>
<!-- Node2 -->
<g id="Node000002" class="node">
<title>Node2</title>
<g id="a_Node000002"><a xlink:href="../../df/d47/classTerraria_1_1ModLoader_1_1ModNet_ab34e665297766ff71a00a9812fa88acb.html#ab34e665297766ff71a00a9812fa88acb" target="_top" xlink:title=" ">
<polygon fill="white" stroke="#666666" points="552,-63 398,-63 398,-33 552,-33 552,-63"/>
<text text-anchor="start" x="406" y="-51" font-family="Helvetica,sans-Serif" font-size="10.00">Terraria.ModLoader.ModNet.</text>
<text text-anchor="middle" x="475" y="-40" font-family="Helvetica,sans-Serif" font-size="10.00">OnModsDownloaded</text>
</a>
</g>
</g>
<!-- Node1&#45;&gt;Node2 -->
<g id="edge1_Node000001_Node000002" class="edge">
<title>Node1&#45;&gt;Node2</title>
<g id="a_edge1_Node000001_Node000002"><a xlink:title=" ">
<path fill="none" stroke="#63b8ff" d="M577.58,-41.27C569.14,-41.23 560.63,-41.26 552.3,-41.36"/>
<polygon fill="#63b8ff" stroke="#63b8ff" points="577.77,-44.77 587.8,-41.36 577.84,-37.77 577.77,-44.77"/>
</a>
</g>
</g>
<!-- Node2&#45;&gt;Node1 -->
<g id="edge2_Node000002_Node000001" class="edge">
<title>Node2&#45;&gt;Node1</title>
<g id="a_edge2_Node000002_Node000001"><a xlink:title=" ">
<path fill="none" stroke="#63b8ff" d="M562.53,-54.73C570.97,-54.77 579.48,-54.74 587.8,-54.64"/>
<polygon fill="#63b8ff" stroke="#63b8ff" points="562.33,-51.23 552.3,-54.64 562.27,-58.23 562.33,-51.23"/>
</a>
</g>
</g>
<!-- Node3 -->
<g id="Node000003" class="node">
<title>Node3</title>
<g id="a_Node000003"><a xlink:href="../../df/d47/classTerraria_1_1ModLoader_1_1ModNet_a85d12addece186efdc26a1f443b98416.html#a85d12addece186efdc26a1f443b98416" target="_top" xlink:title=" ">
<polygon fill="white" stroke="#666666" points="362,-96 208,-96 208,-66 362,-66 362,-96"/>
<text text-anchor="start" x="216" y="-84" font-family="Helvetica,sans-Serif" font-size="10.00">Terraria.ModLoader.ModNet.</text>
<text text-anchor="middle" x="285" y="-73" font-family="Helvetica,sans-Serif" font-size="10.00">ReceiveMod</text>
</a>
</g>
</g>
<!-- Node2&#45;&gt;Node3 -->
<g id="edge3_Node000002_Node000003" class="edge">
<title>Node2&#45;&gt;Node3</title>
<g id="a_edge3_Node000002_Node000003"><a xlink:title=" ">
<path fill="none" stroke="#63b8ff" d="M387.85,-63.12C379.33,-64.62 370.72,-66.13 362.3,-67.61"/>
<polygon fill="#63b8ff" stroke="#63b8ff" points="388.56,-66.55 397.8,-61.37 387.35,-59.66 388.56,-66.55"/>
</a>
</g>
</g>
<!-- Node5 -->
<g id="Node000005" class="node">
<title>Node5</title>
<g id="a_Node000005"><a xlink:href="../../df/d47/classTerraria_1_1ModLoader_1_1ModNet_a08ccd3e8ed5dff3f024065bd83b9772f.html#a08ccd3e8ed5dff3f024065bd83b9772f" target="_top" xlink:title=" ">
<polygon fill="white" stroke="#666666" points="362,-30 208,-30 208,0 362,0 362,-30"/>
<text text-anchor="start" x="216" y="-18" font-family="Helvetica,sans-Serif" font-size="10.00">Terraria.ModLoader.ModNet.</text>
<text text-anchor="middle" x="285" y="-7" font-family="Helvetica,sans-Serif" font-size="10.00">SyncClientMods</text>
</a>
</g>
</g>
<!-- Node2&#45;&gt;Node5 -->
<g id="edge5_Node000002_Node000005" class="edge">
<title>Node2&#45;&gt;Node5</title>
<g id="a_edge5_Node000002_Node000005"><a xlink:title=" ">
<path fill="none" stroke="#63b8ff" d="M387.85,-32.88C379.33,-31.38 370.72,-29.87 362.3,-28.39"/>
<polygon fill="#63b8ff" stroke="#63b8ff" points="387.35,-36.34 397.8,-34.63 388.56,-29.45 387.35,-36.34"/>
</a>
</g>
</g>
<!-- Node4 -->
<g id="Node000004" class="node">
<title>Node4</title>
<g id="a_Node000004"><a xlink:href="../../db/d63/classTerraria_1_1MessageBuffer_ab4039006321b0ab8e7d66acbd82370b0.html#ab4039006321b0ab8e7d66acbd82370b0" target="_top" xlink:title=" ">
<polygon fill="white" stroke="#666666" points="172,-57.5 0,-57.5 0,-38.5 172,-38.5 172,-57.5"/>
<text text-anchor="middle" x="86" y="-45.5" font-family="Helvetica,sans-Serif" font-size="10.00">Terraria.MessageBuffer.GetData</text>
</a>
</g>
</g>
<!-- Node3&#45;&gt;Node4 -->
<g id="edge4_Node000003_Node000004" class="edge">
<title>Node3&#45;&gt;Node4</title>
<g id="a_edge4_Node000003_Node000004"><a xlink:title=" ">
<path fill="none" stroke="#63b8ff" d="M197.74,-66.55C179.45,-63.49 160.58,-60.33 143.71,-57.5"/>
<polygon fill="#63b8ff" stroke="#63b8ff" points="197.39,-70.04 207.83,-68.24 198.55,-63.14 197.39,-70.04"/>
</a>
</g>
</g>
<!-- Node5&#45;&gt;Node4 -->
<g id="edge6_Node000005_Node000004" class="edge">
<title>Node5&#45;&gt;Node4</title>
<g id="a_edge6_Node000005_Node000004"><a xlink:title=" ">
<path fill="none" stroke="#63b8ff" d="M197.74,-29.45C179.45,-32.51 160.58,-35.67 143.71,-38.5"/>
<polygon fill="#63b8ff" stroke="#63b8ff" points="198.55,-32.86 207.83,-27.76 197.39,-25.96 198.55,-32.86"/>
</a>
</g>
</g>
<!-- Node5&#45;&gt;Node5 -->
<g id="edge7_Node000005_Node000005" class="edge">
<title>Node5&#45;&gt;Node5</title>
<g id="a_edge7_Node000005_Node000005"><a xlink:title=" ">
<path fill="none" stroke="#63b8ff" d="M318.26,-40.6C313.71,-44.97 302.63,-48 285,-48 255.31,-48 244.18,-39.41 251.6,-30.28"/>
<polygon fill="#63b8ff" stroke="#63b8ff" points="321.76,-40.32 318.4,-30.28 314.76,-40.23 321.76,-40.32"/>
</a>
</g>
</g>
</g>
</svg>
