<?xml version="1.0" encoding="UTF-8" standalone="no"?>
<!DOCTYPE svg PUBLIC "-//W3C//DTD SVG 1.1//EN"
 "http://www.w3.org/Graphics/SVG/1.1/DTD/svg11.dtd">
<!-- Generated by graphviz version 2.43.0 (0)
 -->
<!-- Title: Terraria.Collision.IsClearSpotTest Pages: 1 -->
<svg width="504pt" height="60pt"
 viewBox="0.00 0.00 504.00 60.00" xmlns="http://www.w3.org/2000/svg" xmlns:xlink="http://www.w3.org/1999/xlink">
<g id="graph0" class="graph" transform="scale(1 1) rotate(0) translate(4 56)">
<title>Terraria.Collision.IsClearSpotTest</title>
<!-- Node1 -->
<g id="Node000001" class="node">
<title>Node1</title>
<g id="a_Node000001"><a xlink:title=" ">
<polygon fill="#999999" stroke="#666666" points="135,-30 0,-30 0,0 135,0 135,-30"/>
<text text-anchor="start" x="8" y="-18" font-family="Helvetica,sans-Serif" font-size="10.00">Terraria.Collision.IsClear</text>
<text text-anchor="middle" x="67.5" y="-7" font-family="Helvetica,sans-Serif" font-size="10.00">SpotTest</text>
</a>
</g>
</g>
<!-- Node2 -->
<g id="Node000002" class="node">
<title>Node2</title>
<g id="a_Node000002"><a xlink:href="../../de/d1d/classTerraria_1_1Collision_a725c5d327800d1e48a2adf0fb7b41642.html#a725c5d327800d1e48a2adf0fb7b41642" target="_top" xlink:title=" ">
<polygon fill="white" stroke="#666666" points="299,-52 171,-52 171,-22 299,-22 299,-52"/>
<text text-anchor="start" x="179" y="-40" font-family="Helvetica,sans-Serif" font-size="10.00">Terraria.Collision.Slope</text>
<text text-anchor="middle" x="235" y="-29" font-family="Helvetica,sans-Serif" font-size="10.00">Collision</text>
</a>
</g>
</g>
<!-- Node1&#45;&gt;Node2 -->
<g id="edge1_Node000001_Node000002" class="edge">
<title>Node1&#45;&gt;Node2</title>
<g id="a_edge1_Node000001_Node000002"><a xlink:title=" ">
<path fill="none" stroke="#63b8ff" d="M135.34,-23.88C143.79,-25.01 152.46,-26.16 161,-27.3"/>
<polygon fill="#63b8ff" stroke="#63b8ff" points="160.56,-30.77 170.93,-28.62 161.48,-23.83 160.56,-30.77"/>
</a>
</g>
</g>
<!-- Node3 -->
<g id="Node000003" class="node">
<title>Node3</title>
<g id="a_Node000003"><a xlink:href="../../de/d1d/classTerraria_1_1Collision_a5e225736f6e3c509b9915a06cf908dd8.html#a5e225736f6e3c509b9915a06cf908dd8" target="_top" xlink:title=" ">
<polygon fill="white" stroke="#666666" points="496,-24.5 335,-24.5 335,-5.5 496,-5.5 496,-24.5"/>
<text text-anchor="middle" x="415.5" y="-12.5" font-family="Helvetica,sans-Serif" font-size="10.00">Terraria.Collision.TileCollision</text>
</a>
</g>
</g>
<!-- Node1&#45;&gt;Node3 -->
<g id="edge3_Node000001_Node000003" class="edge">
<title>Node1&#45;&gt;Node3</title>
<g id="a_edge3_Node000001_Node000003"><a xlink:title=" ">
<path fill="none" stroke="#63b8ff" d="M135.21,-13.51C147.13,-13.3 159.43,-13.11 171,-13 227.89,-12.45 242.11,-12.51 299,-13 307.36,-13.07 316.06,-13.17 324.77,-13.29"/>
<polygon fill="#63b8ff" stroke="#63b8ff" points="324.92,-16.8 334.97,-13.44 325.03,-9.8 324.92,-16.8"/>
</a>
</g>
</g>
<!-- Node2&#45;&gt;Node3 -->
<g id="edge2_Node000002_Node000003" class="edge">
<title>Node2&#45;&gt;Node3</title>
<g id="a_edge2_Node000002_Node000003"><a xlink:title=" ">
<path fill="none" stroke="#63b8ff" d="M299.18,-29.21C308.24,-28.1 317.69,-26.93 327.12,-25.77"/>
<polygon fill="#63b8ff" stroke="#63b8ff" points="327.82,-29.21 337.31,-24.51 326.96,-22.26 327.82,-29.21"/>
</a>
</g>
</g>
</g>
</svg>
