<?xml version="1.0" encoding="UTF-8" standalone="no"?>
<!DOCTYPE svg PUBLIC "-//W3C//DTD SVG 1.1//EN"
 "http://www.w3.org/Graphics/SVG/1.1/DTD/svg11.dtd">
<!-- Generated by graphviz version 2.43.0 (0)
 -->
<!-- Title: Terraria.Collision.CheckAABBvAABBCollision Pages: 1 -->
<!--zoomable 234 -->

<svg id="main" version="1.1" xmlns="http://www.w3.org/2000/svg" xmlns:xlink="http://www.w3.org/1999/xlink" xml:space="preserve" onload="init(evt)">
<style type="text/css"><![CDATA[
.node, .edge {opacity: 0.7;}
.node.selected, .edge.selected {opacity: 1;}
.edge:hover path { stroke: red; }
.edge:hover polygon { stroke: red; fill: red; }
]]></style>

<defs>
  <circle id="rim" cx="0" cy="0" r="7"/>
  <circle id="rim2" cx="0" cy="0" r="3.5"/>
  <g id="zoomPlus">
    <use xlink:href="#rim" fill="#404040"><set attributeName="fill" to="#808080" begin="zoomplus.mouseover" end="zoomplus.mouseout"/></use>
    <path d="M-4,0h8M0,-4v8" fill="none" stroke="white" stroke-width="1.5" pointer-events="none"/>
  </g>
  <g id="zoomMin">
    <use xlink:href="#rim" fill="#404040"><set attributeName="fill" to="#808080" begin="zoomminus.mouseover" end="zoomminus.mouseout"/></use>
    <path d="M-4,0h8" fill="none" stroke="white" stroke-width="1.5" pointer-events="none"/>
  </g>
  <g id="arrowUp" transform="translate(30 24)">
    <use xlink:href="#rim"/>
    <path pointer-events="none" fill="none" stroke="white" stroke-width="1.5" d="M0,-3.0v7 M-2.5,-0.5L0,-3.0L2.5,-0.5"/>
  </g>
  <g id="arrowRight" transform="rotate(90) translate(36 -43)">
    <use xlink:href="#rim"/>
    <path pointer-events="none" fill="none" stroke="white" stroke-width="1.5" d="M0,-3.0v7 M-2.5,-0.5L0,-3.0L2.5,-0.5"/>
  </g>
  <g id="arrowDown" transform="rotate(180) translate(-30 -48)">
    <use xlink:href="#rim"/>
    <path pointer-events="none" fill="none" stroke="white" stroke-width="1.5" d="M0,-3.0v7 M-2.5,-0.5L0,-3.0L2.5,-0.5"/>
  </g>
  <g id="arrowLeft" transform="rotate(270) translate(-36 17)">
    <use xlink:href="#rim"/>
    <path pointer-events="none" fill="none" stroke="white" stroke-width="1.5" d="M0,-3.0v7 M-2.5,-0.5L0,-3.0L2.5,-0.5"/>
  </g>
  <g id="resetDef">
    <use xlink:href="#rim2" fill="#404040"><set attributeName="fill" to="#808080" begin="reset.mouseover" end="reset.mouseout"/></use>
  </g>
</defs>
<script type="application/ecmascript">
var viewWidth = 1623;
var viewHeight = 234;
var sectionId = 'dynsection-0';
</script>
<script type="application/ecmascript" xlink:href="../../svg.min.js"/>
<svg id="graph" class="graph">
<g id="viewport">
<title>Terraria.Collision.CheckAABBvAABBCollision</title>
<!-- Node1 -->
<g id="Node000001" class="node">
<title>Node1</title>
<g id="a_Node000001"><a xlink:title=" ">
<polygon fill="#999999" stroke="#666666" points="1615,-118 1484,-118 1484,-88 1615,-88 1615,-118"/>
<text text-anchor="start" x="1492" y="-106" font-family="Helvetica,sans-Serif" font-size="10.00">Terraria.Collision.Check</text>
<text text-anchor="middle" x="1549.5" y="-95" font-family="Helvetica,sans-Serif" font-size="10.00">AABBvAABBCollision</text>
</a>
</g>
</g>
<!-- Node2 -->
<g id="Node000002" class="node">
<title>Node2</title>
<g id="a_Node000002"><a xlink:href="../../de/d1d/classTerraria_1_1Collision_a7937c77f0f6d3e9972ca227a3b80a178.html#a7937c77f0f6d3e9972ca227a3b80a178" target="_top" xlink:title=" ">
<polygon fill="white" stroke="#666666" points="1426,-226 1295,-226 1295,-196 1426,-196 1426,-226"/>
<text text-anchor="start" x="1303" y="-214" font-family="Helvetica,sans-Serif" font-size="10.00">Terraria.Collision.Check</text>
<text text-anchor="middle" x="1360.5" y="-203" font-family="Helvetica,sans-Serif" font-size="10.00">AABBvLineCollision</text>
</a>
</g>
</g>
<!-- Node1&#45;&gt;Node2 -->
<g id="edge1_Node000001_Node000002" class="edge">
<title>Node1&#45;&gt;Node2</title>
<g id="a_edge1_Node000001_Node000002"><a xlink:title=" ">
<path fill="none" stroke="#63b8ff" d="M1527.06,-125.68C1507.97,-144.62 1478.44,-171.02 1448,-187 1441.24,-190.55 1433.9,-193.62 1426.44,-196.26"/>
<polygon fill="#63b8ff" stroke="#63b8ff" points="1529.79,-127.9 1534.33,-118.32 1524.81,-122.98 1529.79,-127.9"/>
</a>
</g>
</g>
<!-- Node3 -->
<g id="Node000003" class="node">
<title>Node3</title>
<g id="a_Node000003"><a xlink:href="../../d9/df7/classTerraria_1_1GameContent_1_1UI_1_1Elements_1_1UIList_1_1UIInnerList_ab5872a83720c537fff20a8ff6469339f.html#ab5872a83720c537fff20a8ff6469339f" target="_top" xlink:title=" ">
<polygon fill="white" stroke="#666666" points="1436.5,-177.5 1284.5,-177.5 1284.5,-136.5 1436.5,-136.5 1436.5,-177.5"/>
<text text-anchor="start" x="1292.5" y="-165.5" font-family="Helvetica,sans-Serif" font-size="10.00">Terraria.GameContent.UI.</text>
<text text-anchor="start" x="1292.5" y="-154.5" font-family="Helvetica,sans-Serif" font-size="10.00">Elements.UIList.UIInnerList.</text>
<text text-anchor="middle" x="1360.5" y="-143.5" font-family="Helvetica,sans-Serif" font-size="10.00">DrawChildren</text>
</a>
</g>
</g>
<!-- Node1&#45;&gt;Node3 -->
<g id="edge2_Node000001_Node000003" class="edge">
<title>Node1&#45;&gt;Node3</title>
<g id="a_edge2_Node000001_Node000003"><a xlink:title=" ">
<path fill="none" stroke="#63b8ff" d="M1486.45,-120.92C1469.17,-125.91 1450.28,-131.36 1432.53,-136.49"/>
<polygon fill="#63b8ff" stroke="#63b8ff" points="1487.77,-124.18 1496.41,-118.04 1485.83,-117.45 1487.77,-124.18"/>
</a>
</g>
</g>
<!-- Node4 -->
<g id="Node000004" class="node">
<title>Node4</title>
<g id="a_Node000004"><a xlink:href="../../df/d9d/classTerraria_1_1ModLoader_1_1UI_1_1Elements_1_1UIGrid_1_1UIInnerList_a8a12418064a939b4b5b9c8a83afca8d4.html#a8a12418064a939b4b5b9c8a83afca8d4" target="_top" xlink:title=" ">
<polygon fill="white" stroke="#666666" points="1448,-118 1273,-118 1273,-88 1448,-88 1448,-118"/>
<text text-anchor="start" x="1281" y="-106" font-family="Helvetica,sans-Serif" font-size="10.00">Terraria.ModLoader.UI.Elements.</text>
<text text-anchor="middle" x="1360.5" y="-95" font-family="Helvetica,sans-Serif" font-size="10.00">UIGrid.UIInnerList.DrawChildren</text>
</a>
</g>
</g>
<!-- Node1&#45;&gt;Node4 -->
<g id="edge3_Node000001_Node000004" class="edge">
<title>Node1&#45;&gt;Node4</title>
<g id="a_edge3_Node000001_Node000004"><a xlink:title=" ">
<path fill="none" stroke="#63b8ff" d="M1473.76,-103C1465.36,-103 1456.75,-103 1448.22,-103"/>
<polygon fill="#63b8ff" stroke="#63b8ff" points="1473.88,-106.5 1483.88,-103 1473.88,-99.5 1473.88,-106.5"/>
</a>
</g>
</g>
<!-- Node5 -->
<g id="Node000005" class="node">
<title>Node5</title>
<g id="a_Node000005"><a xlink:href="../../da/dd5/classTerraria_1_1Main_a3076d8ed6344d2fb06777ef5c7d45bee.html#a3076d8ed6344d2fb06777ef5c7d45bee" target="_top" xlink:title=" ">
<polygon fill="white" stroke="#666666" points="1439.5,-69.5 1281.5,-69.5 1281.5,-50.5 1439.5,-50.5 1439.5,-69.5"/>
<text text-anchor="middle" x="1360.5" y="-57.5" font-family="Helvetica,sans-Serif" font-size="10.00">Terraria.Main.DrawPageIcons</text>
</a>
</g>
</g>
<!-- Node1&#45;&gt;Node5 -->
<g id="edge4_Node000001_Node000005" class="edge">
<title>Node1&#45;&gt;Node5</title>
<g id="a_edge4_Node000001_Node000005"><a xlink:title=" ">
<path fill="none" stroke="#63b8ff" d="M1476.45,-85.63C1466.89,-83.37 1457.21,-81.11 1448,-79 1434.21,-75.84 1419.16,-72.5 1405.54,-69.51"/>
<polygon fill="#63b8ff" stroke="#63b8ff" points="1475.82,-89.07 1486.35,-87.97 1477.43,-82.26 1475.82,-89.07"/>
</a>
</g>
</g>
<!-- Node13 -->
<g id="Node000013" class="node">
<title>Node13</title>
<g id="a_Node000013"><a xlink:href="../../d7/d76/classTerraria_1_1GameContent_1_1Shaders_1_1WaterShaderData_a123acfca6e219e02c73b09612e7cafcb.html#a123acfca6e219e02c73b09612e7cafcb" target="_top" xlink:title=" ">
<polygon fill="white" stroke="#666666" points="1445,-32 1276,-32 1276,-2 1445,-2 1445,-32"/>
<text text-anchor="start" x="1284" y="-20" font-family="Helvetica,sans-Serif" font-size="10.00">Terraria.GameContent.Shaders.</text>
<text text-anchor="middle" x="1360.5" y="-9" font-family="Helvetica,sans-Serif" font-size="10.00">WaterShaderData.DrawWaves</text>
</a>
</g>
</g>
<!-- Node1&#45;&gt;Node13 -->
<g id="edge12_Node000001_Node000013" class="edge">
<title>Node1&#45;&gt;Node13</title>
<g id="a_edge12_Node000001_Node000013"><a xlink:title=" ">
<path fill="none" stroke="#63b8ff" d="M1519.49,-82.05C1500.04,-68.78 1473.42,-52.1 1448,-41 1440.43,-37.69 1432.29,-34.73 1424.13,-32.1"/>
<polygon fill="#63b8ff" stroke="#63b8ff" points="1517.68,-85.05 1527.89,-87.87 1521.67,-79.3 1517.68,-85.05"/>
</a>
</g>
</g>
<!-- Node6 -->
<g id="Node000006" class="node">
<title>Node6</title>
<g id="a_Node000006"><a xlink:href="../../da/dd5/classTerraria_1_1Main_a3d98f18e1b3a22533d5282611b6d8dfe.html#a3d98f18e1b3a22533d5282611b6d8dfe" target="_top" xlink:title=" ">
<polygon fill="white" stroke="#666666" points="1230,-70.5 1075,-70.5 1075,-51.5 1230,-51.5 1230,-70.5"/>
<text text-anchor="middle" x="1152.5" y="-58.5" font-family="Helvetica,sans-Serif" font-size="10.00">Terraria.Main.DrawInventory</text>
</a>
</g>
</g>
<!-- Node5&#45;&gt;Node6 -->
<g id="edge5_Node000005_Node000006" class="edge">
<title>Node5&#45;&gt;Node6</title>
<g id="a_edge5_Node000005_Node000006"><a xlink:title=" ">
<path fill="none" stroke="#63b8ff" d="M1271.03,-60.43C1257.46,-60.5 1243.55,-60.56 1230.26,-60.63"/>
<polygon fill="#63b8ff" stroke="#63b8ff" points="1271.34,-63.93 1281.33,-60.38 1271.31,-56.93 1271.34,-63.93"/>
</a>
</g>
</g>
<!-- Node7 -->
<g id="Node000007" class="node">
<title>Node7</title>
<g id="a_Node000007"><a xlink:href="../../da/dd5/classTerraria_1_1Main_a6ec2a6dd6eea7cf9082122035842a01b.html#a6ec2a6dd6eea7cf9082122035842a01b" target="_top" xlink:title=" ">
<polygon fill="white" stroke="#666666" points="1023.5,-78 871.5,-78 871.5,-48 1023.5,-48 1023.5,-78"/>
<text text-anchor="start" x="879.5" y="-66" font-family="Helvetica,sans-Serif" font-size="10.00">Terraria.Main.DrawInterface</text>
<text text-anchor="middle" x="947.5" y="-55" font-family="Helvetica,sans-Serif" font-size="10.00">_27_Inventory</text>
</a>
</g>
</g>
<!-- Node6&#45;&gt;Node7 -->
<g id="edge6_Node000006_Node000007" class="edge">
<title>Node6&#45;&gt;Node7</title>
<g id="a_edge6_Node000006_Node000007"><a xlink:title=" ">
<path fill="none" stroke="#63b8ff" d="M1064.46,-61.86C1050.88,-61.99 1036.95,-62.13 1023.67,-62.26"/>
<polygon fill="#63b8ff" stroke="#63b8ff" points="1064.79,-65.35 1074.75,-61.76 1064.72,-58.35 1064.79,-65.35"/>
</a>
</g>
</g>
<!-- Node8 -->
<g id="Node000008" class="node">
<title>Node8</title>
<g id="a_Node000008"><a xlink:href="../../da/dd5/classTerraria_1_1Main_a635639e6a6d3795bbfbcf0e24fc3aac5.html#a635639e6a6d3795bbfbcf0e24fc3aac5" target="_top" xlink:title=" ">
<polygon fill="white" stroke="#666666" points="821.5,-78 641.5,-78 641.5,-48 821.5,-48 821.5,-78"/>
<text text-anchor="start" x="649.5" y="-66" font-family="Helvetica,sans-Serif" font-size="10.00">Terraria.Main.SetupDrawInterface</text>
<text text-anchor="middle" x="731.5" y="-55" font-family="Helvetica,sans-Serif" font-size="10.00">Layers</text>
</a>
</g>
</g>
<!-- Node7&#45;&gt;Node8 -->
<g id="edge7_Node000007_Node000008" class="edge">
<title>Node7&#45;&gt;Node8</title>
<g id="a_edge7_Node000007_Node000008"><a xlink:title=" ">
<path fill="none" stroke="#63b8ff" d="M861.09,-63C848.16,-63 834.79,-63 821.78,-63"/>
<polygon fill="#63b8ff" stroke="#63b8ff" points="861.35,-66.5 871.35,-63 861.35,-59.5 861.35,-66.5"/>
</a>
</g>
</g>
<!-- Node9 -->
<g id="Node000009" class="node">
<title>Node9</title>
<g id="a_Node000009"><a xlink:href="../../da/dd5/classTerraria_1_1Main_a36d139a1fd2647d53f25a241f3d5d5f4.html#a36d139a1fd2647d53f25a241f3d5d5f4" target="_top" xlink:title=" ">
<polygon fill="white" stroke="#666666" points="600,-72.5 448,-72.5 448,-53.5 600,-53.5 600,-72.5"/>
<text text-anchor="middle" x="524" y="-60.5" font-family="Helvetica,sans-Serif" font-size="10.00">Terraria.Main.DrawInterface</text>
</a>
</g>
</g>
<!-- Node8&#45;&gt;Node9 -->
<g id="edge8_Node000008_Node000009" class="edge">
<title>Node8&#45;&gt;Node9</title>
<g id="a_edge8_Node000008_Node000009"><a xlink:title=" ">
<path fill="none" stroke="#63b8ff" d="M631.22,-63C620.72,-63 610.17,-63 600.02,-63"/>
<polygon fill="#63b8ff" stroke="#63b8ff" points="631.26,-66.5 641.26,-63 631.26,-59.5 631.26,-66.5"/>
</a>
</g>
</g>
<!-- Node10 -->
<g id="Node000010" class="node">
<title>Node10</title>
<g id="a_Node000010"><a xlink:href="../../da/dd5/classTerraria_1_1Main_a474beeecaea4d6dd108fba56cd554d46.html#a474beeecaea4d6dd108fba56cd554d46" target="_top" xlink:title=" ">
<polygon fill="white" stroke="#666666" points="412,-72.5 290,-72.5 290,-53.5 412,-53.5 412,-72.5"/>
<text text-anchor="middle" x="351" y="-60.5" font-family="Helvetica,sans-Serif" font-size="10.00">Terraria.Main.DoDraw</text>
</a>
</g>
</g>
<!-- Node9&#45;&gt;Node10 -->
<g id="edge9_Node000009_Node000010" class="edge">
<title>Node9&#45;&gt;Node10</title>
<g id="a_edge9_Node000009_Node000010"><a xlink:title=" ">
<path fill="none" stroke="#63b8ff" d="M437.81,-63C429.1,-63 420.4,-63 412.05,-63"/>
<polygon fill="#63b8ff" stroke="#63b8ff" points="438,-66.5 448,-63 438,-59.5 438,-66.5"/>
</a>
</g>
</g>
<!-- Node11 -->
<g id="Node000011" class="node">
<title>Node11</title>
<g id="a_Node000011"><a xlink:href="../../da/dd5/classTerraria_1_1Main_aa597dbafa085227bb056d05d0b0f9abe.html#aa597dbafa085227bb056d05d0b0f9abe" target="_top" xlink:title=" ">
<polygon fill="white" stroke="#666666" points="254,-78 145,-78 145,-48 254,-48 254,-78"/>
<text text-anchor="start" x="153" y="-66" font-family="Helvetica,sans-Serif" font-size="10.00">Terraria.Main.Draw</text>
<text text-anchor="middle" x="199.5" y="-55" font-family="Helvetica,sans-Serif" font-size="10.00">_Inner</text>
</a>
</g>
</g>
<!-- Node10&#45;&gt;Node11 -->
<g id="edge10_Node000010_Node000011" class="edge">
<title>Node10&#45;&gt;Node11</title>
<g id="a_edge10_Node000010_Node000011"><a xlink:title=" ">
<path fill="none" stroke="#63b8ff" d="M279.41,-63C270.99,-63 262.49,-63 254.35,-63"/>
<polygon fill="#63b8ff" stroke="#63b8ff" points="279.62,-66.5 289.62,-63 279.62,-59.5 279.62,-66.5"/>
</a>
</g>
</g>
<!-- Node12 -->
<g id="Node000012" class="node">
<title>Node12</title>
<g id="a_Node000012"><a xlink:href="../../da/dd5/classTerraria_1_1Main_a516aa31311860bad4242ade32e5effcd.html#a516aa31311860bad4242ade32e5effcd" target="_top" xlink:title=" ">
<polygon fill="white" stroke="#666666" points="109,-72.5 0,-72.5 0,-53.5 109,-53.5 109,-72.5"/>
<text text-anchor="middle" x="54.5" y="-60.5" font-family="Helvetica,sans-Serif" font-size="10.00">Terraria.Main.Draw</text>
</a>
</g>
</g>
<!-- Node11&#45;&gt;Node12 -->
<g id="edge11_Node000011_Node000012" class="edge">
<title>Node11&#45;&gt;Node12</title>
<g id="a_edge11_Node000011_Node000012"><a xlink:title=" ">
<path fill="none" stroke="#63b8ff" d="M134.68,-63C126.25,-63 117.69,-63 109.46,-63"/>
<polygon fill="#63b8ff" stroke="#63b8ff" points="134.85,-66.5 144.85,-63 134.85,-59.5 134.85,-66.5"/>
</a>
</g>
</g>
<!-- Node14 -->
<g id="Node000014" class="node">
<title>Node14</title>
<g id="a_Node000014"><a xlink:href="../../d7/d76/classTerraria_1_1GameContent_1_1Shaders_1_1WaterShaderData_ac04a81ac68678a36971da7dd4c75424d.html#ac04a81ac68678a36971da7dd4c75424d" target="_top" xlink:title=" ">
<polygon fill="white" stroke="#666666" points="1237,-32 1068,-32 1068,-2 1237,-2 1237,-32"/>
<text text-anchor="start" x="1076" y="-20" font-family="Helvetica,sans-Serif" font-size="10.00">Terraria.GameContent.Shaders.</text>
<text text-anchor="middle" x="1152.5" y="-9" font-family="Helvetica,sans-Serif" font-size="10.00">WaterShaderData.StepLiquids</text>
</a>
</g>
</g>
<!-- Node13&#45;&gt;Node14 -->
<g id="edge13_Node000013_Node000014" class="edge">
<title>Node13&#45;&gt;Node14</title>
<g id="a_edge13_Node000013_Node000014"><a xlink:title=" ">
<path fill="none" stroke="#63b8ff" d="M1265.52,-17C1256.08,-17 1246.54,-17 1237.21,-17"/>
<polygon fill="#63b8ff" stroke="#63b8ff" points="1265.71,-20.5 1275.71,-17 1265.71,-13.5 1265.71,-20.5"/>
</a>
</g>
</g>
<!-- Node15 -->
<g id="Node000015" class="node">
<title>Node15</title>
<g id="a_Node000015"><a xlink:href="../../d7/d76/classTerraria_1_1GameContent_1_1Shaders_1_1WaterShaderData_a53246590cbb1fc6a84cd53b526398689.html#a53246590cbb1fc6a84cd53b526398689" target="_top" xlink:title=" ">
<polygon fill="white" stroke="#666666" points="1032,-30 863,-30 863,0 1032,0 1032,-30"/>
<text text-anchor="start" x="871" y="-18" font-family="Helvetica,sans-Serif" font-size="10.00">Terraria.GameContent.Shaders.</text>
<text text-anchor="middle" x="947.5" y="-7" font-family="Helvetica,sans-Serif" font-size="10.00">WaterShaderData.PreDraw</text>
</a>
</g>
</g>
<!-- Node14&#45;&gt;Node15 -->
<g id="edge14_Node000014_Node000015" class="edge">
<title>Node14&#45;&gt;Node15</title>
<g id="a_edge14_Node000014_Node000015"><a xlink:title=" ">
<path fill="none" stroke="#63b8ff" d="M1057.74,-16.08C1049.17,-15.99 1040.52,-15.91 1032.05,-15.82"/>
<polygon fill="#63b8ff" stroke="#63b8ff" points="1057.73,-19.58 1067.76,-16.17 1057.8,-12.58 1057.73,-19.58"/>
</a>
</g>
</g>
<!-- Node16 -->
<g id="Node000016" class="node">
<title>Node16</title>
<g id="a_Node000016"><a xlink:href="../../d7/d76/classTerraria_1_1GameContent_1_1Shaders_1_1WaterShaderData_adee091ea8f42b01f7287cd6c9000dc4c.html#adee091ea8f42b01f7287cd6c9000dc4c" target="_top" xlink:title=" ">
<polygon fill="white" stroke="#666666" points="827,-30 636,-30 636,0 827,0 827,-30"/>
<text text-anchor="start" x="644" y="-18" font-family="Helvetica,sans-Serif" font-size="10.00">Terraria.GameContent.Shaders.</text>
<text text-anchor="middle" x="731.5" y="-7" font-family="Helvetica,sans-Serif" font-size="10.00">WaterShaderData.WaterShaderData</text>
</a>
</g>
</g>
<!-- Node15&#45;&gt;Node16 -->
<g id="edge15_Node000015_Node000016" class="edge">
<title>Node15&#45;&gt;Node16</title>
<g id="a_edge15_Node000015_Node000016"><a xlink:title=" ">
<path fill="none" stroke="#63b8ff" d="M852.59,-15C844.13,-15 835.56,-15 827.1,-15"/>
<polygon fill="#63b8ff" stroke="#63b8ff" points="852.84,-18.5 862.84,-15 852.84,-11.5 852.84,-18.5"/>
</a>
</g>
</g>
</g>
</svg>

<g id="navigator" transform="translate(0 0)" fill="#404254">
  <rect fill="#f2f5e9" fill-opacity="0.5" stroke="#606060" stroke-width=".5" x="0" y="0" width="60" height="60"/>
  <use id="zoomplus" xlink:href="#zoomPlus" x="17" y="9" onmousedown="handleZoom(evt,'in')"/>
  <use id="zoomminus" xlink:href="#zoomMin" x="42" y="9" onmousedown="handleZoom(evt,'out')"/>
  <use id="reset" xlink:href="#resetDef" x="30" y="36" onmousedown="handleReset()"/>
   <use id="arrowup" xlink:href="#arrowUp" x="0" y="0" onmousedown="handlePan(0,-1)"/>
  <use id="arrowright" xlink:href="#arrowRight" x="0" y="0" onmousedown="handlePan(1,0)"/>
  <use id="arrowdown" xlink:href="#arrowDown" x="0" y="0" onmousedown="handlePan(0,1)"/>
  <use id="arrowleft" xlink:href="#arrowLeft" x="0" y="0" onmousedown="handlePan(-1,0)"/>
</g>
<svg viewBox="0 0 15 15" width="100%" height="30px" preserveAspectRatio="xMaxYMin meet">
 <g id="arrow_out" transform="scale(0.3 0.3)">
  <a xlink:href="classTerraria_1_1Collision_afae514da9741510c6d3dd55f045cb3b2_afae514da9741510c6d3dd55f045cb3b2_icgraph_org.svg" target="_base">
   <rect id="button" ry="5" rx="5" y="6" x="6" height="38" width="38"
        fill="#f2f5e9" fill-opacity="0.5" stroke="#606060" stroke-width="1.0"/>
   <path id="arrow"
     d="M 11.500037,31.436501 C 11.940474,20.09759 22.043105,11.32322 32.158766,21.979434 L 37.068811,17.246167 C 37.068811,17.246167 37.088388,32 37.088388,32 L 22.160133,31.978069 C 22.160133,31.978069 26.997745,27.140456 26.997745,27.140456 C 18.528582,18.264221 13.291696,25.230495 11.500037,31.436501 z"
     style="fill:#404040;"/>
  </a>
 </g>
</svg>

<style type='text/css'>
<![CDATA[
[data-mouse-over-selected='false'] { opacity: 0.7; }
[data-mouse-over-selected='true']  { opacity: 1.0; }
]]>
</style>
<script type="application/ecmascript"><![CDATA[
document.addEventListener('DOMContentLoaded', (event) => {
  highlightEdges();
  highlightAdjacentNodes();
});
]]></script>
</svg>
