<?xml version="1.0" encoding="UTF-8" standalone="no"?>
<!DOCTYPE svg PUBLIC "-//W3C//DTD SVG 1.1//EN"
 "http://www.w3.org/Graphics/SVG/1.1/DTD/svg11.dtd">
<!-- Generated by graphviz version 2.43.0 (0)
 -->
<!-- Title: Terraria.Collision.SwitchTiles Pages: 1 -->
<svg width="994pt" height="210pt"
 viewBox="0.00 0.00 994.00 210.00" xmlns="http://www.w3.org/2000/svg" xmlns:xlink="http://www.w3.org/1999/xlink">
<g id="graph0" class="graph" transform="scale(1 1) rotate(0) translate(4 206)">
<title>Terraria.Collision.SwitchTiles</title>
<!-- Node1 -->
<g id="Node000001" class="node">
<title>Node1</title>
<g id="a_Node000001"><a xlink:title=" ">
<polygon fill="#999999" stroke="#666666" points="986,-111 852,-111 852,-81 986,-81 986,-111"/>
<text text-anchor="start" x="860" y="-99" font-family="Helvetica,sans-Serif" font-size="10.00">Terraria.Collision.Switch</text>
<text text-anchor="middle" x="919" y="-88" font-family="Helvetica,sans-Serif" font-size="10.00">Tiles</text>
</a>
</g>
</g>
<!-- Node2 -->
<g id="Node000002" class="node">
<title>Node2</title>
<g id="a_Node000002"><a xlink:href="../../da/dd3/classTerraria_1_1Projectile_aef30201c717b32857a6fa885b68f3d12.html#aef30201c717b32857a6fa885b68f3d12" target="_top" xlink:title=" ">
<polygon fill="white" stroke="#666666" points="803.5,-202 688.5,-202 688.5,-172 803.5,-172 803.5,-202"/>
<text text-anchor="start" x="696.5" y="-190" font-family="Helvetica,sans-Serif" font-size="10.00">Terraria.Projectile.AI</text>
<text text-anchor="middle" x="746" y="-179" font-family="Helvetica,sans-Serif" font-size="10.00">_149_GolfBall</text>
</a>
</g>
</g>
<!-- Node1&#45;&gt;Node2 -->
<g id="edge1_Node000001_Node000002" class="edge">
<title>Node1&#45;&gt;Node2</title>
<g id="a_edge1_Node000001_Node000002"><a xlink:title=" ">
<path fill="none" stroke="#63b8ff" d="M889.9,-117.19C870.02,-131.48 842.32,-150.03 816,-163 809.4,-166.25 802.25,-169.26 795.14,-171.97"/>
<polygon fill="#63b8ff" stroke="#63b8ff" points="892.16,-119.87 898.18,-111.15 888.04,-114.21 892.16,-119.87"/>
</a>
</g>
</g>
<!-- Node3 -->
<g id="Node000003" class="node">
<title>Node3</title>
<g id="a_Node000003"><a xlink:href="../../da/dd3/classTerraria_1_1Projectile_a1d4ec4eed2d29a40af426a27444be1f3.html#a1d4ec4eed2d29a40af426a27444be1f3" target="_top" xlink:title=" ">
<polygon fill="white" stroke="#666666" points="816,-154 676,-154 676,-124 816,-124 816,-154"/>
<text text-anchor="start" x="684" y="-142" font-family="Helvetica,sans-Serif" font-size="10.00">Terraria.Projectile.Handle</text>
<text text-anchor="middle" x="746" y="-131" font-family="Helvetica,sans-Serif" font-size="10.00">Movement</text>
</a>
</g>
</g>
<!-- Node1&#45;&gt;Node3 -->
<g id="edge2_Node000001_Node000003" class="edge">
<title>Node1&#45;&gt;Node3</title>
<g id="a_edge2_Node000001_Node000003"><a xlink:title=" ">
<path fill="none" stroke="#63b8ff" d="M848.29,-113.53C834.52,-116.99 820.18,-120.6 806.77,-123.97"/>
<polygon fill="#63b8ff" stroke="#63b8ff" points="849.35,-116.87 858.19,-111.04 847.64,-110.08 849.35,-116.87"/>
</a>
</g>
</g>
<!-- Node4 -->
<g id="Node000004" class="node">
<title>Node4</title>
<g id="a_Node000004"><a xlink:href="../../da/dd3/classTerraria_1_1Projectile_a4decd5f61fc00b54a872757322a269c9.html#a4decd5f61fc00b54a872757322a269c9" target="_top" xlink:title=" ">
<polygon fill="white" stroke="#666666" points="640,-110.5 500,-110.5 500,-91.5 640,-91.5 640,-110.5"/>
<text text-anchor="middle" x="570" y="-98.5" font-family="Helvetica,sans-Serif" font-size="10.00">Terraria.Projectile.Update</text>
</a>
</g>
</g>
<!-- Node1&#45;&gt;Node4 -->
<g id="edge10_Node000001_Node000004" class="edge">
<title>Node1&#45;&gt;Node4</title>
<g id="a_edge10_Node000001_Node000004"><a xlink:title=" ">
<path fill="none" stroke="#63b8ff" d="M841.71,-97.1C781.54,-97.97 698.34,-99.17 640.11,-100"/>
<polygon fill="#63b8ff" stroke="#63b8ff" points="841.97,-100.6 851.92,-96.95 841.87,-93.6 841.97,-100.6"/>
</a>
</g>
</g>
<!-- Node9 -->
<g id="Node000009" class="node">
<title>Node9</title>
<g id="a_Node000009"><a xlink:href="../../d4/d03/classTerraria_1_1Player_af44290f5d38b6d5076a5fa8d6ee3dd12.html#af44290f5d38b6d5076a5fa8d6ee3dd12" target="_top" xlink:title=" ">
<polygon fill="white" stroke="#666666" points="632.5,-67.5 507.5,-67.5 507.5,-48.5 632.5,-48.5 632.5,-67.5"/>
<text text-anchor="middle" x="570" y="-55.5" font-family="Helvetica,sans-Serif" font-size="10.00">Terraria.Player.Update</text>
</a>
</g>
</g>
<!-- Node1&#45;&gt;Node9 -->
<g id="edge8_Node000001_Node000009" class="edge">
<title>Node1&#45;&gt;Node9</title>
<g id="a_edge8_Node000001_Node000009"><a xlink:title=" ">
<path fill="none" stroke="#63b8ff" d="M841.68,-87.64C778.93,-80.77 691.15,-71.16 632.76,-64.76"/>
<polygon fill="#63b8ff" stroke="#63b8ff" points="841.59,-91.15 851.92,-88.76 842.36,-84.2 841.59,-91.15"/>
</a>
</g>
</g>
<!-- Node10 -->
<g id="Node000010" class="node">
<title>Node10</title>
<g id="a_Node000010"><a xlink:href="../../df/d0d/classTerraria_1_1NPC_a1d4a5ab9b93c1d9ff158a3004f4049fc.html#a1d4a5ab9b93c1d9ff158a3004f4049fc" target="_top" xlink:title=" ">
<polygon fill="white" stroke="#666666" points="813.5,-30 678.5,-30 678.5,0 813.5,0 813.5,-30"/>
<text text-anchor="start" x="686.5" y="-18" font-family="Helvetica,sans-Serif" font-size="10.00">Terraria.NPC.UpdateNPC</text>
<text text-anchor="middle" x="746" y="-7" font-family="Helvetica,sans-Serif" font-size="10.00">_Inner</text>
</a>
</g>
</g>
<!-- Node1&#45;&gt;Node10 -->
<g id="edge11_Node000001_Node000010" class="edge">
<title>Node1&#45;&gt;Node10</title>
<g id="a_edge11_Node000001_Node000010"><a xlink:title=" ">
<path fill="none" stroke="#63b8ff" d="M880.69,-76.15C861.52,-66.16 837.69,-54.07 816,-44 805.75,-39.24 794.49,-34.37 784.1,-30"/>
<polygon fill="#63b8ff" stroke="#63b8ff" points="879.22,-79.33 889.7,-80.86 882.46,-73.12 879.22,-79.33"/>
</a>
</g>
</g>
<!-- Node3&#45;&gt;Node4 -->
<g id="edge3_Node000003_Node000004" class="edge">
<title>Node3&#45;&gt;Node4</title>
<g id="a_edge3_Node000003_Node000004"><a xlink:title=" ">
<path fill="none" stroke="#63b8ff" d="M666.39,-121.83C648.56,-117.94 630.25,-113.94 614.5,-110.5"/>
<polygon fill="#63b8ff" stroke="#63b8ff" points="665.71,-125.27 676.23,-123.98 667.21,-118.43 665.71,-125.27"/>
</a>
</g>
</g>
<!-- Node5 -->
<g id="Node000005" class="node">
<title>Node5</title>
<g id="a_Node000005"><a xlink:href="../../da/dd5/classTerraria_1_1Main_a39cdec3f201787a467045358bfcba377.html#a39cdec3f201787a467045358bfcba377" target="_top" xlink:title=" ">
<polygon fill="white" stroke="#666666" points="464,-73 323,-73 323,-43 464,-43 464,-73"/>
<text text-anchor="start" x="331" y="-61" font-family="Helvetica,sans-Serif" font-size="10.00">Terraria.Main.DoUpdateIn</text>
<text text-anchor="middle" x="393.5" y="-50" font-family="Helvetica,sans-Serif" font-size="10.00">World</text>
</a>
</g>
</g>
<!-- Node4&#45;&gt;Node5 -->
<g id="edge4_Node000004_Node000005" class="edge">
<title>Node4&#45;&gt;Node5</title>
<g id="a_edge4_Node000004_Node000005"><a xlink:title=" ">
<path fill="none" stroke="#63b8ff" d="M520.39,-89.02C500.25,-84.06 476.67,-78.25 455.4,-73.01"/>
<polygon fill="#63b8ff" stroke="#63b8ff" points="519.73,-92.46 530.27,-91.46 521.4,-85.67 519.73,-92.46"/>
</a>
</g>
</g>
<!-- Node8 -->
<g id="Node000008" class="node">
<title>Node8</title>
<g id="a_Node000008"><a xlink:href="../../da/dd5/classTerraria_1_1Main_abcc10939f535aab0d2eda1c69b42ea47.html#abcc10939f535aab0d2eda1c69b42ea47" target="_top" xlink:title=" ">
<polygon fill="white" stroke="#666666" points="464,-121 323,-121 323,-91 464,-91 464,-121"/>
<text text-anchor="start" x="331" y="-109" font-family="Helvetica,sans-Serif" font-size="10.00">Terraria.Main.DrawWallOf</text>
<text text-anchor="middle" x="393.5" y="-98" font-family="Helvetica,sans-Serif" font-size="10.00">Stars</text>
</a>
</g>
</g>
<!-- Node4&#45;&gt;Node8 -->
<g id="edge7_Node000004_Node000008" class="edge">
<title>Node4&#45;&gt;Node8</title>
<g id="a_edge7_Node000004_Node000008"><a xlink:title=" ">
<path fill="none" stroke="#63b8ff" d="M489.54,-103.28C481.09,-103.52 472.53,-103.76 464.21,-104"/>
<polygon fill="#63b8ff" stroke="#63b8ff" points="489.89,-106.77 499.78,-102.98 489.69,-99.77 489.89,-106.77"/>
</a>
</g>
</g>
<!-- Node6 -->
<g id="Node000006" class="node">
<title>Node6</title>
<g id="a_Node000006"><a xlink:href="../../da/dd5/classTerraria_1_1Main_a96341b8439a15bcefc0f119767e24e35.html#a96341b8439a15bcefc0f119767e24e35" target="_top" xlink:title=" ">
<polygon fill="white" stroke="#666666" points="287,-67.5 155,-67.5 155,-48.5 287,-48.5 287,-67.5"/>
<text text-anchor="middle" x="221" y="-55.5" font-family="Helvetica,sans-Serif" font-size="10.00">Terraria.Main.DoUpdate</text>
</a>
</g>
</g>
<!-- Node5&#45;&gt;Node6 -->
<g id="edge5_Node000005_Node000006" class="edge">
<title>Node5&#45;&gt;Node6</title>
<g id="a_edge5_Node000005_Node000006"><a xlink:title=" ">
<path fill="none" stroke="#63b8ff" d="M312.65,-58C304.08,-58 295.44,-58 287.07,-58"/>
<polygon fill="#63b8ff" stroke="#63b8ff" points="312.66,-61.5 322.66,-58 312.66,-54.5 312.66,-61.5"/>
</a>
</g>
</g>
<!-- Node7 -->
<g id="Node000007" class="node">
<title>Node7</title>
<g id="a_Node000007"><a xlink:href="../../da/dd5/classTerraria_1_1Main_a49776516aea1626e33c722fc8896a7de.html#a49776516aea1626e33c722fc8896a7de" target="_top" xlink:title=" ">
<polygon fill="white" stroke="#666666" points="119,-67.5 0,-67.5 0,-48.5 119,-48.5 119,-67.5"/>
<text text-anchor="middle" x="59.5" y="-55.5" font-family="Helvetica,sans-Serif" font-size="10.00">Terraria.Main.Update</text>
</a>
</g>
</g>
<!-- Node6&#45;&gt;Node7 -->
<g id="edge6_Node000006_Node000007" class="edge">
<title>Node6&#45;&gt;Node7</title>
<g id="a_edge6_Node000006_Node000007"><a xlink:title=" ">
<path fill="none" stroke="#63b8ff" d="M144.64,-58C136.06,-58 127.4,-58 119.08,-58"/>
<polygon fill="#63b8ff" stroke="#63b8ff" points="144.67,-61.5 154.67,-58 144.66,-54.5 144.67,-61.5"/>
</a>
</g>
</g>
<!-- Node9&#45;&gt;Node5 -->
<g id="edge9_Node000009_Node000005" class="edge">
<title>Node9&#45;&gt;Node5</title>
<g id="a_edge9_Node000009_Node000005"><a xlink:title=" ">
<path fill="none" stroke="#63b8ff" d="M497.47,-58C486.45,-58 475.08,-58 464.1,-58"/>
<polygon fill="#63b8ff" stroke="#63b8ff" points="497.48,-61.5 507.48,-58 497.48,-54.5 497.48,-61.5"/>
</a>
</g>
</g>
</g>
</svg>
