<?xml version="1.0" encoding="UTF-8" standalone="no"?>
<!DOCTYPE svg PUBLIC "-//W3C//DTD SVG 1.1//EN"
 "http://www.w3.org/Graphics/SVG/1.1/DTD/svg11.dtd">
<!-- Generated by graphviz version 2.43.0 (0)
 -->
<!-- Title: RgbDevice Pages: 1 -->
<svg width="171pt" height="242pt"
 viewBox="0.00 0.00 171.00 242.00" xmlns="http://www.w3.org/2000/svg" xmlns:xlink="http://www.w3.org/1999/xlink">
<g id="graph0" class="graph" transform="scale(1 1) rotate(0) translate(4 238)">
<title>RgbDevice</title>
<!-- Node1 -->
<g id="Node000001" class="node">
<title>Node1</title>
<g id="a_Node000001"><a xlink:title=" ">
<polygon fill="#999999" stroke="transparent" points="113,-234 50,-234 50,-185 113,-185 113,-234"/>
<text text-anchor="start" x="55.5" y="-221.5" font-family="Helvetica,sans-Serif" font-size="10.00">RgbDevice</text>
<text text-anchor="start" x="80" y="-206.5" font-family="Helvetica,sans-Serif" font-size="10.00"> </text>
<text text-anchor="start" x="80" y="-191.5" font-family="Helvetica,sans-Serif" font-size="10.00"> </text>
<polygon fill="#666666" stroke="#666666" points="50.5,-216.5 50.5,-216.5 113.5,-216.5 113.5,-216.5 50.5,-216.5"/>
<polygon fill="#666666" stroke="#666666" points="50.5,-201.5 50.5,-201.5 113.5,-201.5 113.5,-201.5 50.5,-201.5"/>
<polygon fill="none" stroke="#666666" points="50,-185 50,-234 113,-234 113,-185 50,-185"/>
</a>
</g>
</g>
<!-- Node2 -->
<g id="Node000002" class="node">
<title>Node2</title>
<g id="a_Node000002"><a xlink:href="../../d6/d01/classTerraria_1_1GameContent_1_1RGB_1_1DebugKeyboard.html" target="_top" xlink:title=" ">
<polygon fill="white" stroke="transparent" points="163,-149 0,-149 0,0 163,0 163,-149"/>
<text text-anchor="start" x="14.5" y="-136.5" font-family="Helvetica,sans-Serif" font-size="10.00">Terraria.GameContent.RGB.</text>
<text text-anchor="start" x="43" y="-125.5" font-family="Helvetica,sans-Serif" font-size="10.00">DebugKeyboard</text>
<text text-anchor="start" x="80" y="-110.5" font-family="Helvetica,sans-Serif" font-size="10.00"> </text>
<text text-anchor="start" x="4.5" y="-95.5" font-family="Helvetica,sans-Serif" font-size="10.00">+</text>
<text text-anchor="start" x="17.5" y="-95.5" font-family="Helvetica,sans-Serif" font-size="10.00">override void Present()</text>
<text text-anchor="start" x="4.5" y="-80.5" font-family="Helvetica,sans-Serif" font-size="10.00">+</text>
<text text-anchor="start" x="17.5" y="-80.5" font-family="Helvetica,sans-Serif" font-size="10.00">override void DebugDraw</text>
<text text-anchor="start" x="17.5" y="-69.5" font-family="Helvetica,sans-Serif" font-size="10.00">(IDebugDrawer drawer,</text>
<text text-anchor="start" x="17.5" y="-58.5" font-family="Helvetica,sans-Serif" font-size="10.00"> Vector2 position, float scale)</text>
<text text-anchor="start" x="4.5" y="-43.5" font-family="Helvetica,sans-Serif" font-size="10.00">+</text>
<text text-anchor="start" x="17.5" y="-43.5" font-family="Helvetica,sans-Serif" font-size="10.00">static DebugKeyboard</text>
<text text-anchor="start" x="17.5" y="-32.5" font-family="Helvetica,sans-Serif" font-size="10.00"> Create()</text>
<text text-anchor="start" x="7" y="-17.5" font-family="Helvetica,sans-Serif" font-size="10.00">&#45;</text>
<text text-anchor="start" x="17.5" y="-17.5" font-family="Helvetica,sans-Serif" font-size="10.00">DebugKeyboard(Fragment</text>
<text text-anchor="start" x="17.5" y="-6.5" font-family="Helvetica,sans-Serif" font-size="10.00"> fragment)</text>
<polygon fill="#666666" stroke="#666666" points="0.5,-120.5 0.5,-120.5 163.5,-120.5 163.5,-120.5 0.5,-120.5"/>
<polygon fill="#666666" stroke="#666666" points="0.5,-105.5 0.5,-105.5 163.5,-105.5 163.5,-105.5 0.5,-105.5"/>
<polygon fill="none" stroke="#666666" points="0,0 0,-149 163,-149 163,0 0,0"/>
</a>
</g>
</g>
<!-- Node1&#45;&gt;Node2 -->
<g id="edge1_Node000001_Node000002" class="edge">
<title>Node1&#45;&gt;Node2</title>
<g id="a_edge1_Node000001_Node000002"><a xlink:title=" ">
<path fill="none" stroke="#63b8ff" d="M81.5,-174.58C81.5,-166.73 81.5,-158.08 81.5,-149.26"/>
<polygon fill="none" stroke="#63b8ff" points="78,-174.72 81.5,-184.72 85,-174.72 78,-174.72"/>
</a>
</g>
</g>
</g>
</svg>
