<?xml version="1.0" encoding="UTF-8" standalone="no"?>
<!DOCTYPE svg PUBLIC "-//W3C//DTD SVG 1.1//EN"
 "http://www.w3.org/Graphics/SVG/1.1/DTD/svg11.dtd">
<!-- Generated by graphviz version 2.43.0 (0)
 -->
<!-- Title: Terraria.Mount.DoConfettiMinecartEffect Pages: 1 -->
<svg width="952pt" height="129pt"
 viewBox="0.00 0.00 952.00 129.00" xmlns="http://www.w3.org/2000/svg" xmlns:xlink="http://www.w3.org/1999/xlink">
<g id="graph0" class="graph" transform="scale(1 1) rotate(0) translate(4 125)">
<title>Terraria.Mount.DoConfettiMinecartEffect</title>
<!-- Node1 -->
<g id="Node000001" class="node">
<title>Node1</title>
<g id="a_Node000001"><a xlink:title=" ">
<polygon fill="#999999" stroke="#666666" points="143,-91.5 0,-91.5 0,-61.5 143,-61.5 143,-91.5"/>
<text text-anchor="start" x="8" y="-79.5" font-family="Helvetica,sans-Serif" font-size="10.00">Terraria.Mount.DoConfetti</text>
<text text-anchor="middle" x="71.5" y="-68.5" font-family="Helvetica,sans-Serif" font-size="10.00">MinecartEffect</text>
</a>
</g>
</g>
<!-- Node2 -->
<g id="Node000002" class="node">
<title>Node2</title>
<g id="a_Node000002"><a xlink:href="../../dc/df9/classTerraria_1_1Graphics_1_1Shaders_1_1ArmorShaderDataSet_a657ae03b00b34d0e37a85701550417c8.html#a657ae03b00b34d0e37a85701550417c8" target="_top" xlink:title=" ">
<polygon fill="white" stroke="#666666" points="370,-121 179,-121 179,-80 370,-80 370,-121"/>
<text text-anchor="start" x="187" y="-109" font-family="Helvetica,sans-Serif" font-size="10.00">Terraria.Graphics.Shaders.</text>
<text text-anchor="start" x="187" y="-98" font-family="Helvetica,sans-Serif" font-size="10.00">ArmorShaderDataSet.GetSecondary</text>
<text text-anchor="middle" x="274.5" y="-87" font-family="Helvetica,sans-Serif" font-size="10.00">Shader</text>
</a>
</g>
</g>
<!-- Node1&#45;&gt;Node2 -->
<g id="edge1_Node000001_Node000002" class="edge">
<title>Node1&#45;&gt;Node2</title>
<g id="a_edge1_Node000001_Node000002"><a xlink:title=" ">
<path fill="none" stroke="#63b8ff" d="M143.08,-84.93C151.38,-85.92 159.97,-86.94 168.6,-87.97"/>
<polygon fill="#63b8ff" stroke="#63b8ff" points="168.4,-91.48 178.74,-89.19 169.23,-84.52 168.4,-91.48"/>
</a>
</g>
</g>
<!-- Node3 -->
<g id="Node000003" class="node">
<title>Node3</title>
<g id="a_Node000003"><a xlink:href="../../dc/de5/classTerraria_1_1Dust_ac85a67b8ea46324cf328fbf3b3e227a2.html#ac85a67b8ea46324cf328fbf3b3e227a2" target="_top" xlink:title="Attempts to spawn a single Dust into the game world. Position &#160;indicates the spawn position and Veloc...">
<polygon fill="white" stroke="#666666" points="355,-62 194,-62 194,-43 355,-43 355,-62"/>
<text text-anchor="middle" x="274.5" y="-50" font-family="Helvetica,sans-Serif" font-size="10.00">Terraria.Dust.NewDustPerfect</text>
</a>
</g>
</g>
<!-- Node1&#45;&gt;Node3 -->
<g id="edge2_Node000001_Node000003" class="edge">
<title>Node1&#45;&gt;Node3</title>
<g id="a_edge2_Node000001_Node000003"><a xlink:title=" ">
<path fill="none" stroke="#63b8ff" d="M143.08,-68.07C156.15,-66.51 169.97,-64.86 183.52,-63.24"/>
<polygon fill="#63b8ff" stroke="#63b8ff" points="184.31,-66.68 193.82,-62.01 183.48,-59.72 184.31,-66.68"/>
</a>
</g>
</g>
<!-- Node4 -->
<g id="Node000004" class="node">
<title>Node4</title>
<g id="a_Node000004"><a xlink:href="../../dc/de5/classTerraria_1_1Dust_a977a36a9376966862406a3094e3b70ab.html#a977a36a9376966862406a3094e3b70ab" target="_top" xlink:title="Attempts to spawn a single Dust into the game world. The Position, Width, and Height parameters dicta...">
<polygon fill="white" stroke="#666666" points="532,-62 406,-62 406,-43 532,-43 532,-62"/>
<text text-anchor="middle" x="469" y="-50" font-family="Helvetica,sans-Serif" font-size="10.00">Terraria.Dust.NewDust</text>
</a>
</g>
</g>
<!-- Node3&#45;&gt;Node4 -->
<g id="edge3_Node000003_Node000004" class="edge">
<title>Node3&#45;&gt;Node4</title>
<g id="a_edge3_Node000003_Node000004"><a xlink:title=" ">
<path fill="none" stroke="#63b8ff" d="M355.19,-52.5C368.49,-52.5 382.23,-52.5 395.34,-52.5"/>
<polygon fill="#63b8ff" stroke="#63b8ff" points="395.71,-56 405.71,-52.5 395.71,-49 395.71,-56"/>
</a>
</g>
</g>
<!-- Node5 -->
<g id="Node000005" class="node">
<title>Node5</title>
<g id="a_Node000005"><a xlink:href="../../d9/db1/classTerraria_1_1Utilities_1_1UnifiedRandom_ac4ecc6320b69ab939b9c45eaf7d89000.html#ac4ecc6320b69ab939b9c45eaf7d89000" target="_top" xlink:title=" ">
<polygon fill="white" stroke="#666666" points="719,-115.5 587,-115.5 587,-85.5 719,-85.5 719,-115.5"/>
<text text-anchor="start" x="595" y="-103.5" font-family="Helvetica,sans-Serif" font-size="10.00">Terraria.Utilities.Unified</text>
<text text-anchor="middle" x="653" y="-92.5" font-family="Helvetica,sans-Serif" font-size="10.00">Random.Next</text>
</a>
</g>
</g>
<!-- Node4&#45;&gt;Node5 -->
<g id="edge4_Node000004_Node000005" class="edge">
<title>Node4&#45;&gt;Node5</title>
<g id="a_edge4_Node000004_Node000005"><a xlink:title=" ">
<path fill="none" stroke="#63b8ff" d="M506.39,-62.1C528.84,-68.02 558.31,-75.79 584.87,-82.8"/>
<polygon fill="#63b8ff" stroke="#63b8ff" points="584.32,-86.27 594.89,-85.44 586.11,-79.5 584.32,-86.27"/>
</a>
</g>
</g>
<!-- Node7 -->
<g id="Node000007" class="node">
<title>Node7</title>
<g id="a_Node000007"><a xlink:href="../../df/dd6/classTerraria_1_1ModLoader_1_1DustLoader_a8374be843b9b2b0143bc000e8663d3ec.html#a8374be843b9b2b0143bc000e8663d3ec" target="_top" xlink:title=" ">
<polygon fill="white" stroke="#666666" points="738,-67.5 568,-67.5 568,-37.5 738,-37.5 738,-67.5"/>
<text text-anchor="start" x="576" y="-55.5" font-family="Helvetica,sans-Serif" font-size="10.00">Terraria.ModLoader.DustLoader.</text>
<text text-anchor="middle" x="653" y="-44.5" font-family="Helvetica,sans-Serif" font-size="10.00">SetupDust</text>
</a>
</g>
</g>
<!-- Node4&#45;&gt;Node7 -->
<g id="edge6_Node000004_Node000007" class="edge">
<title>Node4&#45;&gt;Node7</title>
<g id="a_edge6_Node000004_Node000007"><a xlink:title=" ">
<path fill="none" stroke="#63b8ff" d="M532.13,-52.5C540.41,-52.5 549.06,-52.5 557.75,-52.5"/>
<polygon fill="#63b8ff" stroke="#63b8ff" points="557.94,-56 567.94,-52.5 557.94,-49 557.94,-56"/>
</a>
</g>
</g>
<!-- Node9 -->
<g id="Node000009" class="node">
<title>Node9</title>
<g id="a_Node000009"><a xlink:href="../../de/d1d/classTerraria_1_1Collision_a1c65206ace403aa59afc32d20e5d282e.html#a1c65206ace403aa59afc32d20e5d282e" target="_top" xlink:title=" ">
<polygon fill="white" stroke="#666666" points="734,-19 572,-19 572,0 734,0 734,-19"/>
<text text-anchor="middle" x="653" y="-7" font-family="Helvetica,sans-Serif" font-size="10.00">Terraria.Collision.WetCollision</text>
</a>
</g>
</g>
<!-- Node4&#45;&gt;Node9 -->
<g id="edge8_Node000004_Node000009" class="edge">
<title>Node4&#45;&gt;Node9</title>
<g id="a_edge8_Node000004_Node000009"><a xlink:title=" ">
<path fill="none" stroke="#63b8ff" d="M508.13,-43C526.25,-38.52 548.22,-33.16 568,-28.5 578.15,-26.11 589,-23.61 599.41,-21.24"/>
<polygon fill="#63b8ff" stroke="#63b8ff" points="600.25,-24.64 609.23,-19.02 598.71,-17.82 600.25,-24.64"/>
</a>
</g>
</g>
<!-- Node6 -->
<g id="Node000006" class="node">
<title>Node6</title>
<g id="a_Node000006"><a xlink:href="../../d9/db1/classTerraria_1_1Utilities_1_1UnifiedRandom_a173f09196ff526b107c0223c2d58c59a.html#a173f09196ff526b107c0223c2d58c59a" target="_top" xlink:title=" ">
<polygon fill="white" stroke="#666666" points="926,-115.5 792,-115.5 792,-85.5 926,-85.5 926,-115.5"/>
<text text-anchor="start" x="800" y="-103.5" font-family="Helvetica,sans-Serif" font-size="10.00">Terraria.Utilities.Unified</text>
<text text-anchor="middle" x="859" y="-92.5" font-family="Helvetica,sans-Serif" font-size="10.00">Random.InternalSample</text>
</a>
</g>
</g>
<!-- Node5&#45;&gt;Node6 -->
<g id="edge5_Node000005_Node000006" class="edge">
<title>Node5&#45;&gt;Node6</title>
<g id="a_edge5_Node000005_Node000006"><a xlink:title=" ">
<path fill="none" stroke="#63b8ff" d="M719.11,-100.5C738.96,-100.5 760.96,-100.5 781.5,-100.5"/>
<polygon fill="#63b8ff" stroke="#63b8ff" points="781.76,-104 791.76,-100.5 781.76,-97 781.76,-104"/>
</a>
</g>
</g>
<!-- Node8 -->
<g id="Node000008" class="node">
<title>Node8</title>
<g id="a_Node000008"><a xlink:href="../../df/dd6/classTerraria_1_1ModLoader_1_1DustLoader_a0cb616c3c6776d3bba899e7f1fb0e221.html#a0cb616c3c6776d3bba899e7f1fb0e221" target="_top" xlink:title="Gets the ModDust instance with the given type. Returns null if no ModDust with the given type exists.">
<polygon fill="white" stroke="#666666" points="944,-67.5 774,-67.5 774,-37.5 944,-37.5 944,-67.5"/>
<text text-anchor="start" x="782" y="-55.5" font-family="Helvetica,sans-Serif" font-size="10.00">Terraria.ModLoader.DustLoader.</text>
<text text-anchor="middle" x="859" y="-44.5" font-family="Helvetica,sans-Serif" font-size="10.00">GetDust</text>
</a>
</g>
</g>
<!-- Node7&#45;&gt;Node8 -->
<g id="edge7_Node000007_Node000008" class="edge">
<title>Node7&#45;&gt;Node8</title>
<g id="a_edge7_Node000007_Node000008"><a xlink:title=" ">
<path fill="none" stroke="#63b8ff" d="M738.15,-52.5C746.5,-52.5 755.02,-52.5 763.46,-52.5"/>
<polygon fill="#63b8ff" stroke="#63b8ff" points="763.71,-56 773.71,-52.5 763.71,-49 763.71,-56"/>
</a>
</g>
</g>
</g>
</svg>
