<?xml version="1.0" encoding="UTF-8" standalone="no"?>
<!DOCTYPE svg PUBLIC "-//W3C//DTD SVG 1.1//EN"
 "http://www.w3.org/Graphics/SVG/1.1/DTD/svg11.dtd">
<!-- Generated by graphviz version 2.43.0 (0)
 -->
<!-- Title: Terraria.Mount.GetProjectileSpawnSource Pages: 1 -->
<svg width="1231pt" height="129pt"
 viewBox="0.00 0.00 1231.00 129.00" xmlns="http://www.w3.org/2000/svg" xmlns:xlink="http://www.w3.org/1999/xlink">
<g id="graph0" class="graph" transform="scale(1 1) rotate(0) translate(4 125)">
<title>Terraria.Mount.GetProjectileSpawnSource</title>
<!-- Node1 -->
<g id="Node000001" class="node">
<title>Node1</title>
<g id="a_Node000001"><a xlink:title=" ">
<polygon fill="#999999" stroke="#666666" points="1223,-73 1070,-73 1070,-43 1223,-43 1223,-73"/>
<text text-anchor="start" x="1078" y="-61" font-family="Helvetica,sans-Serif" font-size="10.00">Terraria.Mount.GetProjectile</text>
<text text-anchor="middle" x="1146.5" y="-50" font-family="Helvetica,sans-Serif" font-size="10.00">SpawnSource</text>
</a>
</g>
</g>
<!-- Node2 -->
<g id="Node000002" class="node">
<title>Node2</title>
<g id="a_Node000002"><a xlink:href="../../d2/d0d/classTerraria_1_1Mount_a21d92651dd42e6f40bd5a35f4dcc420b.html#a21d92651dd42e6f40bd5a35f4dcc420b" target="_top" xlink:title=" ">
<polygon fill="white" stroke="#666666" points="1031.5,-121 891.5,-121 891.5,-91 1031.5,-91 1031.5,-121"/>
<text text-anchor="start" x="899.5" y="-109" font-family="Helvetica,sans-Serif" font-size="10.00">Terraria.Mount.CastSuper</text>
<text text-anchor="middle" x="961.5" y="-98" font-family="Helvetica,sans-Serif" font-size="10.00">CartLaser</text>
</a>
</g>
</g>
<!-- Node1&#45;&gt;Node2 -->
<g id="edge1_Node000001_Node000002" class="edge">
<title>Node1&#45;&gt;Node2</title>
<g id="a_edge1_Node000001_Node000002"><a xlink:title=" ">
<path fill="none" stroke="#63b8ff" d="M1078.21,-75.65C1059,-80.69 1038.25,-86.13 1019.7,-91"/>
<polygon fill="#63b8ff" stroke="#63b8ff" points="1079.31,-78.98 1088.1,-73.06 1077.54,-72.21 1079.31,-78.98"/>
</a>
</g>
</g>
<!-- Node5 -->
<g id="Node000005" class="node">
<title>Node5</title>
<g id="a_Node000005"><a xlink:href="../../d2/d0d/classTerraria_1_1Mount_adf11f63fbb06a6284d3cd6c0215da381.html#adf11f63fbb06a6284d3cd6c0215da381" target="_top" xlink:title=" ">
<polygon fill="white" stroke="#666666" points="1034,-73 889,-73 889,-43 1034,-43 1034,-73"/>
<text text-anchor="start" x="897" y="-61" font-family="Helvetica,sans-Serif" font-size="10.00">Terraria.Mount.StartAbility</text>
<text text-anchor="middle" x="961.5" y="-50" font-family="Helvetica,sans-Serif" font-size="10.00">Charge</text>
</a>
</g>
</g>
<!-- Node1&#45;&gt;Node5 -->
<g id="edge4_Node000001_Node000005" class="edge">
<title>Node1&#45;&gt;Node5</title>
<g id="a_edge4_Node000001_Node000005"><a xlink:title=" ">
<path fill="none" stroke="#63b8ff" d="M1059.72,-58C1051.14,-58 1042.5,-58 1034.08,-58"/>
<polygon fill="#63b8ff" stroke="#63b8ff" points="1059.75,-61.5 1069.75,-58 1059.75,-54.5 1059.75,-61.5"/>
</a>
</g>
</g>
<!-- Node6 -->
<g id="Node000006" class="node">
<title>Node6</title>
<g id="a_Node000006"><a xlink:href="../../d2/d0d/classTerraria_1_1Mount_a344fb82dbeb428c3be9ba6a213edf92a.html#a344fb82dbeb428c3be9ba6a213edf92a" target="_top" xlink:title=" ">
<polygon fill="white" stroke="#666666" points="1031.5,-24.5 891.5,-24.5 891.5,-5.5 1031.5,-5.5 1031.5,-24.5"/>
<text text-anchor="middle" x="961.5" y="-12.5" font-family="Helvetica,sans-Serif" font-size="10.00">Terraria.Mount.UseAbility</text>
</a>
</g>
</g>
<!-- Node1&#45;&gt;Node6 -->
<g id="edge5_Node000001_Node000006" class="edge">
<title>Node1&#45;&gt;Node6</title>
<g id="a_edge5_Node000001_Node000006"><a xlink:title=" ">
<path fill="none" stroke="#63b8ff" d="M1071.58,-40.63C1048.18,-35.13 1023.18,-29.26 1003.02,-24.52"/>
<polygon fill="#63b8ff" stroke="#63b8ff" points="1070.96,-44.08 1081.5,-42.96 1072.56,-37.27 1070.96,-44.08"/>
</a>
</g>
</g>
<!-- Node3 -->
<g id="Node000003" class="node">
<title>Node3</title>
<g id="a_Node000003"><a xlink:href="../../d2/d0d/classTerraria_1_1Mount_a7f59eb11637d352f16b0193a73de741c.html#a7f59eb11637d352f16b0193a73de741c" target="_top" xlink:title=" ">
<polygon fill="white" stroke="#666666" points="853,-67.5 695,-67.5 695,-48.5 853,-48.5 853,-67.5"/>
<text text-anchor="middle" x="774" y="-55.5" font-family="Helvetica,sans-Serif" font-size="10.00">Terraria.Mount.UpdateEffects</text>
</a>
</g>
</g>
<!-- Node2&#45;&gt;Node3 -->
<g id="edge2_Node000002_Node000003" class="edge">
<title>Node2&#45;&gt;Node3</title>
<g id="a_edge2_Node000002_Node000003"><a xlink:title=" ">
<path fill="none" stroke="#63b8ff" d="M892.45,-88.39C865.23,-81.35 834.96,-73.51 811.96,-67.56"/>
<polygon fill="#63b8ff" stroke="#63b8ff" points="891.76,-91.83 902.32,-90.94 893.51,-85.05 891.76,-91.83"/>
</a>
</g>
</g>
<!-- Node4 -->
<g id="Node000004" class="node">
<title>Node4</title>
<g id="a_Node000004"><a xlink:href="../../d4/d03/classTerraria_1_1Player_af44290f5d38b6d5076a5fa8d6ee3dd12.html#af44290f5d38b6d5076a5fa8d6ee3dd12" target="_top" xlink:title=" ">
<polygon fill="white" stroke="#666666" points="125,-45.5 0,-45.5 0,-26.5 125,-26.5 125,-45.5"/>
<text text-anchor="middle" x="62.5" y="-33.5" font-family="Helvetica,sans-Serif" font-size="10.00">Terraria.Player.Update</text>
</a>
</g>
</g>
<!-- Node3&#45;&gt;Node4 -->
<g id="edge3_Node000003_Node000004" class="edge">
<title>Node3&#45;&gt;Node4</title>
<g id="a_edge3_Node000003_Node000004"><a xlink:title=" ">
<path fill="none" stroke="#63b8ff" d="M684.44,-55.25C538.45,-50.73 250.94,-41.81 125.02,-37.91"/>
<polygon fill="#63b8ff" stroke="#63b8ff" points="684.6,-58.76 694.7,-55.57 684.81,-51.76 684.6,-58.76"/>
</a>
</g>
</g>
<!-- Node6&#45;&gt;Node3 -->
<g id="edge11_Node000006_Node000003" class="edge">
<title>Node6&#45;&gt;Node3</title>
<g id="a_edge11_Node000006_Node000003"><a xlink:title=" ">
<path fill="none" stroke="#63b8ff" d="M909.26,-26.88C879.89,-33.69 843.53,-42.12 816.05,-48.48"/>
<polygon fill="#63b8ff" stroke="#63b8ff" points="910.38,-30.21 919.33,-24.54 908.8,-23.39 910.38,-30.21"/>
</a>
</g>
</g>
<!-- Node7 -->
<g id="Node000007" class="node">
<title>Node7</title>
<g id="a_Node000007"><a xlink:href="../../d4/d03/classTerraria_1_1Player_a216f0f8dba9c7ea7347dd35b5b85d0fc.html#a216f0f8dba9c7ea7347dd35b5b85d0fc" target="_top" xlink:title=" ">
<polygon fill="white" stroke="#666666" points="845,-30 703,-30 703,0 845,0 845,-30"/>
<text text-anchor="start" x="711" y="-18" font-family="Helvetica,sans-Serif" font-size="10.00">Terraria.Player.ItemCheck</text>
<text text-anchor="middle" x="774" y="-7" font-family="Helvetica,sans-Serif" font-size="10.00">_HandleMount</text>
</a>
</g>
</g>
<!-- Node6&#45;&gt;Node7 -->
<g id="edge6_Node000006_Node000007" class="edge">
<title>Node6&#45;&gt;Node7</title>
<g id="a_edge6_Node000006_Node000007"><a xlink:title=" ">
<path fill="none" stroke="#63b8ff" d="M881.38,-15C869.31,-15 856.92,-15 845.06,-15"/>
<polygon fill="#63b8ff" stroke="#63b8ff" points="881.43,-18.5 891.43,-15 881.43,-11.5 881.43,-18.5"/>
</a>
</g>
</g>
<!-- Node8 -->
<g id="Node000008" class="node">
<title>Node8</title>
<g id="a_Node000008"><a xlink:href="../../d4/d03/classTerraria_1_1Player_a3eacd4d33ca74609db3633d339c047f8.html#a3eacd4d33ca74609db3633d339c047f8" target="_top" xlink:title=" ">
<polygon fill="white" stroke="#666666" points="659,-30 517,-30 517,0 659,0 659,-30"/>
<text text-anchor="start" x="525" y="-18" font-family="Helvetica,sans-Serif" font-size="10.00">Terraria.Player.ItemCheck</text>
<text text-anchor="middle" x="588" y="-7" font-family="Helvetica,sans-Serif" font-size="10.00">_Inner</text>
</a>
</g>
</g>
<!-- Node7&#45;&gt;Node8 -->
<g id="edge7_Node000007_Node000008" class="edge">
<title>Node7&#45;&gt;Node8</title>
<g id="a_edge7_Node000007_Node000008"><a xlink:title=" ">
<path fill="none" stroke="#63b8ff" d="M692.74,-15C681.57,-15 670.16,-15 659.2,-15"/>
<polygon fill="#63b8ff" stroke="#63b8ff" points="692.91,-18.5 702.91,-15 692.91,-11.5 692.91,-18.5"/>
</a>
</g>
</g>
<!-- Node9 -->
<g id="Node000009" class="node">
<title>Node9</title>
<g id="a_Node000009"><a xlink:href="../../d4/d03/classTerraria_1_1Player_a2ec9343f552a36a4a82b36dbae10c965.html#a2ec9343f552a36a4a82b36dbae10c965" target="_top" xlink:title=" ">
<polygon fill="white" stroke="#666666" points="481,-24.5 339,-24.5 339,-5.5 481,-5.5 481,-24.5"/>
<text text-anchor="middle" x="410" y="-12.5" font-family="Helvetica,sans-Serif" font-size="10.00">Terraria.Player.ItemCheck</text>
</a>
</g>
</g>
<!-- Node8&#45;&gt;Node9 -->
<g id="edge8_Node000008_Node000009" class="edge">
<title>Node8&#45;&gt;Node9</title>
<g id="a_edge8_Node000008_Node000009"><a xlink:title=" ">
<path fill="none" stroke="#63b8ff" d="M506.9,-15C498.29,-15 489.59,-15 481.11,-15"/>
<polygon fill="#63b8ff" stroke="#63b8ff" points="506.93,-18.5 516.93,-15 506.93,-11.5 506.93,-18.5"/>
</a>
</g>
</g>
<!-- Node10 -->
<g id="Node000010" class="node">
<title>Node10</title>
<g id="a_Node000010"><a xlink:href="../../d4/d03/classTerraria_1_1Player_a687261287a0d6ac3be2592f9a734f199.html#a687261287a0d6ac3be2592f9a734f199" target="_top" xlink:title=" ">
<polygon fill="white" stroke="#666666" points="303,-30 161,-30 161,0 303,0 303,-30"/>
<text text-anchor="start" x="169" y="-18" font-family="Helvetica,sans-Serif" font-size="10.00">Terraria.Player.ItemCheck</text>
<text text-anchor="middle" x="232" y="-7" font-family="Helvetica,sans-Serif" font-size="10.00">Wrapped</text>
</a>
</g>
</g>
<!-- Node9&#45;&gt;Node10 -->
<g id="edge9_Node000009_Node000010" class="edge">
<title>Node9&#45;&gt;Node10</title>
<g id="a_edge9_Node000009_Node000010"><a xlink:title=" ">
<path fill="none" stroke="#63b8ff" d="M328.9,-15C320.29,-15 311.59,-15 303.11,-15"/>
<polygon fill="#63b8ff" stroke="#63b8ff" points="328.93,-18.5 338.93,-15 328.93,-11.5 328.93,-18.5"/>
</a>
</g>
</g>
<!-- Node10&#45;&gt;Node4 -->
<g id="edge10_Node000010_Node000004" class="edge">
<title>Node10&#45;&gt;Node4</title>
<g id="a_edge10_Node000010_Node000004"><a xlink:title=" ">
<path fill="none" stroke="#63b8ff" d="M150.81,-25.05C142.14,-26.14 133.42,-27.23 125.03,-28.29"/>
<polygon fill="#63b8ff" stroke="#63b8ff" points="151.45,-28.5 160.94,-23.78 150.58,-21.56 151.45,-28.5"/>
</a>
</g>
</g>
</g>
</svg>
