<?xml version="1.0" encoding="UTF-8" standalone="no"?>
<!DOCTYPE svg PUBLIC "-//W3C//DTD SVG 1.1//EN"
 "http://www.w3.org/Graphics/SVG/1.1/DTD/svg11.dtd">
<!-- Generated by graphviz version 2.43.0 (0)
 -->
<!-- Title: Terraria.GameContent.Creative.CreativeUI.SacrificeItemInSacrificeSlot Pages: 1 -->
<svg width="848pt" height="224pt"
 viewBox="0.00 0.00 848.00 223.50" xmlns="http://www.w3.org/2000/svg" xmlns:xlink="http://www.w3.org/1999/xlink">
<g id="graph0" class="graph" transform="scale(1 1) rotate(0) translate(4 219.5)">
<title>Terraria.GameContent.Creative.CreativeUI.SacrificeItemInSacrificeSlot</title>
<!-- Node1 -->
<g id="Node000001" class="node">
<title>Node1</title>
<g id="a_Node000001"><a xlink:title=" ">
<polygon fill="#999999" stroke="#666666" points="204,-129 0,-129 0,-99 204,-99 204,-129"/>
<text text-anchor="start" x="8" y="-117" font-family="Helvetica,sans-Serif" font-size="10.00">Terraria.GameContent.Creative.</text>
<text text-anchor="middle" x="102" y="-106" font-family="Helvetica,sans-Serif" font-size="10.00">CreativeUI.SacrificeItemInSacrificeSlot</text>
</a>
</g>
</g>
<!-- Node2 -->
<g id="Node000002" class="node">
<title>Node2</title>
<g id="a_Node000002"><a xlink:href="../../dc/dcf/classTerraria_1_1GameContent_1_1UI_1_1States_1_1UICreativePowersMenu_ab50a29ecf8b70f69e7d0c928afdf7d17.html#ab50a29ecf8b70f69e7d0c928afdf7d17" target="_top" xlink:title=" ">
<polygon fill="white" stroke="#666666" points="410,-134.5 240,-134.5 240,-93.5 410,-93.5 410,-134.5"/>
<text text-anchor="start" x="248" y="-122.5" font-family="Helvetica,sans-Serif" font-size="10.00">Terraria.GameContent.UI.</text>
<text text-anchor="start" x="248" y="-111.5" font-family="Helvetica,sans-Serif" font-size="10.00">States.UICreativePowersMenu.</text>
<text text-anchor="middle" x="325" y="-100.5" font-family="Helvetica,sans-Serif" font-size="10.00">SacrificeWhatsInResearchMenu</text>
</a>
</g>
</g>
<!-- Node1&#45;&gt;Node2 -->
<g id="edge1_Node000001_Node000002" class="edge">
<title>Node1&#45;&gt;Node2</title>
<g id="a_edge1_Node000001_Node000002"><a xlink:title=" ">
<path fill="none" stroke="#63b8ff" d="M204.12,-114C212.61,-114 221.16,-114 229.6,-114"/>
<polygon fill="#63b8ff" stroke="#63b8ff" points="229.8,-117.5 239.8,-114 229.8,-110.5 229.8,-117.5"/>
</a>
</g>
</g>
<!-- Node3 -->
<g id="Node000003" class="node">
<title>Node3</title>
<g id="a_Node000003"><a xlink:href="../../d8/d31/classTerraria_1_1GameContent_1_1UI_1_1Elements_1_1UICreativeInfiniteItemsDisplay_ae04134138aa5b163ee8386f3b9baab58.html#ae04134138aa5b163ee8386f3b9baab58" target="_top" xlink:title=" ">
<polygon fill="white" stroke="#666666" points="625,-134.5 446,-134.5 446,-93.5 625,-93.5 625,-134.5"/>
<text text-anchor="start" x="454" y="-122.5" font-family="Helvetica,sans-Serif" font-size="10.00">Terraria.GameContent.UI.</text>
<text text-anchor="start" x="454" y="-111.5" font-family="Helvetica,sans-Serif" font-size="10.00">Elements.UICreativeInfiniteItems</text>
<text text-anchor="middle" x="535.5" y="-100.5" font-family="Helvetica,sans-Serif" font-size="10.00">Display.SacrificeWhatYouCan</text>
</a>
</g>
</g>
<!-- Node2&#45;&gt;Node3 -->
<g id="edge2_Node000002_Node000003" class="edge">
<title>Node2&#45;&gt;Node3</title>
<g id="a_edge2_Node000002_Node000003"><a xlink:title=" ">
<path fill="none" stroke="#63b8ff" d="M410.2,-114C418.65,-114 427.28,-114 435.86,-114"/>
<polygon fill="#63b8ff" stroke="#63b8ff" points="435.9,-117.5 445.9,-114 435.9,-110.5 435.9,-117.5"/>
</a>
</g>
</g>
<!-- Node4 -->
<g id="Node000004" class="node">
<title>Node4</title>
<g id="a_Node000004"><a xlink:href="../../d8/d31/classTerraria_1_1GameContent_1_1UI_1_1Elements_1_1UICreativeInfiniteItemsDisplay_ad699aed79a2745c3e5f914184f23af2e.html#ad699aed79a2745c3e5f914184f23af2e" target="_top" xlink:title=" ">
<polygon fill="white" stroke="#666666" points="840,-215.5 661,-215.5 661,-174.5 840,-174.5 840,-215.5"/>
<text text-anchor="start" x="669" y="-203.5" font-family="Helvetica,sans-Serif" font-size="10.00">Terraria.GameContent.UI.</text>
<text text-anchor="start" x="669" y="-192.5" font-family="Helvetica,sans-Serif" font-size="10.00">Elements.UICreativeInfiniteItems</text>
<text text-anchor="middle" x="750.5" y="-181.5" font-family="Helvetica,sans-Serif" font-size="10.00">Display.BeginSacrificeAnimation</text>
</a>
</g>
</g>
<!-- Node3&#45;&gt;Node4 -->
<g id="edge3_Node000003_Node000004" class="edge">
<title>Node3&#45;&gt;Node4</title>
<g id="a_edge3_Node000003_Node000004"><a xlink:title=" ">
<path fill="none" stroke="#63b8ff" d="M584.71,-134.56C607.68,-144.15 635.62,-155.51 661,-165 666.35,-167 671.91,-169.02 677.51,-171.01"/>
<polygon fill="#63b8ff" stroke="#63b8ff" points="676.36,-174.32 686.96,-174.34 678.69,-167.72 676.36,-174.32"/>
</a>
</g>
</g>
<!-- Node5 -->
<g id="Node000005" class="node">
<title>Node5</title>
<g id="a_Node000005"><a xlink:href="../../d7/d7a/classTerraria_1_1GameContent_1_1Creative_1_1CreativeUI_a1fea8e77768174a548567c9bb1bcd0a6.html#a1fea8e77768174a548567c9bb1bcd0a6" target="_top" xlink:title=" ">
<polygon fill="white" stroke="#666666" points="837.5,-156 663.5,-156 663.5,-126 837.5,-126 837.5,-156"/>
<text text-anchor="start" x="671.5" y="-144" font-family="Helvetica,sans-Serif" font-size="10.00">Terraria.GameContent.Creative.</text>
<text text-anchor="middle" x="750.5" y="-133" font-family="Helvetica,sans-Serif" font-size="10.00">CreativeUI.GetSacrificeNumbers</text>
</a>
</g>
</g>
<!-- Node3&#45;&gt;Node5 -->
<g id="edge4_Node000003_Node000005" class="edge">
<title>Node3&#45;&gt;Node5</title>
<g id="a_edge4_Node000003_Node000005"><a xlink:title=" ">
<path fill="none" stroke="#63b8ff" d="M625.29,-125.25C634.51,-126.42 643.91,-127.62 653.21,-128.79"/>
<polygon fill="#63b8ff" stroke="#63b8ff" points="652.89,-132.28 663.25,-130.07 653.77,-125.34 652.89,-132.28"/>
</a>
</g>
</g>
<!-- Node6 -->
<g id="Node000006" class="node">
<title>Node6</title>
<g id="a_Node000006"><a xlink:href="../../d8/d31/classTerraria_1_1GameContent_1_1UI_1_1Elements_1_1UICreativeInfiniteItemsDisplay_a0b13cb2fe44345d09cbcbbffdf91195e.html#a0b13cb2fe44345d09cbcbbffdf91195e" target="_top" xlink:title=" ">
<polygon fill="white" stroke="#666666" points="840,-107.5 661,-107.5 661,-66.5 840,-66.5 840,-107.5"/>
<text text-anchor="start" x="669" y="-95.5" font-family="Helvetica,sans-Serif" font-size="10.00">Terraria.GameContent.UI.</text>
<text text-anchor="start" x="669" y="-84.5" font-family="Helvetica,sans-Serif" font-size="10.00">Elements.UICreativeInfiniteItems</text>
<text text-anchor="middle" x="750.5" y="-73.5" font-family="Helvetica,sans-Serif" font-size="10.00">Display.RememberItemSacrifice</text>
</a>
</g>
</g>
<!-- Node3&#45;&gt;Node6 -->
<g id="edge5_Node000003_Node000006" class="edge">
<title>Node3&#45;&gt;Node6</title>
<g id="a_edge5_Node000003_Node000006"><a xlink:title=" ">
<path fill="none" stroke="#63b8ff" d="M625.29,-102.75C633.74,-101.67 642.34,-100.58 650.88,-99.5"/>
<polygon fill="#63b8ff" stroke="#63b8ff" points="651.37,-102.97 660.86,-98.24 650.49,-96.02 651.37,-102.97"/>
</a>
</g>
</g>
<!-- Node7 -->
<g id="Node000007" class="node">
<title>Node7</title>
<g id="a_Node000007"><a xlink:href="../../d7/d7a/classTerraria_1_1GameContent_1_1Creative_1_1CreativeUI_a13eef963541a131d2720beb0c4e5f6ad.html#a13eef963541a131d2720beb0c4e5f6ad" target="_top" xlink:title=" ">
<polygon fill="white" stroke="#666666" points="836,-30 665,-30 665,0 836,0 836,-30"/>
<text text-anchor="start" x="673" y="-18" font-family="Helvetica,sans-Serif" font-size="10.00">Terraria.GameContent.Creative.</text>
<text text-anchor="middle" x="750.5" y="-7" font-family="Helvetica,sans-Serif" font-size="10.00">CreativeUI.SacrificeItem</text>
</a>
</g>
</g>
<!-- Node3&#45;&gt;Node7 -->
<g id="edge6_Node000003_Node000007" class="edge">
<title>Node3&#45;&gt;Node7</title>
<g id="a_edge6_Node000003_Node000007"><a xlink:title=" ">
<path fill="none" stroke="#63b8ff" d="M580.63,-93.49C617.99,-76.12 671.16,-51.41 707.81,-34.38"/>
<polygon fill="#63b8ff" stroke="#63b8ff" points="709.63,-37.39 717.22,-30 706.68,-31.05 709.63,-37.39"/>
</a>
</g>
</g>
<!-- Node7&#45;&gt;Node7 -->
<g id="edge7_Node000007_Node000007" class="edge">
<title>Node7&#45;&gt;Node7</title>
<g id="a_edge7_Node000007_Node000007"><a xlink:title=" ">
<path fill="none" stroke="#63b8ff" d="M712.88,-30.28C704.52,-39.41 717.06,-48 750.5,-48 770.35,-48 782.84,-44.97 787.96,-40.6"/>
<polygon fill="#63b8ff" stroke="#63b8ff" points="791.46,-40.33 788.12,-30.28 784.46,-40.22 791.46,-40.33"/>
</a>
</g>
</g>
</g>
</svg>
