<?xml version="1.0" encoding="UTF-8" standalone="no"?>
<!DOCTYPE svg PUBLIC "-//W3C//DTD SVG 1.1//EN"
 "http://www.w3.org/Graphics/SVG/1.1/DTD/svg11.dtd">
<!-- Generated by graphviz version 2.43.0 (0)
 -->
<!-- Title: Terraria.GameContent.UI.States.UIWorldCreation.SetDefaultOptions Pages: 1 -->
<!--zoomable 443 -->

<svg id="main" version="1.1" xmlns="http://www.w3.org/2000/svg" xmlns:xlink="http://www.w3.org/1999/xlink" xml:space="preserve" onload="init(evt)">
<style type="text/css"><![CDATA[
.node, .edge {opacity: 0.7;}
.node.selected, .edge.selected {opacity: 1;}
.edge:hover path { stroke: red; }
.edge:hover polygon { stroke: red; fill: red; }
]]></style>

<defs>
  <circle id="rim" cx="0" cy="0" r="7"/>
  <circle id="rim2" cx="0" cy="0" r="3.5"/>
  <g id="zoomPlus">
    <use xlink:href="#rim" fill="#404040"><set attributeName="fill" to="#808080" begin="zoomplus.mouseover" end="zoomplus.mouseout"/></use>
    <path d="M-4,0h8M0,-4v8" fill="none" stroke="white" stroke-width="1.5" pointer-events="none"/>
  </g>
  <g id="zoomMin">
    <use xlink:href="#rim" fill="#404040"><set attributeName="fill" to="#808080" begin="zoomminus.mouseover" end="zoomminus.mouseout"/></use>
    <path d="M-4,0h8" fill="none" stroke="white" stroke-width="1.5" pointer-events="none"/>
  </g>
  <g id="arrowUp" transform="translate(30 24)">
    <use xlink:href="#rim"/>
    <path pointer-events="none" fill="none" stroke="white" stroke-width="1.5" d="M0,-3.0v7 M-2.5,-0.5L0,-3.0L2.5,-0.5"/>
  </g>
  <g id="arrowRight" transform="rotate(90) translate(36 -43)">
    <use xlink:href="#rim"/>
    <path pointer-events="none" fill="none" stroke="white" stroke-width="1.5" d="M0,-3.0v7 M-2.5,-0.5L0,-3.0L2.5,-0.5"/>
  </g>
  <g id="arrowDown" transform="rotate(180) translate(-30 -48)">
    <use xlink:href="#rim"/>
    <path pointer-events="none" fill="none" stroke="white" stroke-width="1.5" d="M0,-3.0v7 M-2.5,-0.5L0,-3.0L2.5,-0.5"/>
  </g>
  <g id="arrowLeft" transform="rotate(270) translate(-36 17)">
    <use xlink:href="#rim"/>
    <path pointer-events="none" fill="none" stroke="white" stroke-width="1.5" d="M0,-3.0v7 M-2.5,-0.5L0,-3.0L2.5,-0.5"/>
  </g>
  <g id="resetDef">
    <use xlink:href="#rim2" fill="#404040"><set attributeName="fill" to="#808080" begin="reset.mouseover" end="reset.mouseout"/></use>
  </g>
</defs>
<script type="application/ecmascript">
var viewWidth = 1687;
var viewHeight = 443;
var sectionId = 'dynsection-0';
</script>
<script type="application/ecmascript" xlink:href="../../svg.min.js"/>
<svg id="graph" class="graph">
<g id="viewport">
<title>Terraria.GameContent.UI.States.UIWorldCreation.SetDefaultOptions</title>
<!-- Node1 -->
<g id="Node000001" class="node">
<title>Node1</title>
<g id="a_Node000001"><a xlink:title=" ">
<polygon fill="#999999" stroke="#666666" points="185,-246.5 0,-246.5 0,-205.5 185,-205.5 185,-246.5"/>
<text text-anchor="start" x="8" y="-234.5" font-family="Helvetica,sans-Serif" font-size="10.00">Terraria.GameContent.UI.</text>
<text text-anchor="start" x="8" y="-223.5" font-family="Helvetica,sans-Serif" font-size="10.00">States.UIWorldCreation.SetDefault</text>
<text text-anchor="middle" x="92.5" y="-212.5" font-family="Helvetica,sans-Serif" font-size="10.00">Options</text>
</a>
</g>
</g>
<!-- Node2 -->
<g id="Node000002" class="node">
<title>Node2</title>
<g id="a_Node000002"><a xlink:href="../../dc/d94/classTerraria_1_1GameContent_1_1UI_1_1States_1_1UIWorldCreation_a863aa7c4fbed19ddd9c58798e60a20c0.html#a863aa7c4fbed19ddd9c58798e60a20c0" target="_top" xlink:title=" ">
<polygon fill="white" stroke="#666666" points="387.5,-348.5 222.5,-348.5 222.5,-307.5 387.5,-307.5 387.5,-348.5"/>
<text text-anchor="start" x="230.5" y="-336.5" font-family="Helvetica,sans-Serif" font-size="10.00">Terraria.GameContent.UI.</text>
<text text-anchor="start" x="230.5" y="-325.5" font-family="Helvetica,sans-Serif" font-size="10.00">States.UIWorldCreation.Assign</text>
<text text-anchor="middle" x="305" y="-314.5" font-family="Helvetica,sans-Serif" font-size="10.00">RandomWorldName</text>
</a>
</g>
</g>
<!-- Node1&#45;&gt;Node2 -->
<g id="edge1_Node000001_Node000002" class="edge">
<title>Node1&#45;&gt;Node2</title>
<g id="a_edge1_Node000001_Node000002"><a xlink:title=" ">
<path fill="none" stroke="#63b8ff" d="M135.84,-246.52C169.35,-262.75 216.28,-285.5 252.06,-302.83"/>
<polygon fill="#63b8ff" stroke="#63b8ff" points="250.84,-306.13 261.36,-307.34 253.89,-299.83 250.84,-306.13"/>
</a>
</g>
</g>
<!-- Node7 -->
<g id="Node000007" class="node">
<title>Node7</title>
<g id="a_Node000007"><a xlink:href="../../dc/d94/classTerraria_1_1GameContent_1_1UI_1_1States_1_1UIWorldCreation_a74b0b4e3f7e48197f2d2b260954c431d.html#a74b0b4e3f7e48197f2d2b260954c431d" target="_top" xlink:title=" ">
<polygon fill="white" stroke="#666666" points="387.5,-276.5 222.5,-276.5 222.5,-235.5 387.5,-235.5 387.5,-276.5"/>
<text text-anchor="start" x="230.5" y="-264.5" font-family="Helvetica,sans-Serif" font-size="10.00">Terraria.GameContent.UI.</text>
<text text-anchor="start" x="230.5" y="-253.5" font-family="Helvetica,sans-Serif" font-size="10.00">States.UIWorldCreation.Assign</text>
<text text-anchor="middle" x="305" y="-242.5" font-family="Helvetica,sans-Serif" font-size="10.00">RandomWorldSeed</text>
</a>
</g>
</g>
<!-- Node1&#45;&gt;Node7 -->
<g id="edge6_Node000001_Node000007" class="edge">
<title>Node1&#45;&gt;Node7</title>
<g id="a_edge6_Node000001_Node000007"><a xlink:title=" ">
<path fill="none" stroke="#63b8ff" d="M185.22,-239.07C194.15,-240.34 203.22,-241.64 212.16,-242.91"/>
<polygon fill="#63b8ff" stroke="#63b8ff" points="211.78,-246.39 222.17,-244.34 212.77,-239.46 211.78,-246.39"/>
</a>
</g>
</g>
<!-- Node8 -->
<g id="Node000008" class="node">
<title>Node8</title>
<g id="a_Node000008"><a xlink:href="../../dc/d94/classTerraria_1_1GameContent_1_1UI_1_1States_1_1UIWorldCreation_a4af3494151d1a37edb4e28f40452446f.html#a4af3494151d1a37edb4e28f40452446f" target="_top" xlink:title=" ">
<polygon fill="white" stroke="#666666" points="389,-217.5 221,-217.5 221,-176.5 389,-176.5 389,-217.5"/>
<text text-anchor="start" x="229" y="-205.5" font-family="Helvetica,sans-Serif" font-size="10.00">Terraria.GameContent.UI.</text>
<text text-anchor="start" x="229" y="-194.5" font-family="Helvetica,sans-Serif" font-size="10.00">States.UIWorldCreation.Update</text>
<text text-anchor="middle" x="305" y="-183.5" font-family="Helvetica,sans-Serif" font-size="10.00">InputFields</text>
</a>
</g>
</g>
<!-- Node1&#45;&gt;Node8 -->
<g id="edge7_Node000001_Node000008" class="edge">
<title>Node1&#45;&gt;Node8</title>
<g id="a_edge7_Node000001_Node000008"><a xlink:title=" ">
<path fill="none" stroke="#63b8ff" d="M185.22,-213.36C193.74,-212.19 202.38,-211 210.91,-209.82"/>
<polygon fill="#63b8ff" stroke="#63b8ff" points="211.44,-213.29 220.86,-208.45 210.48,-206.35 211.44,-213.29"/>
</a>
</g>
</g>
<!-- Node26 -->
<g id="Node000026" class="node">
<title>Node26</title>
<g id="a_Node000026"><a xlink:href="../../dc/d94/classTerraria_1_1GameContent_1_1UI_1_1States_1_1UIWorldCreation_aad409778663de9b015d26c293159a571.html#aad409778663de9b015d26c293159a571" target="_top" xlink:title=" ">
<polygon fill="white" stroke="#666666" points="389,-140.5 221,-140.5 221,-99.5 389,-99.5 389,-140.5"/>
<text text-anchor="start" x="229" y="-128.5" font-family="Helvetica,sans-Serif" font-size="10.00">Terraria.GameContent.UI.</text>
<text text-anchor="start" x="229" y="-117.5" font-family="Helvetica,sans-Serif" font-size="10.00">States.UIWorldCreation.Update</text>
<text text-anchor="middle" x="305" y="-106.5" font-family="Helvetica,sans-Serif" font-size="10.00">PreviewPlate</text>
</a>
</g>
</g>
<!-- Node1&#45;&gt;Node26 -->
<g id="edge30_Node000001_Node000026" class="edge">
<title>Node1&#45;&gt;Node26</title>
<g id="a_edge30_Node000001_Node000026"><a xlink:title=" ">
<path fill="none" stroke="#63b8ff" d="M134.34,-205.44C168.61,-188.18 217.7,-163.46 254.27,-145.04"/>
<polygon fill="#63b8ff" stroke="#63b8ff" points="255.92,-148.13 263.28,-140.51 252.77,-141.88 255.92,-148.13"/>
</a>
</g>
</g>
<!-- Node3 -->
<g id="Node000003" class="node">
<title>Node3</title>
<g id="a_Node000003"><a xlink:href="../../df/dd3/classTerraria_1_1Lang_adb3fcf36ca1334a7cc5d3e54e03588f7.html#adb3fcf36ca1334a7cc5d3e54e03588f7" target="_top" xlink:title="Filters LocalizedText objects by checking if their key starts with the provided startsWith &#160;parameter...">
<polygon fill="white" stroke="#666666" points="599.5,-339 453.5,-339 453.5,-309 599.5,-309 599.5,-339"/>
<text text-anchor="start" x="461.5" y="-327" font-family="Helvetica,sans-Serif" font-size="10.00">Terraria.Lang.CreateDialog</text>
<text text-anchor="middle" x="526.5" y="-316" font-family="Helvetica,sans-Serif" font-size="10.00">Filter</text>
</a>
</g>
</g>
<!-- Node2&#45;&gt;Node3 -->
<g id="edge2_Node000002_Node000003" class="edge">
<title>Node2&#45;&gt;Node3</title>
<g id="a_edge2_Node000002_Node000003"><a xlink:title=" ">
<path fill="none" stroke="#63b8ff" d="M387.73,-326.51C405.85,-326.18 425.06,-325.83 443.2,-325.5"/>
<polygon fill="#63b8ff" stroke="#63b8ff" points="443.52,-328.99 453.45,-325.31 443.39,-322 443.52,-328.99"/>
</a>
</g>
</g>
<!-- Node5 -->
<g id="Node000005" class="node">
<title>Node5</title>
<g id="a_Node000005"><a xlink:href="../../d4/d8f/classTerraria_1_1Localization_1_1Language_ae4636a4800b9ecbaa498954520462f78.html#ae4636a4800b9ecbaa498954520462f78" target="_top" xlink:title="Retrieves the text value for a specified localization key. The text returned will be for the currentl...">
<polygon fill="white" stroke="#666666" points="610.5,-435 442.5,-435 442.5,-405 610.5,-405 610.5,-435"/>
<text text-anchor="start" x="450.5" y="-423" font-family="Helvetica,sans-Serif" font-size="10.00">Terraria.Localization.Language.</text>
<text text-anchor="middle" x="526.5" y="-412" font-family="Helvetica,sans-Serif" font-size="10.00">GetTextValue</text>
</a>
</g>
</g>
<!-- Node2&#45;&gt;Node5 -->
<g id="edge4_Node000002_Node000005" class="edge">
<title>Node2&#45;&gt;Node5</title>
<g id="a_edge4_Node000002_Node000005"><a xlink:title=" ">
<path fill="none" stroke="#63b8ff" d="M336.59,-348.73C359.94,-363.73 393.36,-383.48 425,-396 430.45,-398.16 436.15,-400.15 441.94,-402"/>
<polygon fill="#63b8ff" stroke="#63b8ff" points="441.16,-405.42 451.74,-404.95 443.18,-398.72 441.16,-405.42"/>
</a>
</g>
</g>
<!-- Node6 -->
<g id="Node000006" class="node">
<title>Node6</title>
<g id="a_Node000006"><a xlink:href="../../d4/d8f/classTerraria_1_1Localization_1_1Language_a5ab9b894e128c508ebdcc03cc8d1aac5.html#a5ab9b894e128c508ebdcc03cc8d1aac5" target="_top" xlink:title="Selects a single random LocalizedText that satisfies the filter &#160;parameter. Typically used with M:Ter...">
<polygon fill="white" stroke="#666666" points="610.5,-387 442.5,-387 442.5,-357 610.5,-357 610.5,-387"/>
<text text-anchor="start" x="450.5" y="-375" font-family="Helvetica,sans-Serif" font-size="10.00">Terraria.Localization.Language.</text>
<text text-anchor="middle" x="526.5" y="-364" font-family="Helvetica,sans-Serif" font-size="10.00">SelectRandom</text>
</a>
</g>
</g>
<!-- Node2&#45;&gt;Node6 -->
<g id="edge5_Node000002_Node000006" class="edge">
<title>Node2&#45;&gt;Node6</title>
<g id="a_edge5_Node000002_Node000006"><a xlink:title=" ">
<path fill="none" stroke="#63b8ff" d="M387.73,-344.38C404.95,-347.84 423.16,-351.49 440.5,-354.96"/>
<polygon fill="#63b8ff" stroke="#63b8ff" points="440.1,-358.45 450.59,-356.98 441.47,-351.59 440.1,-358.45"/>
</a>
</g>
</g>
<!-- Node4 -->
<g id="Node000004" class="node">
<title>Node4</title>
<g id="a_Node000004"><a xlink:href="../../d5/d73/classTerraria_1_1Localization_1_1LocalizedText_a8465a4e8662fbe15d206b2bbd0181e99.html#a8465a4e8662fbe15d206b2bbd0181e99" target="_top" xlink:title="Checks if the conditions embedded in this LocalizedText are satisfied by the obj &#160;argument....">
<polygon fill="white" stroke="#666666" points="849,-394 685,-394 685,-364 849,-364 849,-394"/>
<text text-anchor="start" x="693" y="-382" font-family="Helvetica,sans-Serif" font-size="10.00">Terraria.Localization.Localized</text>
<text text-anchor="middle" x="767" y="-371" font-family="Helvetica,sans-Serif" font-size="10.00">Text.CanFormatWith</text>
</a>
</g>
</g>
<!-- Node3&#45;&gt;Node4 -->
<g id="edge3_Node000003_Node000004" class="edge">
<title>Node3&#45;&gt;Node4</title>
<g id="a_edge3_Node000003_Node000004"><a xlink:title=" ">
<path fill="none" stroke="#63b8ff" d="M592.67,-339.03C623.04,-346.03 659.34,-354.4 690.86,-361.67"/>
<polygon fill="#63b8ff" stroke="#63b8ff" points="690.38,-365.15 700.91,-363.99 691.95,-358.33 690.38,-365.15"/>
</a>
</g>
</g>
<!-- Node9 -->
<g id="Node000009" class="node">
<title>Node9</title>
<g id="a_Node000009"><a xlink:href="../../d7/d72/classTerraria_1_1UI_1_1UIElement_aa33dca6c66f9820ef270bc2e23ef1496.html#aa33dca6c66f9820ef270bc2e23ef1496" target="_top" xlink:title=" ">
<polygon fill="white" stroke="#666666" points="617,-158.5 436,-158.5 436,-139.5 617,-139.5 617,-158.5"/>
<text text-anchor="middle" x="526.5" y="-146.5" font-family="Helvetica,sans-Serif" font-size="10.00">Terraria.UI.UIElement.Recalculate</text>
</a>
</g>
</g>
<!-- Node8&#45;&gt;Node9 -->
<g id="edge8_Node000008_Node000009" class="edge">
<title>Node8&#45;&gt;Node9</title>
<g id="a_edge8_Node000008_Node000009"><a xlink:title=" ">
<path fill="none" stroke="#63b8ff" d="M384.23,-176.45C397.79,-173.13 411.77,-169.85 425,-167 435.68,-164.7 447.04,-162.46 458.14,-160.4"/>
<polygon fill="#63b8ff" stroke="#63b8ff" points="459.03,-163.79 468.23,-158.54 457.76,-156.91 459.03,-163.79"/>
</a>
</g>
</g>
<!-- Node14 -->
<g id="Node000014" class="node">
<title>Node14</title>
<g id="a_Node000014"><a xlink:href="../../df/d95/classTerraria_1_1GameContent_1_1UI_1_1Elements_1_1UICharacterNameButton_a3fb47d1fb20d11198733d78168e2b348.html#a3fb47d1fb20d11198733d78168e2b348" target="_top" xlink:title=" ">
<polygon fill="white" stroke="#666666" points="620.5,-281.5 432.5,-281.5 432.5,-240.5 620.5,-240.5 620.5,-281.5"/>
<text text-anchor="start" x="440.5" y="-269.5" font-family="Helvetica,sans-Serif" font-size="10.00">Terraria.GameContent.UI.</text>
<text text-anchor="start" x="440.5" y="-258.5" font-family="Helvetica,sans-Serif" font-size="10.00">Elements.UICharacterNameButton.</text>
<text text-anchor="middle" x="526.5" y="-247.5" font-family="Helvetica,sans-Serif" font-size="10.00">SetContents</text>
</a>
</g>
</g>
<!-- Node8&#45;&gt;Node14 -->
<g id="edge13_Node000008_Node000014" class="edge">
<title>Node8&#45;&gt;Node14</title>
<g id="a_edge13_Node000008_Node000014"><a xlink:title=" ">
<path fill="none" stroke="#63b8ff" d="M376.36,-217.51C398.31,-223.92 422.69,-231.02 445.27,-237.61"/>
<polygon fill="#63b8ff" stroke="#63b8ff" points="444.58,-241.05 455.16,-240.49 446.54,-234.33 444.58,-241.05"/>
</a>
</g>
</g>
<!-- Node24 -->
<g id="Node000024" class="node">
<title>Node24</title>
<g id="a_Node000024"><a xlink:href="../../df/d95/classTerraria_1_1GameContent_1_1UI_1_1Elements_1_1UICharacterNameButton_a853f89fea3d0f8d46e6ef37b4bc822bb.html#a853f89fea3d0f8d46e6ef37b4bc822bb" target="_top" xlink:title=" ">
<polygon fill="white" stroke="#666666" points="628,-217.5 425,-217.5 425,-176.5 628,-176.5 628,-217.5"/>
<text text-anchor="start" x="433" y="-205.5" font-family="Helvetica,sans-Serif" font-size="10.00">Terraria.GameContent.UI.</text>
<text text-anchor="start" x="433" y="-194.5" font-family="Helvetica,sans-Serif" font-size="10.00">Elements.UICharacterNameButton.</text>
<text text-anchor="middle" x="526.5" y="-183.5" font-family="Helvetica,sans-Serif" font-size="10.00">TrimDisplayIfOverElementDimensions</text>
</a>
</g>
</g>
<!-- Node8&#45;&gt;Node24 -->
<g id="edge26_Node000008_Node000024" class="edge">
<title>Node8&#45;&gt;Node24</title>
<g id="a_edge26_Node000008_Node000024"><a xlink:title=" ">
<path fill="none" stroke="#63b8ff" d="M389.3,-197C397.66,-197 406.25,-197 414.85,-197"/>
<polygon fill="#63b8ff" stroke="#63b8ff" points="414.92,-200.5 424.92,-197 414.92,-193.5 414.92,-200.5"/>
</a>
</g>
</g>
<!-- Node10 -->
<g id="Node000010" class="node">
<title>Node10</title>
<g id="a_Node000010"><a xlink:href="../../d7/d72/classTerraria_1_1UI_1_1UIElement_a8cb8692a001e504adb564ae67833de3d.html#a8cb8692a001e504adb564ae67833de3d" target="_top" xlink:title=" ">
<polygon fill="white" stroke="#666666" points="870,-54 664,-54 664,-24 870,-24 870,-54"/>
<text text-anchor="start" x="672" y="-42" font-family="Helvetica,sans-Serif" font-size="10.00">Terraria.UI.UIElement.Get</text>
<text text-anchor="middle" x="767" y="-31" font-family="Helvetica,sans-Serif" font-size="10.00">DimensionsBasedOnParentDimensions</text>
</a>
</g>
</g>
<!-- Node9&#45;&gt;Node10 -->
<g id="edge9_Node000009_Node000010" class="edge">
<title>Node9&#45;&gt;Node10</title>
<g id="a_edge9_Node000009_Node000010"><a xlink:title=" ">
<path fill="none" stroke="#63b8ff" d="M605.22,-139.44C613.16,-136.97 620.91,-133.87 628,-130 648.42,-118.85 645.42,-106 664,-92 681.31,-78.95 702.3,-67.43 720.73,-58.49"/>
<polygon fill="#63b8ff" stroke="#63b8ff" points="722.28,-61.63 729.82,-54.19 719.28,-55.31 722.28,-61.63"/>
</a>
</g>
</g>
<!-- Node12 -->
<g id="Node000012" class="node">
<title>Node12</title>
<g id="a_Node000012"><a xlink:href="../../d7/d72/classTerraria_1_1UI_1_1UIElement_a5ad03f5ce0e776511a3b7e4a29e16caf.html#a5ad03f5ce0e776511a3b7e4a29e16caf" target="_top" xlink:title=" ">
<polygon fill="white" stroke="#666666" points="1268.5,-144 1127.5,-144 1127.5,-114 1268.5,-114 1268.5,-144"/>
<text text-anchor="start" x="1135.5" y="-132" font-family="Helvetica,sans-Serif" font-size="10.00">Terraria.UI.UIElement.Get</text>
<text text-anchor="middle" x="1198" y="-121" font-family="Helvetica,sans-Serif" font-size="10.00">InnerDimensions</text>
</a>
</g>
</g>
<!-- Node9&#45;&gt;Node12 -->
<g id="edge11_Node000009_Node000012" class="edge">
<title>Node9&#45;&gt;Node12</title>
<g id="a_edge11_Node000009_Node000012"><a xlink:title=" ">
<path fill="none" stroke="#63b8ff" d="M576.53,-139.45C608.53,-133.4 647.34,-126.45 664,-125 824.37,-111.01 1012.9,-117.88 1117.27,-123.72"/>
<polygon fill="#63b8ff" stroke="#63b8ff" points="1117.23,-127.22 1127.41,-124.3 1117.63,-120.23 1117.23,-127.22"/>
</a>
</g>
</g>
<!-- Node13 -->
<g id="Node000013" class="node">
<title>Node13</title>
<g id="a_Node000013"><a xlink:href="../../d7/d72/classTerraria_1_1UI_1_1UIElement_a8bf52a8c33b045d1df8dbcc96bcbc818.html#a8bf52a8c33b045d1df8dbcc96bcbc818" target="_top" xlink:title=" ">
<polygon fill="white" stroke="#666666" points="857.5,-164 676.5,-164 676.5,-134 857.5,-134 857.5,-164"/>
<text text-anchor="start" x="684.5" y="-152" font-family="Helvetica,sans-Serif" font-size="10.00">Terraria.UI.UIElement.Recalculate</text>
<text text-anchor="middle" x="767" y="-141" font-family="Helvetica,sans-Serif" font-size="10.00">Children</text>
</a>
</g>
</g>
<!-- Node9&#45;&gt;Node13 -->
<g id="edge12_Node000009_Node000013" class="edge">
<title>Node9&#45;&gt;Node13</title>
<g id="a_edge12_Node000009_Node000013"><a xlink:title=" ">
<path fill="none" stroke="#63b8ff" d="M617.33,-149C633.29,-149 650.01,-149 666.23,-149"/>
<polygon fill="#63b8ff" stroke="#63b8ff" points="666.25,-152.5 676.25,-149 666.25,-145.5 666.25,-152.5"/>
</a>
</g>
</g>
<!-- Node11 -->
<g id="Node000011" class="node">
<title>Node11</title>
<g id="a_Node000011"><a xlink:href="../../d8/d74/structTerraria_1_1UI_1_1StyleDimension_acffa4ba4c6fbf99b983c8c59f17cc855.html#acffa4ba4c6fbf99b983c8c59f17cc855" target="_top" xlink:title=" ">
<polygon fill="white" stroke="#666666" points="1067.5,-30 917.5,-30 917.5,0 1067.5,0 1067.5,-30"/>
<text text-anchor="start" x="925.5" y="-18" font-family="Helvetica,sans-Serif" font-size="10.00">Terraria.UI.StyleDimension.</text>
<text text-anchor="middle" x="992.5" y="-7" font-family="Helvetica,sans-Serif" font-size="10.00">GetValue</text>
</a>
</g>
</g>
<!-- Node10&#45;&gt;Node11 -->
<g id="edge10_Node000010_Node000011" class="edge">
<title>Node10&#45;&gt;Node11</title>
<g id="a_edge10_Node000010_Node000011"><a xlink:title=" ">
<path fill="none" stroke="#63b8ff" d="M870.27,-28.02C882.66,-26.69 895.21,-25.34 907.3,-24.04"/>
<polygon fill="#63b8ff" stroke="#63b8ff" points="907.76,-27.51 917.33,-22.96 907.01,-20.55 907.76,-27.51"/>
</a>
</g>
</g>
<!-- Node14&#45;&gt;Node12 -->
<g id="edge16_Node000014_Node000012" class="edge">
<title>Node14&#45;&gt;Node12</title>
<g id="a_edge16_Node000014_Node000012"><a xlink:title=" ">
<path fill="none" stroke="#63b8ff" d="M620.81,-274.36C690.25,-281.62 786.97,-286.03 870,-269 982.84,-245.86 1104.84,-182.12 1162.75,-149.23"/>
<polygon fill="#63b8ff" stroke="#63b8ff" points="1164.55,-152.23 1171.48,-144.22 1161.07,-146.16 1164.55,-152.23"/>
</a>
</g>
</g>
<!-- Node15 -->
<g id="Node000015" class="node">
<title>Node15</title>
<g id="a_Node000015"><a xlink:href="../../d8/d74/structTerraria_1_1UI_1_1StyleDimension_a401bd71d865c34b2d50a55dcc1a67384.html#a401bd71d865c34b2d50a55dcc1a67384" target="_top" xlink:title=" ">
<polygon fill="white" stroke="#666666" points="842,-346 692,-346 692,-316 842,-316 842,-346"/>
<text text-anchor="start" x="700" y="-334" font-family="Helvetica,sans-Serif" font-size="10.00">Terraria.UI.StyleDimension.</text>
<text text-anchor="middle" x="767" y="-323" font-family="Helvetica,sans-Serif" font-size="10.00">FromPixels</text>
</a>
</g>
</g>
<!-- Node14&#45;&gt;Node15 -->
<g id="edge14_Node000014_Node000015" class="edge">
<title>Node14&#45;&gt;Node15</title>
<g id="a_edge14_Node000014_Node000015"><a xlink:title=" ">
<path fill="none" stroke="#63b8ff" d="M595.14,-281.53C617.08,-288.14 641.56,-295.44 664,-302 676.53,-305.66 689.95,-309.52 702.8,-313.19"/>
<polygon fill="#63b8ff" stroke="#63b8ff" points="701.91,-316.58 712.49,-315.95 703.83,-309.84 701.91,-316.58"/>
</a>
</g>
</g>
<!-- Node17 -->
<g id="Node000017" class="node">
<title>Node17</title>
<g id="a_Node000017"><a xlink:href="../../df/da8/classTerraria_1_1GameContent_1_1UI_1_1Elements_1_1UIText_a3f27882b54715c7adb4e9859ec77c395.html#a3f27882b54715c7adb4e9859ec77c395" target="_top" xlink:title=" ">
<polygon fill="white" stroke="#666666" points="837,-260 697,-260 697,-230 837,-230 837,-260"/>
<text text-anchor="start" x="705" y="-248" font-family="Helvetica,sans-Serif" font-size="10.00">Terraria.GameContent.UI.</text>
<text text-anchor="middle" x="767" y="-237" font-family="Helvetica,sans-Serif" font-size="10.00">Elements.UIText.SetText</text>
</a>
</g>
</g>
<!-- Node14&#45;&gt;Node17 -->
<g id="edge17_Node000014_Node000017" class="edge">
<title>Node14&#45;&gt;Node17</title>
<g id="a_edge17_Node000014_Node000017"><a xlink:title=" ">
<path fill="none" stroke="#63b8ff" d="M620.74,-254.75C642.52,-253.28 665.52,-251.74 686.63,-250.32"/>
<polygon fill="#63b8ff" stroke="#63b8ff" points="687.09,-253.8 696.83,-249.64 686.62,-246.82 687.09,-253.8"/>
</a>
</g>
</g>
<!-- Node16 -->
<g id="Node000016" class="node">
<title>Node16</title>
<g id="a_Node000016"><a xlink:href="../../d8/d74/structTerraria_1_1UI_1_1StyleDimension_aa443ecdcb3b3f8237c37aac947d9ef9d.html#aa443ecdcb3b3f8237c37aac947d9ef9d" target="_top" xlink:title=" ">
<polygon fill="white" stroke="#666666" points="1067.5,-346 917.5,-346 917.5,-316 1067.5,-316 1067.5,-346"/>
<text text-anchor="start" x="925.5" y="-334" font-family="Helvetica,sans-Serif" font-size="10.00">Terraria.UI.StyleDimension.</text>
<text text-anchor="middle" x="992.5" y="-323" font-family="Helvetica,sans-Serif" font-size="10.00">StyleDimension</text>
</a>
</g>
</g>
<!-- Node15&#45;&gt;Node16 -->
<g id="edge15_Node000015_Node000016" class="edge">
<title>Node15&#45;&gt;Node16</title>
<g id="a_edge15_Node000015_Node000016"><a xlink:title=" ">
<path fill="none" stroke="#63b8ff" d="M842.11,-331C862.95,-331 885.77,-331 907.17,-331"/>
<polygon fill="#63b8ff" stroke="#63b8ff" points="907.21,-334.5 917.21,-331 907.21,-327.5 907.21,-334.5"/>
</a>
</g>
</g>
<!-- Node18 -->
<g id="Node000018" class="node">
<title>Node18</title>
<g id="a_Node000018"><a xlink:href="../../df/da8/classTerraria_1_1GameContent_1_1UI_1_1Elements_1_1UIText_a6b38a5021c0225460c802dc8376d39ac.html#a6b38a5021c0225460c802dc8376d39ac" target="_top" xlink:title=" ">
<polygon fill="white" stroke="#666666" points="1079,-78 906,-78 906,-48 1079,-48 1079,-78"/>
<text text-anchor="start" x="914" y="-66" font-family="Helvetica,sans-Serif" font-size="10.00">Terraria.GameContent.UI.</text>
<text text-anchor="middle" x="992.5" y="-55" font-family="Helvetica,sans-Serif" font-size="10.00">Elements.UIText.InternalSetText</text>
</a>
</g>
</g>
<!-- Node17&#45;&gt;Node18 -->
<g id="edge18_Node000017_Node000018" class="edge">
<title>Node17&#45;&gt;Node18</title>
<g id="a_edge18_Node000017_Node000018"><a xlink:title=" ">
<path fill="none" stroke="#63b8ff" d="M837.02,-235.56C848.6,-232.12 860.07,-227.41 870,-221 922.35,-187.21 961.17,-122.78 979.59,-87.54"/>
<polygon fill="#63b8ff" stroke="#63b8ff" points="982.82,-88.92 984.24,-78.42 976.58,-85.74 982.82,-88.92"/>
</a>
</g>
</g>
<!-- Node18&#45;&gt;Node12 -->
<g id="edge19_Node000018_Node000012" class="edge">
<title>Node18&#45;&gt;Node12</title>
<g id="a_edge19_Node000018_Node000012"><a xlink:title=" ">
<path fill="none" stroke="#63b8ff" d="M1038.37,-78.04C1051.49,-82.48 1065.83,-87.39 1079,-92 1095.06,-97.62 1098.83,-99.72 1115,-105 1121.11,-106.99 1127.5,-109 1133.89,-110.96"/>
<polygon fill="#63b8ff" stroke="#63b8ff" points="1133.33,-114.45 1143.92,-113.99 1135.36,-107.74 1133.33,-114.45"/>
</a>
</g>
</g>
<!-- Node19 -->
<g id="Node000019" class="node">
<title>Node19</title>
<g id="a_Node000019"><a xlink:href="../../d7/df6/classTerraria_1_1UI_1_1Chat_1_1ChatManager_ad0daac781e8696c59955af964519db95.html#ad0daac781e8696c59955af964519db95" target="_top" xlink:title=" ">
<polygon fill="white" stroke="#666666" points="1279.5,-78 1116.5,-78 1116.5,-48 1279.5,-48 1279.5,-78"/>
<text text-anchor="start" x="1124.5" y="-66" font-family="Helvetica,sans-Serif" font-size="10.00">Terraria.UI.Chat.ChatManager.</text>
<text text-anchor="middle" x="1198" y="-55" font-family="Helvetica,sans-Serif" font-size="10.00">GetStringSize</text>
</a>
</g>
</g>
<!-- Node18&#45;&gt;Node19 -->
<g id="edge20_Node000018_Node000019" class="edge">
<title>Node18&#45;&gt;Node19</title>
<g id="a_edge20_Node000018_Node000019"><a xlink:title=" ">
<path fill="none" stroke="#63b8ff" d="M1079.21,-63C1088.13,-63 1097.22,-63 1106.19,-63"/>
<polygon fill="#63b8ff" stroke="#63b8ff" points="1106.26,-66.5 1116.26,-63 1106.26,-59.5 1106.26,-66.5"/>
</a>
</g>
</g>
<!-- Node23 -->
<g id="Node000023" class="node">
<title>Node23</title>
<g id="a_Node000023"><a xlink:href="../../d8/d74/structTerraria_1_1UI_1_1StyleDimension_a93e6acf229427c6435d7ee83958efba0.html#a93e6acf229427c6435d7ee83958efba0" target="_top" xlink:title=" ">
<polygon fill="white" stroke="#666666" points="1281,-29.5 1115,-29.5 1115,-10.5 1281,-10.5 1281,-29.5"/>
<text text-anchor="middle" x="1198" y="-17.5" font-family="Helvetica,sans-Serif" font-size="10.00">Terraria.UI.StyleDimension.Set</text>
</a>
</g>
</g>
<!-- Node18&#45;&gt;Node23 -->
<g id="edge25_Node000018_Node000023" class="edge">
<title>Node18&#45;&gt;Node23</title>
<g id="a_edge25_Node000018_Node000023"><a xlink:title=" ">
<path fill="none" stroke="#63b8ff" d="M1064.67,-47.96C1090.05,-42.6 1118.22,-36.65 1142.02,-31.62"/>
<polygon fill="#63b8ff" stroke="#63b8ff" points="1142.88,-35.01 1151.94,-29.52 1141.43,-28.17 1142.88,-35.01"/>
</a>
</g>
</g>
<!-- Node19&#45;&gt;Node19 -->
<g id="edge21_Node000019_Node000019" class="edge">
<title>Node19&#45;&gt;Node19</title>
<g id="a_edge21_Node000019_Node000019"><a xlink:title=" ">
<path fill="none" stroke="#63b8ff" d="M1162.84,-78.28C1155.03,-87.41 1166.75,-96 1198,-96 1216.55,-96 1228.22,-92.97 1233.01,-88.6"/>
<polygon fill="#63b8ff" stroke="#63b8ff" points="1236.51,-88.32 1233.16,-78.28 1229.51,-88.22 1236.51,-88.32"/>
</a>
</g>
</g>
<!-- Node20 -->
<g id="Node000020" class="node">
<title>Node20</title>
<g id="a_Node000020"><a xlink:href="../../d7/df6/classTerraria_1_1UI_1_1Chat_1_1ChatManager_af687cd1f70060817f5984ef2b554cf40.html#af687cd1f70060817f5984ef2b554cf40" target="_top" xlink:title=" ">
<polygon fill="white" stroke="#666666" points="1480,-78 1317,-78 1317,-48 1480,-48 1480,-78"/>
<text text-anchor="start" x="1325" y="-66" font-family="Helvetica,sans-Serif" font-size="10.00">Terraria.UI.Chat.ChatManager.</text>
<text text-anchor="middle" x="1398.5" y="-55" font-family="Helvetica,sans-Serif" font-size="10.00">ParseMessage</text>
</a>
</g>
</g>
<!-- Node19&#45;&gt;Node20 -->
<g id="edge22_Node000019_Node000020" class="edge">
<title>Node19&#45;&gt;Node20</title>
<g id="a_edge22_Node000019_Node000020"><a xlink:title=" ">
<path fill="none" stroke="#63b8ff" d="M1279.74,-63C1288.63,-63 1297.72,-63 1306.73,-63"/>
<polygon fill="#63b8ff" stroke="#63b8ff" points="1306.83,-66.5 1316.83,-63 1306.83,-59.5 1306.83,-66.5"/>
</a>
</g>
</g>
<!-- Node21 -->
<g id="Node000021" class="node">
<title>Node21</title>
<g id="a_Node000021"><a xlink:href="../../d7/df6/classTerraria_1_1UI_1_1Chat_1_1ChatManager_ad57d7ce4542b2df5cd9ff15c86855f3f.html#ad57d7ce4542b2df5cd9ff15c86855f3f" target="_top" xlink:title=" ">
<polygon fill="white" stroke="#666666" points="1679,-102 1516,-102 1516,-72 1679,-72 1679,-102"/>
<text text-anchor="start" x="1524" y="-90" font-family="Helvetica,sans-Serif" font-size="10.00">Terraria.UI.Chat.ChatManager.</text>
<text text-anchor="middle" x="1597.5" y="-79" font-family="Helvetica,sans-Serif" font-size="10.00">GetHandler</text>
</a>
</g>
</g>
<!-- Node20&#45;&gt;Node21 -->
<g id="edge23_Node000020_Node000021" class="edge">
<title>Node20&#45;&gt;Node21</title>
<g id="a_edge23_Node000020_Node000021"><a xlink:title=" ">
<path fill="none" stroke="#63b8ff" d="M1480.2,-72.83C1488.67,-73.86 1497.33,-74.92 1505.91,-75.96"/>
<polygon fill="#63b8ff" stroke="#63b8ff" points="1505.58,-79.45 1515.93,-77.18 1506.43,-72.5 1505.58,-79.45"/>
</a>
</g>
</g>
<!-- Node22 -->
<g id="Node000022" class="node">
<title>Node22</title>
<g id="a_Node000022"><a xlink:href="../../dc/d25/interfaceTerraria_1_1UI_1_1Chat_1_1ITagHandler_aa5a15f340434dc9990b2b10b306642a6.html#aa5a15f340434dc9990b2b10b306642a6" target="_top" xlink:title=" ">
<polygon fill="white" stroke="#666666" points="1675,-54 1520,-54 1520,-24 1675,-24 1675,-54"/>
<text text-anchor="start" x="1528" y="-42" font-family="Helvetica,sans-Serif" font-size="10.00">Terraria.UI.Chat.ITagHandler.</text>
<text text-anchor="middle" x="1597.5" y="-31" font-family="Helvetica,sans-Serif" font-size="10.00">Parse</text>
</a>
</g>
</g>
<!-- Node20&#45;&gt;Node22 -->
<g id="edge24_Node000020_Node000022" class="edge">
<title>Node20&#45;&gt;Node22</title>
<g id="a_edge24_Node000020_Node000022"><a xlink:title=" ">
<path fill="none" stroke="#63b8ff" d="M1480.2,-53.17C1489.9,-51.99 1499.83,-50.78 1509.62,-49.58"/>
<polygon fill="#63b8ff" stroke="#63b8ff" points="1510.24,-53.04 1519.74,-48.35 1509.39,-46.09 1510.24,-53.04"/>
</a>
</g>
</g>
<!-- Node24&#45;&gt;Node13 -->
<g id="edge28_Node000024_Node000013" class="edge">
<title>Node24&#45;&gt;Node13</title>
<g id="a_edge28_Node000024_Node000013"><a xlink:title=" ">
<path fill="none" stroke="#63b8ff" d="M628.3,-176.71C645.94,-173.16 664.14,-169.5 681.29,-166.05"/>
<polygon fill="#63b8ff" stroke="#63b8ff" points="682.14,-169.45 691.25,-164.04 680.76,-162.59 682.14,-169.45"/>
</a>
</g>
</g>
<!-- Node24&#45;&gt;Node17 -->
<g id="edge29_Node000024_Node000017" class="edge">
<title>Node24&#45;&gt;Node17</title>
<g id="a_edge29_Node000024_Node000017"><a xlink:title=" ">
<path fill="none" stroke="#63b8ff" d="M628.3,-217.29C647.91,-221.23 668.21,-225.32 686.99,-229.1"/>
<polygon fill="#63b8ff" stroke="#63b8ff" points="686.47,-232.56 696.96,-231.11 687.85,-225.7 686.47,-232.56"/>
</a>
</g>
</g>
<!-- Node25 -->
<g id="Node000025" class="node">
<title>Node25</title>
<g id="a_Node000025"><a xlink:href="../../d7/d72/classTerraria_1_1UI_1_1UIElement_abeb7b32927c9b86a4b1a4139e45ac6a5.html#abeb7b32927c9b86a4b1a4139e45ac6a5" target="_top" xlink:title=" ">
<polygon fill="white" stroke="#666666" points="837.5,-212 696.5,-212 696.5,-182 837.5,-182 837.5,-212"/>
<text text-anchor="start" x="704.5" y="-200" font-family="Helvetica,sans-Serif" font-size="10.00">Terraria.UI.UIElement.Get</text>
<text text-anchor="middle" x="767" y="-189" font-family="Helvetica,sans-Serif" font-size="10.00">Dimensions</text>
</a>
</g>
</g>
<!-- Node24&#45;&gt;Node25 -->
<g id="edge27_Node000024_Node000025" class="edge">
<title>Node24&#45;&gt;Node25</title>
<g id="a_edge27_Node000024_Node000025"><a xlink:title=" ">
<path fill="none" stroke="#63b8ff" d="M628.3,-197C647.61,-197 667.58,-197 686.12,-197"/>
<polygon fill="#63b8ff" stroke="#63b8ff" points="686.26,-200.5 696.26,-197 686.26,-193.5 686.26,-200.5"/>
</a>
</g>
</g>
<!-- Node27 -->
<g id="Node000027" class="node">
<title>Node27</title>
<g id="a_Node000027"><a xlink:href="../../d5/db0/classTerraria_1_1GameContent_1_1UI_1_1Elements_1_1UIWorldCreationPreview_a004f612a2fbe2922540f3a33aeb346bd.html#a004f612a2fbe2922540f3a33aeb346bd" target="_top" xlink:title=" ">
<polygon fill="white" stroke="#666666" points="619.5,-121.5 433.5,-121.5 433.5,-80.5 619.5,-80.5 619.5,-121.5"/>
<text text-anchor="start" x="441.5" y="-109.5" font-family="Helvetica,sans-Serif" font-size="10.00">Terraria.GameContent.UI.</text>
<text text-anchor="start" x="441.5" y="-98.5" font-family="Helvetica,sans-Serif" font-size="10.00">Elements.UIWorldCreationPreview.</text>
<text text-anchor="middle" x="526.5" y="-87.5" font-family="Helvetica,sans-Serif" font-size="10.00">UpdateOption</text>
</a>
</g>
</g>
<!-- Node26&#45;&gt;Node27 -->
<g id="edge31_Node000026_Node000027" class="edge">
<title>Node26&#45;&gt;Node27</title>
<g id="a_edge31_Node000026_Node000027"><a xlink:title=" ">
<path fill="none" stroke="#63b8ff" d="M389.3,-112.79C400.46,-111.82 412.01,-110.82 423.45,-109.83"/>
<polygon fill="#63b8ff" stroke="#63b8ff" points="423.8,-113.32 433.46,-108.97 423.19,-106.34 423.8,-113.32"/>
</a>
</g>
</g>
</g>
</svg>

<g id="navigator" transform="translate(0 0)" fill="#404254">
  <rect fill="#f2f5e9" fill-opacity="0.5" stroke="#606060" stroke-width=".5" x="0" y="0" width="60" height="60"/>
  <use id="zoomplus" xlink:href="#zoomPlus" x="17" y="9" onmousedown="handleZoom(evt,'in')"/>
  <use id="zoomminus" xlink:href="#zoomMin" x="42" y="9" onmousedown="handleZoom(evt,'out')"/>
  <use id="reset" xlink:href="#resetDef" x="30" y="36" onmousedown="handleReset()"/>
   <use id="arrowup" xlink:href="#arrowUp" x="0" y="0" onmousedown="handlePan(0,-1)"/>
  <use id="arrowright" xlink:href="#arrowRight" x="0" y="0" onmousedown="handlePan(1,0)"/>
  <use id="arrowdown" xlink:href="#arrowDown" x="0" y="0" onmousedown="handlePan(0,1)"/>
  <use id="arrowleft" xlink:href="#arrowLeft" x="0" y="0" onmousedown="handlePan(-1,0)"/>
</g>
<svg viewBox="0 0 15 15" width="100%" height="30px" preserveAspectRatio="xMaxYMin meet">
 <g id="arrow_out" transform="scale(0.3 0.3)">
  <a xlink:href="classTerraria_1_1GameContent_1_1UI_1_1States_1_1UIWorldCreation_ac3d9161ede946db8f76899980b1142ab_ac3d9161ede946db8f76899980b1142ab_cgraph_org.svg" target="_base">
   <rect id="button" ry="5" rx="5" y="6" x="6" height="38" width="38"
        fill="#f2f5e9" fill-opacity="0.5" stroke="#606060" stroke-width="1.0"/>
   <path id="arrow"
     d="M 11.500037,31.436501 C 11.940474,20.09759 22.043105,11.32322 32.158766,21.979434 L 37.068811,17.246167 C 37.068811,17.246167 37.088388,32 37.088388,32 L 22.160133,31.978069 C 22.160133,31.978069 26.997745,27.140456 26.997745,27.140456 C 18.528582,18.264221 13.291696,25.230495 11.500037,31.436501 z"
     style="fill:#404040;"/>
  </a>
 </g>
</svg>

<style type='text/css'>
<![CDATA[
[data-mouse-over-selected='false'] { opacity: 0.7; }
[data-mouse-over-selected='true']  { opacity: 1.0; }
]]>
</style>
<script type="application/ecmascript"><![CDATA[
document.addEventListener('DOMContentLoaded', (event) => {
  highlightEdges();
  highlightAdjacentNodes();
});
]]></script>
</svg>
