<?xml version="1.0" encoding="UTF-8" standalone="no"?>
<!DOCTYPE svg PUBLIC "-//W3C//DTD SVG 1.1//EN"
 "http://www.w3.org/Graphics/SVG/1.1/DTD/svg11.dtd">
<!-- Generated by graphviz version 2.43.0 (0)
 -->
<!-- Title: Terraria.GameContent.UI.States.UIWorldCreation.ShowOptionDescription Pages: 1 -->
<svg width="1184pt" height="142pt"
 viewBox="0.00 0.00 1184.00 141.50" xmlns="http://www.w3.org/2000/svg" xmlns:xlink="http://www.w3.org/1999/xlink">
<g id="graph0" class="graph" transform="scale(1 1) rotate(0) translate(4 137.5)">
<title>Terraria.GameContent.UI.States.UIWorldCreation.ShowOptionDescription</title>
<!-- Node1 -->
<g id="Node000001" class="node">
<title>Node1</title>
<g id="a_Node000001"><a xlink:title=" ">
<polygon fill="#999999" stroke="#666666" points="191,-73 0,-73 0,-32 191,-32 191,-73"/>
<text text-anchor="start" x="8" y="-61" font-family="Helvetica,sans-Serif" font-size="10.00">Terraria.GameContent.UI.</text>
<text text-anchor="start" x="8" y="-50" font-family="Helvetica,sans-Serif" font-size="10.00">States.UIWorldCreation.ShowOption</text>
<text text-anchor="middle" x="95.5" y="-39" font-family="Helvetica,sans-Serif" font-size="10.00">Description</text>
</a>
</g>
</g>
<!-- Node2 -->
<g id="Node000002" class="node">
<title>Node2</title>
<g id="a_Node000002"><a xlink:href="../../df/da8/classTerraria_1_1GameContent_1_1UI_1_1Elements_1_1UIText_a3f27882b54715c7adb4e9859ec77c395.html#a3f27882b54715c7adb4e9859ec77c395" target="_top" xlink:title=" ">
<polygon fill="white" stroke="#666666" points="367,-67.5 227,-67.5 227,-37.5 367,-37.5 367,-67.5"/>
<text text-anchor="start" x="235" y="-55.5" font-family="Helvetica,sans-Serif" font-size="10.00">Terraria.GameContent.UI.</text>
<text text-anchor="middle" x="297" y="-44.5" font-family="Helvetica,sans-Serif" font-size="10.00">Elements.UIText.SetText</text>
</a>
</g>
</g>
<!-- Node1&#45;&gt;Node2 -->
<g id="edge1_Node000001_Node000002" class="edge">
<title>Node1&#45;&gt;Node2</title>
<g id="a_edge1_Node000001_Node000002"><a xlink:title=" ">
<path fill="none" stroke="#63b8ff" d="M191.28,-52.5C199.79,-52.5 208.34,-52.5 216.7,-52.5"/>
<polygon fill="#63b8ff" stroke="#63b8ff" points="216.77,-56 226.77,-52.5 216.77,-49 216.77,-56"/>
</a>
</g>
</g>
<!-- Node3 -->
<g id="Node000003" class="node">
<title>Node3</title>
<g id="a_Node000003"><a xlink:href="../../df/da8/classTerraria_1_1GameContent_1_1UI_1_1Elements_1_1UIText_a6b38a5021c0225460c802dc8376d39ac.html#a6b38a5021c0225460c802dc8376d39ac" target="_top" xlink:title=" ">
<polygon fill="white" stroke="#666666" points="576,-67.5 403,-67.5 403,-37.5 576,-37.5 576,-67.5"/>
<text text-anchor="start" x="411" y="-55.5" font-family="Helvetica,sans-Serif" font-size="10.00">Terraria.GameContent.UI.</text>
<text text-anchor="middle" x="489.5" y="-44.5" font-family="Helvetica,sans-Serif" font-size="10.00">Elements.UIText.InternalSetText</text>
</a>
</g>
</g>
<!-- Node2&#45;&gt;Node3 -->
<g id="edge2_Node000002_Node000003" class="edge">
<title>Node2&#45;&gt;Node3</title>
<g id="a_edge2_Node000002_Node000003"><a xlink:title=" ">
<path fill="none" stroke="#63b8ff" d="M367.04,-52.5C375.39,-52.5 384.02,-52.5 392.66,-52.5"/>
<polygon fill="#63b8ff" stroke="#63b8ff" points="392.79,-56 402.79,-52.5 392.79,-49 392.79,-56"/>
</a>
</g>
</g>
<!-- Node4 -->
<g id="Node000004" class="node">
<title>Node4</title>
<g id="a_Node000004"><a xlink:href="../../d7/d72/classTerraria_1_1UI_1_1UIElement_a5ad03f5ce0e776511a3b7e4a29e16caf.html#a5ad03f5ce0e776511a3b7e4a29e16caf" target="_top" xlink:title=" ">
<polygon fill="white" stroke="#666666" points="765.5,-133.5 624.5,-133.5 624.5,-103.5 765.5,-103.5 765.5,-133.5"/>
<text text-anchor="start" x="632.5" y="-121.5" font-family="Helvetica,sans-Serif" font-size="10.00">Terraria.UI.UIElement.Get</text>
<text text-anchor="middle" x="695" y="-110.5" font-family="Helvetica,sans-Serif" font-size="10.00">InnerDimensions</text>
</a>
</g>
</g>
<!-- Node3&#45;&gt;Node4 -->
<g id="edge3_Node000003_Node000004" class="edge">
<title>Node3&#45;&gt;Node4</title>
<g id="a_edge3_Node000003_Node000004"><a xlink:title=" ">
<path fill="none" stroke="#63b8ff" d="M532.51,-67.58C555.83,-75.81 585.42,-86.02 612,-94.5 618.12,-96.45 624.52,-98.43 630.92,-100.37"/>
<polygon fill="#63b8ff" stroke="#63b8ff" points="630.37,-103.86 640.95,-103.38 632.38,-97.15 630.37,-103.86"/>
</a>
</g>
</g>
<!-- Node5 -->
<g id="Node000005" class="node">
<title>Node5</title>
<g id="a_Node000005"><a xlink:href="../../d7/df6/classTerraria_1_1UI_1_1Chat_1_1ChatManager_ad0daac781e8696c59955af964519db95.html#ad0daac781e8696c59955af964519db95" target="_top" xlink:title=" ">
<polygon fill="white" stroke="#666666" points="776.5,-67.5 613.5,-67.5 613.5,-37.5 776.5,-37.5 776.5,-67.5"/>
<text text-anchor="start" x="621.5" y="-55.5" font-family="Helvetica,sans-Serif" font-size="10.00">Terraria.UI.Chat.ChatManager.</text>
<text text-anchor="middle" x="695" y="-44.5" font-family="Helvetica,sans-Serif" font-size="10.00">GetStringSize</text>
</a>
</g>
</g>
<!-- Node3&#45;&gt;Node5 -->
<g id="edge4_Node000003_Node000005" class="edge">
<title>Node3&#45;&gt;Node5</title>
<g id="a_edge4_Node000003_Node000005"><a xlink:title=" ">
<path fill="none" stroke="#63b8ff" d="M576.21,-52.5C585.13,-52.5 594.22,-52.5 603.19,-52.5"/>
<polygon fill="#63b8ff" stroke="#63b8ff" points="603.26,-56 613.26,-52.5 603.26,-49 603.26,-56"/>
</a>
</g>
</g>
<!-- Node9 -->
<g id="Node000009" class="node">
<title>Node9</title>
<g id="a_Node000009"><a xlink:href="../../d8/d74/structTerraria_1_1UI_1_1StyleDimension_a93e6acf229427c6435d7ee83958efba0.html#a93e6acf229427c6435d7ee83958efba0" target="_top" xlink:title=" ">
<polygon fill="white" stroke="#666666" points="778,-19 612,-19 612,0 778,0 778,-19"/>
<text text-anchor="middle" x="695" y="-7" font-family="Helvetica,sans-Serif" font-size="10.00">Terraria.UI.StyleDimension.Set</text>
</a>
</g>
</g>
<!-- Node3&#45;&gt;Node9 -->
<g id="edge9_Node000003_Node000009" class="edge">
<title>Node3&#45;&gt;Node9</title>
<g id="a_edge9_Node000003_Node000009"><a xlink:title=" ">
<path fill="none" stroke="#63b8ff" d="M561.67,-37.46C587.05,-32.1 615.22,-26.15 639.02,-21.12"/>
<polygon fill="#63b8ff" stroke="#63b8ff" points="639.88,-24.51 648.94,-19.02 638.43,-17.67 639.88,-24.51"/>
</a>
</g>
</g>
<!-- Node5&#45;&gt;Node5 -->
<g id="edge5_Node000005_Node000005" class="edge">
<title>Node5&#45;&gt;Node5</title>
<g id="a_edge5_Node000005_Node000005"><a xlink:title=" ">
<path fill="none" stroke="#63b8ff" d="M659.84,-67.78C652.03,-76.91 663.75,-85.5 695,-85.5 713.55,-85.5 725.22,-82.47 730.01,-78.1"/>
<polygon fill="#63b8ff" stroke="#63b8ff" points="733.51,-77.82 730.16,-67.78 726.51,-77.72 733.51,-77.82"/>
</a>
</g>
</g>
<!-- Node6 -->
<g id="Node000006" class="node">
<title>Node6</title>
<g id="a_Node000006"><a xlink:href="../../d7/df6/classTerraria_1_1UI_1_1Chat_1_1ChatManager_af687cd1f70060817f5984ef2b554cf40.html#af687cd1f70060817f5984ef2b554cf40" target="_top" xlink:title=" ">
<polygon fill="white" stroke="#666666" points="977,-67.5 814,-67.5 814,-37.5 977,-37.5 977,-67.5"/>
<text text-anchor="start" x="822" y="-55.5" font-family="Helvetica,sans-Serif" font-size="10.00">Terraria.UI.Chat.ChatManager.</text>
<text text-anchor="middle" x="895.5" y="-44.5" font-family="Helvetica,sans-Serif" font-size="10.00">ParseMessage</text>
</a>
</g>
</g>
<!-- Node5&#45;&gt;Node6 -->
<g id="edge6_Node000005_Node000006" class="edge">
<title>Node5&#45;&gt;Node6</title>
<g id="a_edge6_Node000005_Node000006"><a xlink:title=" ">
<path fill="none" stroke="#63b8ff" d="M776.74,-52.5C785.63,-52.5 794.72,-52.5 803.73,-52.5"/>
<polygon fill="#63b8ff" stroke="#63b8ff" points="803.83,-56 813.83,-52.5 803.83,-49 803.83,-56"/>
</a>
</g>
</g>
<!-- Node7 -->
<g id="Node000007" class="node">
<title>Node7</title>
<g id="a_Node000007"><a xlink:href="../../d7/df6/classTerraria_1_1UI_1_1Chat_1_1ChatManager_ad57d7ce4542b2df5cd9ff15c86855f3f.html#ad57d7ce4542b2df5cd9ff15c86855f3f" target="_top" xlink:title=" ">
<polygon fill="white" stroke="#666666" points="1176,-91.5 1013,-91.5 1013,-61.5 1176,-61.5 1176,-91.5"/>
<text text-anchor="start" x="1021" y="-79.5" font-family="Helvetica,sans-Serif" font-size="10.00">Terraria.UI.Chat.ChatManager.</text>
<text text-anchor="middle" x="1094.5" y="-68.5" font-family="Helvetica,sans-Serif" font-size="10.00">GetHandler</text>
</a>
</g>
</g>
<!-- Node6&#45;&gt;Node7 -->
<g id="edge7_Node000006_Node000007" class="edge">
<title>Node6&#45;&gt;Node7</title>
<g id="a_edge7_Node000006_Node000007"><a xlink:title=" ">
<path fill="none" stroke="#63b8ff" d="M977.2,-62.33C985.67,-63.36 994.33,-64.42 1002.91,-65.46"/>
<polygon fill="#63b8ff" stroke="#63b8ff" points="1002.58,-68.95 1012.93,-66.68 1003.43,-62 1002.58,-68.95"/>
</a>
</g>
</g>
<!-- Node8 -->
<g id="Node000008" class="node">
<title>Node8</title>
<g id="a_Node000008"><a xlink:href="../../dc/d25/interfaceTerraria_1_1UI_1_1Chat_1_1ITagHandler_aa5a15f340434dc9990b2b10b306642a6.html#aa5a15f340434dc9990b2b10b306642a6" target="_top" xlink:title=" ">
<polygon fill="white" stroke="#666666" points="1172,-43.5 1017,-43.5 1017,-13.5 1172,-13.5 1172,-43.5"/>
<text text-anchor="start" x="1025" y="-31.5" font-family="Helvetica,sans-Serif" font-size="10.00">Terraria.UI.Chat.ITagHandler.</text>
<text text-anchor="middle" x="1094.5" y="-20.5" font-family="Helvetica,sans-Serif" font-size="10.00">Parse</text>
</a>
</g>
</g>
<!-- Node6&#45;&gt;Node8 -->
<g id="edge8_Node000006_Node000008" class="edge">
<title>Node6&#45;&gt;Node8</title>
<g id="a_edge8_Node000006_Node000008"><a xlink:title=" ">
<path fill="none" stroke="#63b8ff" d="M977.2,-42.67C986.9,-41.49 996.83,-40.28 1006.62,-39.08"/>
<polygon fill="#63b8ff" stroke="#63b8ff" points="1007.24,-42.54 1016.74,-37.85 1006.39,-35.59 1007.24,-42.54"/>
</a>
</g>
</g>
</g>
</svg>
