<?xml version="1.0" encoding="UTF-8" standalone="no"?>
<!DOCTYPE svg PUBLIC "-//W3C//DTD SVG 1.1//EN"
 "http://www.w3.org/Graphics/SVG/1.1/DTD/svg11.dtd">
<!-- Generated by graphviz version 2.43.0 (0)
 -->
<!-- Title: Terraria.ModLoader.UI.Elements.UIGrid.UIInnerList.DrawChildren Pages: 1 -->
<!--zoomable 172 -->

<svg id="main" version="1.1" xmlns="http://www.w3.org/2000/svg" xmlns:xlink="http://www.w3.org/1999/xlink" xml:space="preserve" onload="init(evt)">
<style type="text/css"><![CDATA[
.node, .edge {opacity: 0.7;}
.node.selected, .edge.selected {opacity: 1;}
.edge:hover path { stroke: red; }
.edge:hover polygon { stroke: red; fill: red; }
]]></style>

<defs>
  <circle id="rim" cx="0" cy="0" r="7"/>
  <circle id="rim2" cx="0" cy="0" r="3.5"/>
  <g id="zoomPlus">
    <use xlink:href="#rim" fill="#404040"><set attributeName="fill" to="#808080" begin="zoomplus.mouseover" end="zoomplus.mouseout"/></use>
    <path d="M-4,0h8M0,-4v8" fill="none" stroke="white" stroke-width="1.5" pointer-events="none"/>
  </g>
  <g id="zoomMin">
    <use xlink:href="#rim" fill="#404040"><set attributeName="fill" to="#808080" begin="zoomminus.mouseover" end="zoomminus.mouseout"/></use>
    <path d="M-4,0h8" fill="none" stroke="white" stroke-width="1.5" pointer-events="none"/>
  </g>
  <g id="arrowUp" transform="translate(30 24)">
    <use xlink:href="#rim"/>
    <path pointer-events="none" fill="none" stroke="white" stroke-width="1.5" d="M0,-3.0v7 M-2.5,-0.5L0,-3.0L2.5,-0.5"/>
  </g>
  <g id="arrowRight" transform="rotate(90) translate(36 -43)">
    <use xlink:href="#rim"/>
    <path pointer-events="none" fill="none" stroke="white" stroke-width="1.5" d="M0,-3.0v7 M-2.5,-0.5L0,-3.0L2.5,-0.5"/>
  </g>
  <g id="arrowDown" transform="rotate(180) translate(-30 -48)">
    <use xlink:href="#rim"/>
    <path pointer-events="none" fill="none" stroke="white" stroke-width="1.5" d="M0,-3.0v7 M-2.5,-0.5L0,-3.0L2.5,-0.5"/>
  </g>
  <g id="arrowLeft" transform="rotate(270) translate(-36 17)">
    <use xlink:href="#rim"/>
    <path pointer-events="none" fill="none" stroke="white" stroke-width="1.5" d="M0,-3.0v7 M-2.5,-0.5L0,-3.0L2.5,-0.5"/>
  </g>
  <g id="resetDef">
    <use xlink:href="#rim2" fill="#404040"><set attributeName="fill" to="#808080" begin="reset.mouseover" end="reset.mouseout"/></use>
  </g>
</defs>
<script type="application/ecmascript">
var viewWidth = 572;
var viewHeight = 172;
var sectionId = 'dynsection-0';
</script>
<script type="application/ecmascript" xlink:href="../../svg.min.js"/>
<svg id="graph" class="graph">
<g id="viewport">
<title>Terraria.ModLoader.UI.Elements.UIGrid.UIInnerList.DrawChildren</title>
<!-- Node1 -->
<g id="Node000001" class="node">
<title>Node1</title>
<g id="a_Node000001"><a xlink:title=" ">
<polygon fill="#999999" stroke="#666666" points="175,-99 0,-99 0,-69 175,-69 175,-99"/>
<text text-anchor="start" x="8" y="-87" font-family="Helvetica,sans-Serif" font-size="10.00">Terraria.ModLoader.UI.Elements.</text>
<text text-anchor="middle" x="87.5" y="-76" font-family="Helvetica,sans-Serif" font-size="10.00">UIGrid.UIInnerList.DrawChildren</text>
</a>
</g>
</g>
<!-- Node2 -->
<g id="Node000002" class="node">
<title>Node2</title>
<g id="a_Node000002"><a xlink:href="../../de/d1d/classTerraria_1_1Collision_afae514da9741510c6d3dd55f045cb3b2.html#afae514da9741510c6d3dd55f045cb3b2" target="_top" xlink:title=" ">
<polygon fill="white" stroke="#666666" points="351,-164 220,-164 220,-134 351,-134 351,-164"/>
<text text-anchor="start" x="228" y="-152" font-family="Helvetica,sans-Serif" font-size="10.00">Terraria.Collision.Check</text>
<text text-anchor="middle" x="285.5" y="-141" font-family="Helvetica,sans-Serif" font-size="10.00">AABBvAABBCollision</text>
</a>
</g>
</g>
<!-- Node1&#45;&gt;Node2 -->
<g id="edge1_Node000001_Node000002" class="edge">
<title>Node1&#45;&gt;Node2</title>
<g id="a_edge1_Node000001_Node000002"><a xlink:title=" ">
<path fill="none" stroke="#63b8ff" d="M133.27,-99.07C156.46,-106.86 185.23,-116.48 211,-125 216.63,-126.86 222.51,-128.8 228.39,-130.72"/>
<polygon fill="#63b8ff" stroke="#63b8ff" points="227.62,-134.16 238.22,-133.94 229.8,-127.51 227.62,-134.16"/>
</a>
</g>
</g>
<!-- Node3 -->
<g id="Node000003" class="node">
<title>Node3</title>
<g id="a_Node000003"><a xlink:href="../../d7/d72/classTerraria_1_1UI_1_1UIElement_a47842dadcdc87072e139ae5001131239.html#a47842dadcdc87072e139ae5001131239" target="_top" xlink:title=" ">
<polygon fill="white" stroke="#666666" points="360,-115.5 211,-115.5 211,-96.5 360,-96.5 360,-115.5"/>
<text text-anchor="middle" x="285.5" y="-103.5" font-family="Helvetica,sans-Serif" font-size="10.00">Terraria.UI.UIElement.Draw</text>
</a>
</g>
</g>
<!-- Node1&#45;&gt;Node3 -->
<g id="edge2_Node000001_Node000003" class="edge">
<title>Node1&#45;&gt;Node3</title>
<g id="a_edge2_Node000001_Node000003"><a xlink:title=" ">
<path fill="none" stroke="#63b8ff" d="M175.04,-93.71C183.66,-94.68 192.41,-95.66 201,-96.63"/>
<polygon fill="#63b8ff" stroke="#63b8ff" points="200.67,-100.11 211,-97.75 201.45,-93.16 200.67,-100.11"/>
</a>
</g>
</g>
<!-- Node7 -->
<g id="Node000007" class="node">
<title>Node7</title>
<g id="a_Node000007"><a xlink:href="../../d7/d72/classTerraria_1_1UI_1_1UIElement_abeb7b32927c9b86a4b1a4139e45ac6a5.html#abeb7b32927c9b86a4b1a4139e45ac6a5" target="_top" xlink:title=" ">
<polygon fill="white" stroke="#666666" points="356,-78 215,-78 215,-48 356,-48 356,-78"/>
<text text-anchor="start" x="223" y="-66" font-family="Helvetica,sans-Serif" font-size="10.00">Terraria.UI.UIElement.Get</text>
<text text-anchor="middle" x="285.5" y="-55" font-family="Helvetica,sans-Serif" font-size="10.00">Dimensions</text>
</a>
</g>
</g>
<!-- Node1&#45;&gt;Node7 -->
<g id="edge6_Node000001_Node000007" class="edge">
<title>Node1&#45;&gt;Node7</title>
<g id="a_edge6_Node000001_Node000007"><a xlink:title=" ">
<path fill="none" stroke="#63b8ff" d="M175.04,-74.73C184.93,-73.67 194.99,-72.59 204.79,-71.54"/>
<polygon fill="#63b8ff" stroke="#63b8ff" points="205.32,-75 214.89,-70.46 204.57,-68.04 205.32,-75"/>
</a>
</g>
</g>
<!-- Node8 -->
<g id="Node000008" class="node">
<title>Node8</title>
<g id="a_Node000008"><a xlink:href="../../d6/d3a/structTerraria_1_1UI_1_1CalculatedStyle_a24bb5d3a4f7c0820490f85397407eb4a.html#a24bb5d3a4f7c0820490f85397407eb4a" target="_top" xlink:title=" ">
<polygon fill="white" stroke="#666666" points="360,-30 211,-30 211,0 360,0 360,-30"/>
<text text-anchor="start" x="219" y="-18" font-family="Helvetica,sans-Serif" font-size="10.00">Terraria.UI.CalculatedStyle.</text>
<text text-anchor="middle" x="285.5" y="-7" font-family="Helvetica,sans-Serif" font-size="10.00">Position</text>
</a>
</g>
</g>
<!-- Node1&#45;&gt;Node8 -->
<g id="edge7_Node000001_Node000008" class="edge">
<title>Node1&#45;&gt;Node8</title>
<g id="a_edge7_Node000001_Node000008"><a xlink:title=" ">
<path fill="none" stroke="#63b8ff" d="M128.37,-68.94C152.26,-60.02 183.28,-48.61 211,-39 216.44,-37.11 222.13,-35.18 227.82,-33.28"/>
<polygon fill="#63b8ff" stroke="#63b8ff" points="228.98,-36.58 237.36,-30.11 226.77,-29.94 228.98,-36.58"/>
</a>
</g>
</g>
<!-- Node4 -->
<g id="Node000004" class="node">
<title>Node4</title>
<g id="a_Node000004"><a xlink:href="../../d7/d72/classTerraria_1_1UI_1_1UIElement_abd1eb4e746ccd221216dd5658d4607e7.html#abd1eb4e746ccd221216dd5658d4607e7" target="_top" xlink:title=" ">
<polygon fill="white" stroke="#666666" points="554.5,-164 405.5,-164 405.5,-134 554.5,-134 554.5,-164"/>
<text text-anchor="start" x="413.5" y="-152" font-family="Helvetica,sans-Serif" font-size="10.00">Terraria.UI.UIElement.Draw</text>
<text text-anchor="middle" x="480" y="-141" font-family="Helvetica,sans-Serif" font-size="10.00">Children</text>
</a>
</g>
</g>
<!-- Node3&#45;&gt;Node4 -->
<g id="edge3_Node000003_Node000004" class="edge">
<title>Node3&#45;&gt;Node4</title>
<g id="a_edge3_Node000003_Node000004"><a xlink:title=" ">
<path fill="none" stroke="#63b8ff" d="M329.22,-115.54C350.64,-120.33 377.24,-126.27 402.05,-131.81"/>
<polygon fill="#63b8ff" stroke="#63b8ff" points="401.3,-135.23 411.82,-133.99 402.82,-128.4 401.3,-135.23"/>
</a>
</g>
</g>
<!-- Node5 -->
<g id="Node000005" class="node">
<title>Node5</title>
<g id="a_Node000005"><a xlink:href="../../d7/d72/classTerraria_1_1UI_1_1UIElement_a6edec23db5eb625fc326f95e844cb68c.html#a6edec23db5eb625fc326f95e844cb68c" target="_top" xlink:title=" ">
<polygon fill="white" stroke="#666666" points="564,-115.5 396,-115.5 396,-96.5 564,-96.5 564,-115.5"/>
<text text-anchor="middle" x="480" y="-103.5" font-family="Helvetica,sans-Serif" font-size="10.00">Terraria.UI.UIElement.DrawSelf</text>
</a>
</g>
</g>
<!-- Node3&#45;&gt;Node5 -->
<g id="edge4_Node000003_Node000005" class="edge">
<title>Node3&#45;&gt;Node5</title>
<g id="a_edge4_Node000003_Node000005"><a xlink:title=" ">
<path fill="none" stroke="#63b8ff" d="M360.1,-106C368.49,-106 377.13,-106 385.73,-106"/>
<polygon fill="#63b8ff" stroke="#63b8ff" points="385.8,-109.5 395.8,-106 385.8,-102.5 385.8,-109.5"/>
</a>
</g>
</g>
<!-- Node6 -->
<g id="Node000006" class="node">
<title>Node6</title>
<g id="a_Node000006"><a xlink:href="../../d7/d72/classTerraria_1_1UI_1_1UIElement_afb84cbf07b70e4953ade34b6d01c4738.html#afb84cbf07b70e4953ade34b6d01c4738" target="_top" xlink:title=" ">
<polygon fill="white" stroke="#666666" points="550.5,-78 409.5,-78 409.5,-48 550.5,-48 550.5,-78"/>
<text text-anchor="start" x="417.5" y="-66" font-family="Helvetica,sans-Serif" font-size="10.00">Terraria.UI.UIElement.Get</text>
<text text-anchor="middle" x="480" y="-55" font-family="Helvetica,sans-Serif" font-size="10.00">ClippingRectangle</text>
</a>
</g>
</g>
<!-- Node3&#45;&gt;Node6 -->
<g id="edge5_Node000003_Node000006" class="edge">
<title>Node3&#45;&gt;Node6</title>
<g id="a_edge5_Node000003_Node000006"><a xlink:title=" ">
<path fill="none" stroke="#63b8ff" d="M329.22,-96.46C350.64,-91.67 377.24,-85.73 402.05,-80.19"/>
<polygon fill="#63b8ff" stroke="#63b8ff" points="402.82,-83.6 411.82,-78.01 401.3,-76.77 402.82,-83.6"/>
</a>
</g>
</g>
</g>
</svg>

<g id="navigator" transform="translate(0 0)" fill="#404254">
  <rect fill="#f2f5e9" fill-opacity="0.5" stroke="#606060" stroke-width=".5" x="0" y="0" width="60" height="60"/>
  <use id="zoomplus" xlink:href="#zoomPlus" x="17" y="9" onmousedown="handleZoom(evt,'in')"/>
  <use id="zoomminus" xlink:href="#zoomMin" x="42" y="9" onmousedown="handleZoom(evt,'out')"/>
  <use id="reset" xlink:href="#resetDef" x="30" y="36" onmousedown="handleReset()"/>
   <use id="arrowup" xlink:href="#arrowUp" x="0" y="0" onmousedown="handlePan(0,-1)"/>
  <use id="arrowright" xlink:href="#arrowRight" x="0" y="0" onmousedown="handlePan(1,0)"/>
  <use id="arrowdown" xlink:href="#arrowDown" x="0" y="0" onmousedown="handlePan(0,1)"/>
  <use id="arrowleft" xlink:href="#arrowLeft" x="0" y="0" onmousedown="handlePan(-1,0)"/>
</g>
<svg viewBox="0 0 15 15" width="100%" height="30px" preserveAspectRatio="xMaxYMin meet">
 <g id="arrow_out" transform="scale(0.3 0.3)">
  <a xlink:href="classTerraria_1_1ModLoader_1_1UI_1_1Elements_1_1UIGrid_1_1UIInnerList_a8a12418064a939b4b5b9c8a83afca8d4_a8a12418064a939b4b5b9c8a83afca8d4_cgraph_org.svg" target="_base">
   <rect id="button" ry="5" rx="5" y="6" x="6" height="38" width="38"
        fill="#f2f5e9" fill-opacity="0.5" stroke="#606060" stroke-width="1.0"/>
   <path id="arrow"
     d="M 11.500037,31.436501 C 11.940474,20.09759 22.043105,11.32322 32.158766,21.979434 L 37.068811,17.246167 C 37.068811,17.246167 37.088388,32 37.088388,32 L 22.160133,31.978069 C 22.160133,31.978069 26.997745,27.140456 26.997745,27.140456 C 18.528582,18.264221 13.291696,25.230495 11.500037,31.436501 z"
     style="fill:#404040;"/>
  </a>
 </g>
</svg>

<style type='text/css'>
<![CDATA[
[data-mouse-over-selected='false'] { opacity: 0.7; }
[data-mouse-over-selected='true']  { opacity: 1.0; }
]]>
</style>
<script type="application/ecmascript"><![CDATA[
document.addEventListener('DOMContentLoaded', (event) => {
  highlightEdges();
  highlightAdjacentNodes();
});
]]></script>
</svg>
