<?xml version="1.0" encoding="UTF-8" standalone="no"?>
<!DOCTYPE svg PUBLIC "-//W3C//DTD SVG 1.1//EN"
 "http://www.w3.org/Graphics/SVG/1.1/DTD/svg11.dtd">
<!-- Generated by graphviz version 2.43.0 (0)
 -->
<!-- Title: Terraria.GameContent.UI.Elements.UIWorldListItem.DeleteMouseOver Pages: 1 -->
<!--zoomable 142 -->

<svg id="main" version="1.1" xmlns="http://www.w3.org/2000/svg" xmlns:xlink="http://www.w3.org/1999/xlink" xml:space="preserve" onload="init(evt)">
<style type="text/css"><![CDATA[
.node, .edge {opacity: 0.7;}
.node.selected, .edge.selected {opacity: 1;}
.edge:hover path { stroke: red; }
.edge:hover polygon { stroke: red; fill: red; }
]]></style>

<defs>
  <circle id="rim" cx="0" cy="0" r="7"/>
  <circle id="rim2" cx="0" cy="0" r="3.5"/>
  <g id="zoomPlus">
    <use xlink:href="#rim" fill="#404040"><set attributeName="fill" to="#808080" begin="zoomplus.mouseover" end="zoomplus.mouseout"/></use>
    <path d="M-4,0h8M0,-4v8" fill="none" stroke="white" stroke-width="1.5" pointer-events="none"/>
  </g>
  <g id="zoomMin">
    <use xlink:href="#rim" fill="#404040"><set attributeName="fill" to="#808080" begin="zoomminus.mouseover" end="zoomminus.mouseout"/></use>
    <path d="M-4,0h8" fill="none" stroke="white" stroke-width="1.5" pointer-events="none"/>
  </g>
  <g id="arrowUp" transform="translate(30 24)">
    <use xlink:href="#rim"/>
    <path pointer-events="none" fill="none" stroke="white" stroke-width="1.5" d="M0,-3.0v7 M-2.5,-0.5L0,-3.0L2.5,-0.5"/>
  </g>
  <g id="arrowRight" transform="rotate(90) translate(36 -43)">
    <use xlink:href="#rim"/>
    <path pointer-events="none" fill="none" stroke="white" stroke-width="1.5" d="M0,-3.0v7 M-2.5,-0.5L0,-3.0L2.5,-0.5"/>
  </g>
  <g id="arrowDown" transform="rotate(180) translate(-30 -48)">
    <use xlink:href="#rim"/>
    <path pointer-events="none" fill="none" stroke="white" stroke-width="1.5" d="M0,-3.0v7 M-2.5,-0.5L0,-3.0L2.5,-0.5"/>
  </g>
  <g id="arrowLeft" transform="rotate(270) translate(-36 17)">
    <use xlink:href="#rim"/>
    <path pointer-events="none" fill="none" stroke="white" stroke-width="1.5" d="M0,-3.0v7 M-2.5,-0.5L0,-3.0L2.5,-0.5"/>
  </g>
  <g id="resetDef">
    <use xlink:href="#rim2" fill="#404040"><set attributeName="fill" to="#808080" begin="reset.mouseover" end="reset.mouseout"/></use>
  </g>
</defs>
<script type="application/ecmascript">
var viewWidth = 1200;
var viewHeight = 142;
var sectionId = 'dynsection-0';
</script>
<script type="application/ecmascript" xlink:href="../../svg.min.js"/>
<svg id="graph" class="graph">
<g id="viewport">
<title>Terraria.GameContent.UI.Elements.UIWorldListItem.DeleteMouseOver</title>
<!-- Node1 -->
<g id="Node000001" class="node">
<title>Node1</title>
<g id="a_Node000001"><a xlink:title=" ">
<polygon fill="#999999" stroke="#666666" points="179,-97 0,-97 0,-56 179,-56 179,-97"/>
<text text-anchor="start" x="8" y="-85" font-family="Helvetica,sans-Serif" font-size="10.00">Terraria.GameContent.UI.</text>
<text text-anchor="start" x="8" y="-74" font-family="Helvetica,sans-Serif" font-size="10.00">Elements.UIWorldListItem.Delete</text>
<text text-anchor="middle" x="89.5" y="-63" font-family="Helvetica,sans-Serif" font-size="10.00">MouseOver</text>
</a>
</g>
</g>
<!-- Node2 -->
<g id="Node000002" class="node">
<title>Node2</title>
<g id="a_Node000002"><a xlink:href="../../d4/d8f/classTerraria_1_1Localization_1_1Language_ae4636a4800b9ecbaa498954520462f78.html#ae4636a4800b9ecbaa498954520462f78" target="_top" xlink:title="Retrieves the text value for a specified localization key. The text returned will be for the currentl...">
<polygon fill="white" stroke="#666666" points="383,-115.5 215,-115.5 215,-85.5 383,-85.5 383,-115.5"/>
<text text-anchor="start" x="223" y="-103.5" font-family="Helvetica,sans-Serif" font-size="10.00">Terraria.Localization.Language.</text>
<text text-anchor="middle" x="299" y="-92.5" font-family="Helvetica,sans-Serif" font-size="10.00">GetTextValue</text>
</a>
</g>
</g>
<!-- Node1&#45;&gt;Node2 -->
<g id="edge1_Node000001_Node000002" class="edge">
<title>Node1&#45;&gt;Node2</title>
<g id="a_edge1_Node000001_Node000002"><a xlink:title=" ">
<path fill="none" stroke="#63b8ff" d="M179.1,-86.75C187.65,-87.74 196.34,-88.74 204.93,-89.74"/>
<polygon fill="#63b8ff" stroke="#63b8ff" points="204.62,-93.22 214.96,-90.9 205.43,-86.27 204.62,-93.22"/>
</a>
</g>
</g>
<!-- Node3 -->
<g id="Node000003" class="node">
<title>Node3</title>
<g id="a_Node000003"><a xlink:href="../../df/da8/classTerraria_1_1GameContent_1_1UI_1_1Elements_1_1UIText_a3f27882b54715c7adb4e9859ec77c395.html#a3f27882b54715c7adb4e9859ec77c395" target="_top" xlink:title=" ">
<polygon fill="white" stroke="#666666" points="369,-67.5 229,-67.5 229,-37.5 369,-37.5 369,-67.5"/>
<text text-anchor="start" x="237" y="-55.5" font-family="Helvetica,sans-Serif" font-size="10.00">Terraria.GameContent.UI.</text>
<text text-anchor="middle" x="299" y="-44.5" font-family="Helvetica,sans-Serif" font-size="10.00">Elements.UIText.SetText</text>
</a>
</g>
</g>
<!-- Node1&#45;&gt;Node3 -->
<g id="edge2_Node000001_Node000003" class="edge">
<title>Node1&#45;&gt;Node3</title>
<g id="a_edge2_Node000001_Node000003"><a xlink:title=" ">
<path fill="none" stroke="#63b8ff" d="M179.1,-66.25C192.23,-64.73 205.68,-63.18 218.6,-61.68"/>
<polygon fill="#63b8ff" stroke="#63b8ff" points="219.3,-65.13 228.83,-60.5 218.5,-58.17 219.3,-65.13"/>
</a>
</g>
</g>
<!-- Node4 -->
<g id="Node000004" class="node">
<title>Node4</title>
<g id="a_Node000004"><a xlink:href="../../df/da8/classTerraria_1_1GameContent_1_1UI_1_1Elements_1_1UIText_a6b38a5021c0225460c802dc8376d39ac.html#a6b38a5021c0225460c802dc8376d39ac" target="_top" xlink:title=" ">
<polygon fill="white" stroke="#666666" points="592,-67.5 419,-67.5 419,-37.5 592,-37.5 592,-67.5"/>
<text text-anchor="start" x="427" y="-55.5" font-family="Helvetica,sans-Serif" font-size="10.00">Terraria.GameContent.UI.</text>
<text text-anchor="middle" x="505.5" y="-44.5" font-family="Helvetica,sans-Serif" font-size="10.00">Elements.UIText.InternalSetText</text>
</a>
</g>
</g>
<!-- Node3&#45;&gt;Node4 -->
<g id="edge3_Node000003_Node000004" class="edge">
<title>Node3&#45;&gt;Node4</title>
<g id="a_edge3_Node000003_Node000004"><a xlink:title=" ">
<path fill="none" stroke="#63b8ff" d="M369.23,-52.5C381.88,-52.5 395.29,-52.5 408.55,-52.5"/>
<polygon fill="#63b8ff" stroke="#63b8ff" points="408.65,-56 418.65,-52.5 408.65,-49 408.65,-56"/>
</a>
</g>
</g>
<!-- Node5 -->
<g id="Node000005" class="node">
<title>Node5</title>
<g id="a_Node000005"><a xlink:href="../../d7/d72/classTerraria_1_1UI_1_1UIElement_a5ad03f5ce0e776511a3b7e4a29e16caf.html#a5ad03f5ce0e776511a3b7e4a29e16caf" target="_top" xlink:title=" ">
<polygon fill="white" stroke="#666666" points="781.5,-133.5 640.5,-133.5 640.5,-103.5 781.5,-103.5 781.5,-133.5"/>
<text text-anchor="start" x="648.5" y="-121.5" font-family="Helvetica,sans-Serif" font-size="10.00">Terraria.UI.UIElement.Get</text>
<text text-anchor="middle" x="711" y="-110.5" font-family="Helvetica,sans-Serif" font-size="10.00">InnerDimensions</text>
</a>
</g>
</g>
<!-- Node4&#45;&gt;Node5 -->
<g id="edge4_Node000004_Node000005" class="edge">
<title>Node4&#45;&gt;Node5</title>
<g id="a_edge4_Node000004_Node000005"><a xlink:title=" ">
<path fill="none" stroke="#63b8ff" d="M548.51,-67.58C571.83,-75.81 601.42,-86.02 628,-94.5 634.12,-96.45 640.52,-98.43 646.92,-100.37"/>
<polygon fill="#63b8ff" stroke="#63b8ff" points="646.37,-103.86 656.95,-103.38 648.38,-97.15 646.37,-103.86"/>
</a>
</g>
</g>
<!-- Node6 -->
<g id="Node000006" class="node">
<title>Node6</title>
<g id="a_Node000006"><a xlink:href="../../d7/df6/classTerraria_1_1UI_1_1Chat_1_1ChatManager_ad0daac781e8696c59955af964519db95.html#ad0daac781e8696c59955af964519db95" target="_top" xlink:title=" ">
<polygon fill="white" stroke="#666666" points="792.5,-67.5 629.5,-67.5 629.5,-37.5 792.5,-37.5 792.5,-67.5"/>
<text text-anchor="start" x="637.5" y="-55.5" font-family="Helvetica,sans-Serif" font-size="10.00">Terraria.UI.Chat.ChatManager.</text>
<text text-anchor="middle" x="711" y="-44.5" font-family="Helvetica,sans-Serif" font-size="10.00">GetStringSize</text>
</a>
</g>
</g>
<!-- Node4&#45;&gt;Node6 -->
<g id="edge5_Node000004_Node000006" class="edge">
<title>Node4&#45;&gt;Node6</title>
<g id="a_edge5_Node000004_Node000006"><a xlink:title=" ">
<path fill="none" stroke="#63b8ff" d="M592.21,-52.5C601.13,-52.5 610.22,-52.5 619.19,-52.5"/>
<polygon fill="#63b8ff" stroke="#63b8ff" points="619.26,-56 629.26,-52.5 619.26,-49 619.26,-56"/>
</a>
</g>
</g>
<!-- Node10 -->
<g id="Node000010" class="node">
<title>Node10</title>
<g id="a_Node000010"><a xlink:href="../../d8/d74/structTerraria_1_1UI_1_1StyleDimension_a93e6acf229427c6435d7ee83958efba0.html#a93e6acf229427c6435d7ee83958efba0" target="_top" xlink:title=" ">
<polygon fill="white" stroke="#666666" points="794,-19 628,-19 628,0 794,0 794,-19"/>
<text text-anchor="middle" x="711" y="-7" font-family="Helvetica,sans-Serif" font-size="10.00">Terraria.UI.StyleDimension.Set</text>
</a>
</g>
</g>
<!-- Node4&#45;&gt;Node10 -->
<g id="edge10_Node000004_Node000010" class="edge">
<title>Node4&#45;&gt;Node10</title>
<g id="a_edge10_Node000004_Node000010"><a xlink:title=" ">
<path fill="none" stroke="#63b8ff" d="M577.67,-37.46C603.05,-32.1 631.22,-26.15 655.02,-21.12"/>
<polygon fill="#63b8ff" stroke="#63b8ff" points="655.88,-24.51 664.94,-19.02 654.43,-17.67 655.88,-24.51"/>
</a>
</g>
</g>
<!-- Node6&#45;&gt;Node6 -->
<g id="edge6_Node000006_Node000006" class="edge">
<title>Node6&#45;&gt;Node6</title>
<g id="a_edge6_Node000006_Node000006"><a xlink:title=" ">
<path fill="none" stroke="#63b8ff" d="M675.84,-67.78C668.03,-76.91 679.75,-85.5 711,-85.5 729.55,-85.5 741.22,-82.47 746.01,-78.1"/>
<polygon fill="#63b8ff" stroke="#63b8ff" points="749.51,-77.82 746.16,-67.78 742.51,-77.72 749.51,-77.82"/>
</a>
</g>
</g>
<!-- Node7 -->
<g id="Node000007" class="node">
<title>Node7</title>
<g id="a_Node000007"><a xlink:href="../../d7/df6/classTerraria_1_1UI_1_1Chat_1_1ChatManager_af687cd1f70060817f5984ef2b554cf40.html#af687cd1f70060817f5984ef2b554cf40" target="_top" xlink:title=" ">
<polygon fill="white" stroke="#666666" points="993,-67.5 830,-67.5 830,-37.5 993,-37.5 993,-67.5"/>
<text text-anchor="start" x="838" y="-55.5" font-family="Helvetica,sans-Serif" font-size="10.00">Terraria.UI.Chat.ChatManager.</text>
<text text-anchor="middle" x="911.5" y="-44.5" font-family="Helvetica,sans-Serif" font-size="10.00">ParseMessage</text>
</a>
</g>
</g>
<!-- Node6&#45;&gt;Node7 -->
<g id="edge7_Node000006_Node000007" class="edge">
<title>Node6&#45;&gt;Node7</title>
<g id="a_edge7_Node000006_Node000007"><a xlink:title=" ">
<path fill="none" stroke="#63b8ff" d="M792.74,-52.5C801.63,-52.5 810.72,-52.5 819.73,-52.5"/>
<polygon fill="#63b8ff" stroke="#63b8ff" points="819.83,-56 829.83,-52.5 819.83,-49 819.83,-56"/>
</a>
</g>
</g>
<!-- Node8 -->
<g id="Node000008" class="node">
<title>Node8</title>
<g id="a_Node000008"><a xlink:href="../../d7/df6/classTerraria_1_1UI_1_1Chat_1_1ChatManager_ad57d7ce4542b2df5cd9ff15c86855f3f.html#ad57d7ce4542b2df5cd9ff15c86855f3f" target="_top" xlink:title=" ">
<polygon fill="white" stroke="#666666" points="1192,-91.5 1029,-91.5 1029,-61.5 1192,-61.5 1192,-91.5"/>
<text text-anchor="start" x="1037" y="-79.5" font-family="Helvetica,sans-Serif" font-size="10.00">Terraria.UI.Chat.ChatManager.</text>
<text text-anchor="middle" x="1110.5" y="-68.5" font-family="Helvetica,sans-Serif" font-size="10.00">GetHandler</text>
</a>
</g>
</g>
<!-- Node7&#45;&gt;Node8 -->
<g id="edge8_Node000007_Node000008" class="edge">
<title>Node7&#45;&gt;Node8</title>
<g id="a_edge8_Node000007_Node000008"><a xlink:title=" ">
<path fill="none" stroke="#63b8ff" d="M993.2,-62.33C1001.67,-63.36 1010.33,-64.42 1018.91,-65.46"/>
<polygon fill="#63b8ff" stroke="#63b8ff" points="1018.58,-68.95 1028.93,-66.68 1019.43,-62 1018.58,-68.95"/>
</a>
</g>
</g>
<!-- Node9 -->
<g id="Node000009" class="node">
<title>Node9</title>
<g id="a_Node000009"><a xlink:href="../../dc/d25/interfaceTerraria_1_1UI_1_1Chat_1_1ITagHandler_aa5a15f340434dc9990b2b10b306642a6.html#aa5a15f340434dc9990b2b10b306642a6" target="_top" xlink:title=" ">
<polygon fill="white" stroke="#666666" points="1188,-43.5 1033,-43.5 1033,-13.5 1188,-13.5 1188,-43.5"/>
<text text-anchor="start" x="1041" y="-31.5" font-family="Helvetica,sans-Serif" font-size="10.00">Terraria.UI.Chat.ITagHandler.</text>
<text text-anchor="middle" x="1110.5" y="-20.5" font-family="Helvetica,sans-Serif" font-size="10.00">Parse</text>
</a>
</g>
</g>
<!-- Node7&#45;&gt;Node9 -->
<g id="edge9_Node000007_Node000009" class="edge">
<title>Node7&#45;&gt;Node9</title>
<g id="a_edge9_Node000007_Node000009"><a xlink:title=" ">
<path fill="none" stroke="#63b8ff" d="M993.2,-42.67C1002.9,-41.49 1012.83,-40.28 1022.62,-39.08"/>
<polygon fill="#63b8ff" stroke="#63b8ff" points="1023.24,-42.54 1032.74,-37.85 1022.39,-35.59 1023.24,-42.54"/>
</a>
</g>
</g>
</g>
</svg>

<g id="navigator" transform="translate(0 0)" fill="#404254">
  <rect fill="#f2f5e9" fill-opacity="0.5" stroke="#606060" stroke-width=".5" x="0" y="0" width="60" height="60"/>
  <use id="zoomplus" xlink:href="#zoomPlus" x="17" y="9" onmousedown="handleZoom(evt,'in')"/>
  <use id="zoomminus" xlink:href="#zoomMin" x="42" y="9" onmousedown="handleZoom(evt,'out')"/>
  <use id="reset" xlink:href="#resetDef" x="30" y="36" onmousedown="handleReset()"/>
   <use id="arrowup" xlink:href="#arrowUp" x="0" y="0" onmousedown="handlePan(0,-1)"/>
  <use id="arrowright" xlink:href="#arrowRight" x="0" y="0" onmousedown="handlePan(1,0)"/>
  <use id="arrowdown" xlink:href="#arrowDown" x="0" y="0" onmousedown="handlePan(0,1)"/>
  <use id="arrowleft" xlink:href="#arrowLeft" x="0" y="0" onmousedown="handlePan(-1,0)"/>
</g>
<svg viewBox="0 0 15 15" width="100%" height="30px" preserveAspectRatio="xMaxYMin meet">
 <g id="arrow_out" transform="scale(0.3 0.3)">
  <a xlink:href="classTerraria_1_1GameContent_1_1UI_1_1Elements_1_1UIWorldListItem_a32ae6c3bbc881e2b8aa81562bbfc0082_a32ae6c3bbc881e2b8aa81562bbfc0082_cgraph_org.svg" target="_base">
   <rect id="button" ry="5" rx="5" y="6" x="6" height="38" width="38"
        fill="#f2f5e9" fill-opacity="0.5" stroke="#606060" stroke-width="1.0"/>
   <path id="arrow"
     d="M 11.500037,31.436501 C 11.940474,20.09759 22.043105,11.32322 32.158766,21.979434 L 37.068811,17.246167 C 37.068811,17.246167 37.088388,32 37.088388,32 L 22.160133,31.978069 C 22.160133,31.978069 26.997745,27.140456 26.997745,27.140456 C 18.528582,18.264221 13.291696,25.230495 11.500037,31.436501 z"
     style="fill:#404040;"/>
  </a>
 </g>
</svg>

<style type='text/css'>
<![CDATA[
[data-mouse-over-selected='false'] { opacity: 0.7; }
[data-mouse-over-selected='true']  { opacity: 1.0; }
]]>
</style>
<script type="application/ecmascript"><![CDATA[
document.addEventListener('DOMContentLoaded', (event) => {
  highlightEdges();
  highlightAdjacentNodes();
});
]]></script>
</svg>
