<?xml version="1.0" encoding="UTF-8" standalone="no"?>
<!DOCTYPE svg PUBLIC "-//W3C//DTD SVG 1.1//EN"
 "http://www.w3.org/Graphics/SVG/1.1/DTD/svg11.dtd">
<!-- Generated by graphviz version 2.43.0 (0)
 -->
<!-- Title: Terraria.ModLoader.MapEntry Pages: 1 -->
<!--zoomable 661 -->

<svg id="main" version="1.1" xmlns="http://www.w3.org/2000/svg" xmlns:xlink="http://www.w3.org/1999/xlink" xml:space="preserve" onload="init(evt)">
<style type="text/css"><![CDATA[
.node, .edge {opacity: 0.7;}
.node.selected, .edge.selected {opacity: 1;}
.edge:hover path { stroke: red; }
.edge:hover polygon { stroke: red; fill: red; }
]]></style>

<defs>
  <circle id="rim" cx="0" cy="0" r="7"/>
  <circle id="rim2" cx="0" cy="0" r="3.5"/>
  <g id="zoomPlus">
    <use xlink:href="#rim" fill="#404040"><set attributeName="fill" to="#808080" begin="zoomplus.mouseover" end="zoomplus.mouseout"/></use>
    <path d="M-4,0h8M0,-4v8" fill="none" stroke="white" stroke-width="1.5" pointer-events="none"/>
  </g>
  <g id="zoomMin">
    <use xlink:href="#rim" fill="#404040"><set attributeName="fill" to="#808080" begin="zoomminus.mouseover" end="zoomminus.mouseout"/></use>
    <path d="M-4,0h8" fill="none" stroke="white" stroke-width="1.5" pointer-events="none"/>
  </g>
  <g id="arrowUp" transform="translate(30 24)">
    <use xlink:href="#rim"/>
    <path pointer-events="none" fill="none" stroke="white" stroke-width="1.5" d="M0,-3.0v7 M-2.5,-0.5L0,-3.0L2.5,-0.5"/>
  </g>
  <g id="arrowRight" transform="rotate(90) translate(36 -43)">
    <use xlink:href="#rim"/>
    <path pointer-events="none" fill="none" stroke="white" stroke-width="1.5" d="M0,-3.0v7 M-2.5,-0.5L0,-3.0L2.5,-0.5"/>
  </g>
  <g id="arrowDown" transform="rotate(180) translate(-30 -48)">
    <use xlink:href="#rim"/>
    <path pointer-events="none" fill="none" stroke="white" stroke-width="1.5" d="M0,-3.0v7 M-2.5,-0.5L0,-3.0L2.5,-0.5"/>
  </g>
  <g id="arrowLeft" transform="rotate(270) translate(-36 17)">
    <use xlink:href="#rim"/>
    <path pointer-events="none" fill="none" stroke="white" stroke-width="1.5" d="M0,-3.0v7 M-2.5,-0.5L0,-3.0L2.5,-0.5"/>
  </g>
  <g id="resetDef">
    <use xlink:href="#rim2" fill="#404040"><set attributeName="fill" to="#808080" begin="reset.mouseover" end="reset.mouseout"/></use>
  </g>
</defs>
<script type="application/ecmascript">
var viewWidth = 468;
var viewHeight = 661;
var sectionId = 'dynsection-0';
</script>
<script type="application/ecmascript" xlink:href="../../svg.min.js"/>
<svg id="graph" class="graph">
<g id="viewport">
<title>Terraria.ModLoader.MapEntry</title>
<!-- Node1 -->
<g id="Node000001" class="node">
<title>Node1</title>
<g id="a_Node000001"><a xlink:title=" ">
<polygon fill="#999999" stroke="transparent" points="266,-134 113,-134 113,0 266,0 266,-134"/>
<text text-anchor="start" x="118.5" y="-122" font-family="Helvetica,sans-Serif" font-size="10.00">Terraria.ModLoader.MapEntry</text>
<text text-anchor="start" x="188" y="-107" font-family="Helvetica,sans-Serif" font-size="10.00"> </text>
<text text-anchor="start" x="118" y="-92" font-family="Helvetica,sans-Serif" font-size="10.00">~</text>
<text text-anchor="start" x="131.5" y="-92" font-family="Helvetica,sans-Serif" font-size="10.00">MapEntry(Color color,</text>
<text text-anchor="start" x="131.5" y="-81" font-family="Helvetica,sans-Serif" font-size="10.00"> LocalizedText name=null)</text>
<text text-anchor="start" x="118" y="-66" font-family="Helvetica,sans-Serif" font-size="10.00">~</text>
<text text-anchor="start" x="131.5" y="-66" font-family="Helvetica,sans-Serif" font-size="10.00">MapEntry(Color color,</text>
<text text-anchor="start" x="131.5" y="-55" font-family="Helvetica,sans-Serif" font-size="10.00"> LocalizedText name,</text>
<text text-anchor="start" x="131.5" y="-44" font-family="Helvetica,sans-Serif" font-size="10.00"> Func&lt; string, int, int,</text>
<text text-anchor="start" x="131.5" y="-33" font-family="Helvetica,sans-Serif" font-size="10.00"> string &gt; getName)</text>
<text text-anchor="start" x="120.5" y="-18" font-family="Helvetica,sans-Serif" font-size="10.00">&#45;</text>
<text text-anchor="start" x="131.5" y="-18" font-family="Helvetica,sans-Serif" font-size="10.00">static string sameName</text>
<text text-anchor="start" x="131.5" y="-7" font-family="Helvetica,sans-Serif" font-size="10.00">(string name, int x, int y)</text>
<polygon fill="#666666" stroke="#666666" points="113.5,-117 113.5,-117 266.5,-117 266.5,-117 113.5,-117"/>
<polygon fill="#666666" stroke="#666666" points="113.5,-102 113.5,-102 266.5,-102 266.5,-102 113.5,-102"/>
<polygon fill="none" stroke="#666666" points="113,0 113,-134 266,-134 266,0 113,0"/>
</a>
</g>
</g>
<!-- Node2 -->
<g id="Node000002" class="node">
<title>Node2</title>
<g id="a_Node000002"><a xlink:title=" ">
<polygon fill="white" stroke="transparent" points="74.5,-388 38.5,-388 38.5,-339 74.5,-339 74.5,-388"/>
<text text-anchor="start" x="43.5" y="-375.5" font-family="Helvetica,sans-Serif" font-size="10.00">Color</text>
<text text-anchor="start" x="54.5" y="-360.5" font-family="Helvetica,sans-Serif" font-size="10.00"> </text>
<text text-anchor="start" x="54.5" y="-345.5" font-family="Helvetica,sans-Serif" font-size="10.00"> </text>
<polygon fill="#666666" stroke="#666666" points="38.5,-370.5 38.5,-370.5 74.5,-370.5 74.5,-370.5 38.5,-370.5"/>
<polygon fill="#666666" stroke="#666666" points="38.5,-355.5 38.5,-355.5 74.5,-355.5 74.5,-355.5 38.5,-355.5"/>
<polygon fill="none" stroke="#666666" points="38.5,-339 38.5,-388 74.5,-388 74.5,-339 38.5,-339"/>
</a>
</g>
</g>
<!-- Node2&#45;&gt;Node1 -->
<g id="edge1_Node000001_Node000002" class="edge">
<title>Node2&#45;&gt;Node1</title>
<g id="a_edge1_Node000001_Node000002"><a xlink:title=" ">
<path fill="none" stroke="#63b8ff" d="M55.63,-338.85C55.26,-302.91 58.25,-233.19 83.5,-181 89.88,-167.82 98.34,-155.13 107.7,-143.32"/>
<polygon fill="none" stroke="#63b8ff" points="107.73,-143.29 108.48,-136.12 115.39,-134.05 114.64,-141.22 107.73,-143.29"/>
</a>
</g>
<text text-anchor="middle" x="119.5" y="-155" font-family="Helvetica,sans-Serif" font-size="10.00" fill="grey"> ~color</text>
</g>
<!-- Node3 -->
<g id="Node000003" class="node">
<title>Node3</title>
<g id="a_Node000003"><a xlink:href="../../d5/d73/classTerraria_1_1Localization_1_1LocalizedText.html" target="_top" xlink:title="Contains the localization value corresponding to a key for the current game language....">
<polygon fill="white" stroke="transparent" points="286.5,-546 92.5,-546 92.5,-181 286.5,-181 286.5,-546"/>
<text text-anchor="start" x="105.5" y="-533.5" font-family="Helvetica,sans-Serif" font-size="10.00">Terraria.Localization.LocalizedText</text>
<text text-anchor="start" x="96.5" y="-518.5" font-family="Helvetica,sans-Serif" font-size="10.00">+</text>
<text text-anchor="start" x="109.5" y="-518.5" font-family="Helvetica,sans-Serif" font-size="10.00">string Value</text>
<text text-anchor="start" x="96.5" y="-503.5" font-family="Helvetica,sans-Serif" font-size="10.00">+</text>
<text text-anchor="start" x="109.5" y="-503.5" font-family="Helvetica,sans-Serif" font-size="10.00">object[] BoundArgs</text>
<text text-anchor="start" x="96.5" y="-488.5" font-family="Helvetica,sans-Serif" font-size="10.00">+</text>
<text text-anchor="start" x="109.5" y="-488.5" font-family="Helvetica,sans-Serif" font-size="10.00">string FormatWith(object obj)</text>
<text text-anchor="start" x="96.5" y="-473.5" font-family="Helvetica,sans-Serif" font-size="10.00">+</text>
<text text-anchor="start" x="109.5" y="-473.5" font-family="Helvetica,sans-Serif" font-size="10.00">bool CanFormatWith</text>
<text text-anchor="start" x="109.5" y="-462.5" font-family="Helvetica,sans-Serif" font-size="10.00">(object obj)</text>
<text text-anchor="start" x="96.5" y="-447.5" font-family="Helvetica,sans-Serif" font-size="10.00">+</text>
<text text-anchor="start" x="109.5" y="-447.5" font-family="Helvetica,sans-Serif" font-size="10.00">NetworkText ToNetworkText()</text>
<text text-anchor="start" x="96.5" y="-432.5" font-family="Helvetica,sans-Serif" font-size="10.00">+</text>
<text text-anchor="start" x="109.5" y="-432.5" font-family="Helvetica,sans-Serif" font-size="10.00">NetworkText ToNetworkText</text>
<text text-anchor="start" x="109.5" y="-421.5" font-family="Helvetica,sans-Serif" font-size="10.00">(params object[] substitutions)</text>
<text text-anchor="start" x="96.5" y="-406.5" font-family="Helvetica,sans-Serif" font-size="10.00">+</text>
<text text-anchor="start" x="109.5" y="-406.5" font-family="Helvetica,sans-Serif" font-size="10.00">override string ToString()</text>
<text text-anchor="start" x="96.5" y="-391.5" font-family="Helvetica,sans-Serif" font-size="10.00">+</text>
<text text-anchor="start" x="109.5" y="-391.5" font-family="Helvetica,sans-Serif" font-size="10.00">string Format(params</text>
<text text-anchor="start" x="109.5" y="-380.5" font-family="Helvetica,sans-Serif" font-size="10.00"> object[] args)</text>
<text text-anchor="start" x="96.5" y="-365.5" font-family="Helvetica,sans-Serif" font-size="10.00">+</text>
<text text-anchor="start" x="109.5" y="-365.5" font-family="Helvetica,sans-Serif" font-size="10.00">LocalizedText WithFormat</text>
<text text-anchor="start" x="109.5" y="-354.5" font-family="Helvetica,sans-Serif" font-size="10.00">Args(params object[] args)</text>
<text text-anchor="start" x="96.5" y="-339.5" font-family="Helvetica,sans-Serif" font-size="10.00">+</text>
<text text-anchor="start" x="109.5" y="-339.5" font-family="Helvetica,sans-Serif" font-size="10.00">static operator string</text>
<text text-anchor="start" x="109.5" y="-328.5" font-family="Helvetica,sans-Serif" font-size="10.00">(LocalizedText text)</text>
<text text-anchor="start" x="96.5" y="-313.5" font-family="Helvetica,sans-Serif" font-size="10.00">+</text>
<text text-anchor="start" x="109.5" y="-313.5" font-family="Helvetica,sans-Serif" font-size="10.00">static int CardinalPlural</text>
<text text-anchor="start" x="109.5" y="-302.5" font-family="Helvetica,sans-Serif" font-size="10.00">Rule(GameCulture culture,</text>
<text text-anchor="start" x="109.5" y="-291.5" font-family="Helvetica,sans-Serif" font-size="10.00"> int count)</text>
<text text-anchor="start" x="96.5" y="-276.5" font-family="Helvetica,sans-Serif" font-size="10.00">+</text>
<text text-anchor="start" x="109.5" y="-276.5" font-family="Helvetica,sans-Serif" font-size="10.00">static string ApplyPluralization</text>
<text text-anchor="start" x="109.5" y="-265.5" font-family="Helvetica,sans-Serif" font-size="10.00">(string value, params object[] args)</text>
<text text-anchor="start" x="96.5" y="-250.5" font-family="Helvetica,sans-Serif" font-size="10.00">~</text>
<text text-anchor="start" x="109.5" y="-250.5" font-family="Helvetica,sans-Serif" font-size="10.00">LocalizedText(string</text>
<text text-anchor="start" x="109.5" y="-239.5" font-family="Helvetica,sans-Serif" font-size="10.00"> key, string text)</text>
<text text-anchor="start" x="96.5" y="-224.5" font-family="Helvetica,sans-Serif" font-size="10.00">~</text>
<text text-anchor="start" x="109.5" y="-224.5" font-family="Helvetica,sans-Serif" font-size="10.00">void SetValue(string</text>
<text text-anchor="start" x="109.5" y="-213.5" font-family="Helvetica,sans-Serif" font-size="10.00"> text)</text>
<text text-anchor="start" x="96.5" y="-198.5" font-family="Helvetica,sans-Serif" font-size="10.00">~</text>
<text text-anchor="start" x="109.5" y="-198.5" font-family="Helvetica,sans-Serif" font-size="10.00">void BindArgs(object</text>
<text text-anchor="start" x="109.5" y="-187.5" font-family="Helvetica,sans-Serif" font-size="10.00">[] args)</text>
<polygon fill="#666666" stroke="#666666" points="92.5,-528.5 92.5,-528.5 286.5,-528.5 286.5,-528.5 92.5,-528.5"/>
<polygon fill="#666666" stroke="#666666" points="92.5,-498.5 92.5,-498.5 107.5,-498.5 107.5,-498.5 92.5,-498.5"/>
<polygon fill="#666666" stroke="#666666" points="107.5,-498.5 107.5,-498.5 286.5,-498.5 286.5,-498.5 107.5,-498.5"/>
<polygon fill="none" stroke="#666666" points="92.5,-181 92.5,-546 286.5,-546 286.5,-181 92.5,-181"/>
</a>
</g>
</g>
<!-- Node3&#45;&gt;Node1 -->
<g id="edge2_Node000001_Node000003" class="edge">
<title>Node3&#45;&gt;Node1</title>
<g id="a_edge2_Node000001_Node000003"><a xlink:title=" ">
<path fill="none" stroke="#63b8ff" d="M189.5,-180.6C189.5,-168.68 189.5,-157.08 189.5,-146.14"/>
<polygon fill="none" stroke="#63b8ff" points="189.5,-146.09 185.5,-140.09 189.5,-134.09 193.5,-140.09 189.5,-146.09"/>
</a>
</g>
<text text-anchor="middle" x="209.5" y="-155" font-family="Helvetica,sans-Serif" font-size="10.00" fill="grey"> ~name</text>
</g>
<!-- Node3&#45;&gt;Node3 -->
<g id="edge3_Node000003_Node000003" class="edge">
<title>Node3&#45;&gt;Node3</title>
<g id="a_edge3_Node000003_Node000003"><a xlink:title=" ">
<path fill="none" stroke="#63b8ff" d="M286.82,-395.99C297.56,-389.82 304.5,-378.99 304.5,-363.5 304.5,-353.33 301.51,-345.18 296.42,-339.02"/>
<polygon fill="none" stroke="#63b8ff" points="296.03,-338.7 288.86,-337.92 286.82,-331.01 293.99,-331.78 296.03,-338.7"/>
</a>
</g>
<text text-anchor="middle" x="326" y="-361" font-family="Helvetica,sans-Serif" font-size="10.00" fill="grey"> +Empty</text>
</g>
<!-- Node4 -->
<g id="Node000004" class="node">
<title>Node4</title>
<g id="a_Node000004"><a xlink:title=" ">
<polygon fill="white" stroke="transparent" points="71,-653 0,-653 0,-604 71,-604 71,-653"/>
<text text-anchor="start" x="5.5" y="-640.5" font-family="Helvetica,sans-Serif" font-size="10.00">static Regex</text>
<text text-anchor="start" x="34" y="-625.5" font-family="Helvetica,sans-Serif" font-size="10.00"> </text>
<text text-anchor="start" x="34" y="-610.5" font-family="Helvetica,sans-Serif" font-size="10.00"> </text>
<polygon fill="#666666" stroke="#666666" points="0.5,-635.5 0.5,-635.5 71.5,-635.5 71.5,-635.5 0.5,-635.5"/>
<polygon fill="#666666" stroke="#666666" points="0.5,-620.5 0.5,-620.5 71.5,-620.5 71.5,-620.5 0.5,-620.5"/>
<polygon fill="none" stroke="#666666" points="0,-604 0,-653 71,-653 71,-604 0,-604"/>
</a>
</g>
</g>
<!-- Node4&#45;&gt;Node3 -->
<g id="edge4_Node000003_Node000004" class="edge">
<title>Node4&#45;&gt;Node3</title>
<g id="a_edge4_Node000003_Node000004"><a xlink:title=" ">
<path fill="none" stroke="#63b8ff" d="M38.41,-603.91C40.95,-591.08 45.69,-575.52 54.5,-564 63.72,-551.95 72.92,-556.87 83.5,-546 83.59,-545.91 83.68,-545.81 83.77,-545.72"/>
<polygon fill="none" stroke="#63b8ff" points="83.97,-545.5 85.12,-538.38 92.13,-536.71 90.99,-543.82 83.97,-545.5"/>
</a>
</g>
<text text-anchor="middle" x="105" y="-572.5" font-family="Helvetica,sans-Serif" font-size="10.00" fill="grey"> &#45;_substitutionRegex</text>
</g>
<!-- Node5 -->
<g id="Node000005" class="node">
<title>Node5</title>
<g id="a_Node000005"><a xlink:title=" ">
<polygon fill="white" stroke="transparent" points="178.5,-653 140.5,-653 140.5,-604 178.5,-604 178.5,-653"/>
<text text-anchor="start" x="145.5" y="-640.5" font-family="Helvetica,sans-Serif" font-size="10.00">string</text>
<text text-anchor="start" x="157.5" y="-625.5" font-family="Helvetica,sans-Serif" font-size="10.00"> </text>
<text text-anchor="start" x="157.5" y="-610.5" font-family="Helvetica,sans-Serif" font-size="10.00"> </text>
<polygon fill="#666666" stroke="#666666" points="140.5,-635.5 140.5,-635.5 178.5,-635.5 178.5,-635.5 140.5,-635.5"/>
<polygon fill="#666666" stroke="#666666" points="140.5,-620.5 140.5,-620.5 178.5,-620.5 178.5,-620.5 140.5,-620.5"/>
<polygon fill="none" stroke="#666666" points="140.5,-604 140.5,-653 178.5,-653 178.5,-604 140.5,-604"/>
</a>
</g>
</g>
<!-- Node5&#45;&gt;Node3 -->
<g id="edge5_Node000003_Node000005" class="edge">
<title>Node5&#45;&gt;Node3</title>
<g id="a_edge5_Node000003_Node000005"><a xlink:title=" ">
<path fill="none" stroke="#63b8ff" d="M159.15,-603.94C159.16,-591.97 159.44,-577.19 160.5,-564 160.65,-562.08 160.81,-560.16 160.98,-558.22"/>
<polygon fill="none" stroke="#63b8ff" points="160.98,-558.19 157.55,-551.85 162.08,-546.24 165.52,-552.58 160.98,-558.19"/>
</a>
</g>
<text text-anchor="middle" x="179" y="-578" font-family="Helvetica,sans-Serif" font-size="10.00" fill="grey"> +Key</text>
<text text-anchor="middle" x="179" y="-567" font-family="Helvetica,sans-Serif" font-size="10.00" fill="grey">&#45;_value</text>
</g>
<!-- Node6 -->
<g id="Node000006" class="node">
<title>Node6</title>
<g id="a_Node000006"><a xlink:title=" ">
<polygon fill="white" stroke="transparent" points="235.5,-653 203.5,-653 203.5,-604 235.5,-604 235.5,-653"/>
<text text-anchor="start" x="208.5" y="-640.5" font-family="Helvetica,sans-Serif" font-size="10.00">bool</text>
<text text-anchor="start" x="217.5" y="-625.5" font-family="Helvetica,sans-Serif" font-size="10.00"> </text>
<text text-anchor="start" x="217.5" y="-610.5" font-family="Helvetica,sans-Serif" font-size="10.00"> </text>
<polygon fill="#666666" stroke="#666666" points="203.5,-635.5 203.5,-635.5 235.5,-635.5 235.5,-635.5 203.5,-635.5"/>
<polygon fill="#666666" stroke="#666666" points="203.5,-620.5 203.5,-620.5 235.5,-620.5 235.5,-620.5 203.5,-620.5"/>
<polygon fill="none" stroke="#666666" points="203.5,-604 203.5,-653 235.5,-653 235.5,-604 203.5,-604"/>
</a>
</g>
</g>
<!-- Node6&#45;&gt;Node3 -->
<g id="edge6_Node000003_Node000006" class="edge">
<title>Node6&#45;&gt;Node3</title>
<g id="a_edge6_Node000003_Node000006"><a xlink:title=" ">
<path fill="none" stroke="#63b8ff" d="M216.78,-603.7C215.41,-591.66 213.61,-575.84 211.58,-558.06"/>
<polygon fill="none" stroke="#63b8ff" points="211.58,-558.03 206.92,-552.52 210.22,-546.1 214.87,-551.61 211.58,-558.03"/>
</a>
</g>
<text text-anchor="middle" x="246" y="-572.5" font-family="Helvetica,sans-Serif" font-size="10.00" fill="grey"> &#45;_hasPlurals</text>
</g>
<!-- Node7 -->
<g id="Node000007" class="node">
<title>Node7</title>
<g id="a_Node000007"><a xlink:title=" ">
<polygon fill="white" stroke="transparent" points="371,-653 254,-653 254,-604 371,-604 371,-653"/>
<text text-anchor="start" x="259.5" y="-640.5" font-family="Helvetica,sans-Serif" font-size="10.00">static readonly Regex</text>
<text text-anchor="start" x="311" y="-625.5" font-family="Helvetica,sans-Serif" font-size="10.00"> </text>
<text text-anchor="start" x="311" y="-610.5" font-family="Helvetica,sans-Serif" font-size="10.00"> </text>
<polygon fill="#666666" stroke="#666666" points="254.5,-635.5 254.5,-635.5 371.5,-635.5 371.5,-635.5 254.5,-635.5"/>
<polygon fill="#666666" stroke="#666666" points="254.5,-620.5 254.5,-620.5 371.5,-620.5 371.5,-620.5 254.5,-620.5"/>
<polygon fill="none" stroke="#666666" points="254,-604 254,-653 371,-653 371,-604 254,-604"/>
</a>
</g>
</g>
<!-- Node7&#45;&gt;Node3 -->
<g id="edge7_Node000003_Node000007" class="edge">
<title>Node7&#45;&gt;Node3</title>
<g id="a_edge7_Node000003_Node000007"><a xlink:title=" ">
<path fill="none" stroke="#63b8ff" d="M301.37,-603.7C295.63,-591.44 288.06,-575.24 279.55,-557.04"/>
<polygon fill="none" stroke="#63b8ff" points="279.52,-556.97 273.35,-553.23 274.43,-546.1 280.6,-549.84 279.52,-556.97"/>
</a>
</g>
<text text-anchor="middle" x="360.5" y="-572.5" font-family="Helvetica,sans-Serif" font-size="10.00" fill="grey"> +PluralizationPatternRegex</text>
</g>
<!-- Node8 -->
<g id="Node000008" class="node">
<title>Node8</title>
<g id="a_Node000008"><a xlink:title=" ">
<polygon fill="white" stroke="transparent" points="459.5,-393.5 365.5,-393.5 365.5,-333.5 459.5,-333.5 459.5,-393.5"/>
<text text-anchor="start" x="370.5" y="-381.5" font-family="Helvetica,sans-Serif" font-size="10.00">Func&lt; string, int,</text>
<text text-anchor="start" x="382" y="-370.5" font-family="Helvetica,sans-Serif" font-size="10.00"> int, string &gt;</text>
<text text-anchor="start" x="410.5" y="-355.5" font-family="Helvetica,sans-Serif" font-size="10.00"> </text>
<text text-anchor="start" x="410.5" y="-340.5" font-family="Helvetica,sans-Serif" font-size="10.00"> </text>
<polygon fill="#666666" stroke="#666666" points="365.5,-365.5 365.5,-365.5 459.5,-365.5 459.5,-365.5 365.5,-365.5"/>
<polygon fill="#666666" stroke="#666666" points="365.5,-350.5 365.5,-350.5 459.5,-350.5 459.5,-350.5 365.5,-350.5"/>
<polygon fill="none" stroke="#666666" points="365.5,-333.5 365.5,-393.5 459.5,-393.5 459.5,-333.5 365.5,-333.5"/>
</a>
</g>
</g>
<!-- Node8&#45;&gt;Node1 -->
<g id="edge8_Node000001_Node000008" class="edge">
<title>Node8&#45;&gt;Node1</title>
<g id="a_edge8_Node000001_Node000008"><a xlink:title=" ">
<path fill="none" stroke="#63b8ff" d="M409.55,-333.41C404.41,-295.16 390.85,-227.37 356.5,-181 335.71,-152.94 305.77,-129.59 276.96,-111.54"/>
<polygon fill="none" stroke="#63b8ff" points="276.68,-111.37 269.47,-111.67 266.42,-105.13 273.63,-104.83 276.68,-111.37"/>
</a>
</g>
<text text-anchor="middle" x="367" y="-155" font-family="Helvetica,sans-Serif" font-size="10.00" fill="grey"> ~getName</text>
</g>
</g>
</svg>

<g id="navigator" transform="translate(0 0)" fill="#404254">
  <rect fill="#f2f5e9" fill-opacity="0.5" stroke="#606060" stroke-width=".5" x="0" y="0" width="60" height="60"/>
  <use id="zoomplus" xlink:href="#zoomPlus" x="17" y="9" onmousedown="handleZoom(evt,'in')"/>
  <use id="zoomminus" xlink:href="#zoomMin" x="42" y="9" onmousedown="handleZoom(evt,'out')"/>
  <use id="reset" xlink:href="#resetDef" x="30" y="36" onmousedown="handleReset()"/>
   <use id="arrowup" xlink:href="#arrowUp" x="0" y="0" onmousedown="handlePan(0,-1)"/>
  <use id="arrowright" xlink:href="#arrowRight" x="0" y="0" onmousedown="handlePan(1,0)"/>
  <use id="arrowdown" xlink:href="#arrowDown" x="0" y="0" onmousedown="handlePan(0,1)"/>
  <use id="arrowleft" xlink:href="#arrowLeft" x="0" y="0" onmousedown="handlePan(-1,0)"/>
</g>
<svg viewBox="0 0 15 15" width="100%" height="30px" preserveAspectRatio="xMaxYMin meet">
 <g id="arrow_out" transform="scale(0.3 0.3)">
  <a xlink:href="structTerraria_1_1ModLoader_1_1MapEntry__coll__graph_org.svg" target="_base">
   <rect id="button" ry="5" rx="5" y="6" x="6" height="38" width="38"
        fill="#f2f5e9" fill-opacity="0.5" stroke="#606060" stroke-width="1.0"/>
   <path id="arrow"
     d="M 11.500037,31.436501 C 11.940474,20.09759 22.043105,11.32322 32.158766,21.979434 L 37.068811,17.246167 C 37.068811,17.246167 37.088388,32 37.088388,32 L 22.160133,31.978069 C 22.160133,31.978069 26.997745,27.140456 26.997745,27.140456 C 18.528582,18.264221 13.291696,25.230495 11.500037,31.436501 z"
     style="fill:#404040;"/>
  </a>
 </g>
</svg>

<style type='text/css'>
<![CDATA[
[data-mouse-over-selected='false'] { opacity: 0.7; }
[data-mouse-over-selected='true']  { opacity: 1.0; }
]]>
</style>
<script type="application/ecmascript"><![CDATA[
document.addEventListener('DOMContentLoaded', (event) => {
  highlightEdges();
  highlightAdjacentNodes();
});
]]></script>
</svg>
