<?xml version="1.0" encoding="UTF-8" standalone="no"?>
<!DOCTYPE svg PUBLIC "-//W3C//DTD SVG 1.1//EN"
 "http://www.w3.org/Graphics/SVG/1.1/DTD/svg11.dtd">
<!-- Generated by graphviz version 2.43.0 (0)
 -->
<!-- Title: Terraria.GameContent.Events.DD2Event.SyncInvasionProgress Pages: 1 -->
<svg width="1194pt" height="1066pt"
 viewBox="0.00 0.00 1194.00 1065.50" xmlns="http://www.w3.org/2000/svg" xmlns:xlink="http://www.w3.org/1999/xlink">
<g id="graph0" class="graph" transform="scale(1 1) rotate(0) translate(4 1061.5)">
<title>Terraria.GameContent.Events.DD2Event.SyncInvasionProgress</title>
<!-- Node1 -->
<g id="Node000001" class="node">
<title>Node1</title>
<g id="a_Node000001"><a xlink:title=" ">
<polygon fill="#999999" stroke="#666666" points="175,-688 0,-688 0,-658 175,-658 175,-688"/>
<text text-anchor="start" x="8" y="-676" font-family="Helvetica,sans-Serif" font-size="10.00">Terraria.GameContent.Events.</text>
<text text-anchor="middle" x="87.5" y="-665" font-family="Helvetica,sans-Serif" font-size="10.00">DD2Event.SyncInvasionProgress</text>
</a>
</g>
</g>
<!-- Node2 -->
<g id="Node000002" class="node">
<title>Node2</title>
<g id="a_Node000002"><a xlink:href="../../dd/db5/classTerraria_1_1GameContent_1_1Events_1_1DD2Event_a3c9a273a0649cb57dca5fe6d7543e8ed.html#a3c9a273a0649cb57dca5fe6d7543e8ed" target="_top" xlink:title=" ">
<polygon fill="white" stroke="#666666" points="376,-963 213,-963 213,-933 376,-933 376,-963"/>
<text text-anchor="start" x="221" y="-951" font-family="Helvetica,sans-Serif" font-size="10.00">Terraria.GameContent.Events.</text>
<text text-anchor="middle" x="294.5" y="-940" font-family="Helvetica,sans-Serif" font-size="10.00">DD2Event.GetInvasionStatus</text>
</a>
</g>
</g>
<!-- Node1&#45;&gt;Node2 -->
<g id="edge1_Node000001_Node000002" class="edge">
<title>Node1&#45;&gt;Node2</title>
<g id="a_edge1_Node000001_Node000002"><a xlink:title=" ">
<path fill="none" stroke="#63b8ff" d="M99.81,-688.18C133.83,-733.82 235.37,-870.02 276.21,-924.8"/>
<polygon fill="#63b8ff" stroke="#63b8ff" points="273.44,-926.94 282.22,-932.87 279.05,-922.76 273.44,-926.94"/>
</a>
</g>
</g>
<!-- Node8 -->
<g id="Node000008" class="node">
<title>Node8</title>
<g id="a_Node000008"><a xlink:href="../../d2/dfe/classTerraria_1_1NetMessage_a0099400efdc729b71368da55adc01263.html#a0099400efdc729b71368da55adc01263" target="_top" xlink:title=" ">
<polygon fill="white" stroke="#666666" points="378,-481.5 211,-481.5 211,-462.5 378,-462.5 378,-481.5"/>
<text text-anchor="middle" x="294.5" y="-469.5" font-family="Helvetica,sans-Serif" font-size="10.00">Terraria.NetMessage.SendData</text>
</a>
</g>
</g>
<!-- Node1&#45;&gt;Node8 -->
<g id="edge10_Node000001_Node000008" class="edge">
<title>Node1&#45;&gt;Node8</title>
<g id="a_edge10_Node000001_Node000008"><a xlink:title=" ">
<path fill="none" stroke="#63b8ff" d="M103.91,-657.89C141.29,-621.24 236.61,-527.78 276.03,-489.13"/>
<polygon fill="#63b8ff" stroke="#63b8ff" points="278.86,-491.26 283.55,-481.76 273.96,-486.26 278.86,-491.26"/>
</a>
</g>
</g>
<!-- Node3 -->
<g id="Node000003" class="node">
<title>Node3</title>
<g id="a_Node000003"><a xlink:href="../../dd/db5/classTerraria_1_1GameContent_1_1Events_1_1DD2Event_a663b9d92450dcf6238a22e1f8197135f.html#a663b9d92450dcf6238a22e1f8197135f" target="_top" xlink:title=" ">
<polygon fill="white" stroke="#666666" points="604,-1057.5 414,-1057.5 414,-1016.5 604,-1016.5 604,-1057.5"/>
<text text-anchor="start" x="422" y="-1045.5" font-family="Helvetica,sans-Serif" font-size="10.00">Terraria.GameContent.Events.</text>
<text text-anchor="start" x="422" y="-1034.5" font-family="Helvetica,sans-Serif" font-size="10.00">DD2Event.Difficulty_1_GetRequired</text>
<text text-anchor="middle" x="509" y="-1023.5" font-family="Helvetica,sans-Serif" font-size="10.00">WaveKills</text>
</a>
</g>
</g>
<!-- Node2&#45;&gt;Node3 -->
<g id="edge2_Node000002_Node000003" class="edge">
<title>Node2&#45;&gt;Node3</title>
<g id="a_edge2_Node000002_Node000003"><a xlink:title=" ">
<path fill="none" stroke="#63b8ff" d="M322.19,-963.16C345.82,-976.18 381.5,-994.87 414,-1008 418.37,-1009.77 422.89,-1011.49 427.48,-1013.16"/>
<polygon fill="#63b8ff" stroke="#63b8ff" points="426.38,-1016.48 436.97,-1016.5 428.7,-1009.88 426.38,-1016.48"/>
</a>
</g>
</g>
<!-- Node6 -->
<g id="Node000006" class="node">
<title>Node6</title>
<g id="a_Node000006"><a xlink:href="../../dd/db5/classTerraria_1_1GameContent_1_1Events_1_1DD2Event_abd1c9ddba782135414e13c0ed8fbe544.html#abd1c9ddba782135414e13c0ed8fbe544" target="_top" xlink:title=" ">
<polygon fill="white" stroke="#666666" points="604,-998.5 414,-998.5 414,-957.5 604,-957.5 604,-998.5"/>
<text text-anchor="start" x="422" y="-986.5" font-family="Helvetica,sans-Serif" font-size="10.00">Terraria.GameContent.Events.</text>
<text text-anchor="start" x="422" y="-975.5" font-family="Helvetica,sans-Serif" font-size="10.00">DD2Event.Difficulty_2_GetRequired</text>
<text text-anchor="middle" x="509" y="-964.5" font-family="Helvetica,sans-Serif" font-size="10.00">WaveKills</text>
</a>
</g>
</g>
<!-- Node2&#45;&gt;Node6 -->
<g id="edge5_Node000002_Node000006" class="edge">
<title>Node2&#45;&gt;Node6</title>
<g id="a_edge5_Node000002_Node000006"><a xlink:title=" ">
<path fill="none" stroke="#63b8ff" d="M376.14,-959.38C385.19,-960.66 394.51,-961.98 403.81,-963.29"/>
<polygon fill="#63b8ff" stroke="#63b8ff" points="403.48,-966.78 413.87,-964.71 404.46,-959.85 403.48,-966.78"/>
</a>
</g>
</g>
<!-- Node7 -->
<g id="Node000007" class="node">
<title>Node7</title>
<g id="a_Node000007"><a xlink:href="../../dd/db5/classTerraria_1_1GameContent_1_1Events_1_1DD2Event_afabc6ee99a6a4ebb78ccb8a481e68b40.html#afabc6ee99a6a4ebb78ccb8a481e68b40" target="_top" xlink:title=" ">
<polygon fill="white" stroke="#666666" points="604,-939.5 414,-939.5 414,-898.5 604,-898.5 604,-939.5"/>
<text text-anchor="start" x="422" y="-927.5" font-family="Helvetica,sans-Serif" font-size="10.00">Terraria.GameContent.Events.</text>
<text text-anchor="start" x="422" y="-916.5" font-family="Helvetica,sans-Serif" font-size="10.00">DD2Event.Difficulty_3_GetRequired</text>
<text text-anchor="middle" x="509" y="-905.5" font-family="Helvetica,sans-Serif" font-size="10.00">WaveKills</text>
</a>
</g>
</g>
<!-- Node2&#45;&gt;Node7 -->
<g id="edge7_Node000002_Node000007" class="edge">
<title>Node2&#45;&gt;Node7</title>
<g id="a_edge7_Node000002_Node000007"><a xlink:title=" ">
<path fill="none" stroke="#63b8ff" d="M376.14,-936.99C385.19,-935.76 394.51,-934.49 403.81,-933.22"/>
<polygon fill="#63b8ff" stroke="#63b8ff" points="404.44,-936.67 413.87,-931.85 403.49,-929.73 404.44,-936.67"/>
</a>
</g>
</g>
<!-- Node4 -->
<g id="Node000004" class="node">
<title>Node4</title>
<g id="a_Node000004"><a xlink:href="../../dd/db5/classTerraria_1_1GameContent_1_1Events_1_1DD2Event_a1143efae9f342cc34938e1b09bf7f5ae.html#a1143efae9f342cc34938e1b09bf7f5ae" target="_top" xlink:title=" ">
<polygon fill="white" stroke="#666666" points="806,-993 643,-993 643,-963 806,-963 806,-993"/>
<text text-anchor="start" x="651" y="-981" font-family="Helvetica,sans-Serif" font-size="10.00">Terraria.GameContent.Events.</text>
<text text-anchor="middle" x="724.5" y="-970" font-family="Helvetica,sans-Serif" font-size="10.00">DD2Event.StartVictoryScene</text>
</a>
</g>
</g>
<!-- Node3&#45;&gt;Node4 -->
<g id="edge3_Node000003_Node000004" class="edge">
<title>Node3&#45;&gt;Node4</title>
<g id="a_edge3_Node000003_Node000004"><a xlink:title=" ">
<path fill="none" stroke="#63b8ff" d="M584.37,-1016.45C608.7,-1009.73 635.5,-1002.32 659.03,-995.82"/>
<polygon fill="#63b8ff" stroke="#63b8ff" points="660.19,-999.13 668.9,-993.09 658.33,-992.38 660.19,-999.13"/>
</a>
</g>
</g>
<!-- Node5 -->
<g id="Node000005" class="node">
<title>Node5</title>
<g id="a_Node000005"><a xlink:href="../../df/d0d/classTerraria_1_1NPC_a418985104bfcb1384e7aa7060415805f.html#a418985104bfcb1384e7aa7060415805f" target="_top" xlink:title="Returns the index within F:Terraria.Main.npc of the the first active NPC in the world of the given NP...">
<polygon fill="white" stroke="#666666" points="1009.5,-987.5 868.5,-987.5 868.5,-968.5 1009.5,-968.5 1009.5,-987.5"/>
<text text-anchor="middle" x="939" y="-975.5" font-family="Helvetica,sans-Serif" font-size="10.00">Terraria.NPC.FindFirstNPC</text>
</a>
</g>
</g>
<!-- Node4&#45;&gt;Node5 -->
<g id="edge4_Node000004_Node000005" class="edge">
<title>Node4&#45;&gt;Node5</title>
<g id="a_edge4_Node000004_Node000005"><a xlink:title=" ">
<path fill="none" stroke="#63b8ff" d="M806.14,-978C823.06,-978 840.9,-978 857.8,-978"/>
<polygon fill="#63b8ff" stroke="#63b8ff" points="858.19,-981.5 868.19,-978 858.19,-974.5 858.19,-981.5"/>
</a>
</g>
</g>
<!-- Node6&#45;&gt;Node4 -->
<g id="edge6_Node000006_Node000004" class="edge">
<title>Node6&#45;&gt;Node4</title>
<g id="a_edge6_Node000006_Node000004"><a xlink:title=" ">
<path fill="none" stroke="#63b8ff" d="M604.27,-978C613.7,-978 623.27,-978 632.66,-978"/>
<polygon fill="#63b8ff" stroke="#63b8ff" points="632.78,-981.5 642.78,-978 632.78,-974.5 632.78,-981.5"/>
</a>
</g>
</g>
<!-- Node7&#45;&gt;Node4 -->
<g id="edge9_Node000007_Node000004" class="edge">
<title>Node7&#45;&gt;Node4</title>
<g id="a_edge9_Node000007_Node000004"><a xlink:title=" ">
<path fill="none" stroke="#63b8ff" d="M584.37,-939.55C608.7,-946.27 635.5,-953.68 659.03,-960.18"/>
<polygon fill="#63b8ff" stroke="#63b8ff" points="658.33,-963.62 668.9,-962.91 660.19,-956.87 658.33,-963.62"/>
</a>
</g>
</g>
<!-- Node7&#45;&gt;Node5 -->
<g id="edge8_Node000007_Node000005" class="edge">
<title>Node7&#45;&gt;Node5</title>
<g id="a_edge8_Node000007_Node000005"><a xlink:title=" ">
<path fill="none" stroke="#63b8ff" d="M604.15,-928.38C663.13,-934.66 740.66,-943.65 809,-954 832.63,-957.58 858.57,-962.25 880.94,-966.53"/>
<polygon fill="#63b8ff" stroke="#63b8ff" points="880.47,-970 890.95,-968.46 881.79,-963.13 880.47,-970"/>
</a>
</g>
</g>
<!-- Node9 -->
<g id="Node000009" class="node">
<title>Node9</title>
<g id="a_Node000009"><a xlink:href="../../d2/dfe/classTerraria_1_1NetMessage_a8bd80eec85317f48bb6a6fd7a8a8312b.html#a8bd80eec85317f48bb6a6fd7a8a8312b" target="_top" xlink:title=" ">
<polygon fill="white" stroke="#666666" points="593.5,-755 424.5,-755 424.5,-725 593.5,-725 593.5,-755"/>
<text text-anchor="start" x="432.5" y="-743" font-family="Helvetica,sans-Serif" font-size="10.00">Terraria.NetMessage.Compress</text>
<text text-anchor="middle" x="509" y="-732" font-family="Helvetica,sans-Serif" font-size="10.00">TileBlock</text>
</a>
</g>
</g>
<!-- Node8&#45;&gt;Node9 -->
<g id="edge11_Node000008_Node000009" class="edge">
<title>Node8&#45;&gt;Node9</title>
<g id="a_edge11_Node000008_Node000009"><a xlink:title=" ">
<path fill="none" stroke="#63b8ff" d="M297.47,-481.91C305.24,-518.27 337.1,-645.58 414,-711 418.04,-714.44 422.49,-717.47 427.18,-720.14"/>
<polygon fill="#63b8ff" stroke="#63b8ff" points="425.97,-723.45 436.47,-724.85 429.13,-717.21 425.97,-723.45"/>
</a>
</g>
</g>
<!-- Node21 -->
<g id="Node000021" class="node">
<title>Node21</title>
<g id="a_Node000021"><a xlink:href="../../db/d56/classTerraria_1_1DataStructures_1_1TileEntity_a94671f9097e4ebf6de668b08e9f0b50a.html#a94671f9097e4ebf6de668b08e9f0b50a" target="_top" xlink:title=" ">
<polygon fill="white" stroke="#666666" points="1005,-539 873,-539 873,-509 1005,-509 1005,-539"/>
<text text-anchor="start" x="881" y="-527" font-family="Helvetica,sans-Serif" font-size="10.00">Terraria.DataStructures.</text>
<text text-anchor="middle" x="939" y="-516" font-family="Helvetica,sans-Serif" font-size="10.00">TileEntity.Write</text>
</a>
</g>
</g>
<!-- Node8&#45;&gt;Node21 -->
<g id="edge44_Node000008_Node000021" class="edge">
<title>Node8&#45;&gt;Node21</title>
<g id="a_edge44_Node000008_Node000021"><a xlink:title=" ">
<path fill="none" stroke="#63b8ff" d="M297.85,-481.63C306.48,-514.64 339.88,-623.53 414,-665 487.7,-706.23 520.95,-680.27 604,-665 699.88,-647.38 728.24,-641.6 809,-587 828.54,-573.79 824.75,-560.11 845,-548 850.54,-544.69 856.53,-541.83 862.71,-539.36"/>
<polygon fill="#63b8ff" stroke="#63b8ff" points="864.34,-542.49 872.54,-535.79 861.95,-535.91 864.34,-542.49"/>
</a>
</g>
</g>
<!-- Node22 -->
<g id="Node000022" class="node">
<title>Node22</title>
<g id="a_Node000022"><a xlink:href="../../db/d90/classTerraria_1_1Netplay_a8a3ee13aeab7ca5a142d52fc6a7c94a8.html#a8a3ee13aeab7ca5a142d52fc6a7c94a8" target="_top" xlink:title=" ">
<polygon fill="white" stroke="#666666" points="587,-630.5 431,-630.5 431,-611.5 587,-611.5 587,-630.5"/>
<text text-anchor="middle" x="509" y="-618.5" font-family="Helvetica,sans-Serif" font-size="10.00">Terraria.Netplay.GetSectionX</text>
</a>
</g>
</g>
<!-- Node8&#45;&gt;Node22 -->
<g id="edge24_Node000008_Node000022" class="edge">
<title>Node8&#45;&gt;Node22</title>
<g id="a_edge24_Node000008_Node000022"><a xlink:title=" ">
<path fill="none" stroke="#63b8ff" d="M301.21,-481.86C316.18,-506.72 359.2,-572.18 414,-603 417.23,-604.82 420.61,-606.45 424.1,-607.93"/>
<polygon fill="#63b8ff" stroke="#63b8ff" points="422.92,-611.23 433.51,-611.47 425.38,-604.67 422.92,-611.23"/>
</a>
</g>
</g>
<!-- Node23 -->
<g id="Node000023" class="node">
<title>Node23</title>
<g id="a_Node000023"><a xlink:href="../../db/d90/classTerraria_1_1Netplay_aae951351c7bd7fff569a8f67e4a700a0.html#aae951351c7bd7fff569a8f67e4a700a0" target="_top" xlink:title=" ">
<polygon fill="white" stroke="#666666" points="586.5,-593.5 431.5,-593.5 431.5,-574.5 586.5,-574.5 586.5,-593.5"/>
<text text-anchor="middle" x="509" y="-581.5" font-family="Helvetica,sans-Serif" font-size="10.00">Terraria.Netplay.GetSectionY</text>
</a>
</g>
</g>
<!-- Node8&#45;&gt;Node23 -->
<g id="edge25_Node000008_Node000023" class="edge">
<title>Node8&#45;&gt;Node23</title>
<g id="a_edge25_Node000008_Node000023"><a xlink:title=" ">
<path fill="none" stroke="#63b8ff" d="M304.59,-481.68C323.18,-500.86 367.7,-543.63 414,-565 419.42,-567.5 425.17,-569.68 431.05,-571.57"/>
<polygon fill="#63b8ff" stroke="#63b8ff" points="430.45,-575.04 441.03,-574.48 432.41,-568.32 430.45,-575.04"/>
</a>
</g>
</g>
<!-- Node24 -->
<g id="Node000024" class="node">
<title>Node24</title>
<g id="a_Node000024"><a xlink:href="../../d4/d8f/classTerraria_1_1Localization_1_1Language_ae4636a4800b9ecbaa498954520462f78.html#ae4636a4800b9ecbaa498954520462f78" target="_top" xlink:title="Retrieves the text value for a specified localization key. The text returned will be for the currentl...">
<polygon fill="white" stroke="#666666" points="593,-556 425,-556 425,-526 593,-526 593,-556"/>
<text text-anchor="start" x="433" y="-544" font-family="Helvetica,sans-Serif" font-size="10.00">Terraria.Localization.Language.</text>
<text text-anchor="middle" x="509" y="-533" font-family="Helvetica,sans-Serif" font-size="10.00">GetTextValue</text>
</a>
</g>
</g>
<!-- Node8&#45;&gt;Node24 -->
<g id="edge26_Node000008_Node000024" class="edge">
<title>Node8&#45;&gt;Node24</title>
<g id="a_edge26_Node000008_Node000024"><a xlink:title=" ">
<path fill="none" stroke="#63b8ff" d="M318.39,-481.58C342.06,-491.27 380.22,-506.31 414,-517 420.84,-519.17 428.02,-521.28 435.22,-523.29"/>
<polygon fill="#63b8ff" stroke="#63b8ff" points="434.45,-526.71 445.02,-525.97 436.3,-519.96 434.45,-526.71"/>
</a>
</g>
</g>
<!-- Node25 -->
<g id="Node000025" class="node">
<title>Node25</title>
<g id="a_Node000025"><a xlink:href="../../df/d47/classTerraria_1_1ModLoader_1_1ModNet_a1c1f9ace6611e69d54aa7a1f2cce68f2.html#a1c1f9ace6611e69d54aa7a1f2cce68f2" target="_top" xlink:title=" ">
<polygon fill="white" stroke="#666666" points="586,-508 432,-508 432,-478 586,-478 586,-508"/>
<text text-anchor="start" x="440" y="-496" font-family="Helvetica,sans-Serif" font-size="10.00">Terraria.ModLoader.ModNet.</text>
<text text-anchor="middle" x="509" y="-485" font-family="Helvetica,sans-Serif" font-size="10.00">HijackSendData</text>
</a>
</g>
</g>
<!-- Node8&#45;&gt;Node25 -->
<g id="edge27_Node000008_Node000025" class="edge">
<title>Node8&#45;&gt;Node25</title>
<g id="a_edge27_Node000008_Node000025"><a xlink:title=" ">
<path fill="none" stroke="#63b8ff" d="M378.27,-480.18C392.43,-481.58 407.17,-483.04 421.43,-484.44"/>
<polygon fill="#63b8ff" stroke="#63b8ff" points="421.41,-487.96 431.71,-485.46 422.1,-480.99 421.41,-487.96"/>
</a>
</g>
</g>
<!-- Node27 -->
<g id="Node000027" class="node">
<title>Node27</title>
<g id="a_Node000027"><a xlink:href="../../d6/d21/structTerraria_1_1Tile_aae758079f57e61378841aaf0fc884e71.html#aae758079f57e61378841aaf0fc884e71" target="_top" xlink:title="Legacy code, use P:Terraria.Tile.LiquidType instead.">
<polygon fill="white" stroke="#666666" points="572.5,-459.5 445.5,-459.5 445.5,-440.5 572.5,-440.5 572.5,-459.5"/>
<text text-anchor="middle" x="509" y="-447.5" font-family="Helvetica,sans-Serif" font-size="10.00">Terraria.Tile.liquidType</text>
</a>
</g>
</g>
<!-- Node8&#45;&gt;Node27 -->
<g id="edge29_Node000008_Node000027" class="edge">
<title>Node8&#45;&gt;Node27</title>
<g id="a_edge29_Node000008_Node000027"><a xlink:title=" ">
<path fill="none" stroke="#63b8ff" d="M378.27,-463.43C397.05,-461.49 416.86,-459.44 435.19,-457.54"/>
<polygon fill="#63b8ff" stroke="#63b8ff" points="435.62,-461.01 445.21,-456.5 434.9,-454.05 435.62,-461.01"/>
</a>
</g>
</g>
<!-- Node28 -->
<g id="Node000028" class="node">
<title>Node28</title>
<g id="a_Node000028"><a xlink:href="../../df/d47/classTerraria_1_1ModLoader_1_1ModNet_a84b918169aabe8b707d77626bfa3a734.html#a84b918169aabe8b707d77626bfa3a734" target="_top" xlink:title=" ">
<polygon fill="white" stroke="#666666" points="586,-336 432,-336 432,-306 586,-306 586,-336"/>
<text text-anchor="start" x="440" y="-324" font-family="Helvetica,sans-Serif" font-size="10.00">Terraria.ModLoader.ModNet.</text>
<text text-anchor="middle" x="509" y="-313" font-family="Helvetica,sans-Serif" font-size="10.00">LogSend</text>
</a>
</g>
</g>
<!-- Node8&#45;&gt;Node28 -->
<g id="edge30_Node000008_Node000028" class="edge">
<title>Node8&#45;&gt;Node28</title>
<g id="a_edge30_Node000008_Node000028"><a xlink:title=" ">
<path fill="none" stroke="#63b8ff" d="M302.3,-462.16C318.76,-439.1 363.14,-381.16 414,-350 420.31,-346.14 427.17,-342.75 434.22,-339.79"/>
<polygon fill="#63b8ff" stroke="#63b8ff" points="435.87,-342.9 443.92,-336.01 433.33,-336.38 435.87,-342.9"/>
</a>
</g>
</g>
<!-- Node31 -->
<g id="Node000031" class="node">
<title>Node31</title>
<g id="a_Node000031"><a xlink:href="../../d0/d8b/classTerraria_1_1ModLoader_1_1IO_1_1ItemIO_acb34dd650cec49c955ce0297fe6d0ce1.html#acb34dd650cec49c955ce0297fe6d0ce1" target="_top" xlink:title=" ">
<polygon fill="white" stroke="#666666" points="799,-422 650,-422 650,-392 799,-392 799,-422"/>
<text text-anchor="start" x="658" y="-410" font-family="Helvetica,sans-Serif" font-size="10.00">Terraria.ModLoader.IO.Item</text>
<text text-anchor="middle" x="724.5" y="-399" font-family="Helvetica,sans-Serif" font-size="10.00">IO.Send</text>
</a>
</g>
</g>
<!-- Node8&#45;&gt;Node31 -->
<g id="edge34_Node000008_Node000031" class="edge">
<title>Node8&#45;&gt;Node31</title>
<g id="a_edge34_Node000008_Node000031"><a xlink:title=" ">
<path fill="none" stroke="#63b8ff" d="M304.09,-462.26C322.11,-442.65 366.16,-398.96 414,-383 498.31,-354.86 602.45,-372.94 665.87,-389.37"/>
<polygon fill="#63b8ff" stroke="#63b8ff" points="665.13,-392.79 675.69,-391.98 666.93,-386.03 665.13,-392.79"/>
</a>
</g>
</g>
<!-- Node32 -->
<g id="Node000032" class="node">
<title>Node32</title>
<g id="a_Node000032"><a xlink:href="../../d0/d8b/classTerraria_1_1ModLoader_1_1IO_1_1ItemIO_a9d5e51fc32478bea6653b3b43783a57b.html#a9d5e51fc32478bea6653b3b43783a57b" target="_top" xlink:title=" ">
<polygon fill="white" stroke="#666666" points="1013.5,-456 864.5,-456 864.5,-426 1013.5,-426 1013.5,-456"/>
<text text-anchor="start" x="872.5" y="-444" font-family="Helvetica,sans-Serif" font-size="10.00">Terraria.ModLoader.IO.Item</text>
<text text-anchor="middle" x="939" y="-433" font-family="Helvetica,sans-Serif" font-size="10.00">IO.SendModData</text>
</a>
</g>
</g>
<!-- Node8&#45;&gt;Node32 -->
<g id="edge41_Node000008_Node000032" class="edge">
<title>Node8&#45;&gt;Node32</title>
<g id="a_edge41_Node000008_Node000032"><a xlink:title=" ">
<path fill="none" stroke="#63b8ff" d="M298.69,-481.67C309.29,-511.94 346.5,-605.01 414,-640 488.97,-678.86 522.58,-662.42 604,-640 637.07,-630.9 828.14,-510.82 905.5,-461.71"/>
<polygon fill="#63b8ff" stroke="#63b8ff" points="907.79,-464.41 914.35,-456.09 904.03,-458.5 907.79,-464.41"/>
</a>
</g>
</g>
<!-- Node33 -->
<g id="Node000033" class="node">
<title>Node33</title>
<g id="a_Node000033"><a xlink:href="../../dd/de0/classTerraria_1_1ModLoader_1_1BiomeLoader_a29df870ca6244b82963eeb5ce278f179.html#a29df870ca6244b82963eeb5ce278f179" target="_top" xlink:title=" ">
<polygon fill="white" stroke="#666666" points="584,-288 434,-288 434,-258 584,-258 584,-288"/>
<text text-anchor="start" x="442" y="-276" font-family="Helvetica,sans-Serif" font-size="10.00">Terraria.ModLoader.Biome</text>
<text text-anchor="middle" x="509" y="-265" font-family="Helvetica,sans-Serif" font-size="10.00">Loader.SendCustomBiomes</text>
</a>
</g>
</g>
<!-- Node8&#45;&gt;Node33 -->
<g id="edge36_Node000008_Node000033" class="edge">
<title>Node8&#45;&gt;Node33</title>
<g id="a_edge36_Node000008_Node000033"><a xlink:title=" ">
<path fill="none" stroke="#63b8ff" d="M299.16,-462.23C310.86,-432.39 350.37,-341.74 414,-297 417.32,-294.67 420.84,-292.56 424.5,-290.66"/>
<polygon fill="#63b8ff" stroke="#63b8ff" points="426.24,-293.72 433.85,-286.35 423.3,-287.36 426.24,-293.72"/>
</a>
</g>
</g>
<!-- Node35 -->
<g id="Node000035" class="node">
<title>Node35</title>
<g id="a_Node000035"><a xlink:href="../../dd/dc6/classTerraria_1_1ModLoader_1_1NPCLoader_ad20200fbeb8230fb9fa1026ab0e76aa0.html#ad20200fbeb8230fb9fa1026ab0e76aa0" target="_top" xlink:title=" ">
<polygon fill="white" stroke="#666666" points="593,-240 425,-240 425,-210 593,-210 593,-240"/>
<text text-anchor="start" x="433" y="-228" font-family="Helvetica,sans-Serif" font-size="10.00">Terraria.ModLoader.NPCLoader.</text>
<text text-anchor="middle" x="509" y="-217" font-family="Helvetica,sans-Serif" font-size="10.00">SendExtraAI</text>
</a>
</g>
</g>
<!-- Node8&#45;&gt;Node35 -->
<g id="edge38_Node000008_Node000035" class="edge">
<title>Node8&#45;&gt;Node35</title>
<g id="a_edge38_Node000008_Node000035"><a xlink:title=" ">
<path fill="none" stroke="#63b8ff" d="M297.7,-462.14C306.07,-427.14 339.2,-307.79 414,-249 415.78,-247.6 417.62,-246.29 419.53,-245.05"/>
<polygon fill="#63b8ff" stroke="#63b8ff" points="421.28,-248.08 428.23,-240.09 417.81,-242 421.28,-248.08"/>
</a>
</g>
</g>
<!-- Node36 -->
<g id="Node000036" class="node">
<title>Node36</title>
<g id="a_Node000036"><a xlink:href="../../dd/d93/classTerraria_1_1ModLoader_1_1ProjectileLoader_a785fe46f6008e62910dd244542345a24.html#a785fe46f6008e62910dd244542345a24" target="_top" xlink:title=" ">
<polygon fill="white" stroke="#666666" points="588,-192 430,-192 430,-162 588,-162 588,-192"/>
<text text-anchor="start" x="438" y="-180" font-family="Helvetica,sans-Serif" font-size="10.00">Terraria.ModLoader.Projectile</text>
<text text-anchor="middle" x="509" y="-169" font-family="Helvetica,sans-Serif" font-size="10.00">Loader.SendExtraAI</text>
</a>
</g>
</g>
<!-- Node8&#45;&gt;Node36 -->
<g id="edge39_Node000008_Node000036" class="edge">
<title>Node8&#45;&gt;Node36</title>
<g id="a_edge39_Node000008_Node000036"><a xlink:title=" ">
<path fill="none" stroke="#63b8ff" d="M296.69,-462.31C302.04,-423.06 327.52,-274.48 414,-201 416.23,-199.11 418.58,-197.36 421.04,-195.75"/>
<polygon fill="#63b8ff" stroke="#63b8ff" points="422.8,-198.78 429.75,-190.78 419.33,-192.7 422.8,-198.78"/>
</a>
</g>
</g>
<!-- Node37 -->
<g id="Node000037" class="node">
<title>Node37</title>
<g id="a_Node000037"><a xlink:href="../../d3/d8e/classTerraria_1_1ModLoader_1_1IO_1_1WorldIO_a800edd3907ce891c4cba1af54ee5ba20.html#a800edd3907ce891c4cba1af54ee5ba20" target="_top" xlink:title=" ">
<polygon fill="white" stroke="#666666" points="586,-144 432,-144 432,-114 586,-114 586,-144"/>
<text text-anchor="start" x="440" y="-132" font-family="Helvetica,sans-Serif" font-size="10.00">Terraria.ModLoader.IO.World</text>
<text text-anchor="middle" x="509" y="-121" font-family="Helvetica,sans-Serif" font-size="10.00">IO.SendModData</text>
</a>
</g>
</g>
<!-- Node8&#45;&gt;Node37 -->
<g id="edge40_Node000008_Node000037" class="edge">
<title>Node8&#45;&gt;Node37</title>
<g id="a_edge40_Node000008_Node000037"><a xlink:title=" ">
<path fill="none" stroke="#63b8ff" d="M295.98,-462.44C298.68,-419.36 315.61,-241.5 414,-153 416.79,-150.49 419.82,-148.23 423,-146.2"/>
<polygon fill="#63b8ff" stroke="#63b8ff" points="424.72,-149.25 431.79,-141.36 421.34,-143.12 424.72,-149.25"/>
</a>
</g>
</g>
<!-- Node38 -->
<g id="Node000038" class="node">
<title>Node38</title>
<g id="a_Node000038"><a xlink:href="../../d0/da6/classTerraria_1_1ModLoader_1_1Logging_ab70d2a6a87eaae1d1ea2b6df62b255ec.html#ab70d2a6a87eaae1d1ea2b6df62b255ec" target="_top" xlink:title=" ">
<polygon fill="white" stroke="#666666" points="586,-78 432,-78 432,-48 586,-48 586,-78"/>
<text text-anchor="start" x="440" y="-66" font-family="Helvetica,sans-Serif" font-size="10.00">Terraria.ModLoader.Logging.</text>
<text text-anchor="middle" x="509" y="-55" font-family="Helvetica,sans-Serif" font-size="10.00">ServerConsoleLine</text>
</a>
</g>
</g>
<!-- Node8&#45;&gt;Node38 -->
<g id="edge42_Node000008_Node000038" class="edge">
<title>Node8&#45;&gt;Node38</title>
<g id="a_edge42_Node000008_Node000038"><a xlink:title=" ">
<path fill="none" stroke="#63b8ff" d="M295.85,-462.4C298.02,-416.53 313.15,-217.36 414,-105 422.38,-95.66 433.24,-88.28 444.59,-82.49"/>
<polygon fill="#63b8ff" stroke="#63b8ff" points="446.19,-85.61 453.75,-78.19 443.21,-79.27 446.19,-85.61"/>
</a>
</g>
</g>
<!-- Node39 -->
<g id="Node000039" class="node">
<title>Node39</title>
<g id="a_Node000039"><a xlink:href="../../d2/dfe/classTerraria_1_1NetMessage_a17488582dd5650d9c0f793be3cc79b2a.html#a17488582dd5650d9c0f793be3cc79b2a" target="_top" xlink:title=" ">
<polygon fill="white" stroke="#666666" points="582,-30 436,-30 436,0 582,0 582,-30"/>
<text text-anchor="start" x="444" y="-18" font-family="Helvetica,sans-Serif" font-size="10.00">Terraria.NetMessage.Write</text>
<text text-anchor="middle" x="509" y="-7" font-family="Helvetica,sans-Serif" font-size="10.00">AccessoryVisibility</text>
</a>
</g>
</g>
<!-- Node8&#45;&gt;Node39 -->
<g id="edge45_Node000008_Node000039" class="edge">
<title>Node8&#45;&gt;Node39</title>
<g id="a_edge45_Node000008_Node000039"><a xlink:title=" ">
<path fill="none" stroke="#63b8ff" d="M296.83,-462.22C304.98,-403.88 349.8,-102.1 414,-39 417.81,-35.26 422.11,-32.08 426.73,-29.37"/>
<polygon fill="#63b8ff" stroke="#63b8ff" points="428.59,-32.35 435.96,-24.74 425.45,-26.1 428.59,-32.35"/>
</a>
</g>
</g>
<!-- Node40 -->
<g id="Node000040" class="node">
<title>Node40</title>
<g id="a_Node000040"><a xlink:href="../../dd/dc6/classTerraria_1_1ModLoader_1_1NPCLoader_acd7b32d09b1fce4d0690d6bae683d829.html#acd7b32d09b1fce4d0690d6bae683d829" target="_top" xlink:title=" ">
<polygon fill="white" stroke="#666666" points="593,-851 425,-851 425,-821 593,-821 593,-851"/>
<text text-anchor="start" x="433" y="-839" font-family="Helvetica,sans-Serif" font-size="10.00">Terraria.ModLoader.NPCLoader.</text>
<text text-anchor="middle" x="509" y="-828" font-family="Helvetica,sans-Serif" font-size="10.00">WriteExtraAI</text>
</a>
</g>
</g>
<!-- Node8&#45;&gt;Node40 -->
<g id="edge46_Node000008_Node000040" class="edge">
<title>Node8&#45;&gt;Node40</title>
<g id="a_edge46_Node000008_Node000040"><a xlink:title=" ">
<path fill="none" stroke="#63b8ff" d="M295.73,-481.57C297.37,-526.32 310.39,-716.88 414,-812 415.16,-813.07 416.37,-814.09 417.61,-815.07"/>
<polygon fill="#63b8ff" stroke="#63b8ff" points="416.02,-818.22 426.27,-820.9 419.93,-812.41 416.02,-818.22"/>
</a>
</g>
</g>
<!-- Node41 -->
<g id="Node000041" class="node">
<title>Node41</title>
<g id="a_Node000041"><a xlink:href="../../dd/d93/classTerraria_1_1ModLoader_1_1ProjectileLoader_ad728f89b264d8327c66389f62f4d6a6b.html#ad728f89b264d8327c66389f62f4d6a6b" target="_top" xlink:title=" ">
<polygon fill="white" stroke="#666666" points="588,-803 430,-803 430,-773 588,-773 588,-803"/>
<text text-anchor="start" x="438" y="-791" font-family="Helvetica,sans-Serif" font-size="10.00">Terraria.ModLoader.Projectile</text>
<text text-anchor="middle" x="509" y="-780" font-family="Helvetica,sans-Serif" font-size="10.00">Loader.WriteExtraAI</text>
</a>
</g>
</g>
<!-- Node8&#45;&gt;Node41 -->
<g id="edge47_Node000008_Node000041" class="edge">
<title>Node8&#45;&gt;Node41</title>
<g id="a_edge47_Node000008_Node000041"><a xlink:title=" ">
<path fill="none" stroke="#63b8ff" d="M296.35,-481.58C300.48,-522.47 322.29,-683.95 414,-764 416.2,-765.92 418.53,-767.69 420.97,-769.32"/>
<polygon fill="#63b8ff" stroke="#63b8ff" points="419.23,-772.36 429.63,-774.36 422.74,-766.3 419.23,-772.36"/>
</a>
</g>
</g>
<!-- Node42 -->
<g id="Node000042" class="node">
<title>Node42</title>
<g id="a_Node000042"><a xlink:href="../../d9/d9b/classTerraria_1_1DataStructures_1_1PlayerDeathReason_a9b526c38a2136beee6ac5ae5a6e8faa7.html#a9b526c38a2136beee6ac5ae5a6e8faa7" target="_top" xlink:title=" ">
<polygon fill="white" stroke="#666666" points="594.5,-422 423.5,-422 423.5,-392 594.5,-392 594.5,-422"/>
<text text-anchor="start" x="431.5" y="-410" font-family="Helvetica,sans-Serif" font-size="10.00">Terraria.DataStructures.</text>
<text text-anchor="middle" x="509" y="-399" font-family="Helvetica,sans-Serif" font-size="10.00">PlayerDeathReason.WriteSelfTo</text>
</a>
</g>
</g>
<!-- Node8&#45;&gt;Node42 -->
<g id="edge48_Node000008_Node000042" class="edge">
<title>Node8&#45;&gt;Node42</title>
<g id="a_edge48_Node000008_Node000042"><a xlink:title=" ">
<path fill="none" stroke="#63b8ff" d="M322.16,-462.44C346.08,-454 382.19,-441.59 414,-432 422.22,-429.52 430.89,-427.04 439.5,-424.66"/>
<polygon fill="#63b8ff" stroke="#63b8ff" points="440.44,-428.03 449.16,-422.01 438.6,-421.28 440.44,-428.03"/>
</a>
</g>
</g>
<!-- Node10 -->
<g id="Node000010" class="node">
<title>Node10</title>
<g id="a_Node000010"><a xlink:href="../../d2/dfe/classTerraria_1_1NetMessage_ae9163ccde925a89a178879cda0866701.html#ae9163ccde925a89a178879cda0866701" target="_top" xlink:title=" ">
<polygon fill="white" stroke="#666666" points="809,-755 640,-755 640,-725 809,-725 809,-755"/>
<text text-anchor="start" x="648" y="-743" font-family="Helvetica,sans-Serif" font-size="10.00">Terraria.NetMessage.Compress</text>
<text text-anchor="middle" x="724.5" y="-732" font-family="Helvetica,sans-Serif" font-size="10.00">TileBlock_Inner</text>
</a>
</g>
</g>
<!-- Node9&#45;&gt;Node10 -->
<g id="edge12_Node000009_Node000010" class="edge">
<title>Node9&#45;&gt;Node10</title>
<g id="a_edge12_Node000009_Node000010"><a xlink:title=" ">
<path fill="none" stroke="#63b8ff" d="M593.77,-740C605.63,-740 617.9,-740 629.93,-740"/>
<polygon fill="#63b8ff" stroke="#63b8ff" points="629.97,-743.5 639.97,-740 629.97,-736.5 629.97,-743.5"/>
</a>
</g>
</g>
<!-- Node11 -->
<g id="Node000011" class="node">
<title>Node11</title>
<g id="a_Node000011"><a xlink:href="../../d9/d66/classTerraria_1_1GameContent_1_1Tile__Entities_1_1TEDisplayDoll_acb24e981caea1cd0c432ac84c9261c1c.html#acb24e981caea1cd0c432ac84c9261c1c" target="_top" xlink:title=" ">
<polygon fill="white" stroke="#666666" points="1015.5,-779 862.5,-779 862.5,-749 1015.5,-749 1015.5,-779"/>
<text text-anchor="start" x="870.5" y="-767" font-family="Helvetica,sans-Serif" font-size="10.00">Terraria.GameContent.Tile</text>
<text text-anchor="middle" x="939" y="-756" font-family="Helvetica,sans-Serif" font-size="10.00">_Entities.TEDisplayDoll.Find</text>
</a>
</g>
</g>
<!-- Node10&#45;&gt;Node11 -->
<g id="edge13_Node000010_Node000011" class="edge">
<title>Node10&#45;&gt;Node11</title>
<g id="a_edge13_Node000010_Node000011"><a xlink:title=" ">
<path fill="none" stroke="#63b8ff" d="M809.18,-749.45C823.29,-751.04 837.96,-752.7 852.13,-754.3"/>
<polygon fill="#63b8ff" stroke="#63b8ff" points="852.01,-757.81 862.34,-755.46 852.8,-750.85 852.01,-757.81"/>
</a>
</g>
</g>
<!-- Node12 -->
<g id="Node000012" class="node">
<title>Node12</title>
<g id="a_Node000012"><a xlink:href="../../df/d58/classTerraria_1_1GameContent_1_1Tile__Entities_1_1TEFoodPlatter_ab824c4ec25da97eb7b211ec27d652546.html#ab824c4ec25da97eb7b211ec27d652546" target="_top" xlink:title=" ">
<polygon fill="white" stroke="#666666" points="1015,-731 863,-731 863,-701 1015,-701 1015,-731"/>
<text text-anchor="start" x="871" y="-719" font-family="Helvetica,sans-Serif" font-size="10.00">Terraria.GameContent.Tile</text>
<text text-anchor="middle" x="939" y="-708" font-family="Helvetica,sans-Serif" font-size="10.00">_Entities.TEFoodPlatter.Find</text>
</a>
</g>
</g>
<!-- Node10&#45;&gt;Node12 -->
<g id="edge14_Node000010_Node000012" class="edge">
<title>Node10&#45;&gt;Node12</title>
<g id="a_edge14_Node000010_Node000012"><a xlink:title=" ">
<path fill="none" stroke="#63b8ff" d="M809.18,-730.55C823.39,-728.94 838.16,-727.28 852.41,-725.67"/>
<polygon fill="#63b8ff" stroke="#63b8ff" points="853.14,-729.11 862.68,-724.51 852.35,-722.15 853.14,-729.11"/>
</a>
</g>
</g>
<!-- Node13 -->
<g id="Node000013" class="node">
<title>Node13</title>
<g id="a_Node000013"><a xlink:href="../../d3/d99/classTerraria_1_1GameContent_1_1Tile__Entities_1_1TEHatRack_a0af7e34a07c3d2ba64ef18aca9013ff5.html#a0af7e34a07c3d2ba64ef18aca9013ff5" target="_top" xlink:title=" ">
<polygon fill="white" stroke="#666666" points="1011.5,-683 866.5,-683 866.5,-653 1011.5,-653 1011.5,-683"/>
<text text-anchor="start" x="874.5" y="-671" font-family="Helvetica,sans-Serif" font-size="10.00">Terraria.GameContent.Tile</text>
<text text-anchor="middle" x="939" y="-660" font-family="Helvetica,sans-Serif" font-size="10.00">_Entities.TEHatRack.Find</text>
</a>
</g>
</g>
<!-- Node10&#45;&gt;Node13 -->
<g id="edge15_Node000010_Node000013" class="edge">
<title>Node10&#45;&gt;Node13</title>
<g id="a_edge15_Node000010_Node000013"><a xlink:title=" ">
<path fill="none" stroke="#63b8ff" d="M772.79,-724.97C784.74,-720.79 797.46,-716.02 809,-711 825.59,-703.79 828.13,-698.53 845,-692 850.48,-689.88 856.21,-687.89 862.03,-686.03"/>
<polygon fill="#63b8ff" stroke="#63b8ff" points="863.31,-689.3 871.85,-683.03 861.27,-682.6 863.31,-689.3"/>
</a>
</g>
</g>
<!-- Node14 -->
<g id="Node000014" class="node">
<title>Node14</title>
<g id="a_Node000014"><a xlink:href="../../d5/dad/classTerraria_1_1GameContent_1_1Tile__Entities_1_1TEItemFrame_a736981b810e7aa34c25f1ea4e0ec0c4d.html#a736981b810e7aa34c25f1ea4e0ec0c4d" target="_top" xlink:title=" ">
<polygon fill="white" stroke="#666666" points="1014,-635 864,-635 864,-605 1014,-605 1014,-635"/>
<text text-anchor="start" x="872" y="-623" font-family="Helvetica,sans-Serif" font-size="10.00">Terraria.GameContent.Tile</text>
<text text-anchor="middle" x="939" y="-612" font-family="Helvetica,sans-Serif" font-size="10.00">_Entities.TEItemFrame.Find</text>
</a>
</g>
</g>
<!-- Node10&#45;&gt;Node14 -->
<g id="edge16_Node000010_Node000014" class="edge">
<title>Node10&#45;&gt;Node14</title>
<g id="a_edge16_Node000010_Node000014"><a xlink:title=" ">
<path fill="none" stroke="#63b8ff" d="M786.36,-724.96C794.51,-721.26 802.34,-716.68 809,-711 834.72,-689.07 818.4,-664.86 845,-644 848,-641.65 851.2,-639.53 854.55,-637.61"/>
<polygon fill="#63b8ff" stroke="#63b8ff" points="856.34,-640.62 863.71,-633.01 853.2,-634.37 856.34,-640.62"/>
</a>
</g>
</g>
<!-- Node15 -->
<g id="Node000015" class="node">
<title>Node15</title>
<g id="a_Node000015"><a xlink:href="../../d8/d19/classTerraria_1_1GameContent_1_1Tile__Entities_1_1TETeleportationPylon_a6fc24a8a3539899124e211733cc4f81c.html#a6fc24a8a3539899124e211733cc4f81c" target="_top" xlink:title=" ">
<polygon fill="white" stroke="#666666" points="1033,-587 845,-587 845,-557 1033,-557 1033,-587"/>
<text text-anchor="start" x="853" y="-575" font-family="Helvetica,sans-Serif" font-size="10.00">Terraria.GameContent.Tile</text>
<text text-anchor="middle" x="939" y="-564" font-family="Helvetica,sans-Serif" font-size="10.00">_Entities.TETeleportationPylon.Find</text>
</a>
</g>
</g>
<!-- Node10&#45;&gt;Node15 -->
<g id="edge17_Node000010_Node000015" class="edge">
<title>Node10&#45;&gt;Node15</title>
<g id="a_edge17_Node000010_Node000015"><a xlink:title=" ">
<path fill="none" stroke="#63b8ff" d="M789.9,-724.8C796.96,-721.15 803.55,-716.62 809,-711 846.28,-672.55 806.18,-632.9 845,-596 846.13,-594.92 847.31,-593.89 848.52,-592.91"/>
<polygon fill="#63b8ff" stroke="#63b8ff" points="850.78,-595.6 857.01,-587.03 846.8,-589.84 850.78,-595.6"/>
</a>
</g>
</g>
<!-- Node16 -->
<g id="Node000016" class="node">
<title>Node16</title>
<g id="a_Node000016"><a xlink:href="../../d1/dea/classTerraria_1_1GameContent_1_1Tile__Entities_1_1TETrainingDummy_ab9fb96c6f00d653644d815bbdf50f66a.html#ab9fb96c6f00d653644d815bbdf50f66a" target="_top" xlink:title=" ">
<polygon fill="white" stroke="#666666" points="1025.5,-950 852.5,-950 852.5,-920 1025.5,-920 1025.5,-950"/>
<text text-anchor="start" x="860.5" y="-938" font-family="Helvetica,sans-Serif" font-size="10.00">Terraria.GameContent.Tile</text>
<text text-anchor="middle" x="939" y="-927" font-family="Helvetica,sans-Serif" font-size="10.00">_Entities.TETrainingDummy.Find</text>
</a>
</g>
</g>
<!-- Node10&#45;&gt;Node16 -->
<g id="edge18_Node000010_Node000016" class="edge">
<title>Node10&#45;&gt;Node16</title>
<g id="a_edge18_Node000010_Node000016"><a xlink:title=" ">
<path fill="none" stroke="#63b8ff" d="M731.61,-755.04C746.03,-788.56 785.49,-869.7 845,-911 847.16,-912.5 849.4,-913.9 851.71,-915.22"/>
<polygon fill="#63b8ff" stroke="#63b8ff" points="850.42,-918.49 860.93,-919.87 853.58,-912.24 850.42,-918.49"/>
</a>
</g>
</g>
<!-- Node17 -->
<g id="Node000017" class="node">
<title>Node17</title>
<g id="a_Node000017"><a xlink:href="../../d6/db4/classTerraria_1_1GameContent_1_1Tile__Entities_1_1TEWeaponsRack_aa3987ebaf1e3db83e347561e6bb8c801.html#aa3987ebaf1e3db83e347561e6bb8c801" target="_top" xlink:title=" ">
<polygon fill="white" stroke="#666666" points="1021.5,-902 856.5,-902 856.5,-872 1021.5,-872 1021.5,-902"/>
<text text-anchor="start" x="864.5" y="-890" font-family="Helvetica,sans-Serif" font-size="10.00">Terraria.GameContent.Tile</text>
<text text-anchor="middle" x="939" y="-879" font-family="Helvetica,sans-Serif" font-size="10.00">_Entities.TEWeaponsRack.Find</text>
</a>
</g>
</g>
<!-- Node10&#45;&gt;Node17 -->
<g id="edge19_Node000010_Node000017" class="edge">
<title>Node10&#45;&gt;Node17</title>
<g id="a_edge19_Node000010_Node000017"><a xlink:title=" ">
<path fill="none" stroke="#63b8ff" d="M735.77,-755.06C754.4,-781.16 796.34,-834.74 845,-863 848.05,-864.77 851.23,-866.41 854.49,-867.93"/>
<polygon fill="#63b8ff" stroke="#63b8ff" points="853.33,-871.24 863.9,-871.92 856.06,-864.79 853.33,-871.24"/>
</a>
</g>
</g>
<!-- Node18 -->
<g id="Node000018" class="node">
<title>Node18</title>
<g id="a_Node000018"><a xlink:href="../../dc/ddf/classTerraria_1_1Chest_acd6e0360d9c88e1b967580124250a028.html#acd6e0360d9c88e1b967580124250a028" target="_top" xlink:title="Tries to find a T:Terraria.Chest located at (X , Y ) (tile coordinates).">
<polygon fill="white" stroke="#666666" points="1006.5,-853.5 871.5,-853.5 871.5,-834.5 1006.5,-834.5 1006.5,-853.5"/>
<text text-anchor="middle" x="939" y="-841.5" font-family="Helvetica,sans-Serif" font-size="10.00">Terraria.Chest.FindChest</text>
</a>
</g>
</g>
<!-- Node10&#45;&gt;Node18 -->
<g id="edge20_Node000010_Node000018" class="edge">
<title>Node10&#45;&gt;Node18</title>
<g id="a_edge20_Node000010_Node000018"><a xlink:title=" ">
<path fill="none" stroke="#63b8ff" d="M741.49,-755.06C763.17,-774.59 803.93,-808.27 845,-826 850.32,-828.3 855.94,-830.3 861.67,-832.05"/>
<polygon fill="#63b8ff" stroke="#63b8ff" points="860.82,-835.45 871.39,-834.76 862.7,-828.71 860.82,-835.45"/>
</a>
</g>
</g>
<!-- Node19 -->
<g id="Node000019" class="node">
<title>Node19</title>
<g id="a_Node000019"><a xlink:href="../../dd/d21/classTerraria_1_1Sign_a29027ab23c41a6dfb30ae54caa2be2f7.html#a29027ab23c41a6dfb30ae54caa2be2f7" target="_top" xlink:title=" ">
<polygon fill="white" stroke="#666666" points="1002,-816.5 876,-816.5 876,-797.5 1002,-797.5 1002,-816.5"/>
<text text-anchor="middle" x="939" y="-804.5" font-family="Helvetica,sans-Serif" font-size="10.00">Terraria.Sign.ReadSign</text>
</a>
</g>
</g>
<!-- Node10&#45;&gt;Node19 -->
<g id="edge21_Node000010_Node000019" class="edge">
<title>Node10&#45;&gt;Node19</title>
<g id="a_edge21_Node000010_Node000019"><a xlink:title=" ">
<path fill="none" stroke="#63b8ff" d="M758.41,-755.09C782.09,-765.49 815.02,-779 845,-788 854.02,-790.71 863.65,-793.15 873.16,-795.32"/>
<polygon fill="#63b8ff" stroke="#63b8ff" points="872.49,-798.76 883,-797.48 873.98,-791.92 872.49,-798.76"/>
</a>
</g>
</g>
<!-- Node10&#45;&gt;Node21 -->
<g id="edge23_Node000010_Node000021" class="edge">
<title>Node10&#45;&gt;Node21</title>
<g id="a_edge23_Node000010_Node000021"><a xlink:title=" ">
<path fill="none" stroke="#63b8ff" d="M791.19,-724.8C797.86,-721.15 804,-716.62 809,-711 858.31,-655.56 793.47,-601.38 845,-548 850.26,-542.56 856.57,-538.29 863.4,-534.95"/>
<polygon fill="#63b8ff" stroke="#63b8ff" points="865.11,-538.03 872.99,-530.95 862.41,-531.57 865.11,-538.03"/>
</a>
</g>
</g>
<!-- Node20 -->
<g id="Node000020" class="node">
<title>Node20</title>
<g id="a_Node000020"><a xlink:href="../../dd/d21/classTerraria_1_1Sign_abdb027ce4747b58504b4900b6ea459d9.html#abdb027ce4747b58504b4900b6ea459d9" target="_top" xlink:title=" ">
<polygon fill="white" stroke="#666666" points="1186,-816.5 1069,-816.5 1069,-797.5 1186,-797.5 1186,-816.5"/>
<text text-anchor="middle" x="1127.5" y="-804.5" font-family="Helvetica,sans-Serif" font-size="10.00">Terraria.Sign.KillSign</text>
</a>
</g>
</g>
<!-- Node19&#45;&gt;Node20 -->
<g id="edge22_Node000019_Node000020" class="edge">
<title>Node19&#45;&gt;Node20</title>
<g id="a_edge22_Node000019_Node000020"><a xlink:title=" ">
<path fill="none" stroke="#63b8ff" d="M1002.1,-807C1020.25,-807 1040.18,-807 1058.66,-807"/>
<polygon fill="#63b8ff" stroke="#63b8ff" points="1058.77,-810.5 1068.77,-807 1058.77,-803.5 1058.77,-810.5"/>
</a>
</g>
</g>
<!-- Node26 -->
<g id="Node000026" class="node">
<title>Node26</title>
<g id="a_Node000026"><a xlink:href="../../d1/da9/classTerraria_1_1ModLoader_1_1SystemLoader_ae99eb8c523f713e1b444bb0751fdac97.html#ae99eb8c523f713e1b444bb0751fdac97" target="_top" xlink:title=" ">
<polygon fill="white" stroke="#666666" points="799,-508 650,-508 650,-478 799,-478 799,-508"/>
<text text-anchor="start" x="658" y="-496" font-family="Helvetica,sans-Serif" font-size="10.00">Terraria.ModLoader.System</text>
<text text-anchor="middle" x="724.5" y="-485" font-family="Helvetica,sans-Serif" font-size="10.00">Loader.HijackSendData</text>
</a>
</g>
</g>
<!-- Node25&#45;&gt;Node26 -->
<g id="edge28_Node000025_Node000026" class="edge">
<title>Node25&#45;&gt;Node26</title>
<g id="a_edge28_Node000025_Node000026"><a xlink:title=" ">
<path fill="none" stroke="#63b8ff" d="M586.17,-493C603.49,-493 621.98,-493 639.6,-493"/>
<polygon fill="#63b8ff" stroke="#63b8ff" points="639.86,-496.5 649.86,-493 639.86,-489.5 639.86,-496.5"/>
</a>
</g>
</g>
<!-- Node29 -->
<g id="Node000029" class="node">
<title>Node29</title>
<g id="a_Node000029"><a xlink:href="../../df/d47/classTerraria_1_1ModLoader_1_1ModNet_a0887e1e6a5354d57bf79d5fb93bdb7da.html#a0887e1e6a5354d57bf79d5fb93bdb7da" target="_top" xlink:title=" ">
<polygon fill="white" stroke="#666666" points="801.5,-336 647.5,-336 647.5,-306 801.5,-306 801.5,-336"/>
<text text-anchor="start" x="655.5" y="-324" font-family="Helvetica,sans-Serif" font-size="10.00">Terraria.ModLoader.ModNet.</text>
<text text-anchor="middle" x="724.5" y="-313" font-family="Helvetica,sans-Serif" font-size="10.00">Debug</text>
</a>
</g>
</g>
<!-- Node28&#45;&gt;Node29 -->
<g id="edge31_Node000028_Node000029" class="edge">
<title>Node28&#45;&gt;Node29</title>
<g id="a_edge31_Node000028_Node000029"><a xlink:title=" ">
<path fill="none" stroke="#63b8ff" d="M586.17,-321C602.64,-321 620.16,-321 636.98,-321"/>
<polygon fill="#63b8ff" stroke="#63b8ff" points="637.36,-324.5 647.36,-321 637.36,-317.5 637.36,-324.5"/>
</a>
</g>
</g>
<!-- Node29&#45;&gt;Node29 -->
<g id="edge32_Node000029_Node000029" class="edge">
<title>Node29&#45;&gt;Node29</title>
<g id="a_edge32_Node000029_Node000029"><a xlink:title=" ">
<path fill="none" stroke="#63b8ff" d="M686.88,-336.28C678.52,-345.41 691.06,-354 724.5,-354 744.35,-354 756.84,-350.97 761.96,-346.6"/>
<polygon fill="#63b8ff" stroke="#63b8ff" points="765.46,-346.33 762.12,-336.28 758.46,-346.22 765.46,-346.33"/>
</a>
</g>
</g>
<!-- Node30 -->
<g id="Node000030" class="node">
<title>Node30</title>
<g id="a_Node000030"><a xlink:href="../../df/d47/classTerraria_1_1ModLoader_1_1ModNet_ac2c9d5a95be6bd79eeea20bdc9bd0d46.html#ac2c9d5a95be6bd79eeea20bdc9bd0d46" target="_top" xlink:title=" ">
<polygon fill="white" stroke="#666666" points="1016,-336 862,-336 862,-306 1016,-306 1016,-336"/>
<text text-anchor="start" x="870" y="-324" font-family="Helvetica,sans-Serif" font-size="10.00">Terraria.ModLoader.ModNet.</text>
<text text-anchor="middle" x="939" y="-313" font-family="Helvetica,sans-Serif" font-size="10.00">Identifier</text>
</a>
</g>
</g>
<!-- Node29&#45;&gt;Node30 -->
<g id="edge33_Node000029_Node000030" class="edge">
<title>Node29&#45;&gt;Node30</title>
<g id="a_edge33_Node000029_Node000030"><a xlink:title=" ">
<path fill="none" stroke="#63b8ff" d="M801.62,-321C817.79,-321 834.98,-321 851.51,-321"/>
<polygon fill="#63b8ff" stroke="#63b8ff" points="851.7,-324.5 861.7,-321 851.7,-317.5 851.7,-324.5"/>
</a>
</g>
</g>
<!-- Node31&#45;&gt;Node32 -->
<g id="edge35_Node000031_Node000032" class="edge">
<title>Node31&#45;&gt;Node32</title>
<g id="a_edge35_Node000031_Node000032"><a xlink:title=" ">
<path fill="none" stroke="#63b8ff" d="M799.23,-418.8C817.03,-421.64 836.18,-424.71 854.39,-427.62"/>
<polygon fill="#63b8ff" stroke="#63b8ff" points="853.98,-431.1 864.4,-429.22 855.08,-424.19 853.98,-431.1"/>
</a>
</g>
</g>
<!-- Node34 -->
<g id="Node000034" class="node">
<title>Node34</title>
<g id="a_Node000034"><a xlink:href="../../d1/d9c/classTerraria_1_1Utils_a77957b27eb38a437df68fbc4467ffc54.html#a77957b27eb38a437df68fbc4467ffc54" target="_top" xlink:title="Bit packs a BitArray in to a Byte Array and then sends the byte array.">
<polygon fill="white" stroke="#666666" points="797.5,-282.5 651.5,-282.5 651.5,-263.5 797.5,-263.5 797.5,-282.5"/>
<text text-anchor="middle" x="724.5" y="-270.5" font-family="Helvetica,sans-Serif" font-size="10.00">Terraria.Utils.SendBitArray</text>
</a>
</g>
</g>
<!-- Node33&#45;&gt;Node34 -->
<g id="edge37_Node000033_Node000034" class="edge">
<title>Node33&#45;&gt;Node34</title>
<g id="a_edge37_Node000033_Node000034"><a xlink:title=" ">
<path fill="none" stroke="#63b8ff" d="M584.07,-273C602.55,-273 622.47,-273 641.32,-273"/>
<polygon fill="#63b8ff" stroke="#63b8ff" points="641.36,-276.5 651.36,-273 641.36,-269.5 641.36,-276.5"/>
</a>
</g>
</g>
<!-- Node38&#45;&gt;Node38 -->
<g id="edge43_Node000038_Node000038" class="edge">
<title>Node38&#45;&gt;Node38</title>
<g id="a_edge43_Node000038_Node000038"><a xlink:title=" ">
<path fill="none" stroke="#63b8ff" d="M471.38,-78.28C463.02,-87.41 475.56,-96 509,-96 528.85,-96 541.34,-92.97 546.46,-88.6"/>
<polygon fill="#63b8ff" stroke="#63b8ff" points="549.96,-88.33 546.62,-78.28 542.96,-88.22 549.96,-88.33"/>
</a>
</g>
</g>
<!-- Node42&#45;&gt;Node31 -->
<g id="edge49_Node000042_Node000031" class="edge">
<title>Node42&#45;&gt;Node31</title>
<g id="a_edge49_Node000042_Node000031"><a xlink:title=" ">
<path fill="none" stroke="#63b8ff" d="M594.69,-407C609.54,-407 624.99,-407 639.81,-407"/>
<polygon fill="#63b8ff" stroke="#63b8ff" points="639.96,-410.5 649.96,-407 639.96,-403.5 639.96,-410.5"/>
</a>
</g>
</g>
</g>
</svg>
