<?xml version="1.0" encoding="UTF-8" standalone="no"?>
<!DOCTYPE svg PUBLIC "-//W3C//DTD SVG 1.1//EN"
 "http://www.w3.org/Graphics/SVG/1.1/DTD/svg11.dtd">
<!-- Generated by graphviz version 2.43.0 (0)
 -->
<!-- Title: Terraria.GameContent.UI.States.UICreativePowersMenu.CreateWeatherPowerStrip Pages: 1 -->
<!--zoomable 226 -->

<svg id="main" version="1.1" xmlns="http://www.w3.org/2000/svg" xmlns:xlink="http://www.w3.org/1999/xlink" xml:space="preserve" onload="init(evt)">
<style type="text/css"><![CDATA[
.node, .edge {opacity: 0.7;}
.node.selected, .edge.selected {opacity: 1;}
.edge:hover path { stroke: red; }
.edge:hover polygon { stroke: red; fill: red; }
]]></style>

<defs>
  <circle id="rim" cx="0" cy="0" r="7"/>
  <circle id="rim2" cx="0" cy="0" r="3.5"/>
  <g id="zoomPlus">
    <use xlink:href="#rim" fill="#404040"><set attributeName="fill" to="#808080" begin="zoomplus.mouseover" end="zoomplus.mouseout"/></use>
    <path d="M-4,0h8M0,-4v8" fill="none" stroke="white" stroke-width="1.5" pointer-events="none"/>
  </g>
  <g id="zoomMin">
    <use xlink:href="#rim" fill="#404040"><set attributeName="fill" to="#808080" begin="zoomminus.mouseover" end="zoomminus.mouseout"/></use>
    <path d="M-4,0h8" fill="none" stroke="white" stroke-width="1.5" pointer-events="none"/>
  </g>
  <g id="arrowUp" transform="translate(30 24)">
    <use xlink:href="#rim"/>
    <path pointer-events="none" fill="none" stroke="white" stroke-width="1.5" d="M0,-3.0v7 M-2.5,-0.5L0,-3.0L2.5,-0.5"/>
  </g>
  <g id="arrowRight" transform="rotate(90) translate(36 -43)">
    <use xlink:href="#rim"/>
    <path pointer-events="none" fill="none" stroke="white" stroke-width="1.5" d="M0,-3.0v7 M-2.5,-0.5L0,-3.0L2.5,-0.5"/>
  </g>
  <g id="arrowDown" transform="rotate(180) translate(-30 -48)">
    <use xlink:href="#rim"/>
    <path pointer-events="none" fill="none" stroke="white" stroke-width="1.5" d="M0,-3.0v7 M-2.5,-0.5L0,-3.0L2.5,-0.5"/>
  </g>
  <g id="arrowLeft" transform="rotate(270) translate(-36 17)">
    <use xlink:href="#rim"/>
    <path pointer-events="none" fill="none" stroke="white" stroke-width="1.5" d="M0,-3.0v7 M-2.5,-0.5L0,-3.0L2.5,-0.5"/>
  </g>
  <g id="resetDef">
    <use xlink:href="#rim2" fill="#404040"><set attributeName="fill" to="#808080" begin="reset.mouseover" end="reset.mouseout"/></use>
  </g>
</defs>
<script type="application/ecmascript">
var viewWidth = 829;
var viewHeight = 226;
var sectionId = 'dynsection-0';
</script>
<script type="application/ecmascript" xlink:href="../../svg.min.js"/>
<svg id="graph" class="graph">
<g id="viewport">
<title>Terraria.GameContent.UI.States.UICreativePowersMenu.CreateWeatherPowerStrip</title>
<!-- Node1 -->
<g id="Node000001" class="node">
<title>Node1</title>
<g id="a_Node000001"><a xlink:title=" ">
<polygon fill="#999999" stroke="#666666" points="167,-129 0,-129 0,-88 167,-88 167,-129"/>
<text text-anchor="start" x="8" y="-117" font-family="Helvetica,sans-Serif" font-size="10.00">Terraria.GameContent.UI.</text>
<text text-anchor="start" x="8" y="-106" font-family="Helvetica,sans-Serif" font-size="10.00">States.UICreativePowersMenu.</text>
<text text-anchor="middle" x="83.5" y="-95" font-family="Helvetica,sans-Serif" font-size="10.00">CreateWeatherPowerStrip</text>
</a>
</g>
</g>
<!-- Node2 -->
<g id="Node000002" class="node">
<title>Node2</title>
<g id="a_Node000002"><a xlink:href="../../dc/dcf/classTerraria_1_1GameContent_1_1UI_1_1States_1_1UICreativePowersMenu_a29f6118da3fbc457941d1c617df54e4a.html#a29f6118da3fbc457941d1c617df54e4a" target="_top" xlink:title=" ">
<polygon fill="white" stroke="#666666" points="370,-129 203,-129 203,-88 370,-88 370,-129"/>
<text text-anchor="start" x="211" y="-117" font-family="Helvetica,sans-Serif" font-size="10.00">Terraria.GameContent.UI.</text>
<text text-anchor="start" x="211" y="-106" font-family="Helvetica,sans-Serif" font-size="10.00">States.UICreativePowersMenu.</text>
<text text-anchor="middle" x="286.5" y="-95" font-family="Helvetica,sans-Serif" font-size="10.00">WeatherCategoryButtonClick</text>
</a>
</g>
</g>
<!-- Node1&#45;&gt;Node2 -->
<g id="edge1_Node000001_Node000002" class="edge">
<title>Node1&#45;&gt;Node2</title>
<g id="a_edge1_Node000001_Node000002"><a xlink:title=" ">
<path fill="none" stroke="#63b8ff" d="M167.12,-108.5C175.61,-108.5 184.27,-108.5 192.85,-108.5"/>
<polygon fill="#63b8ff" stroke="#63b8ff" points="192.87,-112 202.87,-108.5 192.87,-105 192.87,-112"/>
</a>
</g>
</g>
<!-- Node3 -->
<g id="Node000003" class="node">
<title>Node3</title>
<g id="a_Node000003"><a xlink:href="../../de/d34/classTerraria_1_1GameContent_1_1Creative_1_1CreativePowers_1_1ModifyWindDirectionAndStrength_a940f75d6812c27b88731c47064517eed.html#a940f75d6812c27b88731c47064517eed" target="_top" xlink:title=" ">
<polygon fill="white" stroke="#666666" points="605,-218 407,-218 407,-177 605,-177 605,-218"/>
<text text-anchor="start" x="415" y="-206" font-family="Helvetica,sans-Serif" font-size="10.00">Terraria.GameContent.Creative.</text>
<text text-anchor="start" x="415" y="-195" font-family="Helvetica,sans-Serif" font-size="10.00">CreativePowers.ModifyWindDirection</text>
<text text-anchor="middle" x="506" y="-184" font-family="Helvetica,sans-Serif" font-size="10.00">AndStrength.GetIsUnlocked</text>
</a>
</g>
</g>
<!-- Node2&#45;&gt;Node3 -->
<g id="edge2_Node000002_Node000003" class="edge">
<title>Node2&#45;&gt;Node3</title>
<g id="a_edge2_Node000002_Node000003"><a xlink:title=" ">
<path fill="none" stroke="#63b8ff" d="M323.79,-129.07C346.84,-141.58 377.59,-157.26 406,-168.5 410.45,-170.26 415.05,-171.97 419.72,-173.62"/>
<polygon fill="#63b8ff" stroke="#63b8ff" points="418.78,-177 429.37,-176.92 421.04,-170.37 418.78,-177"/>
</a>
</g>
</g>
<!-- Node4 -->
<g id="Node000004" class="node">
<title>Node4</title>
<g id="a_Node000004"><a xlink:href="../../da/dd3/classTerraria_1_1GameContent_1_1Creative_1_1CreativePowers_1_1ModifyRainPower_a98fa0f2e57a63b8c09e19098ec2de201.html#a98fa0f2e57a63b8c09e19098ec2de201" target="_top" xlink:title=" ">
<polygon fill="white" stroke="#666666" points="606,-159 406,-159 406,-118 606,-118 606,-159"/>
<text text-anchor="start" x="414" y="-147" font-family="Helvetica,sans-Serif" font-size="10.00">Terraria.GameContent.Creative.</text>
<text text-anchor="start" x="414" y="-136" font-family="Helvetica,sans-Serif" font-size="10.00">CreativePowers.ModifyRainPower.Get</text>
<text text-anchor="middle" x="506" y="-125" font-family="Helvetica,sans-Serif" font-size="10.00">IsUnlocked</text>
</a>
</g>
</g>
<!-- Node2&#45;&gt;Node4 -->
<g id="edge3_Node000002_Node000004" class="edge">
<title>Node2&#45;&gt;Node4</title>
<g id="a_edge3_Node000002_Node000004"><a xlink:title=" ">
<path fill="none" stroke="#63b8ff" d="M370.04,-119.88C378.42,-121.04 387.02,-122.23 395.62,-123.41"/>
<polygon fill="#63b8ff" stroke="#63b8ff" points="395.33,-126.91 405.71,-124.8 396.28,-119.97 395.33,-126.91"/>
</a>
</g>
</g>
<!-- Node5 -->
<g id="Node000005" class="node">
<title>Node5</title>
<g id="a_Node000005"><a xlink:href="../../dc/dcf/classTerraria_1_1GameContent_1_1UI_1_1States_1_1UICreativePowersMenu_a3add26e1f347c5b6eced8ff356f548fd.html#a3add26e1f347c5b6eced8ff356f548fd" target="_top" xlink:title=" ">
<polygon fill="white" stroke="#666666" points="589.5,-100 422.5,-100 422.5,-59 589.5,-59 589.5,-100"/>
<text text-anchor="start" x="430.5" y="-88" font-family="Helvetica,sans-Serif" font-size="10.00">Terraria.GameContent.UI.</text>
<text text-anchor="start" x="430.5" y="-77" font-family="Helvetica,sans-Serif" font-size="10.00">States.UICreativePowersMenu.</text>
<text text-anchor="middle" x="506" y="-66" font-family="Helvetica,sans-Serif" font-size="10.00">RefreshElementsOrder</text>
</a>
</g>
</g>
<!-- Node2&#45;&gt;Node5 -->
<g id="edge4_Node000002_Node000005" class="edge">
<title>Node2&#45;&gt;Node5</title>
<g id="a_edge4_Node000002_Node000005"><a xlink:title=" ">
<path fill="none" stroke="#63b8ff" d="M370.04,-97.49C383.77,-95.66 398.09,-93.75 412.06,-91.89"/>
<polygon fill="#63b8ff" stroke="#63b8ff" points="412.71,-95.34 422.16,-90.55 411.78,-88.4 412.71,-95.34"/>
</a>
</g>
</g>
<!-- Node9 -->
<g id="Node000009" class="node">
<title>Node9</title>
<g id="a_Node000009"><a xlink:href="../../dc/dcf/classTerraria_1_1GameContent_1_1UI_1_1States_1_1UICreativePowersMenu_ae04d0b42753bcc560f5cd52d0ec1c588.html#ae04d0b42753bcc560f5cd52d0ec1c588" target="_top" xlink:title=" ">
<polygon fill="white" stroke="#666666" points="589.5,-41 422.5,-41 422.5,0 589.5,0 589.5,-41"/>
<text text-anchor="start" x="430.5" y="-29" font-family="Helvetica,sans-Serif" font-size="10.00">Terraria.GameContent.UI.</text>
<text text-anchor="start" x="430.5" y="-18" font-family="Helvetica,sans-Serif" font-size="10.00">States.UICreativePowersMenu.</text>
<text text-anchor="middle" x="506" y="-7" font-family="Helvetica,sans-Serif" font-size="10.00">ToggleWeatherCategory</text>
</a>
</g>
</g>
<!-- Node2&#45;&gt;Node9 -->
<g id="edge8_Node000002_Node000009" class="edge">
<title>Node2&#45;&gt;Node9</title>
<g id="a_edge8_Node000002_Node000009"><a xlink:title=" ">
<path fill="none" stroke="#63b8ff" d="M324.62,-87.89C347.6,-75.68 377.97,-60.48 406,-49.5 410.5,-47.73 415.16,-46.02 419.89,-44.36"/>
<polygon fill="#63b8ff" stroke="#63b8ff" points="421.31,-47.57 429.66,-41.05 419.07,-40.95 421.31,-47.57"/>
</a>
</g>
</g>
<!-- Node6 -->
<g id="Node000006" class="node">
<title>Node6</title>
<g id="a_Node000006"><a xlink:href="../../d7/d72/classTerraria_1_1UI_1_1UIElement_a4f78a3ab59b3dffcdc5b68328a46f103.html#a4f78a3ab59b3dffcdc5b68328a46f103" target="_top" xlink:title=" ">
<polygon fill="white" stroke="#666666" points="812,-132 651,-132 651,-113 812,-113 812,-132"/>
<text text-anchor="middle" x="731.5" y="-120" font-family="Helvetica,sans-Serif" font-size="10.00">Terraria.UI.UIElement.Append</text>
</a>
</g>
</g>
<!-- Node5&#45;&gt;Node6 -->
<g id="edge5_Node000005_Node000006" class="edge">
<title>Node5&#45;&gt;Node6</title>
<g id="a_edge5_Node000005_Node000006"><a xlink:title=" ">
<path fill="none" stroke="#63b8ff" d="M589.59,-95.39C616.58,-100.58 646.02,-106.25 670.97,-111.05"/>
<polygon fill="#63b8ff" stroke="#63b8ff" points="670.53,-114.53 681.01,-112.98 671.86,-107.65 670.53,-114.53"/>
</a>
</g>
</g>
<!-- Node7 -->
<g id="Node000007" class="node">
<title>Node7</title>
<g id="a_Node000007"><a xlink:href="../../d7/d72/classTerraria_1_1UI_1_1UIElement_a8358ff058ca4696cbdf817c755f2e568.html#a8358ff058ca4696cbdf817c755f2e568" target="_top" xlink:title=" ">
<polygon fill="white" stroke="#666666" points="813.5,-94.5 649.5,-94.5 649.5,-64.5 813.5,-64.5 813.5,-94.5"/>
<text text-anchor="start" x="657.5" y="-82.5" font-family="Helvetica,sans-Serif" font-size="10.00">Terraria.UI.UIElement.Remove</text>
<text text-anchor="middle" x="731.5" y="-71.5" font-family="Helvetica,sans-Serif" font-size="10.00">AllChildren</text>
</a>
</g>
</g>
<!-- Node5&#45;&gt;Node7 -->
<g id="edge6_Node000005_Node000007" class="edge">
<title>Node5&#45;&gt;Node7</title>
<g id="a_edge6_Node000005_Node000007"><a xlink:title=" ">
<path fill="none" stroke="#63b8ff" d="M589.59,-79.5C605.76,-79.5 622.8,-79.5 639.23,-79.5"/>
<polygon fill="#63b8ff" stroke="#63b8ff" points="639.37,-83 649.37,-79.5 639.37,-76 639.37,-83"/>
</a>
</g>
</g>
<!-- Node8 -->
<g id="Node000008" class="node">
<title>Node8</title>
<g id="a_Node000008"><a xlink:href="../../d8/d31/classTerraria_1_1GameContent_1_1UI_1_1Elements_1_1UICreativeInfiniteItemsDisplay_abe23332bf56a37e4011a806bcac1f173.html#abe23332bf56a37e4011a806bcac1f173" target="_top" xlink:title=" ">
<polygon fill="white" stroke="#666666" points="821,-46 642,-46 642,-5 821,-5 821,-46"/>
<text text-anchor="start" x="650" y="-34" font-family="Helvetica,sans-Serif" font-size="10.00">Terraria.GameContent.UI.</text>
<text text-anchor="start" x="650" y="-23" font-family="Helvetica,sans-Serif" font-size="10.00">Elements.UICreativeInfiniteItems</text>
<text text-anchor="middle" x="731.5" y="-12" font-family="Helvetica,sans-Serif" font-size="10.00">Display.SetPageTypeToShow</text>
</a>
</g>
</g>
<!-- Node5&#45;&gt;Node8 -->
<g id="edge7_Node000005_Node000008" class="edge">
<title>Node5&#45;&gt;Node8</title>
<g id="a_edge7_Node000005_Node000008"><a xlink:title=" ">
<path fill="none" stroke="#63b8ff" d="M589.59,-59.55C604.58,-55.92 620.33,-52.12 635.65,-48.42"/>
<polygon fill="#63b8ff" stroke="#63b8ff" points="636.74,-51.76 645.63,-46 635.09,-44.95 636.74,-51.76"/>
</a>
</g>
</g>
</g>
</svg>

<g id="navigator" transform="translate(0 0)" fill="#404254">
  <rect fill="#f2f5e9" fill-opacity="0.5" stroke="#606060" stroke-width=".5" x="0" y="0" width="60" height="60"/>
  <use id="zoomplus" xlink:href="#zoomPlus" x="17" y="9" onmousedown="handleZoom(evt,'in')"/>
  <use id="zoomminus" xlink:href="#zoomMin" x="42" y="9" onmousedown="handleZoom(evt,'out')"/>
  <use id="reset" xlink:href="#resetDef" x="30" y="36" onmousedown="handleReset()"/>
   <use id="arrowup" xlink:href="#arrowUp" x="0" y="0" onmousedown="handlePan(0,-1)"/>
  <use id="arrowright" xlink:href="#arrowRight" x="0" y="0" onmousedown="handlePan(1,0)"/>
  <use id="arrowdown" xlink:href="#arrowDown" x="0" y="0" onmousedown="handlePan(0,1)"/>
  <use id="arrowleft" xlink:href="#arrowLeft" x="0" y="0" onmousedown="handlePan(-1,0)"/>
</g>
<svg viewBox="0 0 15 15" width="100%" height="30px" preserveAspectRatio="xMaxYMin meet">
 <g id="arrow_out" transform="scale(0.3 0.3)">
  <a xlink:href="classTerraria_1_1GameContent_1_1UI_1_1States_1_1UICreativePowersMenu_a2f9542e68b4912ae9cce20e0d539d75f_a2f9542e68b4912ae9cce20e0d539d75f_cgraph_org.svg" target="_base">
   <rect id="button" ry="5" rx="5" y="6" x="6" height="38" width="38"
        fill="#f2f5e9" fill-opacity="0.5" stroke="#606060" stroke-width="1.0"/>
   <path id="arrow"
     d="M 11.500037,31.436501 C 11.940474,20.09759 22.043105,11.32322 32.158766,21.979434 L 37.068811,17.246167 C 37.068811,17.246167 37.088388,32 37.088388,32 L 22.160133,31.978069 C 22.160133,31.978069 26.997745,27.140456 26.997745,27.140456 C 18.528582,18.264221 13.291696,25.230495 11.500037,31.436501 z"
     style="fill:#404040;"/>
  </a>
 </g>
</svg>

<style type='text/css'>
<![CDATA[
[data-mouse-over-selected='false'] { opacity: 0.7; }
[data-mouse-over-selected='true']  { opacity: 1.0; }
]]>
</style>
<script type="application/ecmascript"><![CDATA[
document.addEventListener('DOMContentLoaded', (event) => {
  highlightEdges();
  highlightAdjacentNodes();
});
]]></script>
</svg>
