<?xml version="1.0" encoding="UTF-8" standalone="no"?>
<!DOCTYPE svg PUBLIC "-//W3C//DTD SVG 1.1//EN"
 "http://www.w3.org/Graphics/SVG/1.1/DTD/svg11.dtd">
<!-- Generated by graphviz version 2.43.0 (0)
 -->
<!-- Title: Terraria.GameContent.UI.States.UICreativePowersMenu.PersonalCategoryButtonClick Pages: 1 -->
<svg width="620pt" height="167pt"
 viewBox="0.00 0.00 620.00 167.00" xmlns="http://www.w3.org/2000/svg" xmlns:xlink="http://www.w3.org/1999/xlink">
<g id="graph0" class="graph" transform="scale(1 1) rotate(0) translate(4 163)">
<title>Terraria.GameContent.UI.States.UICreativePowersMenu.PersonalCategoryButtonClick</title>
<!-- Node1 -->
<g id="Node000001" class="node">
<title>Node1</title>
<g id="a_Node000001"><a xlink:title=" ">
<polygon fill="#999999" stroke="#666666" points="167,-100 0,-100 0,-59 167,-59 167,-100"/>
<text text-anchor="start" x="8" y="-88" font-family="Helvetica,sans-Serif" font-size="10.00">Terraria.GameContent.UI.</text>
<text text-anchor="start" x="8" y="-77" font-family="Helvetica,sans-Serif" font-size="10.00">States.UICreativePowersMenu.</text>
<text text-anchor="middle" x="83.5" y="-66" font-family="Helvetica,sans-Serif" font-size="10.00">PersonalCategoryButtonClick</text>
</a>
</g>
</g>
<!-- Node2 -->
<g id="Node000002" class="node">
<title>Node2</title>
<g id="a_Node000002"><a xlink:href="../../de/dd5/classTerraria_1_1GameContent_1_1Creative_1_1CreativePowers_1_1SpawnRateSliderPerPlayerPower_ada35274cd7179df0d7d97561b5b6cdc4.html#ada35274cd7179df0d7d97561b5b6cdc4" target="_top" xlink:title=" ">
<polygon fill="white" stroke="#666666" points="397,-159 203,-159 203,-118 397,-118 397,-159"/>
<text text-anchor="start" x="211" y="-147" font-family="Helvetica,sans-Serif" font-size="10.00">Terraria.GameContent.Creative.</text>
<text text-anchor="start" x="211" y="-136" font-family="Helvetica,sans-Serif" font-size="10.00">CreativePowers.SpawnRateSliderPer</text>
<text text-anchor="middle" x="300" y="-125" font-family="Helvetica,sans-Serif" font-size="10.00">PlayerPower.GetIsUnlocked</text>
</a>
</g>
</g>
<!-- Node1&#45;&gt;Node2 -->
<g id="edge1_Node000001_Node000002" class="edge">
<title>Node1&#45;&gt;Node2</title>
<g id="a_edge1_Node000001_Node000002"><a xlink:title=" ">
<path fill="none" stroke="#63b8ff" d="M159.22,-100.05C177.05,-104.96 196.21,-110.23 214.45,-115.24"/>
<polygon fill="#63b8ff" stroke="#63b8ff" points="213.61,-118.64 224.18,-117.92 215.47,-111.89 213.61,-118.64"/>
</a>
</g>
</g>
<!-- Node3 -->
<g id="Node000003" class="node">
<title>Node3</title>
<g id="a_Node000003"><a xlink:href="../../dc/dcf/classTerraria_1_1GameContent_1_1UI_1_1States_1_1UICreativePowersMenu_a3add26e1f347c5b6eced8ff356f548fd.html#a3add26e1f347c5b6eced8ff356f548fd" target="_top" xlink:title=" ">
<polygon fill="white" stroke="#666666" points="383.5,-100 216.5,-100 216.5,-59 383.5,-59 383.5,-100"/>
<text text-anchor="start" x="224.5" y="-88" font-family="Helvetica,sans-Serif" font-size="10.00">Terraria.GameContent.UI.</text>
<text text-anchor="start" x="224.5" y="-77" font-family="Helvetica,sans-Serif" font-size="10.00">States.UICreativePowersMenu.</text>
<text text-anchor="middle" x="300" y="-66" font-family="Helvetica,sans-Serif" font-size="10.00">RefreshElementsOrder</text>
</a>
</g>
</g>
<!-- Node1&#45;&gt;Node3 -->
<g id="edge2_Node000001_Node000003" class="edge">
<title>Node1&#45;&gt;Node3</title>
<g id="a_edge2_Node000001_Node000003"><a xlink:title=" ">
<path fill="none" stroke="#63b8ff" d="M167.12,-79.5C179.88,-79.5 193.13,-79.5 206.1,-79.5"/>
<polygon fill="#63b8ff" stroke="#63b8ff" points="206.42,-83 216.42,-79.5 206.42,-76 206.42,-83"/>
</a>
</g>
</g>
<!-- Node7 -->
<g id="Node000007" class="node">
<title>Node7</title>
<g id="a_Node000007"><a xlink:href="../../dc/dcf/classTerraria_1_1GameContent_1_1UI_1_1States_1_1UICreativePowersMenu_a366adb0dc267a1e525355b8672b30e52.html#a366adb0dc267a1e525355b8672b30e52" target="_top" xlink:title=" ">
<polygon fill="white" stroke="#666666" points="383.5,-41 216.5,-41 216.5,0 383.5,0 383.5,-41"/>
<text text-anchor="start" x="224.5" y="-29" font-family="Helvetica,sans-Serif" font-size="10.00">Terraria.GameContent.UI.</text>
<text text-anchor="start" x="224.5" y="-18" font-family="Helvetica,sans-Serif" font-size="10.00">States.UICreativePowersMenu.</text>
<text text-anchor="middle" x="300" y="-7" font-family="Helvetica,sans-Serif" font-size="10.00">TogglePersonalCategory</text>
</a>
</g>
</g>
<!-- Node1&#45;&gt;Node7 -->
<g id="edge6_Node000001_Node000007" class="edge">
<title>Node1&#45;&gt;Node7</title>
<g id="a_edge6_Node000001_Node000007"><a xlink:title=" ">
<path fill="none" stroke="#63b8ff" d="M159.22,-58.95C177.05,-54.04 196.21,-48.77 214.45,-43.76"/>
<polygon fill="#63b8ff" stroke="#63b8ff" points="215.47,-47.11 224.18,-41.08 213.61,-40.36 215.47,-47.11"/>
</a>
</g>
</g>
<!-- Node4 -->
<g id="Node000004" class="node">
<title>Node4</title>
<g id="a_Node000004"><a xlink:href="../../d7/d72/classTerraria_1_1UI_1_1UIElement_a4f78a3ab59b3dffcdc5b68328a46f103.html#a4f78a3ab59b3dffcdc5b68328a46f103" target="_top" xlink:title=" ">
<polygon fill="white" stroke="#666666" points="603,-132 442,-132 442,-113 603,-113 603,-132"/>
<text text-anchor="middle" x="522.5" y="-120" font-family="Helvetica,sans-Serif" font-size="10.00">Terraria.UI.UIElement.Append</text>
</a>
</g>
</g>
<!-- Node3&#45;&gt;Node4 -->
<g id="edge3_Node000003_Node000004" class="edge">
<title>Node3&#45;&gt;Node4</title>
<g id="a_edge3_Node000003_Node000004"><a xlink:title=" ">
<path fill="none" stroke="#63b8ff" d="M383.73,-95.63C409.93,-100.74 438.34,-106.28 462.52,-111"/>
<polygon fill="#63b8ff" stroke="#63b8ff" points="462.12,-114.49 472.61,-112.97 463.46,-107.62 462.12,-114.49"/>
</a>
</g>
</g>
<!-- Node5 -->
<g id="Node000005" class="node">
<title>Node5</title>
<g id="a_Node000005"><a xlink:href="../../d7/d72/classTerraria_1_1UI_1_1UIElement_a8358ff058ca4696cbdf817c755f2e568.html#a8358ff058ca4696cbdf817c755f2e568" target="_top" xlink:title=" ">
<polygon fill="white" stroke="#666666" points="604.5,-94.5 440.5,-94.5 440.5,-64.5 604.5,-64.5 604.5,-94.5"/>
<text text-anchor="start" x="448.5" y="-82.5" font-family="Helvetica,sans-Serif" font-size="10.00">Terraria.UI.UIElement.Remove</text>
<text text-anchor="middle" x="522.5" y="-71.5" font-family="Helvetica,sans-Serif" font-size="10.00">AllChildren</text>
</a>
</g>
</g>
<!-- Node3&#45;&gt;Node5 -->
<g id="edge4_Node000003_Node000005" class="edge">
<title>Node3&#45;&gt;Node5</title>
<g id="a_edge4_Node000003_Node000005"><a xlink:title=" ">
<path fill="none" stroke="#63b8ff" d="M383.73,-79.5C398.97,-79.5 414.96,-79.5 430.42,-79.5"/>
<polygon fill="#63b8ff" stroke="#63b8ff" points="430.5,-83 440.5,-79.5 430.5,-76 430.5,-83"/>
</a>
</g>
</g>
<!-- Node6 -->
<g id="Node000006" class="node">
<title>Node6</title>
<g id="a_Node000006"><a xlink:href="../../d8/d31/classTerraria_1_1GameContent_1_1UI_1_1Elements_1_1UICreativeInfiniteItemsDisplay_abe23332bf56a37e4011a806bcac1f173.html#abe23332bf56a37e4011a806bcac1f173" target="_top" xlink:title=" ">
<polygon fill="white" stroke="#666666" points="612,-46 433,-46 433,-5 612,-5 612,-46"/>
<text text-anchor="start" x="441" y="-34" font-family="Helvetica,sans-Serif" font-size="10.00">Terraria.GameContent.UI.</text>
<text text-anchor="start" x="441" y="-23" font-family="Helvetica,sans-Serif" font-size="10.00">Elements.UICreativeInfiniteItems</text>
<text text-anchor="middle" x="522.5" y="-12" font-family="Helvetica,sans-Serif" font-size="10.00">Display.SetPageTypeToShow</text>
</a>
</g>
</g>
<!-- Node3&#45;&gt;Node6 -->
<g id="edge5_Node000003_Node000006" class="edge">
<title>Node3&#45;&gt;Node6</title>
<g id="a_edge5_Node000003_Node000006"><a xlink:title=" ">
<path fill="none" stroke="#63b8ff" d="M383.73,-59.24C398.03,-55.74 412.99,-52.07 427.56,-48.51"/>
<polygon fill="#63b8ff" stroke="#63b8ff" points="428.69,-51.83 437.57,-46.05 427.02,-45.03 428.69,-51.83"/>
</a>
</g>
</g>
</g>
</svg>
