<?xml version="1.0" encoding="UTF-8" standalone="no"?>
<!DOCTYPE svg PUBLIC "-//W3C//DTD SVG 1.1//EN"
 "http://www.w3.org/Graphics/SVG/1.1/DTD/svg11.dtd">
<!-- Generated by graphviz version 2.43.0 (0)
 -->
<!-- Title: Terraria.Item.TryCombiningIntoNearbyItems Pages: 1 -->
<svg width="1336pt" height="1200pt"
 viewBox="0.00 0.00 1336.00 1200.00" xmlns="http://www.w3.org/2000/svg" xmlns:xlink="http://www.w3.org/1999/xlink">
<g id="graph0" class="graph" transform="scale(1 1) rotate(0) translate(4 1196)">
<title>Terraria.Item.TryCombiningIntoNearbyItems</title>
<!-- Node1 -->
<g id="Node000001" class="node">
<title>Node1</title>
<g id="a_Node000001"><a xlink:title=" ">
<polygon fill="#999999" stroke="#666666" points="149,-522 0,-522 0,-492 149,-492 149,-522"/>
<text text-anchor="start" x="8" y="-510" font-family="Helvetica,sans-Serif" font-size="10.00">Terraria.Item.TryCombining</text>
<text text-anchor="middle" x="74.5" y="-499" font-family="Helvetica,sans-Serif" font-size="10.00">IntoNearbyItems</text>
</a>
</g>
</g>
<!-- Node2 -->
<g id="Node000002" class="node">
<title>Node2</title>
<g id="a_Node000002"><a xlink:href="../../db/d79/classTerraria_1_1Item_ab791106d300a49839e3bfa2ebdf60258.html#ab791106d300a49839e3bfa2ebdf60258" target="_top" xlink:title=" ">
<polygon fill="white" stroke="#666666" points="333,-522 185,-522 185,-492 333,-492 333,-522"/>
<text text-anchor="start" x="193" y="-510" font-family="Helvetica,sans-Serif" font-size="10.00">Terraria.Item.CombineWith</text>
<text text-anchor="middle" x="259" y="-499" font-family="Helvetica,sans-Serif" font-size="10.00">NearbyItems</text>
</a>
</g>
</g>
<!-- Node1&#45;&gt;Node2 -->
<g id="edge1_Node000001_Node000002" class="edge">
<title>Node1&#45;&gt;Node2</title>
<g id="a_edge1_Node000001_Node000002"><a xlink:title=" ">
<path fill="none" stroke="#63b8ff" d="M149.2,-507C157.67,-507 166.34,-507 174.91,-507"/>
<polygon fill="#63b8ff" stroke="#63b8ff" points="174.91,-510.5 184.91,-507 174.91,-503.5 174.91,-510.5"/>
</a>
</g>
</g>
<!-- Node3 -->
<g id="Node000003" class="node">
<title>Node3</title>
<g id="a_Node000003"><a xlink:href="../../db/d79/classTerraria_1_1Item_a51a30854b6fd0f04c4cb02fee7f6d64f.html#a51a30854b6fd0f04c4cb02fee7f6d64f" target="_top" xlink:title=" ">
<polygon fill="white" stroke="#666666" points="526,-640 382,-640 382,-610 526,-610 526,-640"/>
<text text-anchor="start" x="390" y="-628" font-family="Helvetica,sans-Serif" font-size="10.00">Terraria.Item.CanCombine</text>
<text text-anchor="middle" x="454" y="-617" font-family="Helvetica,sans-Serif" font-size="10.00">StackInWorld</text>
</a>
</g>
</g>
<!-- Node2&#45;&gt;Node3 -->
<g id="edge2_Node000002_Node000003" class="edge">
<title>Node2&#45;&gt;Node3</title>
<g id="a_edge2_Node000002_Node000003"><a xlink:title=" ">
<path fill="none" stroke="#63b8ff" d="M273.61,-522.33C292.87,-543.1 330.08,-579.99 369,-601 372.43,-602.85 376.02,-604.57 379.7,-606.17"/>
<polygon fill="#63b8ff" stroke="#63b8ff" points="378.41,-609.43 389,-609.9 381.02,-602.93 378.41,-609.43"/>
</a>
</g>
</g>
<!-- Node4 -->
<g id="Node000004" class="node">
<title>Node4</title>
<g id="a_Node000004"><a xlink:href="../../d7/de6/classTerraria_1_1ModLoader_1_1ItemLoader_aa56d85982ee46e9f593f2373867c4a76.html#aa56d85982ee46e9f593f2373867c4a76" target="_top" xlink:title="Returns false if item prefixes don&#39;t match. Then calls all GlobalItem.CanStack hooks until one return...">
<polygon fill="white" stroke="#666666" points="539,-592 369,-592 369,-562 539,-562 539,-592"/>
<text text-anchor="start" x="377" y="-580" font-family="Helvetica,sans-Serif" font-size="10.00">Terraria.ModLoader.ItemLoader.</text>
<text text-anchor="middle" x="454" y="-569" font-family="Helvetica,sans-Serif" font-size="10.00">CanStack</text>
</a>
</g>
</g>
<!-- Node2&#45;&gt;Node4 -->
<g id="edge3_Node000002_Node000004" class="edge">
<title>Node2&#45;&gt;Node4</title>
<g id="a_edge3_Node000002_Node000004"><a xlink:title=" ">
<path fill="none" stroke="#63b8ff" d="M292.98,-522.15C314.39,-531.68 343.04,-543.85 369,-553 374.82,-555.05 380.91,-557.06 387.04,-558.98"/>
<polygon fill="#63b8ff" stroke="#63b8ff" points="386.09,-562.35 396.67,-561.93 388.14,-555.65 386.09,-562.35"/>
</a>
</g>
</g>
<!-- Node5 -->
<g id="Node000005" class="node">
<title>Node5</title>
<g id="a_Node000005"><a xlink:href="../../d7/de6/classTerraria_1_1ModLoader_1_1ItemLoader_a63114ec0b82083edc4c94531613a3a97.html#a63114ec0b82083edc4c94531613a3a97" target="_top" xlink:title="Calls all GlobalItem.CanStackInWorld hooks until one returns false then ModItem.CanStackInWorld....">
<polygon fill="white" stroke="#666666" points="539,-544 369,-544 369,-514 539,-514 539,-544"/>
<text text-anchor="start" x="377" y="-532" font-family="Helvetica,sans-Serif" font-size="10.00">Terraria.ModLoader.ItemLoader.</text>
<text text-anchor="middle" x="454" y="-521" font-family="Helvetica,sans-Serif" font-size="10.00">CanStackInWorld</text>
</a>
</g>
</g>
<!-- Node2&#45;&gt;Node5 -->
<g id="edge4_Node000002_Node000005" class="edge">
<title>Node2&#45;&gt;Node5</title>
<g id="a_edge4_Node000002_Node000005"><a xlink:title=" ">
<path fill="none" stroke="#63b8ff" d="M333.24,-515.35C341.59,-516.3 350.2,-517.28 358.77,-518.26"/>
<polygon fill="#63b8ff" stroke="#63b8ff" points="358.48,-521.75 368.82,-519.4 359.28,-514.79 358.48,-521.75"/>
</a>
</g>
</g>
<!-- Node6 -->
<g id="Node000006" class="node">
<title>Node6</title>
<g id="a_Node000006"><a xlink:href="../../d2/dfe/classTerraria_1_1NetMessage_a0099400efdc729b71368da55adc01263.html#a0099400efdc729b71368da55adc01263" target="_top" xlink:title=" ">
<polygon fill="white" stroke="#666666" points="537.5,-495.5 370.5,-495.5 370.5,-476.5 537.5,-476.5 537.5,-495.5"/>
<text text-anchor="middle" x="454" y="-483.5" font-family="Helvetica,sans-Serif" font-size="10.00">Terraria.NetMessage.SendData</text>
</a>
</g>
</g>
<!-- Node2&#45;&gt;Node6 -->
<g id="edge5_Node000002_Node000006" class="edge">
<title>Node2&#45;&gt;Node6</title>
<g id="a_edge5_Node000002_Node000006"><a xlink:title=" ">
<path fill="none" stroke="#63b8ff" d="M333.24,-499.03C342.07,-498.07 351.18,-497.08 360.25,-496.09"/>
<polygon fill="#63b8ff" stroke="#63b8ff" points="360.88,-499.54 370.45,-494.98 360.13,-492.58 360.88,-499.54"/>
</a>
</g>
</g>
<!-- Node41 -->
<g id="Node000041" class="node">
<title>Node41</title>
<g id="a_Node000041"><a xlink:href="../../db/d79/classTerraria_1_1Item_adb2554f9d394eca69180ff503efd10d9.html#adb2554f9d394eca69180ff503efd10d9" target="_top" xlink:title=" ">
<polygon fill="white" stroke="#666666" points="523.5,-440.5 384.5,-440.5 384.5,-421.5 523.5,-421.5 523.5,-440.5"/>
<text text-anchor="middle" x="454" y="-428.5" font-family="Helvetica,sans-Serif" font-size="10.00">Terraria.Item.SetDefaults</text>
</a>
</g>
</g>
<!-- Node2&#45;&gt;Node41 -->
<g id="edge45_Node000002_Node000041" class="edge">
<title>Node2&#45;&gt;Node41</title>
<g id="a_edge45_Node000002_Node000041"><a xlink:title=" ">
<path fill="none" stroke="#63b8ff" d="M298.13,-491.98C333.43,-478.09 385.41,-457.62 419.24,-444.3"/>
<polygon fill="#63b8ff" stroke="#63b8ff" points="420.67,-447.49 428.69,-440.57 418.1,-440.98 420.67,-447.49"/>
</a>
</g>
</g>
<!-- Node42 -->
<g id="Node000042" class="node">
<title>Node42</title>
<g id="a_Node000042"><a xlink:href="../../d7/de6/classTerraria_1_1ModLoader_1_1ItemLoader_a097bd8d87927fe491386703103c48523.html#a097bd8d87927fe491386703103c48523" target="_top" xlink:title="Stacks destination &#160;onto source &#160;&#160;This method should not be called unless M:Terraria....">
<polygon fill="white" stroke="#666666" points="539,-227 369,-227 369,-197 539,-197 539,-227"/>
<text text-anchor="start" x="377" y="-215" font-family="Helvetica,sans-Serif" font-size="10.00">Terraria.ModLoader.ItemLoader.</text>
<text text-anchor="middle" x="454" y="-204" font-family="Helvetica,sans-Serif" font-size="10.00">StackItems</text>
</a>
</g>
</g>
<!-- Node2&#45;&gt;Node42 -->
<g id="edge47_Node000002_Node000042" class="edge">
<title>Node2&#45;&gt;Node42</title>
<g id="a_edge47_Node000002_Node000042"><a xlink:title=" ">
<path fill="none" stroke="#63b8ff" d="M269.84,-491.97C301.26,-443.93 399.41,-293.91 437.59,-235.55"/>
<polygon fill="#63b8ff" stroke="#63b8ff" points="440.64,-237.29 443.18,-227 434.78,-233.46 440.64,-237.29"/>
</a>
</g>
</g>
<!-- Node7 -->
<g id="Node000007" class="node">
<title>Node7</title>
<g id="a_Node000007"><a xlink:href="../../d2/dfe/classTerraria_1_1NetMessage_a8bd80eec85317f48bb6a6fd7a8a8312b.html#a8bd80eec85317f48bb6a6fd7a8a8312b" target="_top" xlink:title=" ">
<polygon fill="white" stroke="#666666" points="745,-936 576,-936 576,-906 745,-906 745,-936"/>
<text text-anchor="start" x="584" y="-924" font-family="Helvetica,sans-Serif" font-size="10.00">Terraria.NetMessage.Compress</text>
<text text-anchor="middle" x="660.5" y="-913" font-family="Helvetica,sans-Serif" font-size="10.00">TileBlock</text>
</a>
</g>
</g>
<!-- Node6&#45;&gt;Node7 -->
<g id="edge6_Node000006_Node000007" class="edge">
<title>Node6&#45;&gt;Node7</title>
<g id="a_edge6_Node000006_Node000007"><a xlink:title=" ">
<path fill="none" stroke="#63b8ff" d="M527.34,-495.5C531.67,-498.07 535.63,-501.2 539,-505 590.87,-563.5 537.16,-786.58 575,-855 585.51,-874 603.99,-889.39 620.99,-900.52"/>
<polygon fill="#63b8ff" stroke="#63b8ff" points="619.36,-903.62 629.7,-905.94 623.06,-897.68 619.36,-903.62"/>
</a>
</g>
</g>
<!-- Node19 -->
<g id="Node000019" class="node">
<title>Node19</title>
<g id="a_Node000019"><a xlink:href="../../db/d56/classTerraria_1_1DataStructures_1_1TileEntity_a94671f9097e4ebf6de668b08e9f0b50a.html#a94671f9097e4ebf6de668b08e9f0b50a" target="_top" xlink:title=" ">
<polygon fill="white" stroke="#666666" points="1147,-781 1015,-781 1015,-751 1147,-751 1147,-781"/>
<text text-anchor="start" x="1023" y="-769" font-family="Helvetica,sans-Serif" font-size="10.00">Terraria.DataStructures.</text>
<text text-anchor="middle" x="1081" y="-758" font-family="Helvetica,sans-Serif" font-size="10.00">TileEntity.Write</text>
</a>
</g>
</g>
<!-- Node6&#45;&gt;Node19 -->
<g id="edge39_Node000006_Node000019" class="edge">
<title>Node6&#45;&gt;Node19</title>
<g id="a_edge39_Node000006_Node000019"><a xlink:title=" ">
<path fill="none" stroke="#63b8ff" d="M527.28,-495.56C531.62,-498.11 535.6,-501.22 539,-505 584.8,-555.9 523.83,-765.5 575,-811 638.18,-867.18 890.9,-813.71 1013.12,-783.51"/>
<polygon fill="#63b8ff" stroke="#63b8ff" points="1014.26,-786.84 1023.12,-781.02 1012.57,-780.04 1014.26,-786.84"/>
</a>
</g>
</g>
<!-- Node20 -->
<g id="Node000020" class="node">
<title>Node20</title>
<g id="a_Node000020"><a xlink:href="../../db/d90/classTerraria_1_1Netplay_a8a3ee13aeab7ca5a142d52fc6a7c94a8.html#a8a3ee13aeab7ca5a142d52fc6a7c94a8" target="_top" xlink:title=" ">
<polygon fill="white" stroke="#666666" points="738.5,-774.5 582.5,-774.5 582.5,-755.5 738.5,-755.5 738.5,-774.5"/>
<text text-anchor="middle" x="660.5" y="-762.5" font-family="Helvetica,sans-Serif" font-size="10.00">Terraria.Netplay.GetSectionX</text>
</a>
</g>
</g>
<!-- Node6&#45;&gt;Node20 -->
<g id="edge19_Node000006_Node000020" class="edge">
<title>Node6&#45;&gt;Node20</title>
<g id="a_edge19_Node000006_Node000020"><a xlink:title=" ">
<path fill="none" stroke="#63b8ff" d="M527.15,-495.68C531.52,-498.2 535.54,-501.27 539,-505 612.96,-584.71 500.54,-667.76 575,-747 575.77,-747.82 576.57,-748.61 577.39,-749.36"/>
<polygon fill="#63b8ff" stroke="#63b8ff" points="575.31,-752.17 585.41,-755.35 579.49,-746.56 575.31,-752.17"/>
</a>
</g>
</g>
<!-- Node21 -->
<g id="Node000021" class="node">
<title>Node21</title>
<g id="a_Node000021"><a xlink:href="../../db/d90/classTerraria_1_1Netplay_aae951351c7bd7fff569a8f67e4a700a0.html#aae951351c7bd7fff569a8f67e4a700a0" target="_top" xlink:title=" ">
<polygon fill="white" stroke="#666666" points="738,-737.5 583,-737.5 583,-718.5 738,-718.5 738,-737.5"/>
<text text-anchor="middle" x="660.5" y="-725.5" font-family="Helvetica,sans-Serif" font-size="10.00">Terraria.Netplay.GetSectionY</text>
</a>
</g>
</g>
<!-- Node6&#45;&gt;Node21 -->
<g id="edge20_Node000006_Node000021" class="edge">
<title>Node6&#45;&gt;Node21</title>
<g id="a_edge20_Node000006_Node000021"><a xlink:title=" ">
<path fill="none" stroke="#63b8ff" d="M526.65,-495.56C531.2,-498.11 535.39,-501.21 539,-505 602.53,-571.64 511.43,-642.4 575,-709 576.25,-710.31 577.57,-711.54 578.95,-712.69"/>
<polygon fill="#63b8ff" stroke="#63b8ff" points="577.2,-715.73 587.43,-718.48 581.14,-709.95 577.2,-715.73"/>
</a>
</g>
</g>
<!-- Node22 -->
<g id="Node000022" class="node">
<title>Node22</title>
<g id="a_Node000022"><a xlink:href="../../d4/d8f/classTerraria_1_1Localization_1_1Language_ae4636a4800b9ecbaa498954520462f78.html#ae4636a4800b9ecbaa498954520462f78" target="_top" xlink:title="Retrieves the text value for a specified localization key. The text returned will be for the currentl...">
<polygon fill="white" stroke="#666666" points="744.5,-700 576.5,-700 576.5,-670 744.5,-670 744.5,-700"/>
<text text-anchor="start" x="584.5" y="-688" font-family="Helvetica,sans-Serif" font-size="10.00">Terraria.Localization.Language.</text>
<text text-anchor="middle" x="660.5" y="-677" font-family="Helvetica,sans-Serif" font-size="10.00">GetTextValue</text>
</a>
</g>
</g>
<!-- Node6&#45;&gt;Node22 -->
<g id="edge21_Node000006_Node000022" class="edge">
<title>Node6&#45;&gt;Node22</title>
<g id="a_edge21_Node000006_Node000022"><a xlink:title=" ">
<path fill="none" stroke="#63b8ff" d="M526.03,-495.56C530.78,-498.1 535.19,-501.2 539,-505 589.42,-555.2 525.96,-609.44 575,-661 575.92,-661.96 576.87,-662.89 577.85,-663.78"/>
<polygon fill="#63b8ff" stroke="#63b8ff" points="575.88,-666.67 585.97,-669.91 580.1,-661.09 575.88,-666.67"/>
</a>
</g>
</g>
<!-- Node23 -->
<g id="Node000023" class="node">
<title>Node23</title>
<g id="a_Node000023"><a xlink:href="../../df/d47/classTerraria_1_1ModLoader_1_1ModNet_a1c1f9ace6611e69d54aa7a1f2cce68f2.html#a1c1f9ace6611e69d54aa7a1f2cce68f2" target="_top" xlink:title=" ">
<polygon fill="white" stroke="#666666" points="737.5,-652 583.5,-652 583.5,-622 737.5,-622 737.5,-652"/>
<text text-anchor="start" x="591.5" y="-640" font-family="Helvetica,sans-Serif" font-size="10.00">Terraria.ModLoader.ModNet.</text>
<text text-anchor="middle" x="660.5" y="-629" font-family="Helvetica,sans-Serif" font-size="10.00">HijackSendData</text>
</a>
</g>
</g>
<!-- Node6&#45;&gt;Node23 -->
<g id="edge22_Node000006_Node000023" class="edge">
<title>Node6&#45;&gt;Node23</title>
<g id="a_edge22_Node000006_Node000023"><a xlink:title=" ">
<path fill="none" stroke="#63b8ff" d="M524.83,-495.57C529.98,-498.09 534.79,-501.19 539,-505 576.51,-538.96 538.43,-578.04 575,-613 576.1,-614.05 577.25,-615.06 578.43,-616.03"/>
<polygon fill="#63b8ff" stroke="#63b8ff" points="576.52,-618.96 586.73,-621.78 580.51,-613.21 576.52,-618.96"/>
</a>
</g>
</g>
<!-- Node25 -->
<g id="Node000025" class="node">
<title>Node25</title>
<g id="a_Node000025"><a xlink:href="../../d6/d21/structTerraria_1_1Tile_aae758079f57e61378841aaf0fc884e71.html#aae758079f57e61378841aaf0fc884e71" target="_top" xlink:title="Legacy code, use P:Terraria.Tile.LiquidType instead.">
<polygon fill="white" stroke="#666666" points="724,-603.5 597,-603.5 597,-584.5 724,-584.5 724,-603.5"/>
<text text-anchor="middle" x="660.5" y="-591.5" font-family="Helvetica,sans-Serif" font-size="10.00">Terraria.Tile.liquidType</text>
</a>
</g>
</g>
<!-- Node6&#45;&gt;Node25 -->
<g id="edge24_Node000006_Node000025" class="edge">
<title>Node6&#45;&gt;Node25</title>
<g id="a_edge24_Node000006_Node000025"><a xlink:title=" ">
<path fill="none" stroke="#63b8ff" d="M522.55,-495.57C528.44,-498.06 534.04,-501.15 539,-505 566.66,-526.43 547.33,-553.59 575,-575 578.81,-577.95 583,-580.46 587.4,-582.59"/>
<polygon fill="#63b8ff" stroke="#63b8ff" points="586.11,-585.85 596.69,-586.46 588.8,-579.39 586.11,-585.85"/>
</a>
</g>
</g>
<!-- Node26 -->
<g id="Node000026" class="node">
<title>Node26</title>
<g id="a_Node000026"><a xlink:href="../../df/d47/classTerraria_1_1ModLoader_1_1ModNet_a84b918169aabe8b707d77626bfa3a734.html#a84b918169aabe8b707d77626bfa3a734" target="_top" xlink:title=" ">
<polygon fill="white" stroke="#666666" points="737.5,-480 583.5,-480 583.5,-450 737.5,-450 737.5,-480"/>
<text text-anchor="start" x="591.5" y="-468" font-family="Helvetica,sans-Serif" font-size="10.00">Terraria.ModLoader.ModNet.</text>
<text text-anchor="middle" x="660.5" y="-457" font-family="Helvetica,sans-Serif" font-size="10.00">LogSend</text>
</a>
</g>
</g>
<!-- Node6&#45;&gt;Node26 -->
<g id="edge25_Node000006_Node000026" class="edge">
<title>Node6&#45;&gt;Node26</title>
<g id="a_edge25_Node000006_Node000026"><a xlink:title=" ">
<path fill="none" stroke="#63b8ff" d="M537.59,-477.52C549.25,-476.32 561.26,-475.09 572.99,-473.88"/>
<polygon fill="#63b8ff" stroke="#63b8ff" points="573.63,-477.34 583.22,-472.83 572.91,-470.37 573.63,-477.34"/>
</a>
</g>
</g>
<!-- Node29 -->
<g id="Node000029" class="node">
<title>Node29</title>
<g id="a_Node000029"><a xlink:href="../../d0/d8b/classTerraria_1_1ModLoader_1_1IO_1_1ItemIO_acb34dd650cec49c955ce0297fe6d0ce1.html#acb34dd650cec49c955ce0297fe6d0ce1" target="_top" xlink:title=" ">
<polygon fill="white" stroke="#666666" points="941,-566 792,-566 792,-536 941,-536 941,-566"/>
<text text-anchor="start" x="800" y="-554" font-family="Helvetica,sans-Serif" font-size="10.00">Terraria.ModLoader.IO.Item</text>
<text text-anchor="middle" x="866.5" y="-543" font-family="Helvetica,sans-Serif" font-size="10.00">IO.Send</text>
</a>
</g>
</g>
<!-- Node6&#45;&gt;Node29 -->
<g id="edge29_Node000006_Node000029" class="edge">
<title>Node6&#45;&gt;Node29</title>
<g id="a_edge29_Node000006_Node000029"><a xlink:title=" ">
<path fill="none" stroke="#63b8ff" d="M531.47,-495.54C590.27,-503.17 673.45,-514.62 746,-527 758.34,-529.11 771.37,-531.52 784.1,-533.99"/>
<polygon fill="#63b8ff" stroke="#63b8ff" points="783.74,-537.49 794.22,-535.98 785.08,-530.62 783.74,-537.49"/>
</a>
</g>
</g>
<!-- Node30 -->
<g id="Node000030" class="node">
<title>Node30</title>
<g id="a_Node000030"><a xlink:href="../../d0/d8b/classTerraria_1_1ModLoader_1_1IO_1_1ItemIO_a9d5e51fc32478bea6653b3b43783a57b.html#a9d5e51fc32478bea6653b3b43783a57b" target="_top" xlink:title=" ">
<polygon fill="white" stroke="#666666" points="1155.5,-649 1006.5,-649 1006.5,-619 1155.5,-619 1155.5,-649"/>
<text text-anchor="start" x="1014.5" y="-637" font-family="Helvetica,sans-Serif" font-size="10.00">Terraria.ModLoader.IO.Item</text>
<text text-anchor="middle" x="1081" y="-626" font-family="Helvetica,sans-Serif" font-size="10.00">IO.SendModData</text>
</a>
</g>
</g>
<!-- Node6&#45;&gt;Node30 -->
<g id="edge36_Node000006_Node000030" class="edge">
<title>Node6&#45;&gt;Node30</title>
<g id="a_edge36_Node000006_Node000030"><a xlink:title=" ">
<path fill="none" stroke="#63b8ff" d="M527.23,-495.6C531.58,-498.14 535.58,-501.24 539,-505 623.15,-597.47 481.11,-701.44 575,-784 632.08,-834.18 671.69,-799.92 746,-784 863.41,-758.85 989.4,-689.15 1047.38,-654.33"/>
<polygon fill="#63b8ff" stroke="#63b8ff" points="1049.35,-657.23 1056.09,-649.06 1045.73,-651.24 1049.35,-657.23"/>
</a>
</g>
</g>
<!-- Node31 -->
<g id="Node000031" class="node">
<title>Node31</title>
<g id="a_Node000031"><a xlink:href="../../dd/de0/classTerraria_1_1ModLoader_1_1BiomeLoader_a29df870ca6244b82963eeb5ce278f179.html#a29df870ca6244b82963eeb5ce278f179" target="_top" xlink:title=" ">
<polygon fill="white" stroke="#666666" points="735.5,-432 585.5,-432 585.5,-402 735.5,-402 735.5,-432"/>
<text text-anchor="start" x="593.5" y="-420" font-family="Helvetica,sans-Serif" font-size="10.00">Terraria.ModLoader.Biome</text>
<text text-anchor="middle" x="660.5" y="-409" font-family="Helvetica,sans-Serif" font-size="10.00">Loader.SendCustomBiomes</text>
</a>
</g>
</g>
<!-- Node6&#45;&gt;Node31 -->
<g id="edge31_Node000006_Node000031" class="edge">
<title>Node6&#45;&gt;Node31</title>
<g id="a_edge31_Node000006_Node000031"><a xlink:title=" ">
<path fill="none" stroke="#63b8ff" d="M515.23,-476.42C523.4,-474.17 531.53,-471.4 539,-468 557.2,-459.71 557.08,-449.88 575,-441 578.95,-439.04 583.09,-437.22 587.31,-435.53"/>
<polygon fill="#63b8ff" stroke="#63b8ff" points="588.54,-438.81 596.68,-432.03 586.09,-432.25 588.54,-438.81"/>
</a>
</g>
</g>
<!-- Node33 -->
<g id="Node000033" class="node">
<title>Node33</title>
<g id="a_Node000033"><a xlink:href="../../dd/dc6/classTerraria_1_1ModLoader_1_1NPCLoader_ad20200fbeb8230fb9fa1026ab0e76aa0.html#ad20200fbeb8230fb9fa1026ab0e76aa0" target="_top" xlink:title=" ">
<polygon fill="white" stroke="#666666" points="744.5,-384 576.5,-384 576.5,-354 744.5,-354 744.5,-384"/>
<text text-anchor="start" x="584.5" y="-372" font-family="Helvetica,sans-Serif" font-size="10.00">Terraria.ModLoader.NPCLoader.</text>
<text text-anchor="middle" x="660.5" y="-361" font-family="Helvetica,sans-Serif" font-size="10.00">SendExtraAI</text>
</a>
</g>
</g>
<!-- Node6&#45;&gt;Node33 -->
<g id="edge33_Node000006_Node000033" class="edge">
<title>Node6&#45;&gt;Node33</title>
<g id="a_edge33_Node000006_Node000033"><a xlink:title=" ">
<path fill="none" stroke="#63b8ff" d="M525.14,-476.33C530.09,-474.07 534.78,-471.32 539,-468 568.05,-445.12 546.72,-416.82 575,-393 576.53,-391.71 578.13,-390.49 579.78,-389.34"/>
<polygon fill="#63b8ff" stroke="#63b8ff" points="581.7,-392.27 588.43,-384.09 578.07,-386.28 581.7,-392.27"/>
</a>
</g>
</g>
<!-- Node34 -->
<g id="Node000034" class="node">
<title>Node34</title>
<g id="a_Node000034"><a xlink:href="../../dd/d93/classTerraria_1_1ModLoader_1_1ProjectileLoader_a785fe46f6008e62910dd244542345a24.html#a785fe46f6008e62910dd244542345a24" target="_top" xlink:title=" ">
<polygon fill="white" stroke="#666666" points="739.5,-336 581.5,-336 581.5,-306 739.5,-306 739.5,-336"/>
<text text-anchor="start" x="589.5" y="-324" font-family="Helvetica,sans-Serif" font-size="10.00">Terraria.ModLoader.Projectile</text>
<text text-anchor="middle" x="660.5" y="-313" font-family="Helvetica,sans-Serif" font-size="10.00">Loader.SendExtraAI</text>
</a>
</g>
</g>
<!-- Node6&#45;&gt;Node34 -->
<g id="edge34_Node000006_Node000034" class="edge">
<title>Node6&#45;&gt;Node34</title>
<g id="a_edge34_Node000006_Node000034"><a xlink:title=" ">
<path fill="none" stroke="#63b8ff" d="M526.96,-476.45C531.32,-474.13 535.39,-471.35 539,-468 580.73,-429.23 534.56,-385.12 575,-345 576.08,-343.93 577.21,-342.9 578.38,-341.92"/>
<polygon fill="#63b8ff" stroke="#63b8ff" points="580.47,-344.72 586.59,-336.07 576.41,-339.02 580.47,-344.72"/>
</a>
</g>
</g>
<!-- Node35 -->
<g id="Node000035" class="node">
<title>Node35</title>
<g id="a_Node000035"><a xlink:href="../../d3/d8e/classTerraria_1_1ModLoader_1_1IO_1_1WorldIO_a800edd3907ce891c4cba1af54ee5ba20.html#a800edd3907ce891c4cba1af54ee5ba20" target="_top" xlink:title=" ">
<polygon fill="white" stroke="#666666" points="737.5,-288 583.5,-288 583.5,-258 737.5,-258 737.5,-288"/>
<text text-anchor="start" x="591.5" y="-276" font-family="Helvetica,sans-Serif" font-size="10.00">Terraria.ModLoader.IO.World</text>
<text text-anchor="middle" x="660.5" y="-265" font-family="Helvetica,sans-Serif" font-size="10.00">IO.SendModData</text>
</a>
</g>
</g>
<!-- Node6&#45;&gt;Node35 -->
<g id="edge35_Node000006_Node000035" class="edge">
<title>Node6&#45;&gt;Node35</title>
<g id="a_edge35_Node000006_Node000035"><a xlink:title=" ">
<path fill="none" stroke="#63b8ff" d="M528.04,-476.32C532.03,-474.02 535.74,-471.28 539,-468 593.82,-412.98 522.02,-353.79 575,-297 575.91,-296.03 576.85,-295.09 577.83,-294.2"/>
<polygon fill="#63b8ff" stroke="#63b8ff" points="580.08,-296.88 585.89,-288.02 575.82,-291.32 580.08,-296.88"/>
</a>
</g>
</g>
<!-- Node36 -->
<g id="Node000036" class="node">
<title>Node36</title>
<g id="a_Node000036"><a xlink:href="../../d0/da6/classTerraria_1_1ModLoader_1_1Logging_ab70d2a6a87eaae1d1ea2b6df62b255ec.html#ab70d2a6a87eaae1d1ea2b6df62b255ec" target="_top" xlink:title=" ">
<polygon fill="white" stroke="#666666" points="737.5,-222 583.5,-222 583.5,-192 737.5,-192 737.5,-222"/>
<text text-anchor="start" x="591.5" y="-210" font-family="Helvetica,sans-Serif" font-size="10.00">Terraria.ModLoader.Logging.</text>
<text text-anchor="middle" x="660.5" y="-199" font-family="Helvetica,sans-Serif" font-size="10.00">ServerConsoleLine</text>
</a>
</g>
</g>
<!-- Node6&#45;&gt;Node36 -->
<g id="edge37_Node000006_Node000036" class="edge">
<title>Node6&#45;&gt;Node36</title>
<g id="a_edge37_Node000006_Node000036"><a xlink:title=" ">
<path fill="none" stroke="#63b8ff" d="M528.21,-476.48C532.16,-474.15 535.81,-471.35 539,-468 607.05,-396.59 516.39,-328.34 575,-249 581.78,-239.83 591.11,-232.54 601.12,-226.79"/>
<polygon fill="#63b8ff" stroke="#63b8ff" points="602.8,-229.86 610.04,-222.12 599.56,-223.65 602.8,-229.86"/>
</a>
</g>
</g>
<!-- Node37 -->
<g id="Node000037" class="node">
<title>Node37</title>
<g id="a_Node000037"><a xlink:href="../../d2/dfe/classTerraria_1_1NetMessage_a17488582dd5650d9c0f793be3cc79b2a.html#a17488582dd5650d9c0f793be3cc79b2a" target="_top" xlink:title=" ">
<polygon fill="white" stroke="#666666" points="733.5,-174 587.5,-174 587.5,-144 733.5,-144 733.5,-174"/>
<text text-anchor="start" x="595.5" y="-162" font-family="Helvetica,sans-Serif" font-size="10.00">Terraria.NetMessage.Write</text>
<text text-anchor="middle" x="660.5" y="-151" font-family="Helvetica,sans-Serif" font-size="10.00">AccessoryVisibility</text>
</a>
</g>
</g>
<!-- Node6&#45;&gt;Node37 -->
<g id="edge40_Node000006_Node000037" class="edge">
<title>Node6&#45;&gt;Node37</title>
<g id="a_edge40_Node000006_Node000037"><a xlink:title=" ">
<path fill="none" stroke="#63b8ff" d="M528.74,-476.39C532.5,-474.07 535.97,-471.3 539,-468 625.34,-373.95 491.79,-279.83 575,-183 576.34,-181.44 577.78,-179.97 579.29,-178.6"/>
<polygon fill="#63b8ff" stroke="#63b8ff" points="581.56,-181.28 587.47,-172.48 577.37,-175.67 581.56,-181.28"/>
</a>
</g>
</g>
<!-- Node38 -->
<g id="Node000038" class="node">
<title>Node38</title>
<g id="a_Node000038"><a xlink:href="../../dd/dc6/classTerraria_1_1ModLoader_1_1NPCLoader_acd7b32d09b1fce4d0690d6bae683d829.html#acd7b32d09b1fce4d0690d6bae683d829" target="_top" xlink:title=" ">
<polygon fill="white" stroke="#666666" points="744.5,-126 576.5,-126 576.5,-96 744.5,-96 744.5,-126"/>
<text text-anchor="start" x="584.5" y="-114" font-family="Helvetica,sans-Serif" font-size="10.00">Terraria.ModLoader.NPCLoader.</text>
<text text-anchor="middle" x="660.5" y="-103" font-family="Helvetica,sans-Serif" font-size="10.00">WriteExtraAI</text>
</a>
</g>
</g>
<!-- Node6&#45;&gt;Node38 -->
<g id="edge41_Node000006_Node000038" class="edge">
<title>Node6&#45;&gt;Node38</title>
<g id="a_edge41_Node000006_Node000038"><a xlink:title=" ">
<path fill="none" stroke="#63b8ff" d="M528.8,-476.45C532.56,-474.11 536,-471.32 539,-468 638.68,-357.44 479,-248.77 575,-135 575.62,-134.26 576.27,-133.54 576.93,-132.85"/>
<polygon fill="#63b8ff" stroke="#63b8ff" points="579.41,-135.33 584.73,-126.17 574.86,-130.01 579.41,-135.33"/>
</a>
</g>
</g>
<!-- Node39 -->
<g id="Node000039" class="node">
<title>Node39</title>
<g id="a_Node000039"><a xlink:href="../../dd/d93/classTerraria_1_1ModLoader_1_1ProjectileLoader_ad728f89b264d8327c66389f62f4d6a6b.html#ad728f89b264d8327c66389f62f4d6a6b" target="_top" xlink:title=" ">
<polygon fill="white" stroke="#666666" points="739.5,-78 581.5,-78 581.5,-48 739.5,-48 739.5,-78"/>
<text text-anchor="start" x="589.5" y="-66" font-family="Helvetica,sans-Serif" font-size="10.00">Terraria.ModLoader.Projectile</text>
<text text-anchor="middle" x="660.5" y="-55" font-family="Helvetica,sans-Serif" font-size="10.00">Loader.WriteExtraAI</text>
</a>
</g>
</g>
<!-- Node6&#45;&gt;Node39 -->
<g id="edge42_Node000006_Node000039" class="edge">
<title>Node6&#45;&gt;Node39</title>
<g id="a_edge42_Node000006_Node000039"><a xlink:title=" ">
<path fill="none" stroke="#63b8ff" d="M529.23,-476.26C532.82,-473.96 536.13,-471.23 539,-468 595.52,-404.46 520.6,-152.37 575,-87 575.62,-86.26 576.26,-85.53 576.92,-84.83"/>
<polygon fill="#63b8ff" stroke="#63b8ff" points="579.4,-87.31 584.68,-78.13 574.83,-82.02 579.4,-87.31"/>
</a>
</g>
</g>
<!-- Node40 -->
<g id="Node000040" class="node">
<title>Node40</title>
<g id="a_Node000040"><a xlink:href="../../d9/d9b/classTerraria_1_1DataStructures_1_1PlayerDeathReason_a9b526c38a2136beee6ac5ae5a6e8faa7.html#a9b526c38a2136beee6ac5ae5a6e8faa7" target="_top" xlink:title=" ">
<polygon fill="white" stroke="#666666" points="746,-566 575,-566 575,-536 746,-536 746,-566"/>
<text text-anchor="start" x="583" y="-554" font-family="Helvetica,sans-Serif" font-size="10.00">Terraria.DataStructures.</text>
<text text-anchor="middle" x="660.5" y="-543" font-family="Helvetica,sans-Serif" font-size="10.00">PlayerDeathReason.WriteSelfTo</text>
</a>
</g>
</g>
<!-- Node6&#45;&gt;Node40 -->
<g id="edge43_Node000006_Node000040" class="edge">
<title>Node6&#45;&gt;Node40</title>
<g id="a_edge43_Node000006_Node000040"><a xlink:title=" ">
<path fill="none" stroke="#63b8ff" d="M505.7,-495.58C516.8,-498.2 528.4,-501.35 539,-505 555.73,-510.76 558.61,-515.34 575,-522 583.96,-525.64 593.57,-529.23 602.97,-532.57"/>
<polygon fill="#63b8ff" stroke="#63b8ff" points="602.07,-535.96 612.67,-535.96 604.38,-529.36 602.07,-535.96"/>
</a>
</g>
</g>
<!-- Node8 -->
<g id="Node000008" class="node">
<title>Node8</title>
<g id="a_Node000008"><a xlink:href="../../d2/dfe/classTerraria_1_1NetMessage_ae9163ccde925a89a178879cda0866701.html#ae9163ccde925a89a178879cda0866701" target="_top" xlink:title=" ">
<polygon fill="white" stroke="#666666" points="951,-973 782,-973 782,-943 951,-943 951,-973"/>
<text text-anchor="start" x="790" y="-961" font-family="Helvetica,sans-Serif" font-size="10.00">Terraria.NetMessage.Compress</text>
<text text-anchor="middle" x="866.5" y="-950" font-family="Helvetica,sans-Serif" font-size="10.00">TileBlock_Inner</text>
</a>
</g>
</g>
<!-- Node7&#45;&gt;Node8 -->
<g id="edge7_Node000007_Node000008" class="edge">
<title>Node7&#45;&gt;Node8</title>
<g id="a_edge7_Node000007_Node000008"><a xlink:title=" ">
<path fill="none" stroke="#63b8ff" d="M744.47,-936.05C753.71,-937.72 763.16,-939.44 772.51,-941.13"/>
<polygon fill="#63b8ff" stroke="#63b8ff" points="772.13,-944.62 782.6,-942.96 773.38,-937.74 772.13,-944.62"/>
</a>
</g>
</g>
<!-- Node9 -->
<g id="Node000009" class="node">
<title>Node9</title>
<g id="a_Node000009"><a xlink:href="../../d9/d66/classTerraria_1_1GameContent_1_1Tile__Entities_1_1TEDisplayDoll_acb24e981caea1cd0c432ac84c9261c1c.html#acb24e981caea1cd0c432ac84c9261c1c" target="_top" xlink:title=" ">
<polygon fill="white" stroke="#666666" points="1157.5,-1069 1004.5,-1069 1004.5,-1039 1157.5,-1039 1157.5,-1069"/>
<text text-anchor="start" x="1012.5" y="-1057" font-family="Helvetica,sans-Serif" font-size="10.00">Terraria.GameContent.Tile</text>
<text text-anchor="middle" x="1081" y="-1046" font-family="Helvetica,sans-Serif" font-size="10.00">_Entities.TEDisplayDoll.Find</text>
</a>
</g>
</g>
<!-- Node8&#45;&gt;Node9 -->
<g id="edge8_Node000008_Node000009" class="edge">
<title>Node8&#45;&gt;Node9</title>
<g id="a_edge8_Node000008_Node000009"><a xlink:title=" ">
<path fill="none" stroke="#63b8ff" d="M888.52,-973.26C911.63,-989.4 950.37,-1014.63 987,-1030 992,-1032.1 997.22,-1034.05 1002.54,-1035.86"/>
<polygon fill="#63b8ff" stroke="#63b8ff" points="1001.59,-1039.23 1012.18,-1038.96 1003.74,-1032.57 1001.59,-1039.23"/>
</a>
</g>
</g>
<!-- Node10 -->
<g id="Node000010" class="node">
<title>Node10</title>
<g id="a_Node000010"><a xlink:href="../../df/d58/classTerraria_1_1GameContent_1_1Tile__Entities_1_1TEFoodPlatter_ab824c4ec25da97eb7b211ec27d652546.html#ab824c4ec25da97eb7b211ec27d652546" target="_top" xlink:title=" ">
<polygon fill="white" stroke="#666666" points="1157,-1021 1005,-1021 1005,-991 1157,-991 1157,-1021"/>
<text text-anchor="start" x="1013" y="-1009" font-family="Helvetica,sans-Serif" font-size="10.00">Terraria.GameContent.Tile</text>
<text text-anchor="middle" x="1081" y="-998" font-family="Helvetica,sans-Serif" font-size="10.00">_Entities.TEFoodPlatter.Find</text>
</a>
</g>
</g>
<!-- Node8&#45;&gt;Node10 -->
<g id="edge9_Node000008_Node000010" class="edge">
<title>Node8&#45;&gt;Node10</title>
<g id="a_edge9_Node000008_Node000010"><a xlink:title=" ">
<path fill="none" stroke="#63b8ff" d="M934.15,-973.06C956.21,-978.04 980.92,-983.62 1003.64,-988.75"/>
<polygon fill="#63b8ff" stroke="#63b8ff" points="1003.06,-992.21 1013.58,-991 1004.6,-985.38 1003.06,-992.21"/>
</a>
</g>
</g>
<!-- Node11 -->
<g id="Node000011" class="node">
<title>Node11</title>
<g id="a_Node000011"><a xlink:href="../../d3/d99/classTerraria_1_1GameContent_1_1Tile__Entities_1_1TEHatRack_a0af7e34a07c3d2ba64ef18aca9013ff5.html#a0af7e34a07c3d2ba64ef18aca9013ff5" target="_top" xlink:title=" ">
<polygon fill="white" stroke="#666666" points="1153.5,-973 1008.5,-973 1008.5,-943 1153.5,-943 1153.5,-973"/>
<text text-anchor="start" x="1016.5" y="-961" font-family="Helvetica,sans-Serif" font-size="10.00">Terraria.GameContent.Tile</text>
<text text-anchor="middle" x="1081" y="-950" font-family="Helvetica,sans-Serif" font-size="10.00">_Entities.TEHatRack.Find</text>
</a>
</g>
</g>
<!-- Node8&#45;&gt;Node11 -->
<g id="edge10_Node000008_Node000011" class="edge">
<title>Node8&#45;&gt;Node11</title>
<g id="a_edge10_Node000008_Node000011"><a xlink:title=" ">
<path fill="none" stroke="#63b8ff" d="M951.18,-958C966.71,-958 982.91,-958 998.38,-958"/>
<polygon fill="#63b8ff" stroke="#63b8ff" points="998.42,-961.5 1008.42,-958 998.42,-954.5 998.42,-961.5"/>
</a>
</g>
</g>
<!-- Node12 -->
<g id="Node000012" class="node">
<title>Node12</title>
<g id="a_Node000012"><a xlink:href="../../d5/dad/classTerraria_1_1GameContent_1_1Tile__Entities_1_1TEItemFrame_a736981b810e7aa34c25f1ea4e0ec0c4d.html#a736981b810e7aa34c25f1ea4e0ec0c4d" target="_top" xlink:title=" ">
<polygon fill="white" stroke="#666666" points="1156,-925 1006,-925 1006,-895 1156,-895 1156,-925"/>
<text text-anchor="start" x="1014" y="-913" font-family="Helvetica,sans-Serif" font-size="10.00">Terraria.GameContent.Tile</text>
<text text-anchor="middle" x="1081" y="-902" font-family="Helvetica,sans-Serif" font-size="10.00">_Entities.TEItemFrame.Find</text>
</a>
</g>
</g>
<!-- Node8&#45;&gt;Node12 -->
<g id="edge11_Node000008_Node000012" class="edge">
<title>Node8&#45;&gt;Node12</title>
<g id="a_edge11_Node000008_Node000012"><a xlink:title=" ">
<path fill="none" stroke="#63b8ff" d="M934.15,-942.94C956.21,-937.96 980.92,-932.38 1003.64,-927.25"/>
<polygon fill="#63b8ff" stroke="#63b8ff" points="1004.6,-930.62 1013.58,-925 1003.06,-923.79 1004.6,-930.62"/>
</a>
</g>
</g>
<!-- Node13 -->
<g id="Node000013" class="node">
<title>Node13</title>
<g id="a_Node000013"><a xlink:href="../../d8/d19/classTerraria_1_1GameContent_1_1Tile__Entities_1_1TETeleportationPylon_a6fc24a8a3539899124e211733cc4f81c.html#a6fc24a8a3539899124e211733cc4f81c" target="_top" xlink:title=" ">
<polygon fill="white" stroke="#666666" points="1175,-877 987,-877 987,-847 1175,-847 1175,-877"/>
<text text-anchor="start" x="995" y="-865" font-family="Helvetica,sans-Serif" font-size="10.00">Terraria.GameContent.Tile</text>
<text text-anchor="middle" x="1081" y="-854" font-family="Helvetica,sans-Serif" font-size="10.00">_Entities.TETeleportationPylon.Find</text>
</a>
</g>
</g>
<!-- Node8&#45;&gt;Node13 -->
<g id="edge12_Node000008_Node000013" class="edge">
<title>Node8&#45;&gt;Node13</title>
<g id="a_edge12_Node000008_Node000013"><a xlink:title=" ">
<path fill="none" stroke="#63b8ff" d="M888.52,-942.74C911.63,-926.6 950.37,-901.37 987,-886 992,-883.9 997.22,-881.95 1002.54,-880.14"/>
<polygon fill="#63b8ff" stroke="#63b8ff" points="1003.74,-883.43 1012.18,-877.04 1001.59,-876.77 1003.74,-883.43"/>
</a>
</g>
</g>
<!-- Node14 -->
<g id="Node000014" class="node">
<title>Node14</title>
<g id="a_Node000014"><a xlink:href="../../d1/dea/classTerraria_1_1GameContent_1_1Tile__Entities_1_1TETrainingDummy_ab9fb96c6f00d653644d815bbdf50f66a.html#ab9fb96c6f00d653644d815bbdf50f66a" target="_top" xlink:title=" ">
<polygon fill="white" stroke="#666666" points="1167.5,-829 994.5,-829 994.5,-799 1167.5,-799 1167.5,-829"/>
<text text-anchor="start" x="1002.5" y="-817" font-family="Helvetica,sans-Serif" font-size="10.00">Terraria.GameContent.Tile</text>
<text text-anchor="middle" x="1081" y="-806" font-family="Helvetica,sans-Serif" font-size="10.00">_Entities.TETrainingDummy.Find</text>
</a>
</g>
</g>
<!-- Node8&#45;&gt;Node14 -->
<g id="edge13_Node000008_Node000014" class="edge">
<title>Node8&#45;&gt;Node14</title>
<g id="a_edge13_Node000008_Node000014"><a xlink:title=" ">
<path fill="none" stroke="#63b8ff" d="M878.16,-942.91C897.07,-917.31 939.03,-865.47 987,-838 990.06,-836.25 993.25,-834.62 996.52,-833.11"/>
<polygon fill="#63b8ff" stroke="#63b8ff" points="998.08,-836.26 1005.95,-829.16 995.37,-829.8 998.08,-836.26"/>
</a>
</g>
</g>
<!-- Node15 -->
<g id="Node000015" class="node">
<title>Node15</title>
<g id="a_Node000015"><a xlink:href="../../d6/db4/classTerraria_1_1GameContent_1_1Tile__Entities_1_1TEWeaponsRack_aa3987ebaf1e3db83e347561e6bb8c801.html#aa3987ebaf1e3db83e347561e6bb8c801" target="_top" xlink:title=" ">
<polygon fill="white" stroke="#666666" points="1163.5,-1192 998.5,-1192 998.5,-1162 1163.5,-1162 1163.5,-1192"/>
<text text-anchor="start" x="1006.5" y="-1180" font-family="Helvetica,sans-Serif" font-size="10.00">Terraria.GameContent.Tile</text>
<text text-anchor="middle" x="1081" y="-1169" font-family="Helvetica,sans-Serif" font-size="10.00">_Entities.TEWeaponsRack.Find</text>
</a>
</g>
</g>
<!-- Node8&#45;&gt;Node15 -->
<g id="edge14_Node000008_Node000015" class="edge">
<title>Node8&#45;&gt;Node15</title>
<g id="a_edge14_Node000008_Node000015"><a xlink:title=" ">
<path fill="none" stroke="#63b8ff" d="M872.32,-973.18C884.84,-1010.07 922.04,-1104.96 987,-1153 989.05,-1154.52 991.19,-1155.94 993.4,-1157.27"/>
<polygon fill="#63b8ff" stroke="#63b8ff" points="991.76,-1160.36 1002.23,-1161.98 995.05,-1154.19 991.76,-1160.36"/>
</a>
</g>
</g>
<!-- Node16 -->
<g id="Node000016" class="node">
<title>Node16</title>
<g id="a_Node000016"><a xlink:href="../../dc/ddf/classTerraria_1_1Chest_acd6e0360d9c88e1b967580124250a028.html#acd6e0360d9c88e1b967580124250a028" target="_top" xlink:title="Tries to find a T:Terraria.Chest located at (X , Y ) (tile coordinates).">
<polygon fill="white" stroke="#666666" points="1148.5,-1143.5 1013.5,-1143.5 1013.5,-1124.5 1148.5,-1124.5 1148.5,-1143.5"/>
<text text-anchor="middle" x="1081" y="-1131.5" font-family="Helvetica,sans-Serif" font-size="10.00">Terraria.Chest.FindChest</text>
</a>
</g>
</g>
<!-- Node8&#45;&gt;Node16 -->
<g id="edge15_Node000008_Node000016" class="edge">
<title>Node8&#45;&gt;Node16</title>
<g id="a_edge15_Node000008_Node000016"><a xlink:title=" ">
<path fill="none" stroke="#63b8ff" d="M874.22,-973.11C889.33,-1005.17 929.2,-1079.99 987,-1116 992.1,-1119.18 997.63,-1121.81 1003.38,-1124"/>
<polygon fill="#63b8ff" stroke="#63b8ff" points="1002.61,-1127.43 1013.2,-1127.27 1004.82,-1120.79 1002.61,-1127.43"/>
</a>
</g>
</g>
<!-- Node17 -->
<g id="Node000017" class="node">
<title>Node17</title>
<g id="a_Node000017"><a xlink:href="../../dd/d21/classTerraria_1_1Sign_a29027ab23c41a6dfb30ae54caa2be2f7.html#a29027ab23c41a6dfb30ae54caa2be2f7" target="_top" xlink:title=" ">
<polygon fill="white" stroke="#666666" points="1144,-1106.5 1018,-1106.5 1018,-1087.5 1144,-1087.5 1144,-1106.5"/>
<text text-anchor="middle" x="1081" y="-1094.5" font-family="Helvetica,sans-Serif" font-size="10.00">Terraria.Sign.ReadSign</text>
</a>
</g>
</g>
<!-- Node8&#45;&gt;Node17 -->
<g id="edge16_Node000008_Node000017" class="edge">
<title>Node8&#45;&gt;Node17</title>
<g id="a_edge16_Node000008_Node000017"><a xlink:title=" ">
<path fill="none" stroke="#63b8ff" d="M878.02,-973.35C896.71,-999.35 938.35,-1051.77 987,-1078 993.48,-1081.5 1000.53,-1084.35 1007.76,-1086.68"/>
<polygon fill="#63b8ff" stroke="#63b8ff" points="1007.11,-1090.13 1017.69,-1089.54 1009.05,-1083.41 1007.11,-1090.13"/>
</a>
</g>
</g>
<!-- Node8&#45;&gt;Node19 -->
<g id="edge18_Node000008_Node000019" class="edge">
<title>Node8&#45;&gt;Node19</title>
<g id="a_edge18_Node000008_Node000019"><a xlink:title=" ">
<path fill="none" stroke="#63b8ff" d="M881.12,-942.95C898.42,-923.45 928.73,-888.01 951,-855 969.47,-827.62 960.89,-810.22 987,-790 992.49,-785.75 998.66,-782.24 1005.14,-779.36"/>
<polygon fill="#63b8ff" stroke="#63b8ff" points="1006.78,-782.47 1014.81,-775.56 1004.22,-775.96 1006.78,-782.47"/>
</a>
</g>
</g>
<!-- Node18 -->
<g id="Node000018" class="node">
<title>Node18</title>
<g id="a_Node000018"><a xlink:href="../../dd/d21/classTerraria_1_1Sign_abdb027ce4747b58504b4900b6ea459d9.html#abdb027ce4747b58504b4900b6ea459d9" target="_top" xlink:title=" ">
<polygon fill="white" stroke="#666666" points="1328,-1106.5 1211,-1106.5 1211,-1087.5 1328,-1087.5 1328,-1106.5"/>
<text text-anchor="middle" x="1269.5" y="-1094.5" font-family="Helvetica,sans-Serif" font-size="10.00">Terraria.Sign.KillSign</text>
</a>
</g>
</g>
<!-- Node17&#45;&gt;Node18 -->
<g id="edge17_Node000017_Node000018" class="edge">
<title>Node17&#45;&gt;Node18</title>
<g id="a_edge17_Node000017_Node000018"><a xlink:title=" ">
<path fill="none" stroke="#63b8ff" d="M1144.1,-1097C1162.25,-1097 1182.18,-1097 1200.66,-1097"/>
<polygon fill="#63b8ff" stroke="#63b8ff" points="1200.77,-1100.5 1210.77,-1097 1200.77,-1093.5 1200.77,-1100.5"/>
</a>
</g>
</g>
<!-- Node24 -->
<g id="Node000024" class="node">
<title>Node24</title>
<g id="a_Node000024"><a xlink:href="../../d1/da9/classTerraria_1_1ModLoader_1_1SystemLoader_ae99eb8c523f713e1b444bb0751fdac97.html#ae99eb8c523f713e1b444bb0751fdac97" target="_top" xlink:title=" ">
<polygon fill="white" stroke="#666666" points="941,-652 792,-652 792,-622 941,-622 941,-652"/>
<text text-anchor="start" x="800" y="-640" font-family="Helvetica,sans-Serif" font-size="10.00">Terraria.ModLoader.System</text>
<text text-anchor="middle" x="866.5" y="-629" font-family="Helvetica,sans-Serif" font-size="10.00">Loader.HijackSendData</text>
</a>
</g>
</g>
<!-- Node23&#45;&gt;Node24 -->
<g id="edge23_Node000023_Node000024" class="edge">
<title>Node23&#45;&gt;Node24</title>
<g id="a_edge23_Node000023_Node000024"><a xlink:title=" ">
<path fill="none" stroke="#63b8ff" d="M737.75,-637C751.96,-637 766.88,-637 781.31,-637"/>
<polygon fill="#63b8ff" stroke="#63b8ff" points="781.71,-640.5 791.71,-637 781.71,-633.5 781.71,-640.5"/>
</a>
</g>
</g>
<!-- Node27 -->
<g id="Node000027" class="node">
<title>Node27</title>
<g id="a_Node000027"><a xlink:href="../../df/d47/classTerraria_1_1ModLoader_1_1ModNet_a0887e1e6a5354d57bf79d5fb93bdb7da.html#a0887e1e6a5354d57bf79d5fb93bdb7da" target="_top" xlink:title=" ">
<polygon fill="white" stroke="#666666" points="943.5,-480 789.5,-480 789.5,-450 943.5,-450 943.5,-480"/>
<text text-anchor="start" x="797.5" y="-468" font-family="Helvetica,sans-Serif" font-size="10.00">Terraria.ModLoader.ModNet.</text>
<text text-anchor="middle" x="866.5" y="-457" font-family="Helvetica,sans-Serif" font-size="10.00">Debug</text>
</a>
</g>
</g>
<!-- Node26&#45;&gt;Node27 -->
<g id="edge26_Node000026_Node000027" class="edge">
<title>Node26&#45;&gt;Node27</title>
<g id="a_edge26_Node000026_Node000027"><a xlink:title=" ">
<path fill="none" stroke="#63b8ff" d="M737.75,-465C751.19,-465 765.26,-465 778.96,-465"/>
<polygon fill="#63b8ff" stroke="#63b8ff" points="779.34,-468.5 789.34,-465 779.34,-461.5 779.34,-468.5"/>
</a>
</g>
</g>
<!-- Node27&#45;&gt;Node27 -->
<g id="edge27_Node000027_Node000027" class="edge">
<title>Node27&#45;&gt;Node27</title>
<g id="a_edge27_Node000027_Node000027"><a xlink:title=" ">
<path fill="none" stroke="#63b8ff" d="M830.29,-480.28C822.24,-489.41 834.31,-498 866.5,-498 885.61,-498 897.63,-494.97 902.56,-490.6"/>
<polygon fill="#63b8ff" stroke="#63b8ff" points="906.06,-490.33 902.71,-480.28 899.06,-490.22 906.06,-490.33"/>
</a>
</g>
</g>
<!-- Node28 -->
<g id="Node000028" class="node">
<title>Node28</title>
<g id="a_Node000028"><a xlink:href="../../df/d47/classTerraria_1_1ModLoader_1_1ModNet_ac2c9d5a95be6bd79eeea20bdc9bd0d46.html#ac2c9d5a95be6bd79eeea20bdc9bd0d46" target="_top" xlink:title=" ">
<polygon fill="white" stroke="#666666" points="1158,-480 1004,-480 1004,-450 1158,-450 1158,-480"/>
<text text-anchor="start" x="1012" y="-468" font-family="Helvetica,sans-Serif" font-size="10.00">Terraria.ModLoader.ModNet.</text>
<text text-anchor="middle" x="1081" y="-457" font-family="Helvetica,sans-Serif" font-size="10.00">Identifier</text>
</a>
</g>
</g>
<!-- Node27&#45;&gt;Node28 -->
<g id="edge28_Node000027_Node000028" class="edge">
<title>Node27&#45;&gt;Node28</title>
<g id="a_edge28_Node000027_Node000028"><a xlink:title=" ">
<path fill="none" stroke="#63b8ff" d="M943.62,-465C959.79,-465 976.98,-465 993.51,-465"/>
<polygon fill="#63b8ff" stroke="#63b8ff" points="993.7,-468.5 1003.7,-465 993.7,-461.5 993.7,-468.5"/>
</a>
</g>
</g>
<!-- Node29&#45;&gt;Node30 -->
<g id="edge30_Node000029_Node000030" class="edge">
<title>Node29&#45;&gt;Node30</title>
<g id="a_edge30_Node000029_Node000030"><a xlink:title=" ">
<path fill="none" stroke="#63b8ff" d="M905.98,-566.03C941.38,-579.85 993.99,-600.4 1032.09,-615.29"/>
<polygon fill="#63b8ff" stroke="#63b8ff" points="1030.86,-618.56 1041.45,-618.94 1033.4,-612.04 1030.86,-618.56"/>
</a>
</g>
</g>
<!-- Node32 -->
<g id="Node000032" class="node">
<title>Node32</title>
<g id="a_Node000032"><a xlink:href="../../d1/d9c/classTerraria_1_1Utils_a77957b27eb38a437df68fbc4467ffc54.html#a77957b27eb38a437df68fbc4467ffc54" target="_top" xlink:title="Bit packs a BitArray in to a Byte Array and then sends the byte array.">
<polygon fill="white" stroke="#666666" points="939.5,-426.5 793.5,-426.5 793.5,-407.5 939.5,-407.5 939.5,-426.5"/>
<text text-anchor="middle" x="866.5" y="-414.5" font-family="Helvetica,sans-Serif" font-size="10.00">Terraria.Utils.SendBitArray</text>
</a>
</g>
</g>
<!-- Node31&#45;&gt;Node32 -->
<g id="edge32_Node000031_Node000032" class="edge">
<title>Node31&#45;&gt;Node32</title>
<g id="a_edge32_Node000031_Node000032"><a xlink:title=" ">
<path fill="none" stroke="#63b8ff" d="M735.73,-417C751.15,-417 767.48,-417 783.17,-417"/>
<polygon fill="#63b8ff" stroke="#63b8ff" points="783.37,-420.5 793.37,-417 783.37,-413.5 783.37,-420.5"/>
</a>
</g>
</g>
<!-- Node36&#45;&gt;Node36 -->
<g id="edge38_Node000036_Node000036" class="edge">
<title>Node36&#45;&gt;Node36</title>
<g id="a_edge38_Node000036_Node000036"><a xlink:title=" ">
<path fill="none" stroke="#63b8ff" d="M624.29,-222.28C616.24,-231.41 628.31,-240 660.5,-240 679.61,-240 691.63,-236.97 696.56,-232.6"/>
<polygon fill="#63b8ff" stroke="#63b8ff" points="700.06,-232.33 696.71,-222.28 693.06,-232.22 700.06,-232.33"/>
</a>
</g>
</g>
<!-- Node40&#45;&gt;Node29 -->
<g id="edge44_Node000040_Node000029" class="edge">
<title>Node40&#45;&gt;Node29</title>
<g id="a_edge44_Node000040_Node000029"><a xlink:title=" ">
<path fill="none" stroke="#63b8ff" d="M746.24,-551C757.93,-551 769.92,-551 781.59,-551"/>
<polygon fill="#63b8ff" stroke="#63b8ff" points="781.75,-554.5 791.75,-551 781.75,-547.5 781.75,-554.5"/>
</a>
</g>
</g>
<!-- Node41&#45;&gt;Node41 -->
<g id="edge46_Node000041_Node000041" class="edge">
<title>Node41&#45;&gt;Node41</title>
<g id="a_edge46_Node000041_Node000041"><a xlink:title=" ">
<path fill="none" stroke="#63b8ff" d="M424.1,-440.58C409.55,-449.23 419.52,-458.5 454,-458.5 477.71,-458.5 489.82,-454.12 490.36,-448.57"/>
<polygon fill="#63b8ff" stroke="#63b8ff" points="492.91,-446.16 483.9,-440.58 487.46,-450.56 492.91,-446.16"/>
</a>
</g>
</g>
<!-- Node43 -->
<g id="Node000043" class="node">
<title>Node43</title>
<g id="a_Node000043"><a xlink:href="../../d7/de6/classTerraria_1_1ModLoader_1_1ItemLoader_a27efe59ba3cc753ee6acafdd5fe00738.html#a27efe59ba3cc753ee6acafdd5fe00738" target="_top" xlink:title="Calls the GlobalItem.OnStack hooks in destination , then the ModItem.OnStack hook in destination &#160;&#160;On...">
<polygon fill="white" stroke="#666666" points="745.5,-30 575.5,-30 575.5,0 745.5,0 745.5,-30"/>
<text text-anchor="start" x="583.5" y="-18" font-family="Helvetica,sans-Serif" font-size="10.00">Terraria.ModLoader.ItemLoader.</text>
<text text-anchor="middle" x="660.5" y="-7" font-family="Helvetica,sans-Serif" font-size="10.00">OnStack</text>
</a>
</g>
</g>
<!-- Node42&#45;&gt;Node43 -->
<g id="edge48_Node000042_Node000043" class="edge">
<title>Node42&#45;&gt;Node43</title>
<g id="a_edge48_Node000042_Node000043"><a xlink:title=" ">
<path fill="none" stroke="#63b8ff" d="M461.18,-196.89C475.74,-163.19 515.52,-81.51 575,-39 577.12,-37.49 579.33,-36.07 581.61,-34.74"/>
<polygon fill="#63b8ff" stroke="#63b8ff" points="583.43,-37.74 590.72,-30.04 580.22,-31.52 583.43,-37.74"/>
</a>
</g>
</g>
</g>
</svg>
