<?xml version="1.0" encoding="UTF-8" standalone="no"?>
<!DOCTYPE svg PUBLIC "-//W3C//DTD SVG 1.1//EN"
 "http://www.w3.org/Graphics/SVG/1.1/DTD/svg11.dtd">
<!-- Generated by graphviz version 2.43.0 (0)
 -->
<!-- Title: Terraria.Item.FindDecraftAmount Pages: 1 -->
<!--zoomable 284 -->

<svg id="main" version="1.1" xmlns="http://www.w3.org/2000/svg" xmlns:xlink="http://www.w3.org/1999/xlink" xml:space="preserve" onload="init(evt)">
<style type="text/css"><![CDATA[
.node, .edge {opacity: 0.7;}
.node.selected, .edge.selected {opacity: 1;}
.edge:hover path { stroke: red; }
.edge:hover polygon { stroke: red; fill: red; }
]]></style>

<defs>
  <circle id="rim" cx="0" cy="0" r="7"/>
  <circle id="rim2" cx="0" cy="0" r="3.5"/>
  <g id="zoomPlus">
    <use xlink:href="#rim" fill="#404040"><set attributeName="fill" to="#808080" begin="zoomplus.mouseover" end="zoomplus.mouseout"/></use>
    <path d="M-4,0h8M0,-4v8" fill="none" stroke="white" stroke-width="1.5" pointer-events="none"/>
  </g>
  <g id="zoomMin">
    <use xlink:href="#rim" fill="#404040"><set attributeName="fill" to="#808080" begin="zoomminus.mouseover" end="zoomminus.mouseout"/></use>
    <path d="M-4,0h8" fill="none" stroke="white" stroke-width="1.5" pointer-events="none"/>
  </g>
  <g id="arrowUp" transform="translate(30 24)">
    <use xlink:href="#rim"/>
    <path pointer-events="none" fill="none" stroke="white" stroke-width="1.5" d="M0,-3.0v7 M-2.5,-0.5L0,-3.0L2.5,-0.5"/>
  </g>
  <g id="arrowRight" transform="rotate(90) translate(36 -43)">
    <use xlink:href="#rim"/>
    <path pointer-events="none" fill="none" stroke="white" stroke-width="1.5" d="M0,-3.0v7 M-2.5,-0.5L0,-3.0L2.5,-0.5"/>
  </g>
  <g id="arrowDown" transform="rotate(180) translate(-30 -48)">
    <use xlink:href="#rim"/>
    <path pointer-events="none" fill="none" stroke="white" stroke-width="1.5" d="M0,-3.0v7 M-2.5,-0.5L0,-3.0L2.5,-0.5"/>
  </g>
  <g id="arrowLeft" transform="rotate(270) translate(-36 17)">
    <use xlink:href="#rim"/>
    <path pointer-events="none" fill="none" stroke="white" stroke-width="1.5" d="M0,-3.0v7 M-2.5,-0.5L0,-3.0L2.5,-0.5"/>
  </g>
  <g id="resetDef">
    <use xlink:href="#rim2" fill="#404040"><set attributeName="fill" to="#808080" begin="reset.mouseover" end="reset.mouseout"/></use>
  </g>
</defs>
<script type="application/ecmascript">
var viewWidth = 1171;
var viewHeight = 284;
var sectionId = 'dynsection-0';
</script>
<script type="application/ecmascript" xlink:href="../../svg.min.js"/>
<svg id="graph" class="graph">
<g id="viewport">
<title>Terraria.Item.FindDecraftAmount</title>
<!-- Node1 -->
<g id="Node000001" class="node">
<title>Node1</title>
<g id="a_Node000001"><a xlink:title=" ">
<polygon fill="#999999" stroke="#666666" points="137,-134 0,-134 0,-104 137,-104 137,-134"/>
<text text-anchor="start" x="8" y="-122" font-family="Helvetica,sans-Serif" font-size="10.00">Terraria.Item.FindDecraft</text>
<text text-anchor="middle" x="68.5" y="-111" font-family="Helvetica,sans-Serif" font-size="10.00">Amount</text>
</a>
</g>
</g>
<!-- Node2 -->
<g id="Node000002" class="node">
<title>Node2</title>
<g id="a_Node000002"><a xlink:href="../../d1/d1c/classTerraria_1_1GameContent_1_1ShimmerTransforms_a809efc1ae4caf987a3d337bc4a8553e4.html#a809efc1ae4caf987a3d337bc4a8553e4" target="_top" xlink:title=" ">
<polygon fill="white" stroke="#666666" points="374,-158 173,-158 173,-128 374,-128 374,-158"/>
<text text-anchor="start" x="181" y="-146" font-family="Helvetica,sans-Serif" font-size="10.00">Terraria.GameContent.Shimmer</text>
<text text-anchor="middle" x="273.5" y="-135" font-family="Helvetica,sans-Serif" font-size="10.00">Transforms.GetDecraftingRecipeIndex</text>
</a>
</g>
</g>
<!-- Node1&#45;&gt;Node2 -->
<g id="edge1_Node000001_Node000002" class="edge">
<title>Node1&#45;&gt;Node2</title>
<g id="a_edge1_Node000001_Node000002"><a xlink:title=" ">
<path fill="none" stroke="#63b8ff" d="M137.1,-126.99C145.48,-127.98 154.2,-129.01 163.01,-130.06"/>
<polygon fill="#63b8ff" stroke="#63b8ff" points="162.64,-133.54 172.98,-131.23 163.46,-126.58 162.64,-133.54"/>
</a>
</g>
</g>
<!-- Node13 -->
<g id="Node000013" class="node">
<title>Node13</title>
<g id="a_Node000013"><a xlink:href="../../db/d79/classTerraria_1_1Item_a51752696961551b83fe396461cc520c3.html#a51752696961551b83fe396461cc520c3" target="_top" xlink:title=" ">
<polygon fill="white" stroke="#666666" points="345,-110 202,-110 202,-80 345,-80 345,-110"/>
<text text-anchor="start" x="210" y="-98" font-family="Helvetica,sans-Serif" font-size="10.00">Terraria.Item.GetShimmer</text>
<text text-anchor="middle" x="273.5" y="-87" font-family="Helvetica,sans-Serif" font-size="10.00">EquivalentType</text>
</a>
</g>
</g>
<!-- Node1&#45;&gt;Node13 -->
<g id="edge13_Node000001_Node000013" class="edge">
<title>Node1&#45;&gt;Node13</title>
<g id="a_edge13_Node000001_Node000013"><a xlink:title=" ">
<path fill="none" stroke="#63b8ff" d="M137.1,-111.01C154.61,-108.94 173.65,-106.69 191.77,-104.54"/>
<polygon fill="#63b8ff" stroke="#63b8ff" points="192.2,-108.02 201.72,-103.37 191.38,-101.07 192.2,-108.02"/>
</a>
</g>
</g>
<!-- Node3 -->
<g id="Node000003" class="node">
<title>Node3</title>
<g id="a_Node000003"><a xlink:href="../../d5/dbb/classTerraria_1_1ModLoader_1_1RecipeLoader_a35e41f9c2cdda591351da13c3c8fdf6b.html#a35e41f9c2cdda591351da13c3c8fdf6b" target="_top" xlink:title="Returns whether or not the conditions are met for this recipe to be shimmered/decrafted.">
<polygon fill="white" stroke="#666666" points="556,-158 410,-158 410,-128 556,-128 556,-158"/>
<text text-anchor="start" x="418" y="-146" font-family="Helvetica,sans-Serif" font-size="10.00">Terraria.ModLoader.Recipe</text>
<text text-anchor="middle" x="483" y="-135" font-family="Helvetica,sans-Serif" font-size="10.00">Loader.DecraftAvailable</text>
</a>
</g>
</g>
<!-- Node2&#45;&gt;Node3 -->
<g id="edge2_Node000002_Node000003" class="edge">
<title>Node2&#45;&gt;Node3</title>
<g id="a_edge2_Node000002_Node000003"><a xlink:title=" ">
<path fill="none" stroke="#63b8ff" d="M374.3,-143C382.86,-143 391.46,-143 399.86,-143"/>
<polygon fill="#63b8ff" stroke="#63b8ff" points="399.99,-146.5 409.99,-143 399.99,-139.5 399.99,-146.5"/>
</a>
</g>
</g>
<!-- Node4 -->
<g id="Node000004" class="node">
<title>Node4</title>
<g id="a_Node000004"><a xlink:href="../../dc/d42/namespaceTerraria_a93491dc715fc242ee999226e13c27096.html#a93491dc715fc242ee999226e13c27096" target="_top" xlink:title=" ">
<polygon fill="white" stroke="#666666" points="695,-152.5 592,-152.5 592,-133.5 695,-133.5 695,-152.5"/>
<text text-anchor="middle" x="643.5" y="-140.5" font-family="Helvetica,sans-Serif" font-size="10.00">Terraria.Condition</text>
</a>
</g>
</g>
<!-- Node3&#45;&gt;Node4 -->
<g id="edge3_Node000003_Node000004" class="edge">
<title>Node3&#45;&gt;Node4</title>
<g id="a_edge3_Node000003_Node000004"><a xlink:title=" ">
<path fill="none" stroke="#63b8ff" d="M556.29,-143C564.67,-143 573.16,-143 581.37,-143"/>
<polygon fill="#63b8ff" stroke="#63b8ff" points="581.6,-146.5 591.6,-143 581.6,-139.5 581.6,-146.5"/>
</a>
</g>
</g>
<!-- Node4&#45;&gt;Node4 -->
<g id="edge5_Node000004_Node000004" class="edge">
<title>Node4&#45;&gt;Node4</title>
<g id="a_edge5_Node000004_Node000004"><a xlink:title=" ">
<path fill="none" stroke="#63b8ff" d="M618.84,-152.58C606.84,-161.23 615.06,-170.5 643.5,-170.5 662.16,-170.5 672.12,-166.51 673.37,-161.32"/>
<polygon fill="#63b8ff" stroke="#63b8ff" points="676.29,-159.38 668.16,-152.58 670.27,-162.97 676.29,-159.38"/>
</a>
</g>
</g>
<!-- Node5 -->
<g id="Node000005" class="node">
<title>Node5</title>
<g id="a_Node000005"><a xlink:href="../../df/d0d/classTerraria_1_1NPC_a8a869e0800c1ae775007634b23e8b702.html#a8a869e0800c1ae775007634b23e8b702" target="_top" xlink:title="Returns true if there are any active NPC in the world of the given NPC type (F:Terraria....">
<polygon fill="white" stroke="#666666" points="912.5,-275.5 788.5,-275.5 788.5,-256.5 912.5,-256.5 912.5,-275.5"/>
<text text-anchor="middle" x="850.5" y="-263.5" font-family="Helvetica,sans-Serif" font-size="10.00">Terraria.NPC.AnyNPCs</text>
</a>
</g>
</g>
<!-- Node4&#45;&gt;Node5 -->
<g id="edge4_Node000004_Node000005" class="edge">
<title>Node4&#45;&gt;Node5</title>
<g id="a_edge4_Node000004_Node000005"><a xlink:title=" ">
<path fill="none" stroke="#63b8ff" d="M649.42,-152.73C660.65,-173.85 690.4,-223.86 731,-247 745.24,-255.12 761.92,-260.04 778.2,-262.96"/>
<polygon fill="#63b8ff" stroke="#63b8ff" points="777.83,-266.45 788.25,-264.54 778.91,-259.53 777.83,-266.45"/>
</a>
</g>
</g>
<!-- Node6 -->
<g id="Node000006" class="node">
<title>Node6</title>
<g id="a_Node000006"><a xlink:href="../../d7/d15/classTerraria_1_1GameContent_1_1TeleportPylonsSystem_a49e5bbd658cb0f5a854d248a224efea3.html#a49e5bbd658cb0f5a854d248a224efea3" target="_top" xlink:title=" ">
<polygon fill="white" stroke="#666666" points="970,-238 731,-238 731,-208 970,-208 970,-238"/>
<text text-anchor="start" x="739" y="-226" font-family="Helvetica,sans-Serif" font-size="10.00">Terraria.GameContent.Teleport</text>
<text text-anchor="middle" x="850.5" y="-215" font-family="Helvetica,sans-Serif" font-size="10.00">PylonsSystem.DoesPositionHaveEnoughNPCs</text>
</a>
</g>
</g>
<!-- Node4&#45;&gt;Node6 -->
<g id="edge6_Node000004_Node000006" class="edge">
<title>Node4&#45;&gt;Node6</title>
<g id="a_edge6_Node000004_Node000006"><a xlink:title=" ">
<path fill="none" stroke="#63b8ff" d="M656.02,-152.51C671.89,-165.1 701.84,-187.11 731,-199 736.42,-201.21 742.06,-203.22 747.81,-205.05"/>
<polygon fill="#63b8ff" stroke="#63b8ff" points="747,-208.46 757.58,-207.97 749,-201.76 747,-208.46"/>
</a>
</g>
</g>
<!-- Node7 -->
<g id="Node000007" class="node">
<title>Node7</title>
<g id="a_Node000007"><a xlink:href="../../df/dd3/classTerraria_1_1Lang_a0e19a8ec4ed9000a1f1e0db2c9a75cdc.html#a0e19a8ec4ed9000a1f1e0db2c9a75cdc" target="_top" xlink:title="Gets the display name of the provided item type (F:Terraria.Item.type) as a T:Terraria....">
<polygon fill="white" stroke="#666666" points="926.5,-189.5 774.5,-189.5 774.5,-170.5 926.5,-170.5 926.5,-189.5"/>
<text text-anchor="middle" x="850.5" y="-177.5" font-family="Helvetica,sans-Serif" font-size="10.00">Terraria.Lang.GetItemName</text>
</a>
</g>
</g>
<!-- Node4&#45;&gt;Node7 -->
<g id="edge7_Node000004_Node000007" class="edge">
<title>Node4&#45;&gt;Node7</title>
<g id="a_edge7_Node000004_Node000007"><a xlink:title=" ">
<path fill="none" stroke="#63b8ff" d="M685.31,-152.54C699.71,-155.75 716.03,-159.22 731,-162 744.04,-164.42 757.94,-166.75 771.45,-168.89"/>
<polygon fill="#63b8ff" stroke="#63b8ff" points="771.27,-172.4 781.69,-170.48 772.35,-165.49 771.27,-172.4"/>
</a>
</g>
</g>
<!-- Node9 -->
<g id="Node000009" class="node">
<title>Node9</title>
<g id="a_Node000009"><a xlink:href="../../da/dd5/classTerraria_1_1Main_a19bb4d30a35615f89be0545e5f99acd2.html#a19bb4d30a35615f89be0545e5f99acd2" target="_top" xlink:title=" ">
<polygon fill="white" stroke="#666666" points="929,-152.5 772,-152.5 772,-133.5 929,-133.5 929,-152.5"/>
<text text-anchor="middle" x="850.5" y="-140.5" font-family="Helvetica,sans-Serif" font-size="10.00">Terraria.Main.GetMoonPhase</text>
</a>
</g>
</g>
<!-- Node4&#45;&gt;Node9 -->
<g id="edge9_Node000004_Node000009" class="edge">
<title>Node4&#45;&gt;Node9</title>
<g id="a_edge9_Node000004_Node000009"><a xlink:title=" ">
<path fill="none" stroke="#63b8ff" d="M695.17,-143C715.31,-143 739.08,-143 761.84,-143"/>
<polygon fill="#63b8ff" stroke="#63b8ff" points="761.87,-146.5 771.87,-143 761.87,-139.5 761.87,-146.5"/>
</a>
</g>
</g>
<!-- Node10 -->
<g id="Node000010" class="node">
<title>Node10</title>
<g id="a_Node000010"><a xlink:href="../../df/dd3/classTerraria_1_1Lang_af99a2e7e70f95e152e48e5a07d026dd4.html#af99a2e7e70f95e152e48e5a07d026dd4" target="_top" xlink:title="Gets the display name of the provided npc type (F:Terraria.NPC.type) as a T:Terraria....">
<polygon fill="white" stroke="#666666" points="925,-115.5 776,-115.5 776,-96.5 925,-96.5 925,-115.5"/>
<text text-anchor="middle" x="850.5" y="-103.5" font-family="Helvetica,sans-Serif" font-size="10.00">Terraria.Lang.GetNPCName</text>
</a>
</g>
</g>
<!-- Node4&#45;&gt;Node10 -->
<g id="edge10_Node000004_Node000010" class="edge">
<title>Node4&#45;&gt;Node10</title>
<g id="a_edge10_Node000004_Node000010"><a xlink:title=" ">
<path fill="none" stroke="#63b8ff" d="M688.43,-133.45C702.05,-130.6 717.12,-127.56 731,-125 745.65,-122.3 761.36,-119.63 776.4,-117.18"/>
<polygon fill="#63b8ff" stroke="#63b8ff" points="777.36,-120.57 786.68,-115.52 776.25,-113.66 777.36,-120.57"/>
</a>
</g>
</g>
<!-- Node11 -->
<g id="Node000011" class="node">
<title>Node11</title>
<g id="a_Node000011"><a xlink:href="../../d4/d8f/classTerraria_1_1Localization_1_1Language_ac00671f47bd1dfaa3b958d73cc6ce93d.html#ac00671f47bd1dfaa3b958d73cc6ce93d" target="_top" xlink:title="Returns a T:Terraria.Localization.LocalizedText for a given key. &#160;If no existing localization exists ...">
<polygon fill="white" stroke="#666666" points="934.5,-78 766.5,-78 766.5,-48 934.5,-48 934.5,-78"/>
<text text-anchor="start" x="774.5" y="-66" font-family="Helvetica,sans-Serif" font-size="10.00">Terraria.Localization.Language.</text>
<text text-anchor="middle" x="850.5" y="-55" font-family="Helvetica,sans-Serif" font-size="10.00">GetOrRegister</text>
</a>
</g>
</g>
<!-- Node4&#45;&gt;Node11 -->
<g id="edge11_Node000004_Node000011" class="edge">
<title>Node4&#45;&gt;Node11</title>
<g id="a_edge11_Node000004_Node000011"><a xlink:title=" ">
<path fill="none" stroke="#63b8ff" d="M656.34,-133.5C672.33,-121.14 702.16,-99.76 731,-88 739.13,-84.68 747.77,-81.78 756.52,-79.25"/>
<polygon fill="#63b8ff" stroke="#63b8ff" points="757.71,-82.56 766.44,-76.55 755.87,-75.8 757.71,-82.56"/>
</a>
</g>
</g>
<!-- Node12 -->
<g id="Node000012" class="node">
<title>Node12</title>
<g id="a_Node000012"><a xlink:href="../../d4/d8f/classTerraria_1_1Localization_1_1Language_aa5ae49ae4976cbf8cf7aa28595d712a6.html#aa5ae49ae4976cbf8cf7aa28595d712a6" target="_top" xlink:title="Retrieves a LocalizedText object for a specified localization key. The actual text value can be retri...">
<polygon fill="white" stroke="#666666" points="934.5,-30 766.5,-30 766.5,0 934.5,0 934.5,-30"/>
<text text-anchor="start" x="774.5" y="-18" font-family="Helvetica,sans-Serif" font-size="10.00">Terraria.Localization.Language.</text>
<text text-anchor="middle" x="850.5" y="-7" font-family="Helvetica,sans-Serif" font-size="10.00">GetText</text>
</a>
</g>
</g>
<!-- Node4&#45;&gt;Node12 -->
<g id="edge12_Node000004_Node000012" class="edge">
<title>Node4&#45;&gt;Node12</title>
<g id="a_edge12_Node000004_Node000012"><a xlink:title=" ">
<path fill="none" stroke="#63b8ff" d="M649.49,-133.39C660.86,-112.51 690.88,-62.96 731,-39 739.02,-34.21 747.84,-30.36 756.94,-27.26"/>
<polygon fill="#63b8ff" stroke="#63b8ff" points="757.97,-30.61 766.49,-24.31 755.9,-23.92 757.97,-30.61"/>
</a>
</g>
</g>
<!-- Node8 -->
<g id="Node000008" class="node">
<title>Node8</title>
<g id="a_Node000008"><a xlink:href="../../de/d57/classTerraria_1_1ID_1_1ItemID_a64c5c2fd541f343fa3d2753c86dd9e11.html#a64c5c2fd541f343fa3d2753c86dd9e11" target="_top" xlink:title=" ">
<polygon fill="white" stroke="#666666" points="1163,-189.5 1006,-189.5 1006,-170.5 1163,-170.5 1163,-189.5"/>
<text text-anchor="middle" x="1084.5" y="-177.5" font-family="Helvetica,sans-Serif" font-size="10.00">Terraria.ID.ItemID.FromNetId</text>
</a>
</g>
</g>
<!-- Node7&#45;&gt;Node8 -->
<g id="edge8_Node000007_Node000008" class="edge">
<title>Node7&#45;&gt;Node8</title>
<g id="a_edge8_Node000007_Node000008"><a xlink:title=" ">
<path fill="none" stroke="#63b8ff" d="M926.5,-180C948.65,-180 973.07,-180 995.93,-180"/>
<polygon fill="#63b8ff" stroke="#63b8ff" points="995.97,-183.5 1005.97,-180 995.97,-176.5 995.97,-183.5"/>
</a>
</g>
</g>
</g>
</svg>

<g id="navigator" transform="translate(0 0)" fill="#404254">
  <rect fill="#f2f5e9" fill-opacity="0.5" stroke="#606060" stroke-width=".5" x="0" y="0" width="60" height="60"/>
  <use id="zoomplus" xlink:href="#zoomPlus" x="17" y="9" onmousedown="handleZoom(evt,'in')"/>
  <use id="zoomminus" xlink:href="#zoomMin" x="42" y="9" onmousedown="handleZoom(evt,'out')"/>
  <use id="reset" xlink:href="#resetDef" x="30" y="36" onmousedown="handleReset()"/>
   <use id="arrowup" xlink:href="#arrowUp" x="0" y="0" onmousedown="handlePan(0,-1)"/>
  <use id="arrowright" xlink:href="#arrowRight" x="0" y="0" onmousedown="handlePan(1,0)"/>
  <use id="arrowdown" xlink:href="#arrowDown" x="0" y="0" onmousedown="handlePan(0,1)"/>
  <use id="arrowleft" xlink:href="#arrowLeft" x="0" y="0" onmousedown="handlePan(-1,0)"/>
</g>
<svg viewBox="0 0 15 15" width="100%" height="30px" preserveAspectRatio="xMaxYMin meet">
 <g id="arrow_out" transform="scale(0.3 0.3)">
  <a xlink:href="classTerraria_1_1Item_aa86e2c177a2d9fbfd81214eff7f68bf6_aa86e2c177a2d9fbfd81214eff7f68bf6_cgraph_org.svg" target="_base">
   <rect id="button" ry="5" rx="5" y="6" x="6" height="38" width="38"
        fill="#f2f5e9" fill-opacity="0.5" stroke="#606060" stroke-width="1.0"/>
   <path id="arrow"
     d="M 11.500037,31.436501 C 11.940474,20.09759 22.043105,11.32322 32.158766,21.979434 L 37.068811,17.246167 C 37.068811,17.246167 37.088388,32 37.088388,32 L 22.160133,31.978069 C 22.160133,31.978069 26.997745,27.140456 26.997745,27.140456 C 18.528582,18.264221 13.291696,25.230495 11.500037,31.436501 z"
     style="fill:#404040;"/>
  </a>
 </g>
</svg>

<style type='text/css'>
<![CDATA[
[data-mouse-over-selected='false'] { opacity: 0.7; }
[data-mouse-over-selected='true']  { opacity: 1.0; }
]]>
</style>
<script type="application/ecmascript"><![CDATA[
document.addEventListener('DOMContentLoaded', (event) => {
  highlightEdges();
  highlightAdjacentNodes();
});
]]></script>
</svg>
