<?xml version="1.0" encoding="UTF-8" standalone="no"?>
<!DOCTYPE svg PUBLIC "-//W3C//DTD SVG 1.1//EN"
 "http://www.w3.org/Graphics/SVG/1.1/DTD/svg11.dtd">
<!-- Generated by graphviz version 2.43.0 (0)
 -->
<!-- Title: Terraria.GameContent.UI.Elements.UIWorkshopPublishResourcePackListItem.UIWorkshopPublishResourcePackListItem Pages: 1 -->
<!--zoomable 313 -->

<svg id="main" version="1.1" xmlns="http://www.w3.org/2000/svg" xmlns:xlink="http://www.w3.org/1999/xlink" xml:space="preserve" onload="init(evt)">
<style type="text/css"><![CDATA[
.node, .edge {opacity: 0.7;}
.node.selected, .edge.selected {opacity: 1;}
.edge:hover path { stroke: red; }
.edge:hover polygon { stroke: red; fill: red; }
]]></style>

<defs>
  <circle id="rim" cx="0" cy="0" r="7"/>
  <circle id="rim2" cx="0" cy="0" r="3.5"/>
  <g id="zoomPlus">
    <use xlink:href="#rim" fill="#404040"><set attributeName="fill" to="#808080" begin="zoomplus.mouseover" end="zoomplus.mouseout"/></use>
    <path d="M-4,0h8M0,-4v8" fill="none" stroke="white" stroke-width="1.5" pointer-events="none"/>
  </g>
  <g id="zoomMin">
    <use xlink:href="#rim" fill="#404040"><set attributeName="fill" to="#808080" begin="zoomminus.mouseover" end="zoomminus.mouseout"/></use>
    <path d="M-4,0h8" fill="none" stroke="white" stroke-width="1.5" pointer-events="none"/>
  </g>
  <g id="arrowUp" transform="translate(30 24)">
    <use xlink:href="#rim"/>
    <path pointer-events="none" fill="none" stroke="white" stroke-width="1.5" d="M0,-3.0v7 M-2.5,-0.5L0,-3.0L2.5,-0.5"/>
  </g>
  <g id="arrowRight" transform="rotate(90) translate(36 -43)">
    <use xlink:href="#rim"/>
    <path pointer-events="none" fill="none" stroke="white" stroke-width="1.5" d="M0,-3.0v7 M-2.5,-0.5L0,-3.0L2.5,-0.5"/>
  </g>
  <g id="arrowDown" transform="rotate(180) translate(-30 -48)">
    <use xlink:href="#rim"/>
    <path pointer-events="none" fill="none" stroke="white" stroke-width="1.5" d="M0,-3.0v7 M-2.5,-0.5L0,-3.0L2.5,-0.5"/>
  </g>
  <g id="arrowLeft" transform="rotate(270) translate(-36 17)">
    <use xlink:href="#rim"/>
    <path pointer-events="none" fill="none" stroke="white" stroke-width="1.5" d="M0,-3.0v7 M-2.5,-0.5L0,-3.0L2.5,-0.5"/>
  </g>
  <g id="resetDef">
    <use xlink:href="#rim2" fill="#404040"><set attributeName="fill" to="#808080" begin="reset.mouseover" end="reset.mouseout"/></use>
  </g>
</defs>
<script type="application/ecmascript">
var viewWidth = 1194;
var viewHeight = 313;
var sectionId = 'dynsection-0';
</script>
<script type="application/ecmascript" xlink:href="../../svg.min.js"/>
<svg id="graph" class="graph">
<g id="viewport">
<title>Terraria.GameContent.UI.Elements.UIWorkshopPublishResourcePackListItem.UIWorkshopPublishResourcePackListItem</title>
<!-- Node1 -->
<g id="Node000001" class="node">
<title>Node1</title>
<g id="a_Node000001"><a xlink:title=" ">
<polygon fill="#999999" stroke="#666666" points="221,-194 0,-194 0,-142 221,-142 221,-194"/>
<text text-anchor="start" x="8" y="-182" font-family="Helvetica,sans-Serif" font-size="10.00">Terraria.GameContent.UI.</text>
<text text-anchor="start" x="8" y="-171" font-family="Helvetica,sans-Serif" font-size="10.00">Elements.UIWorkshopPublishResource</text>
<text text-anchor="start" x="8" y="-160" font-family="Helvetica,sans-Serif" font-size="10.00">PackListItem.UIWorkshopPublishResource</text>
<text text-anchor="middle" x="110.5" y="-149" font-family="Helvetica,sans-Serif" font-size="10.00">PackListItem</text>
</a>
</g>
</g>
<!-- Node2 -->
<g id="Node000002" class="node">
<title>Node2</title>
<g id="a_Node000002"><a xlink:href="../../d7/d72/classTerraria_1_1UI_1_1UIElement_a4f78a3ab59b3dffcdc5b68328a46f103.html#a4f78a3ab59b3dffcdc5b68328a46f103" target="_top" xlink:title=" ">
<polygon fill="white" stroke="#666666" points="439.5,-304.5 278.5,-304.5 278.5,-285.5 439.5,-285.5 439.5,-304.5"/>
<text text-anchor="middle" x="359" y="-292.5" font-family="Helvetica,sans-Serif" font-size="10.00">Terraria.UI.UIElement.Append</text>
</a>
</g>
</g>
<!-- Node1&#45;&gt;Node2 -->
<g id="edge1_Node000001_Node000002" class="edge">
<title>Node1&#45;&gt;Node2</title>
<g id="a_edge1_Node000001_Node000002"><a xlink:title=" ">
<path fill="none" stroke="#63b8ff" d="M138.6,-194.13C166.14,-219.15 211.17,-255.96 257,-276 262.85,-278.56 269.03,-280.77 275.34,-282.69"/>
<polygon fill="#63b8ff" stroke="#63b8ff" points="274.77,-286.16 285.34,-285.46 276.64,-279.41 274.77,-286.16"/>
</a>
</g>
</g>
<!-- Node3 -->
<g id="Node000003" class="node">
<title>Node3</title>
<g id="a_Node000003"><a xlink:href="../../d4/d8f/classTerraria_1_1Localization_1_1Language_aa5ae49ae4976cbf8cf7aa28595d712a6.html#aa5ae49ae4976cbf8cf7aa28595d712a6" target="_top" xlink:title="Retrieves a LocalizedText object for a specified localization key. The actual text value can be retri...">
<polygon fill="white" stroke="#666666" points="443,-267 275,-267 275,-237 443,-237 443,-267"/>
<text text-anchor="start" x="283" y="-255" font-family="Helvetica,sans-Serif" font-size="10.00">Terraria.Localization.Language.</text>
<text text-anchor="middle" x="359" y="-244" font-family="Helvetica,sans-Serif" font-size="10.00">GetText</text>
</a>
</g>
</g>
<!-- Node1&#45;&gt;Node3 -->
<g id="edge2_Node000001_Node000003" class="edge">
<title>Node1&#45;&gt;Node3</title>
<g id="a_edge2_Node000001_Node000003"><a xlink:title=" ">
<path fill="none" stroke="#63b8ff" d="M168.78,-194.07C195.26,-205.49 227.36,-218.43 257,-228 263.9,-230.23 271.12,-232.35 278.4,-234.34"/>
<polygon fill="#63b8ff" stroke="#63b8ff" points="277.76,-237.79 288.33,-236.97 279.56,-231.02 277.76,-237.79"/>
</a>
</g>
</g>
<!-- Node4 -->
<g id="Node000004" class="node">
<title>Node4</title>
<g id="a_Node000004"><a xlink:href="../../d2/d33/classTerraria_1_1GameContent_1_1UI_1_1Elements_1_1UIWorkshopPublishResourcePackListItem_a7f162a5ab3b4c74ceaf42ccf7ff11031.html#a7f162a5ab3b4c74ceaf42ccf7ff11031" target="_top" xlink:title=" ">
<polygon fill="white" stroke="#666666" points="461,-218.5 257,-218.5 257,-177.5 461,-177.5 461,-218.5"/>
<text text-anchor="start" x="265" y="-206.5" font-family="Helvetica,sans-Serif" font-size="10.00">Terraria.GameContent.UI.</text>
<text text-anchor="start" x="265" y="-195.5" font-family="Helvetica,sans-Serif" font-size="10.00">Elements.UIWorkshopPublishResource</text>
<text text-anchor="middle" x="359" y="-184.5" font-family="Helvetica,sans-Serif" font-size="10.00">PackListItem.InitializeAppearance</text>
</a>
</g>
</g>
<!-- Node1&#45;&gt;Node4 -->
<g id="edge3_Node000001_Node000004" class="edge">
<title>Node1&#45;&gt;Node4</title>
<g id="a_edge3_Node000001_Node000004"><a xlink:title=" ">
<path fill="none" stroke="#63b8ff" d="M221.05,-181.33C229.65,-182.38 238.33,-183.44 246.94,-184.48"/>
<polygon fill="#63b8ff" stroke="#63b8ff" points="246.64,-187.97 256.99,-185.71 247.49,-181.02 246.64,-187.97"/>
</a>
</g>
</g>
<!-- Node8 -->
<g id="Node000008" class="node">
<title>Node8</title>
<g id="a_Node000008"><a xlink:href="../../d2/d33/classTerraria_1_1GameContent_1_1UI_1_1Elements_1_1UIWorkshopPublishResourcePackListItem_a8605f7aa2e56ef43e16e31973eddf218.html#a8605f7aa2e56ef43e16e31973eddf218" target="_top" xlink:title=" ">
<polygon fill="white" stroke="#666666" points="461,-159.5 257,-159.5 257,-118.5 461,-118.5 461,-159.5"/>
<text text-anchor="start" x="265" y="-147.5" font-family="Helvetica,sans-Serif" font-size="10.00">Terraria.GameContent.UI.</text>
<text text-anchor="start" x="265" y="-136.5" font-family="Helvetica,sans-Serif" font-size="10.00">Elements.UIWorkshopPublishResource</text>
<text text-anchor="middle" x="359" y="-125.5" font-family="Helvetica,sans-Serif" font-size="10.00">PackListItem.LoadTextures</text>
</a>
</g>
</g>
<!-- Node1&#45;&gt;Node8 -->
<g id="edge7_Node000001_Node000008" class="edge">
<title>Node1&#45;&gt;Node8</title>
<g id="a_edge7_Node000001_Node000008"><a xlink:title=" ">
<path fill="none" stroke="#63b8ff" d="M221.05,-155.11C229.65,-154.1 238.33,-153.08 246.94,-152.07"/>
<polygon fill="#63b8ff" stroke="#63b8ff" points="247.47,-155.53 256.99,-150.88 246.65,-148.58 247.47,-155.53"/>
</a>
</g>
</g>
<!-- Node9 -->
<g id="Node000009" class="node">
<title>Node9</title>
<g id="a_Node000009"><a xlink:href="../../d2/d33/classTerraria_1_1GameContent_1_1UI_1_1Elements_1_1UIWorkshopPublishResourcePackListItem_a82c70f0514e6057ce3342212f9aed782.html#a82c70f0514e6057ce3342212f9aed782" target="_top" xlink:title=" ">
<polygon fill="white" stroke="#666666" points="461,-100 257,-100 257,-48 461,-48 461,-100"/>
<text text-anchor="start" x="265" y="-88" font-family="Helvetica,sans-Serif" font-size="10.00">Terraria.GameContent.UI.</text>
<text text-anchor="start" x="265" y="-77" font-family="Helvetica,sans-Serif" font-size="10.00">Elements.UIWorkshopPublishResource</text>
<text text-anchor="start" x="265" y="-66" font-family="Helvetica,sans-Serif" font-size="10.00">PackListItem.PublishButtonClick</text>
<text text-anchor="middle" x="359" y="-55" font-family="Helvetica,sans-Serif" font-size="10.00">_ImportResourcePackToLocalFiles</text>
</a>
</g>
</g>
<!-- Node1&#45;&gt;Node9 -->
<g id="edge8_Node000001_Node000009" class="edge">
<title>Node1&#45;&gt;Node9</title>
<g id="a_edge8_Node000001_Node000009"><a xlink:title=" ">
<path fill="none" stroke="#63b8ff" d="M175.4,-141.93C200.73,-131.76 230.16,-120.13 257,-110 262.58,-107.89 268.34,-105.75 274.16,-103.62"/>
<polygon fill="#63b8ff" stroke="#63b8ff" points="275.78,-106.75 283.97,-100.03 273.38,-100.18 275.78,-106.75"/>
</a>
</g>
</g>
<!-- Node14 -->
<g id="Node000014" class="node">
<title>Node14</title>
<g id="a_Node000014"><a xlink:href="../../d7/d72/classTerraria_1_1UI_1_1UIElement_a8bd017c22efc392e1fe13a78c3a0dcc8.html#a8bd017c22efc392e1fe13a78c3a0dcc8" target="_top" xlink:title=" ">
<polygon fill="white" stroke="#666666" points="429,-30 289,-30 289,0 429,0 429,-30"/>
<text text-anchor="start" x="297" y="-18" font-family="Helvetica,sans-Serif" font-size="10.00">Terraria.UI.UIElement.Set</text>
<text text-anchor="middle" x="359" y="-7" font-family="Helvetica,sans-Serif" font-size="10.00">SnapPoint</text>
</a>
</g>
</g>
<!-- Node1&#45;&gt;Node14 -->
<g id="edge15_Node000001_Node000014" class="edge">
<title>Node1&#45;&gt;Node14</title>
<g id="a_edge15_Node000001_Node000014"><a xlink:title=" ">
<path fill="none" stroke="#63b8ff" d="M133.65,-141.76C160.02,-112.26 206.83,-65.08 257,-39 264.05,-35.34 271.66,-32.22 279.44,-29.58"/>
<polygon fill="#63b8ff" stroke="#63b8ff" points="280.49,-32.92 288.98,-26.58 278.4,-26.24 280.49,-32.92"/>
</a>
</g>
</g>
<!-- Node5 -->
<g id="Node000005" class="node">
<title>Node5</title>
<g id="a_Node000005"><a xlink:href="../../d8/d74/structTerraria_1_1UI_1_1StyleDimension_a93e6acf229427c6435d7ee83958efba0.html#a93e6acf229427c6435d7ee83958efba0" target="_top" xlink:title=" ">
<polygon fill="white" stroke="#666666" points="710,-255.5 544,-255.5 544,-236.5 710,-236.5 710,-255.5"/>
<text text-anchor="middle" x="627" y="-243.5" font-family="Helvetica,sans-Serif" font-size="10.00">Terraria.UI.StyleDimension.Set</text>
</a>
</g>
</g>
<!-- Node4&#45;&gt;Node5 -->
<g id="edge4_Node000004_Node000005" class="edge">
<title>Node4&#45;&gt;Node5</title>
<g id="a_edge4_Node000004_Node000005"><a xlink:title=" ">
<path fill="none" stroke="#63b8ff" d="M448.97,-218.52C464.92,-221.91 481.42,-225.21 497,-228 511.02,-230.51 525.94,-232.87 540.48,-235.01"/>
<polygon fill="#63b8ff" stroke="#63b8ff" points="540.07,-238.49 550.47,-236.45 541.07,-231.56 540.07,-238.49"/>
</a>
</g>
</g>
<!-- Node6 -->
<g id="Node000006" class="node">
<title>Node6</title>
<g id="a_Node000006"><a xlink:href="../../d2/d33/classTerraria_1_1GameContent_1_1UI_1_1Elements_1_1UIWorkshopPublishResourcePackListItem_a5e2717662b2fc3f0700bb62bf3cba406.html#a5e2717662b2fc3f0700bb62bf3cba406" target="_top" xlink:title=" ">
<polygon fill="white" stroke="#666666" points="729,-218.5 525,-218.5 525,-177.5 729,-177.5 729,-218.5"/>
<text text-anchor="start" x="533" y="-206.5" font-family="Helvetica,sans-Serif" font-size="10.00">Terraria.GameContent.UI.</text>
<text text-anchor="start" x="533" y="-195.5" font-family="Helvetica,sans-Serif" font-size="10.00">Elements.UIWorkshopPublishResource</text>
<text text-anchor="middle" x="627" y="-184.5" font-family="Helvetica,sans-Serif" font-size="10.00">PackListItem.SetColorsToNotHovered</text>
</a>
</g>
</g>
<!-- Node4&#45;&gt;Node6 -->
<g id="edge5_Node000004_Node000006" class="edge">
<title>Node4&#45;&gt;Node6</title>
<g id="a_edge5_Node000004_Node000006"><a xlink:title=" ">
<path fill="none" stroke="#63b8ff" d="M461.32,-198C478.75,-198 496.95,-198 514.62,-198"/>
<polygon fill="#63b8ff" stroke="#63b8ff" points="514.96,-201.5 524.96,-198 514.96,-194.5 514.96,-201.5"/>
</a>
</g>
</g>
<!-- Node7 -->
<g id="Node000007" class="node">
<title>Node7</title>
<g id="a_Node000007"><a xlink:href="../../d7/d72/classTerraria_1_1UI_1_1UIElement_af0511f4ddf033fdbf547690740e19d34.html#af0511f4ddf033fdbf547690740e19d34" target="_top" xlink:title=" ">
<polygon fill="white" stroke="#666666" points="697,-159 557,-159 557,-129 697,-129 697,-159"/>
<text text-anchor="start" x="565" y="-147" font-family="Helvetica,sans-Serif" font-size="10.00">Terraria.UI.UIElement.Set</text>
<text text-anchor="middle" x="627" y="-136" font-family="Helvetica,sans-Serif" font-size="10.00">Padding</text>
</a>
</g>
</g>
<!-- Node4&#45;&gt;Node7 -->
<g id="edge6_Node000004_Node000007" class="edge">
<title>Node4&#45;&gt;Node7</title>
<g id="a_edge6_Node000004_Node000007"><a xlink:title=" ">
<path fill="none" stroke="#63b8ff" d="M456.14,-177.43C469.85,-174.56 483.78,-171.68 497,-169 513.02,-165.75 530.17,-162.37 546.57,-159.17"/>
<polygon fill="#63b8ff" stroke="#63b8ff" points="547.52,-162.55 556.67,-157.21 546.18,-155.68 547.52,-162.55"/>
</a>
</g>
</g>
<!-- Node10 -->
<g id="Node000010" class="node">
<title>Node10</title>
<g id="a_Node000010"><a xlink:href="../../d2/d33/classTerraria_1_1GameContent_1_1UI_1_1Elements_1_1UIWorkshopPublishResourcePackListItem_a0a9813eff015eef55609777d07c982d6.html#a0a9813eff015eef55609777d07c982d6" target="_top" xlink:title=" ">
<polygon fill="white" stroke="#666666" points="757,-94.5 497,-94.5 497,-53.5 757,-53.5 757,-94.5"/>
<text text-anchor="start" x="505" y="-82.5" font-family="Helvetica,sans-Serif" font-size="10.00">Terraria.GameContent.UI.</text>
<text text-anchor="start" x="505" y="-71.5" font-family="Helvetica,sans-Serif" font-size="10.00">Elements.UIWorkshopPublishResource</text>
<text text-anchor="middle" x="627" y="-60.5" font-family="Helvetica,sans-Serif" font-size="10.00">PackListItem.TryMovingToRejectionMenuIfNeeded</text>
</a>
</g>
</g>
<!-- Node9&#45;&gt;Node10 -->
<g id="edge9_Node000009_Node000010" class="edge">
<title>Node9&#45;&gt;Node10</title>
<g id="a_edge9_Node000009_Node000010"><a xlink:title=" ">
<path fill="none" stroke="#63b8ff" d="M461.32,-74C469.66,-74 478.17,-74 486.72,-74"/>
<polygon fill="#63b8ff" stroke="#63b8ff" points="486.76,-77.5 496.76,-74 486.76,-70.5 486.76,-77.5"/>
</a>
</g>
</g>
<!-- Node11 -->
<g id="Node000011" class="node">
<title>Node11</title>
<g id="a_Node000011"><a xlink:href="../../d4/d8f/classTerraria_1_1Localization_1_1Language_ae4636a4800b9ecbaa498954520462f78.html#ae4636a4800b9ecbaa498954520462f78" target="_top" xlink:title="Retrieves the text value for a specified localization key. The text returned will be for the currentl...">
<polygon fill="white" stroke="#666666" points="979,-132 811,-132 811,-102 979,-102 979,-132"/>
<text text-anchor="start" x="819" y="-120" font-family="Helvetica,sans-Serif" font-size="10.00">Terraria.Localization.Language.</text>
<text text-anchor="middle" x="895" y="-109" font-family="Helvetica,sans-Serif" font-size="10.00">GetTextValue</text>
</a>
</g>
</g>
<!-- Node10&#45;&gt;Node11 -->
<g id="edge10_Node000010_Node000011" class="edge">
<title>Node10&#45;&gt;Node11</title>
<g id="a_edge10_Node000010_Node000011"><a xlink:title=" ">
<path fill="none" stroke="#63b8ff" d="M755.16,-94.56C770.57,-97.05 786.08,-99.55 800.87,-101.95"/>
<polygon fill="#63b8ff" stroke="#63b8ff" points="800.56,-105.44 810.99,-103.58 801.68,-98.53 800.56,-105.44"/>
</a>
</g>
</g>
<!-- Node12 -->
<g id="Node000012" class="node">
<title>Node12</title>
<g id="a_Node000012"><a xlink:href="../../d3/d78/classTerraria_1_1Audio_1_1SoundEngine_af55950ae09b294fad1dd58e37fecf28b.html#af55950ae09b294fad1dd58e37fecf28b" target="_top" xlink:title="Attempts to play a sound style with the provided sound style (if it&#39;s not null), and returns a valid ...">
<polygon fill="white" stroke="#666666" points="1186,-64 1033,-64 1033,-34 1186,-34 1186,-64"/>
<text text-anchor="start" x="1041" y="-52" font-family="Helvetica,sans-Serif" font-size="10.00">Terraria.Audio.SoundEngine.</text>
<text text-anchor="middle" x="1109.5" y="-41" font-family="Helvetica,sans-Serif" font-size="10.00">PlaySound</text>
</a>
</g>
</g>
<!-- Node10&#45;&gt;Node12 -->
<g id="edge11_Node000010_Node000012" class="edge">
<title>Node10&#45;&gt;Node12</title>
<g id="a_edge11_Node000010_Node000012"><a xlink:title=" ">
<path fill="none" stroke="#63b8ff" d="M757.08,-67.28C841.24,-62.91 948.75,-57.31 1022.56,-53.47"/>
<polygon fill="#63b8ff" stroke="#63b8ff" points="1022.95,-56.96 1032.75,-52.94 1022.58,-49.97 1022.95,-56.96"/>
</a>
</g>
</g>
<!-- Node13 -->
<g id="Node000013" class="node">
<title>Node13</title>
<g id="a_Node000013"><a xlink:href="../../d2/d33/classTerraria_1_1GameContent_1_1UI_1_1Elements_1_1UIWorkshopPublishResourcePackListItem_a7162caf4c13c16483bf420071dac261d.html#a7162caf4c13c16483bf420071dac261d" target="_top" xlink:title=" ">
<polygon fill="white" stroke="#666666" points="997,-45.5 793,-45.5 793,-4.5 997,-4.5 997,-45.5"/>
<text text-anchor="start" x="801" y="-33.5" font-family="Helvetica,sans-Serif" font-size="10.00">Terraria.GameContent.UI.</text>
<text text-anchor="start" x="801" y="-22.5" font-family="Helvetica,sans-Serif" font-size="10.00">Elements.UIWorkshopPublishResource</text>
<text text-anchor="middle" x="895" y="-11.5" font-family="Helvetica,sans-Serif" font-size="10.00">PackListItem.RejectionMenuExitAction</text>
</a>
</g>
</g>
<!-- Node10&#45;&gt;Node13 -->
<g id="edge13_Node000010_Node000013" class="edge">
<title>Node10&#45;&gt;Node13</title>
<g id="a_edge13_Node000010_Node000013"><a xlink:title=" ">
<path fill="none" stroke="#63b8ff" d="M739.65,-53.43C753.98,-50.79 768.64,-48.09 782.95,-45.46"/>
<polygon fill="#63b8ff" stroke="#63b8ff" points="783.6,-48.9 792.8,-43.64 782.33,-42.01 783.6,-48.9"/>
</a>
</g>
</g>
<!-- Node12&#45;&gt;Node12 -->
<g id="edge12_Node000012_Node000012" class="edge">
<title>Node12&#45;&gt;Node12</title>
<g id="a_edge12_Node000012_Node000012"><a xlink:title=" ">
<path fill="none" stroke="#63b8ff" d="M1071.88,-64.28C1063.52,-73.41 1076.06,-82 1109.5,-82 1129.35,-82 1141.84,-78.97 1146.96,-74.6"/>
<polygon fill="#63b8ff" stroke="#63b8ff" points="1150.46,-74.33 1147.12,-64.28 1143.46,-74.22 1150.46,-74.33"/>
</a>
</g>
</g>
<!-- Node13&#45;&gt;Node12 -->
<g id="edge14_Node000013_Node000012" class="edge">
<title>Node13&#45;&gt;Node12</title>
<g id="a_edge14_Node000013_Node000012"><a xlink:title=" ">
<path fill="none" stroke="#63b8ff" d="M997.27,-36.44C1005.78,-37.4 1014.34,-38.37 1022.72,-39.31"/>
<polygon fill="#63b8ff" stroke="#63b8ff" points="1022.5,-42.81 1032.83,-40.45 1023.29,-35.85 1022.5,-42.81"/>
</a>
</g>
</g>
</g>
</svg>

<g id="navigator" transform="translate(0 0)" fill="#404254">
  <rect fill="#f2f5e9" fill-opacity="0.5" stroke="#606060" stroke-width=".5" x="0" y="0" width="60" height="60"/>
  <use id="zoomplus" xlink:href="#zoomPlus" x="17" y="9" onmousedown="handleZoom(evt,'in')"/>
  <use id="zoomminus" xlink:href="#zoomMin" x="42" y="9" onmousedown="handleZoom(evt,'out')"/>
  <use id="reset" xlink:href="#resetDef" x="30" y="36" onmousedown="handleReset()"/>
   <use id="arrowup" xlink:href="#arrowUp" x="0" y="0" onmousedown="handlePan(0,-1)"/>
  <use id="arrowright" xlink:href="#arrowRight" x="0" y="0" onmousedown="handlePan(1,0)"/>
  <use id="arrowdown" xlink:href="#arrowDown" x="0" y="0" onmousedown="handlePan(0,1)"/>
  <use id="arrowleft" xlink:href="#arrowLeft" x="0" y="0" onmousedown="handlePan(-1,0)"/>
</g>
<svg viewBox="0 0 15 15" width="100%" height="30px" preserveAspectRatio="xMaxYMin meet">
 <g id="arrow_out" transform="scale(0.3 0.3)">
  <a xlink:href="classTerraria_1_1GameContent_1_1UI_1_1Elements_1_1UIWorkshopPublishResourcePackListItem_aad3d7324894dc78ed479a521b02e60c0_aad3d7324894dc78ed479a521b02e60c0_cgraph_org.svg" target="_base">
   <rect id="button" ry="5" rx="5" y="6" x="6" height="38" width="38"
        fill="#f2f5e9" fill-opacity="0.5" stroke="#606060" stroke-width="1.0"/>
   <path id="arrow"
     d="M 11.500037,31.436501 C 11.940474,20.09759 22.043105,11.32322 32.158766,21.979434 L 37.068811,17.246167 C 37.068811,17.246167 37.088388,32 37.088388,32 L 22.160133,31.978069 C 22.160133,31.978069 26.997745,27.140456 26.997745,27.140456 C 18.528582,18.264221 13.291696,25.230495 11.500037,31.436501 z"
     style="fill:#404040;"/>
  </a>
 </g>
</svg>

<style type='text/css'>
<![CDATA[
[data-mouse-over-selected='false'] { opacity: 0.7; }
[data-mouse-over-selected='true']  { opacity: 1.0; }
]]>
</style>
<script type="application/ecmascript"><![CDATA[
document.addEventListener('DOMContentLoaded', (event) => {
  highlightEdges();
  highlightAdjacentNodes();
});
]]></script>
</svg>
