<?xml version="1.0" encoding="UTF-8" standalone="no"?>
<!DOCTYPE svg PUBLIC "-//W3C//DTD SVG 1.1//EN"
 "http://www.w3.org/Graphics/SVG/1.1/DTD/svg11.dtd">
<!-- Generated by graphviz version 2.43.0 (0)
 -->
<!-- Title: Terraria.GameContent.Bestiary.NPCWasNearPlayerTracker.ScanWorldForFinds Pages: 1 -->
<svg width="691pt" height="86pt"
 viewBox="0.00 0.00 691.00 86.00" xmlns="http://www.w3.org/2000/svg" xmlns:xlink="http://www.w3.org/1999/xlink">
<g id="graph0" class="graph" transform="scale(1 1) rotate(0) translate(4 82)">
<title>Terraria.GameContent.Bestiary.NPCWasNearPlayerTracker.ScanWorldForFinds</title>
<!-- Node1 -->
<g id="Node000001" class="node">
<title>Node1</title>
<g id="a_Node000001"><a xlink:title=" ">
<polygon fill="#999999" stroke="#666666" points="199,-59.5 0,-59.5 0,-18.5 199,-18.5 199,-59.5"/>
<text text-anchor="start" x="8" y="-47.5" font-family="Helvetica,sans-Serif" font-size="10.00">Terraria.GameContent.Bestiary.</text>
<text text-anchor="start" x="8" y="-36.5" font-family="Helvetica,sans-Serif" font-size="10.00">NPCWasNearPlayerTracker.ScanWorld</text>
<text text-anchor="middle" x="99.5" y="-25.5" font-family="Helvetica,sans-Serif" font-size="10.00">ForFinds</text>
</a>
</g>
</g>
<!-- Node2 -->
<g id="Node000002" class="node">
<title>Node2</title>
<g id="a_Node000002"><a xlink:href="../../db/d9a/classTerraria_1_1GameContent_1_1Bestiary_1_1NPCWasNearPlayerTracker_ab50536bf4ba7a8e4fb82d067a380f5a5.html#ab50536bf4ba7a8e4fb82d067a380f5a5" target="_top" xlink:title=" ">
<polygon fill="white" stroke="#666666" points="423,-59.5 235,-59.5 235,-18.5 423,-18.5 423,-59.5"/>
<text text-anchor="start" x="243" y="-47.5" font-family="Helvetica,sans-Serif" font-size="10.00">Terraria.GameContent.Bestiary.</text>
<text text-anchor="start" x="243" y="-36.5" font-family="Helvetica,sans-Serif" font-size="10.00">NPCWasNearPlayerTracker.Register</text>
<text text-anchor="middle" x="329" y="-25.5" font-family="Helvetica,sans-Serif" font-size="10.00">WasNearby</text>
</a>
</g>
</g>
<!-- Node1&#45;&gt;Node2 -->
<g id="edge1_Node000001_Node000002" class="edge">
<title>Node1&#45;&gt;Node2</title>
<g id="a_edge1_Node000001_Node000002"><a xlink:title=" ">
<path fill="none" stroke="#63b8ff" d="M199.29,-39C207.65,-39 216.11,-39 224.5,-39"/>
<polygon fill="#63b8ff" stroke="#63b8ff" points="224.68,-42.5 234.68,-39 224.68,-35.5 224.68,-42.5"/>
</a>
</g>
</g>
<!-- Node3 -->
<g id="Node000003" class="node">
<title>Node3</title>
<g id="a_Node000003"><a xlink:href="../../df/d0d/classTerraria_1_1NPC_a9ee507ffca6ec720cd5e0eb7ed24eae5.html#a9ee507ffca6ec720cd5e0eb7ed24eae5" target="_top" xlink:title=" ">
<polygon fill="white" stroke="#666666" points="639.5,-78 502.5,-78 502.5,-48 639.5,-48 639.5,-78"/>
<text text-anchor="start" x="510.5" y="-66" font-family="Helvetica,sans-Serif" font-size="10.00">Terraria.NPC.GetBestiary</text>
<text text-anchor="middle" x="571" y="-55" font-family="Helvetica,sans-Serif" font-size="10.00">CreditId</text>
</a>
</g>
</g>
<!-- Node2&#45;&gt;Node3 -->
<g id="edge2_Node000002_Node000003" class="edge">
<title>Node2&#45;&gt;Node3</title>
<g id="a_edge2_Node000002_Node000003"><a xlink:title=" ">
<path fill="none" stroke="#63b8ff" d="M423.13,-48.31C445.99,-50.6 470.21,-53.02 492.25,-55.23"/>
<polygon fill="#63b8ff" stroke="#63b8ff" points="491.91,-58.71 502.21,-56.22 492.61,-51.74 491.91,-58.71"/>
</a>
</g>
</g>
<!-- Node4 -->
<g id="Node000004" class="node">
<title>Node4</title>
<g id="a_Node000004"><a xlink:href="../../d9/df8/classTerraria_1_1GameContent_1_1NetModules_1_1NetBestiaryModule_a8d7110ab9fec430b38cf5a48acf2f10d.html#a8d7110ab9fec430b38cf5a48acf2f10d" target="_top" xlink:title=" ">
<polygon fill="white" stroke="#666666" points="683,-30 459,-30 459,0 683,0 683,-30"/>
<text text-anchor="start" x="467" y="-18" font-family="Helvetica,sans-Serif" font-size="10.00">Terraria.GameContent.Net</text>
<text text-anchor="middle" x="571" y="-7" font-family="Helvetica,sans-Serif" font-size="10.00">Modules.NetBestiaryModule.SerializeSight</text>
</a>
</g>
</g>
<!-- Node2&#45;&gt;Node4 -->
<g id="edge3_Node000002_Node000004" class="edge">
<title>Node2&#45;&gt;Node4</title>
<g id="a_edge3_Node000002_Node000004"><a xlink:title=" ">
<path fill="none" stroke="#63b8ff" d="M423.13,-29.69C431.56,-28.84 440.18,-27.98 448.8,-27.12"/>
<polygon fill="#63b8ff" stroke="#63b8ff" points="449.31,-30.59 458.92,-26.11 448.62,-23.62 449.31,-30.59"/>
</a>
</g>
</g>
</g>
</svg>
