<?xml version="1.0" encoding="UTF-8" standalone="no"?>
<!DOCTYPE svg PUBLIC "-//W3C//DTD SVG 1.1//EN"
 "http://www.w3.org/Graphics/SVG/1.1/DTD/svg11.dtd">
<!-- Generated by graphviz version 2.43.0 (0)
 -->
<!-- Title: Terraria.GameContent.Drawing.TileDrawing.IsAlchemyPlantHarvestable Pages: 1 -->
<svg width="2533pt" height="494pt"
 viewBox="0.00 0.00 2533.00 493.64" xmlns="http://www.w3.org/2000/svg" xmlns:xlink="http://www.w3.org/1999/xlink">
<g id="graph0" class="graph" transform="scale(1 1) rotate(0) translate(4 489.64)">
<title>Terraria.GameContent.Drawing.TileDrawing.IsAlchemyPlantHarvestable</title>
<!-- Node1 -->
<g id="Node000001" class="node">
<title>Node1</title>
<g id="a_Node000001"><a xlink:title=" ">
<polygon fill="#999999" stroke="#666666" points="2525,-342.26 2312,-342.26 2312,-312.26 2525,-312.26 2525,-342.26"/>
<text text-anchor="start" x="2320" y="-330.26" font-family="Helvetica,sans-Serif" font-size="10.00">Terraria.GameContent.Drawing.</text>
<text text-anchor="middle" x="2418.5" y="-319.26" font-family="Helvetica,sans-Serif" font-size="10.00">TileDrawing.IsAlchemyPlantHarvestable</text>
</a>
</g>
</g>
<!-- Node2 -->
<g id="Node000002" class="node">
<title>Node2</title>
<g id="a_Node000002"><a xlink:href="../../d6/d7b/classTerraria_1_1GameContent_1_1Drawing_1_1TileDrawing_a3cf1c4c1a904b101328281d1b530fd48.html#a3cf1c4c1a904b101328281d1b530fd48" target="_top" xlink:title=" ">
<polygon fill="white" stroke="#666666" points="2022.5,-450.26 1819.5,-450.26 1819.5,-420.26 2022.5,-420.26 2022.5,-450.26"/>
<text text-anchor="start" x="1827.5" y="-438.26" font-family="Helvetica,sans-Serif" font-size="10.00">Terraria.GameContent.Drawing.</text>
<text text-anchor="middle" x="1921" y="-427.26" font-family="Helvetica,sans-Serif" font-size="10.00">TileDrawing.DrawAnyDirectionalGrass</text>
</a>
</g>
</g>
<!-- Node1&#45;&gt;Node2 -->
<g id="edge1_Node000001_Node000002" class="edge">
<title>Node1&#45;&gt;Node2</title>
<g id="a_edge1_Node000001_Node000002"><a xlink:title=" ">
<path fill="none" stroke="#63b8ff" d="M2392.16,-348.88C2365.3,-370.36 2320.68,-402.07 2276,-416.26 2193.58,-442.44 2095,-445.6 2022.83,-443.13"/>
<polygon fill="#63b8ff" stroke="#63b8ff" points="2394.69,-351.33 2400.23,-342.3 2390.27,-345.91 2394.69,-351.33"/>
</a>
</g>
</g>
<!-- Node14 -->
<g id="Node000014" class="node">
<title>Node14</title>
<g id="a_Node000014"><a xlink:href="../../d6/d7b/classTerraria_1_1GameContent_1_1Drawing_1_1TileDrawing_acd80a8db892108f97c6a36d90a822373.html#acd80a8db892108f97c6a36d90a822373" target="_top" xlink:title=" ">
<polygon fill="white" stroke="#666666" points="2006,-402.26 1836,-402.26 1836,-372.26 2006,-372.26 2006,-402.26"/>
<text text-anchor="start" x="1844" y="-390.26" font-family="Helvetica,sans-Serif" font-size="10.00">Terraria.GameContent.Drawing.</text>
<text text-anchor="middle" x="1921" y="-379.26" font-family="Helvetica,sans-Serif" font-size="10.00">TileDrawing.DrawGrass</text>
</a>
</g>
</g>
<!-- Node1&#45;&gt;Node14 -->
<g id="edge16_Node000001_Node000014" class="edge">
<title>Node1&#45;&gt;Node14</title>
<g id="a_edge16_Node000001_Node000014"><a xlink:title=" ">
<path fill="none" stroke="#63b8ff" d="M2301.61,-339.95C2231.84,-347.75 2141.27,-358.16 2061,-368.26 2043.24,-370.49 2024.22,-373.01 2006.12,-375.47"/>
<polygon fill="#63b8ff" stroke="#63b8ff" points="2302.19,-343.41 2311.74,-338.82 2301.42,-336.45 2302.19,-343.41"/>
</a>
</g>
</g>
<!-- Node15 -->
<g id="Node000015" class="node">
<title>Node15</title>
<g id="a_Node000015"><a xlink:href="../../d6/d7b/classTerraria_1_1GameContent_1_1Drawing_1_1TileDrawing_ac23787be47cafd758dcf0d43424e24a7.html#ac23787be47cafd758dcf0d43424e24a7" target="_top" xlink:title=" ">
<polygon fill="white" stroke="#666666" points="2266.5,-407.26 2070.5,-407.26 2070.5,-377.26 2266.5,-377.26 2266.5,-407.26"/>
<text text-anchor="start" x="2078.5" y="-395.26" font-family="Helvetica,sans-Serif" font-size="10.00">Terraria.GameContent.Drawing.</text>
<text text-anchor="middle" x="2168.5" y="-384.26" font-family="Helvetica,sans-Serif" font-size="10.00">TileDrawing.DrawTiles_EmitParticles</text>
</a>
</g>
</g>
<!-- Node1&#45;&gt;Node15 -->
<g id="edge18_Node000001_Node000015" class="edge">
<title>Node1&#45;&gt;Node15</title>
<g id="a_edge18_Node000001_Node000015"><a xlink:title=" ">
<path fill="none" stroke="#63b8ff" d="M2349.91,-344.97C2311.46,-355.05 2263.81,-367.54 2227.14,-377.15"/>
<polygon fill="#63b8ff" stroke="#63b8ff" points="2351.19,-348.26 2359.98,-342.33 2349.42,-341.48 2351.19,-348.26"/>
</a>
</g>
</g>
<!-- Node25 -->
<g id="Node000025" class="node">
<title>Node25</title>
<g id="a_Node000025"><a xlink:href="../../d6/d7b/classTerraria_1_1GameContent_1_1Drawing_1_1TileDrawing_a3651894931c3dbc6acf91e6baec4d897.html#a3651894931c3dbc6acf91e6baec4d897" target="_top" xlink:title=" ">
<polygon fill="white" stroke="#666666" points="2276,-321.26 2061,-321.26 2061,-291.26 2276,-291.26 2276,-321.26"/>
<text text-anchor="start" x="2069" y="-309.26" font-family="Helvetica,sans-Serif" font-size="10.00">Terraria.GameContent.Drawing.</text>
<text text-anchor="middle" x="2168.5" y="-298.26" font-family="Helvetica,sans-Serif" font-size="10.00">TileDrawing.DrawTiles_GetLightOverride</text>
</a>
</g>
</g>
<!-- Node1&#45;&gt;Node25 -->
<g id="edge39_Node000001_Node000025" class="edge">
<title>Node1&#45;&gt;Node25</title>
<g id="a_edge39_Node000001_Node000025"><a xlink:title=" ">
<path fill="none" stroke="#63b8ff" d="M2301.91,-317.47C2293.31,-316.74 2284.66,-316.01 2276.13,-315.29"/>
<polygon fill="#63b8ff" stroke="#63b8ff" points="2301.71,-320.97 2311.97,-318.32 2302.3,-313.99 2301.71,-320.97"/>
</a>
</g>
</g>
<!-- Node26 -->
<g id="Node000026" class="node">
<title>Node26</title>
<g id="a_Node000026"><a xlink:href="../../d6/d7b/classTerraria_1_1GameContent_1_1Drawing_1_1TileDrawing_abc925c07c1e009837510c154218e14b3.html#abc925c07c1e009837510c154218e14b3" target="_top" xlink:title=" ">
<polygon fill="white" stroke="#666666" points="2256,-273.26 2081,-273.26 2081,-243.26 2256,-243.26 2256,-273.26"/>
<text text-anchor="start" x="2089" y="-261.26" font-family="Helvetica,sans-Serif" font-size="10.00">Terraria.GameContent.Drawing.</text>
<text text-anchor="middle" x="2168.5" y="-250.26" font-family="Helvetica,sans-Serif" font-size="10.00">TileDrawing.GetTileDrawTexture</text>
</a>
</g>
</g>
<!-- Node1&#45;&gt;Node26 -->
<g id="edge45_Node000001_Node000026" class="edge">
<title>Node1&#45;&gt;Node26</title>
<g id="a_edge45_Node000001_Node000026"><a xlink:title=" ">
<path fill="none" stroke="#63b8ff" d="M2363.73,-308.95C2337.44,-300.31 2305.23,-290.18 2276,-282.26 2264.48,-279.13 2252.17,-276.09 2240.17,-273.29"/>
<polygon fill="#63b8ff" stroke="#63b8ff" points="2362.9,-312.37 2373.5,-312.19 2365.1,-305.72 2362.9,-312.37"/>
</a>
</g>
</g>
<!-- Node33 -->
<g id="Node000033" class="node">
<title>Node33</title>
<g id="a_Node000033"><a xlink:href="../../d6/d7b/classTerraria_1_1GameContent_1_1Drawing_1_1TileDrawing_a0ccf4a556a79af4fdc6ed1869c54cd0d.html#a0ccf4a556a79af4fdc6ed1869c54cd0d" target="_top" xlink:title=" ">
<polygon fill="white" stroke="#666666" points="2256,-225.26 2081,-225.26 2081,-195.26 2256,-195.26 2256,-225.26"/>
<text text-anchor="start" x="2089" y="-213.26" font-family="Helvetica,sans-Serif" font-size="10.00">Terraria.GameContent.Drawing.</text>
<text text-anchor="middle" x="2168.5" y="-202.26" font-family="Helvetica,sans-Serif" font-size="10.00">TileDrawing.GetTileDrawTexture</text>
</a>
</g>
</g>
<!-- Node1&#45;&gt;Node33 -->
<g id="edge61_Node000001_Node000033" class="edge">
<title>Node1&#45;&gt;Node33</title>
<g id="a_edge61_Node000001_Node000033"><a xlink:title=" ">
<path fill="none" stroke="#63b8ff" d="M2391.2,-305.75C2363.97,-284.54 2319.4,-252.69 2276,-234.26 2267.98,-230.85 2259.4,-227.89 2250.72,-225.33"/>
<polygon fill="#63b8ff" stroke="#63b8ff" points="2389.06,-308.52 2399.07,-311.97 2393.39,-303.02 2389.06,-308.52"/>
</a>
</g>
</g>
<!-- Node3 -->
<g id="Node000003" class="node">
<title>Node3</title>
<g id="a_Node000003"><a xlink:href="../../d6/d7b/classTerraria_1_1GameContent_1_1Drawing_1_1TileDrawing_a195bc3275a5fbd6fe52452a5a2251e49.html#a195bc3275a5fbd6fe52452a5a2251e49" target="_top" xlink:title=" ">
<polygon fill="white" stroke="#666666" points="1159,-267.26 989,-267.26 989,-237.26 1159,-237.26 1159,-267.26"/>
<text text-anchor="start" x="997" y="-255.26" font-family="Helvetica,sans-Serif" font-size="10.00">Terraria.GameContent.Drawing.</text>
<text text-anchor="middle" x="1074" y="-244.26" font-family="Helvetica,sans-Serif" font-size="10.00">TileDrawing.PostDrawTiles</text>
</a>
</g>
</g>
<!-- Node2&#45;&gt;Node3 -->
<g id="edge2_Node000002_Node000003" class="edge">
<title>Node2&#45;&gt;Node3</title>
<g id="a_edge2_Node000002_Node000003"><a xlink:title=" ">
<path fill="none" stroke="#63b8ff" d="M1809.45,-449.02C1660.95,-462.3 1392.87,-467.62 1195,-366.26 1147.17,-341.76 1105.19,-292.22 1086.03,-267.3"/>
<polygon fill="#63b8ff" stroke="#63b8ff" points="1809.86,-452.5 1819.5,-448.09 1809.22,-445.52 1809.86,-452.5"/>
</a>
</g>
</g>
<!-- Node4 -->
<g id="Node000004" class="node">
<title>Node4</title>
<g id="a_Node000004"><a xlink:href="../../da/dd5/classTerraria_1_1Main_ad4ae75332050e0d79634071470f5a909.html#ad4ae75332050e0d79634071470f5a909" target="_top" xlink:title=" ">
<polygon fill="white" stroke="#666666" points="953,-225.76 789,-225.76 789,-206.76 953,-206.76 953,-225.76"/>
<text text-anchor="middle" x="871" y="-213.76" font-family="Helvetica,sans-Serif" font-size="10.00">Terraria.Main.DrawTileEntities</text>
</a>
</g>
</g>
<!-- Node3&#45;&gt;Node4 -->
<g id="edge3_Node000003_Node000004" class="edge">
<title>Node3&#45;&gt;Node4</title>
<g id="a_edge3_Node000003_Node000004"><a xlink:title=" ">
<path fill="none" stroke="#63b8ff" d="M979.26,-235.47C960.71,-232.15 941.86,-228.77 925.24,-225.79"/>
<polygon fill="#63b8ff" stroke="#63b8ff" points="978.75,-238.93 989.21,-237.25 979.99,-232.04 978.75,-238.93"/>
</a>
</g>
</g>
<!-- Node5 -->
<g id="Node000005" class="node">
<title>Node5</title>
<g id="a_Node000005"><a xlink:href="../../da/dd5/classTerraria_1_1Main_a3577de5a7f25360eb93079d58db7c623.html#a3577de5a7f25360eb93079d58db7c623" target="_top" xlink:title=" ">
<polygon fill="white" stroke="#666666" points="740.5,-304.26 618.5,-304.26 618.5,-274.26 740.5,-274.26 740.5,-304.26"/>
<text text-anchor="start" x="626.5" y="-292.26" font-family="Helvetica,sans-Serif" font-size="10.00">Terraria.Main.DoDraw</text>
<text text-anchor="middle" x="679.5" y="-281.26" font-family="Helvetica,sans-Serif" font-size="10.00">_Tiles_NonSolid</text>
</a>
</g>
</g>
<!-- Node4&#45;&gt;Node5 -->
<g id="edge4_Node000004_Node000005" class="edge">
<title>Node4&#45;&gt;Node5</title>
<g id="a_edge4_Node000004_Node000005"><a xlink:title=" ">
<path fill="none" stroke="#63b8ff" d="M839.22,-229.91C815.78,-240.13 782.6,-254.18 753,-265.26 744.93,-268.28 736.28,-271.31 727.87,-274.16"/>
<polygon fill="#63b8ff" stroke="#63b8ff" points="840.88,-233.01 848.63,-225.79 838.07,-226.6 840.88,-233.01"/>
</a>
</g>
</g>
<!-- Node10 -->
<g id="Node000010" class="node">
<title>Node10</title>
<g id="a_Node000010"><a xlink:href="../../da/dd5/classTerraria_1_1Main_ae56023e484f0560aeca4eb92c99120d0.html#ae56023e484f0560aeca4eb92c99120d0" target="_top" xlink:title=" ">
<polygon fill="white" stroke="#666666" points="740.5,-256.26 618.5,-256.26 618.5,-226.26 740.5,-226.26 740.5,-256.26"/>
<text text-anchor="start" x="626.5" y="-244.26" font-family="Helvetica,sans-Serif" font-size="10.00">Terraria.Main.DoDraw</text>
<text text-anchor="middle" x="679.5" y="-233.26" font-family="Helvetica,sans-Serif" font-size="10.00">_Tiles_Solid</text>
</a>
</g>
</g>
<!-- Node4&#45;&gt;Node10 -->
<g id="edge9_Node000004_Node000010" class="edge">
<title>Node4&#45;&gt;Node10</title>
<g id="a_edge9_Node000004_Node000010"><a xlink:title=" ">
<path fill="none" stroke="#63b8ff" d="M787.56,-227.13C771.83,-229.21 755.64,-231.35 740.76,-233.31"/>
<polygon fill="#63b8ff" stroke="#63b8ff" points="788.36,-230.56 797.82,-225.78 787.45,-223.62 788.36,-230.56"/>
</a>
</g>
</g>
<!-- Node11 -->
<g id="Node000011" class="node">
<title>Node11</title>
<g id="a_Node000011"><a xlink:href="../../da/dd5/classTerraria_1_1Main_ab13ebe846afd6d4cd47586ef70091e91.html#ab13ebe846afd6d4cd47586ef70091e91" target="_top" xlink:title=" ">
<polygon fill="white" stroke="#666666" points="753,-170.76 606,-170.76 606,-151.76 753,-151.76 753,-170.76"/>
<text text-anchor="middle" x="679.5" y="-158.76" font-family="Helvetica,sans-Serif" font-size="10.00">Terraria.Main.DrawCapture</text>
</a>
</g>
</g>
<!-- Node4&#45;&gt;Node11 -->
<g id="edge11_Node000004_Node000011" class="edge">
<title>Node4&#45;&gt;Node11</title>
<g id="a_edge11_Node000004_Node000011"><a xlink:title=" ">
<path fill="none" stroke="#63b8ff" d="M807.92,-204.11C801.47,-202.36 795.06,-200.41 789,-198.26 772.14,-192.27 769.74,-186.56 753,-180.26 743.5,-176.68 733.06,-173.52 723.13,-170.86"/>
<polygon fill="#63b8ff" stroke="#63b8ff" points="807.49,-207.61 818.04,-206.7 809.22,-200.83 807.49,-207.61"/>
</a>
</g>
</g>
<!-- Node12 -->
<g id="Node000012" class="node">
<title>Node12</title>
<g id="a_Node000012"><a xlink:href="../../da/dd5/classTerraria_1_1Main_a28b4f7a7c174b4336af28e4ffedbee6b.html#a28b4f7a7c174b4336af28e4ffedbee6b" target="_top" xlink:title=" ">
<polygon fill="white" stroke="#666666" points="750,-207.76 609,-207.76 609,-188.76 750,-188.76 750,-207.76"/>
<text text-anchor="middle" x="679.5" y="-195.76" font-family="Helvetica,sans-Serif" font-size="10.00">Terraria.Main.RenderTiles</text>
</a>
</g>
</g>
<!-- Node4&#45;&gt;Node12 -->
<g id="edge12_Node000004_Node000012" class="edge">
<title>Node4&#45;&gt;Node12</title>
<g id="a_edge12_Node000004_Node000012"><a xlink:title=" ">
<path fill="none" stroke="#63b8ff" d="M778.81,-207.6C769.19,-206.68 759.51,-205.76 750.19,-204.88"/>
<polygon fill="#63b8ff" stroke="#63b8ff" points="778.52,-211.09 788.81,-208.55 779.19,-204.12 778.52,-211.09"/>
</a>
</g>
</g>
<!-- Node13 -->
<g id="Node000013" class="node">
<title>Node13</title>
<g id="a_Node000013"><a xlink:href="../../da/dd5/classTerraria_1_1Main_a695c9d156c03ebb6ba6accba1be2002c.html#a695c9d156c03ebb6ba6accba1be2002c" target="_top" xlink:title=" ">
<polygon fill="white" stroke="#666666" points="753,-133.76 606,-133.76 606,-114.76 753,-114.76 753,-133.76"/>
<text text-anchor="middle" x="679.5" y="-121.76" font-family="Helvetica,sans-Serif" font-size="10.00">Terraria.Main.RenderTiles2</text>
</a>
</g>
</g>
<!-- Node4&#45;&gt;Node13 -->
<g id="edge14_Node000004_Node000013" class="edge">
<title>Node4&#45;&gt;Node13</title>
<g id="a_edge14_Node000004_Node000013"><a xlink:title=" ">
<path fill="none" stroke="#63b8ff" d="M795.65,-202.32C793.35,-201.08 791.13,-199.73 789,-198.26 764.97,-181.64 776.71,-160.32 753,-143.26 747.61,-139.38 741.5,-136.3 735.15,-133.84"/>
<polygon fill="#63b8ff" stroke="#63b8ff" points="794.3,-205.56 804.85,-206.6 797.26,-199.21 794.3,-205.56"/>
</a>
</g>
</g>
<!-- Node6 -->
<g id="Node000006" class="node">
<title>Node6</title>
<g id="a_Node000006"><a xlink:href="../../da/dd5/classTerraria_1_1Main_a2d44005190710445b2d2cae37fc514bf.html#a2d44005190710445b2d2cae37fc514bf" target="_top" xlink:title=" ">
<polygon fill="white" stroke="#666666" points="570,-256.26 448,-256.26 448,-226.26 570,-226.26 570,-256.26"/>
<text text-anchor="start" x="456" y="-244.26" font-family="Helvetica,sans-Serif" font-size="10.00">Terraria.Main.DoDraw</text>
<text text-anchor="middle" x="509" y="-233.26" font-family="Helvetica,sans-Serif" font-size="10.00">_WallsTilesNPCs</text>
</a>
</g>
</g>
<!-- Node5&#45;&gt;Node6 -->
<g id="edge5_Node000005_Node000006" class="edge">
<title>Node5&#45;&gt;Node6</title>
<g id="a_edge5_Node000005_Node000006"><a xlink:title=" ">
<path fill="none" stroke="#63b8ff" d="M615.57,-271.33C598.15,-266.37 579.43,-261.04 562.66,-256.26"/>
<polygon fill="#63b8ff" stroke="#63b8ff" points="615.07,-274.83 625.65,-274.2 616.99,-268.1 615.07,-274.83"/>
</a>
</g>
</g>
<!-- Node7 -->
<g id="Node000007" class="node">
<title>Node7</title>
<g id="a_Node000007"><a xlink:href="../../da/dd5/classTerraria_1_1Main_a474beeecaea4d6dd108fba56cd554d46.html#a474beeecaea4d6dd108fba56cd554d46" target="_top" xlink:title=" ">
<polygon fill="white" stroke="#666666" points="412,-207.76 290,-207.76 290,-188.76 412,-188.76 412,-207.76"/>
<text text-anchor="middle" x="351" y="-195.76" font-family="Helvetica,sans-Serif" font-size="10.00">Terraria.Main.DoDraw</text>
</a>
</g>
</g>
<!-- Node6&#45;&gt;Node7 -->
<g id="edge6_Node000006_Node000007" class="edge">
<title>Node6&#45;&gt;Node7</title>
<g id="a_edge6_Node000006_Node000007"><a xlink:title=" ">
<path fill="none" stroke="#63b8ff" d="M443.69,-223.53C424.21,-218.16 403.55,-212.47 386.78,-207.85"/>
<polygon fill="#63b8ff" stroke="#63b8ff" points="442.87,-226.94 453.44,-226.22 444.73,-220.19 442.87,-226.94"/>
</a>
</g>
</g>
<!-- Node8 -->
<g id="Node000008" class="node">
<title>Node8</title>
<g id="a_Node000008"><a xlink:href="../../da/dd5/classTerraria_1_1Main_aa597dbafa085227bb056d05d0b0f9abe.html#aa597dbafa085227bb056d05d0b0f9abe" target="_top" xlink:title=" ">
<polygon fill="white" stroke="#666666" points="254,-213.26 145,-213.26 145,-183.26 254,-183.26 254,-213.26"/>
<text text-anchor="start" x="153" y="-201.26" font-family="Helvetica,sans-Serif" font-size="10.00">Terraria.Main.Draw</text>
<text text-anchor="middle" x="199.5" y="-190.26" font-family="Helvetica,sans-Serif" font-size="10.00">_Inner</text>
</a>
</g>
</g>
<!-- Node7&#45;&gt;Node8 -->
<g id="edge7_Node000007_Node000008" class="edge">
<title>Node7&#45;&gt;Node8</title>
<g id="a_edge7_Node000007_Node000008"><a xlink:title=" ">
<path fill="none" stroke="#63b8ff" d="M279.41,-198.26C270.99,-198.26 262.49,-198.26 254.35,-198.26"/>
<polygon fill="#63b8ff" stroke="#63b8ff" points="279.62,-201.76 289.62,-198.26 279.62,-194.76 279.62,-201.76"/>
</a>
</g>
</g>
<!-- Node9 -->
<g id="Node000009" class="node">
<title>Node9</title>
<g id="a_Node000009"><a xlink:href="../../da/dd5/classTerraria_1_1Main_a516aa31311860bad4242ade32e5effcd.html#a516aa31311860bad4242ade32e5effcd" target="_top" xlink:title=" ">
<polygon fill="white" stroke="#666666" points="109,-207.76 0,-207.76 0,-188.76 109,-188.76 109,-207.76"/>
<text text-anchor="middle" x="54.5" y="-195.76" font-family="Helvetica,sans-Serif" font-size="10.00">Terraria.Main.Draw</text>
</a>
</g>
</g>
<!-- Node8&#45;&gt;Node9 -->
<g id="edge8_Node000008_Node000009" class="edge">
<title>Node8&#45;&gt;Node9</title>
<g id="a_edge8_Node000008_Node000009"><a xlink:title=" ">
<path fill="none" stroke="#63b8ff" d="M134.68,-198.26C126.25,-198.26 117.69,-198.26 109.46,-198.26"/>
<polygon fill="#63b8ff" stroke="#63b8ff" points="134.85,-201.76 144.85,-198.26 134.85,-194.76 134.85,-201.76"/>
</a>
</g>
</g>
<!-- Node10&#45;&gt;Node6 -->
<g id="edge10_Node000010_Node000006" class="edge">
<title>Node10&#45;&gt;Node6</title>
<g id="a_edge10_Node000010_Node000006"><a xlink:title=" ">
<path fill="none" stroke="#63b8ff" d="M607.77,-241.26C595.28,-241.26 582.39,-241.26 570.22,-241.26"/>
<polygon fill="#63b8ff" stroke="#63b8ff" points="608.14,-244.76 618.14,-241.26 608.14,-237.76 608.14,-244.76"/>
</a>
</g>
</g>
<!-- Node12&#45;&gt;Node7 -->
<g id="edge13_Node000012_Node000007" class="edge">
<title>Node12&#45;&gt;Node7</title>
<g id="a_edge13_Node000012_Node000007"><a xlink:title=" ">
<path fill="none" stroke="#63b8ff" d="M598.71,-198.26C541.16,-198.26 464.68,-198.26 412.21,-198.26"/>
<polygon fill="#63b8ff" stroke="#63b8ff" points="598.86,-201.76 608.86,-198.26 598.86,-194.76 598.86,-201.76"/>
</a>
</g>
</g>
<!-- Node13&#45;&gt;Node7 -->
<g id="edge15_Node000013_Node000007" class="edge">
<title>Node13&#45;&gt;Node7</title>
<g id="a_edge15_Node000013_Node000007"><a xlink:title=" ">
<path fill="none" stroke="#63b8ff" d="M626.54,-136.04C562.13,-150.63 453.59,-175.23 394.11,-188.71"/>
<polygon fill="#63b8ff" stroke="#63b8ff" points="627.51,-139.41 636.48,-133.78 625.96,-132.58 627.51,-139.41"/>
</a>
</g>
</g>
<!-- Node14&#45;&gt;Node3 -->
<g id="edge17_Node000014_Node000003" class="edge">
<title>Node14&#45;&gt;Node3</title>
<g id="a_edge17_Node000014_Node000003"><a xlink:title=" ">
<path fill="none" stroke="#63b8ff" d="M1825.93,-396.27C1683.99,-406.28 1408.94,-411.51 1195,-329.26 1155.72,-314.16 1115.69,-285.16 1093.23,-267.38"/>
<polygon fill="#63b8ff" stroke="#63b8ff" points="1826.2,-399.76 1835.92,-395.55 1825.69,-392.78 1826.2,-399.76"/>
</a>
</g>
</g>
<!-- Node15&#45;&gt;Node2 -->
<g id="edge19_Node000015_Node000002" class="edge">
<title>Node15&#45;&gt;Node2</title>
<g id="a_edge19_Node000015_Node000002"><a xlink:title=" ">
<path fill="none" stroke="#63b8ff" d="M2071.72,-409.04C2050.65,-412.73 2028.46,-416.61 2007.82,-420.23"/>
<polygon fill="#63b8ff" stroke="#63b8ff" points="2072.39,-412.47 2081.64,-407.3 2071.18,-405.58 2072.39,-412.47"/>
</a>
</g>
</g>
<!-- Node15&#45;&gt;Node14 -->
<g id="edge20_Node000015_Node000014" class="edge">
<title>Node15&#45;&gt;Node14</title>
<g id="a_edge20_Node000015_Node000014"><a xlink:title=" ">
<path fill="none" stroke="#63b8ff" d="M2060.41,-390.08C2042.2,-389.71 2023.53,-389.33 2006.02,-388.97"/>
<polygon fill="#63b8ff" stroke="#63b8ff" points="2060.4,-393.58 2070.47,-390.28 2060.55,-386.58 2060.4,-393.58"/>
</a>
</g>
</g>
<!-- Node16 -->
<g id="Node000016" class="node">
<title>Node16</title>
<g id="a_Node000016"><a xlink:href="../../d6/d7b/classTerraria_1_1GameContent_1_1Drawing_1_1TileDrawing_a829ca377e2da2c79dfbd5f1ae777a60a.html#a829ca377e2da2c79dfbd5f1ae777a60a" target="_top" xlink:title=" ">
<polygon fill="white" stroke="#666666" points="2025,-354.26 1817,-354.26 1817,-324.26 2025,-324.26 2025,-354.26"/>
<text text-anchor="start" x="1825" y="-342.26" font-family="Helvetica,sans-Serif" font-size="10.00">Terraria.GameContent.Drawing.</text>
<text text-anchor="middle" x="1921" y="-331.26" font-family="Helvetica,sans-Serif" font-size="10.00">TileDrawing.DrawMultiTileGrassInWind</text>
</a>
</g>
</g>
<!-- Node15&#45;&gt;Node16 -->
<g id="edge21_Node000015_Node000016" class="edge">
<title>Node15&#45;&gt;Node16</title>
<g id="a_edge21_Node000015_Node000016"><a xlink:title=" ">
<path fill="none" stroke="#63b8ff" d="M2087.92,-375.08C2056.97,-368.4 2021.82,-360.81 1991.87,-354.34"/>
<polygon fill="#63b8ff" stroke="#63b8ff" points="2087.29,-378.52 2097.81,-377.21 2088.77,-371.68 2087.29,-378.52"/>
</a>
</g>
</g>
<!-- Node18 -->
<g id="Node000018" class="node">
<title>Node18</title>
<g id="a_Node000018"><a xlink:href="../../d6/d7b/classTerraria_1_1GameContent_1_1Drawing_1_1TileDrawing_aaf47da80afe5cb1e502ff9eee39719e8.html#aaf47da80afe5cb1e502ff9eee39719e8" target="_top" xlink:title=" ">
<polygon fill="white" stroke="#666666" points="2024.5,-306.26 1817.5,-306.26 1817.5,-276.26 2024.5,-276.26 2024.5,-306.26"/>
<text text-anchor="start" x="1825.5" y="-294.26" font-family="Helvetica,sans-Serif" font-size="10.00">Terraria.GameContent.Drawing.</text>
<text text-anchor="middle" x="1921" y="-283.26" font-family="Helvetica,sans-Serif" font-size="10.00">TileDrawing.DrawMultiTileVinesInWind</text>
</a>
</g>
</g>
<!-- Node15&#45;&gt;Node18 -->
<g id="edge24_Node000015_Node000018" class="edge">
<title>Node15&#45;&gt;Node18</title>
<g id="a_edge24_Node000015_Node000018"><a xlink:title=" ">
<path fill="none" stroke="#63b8ff" d="M2135.62,-371.82C2107.48,-354.58 2064.86,-330.36 2025,-315.26 2016.16,-311.91 2006.7,-308.94 1997.24,-306.32"/>
<polygon fill="#63b8ff" stroke="#63b8ff" points="2133.88,-374.86 2144.22,-377.15 2137.57,-368.91 2133.88,-374.86"/>
</a>
</g>
</g>
<!-- Node20 -->
<g id="Node000020" class="node">
<title>Node20</title>
<g id="a_Node000020"><a xlink:href="../../d6/d7b/classTerraria_1_1GameContent_1_1Drawing_1_1TileDrawing_a65cf6d0f46d62062bb295148fa520c67.html#a65cf6d0f46d62062bb295148fa520c67" target="_top" xlink:title=" ">
<polygon fill="white" stroke="#666666" points="1781,-217.26 1611,-217.26 1611,-187.26 1781,-187.26 1781,-217.26"/>
<text text-anchor="start" x="1619" y="-205.26" font-family="Helvetica,sans-Serif" font-size="10.00">Terraria.GameContent.Drawing.</text>
<text text-anchor="middle" x="1696" y="-194.26" font-family="Helvetica,sans-Serif" font-size="10.00">TileDrawing.DrawSingleTile</text>
</a>
</g>
</g>
<!-- Node15&#45;&gt;Node20 -->
<g id="edge27_Node000015_Node000020" class="edge">
<title>Node15&#45;&gt;Node20</title>
<g id="a_edge27_Node000015_Node000020"><a xlink:title=" ">
<path fill="none" stroke="#63b8ff" d="M2135.44,-412.44C2070.15,-450.71 1919.32,-524.41 1817,-459.26 1728.94,-403.19 1704.43,-263.74 1698.61,-217.46"/>
<polygon fill="#63b8ff" stroke="#63b8ff" points="2137.27,-415.43 2144.07,-407.3 2133.68,-409.41 2137.27,-415.43"/>
</a>
</g>
</g>
<!-- Node17 -->
<g id="Node000017" class="node">
<title>Node17</title>
<g id="a_Node000017"><a xlink:href="../../d6/d7b/classTerraria_1_1GameContent_1_1Drawing_1_1TileDrawing_ac14795e6ed4a063177c055d9ad59b872.html#ac14795e6ed4a063177c055d9ad59b872" target="_top" xlink:title=" ">
<polygon fill="white" stroke="#666666" points="1575,-354.26 1401,-354.26 1401,-324.26 1575,-324.26 1575,-354.26"/>
<text text-anchor="start" x="1409" y="-342.26" font-family="Helvetica,sans-Serif" font-size="10.00">Terraria.GameContent.Drawing.</text>
<text text-anchor="middle" x="1488" y="-331.26" font-family="Helvetica,sans-Serif" font-size="10.00">TileDrawing.DrawMultiTileGrass</text>
</a>
</g>
</g>
<!-- Node16&#45;&gt;Node17 -->
<g id="edge22_Node000016_Node000017" class="edge">
<title>Node16&#45;&gt;Node17</title>
<g id="a_edge22_Node000016_Node000017"><a xlink:title=" ">
<path fill="none" stroke="#63b8ff" d="M1806.67,-339.26C1734.16,-339.26 1641.56,-339.26 1575.07,-339.26"/>
<polygon fill="#63b8ff" stroke="#63b8ff" points="1806.76,-342.76 1816.76,-339.26 1806.76,-335.76 1806.76,-342.76"/>
</a>
</g>
</g>
<!-- Node17&#45;&gt;Node3 -->
<g id="edge23_Node000017_Node000003" class="edge">
<title>Node17&#45;&gt;Node3</title>
<g id="a_edge23_Node000017_Node000003"><a xlink:title=" ">
<path fill="none" stroke="#63b8ff" d="M1390.73,-333.02C1333.22,-327.74 1259.11,-318.21 1195,-301.26 1163.67,-292.97 1129.62,-278.51 1105.82,-267.43"/>
<polygon fill="#63b8ff" stroke="#63b8ff" points="1390.64,-336.52 1400.91,-333.92 1391.26,-329.55 1390.64,-336.52"/>
</a>
</g>
</g>
<!-- Node19 -->
<g id="Node000019" class="node">
<title>Node19</title>
<g id="a_Node000019"><a xlink:href="../../d6/d7b/classTerraria_1_1GameContent_1_1Drawing_1_1TileDrawing_a76fee1d42bee82f9158d669614df46f5.html#a76fee1d42bee82f9158d669614df46f5" target="_top" xlink:title=" ">
<polygon fill="white" stroke="#666666" points="1574.5,-306.26 1401.5,-306.26 1401.5,-276.26 1574.5,-276.26 1574.5,-306.26"/>
<text text-anchor="start" x="1409.5" y="-294.26" font-family="Helvetica,sans-Serif" font-size="10.00">Terraria.GameContent.Drawing.</text>
<text text-anchor="middle" x="1488" y="-283.26" font-family="Helvetica,sans-Serif" font-size="10.00">TileDrawing.DrawMultiTileVines</text>
</a>
</g>
</g>
<!-- Node18&#45;&gt;Node19 -->
<g id="edge25_Node000018_Node000019" class="edge">
<title>Node18&#45;&gt;Node19</title>
<g id="a_edge25_Node000018_Node000019"><a xlink:title=" ">
<path fill="none" stroke="#63b8ff" d="M1807.18,-291.26C1734.42,-291.26 1641.26,-291.26 1574.59,-291.26"/>
<polygon fill="#63b8ff" stroke="#63b8ff" points="1807.31,-294.76 1817.31,-291.26 1807.31,-287.76 1807.31,-294.76"/>
</a>
</g>
</g>
<!-- Node19&#45;&gt;Node3 -->
<g id="edge26_Node000019_Node000003" class="edge">
<title>Node19&#45;&gt;Node3</title>
<g id="a_edge26_Node000019_Node000003"><a xlink:title=" ">
<path fill="none" stroke="#63b8ff" d="M1391.19,-293.45C1333.99,-293.48 1260.04,-291.29 1195,-282.26 1171.71,-279.03 1146.39,-273.07 1125.03,-267.31"/>
<polygon fill="#63b8ff" stroke="#63b8ff" points="1391.32,-296.95 1401.31,-293.42 1391.3,-289.95 1391.32,-296.95"/>
</a>
</g>
</g>
<!-- Node21 -->
<g id="Node000021" class="node">
<title>Node21</title>
<g id="a_Node000021"><a xlink:href="../../d6/d7b/classTerraria_1_1GameContent_1_1Drawing_1_1TileDrawing_a171f1036f347bbe9e7b7c0fbe5acc795.html#a171f1036f347bbe9e7b7c0fbe5acc795" target="_top" xlink:title=" ">
<polygon fill="white" stroke="#666666" points="1573,-211.26 1403,-211.26 1403,-181.26 1573,-181.26 1573,-211.26"/>
<text text-anchor="start" x="1411" y="-199.26" font-family="Helvetica,sans-Serif" font-size="10.00">Terraria.GameContent.Drawing.</text>
<text text-anchor="middle" x="1488" y="-188.26" font-family="Helvetica,sans-Serif" font-size="10.00">TileDrawing.Draw</text>
</a>
</g>
</g>
<!-- Node20&#45;&gt;Node21 -->
<g id="edge28_Node000020_Node000021" class="edge">
<title>Node20&#45;&gt;Node21</title>
<g id="a_edge28_Node000020_Node000021"><a xlink:title=" ">
<path fill="none" stroke="#63b8ff" d="M1600.92,-199.52C1591.66,-199.25 1582.3,-198.98 1573.15,-198.71"/>
<polygon fill="#63b8ff" stroke="#63b8ff" points="1600.82,-203.02 1610.91,-199.81 1601.02,-196.02 1600.82,-203.02"/>
</a>
</g>
</g>
<!-- Node22 -->
<g id="Node000022" class="node">
<title>Node22</title>
<g id="a_Node000022"><a xlink:href="../../d6/d7b/classTerraria_1_1GameContent_1_1Drawing_1_1TileDrawing_a2a4452e2ee76da220b7f77a3904e9043.html#a2a4452e2ee76da220b7f77a3904e9043" target="_top" xlink:title=" ">
<polygon fill="white" stroke="#666666" points="1365,-213.76 1195,-213.76 1195,-172.76 1365,-172.76 1365,-213.76"/>
<text text-anchor="start" x="1203" y="-201.76" font-family="Helvetica,sans-Serif" font-size="10.00">Terraria.GameContent.Drawing.</text>
<text text-anchor="start" x="1203" y="-190.76" font-family="Helvetica,sans-Serif" font-size="10.00">TileDrawing.DrawEntities</text>
<text text-anchor="middle" x="1280" y="-179.76" font-family="Helvetica,sans-Serif" font-size="10.00">_DisplayDolls</text>
</a>
</g>
</g>
<!-- Node21&#45;&gt;Node22 -->
<g id="edge29_Node000021_Node000022" class="edge">
<title>Node21&#45;&gt;Node22</title>
<g id="a_edge29_Node000021_Node000022"><a xlink:title=" ">
<path fill="none" stroke="#63b8ff" d="M1392.62,-194.88C1383.46,-194.75 1374.2,-194.62 1365.15,-194.48"/>
<polygon fill="#63b8ff" stroke="#63b8ff" points="1392.86,-198.39 1402.91,-195.03 1392.97,-191.39 1392.86,-198.39"/>
</a>
</g>
</g>
<!-- Node23 -->
<g id="Node000023" class="node">
<title>Node23</title>
<g id="a_Node000023"><a xlink:href="../../d6/d7b/classTerraria_1_1GameContent_1_1Drawing_1_1TileDrawing_ac434c998201ac8098ddaf97b1ccd0d71.html#ac434c998201ac8098ddaf97b1ccd0d71" target="_top" xlink:title=" ">
<polygon fill="white" stroke="#666666" points="1365,-272.76 1195,-272.76 1195,-231.76 1365,-231.76 1365,-272.76"/>
<text text-anchor="start" x="1203" y="-260.76" font-family="Helvetica,sans-Serif" font-size="10.00">Terraria.GameContent.Drawing.</text>
<text text-anchor="start" x="1203" y="-249.76" font-family="Helvetica,sans-Serif" font-size="10.00">TileDrawing.DrawEntities</text>
<text text-anchor="middle" x="1280" y="-238.76" font-family="Helvetica,sans-Serif" font-size="10.00">_HatRacks</text>
</a>
</g>
</g>
<!-- Node21&#45;&gt;Node23 -->
<g id="edge31_Node000021_Node000023" class="edge">
<title>Node21&#45;&gt;Node23</title>
<g id="a_edge31_Node000021_Node000023"><a xlink:title=" ">
<path fill="none" stroke="#63b8ff" d="M1422.1,-213.9C1401.27,-219.56 1378.02,-225.89 1356.5,-231.74"/>
<polygon fill="#63b8ff" stroke="#63b8ff" points="1423.06,-217.27 1431.8,-211.27 1421.23,-210.51 1423.06,-217.27"/>
</a>
</g>
</g>
<!-- Node24 -->
<g id="Node000024" class="node">
<title>Node24</title>
<g id="a_Node000024"><a xlink:href="../../da/dd5/classTerraria_1_1Main_a0d0e70c8208ab1445ae343cb0287a0c6.html#a0d0e70c8208ab1445ae343cb0287a0c6" target="_top" xlink:title=" ">
<polygon fill="white" stroke="#666666" points="937,-188.76 805,-188.76 805,-169.76 937,-169.76 937,-188.76"/>
<text text-anchor="middle" x="871" y="-176.76" font-family="Helvetica,sans-Serif" font-size="10.00">Terraria.Main.DrawTiles</text>
</a>
</g>
</g>
<!-- Node21&#45;&gt;Node24 -->
<g id="edge33_Node000021_Node000024" class="edge">
<title>Node21&#45;&gt;Node24</title>
<g id="a_edge33_Node000021_Node000024"><a xlink:title=" ">
<path fill="none" stroke="#63b8ff" d="M1431.09,-178.38C1410.54,-172.66 1386.93,-167.09 1365,-164.26 1212.77,-144.63 1032.02,-159.84 937.32,-170.73"/>
<polygon fill="#63b8ff" stroke="#63b8ff" points="1430.34,-181.8 1440.92,-181.18 1432.26,-175.07 1430.34,-181.8"/>
</a>
</g>
</g>
<!-- Node22&#45;&gt;Node3 -->
<g id="edge30_Node000022_Node000003" class="edge">
<title>Node22&#45;&gt;Node3</title>
<g id="a_edge30_Node000022_Node000003"><a xlink:title=" ">
<path fill="none" stroke="#63b8ff" d="M1198.17,-216.64C1174.27,-223.55 1148.75,-230.93 1127.17,-237.17"/>
<polygon fill="#63b8ff" stroke="#63b8ff" points="1199.3,-219.95 1207.94,-213.81 1197.36,-213.23 1199.3,-219.95"/>
</a>
</g>
</g>
<!-- Node23&#45;&gt;Node3 -->
<g id="edge32_Node000023_Node000003" class="edge">
<title>Node23&#45;&gt;Node3</title>
<g id="a_edge32_Node000023_Node000003"><a xlink:title=" ">
<path fill="none" stroke="#63b8ff" d="M1184.6,-252.26C1176.15,-252.26 1167.64,-252.26 1159.29,-252.26"/>
<polygon fill="#63b8ff" stroke="#63b8ff" points="1184.85,-255.76 1194.85,-252.26 1184.85,-248.76 1184.85,-255.76"/>
</a>
</g>
</g>
<!-- Node24&#45;&gt;Node5 -->
<g id="edge34_Node000024_Node000005" class="edge">
<title>Node24&#45;&gt;Node5</title>
<g id="a_edge34_Node000024_Node000005"><a xlink:title=" ">
<path fill="none" stroke="#63b8ff" d="M796.49,-193.31C793.87,-194.8 791.36,-196.45 789,-198.26 762.17,-218.83 778.88,-243.52 753,-265.26 748.94,-268.67 744.38,-271.6 739.57,-274.12"/>
<polygon fill="#63b8ff" stroke="#63b8ff" points="798.27,-196.34 805.73,-188.81 795.21,-190.04 798.27,-196.34"/>
</a>
</g>
</g>
<!-- Node24&#45;&gt;Node10 -->
<g id="edge35_Node000024_Node000010" class="edge">
<title>Node24&#45;&gt;Node10</title>
<g id="a_edge35_Node000024_Node000010"><a xlink:title=" ">
<path fill="none" stroke="#63b8ff" d="M810.28,-191.43C803.03,-193.44 795.79,-195.72 789,-198.26 772.06,-204.6 769.64,-210.17 753,-217.26 745.56,-220.43 737.55,-223.45 729.66,-226.21"/>
<polygon fill="#63b8ff" stroke="#63b8ff" points="811.36,-194.77 820.14,-188.84 809.58,-187.99 811.36,-194.77"/>
</a>
</g>
</g>
<!-- Node24&#45;&gt;Node11 -->
<g id="edge36_Node000024_Node000011" class="edge">
<title>Node24&#45;&gt;Node11</title>
<g id="a_edge36_Node000024_Node000011"><a xlink:title=" ">
<path fill="none" stroke="#63b8ff" d="M794.53,-172.09C780.94,-170.8 766.81,-169.46 753.31,-168.17"/>
<polygon fill="#63b8ff" stroke="#63b8ff" points="794.5,-175.6 804.78,-173.06 795.16,-168.63 794.5,-175.6"/>
</a>
</g>
</g>
<!-- Node24&#45;&gt;Node12 -->
<g id="edge37_Node000024_Node000012" class="edge">
<title>Node24&#45;&gt;Node12</title>
<g id="a_edge37_Node000024_Node000012"><a xlink:title=" ">
<path fill="none" stroke="#63b8ff" d="M794.71,-186.81C779.97,-188.29 764.58,-189.83 750.04,-191.29"/>
<polygon fill="#63b8ff" stroke="#63b8ff" points="795.18,-190.28 804.78,-185.8 794.49,-183.31 795.18,-190.28"/>
</a>
</g>
</g>
<!-- Node24&#45;&gt;Node13 -->
<g id="edge38_Node000024_Node000013" class="edge">
<title>Node24&#45;&gt;Node13</title>
<g id="a_edge38_Node000024_Node000013"><a xlink:title=" ">
<path fill="none" stroke="#63b8ff" d="M830.68,-166.71C808.04,-159.59 779,-150.66 753,-143.26 741.74,-140.05 729.43,-136.75 718.21,-133.82"/>
<polygon fill="#63b8ff" stroke="#63b8ff" points="829.7,-170.07 840.29,-169.74 831.8,-163.39 829.7,-170.07"/>
</a>
</g>
</g>
<!-- Node25&#45;&gt;Node2 -->
<g id="edge40_Node000025_Node000002" class="edge">
<title>Node25&#45;&gt;Node2</title>
<g id="a_edge40_Node000025_Node000002"><a xlink:title=" ">
<path fill="none" stroke="#63b8ff" d="M2126.44,-325.86C2105.7,-336.79 2080.81,-351.56 2061,-368.26 2041.94,-384.33 2046.23,-398.2 2025,-411.26 2019.37,-414.72 2013.29,-417.68 2006.99,-420.22"/>
<polygon fill="#63b8ff" stroke="#63b8ff" points="2128.06,-328.96 2135.34,-321.26 2124.85,-322.74 2128.06,-328.96"/>
</a>
</g>
</g>
<!-- Node25&#45;&gt;Node14 -->
<g id="edge41_Node000025_Node000014" class="edge">
<title>Node25&#45;&gt;Node14</title>
<g id="a_edge41_Node000025_Node000014"><a xlink:title=" ">
<path fill="none" stroke="#63b8ff" d="M2086.97,-324.49C2078.02,-327.6 2069.18,-331.17 2061,-335.26 2042.87,-344.32 2043.3,-354.53 2025,-363.26 2017.79,-366.7 2010.06,-369.66 2002.19,-372.21"/>
<polygon fill="#63b8ff" stroke="#63b8ff" points="2088.3,-327.74 2096.72,-321.3 2086.13,-321.09 2088.3,-327.74"/>
</a>
</g>
</g>
<!-- Node25&#45;&gt;Node16 -->
<g id="edge42_Node000025_Node000016" class="edge">
<title>Node25&#45;&gt;Node16</title>
<g id="a_edge42_Node000025_Node000016"><a xlink:title=" ">
<path fill="none" stroke="#63b8ff" d="M2050.81,-321.94C2042.19,-323.1 2033.54,-324.27 2025.02,-325.41"/>
<polygon fill="#63b8ff" stroke="#63b8ff" points="2051.45,-325.39 2060.89,-320.59 2050.51,-318.45 2051.45,-325.39"/>
</a>
</g>
</g>
<!-- Node25&#45;&gt;Node18 -->
<g id="edge43_Node000025_Node000018" class="edge">
<title>Node25&#45;&gt;Node18</title>
<g id="a_edge43_Node000025_Node000018"><a xlink:title=" ">
<path fill="none" stroke="#63b8ff" d="M2050.7,-299.12C2041.99,-298.59 2033.24,-298.06 2024.63,-297.53"/>
<polygon fill="#63b8ff" stroke="#63b8ff" points="2050.7,-302.63 2060.89,-299.75 2051.12,-295.64 2050.7,-302.63"/>
</a>
</g>
</g>
<!-- Node25&#45;&gt;Node20 -->
<g id="edge44_Node000025_Node000020" class="edge">
<title>Node25&#45;&gt;Node20</title>
<g id="a_edge44_Node000025_Node000020"><a xlink:title=" ">
<path fill="none" stroke="#63b8ff" d="M2083.46,-288.76C2075.82,-286.73 2068.24,-284.56 2061,-282.26 2044.48,-277 2041.62,-272.18 2025,-267.26 1934.89,-240.59 1909.08,-248.02 1817,-229.26 1799.01,-225.59 1779.56,-221.34 1761.67,-217.31"/>
<polygon fill="#63b8ff" stroke="#63b8ff" points="2082.59,-292.15 2093.15,-291.24 2084.33,-285.37 2082.59,-292.15"/>
</a>
</g>
</g>
<!-- Node26&#45;&gt;Node2 -->
<g id="edge46_Node000026_Node000002" class="edge">
<title>Node26&#45;&gt;Node2</title>
<g id="a_edge46_Node000026_Node000002"><a xlink:title=" ">
<path fill="none" stroke="#63b8ff" d="M2071.89,-273.86C2068,-276.3 2064.34,-279.09 2061,-282.26 2017.86,-323.27 2067.99,-370.09 2025,-411.26 2021.42,-414.69 2017.45,-417.66 2013.21,-420.23"/>
<polygon fill="#63b8ff" stroke="#63b8ff" points="2073.64,-276.89 2080.75,-269.03 2070.3,-270.74 2073.64,-276.89"/>
</a>
</g>
</g>
<!-- Node26&#45;&gt;Node14 -->
<g id="edge49_Node000026_Node000014" class="edge">
<title>Node26&#45;&gt;Node14</title>
<g id="a_edge49_Node000026_Node000014"><a xlink:title=" ">
<path fill="none" stroke="#63b8ff" d="M2071.69,-274.9C2067.93,-277.08 2064.34,-279.52 2061,-282.26 2030.54,-307.25 2055.36,-338.16 2025,-363.26 2019.34,-367.94 2012.93,-371.74 2006.15,-374.83"/>
<polygon fill="#63b8ff" stroke="#63b8ff" points="2073.44,-277.94 2080.77,-270.3 2070.27,-271.7 2073.44,-277.94"/>
</a>
</g>
</g>
<!-- Node26&#45;&gt;Node16 -->
<g id="edge50_Node000026_Node000016" class="edge">
<title>Node26&#45;&gt;Node16</title>
<g id="a_edge50_Node000026_Node000016"><a xlink:title=" ">
<path fill="none" stroke="#63b8ff" d="M2072.6,-276.87C2068.62,-278.51 2064.73,-280.31 2061,-282.26 2041.77,-292.32 2044.2,-305.13 2025,-315.26 2018.42,-318.73 2011.35,-321.7 2004.1,-324.25"/>
<polygon fill="#63b8ff" stroke="#63b8ff" points="2073.95,-280.1 2082.06,-273.28 2071.47,-273.55 2073.95,-280.1"/>
</a>
</g>
</g>
<!-- Node26&#45;&gt;Node18 -->
<g id="edge51_Node000026_Node000018" class="edge">
<title>Node26&#45;&gt;Node18</title>
<g id="a_edge51_Node000026_Node000018"><a xlink:title=" ">
<path fill="none" stroke="#63b8ff" d="M2071.02,-271.23C2055.78,-273.28 2039.96,-275.4 2024.59,-277.47"/>
<polygon fill="#63b8ff" stroke="#63b8ff" points="2071.5,-274.69 2080.95,-269.89 2070.57,-267.76 2071.5,-274.69"/>
</a>
</g>
</g>
<!-- Node26&#45;&gt;Node20 -->
<g id="edge55_Node000026_Node000020" class="edge">
<title>Node26&#45;&gt;Node20</title>
<g id="a_edge55_Node000026_Node000020"><a xlink:title=" ">
<path fill="none" stroke="#63b8ff" d="M2072.02,-242.28C2068.1,-239.94 2064.4,-237.27 2061,-234.26 2025.33,-202.66 2063.95,-160.72 2025,-133.26 1949.45,-79.98 1906.32,-109.41 1817,-133.26 1777.99,-143.67 1738.5,-170.14 1715.96,-187.1"/>
<polygon fill="#63b8ff" stroke="#63b8ff" points="2070.41,-245.39 2080.89,-246.93 2073.66,-239.19 2070.41,-245.39"/>
</a>
</g>
</g>
<!-- Node27 -->
<g id="Node000027" class="node">
<title>Node27</title>
<g id="a_Node000027"><a xlink:href="../../d6/d7b/classTerraria_1_1GameContent_1_1Drawing_1_1TileDrawing_a1697eacd2ae9a2c661e4300572f8a634.html#a1697eacd2ae9a2c661e4300572f8a634" target="_top" xlink:title=" ">
<polygon fill="white" stroke="#666666" points="2006,-220.26 1836,-220.26 1836,-190.26 2006,-190.26 2006,-220.26"/>
<text text-anchor="start" x="1844" y="-208.26" font-family="Helvetica,sans-Serif" font-size="10.00">Terraria.GameContent.Drawing.</text>
<text text-anchor="middle" x="1921" y="-197.26" font-family="Helvetica,sans-Serif" font-size="10.00">TileDrawing.DrawBasicTile</text>
</a>
</g>
</g>
<!-- Node26&#45;&gt;Node27 -->
<g id="edge47_Node000026_Node000027" class="edge">
<title>Node26&#45;&gt;Node27</title>
<g id="a_edge47_Node000026_Node000027"><a xlink:title=" ">
<path fill="none" stroke="#63b8ff" d="M2087.92,-241.08C2056.97,-234.4 2021.82,-226.81 1991.87,-220.34"/>
<polygon fill="#63b8ff" stroke="#63b8ff" points="2087.29,-244.52 2097.81,-243.21 2088.77,-237.68 2087.29,-244.52"/>
</a>
</g>
</g>
<!-- Node28 -->
<g id="Node000028" class="node">
<title>Node28</title>
<g id="a_Node000028"><a xlink:href="../../d6/d7b/classTerraria_1_1GameContent_1_1Drawing_1_1TileDrawing_a32e5d393d20b2bf95ed5ad8c9726244b.html#a32e5d393d20b2bf95ed5ad8c9726244b" target="_top" xlink:title=" ">
<polygon fill="white" stroke="#666666" points="2010,-86.26 1832,-86.26 1832,-56.26 2010,-56.26 2010,-86.26"/>
<text text-anchor="start" x="1840" y="-74.26" font-family="Helvetica,sans-Serif" font-size="10.00">Terraria.GameContent.Drawing.</text>
<text text-anchor="middle" x="1921" y="-63.26" font-family="Helvetica,sans-Serif" font-size="10.00">TileDrawing.DrawRisingVineStrip</text>
</a>
</g>
</g>
<!-- Node26&#45;&gt;Node28 -->
<g id="edge52_Node000026_Node000028" class="edge">
<title>Node26&#45;&gt;Node28</title>
<g id="a_edge52_Node000026_Node000028"><a xlink:title=" ">
<path fill="none" stroke="#63b8ff" d="M2071.99,-242.79C2068.06,-240.31 2064.36,-237.48 2061,-234.26 2016.51,-191.55 2068.34,-144.12 2025,-100.26 2019.39,-94.58 2012.75,-89.99 2005.6,-86.28"/>
<polygon fill="#63b8ff" stroke="#63b8ff" points="2070.5,-245.96 2080.96,-247.66 2073.84,-239.81 2070.5,-245.96"/>
</a>
</g>
</g>
<!-- Node30 -->
<g id="Node000030" class="node">
<title>Node30</title>
<g id="a_Node000030"><a xlink:href="../../d6/d7b/classTerraria_1_1GameContent_1_1Drawing_1_1TileDrawing_a646c0aa99a443064e18788ebd553a242.html#a646c0aa99a443064e18788ebd553a242" target="_top" xlink:title=" ">
<polygon fill="white" stroke="#666666" points="2018.5,-172.26 1823.5,-172.26 1823.5,-142.26 2018.5,-142.26 2018.5,-172.26"/>
<text text-anchor="start" x="1831.5" y="-160.26" font-family="Helvetica,sans-Serif" font-size="10.00">Terraria.GameContent.Drawing.</text>
<text text-anchor="middle" x="1921" y="-149.26" font-family="Helvetica,sans-Serif" font-size="10.00">TileDrawing.DrawTile_MinecartTrack</text>
</a>
</g>
</g>
<!-- Node26&#45;&gt;Node30 -->
<g id="edge56_Node000026_Node000030" class="edge">
<title>Node26&#45;&gt;Node30</title>
<g id="a_edge56_Node000026_Node000030"><a xlink:title=" ">
<path fill="none" stroke="#63b8ff" d="M2071.52,-240.47C2067.86,-238.6 2064.34,-236.53 2061,-234.26 2037.46,-218.23 2048.48,-197.37 2025,-181.26 2020,-177.83 2014.59,-174.89 2008.93,-172.36"/>
<polygon fill="#63b8ff" stroke="#63b8ff" points="2070.28,-243.75 2080.83,-244.73 2073.19,-237.39 2070.28,-243.75"/>
</a>
</g>
</g>
<!-- Node31 -->
<g id="Node000031" class="node">
<title>Node31</title>
<g id="a_Node000031"><a xlink:href="../../d6/d7b/classTerraria_1_1GameContent_1_1Drawing_1_1TileDrawing_af1229bdbcbd28de4687c9e39e1989b0c.html#af1229bdbcbd28de4687c9e39e1989b0c" target="_top" xlink:title=" ">
<polygon fill="white" stroke="#666666" points="2006,-38.26 1836,-38.26 1836,-8.26 2006,-8.26 2006,-38.26"/>
<text text-anchor="start" x="1844" y="-26.26" font-family="Helvetica,sans-Serif" font-size="10.00">Terraria.GameContent.Drawing.</text>
<text text-anchor="middle" x="1921" y="-15.26" font-family="Helvetica,sans-Serif" font-size="10.00">TileDrawing.DrawVineStrip</text>
</a>
</g>
</g>
<!-- Node26&#45;&gt;Node31 -->
<g id="edge58_Node000026_Node000031" class="edge">
<title>Node26&#45;&gt;Node31</title>
<g id="a_edge58_Node000026_Node000031"><a xlink:title=" ">
<path fill="none" stroke="#63b8ff" d="M2071.84,-243.17C2067.93,-240.6 2064.28,-237.64 2061,-234.26 2002.1,-173.48 2083.68,-108.25 2025,-47.26 2019.65,-41.7 2013.29,-37.32 2006.38,-33.88"/>
<polygon fill="#63b8ff" stroke="#63b8ff" points="2070.35,-246.35 2080.78,-248.22 2073.79,-240.26 2070.35,-246.35"/>
</a>
</g>
</g>
<!-- Node27&#45;&gt;Node20 -->
<g id="edge48_Node000027_Node000020" class="edge">
<title>Node27&#45;&gt;Node20</title>
<g id="a_edge48_Node000027_Node000020"><a xlink:title=" ">
<path fill="none" stroke="#63b8ff" d="M1825.54,-203.99C1810.77,-203.79 1795.58,-203.59 1781.06,-203.39"/>
<polygon fill="#63b8ff" stroke="#63b8ff" points="1825.65,-207.49 1835.69,-204.12 1825.74,-200.49 1825.65,-207.49"/>
</a>
</g>
</g>
<!-- Node29 -->
<g id="Node000029" class="node">
<title>Node29</title>
<g id="a_Node000029"><a xlink:href="../../d6/d7b/classTerraria_1_1GameContent_1_1Drawing_1_1TileDrawing_a2940f100d14068c217103af21f11cde6.html#a2940f100d14068c217103af21f11cde6" target="_top" xlink:title=" ">
<polygon fill="white" stroke="#666666" points="1365,-102.26 1195,-102.26 1195,-72.26 1365,-72.26 1365,-102.26"/>
<text text-anchor="start" x="1203" y="-90.26" font-family="Helvetica,sans-Serif" font-size="10.00">Terraria.GameContent.Drawing.</text>
<text text-anchor="middle" x="1280" y="-79.26" font-family="Helvetica,sans-Serif" font-size="10.00">TileDrawing.DrawReverseVines</text>
</a>
</g>
</g>
<!-- Node28&#45;&gt;Node29 -->
<g id="edge53_Node000028_Node000029" class="edge">
<title>Node28&#45;&gt;Node29</title>
<g id="a_edge53_Node000028_Node000029"><a xlink:title=" ">
<path fill="none" stroke="#63b8ff" d="M1821.49,-73.73C1696.49,-76.86 1483.01,-82.2 1365.23,-85.15"/>
<polygon fill="#63b8ff" stroke="#63b8ff" points="1821.91,-77.22 1831.82,-73.47 1821.74,-70.22 1821.91,-77.22"/>
</a>
</g>
</g>
<!-- Node29&#45;&gt;Node3 -->
<g id="edge54_Node000029_Node000003" class="edge">
<title>Node29&#45;&gt;Node3</title>
<g id="a_edge54_Node000029_Node000003"><a xlink:title=" ">
<path fill="none" stroke="#63b8ff" d="M1252.33,-108.83C1210.42,-142.73 1130.18,-207.63 1093.78,-237.07"/>
<polygon fill="#63b8ff" stroke="#63b8ff" points="1254.6,-111.5 1260.17,-102.49 1250.2,-106.05 1254.6,-111.5"/>
</a>
</g>
</g>
<!-- Node30&#45;&gt;Node20 -->
<g id="edge57_Node000030_Node000020" class="edge">
<title>Node30&#45;&gt;Node20</title>
<g id="a_edge57_Node000030_Node000020"><a xlink:title=" ">
<path fill="none" stroke="#63b8ff" d="M1835.54,-174.3C1814.48,-178.55 1792.04,-183.08 1771.5,-187.23"/>
<polygon fill="#63b8ff" stroke="#63b8ff" points="1836.32,-177.71 1845.43,-172.31 1834.94,-170.85 1836.32,-177.71"/>
</a>
</g>
</g>
<!-- Node32 -->
<g id="Node000032" class="node">
<title>Node32</title>
<g id="a_Node000032"><a xlink:href="../../d6/d7b/classTerraria_1_1GameContent_1_1Drawing_1_1TileDrawing_aed766cacfa10d4beed0fd7ad4ea112e5.html#aed766cacfa10d4beed0fd7ad4ea112e5" target="_top" xlink:title=" ">
<polygon fill="white" stroke="#666666" points="1781,-40.26 1611,-40.26 1611,-10.26 1781,-10.26 1781,-40.26"/>
<text text-anchor="start" x="1619" y="-28.26" font-family="Helvetica,sans-Serif" font-size="10.00">Terraria.GameContent.Drawing.</text>
<text text-anchor="middle" x="1696" y="-17.26" font-family="Helvetica,sans-Serif" font-size="10.00">TileDrawing.DrawVines</text>
</a>
</g>
</g>
<!-- Node31&#45;&gt;Node32 -->
<g id="edge59_Node000031_Node000032" class="edge">
<title>Node31&#45;&gt;Node32</title>
<g id="a_edge59_Node000031_Node000032"><a xlink:title=" ">
<path fill="none" stroke="#63b8ff" d="M1825.54,-24.11C1810.77,-24.24 1795.58,-24.37 1781.06,-24.51"/>
<polygon fill="#63b8ff" stroke="#63b8ff" points="1825.73,-27.6 1835.69,-24.02 1825.66,-20.6 1825.73,-27.6"/>
</a>
</g>
</g>
<!-- Node32&#45;&gt;Node3 -->
<g id="edge60_Node000032_Node000003" class="edge">
<title>Node32&#45;&gt;Node3</title>
<g id="a_edge60_Node000032_Node000003"><a xlink:title=" ">
<path fill="none" stroke="#63b8ff" d="M1602.06,-8.87C1495.7,4.88 1320.1,11.81 1195,-63.26 1127.01,-104.06 1091.18,-199.85 1079.43,-237.08"/>
<polygon fill="#63b8ff" stroke="#63b8ff" points="1601.75,-12.36 1612.13,-10.21 1602.68,-5.42 1601.75,-12.36"/>
</a>
</g>
</g>
</g>
</svg>
