<?xml version="1.0" encoding="UTF-8" standalone="no"?>
<!DOCTYPE svg PUBLIC "-//W3C//DTD SVG 1.1//EN"
 "http://www.w3.org/Graphics/SVG/1.1/DTD/svg11.dtd">
<!-- Generated by graphviz version 2.43.0 (0)
 -->
<!-- Title: Terraria.GameContent.Drawing.TileDrawing.DrawPartialLiquid Pages: 1 -->
<svg width="390pt" height="82pt"
 viewBox="0.00 0.00 390.00 82.00" xmlns="http://www.w3.org/2000/svg" xmlns:xlink="http://www.w3.org/1999/xlink">
<g id="graph0" class="graph" transform="scale(1 1) rotate(0) translate(4 78)">
<title>Terraria.GameContent.Drawing.TileDrawing.DrawPartialLiquid</title>
<!-- Node1 -->
<g id="Node000001" class="node">
<title>Node1</title>
<g id="a_Node000001"><a xlink:title=" ">
<polygon fill="#999999" stroke="#666666" points="170,-42.5 0,-42.5 0,-12.5 170,-12.5 170,-42.5"/>
<text text-anchor="start" x="8" y="-30.5" font-family="Helvetica,sans-Serif" font-size="10.00">Terraria.GameContent.Drawing.</text>
<text text-anchor="middle" x="85" y="-19.5" font-family="Helvetica,sans-Serif" font-size="10.00">TileDrawing.DrawPartialLiquid</text>
</a>
</g>
</g>
<!-- Node2 -->
<g id="Node000002" class="node">
<title>Node2</title>
<g id="a_Node000002"><a xlink:href="../../db/d9e/classTerraria_1_1Graphics_1_1TileBatch_a3372ec2b63f615707d2bd68abfb9e2d1.html#a3372ec2b63f615707d2bd68abfb9e2d1" target="_top" xlink:title=" ">
<polygon fill="white" stroke="#666666" points="382,-56 206,-56 206,-37 382,-37 382,-56"/>
<text text-anchor="middle" x="294" y="-44" font-family="Helvetica,sans-Serif" font-size="10.00">Terraria.Graphics.TileBatch.Draw</text>
</a>
</g>
</g>
<!-- Node1&#45;&gt;Node2 -->
<g id="edge1_Node000001_Node000002" class="edge">
<title>Node1&#45;&gt;Node2</title>
<g id="a_edge1_Node000001_Node000002"><a xlink:title=" ">
<path fill="none" stroke="#63b8ff" d="M170.19,-35.23C178.64,-36 187.27,-36.8 195.83,-37.58"/>
<polygon fill="#63b8ff" stroke="#63b8ff" points="195.57,-41.07 205.85,-38.5 196.21,-34.1 195.57,-41.07"/>
</a>
</g>
</g>
<!-- Node3 -->
<g id="Node000003" class="node">
<title>Node3</title>
<g id="a_Node000003"><a xlink:href="../../d6/d21/structTerraria_1_1Tile_ab9bfb24365d03f2b4fe0842f6a406765.html#ab9bfb24365d03f2b4fe0842f6a406765" target="_top" xlink:title="Legacy code, use P:Terraria.Tile.Slope instead.">
<polygon fill="white" stroke="#666666" points="346,-19 242,-19 242,0 346,0 346,-19"/>
<text text-anchor="middle" x="294" y="-7" font-family="Helvetica,sans-Serif" font-size="10.00">Terraria.Tile.slope</text>
</a>
</g>
</g>
<!-- Node1&#45;&gt;Node3 -->
<g id="edge3_Node000001_Node000003" class="edge">
<title>Node1&#45;&gt;Node3</title>
<g id="a_edge3_Node000001_Node000003"><a xlink:title=" ">
<path fill="none" stroke="#63b8ff" d="M170.19,-20.18C190.78,-18.39 212.43,-16.51 231.71,-14.83"/>
<polygon fill="#63b8ff" stroke="#63b8ff" points="232.21,-18.3 241.86,-13.95 231.6,-11.33 232.21,-18.3"/>
</a>
</g>
</g>
<!-- Node2&#45;&gt;Node2 -->
<g id="edge2_Node000002_Node000002" class="edge">
<title>Node2&#45;&gt;Node2</title>
<g id="a_edge2_Node000002_Node000002"><a xlink:title=" ">
<path fill="none" stroke="#63b8ff" d="M261.94,-56.08C246.34,-64.73 257.03,-74 294,-74 320.57,-74 333.57,-69.21 332.98,-63.31"/>
<polygon fill="#63b8ff" stroke="#63b8ff" points="335.5,-60.88 326.06,-56.08 330.45,-65.73 335.5,-60.88"/>
</a>
</g>
</g>
</g>
</svg>
