<?xml version="1.0" encoding="UTF-8" standalone="no"?>
<!DOCTYPE svg PUBLIC "-//W3C//DTD SVG 1.1//EN"
 "http://www.w3.org/Graphics/SVG/1.1/DTD/svg11.dtd">
<!-- Generated by graphviz version 2.43.0 (0)
 -->
<!-- Title: Terraria.GameContent.Drawing.TileDrawing.DrawTiles_EmitParticles Pages: 1 -->
<!--zoomable 319 -->

<svg id="main" version="1.1" xmlns="http://www.w3.org/2000/svg" xmlns:xlink="http://www.w3.org/1999/xlink" xml:space="preserve" onload="init(evt)">
<style type="text/css"><![CDATA[
.node, .edge {opacity: 0.7;}
.node.selected, .edge.selected {opacity: 1;}
.edge:hover path { stroke: red; }
.edge:hover polygon { stroke: red; fill: red; }
]]></style>

<defs>
  <circle id="rim" cx="0" cy="0" r="7"/>
  <circle id="rim2" cx="0" cy="0" r="3.5"/>
  <g id="zoomPlus">
    <use xlink:href="#rim" fill="#404040"><set attributeName="fill" to="#808080" begin="zoomplus.mouseover" end="zoomplus.mouseout"/></use>
    <path d="M-4,0h8M0,-4v8" fill="none" stroke="white" stroke-width="1.5" pointer-events="none"/>
  </g>
  <g id="zoomMin">
    <use xlink:href="#rim" fill="#404040"><set attributeName="fill" to="#808080" begin="zoomminus.mouseover" end="zoomminus.mouseout"/></use>
    <path d="M-4,0h8" fill="none" stroke="white" stroke-width="1.5" pointer-events="none"/>
  </g>
  <g id="arrowUp" transform="translate(30 24)">
    <use xlink:href="#rim"/>
    <path pointer-events="none" fill="none" stroke="white" stroke-width="1.5" d="M0,-3.0v7 M-2.5,-0.5L0,-3.0L2.5,-0.5"/>
  </g>
  <g id="arrowRight" transform="rotate(90) translate(36 -43)">
    <use xlink:href="#rim"/>
    <path pointer-events="none" fill="none" stroke="white" stroke-width="1.5" d="M0,-3.0v7 M-2.5,-0.5L0,-3.0L2.5,-0.5"/>
  </g>
  <g id="arrowDown" transform="rotate(180) translate(-30 -48)">
    <use xlink:href="#rim"/>
    <path pointer-events="none" fill="none" stroke="white" stroke-width="1.5" d="M0,-3.0v7 M-2.5,-0.5L0,-3.0L2.5,-0.5"/>
  </g>
  <g id="arrowLeft" transform="rotate(270) translate(-36 17)">
    <use xlink:href="#rim"/>
    <path pointer-events="none" fill="none" stroke="white" stroke-width="1.5" d="M0,-3.0v7 M-2.5,-0.5L0,-3.0L2.5,-0.5"/>
  </g>
  <g id="resetDef">
    <use xlink:href="#rim2" fill="#404040"><set attributeName="fill" to="#808080" begin="reset.mouseover" end="reset.mouseout"/></use>
  </g>
</defs>
<script type="application/ecmascript">
var viewWidth = 2091;
var viewHeight = 319;
var sectionId = 'dynsection-1';
</script>
<script type="application/ecmascript" xlink:href="../../svg.min.js"/>
<svg id="graph" class="graph">
<g id="viewport">
<title>Terraria.GameContent.Drawing.TileDrawing.DrawTiles_EmitParticles</title>
<!-- Node1 -->
<g id="Node000001" class="node">
<title>Node1</title>
<g id="a_Node000001"><a xlink:title=" ">
<polygon fill="#999999" stroke="#666666" points="2083,-224.5 1887,-224.5 1887,-194.5 2083,-194.5 2083,-224.5"/>
<text text-anchor="start" x="1895" y="-212.5" font-family="Helvetica,sans-Serif" font-size="10.00">Terraria.GameContent.Drawing.</text>
<text text-anchor="middle" x="1985" y="-201.5" font-family="Helvetica,sans-Serif" font-size="10.00">TileDrawing.DrawTiles_EmitParticles</text>
</a>
</g>
</g>
<!-- Node2 -->
<g id="Node000002" class="node">
<title>Node2</title>
<g id="a_Node000002"><a xlink:href="../../d6/d7b/classTerraria_1_1GameContent_1_1Drawing_1_1TileDrawing_a3cf1c4c1a904b101328281d1b530fd48.html#a3cf1c4c1a904b101328281d1b530fd48" target="_top" xlink:title=" ">
<polygon fill="white" stroke="#666666" points="1398,-310.5 1195,-310.5 1195,-280.5 1398,-280.5 1398,-310.5"/>
<text text-anchor="start" x="1203" y="-298.5" font-family="Helvetica,sans-Serif" font-size="10.00">Terraria.GameContent.Drawing.</text>
<text text-anchor="middle" x="1296.5" y="-287.5" font-family="Helvetica,sans-Serif" font-size="10.00">TileDrawing.DrawAnyDirectionalGrass</text>
</a>
</g>
</g>
<!-- Node1&#45;&gt;Node2 -->
<g id="edge1_Node000001_Node000002" class="edge">
<title>Node1&#45;&gt;Node2</title>
<g id="a_edge1_Node000001_Node000002"><a xlink:title=" ">
<path fill="none" stroke="#63b8ff" d="M1937.72,-228.17C1912.49,-237.57 1880.48,-248.28 1851,-254.5 1695.2,-287.4 1509.91,-294.91 1398.12,-296.1"/>
<polygon fill="#63b8ff" stroke="#63b8ff" points="1939.28,-231.32 1947.39,-224.5 1936.8,-224.77 1939.28,-231.32"/>
</a>
</g>
</g>
<!-- Node14 -->
<g id="Node000014" class="node">
<title>Node14</title>
<g id="a_Node000014"><a xlink:href="../../d6/d7b/classTerraria_1_1GameContent_1_1Drawing_1_1TileDrawing_acd80a8db892108f97c6a36d90a822373.html#acd80a8db892108f97c6a36d90a822373" target="_top" xlink:title=" ">
<polygon fill="white" stroke="#666666" points="1605.5,-267.5 1435.5,-267.5 1435.5,-237.5 1605.5,-237.5 1605.5,-267.5"/>
<text text-anchor="start" x="1443.5" y="-255.5" font-family="Helvetica,sans-Serif" font-size="10.00">Terraria.GameContent.Drawing.</text>
<text text-anchor="middle" x="1520.5" y="-244.5" font-family="Helvetica,sans-Serif" font-size="10.00">TileDrawing.DrawGrass</text>
</a>
</g>
</g>
<!-- Node1&#45;&gt;Node14 -->
<g id="edge16_Node000001_Node000014" class="edge">
<title>Node1&#45;&gt;Node14</title>
<g id="a_edge16_Node000001_Node000014"><a xlink:title=" ">
<path fill="none" stroke="#63b8ff" d="M1899.73,-226.29C1883.61,-229.05 1866.82,-231.62 1851,-233.5 1767.92,-243.35 1672.44,-248.15 1605.71,-250.45"/>
<polygon fill="#63b8ff" stroke="#63b8ff" points="1900.43,-229.72 1909.67,-224.55 1899.22,-222.83 1900.43,-229.72"/>
</a>
</g>
</g>
<!-- Node15 -->
<g id="Node000015" class="node">
<title>Node15</title>
<g id="a_Node000015"><a xlink:href="../../d6/d7b/classTerraria_1_1GameContent_1_1Drawing_1_1TileDrawing_a829ca377e2da2c79dfbd5f1ae777a60a.html#a829ca377e2da2c79dfbd5f1ae777a60a" target="_top" xlink:title=" ">
<polygon fill="white" stroke="#666666" points="1851,-224.5 1643,-224.5 1643,-194.5 1851,-194.5 1851,-224.5"/>
<text text-anchor="start" x="1651" y="-212.5" font-family="Helvetica,sans-Serif" font-size="10.00">Terraria.GameContent.Drawing.</text>
<text text-anchor="middle" x="1747" y="-201.5" font-family="Helvetica,sans-Serif" font-size="10.00">TileDrawing.DrawMultiTileGrassInWind</text>
</a>
</g>
</g>
<!-- Node1&#45;&gt;Node15 -->
<g id="edge18_Node000001_Node000015" class="edge">
<title>Node1&#45;&gt;Node15</title>
<g id="a_edge18_Node000001_Node000015"><a xlink:title=" ">
<path fill="none" stroke="#63b8ff" d="M1876.95,-209.5C1868.37,-209.5 1859.7,-209.5 1851.14,-209.5"/>
<polygon fill="#63b8ff" stroke="#63b8ff" points="1876.99,-213 1886.99,-209.5 1876.99,-206 1876.99,-213"/>
</a>
</g>
</g>
<!-- Node17 -->
<g id="Node000017" class="node">
<title>Node17</title>
<g id="a_Node000017"><a xlink:href="../../d6/d7b/classTerraria_1_1GameContent_1_1Drawing_1_1TileDrawing_aaf47da80afe5cb1e502ff9eee39719e8.html#aaf47da80afe5cb1e502ff9eee39719e8" target="_top" xlink:title=" ">
<polygon fill="white" stroke="#666666" points="1850.5,-176.5 1643.5,-176.5 1643.5,-146.5 1850.5,-146.5 1850.5,-176.5"/>
<text text-anchor="start" x="1651.5" y="-164.5" font-family="Helvetica,sans-Serif" font-size="10.00">Terraria.GameContent.Drawing.</text>
<text text-anchor="middle" x="1747" y="-153.5" font-family="Helvetica,sans-Serif" font-size="10.00">TileDrawing.DrawMultiTileVinesInWind</text>
</a>
</g>
</g>
<!-- Node1&#45;&gt;Node17 -->
<g id="edge21_Node000001_Node000017" class="edge">
<title>Node1&#45;&gt;Node17</title>
<g id="a_edge21_Node000001_Node000017"><a xlink:title=" ">
<path fill="none" stroke="#63b8ff" d="M1899.94,-192.4C1874.41,-187.21 1846.56,-181.55 1821.76,-176.5"/>
<polygon fill="#63b8ff" stroke="#63b8ff" points="1899.48,-195.88 1909.98,-194.44 1900.87,-189.02 1899.48,-195.88"/>
</a>
</g>
</g>
<!-- Node19 -->
<g id="Node000019" class="node">
<title>Node19</title>
<g id="a_Node000019"><a xlink:href="../../d6/d7b/classTerraria_1_1GameContent_1_1Drawing_1_1TileDrawing_a65cf6d0f46d62062bb295148fa520c67.html#a65cf6d0f46d62062bb295148fa520c67" target="_top" xlink:title=" ">
<polygon fill="white" stroke="#666666" points="1832,-101.5 1662,-101.5 1662,-71.5 1832,-71.5 1832,-101.5"/>
<text text-anchor="start" x="1670" y="-89.5" font-family="Helvetica,sans-Serif" font-size="10.00">Terraria.GameContent.Drawing.</text>
<text text-anchor="middle" x="1747" y="-78.5" font-family="Helvetica,sans-Serif" font-size="10.00">TileDrawing.DrawSingleTile</text>
</a>
</g>
</g>
<!-- Node1&#45;&gt;Node19 -->
<g id="edge24_Node000001_Node000019" class="edge">
<title>Node1&#45;&gt;Node19</title>
<g id="a_edge24_Node000001_Node000019"><a xlink:title=" ">
<path fill="none" stroke="#63b8ff" d="M1947.94,-189.52C1921.29,-174.87 1884.06,-154.62 1851,-137.5 1827.08,-125.11 1799.75,-111.6 1779.25,-101.61"/>
<polygon fill="#63b8ff" stroke="#63b8ff" points="1946.45,-192.69 1956.9,-194.45 1949.83,-186.56 1946.45,-192.69"/>
</a>
</g>
</g>
<!-- Node3 -->
<g id="Node000003" class="node">
<title>Node3</title>
<g id="a_Node000003"><a xlink:href="../../d6/d7b/classTerraria_1_1GameContent_1_1Drawing_1_1TileDrawing_a195bc3275a5fbd6fe52452a5a2251e49.html#a195bc3275a5fbd6fe52452a5a2251e49" target="_top" xlink:title=" ">
<polygon fill="white" stroke="#666666" points="1159,-181.5 989,-181.5 989,-151.5 1159,-151.5 1159,-181.5"/>
<text text-anchor="start" x="997" y="-169.5" font-family="Helvetica,sans-Serif" font-size="10.00">Terraria.GameContent.Drawing.</text>
<text text-anchor="middle" x="1074" y="-158.5" font-family="Helvetica,sans-Serif" font-size="10.00">TileDrawing.PostDrawTiles</text>
</a>
</g>
</g>
<!-- Node2&#45;&gt;Node3 -->
<g id="edge2_Node000002_Node000003" class="edge">
<title>Node2&#45;&gt;Node3</title>
<g id="a_edge2_Node000002_Node000003"><a xlink:title=" ">
<path fill="none" stroke="#63b8ff" d="M1219.31,-277.19C1210.9,-274.1 1202.63,-270.55 1195,-266.5 1151.88,-243.62 1110.07,-203.48 1089.05,-181.66"/>
<polygon fill="#63b8ff" stroke="#63b8ff" points="1218.23,-280.52 1228.83,-280.49 1220.52,-273.9 1218.23,-280.52"/>
</a>
</g>
</g>
<!-- Node4 -->
<g id="Node000004" class="node">
<title>Node4</title>
<g id="a_Node000004"><a xlink:href="../../da/dd5/classTerraria_1_1Main_ad4ae75332050e0d79634071470f5a909.html#ad4ae75332050e0d79634071470f5a909" target="_top" xlink:title=" ">
<polygon fill="white" stroke="#666666" points="953,-119 789,-119 789,-100 953,-100 953,-119"/>
<text text-anchor="middle" x="871" y="-107" font-family="Helvetica,sans-Serif" font-size="10.00">Terraria.Main.DrawTileEntities</text>
</a>
</g>
</g>
<!-- Node3&#45;&gt;Node4 -->
<g id="edge3_Node000003_Node000004" class="edge">
<title>Node3&#45;&gt;Node4</title>
<g id="a_edge3_Node000003_Node000004"><a xlink:title=" ">
<path fill="none" stroke="#63b8ff" d="M1009.94,-148.62C975.47,-138.84 934.15,-127.12 905.77,-119.08"/>
<polygon fill="#63b8ff" stroke="#63b8ff" points="1009.35,-152.09 1019.93,-151.45 1011.26,-145.35 1009.35,-152.09"/>
</a>
</g>
</g>
<!-- Node5 -->
<g id="Node000005" class="node">
<title>Node5</title>
<g id="a_Node000005"><a xlink:href="../../da/dd5/classTerraria_1_1Main_a3577de5a7f25360eb93079d58db7c623.html#a3577de5a7f25360eb93079d58db7c623" target="_top" xlink:title=" ">
<polygon fill="white" stroke="#666666" points="740.5,-104.5 618.5,-104.5 618.5,-74.5 740.5,-74.5 740.5,-104.5"/>
<text text-anchor="start" x="626.5" y="-92.5" font-family="Helvetica,sans-Serif" font-size="10.00">Terraria.Main.DoDraw</text>
<text text-anchor="middle" x="679.5" y="-81.5" font-family="Helvetica,sans-Serif" font-size="10.00">_Tiles_NonSolid</text>
</a>
</g>
</g>
<!-- Node4&#45;&gt;Node5 -->
<g id="edge4_Node000004_Node000005" class="edge">
<title>Node4&#45;&gt;Node5</title>
<g id="a_edge4_Node000004_Node000005"><a xlink:title=" ">
<path fill="none" stroke="#63b8ff" d="M778.52,-99.85C765.65,-98.49 752.7,-97.12 740.61,-95.84"/>
<polygon fill="#63b8ff" stroke="#63b8ff" points="778.5,-103.36 788.81,-100.93 779.23,-96.4 778.5,-103.36"/>
</a>
</g>
</g>
<!-- Node10 -->
<g id="Node000010" class="node">
<title>Node10</title>
<g id="a_Node000010"><a xlink:href="../../da/dd5/classTerraria_1_1Main_ae56023e484f0560aeca4eb92c99120d0.html#ae56023e484f0560aeca4eb92c99120d0" target="_top" xlink:title=" ">
<polygon fill="white" stroke="#666666" points="740.5,-152.5 618.5,-152.5 618.5,-122.5 740.5,-122.5 740.5,-152.5"/>
<text text-anchor="start" x="626.5" y="-140.5" font-family="Helvetica,sans-Serif" font-size="10.00">Terraria.Main.DoDraw</text>
<text text-anchor="middle" x="679.5" y="-129.5" font-family="Helvetica,sans-Serif" font-size="10.00">_Tiles_Solid</text>
</a>
</g>
</g>
<!-- Node4&#45;&gt;Node10 -->
<g id="edge9_Node000004_Node000010" class="edge">
<title>Node4&#45;&gt;Node10</title>
<g id="a_edge9_Node000004_Node000010"><a xlink:title=" ">
<path fill="none" stroke="#63b8ff" d="M795.58,-120.5C777.34,-123.19 758.06,-126.04 740.59,-128.62"/>
<polygon fill="#63b8ff" stroke="#63b8ff" points="796.2,-123.94 805.58,-119.02 795.18,-117.02 796.2,-123.94"/>
</a>
</g>
</g>
<!-- Node11 -->
<g id="Node000011" class="node">
<title>Node11</title>
<g id="a_Node000011"><a xlink:href="../../da/dd5/classTerraria_1_1Main_ab13ebe846afd6d4cd47586ef70091e91.html#ab13ebe846afd6d4cd47586ef70091e91" target="_top" xlink:title=" ">
<polygon fill="white" stroke="#666666" points="753,-190 606,-190 606,-171 753,-171 753,-190"/>
<text text-anchor="middle" x="679.5" y="-178" font-family="Helvetica,sans-Serif" font-size="10.00">Terraria.Main.DrawCapture</text>
</a>
</g>
</g>
<!-- Node4&#45;&gt;Node11 -->
<g id="edge11_Node000004_Node000011" class="edge">
<title>Node4&#45;&gt;Node11</title>
<g id="a_edge11_Node000004_Node000011"><a xlink:title=" ">
<path fill="none" stroke="#63b8ff" d="M841.93,-123.52C818.55,-134.82 784.16,-150.57 753,-161.5 742.93,-165.03 731.87,-168.25 721.5,-170.99"/>
<polygon fill="#63b8ff" stroke="#63b8ff" points="843.48,-126.66 850.93,-119.13 840.41,-120.37 843.48,-126.66"/>
</a>
</g>
</g>
<!-- Node12 -->
<g id="Node000012" class="node">
<title>Node12</title>
<g id="a_Node000012"><a xlink:href="../../da/dd5/classTerraria_1_1Main_a28b4f7a7c174b4336af28e4ffedbee6b.html#a28b4f7a7c174b4336af28e4ffedbee6b" target="_top" xlink:title=" ">
<polygon fill="white" stroke="#666666" points="750,-56 609,-56 609,-37 750,-37 750,-56"/>
<text text-anchor="middle" x="679.5" y="-44" font-family="Helvetica,sans-Serif" font-size="10.00">Terraria.Main.RenderTiles</text>
</a>
</g>
</g>
<!-- Node4&#45;&gt;Node12 -->
<g id="edge12_Node000004_Node000012" class="edge">
<title>Node4&#45;&gt;Node12</title>
<g id="a_edge12_Node000004_Node000012"><a xlink:title=" ">
<path fill="none" stroke="#63b8ff" d="M816.06,-97.15C806.88,-94.4 797.55,-91.18 789,-87.5 771.78,-80.08 770.25,-72.84 753,-65.5 744.26,-61.78 734.61,-58.64 725.28,-56.04"/>
<polygon fill="#63b8ff" stroke="#63b8ff" points="815.35,-100.59 825.93,-99.96 817.27,-93.85 815.35,-100.59"/>
</a>
</g>
</g>
<!-- Node13 -->
<g id="Node000013" class="node">
<title>Node13</title>
<g id="a_Node000013"><a xlink:href="../../da/dd5/classTerraria_1_1Main_a695c9d156c03ebb6ba6accba1be2002c.html#a695c9d156c03ebb6ba6accba1be2002c" target="_top" xlink:title=" ">
<polygon fill="white" stroke="#666666" points="753,-19 606,-19 606,0 753,0 753,-19"/>
<text text-anchor="middle" x="679.5" y="-7" font-family="Helvetica,sans-Serif" font-size="10.00">Terraria.Main.RenderTiles2</text>
</a>
</g>
</g>
<!-- Node4&#45;&gt;Node13 -->
<g id="edge14_Node000004_Node000013" class="edge">
<title>Node4&#45;&gt;Node13</title>
<g id="a_edge14_Node000004_Node000013"><a xlink:title=" ">
<path fill="none" stroke="#63b8ff" d="M803.48,-96.1C798.34,-93.69 793.43,-90.85 789,-87.5 764.2,-68.73 778,-45.99 753,-27.5 748.41,-24.11 743.26,-21.35 737.87,-19.11"/>
<polygon fill="#63b8ff" stroke="#63b8ff" points="802.36,-99.43 812.94,-99.99 805.02,-92.95 802.36,-99.43"/>
</a>
</g>
</g>
<!-- Node6 -->
<g id="Node000006" class="node">
<title>Node6</title>
<g id="a_Node000006"><a xlink:href="../../da/dd5/classTerraria_1_1Main_a2d44005190710445b2d2cae37fc514bf.html#a2d44005190710445b2d2cae37fc514bf" target="_top" xlink:title=" ">
<polygon fill="white" stroke="#666666" points="570,-105.5 448,-105.5 448,-75.5 570,-75.5 570,-105.5"/>
<text text-anchor="start" x="456" y="-93.5" font-family="Helvetica,sans-Serif" font-size="10.00">Terraria.Main.DoDraw</text>
<text text-anchor="middle" x="509" y="-82.5" font-family="Helvetica,sans-Serif" font-size="10.00">_WallsTilesNPCs</text>
</a>
</g>
</g>
<!-- Node5&#45;&gt;Node6 -->
<g id="edge5_Node000005_Node000006" class="edge">
<title>Node5&#45;&gt;Node6</title>
<g id="a_edge5_Node000005_Node000006"><a xlink:title=" ">
<path fill="none" stroke="#63b8ff" d="M607.77,-89.92C595.28,-89.99 582.39,-90.07 570.22,-90.14"/>
<polygon fill="#63b8ff" stroke="#63b8ff" points="608.16,-93.42 618.14,-89.86 608.12,-86.42 608.16,-93.42"/>
</a>
</g>
</g>
<!-- Node7 -->
<g id="Node000007" class="node">
<title>Node7</title>
<g id="a_Node000007"><a xlink:href="../../da/dd5/classTerraria_1_1Main_a474beeecaea4d6dd108fba56cd554d46.html#a474beeecaea4d6dd108fba56cd554d46" target="_top" xlink:title=" ">
<polygon fill="white" stroke="#666666" points="412,-57 290,-57 290,-38 412,-38 412,-57"/>
<text text-anchor="middle" x="351" y="-45" font-family="Helvetica,sans-Serif" font-size="10.00">Terraria.Main.DoDraw</text>
</a>
</g>
</g>
<!-- Node6&#45;&gt;Node7 -->
<g id="edge6_Node000006_Node000007" class="edge">
<title>Node6&#45;&gt;Node7</title>
<g id="a_edge6_Node000006_Node000007"><a xlink:title=" ">
<path fill="none" stroke="#63b8ff" d="M443.69,-72.77C424.21,-67.4 403.55,-61.71 386.78,-57.09"/>
<polygon fill="#63b8ff" stroke="#63b8ff" points="442.87,-76.18 453.44,-75.46 444.73,-69.43 442.87,-76.18"/>
</a>
</g>
</g>
<!-- Node8 -->
<g id="Node000008" class="node">
<title>Node8</title>
<g id="a_Node000008"><a xlink:href="../../da/dd5/classTerraria_1_1Main_aa597dbafa085227bb056d05d0b0f9abe.html#aa597dbafa085227bb056d05d0b0f9abe" target="_top" xlink:title=" ">
<polygon fill="white" stroke="#666666" points="254,-62.5 145,-62.5 145,-32.5 254,-32.5 254,-62.5"/>
<text text-anchor="start" x="153" y="-50.5" font-family="Helvetica,sans-Serif" font-size="10.00">Terraria.Main.Draw</text>
<text text-anchor="middle" x="199.5" y="-39.5" font-family="Helvetica,sans-Serif" font-size="10.00">_Inner</text>
</a>
</g>
</g>
<!-- Node7&#45;&gt;Node8 -->
<g id="edge7_Node000007_Node000008" class="edge">
<title>Node7&#45;&gt;Node8</title>
<g id="a_edge7_Node000007_Node000008"><a xlink:title=" ">
<path fill="none" stroke="#63b8ff" d="M279.41,-47.5C270.99,-47.5 262.49,-47.5 254.35,-47.5"/>
<polygon fill="#63b8ff" stroke="#63b8ff" points="279.62,-51 289.62,-47.5 279.62,-44 279.62,-51"/>
</a>
</g>
</g>
<!-- Node9 -->
<g id="Node000009" class="node">
<title>Node9</title>
<g id="a_Node000009"><a xlink:href="../../da/dd5/classTerraria_1_1Main_a516aa31311860bad4242ade32e5effcd.html#a516aa31311860bad4242ade32e5effcd" target="_top" xlink:title=" ">
<polygon fill="white" stroke="#666666" points="109,-57 0,-57 0,-38 109,-38 109,-57"/>
<text text-anchor="middle" x="54.5" y="-45" font-family="Helvetica,sans-Serif" font-size="10.00">Terraria.Main.Draw</text>
</a>
</g>
</g>
<!-- Node8&#45;&gt;Node9 -->
<g id="edge8_Node000008_Node000009" class="edge">
<title>Node8&#45;&gt;Node9</title>
<g id="a_edge8_Node000008_Node000009"><a xlink:title=" ">
<path fill="none" stroke="#63b8ff" d="M134.68,-47.5C126.25,-47.5 117.69,-47.5 109.46,-47.5"/>
<polygon fill="#63b8ff" stroke="#63b8ff" points="134.85,-51 144.85,-47.5 134.85,-44 134.85,-51"/>
</a>
</g>
</g>
<!-- Node10&#45;&gt;Node6 -->
<g id="edge10_Node000010_Node000006" class="edge">
<title>Node10&#45;&gt;Node6</title>
<g id="a_edge10_Node000010_Node000006"><a xlink:title=" ">
<path fill="none" stroke="#63b8ff" d="M614.97,-119.78C598.13,-115.08 580.11,-110.06 563.84,-105.52"/>
<polygon fill="#63b8ff" stroke="#63b8ff" points="614.15,-123.18 624.72,-122.5 616.03,-116.44 614.15,-123.18"/>
</a>
</g>
</g>
<!-- Node12&#45;&gt;Node7 -->
<g id="edge13_Node000012_Node000007" class="edge">
<title>Node12&#45;&gt;Node7</title>
<g id="a_edge13_Node000012_Node000007"><a xlink:title=" ">
<path fill="none" stroke="#63b8ff" d="M598.71,-46.74C541.16,-46.92 464.68,-47.15 412.21,-47.32"/>
<polygon fill="#63b8ff" stroke="#63b8ff" points="598.87,-50.24 608.86,-46.71 598.85,-43.24 598.87,-50.24"/>
</a>
</g>
</g>
<!-- Node13&#45;&gt;Node7 -->
<g id="edge15_Node000013_Node000007" class="edge">
<title>Node13&#45;&gt;Node7</title>
<g id="a_edge15_Node000013_Node000007"><a xlink:title=" ">
<path fill="none" stroke="#63b8ff" d="M595.53,-19.16C538.31,-25.82 463.59,-34.51 412.08,-40.51"/>
<polygon fill="#63b8ff" stroke="#63b8ff" points="596.11,-22.61 605.63,-17.98 595.3,-15.66 596.11,-22.61"/>
</a>
</g>
</g>
<!-- Node14&#45;&gt;Node3 -->
<g id="edge17_Node000014_Node000003" class="edge">
<title>Node14&#45;&gt;Node3</title>
<g id="a_edge17_Node000014_Node000003"><a xlink:title=" ">
<path fill="none" stroke="#63b8ff" d="M1425.05,-257.99C1359.27,-259.17 1270.21,-255.44 1195,-233.5 1157.21,-222.47 1118.28,-197.83 1095.38,-181.7"/>
<polygon fill="#63b8ff" stroke="#63b8ff" points="1425.48,-261.48 1435.4,-257.76 1425.33,-254.49 1425.48,-261.48"/>
</a>
</g>
</g>
<!-- Node16 -->
<g id="Node000016" class="node">
<title>Node16</title>
<g id="a_Node000016"><a xlink:href="../../d6/d7b/classTerraria_1_1GameContent_1_1Drawing_1_1TileDrawing_ac14795e6ed4a063177c055d9ad59b872.html#ac14795e6ed4a063177c055d9ad59b872" target="_top" xlink:title=" ">
<polygon fill="white" stroke="#666666" points="1383.5,-224.5 1209.5,-224.5 1209.5,-194.5 1383.5,-194.5 1383.5,-224.5"/>
<text text-anchor="start" x="1217.5" y="-212.5" font-family="Helvetica,sans-Serif" font-size="10.00">Terraria.GameContent.Drawing.</text>
<text text-anchor="middle" x="1296.5" y="-201.5" font-family="Helvetica,sans-Serif" font-size="10.00">TileDrawing.DrawMultiTileGrass</text>
</a>
</g>
</g>
<!-- Node15&#45;&gt;Node16 -->
<g id="edge19_Node000015_Node000016" class="edge">
<title>Node15&#45;&gt;Node16</title>
<g id="a_edge19_Node000015_Node000016"><a xlink:title=" ">
<path fill="none" stroke="#63b8ff" d="M1632.55,-209.5C1555.21,-209.5 1454.37,-209.5 1383.6,-209.5"/>
<polygon fill="#63b8ff" stroke="#63b8ff" points="1632.82,-213 1642.82,-209.5 1632.82,-206 1632.82,-213"/>
</a>
</g>
</g>
<!-- Node16&#45;&gt;Node3 -->
<g id="edge20_Node000016_Node000003" class="edge">
<title>Node16&#45;&gt;Node3</title>
<g id="a_edge20_Node000016_Node000003"><a xlink:title=" ">
<path fill="none" stroke="#63b8ff" d="M1208.44,-192.52C1189.83,-188.89 1170.29,-185.08 1152.08,-181.53"/>
<polygon fill="#63b8ff" stroke="#63b8ff" points="1207.89,-195.98 1218.38,-194.46 1209.23,-189.11 1207.89,-195.98"/>
</a>
</g>
</g>
<!-- Node18 -->
<g id="Node000018" class="node">
<title>Node18</title>
<g id="a_Node000018"><a xlink:href="../../d6/d7b/classTerraria_1_1GameContent_1_1Drawing_1_1TileDrawing_a76fee1d42bee82f9158d669614df46f5.html#a76fee1d42bee82f9158d669614df46f5" target="_top" xlink:title=" ">
<polygon fill="white" stroke="#666666" points="1607,-179.5 1434,-179.5 1434,-149.5 1607,-149.5 1607,-179.5"/>
<text text-anchor="start" x="1442" y="-167.5" font-family="Helvetica,sans-Serif" font-size="10.00">Terraria.GameContent.Drawing.</text>
<text text-anchor="middle" x="1520.5" y="-156.5" font-family="Helvetica,sans-Serif" font-size="10.00">TileDrawing.DrawMultiTileVines</text>
</a>
</g>
</g>
<!-- Node17&#45;&gt;Node18 -->
<g id="edge22_Node000017_Node000018" class="edge">
<title>Node17&#45;&gt;Node18</title>
<g id="a_edge22_Node000017_Node000018"><a xlink:title=" ">
<path fill="none" stroke="#63b8ff" d="M1633.03,-163.01C1624.28,-163.13 1615.55,-163.24 1607.03,-163.36"/>
<polygon fill="#63b8ff" stroke="#63b8ff" points="1633.32,-166.51 1643.28,-162.87 1633.23,-159.51 1633.32,-166.51"/>
</a>
</g>
</g>
<!-- Node18&#45;&gt;Node3 -->
<g id="edge23_Node000018_Node000003" class="edge">
<title>Node18&#45;&gt;Node3</title>
<g id="a_edge23_Node000018_Node000003"><a xlink:title=" ">
<path fill="none" stroke="#63b8ff" d="M1423.4,-164.93C1344.74,-165.29 1234.57,-165.78 1159.31,-166.12"/>
<polygon fill="#63b8ff" stroke="#63b8ff" points="1423.81,-168.43 1433.8,-164.89 1423.78,-161.43 1423.81,-168.43"/>
</a>
</g>
</g>
<!-- Node20 -->
<g id="Node000020" class="node">
<title>Node20</title>
<g id="a_Node000020"><a xlink:href="../../d6/d7b/classTerraria_1_1GameContent_1_1Drawing_1_1TileDrawing_a171f1036f347bbe9e7b7c0fbe5acc795.html#a171f1036f347bbe9e7b7c0fbe5acc795" target="_top" xlink:title=" ">
<polygon fill="white" stroke="#666666" points="1605.5,-87.5 1435.5,-87.5 1435.5,-57.5 1605.5,-57.5 1605.5,-87.5"/>
<text text-anchor="start" x="1443.5" y="-75.5" font-family="Helvetica,sans-Serif" font-size="10.00">Terraria.GameContent.Drawing.</text>
<text text-anchor="middle" x="1520.5" y="-64.5" font-family="Helvetica,sans-Serif" font-size="10.00">TileDrawing.Draw</text>
</a>
</g>
</g>
<!-- Node19&#45;&gt;Node20 -->
<g id="edge25_Node000019_Node000020" class="edge">
<title>Node19&#45;&gt;Node20</title>
<g id="a_edge25_Node000019_Node000020"><a xlink:title=" ">
<path fill="none" stroke="#63b8ff" d="M1651.38,-80.6C1636.26,-79.66 1620.7,-78.69 1605.83,-77.76"/>
<polygon fill="#63b8ff" stroke="#63b8ff" points="1651.57,-84.12 1661.77,-81.25 1652,-77.13 1651.57,-84.12"/>
</a>
</g>
</g>
<!-- Node21 -->
<g id="Node000021" class="node">
<title>Node21</title>
<g id="a_Node000021"><a xlink:href="../../d6/d7b/classTerraria_1_1GameContent_1_1Drawing_1_1TileDrawing_a2a4452e2ee76da220b7f77a3904e9043.html#a2a4452e2ee76da220b7f77a3904e9043" target="_top" xlink:title=" ">
<polygon fill="white" stroke="#666666" points="1381.5,-79 1211.5,-79 1211.5,-38 1381.5,-38 1381.5,-79"/>
<text text-anchor="start" x="1219.5" y="-67" font-family="Helvetica,sans-Serif" font-size="10.00">Terraria.GameContent.Drawing.</text>
<text text-anchor="start" x="1219.5" y="-56" font-family="Helvetica,sans-Serif" font-size="10.00">TileDrawing.DrawEntities</text>
<text text-anchor="middle" x="1296.5" y="-45" font-family="Helvetica,sans-Serif" font-size="10.00">_DisplayDolls</text>
</a>
</g>
</g>
<!-- Node20&#45;&gt;Node21 -->
<g id="edge26_Node000020_Node000021" class="edge">
<title>Node20&#45;&gt;Node21</title>
<g id="a_edge26_Node000020_Node000021"><a xlink:title=" ">
<path fill="none" stroke="#63b8ff" d="M1424.88,-66.53C1410.53,-65.63 1395.8,-64.7 1381.69,-63.81"/>
<polygon fill="#63b8ff" stroke="#63b8ff" points="1425.05,-70.05 1435.25,-67.19 1425.49,-63.06 1425.05,-70.05"/>
</a>
</g>
</g>
<!-- Node22 -->
<g id="Node000022" class="node">
<title>Node22</title>
<g id="a_Node000022"><a xlink:href="../../d6/d7b/classTerraria_1_1GameContent_1_1Drawing_1_1TileDrawing_ac434c998201ac8098ddaf97b1ccd0d71.html#ac434c998201ac8098ddaf97b1ccd0d71" target="_top" xlink:title=" ">
<polygon fill="white" stroke="#666666" points="1381.5,-138 1211.5,-138 1211.5,-97 1381.5,-97 1381.5,-138"/>
<text text-anchor="start" x="1219.5" y="-126" font-family="Helvetica,sans-Serif" font-size="10.00">Terraria.GameContent.Drawing.</text>
<text text-anchor="start" x="1219.5" y="-115" font-family="Helvetica,sans-Serif" font-size="10.00">TileDrawing.DrawEntities</text>
<text text-anchor="middle" x="1296.5" y="-104" font-family="Helvetica,sans-Serif" font-size="10.00">_HatRacks</text>
</a>
</g>
</g>
<!-- Node20&#45;&gt;Node22 -->
<g id="edge28_Node000020_Node000022" class="edge">
<title>Node20&#45;&gt;Node22</title>
<g id="a_edge28_Node000020_Node000022"><a xlink:title=" ">
<path fill="none" stroke="#63b8ff" d="M1435.08,-89.61C1417.57,-93.16 1399.12,-96.9 1381.62,-100.45"/>
<polygon fill="#63b8ff" stroke="#63b8ff" points="1436.16,-92.96 1445.27,-87.55 1434.77,-86.1 1436.16,-92.96"/>
</a>
</g>
</g>
<!-- Node23 -->
<g id="Node000023" class="node">
<title>Node23</title>
<g id="a_Node000023"><a xlink:href="../../da/dd5/classTerraria_1_1Main_a0d0e70c8208ab1445ae343cb0287a0c6.html#a0d0e70c8208ab1445ae343cb0287a0c6" target="_top" xlink:title=" ">
<polygon fill="white" stroke="#666666" points="937,-79 805,-79 805,-60 937,-60 937,-79"/>
<text text-anchor="middle" x="871" y="-67" font-family="Helvetica,sans-Serif" font-size="10.00">Terraria.Main.DrawTiles</text>
</a>
</g>
</g>
<!-- Node20&#45;&gt;Node23 -->
<g id="edge30_Node000020_Node000023" class="edge">
<title>Node20&#45;&gt;Node23</title>
<g id="a_edge30_Node000020_Node000023"><a xlink:title=" ">
<path fill="none" stroke="#63b8ff" d="M1478.14,-53.46C1455.09,-43.9 1425.55,-33.34 1398,-28.5 1217.56,3.17 998.01,-39.67 910.6,-59.93"/>
<polygon fill="#63b8ff" stroke="#63b8ff" points="1477.02,-56.79 1487.6,-57.48 1479.76,-50.35 1477.02,-56.79"/>
</a>
</g>
</g>
<!-- Node21&#45;&gt;Node3 -->
<g id="edge27_Node000021_Node000003" class="edge">
<title>Node21&#45;&gt;Node3</title>
<g id="a_edge27_Node000021_Node000003"><a xlink:title=" ">
<path fill="none" stroke="#63b8ff" d="M1206.27,-82.67C1202.43,-84.21 1198.65,-85.82 1195,-87.5 1156.71,-105.13 1116.68,-133.91 1093.89,-151.44"/>
<polygon fill="#63b8ff" stroke="#63b8ff" points="1207.84,-85.82 1215.95,-79.01 1205.36,-79.28 1207.84,-85.82"/>
</a>
</g>
</g>
<!-- Node22&#45;&gt;Node3 -->
<g id="edge29_Node000022_Node000003" class="edge">
<title>Node22&#45;&gt;Node3</title>
<g id="a_edge29_Node000022_Node000003"><a xlink:title=" ">
<path fill="none" stroke="#63b8ff" d="M1201.31,-138.43C1181.65,-142.8 1161.3,-147.32 1142.83,-151.43"/>
<polygon fill="#63b8ff" stroke="#63b8ff" points="1202.19,-141.82 1211.19,-136.23 1200.67,-134.99 1202.19,-141.82"/>
</a>
</g>
</g>
<!-- Node23&#45;&gt;Node5 -->
<g id="edge31_Node000023_Node000005" class="edge">
<title>Node23&#45;&gt;Node5</title>
<g id="a_edge31_Node000023_Node000005"><a xlink:title=" ">
<path fill="none" stroke="#63b8ff" d="M794.66,-77.45C776.75,-79.34 757.87,-81.33 740.74,-83.14"/>
<polygon fill="#63b8ff" stroke="#63b8ff" points="795.21,-80.91 804.78,-76.38 794.47,-73.95 795.21,-80.91"/>
</a>
</g>
</g>
<!-- Node23&#45;&gt;Node10 -->
<g id="edge32_Node000023_Node000010" class="edge">
<title>Node23&#45;&gt;Node10</title>
<g id="a_edge32_Node000023_Node000010"><a xlink:title=" ">
<path fill="none" stroke="#63b8ff" d="M813.23,-81.78C804.96,-84.26 796.66,-87.16 789,-90.5 771.6,-98.09 770.14,-105.34 753,-113.5 746.18,-116.75 738.8,-119.74 731.45,-122.43"/>
<polygon fill="#63b8ff" stroke="#63b8ff" points="814.22,-85.13 822.89,-79.04 812.32,-78.4 814.22,-85.13"/>
</a>
</g>
</g>
<!-- Node23&#45;&gt;Node11 -->
<g id="edge33_Node000023_Node000011" class="edge">
<title>Node23&#45;&gt;Node11</title>
<g id="a_edge33_Node000023_Node000011"><a xlink:title=" ">
<path fill="none" stroke="#63b8ff" d="M799.94,-83.35C796.06,-85.42 792.37,-87.78 789,-90.5 761.44,-112.68 780.53,-139.28 753,-161.5 748.24,-165.34 742.78,-168.41 737.05,-170.86"/>
<polygon fill="#63b8ff" stroke="#63b8ff" points="801.66,-86.42 809.29,-79.07 798.74,-80.05 801.66,-86.42"/>
</a>
</g>
</g>
<!-- Node23&#45;&gt;Node12 -->
<g id="edge34_Node000023_Node000012" class="edge">
<title>Node23&#45;&gt;Node12</title>
<g id="a_edge34_Node000023_Node000012"><a xlink:title=" ">
<path fill="none" stroke="#63b8ff" d="M794.71,-60.36C779.97,-58.57 764.58,-56.7 750.04,-54.94"/>
<polygon fill="#63b8ff" stroke="#63b8ff" points="794.44,-63.85 804.78,-61.58 795.28,-56.91 794.44,-63.85"/>
</a>
</g>
</g>
<!-- Node23&#45;&gt;Node13 -->
<g id="edge35_Node000023_Node000013" class="edge">
<title>Node23&#45;&gt;Node13</title>
<g id="a_edge35_Node000023_Node000013"><a xlink:title=" ">
<path fill="none" stroke="#63b8ff" d="M836.19,-56.34C812.99,-47.56 781.38,-36.09 753,-27.5 743.07,-24.49 732.27,-21.61 722.1,-19.06"/>
<polygon fill="#63b8ff" stroke="#63b8ff" points="835,-59.63 845.59,-59.92 837.49,-53.09 835,-59.63"/>
</a>
</g>
</g>
</g>
</svg>

<g id="navigator" transform="translate(0 0)" fill="#404254">
  <rect fill="#f2f5e9" fill-opacity="0.5" stroke="#606060" stroke-width=".5" x="0" y="0" width="60" height="60"/>
  <use id="zoomplus" xlink:href="#zoomPlus" x="17" y="9" onmousedown="handleZoom(evt,'in')"/>
  <use id="zoomminus" xlink:href="#zoomMin" x="42" y="9" onmousedown="handleZoom(evt,'out')"/>
  <use id="reset" xlink:href="#resetDef" x="30" y="36" onmousedown="handleReset()"/>
   <use id="arrowup" xlink:href="#arrowUp" x="0" y="0" onmousedown="handlePan(0,-1)"/>
  <use id="arrowright" xlink:href="#arrowRight" x="0" y="0" onmousedown="handlePan(1,0)"/>
  <use id="arrowdown" xlink:href="#arrowDown" x="0" y="0" onmousedown="handlePan(0,1)"/>
  <use id="arrowleft" xlink:href="#arrowLeft" x="0" y="0" onmousedown="handlePan(-1,0)"/>
</g>
<svg viewBox="0 0 15 15" width="100%" height="30px" preserveAspectRatio="xMaxYMin meet">
 <g id="arrow_out" transform="scale(0.3 0.3)">
  <a xlink:href="classTerraria_1_1GameContent_1_1Drawing_1_1TileDrawing_ac23787be47cafd758dcf0d43424e24a7_ac23787be47cafd758dcf0d43424e24a7_icgraph_org.svg" target="_base">
   <rect id="button" ry="5" rx="5" y="6" x="6" height="38" width="38"
        fill="#f2f5e9" fill-opacity="0.5" stroke="#606060" stroke-width="1.0"/>
   <path id="arrow"
     d="M 11.500037,31.436501 C 11.940474,20.09759 22.043105,11.32322 32.158766,21.979434 L 37.068811,17.246167 C 37.068811,17.246167 37.088388,32 37.088388,32 L 22.160133,31.978069 C 22.160133,31.978069 26.997745,27.140456 26.997745,27.140456 C 18.528582,18.264221 13.291696,25.230495 11.500037,31.436501 z"
     style="fill:#404040;"/>
  </a>
 </g>
</svg>

<style type='text/css'>
<![CDATA[
[data-mouse-over-selected='false'] { opacity: 0.7; }
[data-mouse-over-selected='true']  { opacity: 1.0; }
]]>
</style>
<script type="application/ecmascript"><![CDATA[
document.addEventListener('DOMContentLoaded', (event) => {
  highlightEdges();
  highlightAdjacentNodes();
});
]]></script>
</svg>
