<?xml version="1.0" encoding="UTF-8" standalone="no"?>
<!DOCTYPE svg PUBLIC "-//W3C//DTD SVG 1.1//EN"
 "http://www.w3.org/Graphics/SVG/1.1/DTD/svg11.dtd">
<!-- Generated by graphviz version 2.43.0 (0)
 -->
<!-- Title: Terraria.GameContent.Drawing.TileDrawing.DrawAnimatedTile_AdjustForVisionChangers Pages: 1 -->
<!--zoomable 296 -->

<svg id="main" version="1.1" xmlns="http://www.w3.org/2000/svg" xmlns:xlink="http://www.w3.org/1999/xlink" xml:space="preserve" onload="init(evt)">
<style type="text/css"><![CDATA[
.node, .edge {opacity: 0.7;}
.node.selected, .edge.selected {opacity: 1;}
.edge:hover path { stroke: red; }
.edge:hover polygon { stroke: red; fill: red; }
]]></style>

<defs>
  <circle id="rim" cx="0" cy="0" r="7"/>
  <circle id="rim2" cx="0" cy="0" r="3.5"/>
  <g id="zoomPlus">
    <use xlink:href="#rim" fill="#404040"><set attributeName="fill" to="#808080" begin="zoomplus.mouseover" end="zoomplus.mouseout"/></use>
    <path d="M-4,0h8M0,-4v8" fill="none" stroke="white" stroke-width="1.5" pointer-events="none"/>
  </g>
  <g id="zoomMin">
    <use xlink:href="#rim" fill="#404040"><set attributeName="fill" to="#808080" begin="zoomminus.mouseover" end="zoomminus.mouseout"/></use>
    <path d="M-4,0h8" fill="none" stroke="white" stroke-width="1.5" pointer-events="none"/>
  </g>
  <g id="arrowUp" transform="translate(30 24)">
    <use xlink:href="#rim"/>
    <path pointer-events="none" fill="none" stroke="white" stroke-width="1.5" d="M0,-3.0v7 M-2.5,-0.5L0,-3.0L2.5,-0.5"/>
  </g>
  <g id="arrowRight" transform="rotate(90) translate(36 -43)">
    <use xlink:href="#rim"/>
    <path pointer-events="none" fill="none" stroke="white" stroke-width="1.5" d="M0,-3.0v7 M-2.5,-0.5L0,-3.0L2.5,-0.5"/>
  </g>
  <g id="arrowDown" transform="rotate(180) translate(-30 -48)">
    <use xlink:href="#rim"/>
    <path pointer-events="none" fill="none" stroke="white" stroke-width="1.5" d="M0,-3.0v7 M-2.5,-0.5L0,-3.0L2.5,-0.5"/>
  </g>
  <g id="arrowLeft" transform="rotate(270) translate(-36 17)">
    <use xlink:href="#rim"/>
    <path pointer-events="none" fill="none" stroke="white" stroke-width="1.5" d="M0,-3.0v7 M-2.5,-0.5L0,-3.0L2.5,-0.5"/>
  </g>
  <g id="resetDef">
    <use xlink:href="#rim2" fill="#404040"><set attributeName="fill" to="#808080" begin="reset.mouseover" end="reset.mouseout"/></use>
  </g>
</defs>
<script type="application/ecmascript">
var viewWidth = 796;
var viewHeight = 296;
var sectionId = 'dynsection-0';
</script>
<script type="application/ecmascript" xlink:href="../../svg.min.js"/>
<svg id="graph" class="graph">
<g id="viewport">
<title>Terraria.GameContent.Drawing.TileDrawing.DrawAnimatedTile_AdjustForVisionChangers</title>
<!-- Node1 -->
<g id="Node000001" class="node">
<title>Node1</title>
<g id="a_Node000001"><a xlink:title=" ">
<polygon fill="#999999" stroke="#666666" points="170,-146.5 0,-146.5 0,-105.5 170,-105.5 170,-146.5"/>
<text text-anchor="start" x="8" y="-134.5" font-family="Helvetica,sans-Serif" font-size="10.00">Terraria.GameContent.Drawing.</text>
<text text-anchor="start" x="8" y="-123.5" font-family="Helvetica,sans-Serif" font-size="10.00">TileDrawing.DrawAnimatedTile</text>
<text text-anchor="middle" x="85" y="-112.5" font-family="Helvetica,sans-Serif" font-size="10.00">_AdjustForVisionChangers</text>
</a>
</g>
</g>
<!-- Node2 -->
<g id="Node000002" class="node">
<title>Node2</title>
<g id="a_Node000002"><a xlink:href="../../da/dd5/classTerraria_1_1Main_ae6c0dd76f2c7fe5f3b4e3fa8e30cc35a.html#ae6c0dd76f2c7fe5f3b4e3fa8e30cc35a" target="_top" xlink:title=" ">
<polygon fill="white" stroke="#666666" points="361.5,-250 220.5,-250 220.5,-220 361.5,-220 361.5,-250"/>
<text text-anchor="start" x="228.5" y="-238" font-family="Helvetica,sans-Serif" font-size="10.00">Terraria.Main.IsTileBiome</text>
<text text-anchor="middle" x="291" y="-227" font-family="Helvetica,sans-Serif" font-size="10.00">Sightable</text>
</a>
</g>
</g>
<!-- Node1&#45;&gt;Node2 -->
<g id="edge1_Node000001_Node000002" class="edge">
<title>Node1&#45;&gt;Node2</title>
<g id="a_edge1_Node000001_Node000002"><a xlink:title=" ">
<path fill="none" stroke="#63b8ff" d="M109.74,-146.53C132.91,-165.62 169.86,-193.66 206,-211 210.03,-212.93 214.25,-214.74 218.56,-216.42"/>
<polygon fill="#63b8ff" stroke="#63b8ff" points="217.5,-219.76 228.09,-219.91 219.9,-213.19 217.5,-219.76"/>
</a>
</g>
</g>
<!-- Node3 -->
<g id="Node000003" class="node">
<title>Node3</title>
<g id="a_Node000003"><a xlink:href="../../d6/d7b/classTerraria_1_1GameContent_1_1Drawing_1_1TileDrawing_a771dea0d2f3b5f3599d242ed06305d49.html#a771dea0d2f3b5f3599d242ed06305d49" target="_top" xlink:title=" ">
<polygon fill="white" stroke="#666666" points="376,-202 206,-202 206,-172 376,-172 376,-202"/>
<text text-anchor="start" x="214" y="-190" font-family="Helvetica,sans-Serif" font-size="10.00">Terraria.GameContent.Drawing.</text>
<text text-anchor="middle" x="291" y="-179" font-family="Helvetica,sans-Serif" font-size="10.00">TileDrawing.IsTileDangerous</text>
</a>
</g>
</g>
<!-- Node1&#45;&gt;Node3 -->
<g id="edge3_Node000001_Node000003" class="edge">
<title>Node1&#45;&gt;Node3</title>
<g id="a_edge3_Node000001_Node000003"><a xlink:title=" ">
<path fill="none" stroke="#63b8ff" d="M151.63,-146.51C169.26,-151.94 188.34,-157.76 206,-163 212.8,-165.02 219.91,-167.1 227,-169.15"/>
<polygon fill="#63b8ff" stroke="#63b8ff" points="226.05,-172.52 236.63,-171.93 227.99,-165.8 226.05,-172.52"/>
</a>
</g>
</g>
<!-- Node10 -->
<g id="Node000010" class="node">
<title>Node10</title>
<g id="a_Node000010"><a xlink:href="../../da/dd5/classTerraria_1_1Main_a1cb99df722d9c0f0c72327a49d984ddc.html#a1cb99df722d9c0f0c72327a49d984ddc" target="_top" xlink:title=" ">
<polygon fill="white" stroke="#666666" points="375.5,-135.5 206.5,-135.5 206.5,-116.5 375.5,-116.5 375.5,-135.5"/>
<text text-anchor="middle" x="291" y="-123.5" font-family="Helvetica,sans-Serif" font-size="10.00">Terraria.Main.IsTileSpelunkable</text>
</a>
</g>
</g>
<!-- Node1&#45;&gt;Node10 -->
<g id="edge10_Node000001_Node000010" class="edge">
<title>Node1&#45;&gt;Node10</title>
<g id="a_edge10_Node000001_Node000010"><a xlink:title=" ">
<path fill="none" stroke="#63b8ff" d="M170.15,-126C178.75,-126 187.52,-126 196.22,-126"/>
<polygon fill="#63b8ff" stroke="#63b8ff" points="196.37,-129.5 206.37,-126 196.37,-122.5 196.37,-129.5"/>
</a>
</g>
</g>
<!-- Node11 -->
<g id="Node000011" class="node">
<title>Node11</title>
<g id="a_Node000011"><a xlink:href="../../dc/de5/classTerraria_1_1Dust_a977a36a9376966862406a3094e3b70ab.html#a977a36a9376966862406a3094e3b70ab" target="_top" xlink:title="Attempts to spawn a single Dust into the game world. The Position, Width, and Height parameters dicta...">
<polygon fill="white" stroke="#666666" points="354,-98.5 228,-98.5 228,-79.5 354,-79.5 354,-98.5"/>
<text text-anchor="middle" x="291" y="-86.5" font-family="Helvetica,sans-Serif" font-size="10.00">Terraria.Dust.NewDust</text>
</a>
</g>
</g>
<!-- Node1&#45;&gt;Node11 -->
<g id="edge12_Node000001_Node000011" class="edge">
<title>Node1&#45;&gt;Node11</title>
<g id="a_edge12_Node000001_Node000011"><a xlink:title=" ">
<path fill="none" stroke="#63b8ff" d="M170.15,-110.74C189.41,-107.24 209.55,-103.59 227.7,-100.3"/>
<polygon fill="#63b8ff" stroke="#63b8ff" points="228.35,-103.74 237.56,-98.51 227.1,-96.85 228.35,-103.74"/>
</a>
</g>
</g>
<!-- Node15 -->
<g id="Node000015" class="node">
<title>Node15</title>
<g id="a_Node000015"><a xlink:href="../../d9/db1/classTerraria_1_1Utilities_1_1UnifiedRandom_ac4ecc6320b69ab939b9c45eaf7d89000.html#ac4ecc6320b69ab939b9c45eaf7d89000" target="_top" xlink:title=" ">
<polygon fill="white" stroke="#666666" points="357,-46 225,-46 225,-16 357,-16 357,-46"/>
<text text-anchor="start" x="233" y="-34" font-family="Helvetica,sans-Serif" font-size="10.00">Terraria.Utilities.Unified</text>
<text text-anchor="middle" x="291" y="-23" font-family="Helvetica,sans-Serif" font-size="10.00">Random.Next</text>
</a>
</g>
</g>
<!-- Node1&#45;&gt;Node15 -->
<g id="edge16_Node000001_Node000015" class="edge">
<title>Node1&#45;&gt;Node15</title>
<g id="a_edge16_Node000001_Node000015"><a xlink:title=" ">
<path fill="none" stroke="#63b8ff" d="M129.88,-105.5C152.59,-94.89 180.78,-81.74 206,-70 219.61,-63.67 234.46,-56.77 247.84,-50.56"/>
<polygon fill="#63b8ff" stroke="#63b8ff" points="249.68,-53.56 257.28,-46.17 246.74,-47.21 249.68,-53.56"/>
</a>
</g>
</g>
<!-- Node2&#45;&gt;Node2 -->
<g id="edge2_Node000002_Node000002" class="edge">
<title>Node2&#45;&gt;Node2</title>
<g id="a_edge2_Node000002_Node000002"><a xlink:title=" ">
<path fill="none" stroke="#63b8ff" d="M254.79,-250.28C246.74,-259.41 258.81,-268 291,-268 310.11,-268 322.13,-264.97 327.06,-260.6"/>
<polygon fill="#63b8ff" stroke="#63b8ff" points="330.56,-260.33 327.21,-250.28 323.56,-260.22 330.56,-260.33"/>
</a>
</g>
</g>
<!-- Node4 -->
<g id="Node000004" class="node">
<title>Node4</title>
<g id="a_Node000004"><a xlink:href="../../d6/d21/structTerraria_1_1Tile_a68f45508d63b5e1bac9a703a1a99853b.html#a68f45508d63b5e1bac9a703a1a99853b" target="_top" xlink:title="Legacy code, use P:Terraria.Tile.IsActuated instead.">
<polygon fill="white" stroke="#666666" points="555.5,-287.5 438.5,-287.5 438.5,-268.5 555.5,-268.5 555.5,-287.5"/>
<text text-anchor="middle" x="497" y="-275.5" font-family="Helvetica,sans-Serif" font-size="10.00">Terraria.Tile.inActive</text>
</a>
</g>
</g>
<!-- Node3&#45;&gt;Node4 -->
<g id="edge4_Node000003_Node000004" class="edge">
<title>Node3&#45;&gt;Node4</title>
<g id="a_edge4_Node000003_Node000004"><a xlink:title=" ">
<path fill="none" stroke="#63b8ff" d="M359.82,-202.08C365.52,-204.61 371,-207.56 376,-211 397.97,-226.12 389.62,-244.5 412,-259 417.06,-262.28 422.62,-265 428.39,-267.25"/>
<polygon fill="#63b8ff" stroke="#63b8ff" points="427.64,-270.7 438.24,-270.62 429.91,-264.07 427.64,-270.7"/>
</a>
</g>
</g>
<!-- Node5 -->
<g id="Node000005" class="node">
<title>Node5</title>
<g id="a_Node000005"><a xlink:href="../../de/d1f/classTerraria_1_1Minecart_aa5ab90695aecedb2d565ed8a2556bfd5.html#aa5ab90695aecedb2d565ed8a2556bfd5" target="_top" xlink:title=" ">
<polygon fill="white" stroke="#666666" points="573,-250 421,-250 421,-220 573,-220 573,-250"/>
<text text-anchor="start" x="429" y="-238" font-family="Helvetica,sans-Serif" font-size="10.00">Terraria.Minecart.IsPressure</text>
<text text-anchor="middle" x="497" y="-227" font-family="Helvetica,sans-Serif" font-size="10.00">Plate</text>
</a>
</g>
</g>
<!-- Node3&#45;&gt;Node5 -->
<g id="edge5_Node000003_Node000005" class="edge">
<title>Node3&#45;&gt;Node5</title>
<g id="a_edge5_Node000003_Node000005"><a xlink:title=" ">
<path fill="none" stroke="#63b8ff" d="M355.99,-202.06C377.06,-207.01 400.67,-212.57 422.4,-217.68"/>
<polygon fill="#63b8ff" stroke="#63b8ff" points="421.7,-221.11 432.24,-220 423.31,-214.3 421.7,-221.11"/>
</a>
</g>
</g>
<!-- Node7 -->
<g id="Node000007" class="node">
<title>Node7</title>
<g id="a_Node000007"><a xlink:href="../../d1/d70/classTerraria_1_1ModLoader_1_1TileLoader_a872ab2042699da6ba8c63f7de055a50e.html#a872ab2042699da6ba8c63f7de055a50e" target="_top" xlink:title=" ">
<polygon fill="white" stroke="#666666" points="580,-202 414,-202 414,-172 580,-172 580,-202"/>
<text text-anchor="start" x="422" y="-190" font-family="Helvetica,sans-Serif" font-size="10.00">Terraria.ModLoader.TileLoader.</text>
<text text-anchor="middle" x="497" y="-179" font-family="Helvetica,sans-Serif" font-size="10.00">IsTileDangerous</text>
</a>
</g>
</g>
<!-- Node3&#45;&gt;Node7 -->
<g id="edge7_Node000003_Node000007" class="edge">
<title>Node3&#45;&gt;Node7</title>
<g id="a_edge7_Node000003_Node000007"><a xlink:title=" ">
<path fill="none" stroke="#63b8ff" d="M376.15,-187C385.16,-187 394.37,-187 403.47,-187"/>
<polygon fill="#63b8ff" stroke="#63b8ff" points="403.68,-190.5 413.68,-187 403.68,-183.5 403.68,-190.5"/>
</a>
</g>
</g>
<!-- Node9 -->
<g id="Node000009" class="node">
<title>Node9</title>
<g id="a_Node000009"><a xlink:href="../../d6/d21/structTerraria_1_1Tile_ab9bfb24365d03f2b4fe0842f6a406765.html#ab9bfb24365d03f2b4fe0842f6a406765" target="_top" xlink:title="Legacy code, use P:Terraria.Tile.Slope instead.">
<polygon fill="white" stroke="#666666" points="549,-153.5 445,-153.5 445,-134.5 549,-134.5 549,-153.5"/>
<text text-anchor="middle" x="497" y="-141.5" font-family="Helvetica,sans-Serif" font-size="10.00">Terraria.Tile.slope</text>
</a>
</g>
</g>
<!-- Node3&#45;&gt;Node9 -->
<g id="edge9_Node000003_Node000009" class="edge">
<title>Node3&#45;&gt;Node9</title>
<g id="a_edge9_Node000003_Node000009"><a xlink:title=" ">
<path fill="none" stroke="#63b8ff" d="M363.35,-171.96C388.78,-166.6 417.02,-160.65 440.89,-155.62"/>
<polygon fill="#63b8ff" stroke="#63b8ff" points="441.76,-159.01 450.82,-153.52 440.32,-152.16 441.76,-159.01"/>
</a>
</g>
</g>
<!-- Node6 -->
<g id="Node000006" class="node">
<title>Node6</title>
<g id="a_Node000006"><a xlink:href="../../d6/d21/structTerraria_1_1Tile_a9a3f37926e6d7f23ba057d6c0aeab1a5.html#a9a3f37926e6d7f23ba057d6c0aeab1a5" target="_top" xlink:title="Legacy code, use P:Terraria.Tile.HasTile instead.">
<polygon fill="white" stroke="#666666" points="756.5,-244.5 649.5,-244.5 649.5,-225.5 756.5,-225.5 756.5,-244.5"/>
<text text-anchor="middle" x="703" y="-232.5" font-family="Helvetica,sans-Serif" font-size="10.00">Terraria.Tile.active</text>
</a>
</g>
</g>
<!-- Node5&#45;&gt;Node6 -->
<g id="edge6_Node000005_Node000006" class="edge">
<title>Node5&#45;&gt;Node6</title>
<g id="a_edge6_Node000005_Node000006"><a xlink:title=" ">
<path fill="none" stroke="#63b8ff" d="M573.09,-235C594.86,-235 618.4,-235 639.32,-235"/>
<polygon fill="#63b8ff" stroke="#63b8ff" points="639.37,-238.5 649.37,-235 639.37,-231.5 639.37,-238.5"/>
</a>
</g>
</g>
<!-- Node8 -->
<g id="Node000008" class="node">
<title>Node8</title>
<g id="a_Node000008"><a xlink:href="../../d1/d70/classTerraria_1_1ModLoader_1_1TileLoader_a046d2f0670d83bdc212241b0f87ff2de.html#a046d2f0670d83bdc212241b0f87ff2de" target="_top" xlink:title="Gets the ModTile instance with the given type. If no ModTile with the given type exists,...">
<polygon fill="white" stroke="#666666" points="786,-202 620,-202 620,-172 786,-172 786,-202"/>
<text text-anchor="start" x="628" y="-190" font-family="Helvetica,sans-Serif" font-size="10.00">Terraria.ModLoader.TileLoader.</text>
<text text-anchor="middle" x="703" y="-179" font-family="Helvetica,sans-Serif" font-size="10.00">GetTile</text>
</a>
</g>
</g>
<!-- Node7&#45;&gt;Node8 -->
<g id="edge8_Node000007_Node000008" class="edge">
<title>Node7&#45;&gt;Node8</title>
<g id="a_edge8_Node000007_Node000008"><a xlink:title=" ">
<path fill="none" stroke="#63b8ff" d="M580.09,-187C589.79,-187 599.73,-187 609.56,-187"/>
<polygon fill="#63b8ff" stroke="#63b8ff" points="609.74,-190.5 619.74,-187 609.74,-183.5 609.74,-190.5"/>
</a>
</g>
</g>
<!-- Node10&#45;&gt;Node10 -->
<g id="edge11_Node000010_Node000010" class="edge">
<title>Node10&#45;&gt;Node10</title>
<g id="a_edge11_Node000010_Node000010"><a xlink:title=" ">
<path fill="none" stroke="#63b8ff" d="M259.25,-135.58C243.8,-144.23 254.39,-153.5 291,-153.5 316.74,-153.5 329.62,-148.92 329.62,-143.19"/>
<polygon fill="#63b8ff" stroke="#63b8ff" points="332.05,-140.66 322.75,-135.58 326.86,-145.35 332.05,-140.66"/>
</a>
</g>
</g>
<!-- Node12 -->
<g id="Node000012" class="node">
<title>Node12</title>
<g id="a_Node000012"><a xlink:href="../../df/dd6/classTerraria_1_1ModLoader_1_1DustLoader_a8374be843b9b2b0143bc000e8663d3ec.html#a8374be843b9b2b0143bc000e8663d3ec" target="_top" xlink:title=" ">
<polygon fill="white" stroke="#666666" points="582,-116 412,-116 412,-86 582,-86 582,-116"/>
<text text-anchor="start" x="420" y="-104" font-family="Helvetica,sans-Serif" font-size="10.00">Terraria.ModLoader.DustLoader.</text>
<text text-anchor="middle" x="497" y="-93" font-family="Helvetica,sans-Serif" font-size="10.00">SetupDust</text>
</a>
</g>
</g>
<!-- Node11&#45;&gt;Node12 -->
<g id="edge13_Node000011_Node000012" class="edge">
<title>Node11&#45;&gt;Node12</title>
<g id="a_edge13_Node000011_Node000012"><a xlink:title=" ">
<path fill="none" stroke="#63b8ff" d="M354.04,-92.65C369.08,-93.53 385.51,-94.5 401.68,-95.45"/>
<polygon fill="#63b8ff" stroke="#63b8ff" points="401.5,-98.95 411.69,-96.04 401.92,-91.96 401.5,-98.95"/>
</a>
</g>
</g>
<!-- Node14 -->
<g id="Node000014" class="node">
<title>Node14</title>
<g id="a_Node000014"><a xlink:href="../../de/d1d/classTerraria_1_1Collision_a1c65206ace403aa59afc32d20e5d282e.html#a1c65206ace403aa59afc32d20e5d282e" target="_top" xlink:title=" ">
<polygon fill="white" stroke="#666666" points="578,-67.5 416,-67.5 416,-48.5 578,-48.5 578,-67.5"/>
<text text-anchor="middle" x="497" y="-55.5" font-family="Helvetica,sans-Serif" font-size="10.00">Terraria.Collision.WetCollision</text>
</a>
</g>
</g>
<!-- Node11&#45;&gt;Node14 -->
<g id="edge15_Node000011_Node000014" class="edge">
<title>Node11&#45;&gt;Node14</title>
<g id="a_edge15_Node000011_Node000014"><a xlink:title=" ">
<path fill="none" stroke="#63b8ff" d="M354.04,-79.57C375.89,-76.25 400.65,-72.49 423.3,-69.05"/>
<polygon fill="#63b8ff" stroke="#63b8ff" points="423.84,-72.51 433.2,-67.54 422.79,-65.59 423.84,-72.51"/>
</a>
</g>
</g>
<!-- Node13 -->
<g id="Node000013" class="node">
<title>Node13</title>
<g id="a_Node000013"><a xlink:href="../../df/dd6/classTerraria_1_1ModLoader_1_1DustLoader_a0cb616c3c6776d3bba899e7f1fb0e221.html#a0cb616c3c6776d3bba899e7f1fb0e221" target="_top" xlink:title="Gets the ModDust instance with the given type. Returns null if no ModDust with the given type exists.">
<polygon fill="white" stroke="#666666" points="788,-116 618,-116 618,-86 788,-86 788,-116"/>
<text text-anchor="start" x="626" y="-104" font-family="Helvetica,sans-Serif" font-size="10.00">Terraria.ModLoader.DustLoader.</text>
<text text-anchor="middle" x="703" y="-93" font-family="Helvetica,sans-Serif" font-size="10.00">GetDust</text>
</a>
</g>
</g>
<!-- Node12&#45;&gt;Node13 -->
<g id="edge14_Node000012_Node000013" class="edge">
<title>Node12&#45;&gt;Node13</title>
<g id="a_edge14_Node000012_Node000013"><a xlink:title=" ">
<path fill="none" stroke="#63b8ff" d="M582.15,-101C590.5,-101 599.02,-101 607.46,-101"/>
<polygon fill="#63b8ff" stroke="#63b8ff" points="607.71,-104.5 617.71,-101 607.71,-97.5 607.71,-104.5"/>
</a>
</g>
</g>
<!-- Node16 -->
<g id="Node000016" class="node">
<title>Node16</title>
<g id="a_Node000016"><a xlink:href="../../d9/db1/classTerraria_1_1Utilities_1_1UnifiedRandom_a173f09196ff526b107c0223c2d58c59a.html#a173f09196ff526b107c0223c2d58c59a" target="_top" xlink:title=" ">
<polygon fill="white" stroke="#666666" points="564,-30 430,-30 430,0 564,0 564,-30"/>
<text text-anchor="start" x="438" y="-18" font-family="Helvetica,sans-Serif" font-size="10.00">Terraria.Utilities.Unified</text>
<text text-anchor="middle" x="497" y="-7" font-family="Helvetica,sans-Serif" font-size="10.00">Random.InternalSample</text>
</a>
</g>
</g>
<!-- Node15&#45;&gt;Node16 -->
<g id="edge17_Node000015_Node000016" class="edge">
<title>Node15&#45;&gt;Node16</title>
<g id="a_edge17_Node000015_Node000016"><a xlink:title=" ">
<path fill="none" stroke="#63b8ff" d="M357.11,-25.89C377.05,-24.33 399.16,-22.59 419.78,-20.98"/>
<polygon fill="#63b8ff" stroke="#63b8ff" points="420.06,-24.47 429.76,-20.2 419.52,-17.49 420.06,-24.47"/>
</a>
</g>
</g>
</g>
</svg>

<g id="navigator" transform="translate(0 0)" fill="#404254">
  <rect fill="#f2f5e9" fill-opacity="0.5" stroke="#606060" stroke-width=".5" x="0" y="0" width="60" height="60"/>
  <use id="zoomplus" xlink:href="#zoomPlus" x="17" y="9" onmousedown="handleZoom(evt,'in')"/>
  <use id="zoomminus" xlink:href="#zoomMin" x="42" y="9" onmousedown="handleZoom(evt,'out')"/>
  <use id="reset" xlink:href="#resetDef" x="30" y="36" onmousedown="handleReset()"/>
   <use id="arrowup" xlink:href="#arrowUp" x="0" y="0" onmousedown="handlePan(0,-1)"/>
  <use id="arrowright" xlink:href="#arrowRight" x="0" y="0" onmousedown="handlePan(1,0)"/>
  <use id="arrowdown" xlink:href="#arrowDown" x="0" y="0" onmousedown="handlePan(0,1)"/>
  <use id="arrowleft" xlink:href="#arrowLeft" x="0" y="0" onmousedown="handlePan(-1,0)"/>
</g>
<svg viewBox="0 0 15 15" width="100%" height="30px" preserveAspectRatio="xMaxYMin meet">
 <g id="arrow_out" transform="scale(0.3 0.3)">
  <a xlink:href="classTerraria_1_1GameContent_1_1Drawing_1_1TileDrawing_aef37a70ccfcbf6b0c212e1eb204120ea_aef37a70ccfcbf6b0c212e1eb204120ea_cgraph_org.svg" target="_base">
   <rect id="button" ry="5" rx="5" y="6" x="6" height="38" width="38"
        fill="#f2f5e9" fill-opacity="0.5" stroke="#606060" stroke-width="1.0"/>
   <path id="arrow"
     d="M 11.500037,31.436501 C 11.940474,20.09759 22.043105,11.32322 32.158766,21.979434 L 37.068811,17.246167 C 37.068811,17.246167 37.088388,32 37.088388,32 L 22.160133,31.978069 C 22.160133,31.978069 26.997745,27.140456 26.997745,27.140456 C 18.528582,18.264221 13.291696,25.230495 11.500037,31.436501 z"
     style="fill:#404040;"/>
  </a>
 </g>
</svg>

<style type='text/css'>
<![CDATA[
[data-mouse-over-selected='false'] { opacity: 0.7; }
[data-mouse-over-selected='true']  { opacity: 1.0; }
]]>
</style>
<script type="application/ecmascript"><![CDATA[
document.addEventListener('DOMContentLoaded', (event) => {
  highlightEdges();
  highlightAdjacentNodes();
});
]]></script>
</svg>
