<?xml version="1.0" encoding="UTF-8" standalone="no"?>
<!DOCTYPE svg PUBLIC "-//W3C//DTD SVG 1.1//EN"
 "http://www.w3.org/Graphics/SVG/1.1/DTD/svg11.dtd">
<!-- Generated by graphviz version 2.43.0 (0)
 -->
<!-- Title: Terraria.GameContent.Drawing.TileDrawing.GetPalmTreeBiome Pages: 1 -->
<svg width="764pt" height="86pt"
 viewBox="0.00 0.00 764.00 86.00" xmlns="http://www.w3.org/2000/svg" xmlns:xlink="http://www.w3.org/1999/xlink">
<g id="graph0" class="graph" transform="scale(1 1) rotate(0) translate(4 82)">
<title>Terraria.GameContent.Drawing.TileDrawing.GetPalmTreeBiome</title>
<!-- Node1 -->
<g id="Node000001" class="node">
<title>Node1</title>
<g id="a_Node000001"><a xlink:title=" ">
<polygon fill="#999999" stroke="#666666" points="171,-54 0,-54 0,-24 171,-24 171,-54"/>
<text text-anchor="start" x="8" y="-42" font-family="Helvetica,sans-Serif" font-size="10.00">Terraria.GameContent.Drawing.</text>
<text text-anchor="middle" x="85.5" y="-31" font-family="Helvetica,sans-Serif" font-size="10.00">TileDrawing.GetPalmTreeBiome</text>
</a>
</g>
</g>
<!-- Node2 -->
<g id="Node000002" class="node">
<title>Node2</title>
<g id="a_Node000002"><a xlink:href="../../d6/d7b/classTerraria_1_1GameContent_1_1Drawing_1_1TileDrawing_aa8241f3a5079f960455c2d2e14ba569b.html#aa8241f3a5079f960455c2d2e14ba569b" target="_top" xlink:title=" ">
<polygon fill="white" stroke="#666666" points="381,-54 207,-54 207,-24 381,-24 381,-54"/>
<text text-anchor="start" x="215" y="-42" font-family="Helvetica,sans-Serif" font-size="10.00">Terraria.GameContent.Drawing.</text>
<text text-anchor="middle" x="294" y="-31" font-family="Helvetica,sans-Serif" font-size="10.00">TileDrawing.GetPalmTreeVariant</text>
</a>
</g>
</g>
<!-- Node1&#45;&gt;Node2 -->
<g id="edge1_Node000001_Node000002" class="edge">
<title>Node1&#45;&gt;Node2</title>
<g id="a_edge1_Node000001_Node000002"><a xlink:title=" ">
<path fill="none" stroke="#63b8ff" d="M171.09,-39C179.57,-39 188.23,-39 196.83,-39"/>
<polygon fill="#63b8ff" stroke="#63b8ff" points="196.87,-42.5 206.87,-39 196.87,-35.5 196.87,-42.5"/>
</a>
</g>
</g>
<!-- Node3 -->
<g id="Node000003" class="node">
<title>Node3</title>
<g id="a_Node000003"><a xlink:href="../../d1/d70/classTerraria_1_1ModLoader_1_1TileLoader_af9b386c61c625631bd22b4d6989770e0.html#af9b386c61c625631bd22b4d6989770e0" target="_top" xlink:title=" ">
<polygon fill="white" stroke="#666666" points="583,-78 417,-78 417,-48 583,-48 583,-78"/>
<text text-anchor="start" x="425" y="-66" font-family="Helvetica,sans-Serif" font-size="10.00">Terraria.ModLoader.TileLoader.</text>
<text text-anchor="middle" x="500" y="-55" font-family="Helvetica,sans-Serif" font-size="10.00">CanGrowModPalmTree</text>
</a>
</g>
</g>
<!-- Node2&#45;&gt;Node3 -->
<g id="edge2_Node000002_Node000003" class="edge">
<title>Node2&#45;&gt;Node3</title>
<g id="a_edge2_Node000002_Node000003"><a xlink:title=" ">
<path fill="none" stroke="#63b8ff" d="M381.22,-49.14C389.74,-50.15 398.41,-51.17 406.98,-52.17"/>
<polygon fill="#63b8ff" stroke="#63b8ff" points="406.65,-55.66 416.99,-53.35 407.47,-48.71 406.65,-55.66"/>
</a>
</g>
</g>
<!-- Node5 -->
<g id="Node000005" class="node">
<title>Node5</title>
<g id="a_Node000005"><a xlink:href="../../de/da1/classTerraria_1_1WorldGen_aaf1f3d6dff62ee1c964b5262fa13c4d3.html#aaf1f3d6dff62ee1c964b5262fa13c4d3" target="_top" xlink:title=" ">
<polygon fill="white" stroke="#666666" points="569.5,-30 430.5,-30 430.5,0 569.5,0 569.5,-30"/>
<text text-anchor="start" x="438.5" y="-18" font-family="Helvetica,sans-Serif" font-size="10.00">Terraria.WorldGen.IsPalm</text>
<text text-anchor="middle" x="500" y="-7" font-family="Helvetica,sans-Serif" font-size="10.00">OasisTree</text>
</a>
</g>
</g>
<!-- Node2&#45;&gt;Node5 -->
<g id="edge4_Node000002_Node000005" class="edge">
<title>Node2&#45;&gt;Node5</title>
<g id="a_edge4_Node000002_Node000005"><a xlink:title=" ">
<path fill="none" stroke="#63b8ff" d="M381.22,-28.86C394.18,-27.33 407.48,-25.77 420.27,-24.26"/>
<polygon fill="#63b8ff" stroke="#63b8ff" points="420.88,-27.72 430.4,-23.07 420.06,-20.76 420.88,-27.72"/>
</a>
</g>
</g>
<!-- Node4 -->
<g id="Node000004" class="node">
<title>Node4</title>
<g id="a_Node000004"><a xlink:href="../../d1/dbe/classTerraria_1_1ModLoader_1_1PlantLoader_ac625f810ba9e98b7455030b49b644c9e.html#ac625f810ba9e98b7455030b49b644c9e" target="_top" xlink:title=" ">
<polygon fill="white" stroke="#666666" points="756,-78 619,-78 619,-48 756,-48 756,-78"/>
<text text-anchor="start" x="627" y="-66" font-family="Helvetica,sans-Serif" font-size="10.00">Terraria.ModLoader.Plant</text>
<text text-anchor="middle" x="687.5" y="-55" font-family="Helvetica,sans-Serif" font-size="10.00">Loader.Exists</text>
</a>
</g>
</g>
<!-- Node3&#45;&gt;Node4 -->
<g id="edge3_Node000003_Node000004" class="edge">
<title>Node3&#45;&gt;Node4</title>
<g id="a_edge3_Node000003_Node000004"><a xlink:title=" ">
<path fill="none" stroke="#63b8ff" d="M583.17,-63C591.65,-63 600.24,-63 608.67,-63"/>
<polygon fill="#63b8ff" stroke="#63b8ff" points="608.84,-66.5 618.84,-63 608.84,-59.5 608.84,-66.5"/>
</a>
</g>
</g>
</g>
</svg>
