<?xml version="1.0" encoding="UTF-8" standalone="no"?>
<!DOCTYPE svg PUBLIC "-//W3C//DTD SVG 1.1//EN"
 "http://www.w3.org/Graphics/SVG/1.1/DTD/svg11.dtd">
<!-- Generated by graphviz version 2.43.0 (0)
 -->
<!-- Title: Terraria.ModLoader.UI.UIUpdateMessage.OnInitialize Pages: 1 -->
<!--zoomable 194 -->

<svg id="main" version="1.1" xmlns="http://www.w3.org/2000/svg" xmlns:xlink="http://www.w3.org/1999/xlink" xml:space="preserve" onload="init(evt)">
<style type="text/css"><![CDATA[
.node, .edge {opacity: 0.7;}
.node.selected, .edge.selected {opacity: 1;}
.edge:hover path { stroke: red; }
.edge:hover polygon { stroke: red; fill: red; }
]]></style>

<defs>
  <circle id="rim" cx="0" cy="0" r="7"/>
  <circle id="rim2" cx="0" cy="0" r="3.5"/>
  <g id="zoomPlus">
    <use xlink:href="#rim" fill="#404040"><set attributeName="fill" to="#808080" begin="zoomplus.mouseover" end="zoomplus.mouseout"/></use>
    <path d="M-4,0h8M0,-4v8" fill="none" stroke="white" stroke-width="1.5" pointer-events="none"/>
  </g>
  <g id="zoomMin">
    <use xlink:href="#rim" fill="#404040"><set attributeName="fill" to="#808080" begin="zoomminus.mouseover" end="zoomminus.mouseout"/></use>
    <path d="M-4,0h8" fill="none" stroke="white" stroke-width="1.5" pointer-events="none"/>
  </g>
  <g id="arrowUp" transform="translate(30 24)">
    <use xlink:href="#rim"/>
    <path pointer-events="none" fill="none" stroke="white" stroke-width="1.5" d="M0,-3.0v7 M-2.5,-0.5L0,-3.0L2.5,-0.5"/>
  </g>
  <g id="arrowRight" transform="rotate(90) translate(36 -43)">
    <use xlink:href="#rim"/>
    <path pointer-events="none" fill="none" stroke="white" stroke-width="1.5" d="M0,-3.0v7 M-2.5,-0.5L0,-3.0L2.5,-0.5"/>
  </g>
  <g id="arrowDown" transform="rotate(180) translate(-30 -48)">
    <use xlink:href="#rim"/>
    <path pointer-events="none" fill="none" stroke="white" stroke-width="1.5" d="M0,-3.0v7 M-2.5,-0.5L0,-3.0L2.5,-0.5"/>
  </g>
  <g id="arrowLeft" transform="rotate(270) translate(-36 17)">
    <use xlink:href="#rim"/>
    <path pointer-events="none" fill="none" stroke="white" stroke-width="1.5" d="M0,-3.0v7 M-2.5,-0.5L0,-3.0L2.5,-0.5"/>
  </g>
  <g id="resetDef">
    <use xlink:href="#rim2" fill="#404040"><set attributeName="fill" to="#808080" begin="reset.mouseover" end="reset.mouseout"/></use>
  </g>
</defs>
<script type="application/ecmascript">
var viewWidth = 882;
var viewHeight = 194;
var sectionId = 'dynsection-0';
</script>
<script type="application/ecmascript" xlink:href="../../svg.min.js"/>
<svg id="graph" class="graph">
<g id="viewport">
<title>Terraria.ModLoader.UI.UIUpdateMessage.OnInitialize</title>
<!-- Node1 -->
<g id="Node000001" class="node">
<title>Node1</title>
<g id="a_Node000001"><a xlink:title=" ">
<polygon fill="#999999" stroke="#666666" points="172,-102 0,-102 0,-72 172,-72 172,-102"/>
<text text-anchor="start" x="8" y="-90" font-family="Helvetica,sans-Serif" font-size="10.00">Terraria.ModLoader.UI.UIUpdate</text>
<text text-anchor="middle" x="86" y="-79" font-family="Helvetica,sans-Serif" font-size="10.00">Message.OnInitialize</text>
</a>
</g>
</g>
<!-- Node2 -->
<g id="Node000002" class="node">
<title>Node2</title>
<g id="a_Node000002"><a xlink:href="../../d7/d72/classTerraria_1_1UI_1_1UIElement_a4f78a3ab59b3dffcdc5b68328a46f103.html#a4f78a3ab59b3dffcdc5b68328a46f103" target="_top" xlink:title=" ">
<polygon fill="white" stroke="#666666" points="374.5,-163.5 213.5,-163.5 213.5,-144.5 374.5,-144.5 374.5,-163.5"/>
<text text-anchor="middle" x="294" y="-151.5" font-family="Helvetica,sans-Serif" font-size="10.00">Terraria.UI.UIElement.Append</text>
</a>
</g>
</g>
<!-- Node1&#45;&gt;Node2 -->
<g id="edge1_Node000001_Node000002" class="edge">
<title>Node1&#45;&gt;Node2</title>
<g id="a_edge1_Node000001_Node000002"><a xlink:title=" ">
<path fill="none" stroke="#63b8ff" d="M120.65,-102.01C144.65,-112.3 177.87,-125.72 208,-135 216.4,-137.59 225.37,-139.98 234.21,-142.13"/>
<polygon fill="#63b8ff" stroke="#63b8ff" points="233.57,-145.58 244.11,-144.46 235.17,-138.76 233.57,-145.58"/>
</a>
</g>
</g>
<!-- Node3 -->
<g id="Node000003" class="node">
<title>Node3</title>
<g id="a_Node000003"><a xlink:href="../../d7/da0/classTerraria_1_1ModLoader_1_1UI_1_1UIUpdateMessage_a417e6a52bf9e18b33ad92c7026a6b2da.html#a417e6a52bf9e18b33ad92c7026a6b2da" target="_top" xlink:title=" ">
<polygon fill="white" stroke="#666666" points="380,-126 208,-126 208,-96 380,-96 380,-126"/>
<text text-anchor="start" x="216" y="-114" font-family="Helvetica,sans-Serif" font-size="10.00">Terraria.ModLoader.UI.UIUpdate</text>
<text text-anchor="middle" x="294" y="-103" font-family="Helvetica,sans-Serif" font-size="10.00">Message.AutoUpdate</text>
</a>
</g>
</g>
<!-- Node1&#45;&gt;Node3 -->
<g id="edge2_Node000001_Node000003" class="edge">
<title>Node1&#45;&gt;Node3</title>
<g id="a_edge2_Node000001_Node000003"><a xlink:title=" ">
<path fill="none" stroke="#63b8ff" d="M172.28,-96.93C180.71,-97.92 189.3,-98.92 197.83,-99.91"/>
<polygon fill="#63b8ff" stroke="#63b8ff" points="197.45,-103.39 207.79,-101.07 198.26,-96.44 197.45,-103.39"/>
</a>
</g>
</g>
<!-- Node8 -->
<g id="Node000008" class="node">
<title>Node8</title>
<g id="a_Node000008"><a xlink:href="../../d7/da0/classTerraria_1_1ModLoader_1_1UI_1_1UIUpdateMessage_a1c613eaa1c84ac549a64a18a64bff312.html#a1c613eaa1c84ac549a64a18a64bff312" target="_top" xlink:title=" ">
<polygon fill="white" stroke="#666666" points="380,-78 208,-78 208,-48 380,-48 380,-78"/>
<text text-anchor="start" x="216" y="-66" font-family="Helvetica,sans-Serif" font-size="10.00">Terraria.ModLoader.UI.UIUpdate</text>
<text text-anchor="middle" x="294" y="-55" font-family="Helvetica,sans-Serif" font-size="10.00">Message.IgnoreClick</text>
</a>
</g>
</g>
<!-- Node1&#45;&gt;Node8 -->
<g id="edge8_Node000001_Node000008" class="edge">
<title>Node1&#45;&gt;Node8</title>
<g id="a_edge8_Node000001_Node000008"><a xlink:title=" ">
<path fill="none" stroke="#63b8ff" d="M172.28,-77.07C180.71,-76.08 189.3,-75.08 197.83,-74.09"/>
<polygon fill="#63b8ff" stroke="#63b8ff" points="198.26,-77.56 207.79,-72.93 197.45,-70.61 198.26,-77.56"/>
</a>
</g>
</g>
<!-- Node9 -->
<g id="Node000009" class="node">
<title>Node9</title>
<g id="a_Node000009"><a xlink:href="../../d7/da0/classTerraria_1_1ModLoader_1_1UI_1_1UIUpdateMessage_aa37f921e86cf50f23699871e60691599.html#aa37f921e86cf50f23699871e60691599" target="_top" xlink:title=" ">
<polygon fill="white" stroke="#666666" points="380,-30 208,-30 208,0 380,0 380,-30"/>
<text text-anchor="start" x="216" y="-18" font-family="Helvetica,sans-Serif" font-size="10.00">Terraria.ModLoader.UI.UIUpdate</text>
<text text-anchor="middle" x="294" y="-7" font-family="Helvetica,sans-Serif" font-size="10.00">Message.OpenURL</text>
</a>
</g>
</g>
<!-- Node1&#45;&gt;Node9 -->
<g id="edge10_Node000001_Node000009" class="edge">
<title>Node1&#45;&gt;Node9</title>
<g id="a_edge10_Node000001_Node000009"><a xlink:title=" ">
<path fill="none" stroke="#63b8ff" d="M122.12,-71.96C146.08,-61.98 178.67,-48.93 208,-39 214,-36.97 220.29,-34.96 226.6,-33.04"/>
<polygon fill="#63b8ff" stroke="#63b8ff" points="227.93,-36.29 236.51,-30.07 225.93,-29.58 227.93,-36.29"/>
</a>
</g>
</g>
<!-- Node4 -->
<g id="Node000004" class="node">
<title>Node4</title>
<g id="a_Node000004"><a xlink:href="../../d9/df4/classTerraria_1_1ModLoader_1_1UI_1_1DownloadManager_1_1UIDownloadProgress_aec9c5d5f6c38653889b0dc7f82f88d64.html#aec9c5d5f6c38653889b0dc7f82f88d64" target="_top" xlink:title=" ">
<polygon fill="white" stroke="#666666" points="631,-185.5 431,-185.5 431,-144.5 631,-144.5 631,-185.5"/>
<text text-anchor="start" x="439" y="-173.5" font-family="Helvetica,sans-Serif" font-size="10.00">Terraria.ModLoader.UI.Download</text>
<text text-anchor="start" x="439" y="-162.5" font-family="Helvetica,sans-Serif" font-size="10.00">Manager.UIDownloadProgress.Handle</text>
<text text-anchor="middle" x="531" y="-151.5" font-family="Helvetica,sans-Serif" font-size="10.00">Downloads</text>
</a>
</g>
</g>
<!-- Node3&#45;&gt;Node4 -->
<g id="edge3_Node000003_Node000004" class="edge">
<title>Node3&#45;&gt;Node4</title>
<g id="a_edge3_Node000003_Node000004"><a xlink:title=" ">
<path fill="none" stroke="#63b8ff" d="M360.46,-126.04C382.3,-131.06 407.15,-136.77 430.97,-142.24"/>
<polygon fill="#63b8ff" stroke="#63b8ff" points="430.21,-145.66 440.74,-144.49 431.78,-138.84 430.21,-145.66"/>
</a>
</g>
</g>
<!-- Node6 -->
<g id="Node000006" class="node">
<title>Node6</title>
<g id="a_Node000006"><a xlink:href="../../d7/da0/classTerraria_1_1ModLoader_1_1UI_1_1UIUpdateMessage_a49221fdbbb413b2006130d6d663c5516.html#a49221fdbbb413b2006130d6d663c5516" target="_top" xlink:title=" ">
<polygon fill="white" stroke="#666666" points="646,-126 416,-126 416,-96 646,-96 646,-126"/>
<text text-anchor="start" x="424" y="-114" font-family="Helvetica,sans-Serif" font-size="10.00">Terraria.ModLoader.UI.UIUpdate</text>
<text text-anchor="middle" x="531" y="-103" font-family="Helvetica,sans-Serif" font-size="10.00">Message.OnAutoUpdateDownloadComplete</text>
</a>
</g>
</g>
<!-- Node3&#45;&gt;Node6 -->
<g id="edge5_Node000003_Node000006" class="edge">
<title>Node3&#45;&gt;Node6</title>
<g id="a_edge5_Node000003_Node000006"><a xlink:title=" ">
<path fill="none" stroke="#63b8ff" d="M380.17,-111C388.48,-111 397.02,-111 405.61,-111"/>
<polygon fill="#63b8ff" stroke="#63b8ff" points="405.71,-114.5 415.71,-111 405.71,-107.5 405.71,-114.5"/>
</a>
</g>
</g>
<!-- Node7 -->
<g id="Node000007" class="node">
<title>Node7</title>
<g id="a_Node000007"><a xlink:href="../../d3/d78/classTerraria_1_1Audio_1_1SoundEngine_af55950ae09b294fad1dd58e37fecf28b.html#af55950ae09b294fad1dd58e37fecf28b" target="_top" xlink:title="Attempts to play a sound style with the provided sound style (if it&#39;s not null), and returns a valid ...">
<polygon fill="white" stroke="#666666" points="607.5,-60 454.5,-60 454.5,-30 607.5,-30 607.5,-60"/>
<text text-anchor="start" x="462.5" y="-48" font-family="Helvetica,sans-Serif" font-size="10.00">Terraria.Audio.SoundEngine.</text>
<text text-anchor="middle" x="531" y="-37" font-family="Helvetica,sans-Serif" font-size="10.00">PlaySound</text>
</a>
</g>
</g>
<!-- Node3&#45;&gt;Node7 -->
<g id="edge6_Node000003_Node000007" class="edge">
<title>Node3&#45;&gt;Node7</title>
<g id="a_edge6_Node000003_Node000007"><a xlink:title=" ">
<path fill="none" stroke="#63b8ff" d="M348.62,-95.94C383.69,-86.09 429.66,-73.18 466.55,-62.82"/>
<polygon fill="#63b8ff" stroke="#63b8ff" points="467.52,-66.18 476.2,-60.11 465.63,-59.44 467.52,-66.18"/>
</a>
</g>
</g>
<!-- Node5 -->
<g id="Node000005" class="node">
<title>Node5</title>
<g id="a_Node000005"><a xlink:href="../../d9/df4/classTerraria_1_1ModLoader_1_1UI_1_1DownloadManager_1_1UIDownloadProgress_a612754aae10b6037128f3c2bd8f8b025.html#a612754aae10b6037128f3c2bd8f8b025" target="_top" xlink:title=" ">
<polygon fill="white" stroke="#666666" points="874,-180 682,-180 682,-150 874,-150 874,-180"/>
<text text-anchor="start" x="690" y="-168" font-family="Helvetica,sans-Serif" font-size="10.00">Terraria.ModLoader.UI.Download</text>
<text text-anchor="middle" x="778" y="-157" font-family="Helvetica,sans-Serif" font-size="10.00">Manager.UIDownloadProgress.Show</text>
</a>
</g>
</g>
<!-- Node4&#45;&gt;Node5 -->
<g id="edge4_Node000004_Node000005" class="edge">
<title>Node4&#45;&gt;Node5</title>
<g id="a_edge4_Node000004_Node000005"><a xlink:title=" ">
<path fill="none" stroke="#63b8ff" d="M631.3,-165C644.62,-165 658.31,-165 671.73,-165"/>
<polygon fill="#63b8ff" stroke="#63b8ff" points="671.92,-168.5 681.92,-165 671.92,-161.5 671.92,-168.5"/>
</a>
</g>
</g>
<!-- Node7&#45;&gt;Node7 -->
<g id="edge7_Node000007_Node000007" class="edge">
<title>Node7&#45;&gt;Node7</title>
<g id="a_edge7_Node000007_Node000007"><a xlink:title=" ">
<path fill="none" stroke="#63b8ff" d="M489.52,-60.28C480.3,-69.41 494.12,-78 531,-78 552.89,-78 566.66,-74.97 572.31,-70.6"/>
<polygon fill="#63b8ff" stroke="#63b8ff" points="575.81,-70.33 572.48,-60.28 568.81,-70.21 575.81,-70.33"/>
</a>
</g>
</g>
<!-- Node8&#45;&gt;Node7 -->
<g id="edge9_Node000008_Node000007" class="edge">
<title>Node8&#45;&gt;Node7</title>
<g id="a_edge9_Node000008_Node000007"><a xlink:title=" ">
<path fill="none" stroke="#63b8ff" d="M380.17,-56.48C401.06,-54.88 423.42,-53.16 444.32,-51.56"/>
<polygon fill="#63b8ff" stroke="#63b8ff" points="444.75,-55.04 454.46,-50.79 444.22,-48.06 444.75,-55.04"/>
</a>
</g>
</g>
<!-- Node9&#45;&gt;Node7 -->
<g id="edge11_Node000009_Node000007" class="edge">
<title>Node9&#45;&gt;Node7</title>
<g id="a_edge11_Node000009_Node000007"><a xlink:title=" ">
<path fill="none" stroke="#63b8ff" d="M380.17,-25.87C401.06,-28.54 423.42,-31.39 444.32,-34.06"/>
<polygon fill="#63b8ff" stroke="#63b8ff" points="444.09,-37.56 454.46,-35.36 444.98,-30.62 444.09,-37.56"/>
</a>
</g>
</g>
</g>
</svg>

<g id="navigator" transform="translate(0 0)" fill="#404254">
  <rect fill="#f2f5e9" fill-opacity="0.5" stroke="#606060" stroke-width=".5" x="0" y="0" width="60" height="60"/>
  <use id="zoomplus" xlink:href="#zoomPlus" x="17" y="9" onmousedown="handleZoom(evt,'in')"/>
  <use id="zoomminus" xlink:href="#zoomMin" x="42" y="9" onmousedown="handleZoom(evt,'out')"/>
  <use id="reset" xlink:href="#resetDef" x="30" y="36" onmousedown="handleReset()"/>
   <use id="arrowup" xlink:href="#arrowUp" x="0" y="0" onmousedown="handlePan(0,-1)"/>
  <use id="arrowright" xlink:href="#arrowRight" x="0" y="0" onmousedown="handlePan(1,0)"/>
  <use id="arrowdown" xlink:href="#arrowDown" x="0" y="0" onmousedown="handlePan(0,1)"/>
  <use id="arrowleft" xlink:href="#arrowLeft" x="0" y="0" onmousedown="handlePan(-1,0)"/>
</g>
<svg viewBox="0 0 15 15" width="100%" height="30px" preserveAspectRatio="xMaxYMin meet">
 <g id="arrow_out" transform="scale(0.3 0.3)">
  <a xlink:href="classTerraria_1_1ModLoader_1_1UI_1_1UIUpdateMessage_aa032cfbd1cd9f65bd7951b4a9fc9644e_aa032cfbd1cd9f65bd7951b4a9fc9644e_cgraph_org.svg" target="_base">
   <rect id="button" ry="5" rx="5" y="6" x="6" height="38" width="38"
        fill="#f2f5e9" fill-opacity="0.5" stroke="#606060" stroke-width="1.0"/>
   <path id="arrow"
     d="M 11.500037,31.436501 C 11.940474,20.09759 22.043105,11.32322 32.158766,21.979434 L 37.068811,17.246167 C 37.068811,17.246167 37.088388,32 37.088388,32 L 22.160133,31.978069 C 22.160133,31.978069 26.997745,27.140456 26.997745,27.140456 C 18.528582,18.264221 13.291696,25.230495 11.500037,31.436501 z"
     style="fill:#404040;"/>
  </a>
 </g>
</svg>

<style type='text/css'>
<![CDATA[
[data-mouse-over-selected='false'] { opacity: 0.7; }
[data-mouse-over-selected='true']  { opacity: 1.0; }
]]>
</style>
<script type="application/ecmascript"><![CDATA[
document.addEventListener('DOMContentLoaded', (event) => {
  highlightEdges();
  highlightAdjacentNodes();
});
]]></script>
</svg>
