<?xml version="1.0" encoding="UTF-8" standalone="no"?>
<!DOCTYPE svg PUBLIC "-//W3C//DTD SVG 1.1//EN"
 "http://www.w3.org/Graphics/SVG/1.1/DTD/svg11.dtd">
<!-- Generated by graphviz version 2.43.0 (0)
 -->
<!-- Title: Terraria.Audio.ActiveSound.Pause Pages: 1 -->
<svg width="764pt" height="56pt"
 viewBox="0.00 0.00 764.00 56.00" xmlns="http://www.w3.org/2000/svg" xmlns:xlink="http://www.w3.org/1999/xlink">
<g id="graph0" class="graph" transform="scale(1 1) rotate(0) translate(4 52)">
<title>Terraria.Audio.ActiveSound.Pause</title>
<!-- Node1 -->
<g id="Node000001" class="node">
<title>Node1</title>
<g id="a_Node000001"><a xlink:title=" ">
<polygon fill="#999999" stroke="#666666" points="151,-30 0,-30 0,0 151,0 151,-30"/>
<text text-anchor="start" x="8" y="-18" font-family="Helvetica,sans-Serif" font-size="10.00">Terraria.Audio.ActiveSound.</text>
<text text-anchor="middle" x="75.5" y="-7" font-family="Helvetica,sans-Serif" font-size="10.00">Pause</text>
</a>
</g>
</g>
<!-- Node1&#45;&gt;Node1 -->
<g id="edge1_Node000001_Node000001" class="edge">
<title>Node1&#45;&gt;Node1</title>
<g id="a_edge1_Node000001_Node000001"><a xlink:title=" ">
<path fill="none" stroke="#63b8ff" d="M42.8,-30.28C35.54,-39.41 46.44,-48 75.5,-48 92.76,-48 103.61,-44.97 108.06,-40.6"/>
<polygon fill="#63b8ff" stroke="#63b8ff" points="111.56,-40.32 108.2,-30.28 104.56,-40.23 111.56,-40.32"/>
</a>
</g>
</g>
<!-- Node2 -->
<g id="Node000002" class="node">
<title>Node2</title>
<g id="a_Node000002"><a xlink:href="../../da/de5/classTerraria_1_1Audio_1_1ActiveSound_a776cd6796b76abf82079203600cce8c8.html#a776cd6796b76abf82079203600cce8c8" target="_top" xlink:title=" ">
<polygon fill="white" stroke="#666666" points="338,-30 187,-30 187,0 338,0 338,-30"/>
<text text-anchor="start" x="195" y="-18" font-family="Helvetica,sans-Serif" font-size="10.00">Terraria.Audio.ActiveSound.</text>
<text text-anchor="middle" x="262.5" y="-7" font-family="Helvetica,sans-Serif" font-size="10.00">RunOnMainThreadAndWait</text>
</a>
</g>
</g>
<!-- Node1&#45;&gt;Node2 -->
<g id="edge2_Node000001_Node000002" class="edge">
<title>Node1&#45;&gt;Node2</title>
<g id="a_edge2_Node000001_Node000002"><a xlink:title=" ">
<path fill="none" stroke="#63b8ff" d="M151.21,-15C159.55,-15 168.1,-15 176.55,-15"/>
<polygon fill="#63b8ff" stroke="#63b8ff" points="176.81,-18.5 186.81,-15 176.81,-11.5 176.81,-18.5"/>
</a>
</g>
</g>
<!-- Node3 -->
<g id="Node000003" class="node">
<title>Node3</title>
<g id="a_Node000003"><a xlink:href="../../da/dd5/classTerraria_1_1Main_afeee22599a3b062900fd2282a834953d.html#afeee22599a3b062900fd2282a834953d" target="_top" xlink:title="Wait for an action to be performed on the main thread.">
<polygon fill="white" stroke="#666666" points="547,-24.5 374,-24.5 374,-5.5 547,-5.5 547,-24.5"/>
<text text-anchor="middle" x="460.5" y="-12.5" font-family="Helvetica,sans-Serif" font-size="10.00">Terraria.Main.RunOnMainThread</text>
</a>
</g>
</g>
<!-- Node2&#45;&gt;Node3 -->
<g id="edge3_Node000002_Node000003" class="edge">
<title>Node2&#45;&gt;Node3</title>
<g id="a_edge3_Node000002_Node000003"><a xlink:title=" ">
<path fill="none" stroke="#63b8ff" d="M338.16,-15C346.56,-15 355.2,-15 363.81,-15"/>
<polygon fill="#63b8ff" stroke="#63b8ff" points="363.9,-18.5 373.9,-15 363.9,-11.5 363.9,-18.5"/>
</a>
</g>
</g>
<!-- Node4 -->
<g id="Node000004" class="node">
<title>Node4</title>
<g id="a_Node000004"><a xlink:href="../../da/dd5/classTerraria_1_1Main_ae3b16587ab699801dd5c69e5426873fc.html#ae3b16587ab699801dd5c69e5426873fc" target="_top" xlink:title=" ">
<polygon fill="white" stroke="#666666" points="756,-30 583,-30 583,0 756,0 756,-30"/>
<text text-anchor="start" x="591" y="-18" font-family="Helvetica,sans-Serif" font-size="10.00">Terraria.Main.QueueMainThread</text>
<text text-anchor="middle" x="669.5" y="-7" font-family="Helvetica,sans-Serif" font-size="10.00">Action</text>
</a>
</g>
</g>
<!-- Node3&#45;&gt;Node4 -->
<g id="edge4_Node000003_Node000004" class="edge">
<title>Node3&#45;&gt;Node4</title>
<g id="a_edge4_Node000003_Node000004"><a xlink:title=" ">
<path fill="none" stroke="#63b8ff" d="M547.19,-15C555.66,-15 564.3,-15 572.87,-15"/>
<polygon fill="#63b8ff" stroke="#63b8ff" points="572.88,-18.5 582.88,-15 572.88,-11.5 572.88,-18.5"/>
</a>
</g>
</g>
</g>
</svg>
