<?xml version="1.0" encoding="UTF-8" standalone="no"?>
<!DOCTYPE svg PUBLIC "-//W3C//DTD SVG 1.1//EN"
 "http://www.w3.org/Graphics/SVG/1.1/DTD/svg11.dtd">
<!-- Generated by graphviz version 2.43.0 (0)
 -->
<!-- Title: Terraria.GameContent.Personalities.AllPersonalitiesModifier.ModifyShopPrice_Relationships Pages: 1 -->
<svg width="850pt" height="49pt"
 viewBox="0.00 0.00 850.00 49.00" xmlns="http://www.w3.org/2000/svg" xmlns:xlink="http://www.w3.org/1999/xlink">
<g id="graph0" class="graph" transform="scale(1 1) rotate(0) translate(4 45)">
<title>Terraria.GameContent.Personalities.AllPersonalitiesModifier.ModifyShopPrice_Relationships</title>
<!-- Node1 -->
<g id="Node000001" class="node">
<title>Node1</title>
<g id="a_Node000001"><a xlink:title=" ">
<polygon fill="#999999" stroke="#666666" points="842,-41 627,-41 627,0 842,0 842,-41"/>
<text text-anchor="start" x="635" y="-29" font-family="Helvetica,sans-Serif" font-size="10.00">Terraria.GameContent.Personalities.</text>
<text text-anchor="start" x="635" y="-18" font-family="Helvetica,sans-Serif" font-size="10.00">AllPersonalitiesModifier.ModifyShopPrice</text>
<text text-anchor="middle" x="734.5" y="-7" font-family="Helvetica,sans-Serif" font-size="10.00">_Relationships</text>
</a>
</g>
</g>
<!-- Node2 -->
<g id="Node000002" class="node">
<title>Node2</title>
<g id="a_Node000002"><a xlink:href="../../d0/d46/classTerraria_1_1GameContent_1_1Personalities_1_1AllPersonalitiesModifier_af0b213c21935d21c382814698438ab6b.html#af0b213c21935d21c382814698438ab6b" target="_top" xlink:title=" ">
<polygon fill="white" stroke="#666666" points="591,-35.5 376,-35.5 376,-5.5 591,-5.5 591,-35.5"/>
<text text-anchor="start" x="384" y="-23.5" font-family="Helvetica,sans-Serif" font-size="10.00">Terraria.GameContent.Personalities.</text>
<text text-anchor="middle" x="483.5" y="-12.5" font-family="Helvetica,sans-Serif" font-size="10.00">AllPersonalitiesModifier.ModifyShopPrice</text>
</a>
</g>
</g>
<!-- Node1&#45;&gt;Node2 -->
<g id="edge1_Node000001_Node000002" class="edge">
<title>Node1&#45;&gt;Node2</title>
<g id="a_edge1_Node000001_Node000002"><a xlink:title=" ">
<path fill="none" stroke="#63b8ff" d="M616.59,-20.5C608.17,-20.5 599.71,-20.5 591.36,-20.5"/>
<polygon fill="#63b8ff" stroke="#63b8ff" points="616.82,-24 626.82,-20.5 616.82,-17 616.82,-24"/>
</a>
</g>
</g>
<!-- Node3 -->
<g id="Node000003" class="node">
<title>Node3</title>
<g id="a_Node000003"><a xlink:href="../../d9/d8a/classTerraria_1_1GameContent_1_1ShopHelper_a75596bedc1a9dd0e7876d5cee6311f4f.html#a75596bedc1a9dd0e7876d5cee6311f4f" target="_top" xlink:title=" ">
<polygon fill="white" stroke="#666666" points="340,-35.5 189,-35.5 189,-5.5 340,-5.5 340,-35.5"/>
<text text-anchor="start" x="197" y="-23.5" font-family="Helvetica,sans-Serif" font-size="10.00">Terraria.GameContent.Shop</text>
<text text-anchor="middle" x="264.5" y="-12.5" font-family="Helvetica,sans-Serif" font-size="10.00">Helper.ProcessMood</text>
</a>
</g>
</g>
<!-- Node2&#45;&gt;Node3 -->
<g id="edge2_Node000002_Node000003" class="edge">
<title>Node2&#45;&gt;Node3</title>
<g id="a_edge2_Node000002_Node000003"><a xlink:title=" ">
<path fill="none" stroke="#63b8ff" d="M365.69,-20.5C357.01,-20.5 348.4,-20.5 340.08,-20.5"/>
<polygon fill="#63b8ff" stroke="#63b8ff" points="365.91,-24 375.91,-20.5 365.91,-17 365.91,-24"/>
</a>
</g>
</g>
<!-- Node4 -->
<g id="Node000004" class="node">
<title>Node4</title>
<g id="a_Node000004"><a xlink:href="../../d9/d8a/classTerraria_1_1GameContent_1_1ShopHelper_a222d0a9e4075779bc967fd22536667a9.html#a222d0a9e4075779bc967fd22536667a9" target="_top" xlink:title=" ">
<polygon fill="white" stroke="#666666" points="153,-35.5 0,-35.5 0,-5.5 153,-5.5 153,-35.5"/>
<text text-anchor="start" x="8" y="-23.5" font-family="Helvetica,sans-Serif" font-size="10.00">Terraria.GameContent.Shop</text>
<text text-anchor="middle" x="76.5" y="-12.5" font-family="Helvetica,sans-Serif" font-size="10.00">Helper.GetShoppingSettings</text>
</a>
</g>
</g>
<!-- Node3&#45;&gt;Node4 -->
<g id="edge3_Node000003_Node000004" class="edge">
<title>Node3&#45;&gt;Node4</title>
<g id="a_edge3_Node000003_Node000004"><a xlink:title=" ">
<path fill="none" stroke="#63b8ff" d="M178.86,-20.5C170.24,-20.5 161.52,-20.5 153.01,-20.5"/>
<polygon fill="#63b8ff" stroke="#63b8ff" points="178.92,-24 188.92,-20.5 178.92,-17 178.92,-24"/>
</a>
</g>
</g>
</g>
</svg>
