<?xml version="1.0" encoding="UTF-8" standalone="no"?>
<!DOCTYPE svg PUBLIC "-//W3C//DTD SVG 1.1//EN"
 "http://www.w3.org/Graphics/SVG/1.1/DTD/svg11.dtd">
<!-- Generated by graphviz version 2.43.0 (0)
 -->
<!-- Title: Terraria.ModLoader.Core.LoaderUtils.GetDerivedDefinition Pages: 1 -->
<svg width="878pt" height="332pt"
 viewBox="0.00 0.00 878.00 332.00" xmlns="http://www.w3.org/2000/svg" xmlns:xlink="http://www.w3.org/1999/xlink">
<g id="graph0" class="graph" transform="scale(1 1) rotate(0) translate(4 328)">
<title>Terraria.ModLoader.Core.LoaderUtils.GetDerivedDefinition</title>
<!-- Node1 -->
<g id="Node000001" class="node">
<title>Node1</title>
<g id="a_Node000001"><a xlink:title=" ">
<polygon fill="#999999" stroke="#666666" points="870,-222 692,-222 692,-192 870,-192 870,-222"/>
<text text-anchor="start" x="700" y="-210" font-family="Helvetica,sans-Serif" font-size="10.00">Terraria.ModLoader.Core.</text>
<text text-anchor="middle" x="781" y="-199" font-family="Helvetica,sans-Serif" font-size="10.00">LoaderUtils.GetDerivedDefinition</text>
</a>
</g>
</g>
<!-- Node2 -->
<g id="Node000002" class="node">
<title>Node2</title>
<g id="a_Node000002"><a xlink:href="../../d4/d23/classTerraria_1_1ModLoader_1_1Core_1_1Cloning_a5d0c396c8f054f76e254f7f778d06091.html#a5d0c396c8f054f76e254f7f778d06091" target="_top" xlink:title=" ">
<polygon fill="white" stroke="#666666" points="656,-300 518,-300 518,-270 656,-270 656,-300"/>
<text text-anchor="start" x="526" y="-288" font-family="Helvetica,sans-Serif" font-size="10.00">Terraria.ModLoader.Core.</text>
<text text-anchor="middle" x="587" y="-277" font-family="Helvetica,sans-Serif" font-size="10.00">Cloning.ComputeInfo</text>
</a>
</g>
</g>
<!-- Node1&#45;&gt;Node2 -->
<g id="edge1_Node000001_Node000002" class="edge">
<title>Node1&#45;&gt;Node2</title>
<g id="a_edge1_Node000001_Node000002"><a xlink:title=" ">
<path fill="none" stroke="#63b8ff" d="M733.48,-225.9C700.25,-239.4 656.14,-257.32 625.23,-269.87"/>
<polygon fill="#63b8ff" stroke="#63b8ff" points="735.03,-229.05 742.98,-222.04 732.4,-222.56 735.03,-229.05"/>
</a>
</g>
</g>
<!-- Node6 -->
<g id="Node000006" class="node">
<title>Node6</title>
<g id="a_Node000006"><a xlink:href="../../d8/d8c/classTerraria_1_1ModLoader_1_1Core_1_1LoaderUtils_a7262e71d5fd9374fc713c3b811bc8920.html#a7262e71d5fd9374fc713c3b811bc8920" target="_top" xlink:title=" ">
<polygon fill="white" stroke="#666666" points="656,-168 518,-168 518,-138 656,-138 656,-168"/>
<text text-anchor="start" x="526" y="-156" font-family="Helvetica,sans-Serif" font-size="10.00">Terraria.ModLoader.Core.</text>
<text text-anchor="middle" x="587" y="-145" font-family="Helvetica,sans-Serif" font-size="10.00">LoaderUtils.HasOverride</text>
</a>
</g>
</g>
<!-- Node1&#45;&gt;Node6 -->
<g id="edge6_Node000001_Node000006" class="edge">
<title>Node1&#45;&gt;Node6</title>
<g id="a_edge6_Node000001_Node000006"><a xlink:title=" ">
<path fill="none" stroke="#63b8ff" d="M716.66,-189.19C692.34,-182.35 664.84,-174.61 641.53,-168.05"/>
<polygon fill="#63b8ff" stroke="#63b8ff" points="715.94,-192.62 726.52,-191.96 717.84,-185.88 715.94,-192.62"/>
</a>
</g>
</g>
<!-- Node3 -->
<g id="Node000003" class="node">
<title>Node3</title>
<g id="a_Node000003"><a xlink:href="../../d4/d23/classTerraria_1_1ModLoader_1_1Core_1_1Cloning_adffb2f607779d069a42a1f02ebd92f6d.html#adffb2f607779d069a42a1f02ebd92f6d" target="_top" xlink:title=" ">
<polygon fill="white" stroke="#666666" points="439,-324 291,-324 291,-294 439,-294 439,-324"/>
<text text-anchor="start" x="299" y="-312" font-family="Helvetica,sans-Serif" font-size="10.00">Terraria.ModLoader.Core.</text>
<text text-anchor="middle" x="365" y="-301" font-family="Helvetica,sans-Serif" font-size="10.00">Cloning.GetOrComputeInfo</text>
</a>
</g>
</g>
<!-- Node2&#45;&gt;Node3 -->
<g id="edge2_Node000002_Node000003" class="edge">
<title>Node2&#45;&gt;Node3</title>
<g id="a_edge2_Node000002_Node000003"><a xlink:title=" ">
<path fill="none" stroke="#63b8ff" d="M507.78,-287.04C485.43,-289.11 461.16,-291.79 439.12,-294.62"/>
<polygon fill="#63b8ff" stroke="#63b8ff" points="508.25,-290.51 517.9,-286.13 507.63,-283.54 508.25,-290.51"/>
</a>
</g>
</g>
<!-- Node5 -->
<g id="Node000005" class="node">
<title>Node5</title>
<g id="a_Node000005"><a xlink:href="../../d4/d23/classTerraria_1_1ModLoader_1_1Core_1_1Cloning_acabb2b7f5e5cdb8dbe68f5fcbd3df49c.html#acabb2b7f5e5cdb8dbe68f5fcbd3df49c" target="_top" xlink:title=" ">
<polygon fill="white" stroke="#666666" points="442,-276 288,-276 288,-246 442,-246 442,-276"/>
<text text-anchor="start" x="296" y="-264" font-family="Helvetica,sans-Serif" font-size="10.00">Terraria.ModLoader.Core.</text>
<text text-anchor="middle" x="365" y="-253" font-family="Helvetica,sans-Serif" font-size="10.00">Cloning.IsCloneable&lt; T, F &gt;</text>
</a>
</g>
</g>
<!-- Node2&#45;&gt;Node5 -->
<g id="edge5_Node000002_Node000005" class="edge">
<title>Node2&#45;&gt;Node5</title>
<g id="a_edge5_Node000002_Node000005"><a xlink:title=" ">
<path fill="none" stroke="#63b8ff" d="M507.9,-276.48C486.56,-274.15 463.46,-271.63 442.22,-269.31"/>
<polygon fill="#63b8ff" stroke="#63b8ff" points="507.58,-279.97 517.9,-277.57 508.34,-273.01 507.58,-279.97"/>
</a>
</g>
</g>
<!-- Node3&#45;&gt;Node2 -->
<g id="edge3_Node000003_Node000002" class="edge">
<title>Node3&#45;&gt;Node2</title>
<g id="a_edge3_Node000003_Node000002"><a xlink:title=" ">
<path fill="none" stroke="#63b8ff" d="M449.08,-306.5C471.79,-304.34 496.13,-301.59 517.9,-298.72"/>
<polygon fill="#63b8ff" stroke="#63b8ff" points="448.76,-303.02 439.12,-307.42 449.4,-309.99 448.76,-303.02"/>
</a>
</g>
</g>
<!-- Node4 -->
<g id="Node000004" class="node">
<title>Node4</title>
<g id="a_Node000004"><a xlink:href="../../d4/d23/classTerraria_1_1ModLoader_1_1Core_1_1Cloning_a54aab39041396f1eea93186080214048.html#a54aab39041396f1eea93186080214048" target="_top" xlink:title=" ">
<polygon fill="white" stroke="#666666" points="175,-324 37,-324 37,-294 175,-294 175,-324"/>
<text text-anchor="start" x="45" y="-312" font-family="Helvetica,sans-Serif" font-size="10.00">Terraria.ModLoader.Core.</text>
<text text-anchor="middle" x="106" y="-301" font-family="Helvetica,sans-Serif" font-size="10.00">Cloning.IsCloneable</text>
</a>
</g>
</g>
<!-- Node3&#45;&gt;Node4 -->
<g id="edge4_Node000003_Node000004" class="edge">
<title>Node3&#45;&gt;Node4</title>
<g id="a_edge4_Node000003_Node000004"><a xlink:title=" ">
<path fill="none" stroke="#63b8ff" d="M280.3,-309C246.24,-309 207.39,-309 175.11,-309"/>
<polygon fill="#63b8ff" stroke="#63b8ff" points="280.7,-312.5 290.7,-309 280.7,-305.5 280.7,-312.5"/>
</a>
</g>
</g>
<!-- Node7 -->
<g id="Node000007" class="node">
<title>Node7</title>
<g id="a_Node000007"><a xlink:href="../../d8/d8c/classTerraria_1_1ModLoader_1_1Core_1_1LoaderUtils_ade5f8c2dc6ffb190f68fb430ec4eecf5.html#ade5f8c2dc6ffb190f68fb430ec4eecf5" target="_top" xlink:title=" ">
<polygon fill="white" stroke="#666666" points="434,-227.5 296,-227.5 296,-186.5 434,-186.5 434,-227.5"/>
<text text-anchor="start" x="304" y="-215.5" font-family="Helvetica,sans-Serif" font-size="10.00">Terraria.ModLoader.Core.</text>
<text text-anchor="start" x="304" y="-204.5" font-family="Helvetica,sans-Serif" font-size="10.00">LoaderUtils.HasOverride</text>
<text text-anchor="middle" x="365" y="-193.5" font-family="Helvetica,sans-Serif" font-size="10.00">&lt; T, F &gt;</text>
</a>
</g>
</g>
<!-- Node6&#45;&gt;Node7 -->
<g id="edge7_Node000006_Node000007" class="edge">
<title>Node6&#45;&gt;Node7</title>
<g id="a_edge7_Node000006_Node000007"><a xlink:title=" ">
<path fill="none" stroke="#63b8ff" d="M514.98,-170.43C489.11,-176.78 459.93,-183.94 434.3,-190.23"/>
<polygon fill="#63b8ff" stroke="#63b8ff" points="515.84,-173.82 524.72,-168.04 514.17,-167.03 515.84,-173.82"/>
</a>
</g>
</g>
<!-- Node8 -->
<g id="Node000008" class="node">
<title>Node8</title>
<g id="a_Node000008"><a xlink:href="../../d8/d8c/classTerraria_1_1ModLoader_1_1Core_1_1LoaderUtils_a42bfde7206e6ef3c4db0a55b84cd422b.html#a42bfde7206e6ef3c4db0a55b84cd422b" target="_top" xlink:title=" ">
<polygon fill="white" stroke="#666666" points="456.5,-168 273.5,-168 273.5,-138 456.5,-138 456.5,-168"/>
<text text-anchor="start" x="281.5" y="-156" font-family="Helvetica,sans-Serif" font-size="10.00">Terraria.ModLoader.Core.</text>
<text text-anchor="middle" x="365" y="-145" font-family="Helvetica,sans-Serif" font-size="10.00">LoaderUtils.MustOverrideTogether</text>
</a>
</g>
</g>
<!-- Node6&#45;&gt;Node8 -->
<g id="edge8_Node000006_Node000008" class="edge">
<title>Node6&#45;&gt;Node8</title>
<g id="a_edge8_Node000006_Node000008"><a xlink:title=" ">
<path fill="none" stroke="#63b8ff" d="M507.78,-153C491.28,-153 473.75,-153 456.83,-153"/>
<polygon fill="#63b8ff" stroke="#63b8ff" points="507.9,-156.5 517.9,-153 507.9,-149.5 507.9,-156.5"/>
</a>
</g>
</g>
<!-- Node15 -->
<g id="Node000015" class="node">
<title>Node15</title>
<g id="a_Node000015"><a xlink:href="../../de/da1/classTerraria_1_1ModLoader_1_1InfoDisplay_a721e289b5b11fca0cd4b7540f455049b.html#a721e289b5b11fca0cd4b7540f455049b" target="_top" xlink:title="Check for the correct overrides of different hook methods and fields and properties.">
<polygon fill="white" stroke="#666666" points="450,-120 280,-120 280,-90 450,-90 450,-120"/>
<text text-anchor="start" x="288" y="-108" font-family="Helvetica,sans-Serif" font-size="10.00">Terraria.ModLoader.InfoDisplay.</text>
<text text-anchor="middle" x="365" y="-97" font-family="Helvetica,sans-Serif" font-size="10.00">ValidateType</text>
</a>
</g>
</g>
<!-- Node6&#45;&gt;Node15 -->
<g id="edge15_Node000006_Node000015" class="edge">
<title>Node6&#45;&gt;Node15</title>
<g id="a_edge15_Node000006_Node000015"><a xlink:title=" ">
<path fill="none" stroke="#63b8ff" d="M511.98,-135.7C501.91,-133.41 491.71,-131.12 482,-129 468.44,-126.03 453.96,-122.96 440,-120.05"/>
<polygon fill="#63b8ff" stroke="#63b8ff" points="511.45,-139.17 521.97,-137.98 513,-132.34 511.45,-139.17"/>
</a>
</g>
</g>
<!-- Node16 -->
<g id="Node000016" class="node">
<title>Node16</title>
<g id="a_Node000016"><a xlink:href="../../d8/d8c/classTerraria_1_1ModLoader_1_1Core_1_1LoaderUtils_a2f2332c70964ee89cdb029ed074db8e8.html#a2f2332c70964ee89cdb029ed074db8e8" target="_top" xlink:title=" ">
<polygon fill="white" stroke="#666666" points="482,-72 248,-72 248,-42 482,-42 482,-72"/>
<text text-anchor="start" x="256" y="-60" font-family="Helvetica,sans-Serif" font-size="10.00">Terraria.ModLoader.Core.</text>
<text text-anchor="middle" x="365" y="-49" font-family="Helvetica,sans-Serif" font-size="10.00">LoaderUtils.WhereMethodIsOverridden&lt; T &gt;</text>
</a>
</g>
</g>
<!-- Node6&#45;&gt;Node16 -->
<g id="edge16_Node000006_Node000016" class="edge">
<title>Node6&#45;&gt;Node16</title>
<g id="a_edge16_Node000006_Node000016"><a xlink:title=" ">
<path fill="none" stroke="#63b8ff" d="M561.18,-131.5C541.11,-115.24 511.45,-93.62 482,-81 473.97,-77.56 465.4,-74.6 456.71,-72.05"/>
<polygon fill="#63b8ff" stroke="#63b8ff" points="558.96,-134.21 568.9,-137.88 563.42,-128.82 558.96,-134.21"/>
</a>
</g>
</g>
<!-- Node9 -->
<g id="Node000009" class="node">
<title>Node9</title>
<g id="a_Node000009"><a xlink:href="../../d8/d8c/classTerraria_1_1ModLoader_1_1Core_1_1LoaderUtils_a4a938326b7b230cf930bff8c73d93db8.html#a4a938326b7b230cf930bff8c73d93db8" target="_top" xlink:title=" ">
<polygon fill="white" stroke="#666666" points="212,-270 0,-270 0,-240 212,-240 212,-270"/>
<text text-anchor="start" x="8" y="-258" font-family="Helvetica,sans-Serif" font-size="10.00">Terraria.ModLoader.Core.</text>
<text text-anchor="middle" x="106" y="-247" font-family="Helvetica,sans-Serif" font-size="10.00">LoaderUtils.MustOverrideTogether&lt; T &gt;</text>
</a>
</g>
</g>
<!-- Node8&#45;&gt;Node9 -->
<g id="edge9_Node000008_Node000009" class="edge">
<title>Node8&#45;&gt;Node9</title>
<g id="a_edge9_Node000008_Node000009"><a xlink:title=" ">
<path fill="none" stroke="#63b8ff" d="M263.9,-169.19C258.33,-171.73 252.98,-174.64 248,-178 224.39,-193.92 235.51,-214.93 212,-231 206.98,-234.43 201.55,-237.37 195.88,-239.9"/>
<polygon fill="#63b8ff" stroke="#63b8ff" points="265.53,-172.31 273.46,-165.28 262.87,-165.83 265.53,-172.31"/>
</a>
</g>
</g>
<!-- Node10 -->
<g id="Node000010" class="node">
<title>Node10</title>
<g id="a_Node000010"><a xlink:href="../../db/d8c/classTerraria_1_1ModLoader_1_1GlobalItem_a916f24f49d55581bd28119572857989f.html#a916f24f49d55581bd28119572857989f" target="_top" xlink:title=" ">
<polygon fill="white" stroke="#666666" points="178,-222 34,-222 34,-192 178,-192 178,-222"/>
<text text-anchor="start" x="42" y="-210" font-family="Helvetica,sans-Serif" font-size="10.00">Terraria.ModLoader.Global</text>
<text text-anchor="middle" x="106" y="-199" font-family="Helvetica,sans-Serif" font-size="10.00">Item.ValidateType</text>
</a>
</g>
</g>
<!-- Node8&#45;&gt;Node10 -->
<g id="edge10_Node000008_Node000010" class="edge">
<title>Node8&#45;&gt;Node10</title>
<g id="a_edge10_Node000008_Node000010"><a xlink:title=" ">
<path fill="none" stroke="#63b8ff" d="M282.2,-170.19C248.77,-177.21 210.46,-185.26 178.2,-192.04"/>
<polygon fill="#63b8ff" stroke="#63b8ff" points="283.34,-173.52 292.41,-168.04 281.91,-166.67 283.34,-173.52"/>
</a>
</g>
</g>
<!-- Node11 -->
<g id="Node000011" class="node">
<title>Node11</title>
<g id="a_Node000011"><a xlink:href="../../d7/dd8/classTerraria_1_1ModLoader_1_1GlobalNPC_a8f148e5401a30b6bacaf7180d8b98e37.html#a8f148e5401a30b6bacaf7180d8b98e37" target="_top" xlink:title=" ">
<polygon fill="white" stroke="#666666" points="178,-174 34,-174 34,-144 178,-144 178,-174"/>
<text text-anchor="start" x="42" y="-162" font-family="Helvetica,sans-Serif" font-size="10.00">Terraria.ModLoader.Global</text>
<text text-anchor="middle" x="106" y="-151" font-family="Helvetica,sans-Serif" font-size="10.00">NPC.ValidateType</text>
</a>
</g>
</g>
<!-- Node8&#45;&gt;Node11 -->
<g id="edge11_Node000008_Node000011" class="edge">
<title>Node8&#45;&gt;Node11</title>
<g id="a_edge11_Node000008_Node000011"><a xlink:title=" ">
<path fill="none" stroke="#63b8ff" d="M263.04,-155.36C234.69,-156.02 204.46,-156.72 178.24,-157.34"/>
<polygon fill="#63b8ff" stroke="#63b8ff" points="263.48,-158.85 273.39,-155.12 263.31,-151.85 263.48,-158.85"/>
</a>
</g>
</g>
<!-- Node12 -->
<g id="Node000012" class="node">
<title>Node12</title>
<g id="a_Node000012"><a xlink:href="../../d4/deb/classTerraria_1_1ModLoader_1_1GlobalProjectile_a68eabb1f22307cbf47be63d86f2deb87.html#a68eabb1f22307cbf47be63d86f2deb87" target="_top" xlink:title=" ">
<polygon fill="white" stroke="#666666" points="178,-126 34,-126 34,-96 178,-96 178,-126"/>
<text text-anchor="start" x="42" y="-114" font-family="Helvetica,sans-Serif" font-size="10.00">Terraria.ModLoader.Global</text>
<text text-anchor="middle" x="106" y="-103" font-family="Helvetica,sans-Serif" font-size="10.00">Projectile.ValidateType</text>
</a>
</g>
</g>
<!-- Node8&#45;&gt;Node12 -->
<g id="edge12_Node000008_Node000012" class="edge">
<title>Node8&#45;&gt;Node12</title>
<g id="a_edge12_Node000008_Node000012"><a xlink:title=" ">
<path fill="none" stroke="#63b8ff" d="M263.42,-136.56C234.96,-131.91 204.58,-126.95 178.24,-122.64"/>
<polygon fill="#63b8ff" stroke="#63b8ff" points="262.96,-140.03 273.39,-138.19 264.09,-133.13 262.96,-140.03"/>
</a>
</g>
</g>
<!-- Node13 -->
<g id="Node000013" class="node">
<title>Node13</title>
<g id="a_Node000013"><a xlink:href="../../d1/d29/classTerraria_1_1ModLoader_1_1ModPlayer_afc5824d3c261669434f2816659e5f9fd.html#afc5824d3c261669434f2816659e5f9fd" target="_top" xlink:title="Check for the correct overrides of different hook methods and fields and properties.">
<polygon fill="white" stroke="#666666" points="189.5,-78 22.5,-78 22.5,-48 189.5,-48 189.5,-78"/>
<text text-anchor="start" x="30.5" y="-66" font-family="Helvetica,sans-Serif" font-size="10.00">Terraria.ModLoader.ModPlayer.</text>
<text text-anchor="middle" x="106" y="-55" font-family="Helvetica,sans-Serif" font-size="10.00">ValidateType</text>
</a>
</g>
</g>
<!-- Node8&#45;&gt;Node13 -->
<g id="edge13_Node000008_Node000013" class="edge">
<title>Node8&#45;&gt;Node13</title>
<g id="a_edge13_Node000008_Node000013"><a xlink:title=" ">
<path fill="none" stroke="#63b8ff" d="M263.96,-136.89C258.41,-134.59 253.05,-131.98 248,-129 226.83,-116.51 233.04,-99.71 212,-87 205.04,-82.79 197.41,-79.32 189.54,-76.46"/>
<polygon fill="#63b8ff" stroke="#63b8ff" points="262.84,-140.21 273.44,-140.45 265.31,-133.65 262.84,-140.21"/>
</a>
</g>
</g>
<!-- Node14 -->
<g id="Node000014" class="node">
<title>Node14</title>
<g id="a_Node000014"><a xlink:href="../../d8/d22/classTerraria_1_1ModLoader_1_1ModSystem_a26a842d33013d6387f2eb91193e61aa5.html#a26a842d33013d6387f2eb91193e61aa5" target="_top" xlink:title="Check for the correct overrides of different hook methods and fields and properties.">
<polygon fill="white" stroke="#666666" points="192.5,-30 19.5,-30 19.5,0 192.5,0 192.5,-30"/>
<text text-anchor="start" x="27.5" y="-18" font-family="Helvetica,sans-Serif" font-size="10.00">Terraria.ModLoader.ModSystem.</text>
<text text-anchor="middle" x="106" y="-7" font-family="Helvetica,sans-Serif" font-size="10.00">ValidateType</text>
</a>
</g>
</g>
<!-- Node8&#45;&gt;Node14 -->
<g id="edge14_Node000008_Node000014" class="edge">
<title>Node8&#45;&gt;Node14</title>
<g id="a_edge14_Node000008_Node000014"><a xlink:title=" ">
<path fill="none" stroke="#63b8ff" d="M264.11,-139.5C258.35,-136.59 252.91,-133.12 248,-129 214.97,-101.34 244.74,-67 212,-39 206.24,-34.08 199.68,-30.11 192.71,-26.92"/>
<polygon fill="#63b8ff" stroke="#63b8ff" points="262.84,-142.77 273.4,-143.65 265.7,-136.38 262.84,-142.77"/>
</a>
</g>
</g>
</g>
</svg>
