<?xml version="1.0" encoding="UTF-8" standalone="no"?>
<!DOCTYPE svg PUBLIC "-//W3C//DTD SVG 1.1//EN"
 "http://www.w3.org/Graphics/SVG/1.1/DTD/svg11.dtd">
<!-- Generated by graphviz version 2.43.0 (0)
 -->
<!-- Title: Terraria.GameContent.TownRoomManager.SetRoom Pages: 1 -->
<svg width="2619pt" height="448pt"
 viewBox="0.00 0.00 2619.00 448.00" xmlns="http://www.w3.org/2000/svg" xmlns:xlink="http://www.w3.org/1999/xlink">
<g id="graph0" class="graph" transform="scale(1 1) rotate(0) translate(4 444)">
<title>Terraria.GameContent.TownRoomManager.SetRoom</title>
<!-- Node1 -->
<g id="Node000001" class="node">
<title>Node1</title>
<g id="a_Node000001"><a xlink:title=" ">
<polygon fill="#999999" stroke="#666666" points="2611,-99 2459,-99 2459,-69 2611,-69 2611,-99"/>
<text text-anchor="start" x="2467" y="-87" font-family="Helvetica,sans-Serif" font-size="10.00">Terraria.GameContent.Town</text>
<text text-anchor="middle" x="2535" y="-76" font-family="Helvetica,sans-Serif" font-size="10.00">RoomManager.SetRoom</text>
</a>
</g>
</g>
<!-- Node1&#45;&gt;Node1 -->
<g id="edge47_Node000001_Node000001" class="edge">
<title>Node1&#45;&gt;Node1</title>
<g id="a_edge47_Node000001_Node000001"><a xlink:title=" ">
<path fill="none" stroke="#63b8ff" d="M2568.61,-109.6C2564.01,-113.97 2552.81,-117 2535,-117 2505,-117 2493.75,-108.41 2501.25,-99.28"/>
<polygon fill="#63b8ff" stroke="#63b8ff" points="2572.11,-109.32 2568.75,-99.28 2565.11,-109.23 2572.11,-109.32"/>
</a>
</g>
</g>
<!-- Node2 -->
<g id="Node000002" class="node">
<title>Node2</title>
<g id="a_Node000002"><a xlink:href="../../db/d63/classTerraria_1_1MessageBuffer_ab4039006321b0ab8e7d66acbd82370b0.html#ab4039006321b0ab8e7d66acbd82370b0" target="_top" xlink:title=" ">
<polygon fill="white" stroke="#666666" points="2224,-115.5 2052,-115.5 2052,-96.5 2224,-96.5 2224,-115.5"/>
<text text-anchor="middle" x="2138" y="-103.5" font-family="Helvetica,sans-Serif" font-size="10.00">Terraria.MessageBuffer.GetData</text>
</a>
</g>
</g>
<!-- Node1&#45;&gt;Node2 -->
<g id="edge1_Node000001_Node000002" class="edge">
<title>Node1&#45;&gt;Node2</title>
<g id="a_edge1_Node000001_Node000002"><a xlink:title=" ">
<path fill="none" stroke="#63b8ff" d="M2448.76,-88.75C2382.36,-92.45 2290.62,-97.56 2224.23,-101.25"/>
<polygon fill="#63b8ff" stroke="#63b8ff" points="2448.98,-92.24 2458.77,-88.19 2448.59,-85.25 2448.98,-92.24"/>
</a>
</g>
</g>
<!-- Node35 -->
<g id="Node000035" class="node">
<title>Node35</title>
<g id="a_Node000035"><a xlink:href="../../de/da1/classTerraria_1_1WorldGen_a36e39b8b4820ee1a10353411ea5ea4aa.html#a36e39b8b4820ee1a10353411ea5ea4aa" target="_top" xlink:title=" ">
<polygon fill="white" stroke="#666666" points="2423,-74.5 2260,-74.5 2260,-55.5 2423,-55.5 2423,-74.5"/>
<text text-anchor="middle" x="2341.5" y="-62.5" font-family="Helvetica,sans-Serif" font-size="10.00">Terraria.WorldGen.moveRoom</text>
</a>
</g>
</g>
<!-- Node1&#45;&gt;Node35 -->
<g id="edge38_Node000001_Node000035" class="edge">
<title>Node1&#45;&gt;Node35</title>
<g id="a_edge38_Node000001_Node000035"><a xlink:title=" ">
<path fill="none" stroke="#63b8ff" d="M2448.88,-75.55C2440.31,-74.7 2431.62,-73.84 2423.11,-73"/>
<polygon fill="#63b8ff" stroke="#63b8ff" points="2448.57,-79.04 2458.86,-76.55 2449.26,-72.07 2448.57,-79.04"/>
</a>
</g>
</g>
<!-- Node3 -->
<g id="Node000003" class="node">
<title>Node3</title>
<g id="a_Node000003"><a xlink:href="../../d2/dfe/classTerraria_1_1NetMessage_a0e34d7a3b999304ba194c4163243ce55.html#a0e34d7a3b999304ba194c4163243ce55" target="_top" xlink:title=" ">
<polygon fill="white" stroke="#666666" points="2001,-141 1851,-141 1851,-111 2001,-111 2001,-141"/>
<text text-anchor="start" x="1859" y="-129" font-family="Helvetica,sans-Serif" font-size="10.00">Terraria.NetMessage.Check</text>
<text text-anchor="middle" x="1926" y="-118" font-family="Helvetica,sans-Serif" font-size="10.00">Bytes</text>
</a>
</g>
</g>
<!-- Node2&#45;&gt;Node3 -->
<g id="edge2_Node000002_Node000003" class="edge">
<title>Node2&#45;&gt;Node3</title>
<g id="a_edge2_Node000002_Node000003"><a xlink:title=" ">
<path fill="none" stroke="#63b8ff" d="M2041.56,-115.09C2027.98,-116.38 2014.19,-117.7 2001.1,-118.94"/>
<polygon fill="#63b8ff" stroke="#63b8ff" points="2042.26,-118.54 2051.89,-114.11 2041.6,-111.57 2042.26,-118.54"/>
</a>
</g>
</g>
<!-- Node4 -->
<g id="Node000004" class="node">
<title>Node4</title>
<g id="a_Node000004"><a xlink:href="../../db/d90/classTerraria_1_1Netplay_a0177534cae0ae33727d0590e3585777a.html#a0177534cae0ae33727d0590e3585777a" target="_top" xlink:title=" ">
<polygon fill="white" stroke="#666666" points="1800,-200.5 1627,-200.5 1627,-181.5 1800,-181.5 1800,-200.5"/>
<text text-anchor="middle" x="1713.5" y="-188.5" font-family="Helvetica,sans-Serif" font-size="10.00">Terraria.Netplay.InnerClientLoop</text>
</a>
</g>
</g>
<!-- Node3&#45;&gt;Node4 -->
<g id="edge3_Node000003_Node000004" class="edge">
<title>Node3&#45;&gt;Node4</title>
<g id="a_edge3_Node000003_Node000004"><a xlink:title=" ">
<path fill="none" stroke="#63b8ff" d="M1877.24,-144.66C1854.12,-153.32 1825.84,-163.36 1800,-171 1786.99,-174.85 1772.69,-178.44 1759.57,-181.49"/>
<polygon fill="#63b8ff" stroke="#63b8ff" points="1878.69,-147.86 1886.81,-141.05 1876.22,-141.31 1878.69,-147.86"/>
</a>
</g>
</g>
<!-- Node30 -->
<g id="Node000030" class="node">
<title>Node30</title>
<g id="a_Node000030"><a xlink:href="../../db/d90/classTerraria_1_1Netplay_aa90a53404e1e4f7791f3bb47e5d4b2e8.html#aa90a53404e1e4f7791f3bb47e5d4b2e8" target="_top" xlink:title=" ">
<polygon fill="white" stroke="#666666" points="1793.5,-114 1633.5,-114 1633.5,-84 1793.5,-84 1793.5,-114"/>
<text text-anchor="start" x="1641.5" y="-102" font-family="Helvetica,sans-Serif" font-size="10.00">Terraria.Netplay.UpdateClient</text>
<text text-anchor="middle" x="1713.5" y="-91" font-family="Helvetica,sans-Serif" font-size="10.00">InMainThread</text>
</a>
</g>
</g>
<!-- Node3&#45;&gt;Node30 -->
<g id="edge32_Node000003_Node000030" class="edge">
<title>Node3&#45;&gt;Node30</title>
<g id="a_edge32_Node000003_Node000030"><a xlink:title=" ">
<path fill="none" stroke="#63b8ff" d="M1840.71,-115.19C1825.22,-113.2 1809.1,-111.13 1793.76,-109.17"/>
<polygon fill="#63b8ff" stroke="#63b8ff" points="1840.42,-118.68 1850.79,-116.48 1841.31,-111.74 1840.42,-118.68"/>
</a>
</g>
</g>
<!-- Node34 -->
<g id="Node000034" class="node">
<title>Node34</title>
<g id="a_Node000034"><a xlink:href="../../db/d90/classTerraria_1_1Netplay_aec54ed7e3dd3c29dae1930335ca1b763.html#aec54ed7e3dd3c29dae1930335ca1b763" target="_top" xlink:title=" ">
<polygon fill="white" stroke="#666666" points="1795,-162 1632,-162 1632,-132 1795,-132 1795,-162"/>
<text text-anchor="start" x="1640" y="-150" font-family="Helvetica,sans-Serif" font-size="10.00">Terraria.Netplay.UpdateServer</text>
<text text-anchor="middle" x="1713.5" y="-139" font-family="Helvetica,sans-Serif" font-size="10.00">InMainThread</text>
</a>
</g>
</g>
<!-- Node3&#45;&gt;Node34 -->
<g id="edge36_Node000003_Node000034" class="edge">
<title>Node3&#45;&gt;Node34</title>
<g id="a_edge36_Node000003_Node000034"><a xlink:title=" ">
<path fill="none" stroke="#63b8ff" d="M1840.54,-134.43C1825.59,-135.92 1810.05,-137.47 1795.2,-138.95"/>
<polygon fill="#63b8ff" stroke="#63b8ff" points="1841.18,-137.88 1850.79,-133.4 1840.49,-130.91 1841.18,-137.88"/>
</a>
</g>
</g>
<!-- Node5 -->
<g id="Node000005" class="node">
<title>Node5</title>
<g id="a_Node000005"><a xlink:href="../../db/d90/classTerraria_1_1Netplay_a0aab65a17de3d6fde6c56638080a0eb3.html#a0aab65a17de3d6fde6c56638080a0eb3" target="_top" xlink:title=" ">
<polygon fill="white" stroke="#666666" points="1591,-264.5 1414,-264.5 1414,-245.5 1591,-245.5 1591,-264.5"/>
<text text-anchor="middle" x="1502.5" y="-252.5" font-family="Helvetica,sans-Serif" font-size="10.00">Terraria.Netplay.SocialClientLoop</text>
</a>
</g>
</g>
<!-- Node4&#45;&gt;Node5 -->
<g id="edge4_Node000004_Node000005" class="edge">
<title>Node4&#45;&gt;Node5</title>
<g id="a_edge4_Node000004_Node000005"><a xlink:title=" ">
<path fill="none" stroke="#63b8ff" d="M1671.46,-203.57C1631.31,-215.86 1571.03,-234.32 1534.66,-245.46"/>
<polygon fill="#63b8ff" stroke="#63b8ff" points="1672.67,-206.86 1681.21,-200.58 1670.62,-200.16 1672.67,-206.86"/>
</a>
</g>
</g>
<!-- Node16 -->
<g id="Node000016" class="node">
<title>Node16</title>
<g id="a_Node000016"><a xlink:href="../../db/d90/classTerraria_1_1Netplay_a3b934fcb0fe838d54abafb6b31e2d0c0.html#a3b934fcb0fe838d54abafb6b31e2d0c0" target="_top" xlink:title=" ">
<polygon fill="white" stroke="#666666" points="1584.5,-200.5 1420.5,-200.5 1420.5,-181.5 1584.5,-181.5 1584.5,-200.5"/>
<text text-anchor="middle" x="1502.5" y="-188.5" font-family="Helvetica,sans-Serif" font-size="10.00">Terraria.Netplay.TcpClientLoop</text>
</a>
</g>
</g>
<!-- Node4&#45;&gt;Node16 -->
<g id="edge16_Node000004_Node000016" class="edge">
<title>Node4&#45;&gt;Node16</title>
<g id="a_edge16_Node000004_Node000016"><a xlink:title=" ">
<path fill="none" stroke="#63b8ff" d="M1616.67,-191C1605.95,-191 1595.11,-191 1584.6,-191"/>
<polygon fill="#63b8ff" stroke="#63b8ff" points="1616.89,-194.5 1626.89,-191 1616.89,-187.5 1616.89,-194.5"/>
</a>
</g>
</g>
<!-- Node6 -->
<g id="Node000006" class="node">
<title>Node6</title>
<g id="a_Node000006"><a xlink:href="../../db/d90/classTerraria_1_1Netplay_a95fbcd51bf95f62c790c052becf3ca70.html#a95fbcd51bf95f62c790c052becf3ca70" target="_top" xlink:title=" ">
<polygon fill="white" stroke="#666666" points="1378,-297 1229,-297 1229,-267 1378,-267 1378,-297"/>
<text text-anchor="start" x="1237" y="-285" font-family="Helvetica,sans-Serif" font-size="10.00">Terraria.Netplay.StartSocial</text>
<text text-anchor="middle" x="1303.5" y="-274" font-family="Helvetica,sans-Serif" font-size="10.00">Client</text>
</a>
</g>
</g>
<!-- Node5&#45;&gt;Node6 -->
<g id="edge5_Node000005_Node000006" class="edge">
<title>Node5&#45;&gt;Node6</title>
<g id="a_edge5_Node000005_Node000006"><a xlink:title=" ">
<path fill="none" stroke="#63b8ff" d="M1422.07,-265.89C1407.52,-267.88 1392.38,-269.96 1378,-271.93"/>
<polygon fill="#63b8ff" stroke="#63b8ff" points="1422.61,-269.34 1432.05,-264.52 1421.66,-262.41 1422.61,-269.34"/>
</a>
</g>
</g>
<!-- Node7 -->
<g id="Node000007" class="node">
<title>Node7</title>
<g id="a_Node000007"><a xlink:href="../../db/d90/classTerraria_1_1Netplay_a735e2f9e72e38fcb094d3cec93a90cb3.html#a735e2f9e72e38fcb094d3cec93a90cb3" target="_top" xlink:title=" ">
<polygon fill="white" stroke="#666666" points="1192,-339 1031,-339 1031,-309 1192,-309 1192,-339"/>
<text text-anchor="start" x="1039" y="-327" font-family="Helvetica,sans-Serif" font-size="10.00">Terraria.Netplay.OnConnected</text>
<text text-anchor="middle" x="1111.5" y="-316" font-family="Helvetica,sans-Serif" font-size="10.00">ToSocialServer</text>
</a>
</g>
</g>
<!-- Node6&#45;&gt;Node7 -->
<g id="edge6_Node000006_Node000007" class="edge">
<title>Node6&#45;&gt;Node7</title>
<g id="a_edge6_Node000006_Node000007"><a xlink:title=" ">
<path fill="none" stroke="#63b8ff" d="M1224.44,-299.26C1209.83,-302.49 1194.67,-305.84 1180.4,-308.99"/>
<polygon fill="#63b8ff" stroke="#63b8ff" points="1225.43,-302.62 1234.44,-297.04 1223.92,-295.79 1225.43,-302.62"/>
</a>
</g>
</g>
<!-- Node8 -->
<g id="Node000008" class="node">
<title>Node8</title>
<g id="a_Node000008"><a xlink:href="../../dc/d94/classTerraria_1_1Social_1_1WeGame_1_1NetClientSocialModule_a3aa4e495c006216e805fb76e98be06e0.html#a3aa4e495c006216e805fb76e98be06e0" target="_top" xlink:title=" ">
<polygon fill="white" stroke="#666666" points="991,-337 803,-337 803,-307 991,-307 991,-337"/>
<text text-anchor="start" x="811" y="-325" font-family="Helvetica,sans-Serif" font-size="10.00">Terraria.Social.WeGame.Net</text>
<text text-anchor="middle" x="897" y="-314" font-family="Helvetica,sans-Serif" font-size="10.00">ClientSocialModule.OnAuthSuccess</text>
</a>
</g>
</g>
<!-- Node7&#45;&gt;Node8 -->
<g id="edge7_Node000007_Node000008" class="edge">
<title>Node7&#45;&gt;Node8</title>
<g id="a_edge7_Node000007_Node000008"><a xlink:title=" ">
<path fill="none" stroke="#63b8ff" d="M1020.65,-323.15C1010.86,-323.06 1000.88,-322.97 991.06,-322.88"/>
<polygon fill="#63b8ff" stroke="#63b8ff" points="1020.74,-326.66 1030.77,-323.25 1020.8,-319.66 1020.74,-326.66"/>
</a>
</g>
</g>
<!-- Node11 -->
<g id="Node000011" class="node">
<title>Node11</title>
<g id="a_Node000011"><a xlink:href="../../d7/d4a/classTerraria_1_1Social_1_1Steam_1_1NetClientSocialModule_a22273ba592889cc0dfcc144f06138bbc.html#a22273ba592889cc0dfcc144f06138bbc" target="_top" xlink:title=" ">
<polygon fill="white" stroke="#666666" points="994,-386 800,-386 800,-356 994,-356 994,-386"/>
<text text-anchor="start" x="808" y="-374" font-family="Helvetica,sans-Serif" font-size="10.00">Terraria.Social.Steam.Net</text>
<text text-anchor="middle" x="897" y="-363" font-family="Helvetica,sans-Serif" font-size="10.00">ClientSocialModule.OnLobbyEntered</text>
</a>
</g>
</g>
<!-- Node7&#45;&gt;Node11 -->
<g id="edge10_Node000007_Node000011" class="edge">
<title>Node7&#45;&gt;Node11</title>
<g id="a_edge10_Node000007_Node000011"><a xlink:title=" ">
<path fill="none" stroke="#63b8ff" d="M1032.75,-341.2C1010.84,-346.04 987.19,-351.27 965.91,-355.98"/>
<polygon fill="#63b8ff" stroke="#63b8ff" points="1033.67,-344.58 1042.68,-339 1032.16,-337.74 1033.67,-344.58"/>
</a>
</g>
</g>
<!-- Node9 -->
<g id="Node000009" class="node">
<title>Node9</title>
<g id="a_Node000009"><a xlink:href="../../dc/d94/classTerraria_1_1Social_1_1WeGame_1_1NetClientSocialModule_a805b557babee519c34c71e4612e1b9af.html#a805b557babee519c34c71e4612e1b9af" target="_top" xlink:title=" ">
<polygon fill="white" stroke="#666666" points="759,-334 576,-334 576,-304 759,-304 759,-334"/>
<text text-anchor="start" x="584" y="-322" font-family="Helvetica,sans-Serif" font-size="10.00">Terraria.Social.WeGame.Net</text>
<text text-anchor="middle" x="667.5" y="-311" font-family="Helvetica,sans-Serif" font-size="10.00">ClientSocialModule.OnPacketRead</text>
</a>
</g>
</g>
<!-- Node8&#45;&gt;Node9 -->
<g id="edge8_Node000008_Node000009" class="edge">
<title>Node8&#45;&gt;Node9</title>
<g id="a_edge8_Node000008_Node000009"><a xlink:title=" ">
<path fill="none" stroke="#63b8ff" d="M792.65,-320.64C781.54,-320.49 770.29,-320.34 759.34,-320.2"/>
<polygon fill="#63b8ff" stroke="#63b8ff" points="792.77,-324.14 802.81,-320.77 792.86,-317.14 792.77,-324.14"/>
</a>
</g>
</g>
<!-- Node10 -->
<g id="Node000010" class="node">
<title>Node10</title>
<g id="a_Node000010"><a xlink:href="../../dc/d94/classTerraria_1_1Social_1_1WeGame_1_1NetClientSocialModule_ab875d83363ffab735301f201edb65488.html#ab875d83363ffab735301f201edb65488" target="_top" xlink:title=" ">
<polygon fill="white" stroke="#666666" points="513,-332 358,-332 358,-302 513,-302 513,-332"/>
<text text-anchor="start" x="366" y="-320" font-family="Helvetica,sans-Serif" font-size="10.00">Terraria.Social.WeGame.Net</text>
<text text-anchor="middle" x="435.5" y="-309" font-family="Helvetica,sans-Serif" font-size="10.00">ClientSocialModule.Initialize</text>
</a>
</g>
</g>
<!-- Node9&#45;&gt;Node10 -->
<g id="edge9_Node000009_Node000010" class="edge">
<title>Node9&#45;&gt;Node10</title>
<g id="a_edge9_Node000009_Node000010"><a xlink:title=" ">
<path fill="none" stroke="#63b8ff" d="M565.64,-318.12C548.06,-317.97 530.04,-317.81 513.24,-317.67"/>
<polygon fill="#63b8ff" stroke="#63b8ff" points="565.9,-321.63 575.93,-318.21 565.96,-314.63 565.9,-321.63"/>
</a>
</g>
</g>
<!-- Node12 -->
<g id="Node000012" class="node">
<title>Node12</title>
<g id="a_Node000012"><a xlink:href="../../d7/d4a/classTerraria_1_1Social_1_1Steam_1_1NetClientSocialModule_a3c558d5f5dc5d483d6c3d6ac0d9507c2.html#a3c558d5f5dc5d483d6c3d6ac0d9507c2" target="_top" xlink:title=" ">
<polygon fill="white" stroke="#666666" points="764,-435 571,-435 571,-405 764,-405 764,-435"/>
<text text-anchor="start" x="579" y="-423" font-family="Helvetica,sans-Serif" font-size="10.00">Terraria.Social.Steam.Net</text>
<text text-anchor="middle" x="667.5" y="-412" font-family="Helvetica,sans-Serif" font-size="10.00">ClientSocialModule.ConnectToLobby</text>
</a>
</g>
</g>
<!-- Node11&#45;&gt;Node12 -->
<g id="edge11_Node000011_Node000012" class="edge">
<title>Node11&#45;&gt;Node12</title>
<g id="a_edge11_Node000011_Node000012"><a xlink:title=" ">
<path fill="none" stroke="#63b8ff" d="M816.21,-388.19C790.77,-393.66 762.84,-399.68 738.17,-404.99"/>
<polygon fill="#63b8ff" stroke="#63b8ff" points="817.16,-391.56 826.2,-386.03 815.68,-384.72 817.16,-391.56"/>
</a>
</g>
</g>
<!-- Node15 -->
<g id="Node000015" class="node">
<title>Node15</title>
<g id="a_Node000015"><a xlink:href="../../d7/d4a/classTerraria_1_1Social_1_1Steam_1_1NetClientSocialModule_a590e1d127b423851d741ee658eaba1ba.html#a590e1d127b423851d741ee658eaba1ba" target="_top" xlink:title=" ">
<polygon fill="white" stroke="#666666" points="522.5,-391.5 348.5,-391.5 348.5,-350.5 522.5,-350.5 522.5,-391.5"/>
<text text-anchor="start" x="356.5" y="-379.5" font-family="Helvetica,sans-Serif" font-size="10.00">Terraria.Social.Steam.Net</text>
<text text-anchor="start" x="356.5" y="-368.5" font-family="Helvetica,sans-Serif" font-size="10.00">ClientSocialModule.OnLobbyJoin</text>
<text text-anchor="middle" x="435.5" y="-357.5" font-family="Helvetica,sans-Serif" font-size="10.00">Request</text>
</a>
</g>
</g>
<!-- Node11&#45;&gt;Node15 -->
<g id="edge14_Node000011_Node000015" class="edge">
<title>Node11&#45;&gt;Node15</title>
<g id="a_edge14_Node000011_Node000015"><a xlink:title=" ">
<path fill="none" stroke="#63b8ff" d="M789.72,-371C708.64,-371 598.38,-371 522.73,-371"/>
<polygon fill="#63b8ff" stroke="#63b8ff" points="789.95,-374.5 799.95,-371 789.95,-367.5 789.95,-374.5"/>
</a>
</g>
</g>
<!-- Node13 -->
<g id="Node000013" class="node">
<title>Node13</title>
<g id="a_Node000013"><a xlink:href="../../d7/d4a/classTerraria_1_1Social_1_1Steam_1_1NetClientSocialModule_a4a444adca38141b0cb7d6eb6b0176a14.html#a4a444adca38141b0cb7d6eb6b0176a14" target="_top" xlink:title=" ">
<polygon fill="white" stroke="#666666" points="535,-440 336,-440 336,-410 535,-410 535,-440"/>
<text text-anchor="start" x="344" y="-428" font-family="Helvetica,sans-Serif" font-size="10.00">Terraria.Social.Steam.Net</text>
<text text-anchor="middle" x="435.5" y="-417" font-family="Helvetica,sans-Serif" font-size="10.00">ClientSocialModule.CheckParameters</text>
</a>
</g>
</g>
<!-- Node12&#45;&gt;Node13 -->
<g id="edge12_Node000012_Node000013" class="edge">
<title>Node12&#45;&gt;Node13</title>
<g id="a_edge12_Node000012_Node000013"><a xlink:title=" ">
<path fill="none" stroke="#63b8ff" d="M560.9,-422.3C552.3,-422.48 543.63,-422.67 535.08,-422.86"/>
<polygon fill="#63b8ff" stroke="#63b8ff" points="561.04,-425.79 570.96,-422.08 560.88,-418.8 561.04,-425.79"/>
</a>
</g>
</g>
<!-- Node14 -->
<g id="Node000014" class="node">
<title>Node14</title>
<g id="a_Node000014"><a xlink:href="../../d7/d4a/classTerraria_1_1Social_1_1Steam_1_1NetClientSocialModule_af383ef4d3738050686d31eeea14a4ecf.html#af383ef4d3738050686d31eeea14a4ecf" target="_top" xlink:title=" ">
<polygon fill="white" stroke="#666666" points="300,-413 145,-413 145,-383 300,-383 300,-413"/>
<text text-anchor="start" x="153" y="-401" font-family="Helvetica,sans-Serif" font-size="10.00">Terraria.Social.Steam.Net</text>
<text text-anchor="middle" x="222.5" y="-390" font-family="Helvetica,sans-Serif" font-size="10.00">ClientSocialModule.Initialize</text>
</a>
</g>
</g>
<!-- Node13&#45;&gt;Node14 -->
<g id="edge13_Node000013_Node000014" class="edge">
<title>Node13&#45;&gt;Node14</title>
<g id="a_edge13_Node000013_Node000014"><a xlink:title=" ">
<path fill="none" stroke="#63b8ff" d="M325.65,-411.07C317,-409.96 308.38,-408.86 300.03,-407.79"/>
<polygon fill="#63b8ff" stroke="#63b8ff" points="325.43,-414.57 335.8,-412.37 326.32,-407.63 325.43,-414.57"/>
</a>
</g>
</g>
<!-- Node15&#45;&gt;Node14 -->
<g id="edge15_Node000015_Node000014" class="edge">
<title>Node15&#45;&gt;Node14</title>
<g id="a_edge15_Node000015_Node000014"><a xlink:title=" ">
<path fill="none" stroke="#63b8ff" d="M338.21,-383.32C325.47,-384.95 312.55,-386.6 300.21,-388.18"/>
<polygon fill="#63b8ff" stroke="#63b8ff" points="338.9,-386.76 348.37,-382.02 338.01,-379.82 338.9,-386.76"/>
</a>
</g>
</g>
<!-- Node17 -->
<g id="Node000017" class="node">
<title>Node17</title>
<g id="a_Node000017"><a xlink:href="../../db/d90/classTerraria_1_1Netplay_a9e9dd745269441e0d737ad3cc8ac437d.html#a9e9dd745269441e0d737ad3cc8ac437d" target="_top" xlink:title=" ">
<polygon fill="white" stroke="#666666" points="1371,-206 1236,-206 1236,-176 1371,-176 1371,-206"/>
<text text-anchor="start" x="1244" y="-194" font-family="Helvetica,sans-Serif" font-size="10.00">Terraria.Netplay.StartTcp</text>
<text text-anchor="middle" x="1303.5" y="-183" font-family="Helvetica,sans-Serif" font-size="10.00">Client</text>
</a>
</g>
</g>
<!-- Node16&#45;&gt;Node17 -->
<g id="edge17_Node000016_Node000017" class="edge">
<title>Node16&#45;&gt;Node17</title>
<g id="a_edge17_Node000016_Node000017"><a xlink:title=" ">
<path fill="none" stroke="#63b8ff" d="M1410.22,-191C1397.07,-191 1383.74,-191 1371.18,-191"/>
<polygon fill="#63b8ff" stroke="#63b8ff" points="1410.24,-194.5 1420.24,-191 1410.24,-187.5 1410.24,-194.5"/>
</a>
</g>
</g>
<!-- Node18 -->
<g id="Node000018" class="node">
<title>Node18</title>
<g id="a_Node000018"><a xlink:href="../../da/dd5/classTerraria_1_1Main_af14a405f72e122b1782d6ddb3c2845fa.html#af14a405f72e122b1782d6ddb3c2845fa" target="_top" xlink:title=" ">
<polygon fill="white" stroke="#666666" points="1173.5,-290.5 1049.5,-290.5 1049.5,-271.5 1173.5,-271.5 1173.5,-290.5"/>
<text text-anchor="middle" x="1111.5" y="-278.5" font-family="Helvetica,sans-Serif" font-size="10.00">Terraria.Main.AutoJoin</text>
</a>
</g>
</g>
<!-- Node17&#45;&gt;Node18 -->
<g id="edge18_Node000017_Node000018" class="edge">
<title>Node17&#45;&gt;Node18</title>
<g id="a_edge18_Node000017_Node000018"><a xlink:title=" ">
<path fill="none" stroke="#63b8ff" d="M1275.25,-212.48C1253.96,-228.28 1223.03,-249.18 1193,-262 1184.15,-265.78 1174.42,-268.88 1164.88,-271.4"/>
<polygon fill="#63b8ff" stroke="#63b8ff" points="1277.61,-215.08 1283.48,-206.27 1273.39,-209.5 1277.61,-215.08"/>
</a>
</g>
</g>
<!-- Node19 -->
<g id="Node000019" class="node">
<title>Node19</title>
<g id="a_Node000019"><a xlink:href="../../da/dd5/classTerraria_1_1Main_a41717edb6525f73f966d5bfb874d8056.html#a41717edb6525f73f966d5bfb874d8056" target="_top" xlink:title=" ">
<polygon fill="white" stroke="#666666" points="1193,-205 1030,-205 1030,-175 1193,-175 1193,-205"/>
<text text-anchor="start" x="1038" y="-193" font-family="Helvetica,sans-Serif" font-size="10.00">Terraria.Main.OnSubmitServer</text>
<text text-anchor="middle" x="1111.5" y="-182" font-family="Helvetica,sans-Serif" font-size="10.00">Password</text>
</a>
</g>
</g>
<!-- Node17&#45;&gt;Node19 -->
<g id="edge19_Node000017_Node000019" class="edge">
<title>Node17&#45;&gt;Node19</title>
<g id="a_edge19_Node000017_Node000019"><a xlink:title=" ">
<path fill="none" stroke="#63b8ff" d="M1225.62,-190.6C1214.91,-190.54 1203.87,-190.48 1193.09,-190.42"/>
<polygon fill="#63b8ff" stroke="#63b8ff" points="1225.76,-194.1 1235.78,-190.65 1225.8,-187.1 1225.76,-194.1"/>
</a>
</g>
</g>
<!-- Node25 -->
<g id="Node000025" class="node">
<title>Node25</title>
<g id="a_Node000025"><a xlink:href="../../da/dd5/classTerraria_1_1Main_a8e23db199a88c74f61dba8141b3e1464.html#a8e23db199a88c74f61dba8141b3e1464" target="_top" xlink:title=" ">
<polygon fill="white" stroke="#666666" points="1183.5,-150.5 1039.5,-150.5 1039.5,-131.5 1183.5,-131.5 1183.5,-150.5"/>
<text text-anchor="middle" x="1111.5" y="-138.5" font-family="Helvetica,sans-Serif" font-size="10.00">Terraria.Main.SelectPlayer</text>
</a>
</g>
</g>
<!-- Node17&#45;&gt;Node25 -->
<g id="edge25_Node000017_Node000025" class="edge">
<title>Node17&#45;&gt;Node25</title>
<g id="a_edge25_Node000017_Node000025"><a xlink:title=" ">
<path fill="none" stroke="#63b8ff" d="M1235.75,-173.43C1206.52,-165.74 1173.36,-157.02 1148.8,-150.55"/>
<polygon fill="#63b8ff" stroke="#63b8ff" points="1234.93,-176.84 1245.49,-176 1236.71,-170.07 1234.93,-176.84"/>
</a>
</g>
</g>
<!-- Node28 -->
<g id="Node000028" class="node">
<title>Node28</title>
<g id="a_Node000028"><a xlink:href="../../da/dd5/classTerraria_1_1Main_a365b23519a738e1955e6d70aa4bccafd.html#a365b23519a738e1955e6d70aa4bccafd" target="_top" xlink:title=" ">
<polygon fill="white" stroke="#666666" points="1179,-253 1044,-253 1044,-223 1179,-223 1179,-253"/>
<text text-anchor="start" x="1052" y="-241" font-family="Helvetica,sans-Serif" font-size="10.00">Terraria.Main.StartClient</text>
<text text-anchor="middle" x="1111.5" y="-230" font-family="Helvetica,sans-Serif" font-size="10.00">Gameplay</text>
</a>
</g>
</g>
<!-- Node17&#45;&gt;Node28 -->
<g id="edge28_Node000017_Node000028" class="edge">
<title>Node17&#45;&gt;Node28</title>
<g id="a_edge28_Node000017_Node000028"><a xlink:title=" ">
<path fill="none" stroke="#63b8ff" d="M1231.92,-208.46C1212.63,-213.23 1191.9,-218.36 1173.22,-222.98"/>
<polygon fill="#63b8ff" stroke="#63b8ff" points="1232.99,-211.8 1241.86,-206 1231.31,-205 1232.99,-211.8"/>
</a>
</g>
</g>
<!-- Node20 -->
<g id="Node000020" class="node">
<title>Node20</title>
<g id="a_Node000020"><a xlink:href="../../da/dd5/classTerraria_1_1Main_ae7acc9fe7fb0914ed02aacdfdc9039c5.html#ae7acc9fe7fb0914ed02aacdfdc9039c5" target="_top" xlink:title=" ">
<polygon fill="white" stroke="#666666" points="735.5,-229.5 599.5,-229.5 599.5,-210.5 735.5,-210.5 735.5,-229.5"/>
<text text-anchor="middle" x="667.5" y="-217.5" font-family="Helvetica,sans-Serif" font-size="10.00">Terraria.Main.DrawMenu</text>
</a>
</g>
</g>
<!-- Node19&#45;&gt;Node20 -->
<g id="edge20_Node000019_Node000020" class="edge">
<title>Node19&#45;&gt;Node20</title>
<g id="a_edge20_Node000019_Node000020"><a xlink:title=" ">
<path fill="none" stroke="#63b8ff" d="M1019.86,-196.15C935.52,-201.88 811.75,-210.28 735.85,-215.43"/>
<polygon fill="#63b8ff" stroke="#63b8ff" points="1020.2,-199.64 1029.94,-195.47 1019.73,-192.65 1020.2,-199.64"/>
</a>
</g>
</g>
<!-- Node24 -->
<g id="Node000024" class="node">
<title>Node24</title>
<g id="a_Node000024"><a xlink:href="../../da/dd5/classTerraria_1_1Main_a4235ca20881bf906c51075bd2dfefea1.html#a4235ca20881bf906c51075bd2dfefea1" target="_top" xlink:title=" ">
<polygon fill="white" stroke="#666666" points="978.5,-173 815.5,-173 815.5,-143 978.5,-143 978.5,-173"/>
<text text-anchor="start" x="823.5" y="-161" font-family="Helvetica,sans-Serif" font-size="10.00">Terraria.Main.OnSubmitServer</text>
<text text-anchor="middle" x="897" y="-150" font-family="Helvetica,sans-Serif" font-size="10.00">Password</text>
</a>
</g>
</g>
<!-- Node19&#45;&gt;Node24 -->
<g id="edge24_Node000019_Node000024" class="edge">
<title>Node19&#45;&gt;Node24</title>
<g id="a_edge24_Node000019_Node000024"><a xlink:title=" ">
<path fill="none" stroke="#63b8ff" d="M1019.93,-176.36C1006.19,-174.29 992.09,-172.17 978.59,-170.14"/>
<polygon fill="#63b8ff" stroke="#63b8ff" points="1019.45,-179.83 1029.86,-177.86 1020.49,-172.91 1019.45,-179.83"/>
</a>
</g>
</g>
<!-- Node21 -->
<g id="Node000021" class="node">
<title>Node21</title>
<g id="a_Node000021"><a xlink:href="../../da/dd5/classTerraria_1_1Main_a474beeecaea4d6dd108fba56cd554d46.html#a474beeecaea4d6dd108fba56cd554d46" target="_top" xlink:title=" ">
<polygon fill="white" stroke="#666666" points="496.5,-137.5 374.5,-137.5 374.5,-118.5 496.5,-118.5 496.5,-137.5"/>
<text text-anchor="middle" x="435.5" y="-125.5" font-family="Helvetica,sans-Serif" font-size="10.00">Terraria.Main.DoDraw</text>
</a>
</g>
</g>
<!-- Node20&#45;&gt;Node21 -->
<g id="edge21_Node000020_Node000021" class="edge">
<title>Node20&#45;&gt;Node21</title>
<g id="a_edge21_Node000020_Node000021"><a xlink:title=" ">
<path fill="none" stroke="#63b8ff" d="M632.87,-206.55C585.82,-187.73 501.48,-153.99 460.36,-137.54"/>
<polygon fill="#63b8ff" stroke="#63b8ff" points="631.74,-209.86 642.32,-210.33 634.34,-203.36 631.74,-209.86"/>
</a>
</g>
</g>
<!-- Node22 -->
<g id="Node000022" class="node">
<title>Node22</title>
<g id="a_Node000022"><a xlink:href="../../da/dd5/classTerraria_1_1Main_aa597dbafa085227bb056d05d0b0f9abe.html#aa597dbafa085227bb056d05d0b0f9abe" target="_top" xlink:title=" ">
<polygon fill="white" stroke="#666666" points="277,-143 168,-143 168,-113 277,-113 277,-143"/>
<text text-anchor="start" x="176" y="-131" font-family="Helvetica,sans-Serif" font-size="10.00">Terraria.Main.Draw</text>
<text text-anchor="middle" x="222.5" y="-120" font-family="Helvetica,sans-Serif" font-size="10.00">_Inner</text>
</a>
</g>
</g>
<!-- Node21&#45;&gt;Node22 -->
<g id="edge22_Node000021_Node000022" class="edge">
<title>Node21&#45;&gt;Node22</title>
<g id="a_edge22_Node000021_Node000022"><a xlink:title=" ">
<path fill="none" stroke="#63b8ff" d="M364.08,-128C335.77,-128 303.66,-128 277.28,-128"/>
<polygon fill="#63b8ff" stroke="#63b8ff" points="364.32,-131.5 374.32,-128 364.32,-124.5 364.32,-131.5"/>
</a>
</g>
</g>
<!-- Node23 -->
<g id="Node000023" class="node">
<title>Node23</title>
<g id="a_Node000023"><a xlink:href="../../da/dd5/classTerraria_1_1Main_a516aa31311860bad4242ade32e5effcd.html#a516aa31311860bad4242ade32e5effcd" target="_top" xlink:title=" ">
<polygon fill="white" stroke="#666666" points="109,-137.5 0,-137.5 0,-118.5 109,-118.5 109,-137.5"/>
<text text-anchor="middle" x="54.5" y="-125.5" font-family="Helvetica,sans-Serif" font-size="10.00">Terraria.Main.Draw</text>
</a>
</g>
</g>
<!-- Node22&#45;&gt;Node23 -->
<g id="edge23_Node000022_Node000023" class="edge">
<title>Node22&#45;&gt;Node23</title>
<g id="a_edge23_Node000022_Node000023"><a xlink:title=" ">
<path fill="none" stroke="#63b8ff" d="M157.31,-128C141.38,-128 124.48,-128 109.13,-128"/>
<polygon fill="#63b8ff" stroke="#63b8ff" points="157.6,-131.5 167.6,-128 157.6,-124.5 157.6,-131.5"/>
</a>
</g>
</g>
<!-- Node26 -->
<g id="Node000026" class="node">
<title>Node26</title>
<g id="a_Node000026"><a xlink:href="../../d8/d13/classTerraria_1_1GameContent_1_1UI_1_1Elements_1_1UICharacterListItem_a340caf28f2ffe89144b036695ef7e860.html#a340caf28f2ffe89144b036695ef7e860" target="_top" xlink:title=" ">
<polygon fill="white" stroke="#666666" points="980,-124.5 814,-124.5 814,-83.5 980,-83.5 980,-124.5"/>
<text text-anchor="start" x="822" y="-112.5" font-family="Helvetica,sans-Serif" font-size="10.00">Terraria.GameContent.UI.</text>
<text text-anchor="start" x="822" y="-101.5" font-family="Helvetica,sans-Serif" font-size="10.00">Elements.UICharacterListItem.</text>
<text text-anchor="middle" x="897" y="-90.5" font-family="Helvetica,sans-Serif" font-size="10.00">PlayGame</text>
</a>
</g>
</g>
<!-- Node25&#45;&gt;Node26 -->
<g id="edge26_Node000025_Node000026" class="edge">
<title>Node25&#45;&gt;Node26</title>
<g id="a_edge26_Node000025_Node000026"><a xlink:title=" ">
<path fill="none" stroke="#63b8ff" d="M1045.84,-129.74C1025.16,-126.14 1001.97,-122.1 980.21,-118.31"/>
<polygon fill="#63b8ff" stroke="#63b8ff" points="1045.32,-133.2 1055.78,-131.47 1046.52,-126.31 1045.32,-133.2"/>
</a>
</g>
</g>
<!-- Node27 -->
<g id="Node000027" class="node">
<title>Node27</title>
<g id="a_Node000027"><a xlink:href="../../d8/d13/classTerraria_1_1GameContent_1_1UI_1_1Elements_1_1UICharacterListItem_a84c7d2bebc258bb2126ce4847c484e99.html#a84c7d2bebc258bb2126ce4847c484e99" target="_top" xlink:title=" ">
<polygon fill="white" stroke="#666666" points="750.5,-124.5 584.5,-124.5 584.5,-83.5 750.5,-83.5 750.5,-124.5"/>
<text text-anchor="start" x="592.5" y="-112.5" font-family="Helvetica,sans-Serif" font-size="10.00">Terraria.GameContent.UI.</text>
<text text-anchor="start" x="592.5" y="-101.5" font-family="Helvetica,sans-Serif" font-size="10.00">Elements.UICharacterListItem.</text>
<text text-anchor="middle" x="667.5" y="-90.5" font-family="Helvetica,sans-Serif" font-size="10.00">UICharacterListItem</text>
</a>
</g>
</g>
<!-- Node26&#45;&gt;Node27 -->
<g id="edge27_Node000026_Node000027" class="edge">
<title>Node26&#45;&gt;Node27</title>
<g id="a_edge27_Node000026_Node000027"><a xlink:title=" ">
<path fill="none" stroke="#63b8ff" d="M803.61,-104C786.03,-104 767.74,-104 750.51,-104"/>
<polygon fill="#63b8ff" stroke="#63b8ff" points="803.87,-107.5 813.87,-104 803.87,-100.5 803.87,-107.5"/>
</a>
</g>
</g>
<!-- Node28&#45;&gt;Node20 -->
<g id="edge29_Node000028_Node000020" class="edge">
<title>Node28&#45;&gt;Node20</title>
<g id="a_edge29_Node000028_Node000020"><a xlink:title=" ">
<path fill="none" stroke="#63b8ff" d="M1033.88,-253.06C1020.63,-255.11 1006.95,-256.9 994,-258 908.09,-265.32 885.37,-270.09 800,-258 762.12,-252.64 719.87,-238.99 693.74,-229.6"/>
<polygon fill="#63b8ff" stroke="#63b8ff" points="1034.59,-256.49 1043.91,-251.44 1033.48,-249.58 1034.59,-256.49"/>
</a>
</g>
</g>
<!-- Node29 -->
<g id="Node000029" class="node">
<title>Node29</title>
<g id="a_Node000029"><a xlink:href="../../da/dd5/classTerraria_1_1Main_a33ab56670ca7132e963f3f6f9c757e38.html#a33ab56670ca7132e963f3f6f9c757e38" target="_top" xlink:title=" ">
<polygon fill="white" stroke="#666666" points="988,-248.5 806,-248.5 806,-229.5 988,-229.5 988,-248.5"/>
<text text-anchor="middle" x="897" y="-236.5" font-family="Helvetica,sans-Serif" font-size="10.00">Terraria.Main.OnSubmitServerPort</text>
</a>
</g>
</g>
<!-- Node28&#45;&gt;Node29 -->
<g id="edge30_Node000028_Node000029" class="edge">
<title>Node28&#45;&gt;Node29</title>
<g id="a_edge30_Node000028_Node000029"><a xlink:title=" ">
<path fill="none" stroke="#63b8ff" d="M1033.76,-238.36C1018.97,-238.43 1003.35,-238.5 988.18,-238.58"/>
<polygon fill="#63b8ff" stroke="#63b8ff" points="1033.86,-241.86 1043.85,-238.31 1033.83,-234.86 1033.86,-241.86"/>
</a>
</g>
</g>
<!-- Node29&#45;&gt;Node20 -->
<g id="edge31_Node000029_Node000020" class="edge">
<title>Node29&#45;&gt;Node20</title>
<g id="a_edge31_Node000029_Node000020"><a xlink:title=" ">
<path fill="none" stroke="#63b8ff" d="M795.57,-230.61C775.35,-228.92 754.57,-227.19 735.81,-225.62"/>
<polygon fill="#63b8ff" stroke="#63b8ff" points="795.5,-234.12 805.76,-231.46 796.09,-227.14 795.5,-234.12"/>
</a>
</g>
</g>
<!-- Node31 -->
<g id="Node000031" class="node">
<title>Node31</title>
<g id="a_Node000031"><a xlink:href="../../db/d90/classTerraria_1_1Netplay_ae1189b2f060611d11bb9faa824ed2eb7.html#ae1189b2f060611d11bb9faa824ed2eb7" target="_top" xlink:title=" ">
<polygon fill="white" stroke="#666666" points="1572.5,-116 1432.5,-116 1432.5,-86 1572.5,-86 1572.5,-116"/>
<text text-anchor="start" x="1440.5" y="-104" font-family="Helvetica,sans-Serif" font-size="10.00">Terraria.Netplay.UpdateIn</text>
<text text-anchor="middle" x="1502.5" y="-93" font-family="Helvetica,sans-Serif" font-size="10.00">MainThread</text>
</a>
</g>
</g>
<!-- Node30&#45;&gt;Node31 -->
<g id="edge33_Node000030_Node000031" class="edge">
<title>Node30&#45;&gt;Node31</title>
<g id="a_edge33_Node000030_Node000031"><a xlink:title=" ">
<path fill="none" stroke="#63b8ff" d="M1623.07,-99.86C1606.21,-100.02 1588.82,-100.18 1572.69,-100.34"/>
<polygon fill="#63b8ff" stroke="#63b8ff" points="1623.52,-103.35 1633.49,-99.76 1623.45,-96.35 1623.52,-103.35"/>
</a>
</g>
</g>
<!-- Node32 -->
<g id="Node000032" class="node">
<title>Node32</title>
<g id="a_Node000032"><a xlink:href="../../da/dd5/classTerraria_1_1Main_a96341b8439a15bcefc0f119767e24e35.html#a96341b8439a15bcefc0f119767e24e35" target="_top" xlink:title=" ">
<polygon fill="white" stroke="#666666" points="1369.5,-110.5 1237.5,-110.5 1237.5,-91.5 1369.5,-91.5 1369.5,-110.5"/>
<text text-anchor="middle" x="1303.5" y="-98.5" font-family="Helvetica,sans-Serif" font-size="10.00">Terraria.Main.DoUpdate</text>
</a>
</g>
</g>
<!-- Node31&#45;&gt;Node32 -->
<g id="edge34_Node000031_Node000032" class="edge">
<title>Node31&#45;&gt;Node32</title>
<g id="a_edge34_Node000031_Node000032"><a xlink:title=" ">
<path fill="none" stroke="#63b8ff" d="M1422.15,-101C1404.68,-101 1386.37,-101 1369.55,-101"/>
<polygon fill="#63b8ff" stroke="#63b8ff" points="1422.32,-104.5 1432.32,-101 1422.32,-97.5 1422.32,-104.5"/>
</a>
</g>
</g>
<!-- Node33 -->
<g id="Node000033" class="node">
<title>Node33</title>
<g id="a_Node000033"><a xlink:href="../../da/dd5/classTerraria_1_1Main_a49776516aea1626e33c722fc8896a7de.html#a49776516aea1626e33c722fc8896a7de" target="_top" xlink:title=" ">
<polygon fill="white" stroke="#666666" points="1171,-110.5 1052,-110.5 1052,-91.5 1171,-91.5 1171,-110.5"/>
<text text-anchor="middle" x="1111.5" y="-98.5" font-family="Helvetica,sans-Serif" font-size="10.00">Terraria.Main.Update</text>
</a>
</g>
</g>
<!-- Node32&#45;&gt;Node33 -->
<g id="edge35_Node000032_Node000033" class="edge">
<title>Node32&#45;&gt;Node33</title>
<g id="a_edge35_Node000032_Node000033"><a xlink:title=" ">
<path fill="none" stroke="#63b8ff" d="M1227.16,-101C1208.54,-101 1188.86,-101 1171.17,-101"/>
<polygon fill="#63b8ff" stroke="#63b8ff" points="1227.38,-104.5 1237.38,-101 1227.38,-97.5 1227.38,-104.5"/>
</a>
</g>
</g>
<!-- Node34&#45;&gt;Node31 -->
<g id="edge37_Node000034_Node000031" class="edge">
<title>Node34&#45;&gt;Node31</title>
<g id="a_edge37_Node000034_Node000031"><a xlink:title=" ">
<path fill="none" stroke="#63b8ff" d="M1634.13,-129.75C1613.61,-125.24 1591.67,-120.41 1571.73,-116.02"/>
<polygon fill="#63b8ff" stroke="#63b8ff" points="1633.55,-133.21 1644.07,-131.94 1635.05,-126.37 1633.55,-133.21"/>
</a>
</g>
</g>
<!-- Node35&#45;&gt;Node2 -->
<g id="edge43_Node000035_Node000002" class="edge">
<title>Node35&#45;&gt;Node2</title>
<g id="a_edge43_Node000035_Node000002"><a xlink:title=" ">
<path fill="none" stroke="#63b8ff" d="M2283.58,-76.58C2252.7,-82.87 2214.99,-90.54 2185.83,-96.47"/>
<polygon fill="#63b8ff" stroke="#63b8ff" points="2284.66,-79.93 2293.77,-74.51 2283.27,-73.07 2284.66,-79.93"/>
</a>
</g>
</g>
<!-- Node36 -->
<g id="Node000036" class="node">
<title>Node36</title>
<g id="a_Node000036"><a xlink:href="../../da/dd5/classTerraria_1_1Main_a526c8ddc030bbc0565fc455d4629907a.html#a526c8ddc030bbc0565fc455d4629907a" target="_top" xlink:title=" ">
<polygon fill="white" stroke="#666666" points="2214,-78 2062,-78 2062,-48 2214,-48 2214,-78"/>
<text text-anchor="start" x="2070" y="-66" font-family="Helvetica,sans-Serif" font-size="10.00">Terraria.Main.DrawInterface</text>
<text text-anchor="middle" x="2138" y="-55" font-family="Helvetica,sans-Serif" font-size="10.00">_38_MouseCarriedObject</text>
</a>
</g>
</g>
<!-- Node35&#45;&gt;Node36 -->
<g id="edge39_Node000035_Node000036" class="edge">
<title>Node35&#45;&gt;Node36</title>
<g id="a_edge39_Node000035_Node000036"><a xlink:title=" ">
<path fill="none" stroke="#63b8ff" d="M2249.99,-64.1C2238.01,-63.98 2225.83,-63.86 2214.15,-63.75"/>
<polygon fill="#63b8ff" stroke="#63b8ff" points="2249.96,-67.6 2259.99,-64.2 2250.03,-60.6 2249.96,-67.6"/>
</a>
</g>
</g>
<!-- Node39 -->
<g id="Node000039" class="node">
<title>Node39</title>
<g id="a_Node000039"><a xlink:href="../../d4/d2e/classTerraria_1_1Initializers_1_1UILinksInitializer_abbf91771978c3de53d8e4d7c7e12df8c.html#abbf91771978c3de53d8e4d7c7e12df8c" target="_top" xlink:title=" ">
<polygon fill="white" stroke="#666666" points="2211,-30 2065,-30 2065,0 2211,0 2211,-30"/>
<text text-anchor="start" x="2073" y="-18" font-family="Helvetica,sans-Serif" font-size="10.00">Terraria.Initializers.UILinks</text>
<text text-anchor="middle" x="2138" y="-7" font-family="Helvetica,sans-Serif" font-size="10.00">Initializer.Load</text>
</a>
</g>
</g>
<!-- Node35&#45;&gt;Node39 -->
<g id="edge44_Node000035_Node000039" class="edge">
<title>Node35&#45;&gt;Node39</title>
<g id="a_edge44_Node000035_Node000039"><a xlink:title=" ">
<path fill="none" stroke="#63b8ff" d="M2292.26,-53.03C2264.53,-46.15 2229.43,-37.44 2199.82,-30.09"/>
<polygon fill="#63b8ff" stroke="#63b8ff" points="2291.58,-56.47 2302.13,-55.48 2293.26,-49.67 2291.58,-56.47"/>
</a>
</g>
</g>
<!-- Node37 -->
<g id="Node000037" class="node">
<title>Node37</title>
<g id="a_Node000037"><a xlink:href="../../da/dd5/classTerraria_1_1Main_a635639e6a6d3795bbfbcf0e24fc3aac5.html#a635639e6a6d3795bbfbcf0e24fc3aac5" target="_top" xlink:title=" ">
<polygon fill="white" stroke="#666666" points="2016,-75 1836,-75 1836,-45 2016,-45 2016,-75"/>
<text text-anchor="start" x="1844" y="-63" font-family="Helvetica,sans-Serif" font-size="10.00">Terraria.Main.SetupDrawInterface</text>
<text text-anchor="middle" x="1926" y="-52" font-family="Helvetica,sans-Serif" font-size="10.00">Layers</text>
</a>
</g>
</g>
<!-- Node36&#45;&gt;Node37 -->
<g id="edge40_Node000036_Node000037" class="edge">
<title>Node36&#45;&gt;Node37</title>
<g id="a_edge40_Node000036_Node000037"><a xlink:title=" ">
<path fill="none" stroke="#63b8ff" d="M2051.58,-61.78C2039.86,-61.61 2027.81,-61.44 2016.02,-61.27"/>
<polygon fill="#63b8ff" stroke="#63b8ff" points="2051.73,-65.28 2061.78,-61.93 2051.83,-58.28 2051.73,-65.28"/>
</a>
</g>
</g>
<!-- Node38 -->
<g id="Node000038" class="node">
<title>Node38</title>
<g id="a_Node000038"><a xlink:href="../../da/dd5/classTerraria_1_1Main_a36d139a1fd2647d53f25a241f3d5d5f4.html#a36d139a1fd2647d53f25a241f3d5d5f4" target="_top" xlink:title=" ">
<polygon fill="white" stroke="#666666" points="1578.5,-64.5 1426.5,-64.5 1426.5,-45.5 1578.5,-45.5 1578.5,-64.5"/>
<text text-anchor="middle" x="1502.5" y="-52.5" font-family="Helvetica,sans-Serif" font-size="10.00">Terraria.Main.DrawInterface</text>
</a>
</g>
</g>
<!-- Node37&#45;&gt;Node38 -->
<g id="edge41_Node000037_Node000038" class="edge">
<title>Node37&#45;&gt;Node38</title>
<g id="a_edge41_Node000037_Node000038"><a xlink:title=" ">
<path fill="none" stroke="#63b8ff" d="M1825.85,-58.82C1750.25,-57.93 1647.72,-56.71 1578.77,-55.89"/>
<polygon fill="#63b8ff" stroke="#63b8ff" points="1825.83,-62.32 1835.87,-58.94 1825.91,-55.32 1825.83,-62.32"/>
</a>
</g>
</g>
<!-- Node38&#45;&gt;Node21 -->
<g id="edge42_Node000038_Node000021" class="edge">
<title>Node38&#45;&gt;Node21</title>
<g id="a_edge42_Node000038_Node000021"><a xlink:title=" ">
<path fill="none" stroke="#63b8ff" d="M1415.84,-55C1337.02,-55 1216.88,-55 1112.5,-55 1112.5,-55 1112.5,-55 896,-55 751.31,-55 712.2,-42.41 571,-74 527.78,-83.67 480.42,-105.57 455.03,-118.31"/>
<polygon fill="#63b8ff" stroke="#63b8ff" points="1416.2,-58.5 1426.2,-55 1416.2,-51.5 1416.2,-58.5"/>
</a>
</g>
</g>
<!-- Node40 -->
<g id="Node000040" class="node">
<title>Node40</title>
<g id="a_Node000040"><a xlink:href="../../da/dd5/classTerraria_1_1Main_a25091de3c91f3e2202d5085499eda062.html#a25091de3c91f3e2202d5085499eda062" target="_top" xlink:title=" ">
<polygon fill="white" stroke="#666666" points="2003,-24.5 1849,-24.5 1849,-5.5 2003,-5.5 2003,-24.5"/>
<text text-anchor="middle" x="1926" y="-12.5" font-family="Helvetica,sans-Serif" font-size="10.00">Terraria.Main.ClientInitialize</text>
</a>
</g>
</g>
<!-- Node39&#45;&gt;Node40 -->
<g id="edge45_Node000039_Node000040" class="edge">
<title>Node39&#45;&gt;Node40</title>
<g id="a_edge45_Node000039_Node000040"><a xlink:title=" ">
<path fill="none" stroke="#63b8ff" d="M2054.38,-15C2037.56,-15 2019.93,-15 2003.34,-15"/>
<polygon fill="#63b8ff" stroke="#63b8ff" points="2054.73,-18.5 2064.73,-15 2054.73,-11.5 2054.73,-18.5"/>
</a>
</g>
</g>
<!-- Node41 -->
<g id="Node000041" class="node">
<title>Node41</title>
<g id="a_Node000041"><a xlink:href="../../da/dd5/classTerraria_1_1Main_aed4b6a8ad3e867bdb2bdcab2ab6ab0f9.html#aed4b6a8ad3e867bdb2bdcab2ab6ab0f9" target="_top" xlink:title=" ">
<polygon fill="white" stroke="#666666" points="1776,-24.5 1651,-24.5 1651,-5.5 1776,-5.5 1776,-24.5"/>
<text text-anchor="middle" x="1713.5" y="-12.5" font-family="Helvetica,sans-Serif" font-size="10.00">Terraria.Main.Initialize</text>
</a>
</g>
</g>
<!-- Node40&#45;&gt;Node41 -->
<g id="edge46_Node000040_Node000041" class="edge">
<title>Node40&#45;&gt;Node41</title>
<g id="a_edge46_Node000040_Node000041"><a xlink:title=" ">
<path fill="none" stroke="#63b8ff" d="M1838.52,-15C1817.56,-15 1795.58,-15 1776.05,-15"/>
<polygon fill="#63b8ff" stroke="#63b8ff" points="1838.71,-18.5 1848.71,-15 1838.71,-11.5 1838.71,-18.5"/>
</a>
</g>
</g>
</g>
</svg>
