<?xml version="1.0" encoding="UTF-8" standalone="no"?>
<!DOCTYPE svg PUBLIC "-//W3C//DTD SVG 1.1//EN"
 "http://www.w3.org/Graphics/SVG/1.1/DTD/svg11.dtd">
<!-- Generated by graphviz version 2.43.0 (0)
 -->
<!-- Title: Terraria.GameContent.NetModules.NetTextModule.DeserializeAsClient Pages: 1 -->
<svg width="1020pt" height="334pt"
 viewBox="0.00 0.00 1020.00 334.00" xmlns="http://www.w3.org/2000/svg" xmlns:xlink="http://www.w3.org/1999/xlink">
<g id="graph0" class="graph" transform="scale(1 1) rotate(0) translate(4 330)">
<title>Terraria.GameContent.NetModules.NetTextModule.DeserializeAsClient</title>
<!-- Node1 -->
<g id="Node000001" class="node">
<title>Node1</title>
<g id="a_Node000001"><a xlink:title=" ">
<polygon fill="#999999" stroke="#666666" points="192,-237.5 0,-237.5 0,-196.5 192,-196.5 192,-237.5"/>
<text text-anchor="start" x="8" y="-225.5" font-family="Helvetica,sans-Serif" font-size="10.00">Terraria.GameContent.Net</text>
<text text-anchor="start" x="8" y="-214.5" font-family="Helvetica,sans-Serif" font-size="10.00">Modules.NetTextModule.Deserialize</text>
<text text-anchor="middle" x="96" y="-203.5" font-family="Helvetica,sans-Serif" font-size="10.00">AsClient</text>
</a>
</g>
</g>
<!-- Node2 -->
<g id="Node000002" class="node">
<title>Node2</title>
<g id="a_Node000002"><a xlink:href="../../dd/dd4/classTerraria_1_1Localization_1_1NetworkText_ade5252bd15adc12f63bfcef423f4c864.html#ade5252bd15adc12f63bfcef423f4c864" target="_top" xlink:title=" ">
<polygon fill="white" stroke="#666666" points="387,-291 228,-291 228,-261 387,-261 387,-291"/>
<text text-anchor="start" x="236" y="-279" font-family="Helvetica,sans-Serif" font-size="10.00">Terraria.Localization.Network</text>
<text text-anchor="middle" x="307.5" y="-268" font-family="Helvetica,sans-Serif" font-size="10.00">Text.Deserialize</text>
</a>
</g>
</g>
<!-- Node1&#45;&gt;Node2 -->
<g id="edge1_Node000001_Node000002" class="edge">
<title>Node1&#45;&gt;Node2</title>
<g id="a_edge1_Node000001_Node000002"><a xlink:title=" ">
<path fill="none" stroke="#63b8ff" d="M169.98,-237.55C193.85,-244.27 220.15,-251.68 243.24,-258.18"/>
<polygon fill="#63b8ff" stroke="#63b8ff" points="242.35,-261.57 252.92,-260.91 244.25,-254.83 242.35,-261.57"/>
</a>
</g>
</g>
<!-- Node4 -->
<g id="Node000004" class="node">
<title>Node4</title>
<g id="a_Node000004"><a xlink:href="../../db/df5/classTerraria_1_1Chat_1_1ChatHelper_acbde5de17f2e673cfc11a0fa5a511fae.html#acbde5de17f2e673cfc11a0fa5a511fae" target="_top" xlink:title=" ">
<polygon fill="white" stroke="#666666" points="377,-208 238,-208 238,-178 377,-178 377,-208"/>
<text text-anchor="start" x="246" y="-196" font-family="Helvetica,sans-Serif" font-size="10.00">Terraria.Chat.ChatHelper.</text>
<text text-anchor="middle" x="307.5" y="-185" font-family="Helvetica,sans-Serif" font-size="10.00">DisplayMessage</text>
</a>
</g>
</g>
<!-- Node1&#45;&gt;Node4 -->
<g id="edge3_Node000001_Node000004" class="edge">
<title>Node1&#45;&gt;Node4</title>
<g id="a_edge3_Node000001_Node000004"><a xlink:title=" ">
<path fill="none" stroke="#63b8ff" d="M192.25,-206.09C204.12,-204.73 216.16,-203.35 227.74,-202.02"/>
<polygon fill="#63b8ff" stroke="#63b8ff" points="228.25,-205.49 237.79,-200.87 227.45,-198.53 228.25,-205.49"/>
</a>
</g>
</g>
<!-- Node3 -->
<g id="Node000003" class="node">
<title>Node3</title>
<g id="a_Node000003"><a xlink:href="../../dd/dd4/classTerraria_1_1Localization_1_1NetworkText_a228daadb176f9c90582b5bba4a230c45.html#a228daadb176f9c90582b5bba4a230c45" target="_top" xlink:title=" ">
<polygon fill="white" stroke="#666666" points="597.5,-326 438.5,-326 438.5,-296 597.5,-296 597.5,-326"/>
<text text-anchor="start" x="446.5" y="-314" font-family="Helvetica,sans-Serif" font-size="10.00">Terraria.Localization.Network</text>
<text text-anchor="middle" x="518" y="-303" font-family="Helvetica,sans-Serif" font-size="10.00">Text.NetworkText</text>
</a>
</g>
</g>
<!-- Node2&#45;&gt;Node3 -->
<g id="edge2_Node000002_Node000003" class="edge">
<title>Node2&#45;&gt;Node3</title>
<g id="a_edge2_Node000002_Node000003"><a xlink:title=" ">
<path fill="none" stroke="#63b8ff" d="M387.03,-289.18C400.5,-291.44 414.58,-293.81 428.29,-296.11"/>
<polygon fill="#63b8ff" stroke="#63b8ff" points="427.76,-299.57 438.2,-297.77 428.91,-292.66 427.76,-299.57"/>
</a>
</g>
</g>
<!-- Node5 -->
<g id="Node000005" class="node">
<title>Node5</title>
<g id="a_Node000005"><a xlink:href="../../db/df5/classTerraria_1_1Chat_1_1ChatHelper_a2873223aea4baf8cc37f8c6f8cd1fe16.html#a2873223aea4baf8cc37f8c6f8cd1fe16" target="_top" xlink:title=" ">
<polygon fill="white" stroke="#666666" points="587.5,-278 448.5,-278 448.5,-248 587.5,-248 587.5,-278"/>
<text text-anchor="start" x="456.5" y="-266" font-family="Helvetica,sans-Serif" font-size="10.00">Terraria.Chat.ChatHelper.</text>
<text text-anchor="middle" x="518" y="-255" font-family="Helvetica,sans-Serif" font-size="10.00">CacheMessage</text>
</a>
</g>
</g>
<!-- Node4&#45;&gt;Node5 -->
<g id="edge4_Node000004_Node000005" class="edge">
<title>Node4&#45;&gt;Node5</title>
<g id="a_edge4_Node000004_Node000005"><a xlink:title=" ">
<path fill="none" stroke="#63b8ff" d="M342.64,-208.09C365.17,-217.71 395.51,-230.01 423,-239 429.71,-241.2 436.75,-243.32 443.82,-245.33"/>
<polygon fill="#63b8ff" stroke="#63b8ff" points="442.89,-248.7 453.47,-248 444.76,-241.95 442.89,-248.7"/>
</a>
</g>
</g>
<!-- Node6 -->
<g id="Node000006" class="node">
<title>Node6</title>
<g id="a_Node000006"><a xlink:href="../../d7/d98/classTerraria_1_1GameContent_1_1UI_1_1Chat_1_1NameTagHandler_a5363ff74c8976dfc28cb76db3e53a98a.html#a5363ff74c8976dfc28cb76db3e53a98a" target="_top" xlink:title=" ">
<polygon fill="white" stroke="#666666" points="613,-230 423,-230 423,-200 613,-200 613,-230"/>
<text text-anchor="start" x="431" y="-218" font-family="Helvetica,sans-Serif" font-size="10.00">Terraria.GameContent.UI.</text>
<text text-anchor="middle" x="518" y="-207" font-family="Helvetica,sans-Serif" font-size="10.00">Chat.NameTagHandler.GenerateTag</text>
</a>
</g>
</g>
<!-- Node4&#45;&gt;Node6 -->
<g id="edge5_Node000004_Node000006" class="edge">
<title>Node4&#45;&gt;Node6</title>
<g id="a_edge5_Node000004_Node000006"><a xlink:title=" ">
<path fill="none" stroke="#63b8ff" d="M377.06,-200.23C388.46,-201.44 400.52,-202.71 412.58,-203.98"/>
<polygon fill="#63b8ff" stroke="#63b8ff" points="412.38,-207.48 422.69,-205.05 413.11,-200.52 412.38,-207.48"/>
</a>
</g>
</g>
<!-- Node7 -->
<g id="Node000007" class="node">
<title>Node7</title>
<g id="a_Node000007"><a xlink:href="../../da/dd5/classTerraria_1_1Main_a41402a875e3c3ff608667d0637674539.html#a41402a875e3c3ff608667d0637674539" target="_top" xlink:title=" ">
<polygon fill="white" stroke="#666666" points="602,-181.5 434,-181.5 434,-162.5 602,-162.5 602,-181.5"/>
<text text-anchor="middle" x="518" y="-169.5" font-family="Helvetica,sans-Serif" font-size="10.00">Terraria.Main.NewTextMultiline</text>
</a>
</g>
</g>
<!-- Node4&#45;&gt;Node7 -->
<g id="edge6_Node000004_Node000007" class="edge">
<title>Node4&#45;&gt;Node7</title>
<g id="a_edge6_Node000004_Node000007"><a xlink:title=" ">
<path fill="none" stroke="#63b8ff" d="M377.06,-186.09C391.96,-184.59 407.96,-182.98 423.63,-181.4"/>
<polygon fill="#63b8ff" stroke="#63b8ff" points="424.27,-184.86 433.86,-180.37 423.56,-177.89 424.27,-184.86"/>
</a>
</g>
</g>
<!-- Node9 -->
<g id="Node000009" class="node">
<title>Node9</title>
<g id="a_Node000009"><a xlink:href="../../db/df5/classTerraria_1_1Chat_1_1ChatHelper_a923699edfbaa3f2f8f18cf6282edcf53.html#a923699edfbaa3f2f8f18cf6282edcf53" target="_top" xlink:title=" ">
<polygon fill="white" stroke="#666666" points="587.5,-144 448.5,-144 448.5,-114 587.5,-114 587.5,-144"/>
<text text-anchor="start" x="456.5" y="-132" font-family="Helvetica,sans-Serif" font-size="10.00">Terraria.Chat.ChatHelper.</text>
<text text-anchor="middle" x="518" y="-121" font-family="Helvetica,sans-Serif" font-size="10.00">ShouldCacheMessage</text>
</a>
</g>
</g>
<!-- Node4&#45;&gt;Node9 -->
<g id="edge9_Node000004_Node000009" class="edge">
<title>Node4&#45;&gt;Node9</title>
<g id="a_edge9_Node000004_Node000009"><a xlink:title=" ">
<path fill="none" stroke="#63b8ff" d="M350.42,-177.95C371.99,-170.41 398.78,-161.34 423,-154 431.07,-151.55 439.57,-149.11 448.03,-146.76"/>
<polygon fill="#63b8ff" stroke="#63b8ff" points="449.19,-150.08 457.91,-144.06 447.34,-143.32 449.19,-150.08"/>
</a>
</g>
</g>
<!-- Node10 -->
<g id="Node000010" class="node">
<title>Node10</title>
<g id="a_Node000010"><a xlink:href="../../dd/dd4/classTerraria_1_1Localization_1_1NetworkText_a82763de30a06fd8107fa4f3e40d8d20d.html#a82763de30a06fd8107fa4f3e40d8d20d" target="_top" xlink:title=" ">
<polygon fill="white" stroke="#666666" points="597.5,-96 438.5,-96 438.5,-66 597.5,-66 597.5,-96"/>
<text text-anchor="start" x="446.5" y="-84" font-family="Helvetica,sans-Serif" font-size="10.00">Terraria.Localization.Network</text>
<text text-anchor="middle" x="518" y="-73" font-family="Helvetica,sans-Serif" font-size="10.00">Text.ToString</text>
</a>
</g>
</g>
<!-- Node4&#45;&gt;Node10 -->
<g id="edge10_Node000004_Node000010" class="edge">
<title>Node4&#45;&gt;Node10</title>
<g id="a_edge10_Node000004_Node000010"><a xlink:title=" ">
<path fill="none" stroke="#63b8ff" d="M323.78,-177.91C344.53,-158.26 383.54,-124.19 423,-105 427.03,-103.04 431.23,-101.23 435.54,-99.56"/>
<polygon fill="#63b8ff" stroke="#63b8ff" points="436.86,-102.8 445.08,-96.11 434.49,-96.22 436.86,-102.8"/>
</a>
</g>
</g>
<!-- Node8 -->
<g id="Node000008" class="node">
<title>Node8</title>
<g id="a_Node000008"><a xlink:href="../../d3/d78/classTerraria_1_1Audio_1_1SoundEngine_af55950ae09b294fad1dd58e37fecf28b.html#af55950ae09b294fad1dd58e37fecf28b" target="_top" xlink:title="Attempts to play a sound style with the provided sound style (if it&#39;s not null), and returns a valid ...">
<polygon fill="white" stroke="#666666" points="805,-187 652,-187 652,-157 805,-157 805,-187"/>
<text text-anchor="start" x="660" y="-175" font-family="Helvetica,sans-Serif" font-size="10.00">Terraria.Audio.SoundEngine.</text>
<text text-anchor="middle" x="728.5" y="-164" font-family="Helvetica,sans-Serif" font-size="10.00">PlaySound</text>
</a>
</g>
</g>
<!-- Node7&#45;&gt;Node8 -->
<g id="edge7_Node000007_Node000008" class="edge">
<title>Node7&#45;&gt;Node8</title>
<g id="a_edge7_Node000007_Node000008"><a xlink:title=" ">
<path fill="none" stroke="#63b8ff" d="M602,-172C615,-172 628.45,-172 641.51,-172"/>
<polygon fill="#63b8ff" stroke="#63b8ff" points="641.88,-175.5 651.88,-172 641.88,-168.5 641.88,-175.5"/>
</a>
</g>
</g>
<!-- Node8&#45;&gt;Node8 -->
<g id="edge8_Node000008_Node000008" class="edge">
<title>Node8&#45;&gt;Node8</title>
<g id="a_edge8_Node000008_Node000008"><a xlink:title=" ">
<path fill="none" stroke="#63b8ff" d="M693.7,-187.28C685.96,-196.41 697.56,-205 728.5,-205 746.87,-205 758.42,-201.97 763.16,-197.6"/>
<polygon fill="#63b8ff" stroke="#63b8ff" points="766.66,-197.32 763.3,-187.28 759.66,-197.22 766.66,-197.32"/>
</a>
</g>
</g>
<!-- Node11 -->
<g id="Node000011" class="node">
<title>Node11</title>
<g id="a_Node000011"><a xlink:href="../../d4/d8f/classTerraria_1_1Localization_1_1Language_ae4636a4800b9ecbaa498954520462f78.html#ae4636a4800b9ecbaa498954520462f78" target="_top" xlink:title="Retrieves the text value for a specified localization key. The text returned will be for the currentl...">
<polygon fill="white" stroke="#666666" points="1012,-84 844,-84 844,-54 1012,-54 1012,-84"/>
<text text-anchor="start" x="852" y="-72" font-family="Helvetica,sans-Serif" font-size="10.00">Terraria.Localization.Language.</text>
<text text-anchor="middle" x="928" y="-61" font-family="Helvetica,sans-Serif" font-size="10.00">GetTextValue</text>
</a>
</g>
</g>
<!-- Node10&#45;&gt;Node11 -->
<g id="edge11_Node000010_Node000011" class="edge">
<title>Node10&#45;&gt;Node11</title>
<g id="a_edge11_Node000010_Node000011"><a xlink:title=" ">
<path fill="none" stroke="#63b8ff" d="M587.16,-96C606.99,-99.71 628.77,-103.15 649,-105 719.37,-111.44 738.09,-115.34 808,-105 831.5,-101.52 856.79,-94.38 877.99,-87.37"/>
<polygon fill="#63b8ff" stroke="#63b8ff" points="879.39,-90.59 887.73,-84.06 877.13,-83.96 879.39,-90.59"/>
</a>
</g>
</g>
<!-- Node12 -->
<g id="Node000012" class="node">
<title>Node12</title>
<g id="a_Node000012"><a xlink:href="../../dd/dd4/classTerraria_1_1Localization_1_1NetworkText_aaade702fe346ef5d217fea67020986a9.html#aaade702fe346ef5d217fea67020986a9" target="_top" xlink:title=" ">
<polygon fill="white" stroke="#666666" points="808,-96 649,-96 649,-66 808,-66 808,-96"/>
<text text-anchor="start" x="657" y="-84" font-family="Helvetica,sans-Serif" font-size="10.00">Terraria.Localization.Network</text>
<text text-anchor="middle" x="728.5" y="-73" font-family="Helvetica,sans-Serif" font-size="10.00">Text.SetToEmptyLiteral</text>
</a>
</g>
</g>
<!-- Node10&#45;&gt;Node12 -->
<g id="edge12_Node000010_Node000012" class="edge">
<title>Node10&#45;&gt;Node12</title>
<g id="a_edge12_Node000010_Node000012"><a xlink:title=" ">
<path fill="none" stroke="#63b8ff" d="M597.53,-81C610.87,-81 624.8,-81 638.39,-81"/>
<polygon fill="#63b8ff" stroke="#63b8ff" points="638.7,-84.5 648.7,-81 638.7,-77.5 638.7,-84.5"/>
</a>
</g>
</g>
<!-- Node13 -->
<g id="Node000013" class="node">
<title>Node13</title>
<g id="a_Node000013"><a xlink:href="../../dd/dd4/classTerraria_1_1Localization_1_1NetworkText_a0e756743934141abf7225f02a6e2441b.html#a0e756743934141abf7225f02a6e2441b" target="_top" xlink:title=" ">
<polygon fill="white" stroke="#666666" points="808,-30 649,-30 649,0 808,0 808,-30"/>
<text text-anchor="start" x="657" y="-18" font-family="Helvetica,sans-Serif" font-size="10.00">Terraria.Localization.Network</text>
<text text-anchor="middle" x="728.5" y="-7" font-family="Helvetica,sans-Serif" font-size="10.00">Text.ToDebugInfoString</text>
</a>
</g>
</g>
<!-- Node10&#45;&gt;Node13 -->
<g id="edge13_Node000010_Node000013" class="edge">
<title>Node10&#45;&gt;Node13</title>
<g id="a_edge13_Node000010_Node000013"><a xlink:title=" ">
<path fill="none" stroke="#63b8ff" d="M566.57,-65.94C597.29,-56.22 637.44,-43.51 669.95,-33.22"/>
<polygon fill="#63b8ff" stroke="#63b8ff" points="671.29,-36.46 679.77,-30.11 669.18,-29.79 671.29,-36.46"/>
</a>
</g>
</g>
<!-- Node13&#45;&gt;Node11 -->
<g id="edge14_Node000013_Node000011" class="edge">
<title>Node13&#45;&gt;Node11</title>
<g id="a_edge14_Node000013_Node000011"><a xlink:title=" ">
<path fill="none" stroke="#63b8ff" d="M784.51,-30.04C808.6,-36.63 837.03,-44.4 862.13,-51.26"/>
<polygon fill="#63b8ff" stroke="#63b8ff" points="861.37,-54.68 871.94,-53.95 863.22,-47.93 861.37,-54.68"/>
</a>
</g>
</g>
<!-- Node13&#45;&gt;Node13 -->
<g id="edge15_Node000013_Node000013" class="edge">
<title>Node13&#45;&gt;Node13</title>
<g id="a_edge15_Node000013_Node000013"><a xlink:title=" ">
<path fill="none" stroke="#63b8ff" d="M693.7,-30.28C685.96,-39.41 697.56,-48 728.5,-48 746.87,-48 758.42,-44.97 763.16,-40.6"/>
<polygon fill="#63b8ff" stroke="#63b8ff" points="766.66,-40.32 763.3,-30.28 759.66,-40.22 766.66,-40.32"/>
</a>
</g>
</g>
</g>
</svg>
