<?xml version="1.0" encoding="UTF-8" standalone="no"?>
<!DOCTYPE svg PUBLIC "-//W3C//DTD SVG 1.1//EN"
 "http://www.w3.org/Graphics/SVG/1.1/DTD/svg11.dtd">
<!-- Generated by graphviz version 2.43.0 (0)
 -->
<!-- Title: Terraria.GameContent.Biomes.CorruptionPitBiome.Place Pages: 1 -->
<svg width="385pt" height="478pt"
 viewBox="0.00 0.00 385.00 477.50" xmlns="http://www.w3.org/2000/svg" xmlns:xlink="http://www.w3.org/1999/xlink">
<g id="graph0" class="graph" transform="scale(1 1) rotate(0) translate(4 473.5)">
<title>Terraria.GameContent.Biomes.CorruptionPitBiome.Place</title>
<!-- Node1 -->
<g id="Node000001" class="node">
<title>Node1</title>
<g id="a_Node000001"><a xlink:title=" ">
<polygon fill="#999999" stroke="#666666" points="167,-235.5 0,-235.5 0,-205.5 167,-205.5 167,-235.5"/>
<text text-anchor="start" x="8" y="-223.5" font-family="Helvetica,sans-Serif" font-size="10.00">Terraria.GameContent.Biomes.</text>
<text text-anchor="middle" x="83.5" y="-212.5" font-family="Helvetica,sans-Serif" font-size="10.00">CorruptionPitBiome.Place</text>
</a>
</g>
</g>
<!-- Node2 -->
<g id="Node000002" class="node">
<title>Node2</title>
<g id="a_Node000002"><a xlink:href="../../da/d8a/classTerraria_1_1WorldBuilding_1_1StructureMap_a091d8189ebc9e5fc19803700561de8c7.html#a091d8189ebc9e5fc19803700561de8c7" target="_top" xlink:title=" ">
<polygon fill="white" stroke="#666666" points="375.5,-469.5 204.5,-469.5 204.5,-439.5 375.5,-439.5 375.5,-469.5"/>
<text text-anchor="start" x="212.5" y="-457.5" font-family="Helvetica,sans-Serif" font-size="10.00">Terraria.WorldBuilding.Structure</text>
<text text-anchor="middle" x="290" y="-446.5" font-family="Helvetica,sans-Serif" font-size="10.00">Map.AddProtectedStructure</text>
</a>
</g>
</g>
<!-- Node1&#45;&gt;Node2 -->
<g id="edge1_Node000001_Node000002" class="edge">
<title>Node1&#45;&gt;Node2</title>
<g id="a_edge1_Node000001_Node000002"><a xlink:title=" ">
<path fill="none" stroke="#63b8ff" d="M88.61,-235.6C99.92,-274.25 135.28,-377.44 203,-430.5 204.78,-431.9 206.65,-433.21 208.57,-434.45"/>
<polygon fill="#63b8ff" stroke="#63b8ff" points="206.93,-437.55 217.36,-439.42 210.37,-431.45 206.93,-437.55"/>
</a>
</g>
</g>
<!-- Node3 -->
<g id="Node000003" class="node">
<title>Node3</title>
<g id="a_Node000003"><a xlink:href="../../d1/dc5/classTerraria_1_1WorldBuilding_1_1GenCondition_a63b6aac471ec13db282fa7b0fa6d6120.html#a63b6aac471ec13db282fa7b0fa6d6120" target="_top" xlink:title=" ">
<polygon fill="white" stroke="#666666" points="363,-421.5 217,-421.5 217,-391.5 363,-391.5 363,-421.5"/>
<text text-anchor="start" x="225" y="-409.5" font-family="Helvetica,sans-Serif" font-size="10.00">Terraria.WorldBuilding.Gen</text>
<text text-anchor="middle" x="290" y="-398.5" font-family="Helvetica,sans-Serif" font-size="10.00">Condition.AreaAnd</text>
</a>
</g>
</g>
<!-- Node1&#45;&gt;Node3 -->
<g id="edge2_Node000001_Node000003" class="edge">
<title>Node1&#45;&gt;Node3</title>
<g id="a_edge2_Node000001_Node000003"><a xlink:title=" ">
<path fill="none" stroke="#63b8ff" d="M91.26,-235.63C106.41,-267.79 146.28,-343.22 203,-382.5 205.25,-384.06 207.6,-385.52 210.03,-386.88"/>
<polygon fill="#63b8ff" stroke="#63b8ff" points="208.58,-390.07 219.09,-391.42 211.72,-383.81 208.58,-390.07"/>
</a>
</g>
</g>
<!-- Node4 -->
<g id="Node000004" class="node">
<title>Node4</title>
<g id="a_Node000004"><a xlink:href="../../da/d8a/classTerraria_1_1WorldBuilding_1_1StructureMap_a707bc823640c5a6be63d3caea75ac19d.html#a707bc823640c5a6be63d3caea75ac19d" target="_top" xlink:title=" ">
<polygon fill="white" stroke="#666666" points="375.5,-355.5 204.5,-355.5 204.5,-325.5 375.5,-325.5 375.5,-355.5"/>
<text text-anchor="start" x="212.5" y="-343.5" font-family="Helvetica,sans-Serif" font-size="10.00">Terraria.WorldBuilding.Structure</text>
<text text-anchor="middle" x="290" y="-332.5" font-family="Helvetica,sans-Serif" font-size="10.00">Map.CanPlace</text>
</a>
</g>
</g>
<!-- Node1&#45;&gt;Node4 -->
<g id="edge3_Node000001_Node000004" class="edge">
<title>Node1&#45;&gt;Node4</title>
<g id="a_edge3_Node000001_Node000004"><a xlink:title=" ">
<path fill="none" stroke="#63b8ff" d="M99.14,-235.79C120.19,-256.91 161.12,-294.88 203,-316.5 206.72,-318.42 210.61,-320.2 214.6,-321.85"/>
<polygon fill="#63b8ff" stroke="#63b8ff" points="213.44,-325.16 224.03,-325.47 215.95,-318.62 213.44,-325.16"/>
</a>
</g>
</g>
<!-- Node5 -->
<g id="Node000005" class="node">
<title>Node5</title>
<g id="a_Node000005"><a xlink:href="../../d0/db6/classTerraria_1_1WorldBuilding_1_1Searches_a0a2b7ab503ac7ec649d55daaf8612a42.html#a0a2b7ab503ac7ec649d55daaf8612a42" target="_top" xlink:title=" ">
<polygon fill="white" stroke="#666666" points="377,-307.5 203,-307.5 203,-277.5 377,-277.5 377,-307.5"/>
<text text-anchor="start" x="211" y="-295.5" font-family="Helvetica,sans-Serif" font-size="10.00">Terraria.WorldBuilding.Searches.</text>
<text text-anchor="middle" x="290" y="-284.5" font-family="Helvetica,sans-Serif" font-size="10.00">Chain</text>
</a>
</g>
</g>
<!-- Node1&#45;&gt;Node5 -->
<g id="edge5_Node000001_Node000005" class="edge">
<title>Node1&#45;&gt;Node5</title>
<g id="a_edge5_Node000001_Node000005"><a xlink:title=" ">
<path fill="none" stroke="#63b8ff" d="M118.6,-235.5C142.07,-245.54 174.11,-258.65 203,-268.5 208.97,-270.53 215.21,-272.53 221.5,-274.44"/>
<polygon fill="#63b8ff" stroke="#63b8ff" points="220.78,-277.88 231.36,-277.38 222.78,-271.17 220.78,-277.88"/>
</a>
</g>
</g>
<!-- Node6 -->
<g id="Node000006" class="node">
<title>Node6</title>
<g id="a_Node000006"><a xlink:href="../../d9/d02/classTerraria_1_1WorldBuilding_1_1Actions_a6e2572a22feedf1430087e99ddf6e6d6.html#a6e2572a22feedf1430087e99ddf6e6d6" target="_top" xlink:title=" ">
<polygon fill="white" stroke="#666666" points="373,-259.5 207,-259.5 207,-229.5 373,-229.5 373,-259.5"/>
<text text-anchor="start" x="215" y="-247.5" font-family="Helvetica,sans-Serif" font-size="10.00">Terraria.WorldBuilding.Actions.</text>
<text text-anchor="middle" x="290" y="-236.5" font-family="Helvetica,sans-Serif" font-size="10.00">Chain</text>
</a>
</g>
</g>
<!-- Node1&#45;&gt;Node6 -->
<g id="edge6_Node000001_Node000006" class="edge">
<title>Node1&#45;&gt;Node6</title>
<g id="a_edge6_Node000001_Node000006"><a xlink:title=" ">
<path fill="none" stroke="#63b8ff" d="M167.09,-230.19C176.8,-231.33 186.75,-232.5 196.58,-233.65"/>
<polygon fill="#63b8ff" stroke="#63b8ff" points="196.43,-237.16 206.77,-234.85 197.24,-230.21 196.43,-237.16"/>
</a>
</g>
</g>
<!-- Node7 -->
<g id="Node000007" class="node">
<title>Node7</title>
<g id="a_Node000007"><a xlink:href="../../d6/d1f/classTerraria_1_1WorldBuilding_1_1WorldUtils_a2afa71136849722c517115ad53e5ea65.html#a2afa71136849722c517115ad53e5ea65" target="_top" xlink:title=" ">
<polygon fill="white" stroke="#666666" points="367.5,-211.5 212.5,-211.5 212.5,-181.5 367.5,-181.5 367.5,-211.5"/>
<text text-anchor="start" x="220.5" y="-199.5" font-family="Helvetica,sans-Serif" font-size="10.00">Terraria.WorldBuilding.World</text>
<text text-anchor="middle" x="290" y="-188.5" font-family="Helvetica,sans-Serif" font-size="10.00">Utils.Find</text>
</a>
</g>
</g>
<!-- Node1&#45;&gt;Node7 -->
<g id="edge7_Node000001_Node000007" class="edge">
<title>Node1&#45;&gt;Node7</title>
<g id="a_edge7_Node000001_Node000007"><a xlink:title=" ">
<path fill="none" stroke="#63b8ff" d="M167.09,-210.81C178.66,-209.45 190.59,-208.05 202.24,-206.68"/>
<polygon fill="#63b8ff" stroke="#63b8ff" points="202.86,-210.13 212.39,-205.49 202.05,-203.18 202.86,-210.13"/>
</a>
</g>
</g>
<!-- Node8 -->
<g id="Node000008" class="node">
<title>Node8</title>
<g id="a_Node000008"><a xlink:href="../../d6/d1f/classTerraria_1_1WorldBuilding_1_1WorldUtils_ae81cd0d3f9fab67f47de6a02f4834ad8.html#ae81cd0d3f9fab67f47de6a02f4834ad8" target="_top" xlink:title=" ">
<polygon fill="white" stroke="#666666" points="367.5,-163.5 212.5,-163.5 212.5,-133.5 367.5,-133.5 367.5,-163.5"/>
<text text-anchor="start" x="220.5" y="-151.5" font-family="Helvetica,sans-Serif" font-size="10.00">Terraria.WorldBuilding.World</text>
<text text-anchor="middle" x="290" y="-140.5" font-family="Helvetica,sans-Serif" font-size="10.00">Utils.Gen</text>
</a>
</g>
</g>
<!-- Node1&#45;&gt;Node8 -->
<g id="edge8_Node000001_Node000008" class="edge">
<title>Node1&#45;&gt;Node8</title>
<g id="a_edge8_Node000001_Node000008"><a xlink:title=" ">
<path fill="none" stroke="#63b8ff" d="M118.6,-205.5C142.07,-195.46 174.11,-182.35 203,-172.5 208.97,-170.47 215.21,-168.47 221.5,-166.56"/>
<polygon fill="#63b8ff" stroke="#63b8ff" points="222.78,-169.83 231.36,-163.62 220.78,-163.12 222.78,-169.83"/>
</a>
</g>
</g>
<!-- Node9 -->
<g id="Node000009" class="node">
<title>Node9</title>
<g id="a_Node000009"><a xlink:href="../../d3/d09/classTerraria_1_1WorldBuilding_1_1ShapeData_afa27b4bb5ed1c6370fb8095d5de12703.html#afa27b4bb5ed1c6370fb8095d5de12703" target="_top" xlink:title=" ">
<polygon fill="white" stroke="#666666" points="368.5,-115.5 211.5,-115.5 211.5,-85.5 368.5,-85.5 368.5,-115.5"/>
<text text-anchor="start" x="219.5" y="-103.5" font-family="Helvetica,sans-Serif" font-size="10.00">Terraria.WorldBuilding.Shape</text>
<text text-anchor="middle" x="290" y="-92.5" font-family="Helvetica,sans-Serif" font-size="10.00">Data.GetBounds</text>
</a>
</g>
</g>
<!-- Node1&#45;&gt;Node9 -->
<g id="edge9_Node000001_Node000009" class="edge">
<title>Node1&#45;&gt;Node9</title>
<g id="a_edge9_Node000001_Node000009"><a xlink:title=" ">
<path fill="none" stroke="#63b8ff" d="M99.14,-205.21C120.19,-184.09 161.12,-146.12 203,-124.5 206.72,-122.58 210.61,-120.8 214.6,-119.15"/>
<polygon fill="#63b8ff" stroke="#63b8ff" points="215.95,-122.38 224.03,-115.53 213.44,-115.84 215.95,-122.38"/>
</a>
</g>
</g>
<!-- Node10 -->
<g id="Node000010" class="node">
<title>Node10</title>
<g id="a_Node000010"><a xlink:href="../../db/d55/classTerraria_1_1WorldBuilding_1_1GenAction_a03d950e9dac98bf884f8cd1144ba319e.html#a03d950e9dac98bf884f8cd1144ba319e" target="_top" xlink:title=" ">
<polygon fill="white" stroke="#666666" points="363,-67.5 217,-67.5 217,-37.5 363,-37.5 363,-67.5"/>
<text text-anchor="start" x="225" y="-55.5" font-family="Helvetica,sans-Serif" font-size="10.00">Terraria.WorldBuilding.Gen</text>
<text text-anchor="middle" x="290" y="-44.5" font-family="Helvetica,sans-Serif" font-size="10.00">Action.Output</text>
</a>
</g>
</g>
<!-- Node1&#45;&gt;Node10 -->
<g id="edge10_Node000001_Node000010" class="edge">
<title>Node1&#45;&gt;Node10</title>
<g id="a_edge10_Node000001_Node000010"><a xlink:title=" ">
<path fill="none" stroke="#63b8ff" d="M92.72,-205.28C109.45,-175.8 150.36,-110.77 203,-76.5 205.58,-74.82 208.28,-73.26 211.06,-71.8"/>
<polygon fill="#63b8ff" stroke="#63b8ff" points="212.62,-74.93 220.18,-67.51 209.64,-68.6 212.62,-74.93"/>
</a>
</g>
</g>
<!-- Node11 -->
<g id="Node000011" class="node">
<title>Node11</title>
<g id="a_Node000011"><a xlink:href="../../de/da1/classTerraria_1_1WorldGen_a1fd0f41d2e75a087307174bc5e47823e.html#a1fd0f41d2e75a087307174bc5e47823e" target="_top" xlink:title=" ">
<polygon fill="white" stroke="#666666" points="364.5,-19 215.5,-19 215.5,0 364.5,0 364.5,-19"/>
<text text-anchor="middle" x="290" y="-7" font-family="Helvetica,sans-Serif" font-size="10.00">Terraria.WorldGen.SolidTile</text>
</a>
</g>
</g>
<!-- Node1&#45;&gt;Node11 -->
<g id="edge11_Node000001_Node000011" class="edge">
<title>Node1&#45;&gt;Node11</title>
<g id="a_edge11_Node000001_Node000011"><a xlink:title=" ">
<path fill="none" stroke="#63b8ff" d="M89.21,-205.41C101.47,-168.76 138.01,-74.66 203,-28.5 205.68,-26.6 208.52,-24.88 211.46,-23.33"/>
<polygon fill="#63b8ff" stroke="#63b8ff" points="212.95,-26.5 220.6,-19.16 210.05,-20.13 212.95,-26.5"/>
</a>
</g>
</g>
<!-- Node4&#45;&gt;Node4 -->
<g id="edge4_Node000004_Node000004" class="edge">
<title>Node4&#45;&gt;Node4</title>
<g id="a_edge4_Node000004_Node000004"><a xlink:title=" ">
<path fill="none" stroke="#63b8ff" d="M253.79,-355.78C245.74,-364.91 257.81,-373.5 290,-373.5 309.11,-373.5 321.13,-370.47 326.06,-366.1"/>
<polygon fill="#63b8ff" stroke="#63b8ff" points="329.56,-365.83 326.21,-355.78 322.56,-365.72 329.56,-365.83"/>
</a>
</g>
</g>
</g>
</svg>
