<?xml version="1.0" encoding="UTF-8" standalone="no"?>
<!DOCTYPE svg PUBLIC "-//W3C//DTD SVG 1.1//EN"
 "http://www.w3.org/Graphics/SVG/1.1/DTD/svg11.dtd">
<!-- Generated by graphviz version 2.43.0 (0)
 -->
<!-- Title: Terraria.GameContent.UI.BigProgressBar.EaterOfWorldsProgressBar.ValidateAndCollectNecessaryInfo Pages: 1 -->
<!--zoomable 476 -->

<svg id="main" version="1.1" xmlns="http://www.w3.org/2000/svg" xmlns:xlink="http://www.w3.org/1999/xlink" xml:space="preserve" onload="init(evt)">
<style type="text/css"><![CDATA[
.node, .edge {opacity: 0.7;}
.node.selected, .edge.selected {opacity: 1;}
.edge:hover path { stroke: red; }
.edge:hover polygon { stroke: red; fill: red; }
]]></style>

<defs>
  <circle id="rim" cx="0" cy="0" r="7"/>
  <circle id="rim2" cx="0" cy="0" r="3.5"/>
  <g id="zoomPlus">
    <use xlink:href="#rim" fill="#404040"><set attributeName="fill" to="#808080" begin="zoomplus.mouseover" end="zoomplus.mouseout"/></use>
    <path d="M-4,0h8M0,-4v8" fill="none" stroke="white" stroke-width="1.5" pointer-events="none"/>
  </g>
  <g id="zoomMin">
    <use xlink:href="#rim" fill="#404040"><set attributeName="fill" to="#808080" begin="zoomminus.mouseover" end="zoomminus.mouseout"/></use>
    <path d="M-4,0h8" fill="none" stroke="white" stroke-width="1.5" pointer-events="none"/>
  </g>
  <g id="arrowUp" transform="translate(30 24)">
    <use xlink:href="#rim"/>
    <path pointer-events="none" fill="none" stroke="white" stroke-width="1.5" d="M0,-3.0v7 M-2.5,-0.5L0,-3.0L2.5,-0.5"/>
  </g>
  <g id="arrowRight" transform="rotate(90) translate(36 -43)">
    <use xlink:href="#rim"/>
    <path pointer-events="none" fill="none" stroke="white" stroke-width="1.5" d="M0,-3.0v7 M-2.5,-0.5L0,-3.0L2.5,-0.5"/>
  </g>
  <g id="arrowDown" transform="rotate(180) translate(-30 -48)">
    <use xlink:href="#rim"/>
    <path pointer-events="none" fill="none" stroke="white" stroke-width="1.5" d="M0,-3.0v7 M-2.5,-0.5L0,-3.0L2.5,-0.5"/>
  </g>
  <g id="arrowLeft" transform="rotate(270) translate(-36 17)">
    <use xlink:href="#rim"/>
    <path pointer-events="none" fill="none" stroke="white" stroke-width="1.5" d="M0,-3.0v7 M-2.5,-0.5L0,-3.0L2.5,-0.5"/>
  </g>
  <g id="resetDef">
    <use xlink:href="#rim2" fill="#404040"><set attributeName="fill" to="#808080" begin="reset.mouseover" end="reset.mouseout"/></use>
  </g>
</defs>
<script type="application/ecmascript">
var viewWidth = 1516;
var viewHeight = 476;
var sectionId = 'dynsection-0';
</script>
<script type="application/ecmascript" xlink:href="../../svg.min.js"/>
<svg id="graph" class="graph">
<g id="viewport">
<title>Terraria.GameContent.UI.BigProgressBar.EaterOfWorldsProgressBar.ValidateAndCollectNecessaryInfo</title>
<!-- Node1 -->
<g id="Node000001" class="node">
<title>Node1</title>
<g id="a_Node000001"><a xlink:title=" ">
<polygon fill="#999999" stroke="#666666" points="239,-230.5 0,-230.5 0,-189.5 239,-189.5 239,-230.5"/>
<text text-anchor="start" x="8" y="-218.5" font-family="Helvetica,sans-Serif" font-size="10.00">Terraria.GameContent.UI.</text>
<text text-anchor="start" x="8" y="-207.5" font-family="Helvetica,sans-Serif" font-size="10.00">BigProgressBar.EaterOfWorlds</text>
<text text-anchor="middle" x="119.5" y="-196.5" font-family="Helvetica,sans-Serif" font-size="10.00">ProgressBar.ValidateAndCollectNecessaryInfo</text>
</a>
</g>
</g>
<!-- Node2 -->
<g id="Node000002" class="node">
<title>Node2</title>
<g id="a_Node000002"><a xlink:href="../../df/d0d/classTerraria_1_1NPC_a4f7ef3386a26caa33f94eb9d4383af00.html#a4f7ef3386a26caa33f94eb9d4383af00" target="_top" xlink:title=" ">
<polygon fill="white" stroke="#666666" points="466,-292 299,-292 299,-262 466,-262 466,-292"/>
<text text-anchor="start" x="307" y="-280" font-family="Helvetica,sans-Serif" font-size="10.00">Terraria.NPC.GetEaterOfWorlds</text>
<text text-anchor="middle" x="382.5" y="-269" font-family="Helvetica,sans-Serif" font-size="10.00">SegmentsCount</text>
</a>
</g>
</g>
<!-- Node1&#45;&gt;Node2 -->
<g id="edge1_Node000001_Node000002" class="edge">
<title>Node1&#45;&gt;Node2</title>
<g id="a_edge1_Node000001_Node000002"><a xlink:title=" ">
<path fill="none" stroke="#63b8ff" d="M194.23,-230.61C219.76,-237.59 248.59,-245.31 275,-252 284.98,-254.53 295.5,-257.1 305.89,-259.6"/>
<polygon fill="#63b8ff" stroke="#63b8ff" points="305.26,-263.04 315.8,-261.96 306.88,-256.23 305.26,-263.04"/>
</a>
</g>
</g>
<!-- Node3 -->
<g id="Node000003" class="node">
<title>Node3</title>
<g id="a_Node000003"><a xlink:href="../../df/d0d/classTerraria_1_1NPC_a063ba9b4494999cf79b91a12d375e317.html#a063ba9b4494999cf79b91a12d375e317" target="_top" xlink:title=" ">
<polygon fill="white" stroke="#666666" points="451,-243.5 314,-243.5 314,-224.5 451,-224.5 451,-243.5"/>
<text text-anchor="middle" x="382.5" y="-231.5" font-family="Helvetica,sans-Serif" font-size="10.00">Terraria.NPC.SetDefaults</text>
</a>
</g>
</g>
<!-- Node1&#45;&gt;Node3 -->
<g id="edge2_Node000001_Node000003" class="edge">
<title>Node1&#45;&gt;Node3</title>
<g id="a_edge2_Node000001_Node000003"><a xlink:title=" ">
<path fill="none" stroke="#63b8ff" d="M239.16,-220.91C261.05,-222.92 283.39,-224.98 303.68,-226.84"/>
<polygon fill="#63b8ff" stroke="#63b8ff" points="303.5,-230.34 313.78,-227.77 304.14,-223.37 303.5,-230.34"/>
</a>
</g>
</g>
<!-- Node30 -->
<g id="Node000030" class="node">
<title>Node30</title>
<g id="a_Node000030"><a xlink:href="../../d0/d35/structTerraria_1_1GameContent_1_1UI_1_1BigProgressBar_1_1BigProgressBarCache_a9a9358b21baca4374924c245d2eaf9dc.html#a9a9358b21baca4374924c245d2eaf9dc" target="_top" xlink:title=" ">
<polygon fill="white" stroke="#666666" points="466,-206.5 299,-206.5 299,-165.5 466,-165.5 466,-206.5"/>
<text text-anchor="start" x="307" y="-194.5" font-family="Helvetica,sans-Serif" font-size="10.00">Terraria.GameContent.UI.</text>
<text text-anchor="start" x="307" y="-183.5" font-family="Helvetica,sans-Serif" font-size="10.00">BigProgressBar.BigProgressBar</text>
<text text-anchor="middle" x="382.5" y="-172.5" font-family="Helvetica,sans-Serif" font-size="10.00">Cache.SetLife</text>
</a>
</g>
</g>
<!-- Node1&#45;&gt;Node30 -->
<g id="edge33_Node000001_Node000030" class="edge">
<title>Node1&#45;&gt;Node30</title>
<g id="a_edge33_Node000001_Node000030"><a xlink:title=" ">
<path fill="none" stroke="#63b8ff" d="M239.16,-199.09C255.73,-197.56 272.56,-196.02 288.56,-194.55"/>
<polygon fill="#63b8ff" stroke="#63b8ff" points="289.31,-197.99 298.95,-193.59 288.67,-191.02 289.31,-197.99"/>
</a>
</g>
</g>
<!-- Node31 -->
<g id="Node000031" class="node">
<title>Node31</title>
<g id="a_Node000031"><a xlink:href="../../d1/da4/classTerraria_1_1GameContent_1_1UI_1_1BigProgressBar_1_1EaterOfWorldsProgressBar_a7762603f52c1b695a9512b96988070e3.html#a7762603f52c1b695a9512b96988070e3" target="_top" xlink:title=" ">
<polygon fill="white" stroke="#666666" points="490,-147.5 275,-147.5 275,-106.5 490,-106.5 490,-147.5"/>
<text text-anchor="start" x="283" y="-135.5" font-family="Helvetica,sans-Serif" font-size="10.00">Terraria.GameContent.UI.</text>
<text text-anchor="start" x="283" y="-124.5" font-family="Helvetica,sans-Serif" font-size="10.00">BigProgressBar.EaterOfWorlds</text>
<text text-anchor="middle" x="382.5" y="-113.5" font-family="Helvetica,sans-Serif" font-size="10.00">ProgressBar.TryFindingAnotherEOWPiece</text>
</a>
</g>
</g>
<!-- Node1&#45;&gt;Node31 -->
<g id="edge34_Node000001_Node000031" class="edge">
<title>Node1&#45;&gt;Node31</title>
<g id="a_edge34_Node000001_Node000031"><a xlink:title=" ">
<path fill="none" stroke="#63b8ff" d="M176.33,-189.42C205.55,-178.92 242.03,-166.24 275,-156 281.07,-154.12 287.34,-152.24 293.68,-150.39"/>
<polygon fill="#63b8ff" stroke="#63b8ff" points="295.02,-153.64 303.66,-147.51 293.09,-146.92 295.02,-153.64"/>
</a>
</g>
</g>
<!-- Node4 -->
<g id="Node000004" class="node">
<title>Node4</title>
<g id="a_Node000004"><a xlink:href="../../db/d79/classTerraria_1_1Item_a05574584ee5416fb7e5672793d62fe06.html#a05574584ee5416fb7e5672793d62fe06" target="_top" xlink:title="Converts the provided buy price into copper coins. &#160;&#160;If assigned to F:Terraria.Item....">
<polygon fill="white" stroke="#666666" points="683.5,-467.5 559.5,-467.5 559.5,-448.5 683.5,-448.5 683.5,-467.5"/>
<text text-anchor="middle" x="621.5" y="-455.5" font-family="Helvetica,sans-Serif" font-size="10.00">Terraria.Item.buyPrice</text>
</a>
</g>
</g>
<!-- Node3&#45;&gt;Node4 -->
<g id="edge3_Node000003_Node000004" class="edge">
<title>Node3&#45;&gt;Node4</title>
<g id="a_edge3_Node000003_Node000004"><a xlink:title=" ">
<path fill="none" stroke="#63b8ff" d="M451.24,-233.86C465.61,-236.93 479.57,-242.71 490,-253 550.25,-312.44 466.09,-380.21 526,-440 532.6,-446.58 540.81,-451.15 549.62,-454.27"/>
<polygon fill="#63b8ff" stroke="#63b8ff" points="548.79,-457.68 559.37,-457.12 550.75,-450.96 548.79,-457.68"/>
</a>
</g>
</g>
<!-- Node5 -->
<g id="Node000005" class="node">
<title>Node5</title>
<g id="a_Node000005"><a xlink:href="../../df/d0d/classTerraria_1_1NPC_a5e232d3d4e046187b048502bed6d0f9a.html#a5e232d3d4e046187b048502bed6d0f9a" target="_top" xlink:title=" ">
<polygon fill="white" stroke="#666666" points="712.5,-430.5 530.5,-430.5 530.5,-411.5 712.5,-411.5 712.5,-430.5"/>
<text text-anchor="middle" x="621.5" y="-418.5" font-family="Helvetica,sans-Serif" font-size="10.00">Terraria.NPC.getGoodAdjustments</text>
</a>
</g>
</g>
<!-- Node3&#45;&gt;Node5 -->
<g id="edge4_Node000003_Node000005" class="edge">
<title>Node3&#45;&gt;Node5</title>
<g id="a_edge4_Node000003_Node000005"><a xlink:title=" ">
<path fill="none" stroke="#63b8ff" d="M451.17,-234.28C465.46,-237.35 479.4,-243.02 490,-253 539.61,-299.69 476.9,-354.77 526,-402 527.33,-403.28 528.71,-404.48 530.15,-405.61"/>
<polygon fill="#63b8ff" stroke="#63b8ff" points="528.64,-408.8 538.92,-411.34 532.47,-402.94 528.64,-408.8"/>
</a>
</g>
</g>
<!-- Node6 -->
<g id="Node000006" class="node">
<title>Node6</title>
<g id="a_Node000006"><a xlink:href="../../df/d0d/classTerraria_1_1NPC_adea2a8b3dc8ba811f240cd6a5e4bc7a0.html#adea2a8b3dc8ba811f240cd6a5e4bc7a0" target="_top" xlink:title=" ">
<polygon fill="white" stroke="#666666" points="711.5,-393 531.5,-393 531.5,-363 711.5,-363 711.5,-393"/>
<text text-anchor="start" x="539.5" y="-381" font-family="Helvetica,sans-Serif" font-size="10.00">Terraria.NPC.getTenthAnniversary</text>
<text text-anchor="middle" x="621.5" y="-370" font-family="Helvetica,sans-Serif" font-size="10.00">Adjustments</text>
</a>
</g>
</g>
<!-- Node3&#45;&gt;Node6 -->
<g id="edge5_Node000003_Node000006" class="edge">
<title>Node3&#45;&gt;Node6</title>
<g id="a_edge5_Node000003_Node000006"><a xlink:title=" ">
<path fill="none" stroke="#63b8ff" d="M451.26,-235.29C465.29,-238.36 479.11,-243.78 490,-253 526.37,-283.79 490.76,-321.92 526,-354 527.29,-355.18 528.63,-356.29 530.01,-357.36"/>
<polygon fill="#63b8ff" stroke="#63b8ff" points="528.1,-360.29 538.37,-362.9 531.97,-354.46 528.1,-360.29"/>
</a>
</g>
</g>
<!-- Node7 -->
<g id="Node000007" class="node">
<title>Node7</title>
<g id="a_Node000007"><a xlink:href="../../df/d0d/classTerraria_1_1NPC_a69bce4d28993fa8f83f3aee049228b53.html#a69bce4d28993fa8f83f3aee049228b53" target="_top" xlink:title=" ">
<polygon fill="white" stroke="#666666" points="703,-345 540,-345 540,-315 703,-315 703,-345"/>
<text text-anchor="start" x="548" y="-333" font-family="Helvetica,sans-Serif" font-size="10.00">Terraria.NPC.getZenithSeed</text>
<text text-anchor="middle" x="621.5" y="-322" font-family="Helvetica,sans-Serif" font-size="10.00">AdjustmentsBeforeEverything</text>
</a>
</g>
</g>
<!-- Node3&#45;&gt;Node7 -->
<g id="edge6_Node000003_Node000007" class="edge">
<title>Node3&#45;&gt;Node7</title>
<g id="a_edge6_Node000003_Node000007"><a xlink:title=" ">
<path fill="none" stroke="#63b8ff" d="M451.05,-237.75C464.71,-240.72 478.42,-245.49 490,-253 513.89,-268.49 502.68,-289.65 526,-306 528.12,-307.49 530.33,-308.88 532.6,-310.19"/>
<polygon fill="#63b8ff" stroke="#63b8ff" points="531.17,-313.39 541.66,-314.83 534.35,-307.16 531.17,-313.39"/>
</a>
</g>
</g>
<!-- Node8 -->
<g id="Node000008" class="node">
<title>Node8</title>
<g id="a_Node000008"><a xlink:href="../../df/d0d/classTerraria_1_1NPC_a7e365c98f3d1c8ce8a623131eeff00af.html#a7e365c98f3d1c8ce8a623131eeff00af" target="_top" xlink:title=" ">
<polygon fill="white" stroke="#666666" points="695,-297 548,-297 548,-267 695,-267 695,-297"/>
<text text-anchor="start" x="556" y="-285" font-family="Helvetica,sans-Serif" font-size="10.00">Terraria.NPC.LazySetLiquid</text>
<text text-anchor="middle" x="621.5" y="-274" font-family="Helvetica,sans-Serif" font-size="10.00">MovementDD2</text>
</a>
</g>
</g>
<!-- Node3&#45;&gt;Node8 -->
<g id="edge7_Node000003_Node000008" class="edge">
<title>Node3&#45;&gt;Node8</title>
<g id="a_edge7_Node000003_Node000008"><a xlink:title=" ">
<path fill="none" stroke="#63b8ff" d="M439.41,-243.52C455.74,-246.42 473.61,-249.72 490,-253 507.95,-256.59 527.23,-260.73 545.32,-264.73"/>
<polygon fill="#63b8ff" stroke="#63b8ff" points="544.71,-268.18 555.23,-266.93 546.23,-261.34 544.71,-268.18"/>
</a>
</g>
</g>
<!-- Node9 -->
<g id="Node000009" class="node">
<title>Node9</title>
<g id="a_Node000009"><a xlink:href="../../df/d0d/classTerraria_1_1NPC_adaf55f79044eabae626e61f5f8474d0b.html#adaf55f79044eabae626e61f5f8474d0b" target="_top" xlink:title=" ">
<polygon fill="white" stroke="#666666" points="902.5,-168.5 771.5,-168.5 771.5,-149.5 902.5,-149.5 902.5,-168.5"/>
<text text-anchor="middle" x="837" y="-156.5" font-family="Helvetica,sans-Serif" font-size="10.00">Terraria.NPC.ScaleStats</text>
</a>
</g>
</g>
<!-- Node3&#45;&gt;Node9 -->
<g id="edge8_Node000003_Node000009" class="edge">
<title>Node3&#45;&gt;Node9</title>
<g id="a_edge8_Node000003_Node000009"><a xlink:title=" ">
<path fill="none" stroke="#63b8ff" d="M439.67,-224.49C465.89,-220.06 497.54,-214.74 526,-210 609.07,-196.17 704.71,-180.47 767.53,-170.19"/>
<polygon fill="#63b8ff" stroke="#63b8ff" points="768.41,-173.59 777.71,-168.52 767.28,-166.68 768.41,-173.59"/>
</a>
</g>
</g>
<!-- Node20 -->
<g id="Node000020" class="node">
<title>Node20</title>
<g id="a_Node000020"><a xlink:href="../../dd/dc6/classTerraria_1_1ModLoader_1_1NPCLoader_a06b6025f8632028b83d20840cf95a079.html#a06b6025f8632028b83d20840cf95a079" target="_top" xlink:title=" ">
<polygon fill="white" stroke="#666666" points="705.5,-249 537.5,-249 537.5,-219 705.5,-219 705.5,-249"/>
<text text-anchor="start" x="545.5" y="-237" font-family="Helvetica,sans-Serif" font-size="10.00">Terraria.ModLoader.NPCLoader.</text>
<text text-anchor="middle" x="621.5" y="-226" font-family="Helvetica,sans-Serif" font-size="10.00">SetDefaults</text>
</a>
</g>
</g>
<!-- Node3&#45;&gt;Node20 -->
<g id="edge20_Node000003_Node000020" class="edge">
<title>Node3&#45;&gt;Node20</title>
<g id="a_edge20_Node000003_Node000020"><a xlink:title=" ">
<path fill="none" stroke="#63b8ff" d="M451.1,-234C474.77,-234 501.79,-234 527.19,-234"/>
<polygon fill="#63b8ff" stroke="#63b8ff" points="527.21,-237.5 537.21,-234 527.21,-230.5 527.21,-237.5"/>
</a>
</g>
</g>
<!-- Node26 -->
<g id="Node000026" class="node">
<title>Node26</title>
<g id="a_Node000026"><a xlink:href="../../df/d0d/classTerraria_1_1NPC_abdb0df5ace52d69eac9df21d2313f6c0.html#abdb0df5ace52d69eac9df21d2313f6c0" target="_top" xlink:title=" ">
<polygon fill="white" stroke="#666666" points="690,-163 553,-163 553,-133 690,-133 690,-163"/>
<text text-anchor="start" x="561" y="-151" font-family="Helvetica,sans-Serif" font-size="10.00">Terraria.NPC.SetDefaults</text>
<text text-anchor="middle" x="621.5" y="-140" font-family="Helvetica,sans-Serif" font-size="10.00">FromNetId</text>
</a>
</g>
</g>
<!-- Node3&#45;&gt;Node26 -->
<g id="edge26_Node000003_Node000026" class="edge">
<title>Node3&#45;&gt;Node26</title>
<g id="a_edge26_Node000003_Node000026"><a xlink:title=" ">
<path fill="none" stroke="#63b8ff" d="M425.71,-224.48C446.14,-221.42 470.41,-216.56 490,-206 510.48,-194.96 506.23,-180.26 526,-168 531.36,-164.68 537.13,-161.71 543.08,-159.09"/>
<polygon fill="#63b8ff" stroke="#63b8ff" points="544.58,-162.26 552.54,-155.26 541.96,-155.77 544.58,-162.26"/>
</a>
</g>
</g>
<!-- Node29 -->
<g id="Node000029" class="node">
<title>Node29</title>
<g id="a_Node000029"><a xlink:href="../../df/d0d/classTerraria_1_1NPC_a0bcca6115ed91073beae22213aee2dcf.html#a0bcca6115ed91073beae22213aee2dcf" target="_top" xlink:title=" ">
<polygon fill="white" stroke="#666666" points="717,-114.5 526,-114.5 526,-95.5 717,-95.5 717,-114.5"/>
<text text-anchor="middle" x="621.5" y="-102.5" font-family="Helvetica,sans-Serif" font-size="10.00">Terraria.NPC.SpawnWithHigherTime</text>
</a>
</g>
</g>
<!-- Node3&#45;&gt;Node29 -->
<g id="edge32_Node000003_Node000029" class="edge">
<title>Node3&#45;&gt;Node29</title>
<g id="a_edge32_Node000003_Node000029"><a xlink:title=" ">
<path fill="none" stroke="#63b8ff" d="M451.02,-232.43C465.07,-229.38 478.95,-224.03 490,-215 523.67,-187.47 492.63,-151.89 526,-124 527.83,-122.47 529.74,-121.06 531.73,-119.75"/>
<polygon fill="#63b8ff" stroke="#63b8ff" points="533.85,-122.57 540.86,-114.63 530.43,-116.46 533.85,-122.57"/>
</a>
</g>
</g>
<!-- Node10 -->
<g id="Node000010" class="node">
<title>Node10</title>
<g id="a_Node000010"><a xlink:href="../../df/d0d/classTerraria_1_1NPC_a8e4b0f3231b5bf9c5835ef2b88ac60a5.html#a8e4b0f3231b5bf9c5835ef2b88ac60a5" target="_top" xlink:title=" ">
<polygon fill="white" stroke="#666666" points="1115.5,-270 957.5,-270 957.5,-240 1115.5,-240 1115.5,-270"/>
<text text-anchor="start" x="965.5" y="-258" font-family="Helvetica,sans-Serif" font-size="10.00">Terraria.NPC.GetActivePlayer</text>
<text text-anchor="middle" x="1036.5" y="-247" font-family="Helvetica,sans-Serif" font-size="10.00">Count</text>
</a>
</g>
</g>
<!-- Node9&#45;&gt;Node10 -->
<g id="edge9_Node000009_Node000010" class="edge">
<title>Node9&#45;&gt;Node10</title>
<g id="a_edge9_Node000009_Node000010"><a xlink:title=" ">
<path fill="none" stroke="#63b8ff" d="M862.2,-168.55C879.29,-175.78 902.37,-186.58 921,-199 938.81,-210.87 938.33,-220.52 957,-231 960.08,-232.73 963.29,-234.34 966.59,-235.86"/>
<polygon fill="#63b8ff" stroke="#63b8ff" points="965.48,-239.19 976.06,-239.85 968.2,-232.74 965.48,-239.19"/>
</a>
</g>
</g>
<!-- Node11 -->
<g id="Node000011" class="node">
<title>Node11</title>
<g id="a_Node000011"><a xlink:href="../../df/d0d/classTerraria_1_1NPC_accfce3696d3a7f946b43873269df2d2f.html#accfce3696d3a7f946b43873269df2d2f" target="_top" xlink:title=" ">
<polygon fill="white" stroke="#666666" points="1112.5,-222 960.5,-222 960.5,-192 1112.5,-192 1112.5,-222"/>
<text text-anchor="start" x="968.5" y="-210" font-family="Helvetica,sans-Serif" font-size="10.00">Terraria.NPC.GetStatScaling</text>
<text text-anchor="middle" x="1036.5" y="-199" font-family="Helvetica,sans-Serif" font-size="10.00">Factors</text>
</a>
</g>
</g>
<!-- Node9&#45;&gt;Node11 -->
<g id="edge10_Node000009_Node000011" class="edge">
<title>Node9&#45;&gt;Node11</title>
<g id="a_edge10_Node000009_Node000011"><a xlink:title=" ">
<path fill="none" stroke="#63b8ff" d="M877.49,-168.6C902.17,-174.6 934.68,-182.5 963.8,-189.57"/>
<polygon fill="#63b8ff" stroke="#63b8ff" points="962.98,-192.98 973.52,-191.94 964.63,-186.17 962.98,-192.98"/>
</a>
</g>
</g>
<!-- Node12 -->
<g id="Node000012" class="node">
<title>Node12</title>
<g id="a_Node000012"><a xlink:href="../../df/d0d/classTerraria_1_1NPC_a1477b09713f696b98b1af6280d5d9947.html#a1477b09713f696b98b1af6280d5d9947" target="_top" xlink:title=" ">
<polygon fill="white" stroke="#666666" points="1102,-174 971,-174 971,-144 1102,-144 1102,-174"/>
<text text-anchor="start" x="979" y="-162" font-family="Helvetica,sans-Serif" font-size="10.00">Terraria.NPC.ScaleStats</text>
<text text-anchor="middle" x="1036.5" y="-151" font-family="Helvetica,sans-Serif" font-size="10.00">_ApplyExpertTweaks</text>
</a>
</g>
</g>
<!-- Node9&#45;&gt;Node12 -->
<g id="edge11_Node000009_Node000012" class="edge">
<title>Node9&#45;&gt;Node12</title>
<g id="a_edge11_Node000009_Node000012"><a xlink:title=" ">
<path fill="none" stroke="#63b8ff" d="M902.67,-159C921.17,-159 941.49,-159 960.55,-159"/>
<polygon fill="#63b8ff" stroke="#63b8ff" points="960.69,-162.5 970.69,-159 960.69,-155.5 960.69,-162.5"/>
</a>
</g>
</g>
<!-- Node14 -->
<g id="Node000014" class="node">
<title>Node14</title>
<g id="a_Node000014"><a xlink:href="../../df/d0d/classTerraria_1_1NPC_a10eb05d46879e6a5b2849ca8ad5663b1.html#a10eb05d46879e6a5b2849ca8ad5663b1" target="_top" xlink:title=" ">
<polygon fill="white" stroke="#666666" points="1102,-126 971,-126 971,-96 1102,-96 1102,-126"/>
<text text-anchor="start" x="979" y="-114" font-family="Helvetica,sans-Serif" font-size="10.00">Terraria.NPC.ScaleStats</text>
<text text-anchor="middle" x="1036.5" y="-103" font-family="Helvetica,sans-Serif" font-size="10.00">_ApplyGameMode</text>
</a>
</g>
</g>
<!-- Node9&#45;&gt;Node14 -->
<g id="edge13_Node000009_Node000014" class="edge">
<title>Node9&#45;&gt;Node14</title>
<g id="a_edge13_Node000009_Node000014"><a xlink:title=" ">
<path fill="none" stroke="#63b8ff" d="M880.7,-149.42C893.65,-146.46 907.92,-143.15 921,-140 936.04,-136.37 952.17,-132.36 967.43,-128.51"/>
<polygon fill="#63b8ff" stroke="#63b8ff" points="968.48,-131.86 977.32,-126.01 966.76,-125.07 968.48,-131.86"/>
</a>
</g>
</g>
<!-- Node15 -->
<g id="Node000015" class="node">
<title>Node15</title>
<g id="a_Node000015"><a xlink:href="../../df/d0d/classTerraria_1_1NPC_a93bb88a4be58d7223cda8d06e29ddfec.html#a93bb88a4be58d7223cda8d06e29ddfec" target="_top" xlink:title=" ">
<polygon fill="white" stroke="#666666" points="1102,-78 971,-78 971,-48 1102,-48 1102,-78"/>
<text text-anchor="start" x="979" y="-66" font-family="Helvetica,sans-Serif" font-size="10.00">Terraria.NPC.ScaleStats</text>
<text text-anchor="middle" x="1036.5" y="-55" font-family="Helvetica,sans-Serif" font-size="10.00">_ApplyMultiplayerStats</text>
</a>
</g>
</g>
<!-- Node9&#45;&gt;Node15 -->
<g id="edge14_Node000009_Node000015" class="edge">
<title>Node9&#45;&gt;Node15</title>
<g id="a_edge14_Node000009_Node000015"><a xlink:title=" ">
<path fill="none" stroke="#63b8ff" d="M902.59,-149.37C909.11,-146.91 915.39,-143.84 921,-140 944.51,-123.93 934.08,-103.9 957,-87 959.06,-85.48 961.21,-84.06 963.44,-82.73"/>
<polygon fill="#63b8ff" stroke="#63b8ff" points="965.15,-85.78 972.35,-78.01 961.87,-79.6 965.15,-85.78"/>
</a>
</g>
</g>
<!-- Node17 -->
<g id="Node000017" class="node">
<title>Node17</title>
<g id="a_Node000017"><a xlink:href="../../df/d0d/classTerraria_1_1NPC_ae343b9a2208e44424d4a85d71da9970f.html#ae343b9a2208e44424d4a85d71da9970f" target="_top" xlink:title=" ">
<polygon fill="white" stroke="#666666" points="1102,-30 971,-30 971,0 1102,0 1102,-30"/>
<text text-anchor="start" x="979" y="-18" font-family="Helvetica,sans-Serif" font-size="10.00">Terraria.NPC.ScaleStats</text>
<text text-anchor="middle" x="1036.5" y="-7" font-family="Helvetica,sans-Serif" font-size="10.00">_UseStrengthMultiplier</text>
</a>
</g>
</g>
<!-- Node9&#45;&gt;Node17 -->
<g id="edge17_Node000009_Node000017" class="edge">
<title>Node9&#45;&gt;Node17</title>
<g id="a_edge17_Node000009_Node000017"><a xlink:title=" ">
<path fill="none" stroke="#63b8ff" d="M902.84,-151.09C909.46,-148.33 915.7,-144.71 921,-140 956.62,-108.34 922.54,-71.92 957,-39 958.67,-37.4 960.45,-35.91 962.31,-34.51"/>
<polygon fill="#63b8ff" stroke="#63b8ff" points="964.4,-37.34 970.95,-29.02 960.64,-31.43 964.4,-37.34"/>
</a>
</g>
</g>
<!-- Node13 -->
<g id="Node000013" class="node">
<title>Node13</title>
<g id="a_Node000013"><a xlink:href="../../df/d0d/classTerraria_1_1NPC_a8a869e0800c1ae775007634b23e8b702.html#a8a869e0800c1ae775007634b23e8b702" target="_top" xlink:title="Returns true if there are any active NPC in the world of the given NPC type (F:Terraria....">
<polygon fill="white" stroke="#666666" points="1300.5,-142.5 1176.5,-142.5 1176.5,-123.5 1300.5,-123.5 1300.5,-142.5"/>
<text text-anchor="middle" x="1238.5" y="-130.5" font-family="Helvetica,sans-Serif" font-size="10.00">Terraria.NPC.AnyNPCs</text>
</a>
</g>
</g>
<!-- Node12&#45;&gt;Node13 -->
<g id="edge12_Node000012_Node000013" class="edge">
<title>Node12&#45;&gt;Node13</title>
<g id="a_edge12_Node000012_Node000013"><a xlink:title=" ">
<path fill="none" stroke="#63b8ff" d="M1102.16,-150.59C1122.66,-147.93 1145.43,-144.97 1166.36,-142.25"/>
<polygon fill="#63b8ff" stroke="#63b8ff" points="1167,-145.69 1176.46,-140.93 1166.1,-138.75 1167,-145.69"/>
</a>
</g>
</g>
<!-- Node15&#45;&gt;Node13 -->
<g id="edge15_Node000015_Node000013" class="edge">
<title>Node15&#45;&gt;Node13</title>
<g id="a_edge15_Node000015_Node000013"><a xlink:title=" ">
<path fill="none" stroke="#63b8ff" d="M1088.33,-78.01C1097.57,-80.89 1107.1,-83.96 1116,-87 1146.01,-97.26 1179.72,-110.13 1204,-119.64"/>
<polygon fill="#63b8ff" stroke="#63b8ff" points="1202.88,-122.96 1213.46,-123.37 1205.44,-116.45 1202.88,-122.96"/>
</a>
</g>
</g>
<!-- Node16 -->
<g id="Node000016" class="node">
<title>Node16</title>
<g id="a_Node000016"><a xlink:href="../../dd/dc6/classTerraria_1_1ModLoader_1_1NPCLoader_a659a4d84510af4980c152c4973a426c1.html#a659a4d84510af4980c152c4973a426c1" target="_top" xlink:title=" ">
<polygon fill="white" stroke="#666666" points="1325,-78 1152,-78 1152,-48 1325,-48 1325,-78"/>
<text text-anchor="start" x="1160" y="-66" font-family="Helvetica,sans-Serif" font-size="10.00">Terraria.ModLoader.NPCLoader.</text>
<text text-anchor="middle" x="1238.5" y="-55" font-family="Helvetica,sans-Serif" font-size="10.00">ApplyDifficultyAndPlayerScaling</text>
</a>
</g>
</g>
<!-- Node15&#45;&gt;Node16 -->
<g id="edge16_Node000015_Node000016" class="edge">
<title>Node15&#45;&gt;Node16</title>
<g id="a_edge16_Node000015_Node000016"><a xlink:title=" ">
<path fill="none" stroke="#63b8ff" d="M1102.16,-63C1114.8,-63 1128.31,-63 1141.71,-63"/>
<polygon fill="#63b8ff" stroke="#63b8ff" points="1141.93,-66.5 1151.93,-63 1141.93,-59.5 1141.93,-66.5"/>
</a>
</g>
</g>
<!-- Node18 -->
<g id="Node000018" class="node">
<title>Node18</title>
<g id="a_Node000018"><a xlink:href="../../d1/d9c/classTerraria_1_1Utils_a1220a41f9e87f7faa7e5076f088b9167.html#a1220a41f9e87f7faa7e5076f088b9167" target="_top" xlink:title=" ">
<polygon fill="white" stroke="#666666" points="1296.5,-24.5 1180.5,-24.5 1180.5,-5.5 1296.5,-5.5 1296.5,-24.5"/>
<text text-anchor="middle" x="1238.5" y="-12.5" font-family="Helvetica,sans-Serif" font-size="10.00">Terraria.Utils.Remap</text>
</a>
</g>
</g>
<!-- Node17&#45;&gt;Node18 -->
<g id="edge18_Node000017_Node000018" class="edge">
<title>Node17&#45;&gt;Node18</title>
<g id="a_edge18_Node000017_Node000018"><a xlink:title=" ">
<path fill="none" stroke="#63b8ff" d="M1102.16,-15C1123.93,-15 1148.27,-15 1170.24,-15"/>
<polygon fill="#63b8ff" stroke="#63b8ff" points="1170.48,-18.5 1180.48,-15 1170.48,-11.5 1170.48,-18.5"/>
</a>
</g>
</g>
<!-- Node19 -->
<g id="Node000019" class="node">
<title>Node19</title>
<g id="a_Node000019"><a xlink:href="../../d1/d9c/classTerraria_1_1Utils_a7223719277be4afd24a2496351a9a22f.html#a7223719277be4afd24a2496351a9a22f" target="_top" xlink:title=" ">
<polygon fill="white" stroke="#666666" points="1508,-24.5 1361,-24.5 1361,-5.5 1508,-5.5 1508,-24.5"/>
<text text-anchor="middle" x="1434.5" y="-12.5" font-family="Helvetica,sans-Serif" font-size="10.00">Terraria.Utils.GetLerpValue</text>
</a>
</g>
</g>
<!-- Node18&#45;&gt;Node19 -->
<g id="edge19_Node000018_Node000019" class="edge">
<title>Node18&#45;&gt;Node19</title>
<g id="a_edge19_Node000018_Node000019"><a xlink:title=" ">
<path fill="none" stroke="#63b8ff" d="M1296.66,-15C1313.63,-15 1332.58,-15 1350.83,-15"/>
<polygon fill="#63b8ff" stroke="#63b8ff" points="1350.88,-18.5 1360.88,-15 1350.88,-11.5 1350.88,-18.5"/>
</a>
</g>
</g>
<!-- Node21 -->
<g id="Node000021" class="node">
<title>Node21</title>
<g id="a_Node000021"><a xlink:href="../../dd/dc6/classTerraria_1_1ModLoader_1_1NPCLoader_a1e9eae6ec444b4a23e1a809cfea3be94.html#a1e9eae6ec444b4a23e1a809cfea3be94" target="_top" xlink:title="Gets the ModNPC template instance corresponding to the specified type (not the clone/new instance whi...">
<polygon fill="white" stroke="#666666" points="921,-238 753,-238 753,-208 921,-208 921,-238"/>
<text text-anchor="start" x="761" y="-226" font-family="Helvetica,sans-Serif" font-size="10.00">Terraria.ModLoader.NPCLoader.</text>
<text text-anchor="middle" x="837" y="-215" font-family="Helvetica,sans-Serif" font-size="10.00">GetNPC</text>
</a>
</g>
</g>
<!-- Node20&#45;&gt;Node21 -->
<g id="edge21_Node000020_Node000021" class="edge">
<title>Node20&#45;&gt;Node21</title>
<g id="a_edge21_Node000020_Node000021"><a xlink:title=" ">
<path fill="none" stroke="#63b8ff" d="M705.66,-229.72C717.73,-229.09 730.23,-228.45 742.49,-227.82"/>
<polygon fill="#63b8ff" stroke="#63b8ff" points="742.91,-231.3 752.72,-227.29 742.55,-224.31 742.91,-231.3"/>
</a>
</g>
</g>
<!-- Node22 -->
<g id="Node000022" class="node">
<title>Node22</title>
<g id="a_Node000022"><a xlink:href="../../dd/dc6/classTerraria_1_1ModLoader_1_1NPCLoader_ab2d0522b16da09834b9066320d5c970f.html#ab2d0522b16da09834b9066320d5c970f" target="_top" xlink:title=" ">
<polygon fill="white" stroke="#666666" points="921,-334 753,-334 753,-304 921,-304 921,-334"/>
<text text-anchor="start" x="761" y="-322" font-family="Helvetica,sans-Serif" font-size="10.00">Terraria.ModLoader.NPCLoader.</text>
<text text-anchor="middle" x="837" y="-311" font-family="Helvetica,sans-Serif" font-size="10.00">IsModNPC</text>
</a>
</g>
</g>
<!-- Node20&#45;&gt;Node22 -->
<g id="edge22_Node000020_Node000022" class="edge">
<title>Node20&#45;&gt;Node22</title>
<g id="a_edge22_Node000020_Node000022"><a xlink:title=" ">
<path fill="none" stroke="#63b8ff" d="M697.79,-249C704.48,-251.55 710.99,-254.53 717,-258 736.87,-269.48 733.32,-283.2 753,-295 755.83,-296.7 758.79,-298.28 761.83,-299.76"/>
<polygon fill="#63b8ff" stroke="#63b8ff" points="760.6,-303.04 771.16,-303.87 763.42,-296.63 760.6,-303.04"/>
</a>
</g>
</g>
<!-- Node23 -->
<g id="Node000023" class="node">
<title>Node23</title>
<g id="a_Node000023"><a xlink:href="../../db/d77/classTerraria_1_1ModLoader_1_1ModType_a92fd60a4a3110bbcd84d6ade99544e2a.html#a92fd60a4a3110bbcd84d6ade99544e2a" target="_top" xlink:title="Create a new instance of this ModType for a specific entity.">
<polygon fill="white" stroke="#666666" points="916.5,-286 757.5,-286 757.5,-256 916.5,-256 916.5,-286"/>
<text text-anchor="start" x="765.5" y="-274" font-family="Helvetica,sans-Serif" font-size="10.00">Terraria.ModLoader.ModType.</text>
<text text-anchor="middle" x="837" y="-263" font-family="Helvetica,sans-Serif" font-size="10.00">NewInstance</text>
</a>
</g>
</g>
<!-- Node20&#45;&gt;Node23 -->
<g id="edge23_Node000020_Node000023" class="edge">
<title>Node20&#45;&gt;Node23</title>
<g id="a_edge23_Node000020_Node000023"><a xlink:title=" ">
<path fill="none" stroke="#63b8ff" d="M705.66,-248.41C719.32,-250.78 733.52,-253.24 747.31,-255.63"/>
<polygon fill="#63b8ff" stroke="#63b8ff" points="746.81,-259.1 757.27,-257.36 748.01,-252.2 746.81,-259.1"/>
</a>
</g>
</g>
<!-- Node24 -->
<g id="Node000024" class="node">
<title>Node24</title>
<g id="a_Node000024"><a xlink:href="../../db/d77/classTerraria_1_1ModLoader_1_1ModType_aeb73d9b078163fba8a510ff7d51033c3.html#aeb73d9b078163fba8a510ff7d51033c3" target="_top" xlink:title="Create a copy of this instanced global. Called when an entity is cloned.">
<polygon fill="white" stroke="#666666" points="1116,-318 957,-318 957,-288 1116,-288 1116,-318"/>
<text text-anchor="start" x="965" y="-306" font-family="Helvetica,sans-Serif" font-size="10.00">Terraria.ModLoader.ModType.</text>
<text text-anchor="middle" x="1036.5" y="-295" font-family="Helvetica,sans-Serif" font-size="10.00">Clone</text>
</a>
</g>
</g>
<!-- Node23&#45;&gt;Node24 -->
<g id="edge24_Node000023_Node000024" class="edge">
<title>Node23&#45;&gt;Node24</title>
<g id="a_edge24_Node000023_Node000024"><a xlink:title=" ">
<path fill="none" stroke="#63b8ff" d="M916.62,-283.74C926.55,-285.35 936.75,-287 946.82,-288.63"/>
<polygon fill="#63b8ff" stroke="#63b8ff" points="946.39,-292.11 956.82,-290.25 947.51,-285.2 946.39,-292.11"/>
</a>
</g>
</g>
<!-- Node25 -->
<g id="Node000025" class="node">
<title>Node25</title>
<g id="a_Node000025"><a xlink:href="../../d4/d23/classTerraria_1_1ModLoader_1_1Core_1_1Cloning_ad5d16b3fb4335429f23e46f8defc0a91.html#ad5d16b3fb4335429f23e46f8defc0a91" target="_top" xlink:title=" ">
<polygon fill="white" stroke="#666666" points="1312,-318 1165,-318 1165,-288 1312,-288 1312,-318"/>
<text text-anchor="start" x="1173" y="-306" font-family="Helvetica,sans-Serif" font-size="10.00">Terraria.ModLoader.Core.</text>
<text text-anchor="middle" x="1238.5" y="-295" font-family="Helvetica,sans-Serif" font-size="10.00">Cloning.WarnNotCloneable</text>
</a>
</g>
</g>
<!-- Node24&#45;&gt;Node25 -->
<g id="edge25_Node000024_Node000025" class="edge">
<title>Node24&#45;&gt;Node25</title>
<g id="a_edge25_Node000024_Node000025"><a xlink:title=" ">
<path fill="none" stroke="#63b8ff" d="M1116.26,-303C1128.85,-303 1141.92,-303 1154.6,-303"/>
<polygon fill="#63b8ff" stroke="#63b8ff" points="1154.68,-306.5 1164.68,-303 1154.68,-299.5 1154.68,-306.5"/>
</a>
</g>
</g>
<!-- Node26&#45;&gt;Node3 -->
<g id="edge29_Node000026_Node000003" class="edge">
<title>Node26&#45;&gt;Node3</title>
<g id="a_edge29_Node000026_Node000003"><a xlink:title=" ">
<path fill="none" stroke="#63b8ff" d="M582.73,-163.01C564.63,-168.33 543.21,-175.33 526,-186 506.23,-198.26 510.48,-212.96 490,-224 480.98,-228.86 470.97,-232.52 460.79,-235.17"/>
<polygon fill="#63b8ff" stroke="#63b8ff" points="459.98,-231.76 451.02,-237.41 461.55,-238.59 459.98,-231.76"/>
</a>
</g>
</g>
<!-- Node26&#45;&gt;Node9 -->
<g id="edge28_Node000026_Node000009" class="edge">
<title>Node26&#45;&gt;Node9</title>
<g id="a_edge28_Node000026_Node000009"><a xlink:title=" ">
<path fill="none" stroke="#63b8ff" d="M690.05,-151.48C712.72,-152.65 738.12,-153.96 761.31,-155.15"/>
<polygon fill="#63b8ff" stroke="#63b8ff" points="761.27,-158.65 771.44,-155.67 761.63,-151.66 761.27,-158.65"/>
</a>
</g>
</g>
<!-- Node27 -->
<g id="Node000027" class="node">
<title>Node27</title>
<g id="a_Node000027"><a xlink:href="../../d9/d0d/classTerraria_1_1ID_1_1NPCID_a1a4ff57a4e00bc212571c6180d66a901.html#a1a4ff57a4e00bc212571c6180d66a901" target="_top" xlink:title=" ">
<polygon fill="white" stroke="#666666" points="914.5,-131.5 759.5,-131.5 759.5,-112.5 914.5,-112.5 914.5,-131.5"/>
<text text-anchor="middle" x="837" y="-119.5" font-family="Helvetica,sans-Serif" font-size="10.00">Terraria.ID.NPCID.FromNetId</text>
</a>
</g>
</g>
<!-- Node26&#45;&gt;Node27 -->
<g id="edge27_Node000026_Node000027" class="edge">
<title>Node26&#45;&gt;Node27</title>
<g id="a_edge27_Node000026_Node000027"><a xlink:title=" ">
<path fill="none" stroke="#63b8ff" d="M690.05,-139.77C708.78,-137.49 729.37,-134.99 749.04,-132.59"/>
<polygon fill="#63b8ff" stroke="#63b8ff" points="749.72,-136.03 759.22,-131.35 748.87,-129.08 749.72,-136.03"/>
</a>
</g>
</g>
<!-- Node28 -->
<g id="Node000028" class="node">
<title>Node28</title>
<g id="a_Node000028"><a xlink:href="../../df/d0d/classTerraria_1_1NPC_a4853844bc01c71ac25e8ca55e775559a.html#a4853844bc01c71ac25e8ca55e775559a" target="_top" xlink:title=" ">
<polygon fill="white" stroke="#666666" points="905.5,-94 768.5,-94 768.5,-64 905.5,-64 905.5,-94"/>
<text text-anchor="start" x="776.5" y="-82" font-family="Helvetica,sans-Serif" font-size="10.00">Terraria.NPC.SetDefaults</text>
<text text-anchor="middle" x="837" y="-71" font-family="Helvetica,sans-Serif" font-size="10.00">_ForNetId</text>
</a>
</g>
</g>
<!-- Node26&#45;&gt;Node28 -->
<g id="edge30_Node000026_Node000028" class="edge">
<title>Node26&#45;&gt;Node28</title>
<g id="a_edge30_Node000026_Node000028"><a xlink:title=" ">
<path fill="none" stroke="#63b8ff" d="M688.01,-132.94C697.86,-130.03 707.79,-126.71 717,-123 733.98,-116.16 736.1,-110.03 753,-103 757.81,-101 762.84,-99.1 767.95,-97.31"/>
<polygon fill="#63b8ff" stroke="#63b8ff" points="769.45,-100.5 777.82,-94.01 767.23,-93.86 769.45,-100.5"/>
</a>
</g>
</g>
<!-- Node28&#45;&gt;Node3 -->
<g id="edge31_Node000028_Node000003" class="edge">
<title>Node28&#45;&gt;Node3</title>
<g id="a_edge31_Node000028_Node000003"><a xlink:title=" ">
<path fill="none" stroke="#63b8ff" d="M787.43,-63.96C720.97,-46.62 601.34,-27.45 526,-86 479,-122.52 534.05,-174.97 490,-215 481.81,-222.45 471.74,-227.47 461.09,-230.79"/>
<polygon fill="#63b8ff" stroke="#63b8ff" points="459.98,-227.47 451.19,-233.39 461.75,-234.24 459.98,-227.47"/>
</a>
</g>
</g>
</g>
</svg>

<g id="navigator" transform="translate(0 0)" fill="#404254">
  <rect fill="#f2f5e9" fill-opacity="0.5" stroke="#606060" stroke-width=".5" x="0" y="0" width="60" height="60"/>
  <use id="zoomplus" xlink:href="#zoomPlus" x="17" y="9" onmousedown="handleZoom(evt,'in')"/>
  <use id="zoomminus" xlink:href="#zoomMin" x="42" y="9" onmousedown="handleZoom(evt,'out')"/>
  <use id="reset" xlink:href="#resetDef" x="30" y="36" onmousedown="handleReset()"/>
   <use id="arrowup" xlink:href="#arrowUp" x="0" y="0" onmousedown="handlePan(0,-1)"/>
  <use id="arrowright" xlink:href="#arrowRight" x="0" y="0" onmousedown="handlePan(1,0)"/>
  <use id="arrowdown" xlink:href="#arrowDown" x="0" y="0" onmousedown="handlePan(0,1)"/>
  <use id="arrowleft" xlink:href="#arrowLeft" x="0" y="0" onmousedown="handlePan(-1,0)"/>
</g>
<svg viewBox="0 0 15 15" width="100%" height="30px" preserveAspectRatio="xMaxYMin meet">
 <g id="arrow_out" transform="scale(0.3 0.3)">
  <a xlink:href="classTerraria_1_1GameContent_1_1UI_1_1BigProgressBar_1_1EaterOfWorldsProgressBar_a8258537b21b8e8cae20194022073c04a_a8258537b21b8e8cae20194022073c04a_cgraph_org.svg" target="_base">
   <rect id="button" ry="5" rx="5" y="6" x="6" height="38" width="38"
        fill="#f2f5e9" fill-opacity="0.5" stroke="#606060" stroke-width="1.0"/>
   <path id="arrow"
     d="M 11.500037,31.436501 C 11.940474,20.09759 22.043105,11.32322 32.158766,21.979434 L 37.068811,17.246167 C 37.068811,17.246167 37.088388,32 37.088388,32 L 22.160133,31.978069 C 22.160133,31.978069 26.997745,27.140456 26.997745,27.140456 C 18.528582,18.264221 13.291696,25.230495 11.500037,31.436501 z"
     style="fill:#404040;"/>
  </a>
 </g>
</svg>

<style type='text/css'>
<![CDATA[
[data-mouse-over-selected='false'] { opacity: 0.7; }
[data-mouse-over-selected='true']  { opacity: 1.0; }
]]>
</style>
<script type="application/ecmascript"><![CDATA[
document.addEventListener('DOMContentLoaded', (event) => {
  highlightEdges();
  highlightAdjacentNodes();
});
]]></script>
</svg>
