<?xml version="1.0" encoding="UTF-8" standalone="no"?>
<!DOCTYPE svg PUBLIC "-//W3C//DTD SVG 1.1//EN"
 "http://www.w3.org/Graphics/SVG/1.1/DTD/svg11.dtd">
<!-- Generated by graphviz version 2.43.0 (0)
 -->
<!-- Title: Terraria.GameContent.UI.States.UIWorldSelect.CanWorldBePlayed Pages: 1 -->
<svg width="548pt" height="49pt"
 viewBox="0.00 0.00 548.00 49.00" xmlns="http://www.w3.org/2000/svg" xmlns:xlink="http://www.w3.org/1999/xlink">
<g id="graph0" class="graph" transform="scale(1 1) rotate(0) translate(4 45)">
<title>Terraria.GameContent.UI.States.UIWorldSelect.CanWorldBePlayed</title>
<!-- Node1 -->
<g id="Node000001" class="node">
<title>Node1</title>
<g id="a_Node000001"><a xlink:title=" ">
<polygon fill="#999999" stroke="#666666" points="168,-41 0,-41 0,0 168,0 168,-41"/>
<text text-anchor="start" x="8" y="-29" font-family="Helvetica,sans-Serif" font-size="10.00">Terraria.GameContent.UI.</text>
<text text-anchor="start" x="8" y="-18" font-family="Helvetica,sans-Serif" font-size="10.00">States.UIWorldSelect.CanWorld</text>
<text text-anchor="middle" x="84" y="-7" font-family="Helvetica,sans-Serif" font-size="10.00">BePlayed</text>
</a>
</g>
</g>
<!-- Node2 -->
<g id="Node000002" class="node">
<title>Node2</title>
<g id="a_Node000002"><a xlink:href="../../d1/da9/classTerraria_1_1ModLoader_1_1SystemLoader_a3638d61824acdd44dc0708a283c619ae.html#a3638d61824acdd44dc0708a283c619ae" target="_top" xlink:title=" ">
<polygon fill="white" stroke="#666666" points="353,-35.5 204,-35.5 204,-5.5 353,-5.5 353,-35.5"/>
<text text-anchor="start" x="212" y="-23.5" font-family="Helvetica,sans-Serif" font-size="10.00">Terraria.ModLoader.System</text>
<text text-anchor="middle" x="278.5" y="-12.5" font-family="Helvetica,sans-Serif" font-size="10.00">Loader.CanWorldBePlayed</text>
</a>
</g>
</g>
<!-- Node1&#45;&gt;Node2 -->
<g id="edge1_Node000001_Node000002" class="edge">
<title>Node1&#45;&gt;Node2</title>
<g id="a_edge1_Node000001_Node000002"><a xlink:title=" ">
<path fill="none" stroke="#63b8ff" d="M168.03,-20.5C176.5,-20.5 185.1,-20.5 193.57,-20.5"/>
<polygon fill="#63b8ff" stroke="#63b8ff" points="193.83,-24 203.83,-20.5 193.83,-17 193.83,-24"/>
</a>
</g>
</g>
<!-- Node3 -->
<g id="Node000003" class="node">
<title>Node3</title>
<g id="a_Node000003"><a xlink:href="../../d8/de4/classTerraria_1_1ModLoader_1_1SystemLoader_1_1HookList_a9d487ce57b372c7e76247ac477317653.html#a9d487ce57b372c7e76247ac477317653" target="_top" xlink:title=" ">
<polygon fill="white" stroke="#666666" points="540,-35.5 389,-35.5 389,-5.5 540,-5.5 540,-35.5"/>
<text text-anchor="start" x="397" y="-23.5" font-family="Helvetica,sans-Serif" font-size="10.00">Terraria.ModLoader.System</text>
<text text-anchor="middle" x="464.5" y="-12.5" font-family="Helvetica,sans-Serif" font-size="10.00">Loader.HookList.Enumerate</text>
</a>
</g>
</g>
<!-- Node2&#45;&gt;Node3 -->
<g id="edge2_Node000002_Node000003" class="edge">
<title>Node2&#45;&gt;Node3</title>
<g id="a_edge2_Node000002_Node000003"><a xlink:title=" ">
<path fill="none" stroke="#63b8ff" d="M353.01,-20.5C361.5,-20.5 370.21,-20.5 378.84,-20.5"/>
<polygon fill="#63b8ff" stroke="#63b8ff" points="378.9,-24 388.9,-20.5 378.9,-17 378.9,-24"/>
</a>
</g>
</g>
</g>
</svg>
