<?xml version="1.0" encoding="UTF-8" standalone="no"?>
<!DOCTYPE svg PUBLIC "-//W3C//DTD SVG 1.1//EN"
 "http://www.w3.org/Graphics/SVG/1.1/DTD/svg11.dtd">
<!-- Generated by graphviz version 2.43.0 (0)
 -->
<!-- Title: Terraria.GameContent.UI.States.UIWorldSelect.UpdateFavoritesCache Pages: 1 -->
<svg width="1992pt" height="450pt"
 viewBox="0.00 0.00 1992.00 450.00" xmlns="http://www.w3.org/2000/svg" xmlns:xlink="http://www.w3.org/1999/xlink">
<g id="graph0" class="graph" transform="scale(1 1) rotate(0) translate(4 446)">
<title>Terraria.GameContent.UI.States.UIWorldSelect.UpdateFavoritesCache</title>
<!-- Node1 -->
<g id="Node000001" class="node">
<title>Node1</title>
<g id="a_Node000001"><a xlink:title=" ">
<polygon fill="#999999" stroke="#666666" points="231,-257 0,-257 0,-227 231,-227 231,-257"/>
<text text-anchor="start" x="8" y="-245" font-family="Helvetica,sans-Serif" font-size="10.00">Terraria.GameContent.UI.</text>
<text text-anchor="middle" x="115.5" y="-234" font-family="Helvetica,sans-Serif" font-size="10.00">States.UIWorldSelect.UpdateFavoritesCache</text>
</a>
</g>
</g>
<!-- Node2 -->
<g id="Node000002" class="node">
<title>Node2</title>
<g id="a_Node000002"><a xlink:href="../../d6/d99/classTerraria_1_1IO_1_1FileData_a2ca554d62b44f93e10dcf8a1236ed713.html#a2ca554d62b44f93e10dcf8a1236ed713" target="_top" xlink:title=" ">
<polygon fill="white" stroke="#666666" points="671,-304 540,-304 540,-274 671,-274 671,-304"/>
<text text-anchor="start" x="548" y="-292" font-family="Helvetica,sans-Serif" font-size="10.00">Terraria.IO.FileData.Get</text>
<text text-anchor="middle" x="605.5" y="-281" font-family="Helvetica,sans-Serif" font-size="10.00">FileName</text>
</a>
</g>
</g>
<!-- Node1&#45;&gt;Node2 -->
<g id="edge1_Node000001_Node000002" class="edge">
<title>Node1&#45;&gt;Node2</title>
<g id="a_edge1_Node000001_Node000002"><a xlink:title=" ">
<path fill="none" stroke="#63b8ff" d="M231.22,-253.05C323.31,-261.92 449.93,-274.11 529.47,-281.77"/>
<polygon fill="#63b8ff" stroke="#63b8ff" points="529.61,-285.3 539.9,-282.78 530.28,-278.34 529.61,-285.3"/>
</a>
</g>
</g>
<!-- Node4 -->
<g id="Node000004" class="node">
<title>Node4</title>
<g id="a_Node000004"><a xlink:href="../../d0/d26/classTerraria_1_1GameContent_1_1UI_1_1States_1_1UIWorldSelect_a3a7a66ee8794ffbc9b92e69e704a6be8.html#a3a7a66ee8794ffbc9b92e69e704a6be8" target="_top" xlink:title=" ">
<polygon fill="white" stroke="#666666" points="474,-236 267,-236 267,-206 474,-206 474,-236"/>
<text text-anchor="start" x="275" y="-224" font-family="Helvetica,sans-Serif" font-size="10.00">Terraria.GameContent.UI.</text>
<text text-anchor="middle" x="370.5" y="-213" font-family="Helvetica,sans-Serif" font-size="10.00">States.UIWorldSelect.UpdateWorldsList</text>
</a>
</g>
</g>
<!-- Node1&#45;&gt;Node4 -->
<g id="edge3_Node000001_Node000004" class="edge">
<title>Node1&#45;&gt;Node4</title>
<g id="a_edge3_Node000001_Node000004"><a xlink:title=" ">
<path fill="none" stroke="#63b8ff" d="M231.16,-232.48C239.71,-231.77 248.33,-231.06 256.87,-230.35"/>
<polygon fill="#63b8ff" stroke="#63b8ff" points="257.17,-233.84 266.85,-229.52 256.59,-226.86 257.17,-233.84"/>
</a>
</g>
</g>
<!-- Node3 -->
<g id="Node000003" class="node">
<title>Node3</title>
<g id="a_Node000003"><a xlink:href="../../d7/de3/classTerraria_1_1Utilities_1_1FileUtilities_a4c0f86660bbeb26a11824c3763c96ab4.html#a4c0f86660bbeb26a11824c3763c96ab4" target="_top" xlink:title=" ">
<polygon fill="white" stroke="#666666" points="899,-368 743,-368 743,-338 899,-338 899,-368"/>
<text text-anchor="start" x="751" y="-356" font-family="Helvetica,sans-Serif" font-size="10.00">Terraria.Utilities.FileUtilities.</text>
<text text-anchor="middle" x="821" y="-345" font-family="Helvetica,sans-Serif" font-size="10.00">GetFileName</text>
</a>
</g>
</g>
<!-- Node2&#45;&gt;Node3 -->
<g id="edge2_Node000002_Node000003" class="edge">
<title>Node2&#45;&gt;Node3</title>
<g id="a_edge2_Node000002_Node000003"><a xlink:title=" ">
<path fill="none" stroke="#63b8ff" d="M654.78,-304C679.37,-311.59 709.75,-320.88 737,-329 743.57,-330.96 750.44,-332.98 757.29,-334.98"/>
<polygon fill="#63b8ff" stroke="#63b8ff" points="756.69,-338.45 767.27,-337.89 758.65,-331.73 756.69,-338.45"/>
</a>
</g>
</g>
<!-- Node4&#45;&gt;Node2 -->
<g id="edge37_Node000004_Node000002" class="edge">
<title>Node4&#45;&gt;Node2</title>
<g id="a_edge37_Node000004_Node000002"><a xlink:title=" ">
<path fill="none" stroke="#63b8ff" d="M422.92,-236.01C458.35,-246.35 505.61,-260.14 543.03,-271.06"/>
<polygon fill="#63b8ff" stroke="#63b8ff" points="542.23,-274.47 552.81,-273.91 544.19,-267.75 542.23,-274.47"/>
</a>
</g>
</g>
<!-- Node5 -->
<g id="Node000005" class="node">
<title>Node5</title>
<g id="a_Node000005"><a xlink:href="../../d5/dda/classTerraria_1_1GameContent_1_1UI_1_1Elements_1_1UIList_a6dbd0d453e8cd36d39c9e27def007389.html#a6dbd0d453e8cd36d39c9e27def007389" target="_top" xlink:title=" ">
<polygon fill="white" stroke="#666666" points="891,-320 751,-320 751,-290 891,-290 891,-320"/>
<text text-anchor="start" x="759" y="-308" font-family="Helvetica,sans-Serif" font-size="10.00">Terraria.GameContent.UI.</text>
<text text-anchor="middle" x="821" y="-297" font-family="Helvetica,sans-Serif" font-size="10.00">Elements.UIList.Add</text>
</a>
</g>
</g>
<!-- Node4&#45;&gt;Node5 -->
<g id="edge4_Node000004_Node000005" class="edge">
<title>Node4&#45;&gt;Node5</title>
<g id="a_edge4_Node000004_Node000005"><a xlink:title=" ">
<path fill="none" stroke="#63b8ff" d="M474.34,-227.15C540.11,-232.94 626.72,-244 701,-265 717.85,-269.76 720.55,-275 737,-281 742.51,-283.01 748.27,-284.96 754.07,-286.83"/>
<polygon fill="#63b8ff" stroke="#63b8ff" points="753.27,-290.25 763.85,-289.9 755.36,-283.57 753.27,-290.25"/>
</a>
</g>
</g>
<!-- Node17 -->
<g id="Node000017" class="node">
<title>Node17</title>
<g id="a_Node000017"><a xlink:href="../../d0/d26/classTerraria_1_1GameContent_1_1UI_1_1States_1_1UIWorldSelect_a86cdbf096b4608d14abbac8955cedb02.html#a86cdbf096b4608d14abbac8955cedb02" target="_top" xlink:title=" ">
<polygon fill="white" stroke="#666666" points="701,-217.5 510,-217.5 510,-176.5 701,-176.5 701,-217.5"/>
<text text-anchor="start" x="518" y="-205.5" font-family="Helvetica,sans-Serif" font-size="10.00">Terraria.GameContent.UI.</text>
<text text-anchor="start" x="518" y="-194.5" font-family="Helvetica,sans-Serif" font-size="10.00">States.UIWorldSelect.AddAutomatic</text>
<text text-anchor="middle" x="605.5" y="-183.5" font-family="Helvetica,sans-Serif" font-size="10.00">WorldMigrationButtons</text>
</a>
</g>
</g>
<!-- Node4&#45;&gt;Node17 -->
<g id="edge17_Node000004_Node000017" class="edge">
<title>Node4&#45;&gt;Node17</title>
<g id="a_edge17_Node000004_Node000017"><a xlink:title=" ">
<path fill="none" stroke="#63b8ff" d="M474.04,-210.44C482.55,-209.56 491.16,-208.67 499.69,-207.8"/>
<polygon fill="#63b8ff" stroke="#63b8ff" points="500.06,-211.28 509.65,-206.77 499.35,-204.31 500.06,-211.28"/>
</a>
</g>
</g>
<!-- Node30 -->
<g id="Node000030" class="node">
<title>Node30</title>
<g id="a_Node000030"><a xlink:href="../../d0/d26/classTerraria_1_1GameContent_1_1UI_1_1States_1_1UIWorldSelect_a08f18f8c1e3c2d6c1e1409b12d98496f.html#a08f18f8c1e3c2d6c1e1409b12d98496f" target="_top" xlink:title=" ">
<polygon fill="white" stroke="#666666" points="689.5,-143.5 521.5,-143.5 521.5,-102.5 689.5,-102.5 689.5,-143.5"/>
<text text-anchor="start" x="529.5" y="-131.5" font-family="Helvetica,sans-Serif" font-size="10.00">Terraria.GameContent.UI.</text>
<text text-anchor="start" x="529.5" y="-120.5" font-family="Helvetica,sans-Serif" font-size="10.00">States.UIWorldSelect.CanWorld</text>
<text text-anchor="middle" x="605.5" y="-109.5" font-family="Helvetica,sans-Serif" font-size="10.00">BePlayed</text>
</a>
</g>
</g>
<!-- Node4&#45;&gt;Node30 -->
<g id="edge32_Node000004_Node000030" class="edge">
<title>Node4&#45;&gt;Node30</title>
<g id="a_edge32_Node000004_Node000030"><a xlink:title=" ">
<path fill="none" stroke="#63b8ff" d="M407.4,-205.9C444.38,-190.35 502.63,-165.85 546.23,-147.51"/>
<polygon fill="#63b8ff" stroke="#63b8ff" points="547.71,-150.68 555.57,-143.58 545,-144.23 547.71,-150.68"/>
</a>
</g>
</g>
<!-- Node33 -->
<g id="Node000033" class="node">
<title>Node33</title>
<g id="a_Node000033"><a xlink:href="../../d5/dda/classTerraria_1_1GameContent_1_1UI_1_1Elements_1_1UIList_a376935bd3ae1fe4fddc4feb793ef9221.html#a376935bd3ae1fe4fddc4feb793ef9221" target="_top" xlink:title=" ">
<polygon fill="white" stroke="#666666" points="675.5,-55 535.5,-55 535.5,-25 675.5,-25 675.5,-55"/>
<text text-anchor="start" x="543.5" y="-43" font-family="Helvetica,sans-Serif" font-size="10.00">Terraria.GameContent.UI.</text>
<text text-anchor="middle" x="605.5" y="-32" font-family="Helvetica,sans-Serif" font-size="10.00">Elements.UIList.Clear</text>
</a>
</g>
</g>
<!-- Node4&#45;&gt;Node33 -->
<g id="edge35_Node000004_Node000033" class="edge">
<title>Node4&#45;&gt;Node33</title>
<g id="a_edge35_Node000004_Node000033"><a xlink:title=" ">
<path fill="none" stroke="#63b8ff" d="M385.91,-205.73C410.09,-180.61 460.99,-129.78 510,-94 527.28,-81.38 547.77,-69.36 565.24,-59.87"/>
<polygon fill="#63b8ff" stroke="#63b8ff" points="566.9,-62.96 574.07,-55.16 563.6,-56.78 566.9,-62.96"/>
</a>
</g>
</g>
<!-- Node6 -->
<g id="Node000006" class="node">
<title>Node6</title>
<g id="a_Node000006"><a xlink:href="../../d7/d72/classTerraria_1_1UI_1_1UIElement_a4f78a3ab59b3dffcdc5b68328a46f103.html#a4f78a3ab59b3dffcdc5b68328a46f103" target="_top" xlink:title=" ">
<polygon fill="white" stroke="#666666" points="1112,-367.5 951,-367.5 951,-348.5 1112,-348.5 1112,-367.5"/>
<text text-anchor="middle" x="1031.5" y="-355.5" font-family="Helvetica,sans-Serif" font-size="10.00">Terraria.UI.UIElement.Append</text>
</a>
</g>
</g>
<!-- Node5&#45;&gt;Node6 -->
<g id="edge5_Node000005_Node000006" class="edge">
<title>Node5&#45;&gt;Node6</title>
<g id="a_edge5_Node000005_Node000006"><a xlink:title=" ">
<path fill="none" stroke="#63b8ff" d="M874.72,-320.12C884.78,-323.04 895.22,-326.09 905,-329 921.04,-333.77 924.78,-335.9 941,-340 949.91,-342.25 959.39,-344.41 968.7,-346.4"/>
<polygon fill="#63b8ff" stroke="#63b8ff" points="968.21,-349.87 978.72,-348.48 969.64,-343.02 968.21,-349.87"/>
</a>
</g>
</g>
<!-- Node7 -->
<g id="Node000007" class="node">
<title>Node7</title>
<g id="a_Node000007"><a xlink:href="../../d7/d72/classTerraria_1_1UI_1_1UIElement_aa33dca6c66f9820ef270bc2e23ef1496.html#aa33dca6c66f9820ef270bc2e23ef1496" target="_top" xlink:title=" ">
<polygon fill="white" stroke="#666666" points="1122,-330.5 941,-330.5 941,-311.5 1122,-311.5 1122,-330.5"/>
<text text-anchor="middle" x="1031.5" y="-318.5" font-family="Helvetica,sans-Serif" font-size="10.00">Terraria.UI.UIElement.Recalculate</text>
</a>
</g>
</g>
<!-- Node5&#45;&gt;Node7 -->
<g id="edge6_Node000005_Node000007" class="edge">
<title>Node5&#45;&gt;Node7</title>
<g id="a_edge6_Node000005_Node000007"><a xlink:title=" ">
<path fill="none" stroke="#63b8ff" d="M891.14,-310.31C903.8,-311.28 917.24,-312.31 930.58,-313.33"/>
<polygon fill="#63b8ff" stroke="#63b8ff" points="930.51,-316.84 940.75,-314.11 931.05,-309.86 930.51,-316.84"/>
</a>
</g>
</g>
<!-- Node13 -->
<g id="Node000013" class="node">
<title>Node13</title>
<g id="a_Node000013"><a xlink:href="../../d5/dda/classTerraria_1_1GameContent_1_1UI_1_1Elements_1_1UIList_a18ed60e2018174ed4dbc48331b1b2e33.html#a18ed60e2018174ed4dbc48331b1b2e33" target="_top" xlink:title=" ">
<polygon fill="white" stroke="#666666" points="1110.5,-260 952.5,-260 952.5,-230 1110.5,-230 1110.5,-260"/>
<text text-anchor="start" x="960.5" y="-248" font-family="Helvetica,sans-Serif" font-size="10.00">Terraria.GameContent.UI.</text>
<text text-anchor="middle" x="1031.5" y="-237" font-family="Helvetica,sans-Serif" font-size="10.00">Elements.UIList.UpdateOrder</text>
</a>
</g>
</g>
<!-- Node5&#45;&gt;Node13 -->
<g id="edge12_Node000005_Node000013" class="edge">
<title>Node5&#45;&gt;Node13</title>
<g id="a_edge12_Node000005_Node000013"><a xlink:title=" ">
<path fill="none" stroke="#63b8ff" d="M874.34,-289.94C902.85,-281.73 938.3,-271.53 968.22,-262.92"/>
<polygon fill="#63b8ff" stroke="#63b8ff" points="969.49,-266.2 978.13,-260.07 967.56,-259.47 969.49,-266.2"/>
</a>
</g>
</g>
<!-- Node8 -->
<g id="Node000008" class="node">
<title>Node8</title>
<g id="a_Node000008"><a xlink:href="../../dc/dc4/classTerraria_1_1UI_1_1UserInterface_af1df38079c1c3550e041458b43a9aceb.html#af1df38079c1c3550e041458b43a9aceb" target="_top" xlink:title=" ">
<polygon fill="white" stroke="#666666" points="1330.5,-442 1191.5,-442 1191.5,-412 1330.5,-412 1330.5,-442"/>
<text text-anchor="start" x="1199.5" y="-430" font-family="Helvetica,sans-Serif" font-size="10.00">Terraria.UI.UserInterface.</text>
<text text-anchor="middle" x="1261" y="-419" font-family="Helvetica,sans-Serif" font-size="10.00">GetDimensions</text>
</a>
</g>
</g>
<!-- Node7&#45;&gt;Node8 -->
<g id="edge7_Node000007_Node000008" class="edge">
<title>Node7&#45;&gt;Node8</title>
<g id="a_edge7_Node000007_Node000008"><a xlink:title=" ">
<path fill="none" stroke="#63b8ff" d="M1104.72,-330.57C1110.87,-333.06 1116.74,-336.16 1122,-340 1148.05,-359.01 1132.16,-383.71 1158,-403 1165.1,-408.3 1173.18,-412.45 1181.62,-415.7"/>
<polygon fill="#63b8ff" stroke="#63b8ff" points="1180.68,-419.07 1191.27,-419 1182.94,-412.45 1180.68,-419.07"/>
</a>
</g>
</g>
<!-- Node9 -->
<g id="Node000009" class="node">
<title>Node9</title>
<g id="a_Node000009"><a xlink:href="../../d7/d72/classTerraria_1_1UI_1_1UIElement_a8cb8692a001e504adb564ae67833de3d.html#a8cb8692a001e504adb564ae67833de3d" target="_top" xlink:title=" ">
<polygon fill="white" stroke="#666666" points="1364,-394 1158,-394 1158,-364 1364,-364 1364,-394"/>
<text text-anchor="start" x="1166" y="-382" font-family="Helvetica,sans-Serif" font-size="10.00">Terraria.UI.UIElement.Get</text>
<text text-anchor="middle" x="1261" y="-371" font-family="Helvetica,sans-Serif" font-size="10.00">DimensionsBasedOnParentDimensions</text>
</a>
</g>
</g>
<!-- Node7&#45;&gt;Node9 -->
<g id="edge8_Node000007_Node000009" class="edge">
<title>Node7&#45;&gt;Node9</title>
<g id="a_edge8_Node000007_Node000009"><a xlink:title=" ">
<path fill="none" stroke="#63b8ff" d="M1080.48,-330.57C1093.95,-333.43 1108.58,-336.68 1122,-340 1126,-340.99 1162.85,-351.41 1197.46,-361.23"/>
<polygon fill="#63b8ff" stroke="#63b8ff" points="1196.56,-364.61 1207.14,-363.97 1198.47,-357.88 1196.56,-364.61"/>
</a>
</g>
</g>
<!-- Node11 -->
<g id="Node000011" class="node">
<title>Node11</title>
<g id="a_Node000011"><a xlink:href="../../d7/d72/classTerraria_1_1UI_1_1UIElement_a5ad03f5ce0e776511a3b7e4a29e16caf.html#a5ad03f5ce0e776511a3b7e4a29e16caf" target="_top" xlink:title=" ">
<polygon fill="white" stroke="#666666" points="1560,-303 1419,-303 1419,-273 1560,-273 1560,-303"/>
<text text-anchor="start" x="1427" y="-291" font-family="Helvetica,sans-Serif" font-size="10.00">Terraria.UI.UIElement.Get</text>
<text text-anchor="middle" x="1489.5" y="-280" font-family="Helvetica,sans-Serif" font-size="10.00">InnerDimensions</text>
</a>
</g>
</g>
<!-- Node7&#45;&gt;Node11 -->
<g id="edge10_Node000007_Node000011" class="edge">
<title>Node7&#45;&gt;Node11</title>
<g id="a_edge10_Node000007_Node000011"><a xlink:title=" ">
<path fill="none" stroke="#63b8ff" d="M1122.19,-325.15C1189.09,-326.98 1282.58,-326.86 1364,-317 1384.26,-314.55 1406.03,-310.11 1425.61,-305.44"/>
<polygon fill="#63b8ff" stroke="#63b8ff" points="1426.45,-308.84 1435.33,-303.06 1424.79,-302.04 1426.45,-308.84"/>
</a>
</g>
</g>
<!-- Node12 -->
<g id="Node000012" class="node">
<title>Node12</title>
<g id="a_Node000012"><a xlink:href="../../d7/d72/classTerraria_1_1UI_1_1UIElement_a8bf52a8c33b045d1df8dbcc96bcbc818.html#a8bf52a8c33b045d1df8dbcc96bcbc818" target="_top" xlink:title=" ">
<polygon fill="white" stroke="#666666" points="1351.5,-308 1170.5,-308 1170.5,-278 1351.5,-278 1351.5,-308"/>
<text text-anchor="start" x="1178.5" y="-296" font-family="Helvetica,sans-Serif" font-size="10.00">Terraria.UI.UIElement.Recalculate</text>
<text text-anchor="middle" x="1261" y="-285" font-family="Helvetica,sans-Serif" font-size="10.00">Children</text>
</a>
</g>
</g>
<!-- Node7&#45;&gt;Node12 -->
<g id="edge11_Node000007_Node000012" class="edge">
<title>Node7&#45;&gt;Node12</title>
<g id="a_edge11_Node000007_Node000012"><a xlink:title=" ">
<path fill="none" stroke="#63b8ff" d="M1109.84,-311.48C1125.95,-309.5 1143.14,-307.38 1159.94,-305.32"/>
<polygon fill="#63b8ff" stroke="#63b8ff" points="1160.83,-308.73 1170.33,-304.04 1159.97,-301.78 1160.83,-308.73"/>
</a>
</g>
</g>
<!-- Node10 -->
<g id="Node000010" class="node">
<title>Node10</title>
<g id="a_Node000010"><a xlink:href="../../d8/d74/structTerraria_1_1UI_1_1StyleDimension_acffa4ba4c6fbf99b983c8c59f17cc855.html#acffa4ba4c6fbf99b983c8c59f17cc855" target="_top" xlink:title=" ">
<polygon fill="white" stroke="#666666" points="1564.5,-394 1414.5,-394 1414.5,-364 1564.5,-364 1564.5,-394"/>
<text text-anchor="start" x="1422.5" y="-382" font-family="Helvetica,sans-Serif" font-size="10.00">Terraria.UI.StyleDimension.</text>
<text text-anchor="middle" x="1489.5" y="-371" font-family="Helvetica,sans-Serif" font-size="10.00">GetValue</text>
</a>
</g>
</g>
<!-- Node9&#45;&gt;Node10 -->
<g id="edge9_Node000009_Node000010" class="edge">
<title>Node9&#45;&gt;Node10</title>
<g id="a_edge9_Node000009_Node000010"><a xlink:title=" ">
<path fill="none" stroke="#63b8ff" d="M1364.32,-379C1377.64,-379 1391.16,-379 1404.14,-379"/>
<polygon fill="#63b8ff" stroke="#63b8ff" points="1404.42,-382.5 1414.42,-379 1404.42,-375.5 1404.42,-382.5"/>
</a>
</g>
</g>
<!-- Node14 -->
<g id="Node000014" class="node">
<title>Node14</title>
<g id="a_Node000014"><a xlink:href="../../d5/dda/classTerraria_1_1GameContent_1_1UI_1_1Elements_1_1UIList_ab7c6d0b1a81e3f3f1f22c6685146a9dc.html#ab7c6d0b1a81e3f3f1f22c6685146a9dc" target="_top" xlink:title=" ">
<polygon fill="white" stroke="#666666" points="1337,-260 1185,-260 1185,-230 1337,-230 1337,-260"/>
<text text-anchor="start" x="1193" y="-248" font-family="Helvetica,sans-Serif" font-size="10.00">Terraria.GameContent.UI.</text>
<text text-anchor="middle" x="1261" y="-237" font-family="Helvetica,sans-Serif" font-size="10.00">Elements.UIList.SortMethod</text>
</a>
</g>
</g>
<!-- Node13&#45;&gt;Node14 -->
<g id="edge13_Node000013_Node000014" class="edge">
<title>Node13&#45;&gt;Node14</title>
<g id="a_edge13_Node000013_Node000014"><a xlink:title=" ">
<path fill="none" stroke="#63b8ff" d="M1110.79,-245C1131.34,-245 1153.6,-245 1174.5,-245"/>
<polygon fill="#63b8ff" stroke="#63b8ff" points="1174.64,-248.5 1184.64,-245 1174.64,-241.5 1174.64,-248.5"/>
</a>
</g>
</g>
<!-- Node15 -->
<g id="Node000015" class="node">
<title>Node15</title>
<g id="a_Node000015"><a xlink:href="../../d5/dda/classTerraria_1_1GameContent_1_1UI_1_1Elements_1_1UIList_a60a4c2955855c090a210914877fd7705.html#a60a4c2955855c090a210914877fd7705" target="_top" xlink:title=" ">
<polygon fill="white" stroke="#666666" points="1348,-212 1174,-212 1174,-182 1348,-182 1348,-212"/>
<text text-anchor="start" x="1182" y="-200" font-family="Helvetica,sans-Serif" font-size="10.00">Terraria.GameContent.UI.</text>
<text text-anchor="middle" x="1261" y="-189" font-family="Helvetica,sans-Serif" font-size="10.00">Elements.UIList.UpdateScrollbar</text>
</a>
</g>
</g>
<!-- Node13&#45;&gt;Node15 -->
<g id="edge14_Node000013_Node000015" class="edge">
<title>Node13&#45;&gt;Node15</title>
<g id="a_edge14_Node000013_Node000015"><a xlink:title=" ">
<path fill="none" stroke="#63b8ff" d="M1103.86,-229.94C1127.68,-224.92 1154.4,-219.28 1178.9,-214.11"/>
<polygon fill="#63b8ff" stroke="#63b8ff" points="1179.83,-217.49 1188.89,-212 1178.39,-210.64 1179.83,-217.49"/>
</a>
</g>
</g>
<!-- Node15&#45;&gt;Node11 -->
<g id="edge15_Node000015_Node000011" class="edge">
<title>Node15&#45;&gt;Node11</title>
<g id="a_edge15_Node000015_Node000011"><a xlink:title=" ">
<path fill="none" stroke="#63b8ff" d="M1336.23,-212.04C1345.69,-214.66 1355.15,-217.65 1364,-221 1396.77,-233.42 1431.71,-252.83 1456.2,-267.56"/>
<polygon fill="#63b8ff" stroke="#63b8ff" points="1454.7,-270.74 1465.06,-272.96 1458.34,-264.76 1454.7,-270.74"/>
</a>
</g>
</g>
<!-- Node16 -->
<g id="Node000016" class="node">
<title>Node16</title>
<g id="a_Node000016"><a xlink:href="../../d6/dea/classTerraria_1_1GameContent_1_1UI_1_1Elements_1_1UIScrollbar_ab94392501a400e8db7dbba6c8294ebff.html#ab94392501a400e8db7dbba6c8294ebff" target="_top" xlink:title=" ">
<polygon fill="white" stroke="#666666" points="1570,-212 1409,-212 1409,-182 1570,-182 1570,-212"/>
<text text-anchor="start" x="1417" y="-200" font-family="Helvetica,sans-Serif" font-size="10.00">Terraria.GameContent.UI.</text>
<text text-anchor="middle" x="1489.5" y="-189" font-family="Helvetica,sans-Serif" font-size="10.00">Elements.UIScrollbar.SetView</text>
</a>
</g>
</g>
<!-- Node15&#45;&gt;Node16 -->
<g id="edge16_Node000015_Node000016" class="edge">
<title>Node15&#45;&gt;Node16</title>
<g id="a_edge16_Node000015_Node000016"><a xlink:title=" ">
<path fill="none" stroke="#63b8ff" d="M1348.28,-197C1364.74,-197 1382.01,-197 1398.58,-197"/>
<polygon fill="#63b8ff" stroke="#63b8ff" points="1398.79,-200.5 1408.79,-197 1398.79,-193.5 1398.79,-200.5"/>
</a>
</g>
</g>
<!-- Node17&#45;&gt;Node5 -->
<g id="edge18_Node000017_Node000005" class="edge">
<title>Node17&#45;&gt;Node5</title>
<g id="a_edge18_Node000017_Node000005"><a xlink:title=" ">
<path fill="none" stroke="#63b8ff" d="M676.56,-217.59C685.21,-221.65 693.6,-226.42 701,-232 722.58,-248.27 714.84,-265.53 737,-281 739.15,-282.5 741.4,-283.91 743.72,-285.23"/>
<polygon fill="#63b8ff" stroke="#63b8ff" points="742.45,-288.52 752.95,-289.91 745.61,-282.27 742.45,-288.52"/>
</a>
</g>
</g>
<!-- Node18 -->
<g id="Node000018" class="node">
<title>Node18</title>
<g id="a_Node000018"><a xlink:href="../../d0/d26/classTerraria_1_1GameContent_1_1UI_1_1States_1_1UIWorldSelect_a89577e9c8a0ad7ff159214d9937f30e9.html#a89577e9c8a0ad7ff159214d9937f30e9" target="_top" xlink:title=" ">
<polygon fill="white" stroke="#666666" points="901,-271.5 741,-271.5 741,-230.5 901,-230.5 901,-271.5"/>
<text text-anchor="start" x="749" y="-259.5" font-family="Helvetica,sans-Serif" font-size="10.00">Terraria.GameContent.UI.</text>
<text text-anchor="start" x="749" y="-248.5" font-family="Helvetica,sans-Serif" font-size="10.00">States.UIWorldSelect.Execute</text>
<text text-anchor="middle" x="821" y="-237.5" font-family="Helvetica,sans-Serif" font-size="10.00">AutomaticWorldMigration</text>
</a>
</g>
</g>
<!-- Node17&#45;&gt;Node18 -->
<g id="edge19_Node000017_Node000018" class="edge">
<title>Node17&#45;&gt;Node18</title>
<g id="a_edge19_Node000017_Node000018"><a xlink:title=" ">
<path fill="none" stroke="#63b8ff" d="M687.82,-217.57C701.9,-221.13 716.6,-224.85 730.87,-228.46"/>
<polygon fill="#63b8ff" stroke="#63b8ff" points="730.11,-231.88 740.67,-230.93 731.83,-225.09 730.11,-231.88"/>
</a>
</g>
</g>
<!-- Node19 -->
<g id="Node000019" class="node">
<title>Node19</title>
<g id="a_Node000019"><a xlink:href="../../d4/d8f/classTerraria_1_1Localization_1_1Language_aa5ae49ae4976cbf8cf7aa28595d712a6.html#aa5ae49ae4976cbf8cf7aa28595d712a6" target="_top" xlink:title="Retrieves a LocalizedText object for a specified localization key. The actual text value can be retri...">
<polygon fill="white" stroke="#666666" points="905,-212 737,-212 737,-182 905,-182 905,-212"/>
<text text-anchor="start" x="745" y="-200" font-family="Helvetica,sans-Serif" font-size="10.00">Terraria.Localization.Language.</text>
<text text-anchor="middle" x="821" y="-189" font-family="Helvetica,sans-Serif" font-size="10.00">GetText</text>
</a>
</g>
</g>
<!-- Node17&#45;&gt;Node19 -->
<g id="edge20_Node000017_Node000019" class="edge">
<title>Node17&#45;&gt;Node19</title>
<g id="a_edge20_Node000017_Node000019"><a xlink:title=" ">
<path fill="none" stroke="#63b8ff" d="M701.08,-197C709.56,-197 718.15,-197 726.62,-197"/>
<polygon fill="#63b8ff" stroke="#63b8ff" points="726.89,-200.5 736.89,-197 726.89,-193.5 726.89,-200.5"/>
</a>
</g>
</g>
<!-- Node21 -->
<g id="Node000021" class="node">
<title>Node21</title>
<g id="a_Node000021"><a xlink:href="../../d4/d8f/classTerraria_1_1Localization_1_1Language_ae4636a4800b9ecbaa498954520462f78.html#ae4636a4800b9ecbaa498954520462f78" target="_top" xlink:title="Retrieves the text value for a specified localization key. The text returned will be for the currentl...">
<polygon fill="white" stroke="#666666" points="1783,-99 1615,-99 1615,-69 1783,-69 1783,-99"/>
<text text-anchor="start" x="1623" y="-87" font-family="Helvetica,sans-Serif" font-size="10.00">Terraria.Localization.Language.</text>
<text text-anchor="middle" x="1699" y="-76" font-family="Helvetica,sans-Serif" font-size="10.00">GetTextValue</text>
</a>
</g>
</g>
<!-- Node17&#45;&gt;Node21 -->
<g id="edge22_Node000017_Node000021" class="edge">
<title>Node17&#45;&gt;Node21</title>
<g id="a_edge22_Node000017_Node000021"><a xlink:title=" ">
<path fill="none" stroke="#63b8ff" d="M701.1,-178.26C713.15,-176.27 725.34,-174.44 737,-173 866.73,-156.93 899.78,-154 1030.5,-154 1030.5,-154 1030.5,-154 1262,-154 1403.14,-154 1441.65,-167.5 1579,-135 1607.64,-128.22 1638.12,-115.03 1661.06,-103.76"/>
<polygon fill="#63b8ff" stroke="#63b8ff" points="1662.72,-106.85 1670.09,-99.24 1659.58,-100.59 1662.72,-106.85"/>
</a>
</g>
</g>
<!-- Node23 -->
<g id="Node000023" class="node">
<title>Node23</title>
<g id="a_Node000023"><a xlink:href="../../d1/d9c/classTerraria_1_1Utils_ac9f9a65cf0ce1831850bb5b40988b529.html#ac9f9a65cf0ce1831850bb5b40988b529" target="_top" xlink:title=" ">
<polygon fill="white" stroke="#666666" points="889.5,-125.5 752.5,-125.5 752.5,-106.5 889.5,-106.5 889.5,-125.5"/>
<text text-anchor="middle" x="821" y="-113.5" font-family="Helvetica,sans-Serif" font-size="10.00">Terraria.Utils.OpenFolder</text>
</a>
</g>
</g>
<!-- Node17&#45;&gt;Node23 -->
<g id="edge24_Node000017_Node000023" class="edge">
<title>Node17&#45;&gt;Node23</title>
<g id="a_edge24_Node000017_Node000023"><a xlink:title=" ">
<path fill="none" stroke="#63b8ff" d="M649.72,-176.43C674.87,-164.89 707.35,-150.71 737,-140 748.57,-135.82 761.25,-131.85 773.14,-128.39"/>
<polygon fill="#63b8ff" stroke="#63b8ff" points="774.24,-131.72 782.9,-125.61 772.32,-124.99 774.24,-131.72"/>
</a>
</g>
</g>
<!-- Node20 -->
<g id="Node000020" class="node">
<title>Node20</title>
<g id="a_Node000020"><a xlink:href="../../d8/d74/classTerraria_1_1Localization_1_1LanguageManager_ad292c2b15ad9179331427a23cc8c4e8c.html#ad292c2b15ad9179331427a23cc8c4e8c" target="_top" xlink:title=" ">
<polygon fill="white" stroke="#666666" points="1114,-212 949,-212 949,-182 1114,-182 1114,-212"/>
<text text-anchor="start" x="957" y="-200" font-family="Helvetica,sans-Serif" font-size="10.00">Terraria.Localization.Language</text>
<text text-anchor="middle" x="1031.5" y="-189" font-family="Helvetica,sans-Serif" font-size="10.00">Manager.GetText</text>
</a>
</g>
</g>
<!-- Node19&#45;&gt;Node20 -->
<g id="edge21_Node000019_Node000020" class="edge">
<title>Node19&#45;&gt;Node20</title>
<g id="a_edge21_Node000019_Node000020"><a xlink:title=" ">
<path fill="none" stroke="#63b8ff" d="M905,-197C916.05,-197 927.42,-197 938.6,-197"/>
<polygon fill="#63b8ff" stroke="#63b8ff" points="938.8,-200.5 948.8,-197 938.8,-193.5 938.8,-200.5"/>
</a>
</g>
</g>
<!-- Node22 -->
<g id="Node000022" class="node">
<title>Node22</title>
<g id="a_Node000022"><a xlink:href="../../d8/d74/classTerraria_1_1Localization_1_1LanguageManager_a9f1901e50105d9873d2fdf8816e122de.html#a9f1901e50105d9873d2fdf8816e122de" target="_top" xlink:title=" ">
<polygon fill="white" stroke="#666666" points="1984,-99 1819,-99 1819,-69 1984,-69 1984,-99"/>
<text text-anchor="start" x="1827" y="-87" font-family="Helvetica,sans-Serif" font-size="10.00">Terraria.Localization.Language</text>
<text text-anchor="middle" x="1901.5" y="-76" font-family="Helvetica,sans-Serif" font-size="10.00">Manager.GetTextValue</text>
</a>
</g>
</g>
<!-- Node21&#45;&gt;Node22 -->
<g id="edge23_Node000021_Node000022" class="edge">
<title>Node21&#45;&gt;Node22</title>
<g id="a_edge23_Node000021_Node000022"><a xlink:title=" ">
<path fill="none" stroke="#63b8ff" d="M1783.29,-84C1791.63,-84 1800.12,-84 1808.54,-84"/>
<polygon fill="#63b8ff" stroke="#63b8ff" points="1808.76,-87.5 1818.76,-84 1808.76,-80.5 1808.76,-87.5"/>
</a>
</g>
</g>
<!-- Node24 -->
<g id="Node000024" class="node">
<title>Node24</title>
<g id="a_Node000024"><a xlink:href="../../d1/d9c/classTerraria_1_1Utils_a64139c95e272d4ba6461d24aa2b6b370.html#a64139c95e272d4ba6461d24aa2b6b370" target="_top" xlink:title=" ">
<polygon fill="white" stroke="#666666" points="1109.5,-125.5 953.5,-125.5 953.5,-106.5 1109.5,-106.5 1109.5,-125.5"/>
<text text-anchor="middle" x="1031.5" y="-113.5" font-family="Helvetica,sans-Serif" font-size="10.00">Terraria.Utils.OpenFolderXdg</text>
</a>
</g>
</g>
<!-- Node23&#45;&gt;Node24 -->
<g id="edge25_Node000023_Node000024" class="edge">
<title>Node23&#45;&gt;Node24</title>
<g id="a_edge25_Node000023_Node000024"><a xlink:title=" ">
<path fill="none" stroke="#63b8ff" d="M889.69,-116C906.69,-116 925.17,-116 942.99,-116"/>
<polygon fill="#63b8ff" stroke="#63b8ff" points="943.38,-119.5 953.38,-116 943.38,-112.5 943.38,-119.5"/>
</a>
</g>
</g>
<!-- Node25 -->
<g id="Node000025" class="node">
<title>Node25</title>
<g id="a_Node000025"><a xlink:href="../../d1/d9c/classTerraria_1_1Utils_a20ff544f864fec62df413e995a9ca414.html#a20ff544f864fec62df413e995a9ca414" target="_top" xlink:title=" ">
<polygon fill="white" stroke="#666666" points="1100,-88 963,-88 963,-58 1100,-58 1100,-88"/>
<text text-anchor="start" x="971" y="-76" font-family="Helvetica,sans-Serif" font-size="10.00">Terraria.Utils.TryCreating</text>
<text text-anchor="middle" x="1031.5" y="-65" font-family="Helvetica,sans-Serif" font-size="10.00">Directory</text>
</a>
</g>
</g>
<!-- Node23&#45;&gt;Node25 -->
<g id="edge26_Node000023_Node000025" class="edge">
<title>Node23&#45;&gt;Node25</title>
<g id="a_edge26_Node000023_Node000025"><a xlink:title=" ">
<path fill="none" stroke="#63b8ff" d="M868.27,-106.46C893.17,-101.32 924.54,-94.85 953.04,-88.98"/>
<polygon fill="#63b8ff" stroke="#63b8ff" points="953.9,-92.37 962.99,-86.92 952.49,-85.52 953.9,-92.37"/>
</a>
</g>
</g>
<!-- Node26 -->
<g id="Node000026" class="node">
<title>Node26</title>
<g id="a_Node000026"><a xlink:href="../../dd/df7/classTerraria_1_1UI_1_1FancyErrorPrinter_ae0115236331d295adbc1e781728728f7.html#ae0115236331d295adbc1e781728728f7" target="_top" xlink:title=" ">
<polygon fill="white" stroke="#666666" points="1345.5,-83 1176.5,-83 1176.5,-53 1345.5,-53 1345.5,-83"/>
<text text-anchor="start" x="1184.5" y="-71" font-family="Helvetica,sans-Serif" font-size="10.00">Terraria.UI.FancyErrorPrinter.</text>
<text text-anchor="middle" x="1261" y="-60" font-family="Helvetica,sans-Serif" font-size="10.00">ShowDirectoryCreationFailError</text>
</a>
</g>
</g>
<!-- Node25&#45;&gt;Node26 -->
<g id="edge27_Node000025_Node000026" class="edge">
<title>Node25&#45;&gt;Node26</title>
<g id="a_edge27_Node000025_Node000026"><a xlink:title=" ">
<path fill="none" stroke="#63b8ff" d="M1100.14,-71.51C1120.93,-71.06 1144.19,-70.55 1166.39,-70.06"/>
<polygon fill="#63b8ff" stroke="#63b8ff" points="1166.58,-73.55 1176.5,-69.84 1166.43,-66.56 1166.58,-73.55"/>
</a>
</g>
</g>
<!-- Node27 -->
<g id="Node000027" class="node">
<title>Node27</title>
<g id="a_Node000027"><a xlink:href="../../dd/df7/classTerraria_1_1UI_1_1FancyErrorPrinter_a6c9b4482b0b7da9f344d2576854450f9.html#a6c9b4482b0b7da9f344d2576854450f9" target="_top" xlink:title=" ">
<polygon fill="white" stroke="#666666" points="1567,-126 1412,-126 1412,-96 1567,-96 1567,-126"/>
<text text-anchor="start" x="1420" y="-114" font-family="Helvetica,sans-Serif" font-size="10.00">Terraria.UI.FancyErrorPrinter.</text>
<text text-anchor="middle" x="1489.5" y="-103" font-family="Helvetica,sans-Serif" font-size="10.00">AppendSuggestions</text>
</a>
</g>
</g>
<!-- Node26&#45;&gt;Node27 -->
<g id="edge28_Node000026_Node000027" class="edge">
<title>Node26&#45;&gt;Node27</title>
<g id="a_edge28_Node000026_Node000027"><a xlink:title=" ">
<path fill="none" stroke="#63b8ff" d="M1341.22,-83.04C1360.86,-86.77 1382.01,-90.78 1401.99,-94.58"/>
<polygon fill="#63b8ff" stroke="#63b8ff" points="1401.52,-98.05 1412,-96.48 1402.82,-91.17 1401.52,-98.05"/>
</a>
</g>
</g>
<!-- Node28 -->
<g id="Node000028" class="node">
<title>Node28</title>
<g id="a_Node000028"><a xlink:href="../../dd/df7/classTerraria_1_1UI_1_1FancyErrorPrinter_a72a828c72dcd7b6c59a0cfc10196389e.html#a72a828c72dcd7b6c59a0cfc10196389e" target="_top" xlink:title=" ">
<polygon fill="white" stroke="#666666" points="1567,-78 1412,-78 1412,-48 1567,-48 1567,-78"/>
<text text-anchor="start" x="1420" y="-66" font-family="Helvetica,sans-Serif" font-size="10.00">Terraria.UI.FancyErrorPrinter.</text>
<text text-anchor="middle" x="1489.5" y="-55" font-family="Helvetica,sans-Serif" font-size="10.00">IncludeOriginalMessage</text>
</a>
</g>
</g>
<!-- Node26&#45;&gt;Node28 -->
<g id="edge29_Node000026_Node000028" class="edge">
<title>Node26&#45;&gt;Node28</title>
<g id="a_edge29_Node000026_Node000028"><a xlink:title=" ">
<path fill="none" stroke="#63b8ff" d="M1345.7,-66.15C1363.99,-65.75 1383.38,-65.32 1401.78,-64.91"/>
<polygon fill="#63b8ff" stroke="#63b8ff" points="1401.97,-68.41 1411.89,-64.69 1401.82,-61.41 1401.97,-68.41"/>
</a>
</g>
</g>
<!-- Node29 -->
<g id="Node000029" class="node">
<title>Node29</title>
<g id="a_Node000029"><a xlink:href="../../d1/d0a/classTerraria_1_1ModLoader_1_1Engine_1_1ErrorReporting_abb9f3a04bc7c754a30dcf9b345b4e8c2.html#abb9f3a04bc7c754a30dcf9b345b4e8c2" target="_top" xlink:title=" ">
<polygon fill="white" stroke="#666666" points="1579,-30 1400,-30 1400,0 1579,0 1579,-30"/>
<text text-anchor="start" x="1408" y="-18" font-family="Helvetica,sans-Serif" font-size="10.00">Terraria.ModLoader.Engine.</text>
<text text-anchor="middle" x="1489.5" y="-7" font-family="Helvetica,sans-Serif" font-size="10.00">ErrorReporting.MessageBoxShow</text>
</a>
</g>
</g>
<!-- Node26&#45;&gt;Node29 -->
<g id="edge30_Node000026_Node000029" class="edge">
<title>Node26&#45;&gt;Node29</title>
<g id="a_edge30_Node000026_Node000029"><a xlink:title=" ">
<path fill="none" stroke="#63b8ff" d="M1326.3,-52.95C1353.68,-46.55 1385.78,-39.04 1414.17,-32.39"/>
<polygon fill="#63b8ff" stroke="#63b8ff" points="1415.1,-35.77 1424.04,-30.08 1413.5,-28.95 1415.1,-35.77"/>
</a>
</g>
</g>
<!-- Node29&#45;&gt;Node21 -->
<g id="edge31_Node000029_Node000021" class="edge">
<title>Node29&#45;&gt;Node21</title>
<g id="a_edge31_Node000029_Node000021"><a xlink:title=" ">
<path fill="none" stroke="#63b8ff" d="M1549.29,-30.09C1559.25,-32.89 1569.46,-35.91 1579,-39 1603.25,-46.85 1629.83,-56.77 1651.7,-65.3"/>
<polygon fill="#63b8ff" stroke="#63b8ff" points="1650.49,-68.58 1661.08,-68.98 1653.05,-62.07 1650.49,-68.58"/>
</a>
</g>
</g>
<!-- Node31 -->
<g id="Node000031" class="node">
<title>Node31</title>
<g id="a_Node000031"><a xlink:href="../../d1/da9/classTerraria_1_1ModLoader_1_1SystemLoader_a3638d61824acdd44dc0708a283c619ae.html#a3638d61824acdd44dc0708a283c619ae" target="_top" xlink:title=" ">
<polygon fill="white" stroke="#666666" points="895.5,-88 746.5,-88 746.5,-58 895.5,-58 895.5,-88"/>
<text text-anchor="start" x="754.5" y="-76" font-family="Helvetica,sans-Serif" font-size="10.00">Terraria.ModLoader.System</text>
<text text-anchor="middle" x="821" y="-65" font-family="Helvetica,sans-Serif" font-size="10.00">Loader.CanWorldBePlayed</text>
</a>
</g>
</g>
<!-- Node30&#45;&gt;Node31 -->
<g id="edge33_Node000030_Node000031" class="edge">
<title>Node30&#45;&gt;Node31</title>
<g id="a_edge33_Node000030_Node000031"><a xlink:title=" ">
<path fill="none" stroke="#63b8ff" d="M689.66,-103.53C708.23,-99.18 727.8,-94.59 745.98,-90.34"/>
<polygon fill="#63b8ff" stroke="#63b8ff" points="746.98,-93.7 755.92,-88.01 745.38,-86.88 746.98,-93.7"/>
</a>
</g>
</g>
<!-- Node32 -->
<g id="Node000032" class="node">
<title>Node32</title>
<g id="a_Node000032"><a xlink:href="../../d8/de4/classTerraria_1_1ModLoader_1_1SystemLoader_1_1HookList_a9d487ce57b372c7e76247ac477317653.html#a9d487ce57b372c7e76247ac477317653" target="_top" xlink:title=" ">
<polygon fill="white" stroke="#666666" points="1107,-40 956,-40 956,-10 1107,-10 1107,-40"/>
<text text-anchor="start" x="964" y="-28" font-family="Helvetica,sans-Serif" font-size="10.00">Terraria.ModLoader.System</text>
<text text-anchor="middle" x="1031.5" y="-17" font-family="Helvetica,sans-Serif" font-size="10.00">Loader.HookList.Enumerate</text>
</a>
</g>
</g>
<!-- Node31&#45;&gt;Node32 -->
<g id="edge34_Node000031_Node000032" class="edge">
<title>Node31&#45;&gt;Node32</title>
<g id="a_edge34_Node000031_Node000032"><a xlink:title=" ">
<path fill="none" stroke="#63b8ff" d="M887.4,-57.94C909.04,-52.96 933.28,-47.38 955.58,-42.25"/>
<polygon fill="#63b8ff" stroke="#63b8ff" points="956.37,-45.66 965.33,-40 954.8,-38.84 956.37,-45.66"/>
</a>
</g>
</g>
<!-- Node34 -->
<g id="Node000034" class="node">
<title>Node34</title>
<g id="a_Node000034"><a xlink:href="../../d7/d72/classTerraria_1_1UI_1_1UIElement_a8358ff058ca4696cbdf817c755f2e568.html#a8358ff058ca4696cbdf817c755f2e568" target="_top" xlink:title=" ">
<polygon fill="white" stroke="#666666" points="903,-40 739,-40 739,-10 903,-10 903,-40"/>
<text text-anchor="start" x="747" y="-28" font-family="Helvetica,sans-Serif" font-size="10.00">Terraria.UI.UIElement.Remove</text>
<text text-anchor="middle" x="821" y="-17" font-family="Helvetica,sans-Serif" font-size="10.00">AllChildren</text>
</a>
</g>
</g>
<!-- Node33&#45;&gt;Node34 -->
<g id="edge36_Node000033_Node000034" class="edge">
<title>Node33&#45;&gt;Node34</title>
<g id="a_edge36_Node000033_Node000034"><a xlink:title=" ">
<path fill="none" stroke="#63b8ff" d="M675.52,-35.15C692.43,-33.96 710.78,-32.67 728.56,-31.42"/>
<polygon fill="#63b8ff" stroke="#63b8ff" points="729.21,-34.89 738.94,-30.69 728.72,-27.9 729.21,-34.89"/>
</a>
</g>
</g>
</g>
</svg>
