<?xml version="1.0" encoding="UTF-8" standalone="no"?>
<!DOCTYPE svg PUBLIC "-//W3C//DTD SVG 1.1//EN"
 "http://www.w3.org/Graphics/SVG/1.1/DTD/svg11.dtd">
<!-- Generated by graphviz version 2.43.0 (0)
 -->
<!-- Title: RgbKeyboard Pages: 1 -->
<svg width="159pt" height="253pt"
 viewBox="0.00 0.00 159.00 253.00" xmlns="http://www.w3.org/2000/svg" xmlns:xlink="http://www.w3.org/1999/xlink">
<g id="graph0" class="graph" transform="scale(1 1) rotate(0) translate(4 249)">
<title>RgbKeyboard</title>
<!-- Node1 -->
<g id="Node000001" class="node">
<title>Node1</title>
<g id="a_Node000001"><a xlink:title=" ">
<polygon fill="#999999" stroke="transparent" points="113,-245 38,-245 38,-196 113,-196 113,-245"/>
<text text-anchor="start" x="43.5" y="-232.5" font-family="Helvetica,sans-Serif" font-size="10.00">RgbKeyboard</text>
<text text-anchor="start" x="74" y="-217.5" font-family="Helvetica,sans-Serif" font-size="10.00"> </text>
<text text-anchor="start" x="74" y="-202.5" font-family="Helvetica,sans-Serif" font-size="10.00"> </text>
<polygon fill="#666666" stroke="#666666" points="38.5,-227.5 38.5,-227.5 113.5,-227.5 113.5,-227.5 38.5,-227.5"/>
<polygon fill="#666666" stroke="#666666" points="38.5,-212.5 38.5,-212.5 113.5,-212.5 113.5,-212.5 38.5,-212.5"/>
<polygon fill="none" stroke="#666666" points="38,-196 38,-245 113,-245 113,-196 38,-196"/>
</a>
</g>
</g>
<!-- Node2 -->
<g id="Node000002" class="node">
<title>Node2</title>
<g id="a_Node000002"><a xlink:href="../../d5/dd0/classTerraria_1_1GameContent_1_1RGB_1_1VirtualKeyboard.html" target="_top" xlink:title=" ">
<polygon fill="white" stroke="transparent" points="151,-160 0,-160 0,0 151,0 151,-160"/>
<text text-anchor="start" x="8.5" y="-148" font-family="Helvetica,sans-Serif" font-size="10.00">Terraria.GameContent.RGB.</text>
<text text-anchor="start" x="36.5" y="-137" font-family="Helvetica,sans-Serif" font-size="10.00">VirtualKeyboard</text>
<text text-anchor="start" x="7" y="-122" font-family="Helvetica,sans-Serif" font-size="10.00">&#45;</text>
<text text-anchor="start" x="17.5" y="-122" font-family="Helvetica,sans-Serif" font-size="10.00">Dictionary&lt; Keys, int</text>
<text text-anchor="start" x="17.5" y="-111" font-family="Helvetica,sans-Serif" font-size="10.00"> &gt; _keyCodeMap</text>
<text text-anchor="start" x="4.5" y="-96" font-family="Helvetica,sans-Serif" font-size="10.00">+</text>
<text text-anchor="start" x="17.5" y="-96" font-family="Helvetica,sans-Serif" font-size="10.00">override void Present()</text>
<text text-anchor="start" x="4.5" y="-81" font-family="Helvetica,sans-Serif" font-size="10.00">+</text>
<text text-anchor="start" x="17.5" y="-81" font-family="Helvetica,sans-Serif" font-size="10.00">override void Render</text>
<text text-anchor="start" x="17.5" y="-70" font-family="Helvetica,sans-Serif" font-size="10.00">(IEnumerable&lt; RgbKey</text>
<text text-anchor="start" x="17.5" y="-59" font-family="Helvetica,sans-Serif" font-size="10.00"> &gt; keys)</text>
<text text-anchor="start" x="4.5" y="-44" font-family="Helvetica,sans-Serif" font-size="10.00">+</text>
<text text-anchor="start" x="17.5" y="-44" font-family="Helvetica,sans-Serif" font-size="10.00">static VirtualKeyboard</text>
<text text-anchor="start" x="17.5" y="-33" font-family="Helvetica,sans-Serif" font-size="10.00"> Create()</text>
<text text-anchor="start" x="7" y="-18" font-family="Helvetica,sans-Serif" font-size="10.00">&#45;</text>
<text text-anchor="start" x="17.5" y="-18" font-family="Helvetica,sans-Serif" font-size="10.00">VirtualKeyboard(Fragment</text>
<text text-anchor="start" x="17.5" y="-7" font-family="Helvetica,sans-Serif" font-size="10.00"> fragment, Keys[] keyMap)</text>
<polygon fill="#666666" stroke="#666666" points="0.5,-132 0.5,-132 151.5,-132 151.5,-132 0.5,-132"/>
<polygon fill="#666666" stroke="#666666" points="0.5,-106 0.5,-106 15.5,-106 15.5,-106 0.5,-106"/>
<polygon fill="#666666" stroke="#666666" points="15.5,-106 15.5,-106 151.5,-106 151.5,-106 15.5,-106"/>
<polygon fill="none" stroke="#666666" points="0,0 0,-160 151,-160 151,0 0,0"/>
</a>
</g>
</g>
<!-- Node1&#45;&gt;Node2 -->
<g id="edge1_Node000001_Node000002" class="edge">
<title>Node1&#45;&gt;Node2</title>
<g id="a_edge1_Node000001_Node000002"><a xlink:title=" ">
<path fill="none" stroke="#63b8ff" d="M75.5,-185.57C75.5,-177.73 75.5,-169.06 75.5,-160.18"/>
<polygon fill="none" stroke="#63b8ff" points="72,-185.69 75.5,-195.69 79,-185.69 72,-185.69"/>
</a>
</g>
</g>
</g>
</svg>
