<?xml version="1.0" encoding="UTF-8" standalone="no"?>
<!DOCTYPE svg PUBLIC "-//W3C//DTD SVG 1.1//EN"
 "http://www.w3.org/Graphics/SVG/1.1/DTD/svg11.dtd">
<!-- Generated by graphviz version 2.43.0 (0)
 -->
<!-- Title: Terraria.ModLoader.IO.WorldIO.LoadModHeaders Pages: 1 -->
<!--zoomable 415 -->

<svg id="main" version="1.1" xmlns="http://www.w3.org/2000/svg" xmlns:xlink="http://www.w3.org/1999/xlink" xml:space="preserve" onload="init(evt)">
<style type="text/css"><![CDATA[
.node, .edge {opacity: 0.7;}
.node.selected, .edge.selected {opacity: 1;}
.edge:hover path { stroke: red; }
.edge:hover polygon { stroke: red; fill: red; }
]]></style>

<defs>
  <circle id="rim" cx="0" cy="0" r="7"/>
  <circle id="rim2" cx="0" cy="0" r="3.5"/>
  <g id="zoomPlus">
    <use xlink:href="#rim" fill="#404040"><set attributeName="fill" to="#808080" begin="zoomplus.mouseover" end="zoomplus.mouseout"/></use>
    <path d="M-4,0h8M0,-4v8" fill="none" stroke="white" stroke-width="1.5" pointer-events="none"/>
  </g>
  <g id="zoomMin">
    <use xlink:href="#rim" fill="#404040"><set attributeName="fill" to="#808080" begin="zoomminus.mouseover" end="zoomminus.mouseout"/></use>
    <path d="M-4,0h8" fill="none" stroke="white" stroke-width="1.5" pointer-events="none"/>
  </g>
  <g id="arrowUp" transform="translate(30 24)">
    <use xlink:href="#rim"/>
    <path pointer-events="none" fill="none" stroke="white" stroke-width="1.5" d="M0,-3.0v7 M-2.5,-0.5L0,-3.0L2.5,-0.5"/>
  </g>
  <g id="arrowRight" transform="rotate(90) translate(36 -43)">
    <use xlink:href="#rim"/>
    <path pointer-events="none" fill="none" stroke="white" stroke-width="1.5" d="M0,-3.0v7 M-2.5,-0.5L0,-3.0L2.5,-0.5"/>
  </g>
  <g id="arrowDown" transform="rotate(180) translate(-30 -48)">
    <use xlink:href="#rim"/>
    <path pointer-events="none" fill="none" stroke="white" stroke-width="1.5" d="M0,-3.0v7 M-2.5,-0.5L0,-3.0L2.5,-0.5"/>
  </g>
  <g id="arrowLeft" transform="rotate(270) translate(-36 17)">
    <use xlink:href="#rim"/>
    <path pointer-events="none" fill="none" stroke="white" stroke-width="1.5" d="M0,-3.0v7 M-2.5,-0.5L0,-3.0L2.5,-0.5"/>
  </g>
  <g id="resetDef">
    <use xlink:href="#rim2" fill="#404040"><set attributeName="fill" to="#808080" begin="reset.mouseover" end="reset.mouseout"/></use>
  </g>
</defs>
<script type="application/ecmascript">
var viewWidth = 2424;
var viewHeight = 415;
var sectionId = 'dynsection-0';
</script>
<script type="application/ecmascript" xlink:href="../../svg.min.js"/>
<svg id="graph" class="graph">
<g id="viewport">
<title>Terraria.ModLoader.IO.WorldIO.LoadModHeaders</title>
<!-- Node1 -->
<g id="Node000001" class="node">
<title>Node1</title>
<g id="a_Node000001"><a xlink:title=" ">
<polygon fill="#999999" stroke="#666666" points="2416,-234.5 2262,-234.5 2262,-204.5 2416,-204.5 2416,-234.5"/>
<text text-anchor="start" x="2270" y="-222.5" font-family="Helvetica,sans-Serif" font-size="10.00">Terraria.ModLoader.IO.World</text>
<text text-anchor="middle" x="2339" y="-211.5" font-family="Helvetica,sans-Serif" font-size="10.00">IO.LoadModHeaders</text>
</a>
</g>
</g>
<!-- Node2 -->
<g id="Node000002" class="node">
<title>Node2</title>
<g id="a_Node000002"><a xlink:href="../../d3/d8e/classTerraria_1_1ModLoader_1_1IO_1_1WorldIO_a226b0a1a4c5b243450d0ee8b5cf247d8.html#a226b0a1a4c5b243450d0ee8b5cf247d8" target="_top" xlink:title=" ">
<polygon fill="white" stroke="#666666" points="2226,-234.5 2072,-234.5 2072,-204.5 2226,-204.5 2226,-234.5"/>
<text text-anchor="start" x="2080" y="-222.5" font-family="Helvetica,sans-Serif" font-size="10.00">Terraria.ModLoader.IO.World</text>
<text text-anchor="middle" x="2149" y="-211.5" font-family="Helvetica,sans-Serif" font-size="10.00">IO.LoadWorldHeader</text>
</a>
</g>
</g>
<!-- Node1&#45;&gt;Node2 -->
<g id="edge1_Node000001_Node000002" class="edge">
<title>Node1&#45;&gt;Node2</title>
<g id="a_edge1_Node000001_Node000002"><a xlink:title=" ">
<path fill="none" stroke="#63b8ff" d="M2251.58,-219.5C2243.14,-219.5 2234.63,-219.5 2226.3,-219.5"/>
<polygon fill="#63b8ff" stroke="#63b8ff" points="2251.8,-223 2261.8,-219.5 2251.8,-216 2251.8,-223"/>
</a>
</g>
</g>
<!-- Node3 -->
<g id="Node000003" class="node">
<title>Node3</title>
<g id="a_Node000003"><a xlink:href="../../d3/d8e/classTerraria_1_1ModLoader_1_1IO_1_1WorldIO_a5a0bed96c14ad225f7b88aa6dbb545ae.html#a5a0bed96c14ad225f7b88aa6dbb545ae" target="_top" xlink:title=" ">
<polygon fill="white" stroke="#666666" points="2036,-234.5 1882,-234.5 1882,-204.5 2036,-204.5 2036,-234.5"/>
<text text-anchor="start" x="1890" y="-222.5" font-family="Helvetica,sans-Serif" font-size="10.00">Terraria.ModLoader.IO.World</text>
<text text-anchor="middle" x="1959" y="-211.5" font-family="Helvetica,sans-Serif" font-size="10.00">IO.ReadWorldHeader</text>
</a>
</g>
</g>
<!-- Node2&#45;&gt;Node3 -->
<g id="edge2_Node000002_Node000003" class="edge">
<title>Node2&#45;&gt;Node3</title>
<g id="a_edge2_Node000002_Node000003"><a xlink:title=" ">
<path fill="none" stroke="#63b8ff" d="M2061.58,-219.5C2053.14,-219.5 2044.63,-219.5 2036.3,-219.5"/>
<polygon fill="#63b8ff" stroke="#63b8ff" points="2061.8,-223 2071.8,-219.5 2061.8,-216 2061.8,-223"/>
</a>
</g>
</g>
<!-- Node4 -->
<g id="Node000004" class="node">
<title>Node4</title>
<g id="a_Node000004"><a xlink:href="../../d7/d54/classTerraria_1_1IO_1_1WorldFile_ac5b0f068a1648832a68ea1f973e75acb.html#ac5b0f068a1648832a68ea1f973e75acb" target="_top" xlink:title=" ">
<polygon fill="white" stroke="#666666" points="1846,-234.5 1711,-234.5 1711,-204.5 1846,-204.5 1846,-234.5"/>
<text text-anchor="start" x="1719" y="-222.5" font-family="Helvetica,sans-Serif" font-size="10.00">Terraria.IO.WorldFile.Get</text>
<text text-anchor="middle" x="1778.5" y="-211.5" font-family="Helvetica,sans-Serif" font-size="10.00">AllMetadata</text>
</a>
</g>
</g>
<!-- Node3&#45;&gt;Node4 -->
<g id="edge3_Node000003_Node000004" class="edge">
<title>Node3&#45;&gt;Node4</title>
<g id="a_edge3_Node000003_Node000004"><a xlink:title=" ">
<path fill="none" stroke="#63b8ff" d="M1871.73,-219.5C1863.14,-219.5 1854.51,-219.5 1846.17,-219.5"/>
<polygon fill="#63b8ff" stroke="#63b8ff" points="1871.78,-223 1881.78,-219.5 1871.78,-216 1871.78,-223"/>
</a>
</g>
</g>
<!-- Node5 -->
<g id="Node000005" class="node">
<title>Node5</title>
<g id="a_Node000005"><a xlink:href="../../da/dd5/classTerraria_1_1Main_a6ec1d17c942005b6de9ad71580dc89a4.html#a6ec1d17c942005b6de9ad71580dc89a4" target="_top" xlink:title=" ">
<polygon fill="white" stroke="#666666" points="1655,-325 1498,-325 1498,-306 1655,-306 1655,-325"/>
<text text-anchor="middle" x="1576.5" y="-313" font-family="Helvetica,sans-Serif" font-size="10.00">Terraria.Main.LoadDedConfig</text>
</a>
</g>
</g>
<!-- Node4&#45;&gt;Node5 -->
<g id="edge4_Node000004_Node000005" class="edge">
<title>Node4&#45;&gt;Node5</title>
<g id="a_edge4_Node000004_Node000005"><a xlink:title=" ">
<path fill="none" stroke="#63b8ff" d="M1754.88,-241.77C1735.36,-259.67 1705.55,-283.98 1675,-297.5 1667.21,-300.95 1658.78,-303.73 1650.26,-305.99"/>
<polygon fill="#63b8ff" stroke="#63b8ff" points="1757.43,-244.18 1762.34,-234.79 1752.65,-239.07 1757.43,-244.18"/>
</a>
</g>
</g>
<!-- Node6 -->
<g id="Node000006" class="node">
<title>Node6</title>
<g id="a_Node000006"><a xlink:href="../../d0/d26/classTerraria_1_1GameContent_1_1UI_1_1States_1_1UIWorldSelect_a3264ffe9a155c4ce08a8e1850536da1e.html#a3264ffe9a155c4ce08a8e1850536da1e" target="_top" xlink:title=" ">
<polygon fill="white" stroke="#666666" points="1675,-288 1478,-288 1478,-247 1675,-247 1675,-288"/>
<text text-anchor="start" x="1486" y="-276" font-family="Helvetica,sans-Serif" font-size="10.00">Terraria.GameContent.UI.</text>
<text text-anchor="start" x="1486" y="-265" font-family="Helvetica,sans-Serif" font-size="10.00">States.UIWorldSelect.LoadMigratable</text>
<text text-anchor="middle" x="1576.5" y="-254" font-family="Helvetica,sans-Serif" font-size="10.00">Worlds</text>
</a>
</g>
</g>
<!-- Node4&#45;&gt;Node6 -->
<g id="edge5_Node000004_Node000006" class="edge">
<title>Node4&#45;&gt;Node6</title>
<g id="a_edge5_Node000004_Node000006"><a xlink:title=" ">
<path fill="none" stroke="#63b8ff" d="M1705.01,-236.9C1691.4,-240.16 1677.06,-243.61 1663.1,-246.96"/>
<polygon fill="#63b8ff" stroke="#63b8ff" points="1705.86,-240.29 1714.77,-234.56 1704.23,-233.49 1705.86,-240.29"/>
</a>
</g>
</g>
<!-- Node8 -->
<g id="Node000008" class="node">
<title>Node8</title>
<g id="a_Node000008"><a xlink:href="../../da/dd5/classTerraria_1_1Main_a34fcd8d078ad8d531bfd79306b459ee3.html#a34fcd8d078ad8d531bfd79306b459ee3" target="_top" xlink:title=" ">
<polygon fill="white" stroke="#666666" points="1646.5,-229 1506.5,-229 1506.5,-210 1646.5,-210 1646.5,-229"/>
<text text-anchor="middle" x="1576.5" y="-217" font-family="Helvetica,sans-Serif" font-size="10.00">Terraria.Main.LoadWorlds</text>
</a>
</g>
</g>
<!-- Node4&#45;&gt;Node8 -->
<g id="edge7_Node000004_Node000008" class="edge">
<title>Node4&#45;&gt;Node8</title>
<g id="a_edge7_Node000004_Node000008"><a xlink:title=" ">
<path fill="none" stroke="#63b8ff" d="M1700.57,-219.5C1682.78,-219.5 1663.97,-219.5 1646.54,-219.5"/>
<polygon fill="#63b8ff" stroke="#63b8ff" points="1700.9,-223 1710.9,-219.5 1700.9,-216 1700.9,-223"/>
</a>
</g>
</g>
<!-- Node39 -->
<g id="Node000039" class="node">
<title>Node39</title>
<g id="a_Node000039"><a xlink:href="../../da/dd5/classTerraria_1_1Main_a7453dc6b40a367b25ac5e718e15c36ba.html#a7453dc6b40a367b25ac5e718e15c36ba" target="_top" xlink:title=" ">
<polygon fill="white" stroke="#666666" points="1640,-192 1513,-192 1513,-173 1640,-173 1640,-192"/>
<text text-anchor="middle" x="1576.5" y="-180" font-family="Helvetica,sans-Serif" font-size="10.00">Terraria.Main.SetWorld</text>
</a>
</g>
</g>
<!-- Node4&#45;&gt;Node39 -->
<g id="edge41_Node000004_Node000039" class="edge">
<title>Node4&#45;&gt;Node39</title>
<g id="a_edge41_Node000004_Node000039"><a xlink:title=" ">
<path fill="none" stroke="#63b8ff" d="M1701.06,-205.36C1676.94,-200.9 1650.88,-196.08 1628.94,-192.02"/>
<polygon fill="#63b8ff" stroke="#63b8ff" points="1700.43,-208.8 1710.9,-207.18 1701.71,-201.92 1700.43,-208.8"/>
</a>
</g>
</g>
<!-- Node40 -->
<g id="Node000040" class="node">
<title>Node40</title>
<g id="a_Node000040"><a xlink:href="../../d7/d77/classTerraria_1_1GameContent_1_1UI_1_1States_1_1UIWorkshopWorldImport_af2925a3325b66998a15656164e2dcf86.html#af2925a3325b66998a15656164e2dcf86" target="_top" xlink:title=" ">
<polygon fill="white" stroke="#666666" points="1662.5,-98 1490.5,-98 1490.5,-57 1662.5,-57 1662.5,-98"/>
<text text-anchor="start" x="1498.5" y="-86" font-family="Helvetica,sans-Serif" font-size="10.00">Terraria.GameContent.UI.</text>
<text text-anchor="start" x="1498.5" y="-75" font-family="Helvetica,sans-Serif" font-size="10.00">States.UIWorkshopWorldImport.</text>
<text text-anchor="middle" x="1576.5" y="-64" font-family="Helvetica,sans-Serif" font-size="10.00">UpdateWorkshopWorldList</text>
</a>
</g>
</g>
<!-- Node4&#45;&gt;Node40 -->
<g id="edge42_Node000004_Node000040" class="edge">
<title>Node4&#45;&gt;Node40</title>
<g id="a_edge42_Node000004_Node000040"><a xlink:title=" ">
<path fill="none" stroke="#63b8ff" d="M1747.48,-198.19C1709.37,-171.13 1644.06,-124.76 1606.46,-98.06"/>
<polygon fill="#63b8ff" stroke="#63b8ff" points="1745.92,-201.37 1756.1,-204.3 1749.97,-195.66 1745.92,-201.37"/>
</a>
</g>
</g>
<!-- Node7 -->
<g id="Node000007" class="node">
<title>Node7</title>
<g id="a_Node000007"><a xlink:href="../../d0/d26/classTerraria_1_1GameContent_1_1UI_1_1States_1_1UIWorldSelect_ab45cacfe54c4608577bcdba36130f7aa.html#ab45cacfe54c4608577bcdba36130f7aa" target="_top" xlink:title=" ">
<polygon fill="white" stroke="#666666" points="1442,-406.5 1266,-406.5 1266,-376.5 1442,-376.5 1442,-406.5"/>
<text text-anchor="start" x="1274" y="-394.5" font-family="Helvetica,sans-Serif" font-size="10.00">Terraria.GameContent.UI.</text>
<text text-anchor="middle" x="1354" y="-383.5" font-family="Helvetica,sans-Serif" font-size="10.00">States.UIWorldSelect.OnActivate</text>
</a>
</g>
</g>
<!-- Node6&#45;&gt;Node7 -->
<g id="edge6_Node000006_Node000007" class="edge">
<title>Node6&#45;&gt;Node7</title>
<g id="a_edge6_Node000006_Node000007"><a xlink:title=" ">
<path fill="none" stroke="#63b8ff" d="M1483.56,-293.35C1481.65,-294.67 1479.79,-296.05 1478,-297.5 1452.36,-318.31 1467.4,-341.39 1442,-362.5 1435.14,-368.2 1427.12,-372.79 1418.78,-376.49"/>
<polygon fill="#63b8ff" stroke="#63b8ff" points="1485.59,-296.21 1492.3,-288.01 1481.94,-290.24 1485.59,-296.21"/>
</a>
</g>
</g>
<!-- Node8&#45;&gt;Node7 -->
<g id="edge28_Node000008_Node000007" class="edge">
<title>Node8&#45;&gt;Node7</title>
<g id="a_edge28_Node000008_Node000007"><a xlink:title=" ">
<path fill="none" stroke="#63b8ff" d="M1496.85,-226.62C1489.95,-229.58 1483.51,-233.46 1478,-238.5 1435.64,-277.21 1481.78,-321.13 1442,-362.5 1436.59,-368.12 1430.07,-372.66 1423.05,-376.31"/>
<polygon fill="#63b8ff" stroke="#63b8ff" points="1498.28,-229.82 1506.48,-223.12 1495.89,-223.24 1498.28,-229.82"/>
</a>
</g>
</g>
<!-- Node9 -->
<g id="Node000009" class="node">
<title>Node9</title>
<g id="a_Node000009"><a xlink:href="../../da/dd5/classTerraria_1_1Main_a290b6801aeb27a5fb4012a45f54043d2.html#a290b6801aeb27a5fb4012a45f54043d2" target="_top" xlink:title=" ">
<polygon fill="white" stroke="#666666" points="1209,-394.5 1084,-394.5 1084,-364.5 1209,-364.5 1209,-394.5"/>
<text text-anchor="start" x="1092" y="-382.5" font-family="Helvetica,sans-Serif" font-size="10.00">Terraria.Main.DedServ</text>
<text text-anchor="middle" x="1146.5" y="-371.5" font-family="Helvetica,sans-Serif" font-size="10.00">_PostModLoad</text>
</a>
</g>
</g>
<!-- Node8&#45;&gt;Node9 -->
<g id="edge8_Node000008_Node000009" class="edge">
<title>Node8&#45;&gt;Node9</title>
<g id="a_edge8_Node000008_Node000009"><a xlink:title=" ">
<path fill="none" stroke="#63b8ff" d="M1496.83,-227.37C1490.02,-230.2 1483.61,-233.84 1478,-238.5 1444.55,-266.3 1475.79,-302.11 1442,-329.5 1424.17,-343.95 1290.21,-362.32 1209.23,-372.28"/>
<polygon fill="#63b8ff" stroke="#63b8ff" points="1498.06,-230.65 1506.3,-224 1495.71,-224.06 1498.06,-230.65"/>
</a>
</g>
</g>
<!-- Node11 -->
<g id="Node000011" class="node">
<title>Node11</title>
<g id="a_Node000011"><a xlink:href="../../da/dd5/classTerraria_1_1Main_a5839ac62d52fc5fdc378e0cf67b59531.html#a5839ac62d52fc5fdc378e0cf67b59531" target="_top" xlink:title=" ">
<polygon fill="white" stroke="#666666" points="1423,-320 1285,-320 1285,-301 1423,-301 1423,-320"/>
<text text-anchor="middle" x="1354" y="-308" font-family="Helvetica,sans-Serif" font-size="10.00">Terraria.Main.EraseWorld</text>
</a>
</g>
</g>
<!-- Node8&#45;&gt;Node11 -->
<g id="edge10_Node000008_Node000011" class="edge">
<title>Node8&#45;&gt;Node11</title>
<g id="a_edge10_Node000008_Node000011"><a xlink:title=" ">
<path fill="none" stroke="#63b8ff" d="M1496.68,-229.14C1490.09,-231.63 1483.75,-234.7 1478,-238.5 1454.23,-254.18 1465.59,-275.55 1442,-291.5 1436.24,-295.4 1429.81,-298.51 1423.14,-301"/>
<polygon fill="#63b8ff" stroke="#63b8ff" points="1498.09,-232.36 1506.49,-225.91 1495.9,-225.72 1498.09,-232.36"/>
</a>
</g>
</g>
<!-- Node16 -->
<g id="Node000016" class="node">
<title>Node16</title>
<g id="a_Node000016"><a xlink:href="../../da/dd5/classTerraria_1_1Main_a8428815a84cf887c2adf13c19aad4caf.html#a8428815a84cf887c2adf13c19aad4caf" target="_top" xlink:title=" ">
<polygon fill="white" stroke="#666666" points="1416.5,-282.5 1291.5,-282.5 1291.5,-252.5 1416.5,-252.5 1416.5,-282.5"/>
<text text-anchor="start" x="1299.5" y="-270.5" font-family="Helvetica,sans-Serif" font-size="10.00">Terraria.Main.Initialize</text>
<text text-anchor="middle" x="1354" y="-259.5" font-family="Helvetica,sans-Serif" font-size="10.00">_AlmostEverything</text>
</a>
</g>
</g>
<!-- Node8&#45;&gt;Node16 -->
<g id="edge16_Node000008_Node000016" class="edge">
<title>Node8&#45;&gt;Node16</title>
<g id="a_edge16_Node000008_Node000016"><a xlink:title=" ">
<path fill="none" stroke="#63b8ff" d="M1514.53,-231C1502.41,-233.39 1489.79,-235.96 1478,-238.5 1457.95,-242.82 1436.13,-247.85 1416.52,-252.5"/>
<polygon fill="#63b8ff" stroke="#63b8ff" points="1515.43,-234.39 1524.57,-229.04 1514.08,-227.52 1515.43,-234.39"/>
</a>
</g>
</g>
<!-- Node19 -->
<g id="Node000019" class="node">
<title>Node19</title>
<g id="a_Node000019"><a xlink:href="../../de/d13/classTerraria_1_1Initializers_1_1LaunchInitializer_a39dcc7720b0e8df10debd9c935396233.html#a39dcc7720b0e8df10debd9c935396233" target="_top" xlink:title=" ">
<polygon fill="white" stroke="#666666" points="1440,-234.5 1268,-234.5 1268,-204.5 1440,-204.5 1440,-234.5"/>
<text text-anchor="start" x="1276" y="-222.5" font-family="Helvetica,sans-Serif" font-size="10.00">Terraria.Initializers.Launch</text>
<text text-anchor="middle" x="1354" y="-211.5" font-family="Helvetica,sans-Serif" font-size="10.00">Initializer.LoadClientParameters</text>
</a>
</g>
</g>
<!-- Node8&#45;&gt;Node19 -->
<g id="edge20_Node000008_Node000019" class="edge">
<title>Node8&#45;&gt;Node19</title>
<g id="a_edge20_Node000008_Node000019"><a xlink:title=" ">
<path fill="none" stroke="#63b8ff" d="M1496.1,-219.5C1477.95,-219.5 1458.59,-219.5 1440.2,-219.5"/>
<polygon fill="#63b8ff" stroke="#63b8ff" points="1496.34,-223 1506.34,-219.5 1496.34,-216 1496.34,-223"/>
</a>
</g>
</g>
<!-- Node26 -->
<g id="Node000026" class="node">
<title>Node26</title>
<g id="a_Node000026"><a xlink:href="../../d7/d77/classTerraria_1_1GameContent_1_1UI_1_1States_1_1UIWorkshopWorldImport_aa1fa749ad2c57377c90e13c193688da7.html#aa1fa749ad2c57377c90e13c193688da7" target="_top" xlink:title=" ">
<polygon fill="white" stroke="#666666" points="1440,-41 1268,-41 1268,0 1440,0 1440,-41"/>
<text text-anchor="start" x="1276" y="-29" font-family="Helvetica,sans-Serif" font-size="10.00">Terraria.GameContent.UI.</text>
<text text-anchor="start" x="1276" y="-18" font-family="Helvetica,sans-Serif" font-size="10.00">States.UIWorkshopWorldImport.</text>
<text text-anchor="middle" x="1354" y="-7" font-family="Helvetica,sans-Serif" font-size="10.00">OnActivate</text>
</a>
</g>
</g>
<!-- Node8&#45;&gt;Node26 -->
<g id="edge27_Node000008_Node000026" class="edge">
<title>Node8&#45;&gt;Node26</title>
<g id="a_edge27_Node000008_Node000026"><a xlink:title=" ">
<path fill="none" stroke="#63b8ff" d="M1496.61,-213.51C1489.77,-210.55 1483.4,-206.64 1478,-201.5 1427.7,-153.65 1488.85,-100.73 1442,-49.5 1439.21,-46.45 1436.08,-43.71 1432.73,-41.27"/>
<polygon fill="#63b8ff" stroke="#63b8ff" points="1495.61,-216.87 1506.21,-216.98 1497.99,-210.29 1495.61,-216.87"/>
</a>
</g>
</g>
<!-- Node27 -->
<g id="Node000027" class="node">
<title>Node27</title>
<g id="a_Node000027"><a xlink:href="../../d4/d90/classTerraria_1_1GameContent_1_1UI_1_1States_1_1UIWorkshopSelectWorldToPublish_a09a68c29362dc18139adeda530827152.html#a09a68c29362dc18139adeda530827152" target="_top" xlink:title=" ">
<polygon fill="white" stroke="#666666" points="1437.5,-186 1270.5,-186 1270.5,-145 1437.5,-145 1437.5,-186"/>
<text text-anchor="start" x="1278.5" y="-174" font-family="Helvetica,sans-Serif" font-size="10.00">Terraria.GameContent.UI.</text>
<text text-anchor="start" x="1278.5" y="-163" font-family="Helvetica,sans-Serif" font-size="10.00">States.UIWorkshopSelectWorld</text>
<text text-anchor="middle" x="1354" y="-152" font-family="Helvetica,sans-Serif" font-size="10.00">ToPublish.PopulateEntries</text>
</a>
</g>
</g>
<!-- Node8&#45;&gt;Node27 -->
<g id="edge29_Node000008_Node000027" class="edge">
<title>Node8&#45;&gt;Node27</title>
<g id="a_edge29_Node000008_Node000027"><a xlink:title=" ">
<path fill="none" stroke="#63b8ff" d="M1508.24,-208.01C1498.07,-206.01 1487.73,-203.82 1478,-201.5 1459.28,-197.04 1439.16,-191.49 1420.74,-186.09"/>
<polygon fill="#63b8ff" stroke="#63b8ff" points="1507.84,-211.5 1518.33,-209.95 1509.17,-204.63 1507.84,-211.5"/>
</a>
</g>
</g>
<!-- Node29 -->
<g id="Node000029" class="node">
<title>Node29</title>
<g id="a_Node000029"><a xlink:href="../../de/da1/classTerraria_1_1WorldGen_a6ebd3f95bf5811de33c819a2f6ed0fbc.html#a6ebd3f95bf5811de33c819a2f6ed0fbc" target="_top" xlink:title=" ">
<polygon fill="white" stroke="#666666" points="1427.5,-126.5 1280.5,-126.5 1280.5,-96.5 1427.5,-96.5 1427.5,-126.5"/>
<text text-anchor="start" x="1288.5" y="-114.5" font-family="Helvetica,sans-Serif" font-size="10.00">Terraria.WorldGen.Rename</text>
<text text-anchor="middle" x="1354" y="-103.5" font-family="Helvetica,sans-Serif" font-size="10.00">WorldCallBack</text>
</a>
</g>
</g>
<!-- Node8&#45;&gt;Node29 -->
<g id="edge31_Node000008_Node000029" class="edge">
<title>Node8&#45;&gt;Node29</title>
<g id="a_edge31_Node000008_Node000029"><a xlink:title=" ">
<path fill="none" stroke="#63b8ff" d="M1496.49,-211.33C1489.91,-208.78 1483.63,-205.55 1478,-201.5 1451.2,-182.21 1467.84,-157.07 1442,-136.5 1437.21,-132.68 1431.85,-129.45 1426.22,-126.71"/>
<polygon fill="#63b8ff" stroke="#63b8ff" points="1495.7,-214.76 1506.3,-214.61 1497.92,-208.12 1495.7,-214.76"/>
</a>
</g>
</g>
<!-- Node36 -->
<g id="Node000036" class="node">
<title>Node36</title>
<g id="a_Node000036"><a xlink:href="../../da/dd5/classTerraria_1_1Main_a8e23db199a88c74f61dba8141b3e1464.html#a8e23db199a88c74f61dba8141b3e1464" target="_top" xlink:title=" ">
<polygon fill="white" stroke="#666666" points="1426,-78 1282,-78 1282,-59 1426,-59 1426,-78"/>
<text text-anchor="middle" x="1354" y="-66" font-family="Helvetica,sans-Serif" font-size="10.00">Terraria.Main.SelectPlayer</text>
</a>
</g>
</g>
<!-- Node8&#45;&gt;Node36 -->
<g id="edge38_Node000008_Node000036" class="edge">
<title>Node8&#45;&gt;Node36</title>
<g id="a_edge38_Node000008_Node000036"><a xlink:title=" ">
<path fill="none" stroke="#63b8ff" d="M1496.67,-212.96C1489.87,-210.1 1483.5,-206.36 1478,-201.5 1438.19,-166.32 1481.24,-123.33 1442,-87.5 1437.32,-83.23 1431.91,-79.83 1426.11,-77.15"/>
<polygon fill="#63b8ff" stroke="#63b8ff" points="1495.57,-216.28 1506.16,-216.33 1497.91,-209.68 1495.57,-216.28"/>
</a>
</g>
</g>
<!-- Node10 -->
<g id="Node000010" class="node">
<title>Node10</title>
<g id="a_Node000010"><a xlink:href="../../da/dd5/classTerraria_1_1Main_acc7c7058447ffaab5490befcb8ff2bf4.html#acc7c7058447ffaab5490befcb8ff2bf4" target="_top" xlink:title=" ">
<polygon fill="white" stroke="#666666" points="1006.5,-389 881.5,-389 881.5,-370 1006.5,-370 1006.5,-389"/>
<text text-anchor="middle" x="944" y="-377" font-family="Helvetica,sans-Serif" font-size="10.00">Terraria.Main.DedServ</text>
</a>
</g>
</g>
<!-- Node9&#45;&gt;Node10 -->
<g id="edge9_Node000009_Node000010" class="edge">
<title>Node9&#45;&gt;Node10</title>
<g id="a_edge9_Node000009_Node000010"><a xlink:title=" ">
<path fill="none" stroke="#63b8ff" d="M1073.74,-379.5C1051.83,-379.5 1027.93,-379.5 1006.75,-379.5"/>
<polygon fill="#63b8ff" stroke="#63b8ff" points="1073.98,-383 1083.98,-379.5 1073.98,-376 1073.98,-383"/>
</a>
</g>
</g>
<!-- Node11&#45;&gt;Node9 -->
<g id="edge11_Node000011_Node000009" class="edge">
<title>Node11&#45;&gt;Node9</title>
<g id="a_edge11_Node000011_Node000009"><a xlink:title=" ">
<path fill="none" stroke="#63b8ff" d="M1299.92,-322.79C1288.54,-326.07 1276.72,-329.98 1266,-334.5 1248.93,-341.69 1247.02,-348.19 1230,-355.5 1222.32,-358.8 1214.06,-361.8 1205.83,-364.48"/>
<polygon fill="#63b8ff" stroke="#63b8ff" points="1301.07,-326.1 1309.77,-320.06 1299.2,-319.35 1301.07,-326.1"/>
</a>
</g>
</g>
<!-- Node12 -->
<g id="Node000012" class="node">
<title>Node12</title>
<g id="a_Node000012"><a xlink:href="../../da/dd5/classTerraria_1_1Main_ae7acc9fe7fb0914ed02aacdfdc9039c5.html#ae7acc9fe7fb0914ed02aacdfdc9039c5" target="_top" xlink:title=" ">
<polygon fill="white" stroke="#666666" points="1214.5,-346 1078.5,-346 1078.5,-327 1214.5,-327 1214.5,-346"/>
<text text-anchor="middle" x="1146.5" y="-334" font-family="Helvetica,sans-Serif" font-size="10.00">Terraria.Main.DrawMenu</text>
</a>
</g>
</g>
<!-- Node11&#45;&gt;Node12 -->
<g id="edge12_Node000011_Node000012" class="edge">
<title>Node11&#45;&gt;Node12</title>
<g id="a_edge12_Node000011_Node000012"><a xlink:title=" ">
<path fill="none" stroke="#63b8ff" d="M1274.67,-320.41C1254.92,-322.91 1233.9,-325.57 1214.76,-327.99"/>
<polygon fill="#63b8ff" stroke="#63b8ff" points="1275.38,-323.85 1284.86,-319.12 1274.5,-316.9 1275.38,-323.85"/>
</a>
</g>
</g>
<!-- Node13 -->
<g id="Node000013" class="node">
<title>Node13</title>
<g id="a_Node000013"><a xlink:href="../../da/dd5/classTerraria_1_1Main_a474beeecaea4d6dd108fba56cd554d46.html#a474beeecaea4d6dd108fba56cd554d46" target="_top" xlink:title=" ">
<polygon fill="white" stroke="#666666" points="1005,-327 883,-327 883,-308 1005,-308 1005,-327"/>
<text text-anchor="middle" x="944" y="-315" font-family="Helvetica,sans-Serif" font-size="10.00">Terraria.Main.DoDraw</text>
</a>
</g>
</g>
<!-- Node12&#45;&gt;Node13 -->
<g id="edge13_Node000012_Node000013" class="edge">
<title>Node12&#45;&gt;Node13</title>
<g id="a_edge13_Node000012_Node000013"><a xlink:title=" ">
<path fill="none" stroke="#63b8ff" d="M1068.32,-329.19C1047.4,-327.2 1025.07,-325.09 1005.23,-323.21"/>
<polygon fill="#63b8ff" stroke="#63b8ff" points="1068.17,-332.69 1078.46,-330.15 1068.83,-325.72 1068.17,-332.69"/>
</a>
</g>
</g>
<!-- Node14 -->
<g id="Node000014" class="node">
<title>Node14</title>
<g id="a_Node000014"><a xlink:href="../../da/dd5/classTerraria_1_1Main_aa597dbafa085227bb056d05d0b0f9abe.html#aa597dbafa085227bb056d05d0b0f9abe" target="_top" xlink:title=" ">
<polygon fill="white" stroke="#666666" points="779.5,-332.5 670.5,-332.5 670.5,-302.5 779.5,-302.5 779.5,-332.5"/>
<text text-anchor="start" x="678.5" y="-320.5" font-family="Helvetica,sans-Serif" font-size="10.00">Terraria.Main.Draw</text>
<text text-anchor="middle" x="725" y="-309.5" font-family="Helvetica,sans-Serif" font-size="10.00">_Inner</text>
</a>
</g>
</g>
<!-- Node13&#45;&gt;Node14 -->
<g id="edge14_Node000013_Node000014" class="edge">
<title>Node13&#45;&gt;Node14</title>
<g id="a_edge14_Node000013_Node000014"><a xlink:title=" ">
<path fill="none" stroke="#63b8ff" d="M872.77,-317.5C842.53,-317.5 807.73,-317.5 779.61,-317.5"/>
<polygon fill="#63b8ff" stroke="#63b8ff" points="872.84,-321 882.84,-317.5 872.84,-314 872.84,-321"/>
</a>
</g>
</g>
<!-- Node15 -->
<g id="Node000015" class="node">
<title>Node15</title>
<g id="a_Node000015"><a xlink:href="../../da/dd5/classTerraria_1_1Main_a516aa31311860bad4242ade32e5effcd.html#a516aa31311860bad4242ade32e5effcd" target="_top" xlink:title=" ">
<polygon fill="white" stroke="#666666" points="550,-327 441,-327 441,-308 550,-308 550,-327"/>
<text text-anchor="middle" x="495.5" y="-315" font-family="Helvetica,sans-Serif" font-size="10.00">Terraria.Main.Draw</text>
</a>
</g>
</g>
<!-- Node14&#45;&gt;Node15 -->
<g id="edge15_Node000014_Node000015" class="edge">
<title>Node14&#45;&gt;Node15</title>
<g id="a_edge15_Node000014_Node000015"><a xlink:title=" ">
<path fill="none" stroke="#63b8ff" d="M660.34,-317.5C625.64,-317.5 583.17,-317.5 550.16,-317.5"/>
<polygon fill="#63b8ff" stroke="#63b8ff" points="660.37,-321 670.37,-317.5 660.37,-314 660.37,-321"/>
</a>
</g>
</g>
<!-- Node17 -->
<g id="Node000017" class="node">
<title>Node17</title>
<g id="a_Node000017"><a xlink:href="../../da/dd5/classTerraria_1_1Main_aeb59718d838663ea500b4619b081d791.html#aeb59718d838663ea500b4619b081d791" target="_top" xlink:title=" ">
<polygon fill="white" stroke="#666666" points="1217,-309 1076,-309 1076,-290 1217,-290 1217,-309"/>
<text text-anchor="middle" x="1146.5" y="-297" font-family="Helvetica,sans-Serif" font-size="10.00">Terraria.Main.DrawSplash</text>
</a>
</g>
</g>
<!-- Node16&#45;&gt;Node17 -->
<g id="edge17_Node000016_Node000017" class="edge">
<title>Node16&#45;&gt;Node17</title>
<g id="a_edge17_Node000016_Node000017"><a xlink:title=" ">
<path fill="none" stroke="#63b8ff" d="M1281.36,-278.66C1257.69,-282.34 1231.58,-286.41 1208.76,-289.96"/>
<polygon fill="#63b8ff" stroke="#63b8ff" points="1282,-282.1 1291.34,-277.1 1280.92,-275.18 1282,-282.1"/>
</a>
</g>
</g>
<!-- Node18 -->
<g id="Node000018" class="node">
<title>Node18</title>
<g id="a_Node000018"><a xlink:href="../../da/dd5/classTerraria_1_1Main_aed4b6a8ad3e867bdb2bdcab2ab6ab0f9.html#aed4b6a8ad3e867bdb2bdcab2ab6ab0f9" target="_top" xlink:title=" ">
<polygon fill="white" stroke="#666666" points="1209,-272 1084,-272 1084,-253 1209,-253 1209,-272"/>
<text text-anchor="middle" x="1146.5" y="-260" font-family="Helvetica,sans-Serif" font-size="10.00">Terraria.Main.Initialize</text>
</a>
</g>
</g>
<!-- Node16&#45;&gt;Node18 -->
<g id="edge19_Node000016_Node000018" class="edge">
<title>Node16&#45;&gt;Node18</title>
<g id="a_edge19_Node000016_Node000018"><a xlink:title=" ">
<path fill="none" stroke="#63b8ff" d="M1281.09,-265.75C1257.61,-265.18 1231.77,-264.55 1209.11,-264"/>
<polygon fill="#63b8ff" stroke="#63b8ff" points="1281.26,-269.26 1291.34,-266 1281.43,-262.26 1281.26,-269.26"/>
</a>
</g>
</g>
<!-- Node17&#45;&gt;Node13 -->
<g id="edge18_Node000017_Node000013" class="edge">
<title>Node17&#45;&gt;Node13</title>
<g id="a_edge18_Node000017_Node000013"><a xlink:title=" ">
<path fill="none" stroke="#63b8ff" d="M1065.8,-306.66C1045.57,-308.47 1024.17,-310.39 1005.09,-312.11"/>
<polygon fill="#63b8ff" stroke="#63b8ff" points="1066.29,-310.13 1075.94,-305.75 1065.66,-303.15 1066.29,-310.13"/>
</a>
</g>
</g>
<!-- Node20 -->
<g id="Node000020" class="node">
<title>Node20</title>
<g id="a_Node000020"><a xlink:href="../../de/d13/classTerraria_1_1Initializers_1_1LaunchInitializer_a15722e7caa991f6b6793fd0a83c5a6c7.html#a15722e7caa991f6b6793fd0a83c5a6c7" target="_top" xlink:title=" ">
<polygon fill="white" stroke="#666666" points="1219,-234.5 1074,-234.5 1074,-204.5 1219,-204.5 1219,-234.5"/>
<text text-anchor="start" x="1082" y="-222.5" font-family="Helvetica,sans-Serif" font-size="10.00">Terraria.Initializers.Launch</text>
<text text-anchor="middle" x="1146.5" y="-211.5" font-family="Helvetica,sans-Serif" font-size="10.00">Initializer.LoadParameters</text>
</a>
</g>
</g>
<!-- Node19&#45;&gt;Node20 -->
<g id="edge21_Node000019_Node000020" class="edge">
<title>Node19&#45;&gt;Node20</title>
<g id="a_edge21_Node000019_Node000020"><a xlink:title=" ">
<path fill="none" stroke="#63b8ff" d="M1257.6,-219.5C1244.64,-219.5 1231.54,-219.5 1219.1,-219.5"/>
<polygon fill="#63b8ff" stroke="#63b8ff" points="1257.93,-223 1267.93,-219.5 1257.93,-216 1257.93,-223"/>
</a>
</g>
</g>
<!-- Node21 -->
<g id="Node000021" class="node">
<title>Node21</title>
<g id="a_Node000021"><a xlink:href="../../d9/daf/classTerraria_1_1Program_af6c00579600a216e018170de3614fc26.html#af6c00579600a216e018170de3614fc26" target="_top" xlink:title=" ">
<polygon fill="white" stroke="#666666" points="1018.5,-229 869.5,-229 869.5,-210 1018.5,-210 1018.5,-229"/>
<text text-anchor="middle" x="944" y="-217" font-family="Helvetica,sans-Serif" font-size="10.00">Terraria.Program.RunGame</text>
</a>
</g>
</g>
<!-- Node20&#45;&gt;Node21 -->
<g id="edge22_Node000020_Node000021" class="edge">
<title>Node20&#45;&gt;Node21</title>
<g id="a_edge22_Node000020_Node000021"><a xlink:title=" ">
<path fill="none" stroke="#63b8ff" d="M1063.72,-219.5C1048.76,-219.5 1033.24,-219.5 1018.54,-219.5"/>
<polygon fill="#63b8ff" stroke="#63b8ff" points="1063.96,-223 1073.96,-219.5 1063.96,-216 1063.96,-223"/>
</a>
</g>
</g>
<!-- Node22 -->
<g id="Node000022" class="node">
<title>Node22</title>
<g id="a_Node000022"><a xlink:href="../../d9/daf/classTerraria_1_1Program_a14d8143a984e1f2629bf39525465aab5.html#a14d8143a984e1f2629bf39525465aab5" target="_top" xlink:title=" ">
<polygon fill="white" stroke="#666666" points="810,-229 640,-229 640,-210 810,-210 810,-229"/>
<text text-anchor="middle" x="725" y="-217" font-family="Helvetica,sans-Serif" font-size="10.00">Terraria.Program.LaunchGame_</text>
</a>
</g>
</g>
<!-- Node21&#45;&gt;Node22 -->
<g id="edge23_Node000021_Node000022" class="edge">
<title>Node21&#45;&gt;Node22</title>
<g id="a_edge23_Node000021_Node000022"><a xlink:title=" ">
<path fill="none" stroke="#63b8ff" d="M858.83,-219.5C842.8,-219.5 826.04,-219.5 810.02,-219.5"/>
<polygon fill="#63b8ff" stroke="#63b8ff" points="859.23,-223 869.23,-219.5 859.23,-216 859.23,-223"/>
</a>
</g>
</g>
<!-- Node23 -->
<g id="Node000023" class="node">
<title>Node23</title>
<g id="a_Node000023"><a xlink:href="../../d9/daf/classTerraria_1_1Program_ac7cb5c95fd3efd53cdfb49df17b19967.html#ac7cb5c95fd3efd53cdfb49df17b19967" target="_top" xlink:title=" ">
<polygon fill="white" stroke="#666666" points="577.5,-229 413.5,-229 413.5,-210 577.5,-210 577.5,-229"/>
<text text-anchor="middle" x="495.5" y="-217" font-family="Helvetica,sans-Serif" font-size="10.00">Terraria.Program.LaunchGame</text>
</a>
</g>
</g>
<!-- Node22&#45;&gt;Node23 -->
<g id="edge24_Node000022_Node000023" class="edge">
<title>Node22&#45;&gt;Node23</title>
<g id="a_edge24_Node000022_Node000023"><a xlink:title=" ">
<path fill="none" stroke="#63b8ff" d="M629.81,-219.5C612.46,-219.5 594.49,-219.5 577.57,-219.5"/>
<polygon fill="#63b8ff" stroke="#63b8ff" points="629.93,-223 639.93,-219.5 629.93,-216 629.93,-223"/>
</a>
</g>
</g>
<!-- Node24 -->
<g id="Node000024" class="node">
<title>Node24</title>
<g id="a_Node000024"><a xlink:href="../../d1/d9a/classTerraria_1_1MonoLaunch_a271141011b415c3c7ae1d15e089f4462.html#a271141011b415c3c7ae1d15e089f4462" target="_top" xlink:title=" ">
<polygon fill="white" stroke="#666666" points="357.5,-229 189.5,-229 189.5,-210 357.5,-210 357.5,-229"/>
<text text-anchor="middle" x="273.5" y="-217" font-family="Helvetica,sans-Serif" font-size="10.00">Terraria.MonoLaunch.Main_End</text>
</a>
</g>
</g>
<!-- Node23&#45;&gt;Node24 -->
<g id="edge25_Node000023_Node000024" class="edge">
<title>Node23&#45;&gt;Node24</title>
<g id="a_edge25_Node000023_Node000024"><a xlink:title=" ">
<path fill="none" stroke="#63b8ff" d="M402.91,-219.5C387.91,-219.5 372.45,-219.5 357.67,-219.5"/>
<polygon fill="#63b8ff" stroke="#63b8ff" points="403.21,-223 413.21,-219.5 403.21,-216 403.21,-223"/>
</a>
</g>
</g>
<!-- Node25 -->
<g id="Node000025" class="node">
<title>Node25</title>
<g id="a_Node000025"><a xlink:href="../../d1/d9a/classTerraria_1_1MonoLaunch_a1ce3ddd41bea11cf917cc4501d50727c.html#a1ce3ddd41bea11cf917cc4501d50727c" target="_top" xlink:title=" ">
<polygon fill="white" stroke="#666666" points="145,-229 0,-229 0,-210 145,-210 145,-229"/>
<text text-anchor="middle" x="72.5" y="-217" font-family="Helvetica,sans-Serif" font-size="10.00">Terraria.MonoLaunch.Main</text>
</a>
</g>
</g>
<!-- Node24&#45;&gt;Node25 -->
<g id="edge26_Node000024_Node000025" class="edge">
<title>Node24&#45;&gt;Node25</title>
<g id="a_edge26_Node000024_Node000025"><a xlink:title=" ">
<path fill="none" stroke="#63b8ff" d="M179.21,-219.5C167.72,-219.5 156.13,-219.5 145.04,-219.5"/>
<polygon fill="#63b8ff" stroke="#63b8ff" points="179.26,-223 189.26,-219.5 179.26,-216 179.26,-223"/>
</a>
</g>
</g>
<!-- Node28 -->
<g id="Node000028" class="node">
<title>Node28</title>
<g id="a_Node000028"><a xlink:href="../../d4/d90/classTerraria_1_1GameContent_1_1UI_1_1States_1_1UIWorkshopSelectWorldToPublish_a964db6040ecead1336a501773709edb6.html#a964db6040ecead1336a501773709edb6" target="_top" xlink:title=" ">
<polygon fill="white" stroke="#666666" points="1230,-186 1063,-186 1063,-145 1230,-145 1230,-186"/>
<text text-anchor="start" x="1071" y="-174" font-family="Helvetica,sans-Serif" font-size="10.00">Terraria.GameContent.UI.</text>
<text text-anchor="start" x="1071" y="-163" font-family="Helvetica,sans-Serif" font-size="10.00">States.UIWorkshopSelectWorld</text>
<text text-anchor="middle" x="1146.5" y="-152" font-family="Helvetica,sans-Serif" font-size="10.00">ToPublish.OnActivate</text>
</a>
</g>
</g>
<!-- Node27&#45;&gt;Node28 -->
<g id="edge30_Node000027_Node000028" class="edge">
<title>Node27&#45;&gt;Node28</title>
<g id="a_edge30_Node000027_Node000028"><a xlink:title=" ">
<path fill="none" stroke="#63b8ff" d="M1260.28,-165.5C1250.19,-165.5 1239.98,-165.5 1230.03,-165.5"/>
<polygon fill="#63b8ff" stroke="#63b8ff" points="1260.3,-169 1270.3,-165.5 1260.3,-162 1260.3,-169"/>
</a>
</g>
</g>
<!-- Node30 -->
<g id="Node000030" class="node">
<title>Node30</title>
<g id="a_Node000030"><a xlink:href="../../de/da1/classTerraria_1_1WorldGen_aeba77f3de7033850ffa317bc9613a82d.html#aeba77f3de7033850ffa317bc9613a82d" target="_top" xlink:title=" ">
<polygon fill="white" stroke="#666666" points="1220,-126.5 1073,-126.5 1073,-96.5 1220,-96.5 1220,-126.5"/>
<text text-anchor="start" x="1081" y="-114.5" font-family="Helvetica,sans-Serif" font-size="10.00">Terraria.WorldGen.Rename</text>
<text text-anchor="middle" x="1146.5" y="-103.5" font-family="Helvetica,sans-Serif" font-size="10.00">World</text>
</a>
</g>
</g>
<!-- Node29&#45;&gt;Node30 -->
<g id="edge32_Node000029_Node000030" class="edge">
<title>Node29&#45;&gt;Node30</title>
<g id="a_edge32_Node000029_Node000030"><a xlink:title=" ">
<path fill="none" stroke="#63b8ff" d="M1270.07,-111.5C1253.54,-111.5 1236.3,-111.5 1220.14,-111.5"/>
<polygon fill="#63b8ff" stroke="#63b8ff" points="1270.26,-115 1280.26,-111.5 1270.26,-108 1270.26,-115"/>
</a>
</g>
</g>
<!-- Node31 -->
<g id="Node000031" class="node">
<title>Node31</title>
<g id="a_Node000031"><a xlink:href="../../d5/d02/classTerraria_1_1IO_1_1WorldFileData_a4e951b85d278afe66f86cc49bf88d1ab.html#a4e951b85d278afe66f86cc49bf88d1ab" target="_top" xlink:title=" ">
<polygon fill="white" stroke="#666666" points="1014.5,-174.5 873.5,-174.5 873.5,-144.5 1014.5,-144.5 1014.5,-174.5"/>
<text text-anchor="start" x="881.5" y="-162.5" font-family="Helvetica,sans-Serif" font-size="10.00">Terraria.IO.WorldFileData.</text>
<text text-anchor="middle" x="944" y="-151.5" font-family="Helvetica,sans-Serif" font-size="10.00">CopyToLocal</text>
</a>
</g>
</g>
<!-- Node30&#45;&gt;Node31 -->
<g id="edge33_Node000030_Node000031" class="edge">
<title>Node30&#45;&gt;Node31</title>
<g id="a_edge33_Node000030_Node000031"><a xlink:title=" ">
<path fill="none" stroke="#63b8ff" d="M1072.64,-128.94C1051.35,-134.04 1028.27,-139.57 1007.67,-144.5"/>
<polygon fill="#63b8ff" stroke="#63b8ff" points="1073.7,-132.29 1082.61,-126.56 1072.07,-125.48 1073.7,-132.29"/>
</a>
</g>
</g>
<!-- Node32 -->
<g id="Node000032" class="node">
<title>Node32</title>
<g id="a_Node000032"><a xlink:href="../../d5/d02/classTerraria_1_1IO_1_1WorldFileData_ac66c304860f25b9bdfdcc969acf1512b.html#ac66c304860f25b9bdfdcc969acf1512b" target="_top" xlink:title=" ">
<polygon fill="white" stroke="#666666" points="1014.5,-126.5 873.5,-126.5 873.5,-96.5 1014.5,-96.5 1014.5,-126.5"/>
<text text-anchor="start" x="881.5" y="-114.5" font-family="Helvetica,sans-Serif" font-size="10.00">Terraria.IO.WorldFileData.</text>
<text text-anchor="middle" x="944" y="-103.5" font-family="Helvetica,sans-Serif" font-size="10.00">Rename</text>
</a>
</g>
</g>
<!-- Node30&#45;&gt;Node32 -->
<g id="edge34_Node000030_Node000032" class="edge">
<title>Node30&#45;&gt;Node32</title>
<g id="a_edge34_Node000030_Node000032"><a xlink:title=" ">
<path fill="none" stroke="#63b8ff" d="M1062.5,-111.5C1046.62,-111.5 1030.15,-111.5 1014.74,-111.5"/>
<polygon fill="#63b8ff" stroke="#63b8ff" points="1062.83,-115 1072.83,-111.5 1062.83,-108 1062.83,-115"/>
</a>
</g>
</g>
<!-- Node33 -->
<g id="Node000033" class="node">
<title>Node33</title>
<g id="a_Node000033"><a xlink:href="../../d4/d21/classTerraria_1_1GameContent_1_1UI_1_1Elements_1_1UIWorldListItem_ad6662308e196d3d6c7cc81ebadce097d.html#ad6662308e196d3d6c7cc81ebadce097d" target="_top" xlink:title=" ">
<polygon fill="white" stroke="#666666" points="825,-132 625,-132 625,-91 825,-91 825,-132"/>
<text text-anchor="start" x="633" y="-120" font-family="Helvetica,sans-Serif" font-size="10.00">Terraria.GameContent.UI.</text>
<text text-anchor="start" x="633" y="-109" font-family="Helvetica,sans-Serif" font-size="10.00">Elements.UIWorldListItem.OnFinished</text>
<text text-anchor="middle" x="725" y="-98" font-family="Helvetica,sans-Serif" font-size="10.00">SettingName</text>
</a>
</g>
</g>
<!-- Node32&#45;&gt;Node33 -->
<g id="edge35_Node000032_Node000033" class="edge">
<title>Node32&#45;&gt;Node33</title>
<g id="a_edge35_Node000032_Node000033"><a xlink:title=" ">
<path fill="none" stroke="#63b8ff" d="M863.2,-111.5C850.83,-111.5 837.93,-111.5 825.2,-111.5"/>
<polygon fill="#63b8ff" stroke="#63b8ff" points="863.44,-115 873.44,-111.5 863.44,-108 863.44,-115"/>
</a>
</g>
</g>
<!-- Node34 -->
<g id="Node000034" class="node">
<title>Node34</title>
<g id="a_Node000034"><a xlink:href="../../d4/d21/classTerraria_1_1GameContent_1_1UI_1_1Elements_1_1UIWorldListItem_a6f2bf1bc708114c0463d02cf0deb7199.html#a6f2bf1bc708114c0463d02cf0deb7199" target="_top" xlink:title=" ">
<polygon fill="white" stroke="#666666" points="589,-132 402,-132 402,-91 589,-91 589,-132"/>
<text text-anchor="start" x="410" y="-120" font-family="Helvetica,sans-Serif" font-size="10.00">Terraria.GameContent.UI.</text>
<text text-anchor="start" x="410" y="-109" font-family="Helvetica,sans-Serif" font-size="10.00">Elements.UIWorldListItem.Rename</text>
<text text-anchor="middle" x="495.5" y="-98" font-family="Helvetica,sans-Serif" font-size="10.00">ButtonClick</text>
</a>
</g>
</g>
<!-- Node33&#45;&gt;Node34 -->
<g id="edge36_Node000033_Node000034" class="edge">
<title>Node33&#45;&gt;Node34</title>
<g id="a_edge36_Node000033_Node000034"><a xlink:title=" ">
<path fill="none" stroke="#63b8ff" d="M614.84,-111.5C606.26,-111.5 597.65,-111.5 589.19,-111.5"/>
<polygon fill="#63b8ff" stroke="#63b8ff" points="614.88,-115 624.88,-111.5 614.88,-108 614.88,-115"/>
</a>
</g>
</g>
<!-- Node35 -->
<g id="Node000035" class="node">
<title>Node35</title>
<g id="a_Node000035"><a xlink:href="../../d4/d21/classTerraria_1_1GameContent_1_1UI_1_1Elements_1_1UIWorldListItem_acd0e5dd4f12948236126edd407c8a635.html#acd0e5dd4f12948236126edd407c8a635" target="_top" xlink:title=" ">
<polygon fill="white" stroke="#666666" points="366,-132 181,-132 181,-91 366,-91 366,-132"/>
<text text-anchor="start" x="189" y="-120" font-family="Helvetica,sans-Serif" font-size="10.00">Terraria.GameContent.UI.</text>
<text text-anchor="start" x="189" y="-109" font-family="Helvetica,sans-Serif" font-size="10.00">Elements.UIWorldListItem.UIWorld</text>
<text text-anchor="middle" x="273.5" y="-98" font-family="Helvetica,sans-Serif" font-size="10.00">ListItem</text>
</a>
</g>
</g>
<!-- Node34&#45;&gt;Node35 -->
<g id="edge37_Node000034_Node000035" class="edge">
<title>Node34&#45;&gt;Node35</title>
<g id="a_edge37_Node000034_Node000035"><a xlink:title=" ">
<path fill="none" stroke="#63b8ff" d="M391.6,-111.5C383.17,-111.5 374.69,-111.5 366.35,-111.5"/>
<polygon fill="#63b8ff" stroke="#63b8ff" points="391.84,-115 401.84,-111.5 391.84,-108 391.84,-115"/>
</a>
</g>
</g>
<!-- Node37 -->
<g id="Node000037" class="node">
<title>Node37</title>
<g id="a_Node000037"><a xlink:href="../../d8/d13/classTerraria_1_1GameContent_1_1UI_1_1Elements_1_1UICharacterListItem_a340caf28f2ffe89144b036695ef7e860.html#a340caf28f2ffe89144b036695ef7e860" target="_top" xlink:title=" ">
<polygon fill="white" stroke="#666666" points="1229.5,-78 1063.5,-78 1063.5,-37 1229.5,-37 1229.5,-78"/>
<text text-anchor="start" x="1071.5" y="-66" font-family="Helvetica,sans-Serif" font-size="10.00">Terraria.GameContent.UI.</text>
<text text-anchor="start" x="1071.5" y="-55" font-family="Helvetica,sans-Serif" font-size="10.00">Elements.UICharacterListItem.</text>
<text text-anchor="middle" x="1146.5" y="-44" font-family="Helvetica,sans-Serif" font-size="10.00">PlayGame</text>
</a>
</g>
</g>
<!-- Node36&#45;&gt;Node37 -->
<g id="edge39_Node000036_Node000037" class="edge">
<title>Node36&#45;&gt;Node37</title>
<g id="a_edge39_Node000036_Node000037"><a xlink:title=" ">
<path fill="none" stroke="#63b8ff" d="M1271.6,-64.14C1257.86,-63.41 1243.58,-62.64 1229.81,-61.91"/>
<polygon fill="#63b8ff" stroke="#63b8ff" points="1271.82,-67.66 1281.99,-64.7 1272.19,-60.67 1271.82,-67.66"/>
</a>
</g>
</g>
<!-- Node38 -->
<g id="Node000038" class="node">
<title>Node38</title>
<g id="a_Node000038"><a xlink:href="../../d8/d13/classTerraria_1_1GameContent_1_1UI_1_1Elements_1_1UICharacterListItem_a84c7d2bebc258bb2126ce4847c484e99.html#a84c7d2bebc258bb2126ce4847c484e99" target="_top" xlink:title=" ">
<polygon fill="white" stroke="#666666" points="1027,-78 861,-78 861,-37 1027,-37 1027,-78"/>
<text text-anchor="start" x="869" y="-66" font-family="Helvetica,sans-Serif" font-size="10.00">Terraria.GameContent.UI.</text>
<text text-anchor="start" x="869" y="-55" font-family="Helvetica,sans-Serif" font-size="10.00">Elements.UICharacterListItem.</text>
<text text-anchor="middle" x="944" y="-44" font-family="Helvetica,sans-Serif" font-size="10.00">UICharacterListItem</text>
</a>
</g>
</g>
<!-- Node37&#45;&gt;Node38 -->
<g id="edge40_Node000037_Node000038" class="edge">
<title>Node37&#45;&gt;Node38</title>
<g id="a_edge40_Node000037_Node000038"><a xlink:title=" ">
<path fill="none" stroke="#63b8ff" d="M1053.17,-57.5C1044.44,-57.5 1035.63,-57.5 1027,-57.5"/>
<polygon fill="#63b8ff" stroke="#63b8ff" points="1053.37,-61 1063.37,-57.5 1053.37,-54 1053.37,-61"/>
</a>
</g>
</g>
<!-- Node40&#45;&gt;Node26 -->
<g id="edge43_Node000040_Node000026" class="edge">
<title>Node40&#45;&gt;Node26</title>
<g id="a_edge43_Node000040_Node000026"><a xlink:title=" ">
<path fill="none" stroke="#63b8ff" d="M1485.95,-54.35C1468.91,-49.95 1451.19,-45.37 1434.49,-41.05"/>
<polygon fill="#63b8ff" stroke="#63b8ff" points="1485.34,-57.81 1495.89,-56.92 1487.09,-51.03 1485.34,-57.81"/>
</a>
</g>
</g>
</g>
</svg>

<g id="navigator" transform="translate(0 0)" fill="#404254">
  <rect fill="#f2f5e9" fill-opacity="0.5" stroke="#606060" stroke-width=".5" x="0" y="0" width="60" height="60"/>
  <use id="zoomplus" xlink:href="#zoomPlus" x="17" y="9" onmousedown="handleZoom(evt,'in')"/>
  <use id="zoomminus" xlink:href="#zoomMin" x="42" y="9" onmousedown="handleZoom(evt,'out')"/>
  <use id="reset" xlink:href="#resetDef" x="30" y="36" onmousedown="handleReset()"/>
   <use id="arrowup" xlink:href="#arrowUp" x="0" y="0" onmousedown="handlePan(0,-1)"/>
  <use id="arrowright" xlink:href="#arrowRight" x="0" y="0" onmousedown="handlePan(1,0)"/>
  <use id="arrowdown" xlink:href="#arrowDown" x="0" y="0" onmousedown="handlePan(0,1)"/>
  <use id="arrowleft" xlink:href="#arrowLeft" x="0" y="0" onmousedown="handlePan(-1,0)"/>
</g>
<svg viewBox="0 0 15 15" width="100%" height="30px" preserveAspectRatio="xMaxYMin meet">
 <g id="arrow_out" transform="scale(0.3 0.3)">
  <a xlink:href="classTerraria_1_1ModLoader_1_1IO_1_1WorldIO_abe1075115a426866fd38e42adaf9c211_abe1075115a426866fd38e42adaf9c211_icgraph_org.svg" target="_base">
   <rect id="button" ry="5" rx="5" y="6" x="6" height="38" width="38"
        fill="#f2f5e9" fill-opacity="0.5" stroke="#606060" stroke-width="1.0"/>
   <path id="arrow"
     d="M 11.500037,31.436501 C 11.940474,20.09759 22.043105,11.32322 32.158766,21.979434 L 37.068811,17.246167 C 37.068811,17.246167 37.088388,32 37.088388,32 L 22.160133,31.978069 C 22.160133,31.978069 26.997745,27.140456 26.997745,27.140456 C 18.528582,18.264221 13.291696,25.230495 11.500037,31.436501 z"
     style="fill:#404040;"/>
  </a>
 </g>
</svg>

<style type='text/css'>
<![CDATA[
[data-mouse-over-selected='false'] { opacity: 0.7; }
[data-mouse-over-selected='true']  { opacity: 1.0; }
]]>
</style>
<script type="application/ecmascript"><![CDATA[
document.addEventListener('DOMContentLoaded', (event) => {
  highlightEdges();
  highlightAdjacentNodes();
});
]]></script>
</svg>
