<?xml version="1.0" encoding="UTF-8" standalone="no"?>
<!DOCTYPE svg PUBLIC "-//W3C//DTD SVG 1.1//EN"
 "http://www.w3.org/Graphics/SVG/1.1/DTD/svg11.dtd">
<!-- Generated by graphviz version 2.43.0 (0)
 -->
<!-- Title: Terraria.WorldBuilding.Conditions.IsTile Pages: 1 -->
<svg width="399pt" height="501pt"
 viewBox="0.00 0.00 398.50 501.00" xmlns="http://www.w3.org/2000/svg" xmlns:xlink="http://www.w3.org/1999/xlink">
<g id="graph0" class="graph" transform="scale(1 1) rotate(0) translate(4 497)">
<title>Terraria.WorldBuilding.Conditions.IsTile</title>
<!-- Node1 -->
<g id="Node000001" class="node">
<title>Node1</title>
<g id="a_Node000001"><a xlink:title=" ">
<polygon fill="#999999" stroke="transparent" points="386.5,-97 210.5,-97 210.5,0 386.5,0 386.5,-97"/>
<text text-anchor="start" x="215.5" y="-84.5" font-family="Helvetica,sans-Serif" font-size="10.00">Terraria.WorldBuilding.Conditions.</text>
<text text-anchor="start" x="285" y="-73.5" font-family="Helvetica,sans-Serif" font-size="10.00">IsTile</text>
<text text-anchor="start" x="296.5" y="-58.5" font-family="Helvetica,sans-Serif" font-size="10.00"> </text>
<text text-anchor="start" x="219.5" y="-43.5" font-family="Helvetica,sans-Serif" font-size="10.00">+</text>
<text text-anchor="start" x="237.5" y="-43.5" font-family="Helvetica,sans-Serif" font-size="10.00">IsTile(params ushort</text>
<text text-anchor="start" x="237.5" y="-32.5" font-family="Helvetica,sans-Serif" font-size="10.00">[] types)</text>
<text text-anchor="start" x="219.5" y="-17.5" font-family="Helvetica,sans-Serif" font-size="10.00">#</text>
<text text-anchor="start" x="237.5" y="-17.5" font-family="Helvetica,sans-Serif" font-size="10.00">override bool CheckValidity</text>
<text text-anchor="start" x="237.5" y="-6.5" font-family="Helvetica,sans-Serif" font-size="10.00">(int x, int y)</text>
<polygon fill="#666666" stroke="#666666" points="210.5,-68.5 210.5,-68.5 386.5,-68.5 386.5,-68.5 210.5,-68.5"/>
<polygon fill="#666666" stroke="#666666" points="210.5,-53.5 210.5,-53.5 386.5,-53.5 386.5,-53.5 210.5,-53.5"/>
<polygon fill="none" stroke="#666666" points="210.5,0 210.5,-97 386.5,-97 386.5,0 210.5,0"/>
</a>
</g>
</g>
<!-- Node2 -->
<g id="Node000002" class="node">
<title>Node2</title>
<g id="a_Node000002"><a xlink:href="../../d1/dc5/classTerraria_1_1WorldBuilding_1_1GenCondition.html" target="_top" xlink:title=" ">
<polygon fill="white" stroke="transparent" points="312.5,-297 180.5,-297 180.5,-144 312.5,-144 312.5,-297"/>
<text text-anchor="start" x="213" y="-284.5" font-family="Helvetica,sans-Serif" font-size="10.00">GenCondition</text>
<text text-anchor="start" x="244.5" y="-269.5" font-family="Helvetica,sans-Serif" font-size="10.00"> </text>
<text text-anchor="start" x="184.5" y="-254.5" font-family="Helvetica,sans-Serif" font-size="10.00">+</text>
<text text-anchor="start" x="197.5" y="-254.5" font-family="Helvetica,sans-Serif" font-size="10.00">bool IsValid(int x,</text>
<text text-anchor="start" x="197.5" y="-243.5" font-family="Helvetica,sans-Serif" font-size="10.00"> int y)</text>
<text text-anchor="start" x="184.5" y="-228.5" font-family="Helvetica,sans-Serif" font-size="10.00">+</text>
<text text-anchor="start" x="197.5" y="-228.5" font-family="Helvetica,sans-Serif" font-size="10.00">GenCondition Not()</text>
<text text-anchor="start" x="184.5" y="-213.5" font-family="Helvetica,sans-Serif" font-size="10.00">+</text>
<text text-anchor="start" x="197.5" y="-213.5" font-family="Helvetica,sans-Serif" font-size="10.00">GenCondition AreaOr</text>
<text text-anchor="start" x="197.5" y="-202.5" font-family="Helvetica,sans-Serif" font-size="10.00">(int width, int height)</text>
<text text-anchor="start" x="184.5" y="-187.5" font-family="Helvetica,sans-Serif" font-size="10.00">+</text>
<text text-anchor="start" x="197.5" y="-187.5" font-family="Helvetica,sans-Serif" font-size="10.00">GenCondition AreaAnd</text>
<text text-anchor="start" x="197.5" y="-176.5" font-family="Helvetica,sans-Serif" font-size="10.00">(int width, int height)</text>
<text text-anchor="start" x="184.5" y="-161.5" font-family="Helvetica,sans-Serif" font-size="10.00">#</text>
<text text-anchor="start" x="197.5" y="-161.5" font-family="Helvetica,sans-Serif" font-size="10.00">bool CheckValidity</text>
<text text-anchor="start" x="197.5" y="-150.5" font-family="Helvetica,sans-Serif" font-size="10.00">(int x, int y)</text>
<polygon fill="#666666" stroke="#666666" points="180.5,-279.5 180.5,-279.5 312.5,-279.5 312.5,-279.5 180.5,-279.5"/>
<polygon fill="#666666" stroke="#666666" points="180.5,-264.5 180.5,-264.5 312.5,-264.5 312.5,-264.5 180.5,-264.5"/>
<polygon fill="none" stroke="#666666" points="180.5,-144 180.5,-297 312.5,-297 312.5,-144 180.5,-144"/>
</a>
</g>
</g>
<!-- Node2&#45;&gt;Node1 -->
<g id="edge1_Node000001_Node000002" class="edge">
<title>Node2&#45;&gt;Node1</title>
<g id="a_edge1_Node000001_Node000002"><a xlink:title=" ">
<path fill="none" stroke="#63b8ff" d="M272.56,-134.29C276.43,-121.64 280.3,-109 283.82,-97.49"/>
<polygon fill="none" stroke="#63b8ff" points="269.19,-133.36 269.61,-143.95 275.88,-135.41 269.19,-133.36"/>
</a>
</g>
</g>
<!-- Node3 -->
<g id="Node000003" class="node">
<title>Node3</title>
<g id="a_Node000003"><a xlink:href="../../d4/dd6/classTerraria_1_1WorldBuilding_1_1GenBase.html" target="_top" xlink:title=" ">
<polygon fill="white" stroke="transparent" points="165,-493 0,-493 0,-355 165,-355 165,-493"/>
<text text-anchor="start" x="61" y="-481" font-family="Helvetica,sans-Serif" font-size="10.00">GenBase</text>
<text text-anchor="start" x="4.5" y="-466" font-family="Helvetica,sans-Serif" font-size="10.00">+</text>
<text text-anchor="start" x="17.5" y="-466" font-family="Helvetica,sans-Serif" font-size="10.00">static UnifiedRandom</text>
<text text-anchor="start" x="17.5" y="-455" font-family="Helvetica,sans-Serif" font-size="10.00"> _random</text>
<text text-anchor="start" x="4.5" y="-440" font-family="Helvetica,sans-Serif" font-size="10.00">+</text>
<text text-anchor="start" x="17.5" y="-440" font-family="Helvetica,sans-Serif" font-size="10.00">static ref Tilemap</text>
<text text-anchor="start" x="17.5" y="-429" font-family="Helvetica,sans-Serif" font-size="10.00"> _tiles</text>
<text text-anchor="start" x="4.5" y="-414" font-family="Helvetica,sans-Serif" font-size="10.00">+</text>
<text text-anchor="start" x="17.5" y="-414" font-family="Helvetica,sans-Serif" font-size="10.00">static int _worldWidth</text>
<text text-anchor="start" x="4.5" y="-399" font-family="Helvetica,sans-Serif" font-size="10.00">+</text>
<text text-anchor="start" x="17.5" y="-399" font-family="Helvetica,sans-Serif" font-size="10.00">static int _worldHeight</text>
<text text-anchor="start" x="4.5" y="-384" font-family="Helvetica,sans-Serif" font-size="10.00">+</text>
<text text-anchor="start" x="17.5" y="-384" font-family="Helvetica,sans-Serif" font-size="10.00">delegate bool CustomPerUnit</text>
<text text-anchor="start" x="17.5" y="-373" font-family="Helvetica,sans-Serif" font-size="10.00">Action(int x, int y, params</text>
<text text-anchor="start" x="17.5" y="-362" font-family="Helvetica,sans-Serif" font-size="10.00"> object[] args)</text>
<polygon fill="#666666" stroke="#666666" points="0.5,-476 0.5,-476 165.5,-476 165.5,-476 0.5,-476"/>
<polygon fill="#666666" stroke="#666666" points="0.5,-394 0.5,-394 15.5,-394 15.5,-394 0.5,-394"/>
<polygon fill="#666666" stroke="#666666" points="15.5,-394 15.5,-394 165.5,-394 165.5,-394 15.5,-394"/>
<polygon fill="none" stroke="#666666" points="0,-355 0,-493 165,-493 165,-355 0,-355"/>
</a>
</g>
</g>
<!-- Node3&#45;&gt;Node2 -->
<g id="edge2_Node000002_Node000003" class="edge">
<title>Node3&#45;&gt;Node2</title>
<g id="a_edge2_Node000002_Node000003"><a xlink:title=" ">
<path fill="none" stroke="#63b8ff" d="M144.45,-346.89C157.67,-330.65 171.63,-313.49 184.83,-297.27"/>
<polygon fill="none" stroke="#63b8ff" points="141.62,-344.82 138.02,-354.78 147.05,-349.23 141.62,-344.82"/>
</a>
</g>
</g>
<!-- Node4 -->
<g id="Node000004" class="node">
<title>Node4</title>
<g id="a_Node000004"><a xlink:title=" ">
<polygon fill="white" stroke="transparent" points="215.5,-448.5 183.5,-448.5 183.5,-399.5 215.5,-399.5 215.5,-448.5"/>
<text text-anchor="start" x="188.5" y="-436" font-family="Helvetica,sans-Serif" font-size="10.00">bool</text>
<text text-anchor="start" x="197.5" y="-421" font-family="Helvetica,sans-Serif" font-size="10.00"> </text>
<text text-anchor="start" x="197.5" y="-406" font-family="Helvetica,sans-Serif" font-size="10.00"> </text>
<polygon fill="#666666" stroke="#666666" points="183.5,-431 183.5,-431 215.5,-431 215.5,-431 183.5,-431"/>
<polygon fill="#666666" stroke="#666666" points="183.5,-416 183.5,-416 215.5,-416 215.5,-416 183.5,-416"/>
<polygon fill="none" stroke="#666666" points="183.5,-399.5 183.5,-448.5 215.5,-448.5 215.5,-399.5 183.5,-399.5"/>
</a>
</g>
</g>
<!-- Node4&#45;&gt;Node2 -->
<g id="edge3_Node000002_Node000004" class="edge">
<title>Node4&#45;&gt;Node2</title>
<g id="a_edge3_Node000002_Node000004"><a xlink:title=" ">
<path fill="none" stroke="#63b8ff" d="M196.74,-399.46C194.85,-377.34 193.74,-343.46 200.5,-315 200.98,-312.97 201.51,-310.94 202.09,-308.9"/>
<polygon fill="none" stroke="#63b8ff" points="202.16,-308.68 200.19,-301.74 205.83,-297.25 207.8,-304.19 202.16,-308.68"/>
</a>
</g>
<text text-anchor="middle" x="236.5" y="-323.5" font-family="Helvetica,sans-Serif" font-size="10.00" fill="grey"> &#45;InvertResults</text>
</g>
<!-- Node5 -->
<g id="Node000005" class="node">
<title>Node5</title>
<g id="a_Node000005"><a xlink:title=" ">
<polygon fill="white" stroke="transparent" points="306,-448.5 283,-448.5 283,-399.5 306,-399.5 306,-448.5"/>
<text text-anchor="start" x="288.5" y="-436" font-family="Helvetica,sans-Serif" font-size="10.00">int</text>
<text text-anchor="start" x="293" y="-421" font-family="Helvetica,sans-Serif" font-size="10.00"> </text>
<text text-anchor="start" x="293" y="-406" font-family="Helvetica,sans-Serif" font-size="10.00"> </text>
<polygon fill="#666666" stroke="#666666" points="283.5,-431 283.5,-431 306.5,-431 306.5,-431 283.5,-431"/>
<polygon fill="#666666" stroke="#666666" points="283.5,-416 283.5,-416 306.5,-416 306.5,-416 283.5,-416"/>
<polygon fill="none" stroke="#666666" points="283,-399.5 283,-448.5 306,-448.5 306,-399.5 283,-399.5"/>
</a>
</g>
</g>
<!-- Node5&#45;&gt;Node2 -->
<g id="edge4_Node000002_Node000005" class="edge">
<title>Node5&#45;&gt;Node2</title>
<g id="a_edge4_Node000002_Node000005"><a xlink:title=" ">
<path fill="none" stroke="#63b8ff" d="M290.17,-399.3C286.04,-377.35 279.44,-343.84 272.5,-315 272.02,-313 271.52,-310.98 271.02,-308.94"/>
<polygon fill="none" stroke="#63b8ff" points="270.98,-308.79 265.63,-303.96 268.02,-297.16 273.38,-301.99 270.98,-308.79"/>
</a>
</g>
<text text-anchor="middle" x="299" y="-329" font-family="Helvetica,sans-Serif" font-size="10.00" fill="grey"> &#45;_height</text>
<text text-anchor="middle" x="299" y="-318" font-family="Helvetica,sans-Serif" font-size="10.00" fill="grey">&#45;_width</text>
</g>
<!-- Node6 -->
<g id="Node000006" class="node">
<title>Node6</title>
<g id="a_Node000006"><a xlink:title=" ">
<polygon fill="white" stroke="transparent" points="388.5,-448.5 332.5,-448.5 332.5,-399.5 388.5,-399.5 388.5,-448.5"/>
<text text-anchor="start" x="337.5" y="-436" font-family="Helvetica,sans-Serif" font-size="10.00">AreaType</text>
<text text-anchor="start" x="358.5" y="-421" font-family="Helvetica,sans-Serif" font-size="10.00"> </text>
<text text-anchor="start" x="358.5" y="-406" font-family="Helvetica,sans-Serif" font-size="10.00"> </text>
<polygon fill="#666666" stroke="#666666" points="332.5,-431 332.5,-431 388.5,-431 388.5,-431 332.5,-431"/>
<polygon fill="#666666" stroke="#666666" points="332.5,-416 332.5,-416 388.5,-416 388.5,-416 332.5,-416"/>
<polygon fill="none" stroke="#666666" points="332.5,-399.5 332.5,-448.5 388.5,-448.5 388.5,-399.5 332.5,-399.5"/>
</a>
</g>
</g>
<!-- Node6&#45;&gt;Node2 -->
<g id="edge5_Node000002_Node000006" class="edge">
<title>Node6&#45;&gt;Node2</title>
<g id="a_edge5_Node000002_Node000006"><a xlink:title=" ">
<path fill="none" stroke="#63b8ff" d="M355.29,-399.2C349.72,-376.58 339.61,-342.1 324.5,-315 322.89,-312.11 321.19,-309.23 319.41,-306.36"/>
<polygon fill="none" stroke="#63b8ff" points="319.23,-306.09 312.6,-303.27 312.66,-296.06 319.29,-298.88 319.23,-306.09"/>
</a>
</g>
<text text-anchor="middle" x="362" y="-323.5" font-family="Helvetica,sans-Serif" font-size="10.00" fill="grey"> &#45;_areaType</text>
</g>
<!-- Node7 -->
<g id="Node000007" class="node">
<title>Node7</title>
<g id="a_Node000007"><a xlink:title=" ">
<polygon fill="white" stroke="transparent" points="372,-245 331,-245 331,-196 372,-196 372,-245"/>
<text text-anchor="start" x="336.5" y="-232.5" font-family="Helvetica,sans-Serif" font-size="10.00">ushort</text>
<text text-anchor="start" x="350" y="-217.5" font-family="Helvetica,sans-Serif" font-size="10.00"> </text>
<text text-anchor="start" x="350" y="-202.5" font-family="Helvetica,sans-Serif" font-size="10.00"> </text>
<polygon fill="#666666" stroke="#666666" points="331.5,-227.5 331.5,-227.5 372.5,-227.5 372.5,-227.5 331.5,-227.5"/>
<polygon fill="#666666" stroke="#666666" points="331.5,-212.5 331.5,-212.5 372.5,-212.5 372.5,-212.5 331.5,-212.5"/>
<polygon fill="none" stroke="#666666" points="331,-196 331,-245 372,-245 372,-196 331,-196"/>
</a>
</g>
</g>
<!-- Node7&#45;&gt;Node1 -->
<g id="edge6_Node000001_Node000007" class="edge">
<title>Node7&#45;&gt;Node1</title>
<g id="a_edge6_Node000001_Node000007"><a xlink:title=" ">
<path fill="none" stroke="#63b8ff" d="M344.13,-195.86C337.12,-173.39 326.3,-138.67 316.95,-108.68"/>
<polygon fill="none" stroke="#63b8ff" points="316.89,-108.49 311.29,-103.95 313.32,-97.03 318.92,-101.57 316.89,-108.49"/>
</a>
</g>
<text text-anchor="middle" x="341.5" y="-118" font-family="Helvetica,sans-Serif" font-size="10.00" fill="grey"> &#45;_types</text>
</g>
</g>
</svg>
