<?xml version="1.0" encoding="UTF-8" standalone="no"?>
<!DOCTYPE svg PUBLIC "-//W3C//DTD SVG 1.1//EN"
 "http://www.w3.org/Graphics/SVG/1.1/DTD/svg11.dtd">
<!-- Generated by graphviz version 2.43.0 (0)
 -->
<!-- Title: Terraria.ModLoader.IO.TileIO.LoadBasics Pages: 1 -->
<svg width="894pt" height="199pt"
 viewBox="0.00 0.00 894.00 198.50" xmlns="http://www.w3.org/2000/svg" xmlns:xlink="http://www.w3.org/1999/xlink">
<g id="graph0" class="graph" transform="scale(1 1) rotate(0) translate(4 194.5)">
<title>Terraria.ModLoader.IO.TileIO.LoadBasics</title>
<!-- Node1 -->
<g id="Node000001" class="node">
<title>Node1</title>
<g id="a_Node000001"><a xlink:title=" ">
<polygon fill="#999999" stroke="#666666" points="144,-71.5 0,-71.5 0,-41.5 144,-41.5 144,-71.5"/>
<text text-anchor="start" x="8" y="-59.5" font-family="Helvetica,sans-Serif" font-size="10.00">Terraria.ModLoader.IO.Tile</text>
<text text-anchor="middle" x="72" y="-48.5" font-family="Helvetica,sans-Serif" font-size="10.00">IO.LoadBasics</text>
</a>
</g>
</g>
<!-- Node2 -->
<g id="Node000002" class="node">
<title>Node2</title>
<g id="a_Node000002"><a xlink:href="../../d3/d5b/classTerraria_1_1ModLoader_1_1IO_1_1TileIO_a9b30b7b5ab6108d97de5f77bba2f97bc.html#a9b30b7b5ab6108d97de5f77bba2f97bc" target="_top" xlink:title=" ">
<polygon fill="white" stroke="#666666" points="324,-94.5 180,-94.5 180,-64.5 324,-64.5 324,-94.5"/>
<text text-anchor="start" x="188" y="-82.5" font-family="Helvetica,sans-Serif" font-size="10.00">Terraria.ModLoader.IO.Tile</text>
<text text-anchor="middle" x="252" y="-71.5" font-family="Helvetica,sans-Serif" font-size="10.00">IO.LoadLegacy</text>
</a>
</g>
</g>
<!-- Node1&#45;&gt;Node2 -->
<g id="edge1_Node000001_Node000002" class="edge">
<title>Node1&#45;&gt;Node2</title>
<g id="a_edge1_Node000001_Node000002"><a xlink:title=" ">
<path fill="none" stroke="#63b8ff" d="M144.12,-65.69C152.61,-66.79 161.33,-67.91 169.94,-69.03"/>
<polygon fill="#63b8ff" stroke="#63b8ff" points="169.63,-72.51 180,-70.33 170.53,-65.57 169.63,-72.51"/>
</a>
</g>
</g>
<!-- Node10 -->
<g id="Node000010" class="node">
<title>Node10</title>
<g id="a_Node000010"><a xlink:href="../../d3/d8e/classTerraria_1_1ModLoader_1_1IO_1_1WorldIO_a165e05268ea0fe90e1477c8cdba3f86d.html#a165e05268ea0fe90e1477c8cdba3f86d" target="_top" xlink:title=" ">
<polygon fill="white" stroke="#666666" points="514,-48.5 360,-48.5 360,-18.5 514,-18.5 514,-48.5"/>
<text text-anchor="start" x="368" y="-36.5" font-family="Helvetica,sans-Serif" font-size="10.00">Terraria.ModLoader.IO.World</text>
<text text-anchor="middle" x="437" y="-25.5" font-family="Helvetica,sans-Serif" font-size="10.00">IO.ValidateSigns</text>
</a>
</g>
</g>
<!-- Node1&#45;&gt;Node10 -->
<g id="edge10_Node000001_Node000010" class="edge">
<title>Node1&#45;&gt;Node10</title>
<g id="a_edge10_Node000001_Node000010"><a xlink:title=" ">
<path fill="none" stroke="#63b8ff" d="M144.28,-51.98C203.16,-48.25 286.93,-42.95 349.61,-38.97"/>
<polygon fill="#63b8ff" stroke="#63b8ff" points="350.11,-42.45 359.87,-38.32 349.67,-35.46 350.11,-42.45"/>
</a>
</g>
</g>
<!-- Node3 -->
<g id="Node000003" class="node">
<title>Node3</title>
<g id="a_Node000003"><a xlink:href="../../d3/d5b/classTerraria_1_1ModLoader_1_1IO_1_1TileIO_a8ddf7ee7b027c4c7be3cee4ea36cd129.html#a8ddf7ee7b027c4c7be3cee4ea36cd129" target="_top" xlink:title=" ">
<polygon fill="white" stroke="#666666" points="509,-104.5 365,-104.5 365,-74.5 509,-74.5 509,-104.5"/>
<text text-anchor="start" x="373" y="-92.5" font-family="Helvetica,sans-Serif" font-size="10.00">Terraria.ModLoader.IO.Tile</text>
<text text-anchor="middle" x="437" y="-81.5" font-family="Helvetica,sans-Serif" font-size="10.00">IO.ReadTileData</text>
</a>
</g>
</g>
<!-- Node2&#45;&gt;Node3 -->
<g id="edge2_Node000002_Node000003" class="edge">
<title>Node2&#45;&gt;Node3</title>
<g id="a_edge2_Node000002_Node000003"><a xlink:title=" ">
<path fill="none" stroke="#63b8ff" d="M324.01,-83.38C334.04,-83.93 344.4,-84.49 354.6,-85.05"/>
<polygon fill="#63b8ff" stroke="#63b8ff" points="354.55,-88.55 364.72,-85.61 354.93,-81.56 354.55,-88.55"/>
</a>
</g>
</g>
<!-- Node4 -->
<g id="Node000004" class="node">
<title>Node4</title>
<g id="a_Node000004"><a xlink:href="../../d3/d5b/classTerraria_1_1ModLoader_1_1IO_1_1TileIO_a76c74e3648dae2d1ba247125a6adbe64.html#a76c74e3648dae2d1ba247125a6adbe64" target="_top" xlink:title="Increases the provided x and y coordinates to the next location in accordance with order&#45;sensitive po...">
<polygon fill="white" stroke="#666666" points="880,-190.5 736,-190.5 736,-160.5 880,-160.5 880,-190.5"/>
<text text-anchor="start" x="744" y="-178.5" font-family="Helvetica,sans-Serif" font-size="10.00">Terraria.ModLoader.IO.Tile</text>
<text text-anchor="middle" x="808" y="-167.5" font-family="Helvetica,sans-Serif" font-size="10.00">IO.NextLocation</text>
</a>
</g>
</g>
<!-- Node3&#45;&gt;Node4 -->
<g id="edge3_Node000003_Node000004" class="edge">
<title>Node3&#45;&gt;Node4</title>
<g id="a_edge3_Node000003_Node000004"><a xlink:title=" ">
<path fill="none" stroke="#63b8ff" d="M502.7,-104.58C566.79,-119.52 664.86,-142.37 732.25,-158.08"/>
<polygon fill="#63b8ff" stroke="#63b8ff" points="731.84,-161.58 742.38,-160.44 733.43,-154.76 731.84,-161.58"/>
</a>
</g>
</g>
<!-- Node5 -->
<g id="Node000005" class="node">
<title>Node5</title>
<g id="a_Node000005"><a xlink:href="../../d3/d5b/classTerraria_1_1ModLoader_1_1IO_1_1TileIO_a9c4d8b7657a51c9d86e2b394c9af4f4d.html#a9c4d8b7657a51c9d86e2b394c9af4f4d" target="_top" xlink:title=" ">
<polygon fill="white" stroke="#666666" points="694,-104.5 550,-104.5 550,-74.5 694,-74.5 694,-104.5"/>
<text text-anchor="start" x="558" y="-92.5" font-family="Helvetica,sans-Serif" font-size="10.00">Terraria.ModLoader.IO.Tile</text>
<text text-anchor="middle" x="622" y="-81.5" font-family="Helvetica,sans-Serif" font-size="10.00">IO.ReadModTile</text>
</a>
</g>
</g>
<!-- Node3&#45;&gt;Node5 -->
<g id="edge4_Node000003_Node000005" class="edge">
<title>Node3&#45;&gt;Node5</title>
<g id="a_edge4_Node000003_Node000005"><a xlink:title=" ">
<path fill="none" stroke="#63b8ff" d="M509.01,-89.5C519.04,-89.5 529.4,-89.5 539.6,-89.5"/>
<polygon fill="#63b8ff" stroke="#63b8ff" points="539.72,-93 549.72,-89.5 539.72,-86 539.72,-93"/>
</a>
</g>
</g>
<!-- Node5&#45;&gt;Node4 -->
<g id="edge8_Node000005_Node000004" class="edge">
<title>Node5&#45;&gt;Node4</title>
<g id="a_edge8_Node000005_Node000004"><a xlink:title=" ">
<path fill="none" stroke="#63b8ff" d="M645.59,-104.59C666.73,-118.22 699.53,-138.12 730,-151.5 734.42,-153.44 739.04,-155.29 743.73,-157.04"/>
<polygon fill="#63b8ff" stroke="#63b8ff" points="742.82,-160.43 753.41,-160.5 745.17,-153.84 742.82,-160.43"/>
</a>
</g>
</g>
<!-- Node6 -->
<g id="Node000006" class="node">
<title>Node6</title>
<g id="a_Node000006"><a xlink:href="../../d6/d21/structTerraria_1_1Tile_a9a3f37926e6d7f23ba057d6c0aeab1a5.html#a9a3f37926e6d7f23ba057d6c0aeab1a5" target="_top" xlink:title="Legacy code, use P:Terraria.Tile.HasTile instead.">
<polygon fill="white" stroke="#666666" points="861.5,-19 754.5,-19 754.5,0 861.5,0 861.5,-19"/>
<text text-anchor="middle" x="808" y="-7" font-family="Helvetica,sans-Serif" font-size="10.00">Terraria.Tile.active</text>
</a>
</g>
</g>
<!-- Node5&#45;&gt;Node6 -->
<g id="edge5_Node000005_Node000006" class="edge">
<title>Node5&#45;&gt;Node6</title>
<g id="a_edge5_Node000005_Node000006"><a xlink:title=" ">
<path fill="none" stroke="#63b8ff" d="M644.57,-74.43C665.52,-60.43 698.66,-39.92 730,-27.5 735.4,-25.36 741.11,-23.44 746.89,-21.72"/>
<polygon fill="#63b8ff" stroke="#63b8ff" points="747.94,-25.06 756.63,-19.01 746.06,-18.31 747.94,-25.06"/>
</a>
</g>
</g>
<!-- Node7 -->
<g id="Node000007" class="node">
<title>Node7</title>
<g id="a_Node000007"><a xlink:href="../../d6/d21/structTerraria_1_1Tile_a083f90a80ef987726fd28c52ffc4787e.html#a083f90a80ef987726fd28c52ffc4787e" target="_top" xlink:title="Legacy code, use P:Terraria.Tile.TileColor instead.">
<polygon fill="white" stroke="#666666" points="858.5,-142 757.5,-142 757.5,-123 858.5,-123 858.5,-142"/>
<text text-anchor="middle" x="808" y="-130" font-family="Helvetica,sans-Serif" font-size="10.00">Terraria.Tile.color</text>
</a>
</g>
</g>
<!-- Node5&#45;&gt;Node7 -->
<g id="edge6_Node000005_Node000007" class="edge">
<title>Node5&#45;&gt;Node7</title>
<g id="a_edge6_Node000005_Node000007"><a xlink:title=" ">
<path fill="none" stroke="#63b8ff" d="M687.35,-104.54C709.99,-109.83 735.08,-115.69 756.42,-120.68"/>
<polygon fill="#63b8ff" stroke="#63b8ff" points="755.72,-124.11 766.25,-122.98 757.31,-117.29 755.72,-124.11"/>
</a>
</g>
</g>
<!-- Node8 -->
<g id="Node000008" class="node">
<title>Node8</title>
<g id="a_Node000008"><a xlink:href="../../d4/d82/structTerraria_1_1ModLoader_1_1PosData_aafe3c1770ff6beee7ee4c7be3825588c.html#aafe3c1770ff6beee7ee4c7be3825588c" target="_top" xlink:title="Gets a Position ID based on the x,y position. If using in an order sensitive case,...">
<polygon fill="white" stroke="#666666" points="886,-104.5 730,-104.5 730,-74.5 886,-74.5 886,-104.5"/>
<text text-anchor="start" x="738" y="-92.5" font-family="Helvetica,sans-Serif" font-size="10.00">Terraria.ModLoader.PosData.</text>
<text text-anchor="middle" x="808" y="-81.5" font-family="Helvetica,sans-Serif" font-size="10.00">CoordsToPos</text>
</a>
</g>
</g>
<!-- Node5&#45;&gt;Node8 -->
<g id="edge7_Node000005_Node000008" class="edge">
<title>Node5&#45;&gt;Node8</title>
<g id="a_edge7_Node000005_Node000008"><a xlink:title=" ">
<path fill="none" stroke="#63b8ff" d="M694.14,-89.5C702.57,-89.5 711.25,-89.5 719.87,-89.5"/>
<polygon fill="#63b8ff" stroke="#63b8ff" points="719.95,-93 729.95,-89.5 719.95,-86 719.95,-93"/>
</a>
</g>
</g>
<!-- Node9 -->
<g id="Node000009" class="node">
<title>Node9</title>
<g id="a_Node000009"><a xlink:href="../../d6/d21/structTerraria_1_1Tile_ae29f1e935710d0c9f5e325f873709719.html#ae29f1e935710d0c9f5e325f873709719" target="_top" xlink:title="Legacy code, use P:Terraria.Tile.WallColor instead.">
<polygon fill="white" stroke="#666666" points="869.5,-56 746.5,-56 746.5,-37 869.5,-37 869.5,-56"/>
<text text-anchor="middle" x="808" y="-44" font-family="Helvetica,sans-Serif" font-size="10.00">Terraria.Tile.wallColor</text>
</a>
</g>
</g>
<!-- Node5&#45;&gt;Node9 -->
<g id="edge9_Node000005_Node000009" class="edge">
<title>Node5&#45;&gt;Node9</title>
<g id="a_edge9_Node000005_Node000009"><a xlink:title=" ">
<path fill="none" stroke="#63b8ff" d="M687.35,-74.46C709.99,-69.17 735.08,-63.31 756.42,-58.32"/>
<polygon fill="#63b8ff" stroke="#63b8ff" points="757.31,-61.71 766.25,-56.02 755.72,-54.89 757.31,-61.71"/>
</a>
</g>
</g>
<!-- Node10&#45;&gt;Node6 -->
<g id="edge11_Node000010_Node000006" class="edge">
<title>Node10&#45;&gt;Node6</title>
<g id="a_edge11_Node000010_Node000006"><a xlink:title=" ">
<path fill="none" stroke="#63b8ff" d="M514.01,-28.56C581.96,-24.14 680.36,-17.74 744.01,-13.6"/>
<polygon fill="#63b8ff" stroke="#63b8ff" points="744.55,-17.07 754.31,-12.93 744.1,-10.08 744.55,-17.07"/>
</a>
</g>
</g>
</g>
</svg>
