<?xml version="1.0" encoding="UTF-8" standalone="no"?>
<!DOCTYPE svg PUBLIC "-//W3C//DTD SVG 1.1//EN"
 "http://www.w3.org/Graphics/SVG/1.1/DTD/svg11.dtd">
<!-- Generated by graphviz version 2.43.0 (0)
 -->
<!-- Title: Terraria.DataStructures.PlayerDrawLayers.DrawPlayer_30_BladedGlove Pages: 1 -->
<svg width="541pt" height="49pt"
 viewBox="0.00 0.00 541.00 49.00" xmlns="http://www.w3.org/2000/svg" xmlns:xlink="http://www.w3.org/1999/xlink">
<g id="graph0" class="graph" transform="scale(1 1) rotate(0) translate(4 45)">
<title>Terraria.DataStructures.PlayerDrawLayers.DrawPlayer_30_BladedGlove</title>
<!-- Node1 -->
<g id="Node000001" class="node">
<title>Node1</title>
<g id="a_Node000001"><a xlink:title=" ">
<polygon fill="#999999" stroke="#666666" points="164,-41 0,-41 0,0 164,0 164,-41"/>
<text text-anchor="start" x="8" y="-29" font-family="Helvetica,sans-Serif" font-size="10.00">Terraria.DataStructures.</text>
<text text-anchor="start" x="8" y="-18" font-family="Helvetica,sans-Serif" font-size="10.00">PlayerDrawLayers.DrawPlayer</text>
<text text-anchor="middle" x="82" y="-7" font-family="Helvetica,sans-Serif" font-size="10.00">_30_BladedGlove</text>
</a>
</g>
</g>
<!-- Node2 -->
<g id="Node000002" class="node">
<title>Node2</title>
<g id="a_Node000002"><a xlink:href="../../db/d79/classTerraria_1_1Item_a7a54705bddb84216623c46fe6483a1fe.html#a7a54705bddb84216623c46fe6483a1fe" target="_top" xlink:title=" ">
<polygon fill="white" stroke="#666666" points="327,-30 200,-30 200,-11 327,-11 327,-30"/>
<text text-anchor="middle" x="263.5" y="-18" font-family="Helvetica,sans-Serif" font-size="10.00">Terraria.Item.GetAlpha</text>
</a>
</g>
</g>
<!-- Node1&#45;&gt;Node2 -->
<g id="edge1_Node000001_Node000002" class="edge">
<title>Node1&#45;&gt;Node2</title>
<g id="a_edge1_Node000001_Node000002"><a xlink:title=" ">
<path fill="none" stroke="#63b8ff" d="M164.09,-20.5C172.61,-20.5 181.23,-20.5 189.65,-20.5"/>
<polygon fill="#63b8ff" stroke="#63b8ff" points="189.8,-24 199.8,-20.5 189.8,-17 189.8,-24"/>
</a>
</g>
</g>
<!-- Node3 -->
<g id="Node000003" class="node">
<title>Node3</title>
<g id="a_Node000003"><a xlink:href="../../d7/de6/classTerraria_1_1ModLoader_1_1ItemLoader_a8e5ef756412e44adf30e0dcf7aed3bd2.html#a8e5ef756412e44adf30e0dcf7aed3bd2" target="_top" xlink:title="Calls all GlobalItem.GetAlpha hooks then ModItem.GetAlpha, until one of them returns a color,...">
<polygon fill="white" stroke="#666666" points="533,-35.5 363,-35.5 363,-5.5 533,-5.5 533,-35.5"/>
<text text-anchor="start" x="371" y="-23.5" font-family="Helvetica,sans-Serif" font-size="10.00">Terraria.ModLoader.ItemLoader.</text>
<text text-anchor="middle" x="448" y="-12.5" font-family="Helvetica,sans-Serif" font-size="10.00">GetAlpha</text>
</a>
</g>
</g>
<!-- Node2&#45;&gt;Node3 -->
<g id="edge2_Node000002_Node000003" class="edge">
<title>Node2&#45;&gt;Node3</title>
<g id="a_edge2_Node000002_Node000003"><a xlink:title=" ">
<path fill="none" stroke="#63b8ff" d="M327.05,-20.5C335.36,-20.5 344.02,-20.5 352.71,-20.5"/>
<polygon fill="#63b8ff" stroke="#63b8ff" points="352.92,-24 362.92,-20.5 352.92,-17 352.92,-24"/>
</a>
</g>
</g>
</g>
</svg>
