<?xml version="1.0" encoding="UTF-8" standalone="no"?>
<!DOCTYPE svg PUBLIC "-//W3C//DTD SVG 1.1//EN"
 "http://www.w3.org/Graphics/SVG/1.1/DTD/svg11.dtd">
<!-- Generated by graphviz version 2.43.0 (0)
 -->
<!-- Title: Terraria.DataStructures.PlayerDrawLayers.GetCompositeOffset_BackArm Pages: 1 -->
<!--zoomable 125 -->

<svg id="main" version="1.1" xmlns="http://www.w3.org/2000/svg" xmlns:xlink="http://www.w3.org/1999/xlink" xml:space="preserve" onload="init(evt)">
<style type="text/css"><![CDATA[
.node, .edge {opacity: 0.7;}
.node.selected, .edge.selected {opacity: 1;}
.edge:hover path { stroke: red; }
.edge:hover polygon { stroke: red; fill: red; }
]]></style>

<defs>
  <circle id="rim" cx="0" cy="0" r="7"/>
  <circle id="rim2" cx="0" cy="0" r="3.5"/>
  <g id="zoomPlus">
    <use xlink:href="#rim" fill="#404040"><set attributeName="fill" to="#808080" begin="zoomplus.mouseover" end="zoomplus.mouseout"/></use>
    <path d="M-4,0h8M0,-4v8" fill="none" stroke="white" stroke-width="1.5" pointer-events="none"/>
  </g>
  <g id="zoomMin">
    <use xlink:href="#rim" fill="#404040"><set attributeName="fill" to="#808080" begin="zoomminus.mouseover" end="zoomminus.mouseout"/></use>
    <path d="M-4,0h8" fill="none" stroke="white" stroke-width="1.5" pointer-events="none"/>
  </g>
  <g id="arrowUp" transform="translate(30 24)">
    <use xlink:href="#rim"/>
    <path pointer-events="none" fill="none" stroke="white" stroke-width="1.5" d="M0,-3.0v7 M-2.5,-0.5L0,-3.0L2.5,-0.5"/>
  </g>
  <g id="arrowRight" transform="rotate(90) translate(36 -43)">
    <use xlink:href="#rim"/>
    <path pointer-events="none" fill="none" stroke="white" stroke-width="1.5" d="M0,-3.0v7 M-2.5,-0.5L0,-3.0L2.5,-0.5"/>
  </g>
  <g id="arrowDown" transform="rotate(180) translate(-30 -48)">
    <use xlink:href="#rim"/>
    <path pointer-events="none" fill="none" stroke="white" stroke-width="1.5" d="M0,-3.0v7 M-2.5,-0.5L0,-3.0L2.5,-0.5"/>
  </g>
  <g id="arrowLeft" transform="rotate(270) translate(-36 17)">
    <use xlink:href="#rim"/>
    <path pointer-events="none" fill="none" stroke="white" stroke-width="1.5" d="M0,-3.0v7 M-2.5,-0.5L0,-3.0L2.5,-0.5"/>
  </g>
  <g id="resetDef">
    <use xlink:href="#rim2" fill="#404040"><set attributeName="fill" to="#808080" begin="reset.mouseover" end="reset.mouseout"/></use>
  </g>
</defs>
<script type="application/ecmascript">
var viewWidth = 1028;
var viewHeight = 125;
var sectionId = 'dynsection-0';
</script>
<script type="application/ecmascript" xlink:href="../../svg.min.js"/>
<svg id="graph" class="graph">
<g id="viewport">
<title>Terraria.DataStructures.PlayerDrawLayers.GetCompositeOffset_BackArm</title>
<!-- Node1 -->
<g id="Node000001" class="node">
<title>Node1</title>
<g id="a_Node000001"><a xlink:title=" ">
<polygon fill="#999999" stroke="#666666" points="1020,-100 842,-100 842,-59 1020,-59 1020,-100"/>
<text text-anchor="start" x="850" y="-88" font-family="Helvetica,sans-Serif" font-size="10.00">Terraria.DataStructures.</text>
<text text-anchor="start" x="850" y="-77" font-family="Helvetica,sans-Serif" font-size="10.00">PlayerDrawLayers.GetComposite</text>
<text text-anchor="middle" x="931" y="-66" font-family="Helvetica,sans-Serif" font-size="10.00">Offset_BackArm</text>
</a>
</g>
</g>
<!-- Node2 -->
<g id="Node000002" class="node">
<title>Node2</title>
<g id="a_Node000002"><a xlink:href="../../d3/d28/classTerraria_1_1DataStructures_1_1PlayerDrawLayers_a13bcd2a93e29e4778fda2113e6a5749c.html#a13bcd2a93e29e4778fda2113e6a5749c" target="_top" xlink:title=" ">
<polygon fill="white" stroke="#666666" points="585,-100 421,-100 421,-59 585,-59 585,-100"/>
<text text-anchor="start" x="429" y="-88" font-family="Helvetica,sans-Serif" font-size="10.00">Terraria.DataStructures.</text>
<text text-anchor="start" x="429" y="-77" font-family="Helvetica,sans-Serif" font-size="10.00">PlayerDrawLayers.DrawPlayer</text>
<text text-anchor="middle" x="503" y="-66" font-family="Helvetica,sans-Serif" font-size="10.00">_12_Skin_Composite</text>
</a>
</g>
</g>
<!-- Node1&#45;&gt;Node2 -->
<g id="edge1_Node000001_Node000002" class="edge">
<title>Node1&#45;&gt;Node2</title>
<g id="a_edge1_Node000001_Node000002"><a xlink:title=" ">
<path fill="none" stroke="#63b8ff" d="M847.76,-102.28C833.92,-105.28 819.63,-107.88 806,-109.5 724.36,-119.24 702.58,-119.79 621,-109.5 604.98,-107.48 588.01,-103.96 572.12,-100.03"/>
<polygon fill="#63b8ff" stroke="#63b8ff" points="848.76,-105.64 857.74,-100.03 847.22,-98.81 848.76,-105.64"/>
</a>
</g>
</g>
<!-- Node5 -->
<g id="Node000005" class="node">
<title>Node5</title>
<g id="a_Node000005"><a xlink:href="../../d3/d28/classTerraria_1_1DataStructures_1_1PlayerDrawLayers_af391e7c4cfc91960502ca9f14d11c7aa.html#af391e7c4cfc91960502ca9f14d11c7aa" target="_top" xlink:title=" ">
<polygon fill="white" stroke="#666666" points="806,-100 621,-100 621,-59 806,-59 806,-100"/>
<text text-anchor="start" x="629" y="-88" font-family="Helvetica,sans-Serif" font-size="10.00">Terraria.DataStructures.</text>
<text text-anchor="start" x="629" y="-77" font-family="Helvetica,sans-Serif" font-size="10.00">PlayerDrawLayers.DrawPlayer</text>
<text text-anchor="middle" x="713.5" y="-66" font-family="Helvetica,sans-Serif" font-size="10.00">_12_SkinComposite_BackArmShirt</text>
</a>
</g>
</g>
<!-- Node1&#45;&gt;Node5 -->
<g id="edge4_Node000001_Node000005" class="edge">
<title>Node1&#45;&gt;Node5</title>
<g id="a_edge4_Node000001_Node000005"><a xlink:title=" ">
<path fill="none" stroke="#63b8ff" d="M831.48,-79.5C823.04,-79.5 814.52,-79.5 806.13,-79.5"/>
<polygon fill="#63b8ff" stroke="#63b8ff" points="831.73,-83 841.73,-79.5 831.73,-76 831.73,-83"/>
</a>
</g>
</g>
<!-- Node6 -->
<g id="Node000006" class="node">
<title>Node6</title>
<g id="a_Node000006"><a xlink:href="../../d3/d28/classTerraria_1_1DataStructures_1_1PlayerDrawLayers_aee080eefd228052ae83b1cdce33181a6.html#aee080eefd228052ae83b1cdce33181a6" target="_top" xlink:title=" ">
<polygon fill="white" stroke="#666666" points="795.5,-41 631.5,-41 631.5,0 795.5,0 795.5,-41"/>
<text text-anchor="start" x="639.5" y="-29" font-family="Helvetica,sans-Serif" font-size="10.00">Terraria.DataStructures.</text>
<text text-anchor="start" x="639.5" y="-18" font-family="Helvetica,sans-Serif" font-size="10.00">PlayerDrawLayers.DrawPlayer</text>
<text text-anchor="middle" x="713.5" y="-7" font-family="Helvetica,sans-Serif" font-size="10.00">_17_TorsoComposite</text>
</a>
</g>
</g>
<!-- Node1&#45;&gt;Node6 -->
<g id="edge6_Node000001_Node000006" class="edge">
<title>Node1&#45;&gt;Node6</title>
<g id="a_edge6_Node000001_Node000006"><a xlink:title=" ">
<path fill="none" stroke="#63b8ff" d="M845.16,-56.27C826.83,-51.25 807.59,-45.99 789.66,-41.08"/>
<polygon fill="#63b8ff" stroke="#63b8ff" points="844.36,-59.68 854.93,-58.95 846.21,-52.93 844.36,-59.68"/>
</a>
</g>
</g>
<!-- Node3 -->
<g id="Node000003" class="node">
<title>Node3</title>
<g id="a_Node000003"><a xlink:href="../../d3/d28/classTerraria_1_1DataStructures_1_1PlayerDrawLayers_aaa4959d64fa95806aa5dde3b1a236acf.html#aaa4959d64fa95806aa5dde3b1a236acf" target="_top" xlink:title=" ">
<polygon fill="white" stroke="#666666" points="385,-100 221,-100 221,-59 385,-59 385,-100"/>
<text text-anchor="start" x="229" y="-88" font-family="Helvetica,sans-Serif" font-size="10.00">Terraria.DataStructures.</text>
<text text-anchor="start" x="229" y="-77" font-family="Helvetica,sans-Serif" font-size="10.00">PlayerDrawLayers.DrawPlayer</text>
<text text-anchor="middle" x="303" y="-66" font-family="Helvetica,sans-Serif" font-size="10.00">_12_Skin</text>
</a>
</g>
</g>
<!-- Node2&#45;&gt;Node3 -->
<g id="edge2_Node000002_Node000003" class="edge">
<title>Node2&#45;&gt;Node3</title>
<g id="a_edge2_Node000002_Node000003"><a xlink:title=" ">
<path fill="none" stroke="#63b8ff" d="M410.64,-79.5C402.18,-79.5 393.65,-79.5 385.3,-79.5"/>
<polygon fill="#63b8ff" stroke="#63b8ff" points="410.89,-83 420.89,-79.5 410.89,-76 410.89,-83"/>
</a>
</g>
</g>
<!-- Node4 -->
<g id="Node000004" class="node">
<title>Node4</title>
<g id="a_Node000004"><a xlink:href="../../d0/d10/classTerraria_1_1Graphics_1_1Renderers_1_1LegacyPlayerRenderer_a21ee417a793d606276fc35020307fe88.html#a21ee417a793d606276fc35020307fe88" target="_top" xlink:title=" ">
<polygon fill="white" stroke="#666666" points="185,-70 0,-70 0,-29 185,-29 185,-70"/>
<text text-anchor="start" x="8" y="-58" font-family="Helvetica,sans-Serif" font-size="10.00">Terraria.Graphics.Renderers.</text>
<text text-anchor="start" x="8" y="-47" font-family="Helvetica,sans-Serif" font-size="10.00">LegacyPlayerRenderer.DrawPlayer</text>
<text text-anchor="middle" x="92.5" y="-36" font-family="Helvetica,sans-Serif" font-size="10.00">_UseNormalLayers</text>
</a>
</g>
</g>
<!-- Node3&#45;&gt;Node4 -->
<g id="edge3_Node000003_Node000004" class="edge">
<title>Node3&#45;&gt;Node4</title>
<g id="a_edge3_Node000003_Node000004"><a xlink:title=" ">
<path fill="none" stroke="#63b8ff" d="M210.87,-66.39C202.36,-65.16 193.73,-63.92 185.21,-62.7"/>
<polygon fill="#63b8ff" stroke="#63b8ff" points="210.39,-69.86 220.79,-67.82 211.39,-62.93 210.39,-69.86"/>
</a>
</g>
</g>
<!-- Node5&#45;&gt;Node2 -->
<g id="edge5_Node000005_Node000002" class="edge">
<title>Node5&#45;&gt;Node2</title>
<g id="a_edge5_Node000005_Node000002"><a xlink:title=" ">
<path fill="none" stroke="#63b8ff" d="M610.47,-79.5C602.03,-79.5 593.57,-79.5 585.31,-79.5"/>
<polygon fill="#63b8ff" stroke="#63b8ff" points="610.75,-83 620.75,-79.5 610.75,-76 610.75,-83"/>
</a>
</g>
</g>
<!-- Node7 -->
<g id="Node000007" class="node">
<title>Node7</title>
<g id="a_Node000007"><a xlink:href="../../d3/d28/classTerraria_1_1DataStructures_1_1PlayerDrawLayers_a27daf37f7493a3b0a62b43a584da3a30.html#a27daf37f7493a3b0a62b43a584da3a30" target="_top" xlink:title=" ">
<polygon fill="white" stroke="#666666" points="385,-41 221,-41 221,0 385,0 385,-41"/>
<text text-anchor="start" x="229" y="-29" font-family="Helvetica,sans-Serif" font-size="10.00">Terraria.DataStructures.</text>
<text text-anchor="start" x="229" y="-18" font-family="Helvetica,sans-Serif" font-size="10.00">PlayerDrawLayers.DrawPlayer</text>
<text text-anchor="middle" x="303" y="-7" font-family="Helvetica,sans-Serif" font-size="10.00">_17_Torso</text>
</a>
</g>
</g>
<!-- Node6&#45;&gt;Node7 -->
<g id="edge7_Node000006_Node000007" class="edge">
<title>Node6&#45;&gt;Node7</title>
<g id="a_edge7_Node000006_Node000007"><a xlink:title=" ">
<path fill="none" stroke="#63b8ff" d="M621.06,-20.5C550.25,-20.5 453.08,-20.5 385.04,-20.5"/>
<polygon fill="#63b8ff" stroke="#63b8ff" points="621.31,-24 631.31,-20.5 621.31,-17 621.31,-24"/>
</a>
</g>
</g>
<!-- Node7&#45;&gt;Node4 -->
<g id="edge8_Node000007_Node000004" class="edge">
<title>Node7&#45;&gt;Node4</title>
<g id="a_edge8_Node000007_Node000004"><a xlink:title=" ">
<path fill="none" stroke="#63b8ff" d="M210.87,-33.18C202.36,-34.36 193.73,-35.56 185.21,-36.74"/>
<polygon fill="#63b8ff" stroke="#63b8ff" points="211.37,-36.64 220.79,-31.8 210.4,-29.71 211.37,-36.64"/>
</a>
</g>
</g>
</g>
</svg>

<g id="navigator" transform="translate(0 0)" fill="#404254">
  <rect fill="#f2f5e9" fill-opacity="0.5" stroke="#606060" stroke-width=".5" x="0" y="0" width="60" height="60"/>
  <use id="zoomplus" xlink:href="#zoomPlus" x="17" y="9" onmousedown="handleZoom(evt,'in')"/>
  <use id="zoomminus" xlink:href="#zoomMin" x="42" y="9" onmousedown="handleZoom(evt,'out')"/>
  <use id="reset" xlink:href="#resetDef" x="30" y="36" onmousedown="handleReset()"/>
   <use id="arrowup" xlink:href="#arrowUp" x="0" y="0" onmousedown="handlePan(0,-1)"/>
  <use id="arrowright" xlink:href="#arrowRight" x="0" y="0" onmousedown="handlePan(1,0)"/>
  <use id="arrowdown" xlink:href="#arrowDown" x="0" y="0" onmousedown="handlePan(0,1)"/>
  <use id="arrowleft" xlink:href="#arrowLeft" x="0" y="0" onmousedown="handlePan(-1,0)"/>
</g>
<svg viewBox="0 0 15 15" width="100%" height="30px" preserveAspectRatio="xMaxYMin meet">
 <g id="arrow_out" transform="scale(0.3 0.3)">
  <a xlink:href="classTerraria_1_1DataStructures_1_1PlayerDrawLayers_a52991a610524b125e19d7eff954b5ce5_a52991a610524b125e19d7eff954b5ce5_icgraph_org.svg" target="_base">
   <rect id="button" ry="5" rx="5" y="6" x="6" height="38" width="38"
        fill="#f2f5e9" fill-opacity="0.5" stroke="#606060" stroke-width="1.0"/>
   <path id="arrow"
     d="M 11.500037,31.436501 C 11.940474,20.09759 22.043105,11.32322 32.158766,21.979434 L 37.068811,17.246167 C 37.068811,17.246167 37.088388,32 37.088388,32 L 22.160133,31.978069 C 22.160133,31.978069 26.997745,27.140456 26.997745,27.140456 C 18.528582,18.264221 13.291696,25.230495 11.500037,31.436501 z"
     style="fill:#404040;"/>
  </a>
 </g>
</svg>

<style type='text/css'>
<![CDATA[
[data-mouse-over-selected='false'] { opacity: 0.7; }
[data-mouse-over-selected='true']  { opacity: 1.0; }
]]>
</style>
<script type="application/ecmascript"><![CDATA[
document.addEventListener('DOMContentLoaded', (event) => {
  highlightEdges();
  highlightAdjacentNodes();
});
]]></script>
</svg>
