<?xml version="1.0" encoding="UTF-8" standalone="no"?>
<!DOCTYPE svg PUBLIC "-//W3C//DTD SVG 1.1//EN"
 "http://www.w3.org/Graphics/SVG/1.1/DTD/svg11.dtd">
<!-- Generated by graphviz version 2.43.0 (0)
 -->
<!-- Title: Terraria.DataStructures.PlayerDrawLayers.DrawPlayer_38_EyebrellaCloud Pages: 1 -->
<svg width="522pt" height="70pt"
 viewBox="0.00 0.00 522.00 69.50" xmlns="http://www.w3.org/2000/svg" xmlns:xlink="http://www.w3.org/1999/xlink">
<g id="graph0" class="graph" transform="scale(1 1) rotate(0) translate(4 65.5)">
<title>Terraria.DataStructures.PlayerDrawLayers.DrawPlayer_38_EyebrellaCloud</title>
<!-- Node1 -->
<g id="Node000001" class="node">
<title>Node1</title>
<g id="a_Node000001"><a xlink:title=" ">
<polygon fill="#999999" stroke="#666666" points="164,-48 0,-48 0,-7 164,-7 164,-48"/>
<text text-anchor="start" x="8" y="-36" font-family="Helvetica,sans-Serif" font-size="10.00">Terraria.DataStructures.</text>
<text text-anchor="start" x="8" y="-25" font-family="Helvetica,sans-Serif" font-size="10.00">PlayerDrawLayers.DrawPlayer</text>
<text text-anchor="middle" x="82" y="-14" font-family="Helvetica,sans-Serif" font-size="10.00">_38_EyebrellaCloud</text>
</a>
</g>
</g>
<!-- Node2 -->
<g id="Node000002" class="node">
<title>Node2</title>
<g id="a_Node000002"><a xlink:href="../../d0/d12/classTerraria_1_1Lighting_a2c2fd9311b2452f5117063553f320a85.html#a2c2fd9311b2452f5117063553f320a85" target="_top" xlink:title=" ">
<polygon fill="white" stroke="#666666" points="341,-56 200,-56 200,-37 341,-37 341,-56"/>
<text text-anchor="middle" x="270.5" y="-44" font-family="Helvetica,sans-Serif" font-size="10.00">Terraria.Lighting.GetColor</text>
</a>
</g>
</g>
<!-- Node1&#45;&gt;Node2 -->
<g id="edge1_Node000001_Node000002" class="edge">
<title>Node1&#45;&gt;Node2</title>
<g id="a_edge1_Node000001_Node000002"><a xlink:title=" ">
<path fill="none" stroke="#63b8ff" d="M164.26,-35.78C172.7,-36.64 181.28,-37.51 189.71,-38.37"/>
<polygon fill="#63b8ff" stroke="#63b8ff" points="189.59,-41.88 199.89,-39.41 190.3,-34.91 189.59,-41.88"/>
</a>
</g>
</g>
<!-- Node4 -->
<g id="Node000004" class="node">
<title>Node4</title>
<g id="a_Node000004"><a xlink:href="../../d1/d9c/classTerraria_1_1Utils_a89794e51eb6b0bd3f2b823efbf193fb3.html#a89794e51eb6b0bd3f2b823efbf193fb3" target="_top" xlink:title=" ">
<polygon fill="white" stroke="#666666" points="337,-19 204,-19 204,0 337,0 337,-19"/>
<text text-anchor="middle" x="270.5" y="-7" font-family="Helvetica,sans-Serif" font-size="10.00">Terraria.Utils.RotatedBy</text>
</a>
</g>
</g>
<!-- Node1&#45;&gt;Node4 -->
<g id="edge3_Node000001_Node000004" class="edge">
<title>Node1&#45;&gt;Node4</title>
<g id="a_edge3_Node000001_Node000004"><a xlink:title=" ">
<path fill="none" stroke="#63b8ff" d="M164.26,-19.66C174.09,-18.71 184.11,-17.74 193.86,-16.8"/>
<polygon fill="#63b8ff" stroke="#63b8ff" points="194.29,-20.28 203.9,-15.83 193.61,-13.31 194.29,-20.28"/>
</a>
</g>
</g>
<!-- Node3 -->
<g id="Node000003" class="node">
<title>Node3</title>
<g id="a_Node000003"><a xlink:href="../../d4/dae/interfaceTerraria_1_1Graphics_1_1Light_1_1ILightingEngine_a35efeb11434abc5ba5e7ce0aa03eac9a.html#a35efeb11434abc5ba5e7ce0aa03eac9a" target="_top" xlink:title=" ">
<polygon fill="white" stroke="#666666" points="514,-61.5 377,-61.5 377,-31.5 514,-31.5 514,-61.5"/>
<text text-anchor="start" x="385" y="-49.5" font-family="Helvetica,sans-Serif" font-size="10.00">Terraria.Graphics.Light.</text>
<text text-anchor="middle" x="445.5" y="-38.5" font-family="Helvetica,sans-Serif" font-size="10.00">ILightingEngine.GetColor</text>
</a>
</g>
</g>
<!-- Node2&#45;&gt;Node3 -->
<g id="edge2_Node000002_Node000003" class="edge">
<title>Node2&#45;&gt;Node3</title>
<g id="a_edge2_Node000002_Node000003"><a xlink:title=" ">
<path fill="none" stroke="#63b8ff" d="M341.37,-46.5C349.7,-46.5 358.25,-46.5 366.68,-46.5"/>
<polygon fill="#63b8ff" stroke="#63b8ff" points="366.9,-50 376.9,-46.5 366.9,-43 366.9,-50"/>
</a>
</g>
</g>
</g>
</svg>
