<?xml version="1.0" encoding="UTF-8" standalone="no"?>
<!DOCTYPE svg PUBLIC "-//W3C//DTD SVG 1.1//EN"
 "http://www.w3.org/Graphics/SVG/1.1/DTD/svg11.dtd">
<!-- Generated by graphviz version 2.43.0 (0)
 -->
<!-- Title: Terraria.ModLoader.UI.UIMods.BackClick Pages: 1 -->
<svg width="621pt" height="86pt"
 viewBox="0.00 0.00 621.00 86.00" xmlns="http://www.w3.org/2000/svg" xmlns:xlink="http://www.w3.org/1999/xlink">
<g id="graph0" class="graph" transform="scale(1 1) rotate(0) translate(4 82)">
<title>Terraria.ModLoader.UI.UIMods.BackClick</title>
<!-- Node1 -->
<g id="Node000001" class="node">
<title>Node1</title>
<g id="a_Node000001"><a xlink:title=" ">
<polygon fill="#999999" stroke="#666666" points="166,-54 0,-54 0,-24 166,-24 166,-54"/>
<text text-anchor="start" x="8" y="-42" font-family="Helvetica,sans-Serif" font-size="10.00">Terraria.ModLoader.UI.UIMods.</text>
<text text-anchor="middle" x="83" y="-31" font-family="Helvetica,sans-Serif" font-size="10.00">BackClick</text>
</a>
</g>
</g>
<!-- Node2 -->
<g id="Node000002" class="node">
<title>Node2</title>
<g id="a_Node000002"><a xlink:href="../../d5/d69/classTerraria_1_1ModLoader_1_1Config_1_1ConfigManager_a3a700bff9bd179b112ad3044faca1ec2.html#a3a700bff9bd179b112ad3044faca1ec2" target="_top" xlink:title=" ">
<polygon fill="white" stroke="#666666" points="399,-78 202,-78 202,-48 399,-48 399,-78"/>
<text text-anchor="start" x="210" y="-66" font-family="Helvetica,sans-Serif" font-size="10.00">Terraria.ModLoader.Config.</text>
<text text-anchor="middle" x="300.5" y="-55" font-family="Helvetica,sans-Serif" font-size="10.00">ConfigManager.AnyModNeedsReload</text>
</a>
</g>
</g>
<!-- Node1&#45;&gt;Node2 -->
<g id="edge1_Node000001_Node000002" class="edge">
<title>Node1&#45;&gt;Node2</title>
<g id="a_edge1_Node000001_Node000002"><a xlink:title=" ">
<path fill="none" stroke="#63b8ff" d="M166.09,-48.14C174.46,-49.07 183.06,-50.03 191.66,-50.99"/>
<polygon fill="#63b8ff" stroke="#63b8ff" points="191.42,-54.48 201.74,-52.11 192.19,-47.53 191.42,-54.48"/>
</a>
</g>
</g>
<!-- Node4 -->
<g id="Node000004" class="node">
<title>Node4</title>
<g id="a_Node000004"><a xlink:href="../../d5/d69/classTerraria_1_1ModLoader_1_1Config_1_1ConfigManager_aeabcc984c60f318797a2ba3edab8839b.html#aeabcc984c60f318797a2ba3edab8839b" target="_top" xlink:title=" ">
<polygon fill="white" stroke="#666666" points="381,-30 220,-30 220,0 381,0 381,-30"/>
<text text-anchor="start" x="228" y="-18" font-family="Helvetica,sans-Serif" font-size="10.00">Terraria.ModLoader.Config.</text>
<text text-anchor="middle" x="300.5" y="-7" font-family="Helvetica,sans-Serif" font-size="10.00">ConfigManager.OnChangedAll</text>
</a>
</g>
</g>
<!-- Node1&#45;&gt;Node4 -->
<g id="edge3_Node000001_Node000004" class="edge">
<title>Node1&#45;&gt;Node4</title>
<g id="a_edge3_Node000001_Node000004"><a xlink:title=" ">
<path fill="none" stroke="#63b8ff" d="M166.09,-29.86C180.39,-28.27 195.33,-26.6 209.83,-24.99"/>
<polygon fill="#63b8ff" stroke="#63b8ff" points="210.23,-28.46 219.78,-23.88 209.45,-21.51 210.23,-28.46"/>
</a>
</g>
</g>
<!-- Node3 -->
<g id="Node000003" class="node">
<title>Node3</title>
<g id="a_Node000003"><a xlink:href="../../d5/d69/classTerraria_1_1ModLoader_1_1Config_1_1ConfigManager_a37e75ced9ba6207b83a4892481625beb.html#a37e75ced9ba6207b83a4892481625beb" target="_top" xlink:title=" ">
<polygon fill="white" stroke="#666666" points="613,-78 435,-78 435,-48 613,-48 613,-78"/>
<text text-anchor="start" x="443" y="-66" font-family="Helvetica,sans-Serif" font-size="10.00">Terraria.ModLoader.Config.</text>
<text text-anchor="middle" x="524" y="-55" font-family="Helvetica,sans-Serif" font-size="10.00">ConfigManager.ModNeedsReload</text>
</a>
</g>
</g>
<!-- Node2&#45;&gt;Node3 -->
<g id="edge2_Node000002_Node000003" class="edge">
<title>Node2&#45;&gt;Node3</title>
<g id="a_edge2_Node000002_Node000003"><a xlink:title=" ">
<path fill="none" stroke="#63b8ff" d="M399.3,-63C407.7,-63 416.21,-63 424.62,-63"/>
<polygon fill="#63b8ff" stroke="#63b8ff" points="424.81,-66.5 434.81,-63 424.81,-59.5 424.81,-66.5"/>
</a>
</g>
</g>
<!-- Node5 -->
<g id="Node000005" class="node">
<title>Node5</title>
<g id="a_Node000005"><a xlink:href="../../d6/d18/classTerraria_1_1ModLoader_1_1Config_1_1ModConfig_acbce44070d04b87a726ea8cf94079398.html#acbce44070d04b87a726ea8cf94079398" target="_top" xlink:title="This hook is called anytime new config values have been set and are ready to take effect....">
<polygon fill="white" stroke="#666666" points="597,-30 451,-30 451,0 597,0 597,-30"/>
<text text-anchor="start" x="459" y="-18" font-family="Helvetica,sans-Serif" font-size="10.00">Terraria.ModLoader.Config.</text>
<text text-anchor="middle" x="524" y="-7" font-family="Helvetica,sans-Serif" font-size="10.00">ModConfig.OnChanged</text>
</a>
</g>
</g>
<!-- Node4&#45;&gt;Node5 -->
<g id="edge4_Node000004_Node000005" class="edge">
<title>Node4&#45;&gt;Node5</title>
<g id="a_edge4_Node000004_Node000005"><a xlink:title=" ">
<path fill="none" stroke="#63b8ff" d="M381.15,-15C400.48,-15 421.18,-15 440.63,-15"/>
<polygon fill="#63b8ff" stroke="#63b8ff" points="440.68,-18.5 450.68,-15 440.68,-11.5 440.68,-18.5"/>
</a>
</g>
</g>
</g>
</svg>
