<?xml version="1.0" encoding="UTF-8" standalone="no"?>
<!DOCTYPE svg PUBLIC "-//W3C//DTD SVG 1.1//EN"
 "http://www.w3.org/Graphics/SVG/1.1/DTD/svg11.dtd">
<!-- Generated by graphviz version 2.43.0 (0)
 -->
<!-- Title: Terraria.DataStructures.TileEntity.SetInteractionAnchor Pages: 1 -->
<!--zoomable 108 -->

<svg id="main" version="1.1" xmlns="http://www.w3.org/2000/svg" xmlns:xlink="http://www.w3.org/1999/xlink" xml:space="preserve" onload="init(evt)">
<style type="text/css"><![CDATA[
.node, .edge {opacity: 0.7;}
.node.selected, .edge.selected {opacity: 1;}
.edge:hover path { stroke: red; }
.edge:hover polygon { stroke: red; fill: red; }
]]></style>

<defs>
  <circle id="rim" cx="0" cy="0" r="7"/>
  <circle id="rim2" cx="0" cy="0" r="3.5"/>
  <g id="zoomPlus">
    <use xlink:href="#rim" fill="#404040"><set attributeName="fill" to="#808080" begin="zoomplus.mouseover" end="zoomplus.mouseout"/></use>
    <path d="M-4,0h8M0,-4v8" fill="none" stroke="white" stroke-width="1.5" pointer-events="none"/>
  </g>
  <g id="zoomMin">
    <use xlink:href="#rim" fill="#404040"><set attributeName="fill" to="#808080" begin="zoomminus.mouseover" end="zoomminus.mouseout"/></use>
    <path d="M-4,0h8" fill="none" stroke="white" stroke-width="1.5" pointer-events="none"/>
  </g>
  <g id="arrowUp" transform="translate(30 24)">
    <use xlink:href="#rim"/>
    <path pointer-events="none" fill="none" stroke="white" stroke-width="1.5" d="M0,-3.0v7 M-2.5,-0.5L0,-3.0L2.5,-0.5"/>
  </g>
  <g id="arrowRight" transform="rotate(90) translate(36 -43)">
    <use xlink:href="#rim"/>
    <path pointer-events="none" fill="none" stroke="white" stroke-width="1.5" d="M0,-3.0v7 M-2.5,-0.5L0,-3.0L2.5,-0.5"/>
  </g>
  <g id="arrowDown" transform="rotate(180) translate(-30 -48)">
    <use xlink:href="#rim"/>
    <path pointer-events="none" fill="none" stroke="white" stroke-width="1.5" d="M0,-3.0v7 M-2.5,-0.5L0,-3.0L2.5,-0.5"/>
  </g>
  <g id="arrowLeft" transform="rotate(270) translate(-36 17)">
    <use xlink:href="#rim"/>
    <path pointer-events="none" fill="none" stroke="white" stroke-width="1.5" d="M0,-3.0v7 M-2.5,-0.5L0,-3.0L2.5,-0.5"/>
  </g>
  <g id="resetDef">
    <use xlink:href="#rim2" fill="#404040"><set attributeName="fill" to="#808080" begin="reset.mouseover" end="reset.mouseout"/></use>
  </g>
</defs>
<script type="application/ecmascript">
var viewWidth = 1632;
var viewHeight = 108;
var sectionId = 'dynsection-1';
</script>
<script type="application/ecmascript" xlink:href="../../svg.min.js"/>
<svg id="graph" class="graph">
<g id="viewport">
<title>Terraria.DataStructures.TileEntity.SetInteractionAnchor</title>
<!-- Node1 -->
<g id="Node000001" class="node">
<title>Node1</title>
<g id="a_Node000001"><a xlink:title=" ">
<polygon fill="#999999" stroke="#666666" points="1624,-45.5 1457,-45.5 1457,-15.5 1624,-15.5 1624,-45.5"/>
<text text-anchor="start" x="1465" y="-33.5" font-family="Helvetica,sans-Serif" font-size="10.00">Terraria.DataStructures.</text>
<text text-anchor="middle" x="1540.5" y="-22.5" font-family="Helvetica,sans-Serif" font-size="10.00">TileEntity.SetInteractionAnchor</text>
</a>
</g>
</g>
<!-- Node2 -->
<g id="Node000002" class="node">
<title>Node2</title>
<g id="a_Node000002"><a xlink:href="../../db/d56/classTerraria_1_1DataStructures_1_1TileEntity_a295675c600c448988e81080cece91e29.html#a295675c600c448988e81080cece91e29" target="_top" xlink:title=" ">
<polygon fill="white" stroke="#666666" points="1421,-67.5 1225,-67.5 1225,-37.5 1421,-37.5 1421,-67.5"/>
<text text-anchor="start" x="1233" y="-55.5" font-family="Helvetica,sans-Serif" font-size="10.00">Terraria.DataStructures.</text>
<text text-anchor="middle" x="1323" y="-44.5" font-family="Helvetica,sans-Serif" font-size="10.00">TileEntity.BasicOpenCloseInteraction</text>
</a>
</g>
</g>
<!-- Node1&#45;&gt;Node2 -->
<g id="edge1_Node000001_Node000002" class="edge">
<title>Node1&#45;&gt;Node2</title>
<g id="a_edge1_Node000001_Node000002"><a xlink:title=" ">
<path fill="none" stroke="#63b8ff" d="M1446.62,-39.98C1438.22,-40.84 1429.69,-41.71 1421.25,-42.57"/>
<polygon fill="#63b8ff" stroke="#63b8ff" points="1447.21,-43.44 1456.8,-38.94 1446.49,-36.48 1447.21,-43.44"/>
</a>
</g>
</g>
<!-- Node10 -->
<g id="Node000010" class="node">
<title>Node10</title>
<g id="a_Node000010"><a xlink:href="../../db/d63/classTerraria_1_1MessageBuffer_ab4039006321b0ab8e7d66acbd82370b0.html#ab4039006321b0ab8e7d66acbd82370b0" target="_top" xlink:title=" ">
<polygon fill="white" stroke="#666666" points="1409,-19 1237,-19 1237,0 1409,0 1409,-19"/>
<text text-anchor="middle" x="1323" y="-7" font-family="Helvetica,sans-Serif" font-size="10.00">Terraria.MessageBuffer.GetData</text>
</a>
</g>
</g>
<!-- Node1&#45;&gt;Node10 -->
<g id="edge11_Node000001_Node000010" class="edge">
<title>Node1&#45;&gt;Node10</title>
<g id="a_edge11_Node000001_Node000010"><a xlink:title=" ">
<path fill="none" stroke="#63b8ff" d="M1446.5,-21.44C1434.16,-20.23 1421.54,-19.01 1409.34,-17.82"/>
<polygon fill="#63b8ff" stroke="#63b8ff" points="1446.51,-24.95 1456.8,-22.44 1447.19,-17.99 1446.51,-24.95"/>
</a>
</g>
</g>
<!-- Node3 -->
<g id="Node000003" class="node">
<title>Node3</title>
<g id="a_Node000003"><a xlink:href="../../d9/d66/classTerraria_1_1GameContent_1_1Tile__Entities_1_1TEDisplayDoll_a2cf2f6a72d74f00d3631bd9aca6c790a.html#a2cf2f6a72d74f00d3631bd9aca6c790a" target="_top" xlink:title=" ">
<polygon fill="white" stroke="#666666" points="1170,-100 993,-100 993,-59 1170,-59 1170,-100"/>
<text text-anchor="start" x="1001" y="-88" font-family="Helvetica,sans-Serif" font-size="10.00">Terraria.GameContent.Tile</text>
<text text-anchor="start" x="1001" y="-77" font-family="Helvetica,sans-Serif" font-size="10.00">_Entities.TEDisplayDoll.OnPlayer</text>
<text text-anchor="middle" x="1081.5" y="-66" font-family="Helvetica,sans-Serif" font-size="10.00">Interaction</text>
</a>
</g>
</g>
<!-- Node2&#45;&gt;Node3 -->
<g id="edge2_Node000002_Node000003" class="edge">
<title>Node2&#45;&gt;Node3</title>
<g id="a_edge2_Node000002_Node000003"><a xlink:title=" ">
<path fill="none" stroke="#63b8ff" d="M1214.66,-64.6C1199.74,-66.28 1184.56,-67.99 1170.06,-69.63"/>
<polygon fill="#63b8ff" stroke="#63b8ff" points="1215.39,-68.04 1224.93,-63.44 1214.6,-61.09 1215.39,-68.04"/>
</a>
</g>
</g>
<!-- Node9 -->
<g id="Node000009" class="node">
<title>Node9</title>
<g id="a_Node000009"><a xlink:href="../../d3/d99/classTerraria_1_1GameContent_1_1Tile__Entities_1_1TEHatRack_a9c7a11d98b6b6e2443bc5ffb22765525.html#a9c7a11d98b6b6e2443bc5ffb22765525" target="_top" xlink:title=" ">
<polygon fill="white" stroke="#666666" points="1189,-40.5 974,-40.5 974,-10.5 1189,-10.5 1189,-40.5"/>
<text text-anchor="start" x="982" y="-28.5" font-family="Helvetica,sans-Serif" font-size="10.00">Terraria.GameContent.Tile</text>
<text text-anchor="middle" x="1081.5" y="-17.5" font-family="Helvetica,sans-Serif" font-size="10.00">_Entities.TEHatRack.OnPlayerInteraction</text>
</a>
</g>
</g>
<!-- Node2&#45;&gt;Node9 -->
<g id="edge9_Node000002_Node000009" class="edge">
<title>Node2&#45;&gt;Node9</title>
<g id="a_edge9_Node000002_Node000009"><a xlink:title=" ">
<path fill="none" stroke="#63b8ff" d="M1214.91,-40.43C1206.34,-39.46 1197.67,-38.48 1189.1,-37.52"/>
<polygon fill="#63b8ff" stroke="#63b8ff" points="1214.6,-43.91 1224.93,-41.56 1215.39,-36.96 1214.6,-43.91"/>
</a>
</g>
</g>
<!-- Node4 -->
<g id="Node000004" class="node">
<title>Node4</title>
<g id="a_Node000004"><a xlink:href="../../d4/d03/classTerraria_1_1Player_a8b27a9ab46a3bd51b25499cdf7417694.html#a8b27a9ab46a3bd51b25499cdf7417694" target="_top" xlink:title=" ">
<polygon fill="white" stroke="#666666" points="938,-62 754,-62 754,-43 938,-43 938,-62"/>
<text text-anchor="middle" x="846" y="-50" font-family="Helvetica,sans-Serif" font-size="10.00">Terraria.Player.TileInteractionsUse</text>
</a>
</g>
</g>
<!-- Node3&#45;&gt;Node4 -->
<g id="edge3_Node000003_Node000004" class="edge">
<title>Node3&#45;&gt;Node4</title>
<g id="a_edge3_Node000003_Node000004"><a xlink:title=" ">
<path fill="none" stroke="#63b8ff" d="M982.54,-68.17C964.83,-66.12 946.52,-64.01 929.31,-62.02"/>
<polygon fill="#63b8ff" stroke="#63b8ff" points="982.55,-71.7 992.89,-69.37 983.36,-64.74 982.55,-71.7"/>
</a>
</g>
</g>
<!-- Node5 -->
<g id="Node000005" class="node">
<title>Node5</title>
<g id="a_Node000005"><a xlink:href="../../d4/d03/classTerraria_1_1Player_ab2e21980bc1dddaa7b760abeb643179c.html#ab2e21980bc1dddaa7b760abeb643179c" target="_top" xlink:title=" ">
<polygon fill="white" stroke="#666666" points="718,-67.5 553,-67.5 553,-37.5 718,-37.5 718,-67.5"/>
<text text-anchor="start" x="561" y="-55.5" font-family="Helvetica,sans-Serif" font-size="10.00">Terraria.Player.TileInteractions</text>
<text text-anchor="middle" x="635.5" y="-44.5" font-family="Helvetica,sans-Serif" font-size="10.00">Check</text>
</a>
</g>
</g>
<!-- Node4&#45;&gt;Node5 -->
<g id="edge4_Node000004_Node000005" class="edge">
<title>Node4&#45;&gt;Node5</title>
<g id="a_edge4_Node000004_Node000005"><a xlink:title=" ">
<path fill="none" stroke="#63b8ff" d="M743.83,-52.5C735.26,-52.5 726.67,-52.5 718.29,-52.5"/>
<polygon fill="#63b8ff" stroke="#63b8ff" points="743.85,-56 753.85,-52.5 743.85,-49 743.85,-56"/>
</a>
</g>
</g>
<!-- Node6 -->
<g id="Node000006" class="node">
<title>Node6</title>
<g id="a_Node000006"><a xlink:href="../../d4/d03/classTerraria_1_1Player_a5510cf851b3582e9fbfa6a487da9e057.html#a5510cf851b3582e9fbfa6a487da9e057" target="_top" xlink:title=" ">
<polygon fill="white" stroke="#666666" points="307,-67.5 161,-67.5 161,-37.5 307,-37.5 307,-67.5"/>
<text text-anchor="start" x="169" y="-55.5" font-family="Helvetica,sans-Serif" font-size="10.00">Terraria.Player.LookForTile</text>
<text text-anchor="middle" x="234" y="-44.5" font-family="Helvetica,sans-Serif" font-size="10.00">Interactions</text>
</a>
</g>
</g>
<!-- Node5&#45;&gt;Node6 -->
<g id="edge5_Node000005_Node000006" class="edge">
<title>Node5&#45;&gt;Node6</title>
<g id="a_edge5_Node000005_Node000006"><a xlink:title=" ">
<path fill="none" stroke="#63b8ff" d="M542.76,-55.07C534.05,-55.24 525.36,-55.39 517,-55.5 439.67,-56.49 420.33,-56.57 343,-55.5 331.37,-55.34 319.04,-55.08 307.03,-54.78"/>
<polygon fill="#63b8ff" stroke="#63b8ff" points="543.04,-58.56 552.97,-54.85 542.89,-51.56 543.04,-58.56"/>
</a>
</g>
</g>
<!-- Node8 -->
<g id="Node000008" class="node">
<title>Node8</title>
<g id="a_Node000008"><a xlink:href="../../d4/d03/classTerraria_1_1Player_a37caf101b91643aece315d75c2d1e052.html#a37caf101b91643aece315d75c2d1e052" target="_top" xlink:title=" ">
<polygon fill="white" stroke="#666666" points="517,-46.5 343,-46.5 343,-16.5 517,-16.5 517,-46.5"/>
<text text-anchor="start" x="351" y="-34.5" font-family="Helvetica,sans-Serif" font-size="10.00">Terraria.Player.TryInteracting</text>
<text text-anchor="middle" x="430" y="-23.5" font-family="Helvetica,sans-Serif" font-size="10.00">WithMinecartTrackInNearbyArea</text>
</a>
</g>
</g>
<!-- Node5&#45;&gt;Node8 -->
<g id="edge7_Node000005_Node000008" class="edge">
<title>Node5&#45;&gt;Node8</title>
<g id="a_edge7_Node000005_Node000008"><a xlink:title=" ">
<path fill="none" stroke="#63b8ff" d="M542.94,-43.05C534.4,-42.17 525.77,-41.28 517.28,-40.4"/>
<polygon fill="#63b8ff" stroke="#63b8ff" points="542.59,-46.53 552.9,-44.08 543.31,-39.57 542.59,-46.53"/>
</a>
</g>
</g>
<!-- Node7 -->
<g id="Node000007" class="node">
<title>Node7</title>
<g id="a_Node000007"><a xlink:href="../../d4/d03/classTerraria_1_1Player_af44290f5d38b6d5076a5fa8d6ee3dd12.html#af44290f5d38b6d5076a5fa8d6ee3dd12" target="_top" xlink:title=" ">
<polygon fill="white" stroke="#666666" points="125,-62 0,-62 0,-43 125,-43 125,-62"/>
<text text-anchor="middle" x="62.5" y="-50" font-family="Helvetica,sans-Serif" font-size="10.00">Terraria.Player.Update</text>
</a>
</g>
</g>
<!-- Node6&#45;&gt;Node7 -->
<g id="edge6_Node000006_Node000007" class="edge">
<title>Node6&#45;&gt;Node7</title>
<g id="a_edge6_Node000006_Node000007"><a xlink:title=" ">
<path fill="none" stroke="#63b8ff" d="M150.62,-52.5C142.07,-52.5 133.49,-52.5 125.22,-52.5"/>
<polygon fill="#63b8ff" stroke="#63b8ff" points="150.63,-56 160.63,-52.5 150.63,-49 150.63,-56"/>
</a>
</g>
</g>
<!-- Node8&#45;&gt;Node6 -->
<g id="edge8_Node000008_Node000006" class="edge">
<title>Node8&#45;&gt;Node6</title>
<g id="a_edge8_Node000008_Node000006"><a xlink:title=" ">
<path fill="none" stroke="#63b8ff" d="M332.67,-41.93C324.04,-42.86 315.4,-43.8 307.03,-44.7"/>
<polygon fill="#63b8ff" stroke="#63b8ff" points="333.21,-45.39 342.78,-40.83 332.46,-38.43 333.21,-45.39"/>
</a>
</g>
</g>
<!-- Node9&#45;&gt;Node4 -->
<g id="edge10_Node000009_Node000004" class="edge">
<title>Node9&#45;&gt;Node4</title>
<g id="a_edge10_Node000009_Node000004"><a xlink:title=" ">
<path fill="none" stroke="#63b8ff" d="M963.76,-39C952.09,-40.35 940.42,-41.7 929.22,-42.99"/>
<polygon fill="#63b8ff" stroke="#63b8ff" points="964.47,-42.44 974,-37.81 963.66,-35.49 964.47,-42.44"/>
</a>
</g>
</g>
</g>
</svg>

<g id="navigator" transform="translate(0 0)" fill="#404254">
  <rect fill="#f2f5e9" fill-opacity="0.5" stroke="#606060" stroke-width=".5" x="0" y="0" width="60" height="60"/>
  <use id="zoomplus" xlink:href="#zoomPlus" x="17" y="9" onmousedown="handleZoom(evt,'in')"/>
  <use id="zoomminus" xlink:href="#zoomMin" x="42" y="9" onmousedown="handleZoom(evt,'out')"/>
  <use id="reset" xlink:href="#resetDef" x="30" y="36" onmousedown="handleReset()"/>
   <use id="arrowup" xlink:href="#arrowUp" x="0" y="0" onmousedown="handlePan(0,-1)"/>
  <use id="arrowright" xlink:href="#arrowRight" x="0" y="0" onmousedown="handlePan(1,0)"/>
  <use id="arrowdown" xlink:href="#arrowDown" x="0" y="0" onmousedown="handlePan(0,1)"/>
  <use id="arrowleft" xlink:href="#arrowLeft" x="0" y="0" onmousedown="handlePan(-1,0)"/>
</g>
<svg viewBox="0 0 15 15" width="100%" height="30px" preserveAspectRatio="xMaxYMin meet">
 <g id="arrow_out" transform="scale(0.3 0.3)">
  <a xlink:href="classTerraria_1_1DataStructures_1_1TileEntity_aeac9e6997ac40802f99e063a358626f9_aeac9e6997ac40802f99e063a358626f9_icgraph_org.svg" target="_base">
   <rect id="button" ry="5" rx="5" y="6" x="6" height="38" width="38"
        fill="#f2f5e9" fill-opacity="0.5" stroke="#606060" stroke-width="1.0"/>
   <path id="arrow"
     d="M 11.500037,31.436501 C 11.940474,20.09759 22.043105,11.32322 32.158766,21.979434 L 37.068811,17.246167 C 37.068811,17.246167 37.088388,32 37.088388,32 L 22.160133,31.978069 C 22.160133,31.978069 26.997745,27.140456 26.997745,27.140456 C 18.528582,18.264221 13.291696,25.230495 11.500037,31.436501 z"
     style="fill:#404040;"/>
  </a>
 </g>
</svg>

<style type='text/css'>
<![CDATA[
[data-mouse-over-selected='false'] { opacity: 0.7; }
[data-mouse-over-selected='true']  { opacity: 1.0; }
]]>
</style>
<script type="application/ecmascript"><![CDATA[
document.addEventListener('DOMContentLoaded', (event) => {
  highlightEdges();
  highlightAdjacentNodes();
});
]]></script>
</svg>
