<?xml version="1.0" encoding="UTF-8" standalone="no"?>
<!DOCTYPE svg PUBLIC "-//W3C//DTD SVG 1.1//EN"
 "http://www.w3.org/Graphics/SVG/1.1/DTD/svg11.dtd">
<!-- Generated by graphviz version 2.43.0 (0)
 -->
<!-- Title: Terraria.GameContent.Biomes.CaveHouse.HouseBuilder.CreateDoorList Pages: 1 -->
<svg width="672pt" height="182pt"
 viewBox="0.00 0.00 672.00 182.00" xmlns="http://www.w3.org/2000/svg" xmlns:xlink="http://www.w3.org/1999/xlink">
<g id="graph0" class="graph" transform="scale(1 1) rotate(0) translate(4 178)">
<title>Terraria.GameContent.Biomes.CaveHouse.HouseBuilder.CreateDoorList</title>
<!-- Node1 -->
<g id="Node000001" class="node">
<title>Node1</title>
<g id="a_Node000001"><a xlink:title=" ">
<polygon fill="#999999" stroke="#666666" points="215,-102 0,-102 0,-72 215,-72 215,-102"/>
<text text-anchor="start" x="8" y="-90" font-family="Helvetica,sans-Serif" font-size="10.00">Terraria.GameContent.Biomes.</text>
<text text-anchor="middle" x="107.5" y="-79" font-family="Helvetica,sans-Serif" font-size="10.00">CaveHouse.HouseBuilder.CreateDoorList</text>
</a>
</g>
</g>
<!-- Node2 -->
<g id="Node000002" class="node">
<title>Node2</title>
<g id="a_Node000002"><a xlink:href="../../d2/d72/classTerraria_1_1GameContent_1_1Biomes_1_1CaveHouse_1_1HouseBuilder_af2d8a8c8528e0a12d0e74b3bdf20daa3.html#af2d8a8c8528e0a12d0e74b3bdf20daa3" target="_top" xlink:title=" ">
<polygon fill="white" stroke="#666666" points="454,-102 251,-102 251,-72 454,-72 454,-102"/>
<text text-anchor="start" x="259" y="-90" font-family="Helvetica,sans-Serif" font-size="10.00">Terraria.GameContent.Biomes.</text>
<text text-anchor="middle" x="352.5" y="-79" font-family="Helvetica,sans-Serif" font-size="10.00">CaveHouse.HouseBuilder.FindSideExit</text>
</a>
</g>
</g>
<!-- Node1&#45;&gt;Node2 -->
<g id="edge1_Node000001_Node000002" class="edge">
<title>Node1&#45;&gt;Node2</title>
<g id="a_edge1_Node000001_Node000002"><a xlink:title=" ">
<path fill="none" stroke="#63b8ff" d="M215.08,-87C223.51,-87 232.04,-87 240.5,-87"/>
<polygon fill="#63b8ff" stroke="#63b8ff" points="240.78,-90.5 250.78,-87 240.78,-83.5 240.78,-90.5"/>
</a>
</g>
</g>
<!-- Node3 -->
<g id="Node000003" class="node">
<title>Node3</title>
<g id="a_Node000003"><a xlink:href="../../d1/dc5/classTerraria_1_1WorldBuilding_1_1GenCondition_a580e3db106e5944f2d3876ade0fd2f30.html#a580e3db106e5944f2d3876ade0fd2f30" target="_top" xlink:title=" ">
<polygon fill="white" stroke="#666666" points="650,-174 504,-174 504,-144 650,-144 650,-174"/>
<text text-anchor="start" x="512" y="-162" font-family="Helvetica,sans-Serif" font-size="10.00">Terraria.WorldBuilding.Gen</text>
<text text-anchor="middle" x="577" y="-151" font-family="Helvetica,sans-Serif" font-size="10.00">Condition.AreaOr</text>
</a>
</g>
</g>
<!-- Node2&#45;&gt;Node3 -->
<g id="edge2_Node000002_Node000003" class="edge">
<title>Node2&#45;&gt;Node3</title>
<g id="a_edge2_Node000002_Node000003"><a xlink:title=" ">
<path fill="none" stroke="#63b8ff" d="M394.18,-102.1C421.2,-111.93 457.53,-124.77 490,-135 496.46,-137.03 503.21,-139.07 509.98,-141.05"/>
<polygon fill="#63b8ff" stroke="#63b8ff" points="509.29,-144.5 519.87,-143.91 511.23,-137.77 509.29,-144.5"/>
</a>
</g>
</g>
<!-- Node4 -->
<g id="Node000004" class="node">
<title>Node4</title>
<g id="a_Node000004"><a xlink:href="../../d0/db6/classTerraria_1_1WorldBuilding_1_1Searches_a0a2b7ab503ac7ec649d55daaf8612a42.html#a0a2b7ab503ac7ec649d55daaf8612a42" target="_top" xlink:title=" ">
<polygon fill="white" stroke="#666666" points="664,-126 490,-126 490,-96 664,-96 664,-126"/>
<text text-anchor="start" x="498" y="-114" font-family="Helvetica,sans-Serif" font-size="10.00">Terraria.WorldBuilding.Searches.</text>
<text text-anchor="middle" x="577" y="-103" font-family="Helvetica,sans-Serif" font-size="10.00">Chain</text>
</a>
</g>
</g>
<!-- Node2&#45;&gt;Node4 -->
<g id="edge3_Node000002_Node000004" class="edge">
<title>Node2&#45;&gt;Node4</title>
<g id="a_edge3_Node000002_Node000004"><a xlink:title=" ">
<path fill="none" stroke="#63b8ff" d="M454.01,-97.84C462.62,-98.77 471.31,-99.71 479.89,-100.63"/>
<polygon fill="#63b8ff" stroke="#63b8ff" points="479.56,-104.12 489.88,-101.71 480.31,-97.16 479.56,-104.12"/>
</a>
</g>
</g>
<!-- Node5 -->
<g id="Node000005" class="node">
<title>Node5</title>
<g id="a_Node000005"><a xlink:href="../../d6/d1f/classTerraria_1_1WorldBuilding_1_1WorldUtils_a2afa71136849722c517115ad53e5ea65.html#a2afa71136849722c517115ad53e5ea65" target="_top" xlink:title=" ">
<polygon fill="white" stroke="#666666" points="654.5,-78 499.5,-78 499.5,-48 654.5,-48 654.5,-78"/>
<text text-anchor="start" x="507.5" y="-66" font-family="Helvetica,sans-Serif" font-size="10.00">Terraria.WorldBuilding.World</text>
<text text-anchor="middle" x="577" y="-55" font-family="Helvetica,sans-Serif" font-size="10.00">Utils.Find</text>
</a>
</g>
</g>
<!-- Node2&#45;&gt;Node5 -->
<g id="edge4_Node000002_Node000005" class="edge">
<title>Node2&#45;&gt;Node5</title>
<g id="a_edge4_Node000002_Node000005"><a xlink:title=" ">
<path fill="none" stroke="#63b8ff" d="M454.01,-76.16C465.77,-74.89 477.69,-73.6 489.23,-72.36"/>
<polygon fill="#63b8ff" stroke="#63b8ff" points="489.71,-75.83 499.27,-71.28 488.96,-68.87 489.71,-75.83"/>
</a>
</g>
</g>
<!-- Node6 -->
<g id="Node000006" class="node">
<title>Node6</title>
<g id="a_Node000006"><a xlink:href="../../d1/dc5/classTerraria_1_1WorldBuilding_1_1GenCondition_a9ba5319956236c132204d0043afda2ce.html#a9ba5319956236c132204d0043afda2ce" target="_top" xlink:title=" ">
<polygon fill="white" stroke="#666666" points="650,-30 504,-30 504,0 650,0 650,-30"/>
<text text-anchor="start" x="512" y="-18" font-family="Helvetica,sans-Serif" font-size="10.00">Terraria.WorldBuilding.Gen</text>
<text text-anchor="middle" x="577" y="-7" font-family="Helvetica,sans-Serif" font-size="10.00">Condition.Not</text>
</a>
</g>
</g>
<!-- Node2&#45;&gt;Node6 -->
<g id="edge5_Node000002_Node000006" class="edge">
<title>Node2&#45;&gt;Node6</title>
<g id="a_edge5_Node000002_Node000006"><a xlink:title=" ">
<path fill="none" stroke="#63b8ff" d="M394.18,-71.9C421.2,-62.07 457.53,-49.23 490,-39 496.46,-36.97 503.21,-34.93 509.98,-32.95"/>
<polygon fill="#63b8ff" stroke="#63b8ff" points="511.23,-36.23 519.87,-30.09 509.29,-29.5 511.23,-36.23"/>
</a>
</g>
</g>
</g>
</svg>
