<?xml version="1.0" encoding="UTF-8" standalone="no"?>
<!DOCTYPE svg PUBLIC "-//W3C//DTD SVG 1.1//EN"
 "http://www.w3.org/Graphics/SVG/1.1/DTD/svg11.dtd">
<!-- Generated by graphviz version 2.43.0 (0)
 -->
<!-- Title: Terraria.Net.LegacyNetBufferPool Pages: 1 -->
<svg width="272pt" height="345pt"
 viewBox="0.00 0.00 271.50 345.00" xmlns="http://www.w3.org/2000/svg" xmlns:xlink="http://www.w3.org/1999/xlink">

<svg id="main" version="1.1" xmlns="http://www.w3.org/2000/svg" xmlns:xlink="http://www.w3.org/1999/xlink" xml:space="preserve" onload="init(evt)">
<style type="text/css"><![CDATA[
.node, .edge {opacity: 0.7;}
.node.selected, .edge.selected {opacity: 1;}
.edge:hover path { stroke: red; }
.edge:hover polygon { stroke: red; fill: red; }
]]></style>
<script type="application/ecmascript" xlink:href="../../svg.min.js"/>
<svg id="graph" class="graph">
<g id="graph0" class="graph" transform="scale(1 1) rotate(0) translate(4 341)">
<title>Terraria.Net.LegacyNetBufferPool</title>
<!-- Node1 -->
<g id="Node000001" class="node">
<title>Node1</title>
<g id="a_Node000001"><a xlink:title=" ">
<polygon fill="#999999" stroke="transparent" points="173,-164 0,-164 0,0 173,0 173,-164"/>
<text text-anchor="start" x="5.5" y="-152" font-family="Helvetica,sans-Serif" font-size="10.00">Terraria.Net.LegacyNetBufferPool</text>
<text text-anchor="start" x="85" y="-137" font-family="Helvetica,sans-Serif" font-size="10.00"> </text>
<text text-anchor="start" x="7.5" y="-122" font-family="Helvetica,sans-Serif" font-size="10.00">+</text>
<text text-anchor="start" x="23.5" y="-122" font-family="Helvetica,sans-Serif" font-size="10.00">static byte[] RequestBuffer</text>
<text text-anchor="start" x="23.5" y="-111" font-family="Helvetica,sans-Serif" font-size="10.00">(int size)</text>
<text text-anchor="start" x="7.5" y="-96" font-family="Helvetica,sans-Serif" font-size="10.00">+</text>
<text text-anchor="start" x="23.5" y="-96" font-family="Helvetica,sans-Serif" font-size="10.00">static byte[] RequestBuffer</text>
<text text-anchor="start" x="23.5" y="-85" font-family="Helvetica,sans-Serif" font-size="10.00">(byte[] data, int offset,</text>
<text text-anchor="start" x="23.5" y="-74" font-family="Helvetica,sans-Serif" font-size="10.00"> int size)</text>
<text text-anchor="start" x="7.5" y="-59" font-family="Helvetica,sans-Serif" font-size="10.00">+</text>
<text text-anchor="start" x="23.5" y="-59" font-family="Helvetica,sans-Serif" font-size="10.00">static void ReturnBuffer</text>
<text text-anchor="start" x="23.5" y="-48" font-family="Helvetica,sans-Serif" font-size="10.00">(byte[] buffer)</text>
<text text-anchor="start" x="7.5" y="-33" font-family="Helvetica,sans-Serif" font-size="10.00">+</text>
<text text-anchor="start" x="23.5" y="-33" font-family="Helvetica,sans-Serif" font-size="10.00">static void DisplayBuffer</text>
<text text-anchor="start" x="23.5" y="-22" font-family="Helvetica,sans-Serif" font-size="10.00">Sizes()</text>
<text text-anchor="start" x="7.5" y="-7" font-family="Helvetica,sans-Serif" font-size="10.00">+</text>
<text text-anchor="start" x="23.5" y="-7" font-family="Helvetica,sans-Serif" font-size="10.00">static void PrintBufferSizes()</text>
<polygon fill="#666666" stroke="#666666" points="0.5,-147 0.5,-147 173.5,-147 173.5,-147 0.5,-147"/>
<polygon fill="#666666" stroke="#666666" points="0.5,-132 0.5,-132 173.5,-132 173.5,-132 0.5,-132"/>
<polygon fill="none" stroke="#666666" points="0,0 0,-164 173,-164 173,0 0,0"/>
</a>
</g>
</g>
<!-- Node2 -->
<g id="Node000002" class="node">
<title>Node2</title>
<g id="a_Node000002"><a xlink:title=" ">
<polygon fill="white" stroke="transparent" points="28,-337 5,-337 5,-288 28,-288 28,-337"/>
<text text-anchor="start" x="10.5" y="-324.5" font-family="Helvetica,sans-Serif" font-size="10.00">int</text>
<text text-anchor="start" x="15" y="-309.5" font-family="Helvetica,sans-Serif" font-size="10.00"> </text>
<text text-anchor="start" x="15" y="-294.5" font-family="Helvetica,sans-Serif" font-size="10.00"> </text>
<polygon fill="#666666" stroke="#666666" points="5.5,-319.5 5.5,-319.5 28.5,-319.5 28.5,-319.5 5.5,-319.5"/>
<polygon fill="#666666" stroke="#666666" points="5.5,-304.5 5.5,-304.5 28.5,-304.5 28.5,-304.5 5.5,-304.5"/>
<polygon fill="none" stroke="#666666" points="5,-288 5,-337 28,-337 28,-288 5,-288"/>
</a>
</g>
</g>
<!-- Node2&#45;&gt;Node1 -->
<g id="edge1_Node000001_Node000002" class="edge">
<title>Node2&#45;&gt;Node1</title>
<g id="a_edge1_Node000001_Node000002"><a xlink:title=" ">
<path fill="none" stroke="#63b8ff" d="M12.59,-287.92C9.12,-261.46 6.18,-217.56 17.5,-182 18.21,-179.75 19,-177.51 19.85,-175.28"/>
<polygon fill="none" stroke="#63b8ff" points="19.86,-175.27 18.54,-168.18 24.58,-164.24 25.89,-171.33 19.86,-175.27"/>
</a>
</g>
<text text-anchor="middle" x="76.5" y="-234.5" font-family="Helvetica,sans-Serif" font-size="10.00" fill="grey"> &#45;LARGE_BUFFER_SIZE</text>
<text text-anchor="middle" x="76.5" y="-223.5" font-family="Helvetica,sans-Serif" font-size="10.00" fill="grey">&#45;MEDIUM_BUFFER_SIZE</text>
<text text-anchor="middle" x="76.5" y="-212.5" font-family="Helvetica,sans-Serif" font-size="10.00" fill="grey">&#45;SMALL_BUFFER_SIZE</text>
</g>
<!-- Node3 -->
<g id="Node000003" class="node">
<title>Node3</title>
<g id="a_Node000003"><a xlink:title=" ">
<polygon fill="white" stroke="transparent" points="176.5,-337 138.5,-337 138.5,-288 176.5,-288 176.5,-337"/>
<text text-anchor="start" x="143.5" y="-324.5" font-family="Helvetica,sans-Serif" font-size="10.00">static</text>
<text text-anchor="start" x="155.5" y="-309.5" font-family="Helvetica,sans-Serif" font-size="10.00"> </text>
<text text-anchor="start" x="155.5" y="-294.5" font-family="Helvetica,sans-Serif" font-size="10.00"> </text>
<polygon fill="#666666" stroke="#666666" points="138.5,-319.5 138.5,-319.5 176.5,-319.5 176.5,-319.5 138.5,-319.5"/>
<polygon fill="#666666" stroke="#666666" points="138.5,-304.5 138.5,-304.5 176.5,-304.5 176.5,-304.5 138.5,-304.5"/>
<polygon fill="none" stroke="#666666" points="138.5,-288 138.5,-337 176.5,-337 176.5,-288 138.5,-288"/>
</a>
</g>
</g>
<!-- Node3&#45;&gt;Node1 -->
<g id="edge2_Node000001_Node000003" class="edge">
<title>Node3&#45;&gt;Node1</title>
<g id="a_edge2_Node000001_Node000003"><a xlink:title=" ">
<path fill="none" stroke="#63b8ff" d="M155.54,-287.61C152.9,-261.24 147.12,-217.79 135.5,-182 134.78,-179.78 134.01,-177.54 133.21,-175.3"/>
<polygon fill="none" stroke="#63b8ff" points="133.2,-175.28 127.33,-171.09 128.93,-164.06 134.81,-168.24 133.2,-175.28"/>
</a>
</g>
<text text-anchor="middle" x="208" y="-262" font-family="Helvetica,sans-Serif" font-size="10.00" fill="grey"> &#45;_customBufferCount</text>
<text text-anchor="middle" x="208" y="-251" font-family="Helvetica,sans-Serif" font-size="10.00" fill="grey">&#45;_largeBufferCount</text>
<text text-anchor="middle" x="208" y="-240" font-family="Helvetica,sans-Serif" font-size="10.00" fill="grey">&#45;_largeBufferQueue</text>
<text text-anchor="middle" x="208" y="-229" font-family="Helvetica,sans-Serif" font-size="10.00" fill="grey">&#45;_mediumBufferCount</text>
<text text-anchor="middle" x="208" y="-218" font-family="Helvetica,sans-Serif" font-size="10.00" fill="grey">&#45;_mediumBufferQueue</text>
<text text-anchor="middle" x="208" y="-207" font-family="Helvetica,sans-Serif" font-size="10.00" fill="grey">&#45;_smallBufferCount</text>
<text text-anchor="middle" x="208" y="-196" font-family="Helvetica,sans-Serif" font-size="10.00" fill="grey">&#45;_smallBufferQueue</text>
<text text-anchor="middle" x="208" y="-185" font-family="Helvetica,sans-Serif" font-size="10.00" fill="grey">&#45;bufferLock</text>
</g>
</g>
</svg>
</svg>

<style type='text/css'>
<![CDATA[
[data-mouse-over-selected='false'] { opacity: 0.7; }
[data-mouse-over-selected='true']  { opacity: 1.0; }
]]>
</style>
<script type="application/ecmascript"><![CDATA[
document.addEventListener('DOMContentLoaded', (event) => {
  highlightEdges();
  highlightAdjacentNodes();
});
]]></script>
</svg>
