<?xml version="1.0" encoding="UTF-8" standalone="no"?>
<!DOCTYPE svg PUBLIC "-//W3C//DTD SVG 1.1//EN"
 "http://www.w3.org/Graphics/SVG/1.1/DTD/svg11.dtd">
<!-- Generated by graphviz version 2.43.0 (0)
 -->
<!-- Title: Terraria.Graphics.Renderers.PrettySparkleParticle Pages: 1 -->
<svg width="980pt" height="749pt"
 viewBox="0.00 0.00 980.00 749.00" xmlns="http://www.w3.org/2000/svg" xmlns:xlink="http://www.w3.org/1999/xlink">
<g id="graph0" class="graph" transform="scale(1 1) rotate(0) translate(4 745)">
<title>Terraria.Graphics.Renderers.PrettySparkleParticle</title>
<!-- Node1 -->
<g id="Node000001" class="node">
<title>Node1</title>
<g id="a_Node000001"><a xlink:title=" ">
<polygon fill="#999999" stroke="transparent" points="836.5,-134 649.5,-134 649.5,0 836.5,0 836.5,-134"/>
<text text-anchor="start" x="674" y="-122" font-family="Helvetica,sans-Serif" font-size="10.00">Terraria.Graphics.Renderers.</text>
<text text-anchor="start" x="692" y="-111" font-family="Helvetica,sans-Serif" font-size="10.00">PrettySparkleParticle</text>
<text text-anchor="start" x="741.5" y="-96" font-family="Helvetica,sans-Serif" font-size="10.00"> </text>
<text text-anchor="start" x="654" y="-81" font-family="Helvetica,sans-Serif" font-size="10.00">+</text>
<text text-anchor="start" x="667" y="-81" font-family="Helvetica,sans-Serif" font-size="10.00">override void FetchFromPool()</text>
<text text-anchor="start" x="654" y="-66" font-family="Helvetica,sans-Serif" font-size="10.00">+</text>
<text text-anchor="start" x="667" y="-66" font-family="Helvetica,sans-Serif" font-size="10.00">override void Update</text>
<text text-anchor="start" x="667" y="-55" font-family="Helvetica,sans-Serif" font-size="10.00">(ref ParticleRendererSettings</text>
<text text-anchor="start" x="667" y="-44" font-family="Helvetica,sans-Serif" font-size="10.00"> settings)</text>
<text text-anchor="start" x="654" y="-29" font-family="Helvetica,sans-Serif" font-size="10.00">+</text>
<text text-anchor="start" x="667" y="-29" font-family="Helvetica,sans-Serif" font-size="10.00">override void Draw</text>
<text text-anchor="start" x="667" y="-18" font-family="Helvetica,sans-Serif" font-size="10.00">(ref ParticleRendererSettings</text>
<text text-anchor="start" x="667" y="-7" font-family="Helvetica,sans-Serif" font-size="10.00"> settings, SpriteBatch spritebatch)</text>
<polygon fill="#666666" stroke="#666666" points="650,-106 650,-106 837,-106 837,-106 650,-106"/>
<polygon fill="#666666" stroke="#666666" points="650,-91 650,-91 837,-91 837,-91 650,-91"/>
<polygon fill="none" stroke="#666666" points="649.5,0 649.5,-134 836.5,-134 836.5,0 649.5,0"/>
</a>
</g>
</g>
<!-- Node2 -->
<g id="Node000002" class="node">
<title>Node2</title>
<g id="a_Node000002"><a xlink:href="../../d4/d57/classTerraria_1_1Graphics_1_1Renderers_1_1ABasicParticle.html" target="_top" xlink:title=" ">
<polygon fill="white" stroke="transparent" points="510,-419 284,-419 284,-192 510,-192 510,-419"/>
<text text-anchor="start" x="362" y="-406.5" font-family="Helvetica,sans-Serif" font-size="10.00">ABasicParticle</text>
<text text-anchor="start" x="288" y="-391.5" font-family="Helvetica,sans-Serif" font-size="10.00">+</text>
<text text-anchor="start" x="301" y="-391.5" font-family="Helvetica,sans-Serif" font-size="10.00">bool ShouldBeRemovedFrom</text>
<text text-anchor="start" x="301" y="-380.5" font-family="Helvetica,sans-Serif" font-size="10.00">Renderer</text>
<text text-anchor="start" x="288" y="-365.5" font-family="Helvetica,sans-Serif" font-size="10.00">+</text>
<text text-anchor="start" x="301" y="-365.5" font-family="Helvetica,sans-Serif" font-size="10.00">bool IsRestingInPool</text>
<text text-anchor="start" x="288" y="-350.5" font-family="Helvetica,sans-Serif" font-size="10.00">+</text>
<text text-anchor="start" x="301" y="-350.5" font-family="Helvetica,sans-Serif" font-size="10.00">ABasicParticle()</text>
<text text-anchor="start" x="288" y="-335.5" font-family="Helvetica,sans-Serif" font-size="10.00">+</text>
<text text-anchor="start" x="301" y="-335.5" font-family="Helvetica,sans-Serif" font-size="10.00">virtual void SetBasicInfo</text>
<text text-anchor="start" x="301" y="-324.5" font-family="Helvetica,sans-Serif" font-size="10.00">(Asset&lt; Texture2D &gt; textureAsset,</text>
<text text-anchor="start" x="301" y="-313.5" font-family="Helvetica,sans-Serif" font-size="10.00"> Rectangle? frame, Vector2 initialVelocity,</text>
<text text-anchor="start" x="301" y="-302.5" font-family="Helvetica,sans-Serif" font-size="10.00"> Vector2 initialLocalPosition)</text>
<text text-anchor="start" x="288" y="-287.5" font-family="Helvetica,sans-Serif" font-size="10.00">+</text>
<text text-anchor="start" x="301" y="-287.5" font-family="Helvetica,sans-Serif" font-size="10.00">virtual void Update</text>
<text text-anchor="start" x="301" y="-276.5" font-family="Helvetica,sans-Serif" font-size="10.00">(ref ParticleRendererSettings</text>
<text text-anchor="start" x="301" y="-265.5" font-family="Helvetica,sans-Serif" font-size="10.00"> settings)</text>
<text text-anchor="start" x="288" y="-250.5" font-family="Helvetica,sans-Serif" font-size="10.00">+</text>
<text text-anchor="start" x="301" y="-250.5" font-family="Helvetica,sans-Serif" font-size="10.00">void Draw(ref ParticleRenderer</text>
<text text-anchor="start" x="301" y="-239.5" font-family="Helvetica,sans-Serif" font-size="10.00">Settings settings, SpriteBatch</text>
<text text-anchor="start" x="301" y="-228.5" font-family="Helvetica,sans-Serif" font-size="10.00"> spritebatch)</text>
<text text-anchor="start" x="288" y="-213.5" font-family="Helvetica,sans-Serif" font-size="10.00">+</text>
<text text-anchor="start" x="301" y="-213.5" font-family="Helvetica,sans-Serif" font-size="10.00">void RestInPool()</text>
<text text-anchor="start" x="288" y="-198.5" font-family="Helvetica,sans-Serif" font-size="10.00">+</text>
<text text-anchor="start" x="301" y="-198.5" font-family="Helvetica,sans-Serif" font-size="10.00">virtual void FetchFromPool()</text>
<polygon fill="#666666" stroke="#666666" points="284,-401.5 284,-401.5 510,-401.5 510,-401.5 284,-401.5"/>
<polygon fill="#666666" stroke="#666666" points="284,-360.5 284,-360.5 299,-360.5 299,-360.5 284,-360.5"/>
<polygon fill="#666666" stroke="#666666" points="299,-360.5 299,-360.5 510,-360.5 510,-360.5 299,-360.5"/>
<polygon fill="none" stroke="#666666" points="284,-192 284,-419 510,-419 510,-192 284,-192"/>
</a>
</g>
</g>
<!-- Node2&#45;&gt;Node1 -->
<g id="edge1_Node000001_Node000002" class="edge">
<title>Node2&#45;&gt;Node1</title>
<g id="a_edge1_Node000001_Node000002"><a xlink:title=" ">
<path fill="none" stroke="#63b8ff" d="M518.81,-221.24C561.69,-191.93 609.19,-159.46 649.39,-131.98"/>
<polygon fill="none" stroke="#63b8ff" points="516.57,-218.53 510.29,-227.06 520.52,-224.31 516.57,-218.53"/>
</a>
</g>
</g>
<!-- Node3 -->
<g id="Node000003" class="node">
<title>Node3</title>
<g id="a_Node000003"><a xlink:href="../../d7/d55/interfaceTerraria_1_1Graphics_1_1Renderers_1_1IPooledParticle.html" target="_top" xlink:title=" ">
<polygon fill="white" stroke="transparent" points="227.5,-596 102.5,-596 102.5,-532 227.5,-532 227.5,-596"/>
<text text-anchor="start" x="129" y="-584" font-family="Helvetica,sans-Serif" font-size="10.00">IPooledParticle</text>
<text text-anchor="start" x="107" y="-569" font-family="Helvetica,sans-Serif" font-size="10.00">+</text>
<text text-anchor="start" x="120" y="-569" font-family="Helvetica,sans-Serif" font-size="10.00">bool IsRestingInPool</text>
<text text-anchor="start" x="107" y="-554" font-family="Helvetica,sans-Serif" font-size="10.00">+</text>
<text text-anchor="start" x="120" y="-554" font-family="Helvetica,sans-Serif" font-size="10.00">void RestInPool()</text>
<text text-anchor="start" x="107" y="-539" font-family="Helvetica,sans-Serif" font-size="10.00">+</text>
<text text-anchor="start" x="120" y="-539" font-family="Helvetica,sans-Serif" font-size="10.00">void FetchFromPool()</text>
<polygon fill="#666666" stroke="#666666" points="103,-579 103,-579 228,-579 228,-579 103,-579"/>
<polygon fill="#666666" stroke="#666666" points="103,-564 103,-564 118,-564 118,-564 103,-564"/>
<polygon fill="#666666" stroke="#666666" points="118,-564 118,-564 228,-564 228,-564 118,-564"/>
<polygon fill="none" stroke="#666666" points="102.5,-532 102.5,-596 227.5,-596 227.5,-532 102.5,-532"/>
</a>
</g>
</g>
<!-- Node3&#45;&gt;Node2 -->
<g id="edge2_Node000002_Node000003" class="edge">
<title>Node3&#45;&gt;Node2</title>
<g id="a_edge2_Node000002_Node000003"><a xlink:title=" ">
<path fill="none" stroke="#63b8ff" d="M190.5,-523.56C207.79,-497.93 231.81,-464.32 256,-437 264.73,-427.14 274.13,-417.21 283.78,-407.47"/>
<polygon fill="none" stroke="#63b8ff" points="187.56,-521.67 184.91,-531.93 193.38,-525.56 187.56,-521.67"/>
</a>
</g>
</g>
<!-- Node4 -->
<g id="Node000004" class="node">
<title>Node4</title>
<g id="a_Node000004"><a xlink:href="../../db/d57/interfaceTerraria_1_1Graphics_1_1Renderers_1_1IParticle.html" target="_top" xlink:title=" ">
<polygon fill="white" stroke="transparent" points="172,-741 0,-741 0,-633 172,-633 172,-741"/>
<text text-anchor="start" x="66" y="-729" font-family="Helvetica,sans-Serif" font-size="10.00">IParticle</text>
<text text-anchor="start" x="4" y="-714" font-family="Helvetica,sans-Serif" font-size="10.00">+</text>
<text text-anchor="start" x="17" y="-714" font-family="Helvetica,sans-Serif" font-size="10.00">bool ShouldBeRemovedFrom</text>
<text text-anchor="start" x="17" y="-703" font-family="Helvetica,sans-Serif" font-size="10.00">Renderer</text>
<text text-anchor="start" x="4" y="-688" font-family="Helvetica,sans-Serif" font-size="10.00">+</text>
<text text-anchor="start" x="17" y="-688" font-family="Helvetica,sans-Serif" font-size="10.00">void Update(ref Particle</text>
<text text-anchor="start" x="17" y="-677" font-family="Helvetica,sans-Serif" font-size="10.00">RendererSettings settings)</text>
<text text-anchor="start" x="4" y="-662" font-family="Helvetica,sans-Serif" font-size="10.00">+</text>
<text text-anchor="start" x="17" y="-662" font-family="Helvetica,sans-Serif" font-size="10.00">void Draw(ref ParticleRenderer</text>
<text text-anchor="start" x="17" y="-651" font-family="Helvetica,sans-Serif" font-size="10.00">Settings settings, SpriteBatch</text>
<text text-anchor="start" x="17" y="-640" font-family="Helvetica,sans-Serif" font-size="10.00"> spritebatch)</text>
<polygon fill="#666666" stroke="#666666" points="0,-724 0,-724 172,-724 172,-724 0,-724"/>
<polygon fill="#666666" stroke="#666666" points="0,-698 0,-698 15,-698 15,-698 0,-698"/>
<polygon fill="#666666" stroke="#666666" points="15,-698 15,-698 172,-698 172,-698 15,-698"/>
<polygon fill="none" stroke="#666666" points="0,-633 0,-741 172,-741 172,-633 0,-633"/>
</a>
</g>
</g>
<!-- Node4&#45;&gt;Node2 -->
<g id="edge4_Node000002_Node000004" class="edge">
<title>Node4&#45;&gt;Node2</title>
<g id="a_edge4_Node000002_Node000004"><a xlink:title=" ">
<path fill="none" stroke="#63b8ff" d="M78.32,-622.34C77.46,-593.56 80.21,-559.83 93,-532 130.31,-450.79 213.78,-392.23 283.83,-355.16"/>
<polygon fill="none" stroke="#63b8ff" points="74.84,-622.88 78.79,-632.71 81.84,-622.56 74.84,-622.88"/>
</a>
</g>
</g>
<!-- Node4&#45;&gt;Node3 -->
<g id="edge3_Node000003_Node000004" class="edge">
<title>Node4&#45;&gt;Node3</title>
<g id="a_edge3_Node000003_Node000004"><a xlink:title=" ">
<path fill="none" stroke="#63b8ff" d="M126.26,-624.34C132.65,-614.55 139.01,-604.8 144.68,-596.12"/>
<polygon fill="none" stroke="#63b8ff" points="123.19,-622.64 120.65,-632.93 129.05,-626.47 123.19,-622.64"/>
</a>
</g>
</g>
<!-- Node5 -->
<g id="Node000005" class="node">
<title>Node5</title>
<g id="a_Node000005"><a xlink:title=" ">
<polygon fill="white" stroke="transparent" points="292.5,-588.5 245.5,-588.5 245.5,-539.5 292.5,-539.5 292.5,-588.5"/>
<text text-anchor="start" x="251" y="-576" font-family="Helvetica,sans-Serif" font-size="10.00">Vector2</text>
<text text-anchor="start" x="267.5" y="-561" font-family="Helvetica,sans-Serif" font-size="10.00"> </text>
<text text-anchor="start" x="267.5" y="-546" font-family="Helvetica,sans-Serif" font-size="10.00"> </text>
<polygon fill="#666666" stroke="#666666" points="246,-571 246,-571 293,-571 293,-571 246,-571"/>
<polygon fill="#666666" stroke="#666666" points="246,-556 246,-556 293,-556 293,-556 246,-556"/>
<polygon fill="none" stroke="#666666" points="245.5,-539.5 245.5,-588.5 292.5,-588.5 292.5,-539.5 245.5,-539.5"/>
</a>
</g>
</g>
<!-- Node5&#45;&gt;Node2 -->
<g id="edge5_Node000002_Node000005" class="edge">
<title>Node5&#45;&gt;Node2</title>
<g id="a_edge5_Node000002_Node000005"><a xlink:title=" ">
<path fill="none" stroke="#63b8ff" d="M263.83,-539.22C259.29,-513.1 255.35,-470.41 269,-437 271.41,-431.09 274.24,-425.31 277.39,-419.66"/>
<polygon fill="none" stroke="#63b8ff" points="277.64,-419.25 277.32,-412.05 283.85,-408.98 284.17,-416.19 277.64,-419.25"/>
</a>
</g>
<text text-anchor="middle" x="327" y="-506" font-family="Helvetica,sans-Serif" font-size="10.00" fill="grey"> #_origin</text>
<text text-anchor="middle" x="327" y="-495" font-family="Helvetica,sans-Serif" font-size="10.00" fill="grey">+AccelerationPerFrame</text>
<text text-anchor="middle" x="327" y="-484" font-family="Helvetica,sans-Serif" font-size="10.00" fill="grey">+LocalPosition</text>
<text text-anchor="middle" x="327" y="-473" font-family="Helvetica,sans-Serif" font-size="10.00" fill="grey">+Scale</text>
<text text-anchor="middle" x="327" y="-462" font-family="Helvetica,sans-Serif" font-size="10.00" fill="grey">+ScaleAcceleration</text>
<text text-anchor="middle" x="327" y="-451" font-family="Helvetica,sans-Serif" font-size="10.00" fill="grey">+ScaleVelocity</text>
<text text-anchor="middle" x="327" y="-440" font-family="Helvetica,sans-Serif" font-size="10.00" fill="grey">+Velocity</text>
</g>
<!-- Node6 -->
<g id="Node000006" class="node">
<title>Node6</title>
<g id="a_Node000006"><a xlink:title=" ">
<polygon fill="white" stroke="transparent" points="442,-588.5 332,-588.5 332,-539.5 442,-539.5 442,-588.5"/>
<text text-anchor="start" x="337" y="-576" font-family="Helvetica,sans-Serif" font-size="10.00">Asset&lt; Texture2D &gt;</text>
<text text-anchor="start" x="385" y="-561" font-family="Helvetica,sans-Serif" font-size="10.00"> </text>
<text text-anchor="start" x="385" y="-546" font-family="Helvetica,sans-Serif" font-size="10.00"> </text>
<polygon fill="#666666" stroke="#666666" points="332,-571 332,-571 442,-571 442,-571 332,-571"/>
<polygon fill="#666666" stroke="#666666" points="332,-556 332,-556 442,-556 442,-556 332,-556"/>
<polygon fill="none" stroke="#666666" points="332,-539.5 332,-588.5 442,-588.5 442,-539.5 332,-539.5"/>
</a>
</g>
</g>
<!-- Node6&#45;&gt;Node2 -->
<g id="edge6_Node000002_Node000006" class="edge">
<title>Node6&#45;&gt;Node2</title>
<g id="a_edge6_Node000002_Node000006"><a xlink:title=" ">
<path fill="none" stroke="#63b8ff" d="M387.92,-539.33C388.9,-514.21 390.53,-472.54 392.13,-431.34"/>
<polygon fill="none" stroke="#63b8ff" points="392.14,-431.16 388.38,-425.01 392.61,-419.17 396.37,-425.32 392.14,-431.16"/>
</a>
</g>
<text text-anchor="middle" x="418" y="-473" font-family="Helvetica,sans-Serif" font-size="10.00" fill="grey"> #_texture</text>
</g>
<!-- Node7 -->
<g id="Node000007" class="node">
<title>Node7</title>
<g id="a_Node000007"><a xlink:title=" ">
<polygon fill="white" stroke="transparent" points="519.5,-588.5 460.5,-588.5 460.5,-539.5 519.5,-539.5 519.5,-588.5"/>
<text text-anchor="start" x="466" y="-576" font-family="Helvetica,sans-Serif" font-size="10.00">Rectangle</text>
<text text-anchor="start" x="488.5" y="-561" font-family="Helvetica,sans-Serif" font-size="10.00"> </text>
<text text-anchor="start" x="488.5" y="-546" font-family="Helvetica,sans-Serif" font-size="10.00"> </text>
<polygon fill="#666666" stroke="#666666" points="461,-571 461,-571 520,-571 520,-571 461,-571"/>
<polygon fill="#666666" stroke="#666666" points="461,-556 461,-556 520,-556 520,-556 461,-556"/>
<polygon fill="none" stroke="#666666" points="460.5,-539.5 460.5,-588.5 519.5,-588.5 519.5,-539.5 460.5,-539.5"/>
</a>
</g>
</g>
<!-- Node7&#45;&gt;Node2 -->
<g id="edge7_Node000002_Node000007" class="edge">
<title>Node7&#45;&gt;Node2</title>
<g id="a_edge7_Node000002_Node000007"><a xlink:title=" ">
<path fill="none" stroke="#63b8ff" d="M481.6,-539.11C478.83,-531.13 475.75,-522.19 473,-514 461.55,-479.89 460.11,-470.88 448,-437 447.25,-434.9 446.49,-432.78 445.72,-430.66"/>
<polygon fill="none" stroke="#63b8ff" points="445.64,-430.43 439.81,-426.18 441.51,-419.17 447.33,-423.42 445.64,-430.43"/>
</a>
</g>
<text text-anchor="middle" x="496" y="-473" font-family="Helvetica,sans-Serif" font-size="10.00" fill="grey"> #_frame</text>
</g>
<!-- Node8 -->
<g id="Node000008" class="node">
<title>Node8</title>
<g id="a_Node000008"><a xlink:title=" ">
<polygon fill="white" stroke="transparent" points="621,-588.5 589,-588.5 589,-539.5 621,-539.5 621,-588.5"/>
<text text-anchor="start" x="594" y="-576" font-family="Helvetica,sans-Serif" font-size="10.00">float</text>
<text text-anchor="start" x="603" y="-561" font-family="Helvetica,sans-Serif" font-size="10.00"> </text>
<text text-anchor="start" x="603" y="-546" font-family="Helvetica,sans-Serif" font-size="10.00"> </text>
<polygon fill="#666666" stroke="#666666" points="589,-571 589,-571 621,-571 621,-571 589,-571"/>
<polygon fill="#666666" stroke="#666666" points="589,-556 589,-556 621,-556 621,-556 589,-556"/>
<polygon fill="none" stroke="#666666" points="589,-539.5 589,-588.5 621,-588.5 621,-539.5 589,-539.5"/>
</a>
</g>
</g>
<!-- Node8&#45;&gt;Node1 -->
<g id="edge9_Node000001_Node000008" class="edge">
<title>Node8&#45;&gt;Node1</title>
<g id="a_edge9_Node000001_Node000008"><a xlink:title=" ">
<path fill="none" stroke="#63b8ff" d="M621.42,-551.3C632.44,-542.43 646.15,-529.2 653,-514 682.46,-448.59 655.94,-260.88 676,-192 680.6,-176.21 687.4,-160.17 694.92,-145.1"/>
<polygon fill="none" stroke="#63b8ff" points="694.99,-144.96 694.2,-137.8 700.51,-134.31 701.31,-141.48 694.99,-144.96"/>
</a>
</g>
<text text-anchor="middle" x="741" y="-347" font-family="Helvetica,sans-Serif" font-size="10.00" fill="grey"> +AdditiveAmount</text>
<text text-anchor="middle" x="741" y="-336" font-family="Helvetica,sans-Serif" font-size="10.00" fill="grey">+FadeInEnd</text>
<text text-anchor="middle" x="741" y="-325" font-family="Helvetica,sans-Serif" font-size="10.00" fill="grey">+FadeInNormalizedTime</text>
<text text-anchor="middle" x="741" y="-314" font-family="Helvetica,sans-Serif" font-size="10.00" fill="grey">+FadeOutEnd</text>
<text text-anchor="middle" x="741" y="-303" font-family="Helvetica,sans-Serif" font-size="10.00" fill="grey">+FadeOutNormalizedTime</text>
<text text-anchor="middle" x="741" y="-292" font-family="Helvetica,sans-Serif" font-size="10.00" fill="grey">+FadeOutStart</text>
<text text-anchor="middle" x="741" y="-281" font-family="Helvetica,sans-Serif" font-size="10.00" fill="grey">+Opacity</text>
<text text-anchor="middle" x="741" y="-270" font-family="Helvetica,sans-Serif" font-size="10.00" fill="grey">+TimeToLive</text>
<text text-anchor="middle" x="741" y="-259" font-family="Helvetica,sans-Serif" font-size="10.00" fill="grey">&#45;_timeSinceSpawn</text>
</g>
<!-- Node8&#45;&gt;Node2 -->
<g id="edge8_Node000002_Node000008" class="edge">
<title>Node8&#45;&gt;Node2</title>
<g id="a_edge8_Node000002_Node000008"><a xlink:title=" ">
<path fill="none" stroke="#63b8ff" d="M588.98,-554.41C574.66,-545.95 554.13,-531.73 542,-514 521.83,-484.52 536.78,-467.98 519,-437 517.48,-434.35 515.9,-431.71 514.26,-429.09"/>
<polygon fill="none" stroke="#63b8ff" points="514.25,-429.08 507.62,-426.26 507.67,-419.05 514.3,-421.87 514.25,-429.08"/>
</a>
</g>
<text text-anchor="middle" x="597.5" y="-484" font-family="Helvetica,sans-Serif" font-size="10.00" fill="grey"> +Rotation</text>
<text text-anchor="middle" x="597.5" y="-473" font-family="Helvetica,sans-Serif" font-size="10.00" fill="grey">+RotationAcceleration</text>
<text text-anchor="middle" x="597.5" y="-462" font-family="Helvetica,sans-Serif" font-size="10.00" fill="grey">+RotationVelocity</text>
</g>
<!-- Node9 -->
<g id="Node000009" class="node">
<title>Node9</title>
<g id="a_Node000009"><a xlink:title=" ">
<polygon fill="white" stroke="transparent" points="851,-330 815,-330 815,-281 851,-281 851,-330"/>
<text text-anchor="start" x="820" y="-317.5" font-family="Helvetica,sans-Serif" font-size="10.00">Color</text>
<text text-anchor="start" x="831" y="-302.5" font-family="Helvetica,sans-Serif" font-size="10.00"> </text>
<text text-anchor="start" x="831" y="-287.5" font-family="Helvetica,sans-Serif" font-size="10.00"> </text>
<polygon fill="#666666" stroke="#666666" points="815,-312.5 815,-312.5 851,-312.5 851,-312.5 815,-312.5"/>
<polygon fill="#666666" stroke="#666666" points="815,-297.5 815,-297.5 851,-297.5 851,-297.5 815,-297.5"/>
<polygon fill="none" stroke="#666666" points="815,-281 815,-330 851,-330 851,-281 815,-281"/>
</a>
</g>
</g>
<!-- Node9&#45;&gt;Node1 -->
<g id="edge10_Node000001_Node000009" class="edge">
<title>Node9&#45;&gt;Node1</title>
<g id="a_edge10_Node000001_Node000009"><a xlink:title=" ">
<path fill="none" stroke="#63b8ff" d="M827.46,-280.88C821.78,-257.87 812.22,-222.06 801,-192 795.25,-176.59 788.37,-160.45 781.39,-145.1"/>
<polygon fill="none" stroke="#63b8ff" points="781.33,-144.98 775.19,-141.21 776.3,-134.09 782.45,-137.86 781.33,-144.98"/>
</a>
</g>
<text text-anchor="middle" x="820" y="-160.5" font-family="Helvetica,sans-Serif" font-size="10.00" fill="grey"> +ColorTint</text>
</g>
<!-- Node10 -->
<g id="Node000010" class="node">
<title>Node10</title>
<g id="a_Node000010"><a xlink:title=" ">
<polygon fill="white" stroke="transparent" points="914,-330 882,-330 882,-281 914,-281 914,-330"/>
<text text-anchor="start" x="887" y="-317.5" font-family="Helvetica,sans-Serif" font-size="10.00">bool</text>
<text text-anchor="start" x="896" y="-302.5" font-family="Helvetica,sans-Serif" font-size="10.00"> </text>
<text text-anchor="start" x="896" y="-287.5" font-family="Helvetica,sans-Serif" font-size="10.00"> </text>
<polygon fill="#666666" stroke="#666666" points="882,-312.5 882,-312.5 914,-312.5 914,-312.5 882,-312.5"/>
<polygon fill="#666666" stroke="#666666" points="882,-297.5 882,-297.5 914,-297.5 914,-297.5 882,-297.5"/>
<polygon fill="none" stroke="#666666" points="882,-281 882,-330 914,-330 914,-281 882,-281"/>
</a>
</g>
</g>
<!-- Node10&#45;&gt;Node1 -->
<g id="edge11_Node000001_Node000010" class="edge">
<title>Node10&#45;&gt;Node1</title>
<g id="a_edge11_Node000001_Node000010"><a xlink:title=" ">
<path fill="none" stroke="#63b8ff" d="M895.42,-280.87C891.01,-249.12 879.63,-192.07 852,-152 849.73,-148.71 847.29,-145.48 844.71,-142.34"/>
<polygon fill="none" stroke="#63b8ff" points="844.53,-142.13 837.56,-140.27 836.59,-133.13 843.56,-134.98 844.53,-142.13"/>
</a>
</g>
<text text-anchor="middle" x="917.5" y="-166" font-family="Helvetica,sans-Serif" font-size="10.00" fill="grey"> +DrawHorizontalAxis</text>
<text text-anchor="middle" x="917.5" y="-155" font-family="Helvetica,sans-Serif" font-size="10.00" fill="grey">+DrawVerticalAxis</text>
</g>
</g>
</svg>
