<?xml version="1.0" encoding="UTF-8" standalone="no"?>
<!DOCTYPE svg PUBLIC "-//W3C//DTD SVG 1.1//EN"
 "http://www.w3.org/Graphics/SVG/1.1/DTD/svg11.dtd">
<!-- Generated by graphviz version 2.43.0 (0)
 -->
<!-- Title: Terraria.ModLoader.UI.UIMemoryBar Pages: 1 -->
<svg width="1286pt" height="1131pt"
 viewBox="0.00 0.00 1286.16 1131.00" xmlns="http://www.w3.org/2000/svg" xmlns:xlink="http://www.w3.org/1999/xlink">
<g id="graph0" class="graph" transform="scale(1 1) rotate(0) translate(4 1127)">
<title>Terraria.ModLoader.UI.UIMemoryBar</title>
<!-- Node1 -->
<g id="Node000001" class="node">
<title>Node1</title>
<g id="a_Node000001"><a xlink:title=" ">
<polygon fill="#999999" stroke="transparent" points="1028.66,-146 840.66,-146 840.66,0 1028.66,0 1028.66,-146"/>
<text text-anchor="start" x="845.66" y="-134" font-family="Helvetica,sans-Serif" font-size="10.00">Terraria.ModLoader.UI.UIMemoryBar</text>
<text text-anchor="start" x="932.66" y="-119" font-family="Helvetica,sans-Serif" font-size="10.00"> </text>
<text text-anchor="start" x="844.66" y="-104" font-family="Helvetica,sans-Serif" font-size="10.00">+</text>
<text text-anchor="start" x="857.66" y="-104" font-family="Helvetica,sans-Serif" font-size="10.00">override void OnInitialize()</text>
<text text-anchor="start" x="844.66" y="-89" font-family="Helvetica,sans-Serif" font-size="10.00">+</text>
<text text-anchor="start" x="857.66" y="-89" font-family="Helvetica,sans-Serif" font-size="10.00">override void OnActivate()</text>
<text text-anchor="start" x="844.66" y="-74" font-family="Helvetica,sans-Serif" font-size="10.00">+</text>
<text text-anchor="start" x="857.66" y="-74" font-family="Helvetica,sans-Serif" font-size="10.00">static long GetTotalMemory()</text>
<text text-anchor="start" x="844.66" y="-59" font-family="Helvetica,sans-Serif" font-size="10.00">~</text>
<text text-anchor="start" x="857.66" y="-59" font-family="Helvetica,sans-Serif" font-size="10.00">static string SizeSuffix</text>
<text text-anchor="start" x="857.66" y="-48" font-family="Helvetica,sans-Serif" font-size="10.00">(long value, int decimalPlaces=1)</text>
<text text-anchor="start" x="844.66" y="-33" font-family="Helvetica,sans-Serif" font-size="10.00">#</text>
<text text-anchor="start" x="857.66" y="-33" font-family="Helvetica,sans-Serif" font-size="10.00">override void DrawSelf</text>
<text text-anchor="start" x="857.66" y="-22" font-family="Helvetica,sans-Serif" font-size="10.00">(SpriteBatch spriteBatch)</text>
<text text-anchor="start" x="847.16" y="-7" font-family="Helvetica,sans-Serif" font-size="10.00">&#45;</text>
<text text-anchor="start" x="857.66" y="-7" font-family="Helvetica,sans-Serif" font-size="10.00">void RecalculateMemory()</text>
<polygon fill="#666666" stroke="#666666" points="840.66,-129 840.66,-129 1028.66,-129 1028.66,-129 840.66,-129"/>
<polygon fill="#666666" stroke="#666666" points="840.66,-114 840.66,-114 1028.66,-114 1028.66,-114 840.66,-114"/>
<polygon fill="none" stroke="#666666" points="840.66,0 840.66,-146 1028.66,-146 1028.66,0 840.66,0"/>
</a>
</g>
</g>
<!-- Node2 -->
<g id="Node000002" class="node">
<title>Node2</title>
<g id="a_Node000002"><a xlink:href="../../d7/d72/classTerraria_1_1UI_1_1UIElement.html" target="_top" xlink:title=" ">
<polygon fill="white" stroke="transparent" points="821.16,-669 612.16,-669 612.16,-193 821.16,-193 821.16,-669"/>
<text text-anchor="start" x="691.16" y="-657" font-family="Helvetica,sans-Serif" font-size="10.00">UIElement</text>
<text text-anchor="start" x="616.66" y="-642" font-family="Helvetica,sans-Serif" font-size="10.00">+</text>
<text text-anchor="start" x="629.66" y="-642" font-family="Helvetica,sans-Serif" font-size="10.00">UIElement Parent</text>
<text text-anchor="start" x="616.66" y="-627" font-family="Helvetica,sans-Serif" font-size="10.00">+</text>
<text text-anchor="start" x="629.66" y="-627" font-family="Helvetica,sans-Serif" font-size="10.00">int UniqueId</text>
<text text-anchor="start" x="616.66" y="-612" font-family="Helvetica,sans-Serif" font-size="10.00">+</text>
<text text-anchor="start" x="629.66" y="-612" font-family="Helvetica,sans-Serif" font-size="10.00">IEnumerable&lt; UIElement</text>
<text text-anchor="start" x="629.66" y="-601" font-family="Helvetica,sans-Serif" font-size="10.00"> &gt; Children</text>
<text text-anchor="start" x="616.66" y="-586" font-family="Helvetica,sans-Serif" font-size="10.00">+</text>
<text text-anchor="start" x="629.66" y="-586" font-family="Helvetica,sans-Serif" font-size="10.00">bool IsMouseHovering</text>
<text text-anchor="start" x="616.66" y="-571" font-family="Helvetica,sans-Serif" font-size="10.00">+</text>
<text text-anchor="start" x="629.66" y="-571" font-family="Helvetica,sans-Serif" font-size="10.00">delegate void MouseEvent</text>
<text text-anchor="start" x="629.66" y="-560" font-family="Helvetica,sans-Serif" font-size="10.00">(UIMouseEvent evt, UIElement</text>
<text text-anchor="start" x="629.66" y="-549" font-family="Helvetica,sans-Serif" font-size="10.00"> listeningElement)</text>
<text text-anchor="start" x="616.66" y="-534" font-family="Helvetica,sans-Serif" font-size="10.00">+</text>
<text text-anchor="start" x="629.66" y="-534" font-family="Helvetica,sans-Serif" font-size="10.00">delegate void ScrollWheel</text>
<text text-anchor="start" x="629.66" y="-523" font-family="Helvetica,sans-Serif" font-size="10.00">Event(UIScrollWheelEvent</text>
<text text-anchor="start" x="629.66" y="-512" font-family="Helvetica,sans-Serif" font-size="10.00"> evt, UIElement listeningElement)</text>
<text text-anchor="start" x="616.66" y="-497" font-family="Helvetica,sans-Serif" font-size="10.00">+</text>
<text text-anchor="start" x="629.66" y="-497" font-family="Helvetica,sans-Serif" font-size="10.00">delegate void ElementEvent</text>
<text text-anchor="start" x="629.66" y="-486" font-family="Helvetica,sans-Serif" font-size="10.00">(UIElement affectedElement)</text>
<text text-anchor="start" x="616.66" y="-471" font-family="Helvetica,sans-Serif" font-size="10.00">+</text>
<text text-anchor="start" x="629.66" y="-471" font-family="Helvetica,sans-Serif" font-size="10.00">delegate void UIElementAction</text>
<text text-anchor="start" x="629.66" y="-460" font-family="Helvetica,sans-Serif" font-size="10.00">(UIElement element)</text>
<text text-anchor="start" x="616.66" y="-445" font-family="Helvetica,sans-Serif" font-size="10.00">+</text>
<text text-anchor="start" x="629.66" y="-445" font-family="Helvetica,sans-Serif" font-size="10.00">UIElement()</text>
<text text-anchor="start" x="616.66" y="-430" font-family="Helvetica,sans-Serif" font-size="10.00">+</text>
<text text-anchor="start" x="629.66" y="-430" font-family="Helvetica,sans-Serif" font-size="10.00">void SetSnapPoint(string</text>
<text text-anchor="start" x="629.66" y="-419" font-family="Helvetica,sans-Serif" font-size="10.00"> name, int id, Vector2</text>
<text text-anchor="start" x="629.66" y="-408" font-family="Helvetica,sans-Serif" font-size="10.00">? anchor=null, Vector2?</text>
<text text-anchor="start" x="629.66" y="-397" font-family="Helvetica,sans-Serif" font-size="10.00"> offset=null)</text>
<text text-anchor="start" x="616.66" y="-382" font-family="Helvetica,sans-Serif" font-size="10.00">+</text>
<text text-anchor="start" x="629.66" y="-382" font-family="Helvetica,sans-Serif" font-size="10.00">bool GetSnapPoint(out</text>
<text text-anchor="start" x="629.66" y="-371" font-family="Helvetica,sans-Serif" font-size="10.00"> SnapPoint point)</text>
<text text-anchor="start" x="616.66" y="-356" font-family="Helvetica,sans-Serif" font-size="10.00">+</text>
<text text-anchor="start" x="629.66" y="-356" font-family="Helvetica,sans-Serif" font-size="10.00">virtual void ExecuteRecursively</text>
<text text-anchor="start" x="629.66" y="-345" font-family="Helvetica,sans-Serif" font-size="10.00">(UIElementAction action)</text>
<text text-anchor="start" x="616.66" y="-330" font-family="Helvetica,sans-Serif" font-size="10.00">+</text>
<text text-anchor="start" x="629.66" y="-330" font-family="Helvetica,sans-Serif" font-size="10.00">void Append(UIElement</text>
<text text-anchor="start" x="629.66" y="-319" font-family="Helvetica,sans-Serif" font-size="10.00"> element)</text>
<text text-anchor="start" x="616.66" y="-304" font-family="Helvetica,sans-Serif" font-size="10.00">+</text>
<text text-anchor="start" x="629.66" y="-304" font-family="Helvetica,sans-Serif" font-size="10.00">void Remove()</text>
<text text-anchor="start" x="629.66" y="-289" font-family="Helvetica,sans-Serif" font-size="10.00">and 48 more...</text>
<text text-anchor="start" x="616.66" y="-274" font-family="Helvetica,sans-Serif" font-size="10.00">#</text>
<text text-anchor="start" x="629.66" y="-274" font-family="Helvetica,sans-Serif" font-size="10.00">virtual void DrawSelf</text>
<text text-anchor="start" x="629.66" y="-263" font-family="Helvetica,sans-Serif" font-size="10.00">(SpriteBatch spriteBatch)</text>
<text text-anchor="start" x="616.66" y="-248" font-family="Helvetica,sans-Serif" font-size="10.00">#</text>
<text text-anchor="start" x="629.66" y="-248" font-family="Helvetica,sans-Serif" font-size="10.00">virtual void DrawChildren</text>
<text text-anchor="start" x="629.66" y="-237" font-family="Helvetica,sans-Serif" font-size="10.00">(SpriteBatch spriteBatch)</text>
<text text-anchor="start" x="619.16" y="-222" font-family="Helvetica,sans-Serif" font-size="10.00">&#45;</text>
<text text-anchor="start" x="629.66" y="-222" font-family="Helvetica,sans-Serif" font-size="10.00">CalculatedStyle GetDimensions</text>
<text text-anchor="start" x="629.66" y="-211" font-family="Helvetica,sans-Serif" font-size="10.00">BasedOnParentDimensions(Calculated</text>
<text text-anchor="start" x="629.66" y="-200" font-family="Helvetica,sans-Serif" font-size="10.00">Style parentDimensions)</text>
<polygon fill="#666666" stroke="#666666" points="612.66,-652 612.66,-652 821.66,-652 821.66,-652 612.66,-652"/>
<polygon fill="#666666" stroke="#666666" points="612.66,-581 612.66,-581 627.66,-581 627.66,-581 612.66,-581"/>
<polygon fill="#666666" stroke="#666666" points="627.66,-581 627.66,-581 821.66,-581 821.66,-581 627.66,-581"/>
<polygon fill="none" stroke="#666666" points="612.16,-193 612.16,-669 821.16,-669 821.16,-193 612.16,-193"/>
</a>
</g>
</g>
<!-- Node2&#45;&gt;Node1 -->
<g id="edge1_Node000001_Node000002" class="edge">
<title>Node2&#45;&gt;Node1</title>
<g id="a_edge1_Node000001_Node000002"><a xlink:title=" ">
<path fill="none" stroke="#63b8ff" d="M826.76,-197.44C827.72,-195.95 828.69,-194.47 829.66,-193 840.22,-177.02 852.79,-160.95 865.49,-146.01"/>
<polygon fill="none" stroke="#63b8ff" points="823.69,-195.75 821.28,-206.06 829.6,-199.5 823.69,-195.75"/>
</a>
</g>
</g>
<!-- Node3 -->
<g id="Node000003" class="node">
<title>Node3</title>
<g id="a_Node000003"><a xlink:href="../../d9/d6f/classIComparable.html" target="_top" xlink:title=" ">
<polygon fill="white" stroke="transparent" points="1278.16,-918 1205.16,-918 1205.16,-869 1278.16,-869 1278.16,-918"/>
<text text-anchor="start" x="1210.66" y="-905.5" font-family="Helvetica,sans-Serif" font-size="10.00">IComparable</text>
<text text-anchor="start" x="1240.16" y="-890.5" font-family="Helvetica,sans-Serif" font-size="10.00"> </text>
<text text-anchor="start" x="1240.16" y="-875.5" font-family="Helvetica,sans-Serif" font-size="10.00"> </text>
<polygon fill="#666666" stroke="#666666" points="1205.66,-900.5 1205.66,-900.5 1278.66,-900.5 1278.66,-900.5 1205.66,-900.5"/>
<polygon fill="#666666" stroke="#666666" points="1205.66,-885.5 1205.66,-885.5 1278.66,-885.5 1278.66,-885.5 1205.66,-885.5"/>
<polygon fill="none" stroke="#666666" points="1205.16,-869 1205.16,-918 1278.16,-918 1278.16,-869 1205.16,-869"/>
</a>
</g>
</g>
<!-- Node3&#45;&gt;Node2 -->
<g id="edge2_Node000002_Node000003" class="edge">
<title>Node3&#45;&gt;Node2</title>
<g id="a_edge2_Node000002_Node000003"><a xlink:title=" ">
<path fill="none" stroke="#63b8ff" d="M1242.63,-858.4C1241.89,-811.43 1232.76,-728 1180.66,-687 1119.29,-638.7 894.63,-712.36 829.66,-669 826.82,-667.1 824.05,-665.11 821.34,-663.04"/>
<polygon fill="none" stroke="#63b8ff" points="1239.13,-858.69 1242.66,-868.68 1246.13,-858.66 1239.13,-858.69"/>
</a>
</g>
</g>
<!-- Node4 -->
<g id="Node000004" class="node">
<title>Node4</title>
<g id="a_Node000004"><a xlink:title=" ">
<polygon fill="white" stroke="transparent" points="231.16,-923.5 106.16,-923.5 106.16,-863.5 231.16,-863.5 231.16,-923.5"/>
<text text-anchor="start" x="111.66" y="-911.5" font-family="Helvetica,sans-Serif" font-size="10.00">readonly List&lt; Terraria.</text>
<text text-anchor="start" x="131.16" y="-900.5" font-family="Helvetica,sans-Serif" font-size="10.00">UI.UIElement &gt;</text>
<text text-anchor="start" x="167.16" y="-885.5" font-family="Helvetica,sans-Serif" font-size="10.00"> </text>
<text text-anchor="start" x="167.16" y="-870.5" font-family="Helvetica,sans-Serif" font-size="10.00"> </text>
<polygon fill="#666666" stroke="#666666" points="106.66,-895.5 106.66,-895.5 231.66,-895.5 231.66,-895.5 106.66,-895.5"/>
<polygon fill="#666666" stroke="#666666" points="106.66,-880.5 106.66,-880.5 231.66,-880.5 231.66,-880.5 106.66,-880.5"/>
<polygon fill="none" stroke="#666666" points="106.16,-863.5 106.16,-923.5 231.16,-923.5 231.16,-863.5 106.16,-863.5"/>
</a>
</g>
</g>
<!-- Node4&#45;&gt;Node2 -->
<g id="edge3_Node000002_Node000004" class="edge">
<title>Node4&#45;&gt;Node2</title>
<g id="a_edge3_Node000002_Node000004"><a xlink:title=" ">
<path fill="none" stroke="#63b8ff" d="M169.17,-863.31C170.56,-813.46 175.82,-714.61 195.66,-687 291.93,-553.05 478.29,-486.12 600.05,-455.28"/>
<polygon fill="none" stroke="#63b8ff" points="600.35,-455.21 605.21,-449.88 612,-452.32 607.14,-457.65 600.35,-455.21"/>
</a>
</g>
<text text-anchor="middle" x="224.66" y="-728.5" font-family="Helvetica,sans-Serif" font-size="10.00" fill="grey"> #Elements</text>
</g>
<!-- Node5 -->
<g id="Node000005" class="node">
<title>Node5</title>
<g id="a_Node000005"><a xlink:href="../../d8/d74/structTerraria_1_1UI_1_1StyleDimension.html" target="_top" xlink:title=" ">
<polygon fill="white" stroke="transparent" points="576.16,-994 421.16,-994 421.16,-793 576.16,-793 576.16,-994"/>
<text text-anchor="start" x="433.66" y="-981.5" font-family="Helvetica,sans-Serif" font-size="10.00">Terraria.UI.StyleDimension</text>
<text text-anchor="start" x="425.66" y="-966.5" font-family="Helvetica,sans-Serif" font-size="10.00">+</text>
<text text-anchor="start" x="438.66" y="-966.5" font-family="Helvetica,sans-Serif" font-size="10.00">float Percent</text>
<text text-anchor="start" x="425.66" y="-951.5" font-family="Helvetica,sans-Serif" font-size="10.00">+</text>
<text text-anchor="start" x="438.66" y="-951.5" font-family="Helvetica,sans-Serif" font-size="10.00">StyleDimension(float</text>
<text text-anchor="start" x="438.66" y="-940.5" font-family="Helvetica,sans-Serif" font-size="10.00"> pixels, float precent)</text>
<text text-anchor="start" x="425.66" y="-925.5" font-family="Helvetica,sans-Serif" font-size="10.00">+</text>
<text text-anchor="start" x="438.66" y="-925.5" font-family="Helvetica,sans-Serif" font-size="10.00">void Set(float pixels,</text>
<text text-anchor="start" x="438.66" y="-914.5" font-family="Helvetica,sans-Serif" font-size="10.00"> float precent)</text>
<text text-anchor="start" x="425.66" y="-899.5" font-family="Helvetica,sans-Serif" font-size="10.00">+</text>
<text text-anchor="start" x="438.66" y="-899.5" font-family="Helvetica,sans-Serif" font-size="10.00">float GetValue(float</text>
<text text-anchor="start" x="438.66" y="-888.5" font-family="Helvetica,sans-Serif" font-size="10.00"> containerSize)</text>
<text text-anchor="start" x="425.66" y="-873.5" font-family="Helvetica,sans-Serif" font-size="10.00">+</text>
<text text-anchor="start" x="438.66" y="-873.5" font-family="Helvetica,sans-Serif" font-size="10.00">static StyleDimension</text>
<text text-anchor="start" x="438.66" y="-862.5" font-family="Helvetica,sans-Serif" font-size="10.00"> FromPixels(float pixels)</text>
<text text-anchor="start" x="425.66" y="-847.5" font-family="Helvetica,sans-Serif" font-size="10.00">+</text>
<text text-anchor="start" x="438.66" y="-847.5" font-family="Helvetica,sans-Serif" font-size="10.00">static StyleDimension</text>
<text text-anchor="start" x="438.66" y="-836.5" font-family="Helvetica,sans-Serif" font-size="10.00"> FromPercent(float percent)</text>
<text text-anchor="start" x="425.66" y="-821.5" font-family="Helvetica,sans-Serif" font-size="10.00">+</text>
<text text-anchor="start" x="438.66" y="-821.5" font-family="Helvetica,sans-Serif" font-size="10.00">static StyleDimension</text>
<text text-anchor="start" x="438.66" y="-810.5" font-family="Helvetica,sans-Serif" font-size="10.00"> FromPixelsAndPercent</text>
<text text-anchor="start" x="438.66" y="-799.5" font-family="Helvetica,sans-Serif" font-size="10.00">(float pixels, float percent)</text>
<polygon fill="#666666" stroke="#666666" points="421.66,-976.5 421.66,-976.5 576.66,-976.5 576.66,-976.5 421.66,-976.5"/>
<polygon fill="#666666" stroke="#666666" points="421.66,-961.5 421.66,-961.5 436.66,-961.5 436.66,-961.5 421.66,-961.5"/>
<polygon fill="#666666" stroke="#666666" points="436.66,-961.5 436.66,-961.5 576.66,-961.5 576.66,-961.5 436.66,-961.5"/>
<polygon fill="none" stroke="#666666" points="421.16,-793 421.16,-994 576.16,-994 576.16,-793 421.16,-793"/>
</a>
</g>
</g>
<!-- Node5&#45;&gt;Node2 -->
<g id="edge4_Node000002_Node000005" class="edge">
<title>Node5&#45;&gt;Node2</title>
<g id="a_edge4_Node000002_Node000005"><a xlink:title=" ">
<path fill="none" stroke="#63b8ff" d="M545.83,-792.86C563.91,-754.67 585.39,-709.31 606.9,-663.86"/>
<polygon fill="none" stroke="#63b8ff" points="606.94,-663.78 605.89,-656.65 612.07,-652.94 613.12,-660.07 606.94,-663.78"/>
</a>
</g>
<text text-anchor="middle" x="625.66" y="-767" font-family="Helvetica,sans-Serif" font-size="10.00" fill="grey"> +Height</text>
<text text-anchor="middle" x="625.66" y="-756" font-family="Helvetica,sans-Serif" font-size="10.00" fill="grey">+Left</text>
<text text-anchor="middle" x="625.66" y="-745" font-family="Helvetica,sans-Serif" font-size="10.00" fill="grey">+MaxHeight</text>
<text text-anchor="middle" x="625.66" y="-734" font-family="Helvetica,sans-Serif" font-size="10.00" fill="grey">+MaxWidth</text>
<text text-anchor="middle" x="625.66" y="-723" font-family="Helvetica,sans-Serif" font-size="10.00" fill="grey">+MinHeight</text>
<text text-anchor="middle" x="625.66" y="-712" font-family="Helvetica,sans-Serif" font-size="10.00" fill="grey">+MinWidth</text>
<text text-anchor="middle" x="625.66" y="-701" font-family="Helvetica,sans-Serif" font-size="10.00" fill="grey">+Top</text>
<text text-anchor="middle" x="625.66" y="-690" font-family="Helvetica,sans-Serif" font-size="10.00" fill="grey">+Width</text>
</g>
<!-- Node6 -->
<g id="Node000006" class="node">
<title>Node6</title>
<g id="a_Node000006"><a xlink:title=" ">
<polygon fill="white" stroke="transparent" points="286.66,-1123 248.66,-1123 248.66,-1074 286.66,-1074 286.66,-1123"/>
<text text-anchor="start" x="253.66" y="-1110.5" font-family="Helvetica,sans-Serif" font-size="10.00">static</text>
<text text-anchor="start" x="265.66" y="-1095.5" font-family="Helvetica,sans-Serif" font-size="10.00"> </text>
<text text-anchor="start" x="265.66" y="-1080.5" font-family="Helvetica,sans-Serif" font-size="10.00"> </text>
<polygon fill="#666666" stroke="#666666" points="248.66,-1105.5 248.66,-1105.5 286.66,-1105.5 286.66,-1105.5 248.66,-1105.5"/>
<polygon fill="#666666" stroke="#666666" points="248.66,-1090.5 248.66,-1090.5 286.66,-1090.5 286.66,-1090.5 248.66,-1090.5"/>
<polygon fill="none" stroke="#666666" points="248.66,-1074 248.66,-1123 286.66,-1123 286.66,-1074 248.66,-1074"/>
</a>
</g>
</g>
<!-- Node6&#45;&gt;Node1 -->
<g id="edge16_Node000001_Node000006" class="edge">
<title>Node6&#45;&gt;Node1</title>
<g id="a_edge16_Node000001_Node000006"><a xlink:title=" ">
<path fill="none" stroke="#63b8ff" d="M248.66,-1091.15C213.43,-1078.42 137.82,-1046.39 96.66,-994 10.27,-884.03 -30.7,-814.09 27.66,-687 168.27,-380.83 311.45,-362.44 602.66,-193 673.56,-151.75 761.16,-121.09 828.58,-101.22"/>
<polygon fill="none" stroke="#63b8ff" points="828.97,-101.11 833.62,-95.6 840.5,-97.76 835.85,-103.28 828.97,-101.11"/>
</a>
</g>
<text text-anchor="middle" x="99.66" y="-734" font-family="Helvetica,sans-Serif" font-size="10.00" fill="grey"> &#45;SizeSuffixes</text>
<text text-anchor="middle" x="99.66" y="-723" font-family="Helvetica,sans-Serif" font-size="10.00" fill="grey">~RecalculateMemoryNeeded</text>
</g>
<!-- Node6&#45;&gt;Node2 -->
<g id="edge12_Node000002_Node000006" class="edge">
<title>Node6&#45;&gt;Node2</title>
<g id="a_edge12_Node000002_Node000006"><a xlink:title=" ">
<path fill="none" stroke="#63b8ff" d="M262.07,-1073.79C250.77,-1020.39 230.03,-887.94 276.66,-793 345.11,-653.67 495.26,-549.39 601.05,-489.62"/>
<polygon fill="none" stroke="#63b8ff" points="601.31,-489.47 604.6,-483.05 611.79,-483.62 608.5,-490.04 601.31,-489.47"/>
</a>
</g>
<text text-anchor="start" x="276.66" y="-902" font-family="Helvetica,sans-Serif" font-size="10.00" fill="grey"> &#45;OverflowHiddenRasterizer</text>
<text text-anchor="middle" x="344.16" y="-891" font-family="Helvetica,sans-Serif" font-size="10.00" fill="grey">State</text>
<text text-anchor="middle" x="344.16" y="-880" font-family="Helvetica,sans-Serif" font-size="10.00" fill="grey">&#45;_idCounter</text>
</g>
<!-- Node6&#45;&gt;Node5 -->
<g id="edge5_Node000005_Node000006" class="edge">
<title>Node6&#45;&gt;Node5</title>
<g id="a_edge5_Node000005_Node000006"><a xlink:title=" ">
<path fill="none" stroke="#63b8ff" d="M286.96,-1084.81C314.61,-1066.26 366.61,-1030.01 406.66,-994 408.47,-992.38 410.28,-990.73 412.09,-989.05"/>
<polygon fill="none" stroke="#63b8ff" points="412.42,-988.73 414.02,-981.7 421.12,-980.46 419.53,-987.5 412.42,-988.73"/>
</a>
</g>
<text text-anchor="middle" x="407.16" y="-1037" font-family="Helvetica,sans-Serif" font-size="10.00" fill="grey"> +Empty</text>
<text text-anchor="middle" x="407.16" y="-1026" font-family="Helvetica,sans-Serif" font-size="10.00" fill="grey">+Fill</text>
</g>
<!-- Node7 -->
<g id="Node000007" class="node">
<title>Node7</title>
<g id="a_Node000007"><a xlink:title=" ">
<polygon fill="white" stroke="transparent" points="680.66,-1123 648.66,-1123 648.66,-1074 680.66,-1074 680.66,-1123"/>
<text text-anchor="start" x="653.66" y="-1110.5" font-family="Helvetica,sans-Serif" font-size="10.00">float</text>
<text text-anchor="start" x="662.66" y="-1095.5" font-family="Helvetica,sans-Serif" font-size="10.00"> </text>
<text text-anchor="start" x="662.66" y="-1080.5" font-family="Helvetica,sans-Serif" font-size="10.00"> </text>
<polygon fill="#666666" stroke="#666666" points="648.66,-1105.5 648.66,-1105.5 680.66,-1105.5 680.66,-1105.5 648.66,-1105.5"/>
<polygon fill="#666666" stroke="#666666" points="648.66,-1090.5 648.66,-1090.5 680.66,-1090.5 680.66,-1090.5 648.66,-1090.5"/>
<polygon fill="none" stroke="#666666" points="648.66,-1074 648.66,-1123 680.66,-1123 680.66,-1074 648.66,-1074"/>
</a>
</g>
</g>
<!-- Node7&#45;&gt;Node2 -->
<g id="edge9_Node000002_Node000007" class="edge">
<title>Node7&#45;&gt;Node2</title>
<g id="a_edge9_Node000002_Node000007"><a xlink:title=" ">
<path fill="none" stroke="#63b8ff" d="M680.81,-1086.15C690.88,-1078.48 703.6,-1067.65 712.66,-1056 731.57,-1031.68 735.7,-1023.76 743.66,-994 770.48,-893.8 770.4,-780.04 761.13,-681.2"/>
<polygon fill="none" stroke="#63b8ff" points="761.13,-681.16 756.56,-675.58 759.96,-669.22 764.52,-674.8 761.13,-681.16"/>
</a>
</g>
<text text-anchor="middle" x="809.16" y="-946" font-family="Helvetica,sans-Serif" font-size="10.00" fill="grey"> +HAlign</text>
<text text-anchor="middle" x="809.16" y="-935" font-family="Helvetica,sans-Serif" font-size="10.00" fill="grey">+MarginBottom</text>
<text text-anchor="middle" x="809.16" y="-924" font-family="Helvetica,sans-Serif" font-size="10.00" fill="grey">+MarginLeft</text>
<text text-anchor="middle" x="809.16" y="-913" font-family="Helvetica,sans-Serif" font-size="10.00" fill="grey">+MarginRight</text>
<text text-anchor="middle" x="809.16" y="-902" font-family="Helvetica,sans-Serif" font-size="10.00" fill="grey">+MarginTop</text>
<text text-anchor="middle" x="809.16" y="-891" font-family="Helvetica,sans-Serif" font-size="10.00" fill="grey">+PaddingBottom</text>
<text text-anchor="middle" x="809.16" y="-880" font-family="Helvetica,sans-Serif" font-size="10.00" fill="grey">+PaddingLeft</text>
<text text-anchor="middle" x="809.16" y="-869" font-family="Helvetica,sans-Serif" font-size="10.00" fill="grey">+PaddingRight</text>
<text text-anchor="middle" x="809.16" y="-858" font-family="Helvetica,sans-Serif" font-size="10.00" fill="grey">+PaddingTop</text>
<text text-anchor="middle" x="809.16" y="-847" font-family="Helvetica,sans-Serif" font-size="10.00" fill="grey">+VAlign</text>
<text text-anchor="middle" x="809.16" y="-836" font-family="Helvetica,sans-Serif" font-size="10.00" fill="grey">...</text>
</g>
<!-- Node7&#45;&gt;Node5 -->
<g id="edge6_Node000005_Node000007" class="edge">
<title>Node7&#45;&gt;Node5</title>
<g id="a_edge6_Node000005_Node000007"><a xlink:title=" ">
<path fill="none" stroke="#63b8ff" d="M648.44,-1085.74C638.19,-1077.91 624.97,-1067.06 614.66,-1056 599.77,-1040.02 585.15,-1022.08 571.58,-1004.11"/>
<polygon fill="none" stroke="#63b8ff" points="571.32,-1003.76 564.53,-1001.34 564.15,-994.14 570.94,-996.56 571.32,-1003.76"/>
</a>
</g>
<text text-anchor="middle" x="637.66" y="-1037" font-family="Helvetica,sans-Serif" font-size="10.00" fill="grey"> +Pixels</text>
<text text-anchor="middle" x="637.66" y="-1026" font-family="Helvetica,sans-Serif" font-size="10.00" fill="grey">+Precent</text>
</g>
<!-- Node10 -->
<g id="Node000010" class="node">
<title>Node10</title>
<g id="a_Node000010"><a xlink:href="../../d6/d3a/structTerraria_1_1UI_1_1CalculatedStyle.html" target="_top" xlink:title=" ">
<polygon fill="white" stroke="transparent" points="734.66,-951.5 594.66,-951.5 594.66,-835.5 734.66,-835.5 734.66,-951.5"/>
<text text-anchor="start" x="599.66" y="-939.5" font-family="Helvetica,sans-Serif" font-size="10.00">Terraria.UI.CalculatedStyle</text>
<text text-anchor="start" x="662.66" y="-924.5" font-family="Helvetica,sans-Serif" font-size="10.00"> </text>
<text text-anchor="start" x="598.66" y="-909.5" font-family="Helvetica,sans-Serif" font-size="10.00">+</text>
<text text-anchor="start" x="611.66" y="-909.5" font-family="Helvetica,sans-Serif" font-size="10.00">CalculatedStyle(float</text>
<text text-anchor="start" x="611.66" y="-898.5" font-family="Helvetica,sans-Serif" font-size="10.00"> x, float y, float width,</text>
<text text-anchor="start" x="611.66" y="-887.5" font-family="Helvetica,sans-Serif" font-size="10.00"> float height)</text>
<text text-anchor="start" x="598.66" y="-872.5" font-family="Helvetica,sans-Serif" font-size="10.00">+</text>
<text text-anchor="start" x="611.66" y="-872.5" font-family="Helvetica,sans-Serif" font-size="10.00">Rectangle ToRectangle()</text>
<text text-anchor="start" x="598.66" y="-857.5" font-family="Helvetica,sans-Serif" font-size="10.00">+</text>
<text text-anchor="start" x="611.66" y="-857.5" font-family="Helvetica,sans-Serif" font-size="10.00">Vector2 Position()</text>
<text text-anchor="start" x="598.66" y="-842.5" font-family="Helvetica,sans-Serif" font-size="10.00">+</text>
<text text-anchor="start" x="611.66" y="-842.5" font-family="Helvetica,sans-Serif" font-size="10.00">Vector2 Center()</text>
<polygon fill="#666666" stroke="#666666" points="594.66,-934.5 594.66,-934.5 734.66,-934.5 734.66,-934.5 594.66,-934.5"/>
<polygon fill="#666666" stroke="#666666" points="594.66,-919.5 594.66,-919.5 734.66,-919.5 734.66,-919.5 594.66,-919.5"/>
<polygon fill="none" stroke="#666666" points="594.66,-835.5 594.66,-951.5 734.66,-951.5 734.66,-835.5 594.66,-835.5"/>
</a>
</g>
</g>
<!-- Node7&#45;&gt;Node10 -->
<g id="edge11_Node000010_Node000007" class="edge">
<title>Node7&#45;&gt;Node10</title>
<g id="a_edge11_Node000010_Node000007"><a xlink:title=" ">
<path fill="none" stroke="#63b8ff" d="M664.66,-1073.82C664.66,-1047.01 664.66,-1002.12 664.66,-963.96"/>
<polygon fill="none" stroke="#63b8ff" points="664.66,-963.84 660.66,-957.84 664.66,-951.84 668.66,-957.84 664.66,-963.84"/>
</a>
</g>
<text text-anchor="middle" x="686.66" y="-1048" font-family="Helvetica,sans-Serif" font-size="10.00" fill="grey"> +Height</text>
<text text-anchor="middle" x="686.66" y="-1037" font-family="Helvetica,sans-Serif" font-size="10.00" fill="grey">+Width</text>
<text text-anchor="middle" x="686.66" y="-1026" font-family="Helvetica,sans-Serif" font-size="10.00" fill="grey">+X</text>
<text text-anchor="middle" x="686.66" y="-1015" font-family="Helvetica,sans-Serif" font-size="10.00" fill="grey">+Y</text>
</g>
<!-- Node8 -->
<g id="Node000008" class="node">
<title>Node8</title>
<g id="a_Node000008"><a xlink:title=" ">
<polygon fill="white" stroke="transparent" points="903.66,-918 871.66,-918 871.66,-869 903.66,-869 903.66,-918"/>
<text text-anchor="start" x="876.66" y="-905.5" font-family="Helvetica,sans-Serif" font-size="10.00">bool</text>
<text text-anchor="start" x="885.66" y="-890.5" font-family="Helvetica,sans-Serif" font-size="10.00"> </text>
<text text-anchor="start" x="885.66" y="-875.5" font-family="Helvetica,sans-Serif" font-size="10.00"> </text>
<polygon fill="#666666" stroke="#666666" points="871.66,-900.5 871.66,-900.5 903.66,-900.5 903.66,-900.5 871.66,-900.5"/>
<polygon fill="#666666" stroke="#666666" points="871.66,-885.5 871.66,-885.5 903.66,-885.5 903.66,-885.5 871.66,-885.5"/>
<polygon fill="none" stroke="#666666" points="871.66,-869 871.66,-918 903.66,-918 903.66,-869 871.66,-869"/>
</a>
</g>
</g>
<!-- Node8&#45;&gt;Node2 -->
<g id="edge7_Node000002_Node000008" class="edge">
<title>Node8&#45;&gt;Node2</title>
<g id="a_edge7_Node000002_Node000008"><a xlink:title=" ">
<path fill="none" stroke="#63b8ff" d="M886.52,-868.96C884.21,-846.64 877.41,-813.56 857.66,-793 840.72,-775.36 822.26,-792.97 805.66,-775 805.52,-774.84 794.95,-734.23 781.14,-681"/>
<polygon fill="none" stroke="#63b8ff" points="781.06,-680.71 775.69,-675.9 778.05,-669.09 783.43,-673.89 781.06,-680.71"/>
</a>
</g>
<text text-anchor="middle" x="872.16" y="-745" font-family="Helvetica,sans-Serif" font-size="10.00" fill="grey"> +IgnoresMouseInteraction</text>
<text text-anchor="middle" x="872.16" y="-734" font-family="Helvetica,sans-Serif" font-size="10.00" fill="grey">+OverflowHidden</text>
<text text-anchor="middle" x="872.16" y="-723" font-family="Helvetica,sans-Serif" font-size="10.00" fill="grey">+UseImmediateMode</text>
<text text-anchor="middle" x="872.16" y="-712" font-family="Helvetica,sans-Serif" font-size="10.00" fill="grey">&#45;_isInitialized</text>
</g>
<!-- Node9 -->
<g id="Node000009" class="node">
<title>Node9</title>
<g id="a_Node000009"><a xlink:title=" ">
<polygon fill="white" stroke="transparent" points="999.16,-918 922.16,-918 922.16,-869 999.16,-869 999.16,-918"/>
<text text-anchor="start" x="927.66" y="-905.5" font-family="Helvetica,sans-Serif" font-size="10.00">SamplerState</text>
<text text-anchor="start" x="959.16" y="-890.5" font-family="Helvetica,sans-Serif" font-size="10.00"> </text>
<text text-anchor="start" x="959.16" y="-875.5" font-family="Helvetica,sans-Serif" font-size="10.00"> </text>
<polygon fill="#666666" stroke="#666666" points="922.66,-900.5 922.66,-900.5 999.66,-900.5 999.66,-900.5 922.66,-900.5"/>
<polygon fill="#666666" stroke="#666666" points="922.66,-885.5 922.66,-885.5 999.66,-885.5 999.66,-885.5 922.66,-885.5"/>
<polygon fill="none" stroke="#666666" points="922.16,-869 922.16,-918 999.16,-918 999.16,-869 922.16,-869"/>
</a>
</g>
</g>
<!-- Node9&#45;&gt;Node2 -->
<g id="edge8_Node000002_Node000009" class="edge">
<title>Node9&#45;&gt;Node2</title>
<g id="a_edge8_Node000002_Node000009"><a xlink:title=" ">
<path fill="none" stroke="#63b8ff" d="M961.56,-868.88C962.88,-820.54 962.93,-712.69 938.66,-687 907.39,-653.88 874.1,-692.12 831.52,-668.96"/>
<polygon fill="none" stroke="#63b8ff" points="831.45,-668.92 824.24,-669 821.39,-662.37 828.61,-662.29 831.45,-668.92"/>
</a>
</g>
<text text-anchor="middle" x="1019.66" y="-728.5" font-family="Helvetica,sans-Serif" font-size="10.00" fill="grey"> +OverrideSamplerState</text>
</g>
<!-- Node10&#45;&gt;Node2 -->
<g id="edge10_Node000002_Node000010" class="edge">
<title>Node10&#45;&gt;Node2</title>
<g id="a_edge10_Node000002_Node000010"><a xlink:title=" ">
<path fill="none" stroke="#63b8ff" d="M664.08,-835.43C663.91,-816.23 663.75,-794.69 663.66,-775 663.5,-735.89 659.66,-725.91 663.66,-687 663.86,-685.08 664.07,-683.16 664.28,-681.22"/>
<polygon fill="none" stroke="#63b8ff" points="664.28,-681.21 661.01,-674.78 665.69,-669.29 668.96,-675.71 664.28,-681.21"/>
</a>
</g>
<text text-anchor="middle" x="710.16" y="-739.5" font-family="Helvetica,sans-Serif" font-size="10.00" fill="grey"> &#45;_dimensions</text>
<text text-anchor="middle" x="710.16" y="-728.5" font-family="Helvetica,sans-Serif" font-size="10.00" fill="grey">&#45;_innerDimensions</text>
<text text-anchor="middle" x="710.16" y="-717.5" font-family="Helvetica,sans-Serif" font-size="10.00" fill="grey">&#45;_outerDimensions</text>
</g>
<!-- Node11 -->
<g id="Node000011" class="node">
<title>Node11</title>
<g id="a_Node000011"><a xlink:href="../../da/d90/classTerraria_1_1UI_1_1SnapPoint.html" target="_top" xlink:title=" ">
<polygon fill="white" stroke="transparent" points="1187.16,-968 1018.16,-968 1018.16,-819 1187.16,-819 1187.16,-968"/>
<text text-anchor="start" x="1051.66" y="-955.5" font-family="Helvetica,sans-Serif" font-size="10.00">Terraria.UI.SnapPoint</text>
<text text-anchor="start" x="1022.66" y="-940.5" font-family="Helvetica,sans-Serif" font-size="10.00">+</text>
<text text-anchor="start" x="1035.66" y="-940.5" font-family="Helvetica,sans-Serif" font-size="10.00">int Id</text>
<text text-anchor="start" x="1022.66" y="-925.5" font-family="Helvetica,sans-Serif" font-size="10.00">+</text>
<text text-anchor="start" x="1035.66" y="-925.5" font-family="Helvetica,sans-Serif" font-size="10.00">Vector2 Position</text>
<text text-anchor="start" x="1022.66" y="-910.5" font-family="Helvetica,sans-Serif" font-size="10.00">+</text>
<text text-anchor="start" x="1035.66" y="-910.5" font-family="Helvetica,sans-Serif" font-size="10.00">SnapPoint(string name,</text>
<text text-anchor="start" x="1035.66" y="-899.5" font-family="Helvetica,sans-Serif" font-size="10.00"> int id, Vector2 anchor,</text>
<text text-anchor="start" x="1035.66" y="-888.5" font-family="Helvetica,sans-Serif" font-size="10.00"> Vector2 offset)</text>
<text text-anchor="start" x="1022.66" y="-873.5" font-family="Helvetica,sans-Serif" font-size="10.00">+</text>
<text text-anchor="start" x="1035.66" y="-873.5" font-family="Helvetica,sans-Serif" font-size="10.00">void Calculate(UIElement</text>
<text text-anchor="start" x="1035.66" y="-862.5" font-family="Helvetica,sans-Serif" font-size="10.00"> element)</text>
<text text-anchor="start" x="1022.66" y="-847.5" font-family="Helvetica,sans-Serif" font-size="10.00">+</text>
<text text-anchor="start" x="1035.66" y="-847.5" font-family="Helvetica,sans-Serif" font-size="10.00">void ThisIsAHackThatChanges</text>
<text text-anchor="start" x="1035.66" y="-836.5" font-family="Helvetica,sans-Serif" font-size="10.00">TheSnapPointsInfo(Vector2</text>
<text text-anchor="start" x="1035.66" y="-825.5" font-family="Helvetica,sans-Serif" font-size="10.00"> anchor, Vector2 offset, int id)</text>
<polygon fill="#666666" stroke="#666666" points="1018.66,-950.5 1018.66,-950.5 1187.66,-950.5 1187.66,-950.5 1018.66,-950.5"/>
<polygon fill="#666666" stroke="#666666" points="1018.66,-920.5 1018.66,-920.5 1033.66,-920.5 1033.66,-920.5 1018.66,-920.5"/>
<polygon fill="#666666" stroke="#666666" points="1033.66,-920.5 1033.66,-920.5 1187.66,-920.5 1187.66,-920.5 1033.66,-920.5"/>
<polygon fill="none" stroke="#666666" points="1018.16,-819 1018.16,-968 1187.16,-968 1187.16,-819 1018.16,-819"/>
</a>
</g>
</g>
<!-- Node11&#45;&gt;Node2 -->
<g id="edge13_Node000002_Node000011" class="edge">
<title>Node11&#45;&gt;Node2</title>
<g id="a_edge13_Node000002_Node000011"><a xlink:title=" ">
<path fill="none" stroke="#63b8ff" d="M1116.49,-818.77C1120.23,-774.38 1115.9,-720.21 1081.66,-687 1043.73,-650.2 894.99,-694.77 832.09,-668.68"/>
<polygon fill="none" stroke="#63b8ff" points="831.97,-668.62 824.8,-669.31 821.4,-662.96 828.57,-662.26 831.97,-668.62"/>
</a>
</g>
<text text-anchor="middle" x="1146.16" y="-728.5" font-family="Helvetica,sans-Serif" font-size="10.00" fill="grey"> &#45;_snapPoint</text>
</g>
<!-- Node12 -->
<g id="Node000012" class="node">
<title>Node12</title>
<g id="a_Node000012"><a xlink:title=" ">
<polygon fill="white" stroke="transparent" points="1089.66,-1123 1051.66,-1123 1051.66,-1074 1089.66,-1074 1089.66,-1123"/>
<text text-anchor="start" x="1056.66" y="-1110.5" font-family="Helvetica,sans-Serif" font-size="10.00">string</text>
<text text-anchor="start" x="1068.66" y="-1095.5" font-family="Helvetica,sans-Serif" font-size="10.00"> </text>
<text text-anchor="start" x="1068.66" y="-1080.5" font-family="Helvetica,sans-Serif" font-size="10.00"> </text>
<polygon fill="#666666" stroke="#666666" points="1051.66,-1105.5 1051.66,-1105.5 1089.66,-1105.5 1089.66,-1105.5 1051.66,-1105.5"/>
<polygon fill="#666666" stroke="#666666" points="1051.66,-1090.5 1051.66,-1090.5 1089.66,-1090.5 1089.66,-1090.5 1051.66,-1090.5"/>
<polygon fill="none" stroke="#666666" points="1051.66,-1074 1051.66,-1123 1089.66,-1123 1089.66,-1074 1051.66,-1074"/>
</a>
</g>
</g>
<!-- Node12&#45;&gt;Node11 -->
<g id="edge14_Node000011_Node000012" class="edge">
<title>Node12&#45;&gt;Node11</title>
<g id="a_edge14_Node000011_Node000012"><a xlink:title=" ">
<path fill="none" stroke="#63b8ff" d="M1069.39,-1073.8C1068.83,-1056.57 1068.85,-1032.74 1071.66,-1012 1073.08,-1001.6 1075.11,-990.8 1077.47,-980.15"/>
<polygon fill="none" stroke="#63b8ff" points="1077.53,-979.9 1075,-973.15 1080.26,-968.22 1082.79,-974.97 1077.53,-979.9"/>
</a>
</g>
<text text-anchor="middle" x="1092.16" y="-1031.5" font-family="Helvetica,sans-Serif" font-size="10.00" fill="grey"> +Name</text>
</g>
<!-- Node13 -->
<g id="Node000013" class="node">
<title>Node13</title>
<g id="a_Node000013"><a xlink:title=" ">
<polygon fill="white" stroke="transparent" points="1158.16,-1123 1111.16,-1123 1111.16,-1074 1158.16,-1074 1158.16,-1123"/>
<text text-anchor="start" x="1116.66" y="-1110.5" font-family="Helvetica,sans-Serif" font-size="10.00">Vector2</text>
<text text-anchor="start" x="1133.16" y="-1095.5" font-family="Helvetica,sans-Serif" font-size="10.00"> </text>
<text text-anchor="start" x="1133.16" y="-1080.5" font-family="Helvetica,sans-Serif" font-size="10.00"> </text>
<polygon fill="#666666" stroke="#666666" points="1111.66,-1105.5 1111.66,-1105.5 1158.66,-1105.5 1158.66,-1105.5 1111.66,-1105.5"/>
<polygon fill="#666666" stroke="#666666" points="1111.66,-1090.5 1111.66,-1090.5 1158.66,-1090.5 1158.66,-1090.5 1111.66,-1090.5"/>
<polygon fill="none" stroke="#666666" points="1111.16,-1074 1111.16,-1123 1158.16,-1123 1158.16,-1074 1111.16,-1074"/>
</a>
</g>
</g>
<!-- Node13&#45;&gt;Node11 -->
<g id="edge15_Node000011_Node000013" class="edge">
<title>Node13&#45;&gt;Node11</title>
<g id="a_edge15_Node000011_Node000013"><a xlink:title=" ">
<path fill="none" stroke="#63b8ff" d="M1130.93,-1073.82C1127.29,-1050.71 1121.53,-1014.15 1116.15,-980.05"/>
<polygon fill="none" stroke="#63b8ff" points="1116.14,-979.98 1111.25,-974.67 1114.27,-968.12 1119.16,-973.43 1116.14,-979.98"/>
</a>
</g>
<text text-anchor="middle" x="1150.66" y="-1037" font-family="Helvetica,sans-Serif" font-size="10.00" fill="grey"> &#45;_anchor</text>
<text text-anchor="middle" x="1150.66" y="-1026" font-family="Helvetica,sans-Serif" font-size="10.00" fill="grey">&#45;_offset</text>
</g>
<!-- Node14 -->
<g id="Node000014" class="node">
<title>Node14</title>
<g id="a_Node000014"><a xlink:title=" ">
<polygon fill="white" stroke="transparent" points="1030.16,-466.5 839.16,-466.5 839.16,-395.5 1030.16,-395.5 1030.16,-466.5"/>
<text text-anchor="start" x="844.66" y="-454" font-family="Helvetica,sans-Serif" font-size="10.00">readonly List&lt; Terraria.</text>
<text text-anchor="start" x="844.66" y="-443" font-family="Helvetica,sans-Serif" font-size="10.00">ModLoader.UI.UIMemoryBar.Memory</text>
<text text-anchor="start" x="909.66" y="-432" font-family="Helvetica,sans-Serif" font-size="10.00">BarItem &gt;</text>
<text text-anchor="start" x="933.16" y="-417" font-family="Helvetica,sans-Serif" font-size="10.00"> </text>
<text text-anchor="start" x="933.16" y="-402" font-family="Helvetica,sans-Serif" font-size="10.00"> </text>
<polygon fill="#666666" stroke="#666666" points="839.66,-427 839.66,-427 1030.66,-427 1030.66,-427 839.66,-427"/>
<polygon fill="#666666" stroke="#666666" points="839.66,-412 839.66,-412 1030.66,-412 1030.66,-412 839.66,-412"/>
<polygon fill="none" stroke="#666666" points="839.16,-395.5 839.16,-466.5 1030.16,-466.5 1030.16,-395.5 839.16,-395.5"/>
</a>
</g>
</g>
<!-- Node14&#45;&gt;Node1 -->
<g id="edge17_Node000001_Node000014" class="edge">
<title>Node14&#45;&gt;Node1</title>
<g id="a_edge17_Node000001_Node000014"><a xlink:title=" ">
<path fill="none" stroke="#63b8ff" d="M934.66,-395.22C934.66,-340.77 934.66,-233.86 934.66,-158.36"/>
<polygon fill="none" stroke="#63b8ff" points="934.66,-158.06 930.66,-152.06 934.66,-146.06 938.66,-152.06 934.66,-158.06"/>
</a>
</g>
<text text-anchor="middle" x="983.66" y="-167" font-family="Helvetica,sans-Serif" font-size="10.00" fill="grey"> &#45;_memoryBarItems</text>
</g>
<!-- Node15 -->
<g id="Node000015" class="node">
<title>Node15</title>
<g id="a_Node000015"><a xlink:title=" ">
<polygon fill="white" stroke="transparent" points="1080.66,-455.5 1048.66,-455.5 1048.66,-406.5 1080.66,-406.5 1080.66,-455.5"/>
<text text-anchor="start" x="1053.66" y="-443" font-family="Helvetica,sans-Serif" font-size="10.00">long</text>
<text text-anchor="start" x="1062.66" y="-428" font-family="Helvetica,sans-Serif" font-size="10.00"> </text>
<text text-anchor="start" x="1062.66" y="-413" font-family="Helvetica,sans-Serif" font-size="10.00"> </text>
<polygon fill="#666666" stroke="#666666" points="1048.66,-438 1048.66,-438 1080.66,-438 1080.66,-438 1048.66,-438"/>
<polygon fill="#666666" stroke="#666666" points="1048.66,-423 1048.66,-423 1080.66,-423 1080.66,-423 1048.66,-423"/>
<polygon fill="none" stroke="#666666" points="1048.66,-406.5 1048.66,-455.5 1080.66,-455.5 1080.66,-406.5 1048.66,-406.5"/>
</a>
</g>
</g>
<!-- Node15&#45;&gt;Node1 -->
<g id="edge18_Node000001_Node000015" class="edge">
<title>Node15&#45;&gt;Node1</title>
<g id="a_edge18_Node000001_Node000015"><a xlink:title=" ">
<path fill="none" stroke="#63b8ff" d="M1067.65,-406.34C1072.64,-357.84 1078.4,-244.88 1036.66,-164 1035.32,-161.39 1033.86,-158.82 1032.31,-156.29"/>
<polygon fill="none" stroke="#63b8ff" points="1032.16,-156.07 1025.48,-153.36 1025.41,-146.15 1032.09,-148.86 1032.16,-156.07"/>
</a>
</g>
<text text-anchor="middle" x="1077.16" y="-167" font-family="Helvetica,sans-Serif" font-size="10.00" fill="grey"> &#45;_maxMemory</text>
</g>
<!-- Node16 -->
<g id="Node000016" class="node">
<title>Node16</title>
<g id="a_Node000016"><a xlink:title=" ">
<polygon fill="white" stroke="transparent" points="1175.66,-455.5 1139.66,-455.5 1139.66,-406.5 1175.66,-406.5 1175.66,-455.5"/>
<text text-anchor="start" x="1144.66" y="-443" font-family="Helvetica,sans-Serif" font-size="10.00">Color</text>
<text text-anchor="start" x="1155.66" y="-428" font-family="Helvetica,sans-Serif" font-size="10.00"> </text>
<text text-anchor="start" x="1155.66" y="-413" font-family="Helvetica,sans-Serif" font-size="10.00"> </text>
<polygon fill="#666666" stroke="#666666" points="1139.66,-438 1139.66,-438 1175.66,-438 1175.66,-438 1139.66,-438"/>
<polygon fill="#666666" stroke="#666666" points="1139.66,-423 1139.66,-423 1175.66,-423 1175.66,-423 1139.66,-423"/>
<polygon fill="none" stroke="#666666" points="1139.66,-406.5 1139.66,-455.5 1175.66,-455.5 1175.66,-406.5 1139.66,-406.5"/>
</a>
</g>
</g>
<!-- Node16&#45;&gt;Node1 -->
<g id="edge19_Node000001_Node000016" class="edge">
<title>Node16&#45;&gt;Node1</title>
<g id="a_edge19_Node000001_Node000016"><a xlink:title=" ">
<path fill="none" stroke="#63b8ff" d="M1161,-406.34C1166.72,-356.34 1173.03,-238.45 1118.66,-164 1099.23,-137.39 1069.76,-118.25 1040.06,-104.66"/>
<polygon fill="none" stroke="#63b8ff" points="1039.7,-104.5 1032.6,-105.78 1028.69,-99.72 1035.79,-98.44 1039.7,-104.5"/>
</a>
</g>
<text text-anchor="middle" x="1143.66" y="-167" font-family="Helvetica,sans-Serif" font-size="10.00" fill="grey"> &#45;_colors</text>
</g>
</g>
</svg>
