<?xml version="1.0" encoding="UTF-8" standalone="no"?>
<!DOCTYPE svg PUBLIC "-//W3C//DTD SVG 1.1//EN"
 "http://www.w3.org/Graphics/SVG/1.1/DTD/svg11.dtd">
<!-- Generated by graphviz version 2.43.0 (0)
 -->
<!-- Title: Terraria.GameContent.UI.Elements.UIScrollbar Pages: 1 -->
<svg width="1467pt" height="1294pt"
 viewBox="0.00 0.00 1466.60 1294.00" xmlns="http://www.w3.org/2000/svg" xmlns:xlink="http://www.w3.org/1999/xlink">
<g id="graph0" class="graph" transform="scale(1 1) rotate(0) translate(4 1290)">
<title>Terraria.GameContent.UI.Elements.UIScrollbar</title>
<!-- Node1 -->
<g id="Node000001" class="node">
<title>Node1</title>
<g id="a_Node000001"><a xlink:title=" ">
<polygon fill="#999999" stroke="transparent" points="1177.1,-298 996.1,-298 996.1,0 1177.1,0 1177.1,-298"/>
<text text-anchor="start" x="1025.1" y="-286" font-family="Helvetica,sans-Serif" font-size="10.00">Terraria.GameContent.UI.</text>
<text text-anchor="start" x="1035.6" y="-275" font-family="Helvetica,sans-Serif" font-size="10.00">Elements.UIScrollbar</text>
<text text-anchor="start" x="1000.6" y="-260" font-family="Helvetica,sans-Serif" font-size="10.00">+</text>
<text text-anchor="start" x="1013.6" y="-260" font-family="Helvetica,sans-Serif" font-size="10.00">float ViewPosition</text>
<text text-anchor="start" x="1000.6" y="-245" font-family="Helvetica,sans-Serif" font-size="10.00">+</text>
<text text-anchor="start" x="1013.6" y="-245" font-family="Helvetica,sans-Serif" font-size="10.00">bool CanScroll</text>
<text text-anchor="start" x="1000.6" y="-230" font-family="Helvetica,sans-Serif" font-size="10.00">+</text>
<text text-anchor="start" x="1013.6" y="-230" font-family="Helvetica,sans-Serif" font-size="10.00">void GoToBottom()</text>
<text text-anchor="start" x="1000.6" y="-215" font-family="Helvetica,sans-Serif" font-size="10.00">+</text>
<text text-anchor="start" x="1013.6" y="-215" font-family="Helvetica,sans-Serif" font-size="10.00">UIScrollbar()</text>
<text text-anchor="start" x="1000.6" y="-200" font-family="Helvetica,sans-Serif" font-size="10.00">+</text>
<text text-anchor="start" x="1013.6" y="-200" font-family="Helvetica,sans-Serif" font-size="10.00">void SetView(float</text>
<text text-anchor="start" x="1013.6" y="-189" font-family="Helvetica,sans-Serif" font-size="10.00"> viewSize, float maxViewSize)</text>
<text text-anchor="start" x="1000.6" y="-174" font-family="Helvetica,sans-Serif" font-size="10.00">+</text>
<text text-anchor="start" x="1013.6" y="-174" font-family="Helvetica,sans-Serif" font-size="10.00">float GetValue()</text>
<text text-anchor="start" x="1000.6" y="-159" font-family="Helvetica,sans-Serif" font-size="10.00">+</text>
<text text-anchor="start" x="1013.6" y="-159" font-family="Helvetica,sans-Serif" font-size="10.00">override void LeftMouseDown</text>
<text text-anchor="start" x="1013.6" y="-148" font-family="Helvetica,sans-Serif" font-size="10.00">(UIMouseEvent evt)</text>
<text text-anchor="start" x="1000.6" y="-133" font-family="Helvetica,sans-Serif" font-size="10.00">+</text>
<text text-anchor="start" x="1013.6" y="-133" font-family="Helvetica,sans-Serif" font-size="10.00">override void LeftMouseUp</text>
<text text-anchor="start" x="1013.6" y="-122" font-family="Helvetica,sans-Serif" font-size="10.00">(UIMouseEvent evt)</text>
<text text-anchor="start" x="1000.6" y="-107" font-family="Helvetica,sans-Serif" font-size="10.00">+</text>
<text text-anchor="start" x="1013.6" y="-107" font-family="Helvetica,sans-Serif" font-size="10.00">override void MouseOver</text>
<text text-anchor="start" x="1013.6" y="-96" font-family="Helvetica,sans-Serif" font-size="10.00">(UIMouseEvent evt)</text>
<text text-anchor="start" x="1000.6" y="-81" font-family="Helvetica,sans-Serif" font-size="10.00">~</text>
<text text-anchor="start" x="1013.6" y="-81" font-family="Helvetica,sans-Serif" font-size="10.00">void DrawBar(SpriteBatch</text>
<text text-anchor="start" x="1013.6" y="-70" font-family="Helvetica,sans-Serif" font-size="10.00"> spriteBatch, Texture2D</text>
<text text-anchor="start" x="1013.6" y="-59" font-family="Helvetica,sans-Serif" font-size="10.00"> texture, Rectangle dimensions,</text>
<text text-anchor="start" x="1013.6" y="-48" font-family="Helvetica,sans-Serif" font-size="10.00"> Color color)</text>
<text text-anchor="start" x="1000.6" y="-33" font-family="Helvetica,sans-Serif" font-size="10.00">#</text>
<text text-anchor="start" x="1013.6" y="-33" font-family="Helvetica,sans-Serif" font-size="10.00">override void DrawSelf</text>
<text text-anchor="start" x="1013.6" y="-22" font-family="Helvetica,sans-Serif" font-size="10.00">(SpriteBatch spriteBatch)</text>
<text text-anchor="start" x="1003.1" y="-7" font-family="Helvetica,sans-Serif" font-size="10.00">&#45;</text>
<text text-anchor="start" x="1013.6" y="-7" font-family="Helvetica,sans-Serif" font-size="10.00">Rectangle GetHandleRectangle()</text>
<polygon fill="#666666" stroke="#666666" points="996.6,-270 996.6,-270 1177.6,-270 1177.6,-270 996.6,-270"/>
<polygon fill="#666666" stroke="#666666" points="996.6,-240 996.6,-240 1011.6,-240 1011.6,-240 996.6,-240"/>
<polygon fill="#666666" stroke="#666666" points="1011.6,-240 1011.6,-240 1177.6,-240 1177.6,-240 1011.6,-240"/>
<polygon fill="none" stroke="#666666" points="996.1,0 996.1,-298 1177.1,-298 1177.1,0 996.1,0"/>
</a>
</g>
</g>
<!-- Node2 -->
<g id="Node000002" class="node">
<title>Node2</title>
<g id="a_Node000002"><a xlink:href="../../d7/d72/classTerraria_1_1UI_1_1UIElement.html" target="_top" xlink:title=" ">
<polygon fill="white" stroke="transparent" points="742.1,-832 533.1,-832 533.1,-356 742.1,-356 742.1,-832"/>
<text text-anchor="start" x="612.1" y="-820" font-family="Helvetica,sans-Serif" font-size="10.00">UIElement</text>
<text text-anchor="start" x="537.6" y="-805" font-family="Helvetica,sans-Serif" font-size="10.00">+</text>
<text text-anchor="start" x="550.6" y="-805" font-family="Helvetica,sans-Serif" font-size="10.00">UIElement Parent</text>
<text text-anchor="start" x="537.6" y="-790" font-family="Helvetica,sans-Serif" font-size="10.00">+</text>
<text text-anchor="start" x="550.6" y="-790" font-family="Helvetica,sans-Serif" font-size="10.00">int UniqueId</text>
<text text-anchor="start" x="537.6" y="-775" font-family="Helvetica,sans-Serif" font-size="10.00">+</text>
<text text-anchor="start" x="550.6" y="-775" font-family="Helvetica,sans-Serif" font-size="10.00">IEnumerable&lt; UIElement</text>
<text text-anchor="start" x="550.6" y="-764" font-family="Helvetica,sans-Serif" font-size="10.00"> &gt; Children</text>
<text text-anchor="start" x="537.6" y="-749" font-family="Helvetica,sans-Serif" font-size="10.00">+</text>
<text text-anchor="start" x="550.6" y="-749" font-family="Helvetica,sans-Serif" font-size="10.00">bool IsMouseHovering</text>
<text text-anchor="start" x="537.6" y="-734" font-family="Helvetica,sans-Serif" font-size="10.00">+</text>
<text text-anchor="start" x="550.6" y="-734" font-family="Helvetica,sans-Serif" font-size="10.00">delegate void MouseEvent</text>
<text text-anchor="start" x="550.6" y="-723" font-family="Helvetica,sans-Serif" font-size="10.00">(UIMouseEvent evt, UIElement</text>
<text text-anchor="start" x="550.6" y="-712" font-family="Helvetica,sans-Serif" font-size="10.00"> listeningElement)</text>
<text text-anchor="start" x="537.6" y="-697" font-family="Helvetica,sans-Serif" font-size="10.00">+</text>
<text text-anchor="start" x="550.6" y="-697" font-family="Helvetica,sans-Serif" font-size="10.00">delegate void ScrollWheel</text>
<text text-anchor="start" x="550.6" y="-686" font-family="Helvetica,sans-Serif" font-size="10.00">Event(UIScrollWheelEvent</text>
<text text-anchor="start" x="550.6" y="-675" font-family="Helvetica,sans-Serif" font-size="10.00"> evt, UIElement listeningElement)</text>
<text text-anchor="start" x="537.6" y="-660" font-family="Helvetica,sans-Serif" font-size="10.00">+</text>
<text text-anchor="start" x="550.6" y="-660" font-family="Helvetica,sans-Serif" font-size="10.00">delegate void ElementEvent</text>
<text text-anchor="start" x="550.6" y="-649" font-family="Helvetica,sans-Serif" font-size="10.00">(UIElement affectedElement)</text>
<text text-anchor="start" x="537.6" y="-634" font-family="Helvetica,sans-Serif" font-size="10.00">+</text>
<text text-anchor="start" x="550.6" y="-634" font-family="Helvetica,sans-Serif" font-size="10.00">delegate void UIElementAction</text>
<text text-anchor="start" x="550.6" y="-623" font-family="Helvetica,sans-Serif" font-size="10.00">(UIElement element)</text>
<text text-anchor="start" x="537.6" y="-608" font-family="Helvetica,sans-Serif" font-size="10.00">+</text>
<text text-anchor="start" x="550.6" y="-608" font-family="Helvetica,sans-Serif" font-size="10.00">UIElement()</text>
<text text-anchor="start" x="537.6" y="-593" font-family="Helvetica,sans-Serif" font-size="10.00">+</text>
<text text-anchor="start" x="550.6" y="-593" font-family="Helvetica,sans-Serif" font-size="10.00">void SetSnapPoint(string</text>
<text text-anchor="start" x="550.6" y="-582" font-family="Helvetica,sans-Serif" font-size="10.00"> name, int id, Vector2</text>
<text text-anchor="start" x="550.6" y="-571" font-family="Helvetica,sans-Serif" font-size="10.00">? anchor=null, Vector2?</text>
<text text-anchor="start" x="550.6" y="-560" font-family="Helvetica,sans-Serif" font-size="10.00"> offset=null)</text>
<text text-anchor="start" x="537.6" y="-545" font-family="Helvetica,sans-Serif" font-size="10.00">+</text>
<text text-anchor="start" x="550.6" y="-545" font-family="Helvetica,sans-Serif" font-size="10.00">bool GetSnapPoint(out</text>
<text text-anchor="start" x="550.6" y="-534" font-family="Helvetica,sans-Serif" font-size="10.00"> SnapPoint point)</text>
<text text-anchor="start" x="537.6" y="-519" font-family="Helvetica,sans-Serif" font-size="10.00">+</text>
<text text-anchor="start" x="550.6" y="-519" font-family="Helvetica,sans-Serif" font-size="10.00">virtual void ExecuteRecursively</text>
<text text-anchor="start" x="550.6" y="-508" font-family="Helvetica,sans-Serif" font-size="10.00">(UIElementAction action)</text>
<text text-anchor="start" x="537.6" y="-493" font-family="Helvetica,sans-Serif" font-size="10.00">+</text>
<text text-anchor="start" x="550.6" y="-493" font-family="Helvetica,sans-Serif" font-size="10.00">void Append(UIElement</text>
<text text-anchor="start" x="550.6" y="-482" font-family="Helvetica,sans-Serif" font-size="10.00"> element)</text>
<text text-anchor="start" x="537.6" y="-467" font-family="Helvetica,sans-Serif" font-size="10.00">+</text>
<text text-anchor="start" x="550.6" y="-467" font-family="Helvetica,sans-Serif" font-size="10.00">void Remove()</text>
<text text-anchor="start" x="550.6" y="-452" font-family="Helvetica,sans-Serif" font-size="10.00">and 48 more...</text>
<text text-anchor="start" x="537.6" y="-437" font-family="Helvetica,sans-Serif" font-size="10.00">#</text>
<text text-anchor="start" x="550.6" y="-437" font-family="Helvetica,sans-Serif" font-size="10.00">virtual void DrawSelf</text>
<text text-anchor="start" x="550.6" y="-426" font-family="Helvetica,sans-Serif" font-size="10.00">(SpriteBatch spriteBatch)</text>
<text text-anchor="start" x="537.6" y="-411" font-family="Helvetica,sans-Serif" font-size="10.00">#</text>
<text text-anchor="start" x="550.6" y="-411" font-family="Helvetica,sans-Serif" font-size="10.00">virtual void DrawChildren</text>
<text text-anchor="start" x="550.6" y="-400" font-family="Helvetica,sans-Serif" font-size="10.00">(SpriteBatch spriteBatch)</text>
<text text-anchor="start" x="540.1" y="-385" font-family="Helvetica,sans-Serif" font-size="10.00">&#45;</text>
<text text-anchor="start" x="550.6" y="-385" font-family="Helvetica,sans-Serif" font-size="10.00">CalculatedStyle GetDimensions</text>
<text text-anchor="start" x="550.6" y="-374" font-family="Helvetica,sans-Serif" font-size="10.00">BasedOnParentDimensions(Calculated</text>
<text text-anchor="start" x="550.6" y="-363" font-family="Helvetica,sans-Serif" font-size="10.00">Style parentDimensions)</text>
<polygon fill="#666666" stroke="#666666" points="533.6,-815 533.6,-815 742.6,-815 742.6,-815 533.6,-815"/>
<polygon fill="#666666" stroke="#666666" points="533.6,-744 533.6,-744 548.6,-744 548.6,-744 533.6,-744"/>
<polygon fill="#666666" stroke="#666666" points="548.6,-744 548.6,-744 742.6,-744 742.6,-744 548.6,-744"/>
<polygon fill="none" stroke="#666666" points="533.1,-356 533.1,-832 742.1,-832 742.1,-356 533.1,-356"/>
</a>
</g>
</g>
<!-- Node2&#45;&gt;Node1 -->
<g id="edge1_Node000001_Node000002" class="edge">
<title>Node2&#45;&gt;Node1</title>
<g id="a_edge1_Node000001_Node000002"><a xlink:title=" ">
<path fill="none" stroke="#63b8ff" d="M749.58,-482.51C825.57,-407.55 924.74,-309.7 995.8,-239.59"/>
<polygon fill="none" stroke="#63b8ff" points="746.97,-480.18 742.31,-489.7 751.88,-485.16 746.97,-480.18"/>
</a>
</g>
</g>
<!-- Node3 -->
<g id="Node000003" class="node">
<title>Node3</title>
<g id="a_Node000003"><a xlink:href="../../d9/d6f/classIComparable.html" target="_top" xlink:title=" ">
<polygon fill="white" stroke="transparent" points="247.1,-1081 174.1,-1081 174.1,-1032 247.1,-1032 247.1,-1081"/>
<text text-anchor="start" x="179.6" y="-1068.5" font-family="Helvetica,sans-Serif" font-size="10.00">IComparable</text>
<text text-anchor="start" x="209.1" y="-1053.5" font-family="Helvetica,sans-Serif" font-size="10.00"> </text>
<text text-anchor="start" x="209.1" y="-1038.5" font-family="Helvetica,sans-Serif" font-size="10.00"> </text>
<polygon fill="#666666" stroke="#666666" points="174.6,-1063.5 174.6,-1063.5 247.6,-1063.5 247.6,-1063.5 174.6,-1063.5"/>
<polygon fill="#666666" stroke="#666666" points="174.6,-1048.5 174.6,-1048.5 247.6,-1048.5 247.6,-1048.5 174.6,-1048.5"/>
<polygon fill="none" stroke="#666666" points="174.1,-1032 174.1,-1081 247.1,-1081 247.1,-1032 174.1,-1032"/>
</a>
</g>
</g>
<!-- Node3&#45;&gt;Node2 -->
<g id="edge2_Node000002_Node000003" class="edge">
<title>Node3&#45;&gt;Node2</title>
<g id="a_edge2_Node000002_Node000003"><a xlink:title=" ">
<path fill="none" stroke="#63b8ff" d="M222.45,-1022.34C239.05,-979.18 272.44,-903.02 318.6,-850 381.34,-777.94 466.41,-711.09 532.93,-663.93"/>
<polygon fill="none" stroke="#63b8ff" points="219.14,-1021.21 218.88,-1031.8 225.69,-1023.68 219.14,-1021.21"/>
</a>
</g>
</g>
<!-- Node4 -->
<g id="Node000004" class="node">
<title>Node4</title>
<g id="a_Node000004"><a xlink:title=" ">
<polygon fill="white" stroke="transparent" points="485.1,-1086.5 360.1,-1086.5 360.1,-1026.5 485.1,-1026.5 485.1,-1086.5"/>
<text text-anchor="start" x="365.6" y="-1074.5" font-family="Helvetica,sans-Serif" font-size="10.00">readonly List&lt; Terraria.</text>
<text text-anchor="start" x="385.1" y="-1063.5" font-family="Helvetica,sans-Serif" font-size="10.00">UI.UIElement &gt;</text>
<text text-anchor="start" x="421.1" y="-1048.5" font-family="Helvetica,sans-Serif" font-size="10.00"> </text>
<text text-anchor="start" x="421.1" y="-1033.5" font-family="Helvetica,sans-Serif" font-size="10.00"> </text>
<polygon fill="#666666" stroke="#666666" points="360.6,-1058.5 360.6,-1058.5 485.6,-1058.5 485.6,-1058.5 360.6,-1058.5"/>
<polygon fill="#666666" stroke="#666666" points="360.6,-1043.5 360.6,-1043.5 485.6,-1043.5 485.6,-1043.5 360.6,-1043.5"/>
<polygon fill="none" stroke="#666666" points="360.1,-1026.5 360.1,-1086.5 485.1,-1086.5 485.1,-1026.5 360.1,-1026.5"/>
</a>
</g>
</g>
<!-- Node4&#45;&gt;Node2 -->
<g id="edge3_Node000002_Node000004" class="edge">
<title>Node4&#45;&gt;Node2</title>
<g id="a_edge3_Node000002_Node000004"><a xlink:title=" ">
<path fill="none" stroke="#63b8ff" d="M436.21,-1026.34C455.19,-985.7 491.4,-908.15 527.94,-829.89"/>
<polygon fill="none" stroke="#63b8ff" points="528.02,-829.72 526.93,-822.59 533.09,-818.85 534.18,-825.97 528.02,-829.72"/>
</a>
</g>
<text text-anchor="middle" x="546.6" y="-891.5" font-family="Helvetica,sans-Serif" font-size="10.00" fill="grey"> #Elements</text>
</g>
<!-- Node5 -->
<g id="Node000005" class="node">
<title>Node5</title>
<g id="a_Node000005"><a xlink:href="../../d8/d74/structTerraria_1_1UI_1_1StyleDimension.html" target="_top" xlink:title=" ">
<polygon fill="white" stroke="transparent" points="658.1,-1157 503.1,-1157 503.1,-956 658.1,-956 658.1,-1157"/>
<text text-anchor="start" x="515.6" y="-1144.5" font-family="Helvetica,sans-Serif" font-size="10.00">Terraria.UI.StyleDimension</text>
<text text-anchor="start" x="507.6" y="-1129.5" font-family="Helvetica,sans-Serif" font-size="10.00">+</text>
<text text-anchor="start" x="520.6" y="-1129.5" font-family="Helvetica,sans-Serif" font-size="10.00">float Percent</text>
<text text-anchor="start" x="507.6" y="-1114.5" font-family="Helvetica,sans-Serif" font-size="10.00">+</text>
<text text-anchor="start" x="520.6" y="-1114.5" font-family="Helvetica,sans-Serif" font-size="10.00">StyleDimension(float</text>
<text text-anchor="start" x="520.6" y="-1103.5" font-family="Helvetica,sans-Serif" font-size="10.00"> pixels, float precent)</text>
<text text-anchor="start" x="507.6" y="-1088.5" font-family="Helvetica,sans-Serif" font-size="10.00">+</text>
<text text-anchor="start" x="520.6" y="-1088.5" font-family="Helvetica,sans-Serif" font-size="10.00">void Set(float pixels,</text>
<text text-anchor="start" x="520.6" y="-1077.5" font-family="Helvetica,sans-Serif" font-size="10.00"> float precent)</text>
<text text-anchor="start" x="507.6" y="-1062.5" font-family="Helvetica,sans-Serif" font-size="10.00">+</text>
<text text-anchor="start" x="520.6" y="-1062.5" font-family="Helvetica,sans-Serif" font-size="10.00">float GetValue(float</text>
<text text-anchor="start" x="520.6" y="-1051.5" font-family="Helvetica,sans-Serif" font-size="10.00"> containerSize)</text>
<text text-anchor="start" x="507.6" y="-1036.5" font-family="Helvetica,sans-Serif" font-size="10.00">+</text>
<text text-anchor="start" x="520.6" y="-1036.5" font-family="Helvetica,sans-Serif" font-size="10.00">static StyleDimension</text>
<text text-anchor="start" x="520.6" y="-1025.5" font-family="Helvetica,sans-Serif" font-size="10.00"> FromPixels(float pixels)</text>
<text text-anchor="start" x="507.6" y="-1010.5" font-family="Helvetica,sans-Serif" font-size="10.00">+</text>
<text text-anchor="start" x="520.6" y="-1010.5" font-family="Helvetica,sans-Serif" font-size="10.00">static StyleDimension</text>
<text text-anchor="start" x="520.6" y="-999.5" font-family="Helvetica,sans-Serif" font-size="10.00"> FromPercent(float percent)</text>
<text text-anchor="start" x="507.6" y="-984.5" font-family="Helvetica,sans-Serif" font-size="10.00">+</text>
<text text-anchor="start" x="520.6" y="-984.5" font-family="Helvetica,sans-Serif" font-size="10.00">static StyleDimension</text>
<text text-anchor="start" x="520.6" y="-973.5" font-family="Helvetica,sans-Serif" font-size="10.00"> FromPixelsAndPercent</text>
<text text-anchor="start" x="520.6" y="-962.5" font-family="Helvetica,sans-Serif" font-size="10.00">(float pixels, float percent)</text>
<polygon fill="#666666" stroke="#666666" points="503.6,-1139.5 503.6,-1139.5 658.6,-1139.5 658.6,-1139.5 503.6,-1139.5"/>
<polygon fill="#666666" stroke="#666666" points="503.6,-1124.5 503.6,-1124.5 518.6,-1124.5 518.6,-1124.5 503.6,-1124.5"/>
<polygon fill="#666666" stroke="#666666" points="518.6,-1124.5 518.6,-1124.5 658.6,-1124.5 658.6,-1124.5 518.6,-1124.5"/>
<polygon fill="none" stroke="#666666" points="503.1,-956 503.1,-1157 658.1,-1157 658.1,-956 503.1,-956"/>
</a>
</g>
</g>
<!-- Node5&#45;&gt;Node2 -->
<g id="edge4_Node000002_Node000005" class="edge">
<title>Node5&#45;&gt;Node2</title>
<g id="a_edge4_Node000002_Node000005"><a xlink:title=" ">
<path fill="none" stroke="#63b8ff" d="M592.93,-955.86C597.05,-922.6 601.84,-883.89 606.73,-844.44"/>
<polygon fill="none" stroke="#63b8ff" points="606.74,-844.36 603.5,-837.92 608.21,-832.45 611.44,-838.9 606.74,-844.36"/>
</a>
</g>
<text text-anchor="middle" x="637.6" y="-930" font-family="Helvetica,sans-Serif" font-size="10.00" fill="grey"> +Height</text>
<text text-anchor="middle" x="637.6" y="-919" font-family="Helvetica,sans-Serif" font-size="10.00" fill="grey">+Left</text>
<text text-anchor="middle" x="637.6" y="-908" font-family="Helvetica,sans-Serif" font-size="10.00" fill="grey">+MaxHeight</text>
<text text-anchor="middle" x="637.6" y="-897" font-family="Helvetica,sans-Serif" font-size="10.00" fill="grey">+MaxWidth</text>
<text text-anchor="middle" x="637.6" y="-886" font-family="Helvetica,sans-Serif" font-size="10.00" fill="grey">+MinHeight</text>
<text text-anchor="middle" x="637.6" y="-875" font-family="Helvetica,sans-Serif" font-size="10.00" fill="grey">+MinWidth</text>
<text text-anchor="middle" x="637.6" y="-864" font-family="Helvetica,sans-Serif" font-size="10.00" fill="grey">+Top</text>
<text text-anchor="middle" x="637.6" y="-853" font-family="Helvetica,sans-Serif" font-size="10.00" fill="grey">+Width</text>
</g>
<!-- Node6 -->
<g id="Node000006" class="node">
<title>Node6</title>
<g id="a_Node000006"><a xlink:title=" ">
<polygon fill="white" stroke="transparent" points="150.6,-1286 112.6,-1286 112.6,-1237 150.6,-1237 150.6,-1286"/>
<text text-anchor="start" x="117.6" y="-1273.5" font-family="Helvetica,sans-Serif" font-size="10.00">static</text>
<text text-anchor="start" x="129.6" y="-1258.5" font-family="Helvetica,sans-Serif" font-size="10.00"> </text>
<text text-anchor="start" x="129.6" y="-1243.5" font-family="Helvetica,sans-Serif" font-size="10.00"> </text>
<polygon fill="#666666" stroke="#666666" points="112.6,-1268.5 112.6,-1268.5 150.6,-1268.5 150.6,-1268.5 112.6,-1268.5"/>
<polygon fill="#666666" stroke="#666666" points="112.6,-1253.5 112.6,-1253.5 150.6,-1253.5 150.6,-1253.5 112.6,-1253.5"/>
<polygon fill="none" stroke="#666666" points="112.6,-1237 112.6,-1286 150.6,-1286 150.6,-1237 112.6,-1237"/>
</a>
</g>
</g>
<!-- Node6&#45;&gt;Node2 -->
<g id="edge12_Node000002_Node000006" class="edge">
<title>Node6&#45;&gt;Node2</title>
<g id="a_edge12_Node000002_Node000006"><a xlink:title=" ">
<path fill="none" stroke="#63b8ff" d="M112.46,-1248.24C87.86,-1231.22 46.35,-1197.85 29.6,-1157 -4.28,-1074.34 -14.59,-1033.64 29.6,-956 134.92,-770.98 376.58,-670.96 521.52,-625.7"/>
<polygon fill="none" stroke="#63b8ff" points="521.61,-625.67 526.16,-620.08 533.07,-622.14 528.52,-627.73 521.61,-625.67"/>
</a>
</g>
<text text-anchor="start" x="29.6" y="-1065" font-family="Helvetica,sans-Serif" font-size="10.00" fill="grey"> &#45;OverflowHiddenRasterizer</text>
<text text-anchor="middle" x="97.1" y="-1054" font-family="Helvetica,sans-Serif" font-size="10.00" fill="grey">State</text>
<text text-anchor="middle" x="97.1" y="-1043" font-family="Helvetica,sans-Serif" font-size="10.00" fill="grey">&#45;_idCounter</text>
</g>
<!-- Node6&#45;&gt;Node5 -->
<g id="edge5_Node000005_Node000006" class="edge">
<title>Node6&#45;&gt;Node5</title>
<g id="a_edge5_Node000005_Node000006"><a xlink:title=" ">
<path fill="none" stroke="#63b8ff" d="M150.83,-1258.84C206,-1253.34 368.22,-1231.93 492.63,-1156.94"/>
<polygon fill="none" stroke="#63b8ff" points="492.84,-1156.81 495.83,-1150.25 503.03,-1150.49 500.04,-1157.05 492.84,-1156.81"/>
</a>
</g>
<text text-anchor="middle" x="480.1" y="-1200" font-family="Helvetica,sans-Serif" font-size="10.00" fill="grey"> +Empty</text>
<text text-anchor="middle" x="480.1" y="-1189" font-family="Helvetica,sans-Serif" font-size="10.00" fill="grey">+Fill</text>
</g>
<!-- Node7 -->
<g id="Node000007" class="node">
<title>Node7</title>
<g id="a_Node000007"><a xlink:title=" ">
<polygon fill="white" stroke="transparent" points="761.6,-1286 729.6,-1286 729.6,-1237 761.6,-1237 761.6,-1286"/>
<text text-anchor="start" x="734.6" y="-1273.5" font-family="Helvetica,sans-Serif" font-size="10.00">float</text>
<text text-anchor="start" x="743.6" y="-1258.5" font-family="Helvetica,sans-Serif" font-size="10.00"> </text>
<text text-anchor="start" x="743.6" y="-1243.5" font-family="Helvetica,sans-Serif" font-size="10.00"> </text>
<polygon fill="#666666" stroke="#666666" points="729.6,-1268.5 729.6,-1268.5 761.6,-1268.5 761.6,-1268.5 729.6,-1268.5"/>
<polygon fill="#666666" stroke="#666666" points="729.6,-1253.5 729.6,-1253.5 761.6,-1253.5 761.6,-1253.5 729.6,-1253.5"/>
<polygon fill="none" stroke="#666666" points="729.6,-1237 729.6,-1286 761.6,-1286 761.6,-1237 729.6,-1237"/>
</a>
</g>
</g>
<!-- Node7&#45;&gt;Node1 -->
<g id="edge16_Node000001_Node000007" class="edge">
<title>Node7&#45;&gt;Node1</title>
<g id="a_edge16_Node000001_Node000007"><a xlink:title=" ">
<path fill="none" stroke="#63b8ff" d="M761.87,-1257.88C801.75,-1250.47 904.02,-1225.29 944.6,-1157 979.5,-1098.27 952.76,-917.86 960.6,-850 982.18,-663.28 1022.65,-451.12 1051.91,-309.79"/>
<polygon fill="none" stroke="#63b8ff" points="1051.91,-309.79 1049.21,-303.1 1054.35,-298.04 1057.05,-304.73 1051.91,-309.79"/>
</a>
</g>
<text text-anchor="middle" x="998.6" y="-908" font-family="Helvetica,sans-Serif" font-size="10.00" fill="grey"> &#45;_dragYOffset</text>
<text text-anchor="middle" x="998.6" y="-897" font-family="Helvetica,sans-Serif" font-size="10.00" fill="grey">&#45;_maxViewSize</text>
<text text-anchor="middle" x="998.6" y="-886" font-family="Helvetica,sans-Serif" font-size="10.00" fill="grey">&#45;_viewPosition</text>
<text text-anchor="middle" x="998.6" y="-875" font-family="Helvetica,sans-Serif" font-size="10.00" fill="grey">&#45;_viewSize</text>
</g>
<!-- Node7&#45;&gt;Node2 -->
<g id="edge9_Node000002_Node000007" class="edge">
<title>Node7&#45;&gt;Node2</title>
<g id="a_edge9_Node000002_Node000007"><a xlink:title=" ">
<path fill="none" stroke="#63b8ff" d="M733.76,-1236.89C724,-1216.32 710.65,-1185.42 703.6,-1157 670.6,-1023.89 688.82,-986.18 672.6,-850 672.37,-848.07 672.14,-846.13 671.91,-844.19"/>
<polygon fill="none" stroke="#63b8ff" points="671.89,-844.07 667.2,-838.6 670.44,-832.16 675.14,-837.63 671.89,-844.07"/>
</a>
</g>
<text text-anchor="middle" x="745.1" y="-1109" font-family="Helvetica,sans-Serif" font-size="10.00" fill="grey"> +HAlign</text>
<text text-anchor="middle" x="745.1" y="-1098" font-family="Helvetica,sans-Serif" font-size="10.00" fill="grey">+MarginBottom</text>
<text text-anchor="middle" x="745.1" y="-1087" font-family="Helvetica,sans-Serif" font-size="10.00" fill="grey">+MarginLeft</text>
<text text-anchor="middle" x="745.1" y="-1076" font-family="Helvetica,sans-Serif" font-size="10.00" fill="grey">+MarginRight</text>
<text text-anchor="middle" x="745.1" y="-1065" font-family="Helvetica,sans-Serif" font-size="10.00" fill="grey">+MarginTop</text>
<text text-anchor="middle" x="745.1" y="-1054" font-family="Helvetica,sans-Serif" font-size="10.00" fill="grey">+PaddingBottom</text>
<text text-anchor="middle" x="745.1" y="-1043" font-family="Helvetica,sans-Serif" font-size="10.00" fill="grey">+PaddingLeft</text>
<text text-anchor="middle" x="745.1" y="-1032" font-family="Helvetica,sans-Serif" font-size="10.00" fill="grey">+PaddingRight</text>
<text text-anchor="middle" x="745.1" y="-1021" font-family="Helvetica,sans-Serif" font-size="10.00" fill="grey">+PaddingTop</text>
<text text-anchor="middle" x="745.1" y="-1010" font-family="Helvetica,sans-Serif" font-size="10.00" fill="grey">+VAlign</text>
<text text-anchor="middle" x="745.1" y="-999" font-family="Helvetica,sans-Serif" font-size="10.00" fill="grey">...</text>
</g>
<!-- Node7&#45;&gt;Node5 -->
<g id="edge6_Node000005_Node000007" class="edge">
<title>Node7&#45;&gt;Node5</title>
<g id="a_edge6_Node000005_Node000007"><a xlink:title=" ">
<path fill="none" stroke="#63b8ff" d="M729.26,-1258.8C705.25,-1255.44 660.47,-1245.79 634.6,-1219 620.93,-1204.84 610.72,-1187.13 603.09,-1168.67"/>
<polygon fill="none" stroke="#63b8ff" points="603.08,-1168.62 597.19,-1164.45 598.78,-1157.42 604.67,-1161.59 603.08,-1168.62"/>
</a>
</g>
<text text-anchor="middle" x="657.6" y="-1200" font-family="Helvetica,sans-Serif" font-size="10.00" fill="grey"> +Pixels</text>
<text text-anchor="middle" x="657.6" y="-1189" font-family="Helvetica,sans-Serif" font-size="10.00" fill="grey">+Precent</text>
</g>
<!-- Node10 -->
<g id="Node000010" class="node">
<title>Node10</title>
<g id="a_Node000010"><a xlink:href="../../d6/d3a/structTerraria_1_1UI_1_1CalculatedStyle.html" target="_top" xlink:title=" ">
<polygon fill="white" stroke="transparent" points="935.6,-1114.5 795.6,-1114.5 795.6,-998.5 935.6,-998.5 935.6,-1114.5"/>
<text text-anchor="start" x="800.6" y="-1102.5" font-family="Helvetica,sans-Serif" font-size="10.00">Terraria.UI.CalculatedStyle</text>
<text text-anchor="start" x="863.6" y="-1087.5" font-family="Helvetica,sans-Serif" font-size="10.00"> </text>
<text text-anchor="start" x="799.6" y="-1072.5" font-family="Helvetica,sans-Serif" font-size="10.00">+</text>
<text text-anchor="start" x="812.6" y="-1072.5" font-family="Helvetica,sans-Serif" font-size="10.00">CalculatedStyle(float</text>
<text text-anchor="start" x="812.6" y="-1061.5" font-family="Helvetica,sans-Serif" font-size="10.00"> x, float y, float width,</text>
<text text-anchor="start" x="812.6" y="-1050.5" font-family="Helvetica,sans-Serif" font-size="10.00"> float height)</text>
<text text-anchor="start" x="799.6" y="-1035.5" font-family="Helvetica,sans-Serif" font-size="10.00">+</text>
<text text-anchor="start" x="812.6" y="-1035.5" font-family="Helvetica,sans-Serif" font-size="10.00">Rectangle ToRectangle()</text>
<text text-anchor="start" x="799.6" y="-1020.5" font-family="Helvetica,sans-Serif" font-size="10.00">+</text>
<text text-anchor="start" x="812.6" y="-1020.5" font-family="Helvetica,sans-Serif" font-size="10.00">Vector2 Position()</text>
<text text-anchor="start" x="799.6" y="-1005.5" font-family="Helvetica,sans-Serif" font-size="10.00">+</text>
<text text-anchor="start" x="812.6" y="-1005.5" font-family="Helvetica,sans-Serif" font-size="10.00">Vector2 Center()</text>
<polygon fill="#666666" stroke="#666666" points="795.6,-1097.5 795.6,-1097.5 935.6,-1097.5 935.6,-1097.5 795.6,-1097.5"/>
<polygon fill="#666666" stroke="#666666" points="795.6,-1082.5 795.6,-1082.5 935.6,-1082.5 935.6,-1082.5 795.6,-1082.5"/>
<polygon fill="none" stroke="#666666" points="795.6,-998.5 795.6,-1114.5 935.6,-1114.5 935.6,-998.5 795.6,-998.5"/>
</a>
</g>
</g>
<!-- Node7&#45;&gt;Node10 -->
<g id="edge11_Node000010_Node000007" class="edge">
<title>Node7&#45;&gt;Node10</title>
<g id="a_edge11_Node000010_Node000007"><a xlink:title=" ">
<path fill="none" stroke="#63b8ff" d="M759.6,-1236.82C775.65,-1209.67 802.68,-1163.95 825.42,-1125.48"/>
<polygon fill="none" stroke="#63b8ff" points="825.6,-1125.17 825.21,-1117.97 831.71,-1114.84 832.1,-1122.04 825.6,-1125.17"/>
</a>
</g>
<text text-anchor="middle" x="817.6" y="-1211" font-family="Helvetica,sans-Serif" font-size="10.00" fill="grey"> +Height</text>
<text text-anchor="middle" x="817.6" y="-1200" font-family="Helvetica,sans-Serif" font-size="10.00" fill="grey">+Width</text>
<text text-anchor="middle" x="817.6" y="-1189" font-family="Helvetica,sans-Serif" font-size="10.00" fill="grey">+X</text>
<text text-anchor="middle" x="817.6" y="-1178" font-family="Helvetica,sans-Serif" font-size="10.00" fill="grey">+Y</text>
</g>
<!-- Node8 -->
<g id="Node000008" class="node">
<title>Node8</title>
<g id="a_Node000008"><a xlink:title=" ">
<polygon fill="white" stroke="transparent" points="1110.6,-1081 1078.6,-1081 1078.6,-1032 1110.6,-1032 1110.6,-1081"/>
<text text-anchor="start" x="1083.6" y="-1068.5" font-family="Helvetica,sans-Serif" font-size="10.00">bool</text>
<text text-anchor="start" x="1092.6" y="-1053.5" font-family="Helvetica,sans-Serif" font-size="10.00"> </text>
<text text-anchor="start" x="1092.6" y="-1038.5" font-family="Helvetica,sans-Serif" font-size="10.00"> </text>
<polygon fill="#666666" stroke="#666666" points="1078.6,-1063.5 1078.6,-1063.5 1110.6,-1063.5 1110.6,-1063.5 1078.6,-1063.5"/>
<polygon fill="#666666" stroke="#666666" points="1078.6,-1048.5 1078.6,-1048.5 1110.6,-1048.5 1110.6,-1048.5 1078.6,-1048.5"/>
<polygon fill="none" stroke="#666666" points="1078.6,-1032 1078.6,-1081 1110.6,-1081 1110.6,-1032 1078.6,-1032"/>
</a>
</g>
</g>
<!-- Node8&#45;&gt;Node1 -->
<g id="edge17_Node000001_Node000008" class="edge">
<title>Node8&#45;&gt;Node1</title>
<g id="a_edge17_Node000001_Node000008"><a xlink:title=" ">
<path fill="none" stroke="#63b8ff" d="M1102.27,-1031.92C1110.63,-1009.57 1126.07,-976.46 1149.6,-956 1166.48,-941.32 1183.92,-956.43 1196.6,-938 1218.77,-905.78 1199.65,-888.99 1196.6,-850 1182.04,-663.5 1145.96,-451.57 1119.07,-310.23"/>
<polygon fill="none" stroke="#63b8ff" points="1119,-309.84 1113.94,-304.69 1116.74,-298.05 1121.8,-303.19 1119,-309.84"/>
</a>
</g>
<text text-anchor="middle" x="1255.6" y="-597" font-family="Helvetica,sans-Serif" font-size="10.00" fill="grey"> &#45;_isDragging</text>
<text text-anchor="middle" x="1255.6" y="-586" font-family="Helvetica,sans-Serif" font-size="10.00" fill="grey">&#45;_isHoveringOverHandle</text>
</g>
<!-- Node8&#45;&gt;Node2 -->
<g id="edge7_Node000002_Node000008" class="edge">
<title>Node8&#45;&gt;Node2</title>
<g id="a_edge7_Node000002_Node000008"><a xlink:title=" ">
<path fill="none" stroke="#63b8ff" d="M1088.29,-1031.65C1082.02,-1007.91 1072.12,-970.44 1063.6,-938 1053.33,-898.9 1064.45,-882.64 1040.6,-850 968.19,-750.92 844.53,-681.09 753.24,-639.85"/>
<polygon fill="none" stroke="#63b8ff" points="753.23,-639.85 746.12,-641.06 742.27,-634.96 749.38,-633.75 753.23,-639.85"/>
</a>
</g>
<text text-anchor="middle" x="1130.1" y="-908" font-family="Helvetica,sans-Serif" font-size="10.00" fill="grey"> +IgnoresMouseInteraction</text>
<text text-anchor="middle" x="1130.1" y="-897" font-family="Helvetica,sans-Serif" font-size="10.00" fill="grey">+OverflowHidden</text>
<text text-anchor="middle" x="1130.1" y="-886" font-family="Helvetica,sans-Serif" font-size="10.00" fill="grey">+UseImmediateMode</text>
<text text-anchor="middle" x="1130.1" y="-875" font-family="Helvetica,sans-Serif" font-size="10.00" fill="grey">&#45;_isInitialized</text>
</g>
<!-- Node9 -->
<g id="Node000009" class="node">
<title>Node9</title>
<g id="a_Node000009"><a xlink:title=" ">
<polygon fill="white" stroke="transparent" points="342.1,-1081 265.1,-1081 265.1,-1032 342.1,-1032 342.1,-1081"/>
<text text-anchor="start" x="270.6" y="-1068.5" font-family="Helvetica,sans-Serif" font-size="10.00">SamplerState</text>
<text text-anchor="start" x="302.1" y="-1053.5" font-family="Helvetica,sans-Serif" font-size="10.00"> </text>
<text text-anchor="start" x="302.1" y="-1038.5" font-family="Helvetica,sans-Serif" font-size="10.00"> </text>
<polygon fill="#666666" stroke="#666666" points="265.6,-1063.5 265.6,-1063.5 342.6,-1063.5 342.6,-1063.5 265.6,-1063.5"/>
<polygon fill="#666666" stroke="#666666" points="265.6,-1048.5 265.6,-1048.5 342.6,-1048.5 342.6,-1048.5 265.6,-1048.5"/>
<polygon fill="none" stroke="#666666" points="265.1,-1032 265.1,-1081 342.1,-1081 342.1,-1032 265.1,-1032"/>
</a>
</g>
</g>
<!-- Node9&#45;&gt;Node2 -->
<g id="edge8_Node000002_Node000009" class="edge">
<title>Node9&#45;&gt;Node2</title>
<g id="a_edge8_Node000002_Node000009"><a xlink:title=" ">
<path fill="none" stroke="#63b8ff" d="M305.29,-1031.94C309.06,-991.89 320.9,-909.14 356.6,-850 398.61,-780.42 465.4,-718.67 523.32,-673.38"/>
<polygon fill="none" stroke="#63b8ff" points="523.41,-673.3 525.71,-666.47 532.91,-665.97 530.61,-672.8 523.41,-673.3"/>
</a>
</g>
<text text-anchor="middle" x="416.6" y="-891.5" font-family="Helvetica,sans-Serif" font-size="10.00" fill="grey"> +OverrideSamplerState</text>
</g>
<!-- Node10&#45;&gt;Node2 -->
<g id="edge10_Node000002_Node000010" class="edge">
<title>Node10&#45;&gt;Node2</title>
<g id="a_edge10_Node000002_Node000010"><a xlink:title=" ">
<path fill="none" stroke="#63b8ff" d="M837.19,-998.11C814.37,-952.03 780.78,-884.19 747.64,-817.25"/>
<polygon fill="none" stroke="#63b8ff" points="747.44,-816.84 741.19,-813.23 742.11,-806.08 748.36,-809.68 747.44,-816.84"/>
</a>
</g>
<text text-anchor="middle" x="851.1" y="-902.5" font-family="Helvetica,sans-Serif" font-size="10.00" fill="grey"> &#45;_dimensions</text>
<text text-anchor="middle" x="851.1" y="-891.5" font-family="Helvetica,sans-Serif" font-size="10.00" fill="grey">&#45;_innerDimensions</text>
<text text-anchor="middle" x="851.1" y="-880.5" font-family="Helvetica,sans-Serif" font-size="10.00" fill="grey">&#45;_outerDimensions</text>
</g>
<!-- Node11 -->
<g id="Node000011" class="node">
<title>Node11</title>
<g id="a_Node000011"><a xlink:href="../../da/d90/classTerraria_1_1UI_1_1SnapPoint.html" target="_top" xlink:title=" ">
<polygon fill="white" stroke="transparent" points="1328.1,-1131 1159.1,-1131 1159.1,-982 1328.1,-982 1328.1,-1131"/>
<text text-anchor="start" x="1192.6" y="-1118.5" font-family="Helvetica,sans-Serif" font-size="10.00">Terraria.UI.SnapPoint</text>
<text text-anchor="start" x="1163.6" y="-1103.5" font-family="Helvetica,sans-Serif" font-size="10.00">+</text>
<text text-anchor="start" x="1176.6" y="-1103.5" font-family="Helvetica,sans-Serif" font-size="10.00">int Id</text>
<text text-anchor="start" x="1163.6" y="-1088.5" font-family="Helvetica,sans-Serif" font-size="10.00">+</text>
<text text-anchor="start" x="1176.6" y="-1088.5" font-family="Helvetica,sans-Serif" font-size="10.00">Vector2 Position</text>
<text text-anchor="start" x="1163.6" y="-1073.5" font-family="Helvetica,sans-Serif" font-size="10.00">+</text>
<text text-anchor="start" x="1176.6" y="-1073.5" font-family="Helvetica,sans-Serif" font-size="10.00">SnapPoint(string name,</text>
<text text-anchor="start" x="1176.6" y="-1062.5" font-family="Helvetica,sans-Serif" font-size="10.00"> int id, Vector2 anchor,</text>
<text text-anchor="start" x="1176.6" y="-1051.5" font-family="Helvetica,sans-Serif" font-size="10.00"> Vector2 offset)</text>
<text text-anchor="start" x="1163.6" y="-1036.5" font-family="Helvetica,sans-Serif" font-size="10.00">+</text>
<text text-anchor="start" x="1176.6" y="-1036.5" font-family="Helvetica,sans-Serif" font-size="10.00">void Calculate(UIElement</text>
<text text-anchor="start" x="1176.6" y="-1025.5" font-family="Helvetica,sans-Serif" font-size="10.00"> element)</text>
<text text-anchor="start" x="1163.6" y="-1010.5" font-family="Helvetica,sans-Serif" font-size="10.00">+</text>
<text text-anchor="start" x="1176.6" y="-1010.5" font-family="Helvetica,sans-Serif" font-size="10.00">void ThisIsAHackThatChanges</text>
<text text-anchor="start" x="1176.6" y="-999.5" font-family="Helvetica,sans-Serif" font-size="10.00">TheSnapPointsInfo(Vector2</text>
<text text-anchor="start" x="1176.6" y="-988.5" font-family="Helvetica,sans-Serif" font-size="10.00"> anchor, Vector2 offset, int id)</text>
<polygon fill="#666666" stroke="#666666" points="1159.6,-1113.5 1159.6,-1113.5 1328.6,-1113.5 1328.6,-1113.5 1159.6,-1113.5"/>
<polygon fill="#666666" stroke="#666666" points="1159.6,-1083.5 1159.6,-1083.5 1174.6,-1083.5 1174.6,-1083.5 1159.6,-1083.5"/>
<polygon fill="#666666" stroke="#666666" points="1174.6,-1083.5 1174.6,-1083.5 1328.6,-1083.5 1328.6,-1083.5 1174.6,-1083.5"/>
<polygon fill="none" stroke="#666666" points="1159.1,-982 1159.1,-1131 1328.1,-1131 1328.1,-982 1159.1,-982"/>
</a>
</g>
</g>
<!-- Node11&#45;&gt;Node2 -->
<g id="edge13_Node000002_Node000011" class="edge">
<title>Node11&#45;&gt;Node2</title>
<g id="a_edge13_Node000002_Node000011"><a xlink:title=" ">
<path fill="none" stroke="#63b8ff" d="M1244.11,-981.53C1240.79,-938.98 1230.13,-886.83 1200.6,-850 1088.64,-710.38 883.58,-644.44 754.26,-615.45"/>
<polygon fill="none" stroke="#63b8ff" points="754.1,-615.41 747.38,-618.03 742.38,-612.84 749.1,-610.22 754.1,-615.41"/>
</a>
</g>
<text text-anchor="middle" x="1269.1" y="-891.5" font-family="Helvetica,sans-Serif" font-size="10.00" fill="grey"> &#45;_snapPoint</text>
</g>
<!-- Node12 -->
<g id="Node000012" class="node">
<title>Node12</title>
<g id="a_Node000012"><a xlink:title=" ">
<polygon fill="white" stroke="transparent" points="1230.6,-1286 1192.6,-1286 1192.6,-1237 1230.6,-1237 1230.6,-1286"/>
<text text-anchor="start" x="1197.6" y="-1273.5" font-family="Helvetica,sans-Serif" font-size="10.00">string</text>
<text text-anchor="start" x="1209.6" y="-1258.5" font-family="Helvetica,sans-Serif" font-size="10.00"> </text>
<text text-anchor="start" x="1209.6" y="-1243.5" font-family="Helvetica,sans-Serif" font-size="10.00"> </text>
<polygon fill="#666666" stroke="#666666" points="1192.6,-1268.5 1192.6,-1268.5 1230.6,-1268.5 1230.6,-1268.5 1192.6,-1268.5"/>
<polygon fill="#666666" stroke="#666666" points="1192.6,-1253.5 1192.6,-1253.5 1230.6,-1253.5 1230.6,-1253.5 1192.6,-1253.5"/>
<polygon fill="none" stroke="#666666" points="1192.6,-1237 1192.6,-1286 1230.6,-1286 1230.6,-1237 1192.6,-1237"/>
</a>
</g>
</g>
<!-- Node12&#45;&gt;Node11 -->
<g id="edge14_Node000011_Node000012" class="edge">
<title>Node12&#45;&gt;Node11</title>
<g id="a_edge14_Node000011_Node000012"><a xlink:title=" ">
<path fill="none" stroke="#63b8ff" d="M1210.32,-1236.8C1209.77,-1219.57 1209.79,-1195.74 1212.6,-1175 1214.01,-1164.6 1216.05,-1153.8 1218.41,-1143.15"/>
<polygon fill="none" stroke="#63b8ff" points="1218.47,-1142.9 1215.94,-1136.15 1221.2,-1131.22 1223.73,-1137.97 1218.47,-1142.9"/>
</a>
</g>
<text text-anchor="middle" x="1233.1" y="-1194.5" font-family="Helvetica,sans-Serif" font-size="10.00" fill="grey"> +Name</text>
</g>
<!-- Node13 -->
<g id="Node000013" class="node">
<title>Node13</title>
<g id="a_Node000013"><a xlink:title=" ">
<polygon fill="white" stroke="transparent" points="1299.1,-1286 1252.1,-1286 1252.1,-1237 1299.1,-1237 1299.1,-1286"/>
<text text-anchor="start" x="1257.6" y="-1273.5" font-family="Helvetica,sans-Serif" font-size="10.00">Vector2</text>
<text text-anchor="start" x="1274.1" y="-1258.5" font-family="Helvetica,sans-Serif" font-size="10.00"> </text>
<text text-anchor="start" x="1274.1" y="-1243.5" font-family="Helvetica,sans-Serif" font-size="10.00"> </text>
<polygon fill="#666666" stroke="#666666" points="1252.6,-1268.5 1252.6,-1268.5 1299.6,-1268.5 1299.6,-1268.5 1252.6,-1268.5"/>
<polygon fill="#666666" stroke="#666666" points="1252.6,-1253.5 1252.6,-1253.5 1299.6,-1253.5 1299.6,-1253.5 1252.6,-1253.5"/>
<polygon fill="none" stroke="#666666" points="1252.1,-1237 1252.1,-1286 1299.1,-1286 1299.1,-1237 1252.1,-1237"/>
</a>
</g>
</g>
<!-- Node13&#45;&gt;Node11 -->
<g id="edge15_Node000011_Node000013" class="edge">
<title>Node13&#45;&gt;Node11</title>
<g id="a_edge15_Node000011_Node000013"><a xlink:title=" ">
<path fill="none" stroke="#63b8ff" d="M1271.87,-1236.82C1268.23,-1213.71 1262.46,-1177.15 1257.09,-1143.05"/>
<polygon fill="none" stroke="#63b8ff" points="1257.08,-1142.98 1252.19,-1137.67 1255.21,-1131.12 1260.09,-1136.43 1257.08,-1142.98"/>
</a>
</g>
<text text-anchor="middle" x="1292.6" y="-1200" font-family="Helvetica,sans-Serif" font-size="10.00" fill="grey"> &#45;_anchor</text>
<text text-anchor="middle" x="1292.6" y="-1189" font-family="Helvetica,sans-Serif" font-size="10.00" fill="grey">&#45;_offset</text>
</g>
<!-- Node14 -->
<g id="Node000014" class="node">
<title>Node14</title>
<g id="a_Node000014"><a xlink:title=" ">
<polygon fill="white" stroke="transparent" points="1458.6,-618.5 1348.6,-618.5 1348.6,-569.5 1458.6,-569.5 1458.6,-618.5"/>
<text text-anchor="start" x="1353.6" y="-606" font-family="Helvetica,sans-Serif" font-size="10.00">Asset&lt; Texture2D &gt;</text>
<text text-anchor="start" x="1401.6" y="-591" font-family="Helvetica,sans-Serif" font-size="10.00"> </text>
<text text-anchor="start" x="1401.6" y="-576" font-family="Helvetica,sans-Serif" font-size="10.00"> </text>
<polygon fill="#666666" stroke="#666666" points="1348.6,-601 1348.6,-601 1458.6,-601 1458.6,-601 1348.6,-601"/>
<polygon fill="#666666" stroke="#666666" points="1348.6,-586 1348.6,-586 1458.6,-586 1458.6,-586 1348.6,-586"/>
<polygon fill="none" stroke="#666666" points="1348.6,-569.5 1348.6,-618.5 1458.6,-618.5 1458.6,-569.5 1348.6,-569.5"/>
</a>
</g>
</g>
<!-- Node14&#45;&gt;Node1 -->
<g id="edge18_Node000001_Node000014" class="edge">
<title>Node14&#45;&gt;Node1</title>
<g id="a_edge18_Node000001_Node000014"><a xlink:title=" ">
<path fill="none" stroke="#63b8ff" d="M1401.32,-569.22C1396.06,-524.23 1379.84,-424.98 1334.6,-356 1296.83,-298.41 1238.07,-248.59 1187.23,-212.38"/>
<polygon fill="none" stroke="#63b8ff" points="1187,-212.21 1179.79,-212.04 1177.18,-205.32 1184.39,-205.49 1187,-212.21"/>
</a>
</g>
<text text-anchor="middle" x="1356.1" y="-330" font-family="Helvetica,sans-Serif" font-size="10.00" fill="grey"> &#45;_innerTexture</text>
<text text-anchor="middle" x="1356.1" y="-319" font-family="Helvetica,sans-Serif" font-size="10.00" fill="grey">&#45;_texture</text>
</g>
</g>
</svg>
