<?xml version="1.0" encoding="UTF-8" standalone="no"?>
<!DOCTYPE svg PUBLIC "-//W3C//DTD SVG 1.1//EN"
 "http://www.w3.org/Graphics/SVG/1.1/DTD/svg11.dtd">
<!-- Generated by graphviz version 2.43.0 (0)
 -->
<!-- Title: Terraria.GameContent.UI.States.AWorkshopPublishInfoState.CreatePublicSettingsRow Pages: 1 -->
<svg width="1450pt" height="403pt"
 viewBox="0.00 0.00 1450.00 403.00" xmlns="http://www.w3.org/2000/svg" xmlns:xlink="http://www.w3.org/1999/xlink">
<g id="graph0" class="graph" transform="scale(1 1) rotate(0) translate(4 399)">
<title>Terraria.GameContent.UI.States.AWorkshopPublishInfoState.CreatePublicSettingsRow</title>
<!-- Node1 -->
<g id="Node000001" class="node">
<title>Node1</title>
<g id="a_Node000001"><a xlink:title=" ">
<polygon fill="#999999" stroke="#666666" points="187,-227.5 0,-227.5 0,-186.5 187,-186.5 187,-227.5"/>
<text text-anchor="start" x="8" y="-215.5" font-family="Helvetica,sans-Serif" font-size="10.00">Terraria.GameContent.UI.</text>
<text text-anchor="start" x="8" y="-204.5" font-family="Helvetica,sans-Serif" font-size="10.00">States.AWorkshopPublishInfoState.</text>
<text text-anchor="middle" x="93.5" y="-193.5" font-family="Helvetica,sans-Serif" font-size="10.00">CreatePublicSettingsRow</text>
</a>
</g>
</g>
<!-- Node2 -->
<g id="Node000002" class="node">
<title>Node2</title>
<g id="a_Node000002"><a xlink:href="../../d9/d6a/classTerraria_1_1GameContent_1_1UI_1_1States_1_1AWorkshopPublishInfoState_a1051239c11ef2f29b5298c6650eafc36.html#a1051239c11ef2f29b5298c6650eafc36" target="_top" xlink:title=" ">
<polygon fill="white" stroke="#666666" points="410,-119.5 223,-119.5 223,-78.5 410,-78.5 410,-119.5"/>
<text text-anchor="start" x="231" y="-107.5" font-family="Helvetica,sans-Serif" font-size="10.00">Terraria.GameContent.UI.</text>
<text text-anchor="start" x="231" y="-96.5" font-family="Helvetica,sans-Serif" font-size="10.00">States.AWorkshopPublishInfoState.</text>
<text text-anchor="middle" x="316.5" y="-85.5" font-family="Helvetica,sans-Serif" font-size="10.00">ClearOptionDescription</text>
</a>
</g>
</g>
<!-- Node1&#45;&gt;Node2 -->
<g id="edge1_Node000001_Node000002" class="edge">
<title>Node1&#45;&gt;Node2</title>
<g id="a_edge1_Node000001_Node000002"><a xlink:title=" ">
<path fill="none" stroke="#63b8ff" d="M124.04,-186.34C149.41,-169.28 187.41,-145.3 223,-129 227.37,-127 231.92,-125.07 236.55,-123.22"/>
<polygon fill="#63b8ff" stroke="#63b8ff" points="238.04,-126.39 246.13,-119.55 235.54,-119.86 238.04,-126.39"/>
</a>
</g>
</g>
<!-- Node3 -->
<g id="Node000003" class="node">
<title>Node3</title>
<g id="a_Node000003"><a xlink:href="../../d4/d8f/classTerraria_1_1Localization_1_1Language_aa5ae49ae4976cbf8cf7aa28595d712a6.html#aa5ae49ae4976cbf8cf7aa28595d712a6" target="_top" xlink:title="Retrieves a LocalizedText object for a specified localization key. The actual text value can be retri...">
<polygon fill="white" stroke="#666666" points="623.5,-173 455.5,-173 455.5,-143 623.5,-143 623.5,-173"/>
<text text-anchor="start" x="463.5" y="-161" font-family="Helvetica,sans-Serif" font-size="10.00">Terraria.Localization.Language.</text>
<text text-anchor="middle" x="539.5" y="-150" font-family="Helvetica,sans-Serif" font-size="10.00">GetText</text>
</a>
</g>
</g>
<!-- Node1&#45;&gt;Node3 -->
<g id="edge25_Node000001_Node000003" class="edge">
<title>Node1&#45;&gt;Node3</title>
<g id="a_edge25_Node000001_Node000003"><a xlink:title=" ">
<path fill="none" stroke="#63b8ff" d="M187.07,-205.54C250.17,-203.54 335.47,-198.86 410,-188 430.85,-184.96 453.29,-180.24 473.51,-175.43"/>
<polygon fill="#63b8ff" stroke="#63b8ff" points="474.34,-178.83 483.23,-173.06 472.69,-172.02 474.34,-178.83"/>
</a>
</g>
</g>
<!-- Node12 -->
<g id="Node000012" class="node">
<title>Node12</title>
<g id="a_Node000012"><a xlink:href="../../d9/d6a/classTerraria_1_1GameContent_1_1UI_1_1States_1_1AWorkshopPublishInfoState_a9ee81fd32accded0ca0c0cc9a8865d72.html#a9ee81fd32accded0ca0c0cc9a8865d72" target="_top" xlink:title=" ">
<polygon fill="white" stroke="#666666" points="410,-60.5 223,-60.5 223,-19.5 410,-19.5 410,-60.5"/>
<text text-anchor="start" x="231" y="-48.5" font-family="Helvetica,sans-Serif" font-size="10.00">Terraria.GameContent.UI.</text>
<text text-anchor="start" x="231" y="-37.5" font-family="Helvetica,sans-Serif" font-size="10.00">States.AWorkshopPublishInfoState.</text>
<text text-anchor="middle" x="316.5" y="-26.5" font-family="Helvetica,sans-Serif" font-size="10.00">ClickPublicityOption</text>
</a>
</g>
</g>
<!-- Node1&#45;&gt;Node12 -->
<g id="edge12_Node000001_Node000012" class="edge">
<title>Node1&#45;&gt;Node12</title>
<g id="a_edge12_Node000001_Node000012"><a xlink:title=" ">
<path fill="none" stroke="#63b8ff" d="M108.65,-186.26C130.05,-156.41 173.44,-101.45 223,-70 225.78,-68.24 228.67,-66.57 231.65,-64.99"/>
<polygon fill="#63b8ff" stroke="#63b8ff" points="233.33,-68.06 240.77,-60.52 230.25,-61.77 233.33,-68.06"/>
</a>
</g>
</g>
<!-- Node13 -->
<g id="Node000013" class="node">
<title>Node13</title>
<g id="a_Node000013"><a xlink:href="../../d9/d6a/classTerraria_1_1GameContent_1_1UI_1_1States_1_1AWorkshopPublishInfoState_aa4fea81551384a127719ef31f7f75341.html#aa4fea81551384a127719ef31f7f75341" target="_top" xlink:title=" ">
<polygon fill="white" stroke="#666666" points="410,-276.5 223,-276.5 223,-235.5 410,-235.5 410,-276.5"/>
<text text-anchor="start" x="231" y="-264.5" font-family="Helvetica,sans-Serif" font-size="10.00">Terraria.GameContent.UI.</text>
<text text-anchor="start" x="231" y="-253.5" font-family="Helvetica,sans-Serif" font-size="10.00">States.AWorkshopPublishInfoState.</text>
<text text-anchor="middle" x="316.5" y="-242.5" font-family="Helvetica,sans-Serif" font-size="10.00">CreateStylizedCategoryPanel</text>
</a>
</g>
</g>
<!-- Node1&#45;&gt;Node13 -->
<g id="edge13_Node000001_Node000013" class="edge">
<title>Node1&#45;&gt;Node13</title>
<g id="a_edge13_Node000001_Node000013"><a xlink:title=" ">
<path fill="none" stroke="#63b8ff" d="M187.26,-227.57C195.75,-229.45 204.39,-231.36 212.96,-233.26"/>
<polygon fill="#63b8ff" stroke="#63b8ff" points="212.45,-236.74 222.97,-235.49 213.97,-229.9 212.45,-236.74"/>
</a>
</g>
</g>
<!-- Node17 -->
<g id="Node000017" class="node">
<title>Node17</title>
<g id="a_Node000017"><a xlink:href="../../d8/d74/structTerraria_1_1UI_1_1StyleDimension_ad650694a90519412f5f2ba2dd5569b44.html#ad650694a90519412f5f2ba2dd5569b44" target="_top" xlink:title=" ">
<polygon fill="white" stroke="#666666" points="830.5,-314 680.5,-314 680.5,-284 830.5,-284 830.5,-314"/>
<text text-anchor="start" x="688.5" y="-302" font-family="Helvetica,sans-Serif" font-size="10.00">Terraria.UI.StyleDimension.</text>
<text text-anchor="middle" x="755.5" y="-291" font-family="Helvetica,sans-Serif" font-size="10.00">FromPixelsAndPercent</text>
</a>
</g>
</g>
<!-- Node1&#45;&gt;Node17 -->
<g id="edge24_Node000001_Node000017" class="edge">
<title>Node1&#45;&gt;Node17</title>
<g id="a_edge24_Node000001_Node000017"><a xlink:title=" ">
<path fill="none" stroke="#63b8ff" d="M119.72,-227.69C144.38,-246.61 183.83,-273.49 223,-286 374.62,-334.43 563.13,-323.52 670.04,-311.23"/>
<polygon fill="#63b8ff" stroke="#63b8ff" points="670.61,-314.69 680.13,-310.04 669.79,-307.74 670.61,-314.69"/>
</a>
</g>
</g>
<!-- Node18 -->
<g id="Node000018" class="node">
<title>Node18</title>
<g id="a_Node000018"><a xlink:href="../../d8/d74/structTerraria_1_1UI_1_1StyleDimension_aaff4bceaa8740904df7a0c7d832f0354.html#aaff4bceaa8740904df7a0c7d832f0354" target="_top" xlink:title=" ">
<polygon fill="white" stroke="#666666" points="614.5,-395 464.5,-395 464.5,-365 614.5,-365 614.5,-395"/>
<text text-anchor="start" x="472.5" y="-383" font-family="Helvetica,sans-Serif" font-size="10.00">Terraria.UI.StyleDimension.</text>
<text text-anchor="middle" x="539.5" y="-372" font-family="Helvetica,sans-Serif" font-size="10.00">FromPercent</text>
</a>
</g>
</g>
<!-- Node1&#45;&gt;Node18 -->
<g id="edge22_Node000001_Node000018" class="edge">
<title>Node1&#45;&gt;Node18</title>
<g id="a_edge22_Node000001_Node000018"><a xlink:title=" ">
<path fill="none" stroke="#63b8ff" d="M105.9,-227.65C125.19,-260.32 167.65,-323.1 223,-351 294.95,-387.27 387.85,-391.53 454.18,-388.53"/>
<polygon fill="#63b8ff" stroke="#63b8ff" points="454.37,-392.03 464.18,-388.02 454.01,-385.04 454.37,-392.03"/>
</a>
</g>
</g>
<!-- Node19 -->
<g id="Node000019" class="node">
<title>Node19</title>
<g id="a_Node000019"><a xlink:href="../../d9/d6a/classTerraria_1_1GameContent_1_1UI_1_1States_1_1AWorkshopPublishInfoState_a73d70efeebda4dfc8e5a35e0b5333523.html#a73d70efeebda4dfc8e5a35e0b5333523" target="_top" xlink:title=" ">
<polygon fill="white" stroke="#666666" points="410,-178.5 223,-178.5 223,-137.5 410,-137.5 410,-178.5"/>
<text text-anchor="start" x="231" y="-166.5" font-family="Helvetica,sans-Serif" font-size="10.00">Terraria.GameContent.UI.</text>
<text text-anchor="start" x="231" y="-155.5" font-family="Helvetica,sans-Serif" font-size="10.00">States.AWorkshopPublishInfoState.</text>
<text text-anchor="middle" x="316.5" y="-144.5" font-family="Helvetica,sans-Serif" font-size="10.00">ShowOptionDescription</text>
</a>
</g>
</g>
<!-- Node1&#45;&gt;Node19 -->
<g id="edge26_Node000001_Node000019" class="edge">
<title>Node1&#45;&gt;Node19</title>
<g id="a_edge26_Node000001_Node000019"><a xlink:title=" ">
<path fill="none" stroke="#63b8ff" d="M187.26,-186.43C195.75,-184.55 204.39,-182.64 212.96,-180.74"/>
<polygon fill="#63b8ff" stroke="#63b8ff" points="213.97,-184.1 222.97,-178.51 212.45,-177.26 213.97,-184.1"/>
</a>
</g>
</g>
<!-- Node2&#45;&gt;Node3 -->
<g id="edge2_Node000002_Node000003" class="edge">
<title>Node2&#45;&gt;Node3</title>
<g id="a_edge2_Node000002_Node000003"><a xlink:title=" ">
<path fill="none" stroke="#63b8ff" d="M394.48,-119.55C419.78,-126.3 447.65,-133.75 472.09,-140.27"/>
<polygon fill="#63b8ff" stroke="#63b8ff" points="471.42,-143.71 481.98,-142.91 473.22,-136.95 471.42,-143.71"/>
</a>
</g>
</g>
<!-- Node4 -->
<g id="Node000004" class="node">
<title>Node4</title>
<g id="a_Node000004"><a xlink:href="../../df/da8/classTerraria_1_1GameContent_1_1UI_1_1Elements_1_1UIText_a3f27882b54715c7adb4e9859ec77c395.html#a3f27882b54715c7adb4e9859ec77c395" target="_top" xlink:title=" ">
<polygon fill="white" stroke="#666666" points="609.5,-120 469.5,-120 469.5,-90 609.5,-90 609.5,-120"/>
<text text-anchor="start" x="477.5" y="-108" font-family="Helvetica,sans-Serif" font-size="10.00">Terraria.GameContent.UI.</text>
<text text-anchor="middle" x="539.5" y="-97" font-family="Helvetica,sans-Serif" font-size="10.00">Elements.UIText.SetText</text>
</a>
</g>
</g>
<!-- Node2&#45;&gt;Node4 -->
<g id="edge3_Node000002_Node000004" class="edge">
<title>Node2&#45;&gt;Node4</title>
<g id="a_edge3_Node000002_Node000004"><a xlink:title=" ">
<path fill="none" stroke="#63b8ff" d="M410.26,-101.52C426.54,-101.96 443.35,-102.42 459.22,-102.85"/>
<polygon fill="#63b8ff" stroke="#63b8ff" points="459.41,-106.35 469.5,-103.13 459.6,-99.36 459.41,-106.35"/>
</a>
</g>
</g>
<!-- Node5 -->
<g id="Node000005" class="node">
<title>Node5</title>
<g id="a_Node000005"><a xlink:href="../../df/da8/classTerraria_1_1GameContent_1_1UI_1_1Elements_1_1UIText_a6b38a5021c0225460c802dc8376d39ac.html#a6b38a5021c0225460c802dc8376d39ac" target="_top" xlink:title=" ">
<polygon fill="white" stroke="#666666" points="842,-120 669,-120 669,-90 842,-90 842,-120"/>
<text text-anchor="start" x="677" y="-108" font-family="Helvetica,sans-Serif" font-size="10.00">Terraria.GameContent.UI.</text>
<text text-anchor="middle" x="755.5" y="-97" font-family="Helvetica,sans-Serif" font-size="10.00">Elements.UIText.InternalSetText</text>
</a>
</g>
</g>
<!-- Node4&#45;&gt;Node5 -->
<g id="edge4_Node000004_Node000005" class="edge">
<title>Node4&#45;&gt;Node5</title>
<g id="a_edge4_Node000004_Node000005"><a xlink:title=" ">
<path fill="none" stroke="#63b8ff" d="M609.68,-105C625.26,-105 642.06,-105 658.51,-105"/>
<polygon fill="#63b8ff" stroke="#63b8ff" points="658.69,-108.5 668.69,-105 658.69,-101.5 658.69,-108.5"/>
</a>
</g>
</g>
<!-- Node6 -->
<g id="Node000006" class="node">
<title>Node6</title>
<g id="a_Node000006"><a xlink:href="../../d7/d72/classTerraria_1_1UI_1_1UIElement_a5ad03f5ce0e776511a3b7e4a29e16caf.html#a5ad03f5ce0e776511a3b7e4a29e16caf" target="_top" xlink:title=" ">
<polygon fill="white" stroke="#666666" points="1031.5,-120 890.5,-120 890.5,-90 1031.5,-90 1031.5,-120"/>
<text text-anchor="start" x="898.5" y="-108" font-family="Helvetica,sans-Serif" font-size="10.00">Terraria.UI.UIElement.Get</text>
<text text-anchor="middle" x="961" y="-97" font-family="Helvetica,sans-Serif" font-size="10.00">InnerDimensions</text>
</a>
</g>
</g>
<!-- Node5&#45;&gt;Node6 -->
<g id="edge5_Node000005_Node000006" class="edge">
<title>Node5&#45;&gt;Node6</title>
<g id="a_edge5_Node000005_Node000006"><a xlink:title=" ">
<path fill="none" stroke="#63b8ff" d="M842.21,-105C854.77,-105 867.67,-105 880.1,-105"/>
<polygon fill="#63b8ff" stroke="#63b8ff" points="880.42,-108.5 890.42,-105 880.42,-101.5 880.42,-108.5"/>
</a>
</g>
</g>
<!-- Node7 -->
<g id="Node000007" class="node">
<title>Node7</title>
<g id="a_Node000007"><a xlink:href="../../d7/df6/classTerraria_1_1UI_1_1Chat_1_1ChatManager_ad0daac781e8696c59955af964519db95.html#ad0daac781e8696c59955af964519db95" target="_top" xlink:title=" ">
<polygon fill="white" stroke="#666666" points="1042.5,-54 879.5,-54 879.5,-24 1042.5,-24 1042.5,-54"/>
<text text-anchor="start" x="887.5" y="-42" font-family="Helvetica,sans-Serif" font-size="10.00">Terraria.UI.Chat.ChatManager.</text>
<text text-anchor="middle" x="961" y="-31" font-family="Helvetica,sans-Serif" font-size="10.00">GetStringSize</text>
</a>
</g>
</g>
<!-- Node5&#45;&gt;Node7 -->
<g id="edge6_Node000005_Node000007" class="edge">
<title>Node5&#45;&gt;Node7</title>
<g id="a_edge6_Node000005_Node000007"><a xlink:title=" ">
<path fill="none" stroke="#63b8ff" d="M802.93,-89.94C832.91,-80.22 872.1,-67.51 903.83,-57.22"/>
<polygon fill="#63b8ff" stroke="#63b8ff" points="904.98,-60.52 913.42,-54.11 902.82,-53.86 904.98,-60.52"/>
</a>
</g>
</g>
<!-- Node11 -->
<g id="Node000011" class="node">
<title>Node11</title>
<g id="a_Node000011"><a xlink:href="../../d8/d74/structTerraria_1_1UI_1_1StyleDimension_a93e6acf229427c6435d7ee83958efba0.html#a93e6acf229427c6435d7ee83958efba0" target="_top" xlink:title=" ">
<polygon fill="white" stroke="#666666" points="1044,-157.5 878,-157.5 878,-138.5 1044,-138.5 1044,-157.5"/>
<text text-anchor="middle" x="961" y="-145.5" font-family="Helvetica,sans-Serif" font-size="10.00">Terraria.UI.StyleDimension.Set</text>
</a>
</g>
</g>
<!-- Node5&#45;&gt;Node11 -->
<g id="edge11_Node000005_Node000011" class="edge">
<title>Node5&#45;&gt;Node11</title>
<g id="a_edge11_Node000005_Node000011"><a xlink:title=" ">
<path fill="none" stroke="#63b8ff" d="M827.67,-120.04C853.05,-125.4 881.22,-131.35 905.02,-136.38"/>
<polygon fill="#63b8ff" stroke="#63b8ff" points="904.43,-139.83 914.94,-138.48 905.88,-132.99 904.43,-139.83"/>
</a>
</g>
</g>
<!-- Node7&#45;&gt;Node7 -->
<g id="edge7_Node000007_Node000007" class="edge">
<title>Node7&#45;&gt;Node7</title>
<g id="a_edge7_Node000007_Node000007"><a xlink:title=" ">
<path fill="none" stroke="#63b8ff" d="M925.84,-54.28C918.03,-63.41 929.75,-72 961,-72 979.55,-72 991.22,-68.97 996.01,-64.6"/>
<polygon fill="#63b8ff" stroke="#63b8ff" points="999.51,-64.32 996.16,-54.28 992.51,-64.22 999.51,-64.32"/>
</a>
</g>
</g>
<!-- Node8 -->
<g id="Node000008" class="node">
<title>Node8</title>
<g id="a_Node000008"><a xlink:href="../../d7/df6/classTerraria_1_1UI_1_1Chat_1_1ChatManager_af687cd1f70060817f5984ef2b554cf40.html#af687cd1f70060817f5984ef2b554cf40" target="_top" xlink:title=" ">
<polygon fill="white" stroke="#666666" points="1243,-54 1080,-54 1080,-24 1243,-24 1243,-54"/>
<text text-anchor="start" x="1088" y="-42" font-family="Helvetica,sans-Serif" font-size="10.00">Terraria.UI.Chat.ChatManager.</text>
<text text-anchor="middle" x="1161.5" y="-31" font-family="Helvetica,sans-Serif" font-size="10.00">ParseMessage</text>
</a>
</g>
</g>
<!-- Node7&#45;&gt;Node8 -->
<g id="edge8_Node000007_Node000008" class="edge">
<title>Node7&#45;&gt;Node8</title>
<g id="a_edge8_Node000007_Node000008"><a xlink:title=" ">
<path fill="none" stroke="#63b8ff" d="M1042.74,-39C1051.63,-39 1060.72,-39 1069.73,-39"/>
<polygon fill="#63b8ff" stroke="#63b8ff" points="1069.83,-42.5 1079.83,-39 1069.83,-35.5 1069.83,-42.5"/>
</a>
</g>
</g>
<!-- Node9 -->
<g id="Node000009" class="node">
<title>Node9</title>
<g id="a_Node000009"><a xlink:href="../../d7/df6/classTerraria_1_1UI_1_1Chat_1_1ChatManager_ad57d7ce4542b2df5cd9ff15c86855f3f.html#ad57d7ce4542b2df5cd9ff15c86855f3f" target="_top" xlink:title=" ">
<polygon fill="white" stroke="#666666" points="1442,-78 1279,-78 1279,-48 1442,-48 1442,-78"/>
<text text-anchor="start" x="1287" y="-66" font-family="Helvetica,sans-Serif" font-size="10.00">Terraria.UI.Chat.ChatManager.</text>
<text text-anchor="middle" x="1360.5" y="-55" font-family="Helvetica,sans-Serif" font-size="10.00">GetHandler</text>
</a>
</g>
</g>
<!-- Node8&#45;&gt;Node9 -->
<g id="edge9_Node000008_Node000009" class="edge">
<title>Node8&#45;&gt;Node9</title>
<g id="a_edge9_Node000008_Node000009"><a xlink:title=" ">
<path fill="none" stroke="#63b8ff" d="M1243.2,-48.83C1251.67,-49.86 1260.33,-50.92 1268.91,-51.96"/>
<polygon fill="#63b8ff" stroke="#63b8ff" points="1268.58,-55.45 1278.93,-53.18 1269.43,-48.5 1268.58,-55.45"/>
</a>
</g>
</g>
<!-- Node10 -->
<g id="Node000010" class="node">
<title>Node10</title>
<g id="a_Node000010"><a xlink:href="../../dc/d25/interfaceTerraria_1_1UI_1_1Chat_1_1ITagHandler_aa5a15f340434dc9990b2b10b306642a6.html#aa5a15f340434dc9990b2b10b306642a6" target="_top" xlink:title=" ">
<polygon fill="white" stroke="#666666" points="1438,-30 1283,-30 1283,0 1438,0 1438,-30"/>
<text text-anchor="start" x="1291" y="-18" font-family="Helvetica,sans-Serif" font-size="10.00">Terraria.UI.Chat.ITagHandler.</text>
<text text-anchor="middle" x="1360.5" y="-7" font-family="Helvetica,sans-Serif" font-size="10.00">Parse</text>
</a>
</g>
</g>
<!-- Node8&#45;&gt;Node10 -->
<g id="edge10_Node000008_Node000010" class="edge">
<title>Node8&#45;&gt;Node10</title>
<g id="a_edge10_Node000008_Node000010"><a xlink:title=" ">
<path fill="none" stroke="#63b8ff" d="M1243.2,-29.17C1252.9,-27.99 1262.83,-26.78 1272.62,-25.58"/>
<polygon fill="#63b8ff" stroke="#63b8ff" points="1273.24,-29.04 1282.74,-24.35 1272.39,-22.09 1273.24,-29.04"/>
</a>
</g>
</g>
<!-- Node13&#45;&gt;Node3 -->
<g id="edge21_Node000013_Node000003" class="edge">
<title>Node13&#45;&gt;Node3</title>
<g id="a_edge21_Node000013_Node000003"><a xlink:title=" ">
<path fill="none" stroke="#63b8ff" d="M381.78,-235.48C391.55,-231.29 401.27,-226.47 410,-221 428.65,-209.32 427.02,-198.13 446,-187 452.64,-183.11 459.85,-179.68 467.22,-176.68"/>
<polygon fill="#63b8ff" stroke="#63b8ff" points="468.52,-179.93 476.62,-173.1 466.03,-173.39 468.52,-179.93"/>
</a>
</g>
</g>
<!-- Node14 -->
<g id="Node000014" class="node">
<title>Node14</title>
<g id="a_Node000014"><a xlink:href="../../d9/d6a/classTerraria_1_1GameContent_1_1UI_1_1States_1_1AWorkshopPublishInfoState_a02550e6132fa02f237f2de60edce9bd1.html#a02550e6132fa02f237f2de60edce9bd1" target="_top" xlink:title=" ">
<polygon fill="white" stroke="#666666" points="633,-270.5 446,-270.5 446,-229.5 633,-229.5 633,-270.5"/>
<text text-anchor="start" x="454" y="-258.5" font-family="Helvetica,sans-Serif" font-size="10.00">Terraria.GameContent.UI.</text>
<text text-anchor="start" x="454" y="-247.5" font-family="Helvetica,sans-Serif" font-size="10.00">States.AWorkshopPublishInfoState.</text>
<text text-anchor="middle" x="539.5" y="-236.5" font-family="Helvetica,sans-Serif" font-size="10.00">AddHorizontalSeparator</text>
</a>
</g>
</g>
<!-- Node13&#45;&gt;Node14 -->
<g id="edge14_Node000013_Node000014" class="edge">
<title>Node13&#45;&gt;Node14</title>
<g id="a_edge14_Node000013_Node000014"><a xlink:title=" ">
<path fill="none" stroke="#63b8ff" d="M410.26,-253.48C418.75,-253.25 427.39,-253.02 435.96,-252.78"/>
<polygon fill="#63b8ff" stroke="#63b8ff" points="436.07,-256.28 445.97,-252.51 435.88,-249.28 436.07,-256.28"/>
</a>
</g>
</g>
<!-- Node15 -->
<g id="Node000015" class="node">
<title>Node15</title>
<g id="a_Node000015"><a xlink:href="../../d8/d74/structTerraria_1_1UI_1_1StyleDimension_a401bd71d865c34b2d50a55dcc1a67384.html#a401bd71d865c34b2d50a55dcc1a67384" target="_top" xlink:title=" ">
<polygon fill="white" stroke="#666666" points="830.5,-265 680.5,-265 680.5,-235 830.5,-235 830.5,-265"/>
<text text-anchor="start" x="688.5" y="-253" font-family="Helvetica,sans-Serif" font-size="10.00">Terraria.UI.StyleDimension.</text>
<text text-anchor="middle" x="755.5" y="-242" font-family="Helvetica,sans-Serif" font-size="10.00">FromPixels</text>
</a>
</g>
</g>
<!-- Node13&#45;&gt;Node15 -->
<g id="edge19_Node000013_Node000015" class="edge">
<title>Node13&#45;&gt;Node15</title>
<g id="a_edge19_Node000013_Node000015"><a xlink:title=" ">
<path fill="none" stroke="#63b8ff" d="M379.89,-235.43C400.67,-229.54 424.11,-223.93 446,-221 528.38,-209.98 550.46,-211.29 633,-221 652.9,-223.34 674.26,-227.77 693.44,-232.48"/>
<polygon fill="#63b8ff" stroke="#63b8ff" points="692.7,-235.9 703.25,-234.95 694.41,-229.11 692.7,-235.9"/>
</a>
</g>
</g>
<!-- Node13&#45;&gt;Node17 -->
<g id="edge20_Node000013_Node000017" class="edge">
<title>Node13&#45;&gt;Node17</title>
<g id="a_edge20_Node000013_Node000017"><a xlink:title=" ">
<path fill="none" stroke="#63b8ff" d="M410.29,-274.73C422.27,-276.74 434.4,-278.57 446,-280 521.54,-289.34 608.09,-294.17 670.25,-296.61"/>
<polygon fill="#63b8ff" stroke="#63b8ff" points="670.27,-300.11 680.4,-297 670.54,-293.12 670.27,-300.11"/>
</a>
</g>
</g>
<!-- Node14&#45;&gt;Node15 -->
<g id="edge15_Node000014_Node000015" class="edge">
<title>Node14&#45;&gt;Node15</title>
<g id="a_edge15_Node000014_Node000015"><a xlink:title=" ">
<path fill="none" stroke="#63b8ff" d="M633.12,-250C645.47,-250 658.09,-250 670.29,-250"/>
<polygon fill="#63b8ff" stroke="#63b8ff" points="670.43,-253.5 680.43,-250 670.43,-246.5 670.43,-253.5"/>
</a>
</g>
</g>
<!-- Node14&#45;&gt;Node17 -->
<g id="edge17_Node000014_Node000017" class="edge">
<title>Node14&#45;&gt;Node17</title>
<g id="a_edge17_Node000014_Node000017"><a xlink:title=" ">
<path fill="none" stroke="#63b8ff" d="M630.33,-270.57C646.46,-274.26 663.14,-278.08 678.83,-281.67"/>
<polygon fill="#63b8ff" stroke="#63b8ff" points="678.45,-285.18 688.98,-284 680.01,-278.35 678.45,-285.18"/>
</a>
</g>
</g>
<!-- Node16 -->
<g id="Node000016" class="node">
<title>Node16</title>
<g id="a_Node000016"><a xlink:href="../../d8/d74/structTerraria_1_1UI_1_1StyleDimension_aa443ecdcb3b3f8237c37aac947d9ef9d.html#aa443ecdcb3b3f8237c37aac947d9ef9d" target="_top" xlink:title=" ">
<polygon fill="white" stroke="#666666" points="1036,-314 886,-314 886,-284 1036,-284 1036,-314"/>
<text text-anchor="start" x="894" y="-302" font-family="Helvetica,sans-Serif" font-size="10.00">Terraria.UI.StyleDimension.</text>
<text text-anchor="middle" x="961" y="-291" font-family="Helvetica,sans-Serif" font-size="10.00">StyleDimension</text>
</a>
</g>
</g>
<!-- Node15&#45;&gt;Node16 -->
<g id="edge16_Node000015_Node000016" class="edge">
<title>Node15&#45;&gt;Node16</title>
<g id="a_edge16_Node000015_Node000016"><a xlink:title=" ">
<path fill="none" stroke="#63b8ff" d="M818.94,-265.03C840.72,-270.28 865.34,-276.21 887.84,-281.63"/>
<polygon fill="#63b8ff" stroke="#63b8ff" points="887.14,-285.06 897.68,-283.99 888.78,-278.25 887.14,-285.06"/>
</a>
</g>
</g>
<!-- Node17&#45;&gt;Node16 -->
<g id="edge18_Node000017_Node000016" class="edge">
<title>Node17&#45;&gt;Node16</title>
<g id="a_edge18_Node000017_Node000016"><a xlink:title=" ">
<path fill="none" stroke="#63b8ff" d="M830.54,-299C845.13,-299 860.54,-299 875.45,-299"/>
<polygon fill="#63b8ff" stroke="#63b8ff" points="875.67,-302.5 885.67,-299 875.67,-295.5 875.67,-302.5"/>
</a>
</g>
</g>
<!-- Node18&#45;&gt;Node16 -->
<g id="edge23_Node000018_Node000016" class="edge">
<title>Node18&#45;&gt;Node16</title>
<g id="a_edge23_Node000018_Node000016"><a xlink:title=" ">
<path fill="none" stroke="#63b8ff" d="M614.59,-366.29C675.65,-354.92 764.5,-338.21 842,-323 853.38,-320.77 865.37,-318.38 877.17,-316"/>
<polygon fill="#63b8ff" stroke="#63b8ff" points="877.91,-319.42 887.01,-314.01 876.52,-312.56 877.91,-319.42"/>
</a>
</g>
</g>
<!-- Node19&#45;&gt;Node3 -->
<g id="edge27_Node000019_Node000003" class="edge">
<title>Node19&#45;&gt;Node3</title>
<g id="a_edge27_Node000019_Node000003"><a xlink:title=" ">
<path fill="none" stroke="#63b8ff" d="M410.26,-158C421.87,-158 433.74,-158 445.35,-158"/>
<polygon fill="#63b8ff" stroke="#63b8ff" points="445.47,-161.5 455.47,-158 445.47,-154.5 445.47,-161.5"/>
</a>
</g>
</g>
<!-- Node19&#45;&gt;Node4 -->
<g id="edge28_Node000019_Node000004" class="edge">
<title>Node19&#45;&gt;Node4</title>
<g id="a_edge28_Node000019_Node000004"><a xlink:title=" ">
<path fill="none" stroke="#63b8ff" d="M403.26,-137.43C423.92,-132.48 445.79,-127.23 465.78,-122.44"/>
<polygon fill="#63b8ff" stroke="#63b8ff" points="466.83,-125.79 475.74,-120.05 465.2,-118.98 466.83,-125.79"/>
</a>
</g>
</g>
</g>
</svg>
