<?xml version="1.0" encoding="UTF-8" standalone="no"?>
<!DOCTYPE svg PUBLIC "-//W3C//DTD SVG 1.1//EN"
 "http://www.w3.org/Graphics/SVG/1.1/DTD/svg11.dtd">
<!-- Generated by graphviz version 2.43.0 (0)
 -->
<!-- Title: Terraria.WorldBuilding.Searches.Up Pages: 1 -->
<svg width="511pt" height="654pt"
 viewBox="0.00 0.00 510.50 654.00" xmlns="http://www.w3.org/2000/svg" xmlns:xlink="http://www.w3.org/1999/xlink">
<g id="graph0" class="graph" transform="scale(1 1) rotate(0) translate(4 650)">
<title>Terraria.WorldBuilding.Searches.Up</title>
<!-- Node1 -->
<g id="Node000001" class="node">
<title>Node1</title>
<g id="a_Node000001"><a xlink:title=" ">
<polygon fill="#999999" stroke="transparent" points="447.5,-75 265.5,-75 265.5,0 447.5,0 447.5,-75"/>
<text text-anchor="start" x="270.5" y="-62.5" font-family="Helvetica,sans-Serif" font-size="10.00">Terraria.WorldBuilding.Searches.Up</text>
<text text-anchor="start" x="354.5" y="-47.5" font-family="Helvetica,sans-Serif" font-size="10.00"> </text>
<text text-anchor="start" x="284" y="-32.5" font-family="Helvetica,sans-Serif" font-size="10.00">+</text>
<text text-anchor="start" x="311.5" y="-32.5" font-family="Helvetica,sans-Serif" font-size="10.00">Up(int maxDistance)</text>
<text text-anchor="start" x="284" y="-17.5" font-family="Helvetica,sans-Serif" font-size="10.00">+</text>
<text text-anchor="start" x="311.5" y="-17.5" font-family="Helvetica,sans-Serif" font-size="10.00">override Point Find</text>
<text text-anchor="start" x="311.5" y="-6.5" font-family="Helvetica,sans-Serif" font-size="10.00">(Point origin)</text>
<polygon fill="#666666" stroke="#666666" points="265.5,-57.5 265.5,-57.5 447.5,-57.5 447.5,-57.5 265.5,-57.5"/>
<polygon fill="#666666" stroke="#666666" points="265.5,-42.5 265.5,-42.5 447.5,-42.5 447.5,-42.5 265.5,-42.5"/>
<polygon fill="none" stroke="#666666" points="265.5,0 265.5,-75 447.5,-75 447.5,0 265.5,0"/>
</a>
</g>
</g>
<!-- Node2 -->
<g id="Node000002" class="node">
<title>Node2</title>
<g id="a_Node000002"><a xlink:href="../../df/d08/classTerraria_1_1WorldBuilding_1_1GenSearch.html" target="_top" xlink:title=" ">
<polygon fill="white" stroke="transparent" points="332,-239 199,-239 199,-112 332,-112 332,-239"/>
<text text-anchor="start" x="239.5" y="-226.5" font-family="Helvetica,sans-Serif" font-size="10.00">GenSearch</text>
<text text-anchor="start" x="264" y="-211.5" font-family="Helvetica,sans-Serif" font-size="10.00"> </text>
<text text-anchor="start" x="203.5" y="-196.5" font-family="Helvetica,sans-Serif" font-size="10.00">+</text>
<text text-anchor="start" x="216.5" y="-196.5" font-family="Helvetica,sans-Serif" font-size="10.00">GenSearch Conditions</text>
<text text-anchor="start" x="216.5" y="-185.5" font-family="Helvetica,sans-Serif" font-size="10.00">(params GenCondition</text>
<text text-anchor="start" x="216.5" y="-174.5" font-family="Helvetica,sans-Serif" font-size="10.00">[] conditions)</text>
<text text-anchor="start" x="203.5" y="-159.5" font-family="Helvetica,sans-Serif" font-size="10.00">+</text>
<text text-anchor="start" x="216.5" y="-159.5" font-family="Helvetica,sans-Serif" font-size="10.00">Point Find(Point origin)</text>
<text text-anchor="start" x="203.5" y="-144.5" font-family="Helvetica,sans-Serif" font-size="10.00">+</text>
<text text-anchor="start" x="216.5" y="-144.5" font-family="Helvetica,sans-Serif" font-size="10.00">GenSearch RequireAll</text>
<text text-anchor="start" x="216.5" y="-133.5" font-family="Helvetica,sans-Serif" font-size="10.00">(bool mode)</text>
<text text-anchor="start" x="203.5" y="-118.5" font-family="Helvetica,sans-Serif" font-size="10.00">#</text>
<text text-anchor="start" x="216.5" y="-118.5" font-family="Helvetica,sans-Serif" font-size="10.00">bool Check(int x, int y)</text>
<polygon fill="#666666" stroke="#666666" points="199.5,-221.5 199.5,-221.5 332.5,-221.5 332.5,-221.5 199.5,-221.5"/>
<polygon fill="#666666" stroke="#666666" points="199.5,-206.5 199.5,-206.5 332.5,-206.5 332.5,-206.5 199.5,-206.5"/>
<polygon fill="none" stroke="#666666" points="199,-112 199,-239 332,-239 332,-112 199,-112"/>
</a>
</g>
</g>
<!-- Node2&#45;&gt;Node1 -->
<g id="edge1_Node000001_Node000002" class="edge">
<title>Node2&#45;&gt;Node1</title>
<g id="a_edge1_Node000001_Node000002"><a xlink:title=" ">
<path fill="none" stroke="#63b8ff" d="M313.25,-103.14C319.74,-93.44 326.17,-83.83 332.01,-75.1"/>
<polygon fill="none" stroke="#63b8ff" points="310.19,-101.42 307.54,-111.68 316.01,-105.31 310.19,-101.42"/>
</a>
</g>
</g>
<!-- Node3 -->
<g id="Node000003" class="node">
<title>Node3</title>
<g id="a_Node000003"><a xlink:href="../../d4/dd6/classTerraria_1_1WorldBuilding_1_1GenBase.html" target="_top" xlink:title=" ">
<polygon fill="white" stroke="transparent" points="165,-646 0,-646 0,-508 165,-508 165,-646"/>
<text text-anchor="start" x="61" y="-634" font-family="Helvetica,sans-Serif" font-size="10.00">GenBase</text>
<text text-anchor="start" x="4.5" y="-619" font-family="Helvetica,sans-Serif" font-size="10.00">+</text>
<text text-anchor="start" x="17.5" y="-619" font-family="Helvetica,sans-Serif" font-size="10.00">static UnifiedRandom</text>
<text text-anchor="start" x="17.5" y="-608" font-family="Helvetica,sans-Serif" font-size="10.00"> _random</text>
<text text-anchor="start" x="4.5" y="-593" font-family="Helvetica,sans-Serif" font-size="10.00">+</text>
<text text-anchor="start" x="17.5" y="-593" font-family="Helvetica,sans-Serif" font-size="10.00">static ref Tilemap</text>
<text text-anchor="start" x="17.5" y="-582" font-family="Helvetica,sans-Serif" font-size="10.00"> _tiles</text>
<text text-anchor="start" x="4.5" y="-567" font-family="Helvetica,sans-Serif" font-size="10.00">+</text>
<text text-anchor="start" x="17.5" y="-567" font-family="Helvetica,sans-Serif" font-size="10.00">static int _worldWidth</text>
<text text-anchor="start" x="4.5" y="-552" font-family="Helvetica,sans-Serif" font-size="10.00">+</text>
<text text-anchor="start" x="17.5" y="-552" font-family="Helvetica,sans-Serif" font-size="10.00">static int _worldHeight</text>
<text text-anchor="start" x="4.5" y="-537" font-family="Helvetica,sans-Serif" font-size="10.00">+</text>
<text text-anchor="start" x="17.5" y="-537" font-family="Helvetica,sans-Serif" font-size="10.00">delegate bool CustomPerUnit</text>
<text text-anchor="start" x="17.5" y="-526" font-family="Helvetica,sans-Serif" font-size="10.00">Action(int x, int y, params</text>
<text text-anchor="start" x="17.5" y="-515" font-family="Helvetica,sans-Serif" font-size="10.00"> object[] args)</text>
<polygon fill="#666666" stroke="#666666" points="0.5,-629 0.5,-629 165.5,-629 165.5,-629 0.5,-629"/>
<polygon fill="#666666" stroke="#666666" points="0.5,-547 0.5,-547 15.5,-547 15.5,-547 0.5,-547"/>
<polygon fill="#666666" stroke="#666666" points="15.5,-547 15.5,-547 165.5,-547 165.5,-547 15.5,-547"/>
<polygon fill="none" stroke="#666666" points="0,-508 0,-646 165,-646 165,-508 0,-508"/>
</a>
</g>
</g>
<!-- Node3&#45;&gt;Node2 -->
<g id="edge2_Node000002_Node000003" class="edge">
<title>Node3&#45;&gt;Node2</title>
<g id="a_edge2_Node000002_Node000003"><a xlink:title=" ">
<path fill="none" stroke="#63b8ff" d="M79.05,-497.71C79.46,-437 86.95,-352.33 119.5,-286 136.04,-252.29 168.55,-226.33 198.7,-208.16"/>
<polygon fill="none" stroke="#63b8ff" points="75.55,-497.99 79.04,-507.99 82.55,-497.99 75.55,-497.99"/>
</a>
</g>
</g>
<!-- Node6 -->
<g id="Node000006" class="node">
<title>Node6</title>
<g id="a_Node000006"><a xlink:href="../../d1/dc5/classTerraria_1_1WorldBuilding_1_1GenCondition.html" target="_top" xlink:title=" ">
<polygon fill="white" stroke="transparent" points="350.5,-450 210.5,-450 210.5,-286 350.5,-286 350.5,-450"/>
<text text-anchor="start" x="215.5" y="-438" font-family="Helvetica,sans-Serif" font-size="10.00">Terraria.WorldBuilding.Gen</text>
<text text-anchor="start" x="257" y="-427" font-family="Helvetica,sans-Serif" font-size="10.00">Condition</text>
<text text-anchor="start" x="278.5" y="-412" font-family="Helvetica,sans-Serif" font-size="10.00"> </text>
<text text-anchor="start" x="216.5" y="-397" font-family="Helvetica,sans-Serif" font-size="10.00">+</text>
<text text-anchor="start" x="231.5" y="-397" font-family="Helvetica,sans-Serif" font-size="10.00">bool IsValid(int x,</text>
<text text-anchor="start" x="231.5" y="-386" font-family="Helvetica,sans-Serif" font-size="10.00"> int y)</text>
<text text-anchor="start" x="216.5" y="-371" font-family="Helvetica,sans-Serif" font-size="10.00">+</text>
<text text-anchor="start" x="231.5" y="-371" font-family="Helvetica,sans-Serif" font-size="10.00">GenCondition Not()</text>
<text text-anchor="start" x="216.5" y="-356" font-family="Helvetica,sans-Serif" font-size="10.00">+</text>
<text text-anchor="start" x="231.5" y="-356" font-family="Helvetica,sans-Serif" font-size="10.00">GenCondition AreaOr</text>
<text text-anchor="start" x="231.5" y="-345" font-family="Helvetica,sans-Serif" font-size="10.00">(int width, int height)</text>
<text text-anchor="start" x="216.5" y="-330" font-family="Helvetica,sans-Serif" font-size="10.00">+</text>
<text text-anchor="start" x="231.5" y="-330" font-family="Helvetica,sans-Serif" font-size="10.00">GenCondition AreaAnd</text>
<text text-anchor="start" x="231.5" y="-319" font-family="Helvetica,sans-Serif" font-size="10.00">(int width, int height)</text>
<text text-anchor="start" x="216.5" y="-304" font-family="Helvetica,sans-Serif" font-size="10.00">#</text>
<text text-anchor="start" x="231.5" y="-304" font-family="Helvetica,sans-Serif" font-size="10.00">bool CheckValidity</text>
<text text-anchor="start" x="231.5" y="-293" font-family="Helvetica,sans-Serif" font-size="10.00">(int x, int y)</text>
<polygon fill="#666666" stroke="#666666" points="210.5,-422 210.5,-422 350.5,-422 350.5,-422 210.5,-422"/>
<polygon fill="#666666" stroke="#666666" points="210.5,-407 210.5,-407 350.5,-407 350.5,-407 210.5,-407"/>
<polygon fill="none" stroke="#666666" points="210.5,-286 210.5,-450 350.5,-450 350.5,-286 210.5,-286"/>
</a>
</g>
</g>
<!-- Node3&#45;&gt;Node6 -->
<g id="edge6_Node000006_Node000003" class="edge">
<title>Node3&#45;&gt;Node6</title>
<g id="a_edge6_Node000006_Node000003"><a xlink:title=" ">
<path fill="none" stroke="#63b8ff" d="M154.74,-500.48C172.84,-481.55 192.23,-461.28 210.24,-442.46"/>
<polygon fill="none" stroke="#63b8ff" points="151.99,-498.29 147.61,-507.93 157.05,-503.13 151.99,-498.29"/>
</a>
</g>
</g>
<!-- Node4 -->
<g id="Node000004" class="node">
<title>Node4</title>
<g id="a_Node000004"><a xlink:title=" ">
<polygon fill="white" stroke="transparent" points="406.5,-392.5 368.5,-392.5 368.5,-343.5 406.5,-343.5 406.5,-392.5"/>
<text text-anchor="start" x="373.5" y="-380" font-family="Helvetica,sans-Serif" font-size="10.00">static</text>
<text text-anchor="start" x="385.5" y="-365" font-family="Helvetica,sans-Serif" font-size="10.00"> </text>
<text text-anchor="start" x="385.5" y="-350" font-family="Helvetica,sans-Serif" font-size="10.00"> </text>
<polygon fill="#666666" stroke="#666666" points="368.5,-375 368.5,-375 406.5,-375 406.5,-375 368.5,-375"/>
<polygon fill="#666666" stroke="#666666" points="368.5,-360 368.5,-360 406.5,-360 406.5,-360 368.5,-360"/>
<polygon fill="none" stroke="#666666" points="368.5,-343.5 368.5,-392.5 406.5,-392.5 406.5,-343.5 368.5,-343.5"/>
</a>
</g>
</g>
<!-- Node4&#45;&gt;Node2 -->
<g id="edge3_Node000002_Node000004" class="edge">
<title>Node4&#45;&gt;Node2</title>
<g id="a_edge3_Node000002_Node000004"><a xlink:title=" ">
<path fill="none" stroke="#63b8ff" d="M381.85,-343.31C377.27,-326.6 369.87,-304.07 359.5,-286 352.17,-273.23 343.25,-260.55 333.85,-248.59"/>
<polygon fill="none" stroke="#63b8ff" points="333.78,-248.5 326.9,-246.35 326.24,-239.17 333.12,-241.32 333.78,-248.5"/>
</a>
</g>
<text text-anchor="middle" x="383.5" y="-260" font-family="Helvetica,sans-Serif" font-size="10.00" fill="grey"> +NOT_FOUND</text>
</g>
<!-- Node5 -->
<g id="Node000005" class="node">
<title>Node5</title>
<g id="a_Node000005"><a xlink:title=" ">
<polygon fill="white" stroke="transparent" points="215.5,-601.5 183.5,-601.5 183.5,-552.5 215.5,-552.5 215.5,-601.5"/>
<text text-anchor="start" x="188.5" y="-589" font-family="Helvetica,sans-Serif" font-size="10.00">bool</text>
<text text-anchor="start" x="197.5" y="-574" font-family="Helvetica,sans-Serif" font-size="10.00"> </text>
<text text-anchor="start" x="197.5" y="-559" font-family="Helvetica,sans-Serif" font-size="10.00"> </text>
<polygon fill="#666666" stroke="#666666" points="183.5,-584 183.5,-584 215.5,-584 215.5,-584 183.5,-584"/>
<polygon fill="#666666" stroke="#666666" points="183.5,-569 183.5,-569 215.5,-569 215.5,-569 183.5,-569"/>
<polygon fill="none" stroke="#666666" points="183.5,-552.5 183.5,-601.5 215.5,-601.5 215.5,-552.5 183.5,-552.5"/>
</a>
</g>
</g>
<!-- Node5&#45;&gt;Node2 -->
<g id="edge4_Node000002_Node000005" class="edge">
<title>Node5&#45;&gt;Node2</title>
<g id="a_edge4_Node000002_Node000005"><a xlink:title=" ">
<path fill="none" stroke="#63b8ff" d="M191.38,-552.38C186.61,-539.14 180.21,-522.44 173.5,-508 161.1,-481.3 148.84,-478.51 141.5,-450 123.32,-379.41 111.53,-352.44 141.5,-286 152,-262.71 170.18,-242.39 189.42,-225.78"/>
<polygon fill="none" stroke="#63b8ff" points="189.68,-225.57 191.75,-218.67 198.93,-217.93 196.85,-224.84 189.68,-225.57"/>
</a>
</g>
<text text-anchor="middle" x="171.5" y="-365.5" font-family="Helvetica,sans-Serif" font-size="10.00" fill="grey"> &#45;_requireAll</text>
</g>
<!-- Node5&#45;&gt;Node6 -->
<g id="edge7_Node000006_Node000005" class="edge">
<title>Node5&#45;&gt;Node6</title>
<g id="a_edge7_Node000006_Node000005"><a xlink:title=" ">
<path fill="none" stroke="#63b8ff" d="M198.82,-552.48C198.92,-530.06 201.08,-495.72 211.5,-468 212.34,-465.76 213.25,-463.52 214.21,-461.28"/>
<polygon fill="none" stroke="#63b8ff" points="214.32,-461.05 213.26,-453.92 219.44,-450.2 220.5,-457.33 214.32,-461.05"/>
</a>
</g>
<text text-anchor="middle" x="247.5" y="-476.5" font-family="Helvetica,sans-Serif" font-size="10.00" fill="grey"> &#45;InvertResults</text>
</g>
<!-- Node6&#45;&gt;Node2 -->
<g id="edge5_Node000002_Node000006" class="edge">
<title>Node6&#45;&gt;Node2</title>
<g id="a_edge5_Node000002_Node000006"><a xlink:title=" ">
<path fill="none" stroke="#63b8ff" d="M268.15,-285.78C267.5,-279.77 266.94,-273.8 266.5,-268 266.09,-262.6 265.77,-257.01 265.53,-251.38"/>
<polygon fill="none" stroke="#63b8ff" points="265.52,-251.05 261.31,-245.19 265.11,-239.06 269.31,-244.92 265.52,-251.05"/>
</a>
</g>
<text text-anchor="middle" x="298" y="-260" font-family="Helvetica,sans-Serif" font-size="10.00" fill="grey"> &#45;_conditions</text>
</g>
<!-- Node7 -->
<g id="Node000007" class="node">
<title>Node7</title>
<g id="a_Node000007"><a xlink:title=" ">
<polygon fill="white" stroke="transparent" points="430,-601.5 407,-601.5 407,-552.5 430,-552.5 430,-601.5"/>
<text text-anchor="start" x="412.5" y="-589" font-family="Helvetica,sans-Serif" font-size="10.00">int</text>
<text text-anchor="start" x="417" y="-574" font-family="Helvetica,sans-Serif" font-size="10.00"> </text>
<text text-anchor="start" x="417" y="-559" font-family="Helvetica,sans-Serif" font-size="10.00"> </text>
<polygon fill="#666666" stroke="#666666" points="407.5,-584 407.5,-584 430.5,-584 430.5,-584 407.5,-584"/>
<polygon fill="#666666" stroke="#666666" points="407.5,-569 407.5,-569 430.5,-569 430.5,-569 407.5,-569"/>
<polygon fill="none" stroke="#666666" points="407,-552.5 407,-601.5 430,-601.5 430,-552.5 407,-552.5"/>
</a>
</g>
</g>
<!-- Node7&#45;&gt;Node1 -->
<g id="edge10_Node000001_Node000007" class="edge">
<title>Node7&#45;&gt;Node1</title>
<g id="a_edge10_Node000001_Node000007"><a xlink:title=" ">
<path fill="none" stroke="#63b8ff" d="M421.67,-552.21C428.19,-498.95 441.11,-366.25 424.5,-257 415.34,-196.74 392.73,-130.22 376.09,-86.6"/>
<polygon fill="none" stroke="#63b8ff" points="376.01,-86.39 370.11,-82.24 371.68,-75.2 377.57,-79.35 376.01,-86.39"/>
</a>
</g>
<text text-anchor="middle" x="464" y="-260" font-family="Helvetica,sans-Serif" font-size="10.00" fill="grey"> &#45;_maxDistance</text>
</g>
<!-- Node7&#45;&gt;Node6 -->
<g id="edge8_Node000006_Node000007" class="edge">
<title>Node7&#45;&gt;Node6</title>
<g id="a_edge8_Node000006_Node000007"><a xlink:title=" ">
<path fill="none" stroke="#63b8ff" d="M406.76,-557.56C392.97,-535.98 369.34,-499.22 348.5,-468 346.8,-465.46 345.08,-462.88 343.33,-460.29"/>
<polygon fill="none" stroke="#63b8ff" points="343.23,-460.14 336.56,-457.4 336.52,-450.19 343.2,-452.93 343.23,-460.14"/>
</a>
</g>
<text text-anchor="middle" x="383" y="-482" font-family="Helvetica,sans-Serif" font-size="10.00" fill="grey"> &#45;_height</text>
<text text-anchor="middle" x="383" y="-471" font-family="Helvetica,sans-Serif" font-size="10.00" fill="grey">&#45;_width</text>
</g>
<!-- Node8 -->
<g id="Node000008" class="node">
<title>Node8</title>
<g id="a_Node000008"><a xlink:title=" ">
<polygon fill="white" stroke="transparent" points="322.5,-601.5 266.5,-601.5 266.5,-552.5 322.5,-552.5 322.5,-601.5"/>
<text text-anchor="start" x="271.5" y="-589" font-family="Helvetica,sans-Serif" font-size="10.00">AreaType</text>
<text text-anchor="start" x="292.5" y="-574" font-family="Helvetica,sans-Serif" font-size="10.00"> </text>
<text text-anchor="start" x="292.5" y="-559" font-family="Helvetica,sans-Serif" font-size="10.00"> </text>
<polygon fill="#666666" stroke="#666666" points="266.5,-584 266.5,-584 322.5,-584 322.5,-584 266.5,-584"/>
<polygon fill="#666666" stroke="#666666" points="266.5,-569 266.5,-569 322.5,-569 322.5,-569 266.5,-569"/>
<polygon fill="none" stroke="#666666" points="266.5,-552.5 266.5,-601.5 322.5,-601.5 322.5,-552.5 266.5,-552.5"/>
</a>
</g>
</g>
<!-- Node8&#45;&gt;Node6 -->
<g id="edge9_Node000006_Node000008" class="edge">
<title>Node8&#45;&gt;Node6</title>
<g id="a_edge9_Node000006_Node000008"><a xlink:title=" ">
<path fill="none" stroke="#63b8ff" d="M292.89,-552.25C291.4,-530.12 289.07,-495.65 286.83,-462.54"/>
<polygon fill="none" stroke="#63b8ff" points="286.82,-462.4 282.42,-456.69 286.01,-450.43 290.4,-456.15 286.82,-462.4"/>
</a>
</g>
<text text-anchor="middle" x="316" y="-476.5" font-family="Helvetica,sans-Serif" font-size="10.00" fill="grey"> &#45;_areaType</text>
</g>
</g>
</svg>
