<?xml version="1.0" encoding="UTF-8" standalone="no"?>
<!DOCTYPE svg PUBLIC "-//W3C//DTD SVG 1.1//EN"
 "http://www.w3.org/Graphics/SVG/1.1/DTD/svg11.dtd">
<!-- Generated by graphviz version 2.43.0 (0)
 -->
<!-- Title: Terraria.Social.Base.SocialBrowserModule.GetInstalledModDownloadItems Pages: 1 -->
<svg width="974pt" height="157pt"
 viewBox="0.00 0.00 974.00 157.00" xmlns="http://www.w3.org/2000/svg" xmlns:xlink="http://www.w3.org/1999/xlink">
<g id="graph0" class="graph" transform="scale(1 1) rotate(0) translate(4 153)">
<title>Terraria.Social.Base.SocialBrowserModule.GetInstalledModDownloadItems</title>
<!-- Node1 -->
<g id="Node000001" class="node">
<title>Node1</title>
<g id="a_Node000001"><a xlink:title=" ">
<polygon fill="#999999" stroke="#666666" points="966,-62.5 714,-62.5 714,-32.5 966,-32.5 966,-62.5"/>
<text text-anchor="start" x="722" y="-50.5" font-family="Helvetica,sans-Serif" font-size="10.00">Terraria.Social.Base.Social</text>
<text text-anchor="middle" x="840" y="-39.5" font-family="Helvetica,sans-Serif" font-size="10.00">BrowserModule.GetInstalledModDownloadItems</text>
</a>
</g>
</g>
<!-- Node2 -->
<g id="Node000002" class="node">
<title>Node2</title>
<g id="a_Node000002"><a xlink:href="../../db/d0b/classTerraria_1_1ModLoader_1_1UI_1_1ModBrowser_1_1UIModBrowser_a829cb5a6fe7bc3622bc24cf31d349037.html#a829cb5a6fe7bc3622bc24cf31d349037" target="_top" xlink:title=" ">
<polygon fill="white" stroke="#666666" points="669,-95 481,-95 481,-54 669,-54 669,-95"/>
<text text-anchor="start" x="489" y="-83" font-family="Helvetica,sans-Serif" font-size="10.00">Terraria.ModLoader.UI.Mod</text>
<text text-anchor="start" x="489" y="-72" font-family="Helvetica,sans-Serif" font-size="10.00">Browser.UIModBrowser.CheckIfAny</text>
<text text-anchor="middle" x="575" y="-61" font-family="Helvetica,sans-Serif" font-size="10.00">ModUpdateIsAvailable</text>
</a>
</g>
</g>
<!-- Node1&#45;&gt;Node2 -->
<g id="edge1_Node000001_Node000002" class="edge">
<title>Node1&#45;&gt;Node2</title>
<g id="a_edge1_Node000001_Node000002"><a xlink:title=" ">
<path fill="none" stroke="#63b8ff" d="M703.49,-61.41C691.92,-62.6 680.4,-63.78 669.27,-64.92"/>
<polygon fill="#63b8ff" stroke="#63b8ff" points="704.07,-64.87 713.66,-60.37 703.36,-57.91 704.07,-64.87"/>
</a>
</g>
</g>
<!-- Node6 -->
<g id="Node000006" class="node">
<title>Node6</title>
<g id="a_Node000006"><a xlink:href="../../db/d0b/classTerraria_1_1ModLoader_1_1UI_1_1ModBrowser_1_1UIModBrowser_a120459d2eace9e597650dec014e89ca6.html#a120459d2eace9e597650dec014e89ca6" target="_top" xlink:title=" ">
<polygon fill="white" stroke="#666666" points="678,-35.5 472,-35.5 472,-5.5 678,-5.5 678,-35.5"/>
<text text-anchor="start" x="480" y="-23.5" font-family="Helvetica,sans-Serif" font-size="10.00">Terraria.ModLoader.UI.Mod</text>
<text text-anchor="middle" x="575" y="-12.5" font-family="Helvetica,sans-Serif" font-size="10.00">Browser.UIModBrowser.UpdateAllMods</text>
</a>
</g>
</g>
<!-- Node1&#45;&gt;Node6 -->
<g id="edge5_Node000001_Node000006" class="edge">
<title>Node1&#45;&gt;Node6</title>
<g id="a_edge5_Node000001_Node000006"><a xlink:title=" ">
<path fill="none" stroke="#63b8ff" d="M703.61,-33.6C695.04,-32.72 686.5,-31.84 678.13,-30.98"/>
<polygon fill="#63b8ff" stroke="#63b8ff" points="703.36,-37.09 713.66,-34.63 704.07,-30.13 703.36,-37.09"/>
</a>
</g>
</g>
<!-- Node3 -->
<g id="Node000003" class="node">
<title>Node3</title>
<g id="a_Node000003"><a xlink:href="../../db/d0b/classTerraria_1_1ModLoader_1_1UI_1_1ModBrowser_1_1UIModBrowser_ae9b6f0417f8a2fffcffc636864694e8f.html#ae9b6f0417f8a2fffcffc636864694e8f" target="_top" xlink:title=" ">
<polygon fill="white" stroke="#666666" points="436,-149 239,-149 239,-108 436,-108 436,-149"/>
<text text-anchor="start" x="247" y="-137" font-family="Helvetica,sans-Serif" font-size="10.00">Terraria.ModLoader.UI.Mod</text>
<text text-anchor="start" x="247" y="-126" font-family="Helvetica,sans-Serif" font-size="10.00">Browser.UIModBrowser.CbLocalMods</text>
<text text-anchor="middle" x="337.5" y="-115" font-family="Helvetica,sans-Serif" font-size="10.00">Changed</text>
</a>
</g>
</g>
<!-- Node2&#45;&gt;Node3 -->
<g id="edge2_Node000002_Node000003" class="edge">
<title>Node2&#45;&gt;Node3</title>
<g id="a_edge2_Node000002_Node000003"><a xlink:title=" ">
<path fill="none" stroke="#63b8ff" d="M474.26,-97.37C458.89,-100.9 443.09,-104.52 427.95,-107.99"/>
<polygon fill="#63b8ff" stroke="#63b8ff" points="475.33,-100.72 484.3,-95.07 473.77,-93.89 475.33,-100.72"/>
</a>
</g>
</g>
<!-- Node5 -->
<g id="Node000005" class="node">
<title>Node5</title>
<g id="a_Node000005"><a xlink:href="../../db/d0b/classTerraria_1_1ModLoader_1_1UI_1_1ModBrowser_1_1UIModBrowser_a9596a59e0637913140876fd7574e2525.html#a9596a59e0637913140876fd7574e2525" target="_top" xlink:title=" ">
<polygon fill="white" stroke="#666666" points="430.5,-89.5 244.5,-89.5 244.5,-59.5 430.5,-59.5 430.5,-89.5"/>
<text text-anchor="start" x="252.5" y="-77.5" font-family="Helvetica,sans-Serif" font-size="10.00">Terraria.ModLoader.UI.Mod</text>
<text text-anchor="middle" x="337.5" y="-66.5" font-family="Helvetica,sans-Serif" font-size="10.00">Browser.UIModBrowser.OnActivate</text>
</a>
</g>
</g>
<!-- Node2&#45;&gt;Node5 -->
<g id="edge4_Node000002_Node000005" class="edge">
<title>Node2&#45;&gt;Node5</title>
<g id="a_edge4_Node000002_Node000005"><a xlink:title=" ">
<path fill="none" stroke="#63b8ff" d="M470.74,-74.5C457.35,-74.5 443.71,-74.5 430.51,-74.5"/>
<polygon fill="#63b8ff" stroke="#63b8ff" points="470.92,-78 480.92,-74.5 470.92,-71 470.92,-78"/>
</a>
</g>
</g>
<!-- Node4 -->
<g id="Node000004" class="node">
<title>Node4</title>
<g id="a_Node000004"><a xlink:href="../../db/d0b/classTerraria_1_1ModLoader_1_1UI_1_1ModBrowser_1_1UIModBrowser_ae5a9c934c6519d13f733ba515bab4b25.html#ae5a9c934c6519d13f733ba515bab4b25" target="_top" xlink:title=" ">
<polygon fill="white" stroke="#666666" points="203,-143.5 0,-143.5 0,-113.5 203,-113.5 203,-143.5"/>
<text text-anchor="start" x="8" y="-131.5" font-family="Helvetica,sans-Serif" font-size="10.00">Terraria.ModLoader.UI.Mod</text>
<text text-anchor="middle" x="101.5" y="-120.5" font-family="Helvetica,sans-Serif" font-size="10.00">Browser.UIModBrowser.UIModBrowser</text>
</a>
</g>
</g>
<!-- Node3&#45;&gt;Node4 -->
<g id="edge3_Node000003_Node000004" class="edge">
<title>Node3&#45;&gt;Node4</title>
<g id="a_edge3_Node000003_Node000004"><a xlink:title=" ">
<path fill="none" stroke="#63b8ff" d="M228.68,-128.5C220.22,-128.5 211.69,-128.5 203.28,-128.5"/>
<polygon fill="#63b8ff" stroke="#63b8ff" points="228.96,-132 238.96,-128.5 228.96,-125 228.96,-132"/>
</a>
</g>
</g>
<!-- Node7 -->
<g id="Node000007" class="node">
<title>Node7</title>
<g id="a_Node000007"><a xlink:href="../../db/d0b/classTerraria_1_1ModLoader_1_1UI_1_1ModBrowser_1_1UIModBrowser_af962e34f7f4ffbaa046ce9c7a0999a61.html#af962e34f7f4ffbaa046ce9c7a0999a61" target="_top" xlink:title=" ">
<polygon fill="white" stroke="#666666" points="424.5,-41 250.5,-41 250.5,0 424.5,0 424.5,-41"/>
<text text-anchor="start" x="258.5" y="-29" font-family="Helvetica,sans-Serif" font-size="10.00">Terraria.ModLoader.UI.Mod</text>
<text text-anchor="start" x="258.5" y="-18" font-family="Helvetica,sans-Serif" font-size="10.00">Browser.UIModBrowser.Initialize</text>
<text text-anchor="middle" x="337.5" y="-7" font-family="Helvetica,sans-Serif" font-size="10.00">Interactions</text>
</a>
</g>
</g>
<!-- Node6&#45;&gt;Node7 -->
<g id="edge6_Node000006_Node000007" class="edge">
<title>Node6&#45;&gt;Node7</title>
<g id="a_edge6_Node000006_Node000007"><a xlink:title=" ">
<path fill="none" stroke="#63b8ff" d="M461.43,-20.5C449.12,-20.5 436.75,-20.5 424.83,-20.5"/>
<polygon fill="#63b8ff" stroke="#63b8ff" points="461.73,-24 471.73,-20.5 461.73,-17 461.73,-24"/>
</a>
</g>
</g>
<!-- Node8 -->
<g id="Node000008" class="node">
<title>Node8</title>
<g id="a_Node000008"><a xlink:href="../../db/d0b/classTerraria_1_1ModLoader_1_1UI_1_1ModBrowser_1_1UIModBrowser_a1e08f664507b0225e9a2b31b38697916.html#a1e08f664507b0225e9a2b31b38697916" target="_top" xlink:title=" ">
<polygon fill="white" stroke="#666666" points="195.5,-35.5 7.5,-35.5 7.5,-5.5 195.5,-5.5 195.5,-35.5"/>
<text text-anchor="start" x="15.5" y="-23.5" font-family="Helvetica,sans-Serif" font-size="10.00">Terraria.ModLoader.UI.Mod</text>
<text text-anchor="middle" x="101.5" y="-12.5" font-family="Helvetica,sans-Serif" font-size="10.00">Browser.UIModBrowser.OnInitialize</text>
</a>
</g>
</g>
<!-- Node7&#45;&gt;Node8 -->
<g id="edge7_Node000007_Node000008" class="edge">
<title>Node7&#45;&gt;Node8</title>
<g id="a_edge7_Node000007_Node000008"><a xlink:title=" ">
<path fill="none" stroke="#63b8ff" d="M240.22,-20.5C225.46,-20.5 210.23,-20.5 195.54,-20.5"/>
<polygon fill="#63b8ff" stroke="#63b8ff" points="240.36,-24 250.36,-20.5 240.36,-17 240.36,-24"/>
</a>
</g>
</g>
</g>
</svg>
