<?xml version="1.0" encoding="UTF-8" standalone="no"?>
<!DOCTYPE svg PUBLIC "-//W3C//DTD SVG 1.1//EN"
 "http://www.w3.org/Graphics/SVG/1.1/DTD/svg11.dtd">
<!-- Generated by graphviz version 2.43.0 (0)
 -->
<!-- Title: Terraria.Graphics.Renderers.NPCHeadRenderer Pages: 1 -->
<!--zoomable 1062 -->

<svg id="main" version="1.1" xmlns="http://www.w3.org/2000/svg" xmlns:xlink="http://www.w3.org/1999/xlink" xml:space="preserve" onload="init(evt)">
<style type="text/css"><![CDATA[
.node, .edge {opacity: 0.7;}
.node.selected, .edge.selected {opacity: 1;}
.edge:hover path { stroke: red; }
.edge:hover polygon { stroke: red; fill: red; }
]]></style>

<defs>
  <circle id="rim" cx="0" cy="0" r="7"/>
  <circle id="rim2" cx="0" cy="0" r="3.5"/>
  <g id="zoomPlus">
    <use xlink:href="#rim" fill="#404040"><set attributeName="fill" to="#808080" begin="zoomplus.mouseover" end="zoomplus.mouseout"/></use>
    <path d="M-4,0h8M0,-4v8" fill="none" stroke="white" stroke-width="1.5" pointer-events="none"/>
  </g>
  <g id="zoomMin">
    <use xlink:href="#rim" fill="#404040"><set attributeName="fill" to="#808080" begin="zoomminus.mouseover" end="zoomminus.mouseout"/></use>
    <path d="M-4,0h8" fill="none" stroke="white" stroke-width="1.5" pointer-events="none"/>
  </g>
  <g id="arrowUp" transform="translate(30 24)">
    <use xlink:href="#rim"/>
    <path pointer-events="none" fill="none" stroke="white" stroke-width="1.5" d="M0,-3.0v7 M-2.5,-0.5L0,-3.0L2.5,-0.5"/>
  </g>
  <g id="arrowRight" transform="rotate(90) translate(36 -43)">
    <use xlink:href="#rim"/>
    <path pointer-events="none" fill="none" stroke="white" stroke-width="1.5" d="M0,-3.0v7 M-2.5,-0.5L0,-3.0L2.5,-0.5"/>
  </g>
  <g id="arrowDown" transform="rotate(180) translate(-30 -48)">
    <use xlink:href="#rim"/>
    <path pointer-events="none" fill="none" stroke="white" stroke-width="1.5" d="M0,-3.0v7 M-2.5,-0.5L0,-3.0L2.5,-0.5"/>
  </g>
  <g id="arrowLeft" transform="rotate(270) translate(-36 17)">
    <use xlink:href="#rim"/>
    <path pointer-events="none" fill="none" stroke="white" stroke-width="1.5" d="M0,-3.0v7 M-2.5,-0.5L0,-3.0L2.5,-0.5"/>
  </g>
  <g id="resetDef">
    <use xlink:href="#rim2" fill="#404040"><set attributeName="fill" to="#808080" begin="reset.mouseover" end="reset.mouseout"/></use>
  </g>
</defs>
<script type="application/ecmascript">
var viewWidth = 653;
var viewHeight = 1062;
var sectionId = 'dynsection-1';
</script>
<script type="application/ecmascript" xlink:href="../../svg.min.js"/>
<svg id="graph" class="graph">
<g id="viewport">
<title>Terraria.Graphics.Renderers.NPCHeadRenderer</title>
<!-- Node1 -->
<g id="Node000001" class="node">
<title>Node1</title>
<g id="a_Node000001"><a xlink:title=" ">
<polygon fill="#999999" stroke="transparent" points="285,-182 105,-182 105,0 285,0 285,-182"/>
<text text-anchor="start" x="125.5" y="-170" font-family="Helvetica,sans-Serif" font-size="10.00">Terraria.Graphics.Renderers.</text>
<text text-anchor="start" x="149.5" y="-159" font-family="Helvetica,sans-Serif" font-size="10.00">NPCHeadRenderer</text>
<text text-anchor="start" x="109" y="-144" font-family="Helvetica,sans-Serif" font-size="10.00">+</text>
<text text-anchor="start" x="122" y="-144" font-family="Helvetica,sans-Serif" font-size="10.00">bool IsReady</text>
<text text-anchor="start" x="109" y="-129" font-family="Helvetica,sans-Serif" font-size="10.00">+</text>
<text text-anchor="start" x="122" y="-129" font-family="Helvetica,sans-Serif" font-size="10.00">NPCHeadRenderer(Asset</text>
<text text-anchor="start" x="122" y="-118" font-family="Helvetica,sans-Serif" font-size="10.00">&lt; Texture2D &gt;[] matchingArray)</text>
<text text-anchor="start" x="109" y="-103" font-family="Helvetica,sans-Serif" font-size="10.00">+</text>
<text text-anchor="start" x="122" y="-103" font-family="Helvetica,sans-Serif" font-size="10.00">void Reset()</text>
<text text-anchor="start" x="109" y="-88" font-family="Helvetica,sans-Serif" font-size="10.00">+</text>
<text text-anchor="start" x="122" y="-88" font-family="Helvetica,sans-Serif" font-size="10.00">void DrawWithOutlines</text>
<text text-anchor="start" x="122" y="-77" font-family="Helvetica,sans-Serif" font-size="10.00">(Entity entity, int headId,</text>
<text text-anchor="start" x="122" y="-66" font-family="Helvetica,sans-Serif" font-size="10.00"> Vector2 position, Color</text>
<text text-anchor="start" x="122" y="-55" font-family="Helvetica,sans-Serif" font-size="10.00"> color, float rotation, float</text>
<text text-anchor="start" x="122" y="-44" font-family="Helvetica,sans-Serif" font-size="10.00"> scale, SpriteEffects effects)</text>
<text text-anchor="start" x="109" y="-29" font-family="Helvetica,sans-Serif" font-size="10.00">+</text>
<text text-anchor="start" x="122" y="-29" font-family="Helvetica,sans-Serif" font-size="10.00">void PrepareRenderTarget</text>
<text text-anchor="start" x="122" y="-18" font-family="Helvetica,sans-Serif" font-size="10.00">(GraphicsDevice device,</text>
<text text-anchor="start" x="122" y="-7" font-family="Helvetica,sans-Serif" font-size="10.00"> SpriteBatch spriteBatch)</text>
<polygon fill="#666666" stroke="#666666" points="105,-154 105,-154 285,-154 285,-154 105,-154"/>
<polygon fill="#666666" stroke="#666666" points="105,-139 105,-139 120,-139 120,-139 105,-139"/>
<polygon fill="#666666" stroke="#666666" points="120,-139 120,-139 285,-139 285,-139 120,-139"/>
<polygon fill="none" stroke="#666666" points="105,0 105,-182 285,-182 285,0 105,0"/>
</a>
</g>
</g>
<!-- Node2 -->
<g id="Node000002" class="node">
<title>Node2</title>
<g id="a_Node000002"><a xlink:href="../../d0/dd4/interfaceTerraria_1_1GameContent_1_1INeedRenderTargetContent.html" target="_top" xlink:title=" ">
<polygon fill="white" stroke="transparent" points="148,-1054 0,-1054 0,-968 148,-968 148,-1054"/>
<text text-anchor="start" x="8" y="-1042" font-family="Helvetica,sans-Serif" font-size="10.00">INeedRenderTargetContent</text>
<text text-anchor="start" x="4" y="-1027" font-family="Helvetica,sans-Serif" font-size="10.00">+</text>
<text text-anchor="start" x="17" y="-1027" font-family="Helvetica,sans-Serif" font-size="10.00">bool IsReady</text>
<text text-anchor="start" x="4" y="-1012" font-family="Helvetica,sans-Serif" font-size="10.00">+</text>
<text text-anchor="start" x="17" y="-1012" font-family="Helvetica,sans-Serif" font-size="10.00">void PrepareRenderTarget</text>
<text text-anchor="start" x="17" y="-1001" font-family="Helvetica,sans-Serif" font-size="10.00">(GraphicsDevice device,</text>
<text text-anchor="start" x="17" y="-990" font-family="Helvetica,sans-Serif" font-size="10.00"> SpriteBatch spriteBatch)</text>
<text text-anchor="start" x="4" y="-975" font-family="Helvetica,sans-Serif" font-size="10.00">+</text>
<text text-anchor="start" x="17" y="-975" font-family="Helvetica,sans-Serif" font-size="10.00">void Reset()</text>
<polygon fill="#666666" stroke="#666666" points="0,-1037 0,-1037 148,-1037 148,-1037 0,-1037"/>
<polygon fill="#666666" stroke="#666666" points="0,-1022 0,-1022 15,-1022 15,-1022 0,-1022"/>
<polygon fill="#666666" stroke="#666666" points="15,-1022 15,-1022 148,-1022 148,-1022 15,-1022"/>
<polygon fill="none" stroke="#666666" points="0,-968 0,-1054 148,-1054 148,-968 0,-968"/>
</a>
</g>
</g>
<!-- Node2&#45;&gt;Node1 -->
<g id="edge1_Node000001_Node000002" class="edge">
<title>Node2&#45;&gt;Node1</title>
<g id="a_edge1_Node000001_Node000002"><a xlink:title=" ">
<path fill="none" stroke="#63b8ff" d="M72.15,-957.54C70.39,-902.86 68,-814.68 68,-738.5 68,-738.5 68,-738.5 68,-276.5 68,-241.11 84.05,-207.57 104.73,-179.03"/>
<polygon fill="none" stroke="#63b8ff" points="68.66,-957.8 72.49,-967.68 75.66,-957.57 68.66,-957.8"/>
</a>
</g>
</g>
<!-- Node5 -->
<g id="Node000005" class="node">
<title>Node5</title>
<g id="a_Node000005"><a xlink:href="../../dc/d06/classTerraria_1_1GameContent_1_1ARenderTargetContentByRequest.html" target="_top" xlink:title=" ">
<polygon fill="white" stroke="transparent" points="278,-910 96,-910 96,-565 278,-565 278,-910"/>
<text text-anchor="start" x="105.5" y="-897.5" font-family="Helvetica,sans-Serif" font-size="10.00">ARenderTargetContentByRequest</text>
<text text-anchor="start" x="100" y="-882.5" font-family="Helvetica,sans-Serif" font-size="10.00">+</text>
<text text-anchor="start" x="113" y="-882.5" font-family="Helvetica,sans-Serif" font-size="10.00">bool IsReady</text>
<text text-anchor="start" x="100" y="-867.5" font-family="Helvetica,sans-Serif" font-size="10.00">+</text>
<text text-anchor="start" x="113" y="-867.5" font-family="Helvetica,sans-Serif" font-size="10.00">void Request()</text>
<text text-anchor="start" x="100" y="-852.5" font-family="Helvetica,sans-Serif" font-size="10.00">+</text>
<text text-anchor="start" x="113" y="-852.5" font-family="Helvetica,sans-Serif" font-size="10.00">RenderTarget2D GetTarget()</text>
<text text-anchor="start" x="100" y="-837.5" font-family="Helvetica,sans-Serif" font-size="10.00">+</text>
<text text-anchor="start" x="113" y="-837.5" font-family="Helvetica,sans-Serif" font-size="10.00">void PrepareRenderTarget</text>
<text text-anchor="start" x="113" y="-826.5" font-family="Helvetica,sans-Serif" font-size="10.00">(GraphicsDevice device,</text>
<text text-anchor="start" x="113" y="-815.5" font-family="Helvetica,sans-Serif" font-size="10.00"> SpriteBatch spriteBatch)</text>
<text text-anchor="start" x="100" y="-800.5" font-family="Helvetica,sans-Serif" font-size="10.00">+</text>
<text text-anchor="start" x="113" y="-800.5" font-family="Helvetica,sans-Serif" font-size="10.00">void Reset()</text>
<text text-anchor="start" x="100" y="-785.5" font-family="Helvetica,sans-Serif" font-size="10.00">#</text>
<text text-anchor="start" x="113" y="-785.5" font-family="Helvetica,sans-Serif" font-size="10.00">void HandleUseReqest</text>
<text text-anchor="start" x="113" y="-774.5" font-family="Helvetica,sans-Serif" font-size="10.00">(GraphicsDevice device,</text>
<text text-anchor="start" x="113" y="-763.5" font-family="Helvetica,sans-Serif" font-size="10.00"> SpriteBatch spriteBatch)</text>
<text text-anchor="start" x="100" y="-748.5" font-family="Helvetica,sans-Serif" font-size="10.00">#</text>
<text text-anchor="start" x="113" y="-748.5" font-family="Helvetica,sans-Serif" font-size="10.00">void PrepareARenderTarget</text>
<text text-anchor="start" x="113" y="-737.5" font-family="Helvetica,sans-Serif" font-size="10.00">_AndListenToEvents(ref</text>
<text text-anchor="start" x="113" y="-726.5" font-family="Helvetica,sans-Serif" font-size="10.00"> RenderTarget2D target,</text>
<text text-anchor="start" x="113" y="-715.5" font-family="Helvetica,sans-Serif" font-size="10.00"> GraphicsDevice device, int</text>
<text text-anchor="start" x="113" y="-704.5" font-family="Helvetica,sans-Serif" font-size="10.00"> neededWidth, int neededHeight,</text>
<text text-anchor="start" x="113" y="-693.5" font-family="Helvetica,sans-Serif" font-size="10.00"> RenderTargetUsage usage)</text>
<text text-anchor="start" x="100" y="-678.5" font-family="Helvetica,sans-Serif" font-size="10.00">#</text>
<text text-anchor="start" x="113" y="-678.5" font-family="Helvetica,sans-Serif" font-size="10.00">void PrepareARenderTarget</text>
<text text-anchor="start" x="113" y="-667.5" font-family="Helvetica,sans-Serif" font-size="10.00">_WithoutListeningToEvents</text>
<text text-anchor="start" x="113" y="-656.5" font-family="Helvetica,sans-Serif" font-size="10.00">(ref RenderTarget2D target,</text>
<text text-anchor="start" x="113" y="-645.5" font-family="Helvetica,sans-Serif" font-size="10.00"> GraphicsDevice device, int</text>
<text text-anchor="start" x="113" y="-634.5" font-family="Helvetica,sans-Serif" font-size="10.00"> neededWidth, int neededHeight,</text>
<text text-anchor="start" x="113" y="-623.5" font-family="Helvetica,sans-Serif" font-size="10.00"> RenderTargetUsage usage)</text>
<text text-anchor="start" x="102.5" y="-608.5" font-family="Helvetica,sans-Serif" font-size="10.00">&#45;</text>
<text text-anchor="start" x="113" y="-608.5" font-family="Helvetica,sans-Serif" font-size="10.00">void target_Disposing</text>
<text text-anchor="start" x="113" y="-597.5" font-family="Helvetica,sans-Serif" font-size="10.00">(object sender, EventArgs e)</text>
<text text-anchor="start" x="102.5" y="-582.5" font-family="Helvetica,sans-Serif" font-size="10.00">&#45;</text>
<text text-anchor="start" x="113" y="-582.5" font-family="Helvetica,sans-Serif" font-size="10.00">void target_ContentLost</text>
<text text-anchor="start" x="113" y="-571.5" font-family="Helvetica,sans-Serif" font-size="10.00">(object sender, EventArgs e)</text>
<polygon fill="#666666" stroke="#666666" points="96,-892.5 96,-892.5 278,-892.5 278,-892.5 96,-892.5"/>
<polygon fill="#666666" stroke="#666666" points="96,-877.5 96,-877.5 111,-877.5 111,-877.5 96,-877.5"/>
<polygon fill="#666666" stroke="#666666" points="111,-877.5 111,-877.5 278,-877.5 278,-877.5 111,-877.5"/>
<polygon fill="none" stroke="#666666" points="96,-565 96,-910 278,-910 278,-565 96,-565"/>
</a>
</g>
</g>
<!-- Node2&#45;&gt;Node5 -->
<g id="edge5_Node000005_Node000002" class="edge">
<title>Node2&#45;&gt;Node5</title>
<g id="a_edge5_Node000005_Node000002"><a xlink:title=" ">
<path fill="none" stroke="#63b8ff" d="M95.54,-958.26C101.53,-943.86 108.39,-927.38 115.59,-910.07"/>
<polygon fill="none" stroke="#63b8ff" points="92.14,-957.3 91.53,-967.88 98.61,-959.99 92.14,-957.3"/>
</a>
</g>
</g>
<!-- Node3 -->
<g id="Node000003" class="node">
<title>Node3</title>
<g id="a_Node000003"><a xlink:href="../../db/de4/classTerraria_1_1GameContent_1_1NPCHeadDrawRenderTargetContent.html" target="_top" xlink:title=" ">
<polygon fill="white" stroke="transparent" points="280.5,-326 109.5,-326 109.5,-229 280.5,-229 280.5,-326"/>
<text text-anchor="start" x="117" y="-313.5" font-family="Helvetica,sans-Serif" font-size="10.00">Terraria.GameContent.NPCHead</text>
<text text-anchor="start" x="131" y="-302.5" font-family="Helvetica,sans-Serif" font-size="10.00">DrawRenderTargetContent</text>
<text text-anchor="start" x="193.5" y="-287.5" font-family="Helvetica,sans-Serif" font-size="10.00"> </text>
<text text-anchor="start" x="114" y="-272.5" font-family="Helvetica,sans-Serif" font-size="10.00">+</text>
<text text-anchor="start" x="127" y="-272.5" font-family="Helvetica,sans-Serif" font-size="10.00">void SetTexture(Texture2</text>
<text text-anchor="start" x="127" y="-261.5" font-family="Helvetica,sans-Serif" font-size="10.00">D texture)</text>
<text text-anchor="start" x="114" y="-246.5" font-family="Helvetica,sans-Serif" font-size="10.00">~</text>
<text text-anchor="start" x="127" y="-246.5" font-family="Helvetica,sans-Serif" font-size="10.00">override void DrawTheContent</text>
<text text-anchor="start" x="127" y="-235.5" font-family="Helvetica,sans-Serif" font-size="10.00">(SpriteBatch spriteBatch)</text>
<polygon fill="#666666" stroke="#666666" points="110,-297.5 110,-297.5 281,-297.5 281,-297.5 110,-297.5"/>
<polygon fill="#666666" stroke="#666666" points="110,-282.5 110,-282.5 281,-282.5 281,-282.5 110,-282.5"/>
<polygon fill="none" stroke="#666666" points="109.5,-229 109.5,-326 280.5,-326 280.5,-229 109.5,-229"/>
</a>
</g>
</g>
<!-- Node3&#45;&gt;Node1 -->
<g id="edge2_Node000001_Node000003" class="edge">
<title>Node3&#45;&gt;Node1</title>
<g id="a_edge2_Node000001_Node000003"><a xlink:title=" ">
<path fill="none" stroke="#63b8ff" d="M195,-228.99C195,-218.26 195,-206.46 195,-194.43"/>
<polygon fill="none" stroke="#63b8ff" points="195,-194.35 191,-188.35 195,-182.35 199,-188.35 195,-194.35"/>
</a>
</g>
<text text-anchor="middle" x="222.5" y="-203" font-family="Helvetica,sans-Serif" font-size="10.00" fill="grey"> &#45;_contents</text>
</g>
<!-- Node4 -->
<g id="Node000004" class="node">
<title>Node4</title>
<g id="a_Node000004"><a xlink:href="../../df/d99/classTerraria_1_1GameContent_1_1AnOutlinedDrawRenderTargetContent.html" target="_top" xlink:title=" ">
<polygon fill="white" stroke="transparent" points="449.5,-507 250.5,-507 250.5,-373 449.5,-373 449.5,-507"/>
<text text-anchor="start" x="278" y="-495" font-family="Helvetica,sans-Serif" font-size="10.00">AnOutlinedDrawRenderTarget</text>
<text text-anchor="start" x="331" y="-484" font-family="Helvetica,sans-Serif" font-size="10.00">Content</text>
<text text-anchor="start" x="348.5" y="-469" font-family="Helvetica,sans-Serif" font-size="10.00"> </text>
<text text-anchor="start" x="255" y="-454" font-family="Helvetica,sans-Serif" font-size="10.00">+</text>
<text text-anchor="start" x="268" y="-454" font-family="Helvetica,sans-Serif" font-size="10.00">void UseColor(Color</text>
<text text-anchor="start" x="268" y="-443" font-family="Helvetica,sans-Serif" font-size="10.00"> color)</text>
<text text-anchor="start" x="255" y="-428" font-family="Helvetica,sans-Serif" font-size="10.00">~</text>
<text text-anchor="start" x="268" y="-428" font-family="Helvetica,sans-Serif" font-size="10.00">void DrawTheContent</text>
<text text-anchor="start" x="268" y="-417" font-family="Helvetica,sans-Serif" font-size="10.00">(SpriteBatch spriteBatch)</text>
<text text-anchor="start" x="255" y="-402" font-family="Helvetica,sans-Serif" font-size="10.00">#</text>
<text text-anchor="start" x="268" y="-402" font-family="Helvetica,sans-Serif" font-size="10.00">override void HandleUseReqest</text>
<text text-anchor="start" x="268" y="-391" font-family="Helvetica,sans-Serif" font-size="10.00">(GraphicsDevice device, SpriteBatch</text>
<text text-anchor="start" x="268" y="-380" font-family="Helvetica,sans-Serif" font-size="10.00"> spriteBatch)</text>
<polygon fill="#666666" stroke="#666666" points="251,-479 251,-479 450,-479 450,-479 251,-479"/>
<polygon fill="#666666" stroke="#666666" points="251,-464 251,-464 450,-464 450,-464 251,-464"/>
<polygon fill="none" stroke="#666666" points="250.5,-373 250.5,-507 449.5,-507 449.5,-373 250.5,-373"/>
</a>
</g>
</g>
<!-- Node4&#45;&gt;Node3 -->
<g id="edge3_Node000003_Node000004" class="edge">
<title>Node4&#45;&gt;Node3</title>
<g id="a_edge3_Node000003_Node000004"><a xlink:title=" ">
<path fill="none" stroke="#63b8ff" d="M283.54,-365.5C276.67,-358.18 269.73,-350.91 263,-344 257.28,-338.13 251.2,-332.06 245.12,-326.08"/>
<polygon fill="none" stroke="#63b8ff" points="281,-367.91 290.39,-372.83 286.12,-363.13 281,-367.91"/>
</a>
</g>
</g>
<!-- Node5&#45;&gt;Node4 -->
<g id="edge4_Node000004_Node000005" class="edge">
<title>Node5&#45;&gt;Node4</title>
<g id="a_edge4_Node000004_Node000005"><a xlink:title=" ">
<path fill="none" stroke="#63b8ff" d="M278.53,-556.01C284.34,-545.46 290.19,-535.06 296,-525 299.38,-519.14 302.98,-513.12 306.67,-507.12"/>
<polygon fill="none" stroke="#63b8ff" points="275.4,-554.45 273.67,-564.9 281.54,-557.81 275.4,-554.45"/>
</a>
</g>
</g>
<!-- Node6 -->
<g id="Node000006" class="node">
<title>Node6</title>
<g id="a_Node000006"><a xlink:title=" ">
<polygon fill="white" stroke="transparent" points="466.5,-1035.5 377.5,-1035.5 377.5,-986.5 466.5,-986.5 466.5,-1035.5"/>
<text text-anchor="start" x="383" y="-1023" font-family="Helvetica,sans-Serif" font-size="10.00">RenderTarget2D</text>
<text text-anchor="start" x="420.5" y="-1008" font-family="Helvetica,sans-Serif" font-size="10.00"> </text>
<text text-anchor="start" x="420.5" y="-993" font-family="Helvetica,sans-Serif" font-size="10.00"> </text>
<polygon fill="#666666" stroke="#666666" points="378,-1018 378,-1018 467,-1018 467,-1018 378,-1018"/>
<polygon fill="#666666" stroke="#666666" points="378,-1003 378,-1003 467,-1003 467,-1003 378,-1003"/>
<polygon fill="none" stroke="#666666" points="377.5,-986.5 377.5,-1035.5 466.5,-1035.5 466.5,-986.5 377.5,-986.5"/>
</a>
</g>
</g>
<!-- Node6&#45;&gt;Node4 -->
<g id="edge11_Node000004_Node000006" class="edge">
<title>Node6&#45;&gt;Node4</title>
<g id="a_edge11_Node000004_Node000006"><a xlink:title=" ">
<path fill="none" stroke="#63b8ff" d="M444.07,-986.16C460.32,-967.08 481.36,-938.83 492,-910 551.47,-748.8 618.83,-670.22 527,-525 511.57,-500.6 486.92,-483.15 460.85,-470.71"/>
<polygon fill="none" stroke="#63b8ff" points="460.57,-470.59 453.46,-471.79 449.62,-465.69 456.73,-464.49 460.57,-470.59"/>
</a>
</g>
<text text-anchor="middle" x="608.5" y="-735" font-family="Helvetica,sans-Serif" font-size="10.00" fill="grey"> &#45;_helperTarget</text>
</g>
<!-- Node6&#45;&gt;Node5 -->
<g id="edge6_Node000005_Node000006" class="edge">
<title>Node6&#45;&gt;Node5</title>
<g id="a_edge6_Node000005_Node000006"><a xlink:title=" ">
<path fill="none" stroke="#63b8ff" d="M382.32,-986.43C353.74,-968.1 315.52,-940.69 288,-910 287.37,-909.3 286.75,-908.6 286.12,-907.89"/>
<polygon fill="none" stroke="#63b8ff" points="285.89,-907.61 278.96,-905.62 278.13,-898.45 285.06,-900.45 285.89,-907.61"/>
</a>
</g>
<text text-anchor="middle" x="351" y="-936.5" font-family="Helvetica,sans-Serif" font-size="10.00" fill="grey"> #_target</text>
</g>
<!-- Node7 -->
<g id="Node000007" class="node">
<title>Node7</title>
<g id="a_Node000007"><a xlink:title=" ">
<polygon fill="white" stroke="transparent" points="203,-1035.5 171,-1035.5 171,-986.5 203,-986.5 203,-1035.5"/>
<text text-anchor="start" x="176" y="-1023" font-family="Helvetica,sans-Serif" font-size="10.00">bool</text>
<text text-anchor="start" x="185" y="-1008" font-family="Helvetica,sans-Serif" font-size="10.00"> </text>
<text text-anchor="start" x="185" y="-993" font-family="Helvetica,sans-Serif" font-size="10.00"> </text>
<polygon fill="#666666" stroke="#666666" points="171,-1018 171,-1018 203,-1018 203,-1018 171,-1018"/>
<polygon fill="#666666" stroke="#666666" points="171,-1003 171,-1003 203,-1003 203,-1003 171,-1003"/>
<polygon fill="none" stroke="#666666" points="171,-986.5 171,-1035.5 203,-1035.5 203,-986.5 171,-986.5"/>
</a>
</g>
</g>
<!-- Node7&#45;&gt;Node5 -->
<g id="edge7_Node000005_Node000007" class="edge">
<title>Node7&#45;&gt;Node5</title>
<g id="a_edge7_Node000005_Node000007"><a xlink:title=" ">
<path fill="none" stroke="#63b8ff" d="M187,-986.38C187,-970.4 187,-947.64 187,-922.32"/>
<polygon fill="none" stroke="#63b8ff" points="187,-922.11 183,-916.11 187,-910.11 191,-916.11 187,-922.11"/>
</a>
</g>
<text text-anchor="middle" x="227.5" y="-942" font-family="Helvetica,sans-Serif" font-size="10.00" fill="grey"> #_wasPrepared</text>
<text text-anchor="middle" x="227.5" y="-931" font-family="Helvetica,sans-Serif" font-size="10.00" fill="grey">&#45;_wasRequested</text>
</g>
<!-- Node8 -->
<g id="Node000008" class="node">
<title>Node8</title>
<g id="a_Node000008"><a xlink:title=" ">
<polygon fill="white" stroke="transparent" points="319.5,-762 296.5,-762 296.5,-713 319.5,-713 319.5,-762"/>
<text text-anchor="start" x="302" y="-749.5" font-family="Helvetica,sans-Serif" font-size="10.00">int</text>
<text text-anchor="start" x="306.5" y="-734.5" font-family="Helvetica,sans-Serif" font-size="10.00"> </text>
<text text-anchor="start" x="306.5" y="-719.5" font-family="Helvetica,sans-Serif" font-size="10.00"> </text>
<polygon fill="#666666" stroke="#666666" points="297,-744.5 297,-744.5 320,-744.5 320,-744.5 297,-744.5"/>
<polygon fill="#666666" stroke="#666666" points="297,-729.5 297,-729.5 320,-729.5 320,-729.5 297,-729.5"/>
<polygon fill="none" stroke="#666666" points="296.5,-713 296.5,-762 319.5,-762 319.5,-713 296.5,-713"/>
</a>
</g>
</g>
<!-- Node8&#45;&gt;Node4 -->
<g id="edge8_Node000004_Node000008" class="edge">
<title>Node8&#45;&gt;Node4</title>
<g id="a_edge8_Node000004_Node000008"><a xlink:title=" ">
<path fill="none" stroke="#63b8ff" d="M303.52,-712.87C296.9,-673.28 287.02,-591.35 304,-525 304.55,-522.86 305.16,-520.71 305.84,-518.57"/>
<polygon fill="none" stroke="#63b8ff" points="305.88,-518.45 304.15,-511.44 309.95,-507.16 311.68,-514.16 305.88,-518.45"/>
</a>
</g>
<text text-anchor="middle" x="325.5" y="-539" font-family="Helvetica,sans-Serif" font-size="10.00" fill="grey"> #height</text>
<text text-anchor="middle" x="325.5" y="-528" font-family="Helvetica,sans-Serif" font-size="10.00" fill="grey">#width</text>
</g>
<!-- Node9 -->
<g id="Node000009" class="node">
<title>Node9</title>
<g id="a_Node000009"><a xlink:title=" ">
<polygon fill="white" stroke="transparent" points="374,-762 338,-762 338,-713 374,-713 374,-762"/>
<text text-anchor="start" x="343" y="-749.5" font-family="Helvetica,sans-Serif" font-size="10.00">Color</text>
<text text-anchor="start" x="354" y="-734.5" font-family="Helvetica,sans-Serif" font-size="10.00"> </text>
<text text-anchor="start" x="354" y="-719.5" font-family="Helvetica,sans-Serif" font-size="10.00"> </text>
<polygon fill="#666666" stroke="#666666" points="338,-744.5 338,-744.5 374,-744.5 374,-744.5 338,-744.5"/>
<polygon fill="#666666" stroke="#666666" points="338,-729.5 338,-729.5 374,-729.5 374,-729.5 338,-729.5"/>
<polygon fill="none" stroke="#666666" points="338,-713 338,-762 374,-762 374,-713 338,-713"/>
</a>
</g>
</g>
<!-- Node9&#45;&gt;Node4 -->
<g id="edge9_Node000004_Node000009" class="edge">
<title>Node9&#45;&gt;Node4</title>
<g id="a_edge9_Node000004_Node000009"><a xlink:title=" ">
<path fill="none" stroke="#63b8ff" d="M355.52,-712.82C354.68,-671.39 352.9,-584.03 351.59,-519.47"/>
<polygon fill="none" stroke="#63b8ff" points="351.59,-519.29 347.47,-513.38 351.35,-507.3 355.47,-513.21 351.59,-519.29"/>
</a>
</g>
<text text-anchor="middle" x="389" y="-533.5" font-family="Helvetica,sans-Serif" font-size="10.00" fill="grey"> +_borderColor</text>
</g>
<!-- Node10 -->
<g id="Node000010" class="node">
<title>Node10</title>
<g id="a_Node000010"><a xlink:title=" ">
<polygon fill="white" stroke="transparent" points="483,-762 423,-762 423,-713 483,-713 483,-762"/>
<text text-anchor="start" x="428" y="-749.5" font-family="Helvetica,sans-Serif" font-size="10.00">EffectPass</text>
<text text-anchor="start" x="451" y="-734.5" font-family="Helvetica,sans-Serif" font-size="10.00"> </text>
<text text-anchor="start" x="451" y="-719.5" font-family="Helvetica,sans-Serif" font-size="10.00"> </text>
<polygon fill="#666666" stroke="#666666" points="423,-744.5 423,-744.5 483,-744.5 483,-744.5 423,-744.5"/>
<polygon fill="#666666" stroke="#666666" points="423,-729.5 423,-729.5 483,-729.5 483,-729.5 423,-729.5"/>
<polygon fill="none" stroke="#666666" points="423,-713 423,-762 483,-762 483,-713 423,-713"/>
</a>
</g>
</g>
<!-- Node10&#45;&gt;Node4 -->
<g id="edge10_Node000004_Node000010" class="edge">
<title>Node10&#45;&gt;Node4</title>
<g id="a_edge10_Node000004_Node000010"><a xlink:title=" ">
<path fill="none" stroke="#63b8ff" d="M455.18,-712.99C457.94,-672.52 459.24,-587.98 430,-525 428.85,-522.51 427.59,-520.06 426.24,-517.63"/>
<polygon fill="none" stroke="#63b8ff" points="426.11,-517.41 419.55,-514.4 419.81,-507.19 426.36,-510.2 426.11,-517.41"/>
</a>
</g>
<text text-anchor="middle" x="480.5" y="-533.5" font-family="Helvetica,sans-Serif" font-size="10.00" fill="grey"> &#45;_coloringShader</text>
</g>
<!-- Node11 -->
<g id="Node000011" class="node">
<title>Node11</title>
<g id="a_Node000011"><a xlink:title=" ">
<polygon fill="white" stroke="transparent" points="225,-464.5 165,-464.5 165,-415.5 225,-415.5 225,-464.5"/>
<text text-anchor="start" x="170" y="-452" font-family="Helvetica,sans-Serif" font-size="10.00">Texture2D</text>
<text text-anchor="start" x="193" y="-437" font-family="Helvetica,sans-Serif" font-size="10.00"> </text>
<text text-anchor="start" x="193" y="-422" font-family="Helvetica,sans-Serif" font-size="10.00"> </text>
<polygon fill="#666666" stroke="#666666" points="165,-447 165,-447 225,-447 225,-447 165,-447"/>
<polygon fill="#666666" stroke="#666666" points="165,-432 165,-432 225,-432 225,-432 165,-432"/>
<polygon fill="none" stroke="#666666" points="165,-415.5 165,-464.5 225,-464.5 225,-415.5 165,-415.5"/>
</a>
</g>
</g>
<!-- Node11&#45;&gt;Node3 -->
<g id="edge12_Node000003_Node000011" class="edge">
<title>Node11&#45;&gt;Node3</title>
<g id="a_edge12_Node000003_Node000011"><a xlink:title=" ">
<path fill="none" stroke="#63b8ff" d="M195,-415.32C195,-395.05 195,-364.99 195,-338.21"/>
<polygon fill="none" stroke="#63b8ff" points="195,-338.18 191,-332.18 195,-326.18 199,-332.18 195,-338.18"/>
</a>
</g>
<text text-anchor="middle" x="227" y="-347" font-family="Helvetica,sans-Serif" font-size="10.00" fill="grey"> &#45;_theTexture</text>
</g>
<!-- Node12 -->
<g id="Node000012" class="node">
<title>Node12</title>
<g id="a_Node000012"><a xlink:title=" ">
<polygon fill="white" stroke="transparent" points="409,-302 299,-302 299,-253 409,-253 409,-302"/>
<text text-anchor="start" x="304" y="-289.5" font-family="Helvetica,sans-Serif" font-size="10.00">Asset&lt; Texture2D &gt;</text>
<text text-anchor="start" x="352" y="-274.5" font-family="Helvetica,sans-Serif" font-size="10.00"> </text>
<text text-anchor="start" x="352" y="-259.5" font-family="Helvetica,sans-Serif" font-size="10.00"> </text>
<polygon fill="#666666" stroke="#666666" points="299,-284.5 299,-284.5 409,-284.5 409,-284.5 299,-284.5"/>
<polygon fill="#666666" stroke="#666666" points="299,-269.5 299,-269.5 409,-269.5 409,-269.5 299,-269.5"/>
<polygon fill="none" stroke="#666666" points="299,-253 299,-302 409,-302 409,-253 299,-253"/>
</a>
</g>
</g>
<!-- Node12&#45;&gt;Node1 -->
<g id="edge13_Node000001_Node000012" class="edge">
<title>Node12&#45;&gt;Node1</title>
<g id="a_edge13_Node000001_Node000012"><a xlink:title=" ">
<path fill="none" stroke="#63b8ff" d="M333.54,-252.76C319.69,-236.69 300.37,-214.27 280.55,-191.27"/>
<polygon fill="none" stroke="#63b8ff" points="280.47,-191.18 273.52,-189.25 272.64,-182.09 279.58,-184.02 280.47,-191.18"/>
</a>
</g>
<text text-anchor="middle" x="335.5" y="-203" font-family="Helvetica,sans-Serif" font-size="10.00" fill="grey"> &#45;_matchingArray</text>
</g>
</g>
</svg>

<g id="navigator" transform="translate(0 0)" fill="#404254">
  <rect fill="#f2f5e9" fill-opacity="0.5" stroke="#606060" stroke-width=".5" x="0" y="0" width="60" height="60"/>
  <use id="zoomplus" xlink:href="#zoomPlus" x="17" y="9" onmousedown="handleZoom(evt,'in')"/>
  <use id="zoomminus" xlink:href="#zoomMin" x="42" y="9" onmousedown="handleZoom(evt,'out')"/>
  <use id="reset" xlink:href="#resetDef" x="30" y="36" onmousedown="handleReset()"/>
   <use id="arrowup" xlink:href="#arrowUp" x="0" y="0" onmousedown="handlePan(0,-1)"/>
  <use id="arrowright" xlink:href="#arrowRight" x="0" y="0" onmousedown="handlePan(1,0)"/>
  <use id="arrowdown" xlink:href="#arrowDown" x="0" y="0" onmousedown="handlePan(0,1)"/>
  <use id="arrowleft" xlink:href="#arrowLeft" x="0" y="0" onmousedown="handlePan(-1,0)"/>
</g>
<svg viewBox="0 0 15 15" width="100%" height="30px" preserveAspectRatio="xMaxYMin meet">
 <g id="arrow_out" transform="scale(0.3 0.3)">
  <a xlink:href="classTerraria_1_1Graphics_1_1Renderers_1_1NPCHeadRenderer__coll__graph_org.svg" target="_base">
   <rect id="button" ry="5" rx="5" y="6" x="6" height="38" width="38"
        fill="#f2f5e9" fill-opacity="0.5" stroke="#606060" stroke-width="1.0"/>
   <path id="arrow"
     d="M 11.500037,31.436501 C 11.940474,20.09759 22.043105,11.32322 32.158766,21.979434 L 37.068811,17.246167 C 37.068811,17.246167 37.088388,32 37.088388,32 L 22.160133,31.978069 C 22.160133,31.978069 26.997745,27.140456 26.997745,27.140456 C 18.528582,18.264221 13.291696,25.230495 11.500037,31.436501 z"
     style="fill:#404040;"/>
  </a>
 </g>
</svg>

<style type='text/css'>
<![CDATA[
[data-mouse-over-selected='false'] { opacity: 0.7; }
[data-mouse-over-selected='true']  { opacity: 1.0; }
]]>
</style>
<script type="application/ecmascript"><![CDATA[
document.addEventListener('DOMContentLoaded', (event) => {
  highlightEdges();
  highlightAdjacentNodes();
});
]]></script>
</svg>
