<?xml version="1.0" encoding="UTF-8" standalone="no"?>
<!DOCTYPE svg PUBLIC "-//W3C//DTD SVG 1.1//EN"
 "http://www.w3.org/Graphics/SVG/1.1/DTD/svg11.dtd">
<!-- Generated by graphviz version 2.43.0 (0)
 -->
<!-- Title: Terraria.WorldGen.TreeGrowFX_AshShake Pages: 1 -->
<!--zoomable 217 -->

<svg id="main" version="1.1" xmlns="http://www.w3.org/2000/svg" xmlns:xlink="http://www.w3.org/1999/xlink" xml:space="preserve" onload="init(evt)">
<style type="text/css"><![CDATA[
.node, .edge {opacity: 0.7;}
.node.selected, .edge.selected {opacity: 1;}
.edge:hover path { stroke: red; }
.edge:hover polygon { stroke: red; fill: red; }
]]></style>

<defs>
  <circle id="rim" cx="0" cy="0" r="7"/>
  <circle id="rim2" cx="0" cy="0" r="3.5"/>
  <g id="zoomPlus">
    <use xlink:href="#rim" fill="#404040"><set attributeName="fill" to="#808080" begin="zoomplus.mouseover" end="zoomplus.mouseout"/></use>
    <path d="M-4,0h8M0,-4v8" fill="none" stroke="white" stroke-width="1.5" pointer-events="none"/>
  </g>
  <g id="zoomMin">
    <use xlink:href="#rim" fill="#404040"><set attributeName="fill" to="#808080" begin="zoomminus.mouseover" end="zoomminus.mouseout"/></use>
    <path d="M-4,0h8" fill="none" stroke="white" stroke-width="1.5" pointer-events="none"/>
  </g>
  <g id="arrowUp" transform="translate(30 24)">
    <use xlink:href="#rim"/>
    <path pointer-events="none" fill="none" stroke="white" stroke-width="1.5" d="M0,-3.0v7 M-2.5,-0.5L0,-3.0L2.5,-0.5"/>
  </g>
  <g id="arrowRight" transform="rotate(90) translate(36 -43)">
    <use xlink:href="#rim"/>
    <path pointer-events="none" fill="none" stroke="white" stroke-width="1.5" d="M0,-3.0v7 M-2.5,-0.5L0,-3.0L2.5,-0.5"/>
  </g>
  <g id="arrowDown" transform="rotate(180) translate(-30 -48)">
    <use xlink:href="#rim"/>
    <path pointer-events="none" fill="none" stroke="white" stroke-width="1.5" d="M0,-3.0v7 M-2.5,-0.5L0,-3.0L2.5,-0.5"/>
  </g>
  <g id="arrowLeft" transform="rotate(270) translate(-36 17)">
    <use xlink:href="#rim"/>
    <path pointer-events="none" fill="none" stroke="white" stroke-width="1.5" d="M0,-3.0v7 M-2.5,-0.5L0,-3.0L2.5,-0.5"/>
  </g>
  <g id="resetDef">
    <use xlink:href="#rim2" fill="#404040"><set attributeName="fill" to="#808080" begin="reset.mouseover" end="reset.mouseout"/></use>
  </g>
</defs>
<script type="application/ecmascript">
var viewWidth = 967;
var viewHeight = 217;
var sectionId = 'dynsection-0';
</script>
<script type="application/ecmascript" xlink:href="../../svg.min.js"/>
<svg id="graph" class="graph">
<g id="viewport">
<title>Terraria.WorldGen.TreeGrowFX_AshShake</title>
<!-- Node1 -->
<g id="Node000001" class="node">
<title>Node1</title>
<g id="a_Node000001"><a xlink:title=" ">
<polygon fill="#999999" stroke="#666666" points="152,-104 0,-104 0,-74 152,-74 152,-104"/>
<text text-anchor="start" x="8" y="-92" font-family="Helvetica,sans-Serif" font-size="10.00">Terraria.WorldGen.TreeGrow</text>
<text text-anchor="middle" x="76" y="-81" font-family="Helvetica,sans-Serif" font-size="10.00">FX_AshShake</text>
</a>
</g>
</g>
<!-- Node2 -->
<g id="Node000002" class="node">
<title>Node2</title>
<g id="a_Node000002"><a xlink:href="../../dc/de5/classTerraria_1_1Dust_acb51111c9d1ff81d2e7f55da6ff8831f.html#acb51111c9d1ff81d2e7f55da6ff8831f" target="_top" xlink:title=" ">
<polygon fill="white" stroke="#666666" points="345,-156.5 190,-156.5 190,-137.5 345,-137.5 345,-156.5"/>
<text text-anchor="middle" x="267.5" y="-144.5" font-family="Helvetica,sans-Serif" font-size="10.00">Terraria.Dust.NewDustDirect</text>
</a>
</g>
</g>
<!-- Node1&#45;&gt;Node2 -->
<g id="edge1_Node000001_Node000002" class="edge">
<title>Node1&#45;&gt;Node2</title>
<g id="a_edge1_Node000001_Node000002"><a xlink:title=" ">
<path fill="none" stroke="#63b8ff" d="M126.29,-104.09C157.1,-113.52 196.3,-125.51 225.42,-134.43"/>
<polygon fill="#63b8ff" stroke="#63b8ff" points="224.68,-137.86 235.26,-137.44 226.72,-131.17 224.68,-137.86"/>
</a>
</g>
</g>
<!-- Node4 -->
<g id="Node000004" class="node">
<title>Node4</title>
<g id="a_Node000004"><a xlink:href="../../d9/db1/classTerraria_1_1Utilities_1_1UnifiedRandom_ac4ecc6320b69ab939b9c45eaf7d89000.html#ac4ecc6320b69ab939b9c45eaf7d89000" target="_top" xlink:title=" ">
<polygon fill="white" stroke="#666666" points="734,-123 602,-123 602,-93 734,-93 734,-123"/>
<text text-anchor="start" x="610" y="-111" font-family="Helvetica,sans-Serif" font-size="10.00">Terraria.Utilities.Unified</text>
<text text-anchor="middle" x="668" y="-100" font-family="Helvetica,sans-Serif" font-size="10.00">Random.Next</text>
</a>
</g>
</g>
<!-- Node1&#45;&gt;Node4 -->
<g id="edge11_Node000001_Node000004" class="edge">
<title>Node1&#45;&gt;Node4</title>
<g id="a_edge11_Node000001_Node000004"><a xlink:title=" ">
<path fill="none" stroke="#63b8ff" d="M152.02,-91.42C265.19,-95.06 478.34,-101.92 591.68,-105.57"/>
<polygon fill="#63b8ff" stroke="#63b8ff" points="591.89,-109.08 602,-105.91 592.12,-102.09 591.89,-109.08"/>
</a>
</g>
</g>
<!-- Node9 -->
<g id="Node000009" class="node">
<title>Node9</title>
<g id="a_Node000009"><a xlink:href="../../d1/ddf/classTerraria_1_1Gore_a6f50d9725660d35b1ff1d942ebb75ce3.html#a6f50d9725660d35b1ff1d942ebb75ce3" target="_top" xlink:title=" ">
<polygon fill="white" stroke="#666666" points="346,-24.5 189,-24.5 189,-5.5 346,-5.5 346,-24.5"/>
<text text-anchor="middle" x="267.5" y="-12.5" font-family="Helvetica,sans-Serif" font-size="10.00">Terraria.Gore.NewGoreDirect</text>
</a>
</g>
</g>
<!-- Node1&#45;&gt;Node9 -->
<g id="edge8_Node000001_Node000009" class="edge">
<title>Node1&#45;&gt;Node9</title>
<g id="a_edge8_Node000001_Node000009"><a xlink:title=" ">
<path fill="none" stroke="#63b8ff" d="M115.81,-73.85C150.15,-60.43 199.78,-41.06 232.57,-28.25"/>
<polygon fill="#63b8ff" stroke="#63b8ff" points="234.13,-31.4 242.17,-24.5 231.58,-24.88 234.13,-31.4"/>
</a>
</g>
</g>
<!-- Node11 -->
<g id="Node000011" class="node">
<title>Node11</title>
<g id="a_Node000011"><a xlink:href="../../d1/d9c/classTerraria_1_1Utils_a237b6e7a7a5bbbed9191bc96e3a51e4b.html#a237b6e7a7a5bbbed9191bc96e3a51e4b" target="_top" xlink:title=" ">
<polygon fill="white" stroke="#666666" points="347,-79.5 188,-79.5 188,-60.5 347,-60.5 347,-79.5"/>
<text text-anchor="middle" x="267.5" y="-67.5" font-family="Helvetica,sans-Serif" font-size="10.00">Terraria.Utils.RandomVector2</text>
</a>
</g>
</g>
<!-- Node1&#45;&gt;Node11 -->
<g id="edge12_Node000001_Node000011" class="edge">
<title>Node1&#45;&gt;Node11</title>
<g id="a_edge12_Node000001_Node000011"><a xlink:title=" ">
<path fill="none" stroke="#63b8ff" d="M152.17,-81.46C160.56,-80.62 169.17,-79.76 177.71,-78.9"/>
<polygon fill="#63b8ff" stroke="#63b8ff" points="178.09,-82.38 187.69,-77.9 177.39,-75.42 178.09,-82.38"/>
</a>
</g>
</g>
<!-- Node3 -->
<g id="Node000003" class="node">
<title>Node3</title>
<g id="a_Node000003"><a xlink:href="../../dc/de5/classTerraria_1_1Dust_a977a36a9376966862406a3094e3b70ab.html#a977a36a9376966862406a3094e3b70ab" target="_top" xlink:title="Attempts to spawn a single Dust into the game world. The Position, Width, and Height parameters dicta...">
<polygon fill="white" stroke="#666666" points="528,-157.5 402,-157.5 402,-138.5 528,-138.5 528,-157.5"/>
<text text-anchor="middle" x="465" y="-145.5" font-family="Helvetica,sans-Serif" font-size="10.00">Terraria.Dust.NewDust</text>
</a>
</g>
</g>
<!-- Node2&#45;&gt;Node3 -->
<g id="edge2_Node000002_Node000003" class="edge">
<title>Node2&#45;&gt;Node3</title>
<g id="a_edge2_Node000002_Node000003"><a xlink:title=" ">
<path fill="none" stroke="#63b8ff" d="M345.21,-147.39C360.5,-147.47 376.52,-147.55 391.67,-147.63"/>
<polygon fill="#63b8ff" stroke="#63b8ff" points="391.97,-151.13 401.99,-147.68 392.01,-144.13 391.97,-151.13"/>
</a>
</g>
</g>
<!-- Node3&#45;&gt;Node4 -->
<g id="edge3_Node000003_Node000004" class="edge">
<title>Node3&#45;&gt;Node4</title>
<g id="a_edge3_Node000003_Node000004"><a xlink:title=" ">
<path fill="none" stroke="#63b8ff" d="M513.89,-138.47C537.26,-133.82 565.92,-128.12 592.1,-122.91"/>
<polygon fill="#63b8ff" stroke="#63b8ff" points="592.87,-126.32 601.99,-120.94 591.5,-119.46 592.87,-126.32"/>
</a>
</g>
</g>
<!-- Node6 -->
<g id="Node000006" class="node">
<title>Node6</title>
<g id="a_Node000006"><a xlink:href="../../df/dd6/classTerraria_1_1ModLoader_1_1DustLoader_a8374be843b9b2b0143bc000e8663d3ec.html#a8374be843b9b2b0143bc000e8663d3ec" target="_top" xlink:title=" ">
<polygon fill="white" stroke="#666666" points="753,-209 583,-209 583,-179 753,-179 753,-209"/>
<text text-anchor="start" x="591" y="-197" font-family="Helvetica,sans-Serif" font-size="10.00">Terraria.ModLoader.DustLoader.</text>
<text text-anchor="middle" x="668" y="-186" font-family="Helvetica,sans-Serif" font-size="10.00">SetupDust</text>
</a>
</g>
</g>
<!-- Node3&#45;&gt;Node6 -->
<g id="edge5_Node000003_Node000006" class="edge">
<title>Node3&#45;&gt;Node6</title>
<g id="a_edge5_Node000003_Node000006"><a xlink:title=" ">
<path fill="none" stroke="#63b8ff" d="M507.65,-157.53C531.82,-163.06 563.01,-170.2 591.37,-176.69"/>
<polygon fill="#63b8ff" stroke="#63b8ff" points="590.74,-180.14 601.27,-178.96 592.3,-173.31 590.74,-180.14"/>
</a>
</g>
</g>
<!-- Node8 -->
<g id="Node000008" class="node">
<title>Node8</title>
<g id="a_Node000008"><a xlink:href="../../de/d1d/classTerraria_1_1Collision_a1c65206ace403aa59afc32d20e5d282e.html#a1c65206ace403aa59afc32d20e5d282e" target="_top" xlink:title=" ">
<polygon fill="white" stroke="#666666" points="749,-160.5 587,-160.5 587,-141.5 749,-141.5 749,-160.5"/>
<text text-anchor="middle" x="668" y="-148.5" font-family="Helvetica,sans-Serif" font-size="10.00">Terraria.Collision.WetCollision</text>
</a>
</g>
</g>
<!-- Node3&#45;&gt;Node8 -->
<g id="edge7_Node000003_Node000008" class="edge">
<title>Node3&#45;&gt;Node8</title>
<g id="a_edge7_Node000003_Node000008"><a xlink:title=" ">
<path fill="none" stroke="#63b8ff" d="M528.22,-148.93C543.59,-149.16 560.37,-149.41 576.78,-149.65"/>
<polygon fill="#63b8ff" stroke="#63b8ff" points="576.88,-153.16 586.93,-149.8 576.98,-146.16 576.88,-153.16"/>
</a>
</g>
</g>
<!-- Node5 -->
<g id="Node000005" class="node">
<title>Node5</title>
<g id="a_Node000005"><a xlink:href="../../d9/db1/classTerraria_1_1Utilities_1_1UnifiedRandom_a173f09196ff526b107c0223c2d58c59a.html#a173f09196ff526b107c0223c2d58c59a" target="_top" xlink:title=" ">
<polygon fill="white" stroke="#666666" points="941,-99 807,-99 807,-69 941,-69 941,-99"/>
<text text-anchor="start" x="815" y="-87" font-family="Helvetica,sans-Serif" font-size="10.00">Terraria.Utilities.Unified</text>
<text text-anchor="middle" x="874" y="-76" font-family="Helvetica,sans-Serif" font-size="10.00">Random.InternalSample</text>
</a>
</g>
</g>
<!-- Node4&#45;&gt;Node5 -->
<g id="edge4_Node000004_Node000005" class="edge">
<title>Node4&#45;&gt;Node5</title>
<g id="a_edge4_Node000004_Node000005"><a xlink:title=" ">
<path fill="none" stroke="#63b8ff" d="M734.11,-100.34C754.05,-97.99 776.16,-95.39 796.78,-92.97"/>
<polygon fill="#63b8ff" stroke="#63b8ff" points="797.24,-96.44 806.76,-91.79 796.42,-89.49 797.24,-96.44"/>
</a>
</g>
</g>
<!-- Node7 -->
<g id="Node000007" class="node">
<title>Node7</title>
<g id="a_Node000007"><a xlink:href="../../df/dd6/classTerraria_1_1ModLoader_1_1DustLoader_a0cb616c3c6776d3bba899e7f1fb0e221.html#a0cb616c3c6776d3bba899e7f1fb0e221" target="_top" xlink:title="Gets the ModDust instance with the given type. Returns null if no ModDust with the given type exists.">
<polygon fill="white" stroke="#666666" points="959,-209 789,-209 789,-179 959,-179 959,-209"/>
<text text-anchor="start" x="797" y="-197" font-family="Helvetica,sans-Serif" font-size="10.00">Terraria.ModLoader.DustLoader.</text>
<text text-anchor="middle" x="874" y="-186" font-family="Helvetica,sans-Serif" font-size="10.00">GetDust</text>
</a>
</g>
</g>
<!-- Node6&#45;&gt;Node7 -->
<g id="edge6_Node000006_Node000007" class="edge">
<title>Node6&#45;&gt;Node7</title>
<g id="a_edge6_Node000006_Node000007"><a xlink:title=" ">
<path fill="none" stroke="#63b8ff" d="M753.15,-194C761.5,-194 770.02,-194 778.46,-194"/>
<polygon fill="#63b8ff" stroke="#63b8ff" points="778.71,-197.5 788.71,-194 778.71,-190.5 778.71,-197.5"/>
</a>
</g>
</g>
<!-- Node9&#45;&gt;Node9 -->
<g id="edge10_Node000009_Node000009" class="edge">
<title>Node9&#45;&gt;Node9</title>
<g id="a_edge10_Node000009_Node000009"><a xlink:title=" ">
<path fill="none" stroke="#63b8ff" d="M238.22,-24.58C223.97,-33.23 233.73,-42.5 267.5,-42.5 290.72,-42.5 302.59,-38.12 303.11,-32.57"/>
<polygon fill="#63b8ff" stroke="#63b8ff" points="305.73,-30.25 296.78,-24.58 300.25,-34.6 305.73,-30.25"/>
</a>
</g>
</g>
<!-- Node10 -->
<g id="Node000010" class="node">
<title>Node10</title>
<g id="a_Node000010"><a xlink:href="../../d9/d62/interfaceTerraria_1_1DataStructures_1_1IEntitySource_aad02a637d76bfd16f138769722291901.html#aad02a637d76bfd16f138769722291901" target="_top" xlink:title=" ">
<polygon fill="white" stroke="#666666" points="547,-30 383,-30 383,0 547,0 547,-30"/>
<text text-anchor="start" x="391" y="-18" font-family="Helvetica,sans-Serif" font-size="10.00">Terraria.DataStructures.</text>
<text text-anchor="middle" x="465" y="-7" font-family="Helvetica,sans-Serif" font-size="10.00">IEntitySource.GetGoreFallback</text>
</a>
</g>
</g>
<!-- Node9&#45;&gt;Node10 -->
<g id="edge9_Node000009_Node000010" class="edge">
<title>Node9&#45;&gt;Node10</title>
<g id="a_edge9_Node000009_Node000010"><a xlink:title=" ">
<path fill="none" stroke="#63b8ff" d="M346.05,-15C354.8,-15 363.78,-15 372.69,-15"/>
<polygon fill="#63b8ff" stroke="#63b8ff" points="372.7,-18.5 382.7,-15 372.7,-11.5 372.7,-18.5"/>
</a>
</g>
</g>
<!-- Node12 -->
<g id="Node000012" class="node">
<title>Node12</title>
<g id="a_Node000012"><a xlink:href="../../d9/db1/classTerraria_1_1Utilities_1_1UnifiedRandom_ac305c60065e38f1ae87d49fb1a56dae4.html#ac305c60065e38f1ae87d49fb1a56dae4" target="_top" xlink:title=" ">
<polygon fill="white" stroke="#666666" points="531,-79 399,-79 399,-49 531,-49 531,-79"/>
<text text-anchor="start" x="407" y="-67" font-family="Helvetica,sans-Serif" font-size="10.00">Terraria.Utilities.Unified</text>
<text text-anchor="middle" x="465" y="-56" font-family="Helvetica,sans-Serif" font-size="10.00">Random.NextDouble</text>
</a>
</g>
</g>
<!-- Node11&#45;&gt;Node12 -->
<g id="edge13_Node000011_Node000012" class="edge">
<title>Node11&#45;&gt;Node12</title>
<g id="a_edge13_Node000011_Node000012"><a xlink:title=" ">
<path fill="none" stroke="#63b8ff" d="M347.17,-67.59C360.87,-67.17 375.09,-66.73 388.69,-66.31"/>
<polygon fill="#63b8ff" stroke="#63b8ff" points="389.07,-69.8 398.96,-66 388.85,-62.8 389.07,-69.8"/>
</a>
</g>
</g>
<!-- Node13 -->
<g id="Node000013" class="node">
<title>Node13</title>
<g id="a_Node000013"><a xlink:href="../../d9/db1/classTerraria_1_1Utilities_1_1UnifiedRandom_ac36d10cc6f1a54c3810374e9014c217c.html#ac36d10cc6f1a54c3810374e9014c217c" target="_top" xlink:title=" ">
<polygon fill="white" stroke="#666666" points="734,-75 602,-75 602,-45 734,-45 734,-75"/>
<text text-anchor="start" x="610" y="-63" font-family="Helvetica,sans-Serif" font-size="10.00">Terraria.Utilities.Unified</text>
<text text-anchor="middle" x="668" y="-52" font-family="Helvetica,sans-Serif" font-size="10.00">Random.Sample</text>
</a>
</g>
</g>
<!-- Node12&#45;&gt;Node13 -->
<g id="edge14_Node000012_Node000013" class="edge">
<title>Node12&#45;&gt;Node13</title>
<g id="a_edge14_Node000012_Node000013"><a xlink:title=" ">
<path fill="none" stroke="#63b8ff" d="M531.26,-62.7C550.49,-62.32 571.69,-61.9 591.51,-61.5"/>
<polygon fill="#63b8ff" stroke="#63b8ff" points="591.8,-65 601.72,-61.3 591.66,-58 591.8,-65"/>
</a>
</g>
</g>
<!-- Node13&#45;&gt;Node5 -->
<g id="edge15_Node000013_Node000005" class="edge">
<title>Node13&#45;&gt;Node5</title>
<g id="a_edge15_Node000013_Node000005"><a xlink:title=" ">
<path fill="none" stroke="#63b8ff" d="M734.11,-67.66C754.05,-70.01 776.16,-72.61 796.78,-75.03"/>
<polygon fill="#63b8ff" stroke="#63b8ff" points="796.42,-78.51 806.76,-76.21 797.24,-71.56 796.42,-78.51"/>
</a>
</g>
</g>
</g>
</svg>

<g id="navigator" transform="translate(0 0)" fill="#404254">
  <rect fill="#f2f5e9" fill-opacity="0.5" stroke="#606060" stroke-width=".5" x="0" y="0" width="60" height="60"/>
  <use id="zoomplus" xlink:href="#zoomPlus" x="17" y="9" onmousedown="handleZoom(evt,'in')"/>
  <use id="zoomminus" xlink:href="#zoomMin" x="42" y="9" onmousedown="handleZoom(evt,'out')"/>
  <use id="reset" xlink:href="#resetDef" x="30" y="36" onmousedown="handleReset()"/>
   <use id="arrowup" xlink:href="#arrowUp" x="0" y="0" onmousedown="handlePan(0,-1)"/>
  <use id="arrowright" xlink:href="#arrowRight" x="0" y="0" onmousedown="handlePan(1,0)"/>
  <use id="arrowdown" xlink:href="#arrowDown" x="0" y="0" onmousedown="handlePan(0,1)"/>
  <use id="arrowleft" xlink:href="#arrowLeft" x="0" y="0" onmousedown="handlePan(-1,0)"/>
</g>
<svg viewBox="0 0 15 15" width="100%" height="30px" preserveAspectRatio="xMaxYMin meet">
 <g id="arrow_out" transform="scale(0.3 0.3)">
  <a xlink:href="classTerraria_1_1WorldGen_a7d6d681427380d9d56c24e623af7be8f_a7d6d681427380d9d56c24e623af7be8f_cgraph_org.svg" target="_base">
   <rect id="button" ry="5" rx="5" y="6" x="6" height="38" width="38"
        fill="#f2f5e9" fill-opacity="0.5" stroke="#606060" stroke-width="1.0"/>
   <path id="arrow"
     d="M 11.500037,31.436501 C 11.940474,20.09759 22.043105,11.32322 32.158766,21.979434 L 37.068811,17.246167 C 37.068811,17.246167 37.088388,32 37.088388,32 L 22.160133,31.978069 C 22.160133,31.978069 26.997745,27.140456 26.997745,27.140456 C 18.528582,18.264221 13.291696,25.230495 11.500037,31.436501 z"
     style="fill:#404040;"/>
  </a>
 </g>
</svg>

<style type='text/css'>
<![CDATA[
[data-mouse-over-selected='false'] { opacity: 0.7; }
[data-mouse-over-selected='true']  { opacity: 1.0; }
]]>
</style>
<script type="application/ecmascript"><![CDATA[
document.addEventListener('DOMContentLoaded', (event) => {
  highlightEdges();
  highlightAdjacentNodes();
});
]]></script>
</svg>
