<?xml version="1.0" encoding="UTF-8" standalone="no"?>
<!DOCTYPE svg PUBLIC "-//W3C//DTD SVG 1.1//EN"
 "http://www.w3.org/Graphics/SVG/1.1/DTD/svg11.dtd">
<!-- Generated by graphviz version 2.43.0 (0)
 -->
<!-- Title: Terraria.WorldGen.saveAndPlayCallBack Pages: 1 -->
<svg width="945pt" height="134pt"
 viewBox="0.00 0.00 945.00 134.00" xmlns="http://www.w3.org/2000/svg" xmlns:xlink="http://www.w3.org/1999/xlink">
<g id="graph0" class="graph" transform="scale(1 1) rotate(0) translate(4 130)">
<title>Terraria.WorldGen.saveAndPlayCallBack</title>
<!-- Node1 -->
<g id="Node000001" class="node">
<title>Node1</title>
<g id="a_Node000001"><a xlink:title=" ">
<polygon fill="#999999" stroke="#666666" points="149,-78 0,-78 0,-48 149,-48 149,-78"/>
<text text-anchor="start" x="8" y="-66" font-family="Helvetica,sans-Serif" font-size="10.00">Terraria.WorldGen.saveAnd</text>
<text text-anchor="middle" x="74.5" y="-55" font-family="Helvetica,sans-Serif" font-size="10.00">PlayCallBack</text>
</a>
</g>
</g>
<!-- Node2 -->
<g id="Node000002" class="node">
<title>Node2</title>
<g id="a_Node000002"><a xlink:href="../../d7/d54/classTerraria_1_1IO_1_1WorldFile_a955b6173c456da823e8435487ead336b.html#a955b6173c456da823e8435487ead336b" target="_top" xlink:title=" ">
<polygon fill="white" stroke="#666666" points="327,-78 185,-78 185,-48 327,-48 327,-78"/>
<text text-anchor="start" x="193" y="-66" font-family="Helvetica,sans-Serif" font-size="10.00">Terraria.IO.WorldFile.Save</text>
<text text-anchor="middle" x="256" y="-55" font-family="Helvetica,sans-Serif" font-size="10.00">World</text>
</a>
</g>
</g>
<!-- Node1&#45;&gt;Node2 -->
<g id="edge1_Node000001_Node000002" class="edge">
<title>Node1&#45;&gt;Node2</title>
<g id="a_edge1_Node000001_Node000002"><a xlink:title=" ">
<path fill="none" stroke="#63b8ff" d="M149.03,-63C157.42,-63 166.02,-63 174.5,-63"/>
<polygon fill="#63b8ff" stroke="#63b8ff" points="174.77,-66.5 184.77,-63 174.77,-59.5 174.77,-66.5"/>
</a>
</g>
</g>
<!-- Node2&#45;&gt;Node2 -->
<g id="edge2_Node000002_Node000002" class="edge">
<title>Node2&#45;&gt;Node2</title>
<g id="a_edge2_Node000002_Node000002"><a xlink:title=" ">
<path fill="none" stroke="#63b8ff" d="M224.36,-78.28C217.33,-87.41 227.88,-96 256,-96 272.7,-96 283.2,-92.97 287.51,-88.6"/>
<polygon fill="#63b8ff" stroke="#63b8ff" points="291.01,-88.32 287.64,-78.28 284.01,-88.23 291.01,-88.32"/>
</a>
</g>
</g>
<!-- Node3 -->
<g id="Node000003" class="node">
<title>Node3</title>
<g id="a_Node000003"><a xlink:href="../../dd/df7/classTerraria_1_1UI_1_1FancyErrorPrinter_abf601102a116710016c5731fc7abbd7a.html#abf601102a116710016c5731fc7abbd7a" target="_top" xlink:title=" ">
<polygon fill="white" stroke="#666666" points="518,-78 363,-78 363,-48 518,-48 518,-78"/>
<text text-anchor="start" x="371" y="-66" font-family="Helvetica,sans-Serif" font-size="10.00">Terraria.UI.FancyErrorPrinter.</text>
<text text-anchor="middle" x="440.5" y="-55" font-family="Helvetica,sans-Serif" font-size="10.00">ShowFileSavingFailError</text>
</a>
</g>
</g>
<!-- Node2&#45;&gt;Node3 -->
<g id="edge3_Node000002_Node000003" class="edge">
<title>Node2&#45;&gt;Node3</title>
<g id="a_edge3_Node000002_Node000003"><a xlink:title=" ">
<path fill="none" stroke="#63b8ff" d="M327.04,-63C335.49,-63 344.2,-63 352.86,-63"/>
<polygon fill="#63b8ff" stroke="#63b8ff" points="352.97,-66.5 362.97,-63 352.97,-59.5 352.97,-66.5"/>
</a>
</g>
</g>
<!-- Node4 -->
<g id="Node000004" class="node">
<title>Node4</title>
<g id="a_Node000004"><a xlink:href="../../dd/df7/classTerraria_1_1UI_1_1FancyErrorPrinter_a6c9b4482b0b7da9f344d2576854450f9.html#a6c9b4482b0b7da9f344d2576854450f9" target="_top" xlink:title=" ">
<polygon fill="white" stroke="#666666" points="721,-126 566,-126 566,-96 721,-96 721,-126"/>
<text text-anchor="start" x="574" y="-114" font-family="Helvetica,sans-Serif" font-size="10.00">Terraria.UI.FancyErrorPrinter.</text>
<text text-anchor="middle" x="643.5" y="-103" font-family="Helvetica,sans-Serif" font-size="10.00">AppendSuggestions</text>
</a>
</g>
</g>
<!-- Node3&#45;&gt;Node4 -->
<g id="edge4_Node000003_Node000004" class="edge">
<title>Node3&#45;&gt;Node4</title>
<g id="a_edge4_Node000003_Node000004"><a xlink:title=" ">
<path fill="none" stroke="#63b8ff" d="M504.55,-78.06C525.22,-82.99 548.36,-88.52 569.69,-93.61"/>
<polygon fill="#63b8ff" stroke="#63b8ff" points="569.14,-97.08 579.68,-96 570.76,-90.27 569.14,-97.08"/>
</a>
</g>
</g>
<!-- Node5 -->
<g id="Node000005" class="node">
<title>Node5</title>
<g id="a_Node000005"><a xlink:href="../../dd/df7/classTerraria_1_1UI_1_1FancyErrorPrinter_a72a828c72dcd7b6c59a0cfc10196389e.html#a72a828c72dcd7b6c59a0cfc10196389e" target="_top" xlink:title=" ">
<polygon fill="white" stroke="#666666" points="721,-78 566,-78 566,-48 721,-48 721,-78"/>
<text text-anchor="start" x="574" y="-66" font-family="Helvetica,sans-Serif" font-size="10.00">Terraria.UI.FancyErrorPrinter.</text>
<text text-anchor="middle" x="643.5" y="-55" font-family="Helvetica,sans-Serif" font-size="10.00">IncludeOriginalMessage</text>
</a>
</g>
</g>
<!-- Node3&#45;&gt;Node5 -->
<g id="edge5_Node000003_Node000005" class="edge">
<title>Node3&#45;&gt;Node5</title>
<g id="a_edge5_Node000003_Node000005"><a xlink:title=" ">
<path fill="none" stroke="#63b8ff" d="M518.06,-63C530.28,-63 543.01,-63 555.45,-63"/>
<polygon fill="#63b8ff" stroke="#63b8ff" points="555.82,-66.5 565.82,-63 555.82,-59.5 555.82,-66.5"/>
</a>
</g>
</g>
<!-- Node6 -->
<g id="Node000006" class="node">
<title>Node6</title>
<g id="a_Node000006"><a xlink:href="../../d1/d0a/classTerraria_1_1ModLoader_1_1Engine_1_1ErrorReporting_abb9f3a04bc7c754a30dcf9b345b4e8c2.html#abb9f3a04bc7c754a30dcf9b345b4e8c2" target="_top" xlink:title=" ">
<polygon fill="white" stroke="#666666" points="733,-30 554,-30 554,0 733,0 733,-30"/>
<text text-anchor="start" x="562" y="-18" font-family="Helvetica,sans-Serif" font-size="10.00">Terraria.ModLoader.Engine.</text>
<text text-anchor="middle" x="643.5" y="-7" font-family="Helvetica,sans-Serif" font-size="10.00">ErrorReporting.MessageBoxShow</text>
</a>
</g>
</g>
<!-- Node3&#45;&gt;Node6 -->
<g id="edge6_Node000003_Node000006" class="edge">
<title>Node3&#45;&gt;Node6</title>
<g id="a_edge6_Node000003_Node000006"><a xlink:title=" ">
<path fill="none" stroke="#63b8ff" d="M504.55,-47.94C525.22,-43.01 548.36,-37.48 569.69,-32.39"/>
<polygon fill="#63b8ff" stroke="#63b8ff" points="570.76,-35.73 579.68,-30 569.14,-28.92 570.76,-35.73"/>
</a>
</g>
</g>
<!-- Node7 -->
<g id="Node000007" class="node">
<title>Node7</title>
<g id="a_Node000007"><a xlink:href="../../d4/d8f/classTerraria_1_1Localization_1_1Language_ae4636a4800b9ecbaa498954520462f78.html#ae4636a4800b9ecbaa498954520462f78" target="_top" xlink:title="Retrieves the text value for a specified localization key. The text returned will be for the currentl...">
<polygon fill="white" stroke="#666666" points="937,-30 769,-30 769,0 937,0 937,-30"/>
<text text-anchor="start" x="777" y="-18" font-family="Helvetica,sans-Serif" font-size="10.00">Terraria.Localization.Language.</text>
<text text-anchor="middle" x="853" y="-7" font-family="Helvetica,sans-Serif" font-size="10.00">GetTextValue</text>
</a>
</g>
</g>
<!-- Node6&#45;&gt;Node7 -->
<g id="edge7_Node000006_Node000007" class="edge">
<title>Node6&#45;&gt;Node7</title>
<g id="a_edge7_Node000006_Node000007"><a xlink:title=" ">
<path fill="none" stroke="#63b8ff" d="M733.1,-15C741.65,-15 750.34,-15 758.93,-15"/>
<polygon fill="#63b8ff" stroke="#63b8ff" points="758.96,-18.5 768.96,-15 758.96,-11.5 758.96,-18.5"/>
</a>
</g>
</g>
</g>
</svg>
