<?xml version="1.0" encoding="UTF-8" standalone="no"?>
<!DOCTYPE svg PUBLIC "-//W3C//DTD SVG 1.1//EN"
 "http://www.w3.org/Graphics/SVG/1.1/DTD/svg11.dtd">
<!-- Generated by graphviz version 2.43.0 (0)
 -->
<!-- Title: Terraria.WorldGen.MoveTownNPC Pages: 1 -->
<svg width="1019pt" height="643pt"
 viewBox="0.00 0.00 1019.00 643.00" xmlns="http://www.w3.org/2000/svg" xmlns:xlink="http://www.w3.org/1999/xlink">
<g id="graph0" class="graph" transform="scale(1 1) rotate(0) translate(4 639)">
<title>Terraria.WorldGen.MoveTownNPC</title>
<!-- Node1 -->
<g id="Node000001" class="node">
<title>Node1</title>
<g id="a_Node000001"><a xlink:title=" ">
<polygon fill="#999999" stroke="#666666" points="179,-364.5 0,-364.5 0,-345.5 179,-345.5 179,-364.5"/>
<text text-anchor="middle" x="89.5" y="-352.5" font-family="Helvetica,sans-Serif" font-size="10.00">Terraria.WorldGen.MoveTownNPC</text>
</a>
</g>
</g>
<!-- Node2 -->
<g id="Node000002" class="node">
<title>Node2</title>
<g id="a_Node000002"><a xlink:href="../../de/da1/classTerraria_1_1WorldGen_a2f1a98499bf9b13d2ce03f1d05130cec.html#a2f1a98499bf9b13d2ce03f1d05130cec" target="_top" xlink:title=" ">
<polygon fill="white" stroke="#666666" points="387,-570 215,-570 215,-540 387,-540 387,-570"/>
<text text-anchor="start" x="223" y="-558" font-family="Helvetica,sans-Serif" font-size="10.00">Terraria.WorldGen.CheckSpecial</text>
<text text-anchor="middle" x="301" y="-547" font-family="Helvetica,sans-Serif" font-size="10.00">TownNPCSpawningConditions</text>
</a>
</g>
</g>
<!-- Node1&#45;&gt;Node2 -->
<g id="edge1_Node000001_Node000002" class="edge">
<title>Node1&#45;&gt;Node2</title>
<g id="a_edge1_Node000001_Node000002"><a xlink:title=" ">
<path fill="none" stroke="#63b8ff" d="M100.6,-364.65C132.44,-395.04 231.22,-489.34 276.68,-532.73"/>
<polygon fill="#63b8ff" stroke="#63b8ff" points="274.36,-535.36 284.01,-539.73 279.19,-530.29 274.36,-535.36"/>
</a>
</g>
</g>
<!-- Node7 -->
<g id="Node000007" class="node">
<title>Node7</title>
<g id="a_Node000007"><a xlink:href="../../d4/d8f/classTerraria_1_1Localization_1_1Language_ae4636a4800b9ecbaa498954520462f78.html#ae4636a4800b9ecbaa498954520462f78" target="_top" xlink:title="Retrieves the text value for a specified localization key. The text returned will be for the currentl...">
<polygon fill="white" stroke="#666666" points="385,-450 217,-450 217,-420 385,-420 385,-450"/>
<text text-anchor="start" x="225" y="-438" font-family="Helvetica,sans-Serif" font-size="10.00">Terraria.Localization.Language.</text>
<text text-anchor="middle" x="301" y="-427" font-family="Helvetica,sans-Serif" font-size="10.00">GetTextValue</text>
</a>
</g>
</g>
<!-- Node1&#45;&gt;Node7 -->
<g id="edge6_Node000001_Node000007" class="edge">
<title>Node1&#45;&gt;Node7</title>
<g id="a_edge6_Node000001_Node000007"><a xlink:title=" ">
<path fill="none" stroke="#63b8ff" d="M109.54,-364.63C133.66,-376.57 176.69,-397.06 215,-411 220.54,-413.02 226.33,-414.97 232.17,-416.83"/>
<polygon fill="#63b8ff" stroke="#63b8ff" points="231.44,-420.26 242.02,-419.87 233.5,-413.57 231.44,-420.26"/>
</a>
</g>
</g>
<!-- Node8 -->
<g id="Node000008" class="node">
<title>Node8</title>
<g id="a_Node000008"><a xlink:href="../../da/dd5/classTerraria_1_1Main_a0ece77fc22bd9bbe975c0153aa28aa8d.html#a0ece77fc22bd9bbe975c0153aa28aa8d" target="_top" xlink:title=" ">
<polygon fill="white" stroke="#666666" points="363.5,-383.5 238.5,-383.5 238.5,-364.5 363.5,-364.5 363.5,-383.5"/>
<text text-anchor="middle" x="301" y="-371.5" font-family="Helvetica,sans-Serif" font-size="10.00">Terraria.Main.NewText</text>
</a>
</g>
</g>
<!-- Node1&#45;&gt;Node8 -->
<g id="edge7_Node000001_Node000008" class="edge">
<title>Node1&#45;&gt;Node8</title>
<g id="a_edge7_Node000001_Node000008"><a xlink:title=" ">
<path fill="none" stroke="#63b8ff" d="M179.04,-363.03C195.44,-364.52 212.38,-366.05 228.21,-367.49"/>
<polygon fill="#63b8ff" stroke="#63b8ff" points="228.15,-371 238.43,-368.42 228.78,-364.03 228.15,-371"/>
</a>
</g>
</g>
<!-- Node9 -->
<g id="Node000009" class="node">
<title>Node9</title>
<g id="a_Node000009"><a xlink:href="../../de/da1/classTerraria_1_1WorldGen_a815c3f9c4f1387fc22e833e45b583b26.html#a815c3f9c4f1387fc22e833e45b583b26" target="_top" xlink:title=" ">
<polygon fill="white" stroke="#666666" points="384,-346.5 218,-346.5 218,-327.5 384,-327.5 384,-346.5"/>
<text text-anchor="middle" x="301" y="-334.5" font-family="Helvetica,sans-Serif" font-size="10.00">Terraria.WorldGen.RoomNeeds</text>
</a>
</g>
</g>
<!-- Node1&#45;&gt;Node9 -->
<g id="edge9_Node000001_Node000009" class="edge">
<title>Node1&#45;&gt;Node9</title>
<g id="a_edge9_Node000001_Node000009"><a xlink:title=" ">
<path fill="none" stroke="#63b8ff" d="M179.04,-347.39C188.47,-346.58 198.09,-345.76 207.56,-344.94"/>
<polygon fill="#63b8ff" stroke="#63b8ff" points="208.11,-348.41 217.77,-344.06 207.51,-341.43 208.11,-348.41"/>
</a>
</g>
</g>
<!-- Node10 -->
<g id="Node000010" class="node">
<title>Node10</title>
<g id="a_Node000010"><a xlink:href="../../de/da1/classTerraria_1_1WorldGen_a6d3454b99f02d40254b98f7fa2b10a4c.html#a6d3454b99f02d40254b98f7fa2b10a4c" target="_top" xlink:title=" ">
<polygon fill="white" stroke="#666666" points="382,-309.5 220,-309.5 220,-290.5 382,-290.5 382,-309.5"/>
<text text-anchor="middle" x="301" y="-297.5" font-family="Helvetica,sans-Serif" font-size="10.00">Terraria.WorldGen.ScoreRoom</text>
</a>
</g>
</g>
<!-- Node1&#45;&gt;Node10 -->
<g id="edge10_Node000001_Node000010" class="edge">
<title>Node1&#45;&gt;Node10</title>
<g id="a_edge10_Node000001_Node000010"><a xlink:title=" ">
<path fill="none" stroke="#63b8ff" d="M121.57,-345.44C146.66,-337.86 182.96,-327.21 215,-319 224.67,-316.52 235,-314.06 245.01,-311.77"/>
<polygon fill="#63b8ff" stroke="#63b8ff" points="245.9,-315.16 254.88,-309.54 244.36,-308.33 245.9,-315.16"/>
</a>
</g>
</g>
<!-- Node20 -->
<g id="Node000020" class="node">
<title>Node20</title>
<g id="a_Node000020"><a xlink:href="../../de/da1/classTerraria_1_1WorldGen_a7b4baca52d165e8a9866e0376684a1c9.html#a7b4baca52d165e8a9866e0376684a1c9" target="_top" xlink:title=" ">
<polygon fill="white" stroke="#666666" points="380,-163 222,-163 222,-133 380,-133 380,-163"/>
<text text-anchor="start" x="230" y="-151" font-family="Helvetica,sans-Serif" font-size="10.00">Terraria.WorldGen.StartRoom</text>
<text text-anchor="middle" x="301" y="-140" font-family="Helvetica,sans-Serif" font-size="10.00">Check</text>
</a>
</g>
</g>
<!-- Node1&#45;&gt;Node20 -->
<g id="edge25_Node000001_Node000020" class="edge">
<title>Node1&#45;&gt;Node20</title>
<g id="a_edge25_Node000001_Node000020"><a xlink:title=" ">
<path fill="none" stroke="#63b8ff" d="M100.32,-345.29C131.98,-314.01 231.91,-215.28 277.24,-170.49"/>
<polygon fill="#63b8ff" stroke="#63b8ff" points="279.88,-172.8 284.54,-163.28 274.96,-167.82 279.88,-172.8"/>
</a>
</g>
</g>
<!-- Node3 -->
<g id="Node000003" class="node">
<title>Node3</title>
<g id="a_Node000003"><a xlink:href="../../d6/d21/structTerraria_1_1Tile_a9a3f37926e6d7f23ba057d6c0aeab1a5.html#a9a3f37926e6d7f23ba057d6c0aeab1a5" target="_top" xlink:title="Legacy code, use P:Terraria.Tile.HasTile instead.">
<polygon fill="white" stroke="#666666" points="778.5,-285.5 671.5,-285.5 671.5,-266.5 778.5,-266.5 778.5,-285.5"/>
<text text-anchor="middle" x="725" y="-273.5" font-family="Helvetica,sans-Serif" font-size="10.00">Terraria.Tile.active</text>
</a>
</g>
</g>
<!-- Node2&#45;&gt;Node3 -->
<g id="edge2_Node000002_Node000003" class="edge">
<title>Node2&#45;&gt;Node3</title>
<g id="a_edge2_Node000002_Node000003"><a xlink:title=" ">
<path fill="none" stroke="#63b8ff" d="M347.25,-570.01C410.64,-588.03 526.86,-609.84 605,-558 697,-496.97 718.05,-349.27 722.72,-295.77"/>
<polygon fill="#63b8ff" stroke="#63b8ff" points="726.22,-295.82 723.5,-285.58 719.24,-295.29 726.22,-295.82"/>
</a>
</g>
</g>
<!-- Node4 -->
<g id="Node000004" class="node">
<title>Node4</title>
<g id="a_Node000004"><a xlink:href="../../dd/dc6/classTerraria_1_1ModLoader_1_1NPCLoader_a07f0bdc4b1c6a49da42819a9ac9e94b3.html#a07f0bdc4b1c6a49da42819a9ac9e94b3" target="_top" xlink:title=" ">
<polygon fill="white" stroke="#666666" points="598,-635 430,-635 430,-605 598,-605 598,-635"/>
<text text-anchor="start" x="438" y="-623" font-family="Helvetica,sans-Serif" font-size="10.00">Terraria.ModLoader.NPCLoader.</text>
<text text-anchor="middle" x="514" y="-612" font-family="Helvetica,sans-Serif" font-size="10.00">CheckConditions</text>
</a>
</g>
</g>
<!-- Node2&#45;&gt;Node4 -->
<g id="edge3_Node000002_Node000004" class="edge">
<title>Node2&#45;&gt;Node4</title>
<g id="a_edge3_Node000002_Node000004"><a xlink:title=" ">
<path fill="none" stroke="#63b8ff" d="M350.94,-570.08C381.72,-579.56 421.62,-591.85 454.13,-601.86"/>
<polygon fill="#63b8ff" stroke="#63b8ff" points="453.38,-605.29 463.96,-604.89 455.44,-598.6 453.38,-605.29"/>
</a>
</g>
</g>
<!-- Node6 -->
<g id="Node000006" class="node">
<title>Node6</title>
<g id="a_Node000006"><a xlink:href="../../de/da1/classTerraria_1_1WorldGen_ab0d9539580ad7e7b94eeb1cd570e4561.html#ab0d9539580ad7e7b94eeb1cd570e4561" target="_top" xlink:title=" ">
<polygon fill="white" stroke="#666666" points="587,-549 441,-549 441,-519 587,-519 587,-549"/>
<text text-anchor="start" x="449" y="-537" font-family="Helvetica,sans-Serif" font-size="10.00">Terraria.WorldGen.Housing</text>
<text text-anchor="middle" x="514" y="-526" font-family="Helvetica,sans-Serif" font-size="10.00">_GetTestedRoomBounds</text>
</a>
</g>
</g>
<!-- Node2&#45;&gt;Node6 -->
<g id="edge5_Node000002_Node000006" class="edge">
<title>Node2&#45;&gt;Node6</title>
<g id="a_edge5_Node000002_Node000006"><a xlink:title=" ">
<path fill="none" stroke="#63b8ff" d="M387.21,-546.52C401.48,-545.1 416.26,-543.63 430.46,-542.22"/>
<polygon fill="#63b8ff" stroke="#63b8ff" points="431.07,-545.67 440.68,-541.2 430.38,-538.71 431.07,-545.67"/>
</a>
</g>
</g>
<!-- Node5 -->
<g id="Node000005" class="node">
<title>Node5</title>
<g id="a_Node000005"><a xlink:href="../../dd/dc6/classTerraria_1_1ModLoader_1_1NPCLoader_a1e9eae6ec444b4a23e1a809cfea3be94.html#a1e9eae6ec444b4a23e1a809cfea3be94" target="_top" xlink:title="Gets the ModNPC template instance corresponding to the specified type (not the clone/new instance whi...">
<polygon fill="white" stroke="#666666" points="809,-635 641,-635 641,-605 809,-605 809,-635"/>
<text text-anchor="start" x="649" y="-623" font-family="Helvetica,sans-Serif" font-size="10.00">Terraria.ModLoader.NPCLoader.</text>
<text text-anchor="middle" x="725" y="-612" font-family="Helvetica,sans-Serif" font-size="10.00">GetNPC</text>
</a>
</g>
</g>
<!-- Node4&#45;&gt;Node5 -->
<g id="edge4_Node000004_Node000005" class="edge">
<title>Node4&#45;&gt;Node5</title>
<g id="a_edge4_Node000004_Node000005"><a xlink:title=" ">
<path fill="none" stroke="#63b8ff" d="M598.2,-620C608.81,-620 619.73,-620 630.49,-620"/>
<polygon fill="#63b8ff" stroke="#63b8ff" points="630.74,-623.5 640.74,-620 630.74,-616.5 630.74,-623.5"/>
</a>
</g>
</g>
<!-- Node8&#45;&gt;Node8 -->
<g id="edge8_Node000008_Node000008" class="edge">
<title>Node8&#45;&gt;Node8</title>
<g id="a_edge8_Node000008_Node000008"><a xlink:title=" ">
<path fill="none" stroke="#63b8ff" d="M268.63,-383.58C252.89,-392.23 263.68,-401.5 301,-401.5 327.83,-401.5 340.95,-396.71 340.36,-390.81"/>
<polygon fill="#63b8ff" stroke="#63b8ff" points="342.84,-388.34 333.37,-383.58 337.8,-393.2 342.84,-388.34"/>
</a>
</g>
</g>
<!-- Node10&#45;&gt;Node6 -->
<g id="edge16_Node000010_Node000006" class="edge">
<title>Node10&#45;&gt;Node6</title>
<g id="a_edge16_Node000010_Node000006"><a xlink:title=" ">
<path fill="none" stroke="#63b8ff" d="M374.44,-309.53C379.06,-312.08 383.32,-315.2 387,-319 447.05,-381.1 364.23,-446.69 423,-510 425.77,-512.98 428.86,-515.61 432.19,-517.92"/>
<polygon fill="#63b8ff" stroke="#63b8ff" points="430.5,-520.99 440.89,-523.05 434.05,-514.96 430.5,-520.99"/>
</a>
</g>
</g>
<!-- Node11 -->
<g id="Node000011" class="node">
<title>Node11</title>
<g id="a_Node000011"><a xlink:href="../../de/da1/classTerraria_1_1WorldGen_a4ad6319c4e7343ad10a36a8a72ca093a.html#a4ad6319c4e7343ad10a36a8a72ca093a" target="_top" xlink:title=" ">
<polygon fill="white" stroke="#666666" points="590.5,-501 437.5,-501 437.5,-471 590.5,-471 590.5,-501"/>
<text text-anchor="start" x="445.5" y="-489" font-family="Helvetica,sans-Serif" font-size="10.00">Terraria.WorldGen.CountTile</text>
<text text-anchor="middle" x="514" y="-478" font-family="Helvetica,sans-Serif" font-size="10.00">TypesInArea</text>
</a>
</g>
</g>
<!-- Node10&#45;&gt;Node11 -->
<g id="edge11_Node000010_Node000011" class="edge">
<title>Node10&#45;&gt;Node11</title>
<g id="a_edge11_Node000010_Node000011"><a xlink:title=" ">
<path fill="none" stroke="#63b8ff" d="M373.79,-309.56C378.62,-312.1 383.1,-315.2 387,-319 433.96,-364.72 376.98,-415.33 423,-462 424.84,-463.86 426.8,-465.59 428.87,-467.18"/>
<polygon fill="#63b8ff" stroke="#63b8ff" points="427.04,-470.16 437.32,-472.71 430.87,-464.31 427.04,-470.16"/>
</a>
</g>
</g>
<!-- Node12 -->
<g id="Node000012" class="node">
<title>Node12</title>
<g id="a_Node000012"><a xlink:href="../../de/da1/classTerraria_1_1WorldGen_a6fa3fbad5fdc63f35042c6fc483131c2.html#a6fa3fbad5fdc63f35042c6fc483131c2" target="_top" xlink:title=" ">
<polygon fill="white" stroke="#666666" points="585,-435 443,-435 443,-405 585,-405 585,-435"/>
<text text-anchor="start" x="451" y="-423" font-family="Helvetica,sans-Serif" font-size="10.00">Terraria.WorldGen.GetTile</text>
<text text-anchor="middle" x="514" y="-412" font-family="Helvetica,sans-Serif" font-size="10.00">TypeCountByCategory</text>
</a>
</g>
</g>
<!-- Node10&#45;&gt;Node12 -->
<g id="edge12_Node000010_Node000012" class="edge">
<title>Node10&#45;&gt;Node12</title>
<g id="a_edge12_Node000010_Node000012"><a xlink:title=" ">
<path fill="none" stroke="#63b8ff" d="M371.35,-309.66C376.97,-312.14 382.28,-315.21 387,-319 416.45,-342.66 394.03,-371.75 423,-396 426.28,-398.74 429.84,-401.18 433.59,-403.34"/>
<polygon fill="#63b8ff" stroke="#63b8ff" points="432.13,-406.52 442.64,-407.89 435.28,-400.27 432.13,-406.52"/>
</a>
</g>
</g>
<!-- Node13 -->
<g id="Node000013" class="node">
<title>Node13</title>
<g id="a_Node000013"><a xlink:href="../../de/da1/classTerraria_1_1WorldGen_a9fcb8f32ccfbd7ada4861ce692f61468.html#a9fcb8f32ccfbd7ada4861ce692f61468" target="_top" xlink:title=" ">
<polygon fill="white" stroke="#666666" points="587,-387 441,-387 441,-357 587,-357 587,-387"/>
<text text-anchor="start" x="449" y="-375" font-family="Helvetica,sans-Serif" font-size="10.00">Terraria.WorldGen.Housing</text>
<text text-anchor="middle" x="514" y="-364" font-family="Helvetica,sans-Serif" font-size="10.00">_CheckIfInRoom</text>
</a>
</g>
</g>
<!-- Node10&#45;&gt;Node13 -->
<g id="edge14_Node000010_Node000013" class="edge">
<title>Node10&#45;&gt;Node13</title>
<g id="a_edge14_Node000010_Node000013"><a xlink:title=" ">
<path fill="none" stroke="#63b8ff" d="M361.26,-309.56C370.12,-312.03 378.96,-315.13 387,-319 405.51,-327.92 404.68,-338.71 423,-348 426.73,-349.89 430.63,-351.65 434.62,-353.27"/>
<polygon fill="#63b8ff" stroke="#63b8ff" points="433.47,-356.58 444.07,-356.84 435.95,-350.03 433.47,-356.58"/>
</a>
</g>
</g>
<!-- Node14 -->
<g id="Node000014" class="node">
<title>Node14</title>
<g id="a_Node000014"><a xlink:href="../../de/da1/classTerraria_1_1WorldGen_a2cd76fff829ce08fdb5267b761b0f95c.html#a2cd76fff829ce08fdb5267b761b0f95c" target="_top" xlink:title=" ">
<polygon fill="white" stroke="#666666" points="587,-339 441,-339 441,-309 587,-309 587,-339"/>
<text text-anchor="start" x="449" y="-327" font-family="Helvetica,sans-Serif" font-size="10.00">Terraria.WorldGen.Housing</text>
<text text-anchor="middle" x="514" y="-316" font-family="Helvetica,sans-Serif" font-size="10.00">_CheckIfIsCeiling</text>
</a>
</g>
</g>
<!-- Node10&#45;&gt;Node14 -->
<g id="edge15_Node000010_Node000014" class="edge">
<title>Node10&#45;&gt;Node14</title>
<g id="a_edge15_Node000010_Node000014"><a xlink:title=" ">
<path fill="none" stroke="#63b8ff" d="M382.07,-309.11C397.95,-310.91 414.64,-312.81 430.59,-314.63"/>
<polygon fill="#63b8ff" stroke="#63b8ff" points="430.62,-318.15 440.95,-315.8 431.41,-311.2 430.62,-318.15"/>
</a>
</g>
</g>
<!-- Node15 -->
<g id="Node000015" class="node">
<title>Node15</title>
<g id="a_Node000015"><a xlink:href="../../de/da1/classTerraria_1_1WorldGen_aad6421d4724ea2b407b3d880e86695ae.html#aad6421d4724ea2b407b3d880e86695ae" target="_top" xlink:title=" ">
<polygon fill="white" stroke="#666666" points="584,-291 444,-291 444,-261 584,-261 584,-291"/>
<text text-anchor="start" x="452" y="-279" font-family="Helvetica,sans-Serif" font-size="10.00">Terraria.WorldGen.IsOpen</text>
<text text-anchor="middle" x="514" y="-268" font-family="Helvetica,sans-Serif" font-size="10.00">DoorAnchorFrame</text>
</a>
</g>
</g>
<!-- Node10&#45;&gt;Node15 -->
<g id="edge17_Node000010_Node000015" class="edge">
<title>Node10&#45;&gt;Node15</title>
<g id="a_edge17_Node000010_Node000015"><a xlink:title=" ">
<path fill="none" stroke="#63b8ff" d="M382.07,-290.89C398.87,-288.98 416.58,-286.97 433.37,-285.06"/>
<polygon fill="#63b8ff" stroke="#63b8ff" points="434.14,-288.49 443.68,-283.88 433.35,-281.54 434.14,-288.49"/>
</a>
</g>
</g>
<!-- Node16 -->
<g id="Node000016" class="node">
<title>Node16</title>
<g id="a_Node000016"><a xlink:href="../../d6/d21/structTerraria_1_1Tile_a38bb9749f89eeb6c767e86efa96dbc91.html#a38bb9749f89eeb6c767e86efa96dbc91" target="_top" xlink:title="Legacy code, use P:Terraria.Tile.HasUnactuatedTile instead.">
<polygon fill="white" stroke="#666666" points="570.5,-242.5 457.5,-242.5 457.5,-223.5 570.5,-223.5 570.5,-242.5"/>
<text text-anchor="middle" x="514" y="-230.5" font-family="Helvetica,sans-Serif" font-size="10.00">Terraria.Tile.nactive</text>
</a>
</g>
</g>
<!-- Node10&#45;&gt;Node16 -->
<g id="edge19_Node000010_Node000016" class="edge">
<title>Node10&#45;&gt;Node16</title>
<g id="a_edge19_Node000010_Node000016"><a xlink:title=" ">
<path fill="none" stroke="#63b8ff" d="M323.03,-290.39C346.87,-279.8 387.08,-262.83 423,-252 431.76,-249.36 441.1,-246.95 450.33,-244.8"/>
<polygon fill="#63b8ff" stroke="#63b8ff" points="451.28,-248.17 460.27,-242.57 449.75,-241.34 451.28,-248.17"/>
</a>
</g>
</g>
<!-- Node17 -->
<g id="Node000017" class="node">
<title>Node17</title>
<g id="a_Node000017"><a xlink:href="../../de/da1/classTerraria_1_1WorldGen_a998def8205767fbf8123bf2af2240afc.html#a998def8205767fbf8123bf2af2240afc" target="_top" xlink:title=" ">
<polygon fill="white" stroke="#666666" points="595,-205 433,-205 433,-175 595,-175 595,-205"/>
<text text-anchor="start" x="441" y="-193" font-family="Helvetica,sans-Serif" font-size="10.00">Terraria.WorldGen.ScoreRoom</text>
<text text-anchor="middle" x="514" y="-182" font-family="Helvetica,sans-Serif" font-size="10.00">_CanBeHomeSpot</text>
</a>
</g>
</g>
<!-- Node10&#45;&gt;Node17 -->
<g id="edge20_Node000010_Node000017" class="edge">
<title>Node10&#45;&gt;Node17</title>
<g id="a_edge20_Node000010_Node000017"><a xlink:title=" ">
<path fill="none" stroke="#63b8ff" d="M312.87,-290.4C333.13,-272.96 378.67,-235.96 423,-215 427.95,-212.66 433.16,-210.5 438.47,-208.52"/>
<polygon fill="#63b8ff" stroke="#63b8ff" points="439.83,-211.75 448.11,-205.14 437.52,-205.15 439.83,-211.75"/>
</a>
</g>
</g>
<!-- Node18 -->
<g id="Node000018" class="node">
<title>Node18</title>
<g id="a_Node000018"><a xlink:href="../../de/da1/classTerraria_1_1WorldGen_a2cf428a0c62fdd581dc03ec25557c08e.html#a2cf428a0c62fdd581dc03ec25557c08e" target="_top" xlink:title=" ">
<polygon fill="white" stroke="#666666" points="605,-157 423,-157 423,-127 605,-127 605,-157"/>
<text text-anchor="start" x="431" y="-145" font-family="Helvetica,sans-Serif" font-size="10.00">Terraria.WorldGen.ScoreRoom</text>
<text text-anchor="middle" x="514" y="-134" font-family="Helvetica,sans-Serif" font-size="10.00">_IsThisRoomOccupiedBySomeone</text>
</a>
</g>
</g>
<!-- Node10&#45;&gt;Node18 -->
<g id="edge22_Node000010_Node000018" class="edge">
<title>Node10&#45;&gt;Node18</title>
<g id="a_edge22_Node000010_Node000018"><a xlink:title=" ">
<path fill="none" stroke="#63b8ff" d="M307.96,-290.15C323.56,-265.28 368.17,-199.5 423,-166 425.83,-164.27 428.78,-162.67 431.82,-161.17"/>
<polygon fill="#63b8ff" stroke="#63b8ff" points="433.43,-164.29 441.16,-157.04 430.6,-157.89 433.43,-164.29"/>
</a>
</g>
</g>
<!-- Node19 -->
<g id="Node000019" class="node">
<title>Node19</title>
<g id="a_Node000019"><a xlink:href="../../de/d1d/classTerraria_1_1Collision_ae2e70996313c387cdb3066b8370d372c.html#ae2e70996313c387cdb3066b8370d372c" target="_top" xlink:title=" ">
<polygon fill="white" stroke="#666666" points="576.5,-91 451.5,-91 451.5,-61 576.5,-61 576.5,-91"/>
<text text-anchor="start" x="459.5" y="-79" font-family="Helvetica,sans-Serif" font-size="10.00">Terraria.Collision.Solid</text>
<text text-anchor="middle" x="514" y="-68" font-family="Helvetica,sans-Serif" font-size="10.00">Tiles</text>
</a>
</g>
</g>
<!-- Node10&#45;&gt;Node19 -->
<g id="edge23_Node000010_Node000019" class="edge">
<title>Node10&#45;&gt;Node19</title>
<g id="a_edge23_Node000010_Node000019"><a xlink:title=" ">
<path fill="none" stroke="#63b8ff" d="M308.48,-290.24C333.5,-252.53 422.51,-118.43 423,-118 433.62,-108.86 446.57,-101.29 459.3,-95.22"/>
<polygon fill="#63b8ff" stroke="#63b8ff" points="460.83,-98.37 468.49,-91.06 457.94,-91.99 460.83,-98.37"/>
</a>
</g>
</g>
<!-- Node12&#45;&gt;Node12 -->
<g id="edge13_Node000012_Node000012" class="edge">
<title>Node12&#45;&gt;Node12</title>
<g id="a_edge13_Node000012_Node000012"><a xlink:title=" ">
<path fill="none" stroke="#63b8ff" d="M477.09,-435.28C468.88,-444.41 481.19,-453 514,-453 533.48,-453 545.74,-449.97 550.76,-445.6"/>
<polygon fill="#63b8ff" stroke="#63b8ff" points="554.26,-445.33 550.91,-435.28 547.26,-445.22 554.26,-445.33"/>
</a>
</g>
</g>
<!-- Node15&#45;&gt;Node3 -->
<g id="edge18_Node000015_Node000003" class="edge">
<title>Node15&#45;&gt;Node3</title>
<g id="a_edge18_Node000015_Node000003"><a xlink:title=" ">
<path fill="none" stroke="#63b8ff" d="M584.01,-276C608.88,-276 636.79,-276 661.1,-276"/>
<polygon fill="#63b8ff" stroke="#63b8ff" points="661.28,-279.5 671.28,-276 661.28,-272.5 661.28,-279.5"/>
</a>
</g>
</g>
<!-- Node17&#45;&gt;Node3 -->
<g id="edge21_Node000017_Node000003" class="edge">
<title>Node17&#45;&gt;Node3</title>
<g id="a_edge21_Node000017_Node000003"><a xlink:title=" ">
<path fill="none" stroke="#63b8ff" d="M575.59,-205.01C585.53,-207.99 595.63,-211.34 605,-215 638.64,-228.14 675.34,-247.83 698.96,-261.27"/>
<polygon fill="#63b8ff" stroke="#63b8ff" points="697.52,-264.48 707.93,-266.43 701.01,-258.41 697.52,-264.48"/>
</a>
</g>
</g>
<!-- Node19&#45;&gt;Node19 -->
<g id="edge24_Node000019_Node000019" class="edge">
<title>Node19&#45;&gt;Node19</title>
<g id="a_edge24_Node000019_Node000019"><a xlink:title=" ">
<path fill="none" stroke="#63b8ff" d="M477.09,-91.28C468.88,-100.41 481.19,-109 514,-109 533.48,-109 545.74,-105.97 550.76,-101.6"/>
<polygon fill="#63b8ff" stroke="#63b8ff" points="554.26,-101.33 550.91,-91.28 547.26,-101.22 554.26,-101.33"/>
</a>
</g>
</g>
<!-- Node21 -->
<g id="Node000021" class="node">
<title>Node21</title>
<g id="a_Node000021"><a xlink:href="../../de/da1/classTerraria_1_1WorldGen_a220b4dfb3fa88b9b9d63b08321753682.html#a220b4dfb3fa88b9b9d63b08321753682" target="_top" xlink:title=" ">
<polygon fill="white" stroke="#666666" points="596.5,-24.5 431.5,-24.5 431.5,-5.5 596.5,-5.5 596.5,-24.5"/>
<text text-anchor="middle" x="514" y="-12.5" font-family="Helvetica,sans-Serif" font-size="10.00">Terraria.WorldGen.CheckRoom</text>
</a>
</g>
</g>
<!-- Node20&#45;&gt;Node21 -->
<g id="edge26_Node000020_Node000021" class="edge">
<title>Node20&#45;&gt;Node21</title>
<g id="a_edge26_Node000020_Node000021"><a xlink:title=" ">
<path fill="none" stroke="#63b8ff" d="M318.14,-132.73C340.36,-112.3 382.29,-75.87 423,-52 439.05,-42.59 457.95,-34.43 474.27,-28.18"/>
<polygon fill="#63b8ff" stroke="#63b8ff" points="475.9,-31.31 484.06,-24.55 473.47,-24.75 475.9,-31.31"/>
</a>
</g>
</g>
<!-- Node21&#45;&gt;Node21 -->
<g id="edge27_Node000021_Node000021" class="edge">
<title>Node21&#45;&gt;Node21</title>
<g id="a_edge27_Node000021_Node000021"><a xlink:title=" ">
<path fill="none" stroke="#63b8ff" d="M481.63,-24.58C465.89,-33.23 476.68,-42.5 514,-42.5 540.83,-42.5 553.95,-37.71 553.36,-31.81"/>
<polygon fill="#63b8ff" stroke="#63b8ff" points="555.84,-29.34 546.37,-24.58 550.8,-34.2 555.84,-29.34"/>
</a>
</g>
</g>
<!-- Node22 -->
<g id="Node000022" class="node">
<title>Node22</title>
<g id="a_Node000022"><a xlink:href="../../d1/d70/classTerraria_1_1ModLoader_1_1TileLoader_ab73794a7ec58f6836ed9e52f714dfc5c.html#ab73794a7ec58f6836ed9e52f714dfc5c" target="_top" xlink:title=" ">
<polygon fill="white" stroke="#666666" points="808,-30 642,-30 642,0 808,0 808,-30"/>
<text text-anchor="start" x="650" y="-18" font-family="Helvetica,sans-Serif" font-size="10.00">Terraria.ModLoader.TileLoader.</text>
<text text-anchor="middle" x="725" y="-7" font-family="Helvetica,sans-Serif" font-size="10.00">CloseDoorID</text>
</a>
</g>
</g>
<!-- Node21&#45;&gt;Node22 -->
<g id="edge28_Node000021_Node000022" class="edge">
<title>Node21&#45;&gt;Node22</title>
<g id="a_edge28_Node000021_Node000022"><a xlink:title=" ">
<path fill="none" stroke="#63b8ff" d="M596.7,-15C608.13,-15 619.93,-15 631.54,-15"/>
<polygon fill="#63b8ff" stroke="#63b8ff" points="631.67,-18.5 641.67,-15 631.67,-11.5 631.67,-18.5"/>
</a>
</g>
</g>
<!-- Node23 -->
<g id="Node000023" class="node">
<title>Node23</title>
<g id="a_Node000023"><a xlink:href="../../d1/d70/classTerraria_1_1ModLoader_1_1TileLoader_a046d2f0670d83bdc212241b0f87ff2de.html#a046d2f0670d83bdc212241b0f87ff2de" target="_top" xlink:title="Gets the ModTile instance with the given type. If no ModTile with the given type exists,...">
<polygon fill="white" stroke="#666666" points="1011,-30 845,-30 845,0 1011,0 1011,-30"/>
<text text-anchor="start" x="853" y="-18" font-family="Helvetica,sans-Serif" font-size="10.00">Terraria.ModLoader.TileLoader.</text>
<text text-anchor="middle" x="928" y="-7" font-family="Helvetica,sans-Serif" font-size="10.00">GetTile</text>
</a>
</g>
</g>
<!-- Node22&#45;&gt;Node23 -->
<g id="edge29_Node000022_Node000023" class="edge">
<title>Node22&#45;&gt;Node23</title>
<g id="a_edge29_Node000022_Node000023"><a xlink:title=" ">
<path fill="none" stroke="#63b8ff" d="M808.04,-15C816.88,-15 825.91,-15 834.85,-15"/>
<polygon fill="#63b8ff" stroke="#63b8ff" points="834.89,-18.5 844.89,-15 834.89,-11.5 834.89,-18.5"/>
</a>
</g>
</g>
</g>
</svg>
