<?xml version="1.0" encoding="UTF-8" standalone="no"?>
<!DOCTYPE svg PUBLIC "-//W3C//DTD SVG 1.1//EN"
 "http://www.w3.org/Graphics/SVG/1.1/DTD/svg11.dtd">
<!-- Generated by graphviz version 2.43.0 (0)
 -->
<!-- Title: Terraria.WorldGen.CheckGnome Pages: 1 -->
<!--zoomable 179 -->

<svg id="main" version="1.1" xmlns="http://www.w3.org/2000/svg" xmlns:xlink="http://www.w3.org/1999/xlink" xml:space="preserve" onload="init(evt)">
<style type="text/css"><![CDATA[
.node, .edge {opacity: 0.7;}
.node.selected, .edge.selected {opacity: 1;}
.edge:hover path { stroke: red; }
.edge:hover polygon { stroke: red; fill: red; }
]]></style>

<defs>
  <circle id="rim" cx="0" cy="0" r="7"/>
  <circle id="rim2" cx="0" cy="0" r="3.5"/>
  <g id="zoomPlus">
    <use xlink:href="#rim" fill="#404040"><set attributeName="fill" to="#808080" begin="zoomplus.mouseover" end="zoomplus.mouseout"/></use>
    <path d="M-4,0h8M0,-4v8" fill="none" stroke="white" stroke-width="1.5" pointer-events="none"/>
  </g>
  <g id="zoomMin">
    <use xlink:href="#rim" fill="#404040"><set attributeName="fill" to="#808080" begin="zoomminus.mouseover" end="zoomminus.mouseout"/></use>
    <path d="M-4,0h8" fill="none" stroke="white" stroke-width="1.5" pointer-events="none"/>
  </g>
  <g id="arrowUp" transform="translate(30 24)">
    <use xlink:href="#rim"/>
    <path pointer-events="none" fill="none" stroke="white" stroke-width="1.5" d="M0,-3.0v7 M-2.5,-0.5L0,-3.0L2.5,-0.5"/>
  </g>
  <g id="arrowRight" transform="rotate(90) translate(36 -43)">
    <use xlink:href="#rim"/>
    <path pointer-events="none" fill="none" stroke="white" stroke-width="1.5" d="M0,-3.0v7 M-2.5,-0.5L0,-3.0L2.5,-0.5"/>
  </g>
  <g id="arrowDown" transform="rotate(180) translate(-30 -48)">
    <use xlink:href="#rim"/>
    <path pointer-events="none" fill="none" stroke="white" stroke-width="1.5" d="M0,-3.0v7 M-2.5,-0.5L0,-3.0L2.5,-0.5"/>
  </g>
  <g id="arrowLeft" transform="rotate(270) translate(-36 17)">
    <use xlink:href="#rim"/>
    <path pointer-events="none" fill="none" stroke="white" stroke-width="1.5" d="M0,-3.0v7 M-2.5,-0.5L0,-3.0L2.5,-0.5"/>
  </g>
  <g id="resetDef">
    <use xlink:href="#rim2" fill="#404040"><set attributeName="fill" to="#808080" begin="reset.mouseover" end="reset.mouseout"/></use>
  </g>
</defs>
<script type="application/ecmascript">
var viewWidth = 607;
var viewHeight = 179;
var sectionId = 'dynsection-0';
</script>
<script type="application/ecmascript" xlink:href="../../svg.min.js"/>
<svg id="graph" class="graph">
<g id="viewport">
<title>Terraria.WorldGen.CheckGnome</title>
<!-- Node1 -->
<g id="Node000001" class="node">
<title>Node1</title>
<g id="a_Node000001"><a xlink:title=" ">
<polygon fill="#999999" stroke="#666666" points="172,-80 0,-80 0,-61 172,-61 172,-80"/>
<text text-anchor="middle" x="86" y="-68" font-family="Helvetica,sans-Serif" font-size="10.00">Terraria.WorldGen.CheckGnome</text>
</a>
</g>
</g>
<!-- Node2 -->
<g id="Node000002" class="node">
<title>Node2</title>
<g id="a_Node000002"><a xlink:href="../../d1/d70/classTerraria_1_1ModLoader_1_1TileLoader_adf8888d477e5cfcd210f209f80c899f0.html#adf8888d477e5cfcd210f209f80c899f0" target="_top" xlink:title=" ">
<polygon fill="white" stroke="#666666" points="397,-141 208,-141 208,-122 397,-122 397,-141"/>
<text text-anchor="middle" x="302.5" y="-129" font-family="Helvetica,sans-Serif" font-size="10.00">Terraria.ModLoader.TileLoader.Drop</text>
</a>
</g>
</g>
<!-- Node1&#45;&gt;Node2 -->
<g id="edge1_Node000001_Node000002" class="edge">
<title>Node1&#45;&gt;Node2</title>
<g id="a_edge1_Node000001_Node000002"><a xlink:title=" ">
<path fill="none" stroke="#63b8ff" d="M111.72,-80.17C135.96,-89.4 174.11,-103.22 208,-112.5 217.71,-115.16 228.07,-117.62 238.23,-119.84"/>
<polygon fill="#63b8ff" stroke="#63b8ff" points="237.79,-123.32 248.3,-121.97 239.24,-116.48 237.79,-123.32"/>
</a>
</g>
</g>
<!-- Node5 -->
<g id="Node000005" class="node">
<title>Node5</title>
<g id="a_Node000005"><a xlink:href="../../dc/dd7/classTerraria_1_1Framing_adf8f859033cd5cb805b13aad59a55236.html#adf8f859033cd5cb805b13aad59a55236" target="_top" xlink:title=" ">
<polygon fill="white" stroke="#666666" points="369.5,-85.5 235.5,-85.5 235.5,-55.5 369.5,-55.5 369.5,-85.5"/>
<text text-anchor="start" x="243.5" y="-73.5" font-family="Helvetica,sans-Serif" font-size="10.00">Terraria.Framing.GetTile</text>
<text text-anchor="middle" x="302.5" y="-62.5" font-family="Helvetica,sans-Serif" font-size="10.00">Safely</text>
</a>
</g>
</g>
<!-- Node1&#45;&gt;Node5 -->
<g id="edge4_Node000001_Node000005" class="edge">
<title>Node1&#45;&gt;Node5</title>
<g id="a_edge4_Node000001_Node000005"><a xlink:title=" ">
<path fill="none" stroke="#63b8ff" d="M172.08,-70.5C189.68,-70.5 208.12,-70.5 225.37,-70.5"/>
<polygon fill="#63b8ff" stroke="#63b8ff" points="225.38,-74 235.38,-70.5 225.38,-67 225.38,-74"/>
</a>
</g>
</g>
<!-- Node6 -->
<g id="Node000006" class="node">
<title>Node6</title>
<g id="a_Node000006"><a xlink:href="../../db/d79/classTerraria_1_1Item_ae0f057a4ed207ce83cd3141063371604.html#ae0f057a4ed207ce83cd3141063371604" target="_top" xlink:title="This particular overload uses two Vector2 to determine the actual spawn position.">
<polygon fill="white" stroke="#666666" points="365.5,-19 239.5,-19 239.5,0 365.5,0 365.5,-19"/>
<text text-anchor="middle" x="302.5" y="-7" font-family="Helvetica,sans-Serif" font-size="10.00">Terraria.Item.NewItem</text>
</a>
</g>
</g>
<!-- Node1&#45;&gt;Node6 -->
<g id="edge6_Node000001_Node000006" class="edge">
<title>Node1&#45;&gt;Node6</title>
<g id="a_edge6_Node000001_Node000006"><a xlink:title=" ">
<path fill="none" stroke="#63b8ff" d="M120.52,-60.97C157.63,-50.41 217.59,-33.36 258.23,-21.8"/>
<polygon fill="#63b8ff" stroke="#63b8ff" points="259.21,-25.17 267.87,-19.06 257.29,-18.43 259.21,-25.17"/>
</a>
</g>
</g>
<!-- Node3 -->
<g id="Node000003" class="node">
<title>Node3</title>
<g id="a_Node000003"><a xlink:href="../../d1/d70/classTerraria_1_1ModLoader_1_1TileLoader_a046d2f0670d83bdc212241b0f87ff2de.html#a046d2f0670d83bdc212241b0f87ff2de" target="_top" xlink:title="Gets the ModTile instance with the given type. If no ModTile with the given type exists,...">
<polygon fill="white" stroke="#666666" points="599,-170.5 433,-170.5 433,-140.5 599,-140.5 599,-170.5"/>
<text text-anchor="start" x="441" y="-158.5" font-family="Helvetica,sans-Serif" font-size="10.00">Terraria.ModLoader.TileLoader.</text>
<text text-anchor="middle" x="516" y="-147.5" font-family="Helvetica,sans-Serif" font-size="10.00">GetTile</text>
</a>
</g>
</g>
<!-- Node2&#45;&gt;Node3 -->
<g id="edge2_Node000002_Node000003" class="edge">
<title>Node2&#45;&gt;Node3</title>
<g id="a_edge2_Node000002_Node000003"><a xlink:title=" ">
<path fill="none" stroke="#63b8ff" d="M387.39,-141.02C398.99,-142.34 410.95,-143.69 422.69,-145.03"/>
<polygon fill="#63b8ff" stroke="#63b8ff" points="422.6,-148.54 432.93,-146.19 423.39,-141.58 422.6,-148.54"/>
</a>
</g>
</g>
<!-- Node4 -->
<g id="Node000004" class="node">
<title>Node4</title>
<g id="a_Node000004"><a xlink:href="../../d0/d9d/classTerraria_1_1ObjectData_1_1TileObjectData_ae19203d3df8949fc951f1a2545cd68d5.html#ae19203d3df8949fc951f1a2545cd68d5" target="_top" xlink:title=" ">
<polygon fill="white" stroke="#666666" points="582.5,-122.5 449.5,-122.5 449.5,-92.5 582.5,-92.5 582.5,-122.5"/>
<text text-anchor="start" x="457.5" y="-110.5" font-family="Helvetica,sans-Serif" font-size="10.00">Terraria.ObjectData.Tile</text>
<text text-anchor="middle" x="516" y="-99.5" font-family="Helvetica,sans-Serif" font-size="10.00">ObjectData.GetTileData</text>
</a>
</g>
</g>
<!-- Node2&#45;&gt;Node4 -->
<g id="edge3_Node000002_Node000004" class="edge">
<title>Node2&#45;&gt;Node4</title>
<g id="a_edge3_Node000002_Node000004"><a xlink:title=" ">
<path fill="none" stroke="#63b8ff" d="M387.39,-121.98C404.49,-120.04 422.38,-118.01 439.18,-116.1"/>
<polygon fill="#63b8ff" stroke="#63b8ff" points="439.94,-119.54 449.48,-114.94 439.15,-112.59 439.94,-119.54"/>
</a>
</g>
</g>
<!-- Node5&#45;&gt;Node5 -->
<g id="edge5_Node000005_Node000005" class="edge">
<title>Node5&#45;&gt;Node5</title>
<g id="a_edge5_Node000005_Node000005"><a xlink:title=" ">
<path fill="none" stroke="#63b8ff" d="M265.23,-85.78C256.95,-94.91 269.38,-103.5 302.5,-103.5 322.17,-103.5 334.54,-100.47 339.61,-96.1"/>
<polygon fill="#63b8ff" stroke="#63b8ff" points="343.11,-95.83 339.77,-85.78 336.11,-95.72 343.11,-95.83"/>
</a>
</g>
</g>
<!-- Node6&#45;&gt;Node6 -->
<g id="edge7_Node000006_Node000006" class="edge">
<title>Node6&#45;&gt;Node6</title>
<g id="a_edge7_Node000006_Node000006"><a xlink:title=" ">
<path fill="none" stroke="#63b8ff" d="M269.82,-19.08C253.93,-27.73 264.82,-37 302.5,-37 329.58,-37 342.83,-32.21 342.23,-26.31"/>
<polygon fill="#63b8ff" stroke="#63b8ff" points="344.67,-23.79 335.18,-19.08 339.66,-28.68 344.67,-23.79"/>
</a>
</g>
</g>
</g>
</svg>

<g id="navigator" transform="translate(0 0)" fill="#404254">
  <rect fill="#f2f5e9" fill-opacity="0.5" stroke="#606060" stroke-width=".5" x="0" y="0" width="60" height="60"/>
  <use id="zoomplus" xlink:href="#zoomPlus" x="17" y="9" onmousedown="handleZoom(evt,'in')"/>
  <use id="zoomminus" xlink:href="#zoomMin" x="42" y="9" onmousedown="handleZoom(evt,'out')"/>
  <use id="reset" xlink:href="#resetDef" x="30" y="36" onmousedown="handleReset()"/>
   <use id="arrowup" xlink:href="#arrowUp" x="0" y="0" onmousedown="handlePan(0,-1)"/>
  <use id="arrowright" xlink:href="#arrowRight" x="0" y="0" onmousedown="handlePan(1,0)"/>
  <use id="arrowdown" xlink:href="#arrowDown" x="0" y="0" onmousedown="handlePan(0,1)"/>
  <use id="arrowleft" xlink:href="#arrowLeft" x="0" y="0" onmousedown="handlePan(-1,0)"/>
</g>
<svg viewBox="0 0 15 15" width="100%" height="30px" preserveAspectRatio="xMaxYMin meet">
 <g id="arrow_out" transform="scale(0.3 0.3)">
  <a xlink:href="classTerraria_1_1WorldGen_ab485398a665984d07c13ce2608b99519_ab485398a665984d07c13ce2608b99519_cgraph_org.svg" target="_base">
   <rect id="button" ry="5" rx="5" y="6" x="6" height="38" width="38"
        fill="#f2f5e9" fill-opacity="0.5" stroke="#606060" stroke-width="1.0"/>
   <path id="arrow"
     d="M 11.500037,31.436501 C 11.940474,20.09759 22.043105,11.32322 32.158766,21.979434 L 37.068811,17.246167 C 37.068811,17.246167 37.088388,32 37.088388,32 L 22.160133,31.978069 C 22.160133,31.978069 26.997745,27.140456 26.997745,27.140456 C 18.528582,18.264221 13.291696,25.230495 11.500037,31.436501 z"
     style="fill:#404040;"/>
  </a>
 </g>
</svg>

<style type='text/css'>
<![CDATA[
[data-mouse-over-selected='false'] { opacity: 0.7; }
[data-mouse-over-selected='true']  { opacity: 1.0; }
]]>
</style>
<script type="application/ecmascript"><![CDATA[
document.addEventListener('DOMContentLoaded', (event) => {
  highlightEdges();
  highlightAdjacentNodes();
});
]]></script>
</svg>
