<?xml version="1.0" encoding="UTF-8" standalone="no"?>
<!DOCTYPE svg PUBLIC "-//W3C//DTD SVG 1.1//EN"
 "http://www.w3.org/Graphics/SVG/1.1/DTD/svg11.dtd">
<!-- Generated by graphviz version 2.43.0 (0)
 -->
<!-- Title: Terraria.WorldGen.PlaceSmallPile Pages: 1 -->
<svg width="619pt" height="124pt"
 viewBox="0.00 0.00 619.00 123.50" xmlns="http://www.w3.org/2000/svg" xmlns:xlink="http://www.w3.org/1999/xlink">
<g id="graph0" class="graph" transform="scale(1 1) rotate(0) translate(4 119.5)">
<title>Terraria.WorldGen.PlaceSmallPile</title>
<!-- Node1 -->
<g id="Node000001" class="node">
<title>Node1</title>
<g id="a_Node000001"><a xlink:title=" ">
<polygon fill="#999999" stroke="#666666" points="611,-62 432,-62 432,-43 611,-43 611,-62"/>
<text text-anchor="middle" x="521.5" y="-50" font-family="Helvetica,sans-Serif" font-size="10.00">Terraria.WorldGen.PlaceSmallPile</text>
</a>
</g>
</g>
<!-- Node2 -->
<g id="Node000002" class="node">
<title>Node2</title>
<g id="a_Node000002"><a xlink:href="../../d2/d72/classTerraria_1_1GameContent_1_1Biomes_1_1CaveHouse_1_1HouseBuilder_ab8685312abcf42c160d7a90fd4328469.html#ab8685312abcf42c160d7a90fd4328469" target="_top" xlink:title=" ">
<polygon fill="white" stroke="#666666" points="396,-115.5 205,-115.5 205,-85.5 396,-85.5 396,-115.5"/>
<text text-anchor="start" x="213" y="-103.5" font-family="Helvetica,sans-Serif" font-size="10.00">Terraria.GameContent.Biomes.</text>
<text text-anchor="middle" x="300.5" y="-92.5" font-family="Helvetica,sans-Serif" font-size="10.00">CaveHouse.HouseBuilder.FillRooms</text>
</a>
</g>
</g>
<!-- Node1&#45;&gt;Node2 -->
<g id="edge1_Node000001_Node000002" class="edge">
<title>Node1&#45;&gt;Node2</title>
<g id="a_edge1_Node000001_Node000002"><a xlink:title=" ">
<path fill="none" stroke="#63b8ff" d="M466.96,-64.24C437.73,-70.64 401.23,-78.64 369.95,-85.5"/>
<polygon fill="#63b8ff" stroke="#63b8ff" points="467.95,-67.6 476.97,-62.04 466.45,-60.76 467.95,-67.6"/>
</a>
</g>
</g>
<!-- Node4 -->
<g id="Node000004" class="node">
<title>Node4</title>
<g id="a_Node000004"><a xlink:href="../../d5/dd9/classTerraria_1_1WorldGen_1_1Spread_a541070013803f4c3738507e99d5100cd.html#a541070013803f4c3738507e99d5100cd" target="_top" xlink:title=" ">
<polygon fill="white" stroke="#666666" points="372,-67.5 229,-67.5 229,-37.5 372,-37.5 372,-67.5"/>
<text text-anchor="start" x="237" y="-55.5" font-family="Helvetica,sans-Serif" font-size="10.00">Terraria.WorldGen.Spread.</text>
<text text-anchor="middle" x="300.5" y="-44.5" font-family="Helvetica,sans-Serif" font-size="10.00">Spider</text>
</a>
</g>
</g>
<!-- Node1&#45;&gt;Node4 -->
<g id="edge3_Node000001_Node000004" class="edge">
<title>Node1&#45;&gt;Node4</title>
<g id="a_edge3_Node000001_Node000004"><a xlink:title=" ">
<path fill="none" stroke="#63b8ff" d="M421.46,-52.5C404.86,-52.5 387.94,-52.5 372.24,-52.5"/>
<polygon fill="#63b8ff" stroke="#63b8ff" points="421.74,-56 431.74,-52.5 421.74,-49 421.74,-56"/>
</a>
</g>
</g>
<!-- Node5 -->
<g id="Node000005" class="node">
<title>Node5</title>
<g id="a_Node000005"><a xlink:href="../../de/da1/classTerraria_1_1WorldGen_aed52da1bd75bcab6acbf06a0a70c110a.html#aed52da1bd75bcab6acbf06a0a70c110a" target="_top" xlink:title=" ">
<polygon fill="white" stroke="#666666" points="381,-19 220,-19 220,0 381,0 381,-19"/>
<text text-anchor="middle" x="300.5" y="-7" font-family="Helvetica,sans-Serif" font-size="10.00">Terraria.WorldGen.StonePatch</text>
</a>
</g>
</g>
<!-- Node1&#45;&gt;Node5 -->
<g id="edge4_Node000001_Node000005" class="edge">
<title>Node1&#45;&gt;Node5</title>
<g id="a_edge4_Node000001_Node000005"><a xlink:title=" ">
<path fill="none" stroke="#63b8ff" d="M461.82,-40.98C426.84,-34.11 382.97,-25.5 349.97,-19.02"/>
<polygon fill="#63b8ff" stroke="#63b8ff" points="461.41,-44.46 471.9,-42.96 462.76,-37.6 461.41,-44.46"/>
</a>
</g>
</g>
<!-- Node3 -->
<g id="Node000003" class="node">
<title>Node3</title>
<g id="a_Node000003"><a xlink:href="../../d2/d72/classTerraria_1_1GameContent_1_1Biomes_1_1CaveHouse_1_1HouseBuilder_ab5ac0020e75a124cfb8474b4b9bb050b.html#ab5ac0020e75a124cfb8474b4b9bb050b" target="_top" xlink:title=" ">
<polygon fill="white" stroke="#666666" points="169,-115.5 0,-115.5 0,-85.5 169,-85.5 169,-115.5"/>
<text text-anchor="start" x="8" y="-103.5" font-family="Helvetica,sans-Serif" font-size="10.00">Terraria.GameContent.Biomes.</text>
<text text-anchor="middle" x="84.5" y="-92.5" font-family="Helvetica,sans-Serif" font-size="10.00">CaveHouse.HouseBuilder.Place</text>
</a>
</g>
</g>
<!-- Node2&#45;&gt;Node3 -->
<g id="edge2_Node000002_Node000003" class="edge">
<title>Node2&#45;&gt;Node3</title>
<g id="a_edge2_Node000002_Node000003"><a xlink:title=" ">
<path fill="none" stroke="#63b8ff" d="M194.67,-100.5C186.1,-100.5 177.52,-100.5 169.13,-100.5"/>
<polygon fill="#63b8ff" stroke="#63b8ff" points="194.7,-104 204.7,-100.5 194.7,-97 194.7,-104"/>
</a>
</g>
</g>
</g>
</svg>
