<?xml version="1.0" encoding="UTF-8" standalone="no"?>
<!DOCTYPE svg PUBLIC "-//W3C//DTD SVG 1.1//EN"
 "http://www.w3.org/Graphics/SVG/1.1/DTD/svg11.dtd">
<!-- Generated by graphviz version 2.43.0 (0)
 -->
<!-- Title: Terraria.WorldGen.CheckMan Pages: 1 -->
<svg width="593pt" height="136pt"
 viewBox="0.00 0.00 593.00 135.50" xmlns="http://www.w3.org/2000/svg" xmlns:xlink="http://www.w3.org/1999/xlink">
<g id="graph0" class="graph" transform="scale(1 1) rotate(0) translate(4 131.5)">
<title>Terraria.WorldGen.CheckMan</title>
<!-- Node1 -->
<g id="Node000001" class="node">
<title>Node1</title>
<g id="a_Node000001"><a xlink:title=" ">
<polygon fill="#999999" stroke="#666666" points="158,-46 0,-46 0,-27 158,-27 158,-46"/>
<text text-anchor="middle" x="79" y="-34" font-family="Helvetica,sans-Serif" font-size="10.00">Terraria.WorldGen.CheckMan</text>
</a>
</g>
</g>
<!-- Node2 -->
<g id="Node000002" class="node">
<title>Node2</title>
<g id="a_Node000002"><a xlink:href="../../d1/d70/classTerraria_1_1ModLoader_1_1TileLoader_adf8888d477e5cfcd210f209f80c899f0.html#adf8888d477e5cfcd210f209f80c899f0" target="_top" xlink:title=" ">
<polygon fill="white" stroke="#666666" points="383,-74 194,-74 194,-55 383,-55 383,-74"/>
<text text-anchor="middle" x="288.5" y="-62" font-family="Helvetica,sans-Serif" font-size="10.00">Terraria.ModLoader.TileLoader.Drop</text>
</a>
</g>
</g>
<!-- Node1&#45;&gt;Node2 -->
<g id="edge1_Node000001_Node000002" class="edge">
<title>Node1&#45;&gt;Node2</title>
<g id="a_edge1_Node000001_Node000002"><a xlink:title=" ">
<path fill="none" stroke="#63b8ff" d="M150.54,-46.02C168.58,-48.45 188.12,-51.09 206.64,-53.59"/>
<polygon fill="#63b8ff" stroke="#63b8ff" points="206.42,-57.09 216.8,-54.96 207.36,-50.15 206.42,-57.09"/>
</a>
</g>
</g>
<!-- Node6 -->
<g id="Node000006" class="node">
<title>Node6</title>
<g id="a_Node000006"><a xlink:href="../../db/d79/classTerraria_1_1Item_ae0f057a4ed207ce83cd3141063371604.html#ae0f057a4ed207ce83cd3141063371604" target="_top" xlink:title="This particular overload uses two Vector2 to determine the actual spawn position.">
<polygon fill="white" stroke="#666666" points="351.5,-19 225.5,-19 225.5,0 351.5,0 351.5,-19"/>
<text text-anchor="middle" x="288.5" y="-7" font-family="Helvetica,sans-Serif" font-size="10.00">Terraria.Item.NewItem</text>
</a>
</g>
</g>
<!-- Node1&#45;&gt;Node6 -->
<g id="edge5_Node000001_Node000006" class="edge">
<title>Node1&#45;&gt;Node6</title>
<g id="a_edge5_Node000001_Node000006"><a xlink:title=" ">
<path fill="none" stroke="#63b8ff" d="M153.16,-26.98C173.32,-24.36 195.18,-21.51 215.29,-18.9"/>
<polygon fill="#63b8ff" stroke="#63b8ff" points="215.85,-22.35 225.31,-17.59 214.94,-15.41 215.85,-22.35"/>
</a>
</g>
</g>
<!-- Node3 -->
<g id="Node000003" class="node">
<title>Node3</title>
<g id="a_Node000003"><a xlink:href="../../d5/dec/classTerraria_1_1ModLoader_1_1ModTile_a11fb483d8bc8ced9fff52c415855cf17.html#a11fb483d8bc8ced9fff52c415855cf17" target="_top" xlink:title="Allows prevention of item drops from the tile dropping at the given coordinates. Return false to stop...">
<polygon fill="white" stroke="#666666" points="579.5,-127.5 424.5,-127.5 424.5,-97.5 579.5,-97.5 579.5,-127.5"/>
<text text-anchor="start" x="432.5" y="-115.5" font-family="Helvetica,sans-Serif" font-size="10.00">Terraria.ModLoader.ModTile.</text>
<text text-anchor="middle" x="502" y="-104.5" font-family="Helvetica,sans-Serif" font-size="10.00">CanDrop</text>
</a>
</g>
</g>
<!-- Node2&#45;&gt;Node3 -->
<g id="edge2_Node000002_Node000003" class="edge">
<title>Node2&#45;&gt;Node3</title>
<g id="a_edge2_Node000002_Node000003"><a xlink:title=" ">
<path fill="none" stroke="#63b8ff" d="M331.54,-74.04C358.17,-80.08 393.4,-88.08 424.83,-95.21"/>
<polygon fill="#63b8ff" stroke="#63b8ff" points="424.36,-98.7 434.89,-97.5 425.91,-91.87 424.36,-98.7"/>
</a>
</g>
</g>
<!-- Node4 -->
<g id="Node000004" class="node">
<title>Node4</title>
<g id="a_Node000004"><a xlink:href="../../d1/d70/classTerraria_1_1ModLoader_1_1TileLoader_a046d2f0670d83bdc212241b0f87ff2de.html#a046d2f0670d83bdc212241b0f87ff2de" target="_top" xlink:title="Gets the ModTile instance with the given type. If no ModTile with the given type exists,...">
<polygon fill="white" stroke="#666666" points="585,-79.5 419,-79.5 419,-49.5 585,-49.5 585,-79.5"/>
<text text-anchor="start" x="427" y="-67.5" font-family="Helvetica,sans-Serif" font-size="10.00">Terraria.ModLoader.TileLoader.</text>
<text text-anchor="middle" x="502" y="-56.5" font-family="Helvetica,sans-Serif" font-size="10.00">GetTile</text>
</a>
</g>
</g>
<!-- Node2&#45;&gt;Node4 -->
<g id="edge3_Node000002_Node000004" class="edge">
<title>Node2&#45;&gt;Node4</title>
<g id="a_edge3_Node000002_Node000004"><a xlink:title=" ">
<path fill="none" stroke="#63b8ff" d="M383.19,-64.5C391.67,-64.5 400.26,-64.5 408.73,-64.5"/>
<polygon fill="#63b8ff" stroke="#63b8ff" points="408.99,-68 418.99,-64.5 408.99,-61 408.99,-68"/>
</a>
</g>
</g>
<!-- Node5 -->
<g id="Node000005" class="node">
<title>Node5</title>
<g id="a_Node000005"><a xlink:href="../../d0/d9d/classTerraria_1_1ObjectData_1_1TileObjectData_ae19203d3df8949fc951f1a2545cd68d5.html#ae19203d3df8949fc951f1a2545cd68d5" target="_top" xlink:title=" ">
<polygon fill="white" stroke="#666666" points="568.5,-31.5 435.5,-31.5 435.5,-1.5 568.5,-1.5 568.5,-31.5"/>
<text text-anchor="start" x="443.5" y="-19.5" font-family="Helvetica,sans-Serif" font-size="10.00">Terraria.ObjectData.Tile</text>
<text text-anchor="middle" x="502" y="-8.5" font-family="Helvetica,sans-Serif" font-size="10.00">ObjectData.GetTileData</text>
</a>
</g>
</g>
<!-- Node2&#45;&gt;Node5 -->
<g id="edge4_Node000002_Node000005" class="edge">
<title>Node2&#45;&gt;Node5</title>
<g id="a_edge4_Node000002_Node000005"><a xlink:title=" ">
<path fill="none" stroke="#63b8ff" d="M342.03,-54.95C355.42,-52.36 369.77,-49.45 383,-46.5 399.9,-42.73 418.07,-38.3 434.96,-34.02"/>
<polygon fill="#63b8ff" stroke="#63b8ff" points="435.92,-37.39 444.74,-31.52 434.19,-30.6 435.92,-37.39"/>
</a>
</g>
</g>
<!-- Node6&#45;&gt;Node6 -->
<g id="edge6_Node000006_Node000006" class="edge">
<title>Node6&#45;&gt;Node6</title>
<g id="a_edge6_Node000006_Node000006"><a xlink:title=" ">
<path fill="none" stroke="#63b8ff" d="M256.44,-19.08C240.84,-27.73 251.53,-37 288.5,-37 315.07,-37 328.07,-32.21 327.48,-26.31"/>
<polygon fill="#63b8ff" stroke="#63b8ff" points="330,-23.88 320.56,-19.08 324.95,-28.73 330,-23.88"/>
</a>
</g>
</g>
</g>
</svg>
