<?xml version="1.0" encoding="UTF-8" standalone="no"?>
<!DOCTYPE svg PUBLIC "-//W3C//DTD SVG 1.1//EN"
 "http://www.w3.org/Graphics/SVG/1.1/DTD/svg11.dtd">
<!-- Generated by graphviz version 2.43.0 (0)
 -->
<!-- Title: Terraria.GameContent.UI.GameTipsDisplay.GameTipsDisplay Pages: 1 -->
<svg width="603pt" height="134pt"
 viewBox="0.00 0.00 603.00 134.00" xmlns="http://www.w3.org/2000/svg" xmlns:xlink="http://www.w3.org/1999/xlink">
<g id="graph0" class="graph" transform="scale(1 1) rotate(0) translate(4 130)">
<title>Terraria.GameContent.UI.GameTipsDisplay.GameTipsDisplay</title>
<!-- Node1 -->
<g id="Node000001" class="node">
<title>Node1</title>
<g id="a_Node000001"><a xlink:title=" ">
<polygon fill="#999999" stroke="#666666" points="191,-78 0,-78 0,-48 191,-48 191,-78"/>
<text text-anchor="start" x="8" y="-66" font-family="Helvetica,sans-Serif" font-size="10.00">Terraria.GameContent.UI.</text>
<text text-anchor="middle" x="95.5" y="-55" font-family="Helvetica,sans-Serif" font-size="10.00">GameTipsDisplay.GameTipsDisplay</text>
</a>
</g>
</g>
<!-- Node2 -->
<g id="Node000002" class="node">
<title>Node2</title>
<g id="a_Node000002"><a xlink:href="../../df/dd3/classTerraria_1_1Lang_adb3fcf36ca1334a7cc5d3e54e03588f7.html#adb3fcf36ca1334a7cc5d3e54e03588f7" target="_top" xlink:title="Filters LocalizedText objects by checking if their key starts with the provided startsWith &#160;parameter...">
<polygon fill="white" stroke="#666666" points="384,-126 238,-126 238,-96 384,-96 384,-126"/>
<text text-anchor="start" x="246" y="-114" font-family="Helvetica,sans-Serif" font-size="10.00">Terraria.Lang.CreateDialog</text>
<text text-anchor="middle" x="311" y="-103" font-family="Helvetica,sans-Serif" font-size="10.00">Filter</text>
</a>
</g>
</g>
<!-- Node1&#45;&gt;Node2 -->
<g id="edge1_Node000001_Node000002" class="edge">
<title>Node1&#45;&gt;Node2</title>
<g id="a_edge1_Node000001_Node000002"><a xlink:title=" ">
<path fill="none" stroke="#63b8ff" d="M163.47,-78.06C185.62,-83.04 210.45,-88.62 233.28,-93.75"/>
<polygon fill="#63b8ff" stroke="#63b8ff" points="232.75,-97.22 243.27,-96 234.28,-90.39 232.75,-97.22"/>
</a>
</g>
</g>
<!-- Node4 -->
<g id="Node000004" class="node">
<title>Node4</title>
<g id="a_Node000004"><a xlink:href="../../d4/d8f/classTerraria_1_1Localization_1_1Language_a14c611ca3099d305ae1323304429a6c9.html#a14c611ca3099d305ae1323304429a6c9" target="_top" xlink:title=" ">
<polygon fill="white" stroke="#666666" points="395,-78 227,-78 227,-48 395,-48 395,-78"/>
<text text-anchor="start" x="235" y="-66" font-family="Helvetica,sans-Serif" font-size="10.00">Terraria.Localization.Language.</text>
<text text-anchor="middle" x="311" y="-55" font-family="Helvetica,sans-Serif" font-size="10.00">FindAll</text>
</a>
</g>
</g>
<!-- Node1&#45;&gt;Node4 -->
<g id="edge3_Node000001_Node000004" class="edge">
<title>Node1&#45;&gt;Node4</title>
<g id="a_edge3_Node000001_Node000004"><a xlink:title=" ">
<path fill="none" stroke="#63b8ff" d="M191.08,-63C199.56,-63 208.15,-63 216.62,-63"/>
<polygon fill="#63b8ff" stroke="#63b8ff" points="216.89,-66.5 226.89,-63 216.89,-59.5 216.89,-66.5"/>
</a>
</g>
</g>
<!-- Node5 -->
<g id="Node000005" class="node">
<title>Node5</title>
<g id="a_Node000005"><a xlink:href="../../db/d67/classTerraria_1_1GameContent_1_1UI_1_1GameTipsDisplay_a5798390f7503de11ca31a0fa8ed0602c.html#a5798390f7503de11ca31a0fa8ed0602c" target="_top" xlink:title=" ">
<polygon fill="white" stroke="#666666" points="384,-30 238,-30 238,0 384,0 384,-30"/>
<text text-anchor="start" x="246" y="-18" font-family="Helvetica,sans-Serif" font-size="10.00">Terraria.GameContent.UI.</text>
<text text-anchor="middle" x="311" y="-7" font-family="Helvetica,sans-Serif" font-size="10.00">GameTipsDisplay.Initialize</text>
</a>
</g>
</g>
<!-- Node1&#45;&gt;Node5 -->
<g id="edge4_Node000001_Node000005" class="edge">
<title>Node1&#45;&gt;Node5</title>
<g id="a_edge4_Node000001_Node000005"><a xlink:title=" ">
<path fill="none" stroke="#63b8ff" d="M163.47,-47.94C185.62,-42.96 210.45,-37.38 233.28,-32.25"/>
<polygon fill="#63b8ff" stroke="#63b8ff" points="234.28,-35.61 243.27,-30 232.75,-28.78 234.28,-35.61"/>
</a>
</g>
</g>
<!-- Node3 -->
<g id="Node000003" class="node">
<title>Node3</title>
<g id="a_Node000003"><a xlink:href="../../d5/d73/classTerraria_1_1Localization_1_1LocalizedText_a8465a4e8662fbe15d206b2bbd0181e99.html#a8465a4e8662fbe15d206b2bbd0181e99" target="_top" xlink:title="Checks if the conditions embedded in this LocalizedText are satisfied by the obj &#160;argument....">
<polygon fill="white" stroke="#666666" points="595,-126 431,-126 431,-96 595,-96 595,-126"/>
<text text-anchor="start" x="439" y="-114" font-family="Helvetica,sans-Serif" font-size="10.00">Terraria.Localization.Localized</text>
<text text-anchor="middle" x="513" y="-103" font-family="Helvetica,sans-Serif" font-size="10.00">Text.CanFormatWith</text>
</a>
</g>
</g>
<!-- Node2&#45;&gt;Node3 -->
<g id="edge2_Node000002_Node000003" class="edge">
<title>Node2&#45;&gt;Node3</title>
<g id="a_edge2_Node000002_Node000003"><a xlink:title=" ">
<path fill="none" stroke="#63b8ff" d="M384.2,-111C396.01,-111 408.37,-111 420.56,-111"/>
<polygon fill="#63b8ff" stroke="#63b8ff" points="420.74,-114.5 430.74,-111 420.74,-107.5 420.74,-114.5"/>
</a>
</g>
</g>
</g>
</svg>
