<?xml version="1.0" encoding="UTF-8" standalone="no"?>
<!DOCTYPE svg PUBLIC "-//W3C//DTD SVG 1.1//EN"
 "http://www.w3.org/Graphics/SVG/1.1/DTD/svg11.dtd">
<!-- Generated by graphviz version 2.43.0 (0)
 -->
<!-- Title: Terraria.ModLoader.Utilities.RecipeGroupHelper Pages: 1 -->
<svg width="186pt" height="109pt"
 viewBox="0.00 0.00 186.00 109.00" xmlns="http://www.w3.org/2000/svg" xmlns:xlink="http://www.w3.org/1999/xlink">
<g id="graph0" class="graph" transform="scale(1 1) rotate(0) translate(4 105)">
<title>Terraria.ModLoader.Utilities.RecipeGroupHelper</title>
<!-- Node1 -->
<g id="Node000001" class="node">
<title>Node1</title>
<g id="a_Node000001"><a xlink:title=" ">
<polygon fill="#999999" stroke="transparent" points="178,-101 0,-101 0,0 178,0 178,-101"/>
<text text-anchor="start" x="20" y="-88.5" font-family="Helvetica,sans-Serif" font-size="10.00">Terraria.ModLoader.Utilities.</text>
<text text-anchor="start" x="41.5" y="-77.5" font-family="Helvetica,sans-Serif" font-size="10.00">RecipeGroupHelper</text>
<text text-anchor="start" x="87" y="-62.5" font-family="Helvetica,sans-Serif" font-size="10.00"> </text>
<text text-anchor="start" x="4" y="-47.5" font-family="Helvetica,sans-Serif" font-size="10.00">~</text>
<text text-anchor="start" x="17" y="-47.5" font-family="Helvetica,sans-Serif" font-size="10.00">static void ResetRecipeGroups()</text>
<text text-anchor="start" x="4" y="-32.5" font-family="Helvetica,sans-Serif" font-size="10.00">~</text>
<text text-anchor="start" x="17" y="-32.5" font-family="Helvetica,sans-Serif" font-size="10.00">static void AddRecipeGroups()</text>
<text text-anchor="start" x="4" y="-17.5" font-family="Helvetica,sans-Serif" font-size="10.00">~</text>
<text text-anchor="start" x="17" y="-17.5" font-family="Helvetica,sans-Serif" font-size="10.00">static void CreateRecipe</text>
<text text-anchor="start" x="17" y="-6.5" font-family="Helvetica,sans-Serif" font-size="10.00">GroupLookups()</text>
<polygon fill="#666666" stroke="#666666" points="0,-72.5 0,-72.5 178,-72.5 178,-72.5 0,-72.5"/>
<polygon fill="#666666" stroke="#666666" points="0,-57.5 0,-57.5 178,-57.5 178,-57.5 0,-57.5"/>
<polygon fill="none" stroke="#666666" points="0,0 0,-101 178,-101 178,0 0,0"/>
</a>
</g>
</g>
</g>
</svg>
