<?xml version="1.0" encoding="UTF-8" standalone="no"?>
<!DOCTYPE svg PUBLIC "-//W3C//DTD SVG 1.1//EN"
 "http://www.w3.org/Graphics/SVG/1.1/DTD/svg11.dtd">
<!-- Generated by graphviz version 2.43.0 (0)
 -->
<!-- Title: Terraria.Utilities.FileUtilities.CopyFolder Pages: 1 -->
<!--zoomable 278 -->

<svg id="main" version="1.1" xmlns="http://www.w3.org/2000/svg" xmlns:xlink="http://www.w3.org/1999/xlink" xml:space="preserve" onload="init(evt)">
<style type="text/css"><![CDATA[
.node, .edge {opacity: 0.7;}
.node.selected, .edge.selected {opacity: 1;}
.edge:hover path { stroke: red; }
.edge:hover polygon { stroke: red; fill: red; }
]]></style>

<defs>
  <circle id="rim" cx="0" cy="0" r="7"/>
  <circle id="rim2" cx="0" cy="0" r="3.5"/>
  <g id="zoomPlus">
    <use xlink:href="#rim" fill="#404040"><set attributeName="fill" to="#808080" begin="zoomplus.mouseover" end="zoomplus.mouseout"/></use>
    <path d="M-4,0h8M0,-4v8" fill="none" stroke="white" stroke-width="1.5" pointer-events="none"/>
  </g>
  <g id="zoomMin">
    <use xlink:href="#rim" fill="#404040"><set attributeName="fill" to="#808080" begin="zoomminus.mouseover" end="zoomminus.mouseout"/></use>
    <path d="M-4,0h8" fill="none" stroke="white" stroke-width="1.5" pointer-events="none"/>
  </g>
  <g id="arrowUp" transform="translate(30 24)">
    <use xlink:href="#rim"/>
    <path pointer-events="none" fill="none" stroke="white" stroke-width="1.5" d="M0,-3.0v7 M-2.5,-0.5L0,-3.0L2.5,-0.5"/>
  </g>
  <g id="arrowRight" transform="rotate(90) translate(36 -43)">
    <use xlink:href="#rim"/>
    <path pointer-events="none" fill="none" stroke="white" stroke-width="1.5" d="M0,-3.0v7 M-2.5,-0.5L0,-3.0L2.5,-0.5"/>
  </g>
  <g id="arrowDown" transform="rotate(180) translate(-30 -48)">
    <use xlink:href="#rim"/>
    <path pointer-events="none" fill="none" stroke="white" stroke-width="1.5" d="M0,-3.0v7 M-2.5,-0.5L0,-3.0L2.5,-0.5"/>
  </g>
  <g id="arrowLeft" transform="rotate(270) translate(-36 17)">
    <use xlink:href="#rim"/>
    <path pointer-events="none" fill="none" stroke="white" stroke-width="1.5" d="M0,-3.0v7 M-2.5,-0.5L0,-3.0L2.5,-0.5"/>
  </g>
  <g id="resetDef">
    <use xlink:href="#rim2" fill="#404040"><set attributeName="fill" to="#808080" begin="reset.mouseover" end="reset.mouseout"/></use>
  </g>
</defs>
<script type="application/ecmascript">
var viewWidth = 779;
var viewHeight = 278;
var sectionId = 'dynsection-0';
</script>
<script type="application/ecmascript" xlink:href="../../svg.min.js"/>
<svg id="graph" class="graph">
<g id="viewport">
<title>Terraria.Utilities.FileUtilities.CopyFolder</title>
<!-- Node1 -->
<g id="Node000001" class="node">
<title>Node1</title>
<g id="a_Node000001"><a xlink:title=" ">
<polygon fill="#999999" stroke="#666666" points="156,-195 0,-195 0,-165 156,-165 156,-195"/>
<text text-anchor="start" x="8" y="-183" font-family="Helvetica,sans-Serif" font-size="10.00">Terraria.Utilities.FileUtilities.</text>
<text text-anchor="middle" x="78" y="-172" font-family="Helvetica,sans-Serif" font-size="10.00">CopyFolder</text>
</a>
</g>
</g>
<!-- Node2 -->
<g id="Node000002" class="node">
<title>Node2</title>
<g id="a_Node000002"><a xlink:href="../../d7/de3/classTerraria_1_1Utilities_1_1FileUtilities_a576795e957a016079bd464d6589f510b.html#a576795e957a016079bd464d6589f510b" target="_top" xlink:title=" ">
<polygon fill="white" stroke="#666666" points="348,-195 192,-195 192,-165 348,-165 348,-195"/>
<text text-anchor="start" x="200" y="-183" font-family="Helvetica,sans-Serif" font-size="10.00">Terraria.Utilities.FileUtilities.</text>
<text text-anchor="middle" x="270" y="-172" font-family="Helvetica,sans-Serif" font-size="10.00">CopyFolderEXT</text>
</a>
</g>
</g>
<!-- Node1&#45;&gt;Node2 -->
<g id="edge1_Node000001_Node000002" class="edge">
<title>Node1&#45;&gt;Node2</title>
<g id="a_edge1_Node000001_Node000002"><a xlink:title=" ">
<path fill="none" stroke="#63b8ff" d="M156.01,-180C164.51,-180 173.21,-180 181.83,-180"/>
<polygon fill="#63b8ff" stroke="#63b8ff" points="181.88,-183.5 191.88,-180 181.88,-176.5 181.88,-183.5"/>
</a>
</g>
</g>
<!-- Node3 -->
<g id="Node000003" class="node">
<title>Node3</title>
<g id="a_Node000003"><a xlink:href="../../d7/de3/classTerraria_1_1Utilities_1_1FileUtilities_a282e0caff5db217a4c70e381cd74517d.html#a282e0caff5db217a4c70e381cd74517d" target="_top" xlink:title="Converts the full &#39;path&#39; to remove the base path component. Example: C://My Documents//Help Me I&#39;m Hu...">
<polygon fill="white" stroke="#666666" points="751.5,-270 595.5,-270 595.5,-240 751.5,-240 751.5,-270"/>
<text text-anchor="start" x="603.5" y="-258" font-family="Helvetica,sans-Serif" font-size="10.00">Terraria.Utilities.FileUtilities.</text>
<text text-anchor="middle" x="673.5" y="-247" font-family="Helvetica,sans-Serif" font-size="10.00">ConvertToRelativePath</text>
</a>
</g>
</g>
<!-- Node2&#45;&gt;Node3 -->
<g id="edge2_Node000002_Node000003" class="edge">
<title>Node2&#45;&gt;Node3</title>
<g id="a_edge2_Node000002_Node000003"><a xlink:title=" ">
<path fill="none" stroke="#63b8ff" d="M348.41,-194.46C416.18,-207.12 514.55,-225.5 585.12,-238.68"/>
<polygon fill="#63b8ff" stroke="#63b8ff" points="584.85,-242.19 595.32,-240.58 586.14,-235.31 584.85,-242.19"/>
</a>
</g>
</g>
<!-- Node4 -->
<g id="Node000004" class="node">
<title>Node4</title>
<g id="a_Node000004"><a xlink:href="../../d7/de3/classTerraria_1_1Utilities_1_1FileUtilities_a56f6a88705b6a22da9cbbaa115fbb61f.html#a56f6a88705b6a22da9cbbaa115fbb61f" target="_top" xlink:title=" ">
<polygon fill="white" stroke="#666666" points="540,-174 384,-174 384,-144 540,-144 540,-174"/>
<text text-anchor="start" x="392" y="-162" font-family="Helvetica,sans-Serif" font-size="10.00">Terraria.Utilities.FileUtilities.</text>
<text text-anchor="middle" x="462" y="-151" font-family="Helvetica,sans-Serif" font-size="10.00">CopyExtended</text>
</a>
</g>
</g>
<!-- Node2&#45;&gt;Node4 -->
<g id="edge3_Node000002_Node000004" class="edge">
<title>Node2&#45;&gt;Node4</title>
<g id="a_edge3_Node000002_Node000004"><a xlink:title=" ">
<path fill="none" stroke="#63b8ff" d="M348.01,-171.49C356.51,-170.55 365.21,-169.59 373.83,-168.63"/>
<polygon fill="#63b8ff" stroke="#63b8ff" points="374.33,-172.1 383.88,-167.52 373.56,-165.14 374.33,-172.1"/>
</a>
</g>
</g>
<!-- Node4&#45;&gt;Node3 -->
<g id="edge4_Node000004_Node000003" class="edge">
<title>Node4&#45;&gt;Node3</title>
<g id="a_edge4_Node000004_Node000003"><a xlink:title=" ">
<path fill="none" stroke="#63b8ff" d="M482.31,-174.09C503.98,-190.32 540.73,-215.86 576,-231 580.79,-233.05 585.78,-234.96 590.88,-236.72"/>
<polygon fill="#63b8ff" stroke="#63b8ff" points="590.16,-240.17 600.76,-239.93 592.33,-233.51 590.16,-240.17"/>
</a>
</g>
</g>
<!-- Node5 -->
<g id="Node000005" class="node">
<title>Node5</title>
<g id="a_Node000005"><a xlink:href="../../d7/de3/classTerraria_1_1Utilities_1_1FileUtilities_ade3a9dde2ae90b3cd5531deaaacf5c71.html#ade3a9dde2ae90b3cd5531deaaacf5c71" target="_top" xlink:title="DEtermines if should overwrite the file at Destination with the file at Source.">
<polygon fill="white" stroke="#666666" points="751.5,-222 595.5,-222 595.5,-192 751.5,-192 751.5,-222"/>
<text text-anchor="start" x="603.5" y="-210" font-family="Helvetica,sans-Serif" font-size="10.00">Terraria.Utilities.FileUtilities.</text>
<text text-anchor="middle" x="673.5" y="-199" font-family="Helvetica,sans-Serif" font-size="10.00">DetermineIfShouldOverwrite</text>
</a>
</g>
</g>
<!-- Node4&#45;&gt;Node5 -->
<g id="edge5_Node000004_Node000005" class="edge">
<title>Node4&#45;&gt;Node5</title>
<g id="a_edge5_Node000004_Node000005"><a xlink:title=" ">
<path fill="none" stroke="#63b8ff" d="M528.71,-174.06C550.45,-179.04 574.82,-184.62 597.22,-189.75"/>
<polygon fill="#63b8ff" stroke="#63b8ff" points="596.49,-193.18 607.02,-192 598.06,-186.35 596.49,-193.18"/>
</a>
</g>
</g>
<!-- Node6 -->
<g id="Node000006" class="node">
<title>Node6</title>
<g id="a_Node000006"><a xlink:href="../../df/d71/classTerraria_1_1Social_1_1Steam_1_1CoreSocialModule_af7be6d82303b2d238152e553569bc065.html#af7be6d82303b2d238152e553569bc065" target="_top" xlink:title=" ">
<polygon fill="white" stroke="#666666" points="771,-174 576,-174 576,-144 771,-144 771,-174"/>
<text text-anchor="start" x="584" y="-162" font-family="Helvetica,sans-Serif" font-size="10.00">Terraria.Social.Steam.Core</text>
<text text-anchor="middle" x="673.5" y="-151" font-family="Helvetica,sans-Serif" font-size="10.00">SocialModule.GetCloudSaveLocation</text>
</a>
</g>
</g>
<!-- Node4&#45;&gt;Node6 -->
<g id="edge6_Node000004_Node000006" class="edge">
<title>Node4&#45;&gt;Node6</title>
<g id="a_edge6_Node000004_Node000006"><a xlink:title=" ">
<path fill="none" stroke="#63b8ff" d="M540.12,-159C548.5,-159 557.14,-159 565.8,-159"/>
<polygon fill="#63b8ff" stroke="#63b8ff" points="565.96,-162.5 575.96,-159 565.96,-155.5 565.96,-162.5"/>
</a>
</g>
</g>
<!-- Node7 -->
<g id="Node000007" class="node">
<title>Node7</title>
<g id="a_Node000007"><a xlink:href="../../dd/d0d/classTerraria_1_1Social_1_1Steam_1_1CloudSocialModule_ae099ea2f6cd2a6e7ea8b34d57cd95e8f.html#ae099ea2f6cd2a6e7ea8b34d57cd95e8f" target="_top" xlink:title=" ">
<polygon fill="white" stroke="#666666" points="749,-126 598,-126 598,-96 749,-96 749,-126"/>
<text text-anchor="start" x="606" y="-114" font-family="Helvetica,sans-Serif" font-size="10.00">Terraria.Social.Steam.Cloud</text>
<text text-anchor="middle" x="673.5" y="-103" font-family="Helvetica,sans-Serif" font-size="10.00">SocialModule.HasFile</text>
</a>
</g>
</g>
<!-- Node4&#45;&gt;Node7 -->
<g id="edge7_Node000004_Node000007" class="edge">
<title>Node4&#45;&gt;Node7</title>
<g id="a_edge7_Node000004_Node000007"><a xlink:title=" ">
<path fill="none" stroke="#63b8ff" d="M528.71,-143.94C550.45,-138.96 574.82,-133.38 597.22,-128.25"/>
<polygon fill="#63b8ff" stroke="#63b8ff" points="598.06,-131.65 607.02,-126 596.49,-124.82 598.06,-131.65"/>
</a>
</g>
</g>
<!-- Node8 -->
<g id="Node000008" class="node">
<title>Node8</title>
<g id="a_Node000008"><a xlink:href="../../dd/d0d/classTerraria_1_1Social_1_1Steam_1_1CloudSocialModule_acf1832cc26030f8b434e980943024087.html#acf1832cc26030f8b434e980943024087" target="_top" xlink:title=" ">
<polygon fill="white" stroke="#666666" points="749,-78 598,-78 598,-48 749,-48 749,-78"/>
<text text-anchor="start" x="606" y="-66" font-family="Helvetica,sans-Serif" font-size="10.00">Terraria.Social.Steam.Cloud</text>
<text text-anchor="middle" x="673.5" y="-55" font-family="Helvetica,sans-Serif" font-size="10.00">SocialModule.Read</text>
</a>
</g>
</g>
<!-- Node4&#45;&gt;Node8 -->
<g id="edge8_Node000004_Node000008" class="edge">
<title>Node4&#45;&gt;Node8</title>
<g id="a_edge8_Node000004_Node000008"><a xlink:title=" ">
<path fill="none" stroke="#63b8ff" d="M482.31,-143.91C503.98,-127.68 540.73,-102.14 576,-87 580.79,-84.95 585.78,-83.04 590.88,-81.28"/>
<polygon fill="#63b8ff" stroke="#63b8ff" points="592.33,-84.49 600.76,-78.07 590.16,-77.83 592.33,-84.49"/>
</a>
</g>
</g>
<!-- Node9 -->
<g id="Node000009" class="node">
<title>Node9</title>
<g id="a_Node000009"><a xlink:href="../../dd/d0d/classTerraria_1_1Social_1_1Steam_1_1CloudSocialModule_a30b758bf7133c16435248913c0fcc5ab.html#a30b758bf7133c16435248913c0fcc5ab" target="_top" xlink:title=" ">
<polygon fill="white" stroke="#666666" points="749,-30 598,-30 598,0 749,0 749,-30"/>
<text text-anchor="start" x="606" y="-18" font-family="Helvetica,sans-Serif" font-size="10.00">Terraria.Social.Steam.Cloud</text>
<text text-anchor="middle" x="673.5" y="-7" font-family="Helvetica,sans-Serif" font-size="10.00">SocialModule.Write</text>
</a>
</g>
</g>
<!-- Node4&#45;&gt;Node9 -->
<g id="edge9_Node000004_Node000009" class="edge">
<title>Node4&#45;&gt;Node9</title>
<g id="a_edge9_Node000004_Node000009"><a xlink:title=" ">
<path fill="none" stroke="#63b8ff" d="M472.86,-143.85C490.39,-118.16 529.57,-66.18 576,-39 579.92,-36.71 584.05,-34.63 588.31,-32.75"/>
<polygon fill="#63b8ff" stroke="#63b8ff" points="589.83,-35.91 597.81,-28.95 587.23,-29.42 589.83,-35.91"/>
</a>
</g>
</g>
</g>
</svg>

<g id="navigator" transform="translate(0 0)" fill="#404254">
  <rect fill="#f2f5e9" fill-opacity="0.5" stroke="#606060" stroke-width=".5" x="0" y="0" width="60" height="60"/>
  <use id="zoomplus" xlink:href="#zoomPlus" x="17" y="9" onmousedown="handleZoom(evt,'in')"/>
  <use id="zoomminus" xlink:href="#zoomMin" x="42" y="9" onmousedown="handleZoom(evt,'out')"/>
  <use id="reset" xlink:href="#resetDef" x="30" y="36" onmousedown="handleReset()"/>
   <use id="arrowup" xlink:href="#arrowUp" x="0" y="0" onmousedown="handlePan(0,-1)"/>
  <use id="arrowright" xlink:href="#arrowRight" x="0" y="0" onmousedown="handlePan(1,0)"/>
  <use id="arrowdown" xlink:href="#arrowDown" x="0" y="0" onmousedown="handlePan(0,1)"/>
  <use id="arrowleft" xlink:href="#arrowLeft" x="0" y="0" onmousedown="handlePan(-1,0)"/>
</g>
<svg viewBox="0 0 15 15" width="100%" height="30px" preserveAspectRatio="xMaxYMin meet">
 <g id="arrow_out" transform="scale(0.3 0.3)">
  <a xlink:href="classTerraria_1_1Utilities_1_1FileUtilities_ac556c0f35b322cf4ff997f6d14422282_ac556c0f35b322cf4ff997f6d14422282_cgraph_org.svg" target="_base">
   <rect id="button" ry="5" rx="5" y="6" x="6" height="38" width="38"
        fill="#f2f5e9" fill-opacity="0.5" stroke="#606060" stroke-width="1.0"/>
   <path id="arrow"
     d="M 11.500037,31.436501 C 11.940474,20.09759 22.043105,11.32322 32.158766,21.979434 L 37.068811,17.246167 C 37.068811,17.246167 37.088388,32 37.088388,32 L 22.160133,31.978069 C 22.160133,31.978069 26.997745,27.140456 26.997745,27.140456 C 18.528582,18.264221 13.291696,25.230495 11.500037,31.436501 z"
     style="fill:#404040;"/>
  </a>
 </g>
</svg>

<style type='text/css'>
<![CDATA[
[data-mouse-over-selected='false'] { opacity: 0.7; }
[data-mouse-over-selected='true']  { opacity: 1.0; }
]]>
</style>
<script type="application/ecmascript"><![CDATA[
document.addEventListener('DOMContentLoaded', (event) => {
  highlightEdges();
  highlightAdjacentNodes();
});
]]></script>
</svg>
