<?xml version="1.0" encoding="UTF-8" standalone="no"?>
<!DOCTYPE svg PUBLIC "-//W3C//DTD SVG 1.1//EN"
 "http://www.w3.org/Graphics/SVG/1.1/DTD/svg11.dtd">
<!-- Generated by graphviz version 2.43.0 (0)
 -->
<!-- Title: Terraria.ModLoader.Core.ModOrganizer.DetectModChangesForInfoMessage Pages: 1 -->
<svg width="2139pt" height="323pt"
 viewBox="0.00 0.00 2139.00 323.00" xmlns="http://www.w3.org/2000/svg" xmlns:xlink="http://www.w3.org/1999/xlink">
<g id="graph0" class="graph" transform="scale(1 1) rotate(0) translate(4 319)">
<title>Terraria.ModLoader.Core.ModOrganizer.DetectModChangesForInfoMessage</title>
<!-- Node1 -->
<g id="Node000001" class="node">
<title>Node1</title>
<g id="a_Node000001"><a xlink:title="Returns changes based on last time M:Terraria.ModLoader.Core.ModOrganizer.SaveLastLaunchedMods was ca...">
<polygon fill="#999999" stroke="#666666" points="182,-245.5 0,-245.5 0,-204.5 182,-204.5 182,-245.5"/>
<text text-anchor="start" x="8" y="-233.5" font-family="Helvetica,sans-Serif" font-size="10.00">Terraria.ModLoader.Core.</text>
<text text-anchor="start" x="8" y="-222.5" font-family="Helvetica,sans-Serif" font-size="10.00">ModOrganizer.DetectModChanges</text>
<text text-anchor="middle" x="91" y="-211.5" font-family="Helvetica,sans-Serif" font-size="10.00">ForInfoMessage</text>
</a>
</g>
</g>
<!-- Node2 -->
<g id="Node000002" class="node">
<title>Node2</title>
<g id="a_Node000002"><a xlink:href="../../dd/db1/classTerraria_1_1ModLoader_1_1Core_1_1ModOrganizer_a49f7a88c2f372dca42468e71a115f0bb.html#a49f7a88c2f372dca42468e71a115f0bb" target="_top" xlink:title="Mods in workshop folders, not in dev folder or modpacks.">
<polygon fill="white" stroke="#666666" points="400,-219 218,-219 218,-189 400,-189 400,-219"/>
<text text-anchor="start" x="226" y="-207" font-family="Helvetica,sans-Serif" font-size="10.00">Terraria.ModLoader.Core.</text>
<text text-anchor="middle" x="309" y="-196" font-family="Helvetica,sans-Serif" font-size="10.00">ModOrganizer.FindWorkshopMods</text>
</a>
</g>
</g>
<!-- Node1&#45;&gt;Node2 -->
<g id="edge1_Node000001_Node000002" class="edge">
<title>Node1&#45;&gt;Node2</title>
<g id="a_edge1_Node000001_Node000002"><a xlink:title=" ">
<path fill="none" stroke="#63b8ff" d="M182.04,-216.25C190.53,-215.42 199.16,-214.58 207.74,-213.75"/>
<polygon fill="#63b8ff" stroke="#63b8ff" points="208.14,-217.22 217.76,-212.77 207.47,-210.26 208.14,-217.22"/>
</a>
</g>
</g>
<!-- Node8 -->
<g id="Node000008" class="node">
<title>Node8</title>
<g id="a_Node000008"><a xlink:href="../../d4/d8f/classTerraria_1_1Localization_1_1Language_ae4636a4800b9ecbaa498954520462f78.html#ae4636a4800b9ecbaa498954520462f78" target="_top" xlink:title="Retrieves the text value for a specified localization key. The text returned will be for the currentl...">
<polygon fill="white" stroke="#666666" points="1482.5,-289 1314.5,-289 1314.5,-259 1482.5,-259 1482.5,-289"/>
<text text-anchor="start" x="1322.5" y="-277" font-family="Helvetica,sans-Serif" font-size="10.00">Terraria.Localization.Language.</text>
<text text-anchor="middle" x="1398.5" y="-266" font-family="Helvetica,sans-Serif" font-size="10.00">GetTextValue</text>
</a>
</g>
</g>
<!-- Node1&#45;&gt;Node8 -->
<g id="edge31_Node000001_Node000008" class="edge">
<title>Node1&#45;&gt;Node8</title>
<g id="a_edge31_Node000001_Node000008"><a xlink:title=" ">
<path fill="none" stroke="#63b8ff" d="M182.16,-241.93C265.49,-256.09 392.9,-274 504.5,-274 504.5,-274 504.5,-274 948.5,-274 1071.41,-274 1213.24,-274 1304.06,-274"/>
<polygon fill="#63b8ff" stroke="#63b8ff" points="1304.33,-277.5 1314.33,-274 1304.33,-270.5 1304.33,-277.5"/>
</a>
</g>
</g>
<!-- Node3 -->
<g id="Node000003" class="node">
<title>Node3</title>
<g id="a_Node000003"><a xlink:href="../../dd/db1/classTerraria_1_1ModLoader_1_1Core_1_1ModOrganizer_a04194c0fac0f2e3a86c312d36b038e50.html#a04194c0fac0f2e3a86c312d36b038e50" target="_top" xlink:title=" ">
<polygon fill="white" stroke="#666666" points="575,-165 436,-165 436,-135 575,-135 575,-165"/>
<text text-anchor="start" x="444" y="-153" font-family="Helvetica,sans-Serif" font-size="10.00">Terraria.ModLoader.Core.</text>
<text text-anchor="middle" x="505.5" y="-142" font-family="Helvetica,sans-Serif" font-size="10.00">ModOrganizer._FindMods</text>
</a>
</g>
</g>
<!-- Node2&#45;&gt;Node3 -->
<g id="edge2_Node000002_Node000003" class="edge">
<title>Node2&#45;&gt;Node3</title>
<g id="a_edge2_Node000002_Node000003"><a xlink:title=" ">
<path fill="none" stroke="#63b8ff" d="M364.18,-188.96C387.9,-182.37 415.89,-174.6 440.62,-167.74"/>
<polygon fill="#63b8ff" stroke="#63b8ff" points="441.58,-171.1 450.27,-165.05 439.7,-164.36 441.58,-171.1"/>
</a>
</g>
</g>
<!-- Node4 -->
<g id="Node000004" class="node">
<title>Node4</title>
<g id="a_Node000004"><a xlink:href="../../dd/db1/classTerraria_1_1ModLoader_1_1Core_1_1ModOrganizer_a0e50e71bdb30b911e5a59656dcd0771b.html#a0e50e71bdb30b911e5a59656dcd0771b" target="_top" xlink:title=" ">
<polygon fill="white" stroke="#666666" points="795,-138 624,-138 624,-108 795,-108 795,-138"/>
<text text-anchor="start" x="632" y="-126" font-family="Helvetica,sans-Serif" font-size="10.00">Terraria.ModLoader.Core.</text>
<text text-anchor="middle" x="709.5" y="-115" font-family="Helvetica,sans-Serif" font-size="10.00">ModOrganizer.AttemptLoadMod</text>
</a>
</g>
</g>
<!-- Node3&#45;&gt;Node4 -->
<g id="edge3_Node000003_Node000004" class="edge">
<title>Node3&#45;&gt;Node4</title>
<g id="a_edge3_Node000003_Node000004"><a xlink:title=" ">
<path fill="none" stroke="#63b8ff" d="M575.17,-140.82C587.66,-139.15 600.88,-137.38 613.96,-135.64"/>
<polygon fill="#63b8ff" stroke="#63b8ff" points="614.47,-139.1 623.92,-134.31 613.54,-132.16 614.47,-139.1"/>
</a>
</g>
</g>
<!-- Node25 -->
<g id="Node000025" class="node">
<title>Node25</title>
<g id="a_Node000025"><a xlink:href="../../dd/db1/classTerraria_1_1ModLoader_1_1Core_1_1ModOrganizer_ab2915e9ff06492d4613e7142c37d80b5.html#ab2915e9ff06492d4613e7142c37d80b5" target="_top" xlink:title=" ">
<polygon fill="white" stroke="#666666" points="806.5,-60 612.5,-60 612.5,-30 806.5,-30 806.5,-60"/>
<text text-anchor="start" x="620.5" y="-48" font-family="Helvetica,sans-Serif" font-size="10.00">Terraria.ModLoader.Core.</text>
<text text-anchor="middle" x="709.5" y="-37" font-family="Helvetica,sans-Serif" font-size="10.00">ModOrganizer.DeleteTemporaryFiles</text>
</a>
</g>
</g>
<!-- Node3&#45;&gt;Node25 -->
<g id="edge26_Node000003_Node000025" class="edge">
<title>Node3&#45;&gt;Node25</title>
<g id="a_edge26_Node000003_Node000025"><a xlink:title=" ">
<path fill="none" stroke="#63b8ff" d="M535.44,-134.96C570.99,-116.48 631.39,-85.08 670.61,-64.69"/>
<polygon fill="#63b8ff" stroke="#63b8ff" points="672.35,-67.73 679.61,-60.02 669.12,-61.52 672.35,-67.73"/>
</a>
</g>
</g>
<!-- Node27 -->
<g id="Node000027" class="node">
<title>Node27</title>
<g id="a_Node000027"><a xlink:href="../../dd/db1/classTerraria_1_1ModLoader_1_1Core_1_1ModOrganizer_adc3755e489cb0b0394b4c7780186db75.html#adc3755e489cb0b0394b4c7780186db75" target="_top" xlink:title=" ">
<polygon fill="white" stroke="#666666" points="808,-192 611,-192 611,-162 808,-162 808,-192"/>
<text text-anchor="start" x="619" y="-180" font-family="Helvetica,sans-Serif" font-size="10.00">Terraria.ModLoader.Core.</text>
<text text-anchor="middle" x="709.5" y="-169" font-family="Helvetica,sans-Serif" font-size="10.00">ModOrganizer.GetActiveTmodInRepo</text>
</a>
</g>
</g>
<!-- Node3&#45;&gt;Node27 -->
<g id="edge28_Node000003_Node000027" class="edge">
<title>Node3&#45;&gt;Node27</title>
<g id="a_edge28_Node000003_Node000027"><a xlink:title=" ">
<path fill="none" stroke="#63b8ff" d="M575.17,-159.18C583.39,-160.28 591.93,-161.42 600.54,-162.57"/>
<polygon fill="#63b8ff" stroke="#63b8ff" points="600.28,-166.07 610.66,-163.92 601.21,-159.13 600.28,-166.07"/>
</a>
</g>
</g>
<!-- Node5 -->
<g id="Node000005" class="node">
<title>Node5</title>
<g id="a_Node000005"><a xlink:href="../../d4/d5b/classTerraria_1_1ModLoader_1_1Core_1_1TmodFile_a7157f6ed34285ffe2b4fc246a473eb44.html#a7157f6ed34285ffe2b4fc246a473eb44" target="_top" xlink:title=" ">
<polygon fill="white" stroke="#666666" points="1016.5,-138 878.5,-138 878.5,-108 1016.5,-108 1016.5,-138"/>
<text text-anchor="start" x="886.5" y="-126" font-family="Helvetica,sans-Serif" font-size="10.00">Terraria.ModLoader.Core.</text>
<text text-anchor="middle" x="947.5" y="-115" font-family="Helvetica,sans-Serif" font-size="10.00">TmodFile.Open</text>
</a>
</g>
</g>
<!-- Node4&#45;&gt;Node5 -->
<g id="edge4_Node000004_Node000005" class="edge">
<title>Node4&#45;&gt;Node5</title>
<g id="a_edge4_Node000004_Node000005"><a xlink:title=" ">
<path fill="none" stroke="#63b8ff" d="M795.03,-123C818.88,-123 844.72,-123 868.19,-123"/>
<polygon fill="#63b8ff" stroke="#63b8ff" points="868.44,-126.5 878.44,-123 868.44,-119.5 868.44,-126.5"/>
</a>
</g>
</g>
<!-- Node22 -->
<g id="Node000022" class="node">
<title>Node22</title>
<g id="a_Node000022"><a xlink:href="../../dd/db1/classTerraria_1_1ModLoader_1_1Core_1_1ModOrganizer_a600a74c64330f193c99dc1808fca1847.html#a600a74c64330f193c99dc1808fca1847" target="_top" xlink:title=" ">
<polygon fill="white" stroke="#666666" points="1039,-89.5 856,-89.5 856,-48.5 1039,-48.5 1039,-89.5"/>
<text text-anchor="start" x="864" y="-77.5" font-family="Helvetica,sans-Serif" font-size="10.00">Terraria.ModLoader.Core.</text>
<text text-anchor="start" x="864" y="-66.5" font-family="Helvetica,sans-Serif" font-size="10.00">ModOrganizer.SkipModForPreview</text>
<text text-anchor="middle" x="947.5" y="-55.5" font-family="Helvetica,sans-Serif" font-size="10.00">NotPlayable</text>
</a>
</g>
</g>
<!-- Node4&#45;&gt;Node22 -->
<g id="edge23_Node000004_Node000022" class="edge">
<title>Node4&#45;&gt;Node22</title>
<g id="a_edge23_Node000004_Node000022"><a xlink:title=" ">
<path fill="none" stroke="#63b8ff" d="M776.24,-107.96C798.18,-102.94 823.13,-97.23 847.05,-91.76"/>
<polygon fill="#63b8ff" stroke="#63b8ff" points="847.89,-95.15 856.86,-89.51 846.33,-88.33 847.89,-95.15"/>
</a>
</g>
</g>
<!-- Node6 -->
<g id="Node000006" class="node">
<title>Node6</title>
<g id="a_Node000006"><a xlink:href="../../d4/d5b/classTerraria_1_1ModLoader_1_1Core_1_1TmodFile_a2981153163dc8f74c351abe8cf741522.html#a2981153163dc8f74c351abe8cf741522" target="_top" xlink:title=" ">
<polygon fill="white" stroke="#666666" points="1672.5,-75 1534.5,-75 1534.5,-45 1672.5,-45 1672.5,-75"/>
<text text-anchor="start" x="1542.5" y="-63" font-family="Helvetica,sans-Serif" font-size="10.00">Terraria.ModLoader.Core.</text>
<text text-anchor="middle" x="1603.5" y="-52" font-family="Helvetica,sans-Serif" font-size="10.00">TmodFile.Close</text>
</a>
</g>
</g>
<!-- Node5&#45;&gt;Node6 -->
<g id="edge5_Node000005_Node000006" class="edge">
<title>Node5&#45;&gt;Node6</title>
<g id="a_edge5_Node000005_Node000006"><a xlink:title=" ">
<path fill="none" stroke="#63b8ff" d="M1016.64,-116.44C1138.8,-104.67 1394.37,-80.05 1523.79,-67.58"/>
<polygon fill="#63b8ff" stroke="#63b8ff" points="1524.41,-71.04 1534.02,-66.6 1523.73,-64.07 1524.41,-71.04"/>
</a>
</g>
</g>
<!-- Node7 -->
<g id="Node000007" class="node">
<title>Node7</title>
<g id="a_Node000007"><a xlink:href="../../d4/d5b/classTerraria_1_1ModLoader_1_1Core_1_1TmodFile_a4b9b88f4410f4d41a1d50dbf093e8698.html#a4b9b88f4410f4d41a1d50dbf093e8698" target="_top" xlink:title=" ">
<polygon fill="white" stroke="#666666" points="1250.5,-229 1112.5,-229 1112.5,-199 1250.5,-199 1250.5,-229"/>
<text text-anchor="start" x="1120.5" y="-217" font-family="Helvetica,sans-Serif" font-size="10.00">Terraria.ModLoader.Core.</text>
<text text-anchor="middle" x="1181.5" y="-206" font-family="Helvetica,sans-Serif" font-size="10.00">TmodFile.Read</text>
</a>
</g>
</g>
<!-- Node5&#45;&gt;Node7 -->
<g id="edge6_Node000005_Node000007" class="edge">
<title>Node5&#45;&gt;Node7</title>
<g id="a_edge6_Node000005_Node000007"><a xlink:title=" ">
<path fill="none" stroke="#63b8ff" d="M1016.56,-132.43C1028.58,-135.88 1040.57,-140.58 1051,-147 1072.22,-160.07 1065.92,-176.71 1087,-190 1091.9,-193.09 1097.19,-195.79 1102.67,-198.13"/>
<polygon fill="#63b8ff" stroke="#63b8ff" points="1101.44,-201.41 1112.02,-201.77 1103.97,-194.89 1101.44,-201.41"/>
</a>
</g>
</g>
<!-- Node21 -->
<g id="Node000021" class="node">
<title>Node21</title>
<g id="a_Node000021"><a xlink:href="../../d4/d5b/classTerraria_1_1ModLoader_1_1Core_1_1TmodFile_ade04a9e494a3f3878bc8067a06b169a0.html#ade04a9e494a3f3878bc8067a06b169a0" target="_top" xlink:title=" ">
<polygon fill="white" stroke="#666666" points="1250.5,-181 1112.5,-181 1112.5,-151 1250.5,-151 1250.5,-181"/>
<text text-anchor="start" x="1120.5" y="-169" font-family="Helvetica,sans-Serif" font-size="10.00">Terraria.ModLoader.Core.</text>
<text text-anchor="middle" x="1181.5" y="-158" font-family="Helvetica,sans-Serif" font-size="10.00">TmodFile.Reopen</text>
</a>
</g>
</g>
<!-- Node5&#45;&gt;Node21 -->
<g id="edge22_Node000005_Node000021" class="edge">
<title>Node5&#45;&gt;Node21</title>
<g id="a_edge22_Node000005_Node000021"><a xlink:title=" ">
<path fill="none" stroke="#63b8ff" d="M1016.54,-135.61C1043.45,-140.6 1074.54,-146.36 1102.37,-151.52"/>
<polygon fill="#63b8ff" stroke="#63b8ff" points="1101.99,-155.01 1112.46,-153.39 1103.27,-148.13 1101.99,-155.01"/>
</a>
</g>
</g>
<!-- Node7&#45;&gt;Node8 -->
<g id="edge7_Node000007_Node000008" class="edge">
<title>Node7&#45;&gt;Node8</title>
<g id="a_edge7_Node000007_Node000008"><a xlink:title=" ">
<path fill="none" stroke="#63b8ff" d="M1236.48,-229.06C1266,-237.3 1302.74,-247.56 1333.68,-256.19"/>
<polygon fill="#63b8ff" stroke="#63b8ff" points="1332.93,-259.61 1343.5,-258.93 1334.81,-252.87 1332.93,-259.61"/>
</a>
</g>
</g>
<!-- Node10 -->
<g id="Node000010" class="node">
<title>Node10</title>
<g id="a_Node000010"><a xlink:href="../../d4/d5b/classTerraria_1_1ModLoader_1_1Core_1_1TmodFile_a60f1ca523b54361f3cc779b2ea461211.html#a60f1ca523b54361f3cc779b2ea461211" target="_top" xlink:title=" ">
<polygon fill="white" stroke="#666666" points="1467.5,-171 1329.5,-171 1329.5,-141 1467.5,-141 1467.5,-171"/>
<text text-anchor="start" x="1337.5" y="-159" font-family="Helvetica,sans-Serif" font-size="10.00">Terraria.ModLoader.Core.</text>
<text text-anchor="middle" x="1398.5" y="-148" font-family="Helvetica,sans-Serif" font-size="10.00">TmodFile.Upgrade</text>
</a>
</g>
</g>
<!-- Node7&#45;&gt;Node10 -->
<g id="edge9_Node000007_Node000010" class="edge">
<title>Node7&#45;&gt;Node10</title>
<g id="a_edge9_Node000007_Node000010"><a xlink:title=" ">
<path fill="none" stroke="#63b8ff" d="M1241.91,-198.96C1253.24,-196.03 1264.99,-192.95 1276,-190 1295.19,-184.85 1316.03,-179.09 1334.94,-173.78"/>
<polygon fill="#63b8ff" stroke="#63b8ff" points="1335.96,-177.13 1344.64,-171.06 1334.07,-170.4 1335.96,-177.13"/>
</a>
</g>
</g>
<!-- Node9 -->
<g id="Node000009" class="node">
<title>Node9</title>
<g id="a_Node000009"><a xlink:href="../../d8/d74/classTerraria_1_1Localization_1_1LanguageManager_a9f1901e50105d9873d2fdf8816e122de.html#a9f1901e50105d9873d2fdf8816e122de" target="_top" xlink:title=" ">
<polygon fill="white" stroke="#666666" points="1686,-315 1521,-315 1521,-285 1686,-285 1686,-315"/>
<text text-anchor="start" x="1529" y="-303" font-family="Helvetica,sans-Serif" font-size="10.00">Terraria.Localization.Language</text>
<text text-anchor="middle" x="1603.5" y="-292" font-family="Helvetica,sans-Serif" font-size="10.00">Manager.GetTextValue</text>
</a>
</g>
</g>
<!-- Node8&#45;&gt;Node9 -->
<g id="edge8_Node000008_Node000009" class="edge">
<title>Node8&#45;&gt;Node9</title>
<g id="a_edge8_Node000008_Node000009"><a xlink:title=" ">
<path fill="none" stroke="#63b8ff" d="M1482.65,-284.65C1491.9,-285.83 1501.36,-287.05 1510.7,-288.24"/>
<polygon fill="#63b8ff" stroke="#63b8ff" points="1510.42,-291.74 1520.79,-289.53 1511.31,-284.79 1510.42,-291.74"/>
</a>
</g>
</g>
<!-- Node10&#45;&gt;Node5 -->
<g id="edge14_Node000010_Node000005" class="edge">
<title>Node10&#45;&gt;Node5</title>
<g id="a_edge14_Node000010_Node000005"><a xlink:title=" ">
<path fill="none" stroke="#63b8ff" d="M1329.45,-147.47C1312.05,-145.48 1293.35,-143.5 1276,-142 1191.04,-134.65 1093.42,-129.39 1027.02,-126.3"/>
<polygon fill="#63b8ff" stroke="#63b8ff" points="1026.79,-122.79 1016.64,-125.82 1026.47,-129.78 1026.79,-122.79"/>
</a>
</g>
</g>
<!-- Node10&#45;&gt;Node6 -->
<g id="edge13_Node000010_Node000006" class="edge">
<title>Node10&#45;&gt;Node6</title>
<g id="a_edge13_Node000010_Node000006"><a xlink:title=" ">
<path fill="none" stroke="#63b8ff" d="M1421.45,-140.71C1445.12,-124.78 1484.36,-99.96 1521,-84 1525.61,-81.99 1530.45,-80.09 1535.36,-78.31"/>
<polygon fill="#63b8ff" stroke="#63b8ff" points="1536.55,-81.6 1544.86,-75.02 1534.27,-74.98 1536.55,-81.6"/>
</a>
</g>
</g>
<!-- Node11 -->
<g id="Node000011" class="node">
<title>Node11</title>
<g id="a_Node000011"><a xlink:href="../../d4/d5b/classTerraria_1_1ModLoader_1_1Core_1_1TmodFile_acac33c23d4419b244e9aedde706915da.html#acac33c23d4419b244e9aedde706915da" target="_top" xlink:title="Adds a (fileName &#45;&gt; content) entry to the compressed payload This method is not threadsafe with reads...">
<polygon fill="white" stroke="#666666" points="1672.5,-171 1534.5,-171 1534.5,-141 1672.5,-141 1672.5,-171"/>
<text text-anchor="start" x="1542.5" y="-159" font-family="Helvetica,sans-Serif" font-size="10.00">Terraria.ModLoader.Core.</text>
<text text-anchor="middle" x="1603.5" y="-148" font-family="Helvetica,sans-Serif" font-size="10.00">TmodFile.AddFile</text>
</a>
</g>
</g>
<!-- Node10&#45;&gt;Node11 -->
<g id="edge10_Node000010_Node000011" class="edge">
<title>Node10&#45;&gt;Node11</title>
<g id="a_edge10_Node000010_Node000011"><a xlink:title=" ">
<path fill="none" stroke="#63b8ff" d="M1467.66,-156C1485.74,-156 1505.4,-156 1523.98,-156"/>
<polygon fill="#63b8ff" stroke="#63b8ff" points="1524.17,-159.5 1534.17,-156 1524.17,-152.5 1524.17,-159.5"/>
</a>
</g>
</g>
<!-- Node14 -->
<g id="Node000014" class="node">
<title>Node14</title>
<g id="a_Node000014"><a xlink:href="../../d4/daa/classTerraria_1_1ModLoader_1_1Core_1_1BuildProperties_af4b75e35a63f5773e3f6dfe822ca0e53.html#af4b75e35a63f5773e3f6dfe822ca0e53" target="_top" xlink:title=" ">
<polygon fill="white" stroke="#666666" points="1682,-123 1525,-123 1525,-93 1682,-93 1682,-123"/>
<text text-anchor="start" x="1533" y="-111" font-family="Helvetica,sans-Serif" font-size="10.00">Terraria.ModLoader.Core.</text>
<text text-anchor="middle" x="1603.5" y="-100" font-family="Helvetica,sans-Serif" font-size="10.00">BuildProperties.ReadModFile</text>
</a>
</g>
</g>
<!-- Node10&#45;&gt;Node14 -->
<g id="edge15_Node000010_Node000014" class="edge">
<title>Node10&#45;&gt;Node14</title>
<g id="a_edge15_Node000010_Node000014"><a xlink:title=" ">
<path fill="none" stroke="#63b8ff" d="M1463.17,-140.94C1484.15,-135.99 1507.63,-130.43 1529.26,-125.32"/>
<polygon fill="#63b8ff" stroke="#63b8ff" points="1530.13,-128.71 1539.05,-123 1528.52,-121.9 1530.13,-128.71"/>
</a>
</g>
</g>
<!-- Node19 -->
<g id="Node000019" class="node">
<title>Node19</title>
<g id="a_Node000019"><a xlink:href="../../d4/d5b/classTerraria_1_1ModLoader_1_1Core_1_1TmodFile_a4c7a044023cb24ffe53e357faca6654f.html#a4c7a044023cb24ffe53e357faca6654f" target="_top" xlink:title=" ">
<polygon fill="white" stroke="#666666" points="1672.5,-267 1534.5,-267 1534.5,-237 1672.5,-237 1672.5,-267"/>
<text text-anchor="start" x="1542.5" y="-255" font-family="Helvetica,sans-Serif" font-size="10.00">Terraria.ModLoader.Core.</text>
<text text-anchor="middle" x="1603.5" y="-244" font-family="Helvetica,sans-Serif" font-size="10.00">TmodFile.ResetCache</text>
</a>
</g>
</g>
<!-- Node10&#45;&gt;Node19 -->
<g id="edge20_Node000010_Node000019" class="edge">
<title>Node10&#45;&gt;Node19</title>
<g id="a_edge20_Node000010_Node000019"><a xlink:title=" ">
<path fill="none" stroke="#63b8ff" d="M1421.45,-171.29C1445.12,-187.22 1484.36,-212.04 1521,-228 1525.61,-230.01 1530.45,-231.91 1535.36,-233.69"/>
<polygon fill="#63b8ff" stroke="#63b8ff" points="1534.27,-237.02 1544.86,-236.98 1536.55,-230.4 1534.27,-237.02"/>
</a>
</g>
</g>
<!-- Node20 -->
<g id="Node000020" class="node">
<title>Node20</title>
<g id="a_Node000020"><a xlink:href="../../d4/d5b/classTerraria_1_1ModLoader_1_1Core_1_1TmodFile_a0d2d787bf6877bb9b262979a54bf6153.html#a0d2d787bf6877bb9b262979a54bf6153" target="_top" xlink:title=" ">
<polygon fill="white" stroke="#666666" points="1672.5,-219 1534.5,-219 1534.5,-189 1672.5,-189 1672.5,-219"/>
<text text-anchor="start" x="1542.5" y="-207" font-family="Helvetica,sans-Serif" font-size="10.00">Terraria.ModLoader.Core.</text>
<text text-anchor="middle" x="1603.5" y="-196" font-family="Helvetica,sans-Serif" font-size="10.00">TmodFile.Save</text>
</a>
</g>
</g>
<!-- Node10&#45;&gt;Node20 -->
<g id="edge21_Node000010_Node000020" class="edge">
<title>Node10&#45;&gt;Node20</title>
<g id="a_edge21_Node000010_Node000020"><a xlink:title=" ">
<path fill="none" stroke="#63b8ff" d="M1463.17,-171.06C1484.15,-176.01 1507.63,-181.57 1529.26,-186.68"/>
<polygon fill="#63b8ff" stroke="#63b8ff" points="1528.52,-190.1 1539.05,-189 1530.13,-183.29 1528.52,-190.1"/>
</a>
</g>
</g>
<!-- Node12 -->
<g id="Node000012" class="node">
<title>Node12</title>
<g id="a_Node000012"><a xlink:href="../../d4/d5b/classTerraria_1_1ModLoader_1_1Core_1_1TmodFile_a214f1577ff2defb9609c1dac0a9c96b5.html#a214f1577ff2defb9609c1dac0a9c96b5" target="_top" xlink:title=" ">
<polygon fill="white" stroke="#666666" points="1880.5,-219 1742.5,-219 1742.5,-189 1880.5,-189 1880.5,-219"/>
<text text-anchor="start" x="1750.5" y="-207" font-family="Helvetica,sans-Serif" font-size="10.00">Terraria.ModLoader.Core.</text>
<text text-anchor="middle" x="1811.5" y="-196" font-family="Helvetica,sans-Serif" font-size="10.00">TmodFile.Sanitize</text>
</a>
</g>
</g>
<!-- Node11&#45;&gt;Node12 -->
<g id="edge11_Node000011_Node000012" class="edge">
<title>Node11&#45;&gt;Node12</title>
<g id="a_edge11_Node000011_Node000012"><a xlink:title=" ">
<path fill="none" stroke="#63b8ff" d="M1669.11,-171.06C1690.4,-176.01 1714.23,-181.57 1736.18,-186.68"/>
<polygon fill="#63b8ff" stroke="#63b8ff" points="1735.58,-190.14 1746.11,-189 1737.17,-183.32 1735.58,-190.14"/>
</a>
</g>
</g>
<!-- Node13 -->
<g id="Node000013" class="node">
<title>Node13</title>
<g id="a_Node000013"><a xlink:href="../../d4/d5b/classTerraria_1_1ModLoader_1_1Core_1_1TmodFile_a5bc50ef2efecfeef97e91f6ed40caebc.html#a5bc50ef2efecfeef97e91f6ed40caebc" target="_top" xlink:title=" ">
<polygon fill="white" stroke="#666666" points="1884.5,-171 1738.5,-171 1738.5,-141 1884.5,-141 1884.5,-171"/>
<text text-anchor="start" x="1746.5" y="-159" font-family="Helvetica,sans-Serif" font-size="10.00">Terraria.ModLoader.Core.</text>
<text text-anchor="middle" x="1811.5" y="-148" font-family="Helvetica,sans-Serif" font-size="10.00">TmodFile.ShouldCompress</text>
</a>
</g>
</g>
<!-- Node11&#45;&gt;Node13 -->
<g id="edge12_Node000011_Node000013" class="edge">
<title>Node11&#45;&gt;Node13</title>
<g id="a_edge12_Node000011_Node000013"><a xlink:title=" ">
<path fill="none" stroke="#63b8ff" d="M1672.52,-156C1690.32,-156 1709.7,-156 1728.16,-156"/>
<polygon fill="#63b8ff" stroke="#63b8ff" points="1728.3,-159.5 1738.3,-156 1728.3,-152.5 1728.3,-159.5"/>
</a>
</g>
</g>
<!-- Node15 -->
<g id="Node000015" class="node">
<title>Node15</title>
<g id="a_Node000015"><a xlink:href="../../d4/d5b/classTerraria_1_1ModLoader_1_1Core_1_1TmodFile_ac8c9b9819144f2389d9916cb2a2295a1.html#ac8c9b9819144f2389d9916cb2a2295a1" target="_top" xlink:title=" ">
<polygon fill="white" stroke="#666666" points="1880.5,-123 1742.5,-123 1742.5,-93 1880.5,-93 1880.5,-123"/>
<text text-anchor="start" x="1750.5" y="-111" font-family="Helvetica,sans-Serif" font-size="10.00">Terraria.ModLoader.Core.</text>
<text text-anchor="middle" x="1811.5" y="-100" font-family="Helvetica,sans-Serif" font-size="10.00">TmodFile.GetStream</text>
</a>
</g>
</g>
<!-- Node14&#45;&gt;Node15 -->
<g id="edge16_Node000014_Node000015" class="edge">
<title>Node14&#45;&gt;Node15</title>
<g id="a_edge16_Node000014_Node000015"><a xlink:title=" ">
<path fill="none" stroke="#63b8ff" d="M1682.09,-108C1698.52,-108 1715.88,-108 1732.33,-108"/>
<polygon fill="#63b8ff" stroke="#63b8ff" points="1732.44,-111.5 1742.44,-108 1732.44,-104.5 1732.44,-111.5"/>
</a>
</g>
</g>
<!-- Node16 -->
<g id="Node000016" class="node">
<title>Node16</title>
<g id="a_Node000016"><a xlink:href="../../d4/daa/classTerraria_1_1ModLoader_1_1Core_1_1BuildProperties_a5976a8b0c61cb89eaa7b35a3e9c65a51.html#a5976a8b0c61cb89eaa7b35a3e9c65a51" target="_top" xlink:title=" ">
<polygon fill="white" stroke="#666666" points="1901,-75 1722,-75 1722,-45 1901,-45 1901,-75"/>
<text text-anchor="start" x="1730" y="-63" font-family="Helvetica,sans-Serif" font-size="10.00">Terraria.ModLoader.Core.</text>
<text text-anchor="middle" x="1811.5" y="-52" font-family="Helvetica,sans-Serif" font-size="10.00">BuildProperties.ReadFromStream</text>
</a>
</g>
</g>
<!-- Node14&#45;&gt;Node16 -->
<g id="edge17_Node000014_Node000016" class="edge">
<title>Node14&#45;&gt;Node16</title>
<g id="a_edge17_Node000014_Node000016"><a xlink:title=" ">
<path fill="none" stroke="#63b8ff" d="M1669.11,-92.94C1690.4,-87.99 1714.23,-82.43 1736.18,-77.32"/>
<polygon fill="#63b8ff" stroke="#63b8ff" points="1737.17,-80.68 1746.11,-75 1735.58,-73.86 1737.17,-80.68"/>
</a>
</g>
</g>
<!-- Node17 -->
<g id="Node000017" class="node">
<title>Node17</title>
<g id="a_Node000017"><a xlink:href="../../d5/dee/structTerraria_1_1ModLoader_1_1Core_1_1BuildProperties_1_1ModReference_ad10984394ab7edf04b1b479b1cbe8cc0.html#ad10984394ab7edf04b1b479b1cbe8cc0" target="_top" xlink:title=" ">
<polygon fill="white" stroke="#666666" points="2131,-99 1937,-99 1937,-69 2131,-69 2131,-99"/>
<text text-anchor="start" x="1945" y="-87" font-family="Helvetica,sans-Serif" font-size="10.00">Terraria.ModLoader.Core.</text>
<text text-anchor="middle" x="2034" y="-76" font-family="Helvetica,sans-Serif" font-size="10.00">BuildProperties.ModReference.Parse</text>
</a>
</g>
</g>
<!-- Node16&#45;&gt;Node17 -->
<g id="edge18_Node000016_Node000017" class="edge">
<title>Node16&#45;&gt;Node17</title>
<g id="a_edge18_Node000016_Node000017"><a xlink:title=" ">
<path fill="none" stroke="#63b8ff" d="M1901.23,-69.66C1909.66,-70.58 1918.27,-71.51 1926.84,-72.44"/>
<polygon fill="#63b8ff" stroke="#63b8ff" points="1926.55,-75.93 1936.87,-73.54 1927.31,-68.98 1926.55,-75.93"/>
</a>
</g>
</g>
<!-- Node18 -->
<g id="Node000018" class="node">
<title>Node18</title>
<g id="a_Node000018"><a xlink:href="../../d4/daa/classTerraria_1_1ModLoader_1_1Core_1_1BuildProperties_a40010e3fd2a6c53e729d78d0d1c048ed.html#a40010e3fd2a6c53e729d78d0d1c048ed" target="_top" xlink:title=" ">
<polygon fill="white" stroke="#666666" points="2103,-51 1965,-51 1965,-21 2103,-21 2103,-51"/>
<text text-anchor="start" x="1973" y="-39" font-family="Helvetica,sans-Serif" font-size="10.00">Terraria.ModLoader.Core.</text>
<text text-anchor="middle" x="2034" y="-28" font-family="Helvetica,sans-Serif" font-size="10.00">BuildProperties.ReadList</text>
</a>
</g>
</g>
<!-- Node16&#45;&gt;Node18 -->
<g id="edge19_Node000016_Node000018" class="edge">
<title>Node16&#45;&gt;Node18</title>
<g id="a_edge19_Node000016_Node000018"><a xlink:title=" ">
<path fill="none" stroke="#63b8ff" d="M1901.23,-50.34C1918.94,-48.41 1937.42,-46.4 1954.74,-44.52"/>
<polygon fill="#63b8ff" stroke="#63b8ff" points="1955.23,-47.99 1964.79,-43.42 1954.47,-41.03 1955.23,-47.99"/>
</a>
</g>
</g>
<!-- Node23 -->
<g id="Node000023" class="node">
<title>Node23</title>
<g id="a_Node000023"><a xlink:href="../../dd/db1/classTerraria_1_1ModLoader_1_1Core_1_1ModOrganizer_a82ed434499a904cfeabe45ebf2807dd0.html#a82ed434499a904cfeabe45ebf2807dd0" target="_top" xlink:title=" ">
<polygon fill="white" stroke="#666666" points="1276,-57 1087,-57 1087,-27 1276,-27 1276,-57"/>
<text text-anchor="start" x="1095" y="-45" font-family="Helvetica,sans-Serif" font-size="10.00">Terraria.ModLoader.Core.</text>
<text text-anchor="middle" x="1181.5" y="-34" font-family="Helvetica,sans-Serif" font-size="10.00">ModOrganizer.ApplyPreviewChecks</text>
</a>
</g>
</g>
<!-- Node22&#45;&gt;Node23 -->
<g id="edge24_Node000022_Node000023" class="edge">
<title>Node22&#45;&gt;Node23</title>
<g id="a_edge24_Node000022_Node000023"><a xlink:title=" ">
<path fill="none" stroke="#63b8ff" d="M1039.19,-58.45C1051.53,-57.01 1064.26,-55.53 1076.81,-54.07"/>
<polygon fill="#63b8ff" stroke="#63b8ff" points="1077.28,-57.54 1086.81,-52.9 1076.47,-50.58 1077.28,-57.54"/>
</a>
</g>
</g>
<!-- Node24 -->
<g id="Node000024" class="node">
<title>Node24</title>
<g id="a_Node000024"><a xlink:href="../../dd/db1/classTerraria_1_1ModLoader_1_1Core_1_1ModOrganizer_a73d51cb7288f0525c2b2a9945350137c.html#a73d51cb7288f0525c2b2a9945350137c" target="_top" xlink:title=" ">
<polygon fill="white" stroke="#666666" points="1485,-57 1312,-57 1312,-27 1485,-27 1485,-57"/>
<text text-anchor="start" x="1320" y="-45" font-family="Helvetica,sans-Serif" font-size="10.00">Terraria.ModLoader.Core.</text>
<text text-anchor="middle" x="1398.5" y="-34" font-family="Helvetica,sans-Serif" font-size="10.00">ModOrganizer.IsModFromSteam</text>
</a>
</g>
</g>
<!-- Node23&#45;&gt;Node24 -->
<g id="edge25_Node000023_Node000024" class="edge">
<title>Node23&#45;&gt;Node24</title>
<g id="a_edge25_Node000023_Node000024"><a xlink:title=" ">
<path fill="none" stroke="#63b8ff" d="M1276.18,-42C1284.62,-42 1293.19,-42 1301.65,-42"/>
<polygon fill="#63b8ff" stroke="#63b8ff" points="1301.92,-45.5 1311.92,-42 1301.92,-38.5 1301.92,-45.5"/>
</a>
</g>
</g>
<!-- Node26 -->
<g id="Node000026" class="node">
<title>Node26</title>
<g id="a_Node000026"><a xlink:href="../../dd/db1/classTerraria_1_1ModLoader_1_1Core_1_1ModOrganizer_ac751f047b291bb7c092d5599513672df.html#ac751f047b291bb7c092d5599513672df" target="_top" xlink:title=" ">
<polygon fill="white" stroke="#666666" points="1037,-30 858,-30 858,0 1037,0 1037,-30"/>
<text text-anchor="start" x="866" y="-18" font-family="Helvetica,sans-Serif" font-size="10.00">Terraria.ModLoader.Core.</text>
<text text-anchor="middle" x="947.5" y="-7" font-family="Helvetica,sans-Serif" font-size="10.00">ModOrganizer.GetTemporaryFiles</text>
</a>
</g>
</g>
<!-- Node25&#45;&gt;Node26 -->
<g id="edge27_Node000025_Node000026" class="edge">
<title>Node25&#45;&gt;Node26</title>
<g id="a_edge27_Node000025_Node000026"><a xlink:title=" ">
<path fill="none" stroke="#63b8ff" d="M806.83,-32.75C820.24,-31.05 834.03,-29.3 847.49,-27.59"/>
<polygon fill="#63b8ff" stroke="#63b8ff" points="848.22,-31.02 857.7,-26.29 847.33,-24.08 848.22,-31.02"/>
</a>
</g>
</g>
<!-- Node28 -->
<g id="Node000028" class="node">
<title>Node28</title>
<g id="a_Node000028"><a xlink:href="../../dd/db1/classTerraria_1_1ModLoader_1_1Core_1_1ModOrganizer_aa24c7f1039865e58006e2827f0140613.html#aa24c7f1039865e58006e2827f0140613" target="_top" xlink:title=" ">
<polygon fill="white" stroke="#666666" points="1051,-246 844,-246 844,-216 1051,-216 1051,-246"/>
<text text-anchor="start" x="852" y="-234" font-family="Helvetica,sans-Serif" font-size="10.00">Terraria.ModLoader.Core.</text>
<text text-anchor="middle" x="947.5" y="-223" font-family="Helvetica,sans-Serif" font-size="10.00">ModOrganizer.AnalyzeWorkshopTmods</text>
</a>
</g>
</g>
<!-- Node27&#45;&gt;Node28 -->
<g id="edge29_Node000027_Node000028" class="edge">
<title>Node27&#45;&gt;Node28</title>
<g id="a_edge29_Node000027_Node000028"><a xlink:title=" ">
<path fill="none" stroke="#63b8ff" d="M776.24,-192.04C805.53,-198.74 840.19,-206.68 870.58,-213.63"/>
<polygon fill="#63b8ff" stroke="#63b8ff" points="870.18,-217.13 880.7,-215.95 871.74,-210.3 870.18,-217.13"/>
</a>
</g>
</g>
<!-- Node29 -->
<g id="Node000029" class="node">
<title>Node29</title>
<g id="a_Node000029"><a xlink:href="../../d9/dce/interfaceTerraria_1_1Social_1_1Base_1_1SocialBrowserModule_ae170e3bd877d6fec964eef876a3aa0c2.html#ae170e3bd877d6fec964eef876a3aa0c2" target="_top" xlink:title=" ">
<polygon fill="white" stroke="#666666" points="1041.5,-197.5 853.5,-197.5 853.5,-156.5 1041.5,-156.5 1041.5,-197.5"/>
<text text-anchor="start" x="861.5" y="-185.5" font-family="Helvetica,sans-Serif" font-size="10.00">Terraria.Social.Base.Social</text>
<text text-anchor="start" x="861.5" y="-174.5" font-family="Helvetica,sans-Serif" font-size="10.00">BrowserModule.GetBrowserVersion</text>
<text text-anchor="middle" x="947.5" y="-163.5" font-family="Helvetica,sans-Serif" font-size="10.00">Number</text>
</a>
</g>
</g>
<!-- Node27&#45;&gt;Node29 -->
<g id="edge30_Node000027_Node000029" class="edge">
<title>Node27&#45;&gt;Node29</title>
<g id="a_edge30_Node000027_Node000029"><a xlink:title=" ">
<path fill="none" stroke="#63b8ff" d="M808.19,-177C819.77,-177 831.61,-177 843.26,-177"/>
<polygon fill="#63b8ff" stroke="#63b8ff" points="843.43,-180.5 853.43,-177 843.43,-173.5 843.43,-180.5"/>
</a>
</g>
</g>
</g>
</svg>
