<?xml version="1.0" encoding="UTF-8" standalone="no"?>
<!DOCTYPE svg PUBLIC "-//W3C//DTD SVG 1.1//EN"
 "http://www.w3.org/Graphics/SVG/1.1/DTD/svg11.dtd">
<!-- Generated by graphviz version 2.43.0 (0)
 -->
<!-- Title: Terraria.ModLoader.Core.ModOrganizer.GetParentDir Pages: 1 -->
<svg width="1959pt" height="593pt"
 viewBox="0.00 0.00 1959.00 593.00" xmlns="http://www.w3.org/2000/svg" xmlns:xlink="http://www.w3.org/1999/xlink">
<g id="graph0" class="graph" transform="scale(1 1) rotate(0) translate(4 589)">
<title>Terraria.ModLoader.Core.ModOrganizer.GetParentDir</title>
<!-- Node1 -->
<g id="Node000001" class="node">
<title>Node1</title>
<g id="a_Node000001"><a xlink:title=" ">
<polygon fill="#999999" stroke="#666666" points="1951,-441 1802,-441 1802,-411 1951,-411 1951,-441"/>
<text text-anchor="start" x="1810" y="-429" font-family="Helvetica,sans-Serif" font-size="10.00">Terraria.ModLoader.Core.</text>
<text text-anchor="middle" x="1876.5" y="-418" font-family="Helvetica,sans-Serif" font-size="10.00">ModOrganizer.GetParentDir</text>
</a>
</g>
</g>
<!-- Node2 -->
<g id="Node000002" class="node">
<title>Node2</title>
<g id="a_Node000002"><a xlink:href="../../dd/db1/classTerraria_1_1ModLoader_1_1Core_1_1ModOrganizer_a33b1c4118e73c4dd964cb3f545cce375.html#a33b1c4118e73c4dd964cb3f545cce375" target="_top" xlink:title=" ">
<polygon fill="white" stroke="#666666" points="1750.5,-537 1610.5,-537 1610.5,-507 1750.5,-507 1750.5,-537"/>
<text text-anchor="start" x="1618.5" y="-525" font-family="Helvetica,sans-Serif" font-size="10.00">Terraria.ModLoader.Core.</text>
<text text-anchor="middle" x="1680.5" y="-514" font-family="Helvetica,sans-Serif" font-size="10.00">ModOrganizer.DeleteMod</text>
</a>
</g>
</g>
<!-- Node1&#45;&gt;Node2 -->
<g id="edge1_Node000001_Node000002" class="edge">
<title>Node1&#45;&gt;Node2</title>
<g id="a_edge1_Node000001_Node000002"><a xlink:title=" ">
<path fill="none" stroke="#63b8ff" d="M1835.78,-445.65C1799.08,-463.82 1745.32,-490.42 1711.92,-506.95"/>
<polygon fill="#63b8ff" stroke="#63b8ff" points="1837.78,-448.57 1845.19,-441 1834.67,-442.3 1837.78,-448.57"/>
</a>
</g>
</g>
<!-- Node8 -->
<g id="Node000008" class="node">
<title>Node8</title>
<g id="a_Node000008"><a xlink:href="../../d1/d52/classTerraria_1_1Social_1_1Steam_1_1WorkshopHelper_a932546c85b67973c5fc6a41cdf55b386.html#a932546c85b67973c5fc6a41cdf55b386" target="_top" xlink:title=" ">
<polygon fill="white" stroke="#666666" points="1766,-441 1595,-441 1595,-411 1766,-411 1766,-441"/>
<text text-anchor="start" x="1603" y="-429" font-family="Helvetica,sans-Serif" font-size="10.00">Terraria.Social.Steam.Workshop</text>
<text text-anchor="middle" x="1680.5" y="-418" font-family="Helvetica,sans-Serif" font-size="10.00">Helper.GetPublishIdLocal</text>
</a>
</g>
</g>
<!-- Node1&#45;&gt;Node8 -->
<g id="edge7_Node000001_Node000008" class="edge">
<title>Node1&#45;&gt;Node8</title>
<g id="a_edge7_Node000001_Node000008"><a xlink:title=" ">
<path fill="none" stroke="#63b8ff" d="M1791.65,-426C1783.18,-426 1774.59,-426 1766.12,-426"/>
<polygon fill="#63b8ff" stroke="#63b8ff" points="1791.88,-429.5 1801.88,-426 1791.88,-422.5 1791.88,-429.5"/>
</a>
</g>
</g>
<!-- Node20 -->
<g id="Node000020" class="node">
<title>Node20</title>
<g id="a_Node000020"><a xlink:href="../../d4/d1a/classTerraria_1_1ModLoader_1_1UI_1_1UIModPacks_ad9137654ae6e18fe8499b7186e6b2f6a.html#ad9137654ae6e18fe8499b7186e6b2f6a" target="_top" xlink:title=" ">
<polygon fill="white" stroke="#666666" points="1759.5,-369 1601.5,-369 1601.5,-339 1759.5,-339 1759.5,-369"/>
<text text-anchor="start" x="1609.5" y="-357" font-family="Helvetica,sans-Serif" font-size="10.00">Terraria.ModLoader.UI.UIMod</text>
<text text-anchor="middle" x="1680.5" y="-346" font-family="Helvetica,sans-Serif" font-size="10.00">Packs.SaveSnapshot</text>
</a>
</g>
</g>
<!-- Node1&#45;&gt;Node20 -->
<g id="edge21_Node000001_Node000020" class="edge">
<title>Node1&#45;&gt;Node20</title>
<g id="a_edge21_Node000001_Node000020"><a xlink:title=" ">
<path fill="none" stroke="#63b8ff" d="M1825.19,-407.33C1793.12,-395.43 1752.11,-380.21 1722.12,-369.07"/>
<polygon fill="#63b8ff" stroke="#63b8ff" points="1824.24,-410.71 1834.83,-410.91 1826.67,-404.15 1824.24,-410.71"/>
</a>
</g>
</g>
<!-- Node3 -->
<g id="Node000003" class="node">
<title>Node3</title>
<g id="a_Node000003"><a xlink:href="../../d5/dc0/classTerraria_1_1ModLoader_1_1UI_1_1UIModInfo_a9ca6dfeb48caf459694e2f34c37591ed.html#a9ca6dfeb48caf459694e2f34c37591ed" target="_top" xlink:title=" ">
<polygon fill="white" stroke="#666666" points="1530.5,-585 1372.5,-585 1372.5,-555 1530.5,-555 1530.5,-585"/>
<text text-anchor="start" x="1380.5" y="-573" font-family="Helvetica,sans-Serif" font-size="10.00">Terraria.ModLoader.UI.UIMod</text>
<text text-anchor="middle" x="1451.5" y="-562" font-family="Helvetica,sans-Serif" font-size="10.00">Info.DeleteMod</text>
</a>
</g>
</g>
<!-- Node2&#45;&gt;Node3 -->
<g id="edge2_Node000002_Node000003" class="edge">
<title>Node2&#45;&gt;Node3</title>
<g id="a_edge2_Node000002_Node000003"><a xlink:title=" ">
<path fill="none" stroke="#63b8ff" d="M1600.63,-538.68C1575.58,-543.97 1548.03,-549.8 1523.56,-554.97"/>
<polygon fill="#63b8ff" stroke="#63b8ff" points="1601.41,-542.09 1610.47,-536.6 1599.96,-535.24 1601.41,-542.09"/>
</a>
</g>
</g>
<!-- Node5 -->
<g id="Node000005" class="node">
<title>Node5</title>
<g id="a_Node000005"><a xlink:href="../../d7/db5/classTerraria_1_1ModLoader_1_1UI_1_1UIModItem_aa6db86b638967606176924ec7d3dc1ba.html#aa6db86b638967606176924ec7d3dc1ba" target="_top" xlink:title=" ">
<polygon fill="white" stroke="#666666" points="1530.5,-537 1372.5,-537 1372.5,-507 1530.5,-507 1530.5,-537"/>
<text text-anchor="start" x="1380.5" y="-525" font-family="Helvetica,sans-Serif" font-size="10.00">Terraria.ModLoader.UI.UIMod</text>
<text text-anchor="middle" x="1451.5" y="-514" font-family="Helvetica,sans-Serif" font-size="10.00">Item.DeleteMod</text>
</a>
</g>
</g>
<!-- Node2&#45;&gt;Node5 -->
<g id="edge4_Node000002_Node000005" class="edge">
<title>Node2&#45;&gt;Node5</title>
<g id="a_edge4_Node000002_Node000005"><a xlink:title=" ">
<path fill="none" stroke="#63b8ff" d="M1600.27,-522C1577.73,-522 1553.21,-522 1530.73,-522"/>
<polygon fill="#63b8ff" stroke="#63b8ff" points="1600.47,-525.5 1610.47,-522 1600.47,-518.5 1600.47,-525.5"/>
</a>
</g>
</g>
<!-- Node4 -->
<g id="Node000004" class="node">
<title>Node4</title>
<g id="a_Node000004"><a xlink:href="../../d5/dc0/classTerraria_1_1ModLoader_1_1UI_1_1UIModInfo_a4037faa2a787af21c7493261bf1d521d.html#a4037faa2a787af21c7493261bf1d521d" target="_top" xlink:title=" ">
<polygon fill="white" stroke="#666666" points="1308,-585 1150,-585 1150,-555 1308,-555 1308,-585"/>
<text text-anchor="start" x="1158" y="-573" font-family="Helvetica,sans-Serif" font-size="10.00">Terraria.ModLoader.UI.UIMod</text>
<text text-anchor="middle" x="1229" y="-562" font-family="Helvetica,sans-Serif" font-size="10.00">Info.OnInitialize</text>
</a>
</g>
</g>
<!-- Node3&#45;&gt;Node4 -->
<g id="edge3_Node000003_Node000004" class="edge">
<title>Node3&#45;&gt;Node4</title>
<g id="a_edge3_Node000003_Node000004"><a xlink:title=" ">
<path fill="none" stroke="#63b8ff" d="M1362.08,-570C1344.3,-570 1325.73,-570 1308.32,-570"/>
<polygon fill="#63b8ff" stroke="#63b8ff" points="1362.45,-573.5 1372.45,-570 1362.45,-566.5 1362.45,-573.5"/>
</a>
</g>
</g>
<!-- Node6 -->
<g id="Node000006" class="node">
<title>Node6</title>
<g id="a_Node000006"><a xlink:href="../../d7/db5/classTerraria_1_1ModLoader_1_1UI_1_1UIModItem_a38069c7a7d6ad60fbf2bc4a27b3e94db.html#a38069c7a7d6ad60fbf2bc4a27b3e94db" target="_top" xlink:title=" ">
<polygon fill="white" stroke="#666666" points="1308,-537 1150,-537 1150,-507 1308,-507 1308,-537"/>
<text text-anchor="start" x="1158" y="-525" font-family="Helvetica,sans-Serif" font-size="10.00">Terraria.ModLoader.UI.UIMod</text>
<text text-anchor="middle" x="1229" y="-514" font-family="Helvetica,sans-Serif" font-size="10.00">Item.QuickModDelete</text>
</a>
</g>
</g>
<!-- Node5&#45;&gt;Node6 -->
<g id="edge5_Node000005_Node000006" class="edge">
<title>Node5&#45;&gt;Node6</title>
<g id="a_edge5_Node000005_Node000006"><a xlink:title=" ">
<path fill="none" stroke="#63b8ff" d="M1362.08,-522C1344.3,-522 1325.73,-522 1308.32,-522"/>
<polygon fill="#63b8ff" stroke="#63b8ff" points="1362.45,-525.5 1372.45,-522 1362.45,-518.5 1362.45,-525.5"/>
</a>
</g>
</g>
<!-- Node7 -->
<g id="Node000007" class="node">
<title>Node7</title>
<g id="a_Node000007"><a xlink:href="../../d7/db5/classTerraria_1_1ModLoader_1_1UI_1_1UIModItem_a41382f95d762ac8ff81c6a22475e591d.html#a41382f95d762ac8ff81c6a22475e591d" target="_top" xlink:title=" ">
<polygon fill="white" stroke="#666666" points="1114,-537 956,-537 956,-507 1114,-507 1114,-537"/>
<text text-anchor="start" x="964" y="-525" font-family="Helvetica,sans-Serif" font-size="10.00">Terraria.ModLoader.UI.UIMod</text>
<text text-anchor="middle" x="1035" y="-514" font-family="Helvetica,sans-Serif" font-size="10.00">Item.OnInitialize</text>
</a>
</g>
</g>
<!-- Node6&#45;&gt;Node7 -->
<g id="edge6_Node000006_Node000007" class="edge">
<title>Node6&#45;&gt;Node7</title>
<g id="a_edge6_Node000006_Node000007"><a xlink:title=" ">
<path fill="none" stroke="#63b8ff" d="M1139.85,-522C1131.23,-522 1122.53,-522 1114.02,-522"/>
<polygon fill="#63b8ff" stroke="#63b8ff" points="1139.91,-525.5 1149.91,-522 1139.91,-518.5 1139.91,-525.5"/>
</a>
</g>
</g>
<!-- Node9 -->
<g id="Node000009" class="node">
<title>Node9</title>
<g id="a_Node000009"><a xlink:href="../../d9/dcb/classTerraria_1_1Social_1_1Steam_1_1SteamedWraps_a8115ea09864a71fd583fd5dd32746d6b.html#a8115ea09864a71fd583fd5dd32746d6b" target="_top" xlink:title=" ">
<polygon fill="white" stroke="#666666" points="1535,-489 1368,-489 1368,-459 1535,-459 1535,-489"/>
<text text-anchor="start" x="1376" y="-477" font-family="Helvetica,sans-Serif" font-size="10.00">Terraria.Social.Steam.Steamed</text>
<text text-anchor="middle" x="1451.5" y="-466" font-family="Helvetica,sans-Serif" font-size="10.00">Wraps.BeginPlaytimeTracking</text>
</a>
</g>
</g>
<!-- Node8&#45;&gt;Node9 -->
<g id="edge8_Node000008_Node000009" class="edge">
<title>Node8&#45;&gt;Node9</title>
<g id="a_edge8_Node000008_Node000009"><a xlink:title=" ">
<path fill="none" stroke="#63b8ff" d="M1598.32,-443.17C1573.85,-448.34 1547.2,-453.98 1523.45,-459"/>
<polygon fill="#63b8ff" stroke="#63b8ff" points="1599.24,-446.55 1608.3,-441.06 1597.79,-439.7 1599.24,-446.55"/>
</a>
</g>
</g>
<!-- Node18 -->
<g id="Node000018" class="node">
<title>Node18</title>
<g id="a_Node000018"><a xlink:href="../../d8/d2b/classTerraria_1_1Social_1_1Steam_1_1WorkshopBrowserModule_ae4388f8f3068b8427dc2d8e6a9cc7786.html#ae4388f8f3068b8427dc2d8e6a9cc7786" target="_top" xlink:title=" ">
<polygon fill="white" stroke="#666666" points="1559,-441 1344,-441 1344,-411 1559,-411 1559,-441"/>
<text text-anchor="start" x="1352" y="-429" font-family="Helvetica,sans-Serif" font-size="10.00">Terraria.Social.Steam.Workshop</text>
<text text-anchor="middle" x="1451.5" y="-418" font-family="Helvetica,sans-Serif" font-size="10.00">BrowserModule.GetModIdFromLocalFiles</text>
</a>
</g>
</g>
<!-- Node8&#45;&gt;Node18 -->
<g id="edge19_Node000008_Node000018" class="edge">
<title>Node8&#45;&gt;Node18</title>
<g id="a_edge19_Node000008_Node000018"><a xlink:title=" ">
<path fill="none" stroke="#63b8ff" d="M1584.71,-426C1576.23,-426 1567.6,-426 1559.03,-426"/>
<polygon fill="#63b8ff" stroke="#63b8ff" points="1584.97,-429.5 1594.97,-426 1584.97,-422.5 1584.97,-429.5"/>
</a>
</g>
</g>
<!-- Node19 -->
<g id="Node000019" class="node">
<title>Node19</title>
<g id="a_Node000019"><a xlink:href="../../d5/dc0/classTerraria_1_1ModLoader_1_1UI_1_1UIModInfo_a75560398a629f50f0da9c9e63c31e6eb.html#a75560398a629f50f0da9c9e63c31e6eb" target="_top" xlink:title=" ">
<polygon fill="white" stroke="#666666" points="1530.5,-393 1372.5,-393 1372.5,-363 1530.5,-363 1530.5,-393"/>
<text text-anchor="start" x="1380.5" y="-381" font-family="Helvetica,sans-Serif" font-size="10.00">Terraria.ModLoader.UI.UIMod</text>
<text text-anchor="middle" x="1451.5" y="-370" font-family="Helvetica,sans-Serif" font-size="10.00">Info.Show</text>
</a>
</g>
</g>
<!-- Node8&#45;&gt;Node19 -->
<g id="edge20_Node000008_Node000019" class="edge">
<title>Node8&#45;&gt;Node19</title>
<g id="a_edge20_Node000008_Node000019"><a xlink:title=" ">
<path fill="none" stroke="#63b8ff" d="M1598.32,-408.83C1573.85,-403.66 1547.2,-398.02 1523.45,-393"/>
<polygon fill="#63b8ff" stroke="#63b8ff" points="1597.79,-412.3 1608.3,-410.94 1599.24,-405.45 1597.79,-412.3"/>
</a>
</g>
</g>
<!-- Node10 -->
<g id="Node000010" class="node">
<title>Node10</title>
<g id="a_Node000010"><a xlink:href="../../de/d90/classTerraria_1_1Player_1_1Hooks_acabbba9c9432aac553747ab035127dbc.html#acabbba9c9432aac553747ab035127dbc" target="_top" xlink:title=" ">
<polygon fill="white" stroke="#666666" points="1303.5,-489 1154.5,-489 1154.5,-459 1303.5,-459 1303.5,-489"/>
<text text-anchor="start" x="1162.5" y="-477" font-family="Helvetica,sans-Serif" font-size="10.00">Terraria.Player.Hooks.Enter</text>
<text text-anchor="middle" x="1229" y="-466" font-family="Helvetica,sans-Serif" font-size="10.00">World</text>
</a>
</g>
</g>
<!-- Node9&#45;&gt;Node10 -->
<g id="edge9_Node000009_Node000010" class="edge">
<title>Node9&#45;&gt;Node10</title>
<g id="a_edge9_Node000009_Node000010"><a xlink:title=" ">
<path fill="none" stroke="#63b8ff" d="M1357.57,-474C1339.61,-474 1321.01,-474 1303.76,-474"/>
<polygon fill="#63b8ff" stroke="#63b8ff" points="1357.77,-477.5 1367.77,-474 1357.77,-470.5 1357.77,-477.5"/>
</a>
</g>
</g>
<!-- Node11 -->
<g id="Node000011" class="node">
<title>Node11</title>
<g id="a_Node000011"><a xlink:href="../../d4/d03/classTerraria_1_1Player_adb9707afe7e95e54d3413e1c2e5bccd8.html#adb9707afe7e95e54d3413e1c2e5bccd8" target="_top" xlink:title=" ">
<polygon fill="white" stroke="#666666" points="1096,-486.5 974,-486.5 974,-467.5 1096,-467.5 1096,-486.5"/>
<text text-anchor="middle" x="1035" y="-474.5" font-family="Helvetica,sans-Serif" font-size="10.00">Terraria.Player.Spawn</text>
</a>
</g>
</g>
<!-- Node10&#45;&gt;Node11 -->
<g id="edge10_Node000010_Node000011" class="edge">
<title>Node10&#45;&gt;Node11</title>
<g id="a_edge10_Node000010_Node000011"><a xlink:title=" ">
<path fill="none" stroke="#63b8ff" d="M1144.3,-475.31C1128.08,-475.56 1111.39,-475.82 1096.11,-476.06"/>
<polygon fill="#63b8ff" stroke="#63b8ff" points="1144.37,-478.81 1154.32,-475.15 1144.26,-471.81 1144.37,-478.81"/>
</a>
</g>
</g>
<!-- Node12 -->
<g id="Node000012" class="node">
<title>Node12</title>
<g id="a_Node000012"><a xlink:href="../../d4/d03/classTerraria_1_1Player_a8643c5f06d9395c6b9666d3fc1e40fe0.html#a8643c5f06d9395c6b9666d3fc1e40fe0" target="_top" xlink:title=" ">
<polygon fill="white" stroke="#666666" points="919.5,-565.5 743.5,-565.5 743.5,-524.5 919.5,-524.5 919.5,-565.5"/>
<text text-anchor="start" x="751.5" y="-553.5" font-family="Helvetica,sans-Serif" font-size="10.00">Terraria.Player.DoPotion</text>
<text text-anchor="start" x="751.5" y="-542.5" font-family="Helvetica,sans-Serif" font-size="10.00">OfReturnTeleportationAndSetThe</text>
<text text-anchor="middle" x="831.5" y="-531.5" font-family="Helvetica,sans-Serif" font-size="10.00">ComebackPoint</text>
</a>
</g>
</g>
<!-- Node11&#45;&gt;Node12 -->
<g id="edge11_Node000011_Node000012" class="edge">
<title>Node11&#45;&gt;Node12</title>
<g id="a_edge11_Node000011_Node000012"><a xlink:title=" ">
<path fill="none" stroke="#63b8ff" d="M985.61,-489.21C975.76,-491.93 965.51,-494.92 956,-498 931.78,-505.85 905.34,-515.73 883.16,-524.4"/>
<polygon fill="#63b8ff" stroke="#63b8ff" points="986.55,-492.59 995.29,-486.6 984.72,-485.83 986.55,-492.59"/>
</a>
</g>
</g>
<!-- Node13 -->
<g id="Node000013" class="node">
<title>Node13</title>
<g id="a_Node000013"><a xlink:href="../../d4/d03/classTerraria_1_1Player_a3eacd4d33ca74609db3633d339c047f8.html#a3eacd4d33ca74609db3633d339c047f8" target="_top" xlink:title=" ">
<polygon fill="white" stroke="#666666" points="699,-516 557,-516 557,-486 699,-486 699,-516"/>
<text text-anchor="start" x="565" y="-504" font-family="Helvetica,sans-Serif" font-size="10.00">Terraria.Player.ItemCheck</text>
<text text-anchor="middle" x="628" y="-493" font-family="Helvetica,sans-Serif" font-size="10.00">_Inner</text>
</a>
</g>
</g>
<!-- Node11&#45;&gt;Node13 -->
<g id="edge16_Node000011_Node000013" class="edge">
<title>Node11&#45;&gt;Node13</title>
<g id="a_edge16_Node000011_Node000013"><a xlink:title=" ">
<path fill="none" stroke="#63b8ff" d="M963.62,-481.17C889.4,-485.57 773.16,-492.46 699.06,-496.85"/>
<polygon fill="#63b8ff" stroke="#63b8ff" points="964.03,-484.65 973.8,-480.57 963.62,-477.66 964.03,-484.65"/>
</a>
</g>
</g>
<!-- Node17 -->
<g id="Node000017" class="node">
<title>Node17</title>
<g id="a_Node000017"><a xlink:href="../../d4/d03/classTerraria_1_1Player_ababcc3ecfeb4b1cb4f90ab98c2587f85.html#ababcc3ecfeb4b1cb4f90ab98c2587f85" target="_top" xlink:title=" ">
<polygon fill="white" stroke="#666666" points="311,-467.5 161,-467.5 161,-448.5 311,-448.5 311,-467.5"/>
<text text-anchor="middle" x="236" y="-455.5" font-family="Helvetica,sans-Serif" font-size="10.00">Terraria.Player.UpdateDead</text>
</a>
</g>
</g>
<!-- Node11&#45;&gt;Node17 -->
<g id="edge17_Node000011_Node000017" class="edge">
<title>Node11&#45;&gt;Node17</title>
<g id="a_edge17_Node000011_Node000017"><a xlink:title=" ">
<path fill="none" stroke="#63b8ff" d="M963.77,-475.33C814,-471.76 464.44,-463.42 311.21,-459.77"/>
<polygon fill="#63b8ff" stroke="#63b8ff" points="963.69,-478.82 973.77,-475.56 963.86,-471.83 963.69,-478.82"/>
</a>
</g>
</g>
<!-- Node12&#45;&gt;Node13 -->
<g id="edge12_Node000012_Node000013" class="edge">
<title>Node12&#45;&gt;Node13</title>
<g id="a_edge12_Node000012_Node000013"><a xlink:title=" ">
<path fill="none" stroke="#63b8ff" d="M733.26,-523.77C721.29,-521.15 709.25,-518.52 697.82,-516.03"/>
<polygon fill="#63b8ff" stroke="#63b8ff" points="732.77,-527.24 743.29,-525.96 734.27,-520.4 732.77,-527.24"/>
</a>
</g>
</g>
<!-- Node14 -->
<g id="Node000014" class="node">
<title>Node14</title>
<g id="a_Node000014"><a xlink:href="../../d4/d03/classTerraria_1_1Player_a2ec9343f552a36a4a82b36dbae10c965.html#a2ec9343f552a36a4a82b36dbae10c965" target="_top" xlink:title=" ">
<polygon fill="white" stroke="#666666" points="501,-510.5 359,-510.5 359,-491.5 501,-491.5 501,-510.5"/>
<text text-anchor="middle" x="430" y="-498.5" font-family="Helvetica,sans-Serif" font-size="10.00">Terraria.Player.ItemCheck</text>
</a>
</g>
</g>
<!-- Node13&#45;&gt;Node14 -->
<g id="edge13_Node000013_Node000014" class="edge">
<title>Node13&#45;&gt;Node14</title>
<g id="a_edge13_Node000013_Node000014"><a xlink:title=" ">
<path fill="none" stroke="#63b8ff" d="M546.47,-501C531.4,-501 515.77,-501 501.05,-501"/>
<polygon fill="#63b8ff" stroke="#63b8ff" points="546.79,-504.5 556.79,-501 546.79,-497.5 546.79,-504.5"/>
</a>
</g>
</g>
<!-- Node15 -->
<g id="Node000015" class="node">
<title>Node15</title>
<g id="a_Node000015"><a xlink:href="../../d4/d03/classTerraria_1_1Player_a687261287a0d6ac3be2592f9a734f199.html#a687261287a0d6ac3be2592f9a734f199" target="_top" xlink:title=" ">
<polygon fill="white" stroke="#666666" points="307,-516 165,-516 165,-486 307,-486 307,-516"/>
<text text-anchor="start" x="173" y="-504" font-family="Helvetica,sans-Serif" font-size="10.00">Terraria.Player.ItemCheck</text>
<text text-anchor="middle" x="236" y="-493" font-family="Helvetica,sans-Serif" font-size="10.00">Wrapped</text>
</a>
</g>
</g>
<!-- Node14&#45;&gt;Node15 -->
<g id="edge14_Node000014_Node000015" class="edge">
<title>Node14&#45;&gt;Node15</title>
<g id="a_edge14_Node000014_Node000015"><a xlink:title=" ">
<path fill="none" stroke="#63b8ff" d="M348.5,-501C334.8,-501 320.67,-501 307.26,-501"/>
<polygon fill="#63b8ff" stroke="#63b8ff" points="348.87,-504.5 358.87,-501 348.87,-497.5 348.87,-504.5"/>
</a>
</g>
</g>
<!-- Node16 -->
<g id="Node000016" class="node">
<title>Node16</title>
<g id="a_Node000016"><a xlink:href="../../d4/d03/classTerraria_1_1Player_af44290f5d38b6d5076a5fa8d6ee3dd12.html#af44290f5d38b6d5076a5fa8d6ee3dd12" target="_top" xlink:title=" ">
<polygon fill="white" stroke="#666666" points="125,-488.5 0,-488.5 0,-469.5 125,-469.5 125,-488.5"/>
<text text-anchor="middle" x="62.5" y="-476.5" font-family="Helvetica,sans-Serif" font-size="10.00">Terraria.Player.Update</text>
</a>
</g>
</g>
<!-- Node15&#45;&gt;Node16 -->
<g id="edge15_Node000015_Node000016" class="edge">
<title>Node15&#45;&gt;Node16</title>
<g id="a_edge15_Node000015_Node000016"><a xlink:title=" ">
<path fill="none" stroke="#63b8ff" d="M154.82,-490.72C144.84,-489.43 134.76,-488.14 125.13,-486.91"/>
<polygon fill="#63b8ff" stroke="#63b8ff" points="154.39,-494.19 164.75,-491.99 155.28,-487.24 154.39,-494.19"/>
</a>
</g>
</g>
<!-- Node17&#45;&gt;Node16 -->
<g id="edge18_Node000017_Node000016" class="edge">
<title>Node17&#45;&gt;Node16</title>
<g id="a_edge18_Node000017_Node000016"><a xlink:title=" ">
<path fill="none" stroke="#63b8ff" d="M150.72,-468.32C142.13,-469.37 133.52,-470.43 125.23,-471.44"/>
<polygon fill="#63b8ff" stroke="#63b8ff" points="151.27,-471.78 160.78,-467.09 150.42,-464.83 151.27,-471.78"/>
</a>
</g>
</g>
<!-- Node21 -->
<g id="Node000021" class="node">
<title>Node21</title>
<g id="a_Node000021"><a xlink:href="../../d4/d1a/classTerraria_1_1ModLoader_1_1UI_1_1UIModPacks_a0914bbe2708c0aa03b816c6ae274f445.html#a0914bbe2708c0aa03b816c6ae274f445" target="_top" xlink:title=" ">
<polygon fill="white" stroke="#666666" points="1530.5,-298 1372.5,-298 1372.5,-268 1530.5,-268 1530.5,-298"/>
<text text-anchor="start" x="1380.5" y="-286" font-family="Helvetica,sans-Serif" font-size="10.00">Terraria.ModLoader.UI.UIMod</text>
<text text-anchor="middle" x="1451.5" y="-275" font-family="Helvetica,sans-Serif" font-size="10.00">Packs.SaveModPack</text>
</a>
</g>
</g>
<!-- Node20&#45;&gt;Node21 -->
<g id="edge22_Node000020_Node000021" class="edge">
<title>Node20&#45;&gt;Node21</title>
<g id="a_edge22_Node000020_Node000021"><a xlink:title=" ">
<path fill="none" stroke="#63b8ff" d="M1621.59,-335.89C1584.12,-324.17 1535.92,-309.09 1500.57,-298.04"/>
<polygon fill="#63b8ff" stroke="#63b8ff" points="1620.77,-339.3 1631.36,-338.94 1622.86,-332.62 1620.77,-339.3"/>
</a>
</g>
</g>
<!-- Node22 -->
<g id="Node000022" class="node">
<title>Node22</title>
<g id="a_Node000022"><a xlink:href="../../db/d9f/classTerraria_1_1ModLoader_1_1UI_1_1UIModPackItem_aaf30d32c4c1f36c6a0708b532b6f8f21.html#aaf30d32c4c1f36c6a0708b532b6f8f21" target="_top" xlink:title=" ">
<polygon fill="white" stroke="#666666" points="1308,-230 1150,-230 1150,-200 1308,-200 1308,-230"/>
<text text-anchor="start" x="1158" y="-218" font-family="Helvetica,sans-Serif" font-size="10.00">Terraria.ModLoader.UI.UIMod</text>
<text text-anchor="middle" x="1229" y="-207" font-family="Helvetica,sans-Serif" font-size="10.00">PackItem.UpdateModPack</text>
</a>
</g>
</g>
<!-- Node21&#45;&gt;Node22 -->
<g id="edge23_Node000021_Node000022" class="edge">
<title>Node21&#45;&gt;Node22</title>
<g id="a_edge23_Node000021_Node000022"><a xlink:title=" ">
<path fill="none" stroke="#63b8ff" d="M1392.14,-265C1356.85,-254.12 1312.36,-240.4 1278.92,-230.09"/>
<polygon fill="#63b8ff" stroke="#63b8ff" points="1391.25,-268.39 1401.84,-267.99 1393.31,-261.7 1391.25,-268.39"/>
</a>
</g>
</g>
<!-- Node23 -->
<g id="Node000023" class="node">
<title>Node23</title>
<g id="a_Node000023"><a xlink:href="../../db/d9f/classTerraria_1_1ModLoader_1_1UI_1_1UIModPackItem_acb3914f83e7355fa05d1b4cb2ca852c0.html#acb3914f83e7355fa05d1b4cb2ca852c0" target="_top" xlink:title=" ">
<polygon fill="white" stroke="#666666" points="1114,-230 956,-230 956,-200 1114,-200 1114,-230"/>
<text text-anchor="start" x="964" y="-218" font-family="Helvetica,sans-Serif" font-size="10.00">Terraria.ModLoader.UI.UIMod</text>
<text text-anchor="middle" x="1035" y="-207" font-family="Helvetica,sans-Serif" font-size="10.00">PackItem.UIModPackItem</text>
</a>
</g>
</g>
<!-- Node22&#45;&gt;Node23 -->
<g id="edge24_Node000022_Node000023" class="edge">
<title>Node22&#45;&gt;Node23</title>
<g id="a_edge24_Node000022_Node000023"><a xlink:title=" ">
<path fill="none" stroke="#63b8ff" d="M1139.85,-208.27C1131.23,-208.23 1122.53,-208.25 1114.02,-208.36"/>
<polygon fill="#63b8ff" stroke="#63b8ff" points="1139.88,-211.77 1149.91,-208.36 1139.94,-204.77 1139.88,-211.77"/>
</a>
</g>
</g>
<!-- Node23&#45;&gt;Node22 -->
<g id="edge43_Node000023_Node000022" class="edge">
<title>Node23&#45;&gt;Node22</title>
<g id="a_edge43_Node000023_Node000022"><a xlink:title=" ">
<path fill="none" stroke="#63b8ff" d="M1124.08,-221.73C1132.7,-221.77 1141.4,-221.75 1149.91,-221.64"/>
<polygon fill="#63b8ff" stroke="#63b8ff" points="1124.05,-218.23 1114.02,-221.64 1123.99,-225.23 1124.05,-218.23"/>
</a>
</g>
</g>
<!-- Node24 -->
<g id="Node000024" class="node">
<title>Node24</title>
<g id="a_Node000024"><a xlink:href="../../db/d9f/classTerraria_1_1ModLoader_1_1UI_1_1UIModPackItem_a596eb4b1fee5230ef39e1c8ba161bc3e.html#a596eb4b1fee5230ef39e1c8ba161bc3e" target="_top" xlink:title=" ">
<polygon fill="white" stroke="#666666" points="910.5,-230 752.5,-230 752.5,-200 910.5,-200 910.5,-230"/>
<text text-anchor="start" x="760.5" y="-218" font-family="Helvetica,sans-Serif" font-size="10.00">Terraria.ModLoader.UI.UIMod</text>
<text text-anchor="middle" x="831.5" y="-207" font-family="Helvetica,sans-Serif" font-size="10.00">PackItem.DeleteButtonClick</text>
</a>
</g>
</g>
<!-- Node23&#45;&gt;Node24 -->
<g id="edge25_Node000023_Node000024" class="edge">
<title>Node23&#45;&gt;Node24</title>
<g id="a_edge25_Node000023_Node000024"><a xlink:title=" ">
<path fill="none" stroke="#63b8ff" d="M945.64,-208.3C933.99,-208.21 922.11,-208.25 910.65,-208.4"/>
<polygon fill="#63b8ff" stroke="#63b8ff" points="945.77,-211.8 955.81,-208.4 945.84,-204.8 945.77,-211.8"/>
</a>
</g>
</g>
<!-- Node25 -->
<g id="Node000025" class="node">
<title>Node25</title>
<g id="a_Node000025"><a xlink:href="../../db/d9f/classTerraria_1_1ModLoader_1_1UI_1_1UIModPackItem_af4e5c03a84c26684e63d4f9e861205a7.html#af4e5c03a84c26684e63d4f9e861205a7" target="_top" xlink:title=" ">
<polygon fill="white" stroke="#666666" points="910.5,-182 752.5,-182 752.5,-152 910.5,-152 910.5,-182"/>
<text text-anchor="start" x="760.5" y="-170" font-family="Helvetica,sans-Serif" font-size="10.00">Terraria.ModLoader.UI.UIMod</text>
<text text-anchor="middle" x="831.5" y="-159" font-family="Helvetica,sans-Serif" font-size="10.00">PackItem.DeleteInstance</text>
</a>
</g>
</g>
<!-- Node23&#45;&gt;Node25 -->
<g id="edge27_Node000023_Node000025" class="edge">
<title>Node23&#45;&gt;Node25</title>
<g id="a_edge27_Node000023_Node000025"><a xlink:title=" ">
<path fill="none" stroke="#63b8ff" d="M983.88,-197.13C961.77,-191.08 935.26,-184.54 910.65,-179.02"/>
<polygon fill="#63b8ff" stroke="#63b8ff" points="983.14,-200.56 993.71,-199.88 985.02,-193.82 983.14,-200.56"/>
</a>
</g>
</g>
<!-- Node26 -->
<g id="Node000026" class="node">
<title>Node26</title>
<g id="a_Node000026"><a xlink:href="../../db/d9f/classTerraria_1_1ModLoader_1_1UI_1_1UIModPackItem_a653c83b23da87eb30b85889f110362b4.html#a653c83b23da87eb30b85889f110362b4" target="_top" xlink:title=" ">
<polygon fill="white" stroke="#666666" points="920,-134 743,-134 743,-104 920,-104 920,-134"/>
<text text-anchor="start" x="751" y="-122" font-family="Helvetica,sans-Serif" font-size="10.00">Terraria.ModLoader.UI.UIMod</text>
<text text-anchor="middle" x="831.5" y="-111" font-family="Helvetica,sans-Serif" font-size="10.00">PackItem.DownloadMissingMods</text>
</a>
</g>
</g>
<!-- Node23&#45;&gt;Node26 -->
<g id="edge29_Node000023_Node000026" class="edge">
<title>Node23&#45;&gt;Node26</title>
<g id="a_edge29_Node000023_Node000026"><a xlink:title=" ">
<path fill="none" stroke="#63b8ff" d="M1014.04,-193.17C992.05,-174.7 955.13,-149.5 920,-134 919.86,-133.94 919.71,-133.87 919.57,-133.81"/>
<polygon fill="#63b8ff" stroke="#63b8ff" points="1011.87,-195.93 1021.7,-199.89 1016.49,-190.66 1011.87,-195.93"/>
</a>
</g>
</g>
<!-- Node27 -->
<g id="Node000027" class="node">
<title>Node27</title>
<g id="a_Node000027"><a xlink:href="../../db/d9f/classTerraria_1_1ModLoader_1_1UI_1_1UIModPackItem_afb554a5bea9ee67331d11802090cac27.html#afb554a5bea9ee67331d11802090cac27" target="_top" xlink:title=" ">
<polygon fill="white" stroke="#666666" points="707,-82 549,-82 549,-52 707,-52 707,-82"/>
<text text-anchor="start" x="557" y="-70" font-family="Helvetica,sans-Serif" font-size="10.00">Terraria.ModLoader.UI.UIMod</text>
<text text-anchor="middle" x="628" y="-59" font-family="Helvetica,sans-Serif" font-size="10.00">PackItem.EnabledListOnly</text>
</a>
</g>
</g>
<!-- Node23&#45;&gt;Node27 -->
<g id="edge31_Node000023_Node000027" class="edge">
<title>Node23&#45;&gt;Node27</title>
<g id="a_edge31_Node000023_Node000027"><a xlink:title=" ">
<path fill="none" stroke="#63b8ff" d="M1022.76,-190.77C1004.86,-159.99 967.05,-108.93 920,-86 853.39,-53.54 768.11,-48.99 707.12,-52.75"/>
<polygon fill="#63b8ff" stroke="#63b8ff" points="1019.76,-192.57 1027.66,-199.62 1025.88,-189.18 1019.76,-192.57"/>
</a>
</g>
</g>
<!-- Node28 -->
<g id="Node000028" class="node">
<title>Node28</title>
<g id="a_Node000028"><a xlink:href="../../db/d9f/classTerraria_1_1ModLoader_1_1UI_1_1UIModPackItem_abd9ab13b534cea683bea537c65eeb53b.html#abd9ab13b534cea683bea537c65eeb53b" target="_top" xlink:title=" ">
<polygon fill="white" stroke="#666666" points="513,-426 347,-426 347,-396 513,-396 513,-426"/>
<text text-anchor="start" x="355" y="-414" font-family="Helvetica,sans-Serif" font-size="10.00">Terraria.ModLoader.UI.UIMod</text>
<text text-anchor="middle" x="430" y="-403" font-family="Helvetica,sans-Serif" font-size="10.00">PackItem.ImportModPackLocal</text>
</a>
</g>
</g>
<!-- Node23&#45;&gt;Node28 -->
<g id="edge39_Node000023_Node000028" class="edge">
<title>Node23&#45;&gt;Node28</title>
<g id="a_edge39_Node000023_Node000028"><a xlink:title=" ">
<path fill="none" stroke="#63b8ff" d="M1023.11,-239.52C1007.24,-276.2 973.67,-343.56 920,-374 792.78,-446.15 615.77,-433.99 513.3,-420.97"/>
<polygon fill="#63b8ff" stroke="#63b8ff" points="1026.45,-240.62 1027.12,-230.05 1020,-237.89 1026.45,-240.62"/>
</a>
</g>
</g>
<!-- Node29 -->
<g id="Node000029" class="node">
<title>Node29</title>
<g id="a_Node000029"><a xlink:href="../../db/d9f/classTerraria_1_1ModLoader_1_1UI_1_1UIModPackItem_a64048cdc35a079232577c2eb0dfe84da.html#a64048cdc35a079232577c2eb0dfe84da" target="_top" xlink:title=" ">
<polygon fill="white" stroke="#666666" points="910.5,-30 752.5,-30 752.5,0 910.5,0 910.5,-30"/>
<text text-anchor="start" x="760.5" y="-18" font-family="Helvetica,sans-Serif" font-size="10.00">Terraria.ModLoader.UI.UIMod</text>
<text text-anchor="middle" x="831.5" y="-7" font-family="Helvetica,sans-Serif" font-size="10.00">PackItem.EnableList</text>
</a>
</g>
</g>
<!-- Node23&#45;&gt;Node29 -->
<g id="edge35_Node000023_Node000029" class="edge">
<title>Node23&#45;&gt;Node29</title>
<g id="a_edge35_Node000023_Node000029"><a xlink:title=" ">
<path fill="none" stroke="#63b8ff" d="M1020.48,-191.39C1004.39,-168 977.05,-131.75 956,-99 938.36,-71.54 945.19,-55.75 920,-35 917.04,-32.56 913.86,-30.32 910.53,-28.27"/>
<polygon fill="#63b8ff" stroke="#63b8ff" points="1017.57,-193.34 1026.06,-199.69 1023.38,-189.44 1017.57,-193.34"/>
</a>
</g>
</g>
<!-- Node30 -->
<g id="Node000030" class="node">
<title>Node30</title>
<g id="a_Node000030"><a xlink:href="../../db/d9f/classTerraria_1_1ModLoader_1_1UI_1_1UIModPackItem_a83825b578ac1d2384957ff17564dda00.html#a83825b578ac1d2384957ff17564dda00" target="_top" xlink:title=" ">
<polygon fill="white" stroke="#666666" points="910.5,-374 752.5,-374 752.5,-344 910.5,-344 910.5,-374"/>
<text text-anchor="start" x="760.5" y="-362" font-family="Helvetica,sans-Serif" font-size="10.00">Terraria.ModLoader.UI.UIMod</text>
<text text-anchor="middle" x="831.5" y="-351" font-family="Helvetica,sans-Serif" font-size="10.00">PackItem.PlayInstance</text>
</a>
</g>
</g>
<!-- Node23&#45;&gt;Node30 -->
<g id="edge40_Node000023_Node000030" class="edge">
<title>Node23&#45;&gt;Node30</title>
<g id="a_edge40_Node000023_Node000030"><a xlink:title=" ">
<path fill="none" stroke="#63b8ff" d="M1018.11,-238.21C998.28,-265.41 961.83,-309.96 920,-335 914.32,-338.4 908.15,-341.33 901.81,-343.85"/>
<polygon fill="#63b8ff" stroke="#63b8ff" points="1020.99,-240.2 1023.95,-230.03 1015.29,-236.13 1020.99,-240.2"/>
</a>
</g>
</g>
<!-- Node31 -->
<g id="Node000031" class="node">
<title>Node31</title>
<g id="a_Node000031"><a xlink:href="../../db/d9f/classTerraria_1_1ModLoader_1_1UI_1_1UIModPackItem_aa0cadd3f6cdf754364db810219df410c.html#aa0cadd3f6cdf754364db810219df410c" target="_top" xlink:title=" ">
<polygon fill="white" stroke="#666666" points="918.5,-326 744.5,-326 744.5,-296 918.5,-296 918.5,-326"/>
<text text-anchor="start" x="752.5" y="-314" font-family="Helvetica,sans-Serif" font-size="10.00">Terraria.ModLoader.UI.UIMod</text>
<text text-anchor="middle" x="831.5" y="-303" font-family="Helvetica,sans-Serif" font-size="10.00">PackItem.RemoveModPackLocal</text>
</a>
</g>
</g>
<!-- Node23&#45;&gt;Node31 -->
<g id="edge41_Node000023_Node000031" class="edge">
<title>Node23&#45;&gt;Node31</title>
<g id="a_edge41_Node000023_Node000031"><a xlink:title=" ">
<path fill="none" stroke="#63b8ff" d="M995.02,-235.68C973.71,-249.29 946.35,-266.37 920,-278 903.14,-285.44 883.41,-291.09 866.96,-295.9"/>
<polygon fill="#63b8ff" stroke="#63b8ff" points="996.92,-238.61 1003.46,-230.28 993.15,-232.72 996.92,-238.61"/>
</a>
</g>
</g>
<!-- Node32 -->
<g id="Node000032" class="node">
<title>Node32</title>
<g id="a_Node000032"><a xlink:href="../../db/d9f/classTerraria_1_1ModLoader_1_1UI_1_1UIModPackItem_aa77e34d87e8f3bcecdfb980de2a052ba.html#aa77e34d87e8f3bcecdfb980de2a052ba" target="_top" xlink:title=" ">
<polygon fill="white" stroke="#666666" points="910.5,-278 752.5,-278 752.5,-248 910.5,-248 910.5,-278"/>
<text text-anchor="start" x="760.5" y="-266" font-family="Helvetica,sans-Serif" font-size="10.00">Terraria.ModLoader.UI.UIMod</text>
<text text-anchor="middle" x="831.5" y="-255" font-family="Helvetica,sans-Serif" font-size="10.00">PackItem.ViewListInfo</text>
</a>
</g>
</g>
<!-- Node23&#45;&gt;Node32 -->
<g id="edge44_Node000023_Node000032" class="edge">
<title>Node23&#45;&gt;Node32</title>
<g id="a_edge44_Node000023_Node000032"><a xlink:title=" ">
<path fill="none" stroke="#63b8ff" d="M946.02,-229.26C920.32,-235.18 893.48,-241.97 872.36,-248"/>
<polygon fill="#63b8ff" stroke="#63b8ff" points="946.83,-232.66 955.81,-227.03 945.28,-225.84 946.83,-232.66"/>
</a>
</g>
</g>
<!-- Node24&#45;&gt;Node23 -->
<g id="edge26_Node000024_Node000023" class="edge">
<title>Node24&#45;&gt;Node23</title>
<g id="a_edge26_Node000024_Node000023"><a xlink:title=" ">
<path fill="none" stroke="#63b8ff" d="M920.81,-221.7C932.47,-221.79 944.34,-221.75 955.81,-221.6"/>
<polygon fill="#63b8ff" stroke="#63b8ff" points="920.69,-218.2 910.65,-221.6 920.61,-225.2 920.69,-218.2"/>
</a>
</g>
</g>
<!-- Node25&#45;&gt;Node23 -->
<g id="edge28_Node000025_Node000023" class="edge">
<title>Node25&#45;&gt;Node23</title>
<g id="a_edge28_Node000025_Node000023"><a xlink:title=" ">
<path fill="none" stroke="#63b8ff" d="M882.21,-184.75C904.39,-190.83 931.06,-197.41 955.81,-202.97"/>
<polygon fill="#63b8ff" stroke="#63b8ff" points="882.93,-181.32 872.36,-182 881.05,-188.06 882.93,-181.32"/>
</a>
</g>
</g>
<!-- Node26&#45;&gt;Node23 -->
<g id="edge30_Node000026_Node000023" class="edge">
<title>Node26&#45;&gt;Node23</title>
<g id="a_edge30_Node000026_Node000023"><a xlink:title=" ">
<path fill="none" stroke="#63b8ff" d="M876.93,-137.02C891.01,-141.18 906.43,-146.01 920,-152 949.98,-165.23 981.27,-185.52 1003.46,-199.72"/>
<polygon fill="#63b8ff" stroke="#63b8ff" points="877.54,-133.56 866.96,-134.1 875.58,-140.27 877.54,-133.56"/>
</a>
</g>
</g>
<!-- Node27&#45;&gt;Node23 -->
<g id="edge32_Node000027_Node000023" class="edge">
<title>Node27&#45;&gt;Node23</title>
<g id="a_edge32_Node000027_Node000023"><a xlink:title=" ">
<path fill="none" stroke="#63b8ff" d="M717.33,-67.39C777.38,-67.57 857.03,-73.31 920,-104 965.46,-126.16 1002.3,-174.57 1020.88,-199.73"/>
<polygon fill="#63b8ff" stroke="#63b8ff" points="717.11,-63.9 707.12,-67.42 717.12,-70.9 717.11,-63.9"/>
</a>
</g>
</g>
<!-- Node27&#45;&gt;Node28 -->
<g id="edge33_Node000027_Node000028" class="edge">
<title>Node27&#45;&gt;Node28</title>
<g id="a_edge33_Node000027_Node000028"><a xlink:title=" ">
<path fill="none" stroke="#63b8ff" d="M613.24,-91.15C575.37,-157.62 470.34,-341.95 439.57,-395.95"/>
<polygon fill="#63b8ff" stroke="#63b8ff" points="616.42,-92.65 618.33,-82.23 610.33,-89.18 616.42,-92.65"/>
</a>
</g>
</g>
<!-- Node28&#45;&gt;Node23 -->
<g id="edge34_Node000028_Node000023" class="edge">
<title>Node28&#45;&gt;Node23</title>
<g id="a_edge34_Node000028_Node000023"><a xlink:title=" ">
<path fill="none" stroke="#63b8ff" d="M486.89,-428.28C582.61,-449.02 781.01,-470.82 920,-392 984.23,-355.57 1019.68,-266.25 1030.44,-230.08"/>
<polygon fill="#63b8ff" stroke="#63b8ff" points="487.37,-424.8 476.84,-426.03 485.83,-431.63 487.37,-424.8"/>
</a>
</g>
</g>
<!-- Node29&#45;&gt;Node22 -->
<g id="edge38_Node000029_Node000022" class="edge">
<title>Node29&#45;&gt;Node22</title>
<g id="a_edge38_Node000029_Node000022"><a xlink:title=" ">
<path fill="none" stroke="#63b8ff" d="M874.66,-34.36C889.1,-41.09 905.31,-48.77 920,-56 1023.93,-107.15 1145.71,-171.28 1199.73,-199.95"/>
<polygon fill="#63b8ff" stroke="#63b8ff" points="876.01,-31.13 865.47,-30.08 873.06,-37.47 876.01,-31.13"/>
</a>
</g>
</g>
<!-- Node29&#45;&gt;Node23 -->
<g id="edge36_Node000029_Node000023" class="edge">
<title>Node29&#45;&gt;Node23</title>
<g id="a_edge36_Node000029_Node000023"><a xlink:title=" ">
<path fill="none" stroke="#63b8ff" d="M882.18,-33.19C895.49,-37.86 909.17,-44.07 920,-53 945.19,-73.75 938.36,-89.54 956,-117 975.51,-147.36 1000.43,-180.73 1016.78,-199.92"/>
<polygon fill="#63b8ff" stroke="#63b8ff" points="883.2,-29.84 872.6,-30.04 881.01,-36.48 883.2,-29.84"/>
</a>
</g>
</g>
<!-- Node29&#45;&gt;Node27 -->
<g id="edge37_Node000029_Node000027" class="edge">
<title>Node29&#45;&gt;Node27</title>
<g id="a_edge37_Node000029_Node000027"><a xlink:title=" ">
<path fill="none" stroke="#63b8ff" d="M762.31,-32.6C737.9,-38.9 710.63,-45.93 687.15,-51.99"/>
<polygon fill="#63b8ff" stroke="#63b8ff" points="763.41,-35.93 772.22,-30.04 761.66,-29.15 763.41,-35.93"/>
</a>
</g>
</g>
<!-- Node31&#45;&gt;Node23 -->
<g id="edge42_Node000031_Node000023" class="edge">
<title>Node31&#45;&gt;Node23</title>
<g id="a_edge42_Node000031_Node000023"><a xlink:title=" ">
<path fill="none" stroke="#63b8ff" d="M927.82,-292.36C965.72,-274.16 1003.01,-247.32 1021.7,-230.11"/>
<polygon fill="#63b8ff" stroke="#63b8ff" points="926.31,-289.2 918.7,-296.57 929.24,-295.56 926.31,-289.2"/>
</a>
</g>
</g>
<!-- Node32&#45;&gt;Node23 -->
<g id="edge45_Node000032_Node000023" class="edge">
<title>Node32&#45;&gt;Node23</title>
<g id="a_edge45_Node000032_Node000023"><a xlink:title=" ">
<path fill="none" stroke="#63b8ff" d="M920.72,-248.69C946.18,-242.81 972.72,-236.1 993.71,-230.12"/>
<polygon fill="#63b8ff" stroke="#63b8ff" points="919.63,-245.35 910.65,-250.98 921.18,-252.17 919.63,-245.35"/>
</a>
</g>
</g>
</g>
</svg>
