<?xml version="1.0" encoding="UTF-8" standalone="no"?>
<!DOCTYPE svg PUBLIC "-//W3C//DTD SVG 1.1//EN"
 "http://www.w3.org/Graphics/SVG/1.1/DTD/svg11.dtd">
<!-- Generated by graphviz version 2.43.0 (0)
 -->
<!-- Title: Terraria.DelegateMethods.Minecart.SpawnFartCloud Pages: 1 -->
<svg width="963pt" height="115pt"
 viewBox="0.00 0.00 963.00 115.00" xmlns="http://www.w3.org/2000/svg" xmlns:xlink="http://www.w3.org/1999/xlink">
<g id="graph0" class="graph" transform="scale(1 1) rotate(0) translate(4 111)">
<title>Terraria.DelegateMethods.Minecart.SpawnFartCloud</title>
<!-- Node1 -->
<g id="Node000001" class="node">
<title>Node1</title>
<g id="a_Node000001"><a xlink:title=" ">
<polygon fill="#999999" stroke="#666666" points="146,-57 0,-57 0,-27 146,-27 146,-57"/>
<text text-anchor="start" x="8" y="-45" font-family="Helvetica,sans-Serif" font-size="10.00">Terraria.DelegateMethods.</text>
<text text-anchor="middle" x="73" y="-34" font-family="Helvetica,sans-Serif" font-size="10.00">Minecart.SpawnFartCloud</text>
</a>
</g>
</g>
<!-- Node2 -->
<g id="Node000002" class="node">
<title>Node2</title>
<g id="a_Node000002"><a xlink:href="../../dc/de5/classTerraria_1_1Dust_ac85a67b8ea46324cf328fbf3b3e227a2.html#ac85a67b8ea46324cf328fbf3b3e227a2" target="_top" xlink:title="Attempts to spawn a single Dust into the game world. Position &#160;indicates the spawn position and Veloc...">
<polygon fill="white" stroke="#666666" points="343,-79.5 182,-79.5 182,-60.5 343,-60.5 343,-79.5"/>
<text text-anchor="middle" x="262.5" y="-67.5" font-family="Helvetica,sans-Serif" font-size="10.00">Terraria.Dust.NewDustPerfect</text>
</a>
</g>
</g>
<!-- Node1&#45;&gt;Node2 -->
<g id="edge1_Node000001_Node000002" class="edge">
<title>Node1&#45;&gt;Node2</title>
<g id="a_edge1_Node000001_Node000002"><a xlink:title=" ">
<path fill="none" stroke="#63b8ff" d="M146.22,-52.79C159.79,-54.81 173.99,-56.93 187.6,-58.96"/>
<polygon fill="#63b8ff" stroke="#63b8ff" points="187.47,-62.48 197.88,-60.5 188.51,-55.56 187.47,-62.48"/>
</a>
</g>
</g>
<!-- Node7 -->
<g id="Node000007" class="node">
<title>Node7</title>
<g id="a_Node000007"><a xlink:href="../../d1/ddf/classTerraria_1_1Gore_a99c43465db05b0c96da5f5d941e780d1.html#a99c43465db05b0c96da5f5d941e780d1" target="_top" xlink:title=" ">
<polygon fill="white" stroke="#666666" points="326.5,-24.5 198.5,-24.5 198.5,-5.5 326.5,-5.5 326.5,-24.5"/>
<text text-anchor="middle" x="262.5" y="-12.5" font-family="Helvetica,sans-Serif" font-size="10.00">Terraria.Gore.NewGore</text>
</a>
</g>
</g>
<!-- Node1&#45;&gt;Node7 -->
<g id="edge6_Node000001_Node000007" class="edge">
<title>Node1&#45;&gt;Node7</title>
<g id="a_edge6_Node000001_Node000007"><a xlink:title=" ">
<path fill="none" stroke="#63b8ff" d="M146.22,-31.6C160.09,-29.6 174.61,-27.51 188.5,-25.51"/>
<polygon fill="#63b8ff" stroke="#63b8ff" points="189.08,-28.96 198.48,-24.07 188.09,-22.04 189.08,-28.96"/>
</a>
</g>
</g>
<!-- Node3 -->
<g id="Node000003" class="node">
<title>Node3</title>
<g id="a_Node000003"><a xlink:href="../../dc/de5/classTerraria_1_1Dust_a977a36a9376966862406a3094e3b70ab.html#a977a36a9376966862406a3094e3b70ab" target="_top" xlink:title="Attempts to spawn a single Dust into the game world. The Position, Width, and Height parameters dicta...">
<polygon fill="white" stroke="#666666" points="524,-79.5 398,-79.5 398,-60.5 524,-60.5 524,-79.5"/>
<text text-anchor="middle" x="461" y="-67.5" font-family="Helvetica,sans-Serif" font-size="10.00">Terraria.Dust.NewDust</text>
</a>
</g>
</g>
<!-- Node2&#45;&gt;Node3 -->
<g id="edge2_Node000002_Node000003" class="edge">
<title>Node2&#45;&gt;Node3</title>
<g id="a_edge2_Node000002_Node000003"><a xlink:title=" ">
<path fill="none" stroke="#63b8ff" d="M343.14,-70C357.78,-70 372.99,-70 387.41,-70"/>
<polygon fill="#63b8ff" stroke="#63b8ff" points="387.75,-73.5 397.75,-70 387.75,-66.5 387.75,-73.5"/>
</a>
</g>
</g>
<!-- Node4 -->
<g id="Node000004" class="node">
<title>Node4</title>
<g id="a_Node000004"><a xlink:href="../../df/dd6/classTerraria_1_1ModLoader_1_1DustLoader_a8374be843b9b2b0143bc000e8663d3ec.html#a8374be843b9b2b0143bc000e8663d3ec" target="_top" xlink:title=" ">
<polygon fill="white" stroke="#666666" points="749,-107 579,-107 579,-77 749,-77 749,-107"/>
<text text-anchor="start" x="587" y="-95" font-family="Helvetica,sans-Serif" font-size="10.00">Terraria.ModLoader.DustLoader.</text>
<text text-anchor="middle" x="664" y="-84" font-family="Helvetica,sans-Serif" font-size="10.00">SetupDust</text>
</a>
</g>
</g>
<!-- Node3&#45;&gt;Node4 -->
<g id="edge3_Node000003_Node000004" class="edge">
<title>Node3&#45;&gt;Node4</title>
<g id="a_edge3_Node000003_Node000004"><a xlink:title=" ">
<path fill="none" stroke="#63b8ff" d="M524.22,-76.81C538.27,-78.35 553.5,-80.01 568.54,-81.66"/>
<polygon fill="#63b8ff" stroke="#63b8ff" points="568.59,-85.19 578.91,-82.8 569.35,-78.23 568.59,-85.19"/>
</a>
</g>
</g>
<!-- Node6 -->
<g id="Node000006" class="node">
<title>Node6</title>
<g id="a_Node000006"><a xlink:href="../../de/d1d/classTerraria_1_1Collision_a1c65206ace403aa59afc32d20e5d282e.html#a1c65206ace403aa59afc32d20e5d282e" target="_top" xlink:title=" ">
<polygon fill="white" stroke="#666666" points="745,-58.5 583,-58.5 583,-39.5 745,-39.5 745,-58.5"/>
<text text-anchor="middle" x="664" y="-46.5" font-family="Helvetica,sans-Serif" font-size="10.00">Terraria.Collision.WetCollision</text>
</a>
</g>
</g>
<!-- Node3&#45;&gt;Node6 -->
<g id="edge5_Node000003_Node000006" class="edge">
<title>Node3&#45;&gt;Node6</title>
<g id="a_edge5_Node000003_Node000006"><a xlink:title=" ">
<path fill="none" stroke="#63b8ff" d="M524.22,-63.5C539.59,-61.89 556.37,-60.14 572.78,-58.43"/>
<polygon fill="#63b8ff" stroke="#63b8ff" points="573.35,-61.89 582.93,-57.37 572.62,-54.92 573.35,-61.89"/>
</a>
</g>
</g>
<!-- Node5 -->
<g id="Node000005" class="node">
<title>Node5</title>
<g id="a_Node000005"><a xlink:href="../../df/dd6/classTerraria_1_1ModLoader_1_1DustLoader_a0cb616c3c6776d3bba899e7f1fb0e221.html#a0cb616c3c6776d3bba899e7f1fb0e221" target="_top" xlink:title="Gets the ModDust instance with the given type. Returns null if no ModDust with the given type exists.">
<polygon fill="white" stroke="#666666" points="955,-107 785,-107 785,-77 955,-77 955,-107"/>
<text text-anchor="start" x="793" y="-95" font-family="Helvetica,sans-Serif" font-size="10.00">Terraria.ModLoader.DustLoader.</text>
<text text-anchor="middle" x="870" y="-84" font-family="Helvetica,sans-Serif" font-size="10.00">GetDust</text>
</a>
</g>
</g>
<!-- Node4&#45;&gt;Node5 -->
<g id="edge4_Node000004_Node000005" class="edge">
<title>Node4&#45;&gt;Node5</title>
<g id="a_edge4_Node000004_Node000005"><a xlink:title=" ">
<path fill="none" stroke="#63b8ff" d="M749.15,-92C757.5,-92 766.02,-92 774.46,-92"/>
<polygon fill="#63b8ff" stroke="#63b8ff" points="774.71,-95.5 784.71,-92 774.71,-88.5 774.71,-95.5"/>
</a>
</g>
</g>
<!-- Node7&#45;&gt;Node7 -->
<g id="edge8_Node000007_Node000007" class="edge">
<title>Node7&#45;&gt;Node7</title>
<g id="a_edge8_Node000007_Node000007"><a xlink:title=" ">
<path fill="none" stroke="#63b8ff" d="M233.52,-24.58C219.43,-33.23 229.09,-42.5 262.5,-42.5 285.47,-42.5 297.22,-38.12 297.73,-32.57"/>
<polygon fill="#63b8ff" stroke="#63b8ff" points="300.4,-30.3 291.48,-24.58 294.89,-34.61 300.4,-30.3"/>
</a>
</g>
</g>
<!-- Node8 -->
<g id="Node000008" class="node">
<title>Node8</title>
<g id="a_Node000008"><a xlink:href="../../d9/d62/interfaceTerraria_1_1DataStructures_1_1IEntitySource_aad02a637d76bfd16f138769722291901.html#aad02a637d76bfd16f138769722291901" target="_top" xlink:title=" ">
<polygon fill="white" stroke="#666666" points="543,-30 379,-30 379,0 543,0 543,-30"/>
<text text-anchor="start" x="387" y="-18" font-family="Helvetica,sans-Serif" font-size="10.00">Terraria.DataStructures.</text>
<text text-anchor="middle" x="461" y="-7" font-family="Helvetica,sans-Serif" font-size="10.00">IEntitySource.GetGoreFallback</text>
</a>
</g>
</g>
<!-- Node7&#45;&gt;Node8 -->
<g id="edge7_Node000007_Node000008" class="edge">
<title>Node7&#45;&gt;Node8</title>
<g id="a_edge7_Node000007_Node000008"><a xlink:title=" ">
<path fill="none" stroke="#63b8ff" d="M326.76,-15C340.12,-15 354.47,-15 368.63,-15"/>
<polygon fill="#63b8ff" stroke="#63b8ff" points="368.9,-18.5 378.9,-15 368.9,-11.5 368.9,-18.5"/>
</a>
</g>
</g>
</g>
</svg>
