<?xml version="1.0" encoding="UTF-8" standalone="no"?>
<!DOCTYPE svg PUBLIC "-//W3C//DTD SVG 1.1//EN"
 "http://www.w3.org/Graphics/SVG/1.1/DTD/svg11.dtd">
<!-- Generated by graphviz version 2.43.0 (0)
 -->
<!-- Title: Terraria.ModLoader.UI.ModBrowser.UIModBrowser.LogModBrowserException Pages: 1 -->
<svg width="659pt" height="152pt"
 viewBox="0.00 0.00 659.00 152.00" xmlns="http://www.w3.org/2000/svg" xmlns:xlink="http://www.w3.org/1999/xlink">
<g id="graph0" class="graph" transform="scale(1 1) rotate(0) translate(4 148)">
<title>Terraria.ModLoader.UI.ModBrowser.UIModBrowser.LogModBrowserException</title>
<!-- Node1 -->
<g id="Node000001" class="node">
<title>Node1</title>
<g id="a_Node000001"><a xlink:title=" ">
<polygon fill="#999999" stroke="#666666" points="651,-83.5 441,-83.5 441,-42.5 651,-42.5 651,-83.5"/>
<text text-anchor="start" x="449" y="-71.5" font-family="Helvetica,sans-Serif" font-size="10.00">Terraria.ModLoader.UI.Mod</text>
<text text-anchor="start" x="449" y="-60.5" font-family="Helvetica,sans-Serif" font-size="10.00">Browser.UIModBrowser.LogModBrowser</text>
<text text-anchor="middle" x="546" y="-49.5" font-family="Helvetica,sans-Serif" font-size="10.00">Exception</text>
</a>
</g>
</g>
<!-- Node2 -->
<g id="Node000002" class="node">
<title>Node2</title>
<g id="a_Node000002"><a xlink:href="../../db/d0b/classTerraria_1_1ModLoader_1_1UI_1_1ModBrowser_1_1UIModBrowser_ad60798b1d78649b0469c6e44c0b39f6a.html#ad60798b1d78649b0469c6e44c0b39f6a" target="_top" xlink:title="Downloads all ModDownloadItems provided.">
<polygon fill="white" stroke="#666666" points="405,-144 198,-144 198,-114 405,-114 405,-144"/>
<text text-anchor="start" x="206" y="-132" font-family="Helvetica,sans-Serif" font-size="10.00">Terraria.ModLoader.UI.Mod</text>
<text text-anchor="middle" x="301.5" y="-121" font-family="Helvetica,sans-Serif" font-size="10.00">Browser.UIModBrowser.DownloadMods</text>
</a>
</g>
</g>
<!-- Node1&#45;&gt;Node2 -->
<g id="edge1_Node000001_Node000002" class="edge">
<title>Node1&#45;&gt;Node2</title>
<g id="a_edge1_Node000001_Node000002"><a xlink:title=" ">
<path fill="none" stroke="#63b8ff" d="M469.6,-86.55C448.75,-92.8 426.06,-99.38 405,-105 393.52,-108.06 381.26,-111.12 369.36,-113.97"/>
<polygon fill="#63b8ff" stroke="#63b8ff" points="470.8,-89.84 479.36,-83.6 468.77,-83.14 470.8,-89.84"/>
</a>
</g>
</g>
<!-- Node3 -->
<g id="Node000003" class="node">
<title>Node3</title>
<g id="a_Node000003"><a xlink:href="../../dd/d15/classTerraria_1_1ModLoader_1_1UI_1_1UIModSourceItem_a3d2b6badc3a559e7bf3303322135ac36.html#a3d2b6badc3a559e7bf3303322135ac36" target="_top" xlink:title=" ">
<polygon fill="white" stroke="#666666" points="380.5,-78 222.5,-78 222.5,-48 380.5,-48 380.5,-78"/>
<text text-anchor="start" x="230.5" y="-66" font-family="Helvetica,sans-Serif" font-size="10.00">Terraria.ModLoader.UI.UIMod</text>
<text text-anchor="middle" x="301.5" y="-55" font-family="Helvetica,sans-Serif" font-size="10.00">SourceItem.PublishMod</text>
</a>
</g>
</g>
<!-- Node1&#45;&gt;Node3 -->
<g id="edge2_Node000001_Node000003" class="edge">
<title>Node1&#45;&gt;Node3</title>
<g id="a_edge2_Node000001_Node000003"><a xlink:title=" ">
<path fill="none" stroke="#63b8ff" d="M430.31,-63C413.5,-63 396.51,-63 380.66,-63"/>
<polygon fill="#63b8ff" stroke="#63b8ff" points="430.75,-66.5 440.75,-63 430.75,-59.5 430.75,-66.5"/>
</a>
</g>
</g>
<!-- Node5 -->
<g id="Node000005" class="node">
<title>Node5</title>
<g id="a_Node000005"><a xlink:href="../../dd/d15/classTerraria_1_1ModLoader_1_1UI_1_1UIModSourceItem_a4ea47b799029c15c7658239caea7608a.html#a4ea47b799029c15c7658239caea7608a" target="_top" xlink:title=" ">
<polygon fill="white" stroke="#666666" points="393.5,-30 209.5,-30 209.5,0 393.5,0 393.5,-30"/>
<text text-anchor="start" x="217.5" y="-18" font-family="Helvetica,sans-Serif" font-size="10.00">Terraria.ModLoader.UI.UIMod</text>
<text text-anchor="middle" x="301.5" y="-7" font-family="Helvetica,sans-Serif" font-size="10.00">SourceItem.PublishServerSideMod</text>
</a>
</g>
</g>
<!-- Node1&#45;&gt;Node5 -->
<g id="edge5_Node000001_Node000005" class="edge">
<title>Node1&#45;&gt;Node5</title>
<g id="a_edge5_Node000001_Node000005"><a xlink:title=" ">
<path fill="none" stroke="#63b8ff" d="M431.18,-40.47C413.26,-36.92 395.12,-33.33 378.33,-30.01"/>
<polygon fill="#63b8ff" stroke="#63b8ff" points="430.61,-43.93 441.1,-42.43 431.97,-37.06 430.61,-43.93"/>
</a>
</g>
</g>
<!-- Node3&#45;&gt;Node3 -->
<g id="edge4_Node000003_Node000003" class="edge">
<title>Node3&#45;&gt;Node3</title>
<g id="a_edge4_Node000003_Node000003"><a xlink:title=" ">
<path fill="none" stroke="#63b8ff" d="M340.01,-88.6C334.75,-92.97 321.91,-96 301.5,-96 267.12,-96 254.23,-87.41 262.83,-78.28"/>
<polygon fill="#63b8ff" stroke="#63b8ff" points="343.51,-88.33 340.17,-78.28 336.51,-88.22 343.51,-88.33"/>
</a>
</g>
</g>
<!-- Node4 -->
<g id="Node000004" class="node">
<title>Node4</title>
<g id="a_Node000004"><a xlink:href="../../dd/d15/classTerraria_1_1ModLoader_1_1UI_1_1UIModSourceItem_af1b8e21e059f8cf590c16c329c6eee09.html#af1b8e21e059f8cf590c16c329c6eee09" target="_top" xlink:title=" ">
<polygon fill="white" stroke="#666666" points="162,-54 0,-54 0,-24 162,-24 162,-54"/>
<text text-anchor="start" x="8" y="-42" font-family="Helvetica,sans-Serif" font-size="10.00">Terraria.ModLoader.UI.UIMod</text>
<text text-anchor="middle" x="81" y="-31" font-family="Helvetica,sans-Serif" font-size="10.00">SourceItem.UIModSourceItem</text>
</a>
</g>
</g>
<!-- Node3&#45;&gt;Node4 -->
<g id="edge3_Node000003_Node000004" class="edge">
<title>Node3&#45;&gt;Node4</title>
<g id="a_edge3_Node000003_Node000004"><a xlink:title=" ">
<path fill="none" stroke="#63b8ff" d="M212.08,-53.29C195.62,-51.48 178.5,-49.6 162.3,-47.82"/>
<polygon fill="#63b8ff" stroke="#63b8ff" points="211.91,-56.79 222.23,-54.4 212.68,-49.83 211.91,-56.79"/>
</a>
</g>
</g>
<!-- Node5&#45;&gt;Node4 -->
<g id="edge6_Node000005_Node000004" class="edge">
<title>Node5&#45;&gt;Node4</title>
<g id="a_edge6_Node000005_Node000004"><a xlink:title=" ">
<path fill="none" stroke="#63b8ff" d="M199.43,-26.1C186.93,-27.47 174.28,-28.86 162.15,-30.2"/>
<polygon fill="#63b8ff" stroke="#63b8ff" points="199.86,-29.58 209.42,-25 199.1,-22.62 199.86,-29.58"/>
</a>
</g>
</g>
</g>
</svg>
