<?xml version="1.0" encoding="UTF-8" standalone="no"?>
<!DOCTYPE svg PUBLIC "-//W3C//DTD SVG 1.1//EN"
 "http://www.w3.org/Graphics/SVG/1.1/DTD/svg11.dtd">
<!-- Generated by graphviz version 2.43.0 (0)
 -->
<!-- Title: Terraria.ModLoader.UI.ModBrowser.UIModBrowser.OnActivate Pages: 1 -->
<svg width="1197pt" height="416pt"
 viewBox="0.00 0.00 1197.00 416.00" xmlns="http://www.w3.org/2000/svg" xmlns:xlink="http://www.w3.org/1999/xlink">
<g id="graph0" class="graph" transform="scale(1 1) rotate(0) translate(4 412)">
<title>Terraria.ModLoader.UI.ModBrowser.UIModBrowser.OnActivate</title>
<!-- Node1 -->
<g id="Node000001" class="node">
<title>Node1</title>
<g id="a_Node000001"><a xlink:title=" ">
<polygon fill="#999999" stroke="#666666" points="186,-237 0,-237 0,-207 186,-207 186,-237"/>
<text text-anchor="start" x="8" y="-225" font-family="Helvetica,sans-Serif" font-size="10.00">Terraria.ModLoader.UI.Mod</text>
<text text-anchor="middle" x="93" y="-214" font-family="Helvetica,sans-Serif" font-size="10.00">Browser.UIModBrowser.OnActivate</text>
</a>
</g>
</g>
<!-- Node2 -->
<g id="Node000002" class="node">
<title>Node2</title>
<g id="a_Node000002"><a xlink:href="../../db/d0b/classTerraria_1_1ModLoader_1_1UI_1_1ModBrowser_1_1UIModBrowser_a829cb5a6fe7bc3622bc24cf31d349037.html#a829cb5a6fe7bc3622bc24cf31d349037" target="_top" xlink:title=" ">
<polygon fill="white" stroke="#666666" points="414,-317.5 226,-317.5 226,-276.5 414,-276.5 414,-317.5"/>
<text text-anchor="start" x="234" y="-305.5" font-family="Helvetica,sans-Serif" font-size="10.00">Terraria.ModLoader.UI.Mod</text>
<text text-anchor="start" x="234" y="-294.5" font-family="Helvetica,sans-Serif" font-size="10.00">Browser.UIModBrowser.CheckIfAny</text>
<text text-anchor="middle" x="320" y="-283.5" font-family="Helvetica,sans-Serif" font-size="10.00">ModUpdateIsAvailable</text>
</a>
</g>
</g>
<!-- Node1&#45;&gt;Node2 -->
<g id="edge1_Node000001_Node000002" class="edge">
<title>Node1&#45;&gt;Node2</title>
<g id="a_edge1_Node000001_Node000002"><a xlink:title=" ">
<path fill="none" stroke="#63b8ff" d="M139.26,-237.09C170.23,-247.41 211.93,-261.31 247.37,-273.12"/>
<polygon fill="#63b8ff" stroke="#63b8ff" points="246.59,-276.55 257.19,-276.4 248.81,-269.91 246.59,-276.55"/>
</a>
</g>
</g>
<!-- Node11 -->
<g id="Node000011" class="node">
<title>Node11</title>
<g id="a_Node000011"><a xlink:href="../../da/dd5/classTerraria_1_1Main_ab0a0a7c53561f05f0145f50ca94d4247.html#ab0a0a7c53561f05f0145f50ca94d4247" target="_top" xlink:title=" ">
<polygon fill="white" stroke="#666666" points="380,-253.5 260,-253.5 260,-234.5 380,-234.5 380,-253.5"/>
<text text-anchor="middle" x="320" y="-241.5" font-family="Helvetica,sans-Serif" font-size="10.00">Terraria.Main.clrInput</text>
</a>
</g>
</g>
<!-- Node1&#45;&gt;Node11 -->
<g id="edge10_Node000001_Node000011" class="edge">
<title>Node1&#45;&gt;Node11</title>
<g id="a_edge10_Node000001_Node000011"><a xlink:title=" ">
<path fill="none" stroke="#63b8ff" d="M186.17,-231.01C207.45,-233.09 229.74,-235.27 249.84,-237.24"/>
<polygon fill="#63b8ff" stroke="#63b8ff" points="249.54,-240.72 259.83,-238.21 250.22,-233.76 249.54,-240.72"/>
</a>
</g>
</g>
<!-- Node12 -->
<g id="Node000012" class="node">
<title>Node12</title>
<g id="a_Node000012"><a xlink:href="../../d9/dce/interfaceTerraria_1_1Social_1_1Base_1_1SocialBrowserModule_a0846e82714c43fd16a6515933cb4564c.html#a0846e82714c43fd16a6515933cb4564c" target="_top" xlink:title=" ">
<polygon fill="white" stroke="#666666" points="392.5,-216 247.5,-216 247.5,-186 392.5,-186 392.5,-216"/>
<text text-anchor="start" x="255.5" y="-204" font-family="Helvetica,sans-Serif" font-size="10.00">Terraria.Social.Base.Social</text>
<text text-anchor="middle" x="320" y="-193" font-family="Helvetica,sans-Serif" font-size="10.00">BrowserModule.Initialize</text>
</a>
</g>
</g>
<!-- Node1&#45;&gt;Node12 -->
<g id="edge11_Node000001_Node000012" class="edge">
<title>Node1&#45;&gt;Node12</title>
<g id="a_edge11_Node000001_Node000012"><a xlink:title=" ">
<path fill="none" stroke="#63b8ff" d="M186.17,-213.4C203.05,-211.82 220.57,-210.19 237.12,-208.64"/>
<polygon fill="#63b8ff" stroke="#63b8ff" points="237.66,-212.11 247.3,-207.69 237.01,-205.14 237.66,-212.11"/>
</a>
</g>
</g>
<!-- Node13 -->
<g id="Node000013" class="node">
<title>Node13</title>
<g id="a_Node000013"><a xlink:href="../../db/d0b/classTerraria_1_1ModLoader_1_1UI_1_1ModBrowser_1_1UIModBrowser_a0ede34156dafff658409a66066766e93.html#a0ede34156dafff658409a66066766e93" target="_top" xlink:title=" ">
<polygon fill="white" stroke="#666666" points="418,-161.5 222,-161.5 222,-120.5 418,-120.5 418,-161.5"/>
<text text-anchor="start" x="230" y="-149.5" font-family="Helvetica,sans-Serif" font-size="10.00">Terraria.ModLoader.UI.Mod</text>
<text text-anchor="start" x="230" y="-138.5" font-family="Helvetica,sans-Serif" font-size="10.00">Browser.UIModBrowser.PopulateMod</text>
<text text-anchor="middle" x="320" y="-127.5" font-family="Helvetica,sans-Serif" font-size="10.00">Browser</text>
</a>
</g>
</g>
<!-- Node1&#45;&gt;Node13 -->
<g id="edge12_Node000001_Node000013" class="edge">
<title>Node1&#45;&gt;Node13</title>
<g id="a_edge12_Node000001_Node000013"><a xlink:title=" ">
<path fill="none" stroke="#63b8ff" d="M135.79,-206.95C168.48,-195.19 214.56,-178.6 252.33,-165"/>
<polygon fill="#63b8ff" stroke="#63b8ff" points="253.51,-168.29 261.74,-161.61 251.14,-161.71 253.51,-168.29"/>
</a>
</g>
</g>
<!-- Node3 -->
<g id="Node000003" class="node">
<title>Node3</title>
<g id="a_Node000003"><a xlink:href="../../d7/d72/classTerraria_1_1UI_1_1UIElement_a4f78a3ab59b3dffcdc5b68328a46f103.html#a4f78a3ab59b3dffcdc5b68328a46f103" target="_top" xlink:title=" ">
<polygon fill="white" stroke="#666666" points="660.5,-397.5 499.5,-397.5 499.5,-378.5 660.5,-378.5 660.5,-397.5"/>
<text text-anchor="middle" x="580" y="-385.5" font-family="Helvetica,sans-Serif" font-size="10.00">Terraria.UI.UIElement.Append</text>
</a>
</g>
</g>
<!-- Node2&#45;&gt;Node3 -->
<g id="edge2_Node000002_Node000003" class="edge">
<title>Node2&#45;&gt;Node3</title>
<g id="a_edge2_Node000002_Node000003"><a xlink:title=" ">
<path fill="none" stroke="#63b8ff" d="M351.58,-317.54C377.68,-334.06 416.78,-356.52 454,-369 465.22,-372.76 477.26,-375.78 489.27,-378.21"/>
<polygon fill="#63b8ff" stroke="#63b8ff" points="488.86,-381.69 499.33,-380.1 490.16,-374.81 488.86,-381.69"/>
</a>
</g>
</g>
<!-- Node4 -->
<g id="Node000004" class="node">
<title>Node4</title>
<g id="a_Node000004"><a xlink:href="../../d9/dce/interfaceTerraria_1_1Social_1_1Base_1_1SocialBrowserModule_a094dd72936cd28311d3b0530b9c892a4.html#a094dd72936cd28311d3b0530b9c892a4" target="_top" xlink:title=" ">
<polygon fill="white" stroke="#666666" points="706,-360 454,-360 454,-330 706,-330 706,-360"/>
<text text-anchor="start" x="462" y="-348" font-family="Helvetica,sans-Serif" font-size="10.00">Terraria.Social.Base.Social</text>
<text text-anchor="middle" x="580" y="-337" font-family="Helvetica,sans-Serif" font-size="10.00">BrowserModule.GetInstalledModDownloadItems</text>
</a>
</g>
</g>
<!-- Node2&#45;&gt;Node4 -->
<g id="edge3_Node000002_Node000004" class="edge">
<title>Node2&#45;&gt;Node4</title>
<g id="a_edge3_Node000002_Node000004"><a xlink:title=" ">
<path fill="none" stroke="#63b8ff" d="M414.14,-314.33C438.37,-318.84 464.44,-323.69 488.53,-328.17"/>
<polygon fill="#63b8ff" stroke="#63b8ff" points="487.89,-331.61 498.36,-330 489.17,-324.73 487.89,-331.61"/>
</a>
</g>
</g>
<!-- Node9 -->
<g id="Node000009" class="node">
<title>Node9</title>
<g id="a_Node000009"><a xlink:href="../../d7/d72/classTerraria_1_1UI_1_1UIElement_ac407afd27d2b68e6c175951c22e263b5.html#ac407afd27d2b68e6c175951c22e263b5" target="_top" xlink:title=" ">
<polygon fill="white" stroke="#666666" points="662,-312 498,-312 498,-282 662,-282 662,-312"/>
<text text-anchor="start" x="506" y="-300" font-family="Helvetica,sans-Serif" font-size="10.00">Terraria.UI.UIElement.Remove</text>
<text text-anchor="middle" x="580" y="-289" font-family="Helvetica,sans-Serif" font-size="10.00">Child</text>
</a>
</g>
</g>
<!-- Node2&#45;&gt;Node9 -->
<g id="edge8_Node000002_Node000009" class="edge">
<title>Node2&#45;&gt;Node9</title>
<g id="a_edge8_Node000002_Node000009"><a xlink:title=" ">
<path fill="none" stroke="#63b8ff" d="M414.14,-297C438.14,-297 463.93,-297 487.83,-297"/>
<polygon fill="#63b8ff" stroke="#63b8ff" points="487.94,-300.5 497.94,-297 487.94,-293.5 487.94,-300.5"/>
</a>
</g>
</g>
<!-- Node10 -->
<g id="Node000010" class="node">
<title>Node10</title>
<g id="a_Node000010"><a xlink:href="../../d2/d45/classTerraria_1_1ModLoader_1_1UI_1_1ModBrowser_1_1ModDownloadItem_a0457a17975a7e8a7ea6ea99aa3da9a92.html#a0457a17975a7e8a7ea6ea99aa3da9a92" target="_top" xlink:title=" ">
<polygon fill="white" stroke="#666666" points="674.5,-263.5 485.5,-263.5 485.5,-222.5 674.5,-222.5 674.5,-263.5"/>
<text text-anchor="start" x="493.5" y="-251.5" font-family="Helvetica,sans-Serif" font-size="10.00">Terraria.ModLoader.UI.Mod</text>
<text text-anchor="start" x="493.5" y="-240.5" font-family="Helvetica,sans-Serif" font-size="10.00">Browser.ModDownloadItem.Update</text>
<text text-anchor="middle" x="580" y="-229.5" font-family="Helvetica,sans-Serif" font-size="10.00">InstallState</text>
</a>
</g>
</g>
<!-- Node2&#45;&gt;Node10 -->
<g id="edge9_Node000002_Node000010" class="edge">
<title>Node2&#45;&gt;Node10</title>
<g id="a_edge9_Node000002_Node000010"><a xlink:title=" ">
<path fill="none" stroke="#63b8ff" d="M414.14,-277.5C433.99,-273.35 455.07,-268.94 475.28,-264.71"/>
<polygon fill="#63b8ff" stroke="#63b8ff" points="476.06,-268.12 485.13,-262.65 474.62,-261.27 476.06,-268.12"/>
</a>
</g>
</g>
<!-- Node5 -->
<g id="Node000005" class="node">
<title>Node5</title>
<g id="a_Node000005"><a xlink:href="../../d9/dce/interfaceTerraria_1_1Social_1_1Base_1_1SocialBrowserModule_a0f0513b461096f8774b1e11c1999df9b.html#a0f0513b461096f8774b1e11c1999df9b" target="_top" xlink:title=" ">
<polygon fill="white" stroke="#666666" points="938,-365.5 742,-365.5 742,-324.5 938,-324.5 938,-365.5"/>
<text text-anchor="start" x="750" y="-353.5" font-family="Helvetica,sans-Serif" font-size="10.00">Terraria.Social.Base.Social</text>
<text text-anchor="start" x="750" y="-342.5" font-family="Helvetica,sans-Serif" font-size="10.00">BrowserModule.DirectQueryInstalled</text>
<text text-anchor="middle" x="840" y="-331.5" font-family="Helvetica,sans-Serif" font-size="10.00">MDItems</text>
</a>
</g>
</g>
<!-- Node4&#45;&gt;Node5 -->
<g id="edge4_Node000004_Node000005" class="edge">
<title>Node4&#45;&gt;Node5</title>
<g id="a_edge4_Node000004_Node000005"><a xlink:title=" ">
<path fill="none" stroke="#63b8ff" d="M706.22,-345C714.71,-345 723.22,-345 731.61,-345"/>
<polygon fill="#63b8ff" stroke="#63b8ff" points="731.76,-348.5 741.76,-345 731.76,-341.5 731.76,-348.5"/>
</a>
</g>
</g>
<!-- Node6 -->
<g id="Node000006" class="node">
<title>Node6</title>
<g id="a_Node000006"><a xlink:href="../../d9/dce/interfaceTerraria_1_1Social_1_1Base_1_1SocialBrowserModule_a2f8f2da5de4d9e255f41cf257353c67b.html#a2f8f2da5de4d9e255f41cf257353c67b" target="_top" xlink:title=" ">
<polygon fill="white" stroke="#666666" points="1172.5,-408 990.5,-408 990.5,-378 1172.5,-378 1172.5,-408"/>
<text text-anchor="start" x="998.5" y="-396" font-family="Helvetica,sans-Serif" font-size="10.00">Terraria.Social.Base.Social</text>
<text text-anchor="middle" x="1081.5" y="-385" font-family="Helvetica,sans-Serif" font-size="10.00">BrowserModule.DirectQueryItems</text>
</a>
</g>
</g>
<!-- Node5&#45;&gt;Node6 -->
<g id="edge5_Node000005_Node000006" class="edge">
<title>Node5&#45;&gt;Node6</title>
<g id="a_edge5_Node000005_Node000006"><a xlink:title=" ">
<path fill="none" stroke="#63b8ff" d="M938.07,-364.45C957.08,-368.27 976.89,-372.23 995.48,-375.96"/>
<polygon fill="#63b8ff" stroke="#63b8ff" points="994.87,-379.41 1005.37,-377.94 996.25,-372.54 994.87,-379.41"/>
</a>
</g>
</g>
<!-- Node7 -->
<g id="Node000007" class="node">
<title>Node7</title>
<g id="a_Node000007"><a xlink:href="../../d9/dce/interfaceTerraria_1_1Social_1_1Base_1_1SocialBrowserModule_a580d5d21d5fa75e971d891c0124ea8c5.html#a580d5d21d5fa75e971d891c0124ea8c5" target="_top" xlink:title=" ">
<polygon fill="white" stroke="#666666" points="1172,-360 991,-360 991,-330 1172,-330 1172,-360"/>
<text text-anchor="start" x="999" y="-348" font-family="Helvetica,sans-Serif" font-size="10.00">Terraria.Social.Base.Social</text>
<text text-anchor="middle" x="1081.5" y="-337" font-family="Helvetica,sans-Serif" font-size="10.00">BrowserModule.GetInstalledMods</text>
</a>
</g>
</g>
<!-- Node5&#45;&gt;Node7 -->
<g id="edge6_Node000005_Node000007" class="edge">
<title>Node5&#45;&gt;Node7</title>
<g id="a_edge6_Node000005_Node000007"><a xlink:title=" ">
<path fill="none" stroke="#63b8ff" d="M938.07,-345C952.05,-345 966.46,-345 980.5,-345"/>
<polygon fill="#63b8ff" stroke="#63b8ff" points="980.64,-348.5 990.64,-345 980.64,-341.5 980.64,-348.5"/>
</a>
</g>
</g>
<!-- Node8 -->
<g id="Node000008" class="node">
<title>Node8</title>
<g id="a_Node000008"><a xlink:href="../../d9/dce/interfaceTerraria_1_1Social_1_1Base_1_1SocialBrowserModule_a7bfe5c8c7c4dd16ba5deba8dd88b48f7.html#a7bfe5c8c7c4dd16ba5deba8dd88b48f7" target="_top" xlink:title=" ">
<polygon fill="white" stroke="#666666" points="1189,-312 974,-312 974,-282 1189,-282 1189,-312"/>
<text text-anchor="start" x="982" y="-300" font-family="Helvetica,sans-Serif" font-size="10.00">Terraria.Social.Base.Social</text>
<text text-anchor="middle" x="1081.5" y="-289" font-family="Helvetica,sans-Serif" font-size="10.00">BrowserModule.GetModIdFromLocalFiles</text>
</a>
</g>
</g>
<!-- Node5&#45;&gt;Node8 -->
<g id="edge7_Node000005_Node000008" class="edge">
<title>Node5&#45;&gt;Node8</title>
<g id="a_edge7_Node000005_Node000008"><a xlink:title=" ">
<path fill="none" stroke="#63b8ff" d="M938.07,-325.55C957.08,-321.73 976.89,-317.77 995.48,-314.04"/>
<polygon fill="#63b8ff" stroke="#63b8ff" points="996.25,-317.46 1005.37,-312.06 994.87,-310.59 996.25,-317.46"/>
</a>
</g>
</g>
<!-- Node14 -->
<g id="Node000014" class="node">
<title>Node14</title>
<g id="a_Node000014"><a xlink:href="../../d4/d8f/classTerraria_1_1Localization_1_1Language_aa5ae49ae4976cbf8cf7aa28595d712a6.html#aa5ae49ae4976cbf8cf7aa28595d712a6" target="_top" xlink:title="Retrieves a LocalizedText object for a specified localization key. The actual text value can be retri...">
<polygon fill="white" stroke="#666666" points="664,-204 496,-204 496,-174 664,-174 664,-204"/>
<text text-anchor="start" x="504" y="-192" font-family="Helvetica,sans-Serif" font-size="10.00">Terraria.Localization.Language.</text>
<text text-anchor="middle" x="580" y="-181" font-family="Helvetica,sans-Serif" font-size="10.00">GetText</text>
</a>
</g>
</g>
<!-- Node13&#45;&gt;Node14 -->
<g id="edge13_Node000013_Node000014" class="edge">
<title>Node13&#45;&gt;Node14</title>
<g id="a_edge13_Node000013_Node000014"><a xlink:title=" ">
<path fill="none" stroke="#63b8ff" d="M418.17,-159.08C441.19,-163.36 465.65,-167.91 488.37,-172.14"/>
<polygon fill="#63b8ff" stroke="#63b8ff" points="487.86,-175.6 498.33,-173.99 489.14,-168.72 487.86,-175.6"/>
</a>
</g>
</g>
<!-- Node16 -->
<g id="Node000016" class="node">
<title>Node16</title>
<g id="a_Node000016"><a xlink:href="../../d9/dce/interfaceTerraria_1_1Social_1_1Base_1_1SocialBrowserModule_a3f1c09dd70ba418abd629a7924224f47.html#a3f1c09dd70ba418abd629a7924224f47" target="_top" xlink:title=" ">
<polygon fill="white" stroke="#666666" points="662,-156 498,-156 498,-126 662,-126 662,-156"/>
<text text-anchor="start" x="506" y="-144" font-family="Helvetica,sans-Serif" font-size="10.00">Terraria.Social.Base.Social</text>
<text text-anchor="middle" x="580" y="-133" font-family="Helvetica,sans-Serif" font-size="10.00">BrowserModule.QueryBrowser</text>
</a>
</g>
</g>
<!-- Node13&#45;&gt;Node16 -->
<g id="edge15_Node000013_Node000016" class="edge">
<title>Node13&#45;&gt;Node16</title>
<g id="a_edge15_Node000013_Node000016"><a xlink:title=" ">
<path fill="none" stroke="#63b8ff" d="M418.17,-141C440.96,-141 465.17,-141 487.69,-141"/>
<polygon fill="#63b8ff" stroke="#63b8ff" points="487.91,-144.5 497.91,-141 487.91,-137.5 487.91,-144.5"/>
</a>
</g>
</g>
<!-- Node17 -->
<g id="Node000017" class="node">
<title>Node17</title>
<g id="a_Node000017"><a xlink:href="../../d7/d71/classTerraria_1_1ModLoader_1_1UI_1_1Elements_1_1UIAsyncList_a72657a1417dfaadb01c9120cfd2bbb42.html#a72657a1417dfaadb01c9120cfd2bbb42" target="_top" xlink:title=" ">
<polygon fill="white" stroke="#666666" points="667.5,-108 492.5,-108 492.5,-78 667.5,-78 667.5,-108"/>
<text text-anchor="start" x="500.5" y="-96" font-family="Helvetica,sans-Serif" font-size="10.00">Terraria.ModLoader.UI.Elements.</text>
<text text-anchor="middle" x="580" y="-85" font-family="Helvetica,sans-Serif" font-size="10.00">UIAsyncList.SetEnumerable</text>
</a>
</g>
</g>
<!-- Node13&#45;&gt;Node17 -->
<g id="edge16_Node000013_Node000017" class="edge">
<title>Node13&#45;&gt;Node17</title>
<g id="a_edge16_Node000013_Node000017"><a xlink:title=" ">
<path fill="none" stroke="#63b8ff" d="M418.17,-122.92C441.19,-118.64 465.65,-114.09 488.37,-109.86"/>
<polygon fill="#63b8ff" stroke="#63b8ff" points="489.14,-113.28 498.33,-108.01 487.86,-106.4 489.14,-113.28"/>
</a>
</g>
</g>
<!-- Node20 -->
<g id="Node000020" class="node">
<title>Node20</title>
<g id="a_Node000020"><a xlink:href="../../db/d0b/classTerraria_1_1ModLoader_1_1UI_1_1ModBrowser_1_1UIModBrowser_ad355216add2baccbd2c0e590756e2261.html#ad355216add2baccbd2c0e590756e2261" target="_top" xlink:title=" ">
<polygon fill="white" stroke="#666666" points="674,-60 486,-60 486,-30 674,-30 674,-60"/>
<text text-anchor="start" x="494" y="-48" font-family="Helvetica,sans-Serif" font-size="10.00">Terraria.ModLoader.UI.Mod</text>
<text text-anchor="middle" x="580" y="-37" font-family="Helvetica,sans-Serif" font-size="10.00">Browser.UIModBrowser.SetHeading</text>
</a>
</g>
</g>
<!-- Node13&#45;&gt;Node20 -->
<g id="edge19_Node000013_Node000020" class="edge">
<title>Node13&#45;&gt;Node20</title>
<g id="a_edge19_Node000013_Node000020"><a xlink:title=" ">
<path fill="none" stroke="#63b8ff" d="M352.5,-120.35C378.67,-104.09 417.4,-82.07 454,-69 461.17,-66.44 468.67,-64.13 476.29,-62.06"/>
<polygon fill="#63b8ff" stroke="#63b8ff" points="477.18,-65.45 485.99,-59.56 475.43,-58.67 477.18,-65.45"/>
</a>
</g>
</g>
<!-- Node15 -->
<g id="Node000015" class="node">
<title>Node15</title>
<g id="a_Node000015"><a xlink:href="../../d8/d74/classTerraria_1_1Localization_1_1LanguageManager_ad292c2b15ad9179331427a23cc8c4e8c.html#ad292c2b15ad9179331427a23cc8c4e8c" target="_top" xlink:title=" ">
<polygon fill="white" stroke="#666666" points="922.5,-204 757.5,-204 757.5,-174 922.5,-174 922.5,-204"/>
<text text-anchor="start" x="765.5" y="-192" font-family="Helvetica,sans-Serif" font-size="10.00">Terraria.Localization.Language</text>
<text text-anchor="middle" x="840" y="-181" font-family="Helvetica,sans-Serif" font-size="10.00">Manager.GetText</text>
</a>
</g>
</g>
<!-- Node14&#45;&gt;Node15 -->
<g id="edge14_Node000014_Node000015" class="edge">
<title>Node14&#45;&gt;Node15</title>
<g id="a_edge14_Node000014_Node000015"><a xlink:title=" ">
<path fill="none" stroke="#63b8ff" d="M664.05,-189C690.57,-189 720.06,-189 747.17,-189"/>
<polygon fill="#63b8ff" stroke="#63b8ff" points="747.43,-192.5 757.43,-189 747.43,-185.5 747.43,-192.5"/>
</a>
</g>
</g>
<!-- Node18 -->
<g id="Node000018" class="node">
<title>Node18</title>
<g id="a_Node000018"><a xlink:href="../../d7/d71/classTerraria_1_1ModLoader_1_1UI_1_1Elements_1_1UIAsyncList_ad35c5f04497e2232198ad10925272159.html#ad35c5f04497e2232198ad10925272159" target="_top" xlink:title=" ">
<polygon fill="white" stroke="#666666" points="927.5,-108 752.5,-108 752.5,-78 927.5,-78 927.5,-108"/>
<text text-anchor="start" x="760.5" y="-96" font-family="Helvetica,sans-Serif" font-size="10.00">Terraria.ModLoader.UI.Elements.</text>
<text text-anchor="middle" x="840" y="-85" font-family="Helvetica,sans-Serif" font-size="10.00">UIAsyncList.SetProvider</text>
</a>
</g>
</g>
<!-- Node17&#45;&gt;Node18 -->
<g id="edge17_Node000017_Node000018" class="edge">
<title>Node17&#45;&gt;Node18</title>
<g id="a_edge17_Node000017_Node000018"><a xlink:title=" ">
<path fill="none" stroke="#63b8ff" d="M667.63,-93C691.56,-93 717.68,-93 742.15,-93"/>
<polygon fill="#63b8ff" stroke="#63b8ff" points="742.16,-96.5 752.16,-93 742.16,-89.5 742.16,-96.5"/>
</a>
</g>
</g>
<!-- Node19 -->
<g id="Node000019" class="node">
<title>Node19</title>
<g id="a_Node000019"><a xlink:href="../../db/df1/classTerraria_1_1ModLoader_1_1AsyncProvider_a1733225f10b596391656992b85eda009.html#a1733225f10b596391656992b85eda009" target="_top" xlink:title=" ">
<polygon fill="white" stroke="#666666" points="1152.5,-108 1010.5,-108 1010.5,-78 1152.5,-78 1152.5,-108"/>
<text text-anchor="start" x="1018.5" y="-96" font-family="Helvetica,sans-Serif" font-size="10.00">Terraria.ModLoader.Async</text>
<text text-anchor="middle" x="1081.5" y="-85" font-family="Helvetica,sans-Serif" font-size="10.00">Provider.Cancel</text>
</a>
</g>
</g>
<!-- Node18&#45;&gt;Node19 -->
<g id="edge18_Node000018_Node000019" class="edge">
<title>Node18&#45;&gt;Node19</title>
<g id="a_edge18_Node000018_Node000019"><a xlink:title=" ">
<path fill="none" stroke="#63b8ff" d="M927.8,-93C951.48,-93 977.01,-93 1000.3,-93"/>
<polygon fill="#63b8ff" stroke="#63b8ff" points="1000.48,-96.5 1010.48,-93 1000.48,-89.5 1000.48,-96.5"/>
</a>
</g>
</g>
<!-- Node21 -->
<g id="Node000021" class="node">
<title>Node21</title>
<g id="a_Node000021"><a xlink:href="../../da/d3f/classTerraria_1_1GameContent_1_1UI_1_1Elements_1_1UITextPanel_a998f2fe54f3221d81d8c4af4ba62f4ad.html#a998f2fe54f3221d81d8c4af4ba62f4ad" target="_top" xlink:title=" ">
<polygon fill="white" stroke="#666666" points="931,-60 749,-60 749,-30 931,-30 931,-60"/>
<text text-anchor="start" x="757" y="-48" font-family="Helvetica,sans-Serif" font-size="10.00">Terraria.GameContent.UI.</text>
<text text-anchor="middle" x="840" y="-37" font-family="Helvetica,sans-Serif" font-size="10.00">Elements.UITextPanel.Recalculate</text>
</a>
</g>
</g>
<!-- Node20&#45;&gt;Node21 -->
<g id="edge20_Node000020_Node000021" class="edge">
<title>Node20&#45;&gt;Node21</title>
<g id="a_edge20_Node000020_Node000021"><a xlink:title=" ">
<path fill="none" stroke="#63b8ff" d="M674.14,-45C694.98,-45 717.18,-45 738.31,-45"/>
<polygon fill="#63b8ff" stroke="#63b8ff" points="738.58,-48.5 748.58,-45 738.58,-41.5 738.58,-48.5"/>
</a>
</g>
</g>
<!-- Node22 -->
<g id="Node000022" class="node">
<title>Node22</title>
<g id="a_Node000022"><a xlink:href="../../da/d3f/classTerraria_1_1GameContent_1_1UI_1_1Elements_1_1UITextPanel_afd0d2001cf75f54f22f97c5eea5e8903.html#afd0d2001cf75f54f22f97c5eea5e8903" target="_top" xlink:title=" ">
<polygon fill="white" stroke="#666666" points="1162,-30 1001,-30 1001,0 1162,0 1162,-30"/>
<text text-anchor="start" x="1009" y="-18" font-family="Helvetica,sans-Serif" font-size="10.00">Terraria.GameContent.UI.</text>
<text text-anchor="middle" x="1081.5" y="-7" font-family="Helvetica,sans-Serif" font-size="10.00">Elements.UITextPanel.SetText</text>
</a>
</g>
</g>
<!-- Node20&#45;&gt;Node22 -->
<g id="edge23_Node000020_Node000022" class="edge">
<title>Node20&#45;&gt;Node22</title>
<g id="a_edge23_Node000020_Node000022"><a xlink:title=" ">
<path fill="none" stroke="#63b8ff" d="M667.66,-29.97C691.66,-26.38 717.78,-23.01 742,-21 825.99,-14.03 922.09,-12.98 990.38,-13.41"/>
<polygon fill="#63b8ff" stroke="#63b8ff" points="990.65,-16.91 1000.67,-13.49 990.7,-9.92 990.65,-16.91"/>
</a>
</g>
</g>
<!-- Node21&#45;&gt;Node22 -->
<g id="edge21_Node000021_Node000022" class="edge">
<title>Node21&#45;&gt;Node22</title>
<g id="a_edge21_Node000021_Node000022"><a xlink:title=" ">
<path fill="none" stroke="#63b8ff" d="M931.2,-33.7C950.74,-31.25 971.39,-28.67 990.9,-26.22"/>
<polygon fill="#63b8ff" stroke="#63b8ff" points="991.5,-29.68 1000.99,-24.96 990.63,-22.73 991.5,-29.68"/>
</a>
</g>
</g>
<!-- Node22&#45;&gt;Node22 -->
<g id="edge22_Node000022_Node000022" class="edge">
<title>Node22&#45;&gt;Node22</title>
<g id="a_edge22_Node000022_Node000022"><a xlink:title=" ">
<path fill="none" stroke="#63b8ff" d="M1039.31,-30.28C1029.94,-39.41 1044,-48 1081.5,-48 1103.77,-48 1117.77,-44.97 1123.51,-40.6"/>
<polygon fill="#63b8ff" stroke="#63b8ff" points="1127.01,-40.33 1123.69,-30.28 1120.01,-40.21 1127.01,-40.33"/>
</a>
</g>
</g>
</g>
</svg>
