<?xml version="1.0" encoding="UTF-8" standalone="no"?>
<!DOCTYPE svg PUBLIC "-//W3C//DTD SVG 1.1//EN"
 "http://www.w3.org/Graphics/SVG/1.1/DTD/svg11.dtd">
<!-- Generated by graphviz version 2.43.0 (0)
 -->
<!-- Title: Terraria.ModLoader.LocalizationLoader.FinishSetup Pages: 1 -->
<!--zoomable 452 -->

<svg id="main" version="1.1" xmlns="http://www.w3.org/2000/svg" xmlns:xlink="http://www.w3.org/1999/xlink" xml:space="preserve" onload="init(evt)">
<style type="text/css"><![CDATA[
.node, .edge {opacity: 0.7;}
.node.selected, .edge.selected {opacity: 1;}
.edge:hover path { stroke: red; }
.edge:hover polygon { stroke: red; fill: red; }
]]></style>

<defs>
  <circle id="rim" cx="0" cy="0" r="7"/>
  <circle id="rim2" cx="0" cy="0" r="3.5"/>
  <g id="zoomPlus">
    <use xlink:href="#rim" fill="#404040"><set attributeName="fill" to="#808080" begin="zoomplus.mouseover" end="zoomplus.mouseout"/></use>
    <path d="M-4,0h8M0,-4v8" fill="none" stroke="white" stroke-width="1.5" pointer-events="none"/>
  </g>
  <g id="zoomMin">
    <use xlink:href="#rim" fill="#404040"><set attributeName="fill" to="#808080" begin="zoomminus.mouseover" end="zoomminus.mouseout"/></use>
    <path d="M-4,0h8" fill="none" stroke="white" stroke-width="1.5" pointer-events="none"/>
  </g>
  <g id="arrowUp" transform="translate(30 24)">
    <use xlink:href="#rim"/>
    <path pointer-events="none" fill="none" stroke="white" stroke-width="1.5" d="M0,-3.0v7 M-2.5,-0.5L0,-3.0L2.5,-0.5"/>
  </g>
  <g id="arrowRight" transform="rotate(90) translate(36 -43)">
    <use xlink:href="#rim"/>
    <path pointer-events="none" fill="none" stroke="white" stroke-width="1.5" d="M0,-3.0v7 M-2.5,-0.5L0,-3.0L2.5,-0.5"/>
  </g>
  <g id="arrowDown" transform="rotate(180) translate(-30 -48)">
    <use xlink:href="#rim"/>
    <path pointer-events="none" fill="none" stroke="white" stroke-width="1.5" d="M0,-3.0v7 M-2.5,-0.5L0,-3.0L2.5,-0.5"/>
  </g>
  <g id="arrowLeft" transform="rotate(270) translate(-36 17)">
    <use xlink:href="#rim"/>
    <path pointer-events="none" fill="none" stroke="white" stroke-width="1.5" d="M0,-3.0v7 M-2.5,-0.5L0,-3.0L2.5,-0.5"/>
  </g>
  <g id="resetDef">
    <use xlink:href="#rim2" fill="#404040"><set attributeName="fill" to="#808080" begin="reset.mouseover" end="reset.mouseout"/></use>
  </g>
</defs>
<script type="application/ecmascript">
var viewWidth = 1278;
var viewHeight = 452;
var sectionId = 'dynsection-0';
</script>
<script type="application/ecmascript" xlink:href="../../svg.min.js"/>
<svg id="graph" class="graph">
<g id="viewport">
<title>Terraria.ModLoader.LocalizationLoader.FinishSetup</title>
<!-- Node1 -->
<g id="Node000001" class="node">
<title>Node1</title>
<g id="a_Node000001"><a xlink:title=" ">
<polygon fill="#999999" stroke="#666666" points="171,-260 0,-260 0,-230 171,-230 171,-260"/>
<text text-anchor="start" x="8" y="-248" font-family="Helvetica,sans-Serif" font-size="10.00">Terraria.ModLoader.Localization</text>
<text text-anchor="middle" x="85.5" y="-237" font-family="Helvetica,sans-Serif" font-size="10.00">Loader.FinishSetup</text>
</a>
</g>
</g>
<!-- Node2 -->
<g id="Node000002" class="node">
<title>Node2</title>
<g id="a_Node000002"><a xlink:href="../../d0/dc4/classTerraria_1_1ModLoader_1_1LocalizationLoader_acb62eb4be6bfaca1f9f636b65d2d622e.html#acb62eb4be6bfaca1f9f636b65d2d622e" target="_top" xlink:title=" ">
<polygon fill="white" stroke="#666666" points="378,-284 207,-284 207,-254 378,-254 378,-284"/>
<text text-anchor="start" x="215" y="-272" font-family="Helvetica,sans-Serif" font-size="10.00">Terraria.ModLoader.Localization</text>
<text text-anchor="middle" x="292.5" y="-261" font-family="Helvetica,sans-Serif" font-size="10.00">Loader.SetupFileWatchers</text>
</a>
</g>
</g>
<!-- Node1&#45;&gt;Node2 -->
<g id="edge1_Node000001_Node000002" class="edge">
<title>Node1&#45;&gt;Node2</title>
<g id="a_edge1_Node000001_Node000002"><a xlink:title=" ">
<path fill="none" stroke="#63b8ff" d="M171.06,-254.9C179.55,-255.89 188.2,-256.91 196.78,-257.91"/>
<polygon fill="#63b8ff" stroke="#63b8ff" points="196.46,-261.4 206.8,-259.08 197.27,-254.44 196.46,-261.4"/>
</a>
</g>
</g>
<!-- Node4 -->
<g id="Node000004" class="node">
<title>Node4</title>
<g id="a_Node000004"><a xlink:href="../../d0/dc4/classTerraria_1_1ModLoader_1_1LocalizationLoader_a251a4b88f038748f4f4445f9927d725e.html#a251a4b88f038748f4f4445f9927d725e" target="_top" xlink:title=" ">
<polygon fill="white" stroke="#666666" points="378,-236 207,-236 207,-206 378,-206 378,-236"/>
<text text-anchor="start" x="215" y="-224" font-family="Helvetica,sans-Serif" font-size="10.00">Terraria.ModLoader.Localization</text>
<text text-anchor="middle" x="292.5" y="-213" font-family="Helvetica,sans-Serif" font-size="10.00">Loader.UpdateLocalizationFiles</text>
</a>
</g>
</g>
<!-- Node1&#45;&gt;Node4 -->
<g id="edge3_Node000001_Node000004" class="edge">
<title>Node1&#45;&gt;Node4</title>
<g id="a_edge3_Node000001_Node000004"><a xlink:title=" ">
<path fill="none" stroke="#63b8ff" d="M171.06,-235.1C179.55,-234.11 188.2,-233.09 196.78,-232.09"/>
<polygon fill="#63b8ff" stroke="#63b8ff" points="197.27,-235.56 206.8,-230.92 196.46,-228.6 197.27,-235.56"/>
</a>
</g>
</g>
<!-- Node3 -->
<g id="Node000003" class="node">
<title>Node3</title>
<g id="a_Node000003"><a xlink:href="../../d0/dc4/classTerraria_1_1ModLoader_1_1LocalizationLoader_a747e9d324b6335976cff94a39aa16a76.html#a747e9d324b6335976cff94a39aa16a76" target="_top" xlink:title=" ">
<polygon fill="white" stroke="#666666" points="618,-284 414,-284 414,-254 618,-254 618,-284"/>
<text text-anchor="start" x="422" y="-272" font-family="Helvetica,sans-Serif" font-size="10.00">Terraria.ModLoader.Localization</text>
<text text-anchor="middle" x="516" y="-261" font-family="Helvetica,sans-Serif" font-size="10.00">Loader.HandleFileChangedOrRenamed</text>
</a>
</g>
</g>
<!-- Node2&#45;&gt;Node3 -->
<g id="edge2_Node000002_Node000003" class="edge">
<title>Node2&#45;&gt;Node3</title>
<g id="a_edge2_Node000002_Node000003"><a xlink:title=" ">
<path fill="none" stroke="#63b8ff" d="M378.19,-269C386.53,-269 395.08,-269 403.63,-269"/>
<polygon fill="#63b8ff" stroke="#63b8ff" points="403.66,-272.5 413.66,-269 403.66,-265.5 403.66,-272.5"/>
</a>
</g>
</g>
<!-- Node5 -->
<g id="Node000005" class="node">
<title>Node5</title>
<g id="a_Node000005"><a xlink:href="../../d0/dc4/classTerraria_1_1ModLoader_1_1LocalizationLoader_a075fba0e2f4eb906e651f99a0a2f9657.html#a075fba0e2f4eb906e651f99a0a2f9657" target="_top" xlink:title=" ">
<polygon fill="white" stroke="#666666" points="618,-236 414,-236 414,-206 618,-206 618,-236"/>
<text text-anchor="start" x="422" y="-224" font-family="Helvetica,sans-Serif" font-size="10.00">Terraria.ModLoader.Localization</text>
<text text-anchor="middle" x="516" y="-213" font-family="Helvetica,sans-Serif" font-size="10.00">Loader.UpdateLocalizationFilesForMod</text>
</a>
</g>
</g>
<!-- Node4&#45;&gt;Node5 -->
<g id="edge4_Node000004_Node000005" class="edge">
<title>Node4&#45;&gt;Node5</title>
<g id="a_edge4_Node000004_Node000005"><a xlink:title=" ">
<path fill="none" stroke="#63b8ff" d="M378.19,-221C386.53,-221 395.08,-221 403.63,-221"/>
<polygon fill="#63b8ff" stroke="#63b8ff" points="403.66,-224.5 413.66,-221 403.66,-217.5 403.66,-224.5"/>
</a>
</g>
</g>
<!-- Node6 -->
<g id="Node000006" class="node">
<title>Node6</title>
<g id="a_Node000006"><a xlink:href="../../d0/dc4/classTerraria_1_1ModLoader_1_1LocalizationLoader_a60c881a3b1b07a917940a0132da1f8ff.html#a60c881a3b1b07a917940a0132da1f8ff" target="_top" xlink:title=" ">
<polygon fill="white" stroke="#666666" points="1063,-394 892,-394 892,-364 1063,-364 1063,-394"/>
<text text-anchor="start" x="900" y="-382" font-family="Helvetica,sans-Serif" font-size="10.00">Terraria.ModLoader.Localization</text>
<text text-anchor="middle" x="977.5" y="-371" font-family="Helvetica,sans-Serif" font-size="10.00">Loader.AddEntryToHJSON</text>
</a>
</g>
</g>
<!-- Node5&#45;&gt;Node6 -->
<g id="edge5_Node000005_Node000006" class="edge">
<title>Node5&#45;&gt;Node6</title>
<g id="a_edge5_Node000005_Node000006"><a xlink:title=" ">
<path fill="none" stroke="#63b8ff" d="M605.75,-236.13C610.13,-238.67 614.26,-241.61 618,-245 654.53,-278.15 615.18,-319.55 654,-350 719.56,-401.42 817.3,-403.02 887.99,-395.25"/>
<polygon fill="#63b8ff" stroke="#63b8ff" points="888.7,-398.69 898.22,-394.04 887.88,-391.74 888.7,-398.69"/>
</a>
</g>
</g>
<!-- Node7 -->
<g id="Node000007" class="node">
<title>Node7</title>
<g id="a_Node000007"><a xlink:href="../../d0/dc4/classTerraria_1_1ModLoader_1_1LocalizationLoader_aa3d48c9013777cf510f63dd762bf7edf.html#aa3d48c9013777cf510f63dd762bf7edf" target="_top" xlink:title=" ">
<polygon fill="white" stroke="#666666" points="1270,-351 1099,-351 1099,-321 1270,-321 1270,-351"/>
<text text-anchor="start" x="1107" y="-339" font-family="Helvetica,sans-Serif" font-size="10.00">Terraria.ModLoader.Localization</text>
<text text-anchor="middle" x="1184.5" y="-328" font-family="Helvetica,sans-Serif" font-size="10.00">Loader.LocalizationEntry</text>
</a>
</g>
</g>
<!-- Node5&#45;&gt;Node7 -->
<g id="edge14_Node000005_Node000007" class="edge">
<title>Node5&#45;&gt;Node7</title>
<g id="a_edge14_Node000005_Node000007"><a xlink:title=" ">
<path fill="none" stroke="#63b8ff" d="M604.26,-236.24C609.13,-238.74 613.76,-241.64 618,-245 646.04,-267.22 623.91,-297.65 654,-317 689.51,-339.84 946.42,-339.69 1088.91,-337.78"/>
<polygon fill="#63b8ff" stroke="#63b8ff" points="1089.01,-341.28 1098.97,-337.64 1088.92,-334.28 1089.01,-341.28"/>
</a>
</g>
</g>
<!-- Node8 -->
<g id="Node000008" class="node">
<title>Node8</title>
<g id="a_Node000008"><a xlink:href="../../d0/dc4/classTerraria_1_1ModLoader_1_1LocalizationLoader_aa7c7f808106b100104057088a267ffbb.html#aa7c7f808106b100104057088a267ffbb" target="_top" xlink:title=" ">
<polygon fill="white" stroke="#666666" points="840.5,-308 669.5,-308 669.5,-278 840.5,-278 840.5,-308"/>
<text text-anchor="start" x="677.5" y="-296" font-family="Helvetica,sans-Serif" font-size="10.00">Terraria.ModLoader.Localization</text>
<text text-anchor="middle" x="755" y="-285" font-family="Helvetica,sans-Serif" font-size="10.00">Loader.FindHJSONFileForKey</text>
</a>
</g>
</g>
<!-- Node5&#45;&gt;Node8 -->
<g id="edge7_Node000005_Node000008" class="edge">
<title>Node5&#45;&gt;Node8</title>
<g id="a_edge7_Node000005_Node000008"><a xlink:title=" ">
<path fill="none" stroke="#63b8ff" d="M593.24,-236.03C601.74,-238.61 610.15,-241.58 618,-245 635.63,-252.68 636.38,-261.3 654,-269 658.74,-271.07 663.68,-272.98 668.72,-274.73"/>
<polygon fill="#63b8ff" stroke="#63b8ff" points="667.92,-278.15 678.52,-277.93 670.09,-271.5 667.92,-278.15"/>
</a>
</g>
</g>
<!-- Node9 -->
<g id="Node000009" class="node">
<title>Node9</title>
<g id="a_Node000009"><a xlink:href="../../d0/dc4/classTerraria_1_1ModLoader_1_1LocalizationLoader_af59ef22c02138b48b831856a1386eb6f.html#af59ef22c02138b48b831856a1386eb6f" target="_top" xlink:title=" ">
<polygon fill="white" stroke="#666666" points="1063,-121 892,-121 892,-91 1063,-91 1063,-121"/>
<text text-anchor="start" x="900" y="-109" font-family="Helvetica,sans-Serif" font-size="10.00">Terraria.ModLoader.Localization</text>
<text text-anchor="middle" x="977.5" y="-98" font-family="Helvetica,sans-Serif" font-size="10.00">Loader.LocalizationFile</text>
</a>
</g>
</g>
<!-- Node5&#45;&gt;Node9 -->
<g id="edge15_Node000005_Node000009" class="edge">
<title>Node5&#45;&gt;Node9</title>
<g id="a_edge15_Node000005_Node000009"><a xlink:title=" ">
<path fill="none" stroke="#63b8ff" d="M532.21,-205.93C555.9,-183.57 604.08,-142.38 654,-125 727.41,-99.44 815.85,-95.99 881.53,-98.2"/>
<polygon fill="#63b8ff" stroke="#63b8ff" points="881.75,-101.71 891.87,-98.6 882.02,-94.71 881.75,-101.71"/>
</a>
</g>
</g>
<!-- Node11 -->
<g id="Node000011" class="node">
<title>Node11</title>
<g id="a_Node000011"><a xlink:href="../../d0/dc4/classTerraria_1_1ModLoader_1_1LocalizationLoader_a8484e9e4d936660800cb1adfadd4a605.html#a8484e9e4d936660800cb1adfadd4a605" target="_top" xlink:title=" ">
<polygon fill="white" stroke="#666666" points="853.5,-260 656.5,-260 656.5,-230 853.5,-230 853.5,-260"/>
<text text-anchor="start" x="664.5" y="-248" font-family="Helvetica,sans-Serif" font-size="10.00">Terraria.ModLoader.Localization</text>
<text text-anchor="middle" x="755" y="-237" font-family="Helvetica,sans-Serif" font-size="10.00">Loader.GetCultureAndPrefixFromPath</text>
</a>
</g>
</g>
<!-- Node5&#45;&gt;Node11 -->
<g id="edge11_Node000005_Node000011" class="edge">
<title>Node5&#45;&gt;Node11</title>
<g id="a_edge11_Node000005_Node000011"><a xlink:title=" ">
<path fill="none" stroke="#63b8ff" d="M618.2,-231.25C627.44,-232.18 636.82,-233.13 646.11,-234.07"/>
<polygon fill="#63b8ff" stroke="#63b8ff" points="645.85,-237.57 656.15,-235.09 646.56,-230.6 645.85,-237.57"/>
</a>
</g>
</g>
<!-- Node12 -->
<g id="Node000012" class="node">
<title>Node12</title>
<g id="a_Node000012"><a xlink:href="../../d0/dc4/classTerraria_1_1ModLoader_1_1LocalizationLoader_a1d826dbceca37e23a7551afd0000398a.html#a1d826dbceca37e23a7551afd0000398a" target="_top" xlink:title=" ">
<polygon fill="white" stroke="#666666" points="840.5,-212 669.5,-212 669.5,-182 840.5,-182 840.5,-212"/>
<text text-anchor="start" x="677.5" y="-200" font-family="Helvetica,sans-Serif" font-size="10.00">Terraria.ModLoader.Localization</text>
<text text-anchor="middle" x="755" y="-189" font-family="Helvetica,sans-Serif" font-size="10.00">Loader.GetPathForCulture</text>
</a>
</g>
</g>
<!-- Node5&#45;&gt;Node12 -->
<g id="edge12_Node000005_Node000012" class="edge">
<title>Node5&#45;&gt;Node12</title>
<g id="a_edge12_Node000005_Node000012"><a xlink:title=" ">
<path fill="none" stroke="#63b8ff" d="M618.2,-210.75C631.73,-209.38 645.57,-207.98 659,-206.62"/>
<polygon fill="#63b8ff" stroke="#63b8ff" points="659.57,-210.08 669.17,-205.59 658.87,-203.12 659.57,-210.08"/>
</a>
</g>
</g>
<!-- Node13 -->
<g id="Node000013" class="node">
<title>Node13</title>
<g id="a_Node000013"><a xlink:href="../../d0/dc4/classTerraria_1_1ModLoader_1_1LocalizationLoader_a69bb6b455f70ea2c4a8a1c62cbd46d52.html#a69bb6b455f70ea2c4a8a1c62cbd46d52" target="_top" xlink:title=" ">
<polygon fill="white" stroke="#666666" points="856,-164 654,-164 654,-134 856,-134 856,-164"/>
<text text-anchor="start" x="662" y="-152" font-family="Helvetica,sans-Serif" font-size="10.00">Terraria.ModLoader.Localization</text>
<text text-anchor="middle" x="755" y="-141" font-family="Helvetica,sans-Serif" font-size="10.00">Loader.HasTextThatNeedsLocalization</text>
</a>
</g>
</g>
<!-- Node5&#45;&gt;Node13 -->
<g id="edge13_Node000005_Node000013" class="edge">
<title>Node5&#45;&gt;Node13</title>
<g id="a_edge13_Node000005_Node000013"><a xlink:title=" ">
<path fill="none" stroke="#63b8ff" d="M556.52,-205.96C583.7,-195.91 620.76,-182.79 654,-173 661.61,-170.76 669.59,-168.57 677.59,-166.49"/>
<polygon fill="#63b8ff" stroke="#63b8ff" points="678.5,-169.87 687.32,-164.01 676.76,-163.09 678.5,-169.87"/>
</a>
</g>
</g>
<!-- Node14 -->
<g id="Node000014" class="node">
<title>Node14</title>
<g id="a_Node000014"><a xlink:href="../../d0/dc4/classTerraria_1_1ModLoader_1_1LocalizationLoader_a586e759441818b1e47d1131b63fa8ee1.html#a586e759441818b1e47d1131b63fa8ee1" target="_top" xlink:title=" ">
<polygon fill="white" stroke="#666666" points="848,-78 662,-78 662,-48 848,-48 848,-78"/>
<text text-anchor="start" x="670" y="-66" font-family="Helvetica,sans-Serif" font-size="10.00">Terraria.ModLoader.Localization</text>
<text text-anchor="middle" x="755" y="-55" font-family="Helvetica,sans-Serif" font-size="10.00">Loader.LocalizationFileToHjsonText</text>
</a>
</g>
</g>
<!-- Node5&#45;&gt;Node14 -->
<g id="edge16_Node000005_Node000014" class="edge">
<title>Node5&#45;&gt;Node14</title>
<g id="a_edge16_Node000005_Node000014"><a xlink:title=" ">
<path fill="none" stroke="#63b8ff" d="M528.87,-205.84C550.74,-178.93 600.1,-122.78 654,-92 660.98,-88.02 668.54,-84.54 676.28,-81.52"/>
<polygon fill="#63b8ff" stroke="#63b8ff" points="677.59,-84.77 685.79,-78.06 675.19,-78.19 677.59,-84.77"/>
</a>
</g>
</g>
<!-- Node15 -->
<g id="Node000015" class="node">
<title>Node15</title>
<g id="a_Node000015"><a xlink:href="../../d0/dc4/classTerraria_1_1ModLoader_1_1LocalizationLoader_a58ac9260c9dd21b2c106664ffcd2e030.html#a58ac9260c9dd21b2c106664ffcd2e030" target="_top" xlink:title=" ">
<polygon fill="white" stroke="#666666" points="1063,-442 892,-442 892,-412 1063,-412 1063,-442"/>
<text text-anchor="start" x="900" y="-430" font-family="Helvetica,sans-Serif" font-size="10.00">Terraria.ModLoader.Localization</text>
<text text-anchor="middle" x="977.5" y="-419" font-family="Helvetica,sans-Serif" font-size="10.00">Loader.ParseLocalizationEntries</text>
</a>
</g>
</g>
<!-- Node5&#45;&gt;Node15 -->
<g id="edge19_Node000005_Node000015" class="edge">
<title>Node5&#45;&gt;Node15</title>
<g id="a_edge19_Node000005_Node000015"><a xlink:title=" ">
<path fill="none" stroke="#63b8ff" d="M606.55,-236.05C610.68,-238.62 614.54,-241.58 618,-245 664.65,-291.03 604.83,-344.67 654,-388 715.31,-442.01 810.51,-447.38 881.61,-441.87"/>
<polygon fill="#63b8ff" stroke="#63b8ff" points="882.25,-445.32 891.92,-440.98 881.65,-438.35 882.25,-445.32"/>
</a>
</g>
</g>
<!-- Node16 -->
<g id="Node000016" class="node">
<title>Node16</title>
<g id="a_Node000016"><a xlink:href="../../dc/d1f/classTerraria_1_1ModLoader_1_1ModLoader_ad8a92830e19b676fefe1623538bd222f.html#ad8a92830e19b676fefe1623538bd222f" target="_top" xlink:title="Safely attempts to get the instance of the Mod with the specified name.">
<polygon fill="white" stroke="#666666" points="839.5,-30 670.5,-30 670.5,0 839.5,0 839.5,-30"/>
<text text-anchor="start" x="678.5" y="-18" font-family="Helvetica,sans-Serif" font-size="10.00">Terraria.ModLoader.ModLoader.</text>
<text text-anchor="middle" x="755" y="-7" font-family="Helvetica,sans-Serif" font-size="10.00">TryGetMod</text>
</a>
</g>
</g>
<!-- Node5&#45;&gt;Node16 -->
<g id="edge21_Node000005_Node000016" class="edge">
<title>Node5&#45;&gt;Node16</title>
<g id="a_edge21_Node000005_Node000016"><a xlink:title=" ">
<path fill="none" stroke="#63b8ff" d="M523.8,-205.97C540.52,-170.8 587.2,-82.82 654,-39 656.57,-37.32 659.24,-35.75 661.99,-34.29"/>
<polygon fill="#63b8ff" stroke="#63b8ff" points="663.5,-37.46 671.03,-30.01 660.5,-31.13 663.5,-37.46"/>
</a>
</g>
</g>
<!-- Node6&#45;&gt;Node7 -->
<g id="edge6_Node000006_Node000007" class="edge">
<title>Node6&#45;&gt;Node7</title>
<g id="a_edge6_Node000006_Node000007"><a xlink:title=" ">
<path fill="none" stroke="#63b8ff" d="M1050.2,-363.96C1066.9,-360.46 1084.8,-356.7 1101.89,-353.12"/>
<polygon fill="#63b8ff" stroke="#63b8ff" points="1102.77,-356.51 1111.84,-351.03 1101.34,-349.66 1102.77,-356.51"/>
</a>
</g>
</g>
<!-- Node8&#45;&gt;Node9 -->
<g id="edge8_Node000008_Node000009" class="edge">
<title>Node8&#45;&gt;Node9</title>
<g id="a_edge8_Node000008_Node000009"><a xlink:title=" ">
<path fill="none" stroke="#63b8ff" d="M839.25,-277.94C845.13,-275.41 850.79,-272.45 856,-269 909.1,-233.84 947.35,-166.92 965.2,-130.73"/>
<polygon fill="#63b8ff" stroke="#63b8ff" points="968.52,-131.91 969.69,-121.39 962.21,-128.88 968.52,-131.91"/>
</a>
</g>
</g>
<!-- Node10 -->
<g id="Node000010" class="node">
<title>Node10</title>
<g id="a_Node000010"><a xlink:href="../../d0/dc4/classTerraria_1_1ModLoader_1_1LocalizationLoader_a5e91d078bed2726ca9e473abe52fb08d.html#a5e91d078bed2726ca9e473abe52fb08d" target="_top" xlink:title=" ">
<polygon fill="white" stroke="#666666" points="1063,-308 892,-308 892,-278 1063,-278 1063,-308"/>
<text text-anchor="start" x="900" y="-296" font-family="Helvetica,sans-Serif" font-size="10.00">Terraria.ModLoader.Localization</text>
<text text-anchor="middle" x="977.5" y="-285" font-family="Helvetica,sans-Serif" font-size="10.00">Loader.LongestMatchingPrefix</text>
</a>
</g>
</g>
<!-- Node8&#45;&gt;Node10 -->
<g id="edge9_Node000008_Node000010" class="edge">
<title>Node8&#45;&gt;Node10</title>
<g id="a_edge9_Node000008_Node000010"><a xlink:title=" ">
<path fill="none" stroke="#63b8ff" d="M840.62,-293C853.98,-293 867.86,-293 881.44,-293"/>
<polygon fill="#63b8ff" stroke="#63b8ff" points="881.74,-296.5 891.74,-293 881.74,-289.5 881.74,-296.5"/>
</a>
</g>
</g>
<!-- Node10&#45;&gt;Node7 -->
<g id="edge10_Node000010_Node000007" class="edge">
<title>Node10&#45;&gt;Node7</title>
<g id="a_edge10_Node000010_Node000007"><a xlink:title=" ">
<path fill="none" stroke="#63b8ff" d="M1050.2,-308.04C1066.9,-311.54 1084.8,-315.3 1101.89,-318.88"/>
<polygon fill="#63b8ff" stroke="#63b8ff" points="1101.34,-322.34 1111.84,-320.97 1102.77,-315.49 1101.34,-322.34"/>
</a>
</g>
</g>
<!-- Node14&#45;&gt;Node7 -->
<g id="edge17_Node000014_Node000007" class="edge">
<title>Node14&#45;&gt;Node7</title>
<g id="a_edge17_Node000014_Node000007"><a xlink:title=" ">
<path fill="none" stroke="#63b8ff" d="M828.99,-47.97C895.73,-38.46 994.22,-35.47 1063,-82 1142.82,-136 1171.2,-257.81 1180,-310.7"/>
<polygon fill="#63b8ff" stroke="#63b8ff" points="1176.59,-311.55 1181.59,-320.89 1183.51,-310.47 1176.59,-311.55"/>
</a>
</g>
</g>
<!-- Node14&#45;&gt;Node9 -->
<g id="edge18_Node000014_Node000009" class="edge">
<title>Node14&#45;&gt;Node9</title>
<g id="a_edge18_Node000014_Node000009"><a xlink:title=" ">
<path fill="none" stroke="#63b8ff" d="M833.12,-78.04C851.33,-81.59 870.87,-85.4 889.49,-89.03"/>
<polygon fill="#63b8ff" stroke="#63b8ff" points="888.94,-92.49 899.42,-90.97 890.28,-85.62 888.94,-92.49"/>
</a>
</g>
</g>
<!-- Node15&#45;&gt;Node7 -->
<g id="edge20_Node000015_Node000007" class="edge">
<title>Node15&#45;&gt;Node7</title>
<g id="a_edge20_Node000015_Node000007"><a xlink:title=" ">
<path fill="none" stroke="#63b8ff" d="M1038.19,-411.92C1046.63,-409.25 1055.11,-406.26 1063,-403 1094.38,-390.02 1127.99,-370.85 1151.72,-356.34"/>
<polygon fill="#63b8ff" stroke="#63b8ff" points="1153.64,-359.26 1160.3,-351.03 1149.96,-353.31 1153.64,-359.26"/>
</a>
</g>
</g>
</g>
</svg>

<g id="navigator" transform="translate(0 0)" fill="#404254">
  <rect fill="#f2f5e9" fill-opacity="0.5" stroke="#606060" stroke-width=".5" x="0" y="0" width="60" height="60"/>
  <use id="zoomplus" xlink:href="#zoomPlus" x="17" y="9" onmousedown="handleZoom(evt,'in')"/>
  <use id="zoomminus" xlink:href="#zoomMin" x="42" y="9" onmousedown="handleZoom(evt,'out')"/>
  <use id="reset" xlink:href="#resetDef" x="30" y="36" onmousedown="handleReset()"/>
   <use id="arrowup" xlink:href="#arrowUp" x="0" y="0" onmousedown="handlePan(0,-1)"/>
  <use id="arrowright" xlink:href="#arrowRight" x="0" y="0" onmousedown="handlePan(1,0)"/>
  <use id="arrowdown" xlink:href="#arrowDown" x="0" y="0" onmousedown="handlePan(0,1)"/>
  <use id="arrowleft" xlink:href="#arrowLeft" x="0" y="0" onmousedown="handlePan(-1,0)"/>
</g>
<svg viewBox="0 0 15 15" width="100%" height="30px" preserveAspectRatio="xMaxYMin meet">
 <g id="arrow_out" transform="scale(0.3 0.3)">
  <a xlink:href="classTerraria_1_1ModLoader_1_1LocalizationLoader_aa7ac5074daf10102b03f5b2c0a5fabaf_aa7ac5074daf10102b03f5b2c0a5fabaf_cgraph_org.svg" target="_base">
   <rect id="button" ry="5" rx="5" y="6" x="6" height="38" width="38"
        fill="#f2f5e9" fill-opacity="0.5" stroke="#606060" stroke-width="1.0"/>
   <path id="arrow"
     d="M 11.500037,31.436501 C 11.940474,20.09759 22.043105,11.32322 32.158766,21.979434 L 37.068811,17.246167 C 37.068811,17.246167 37.088388,32 37.088388,32 L 22.160133,31.978069 C 22.160133,31.978069 26.997745,27.140456 26.997745,27.140456 C 18.528582,18.264221 13.291696,25.230495 11.500037,31.436501 z"
     style="fill:#404040;"/>
  </a>
 </g>
</svg>

<style type='text/css'>
<![CDATA[
[data-mouse-over-selected='false'] { opacity: 0.7; }
[data-mouse-over-selected='true']  { opacity: 1.0; }
]]>
</style>
<script type="application/ecmascript"><![CDATA[
document.addEventListener('DOMContentLoaded', (event) => {
  highlightEdges();
  highlightAdjacentNodes();
});
]]></script>
</svg>
