<?xml version="1.0" encoding="UTF-8" standalone="no"?>
<!DOCTYPE svg PUBLIC "-//W3C//DTD SVG 1.1//EN"
 "http://www.w3.org/Graphics/SVG/1.1/DTD/svg11.dtd">
<!-- Generated by graphviz version 2.43.0 (0)
 -->
<!-- Title: Terraria.RemoteServer.ClientReadCallBack Pages: 1 -->
<!--zoomable 199 -->

<svg id="main" version="1.1" xmlns="http://www.w3.org/2000/svg" xmlns:xlink="http://www.w3.org/1999/xlink" xml:space="preserve" onload="init(evt)">
<style type="text/css"><![CDATA[
.node, .edge {opacity: 0.7;}
.node.selected, .edge.selected {opacity: 1;}
.edge:hover path { stroke: red; }
.edge:hover polygon { stroke: red; fill: red; }
]]></style>

<defs>
  <circle id="rim" cx="0" cy="0" r="7"/>
  <circle id="rim2" cx="0" cy="0" r="3.5"/>
  <g id="zoomPlus">
    <use xlink:href="#rim" fill="#404040"><set attributeName="fill" to="#808080" begin="zoomplus.mouseover" end="zoomplus.mouseout"/></use>
    <path d="M-4,0h8M0,-4v8" fill="none" stroke="white" stroke-width="1.5" pointer-events="none"/>
  </g>
  <g id="zoomMin">
    <use xlink:href="#rim" fill="#404040"><set attributeName="fill" to="#808080" begin="zoomminus.mouseover" end="zoomminus.mouseout"/></use>
    <path d="M-4,0h8" fill="none" stroke="white" stroke-width="1.5" pointer-events="none"/>
  </g>
  <g id="arrowUp" transform="translate(30 24)">
    <use xlink:href="#rim"/>
    <path pointer-events="none" fill="none" stroke="white" stroke-width="1.5" d="M0,-3.0v7 M-2.5,-0.5L0,-3.0L2.5,-0.5"/>
  </g>
  <g id="arrowRight" transform="rotate(90) translate(36 -43)">
    <use xlink:href="#rim"/>
    <path pointer-events="none" fill="none" stroke="white" stroke-width="1.5" d="M0,-3.0v7 M-2.5,-0.5L0,-3.0L2.5,-0.5"/>
  </g>
  <g id="arrowDown" transform="rotate(180) translate(-30 -48)">
    <use xlink:href="#rim"/>
    <path pointer-events="none" fill="none" stroke="white" stroke-width="1.5" d="M0,-3.0v7 M-2.5,-0.5L0,-3.0L2.5,-0.5"/>
  </g>
  <g id="arrowLeft" transform="rotate(270) translate(-36 17)">
    <use xlink:href="#rim"/>
    <path pointer-events="none" fill="none" stroke="white" stroke-width="1.5" d="M0,-3.0v7 M-2.5,-0.5L0,-3.0L2.5,-0.5"/>
  </g>
  <g id="resetDef">
    <use xlink:href="#rim2" fill="#404040"><set attributeName="fill" to="#808080" begin="reset.mouseover" end="reset.mouseout"/></use>
  </g>
</defs>
<script type="application/ecmascript">
var viewWidth = 961;
var viewHeight = 199;
var sectionId = 'dynsection-0';
</script>
<script type="application/ecmascript" xlink:href="../../svg.min.js"/>
<svg id="graph" class="graph">
<g id="viewport">
<title>Terraria.RemoteServer.ClientReadCallBack</title>
<!-- Node1 -->
<g id="Node000001" class="node">
<title>Node1</title>
<g id="a_Node000001"><a xlink:title=" ">
<polygon fill="#999999" stroke="#666666" points="157,-162 0,-162 0,-132 157,-132 157,-162"/>
<text text-anchor="start" x="8" y="-150" font-family="Helvetica,sans-Serif" font-size="10.00">Terraria.RemoteServer.Client</text>
<text text-anchor="middle" x="78.5" y="-139" font-family="Helvetica,sans-Serif" font-size="10.00">ReadCallBack</text>
</a>
</g>
</g>
<!-- Node2 -->
<g id="Node000002" class="node">
<title>Node2</title>
<g id="a_Node000002"><a xlink:href="../../d4/d8f/classTerraria_1_1Localization_1_1Language_ae4636a4800b9ecbaa498954520462f78.html#ae4636a4800b9ecbaa498954520462f78" target="_top" xlink:title="Retrieves the text value for a specified localization key. The text returned will be for the currentl...">
<polygon fill="white" stroke="#666666" points="556,-184 388,-184 388,-154 556,-154 556,-184"/>
<text text-anchor="start" x="396" y="-172" font-family="Helvetica,sans-Serif" font-size="10.00">Terraria.Localization.Language.</text>
<text text-anchor="middle" x="472" y="-161" font-family="Helvetica,sans-Serif" font-size="10.00">GetTextValue</text>
</a>
</g>
</g>
<!-- Node1&#45;&gt;Node2 -->
<g id="edge1_Node000001_Node000002" class="edge">
<title>Node1&#45;&gt;Node2</title>
<g id="a_edge1_Node000001_Node000002"><a xlink:title=" ">
<path fill="none" stroke="#63b8ff" d="M157.32,-151.37C220.74,-154.94 310.49,-159.98 377.75,-163.76"/>
<polygon fill="#63b8ff" stroke="#63b8ff" points="377.74,-167.26 387.92,-164.33 378.13,-160.28 377.74,-167.26"/>
</a>
</g>
</g>
<!-- Node4 -->
<g id="Node000004" class="node">
<title>Node4</title>
<g id="a_Node000004"><a xlink:href="../../d2/dfe/classTerraria_1_1NetMessage_a0a106e92bed14724f594673be80c618a.html#a0a106e92bed14724f594673be80c618a" target="_top" xlink:title=" ">
<polygon fill="white" stroke="#666666" points="352,-141 193,-141 193,-111 352,-111 352,-141"/>
<text text-anchor="start" x="201" y="-129" font-family="Helvetica,sans-Serif" font-size="10.00">Terraria.NetMessage.Receive</text>
<text text-anchor="middle" x="272.5" y="-118" font-family="Helvetica,sans-Serif" font-size="10.00">Bytes</text>
</a>
</g>
</g>
<!-- Node1&#45;&gt;Node4 -->
<g id="edge3_Node000001_Node000004" class="edge">
<title>Node1&#45;&gt;Node4</title>
<g id="a_edge3_Node000001_Node000004"><a xlink:title=" ">
<path fill="none" stroke="#63b8ff" d="M157.04,-138.52C165.49,-137.59 174.14,-136.65 182.72,-135.71"/>
<polygon fill="#63b8ff" stroke="#63b8ff" points="183.17,-139.18 192.73,-134.62 182.41,-132.22 183.17,-139.18"/>
</a>
</g>
</g>
<!-- Node3 -->
<g id="Node000003" class="node">
<title>Node3</title>
<g id="a_Node000003"><a xlink:href="../../d8/d74/classTerraria_1_1Localization_1_1LanguageManager_a9f1901e50105d9873d2fdf8816e122de.html#a9f1901e50105d9873d2fdf8816e122de" target="_top" xlink:title=" ">
<polygon fill="white" stroke="#666666" points="760,-191 595,-191 595,-161 760,-161 760,-191"/>
<text text-anchor="start" x="603" y="-179" font-family="Helvetica,sans-Serif" font-size="10.00">Terraria.Localization.Language</text>
<text text-anchor="middle" x="677.5" y="-168" font-family="Helvetica,sans-Serif" font-size="10.00">Manager.GetTextValue</text>
</a>
</g>
</g>
<!-- Node2&#45;&gt;Node3 -->
<g id="edge2_Node000002_Node000003" class="edge">
<title>Node2&#45;&gt;Node3</title>
<g id="a_edge2_Node000002_Node000003"><a xlink:title=" ">
<path fill="none" stroke="#63b8ff" d="M556.06,-171.86C565.43,-172.18 575.01,-172.51 584.48,-172.83"/>
<polygon fill="#63b8ff" stroke="#63b8ff" points="584.57,-176.34 594.69,-173.19 584.81,-169.34 584.57,-176.34"/>
</a>
</g>
</g>
<!-- Node4&#45;&gt;Node2 -->
<g id="edge10_Node000004_Node000002" class="edge">
<title>Node4&#45;&gt;Node2</title>
<g id="a_edge10_Node000004_Node000002"><a xlink:title=" ">
<path fill="none" stroke="#63b8ff" d="M342.58,-141.04C358.51,-144.51 375.59,-148.23 391.91,-151.78"/>
<polygon fill="#63b8ff" stroke="#63b8ff" points="391.45,-155.26 401.96,-153.97 392.94,-148.42 391.45,-155.26"/>
</a>
</g>
</g>
<!-- Node5 -->
<g id="Node000005" class="node">
<title>Node5</title>
<g id="a_Node000005"><a xlink:href="../../df/d47/classTerraria_1_1ModLoader_1_1ModNet_a0887e1e6a5354d57bf79d5fb93bdb7da.html#a0887e1e6a5354d57bf79d5fb93bdb7da" target="_top" xlink:title=" ">
<polygon fill="white" stroke="#666666" points="754.5,-125 600.5,-125 600.5,-95 754.5,-95 754.5,-125"/>
<text text-anchor="start" x="608.5" y="-113" font-family="Helvetica,sans-Serif" font-size="10.00">Terraria.ModLoader.ModNet.</text>
<text text-anchor="middle" x="677.5" y="-102" font-family="Helvetica,sans-Serif" font-size="10.00">Debug</text>
</a>
</g>
</g>
<!-- Node4&#45;&gt;Node5 -->
<g id="edge4_Node000004_Node000005" class="edge">
<title>Node4&#45;&gt;Node5</title>
<g id="a_edge4_Node000004_Node000005"><a xlink:title=" ">
<path fill="none" stroke="#63b8ff" d="M352.16,-122.88C420.6,-120.16 519.63,-116.23 590.23,-113.43"/>
<polygon fill="#63b8ff" stroke="#63b8ff" points="590.58,-116.91 600.43,-113.02 590.3,-109.92 590.58,-116.91"/>
</a>
</g>
</g>
<!-- Node7 -->
<g id="Node000007" class="node">
<title>Node7</title>
<g id="a_Node000007"><a xlink:href="../../df/d47/classTerraria_1_1ModLoader_1_1ModNet_a119880a17f4d3cb4637eb1c0c5f1e0e2.html#a119880a17f4d3cb4637eb1c0c5f1e0e2" target="_top" xlink:title=" ">
<polygon fill="white" stroke="#666666" points="549,-80 395,-80 395,-50 549,-50 549,-80"/>
<text text-anchor="start" x="403" y="-68" font-family="Helvetica,sans-Serif" font-size="10.00">Terraria.ModLoader.ModNet.</text>
<text text-anchor="middle" x="472" y="-57" font-family="Helvetica,sans-Serif" font-size="10.00">Error</text>
</a>
</g>
</g>
<!-- Node4&#45;&gt;Node7 -->
<g id="edge7_Node000004_Node000007" class="edge">
<title>Node4&#45;&gt;Node7</title>
<g id="a_edge7_Node000004_Node000007"><a xlink:title=" ">
<path fill="none" stroke="#63b8ff" d="M322.07,-111C349.35,-102.57 383.58,-92 412.35,-83.11"/>
<polygon fill="#63b8ff" stroke="#63b8ff" points="413.76,-86.34 422.28,-80.05 411.69,-79.66 413.76,-86.34"/>
</a>
</g>
</g>
<!-- Node8 -->
<g id="Node000008" class="node">
<title>Node8</title>
<g id="a_Node000008"><a xlink:href="../../dc/d01/classTerraria_1_1RemoteClient_a1793d95fc0b3a3b4c39e71f15a8ab3b4.html#a1793d95fc0b3a3b4c39e71f15a8ab3b4" target="_top" xlink:title=" ">
<polygon fill="white" stroke="#666666" points="543,-30 401,-30 401,0 543,0 543,-30"/>
<text text-anchor="start" x="409" y="-18" font-family="Helvetica,sans-Serif" font-size="10.00">Terraria.RemoteClient.Set</text>
<text text-anchor="middle" x="472" y="-7" font-family="Helvetica,sans-Serif" font-size="10.00">PendingTermination</text>
</a>
</g>
</g>
<!-- Node4&#45;&gt;Node8 -->
<g id="edge11_Node000004_Node000008" class="edge">
<title>Node4&#45;&gt;Node8</title>
<g id="a_edge11_Node000004_Node000008"><a xlink:title=" ">
<path fill="none" stroke="#63b8ff" d="M290.14,-110.79C311.41,-92.05 350.06,-60.33 388,-41 393.17,-38.37 398.66,-35.94 404.26,-33.71"/>
<polygon fill="#63b8ff" stroke="#63b8ff" points="405.6,-36.94 413.74,-30.15 403.15,-30.39 405.6,-36.94"/>
</a>
</g>
</g>
<!-- Node5&#45;&gt;Node5 -->
<g id="edge5_Node000005_Node000005" class="edge">
<title>Node5&#45;&gt;Node5</title>
<g id="a_edge5_Node000005_Node000005"><a xlink:title=" ">
<path fill="none" stroke="#63b8ff" d="M642.7,-125.28C634.96,-134.41 646.56,-143 677.5,-143 695.87,-143 707.42,-139.97 712.16,-135.6"/>
<polygon fill="#63b8ff" stroke="#63b8ff" points="715.66,-135.32 712.3,-125.28 708.66,-135.22 715.66,-135.32"/>
</a>
</g>
</g>
<!-- Node6 -->
<g id="Node000006" class="node">
<title>Node6</title>
<g id="a_Node000006"><a xlink:href="../../df/d47/classTerraria_1_1ModLoader_1_1ModNet_ac2c9d5a95be6bd79eeea20bdc9bd0d46.html#ac2c9d5a95be6bd79eeea20bdc9bd0d46" target="_top" xlink:title=" ">
<polygon fill="white" stroke="#666666" points="953,-82 799,-82 799,-52 953,-52 953,-82"/>
<text text-anchor="start" x="807" y="-70" font-family="Helvetica,sans-Serif" font-size="10.00">Terraria.ModLoader.ModNet.</text>
<text text-anchor="middle" x="876" y="-59" font-family="Helvetica,sans-Serif" font-size="10.00">Identifier</text>
</a>
</g>
</g>
<!-- Node5&#45;&gt;Node6 -->
<g id="edge6_Node000005_Node000006" class="edge">
<title>Node5&#45;&gt;Node6</title>
<g id="a_edge6_Node000005_Node000006"><a xlink:title=" ">
<path fill="none" stroke="#63b8ff" d="M747.23,-94.96C763.08,-91.49 780.07,-87.77 796.31,-84.22"/>
<polygon fill="#63b8ff" stroke="#63b8ff" points="797.29,-87.59 806.31,-82.03 795.8,-80.75 797.29,-87.59"/>
</a>
</g>
</g>
<!-- Node7&#45;&gt;Node6 -->
<g id="edge9_Node000007_Node000006" class="edge">
<title>Node7&#45;&gt;Node6</title>
<g id="a_edge9_Node000007_Node000006"><a xlink:title=" ">
<path fill="none" stroke="#63b8ff" d="M549.09,-65.38C617.32,-65.72 717.37,-66.22 788.59,-66.57"/>
<polygon fill="#63b8ff" stroke="#63b8ff" points="788.87,-70.07 798.88,-66.62 788.9,-63.07 788.87,-70.07"/>
</a>
</g>
</g>
<!-- Node7&#45;&gt;Node7 -->
<g id="edge8_Node000007_Node000007" class="edge">
<title>Node7&#45;&gt;Node7</title>
<g id="a_edge8_Node000007_Node000007"><a xlink:title=" ">
<path fill="none" stroke="#63b8ff" d="M437.2,-80.28C429.46,-89.41 441.06,-98 472,-98 490.37,-98 501.92,-94.97 506.66,-90.6"/>
<polygon fill="#63b8ff" stroke="#63b8ff" points="510.16,-90.32 506.8,-80.28 503.16,-90.22 510.16,-90.32"/>
</a>
</g>
</g>
<!-- Node9 -->
<g id="Node000009" class="node">
<title>Node9</title>
<g id="a_Node000009"><a xlink:href="../../df/d47/classTerraria_1_1ModLoader_1_1ModNet_a49979e35c92609c008d1f03307ef8bfb.html#a49979e35c92609c008d1f03307ef8bfb" target="_top" xlink:title=" ">
<polygon fill="white" stroke="#666666" points="763,-20.5 592,-20.5 592,-1.5 763,-1.5 763,-20.5"/>
<text text-anchor="middle" x="677.5" y="-8.5" font-family="Helvetica,sans-Serif" font-size="10.00">Terraria.ModLoader.ModNet.Log</text>
</a>
</g>
</g>
<!-- Node8&#45;&gt;Node9 -->
<g id="edge12_Node000008_Node000009" class="edge">
<title>Node8&#45;&gt;Node9</title>
<g id="a_edge12_Node000008_Node000009"><a xlink:title=" ">
<path fill="none" stroke="#63b8ff" d="M543.03,-13.62C555.46,-13.38 568.59,-13.12 581.57,-12.87"/>
<polygon fill="#63b8ff" stroke="#63b8ff" points="582.01,-16.36 591.94,-12.66 581.87,-9.36 582.01,-16.36"/>
</a>
</g>
</g>
<!-- Node9&#45;&gt;Node6 -->
<g id="edge13_Node000009_Node000006" class="edge">
<title>Node9&#45;&gt;Node6</title>
<g id="a_edge13_Node000009_Node000006"><a xlink:title=" ">
<path fill="none" stroke="#63b8ff" d="M712.28,-20.63C739.74,-28.45 779.24,-39.71 812.45,-49.17"/>
<polygon fill="#63b8ff" stroke="#63b8ff" points="811.5,-52.54 822.08,-51.92 813.42,-45.81 811.5,-52.54"/>
</a>
</g>
</g>
<!-- Node9&#45;&gt;Node9 -->
<g id="edge14_Node000009_Node000009" class="edge">
<title>Node9&#45;&gt;Node9</title>
<g id="a_edge14_Node000009_Node000009"><a xlink:title=" ">
<path fill="none" stroke="#63b8ff" d="M646.98,-20.58C632.14,-29.23 642.31,-38.5 677.5,-38.5 702.24,-38.5 714.62,-33.92 714.62,-28.19"/>
<polygon fill="#63b8ff" stroke="#63b8ff" points="717.22,-25.84 708.02,-20.58 711.93,-30.43 717.22,-25.84"/>
</a>
</g>
</g>
</g>
</svg>

<g id="navigator" transform="translate(0 0)" fill="#404254">
  <rect fill="#f2f5e9" fill-opacity="0.5" stroke="#606060" stroke-width=".5" x="0" y="0" width="60" height="60"/>
  <use id="zoomplus" xlink:href="#zoomPlus" x="17" y="9" onmousedown="handleZoom(evt,'in')"/>
  <use id="zoomminus" xlink:href="#zoomMin" x="42" y="9" onmousedown="handleZoom(evt,'out')"/>
  <use id="reset" xlink:href="#resetDef" x="30" y="36" onmousedown="handleReset()"/>
   <use id="arrowup" xlink:href="#arrowUp" x="0" y="0" onmousedown="handlePan(0,-1)"/>
  <use id="arrowright" xlink:href="#arrowRight" x="0" y="0" onmousedown="handlePan(1,0)"/>
  <use id="arrowdown" xlink:href="#arrowDown" x="0" y="0" onmousedown="handlePan(0,1)"/>
  <use id="arrowleft" xlink:href="#arrowLeft" x="0" y="0" onmousedown="handlePan(-1,0)"/>
</g>
<svg viewBox="0 0 15 15" width="100%" height="30px" preserveAspectRatio="xMaxYMin meet">
 <g id="arrow_out" transform="scale(0.3 0.3)">
  <a xlink:href="classTerraria_1_1RemoteServer_a6119788001aabfc4d76ea023073048bb_a6119788001aabfc4d76ea023073048bb_cgraph_org.svg" target="_base">
   <rect id="button" ry="5" rx="5" y="6" x="6" height="38" width="38"
        fill="#f2f5e9" fill-opacity="0.5" stroke="#606060" stroke-width="1.0"/>
   <path id="arrow"
     d="M 11.500037,31.436501 C 11.940474,20.09759 22.043105,11.32322 32.158766,21.979434 L 37.068811,17.246167 C 37.068811,17.246167 37.088388,32 37.088388,32 L 22.160133,31.978069 C 22.160133,31.978069 26.997745,27.140456 26.997745,27.140456 C 18.528582,18.264221 13.291696,25.230495 11.500037,31.436501 z"
     style="fill:#404040;"/>
  </a>
 </g>
</svg>

<style type='text/css'>
<![CDATA[
[data-mouse-over-selected='false'] { opacity: 0.7; }
[data-mouse-over-selected='true']  { opacity: 1.0; }
]]>
</style>
<script type="application/ecmascript"><![CDATA[
document.addEventListener('DOMContentLoaded', (event) => {
  highlightEdges();
  highlightAdjacentNodes();
});
]]></script>
</svg>
