<?xml version="1.0" encoding="UTF-8" standalone="no"?>
<!DOCTYPE svg PUBLIC "-//W3C//DTD SVG 1.1//EN"
 "http://www.w3.org/Graphics/SVG/1.1/DTD/svg11.dtd">
<!-- Generated by graphviz version 2.43.0 (0)
 -->
<!-- Title: Terraria.Projectile.HallowBossPelletStormInfo.GetBulletProgress Pages: 1 -->
<svg width="686pt" height="86pt"
 viewBox="0.00 0.00 686.00 86.00" xmlns="http://www.w3.org/2000/svg" xmlns:xlink="http://www.w3.org/1999/xlink">
<g id="graph0" class="graph" transform="scale(1 1) rotate(0) translate(4 82)">
<title>Terraria.Projectile.HallowBossPelletStormInfo.GetBulletProgress</title>
<!-- Node1 -->
<g id="Node000001" class="node">
<title>Node1</title>
<g id="a_Node000001"><a xlink:title=" ">
<polygon fill="#999999" stroke="#666666" points="678,-54 472,-54 472,-24 678,-24 678,-54"/>
<text text-anchor="start" x="480" y="-42" font-family="Helvetica,sans-Serif" font-size="10.00">Terraria.Projectile.Hallow</text>
<text text-anchor="middle" x="575" y="-31" font-family="Helvetica,sans-Serif" font-size="10.00">BossPelletStormInfo.GetBulletProgress</text>
</a>
</g>
</g>
<!-- Node2 -->
<g id="Node000002" class="node">
<title>Node2</title>
<g id="a_Node000002"><a xlink:href="../../d8/df4/structTerraria_1_1Projectile_1_1HallowBossPelletStormInfo_a28f1c6ec2620ca3a537a71d55d6c07b2.html#a28f1c6ec2620ca3a537a71d55d6c07b2" target="_top" xlink:title=" ">
<polygon fill="white" stroke="#666666" points="436,-78 233,-78 233,-48 436,-48 436,-78"/>
<text text-anchor="start" x="241" y="-66" font-family="Helvetica,sans-Serif" font-size="10.00">Terraria.Projectile.Hallow</text>
<text text-anchor="middle" x="334.5" y="-55" font-family="Helvetica,sans-Serif" font-size="10.00">BossPelletStormInfo.GetBulletPosition</text>
</a>
</g>
</g>
<!-- Node1&#45;&gt;Node2 -->
<g id="edge1_Node000001_Node000002" class="edge">
<title>Node1&#45;&gt;Node2</title>
<g id="a_edge1_Node000001_Node000002"><a xlink:title=" ">
<path fill="none" stroke="#63b8ff" d="M461.85,-50.29C453.34,-51.14 444.77,-52 436.33,-52.85"/>
<polygon fill="#63b8ff" stroke="#63b8ff" points="462.22,-53.77 471.82,-49.28 461.52,-46.8 462.22,-53.77"/>
</a>
</g>
</g>
<!-- Node4 -->
<g id="Node000004" class="node">
<title>Node4</title>
<g id="a_Node000004"><a xlink:href="../../d8/df4/structTerraria_1_1Projectile_1_1HallowBossPelletStormInfo_a85d0efbd4600806ad2ec4be1cc95da7e.html#a85d0efbd4600806ad2ec4be1cc95da7e" target="_top" xlink:title=" ">
<polygon fill="white" stroke="#666666" points="410,-30 259,-30 259,0 410,0 410,-30"/>
<text text-anchor="start" x="267" y="-18" font-family="Helvetica,sans-Serif" font-size="10.00">Terraria.Projectile.Hallow</text>
<text text-anchor="middle" x="334.5" y="-7" font-family="Helvetica,sans-Serif" font-size="10.00">BossPelletStormInfo.IsValid</text>
</a>
</g>
</g>
<!-- Node1&#45;&gt;Node4 -->
<g id="edge3_Node000001_Node000004" class="edge">
<title>Node1&#45;&gt;Node4</title>
<g id="a_edge3_Node000001_Node000004"><a xlink:title=" ">
<path fill="none" stroke="#63b8ff" d="M461.57,-27.69C444.1,-25.93 426.43,-24.15 410.08,-22.51"/>
<polygon fill="#63b8ff" stroke="#63b8ff" points="461.52,-31.2 471.82,-28.72 462.22,-24.23 461.52,-31.2"/>
</a>
</g>
</g>
<!-- Node3 -->
<g id="Node000003" class="node">
<title>Node3</title>
<g id="a_Node000003"><a xlink:href="../../d8/df4/structTerraria_1_1Projectile_1_1HallowBossPelletStormInfo_a3ce79433c78a193f2258a8c0cbbcc266.html#a3ce79433c78a193f2258a8c0cbbcc266" target="_top" xlink:title=" ">
<polygon fill="white" stroke="#666666" points="197,-78 0,-78 0,-48 197,-48 197,-78"/>
<text text-anchor="start" x="8" y="-66" font-family="Helvetica,sans-Serif" font-size="10.00">Terraria.Projectile.Hallow</text>
<text text-anchor="middle" x="98.5" y="-55" font-family="Helvetica,sans-Serif" font-size="10.00">BossPelletStormInfo.GetBulletHitbox</text>
</a>
</g>
</g>
<!-- Node2&#45;&gt;Node3 -->
<g id="edge2_Node000002_Node000003" class="edge">
<title>Node2&#45;&gt;Node3</title>
<g id="a_edge2_Node000002_Node000003"><a xlink:title=" ">
<path fill="none" stroke="#63b8ff" d="M222.83,-63C214.22,-63 205.56,-63 197.04,-63"/>
<polygon fill="#63b8ff" stroke="#63b8ff" points="222.9,-66.5 232.9,-63 222.9,-59.5 222.9,-66.5"/>
</a>
</g>
</g>
</g>
</svg>
