<?xml version="1.0" encoding="UTF-8" standalone="no"?>
<!DOCTYPE svg PUBLIC "-//W3C//DTD SVG 1.1//EN"
 "http://www.w3.org/Graphics/SVG/1.1/DTD/svg11.dtd">
<!-- Generated by graphviz version 2.43.0 (0)
 -->
<!-- Title: Terraria.Player.BuilderAccToggleIDs Pages: 1 -->
<svg width="173pt" height="333pt"
 viewBox="0.00 0.00 173.00 333.00" xmlns="http://www.w3.org/2000/svg" xmlns:xlink="http://www.w3.org/1999/xlink">

<svg id="main" version="1.1" xmlns="http://www.w3.org/2000/svg" xmlns:xlink="http://www.w3.org/1999/xlink" xml:space="preserve" onload="init(evt)">
<style type="text/css"><![CDATA[
.node, .edge {opacity: 0.7;}
.node.selected, .edge.selected {opacity: 1;}
.edge:hover path { stroke: red; }
.edge:hover polygon { stroke: red; fill: red; }
]]></style>
<script type="application/ecmascript" xlink:href="../../svg.min.js"/>
<svg id="graph" class="graph">
<g id="graph0" class="graph" transform="scale(1 1) rotate(0) translate(4 329)">
<title>Terraria.Player.BuilderAccToggleIDs</title>
<!-- Node1 -->
<g id="Node000001" class="node">
<title>Node1</title>
<g id="a_Node000001"><a xlink:title=" ">
<polygon fill="#999999" stroke="transparent" points="156,-86 0,-86 0,0 156,0 156,-86"/>
<text text-anchor="start" x="15.5" y="-74" font-family="Helvetica,sans-Serif" font-size="10.00">Terraria.Player.BuilderAcc</text>
<text text-anchor="start" x="54" y="-63" font-family="Helvetica,sans-Serif" font-size="10.00">ToggleIDs</text>
<text text-anchor="start" x="4" y="-48" font-family="Helvetica,sans-Serif" font-size="10.00">+</text>
<text text-anchor="start" x="17" y="-48" font-family="Helvetica,sans-Serif" font-size="10.00">const int WireVisibility_Red</text>
<text text-anchor="start" x="4" y="-33" font-family="Helvetica,sans-Serif" font-size="10.00">+</text>
<text text-anchor="start" x="17" y="-33" font-family="Helvetica,sans-Serif" font-size="10.00">const int WireVisibility</text>
<text text-anchor="start" x="17" y="-22" font-family="Helvetica,sans-Serif" font-size="10.00">_Yellow</text>
<text text-anchor="start" x="76" y="-7" font-family="Helvetica,sans-Serif" font-size="10.00"> </text>
<polygon fill="#666666" stroke="#666666" points="0,-58 0,-58 156,-58 156,-58 0,-58"/>
<polygon fill="#666666" stroke="#666666" points="0,-17 0,-17 15,-17 15,-17 0,-17"/>
<polygon fill="#666666" stroke="#666666" points="15,-17 15,-17 156,-17 156,-17 15,-17"/>
<polygon fill="none" stroke="#666666" points="0,0 0,-86 156,-86 156,0 0,0"/>
</a>
</g>
</g>
<!-- Node2 -->
<g id="Node000002" class="node">
<title>Node2</title>
<g id="a_Node000002"><a xlink:title=" ">
<polygon fill="white" stroke="transparent" points="41.5,-325 18.5,-325 18.5,-276 41.5,-276 41.5,-325"/>
<text text-anchor="start" x="24" y="-312.5" font-family="Helvetica,sans-Serif" font-size="10.00">int</text>
<text text-anchor="start" x="28.5" y="-297.5" font-family="Helvetica,sans-Serif" font-size="10.00"> </text>
<text text-anchor="start" x="28.5" y="-282.5" font-family="Helvetica,sans-Serif" font-size="10.00"> </text>
<polygon fill="#666666" stroke="#666666" points="19,-307.5 19,-307.5 42,-307.5 42,-307.5 19,-307.5"/>
<polygon fill="#666666" stroke="#666666" points="19,-292.5 19,-292.5 42,-292.5 42,-292.5 19,-292.5"/>
<polygon fill="none" stroke="#666666" points="18.5,-276 18.5,-325 41.5,-325 41.5,-276 18.5,-276"/>
</a>
</g>
</g>
<!-- Node2&#45;&gt;Node1 -->
<g id="edge1_Node000001_Node000002" class="edge">
<title>Node2&#45;&gt;Node1</title>
<g id="a_edge1_Node000001_Node000002"><a xlink:title=" ">
<path fill="none" stroke="#63b8ff" d="M25.32,-275.8C18.94,-238.17 10.48,-162.98 31,-104 31.83,-101.61 32.8,-99.24 33.89,-96.9"/>
<polygon fill="none" stroke="#63b8ff" points="33.95,-96.78 33.31,-89.6 39.69,-86.24 40.33,-93.42 33.95,-96.78"/>
</a>
</g>
<text text-anchor="middle" x="68" y="-250" font-family="Helvetica,sans-Serif" font-size="10.00" fill="grey"> +AutoActuate</text>
<text text-anchor="middle" x="68" y="-239" font-family="Helvetica,sans-Serif" font-size="10.00" fill="grey">+AutoPaint</text>
<text text-anchor="middle" x="68" y="-228" font-family="Helvetica,sans-Serif" font-size="10.00" fill="grey">+BlockSwap</text>
<text text-anchor="middle" x="68" y="-217" font-family="Helvetica,sans-Serif" font-size="10.00" fill="grey">+HideAllWires</text>
<text text-anchor="middle" x="68" y="-206" font-family="Helvetica,sans-Serif" font-size="10.00" fill="grey">+RulerGrid</text>
<text text-anchor="middle" x="68" y="-195" font-family="Helvetica,sans-Serif" font-size="10.00" fill="grey">+RulerLine</text>
<text text-anchor="middle" x="68" y="-184" font-family="Helvetica,sans-Serif" font-size="10.00" fill="grey">+TorchBiome</text>
<text text-anchor="start" x="31" y="-173" font-family="Helvetica,sans-Serif" font-size="10.00" fill="grey">+WireVisibility</text>
<text text-anchor="middle" x="68" y="-162" font-family="Helvetica,sans-Serif" font-size="10.00" fill="grey">_Actuators</text>
<text text-anchor="start" x="31" y="-151" font-family="Helvetica,sans-Serif" font-size="10.00" fill="grey">+WireVisibility</text>
<text text-anchor="middle" x="68" y="-140" font-family="Helvetica,sans-Serif" font-size="10.00" fill="grey">_Blue</text>
<text text-anchor="start" x="31" y="-129" font-family="Helvetica,sans-Serif" font-size="10.00" fill="grey">+WireVisibility</text>
<text text-anchor="middle" x="68" y="-118" font-family="Helvetica,sans-Serif" font-size="10.00" fill="grey">_Green</text>
<text text-anchor="middle" x="68" y="-107" font-family="Helvetica,sans-Serif" font-size="10.00" fill="grey">...</text>
</g>
<!-- Node3 -->
<g id="Node000003" class="node">
<title>Node3</title>
<g id="a_Node000003"><a xlink:title=" ">
<polygon fill="white" stroke="transparent" points="146,-325 108,-325 108,-276 146,-276 146,-325"/>
<text text-anchor="start" x="113" y="-312.5" font-family="Helvetica,sans-Serif" font-size="10.00">static</text>
<text text-anchor="start" x="125" y="-297.5" font-family="Helvetica,sans-Serif" font-size="10.00"> </text>
<text text-anchor="start" x="125" y="-282.5" font-family="Helvetica,sans-Serif" font-size="10.00"> </text>
<polygon fill="#666666" stroke="#666666" points="108,-307.5 108,-307.5 146,-307.5 146,-307.5 108,-307.5"/>
<polygon fill="#666666" stroke="#666666" points="108,-292.5 108,-292.5 146,-292.5 146,-292.5 108,-292.5"/>
<polygon fill="none" stroke="#666666" points="108,-276 108,-325 146,-325 146,-276 108,-276"/>
</a>
</g>
</g>
<!-- Node3&#45;&gt;Node1 -->
<g id="edge2_Node000001_Node000003" class="edge">
<title>Node3&#45;&gt;Node1</title>
<g id="a_edge2_Node000001_Node000003"><a xlink:title=" ">
<path fill="none" stroke="#63b8ff" d="M126.69,-275.89C125.69,-238.68 121.56,-164.45 105,-104 104.41,-101.86 103.76,-99.7 103.06,-97.54"/>
<polygon fill="none" stroke="#63b8ff" points="102.96,-97.28 97.15,-93.01 98.86,-86.01 104.67,-90.28 102.96,-97.28"/>
</a>
</g>
<text text-anchor="middle" x="145" y="-178.5" font-family="Helvetica,sans-Serif" font-size="10.00" fill="grey"> +Count</text>
</g>
</g>
</svg>
</svg>

<style type='text/css'>
<![CDATA[
[data-mouse-over-selected='false'] { opacity: 0.7; }
[data-mouse-over-selected='true']  { opacity: 1.0; }
]]>
</style>
<script type="application/ecmascript"><![CDATA[
document.addEventListener('DOMContentLoaded', (event) => {
  highlightEdges();
  highlightAdjacentNodes();
});
]]></script>
</svg>
