<?xml version="1.0" encoding="UTF-8" standalone="no"?>
<!DOCTYPE svg PUBLIC "-//W3C//DTD SVG 1.1//EN"
 "http://www.w3.org/Graphics/SVG/1.1/DTD/svg11.dtd">
<!-- Generated by graphviz version 2.43.0 (0)
 -->
<!-- Title: Terraria.GameContent.UI.Elements.UIList.SetScrollbar Pages: 1 -->
<!--zoomable 815 -->

<svg id="main" version="1.1" xmlns="http://www.w3.org/2000/svg" xmlns:xlink="http://www.w3.org/1999/xlink" xml:space="preserve" onload="init(evt)">
<style type="text/css"><![CDATA[
.node, .edge {opacity: 0.7;}
.node.selected, .edge.selected {opacity: 1;}
.edge:hover path { stroke: red; }
.edge:hover polygon { stroke: red; fill: red; }
]]></style>

<defs>
  <circle id="rim" cx="0" cy="0" r="7"/>
  <circle id="rim2" cx="0" cy="0" r="3.5"/>
  <g id="zoomPlus">
    <use xlink:href="#rim" fill="#404040"><set attributeName="fill" to="#808080" begin="zoomplus.mouseover" end="zoomplus.mouseout"/></use>
    <path d="M-4,0h8M0,-4v8" fill="none" stroke="white" stroke-width="1.5" pointer-events="none"/>
  </g>
  <g id="zoomMin">
    <use xlink:href="#rim" fill="#404040"><set attributeName="fill" to="#808080" begin="zoomminus.mouseover" end="zoomminus.mouseout"/></use>
    <path d="M-4,0h8" fill="none" stroke="white" stroke-width="1.5" pointer-events="none"/>
  </g>
  <g id="arrowUp" transform="translate(30 24)">
    <use xlink:href="#rim"/>
    <path pointer-events="none" fill="none" stroke="white" stroke-width="1.5" d="M0,-3.0v7 M-2.5,-0.5L0,-3.0L2.5,-0.5"/>
  </g>
  <g id="arrowRight" transform="rotate(90) translate(36 -43)">
    <use xlink:href="#rim"/>
    <path pointer-events="none" fill="none" stroke="white" stroke-width="1.5" d="M0,-3.0v7 M-2.5,-0.5L0,-3.0L2.5,-0.5"/>
  </g>
  <g id="arrowDown" transform="rotate(180) translate(-30 -48)">
    <use xlink:href="#rim"/>
    <path pointer-events="none" fill="none" stroke="white" stroke-width="1.5" d="M0,-3.0v7 M-2.5,-0.5L0,-3.0L2.5,-0.5"/>
  </g>
  <g id="arrowLeft" transform="rotate(270) translate(-36 17)">
    <use xlink:href="#rim"/>
    <path pointer-events="none" fill="none" stroke="white" stroke-width="1.5" d="M0,-3.0v7 M-2.5,-0.5L0,-3.0L2.5,-0.5"/>
  </g>
  <g id="resetDef">
    <use xlink:href="#rim2" fill="#404040"><set attributeName="fill" to="#808080" begin="reset.mouseover" end="reset.mouseout"/></use>
  </g>
</defs>
<script type="application/ecmascript">
var viewWidth = 658;
var viewHeight = 815;
var sectionId = 'dynsection-1';
</script>
<script type="application/ecmascript" xlink:href="../../svg.min.js"/>
<svg id="graph" class="graph">
<g id="viewport">
<title>Terraria.GameContent.UI.Elements.UIList.SetScrollbar</title>
<!-- Node1 -->
<g id="Node000001" class="node">
<title>Node1</title>
<g id="a_Node000001"><a xlink:title=" ">
<polygon fill="#999999" stroke="#666666" points="650,-401 495,-401 495,-371 650,-371 650,-401"/>
<text text-anchor="start" x="503" y="-389" font-family="Helvetica,sans-Serif" font-size="10.00">Terraria.GameContent.UI.</text>
<text text-anchor="middle" x="572.5" y="-378" font-family="Helvetica,sans-Serif" font-size="10.00">Elements.UIList.SetScrollbar</text>
</a>
</g>
</g>
<!-- Node2 -->
<g id="Node000002" class="node">
<title>Node2</title>
<g id="a_Node000002"><a xlink:href="../../d4/d41/classTerraria_1_1GameContent_1_1UI_1_1Elements_1_1UIBestiaryEntryInfoPage_a2e3132fdd5dfb659625226e45818fd88.html#a2e3132fdd5dfb659625226e45818fd88" target="_top" xlink:title=" ">
<polygon fill="white" stroke="#666666" points="426.5,-806.5 265.5,-806.5 265.5,-765.5 426.5,-765.5 426.5,-806.5"/>
<text text-anchor="start" x="273.5" y="-794.5" font-family="Helvetica,sans-Serif" font-size="10.00">Terraria.GameContent.UI.</text>
<text text-anchor="start" x="273.5" y="-783.5" font-family="Helvetica,sans-Serif" font-size="10.00">Elements.UIBestiaryEntryInfo</text>
<text text-anchor="middle" x="346" y="-772.5" font-family="Helvetica,sans-Serif" font-size="10.00">Page.UIBestiaryEntryInfoPage</text>
</a>
</g>
</g>
<!-- Node1&#45;&gt;Node2 -->
<g id="edge1_Node000001_Node000002" class="edge">
<title>Node1&#45;&gt;Node2</title>
<g id="a_edge1_Node000001_Node000002"><a xlink:title=" ">
<path fill="none" stroke="#63b8ff" d="M571.76,-411.45C570.98,-478.38 559.28,-660.76 459,-757 449.94,-765.69 438.63,-771.87 426.71,-776.24"/>
<polygon fill="#63b8ff" stroke="#63b8ff" points="575.26,-411.4 571.8,-401.38 568.26,-411.37 575.26,-411.4"/>
</a>
</g>
</g>
<!-- Node3 -->
<g id="Node000003" class="node">
<title>Node3</title>
<g id="a_Node000003"><a xlink:href="../../d5/de0/classTerraria_1_1GameContent_1_1UI_1_1States_1_1UIResourcePackSelectionMenu_a98436446a897354e72dfbaa00af4bbfc.html#a98436446a897354e72dfbaa00af4bbfc" target="_top" xlink:title=" ">
<polygon fill="white" stroke="#666666" points="432.5,-747.5 259.5,-747.5 259.5,-706.5 432.5,-706.5 432.5,-747.5"/>
<text text-anchor="start" x="267.5" y="-735.5" font-family="Helvetica,sans-Serif" font-size="10.00">Terraria.GameContent.UI.</text>
<text text-anchor="start" x="267.5" y="-724.5" font-family="Helvetica,sans-Serif" font-size="10.00">States.UIResourcePackSelection</text>
<text text-anchor="middle" x="346" y="-713.5" font-family="Helvetica,sans-Serif" font-size="10.00">Menu.BuildPage</text>
</a>
</g>
</g>
<!-- Node1&#45;&gt;Node3 -->
<g id="edge2_Node000001_Node000003" class="edge">
<title>Node1&#45;&gt;Node3</title>
<g id="a_edge2_Node000001_Node000003"><a xlink:title=" ">
<path fill="none" stroke="#63b8ff" d="M569.96,-411.63C564.99,-470.99 544.23,-618.75 459,-697 451.36,-704.01 442.27,-709.42 432.61,-713.58"/>
<polygon fill="#63b8ff" stroke="#63b8ff" points="573.48,-411.54 570.74,-401.3 566.5,-411.01 573.48,-411.54"/>
</a>
</g>
</g>
<!-- Node5 -->
<g id="Node000005" class="node">
<title>Node5</title>
<g id="a_Node000005"><a xlink:href="../../dc/def/classTerraria_1_1GameContent_1_1UI_1_1States_1_1UIAchievementsMenu_a4cf2830ca75c870983b2995f3c0d1be6.html#a4cf2830ca75c870983b2995f3c0d1be6" target="_top" xlink:title=" ">
<polygon fill="white" stroke="#666666" points="459,-688 233,-688 233,-658 459,-658 459,-688"/>
<text text-anchor="start" x="241" y="-676" font-family="Helvetica,sans-Serif" font-size="10.00">Terraria.GameContent.UI.</text>
<text text-anchor="middle" x="346" y="-665" font-family="Helvetica,sans-Serif" font-size="10.00">States.UIAchievementsMenu.InitializePage</text>
</a>
</g>
</g>
<!-- Node1&#45;&gt;Node5 -->
<g id="edge4_Node000001_Node000005" class="edge">
<title>Node1&#45;&gt;Node5</title>
<g id="a_edge4_Node000001_Node000005"><a xlink:title=" ">
<path fill="none" stroke="#63b8ff" d="M568.42,-411.19C560.55,-464.03 534.7,-586.67 459,-649 454.86,-652.41 450.34,-655.37 445.58,-657.94"/>
<polygon fill="#63b8ff" stroke="#63b8ff" points="571.92,-411.41 569.83,-401.03 564.99,-410.45 571.92,-411.41"/>
</a>
</g>
</g>
<!-- Node7 -->
<g id="Node000007" class="node">
<title>Node7</title>
<g id="a_Node000007"><a xlink:href="../../d3/d7d/classTerraria_1_1ModLoader_1_1Config_1_1UI_1_1CollectionElement_ab05916b8e274af7866950174e497fb3f.html#ab05916b8e274af7866950174e497fb3f" target="_top" xlink:title=" ">
<polygon fill="white" stroke="#666666" points="425,-640 267,-640 267,-610 425,-610 425,-640"/>
<text text-anchor="start" x="275" y="-628" font-family="Helvetica,sans-Serif" font-size="10.00">Terraria.ModLoader.Config.</text>
<text text-anchor="middle" x="346" y="-617" font-family="Helvetica,sans-Serif" font-size="10.00">UI.CollectionElement.OnBind</text>
</a>
</g>
</g>
<!-- Node1&#45;&gt;Node7 -->
<g id="edge6_Node000001_Node000007" class="edge">
<title>Node1&#45;&gt;Node7</title>
<g id="a_edge6_Node000001_Node000007"><a xlink:title=" ">
<path fill="none" stroke="#63b8ff" d="M565.85,-411C554.21,-456.42 523.12,-552.27 459,-601 449.11,-608.52 437.37,-613.8 425.27,-617.48"/>
<polygon fill="#63b8ff" stroke="#63b8ff" points="569.29,-411.65 568.28,-401.1 562.49,-409.98 569.29,-411.65"/>
</a>
</g>
</g>
<!-- Node8 -->
<g id="Node000008" class="node">
<title>Node8</title>
<g id="a_Node000008"><a xlink:href="../../d2/d8f/classTerraria_1_1GameContent_1_1UI_1_1States_1_1UICharacterSelect_a6ec5da923c0b7ecf60e7407908774a0e.html#a6ec5da923c0b7ecf60e7407908774a0e" target="_top" xlink:title=" ">
<polygon fill="white" stroke="#666666" points="444.5,-592 247.5,-592 247.5,-562 444.5,-562 444.5,-592"/>
<text text-anchor="start" x="255.5" y="-580" font-family="Helvetica,sans-Serif" font-size="10.00">Terraria.GameContent.UI.</text>
<text text-anchor="middle" x="346" y="-569" font-family="Helvetica,sans-Serif" font-size="10.00">States.UICharacterSelect.OnInitialize</text>
</a>
</g>
</g>
<!-- Node1&#45;&gt;Node8 -->
<g id="edge7_Node000001_Node000008" class="edge">
<title>Node1&#45;&gt;Node8</title>
<g id="a_edge7_Node000001_Node000008"><a xlink:title=" ">
<path fill="none" stroke="#63b8ff" d="M562.04,-410.64C546.47,-447.72 511.81,-517.29 459,-553 453.89,-556.45 448.38,-559.42 442.64,-561.97"/>
<polygon fill="#63b8ff" stroke="#63b8ff" points="565.39,-411.69 565.92,-401.1 558.91,-409.05 565.39,-411.69"/>
</a>
</g>
</g>
<!-- Node9 -->
<g id="Node000009" class="node">
<title>Node9</title>
<g id="a_Node000009"><a xlink:href="../../d9/d76/classTerraria_1_1GameContent_1_1UI_1_1States_1_1UIManageControls_ad2a2c23065642229d76397acc800174a.html#ad2a2c23065642229d76397acc800174a" target="_top" xlink:title=" ">
<polygon fill="white" stroke="#666666" points="445.5,-544 246.5,-544 246.5,-514 445.5,-514 445.5,-544"/>
<text text-anchor="start" x="254.5" y="-532" font-family="Helvetica,sans-Serif" font-size="10.00">Terraria.GameContent.UI.</text>
<text text-anchor="middle" x="346" y="-521" font-family="Helvetica,sans-Serif" font-size="10.00">States.UIManageControls.OnInitialize</text>
</a>
</g>
</g>
<!-- Node1&#45;&gt;Node9 -->
<g id="edge8_Node000001_Node000009" class="edge">
<title>Node1&#45;&gt;Node9</title>
<g id="a_edge8_Node000001_Node000009"><a xlink:title=" ">
<path fill="none" stroke="#63b8ff" d="M555.75,-409.51C536.29,-436.63 500.62,-480.48 459,-504 452.15,-507.87 444.75,-511.14 437.12,-513.91"/>
<polygon fill="#63b8ff" stroke="#63b8ff" points="558.83,-411.21 561.71,-401.01 553.1,-407.19 558.83,-411.21"/>
</a>
</g>
</g>
<!-- Node10 -->
<g id="Node000010" class="node">
<title>Node10</title>
<g id="a_Node000010"><a xlink:href="../../d8/df1/classTerraria_1_1GameContent_1_1UI_1_1States_1_1UIWorkshopSelectResourcePackToPublish_ad69f33d7a66e68651e893d64446fd857.html#ad69f33d7a66e68651e893d64446fd857" target="_top" xlink:title=" ">
<polygon fill="white" stroke="#666666" points="438,-495.5 254,-495.5 254,-454.5 438,-454.5 438,-495.5"/>
<text text-anchor="start" x="262" y="-483.5" font-family="Helvetica,sans-Serif" font-size="10.00">Terraria.GameContent.UI.</text>
<text text-anchor="start" x="262" y="-472.5" font-family="Helvetica,sans-Serif" font-size="10.00">States.UIWorkshopSelectResource</text>
<text text-anchor="middle" x="346" y="-461.5" font-family="Helvetica,sans-Serif" font-size="10.00">PackToPublish.OnInitialize</text>
</a>
</g>
</g>
<!-- Node1&#45;&gt;Node10 -->
<g id="edge9_Node000001_Node000010" class="edge">
<title>Node1&#45;&gt;Node10</title>
<g id="a_edge9_Node000001_Node000010"><a xlink:title=" ">
<path fill="none" stroke="#63b8ff" d="M537.9,-406.14C516.01,-418.62 486.5,-434.26 459,-445 450.28,-448.41 441.03,-451.56 431.74,-454.45"/>
<polygon fill="#63b8ff" stroke="#63b8ff" points="539.87,-409.04 546.78,-401.01 536.37,-402.97 539.87,-409.04"/>
</a>
</g>
</g>
<!-- Node11 -->
<g id="Node000011" class="node">
<title>Node11</title>
<g id="a_Node000011"><a xlink:href="../../d4/d90/classTerraria_1_1GameContent_1_1UI_1_1States_1_1UIWorkshopSelectWorldToPublish_afb53c29d167b604906a24a1bdbe2367d.html#afb53c29d167b604906a24a1bdbe2367d" target="_top" xlink:title=" ">
<polygon fill="white" stroke="#666666" points="429.5,-436.5 262.5,-436.5 262.5,-395.5 429.5,-395.5 429.5,-436.5"/>
<text text-anchor="start" x="270.5" y="-424.5" font-family="Helvetica,sans-Serif" font-size="10.00">Terraria.GameContent.UI.</text>
<text text-anchor="start" x="270.5" y="-413.5" font-family="Helvetica,sans-Serif" font-size="10.00">States.UIWorkshopSelectWorld</text>
<text text-anchor="middle" x="346" y="-402.5" font-family="Helvetica,sans-Serif" font-size="10.00">ToPublish.OnInitialize</text>
</a>
</g>
</g>
<!-- Node1&#45;&gt;Node11 -->
<g id="edge10_Node000001_Node000011" class="edge">
<title>Node1&#45;&gt;Node11</title>
<g id="a_edge10_Node000001_Node000011"><a xlink:title=" ">
<path fill="none" stroke="#63b8ff" d="M484.92,-397.57C466.82,-399.99 447.78,-402.53 429.81,-404.93"/>
<polygon fill="#63b8ff" stroke="#63b8ff" points="485.42,-401.03 494.87,-396.24 484.49,-394.1 485.42,-401.03"/>
</a>
</g>
</g>
<!-- Node12 -->
<g id="Node000012" class="node">
<title>Node12</title>
<g id="a_Node000012"><a xlink:href="../../d7/d77/classTerraria_1_1GameContent_1_1UI_1_1States_1_1UIWorkshopWorldImport_a1b1eadfe582df439e0da18bbdb6b067f.html#a1b1eadfe582df439e0da18bbdb6b067f" target="_top" xlink:title=" ">
<polygon fill="white" stroke="#666666" points="432,-377.5 260,-377.5 260,-336.5 432,-336.5 432,-377.5"/>
<text text-anchor="start" x="268" y="-365.5" font-family="Helvetica,sans-Serif" font-size="10.00">Terraria.GameContent.UI.</text>
<text text-anchor="start" x="268" y="-354.5" font-family="Helvetica,sans-Serif" font-size="10.00">States.UIWorkshopWorldImport.</text>
<text text-anchor="middle" x="346" y="-343.5" font-family="Helvetica,sans-Serif" font-size="10.00">OnInitialize</text>
</a>
</g>
</g>
<!-- Node1&#45;&gt;Node12 -->
<g id="edge11_Node000001_Node000012" class="edge">
<title>Node1&#45;&gt;Node12</title>
<g id="a_edge11_Node000001_Node000012"><a xlink:title=" ">
<path fill="none" stroke="#63b8ff" d="M484.8,-374.8C467.52,-372.57 449.38,-370.22 432.14,-368"/>
<polygon fill="#63b8ff" stroke="#63b8ff" points="484.5,-378.29 494.87,-376.1 485.4,-371.35 484.5,-378.29"/>
</a>
</g>
</g>
<!-- Node13 -->
<g id="Node000013" class="node">
<title>Node13</title>
<g id="a_Node000013"><a xlink:href="../../d0/d26/classTerraria_1_1GameContent_1_1UI_1_1States_1_1UIWorldSelect_a4b6b991c95e698f21808cd703a514707.html#a4b6b991c95e698f21808cd703a514707" target="_top" xlink:title=" ">
<polygon fill="white" stroke="#666666" points="434.5,-318 257.5,-318 257.5,-288 434.5,-288 434.5,-318"/>
<text text-anchor="start" x="265.5" y="-306" font-family="Helvetica,sans-Serif" font-size="10.00">Terraria.GameContent.UI.</text>
<text text-anchor="middle" x="346" y="-295" font-family="Helvetica,sans-Serif" font-size="10.00">States.UIWorldSelect.OnInitialize</text>
</a>
</g>
</g>
<!-- Node1&#45;&gt;Node13 -->
<g id="edge12_Node000001_Node000013" class="edge">
<title>Node1&#45;&gt;Node13</title>
<g id="a_edge12_Node000001_Node000013"><a xlink:title=" ">
<path fill="none" stroke="#63b8ff" d="M538.5,-365.63C516.64,-352.92 486.95,-337.11 459,-327 449.65,-323.62 439.68,-320.64 429.69,-318.04"/>
<polygon fill="#63b8ff" stroke="#63b8ff" points="536.97,-368.8 547.36,-370.87 540.53,-362.77 536.97,-368.8"/>
</a>
</g>
</g>
<!-- Node14 -->
<g id="Node000014" class="node">
<title>Node14</title>
<g id="a_Node000014"><a xlink:href="../../d6/d3f/classTerraria_1_1ModLoader_1_1Config_1_1UI_1_1UIModConfig_a1c191167e187d2cb7b8bd388aa379b74.html#a1c191167e187d2cb7b8bd388aa379b74" target="_top" xlink:title=" ">
<polygon fill="white" stroke="#666666" points="421.5,-270 270.5,-270 270.5,-240 421.5,-240 421.5,-270"/>
<text text-anchor="start" x="278.5" y="-258" font-family="Helvetica,sans-Serif" font-size="10.00">Terraria.ModLoader.Config.</text>
<text text-anchor="middle" x="346" y="-247" font-family="Helvetica,sans-Serif" font-size="10.00">UI.UIModConfig.OnInitialize</text>
</a>
</g>
</g>
<!-- Node1&#45;&gt;Node14 -->
<g id="edge13_Node000001_Node000014" class="edge">
<title>Node1&#45;&gt;Node14</title>
<g id="a_edge13_Node000001_Node000014"><a xlink:title=" ">
<path fill="none" stroke="#63b8ff" d="M553.72,-362.74C533.52,-338.02 498.23,-299.71 459,-279 447.48,-272.92 434.52,-268.38 421.62,-264.99"/>
<polygon fill="#63b8ff" stroke="#63b8ff" points="551.24,-365.24 560.22,-370.86 556.71,-360.87 551.24,-365.24"/>
</a>
</g>
</g>
<!-- Node15 -->
<g id="Node000015" class="node">
<title>Node15</title>
<g id="a_Node000015"><a xlink:href="../../d5/de1/classTerraria_1_1ModLoader_1_1Config_1_1UI_1_1UIModConfigList_ad50a33aa5aac20dc822605a474e6a4f7.html#ad50a33aa5aac20dc822605a474e6a4f7" target="_top" xlink:title=" ">
<polygon fill="white" stroke="#666666" points="430,-222 262,-222 262,-192 430,-192 430,-222"/>
<text text-anchor="start" x="270" y="-210" font-family="Helvetica,sans-Serif" font-size="10.00">Terraria.ModLoader.Config.</text>
<text text-anchor="middle" x="346" y="-199" font-family="Helvetica,sans-Serif" font-size="10.00">UI.UIModConfigList.OnInitialize</text>
</a>
</g>
</g>
<!-- Node1&#45;&gt;Node15 -->
<g id="edge14_Node000001_Node000015" class="edge">
<title>Node1&#45;&gt;Node15</title>
<g id="a_edge14_Node000001_Node000015"><a xlink:title=" ">
<path fill="none" stroke="#63b8ff" d="M560.71,-361.36C544.13,-326.52 508.97,-263.52 459,-231 450.25,-225.3 440.38,-220.94 430.21,-217.59"/>
<polygon fill="#63b8ff" stroke="#63b8ff" points="557.7,-363.18 565.08,-370.79 564.05,-360.24 557.7,-363.18"/>
</a>
</g>
</g>
<!-- Node16 -->
<g id="Node000016" class="node">
<title>Node16</title>
<g id="a_Node000016"><a xlink:href="../../dd/da3/classTerraria_1_1ModLoader_1_1UI_1_1UIMessageBox_a2b99ec24496c081f3cb8c263758d43ca.html#a2b99ec24496c081f3cb8c263758d43ca" target="_top" xlink:title=" ">
<polygon fill="white" stroke="#666666" points="436,-174 256,-174 256,-144 436,-144 436,-174"/>
<text text-anchor="start" x="264" y="-162" font-family="Helvetica,sans-Serif" font-size="10.00">Terraria.ModLoader.UI.UIMessage</text>
<text text-anchor="middle" x="346" y="-151" font-family="Helvetica,sans-Serif" font-size="10.00">Box.OnInitialize</text>
</a>
</g>
</g>
<!-- Node1&#45;&gt;Node16 -->
<g id="edge15_Node000001_Node000016" class="edge">
<title>Node1&#45;&gt;Node16</title>
<g id="a_edge15_Node000001_Node000016"><a xlink:title=" ">
<path fill="none" stroke="#63b8ff" d="M565.06,-361.15C552.47,-317.75 520.3,-228.44 459,-183 452.05,-177.85 444.23,-173.75 436.03,-170.51"/>
<polygon fill="#63b8ff" stroke="#63b8ff" points="561.73,-362.21 567.78,-370.9 568.47,-360.32 561.73,-362.21"/>
</a>
</g>
</g>
<!-- Node17 -->
<g id="Node000017" class="node">
<title>Node17</title>
<g id="a_Node000017"><a xlink:href="../../d4/d1a/classTerraria_1_1ModLoader_1_1UI_1_1UIModPacks_a24c4c7975680d72a60fa25b845fc350e.html#a24c4c7975680d72a60fa25b845fc350e" target="_top" xlink:title=" ">
<polygon fill="white" stroke="#666666" points="425,-126 267,-126 267,-96 425,-96 425,-126"/>
<text text-anchor="start" x="275" y="-114" font-family="Helvetica,sans-Serif" font-size="10.00">Terraria.ModLoader.UI.UIMod</text>
<text text-anchor="middle" x="346" y="-103" font-family="Helvetica,sans-Serif" font-size="10.00">Packs.OnInitialize</text>
</a>
</g>
</g>
<!-- Node1&#45;&gt;Node17 -->
<g id="edge16_Node000001_Node000017" class="edge">
<title>Node1&#45;&gt;Node17</title>
<g id="a_edge16_Node000001_Node000017"><a xlink:title=" ">
<path fill="none" stroke="#63b8ff" d="M567.8,-360.52C558.95,-309.31 531.63,-193.77 459,-135 449.18,-127.06 437.35,-121.58 425.09,-117.83"/>
<polygon fill="#63b8ff" stroke="#63b8ff" points="564.4,-361.4 569.46,-370.71 571.31,-360.28 564.4,-361.4"/>
</a>
</g>
</g>
<!-- Node18 -->
<g id="Node000018" class="node">
<title>Node18</title>
<g id="a_Node000018"><a xlink:href="../../d5/d94/classTerraria_1_1ModLoader_1_1UI_1_1UIMods_add3324866daae75c57c1d7d0ca871625.html#add3324866daae75c57c1d7d0ca871625" target="_top" xlink:title=" ">
<polygon fill="white" stroke="#666666" points="429,-78 263,-78 263,-48 429,-48 429,-78"/>
<text text-anchor="start" x="271" y="-66" font-family="Helvetica,sans-Serif" font-size="10.00">Terraria.ModLoader.UI.UIMods.</text>
<text text-anchor="middle" x="346" y="-55" font-family="Helvetica,sans-Serif" font-size="10.00">OnInitialize</text>
</a>
</g>
</g>
<!-- Node1&#45;&gt;Node18 -->
<g id="edge17_Node000001_Node000018" class="edge">
<title>Node1&#45;&gt;Node18</title>
<g id="a_edge17_Node000001_Node000018"><a xlink:title=" ">
<path fill="none" stroke="#63b8ff" d="M569.85,-360.64C564.66,-302.65 543.49,-159.77 459,-87 450.41,-79.6 440.1,-74.31 429.25,-70.55"/>
<polygon fill="#63b8ff" stroke="#63b8ff" points="566.38,-361.07 570.67,-370.75 573.35,-360.5 566.38,-361.07"/>
</a>
</g>
</g>
<!-- Node19 -->
<g id="Node000019" class="node">
<title>Node19</title>
<g id="a_Node000019"><a xlink:href="../../dc/d23/classTerraria_1_1ModLoader_1_1UI_1_1UIModSources_ab4bc0681bcbf210726ca99aee796377b.html#ab4bc0681bcbf210726ca99aee796377b" target="_top" xlink:title=" ">
<polygon fill="white" stroke="#666666" points="425,-30 267,-30 267,0 425,0 425,-30"/>
<text text-anchor="start" x="275" y="-18" font-family="Helvetica,sans-Serif" font-size="10.00">Terraria.ModLoader.UI.UIMod</text>
<text text-anchor="middle" x="346" y="-7" font-family="Helvetica,sans-Serif" font-size="10.00">Sources.OnInitialize</text>
</a>
</g>
</g>
<!-- Node1&#45;&gt;Node19 -->
<g id="edge18_Node000001_Node000019" class="edge">
<title>Node1&#45;&gt;Node19</title>
<g id="a_edge18_Node000001_Node000019"><a xlink:title=" ">
<path fill="none" stroke="#63b8ff" d="M571.36,-360.65C569.56,-296.39 555.44,-126.04 459,-39 449.48,-30.41 437.64,-24.62 425.27,-20.77"/>
<polygon fill="#63b8ff" stroke="#63b8ff" points="567.86,-360.78 571.57,-370.7 574.86,-360.64 567.86,-360.78"/>
</a>
</g>
</g>
<!-- Node4 -->
<g id="Node000004" class="node">
<title>Node4</title>
<g id="a_Node000004"><a xlink:href="../../d5/de0/classTerraria_1_1GameContent_1_1UI_1_1States_1_1UIResourcePackSelectionMenu_ab5fe0cd3f7b15c1d456f4d1ffae006ba.html#ab5fe0cd3f7b15c1d456f4d1ffae006ba" target="_top" xlink:title=" ">
<polygon fill="white" stroke="#666666" points="197,-749.5 0,-749.5 0,-708.5 197,-708.5 197,-749.5"/>
<text text-anchor="start" x="8" y="-737.5" font-family="Helvetica,sans-Serif" font-size="10.00">Terraria.GameContent.UI.</text>
<text text-anchor="start" x="8" y="-726.5" font-family="Helvetica,sans-Serif" font-size="10.00">States.UIResourcePackSelection</text>
<text text-anchor="middle" x="98.5" y="-715.5" font-family="Helvetica,sans-Serif" font-size="10.00">Menu.UIResourcePackSelectionMenu</text>
</a>
</g>
</g>
<!-- Node3&#45;&gt;Node4 -->
<g id="edge3_Node000003_Node000004" class="edge">
<title>Node3&#45;&gt;Node4</title>
<g id="a_edge3_Node000003_Node000004"><a xlink:title=" ">
<path fill="none" stroke="#63b8ff" d="M249.02,-727.78C232.04,-727.92 214.35,-728.06 197.33,-728.2"/>
<polygon fill="#63b8ff" stroke="#63b8ff" points="249.51,-731.28 259.48,-727.7 249.45,-724.28 249.51,-731.28"/>
</a>
</g>
</g>
<!-- Node6 -->
<g id="Node000006" class="node">
<title>Node6</title>
<g id="a_Node000006"><a xlink:href="../../dc/def/classTerraria_1_1GameContent_1_1UI_1_1States_1_1UIAchievementsMenu_ac644b6e56bc99b8552afc7fb65e92bfc.html#ac644b6e56bc99b8552afc7fb65e92bfc" target="_top" xlink:title=" ">
<polygon fill="white" stroke="#666666" points="185.5,-690.5 11.5,-690.5 11.5,-649.5 185.5,-649.5 185.5,-690.5"/>
<text text-anchor="start" x="19.5" y="-678.5" font-family="Helvetica,sans-Serif" font-size="10.00">Terraria.GameContent.UI.</text>
<text text-anchor="start" x="19.5" y="-667.5" font-family="Helvetica,sans-Serif" font-size="10.00">States.UIAchievementsMenu.On</text>
<text text-anchor="middle" x="98.5" y="-656.5" font-family="Helvetica,sans-Serif" font-size="10.00">Activate</text>
</a>
</g>
</g>
<!-- Node5&#45;&gt;Node6 -->
<g id="edge5_Node000005_Node000006" class="edge">
<title>Node5&#45;&gt;Node6</title>
<g id="a_edge5_Node000005_Node000006"><a xlink:title=" ">
<path fill="none" stroke="#63b8ff" d="M222.66,-671.51C210.17,-671.35 197.67,-671.2 185.68,-671.05"/>
<polygon fill="#63b8ff" stroke="#63b8ff" points="222.63,-675 232.67,-671.63 222.71,-668.01 222.63,-675"/>
</a>
</g>
</g>
</g>
</svg>

<g id="navigator" transform="translate(0 0)" fill="#404254">
  <rect fill="#f2f5e9" fill-opacity="0.5" stroke="#606060" stroke-width=".5" x="0" y="0" width="60" height="60"/>
  <use id="zoomplus" xlink:href="#zoomPlus" x="17" y="9" onmousedown="handleZoom(evt,'in')"/>
  <use id="zoomminus" xlink:href="#zoomMin" x="42" y="9" onmousedown="handleZoom(evt,'out')"/>
  <use id="reset" xlink:href="#resetDef" x="30" y="36" onmousedown="handleReset()"/>
   <use id="arrowup" xlink:href="#arrowUp" x="0" y="0" onmousedown="handlePan(0,-1)"/>
  <use id="arrowright" xlink:href="#arrowRight" x="0" y="0" onmousedown="handlePan(1,0)"/>
  <use id="arrowdown" xlink:href="#arrowDown" x="0" y="0" onmousedown="handlePan(0,1)"/>
  <use id="arrowleft" xlink:href="#arrowLeft" x="0" y="0" onmousedown="handlePan(-1,0)"/>
</g>
<svg viewBox="0 0 15 15" width="100%" height="30px" preserveAspectRatio="xMaxYMin meet">
 <g id="arrow_out" transform="scale(0.3 0.3)">
  <a xlink:href="classTerraria_1_1GameContent_1_1UI_1_1Elements_1_1UIList_aca7da1bc33b4d4e44a33cef5ee3e5f13_aca7da1bc33b4d4e44a33cef5ee3e5f13_icgraph_org.svg" target="_base">
   <rect id="button" ry="5" rx="5" y="6" x="6" height="38" width="38"
        fill="#f2f5e9" fill-opacity="0.5" stroke="#606060" stroke-width="1.0"/>
   <path id="arrow"
     d="M 11.500037,31.436501 C 11.940474,20.09759 22.043105,11.32322 32.158766,21.979434 L 37.068811,17.246167 C 37.068811,17.246167 37.088388,32 37.088388,32 L 22.160133,31.978069 C 22.160133,31.978069 26.997745,27.140456 26.997745,27.140456 C 18.528582,18.264221 13.291696,25.230495 11.500037,31.436501 z"
     style="fill:#404040;"/>
  </a>
 </g>
</svg>

<style type='text/css'>
<![CDATA[
[data-mouse-over-selected='false'] { opacity: 0.7; }
[data-mouse-over-selected='true']  { opacity: 1.0; }
]]>
</style>
<script type="application/ecmascript"><![CDATA[
document.addEventListener('DOMContentLoaded', (event) => {
  highlightEdges();
  highlightAdjacentNodes();
});
]]></script>
</svg>
