<?xml version="1.0" encoding="UTF-8" standalone="no"?>
<!DOCTYPE svg PUBLIC "-//W3C//DTD SVG 1.1//EN"
 "http://www.w3.org/Graphics/SVG/1.1/DTD/svg11.dtd">
<!-- Generated by graphviz version 2.43.0 (0)
 -->
<!-- Title: Terraria.Recipe.AddIngredient Pages: 1 -->
<svg width="394pt" height="246pt"
 viewBox="0.00 0.00 394.00 245.50" xmlns="http://www.w3.org/2000/svg" xmlns:xlink="http://www.w3.org/1999/xlink">

<svg id="main" version="1.1" xmlns="http://www.w3.org/2000/svg" xmlns:xlink="http://www.w3.org/1999/xlink" xml:space="preserve" onload="init(evt)">
<style type="text/css"><![CDATA[
.node, .edge {opacity: 0.7;}
.node.selected, .edge.selected {opacity: 1;}
.edge:hover path { stroke: red; }
.edge:hover polygon { stroke: red; fill: red; }
]]></style>
<script type="application/ecmascript" xlink:href="../../svg.min.js"/>
<svg id="graph" class="graph">
<g id="graph0" class="graph" transform="scale(1 1) rotate(0) translate(4 241.5)">
<title>Terraria.Recipe.AddIngredient</title>
<!-- Node1 -->
<g id="Node000001" class="node">
<title>Node1</title>
<g id="a_Node000001"><a xlink:title="Adds an ingredient to this recipe with the given item type and stack size. Ex: recipe....">
<polygon fill="#999999" stroke="#666666" points="386,-141.5 225,-141.5 225,-122.5 386,-122.5 386,-141.5"/>
<text text-anchor="middle" x="305.5" y="-129.5" font-family="Helvetica,sans-Serif" font-size="10.00">Terraria.Recipe.AddIngredient</text>
</a>
</g>
</g>
<!-- Node2 -->
<g id="Node000002" class="node">
<title>Node2</title>
<g id="a_Node000002"><a xlink:href="../../d5/dda/classTerraria_1_1Recipe_a687658c86dce509787f23335ce2307db.html#a687658c86dce509787f23335ce2307db" target="_top" xlink:title="Adds an ingredient to this recipe with the given item name from the given mod, and with the given sta...">
<polygon fill="white" stroke="#666666" points="175,-237.5 14,-237.5 14,-218.5 175,-218.5 175,-237.5"/>
<text text-anchor="middle" x="94.5" y="-225.5" font-family="Helvetica,sans-Serif" font-size="10.00">Terraria.Recipe.AddIngredient</text>
</a>
</g>
</g>
<!-- Node1&#45;&gt;Node2 -->
<g id="edge1_Node000001_Node000002" class="edge">
<title>Node1&#45;&gt;Node2</title>
<g id="a_edge1_Node000001_Node000002"><a xlink:title=" ">
<path fill="none" stroke="#63b8ff" d="M285.81,-148.18C264.05,-166.12 226.31,-194.57 189,-210 180.75,-213.41 171.82,-216.18 162.87,-218.44"/>
<polygon fill="#63b8ff" stroke="#63b8ff" points="288.18,-150.75 293.59,-141.64 283.68,-145.39 288.18,-150.75"/>
</a>
</g>
</g>
<!-- Node3 -->
<g id="Node000003" class="node">
<title>Node3</title>
<g id="a_Node000003"><a xlink:href="../../d5/dda/classTerraria_1_1Recipe_a589165cddef92b6aeadee13587b3ab67.html#a589165cddef92b6aeadee13587b3ab67" target="_top" xlink:title="Adds an ingredient to this recipe of the given type of item and stack size.">
<polygon fill="white" stroke="#666666" points="175,-200.5 14,-200.5 14,-181.5 175,-181.5 175,-200.5"/>
<text text-anchor="middle" x="94.5" y="-188.5" font-family="Helvetica,sans-Serif" font-size="10.00">Terraria.Recipe.AddIngredient</text>
</a>
</g>
</g>
<!-- Node1&#45;&gt;Node3 -->
<g id="edge2_Node000001_Node000003" class="edge">
<title>Node1&#45;&gt;Node3</title>
<g id="a_edge2_Node000001_Node000003"><a xlink:title=" ">
<path fill="none" stroke="#63b8ff" d="M271.38,-145.26C248.52,-154.04 217.26,-165.31 189,-173 177.36,-176.17 164.75,-178.99 152.68,-181.41"/>
<polygon fill="#63b8ff" stroke="#63b8ff" points="272.89,-148.43 280.94,-141.54 270.35,-141.9 272.89,-148.43"/>
</a>
</g>
</g>
<!-- Node4 -->
<g id="Node000004" class="node">
<title>Node4</title>
<g id="a_Node000004"><a xlink:href="../../d5/dda/classTerraria_1_1Recipe_a5711abeb0041c8fa97da1d98042bc7ba.html#a5711abeb0041c8fa97da1d98042bc7ba" target="_top" xlink:title="Adds an ingredient to this recipe of the given type of item and stack size.">
<polygon fill="white" stroke="#666666" points="189,-163.5 0,-163.5 0,-144.5 189,-144.5 189,-163.5"/>
<text text-anchor="middle" x="94.5" y="-151.5" font-family="Helvetica,sans-Serif" font-size="10.00">Terraria.Recipe.AddIngredient&lt; T &gt;</text>
</a>
</g>
</g>
<!-- Node1&#45;&gt;Node4 -->
<g id="edge3_Node000001_Node000004" class="edge">
<title>Node1&#45;&gt;Node4</title>
<g id="a_edge3_Node000001_Node000004"><a xlink:title=" ">
<path fill="none" stroke="#63b8ff" d="M214.68,-141.45C205.2,-142.45 195.56,-143.47 186.07,-144.47"/>
<polygon fill="#63b8ff" stroke="#63b8ff" points="215.31,-144.91 224.89,-140.38 214.58,-137.95 215.31,-144.91"/>
</a>
</g>
</g>
<!-- Node5 -->
<g id="Node000005" class="node">
<title>Node5</title>
<g id="a_Node000005"><a xlink:href="../../d5/dda/classTerraria_1_1Recipe_a84330c5b0bca8006c6ccfec770bb86f6.html#a84330c5b0bca8006c6ccfec770bb86f6" target="_top" xlink:title="Adds a recipe group ingredient to this recipe with the given RecipeGroupID and stack size....">
<polygon fill="white" stroke="#666666" points="166.5,-126 22.5,-126 22.5,-96 166.5,-96 166.5,-126"/>
<text text-anchor="start" x="30.5" y="-114" font-family="Helvetica,sans-Serif" font-size="10.00">Terraria.Recipe.AddRecipe</text>
<text text-anchor="middle" x="94.5" y="-103" font-family="Helvetica,sans-Serif" font-size="10.00">Group</text>
</a>
</g>
</g>
<!-- Node1&#45;&gt;Node5 -->
<g id="edge4_Node000001_Node000005" class="edge">
<title>Node1&#45;&gt;Node5</title>
<g id="a_edge4_Node000001_Node000005"><a xlink:title=" ">
<path fill="none" stroke="#63b8ff" d="M214.93,-123C198.8,-121.38 182.19,-119.71 166.67,-118.15"/>
<polygon fill="#63b8ff" stroke="#63b8ff" points="214.59,-126.48 224.89,-124 215.29,-119.52 214.59,-126.48"/>
</a>
</g>
</g>
<!-- Node6 -->
<g id="Node000006" class="node">
<title>Node6</title>
<g id="a_Node000006"><a xlink:href="../../d5/dda/classTerraria_1_1Recipe_aa5ef3522eb75381bc6c0b1f5b29e3874.html#aa5ef3522eb75381bc6c0b1f5b29e3874" target="_top" xlink:title="Adds a recipe group ingredient to this recipe with the given RecipeGroup.">
<polygon fill="white" stroke="#666666" points="166.5,-78 22.5,-78 22.5,-48 166.5,-48 166.5,-78"/>
<text text-anchor="start" x="30.5" y="-66" font-family="Helvetica,sans-Serif" font-size="10.00">Terraria.Recipe.AddRecipe</text>
<text text-anchor="middle" x="94.5" y="-55" font-family="Helvetica,sans-Serif" font-size="10.00">Group</text>
</a>
</g>
</g>
<!-- Node1&#45;&gt;Node6 -->
<g id="edge5_Node000001_Node000006" class="edge">
<title>Node1&#45;&gt;Node6</title>
<g id="a_edge5_Node000001_Node000006"><a xlink:title=" ">
<path fill="none" stroke="#63b8ff" d="M272.94,-118.52C249.93,-108.98 217.86,-96.29 189,-87 179.19,-83.84 168.7,-80.82 158.41,-78.04"/>
<polygon fill="#63b8ff" stroke="#63b8ff" points="271.64,-121.77 282.21,-122.39 274.34,-115.31 271.64,-121.77"/>
</a>
</g>
</g>
<!-- Node7 -->
<g id="Node000007" class="node">
<title>Node7</title>
<g id="a_Node000007"><a xlink:href="../../d5/dda/classTerraria_1_1Recipe_a894ea73b6543796fbda3e5a0aa4a1773.html#a894ea73b6543796fbda3e5a0aa4a1773" target="_top" xlink:title="Adds a recipe group ingredient to this recipe with the given RecipeGroup name and stack size....">
<polygon fill="white" stroke="#666666" points="166.5,-30 22.5,-30 22.5,0 166.5,0 166.5,-30"/>
<text text-anchor="start" x="30.5" y="-18" font-family="Helvetica,sans-Serif" font-size="10.00">Terraria.Recipe.AddRecipe</text>
<text text-anchor="middle" x="94.5" y="-7" font-family="Helvetica,sans-Serif" font-size="10.00">Group</text>
</a>
</g>
</g>
<!-- Node1&#45;&gt;Node7 -->
<g id="edge6_Node000001_Node000007" class="edge">
<title>Node1&#45;&gt;Node7</title>
<g id="a_edge6_Node000001_Node000007"><a xlink:title=" ">
<path fill="none" stroke="#63b8ff" d="M288.15,-114.95C267.13,-94.01 228.59,-58.84 189,-39 181.96,-35.47 174.35,-32.43 166.62,-29.81"/>
<polygon fill="#63b8ff" stroke="#63b8ff" points="285.8,-117.55 295.31,-122.22 290.79,-112.64 285.8,-117.55"/>
</a>
</g>
</g>
</g>
</svg>
</svg>

<style type='text/css'>
<![CDATA[
[data-mouse-over-selected='false'] { opacity: 0.7; }
[data-mouse-over-selected='true']  { opacity: 1.0; }
]]>
</style>
<script type="application/ecmascript"><![CDATA[
document.addEventListener('DOMContentLoaded', (event) => {
  highlightEdges();
  highlightAdjacentNodes();
});
]]></script>
</svg>
