<?xml version="1.0" encoding="UTF-8" standalone="no"?>
<!DOCTYPE svg PUBLIC "-//W3C//DTD SVG 1.1//EN"
 "http://www.w3.org/Graphics/SVG/1.1/DTD/svg11.dtd">
<!-- Generated by graphviz version 2.43.0 (0)
 -->
<!-- Title: Terraria.GameContent.UI.States.UIWorkshopWorldImport.Draw Pages: 1 -->
<!--zoomable 206 -->

<svg id="main" version="1.1" xmlns="http://www.w3.org/2000/svg" xmlns:xlink="http://www.w3.org/1999/xlink" xml:space="preserve" onload="init(evt)">
<style type="text/css"><![CDATA[
.node, .edge {opacity: 0.7;}
.node.selected, .edge.selected {opacity: 1;}
.edge:hover path { stroke: red; }
.edge:hover polygon { stroke: red; fill: red; }
]]></style>

<defs>
  <circle id="rim" cx="0" cy="0" r="7"/>
  <circle id="rim2" cx="0" cy="0" r="3.5"/>
  <g id="zoomPlus">
    <use xlink:href="#rim" fill="#404040"><set attributeName="fill" to="#808080" begin="zoomplus.mouseover" end="zoomplus.mouseout"/></use>
    <path d="M-4,0h8M0,-4v8" fill="none" stroke="white" stroke-width="1.5" pointer-events="none"/>
  </g>
  <g id="zoomMin">
    <use xlink:href="#rim" fill="#404040"><set attributeName="fill" to="#808080" begin="zoomminus.mouseover" end="zoomminus.mouseout"/></use>
    <path d="M-4,0h8" fill="none" stroke="white" stroke-width="1.5" pointer-events="none"/>
  </g>
  <g id="arrowUp" transform="translate(30 24)">
    <use xlink:href="#rim"/>
    <path pointer-events="none" fill="none" stroke="white" stroke-width="1.5" d="M0,-3.0v7 M-2.5,-0.5L0,-3.0L2.5,-0.5"/>
  </g>
  <g id="arrowRight" transform="rotate(90) translate(36 -43)">
    <use xlink:href="#rim"/>
    <path pointer-events="none" fill="none" stroke="white" stroke-width="1.5" d="M0,-3.0v7 M-2.5,-0.5L0,-3.0L2.5,-0.5"/>
  </g>
  <g id="arrowDown" transform="rotate(180) translate(-30 -48)">
    <use xlink:href="#rim"/>
    <path pointer-events="none" fill="none" stroke="white" stroke-width="1.5" d="M0,-3.0v7 M-2.5,-0.5L0,-3.0L2.5,-0.5"/>
  </g>
  <g id="arrowLeft" transform="rotate(270) translate(-36 17)">
    <use xlink:href="#rim"/>
    <path pointer-events="none" fill="none" stroke="white" stroke-width="1.5" d="M0,-3.0v7 M-2.5,-0.5L0,-3.0L2.5,-0.5"/>
  </g>
  <g id="resetDef">
    <use xlink:href="#rim2" fill="#404040"><set attributeName="fill" to="#808080" begin="reset.mouseover" end="reset.mouseout"/></use>
  </g>
</defs>
<script type="application/ecmascript">
var viewWidth = 1020;
var viewHeight = 206;
var sectionId = 'dynsection-0';
</script>
<script type="application/ecmascript" xlink:href="../../svg.min.js"/>
<svg id="graph" class="graph">
<g id="viewport">
<title>Terraria.GameContent.UI.States.UIWorkshopWorldImport.Draw</title>
<!-- Node1 -->
<g id="Node000001" class="node">
<title>Node1</title>
<g id="a_Node000001"><a xlink:title=" ">
<polygon fill="#999999" stroke="#666666" points="197,-102 0,-102 0,-72 197,-72 197,-102"/>
<text text-anchor="start" x="8" y="-90" font-family="Helvetica,sans-Serif" font-size="10.00">Terraria.GameContent.UI.</text>
<text text-anchor="middle" x="98.5" y="-79" font-family="Helvetica,sans-Serif" font-size="10.00">States.UIWorkshopWorldImport.Draw</text>
</a>
</g>
</g>
<!-- Node2 -->
<g id="Node000002" class="node">
<title>Node2</title>
<g id="a_Node000002"><a xlink:href="../../d7/d77/classTerraria_1_1GameContent_1_1UI_1_1States_1_1UIWorkshopWorldImport_a22de0abf8b1c0b025dae6913b97a9101.html#a22de0abf8b1c0b025dae6913b97a9101" target="_top" xlink:title=" ">
<polygon fill="white" stroke="#666666" points="405,-107.5 233,-107.5 233,-66.5 405,-66.5 405,-107.5"/>
<text text-anchor="start" x="241" y="-95.5" font-family="Helvetica,sans-Serif" font-size="10.00">Terraria.GameContent.UI.</text>
<text text-anchor="start" x="241" y="-84.5" font-family="Helvetica,sans-Serif" font-size="10.00">States.UIWorkshopWorldImport.</text>
<text text-anchor="middle" x="319" y="-73.5" font-family="Helvetica,sans-Serif" font-size="10.00">SetupGamepadPoints</text>
</a>
</g>
</g>
<!-- Node1&#45;&gt;Node2 -->
<g id="edge1_Node000001_Node000002" class="edge">
<title>Node1&#45;&gt;Node2</title>
<g id="a_edge1_Node000001_Node000002"><a xlink:title=" ">
<path fill="none" stroke="#63b8ff" d="M197.25,-87C205.65,-87 214.14,-87 222.52,-87"/>
<polygon fill="#63b8ff" stroke="#63b8ff" points="222.68,-90.5 232.68,-87 222.68,-83.5 222.68,-90.5"/>
</a>
</g>
</g>
<!-- Node3 -->
<g id="Node000003" class="node">
<title>Node3</title>
<g id="a_Node000003"><a xlink:href="../../d4/dc5/classTerraria_1_1UI_1_1Gamepad_1_1UILinkPointNavigator_a777aac1c14d559cf80455e2e5e7322b4.html#a777aac1c14d559cf80455e2e5e7322b4" target="_top" xlink:title=" ">
<polygon fill="white" stroke="#666666" points="594,-174 441,-174 441,-144 594,-144 594,-174"/>
<text text-anchor="start" x="449" y="-162" font-family="Helvetica,sans-Serif" font-size="10.00">Terraria.UI.Gamepad.UILink</text>
<text text-anchor="middle" x="517.5" y="-151" font-family="Helvetica,sans-Serif" font-size="10.00">PointNavigator.ChangePoint</text>
</a>
</g>
</g>
<!-- Node2&#45;&gt;Node3 -->
<g id="edge2_Node000002_Node000003" class="edge">
<title>Node2&#45;&gt;Node3</title>
<g id="a_edge2_Node000002_Node000003"><a xlink:title=" ">
<path fill="none" stroke="#63b8ff" d="M369.45,-107.52C391.25,-116.33 417.27,-126.53 441,-135 446.39,-136.92 452.03,-138.86 457.69,-140.75"/>
<polygon fill="#63b8ff" stroke="#63b8ff" points="456.6,-144.07 467.19,-143.87 458.79,-137.42 456.6,-144.07"/>
</a>
</g>
</g>
<!-- Node7 -->
<g id="Node000007" class="node">
<title>Node7</title>
<g id="a_Node000007"><a xlink:href="../../d7/d72/classTerraria_1_1UI_1_1UIElement_afb84cbf07b70e4953ade34b6d01c4738.html#afb84cbf07b70e4953ade34b6d01c4738" target="_top" xlink:title=" ">
<polygon fill="white" stroke="#666666" points="588,-126 447,-126 447,-96 588,-96 588,-126"/>
<text text-anchor="start" x="455" y="-114" font-family="Helvetica,sans-Serif" font-size="10.00">Terraria.UI.UIElement.Get</text>
<text text-anchor="middle" x="517.5" y="-103" font-family="Helvetica,sans-Serif" font-size="10.00">ClippingRectangle</text>
</a>
</g>
</g>
<!-- Node2&#45;&gt;Node7 -->
<g id="edge7_Node000002_Node000007" class="edge">
<title>Node2&#45;&gt;Node7</title>
<g id="a_edge7_Node000002_Node000007"><a xlink:title=" ">
<path fill="none" stroke="#63b8ff" d="M405.04,-97.39C415.66,-98.68 426.48,-100 437,-101.29"/>
<polygon fill="#63b8ff" stroke="#63b8ff" points="436.63,-104.77 446.98,-102.51 437.48,-97.82 436.63,-104.77"/>
</a>
</g>
</g>
<!-- Node8 -->
<g id="Node000008" class="node">
<title>Node8</title>
<g id="a_Node000008"><a xlink:href="../../d7/d72/classTerraria_1_1UI_1_1UIElement_aed036064fe14a49d7f2fe9da836eef78.html#aed036064fe14a49d7f2fe9da836eef78" target="_top" xlink:title=" ">
<polygon fill="white" stroke="#666666" points="588,-78 447,-78 447,-48 588,-48 588,-78"/>
<text text-anchor="start" x="455" y="-66" font-family="Helvetica,sans-Serif" font-size="10.00">Terraria.UI.UIElement.Get</text>
<text text-anchor="middle" x="517.5" y="-55" font-family="Helvetica,sans-Serif" font-size="10.00">SnapPoints</text>
</a>
</g>
</g>
<!-- Node2&#45;&gt;Node8 -->
<g id="edge8_Node000002_Node000008" class="edge">
<title>Node2&#45;&gt;Node8</title>
<g id="a_edge8_Node000002_Node000008"><a xlink:title=" ">
<path fill="none" stroke="#63b8ff" d="M405.04,-76.61C415.66,-75.32 426.48,-74 437,-72.71"/>
<polygon fill="#63b8ff" stroke="#63b8ff" points="437.48,-76.18 446.98,-71.49 436.63,-69.23 437.48,-76.18"/>
</a>
</g>
</g>
<!-- Node11 -->
<g id="Node000011" class="node">
<title>Node11</title>
<g id="a_Node000011"><a xlink:href="../../d4/dc5/classTerraria_1_1UI_1_1Gamepad_1_1UILinkPointNavigator_ac28776d33a359203c79dd1d72f217981.html#ac28776d33a359203c79dd1d72f217981" target="_top" xlink:title=" ">
<polygon fill="white" stroke="#666666" points="593,-30 442,-30 442,0 593,0 593,-30"/>
<text text-anchor="start" x="450" y="-18" font-family="Helvetica,sans-Serif" font-size="10.00">Terraria.UI.Gamepad.UILink</text>
<text text-anchor="middle" x="517.5" y="-7" font-family="Helvetica,sans-Serif" font-size="10.00">PointNavigator.SetPosition</text>
</a>
</g>
</g>
<!-- Node2&#45;&gt;Node11 -->
<g id="edge11_Node000002_Node000011" class="edge">
<title>Node2&#45;&gt;Node11</title>
<g id="a_edge11_Node000002_Node000011"><a xlink:title=" ">
<path fill="none" stroke="#63b8ff" d="M369.45,-66.48C391.25,-57.67 417.27,-47.47 441,-39 446.39,-37.08 452.03,-35.14 457.69,-33.25"/>
<polygon fill="#63b8ff" stroke="#63b8ff" points="458.79,-36.58 467.19,-30.13 456.6,-29.93 458.79,-36.58"/>
</a>
</g>
</g>
<!-- Node4 -->
<g id="Node000004" class="node">
<title>Node4</title>
<g id="a_Node000004"><a xlink:href="../../d4/dc5/classTerraria_1_1UI_1_1Gamepad_1_1UILinkPointNavigator_af5f96f175199246e97dad3c0537fe93d.html#af5f96f175199246e97dad3c0537fe93d" target="_top" xlink:title=" ">
<polygon fill="white" stroke="#666666" points="801,-174 630,-174 630,-144 801,-144 801,-174"/>
<text text-anchor="start" x="638" y="-162" font-family="Helvetica,sans-Serif" font-size="10.00">Terraria.UI.Gamepad.UILink</text>
<text text-anchor="middle" x="715.5" y="-151" font-family="Helvetica,sans-Serif" font-size="10.00">PointNavigator.ProcessChanges</text>
</a>
</g>
</g>
<!-- Node3&#45;&gt;Node4 -->
<g id="edge3_Node000003_Node000004" class="edge">
<title>Node3&#45;&gt;Node4</title>
<g id="a_edge3_Node000003_Node000004"><a xlink:title=" ">
<path fill="none" stroke="#63b8ff" d="M594.28,-159C602.64,-159 611.23,-159 619.79,-159"/>
<polygon fill="#63b8ff" stroke="#63b8ff" points="619.8,-162.5 629.8,-159 619.8,-155.5 619.8,-162.5"/>
</a>
</g>
</g>
<!-- Node4&#45;&gt;Node4 -->
<g id="edge6_Node000004_Node000004" class="edge">
<title>Node4&#45;&gt;Node4</title>
<g id="a_edge6_Node000004_Node000004"><a xlink:title=" ">
<path fill="none" stroke="#63b8ff" d="M680.7,-174.28C672.96,-183.41 684.56,-192 715.5,-192 733.87,-192 745.42,-188.97 750.16,-184.6"/>
<polygon fill="#63b8ff" stroke="#63b8ff" points="753.66,-184.32 750.3,-174.28 746.66,-184.22 753.66,-184.32"/>
</a>
</g>
</g>
<!-- Node5 -->
<g id="Node000005" class="node">
<title>Node5</title>
<g id="a_Node000005"><a xlink:href="../../d4/dc5/classTerraria_1_1UI_1_1Gamepad_1_1UILinkPointNavigator_a0cda74434ec0c5433d97c8590e7b6868.html#a0cda74434ec0c5433d97c8590e7b6868" target="_top" xlink:title=" ">
<polygon fill="white" stroke="#666666" points="1012,-198 837,-198 837,-168 1012,-168 1012,-198"/>
<text text-anchor="start" x="845" y="-186" font-family="Helvetica,sans-Serif" font-size="10.00">Terraria.UI.Gamepad.UILink</text>
<text text-anchor="middle" x="924.5" y="-175" font-family="Helvetica,sans-Serif" font-size="10.00">PointNavigator.GoToDefaultPage</text>
</a>
</g>
</g>
<!-- Node4&#45;&gt;Node5 -->
<g id="edge4_Node000004_Node000005" class="edge">
<title>Node4&#45;&gt;Node5</title>
<g id="a_edge4_Node000004_Node000005"><a xlink:title=" ">
<path fill="none" stroke="#63b8ff" d="M801.29,-168.83C809.72,-169.81 818.32,-170.8 826.85,-171.79"/>
<polygon fill="#63b8ff" stroke="#63b8ff" points="826.49,-175.28 836.83,-172.95 827.3,-168.32 826.49,-175.28"/>
</a>
</g>
</g>
<!-- Node6 -->
<g id="Node000006" class="node">
<title>Node6</title>
<g id="a_Node000006"><a xlink:href="../../d0/d91/classTerraria_1_1UI_1_1Gamepad_1_1UILinkPage_a00e5839c8d7499b2169a7c9a0899ab05.html#a00e5839c8d7499b2169a7c9a0899ab05" target="_top" xlink:title=" ">
<polygon fill="white" stroke="#666666" points="1000,-150 849,-150 849,-120 1000,-120 1000,-150"/>
<text text-anchor="start" x="857" y="-138" font-family="Helvetica,sans-Serif" font-size="10.00">Terraria.UI.Gamepad.UILink</text>
<text text-anchor="middle" x="924.5" y="-127" font-family="Helvetica,sans-Serif" font-size="10.00">Page.Leave</text>
</a>
</g>
</g>
<!-- Node4&#45;&gt;Node6 -->
<g id="edge5_Node000004_Node000006" class="edge">
<title>Node4&#45;&gt;Node6</title>
<g id="a_edge5_Node000004_Node000006"><a xlink:title=" ">
<path fill="none" stroke="#63b8ff" d="M801.29,-149.17C813.59,-147.74 826.26,-146.27 838.56,-144.85"/>
<polygon fill="#63b8ff" stroke="#63b8ff" points="839.26,-148.29 848.79,-143.66 838.45,-141.34 839.26,-148.29"/>
</a>
</g>
</g>
<!-- Node9 -->
<g id="Node000009" class="node">
<title>Node9</title>
<g id="a_Node000009"><a xlink:href="../../d7/d72/classTerraria_1_1UI_1_1UIElement_a9109cc8df866b3b0e14bb7dda7dd9e15.html#a9109cc8df866b3b0e14bb7dda7dd9e15" target="_top" xlink:title=" ">
<polygon fill="white" stroke="#666666" points="786,-78 645,-78 645,-48 786,-48 786,-78"/>
<text text-anchor="start" x="653" y="-66" font-family="Helvetica,sans-Serif" font-size="10.00">Terraria.UI.UIElement.Get</text>
<text text-anchor="middle" x="715.5" y="-55" font-family="Helvetica,sans-Serif" font-size="10.00">SnapPoint</text>
</a>
</g>
</g>
<!-- Node8&#45;&gt;Node9 -->
<g id="edge9_Node000008_Node000009" class="edge">
<title>Node8&#45;&gt;Node9</title>
<g id="a_edge9_Node000008_Node000009"><a xlink:title=" ">
<path fill="none" stroke="#63b8ff" d="M588.15,-63C603.23,-63 619.28,-63 634.71,-63"/>
<polygon fill="#63b8ff" stroke="#63b8ff" points="634.74,-66.5 644.74,-63 634.74,-59.5 634.74,-66.5"/>
</a>
</g>
</g>
<!-- Node10 -->
<g id="Node000010" class="node">
<title>Node10</title>
<g id="a_Node000010"><a xlink:href="../../da/d90/classTerraria_1_1UI_1_1SnapPoint_a1ee689cd010e6ada067cb86366b22ebb.html#a1ee689cd010e6ada067cb86366b22ebb" target="_top" xlink:title=" ">
<polygon fill="white" stroke="#666666" points="1008,-72.5 841,-72.5 841,-53.5 1008,-53.5 1008,-72.5"/>
<text text-anchor="middle" x="924.5" y="-60.5" font-family="Helvetica,sans-Serif" font-size="10.00">Terraria.UI.SnapPoint.Calculate</text>
</a>
</g>
</g>
<!-- Node9&#45;&gt;Node10 -->
<g id="edge10_Node000009_Node000010" class="edge">
<title>Node9&#45;&gt;Node10</title>
<g id="a_edge10_Node000009_Node000010"><a xlink:title=" ">
<path fill="none" stroke="#63b8ff" d="M786,-63C800.32,-63 815.61,-63 830.6,-63"/>
<polygon fill="#63b8ff" stroke="#63b8ff" points="830.91,-66.5 840.91,-63 830.91,-59.5 830.91,-66.5"/>
</a>
</g>
</g>
</g>
</svg>

<g id="navigator" transform="translate(0 0)" fill="#404254">
  <rect fill="#f2f5e9" fill-opacity="0.5" stroke="#606060" stroke-width=".5" x="0" y="0" width="60" height="60"/>
  <use id="zoomplus" xlink:href="#zoomPlus" x="17" y="9" onmousedown="handleZoom(evt,'in')"/>
  <use id="zoomminus" xlink:href="#zoomMin" x="42" y="9" onmousedown="handleZoom(evt,'out')"/>
  <use id="reset" xlink:href="#resetDef" x="30" y="36" onmousedown="handleReset()"/>
   <use id="arrowup" xlink:href="#arrowUp" x="0" y="0" onmousedown="handlePan(0,-1)"/>
  <use id="arrowright" xlink:href="#arrowRight" x="0" y="0" onmousedown="handlePan(1,0)"/>
  <use id="arrowdown" xlink:href="#arrowDown" x="0" y="0" onmousedown="handlePan(0,1)"/>
  <use id="arrowleft" xlink:href="#arrowLeft" x="0" y="0" onmousedown="handlePan(-1,0)"/>
</g>
<svg viewBox="0 0 15 15" width="100%" height="30px" preserveAspectRatio="xMaxYMin meet">
 <g id="arrow_out" transform="scale(0.3 0.3)">
  <a xlink:href="classTerraria_1_1GameContent_1_1UI_1_1States_1_1UIWorkshopWorldImport_ace3f0fd404419fd3b17953fc77a9e0ea_ace3f0fd404419fd3b17953fc77a9e0ea_cgraph_org.svg" target="_base">
   <rect id="button" ry="5" rx="5" y="6" x="6" height="38" width="38"
        fill="#f2f5e9" fill-opacity="0.5" stroke="#606060" stroke-width="1.0"/>
   <path id="arrow"
     d="M 11.500037,31.436501 C 11.940474,20.09759 22.043105,11.32322 32.158766,21.979434 L 37.068811,17.246167 C 37.068811,17.246167 37.088388,32 37.088388,32 L 22.160133,31.978069 C 22.160133,31.978069 26.997745,27.140456 26.997745,27.140456 C 18.528582,18.264221 13.291696,25.230495 11.500037,31.436501 z"
     style="fill:#404040;"/>
  </a>
 </g>
</svg>

<style type='text/css'>
<![CDATA[
[data-mouse-over-selected='false'] { opacity: 0.7; }
[data-mouse-over-selected='true']  { opacity: 1.0; }
]]>
</style>
<script type="application/ecmascript"><![CDATA[
document.addEventListener('DOMContentLoaded', (event) => {
  highlightEdges();
  highlightAdjacentNodes();
});
]]></script>
</svg>
