<?xml version="1.0" encoding="UTF-8" standalone="no"?>
<!DOCTYPE svg PUBLIC "-//W3C//DTD SVG 1.1//EN"
 "http://www.w3.org/Graphics/SVG/1.1/DTD/svg11.dtd">
<!-- Generated by graphviz version 2.43.0 (0)
 -->
<!-- Title: Terraria.GameContent.Tile_Entities.TEDisplayDoll.SaveData Pages: 1 -->
<!--zoomable 126 -->

<svg id="main" version="1.1" xmlns="http://www.w3.org/2000/svg" xmlns:xlink="http://www.w3.org/1999/xlink" xml:space="preserve" onload="init(evt)">
<style type="text/css"><![CDATA[
.node, .edge {opacity: 0.7;}
.node.selected, .edge.selected {opacity: 1;}
.edge:hover path { stroke: red; }
.edge:hover polygon { stroke: red; fill: red; }
]]></style>

<defs>
  <circle id="rim" cx="0" cy="0" r="7"/>
  <circle id="rim2" cx="0" cy="0" r="3.5"/>
  <g id="zoomPlus">
    <use xlink:href="#rim" fill="#404040"><set attributeName="fill" to="#808080" begin="zoomplus.mouseover" end="zoomplus.mouseout"/></use>
    <path d="M-4,0h8M0,-4v8" fill="none" stroke="white" stroke-width="1.5" pointer-events="none"/>
  </g>
  <g id="zoomMin">
    <use xlink:href="#rim" fill="#404040"><set attributeName="fill" to="#808080" begin="zoomminus.mouseover" end="zoomminus.mouseout"/></use>
    <path d="M-4,0h8" fill="none" stroke="white" stroke-width="1.5" pointer-events="none"/>
  </g>
  <g id="arrowUp" transform="translate(30 24)">
    <use xlink:href="#rim"/>
    <path pointer-events="none" fill="none" stroke="white" stroke-width="1.5" d="M0,-3.0v7 M-2.5,-0.5L0,-3.0L2.5,-0.5"/>
  </g>
  <g id="arrowRight" transform="rotate(90) translate(36 -43)">
    <use xlink:href="#rim"/>
    <path pointer-events="none" fill="none" stroke="white" stroke-width="1.5" d="M0,-3.0v7 M-2.5,-0.5L0,-3.0L2.5,-0.5"/>
  </g>
  <g id="arrowDown" transform="rotate(180) translate(-30 -48)">
    <use xlink:href="#rim"/>
    <path pointer-events="none" fill="none" stroke="white" stroke-width="1.5" d="M0,-3.0v7 M-2.5,-0.5L0,-3.0L2.5,-0.5"/>
  </g>
  <g id="arrowLeft" transform="rotate(270) translate(-36 17)">
    <use xlink:href="#rim"/>
    <path pointer-events="none" fill="none" stroke="white" stroke-width="1.5" d="M0,-3.0v7 M-2.5,-0.5L0,-3.0L2.5,-0.5"/>
  </g>
  <g id="resetDef">
    <use xlink:href="#rim2" fill="#404040"><set attributeName="fill" to="#808080" begin="reset.mouseover" end="reset.mouseout"/></use>
  </g>
</defs>
<script type="application/ecmascript">
var viewWidth = 772;
var viewHeight = 126;
var sectionId = 'dynsection-0';
</script>
<script type="application/ecmascript" xlink:href="../../svg.min.js"/>
<svg id="graph" class="graph">
<g id="viewport">
<title>Terraria.GameContent.Tile_Entities.TEDisplayDoll.SaveData</title>
<!-- Node1 -->
<g id="Node000001" class="node">
<title>Node1</title>
<g id="a_Node000001"><a xlink:title="Allows you to save custom data for this tile entity. &#160;&#160;&#160;NOTE: The provided tag is always empty by def...">
<polygon fill="#999999" stroke="#666666" points="180,-52 0,-52 0,-22 180,-22 180,-52"/>
<text text-anchor="start" x="8" y="-40" font-family="Helvetica,sans-Serif" font-size="10.00">Terraria.GameContent.Tile</text>
<text text-anchor="middle" x="90" y="-29" font-family="Helvetica,sans-Serif" font-size="10.00">_Entities.TEDisplayDoll.SaveData</text>
</a>
</g>
</g>
<!-- Node2 -->
<g id="Node000002" class="node">
<title>Node2</title>
<g id="a_Node000002"><a xlink:href="../../d0/ddd/classTerraria_1_1ModLoader_1_1IO_1_1PlayerIO_aa4f5e0eb8032f7b6190a9bce1a9836f4.html#aa4f5e0eb8032f7b6190a9bce1a9836f4" target="_top" xlink:title=" ">
<polygon fill="white" stroke="#666666" points="373,-52 216,-52 216,-22 373,-22 373,-52"/>
<text text-anchor="start" x="224" y="-40" font-family="Helvetica,sans-Serif" font-size="10.00">Terraria.ModLoader.IO.Player</text>
<text text-anchor="middle" x="294.5" y="-29" font-family="Helvetica,sans-Serif" font-size="10.00">IO.SaveInventory</text>
</a>
</g>
</g>
<!-- Node1&#45;&gt;Node2 -->
<g id="edge1_Node000001_Node000002" class="edge">
<title>Node1&#45;&gt;Node2</title>
<g id="a_edge1_Node000001_Node000002"><a xlink:title=" ">
<path fill="none" stroke="#63b8ff" d="M180.11,-37C188.56,-37 197.13,-37 205.56,-37"/>
<polygon fill="#63b8ff" stroke="#63b8ff" points="205.78,-40.5 215.78,-37 205.78,-33.5 205.78,-40.5"/>
</a>
</g>
</g>
<!-- Node3 -->
<g id="Node000003" class="node">
<title>Node3</title>
<g id="a_Node000003"><a xlink:href="../../d7/de6/classTerraria_1_1ModLoader_1_1ItemLoader_aa991a5fac9a39cb28729b887d1c1bb3e.html#aa991a5fac9a39cb28729b887d1c1bb3e" target="_top" xlink:title=" ">
<polygon fill="white" stroke="#666666" points="579,-118 409,-118 409,-88 579,-88 579,-118"/>
<text text-anchor="start" x="417" y="-106" font-family="Helvetica,sans-Serif" font-size="10.00">Terraria.ModLoader.ItemLoader.</text>
<text text-anchor="middle" x="494" y="-95" font-family="Helvetica,sans-Serif" font-size="10.00">NeedsModSaving</text>
</a>
</g>
</g>
<!-- Node2&#45;&gt;Node3 -->
<g id="edge2_Node000002_Node000003" class="edge">
<title>Node2&#45;&gt;Node3</title>
<g id="a_edge2_Node000002_Node000003"><a xlink:title=" ">
<path fill="none" stroke="#63b8ff" d="M333.86,-52.02C355.73,-60.38 383.74,-70.73 409,-79 415.29,-81.06 421.89,-83.12 428.49,-85.11"/>
<polygon fill="#63b8ff" stroke="#63b8ff" points="427.56,-88.48 438.14,-87.98 429.55,-81.77 427.56,-88.48"/>
</a>
</g>
</g>
<!-- Node4 -->
<g id="Node000004" class="node">
<title>Node4</title>
<g id="a_Node000004"><a xlink:href="../../d0/d8b/classTerraria_1_1ModLoader_1_1IO_1_1ItemIO_a4b3724a8fd2755be65d05870f988c1e8.html#a4b3724a8fd2755be65d05870f988c1e8" target="_top" xlink:title=" ">
<polygon fill="white" stroke="#666666" points="568.5,-52 419.5,-52 419.5,-22 568.5,-22 568.5,-52"/>
<text text-anchor="start" x="427.5" y="-40" font-family="Helvetica,sans-Serif" font-size="10.00">Terraria.ModLoader.IO.Item</text>
<text text-anchor="middle" x="494" y="-29" font-family="Helvetica,sans-Serif" font-size="10.00">IO.Save</text>
</a>
</g>
</g>
<!-- Node2&#45;&gt;Node4 -->
<g id="edge3_Node000002_Node000004" class="edge">
<title>Node2&#45;&gt;Node4</title>
<g id="a_edge3_Node000002_Node000004"><a xlink:title=" ">
<path fill="none" stroke="#63b8ff" d="M373.27,-37C385.05,-37 397.23,-37 409.13,-37"/>
<polygon fill="#63b8ff" stroke="#63b8ff" points="409.49,-40.5 419.49,-37 409.49,-33.5 409.49,-40.5"/>
</a>
</g>
</g>
<!-- Node5 -->
<g id="Node000005" class="node">
<title>Node5</title>
<g id="a_Node000005"><a xlink:href="../../d0/d8b/classTerraria_1_1ModLoader_1_1IO_1_1ItemIO_afa144e9d902c3caff1846c54821b4ff5.html#afa144e9d902c3caff1846c54821b4ff5" target="_top" xlink:title=" ">
<polygon fill="white" stroke="#666666" points="764,-30 615,-30 615,0 764,0 764,-30"/>
<text text-anchor="start" x="623" y="-18" font-family="Helvetica,sans-Serif" font-size="10.00">Terraria.ModLoader.IO.Item</text>
<text text-anchor="middle" x="689.5" y="-7" font-family="Helvetica,sans-Serif" font-size="10.00">IO.SaveGlobals</text>
</a>
</g>
</g>
<!-- Node2&#45;&gt;Node5 -->
<g id="edge6_Node000002_Node000005" class="edge">
<title>Node2&#45;&gt;Node5</title>
<g id="a_edge6_Node000002_Node000005"><a xlink:title=" ">
<path fill="none" stroke="#63b8ff" d="M355.21,-21.94C372.45,-18.26 391.37,-14.84 409,-13 474.43,-6.16 548.94,-7.12 604.56,-9.55"/>
<polygon fill="#63b8ff" stroke="#63b8ff" points="604.57,-13.05 614.72,-10.01 604.9,-6.06 604.57,-13.05"/>
</a>
</g>
</g>
<!-- Node4&#45;&gt;Node4 -->
<g id="edge4_Node000004_Node000004" class="edge">
<title>Node4&#45;&gt;Node4</title>
<g id="a_edge4_Node000004_Node000004"><a xlink:title=" ">
<path fill="none" stroke="#63b8ff" d="M459.9,-52.28C452.32,-61.41 463.69,-70 494,-70 512,-70 523.32,-66.97 527.96,-62.6"/>
<polygon fill="#63b8ff" stroke="#63b8ff" points="531.46,-62.32 528.1,-52.28 524.46,-62.23 531.46,-62.32"/>
</a>
</g>
</g>
<!-- Node4&#45;&gt;Node5 -->
<g id="edge5_Node000004_Node000005" class="edge">
<title>Node4&#45;&gt;Node5</title>
<g id="a_edge5_Node000004_Node000005"><a xlink:title=" ">
<path fill="none" stroke="#63b8ff" d="M568.71,-28.62C580.55,-27.27 592.89,-25.87 604.95,-24.5"/>
<polygon fill="#63b8ff" stroke="#63b8ff" points="605.46,-27.96 615,-23.36 604.67,-21.01 605.46,-27.96"/>
</a>
</g>
</g>
</g>
</svg>

<g id="navigator" transform="translate(0 0)" fill="#404254">
  <rect fill="#f2f5e9" fill-opacity="0.5" stroke="#606060" stroke-width=".5" x="0" y="0" width="60" height="60"/>
  <use id="zoomplus" xlink:href="#zoomPlus" x="17" y="9" onmousedown="handleZoom(evt,'in')"/>
  <use id="zoomminus" xlink:href="#zoomMin" x="42" y="9" onmousedown="handleZoom(evt,'out')"/>
  <use id="reset" xlink:href="#resetDef" x="30" y="36" onmousedown="handleReset()"/>
   <use id="arrowup" xlink:href="#arrowUp" x="0" y="0" onmousedown="handlePan(0,-1)"/>
  <use id="arrowright" xlink:href="#arrowRight" x="0" y="0" onmousedown="handlePan(1,0)"/>
  <use id="arrowdown" xlink:href="#arrowDown" x="0" y="0" onmousedown="handlePan(0,1)"/>
  <use id="arrowleft" xlink:href="#arrowLeft" x="0" y="0" onmousedown="handlePan(-1,0)"/>
</g>
<svg viewBox="0 0 15 15" width="100%" height="30px" preserveAspectRatio="xMaxYMin meet">
 <g id="arrow_out" transform="scale(0.3 0.3)">
  <a xlink:href="classTerraria_1_1GameContent_1_1Tile__Entities_1_1TEDisplayDoll_a124bddbba67a717e385671088f1eb605_a124bddbba67a717e385671088f1eb605_cgraph_org.svg" target="_base">
   <rect id="button" ry="5" rx="5" y="6" x="6" height="38" width="38"
        fill="#f2f5e9" fill-opacity="0.5" stroke="#606060" stroke-width="1.0"/>
   <path id="arrow"
     d="M 11.500037,31.436501 C 11.940474,20.09759 22.043105,11.32322 32.158766,21.979434 L 37.068811,17.246167 C 37.068811,17.246167 37.088388,32 37.088388,32 L 22.160133,31.978069 C 22.160133,31.978069 26.997745,27.140456 26.997745,27.140456 C 18.528582,18.264221 13.291696,25.230495 11.500037,31.436501 z"
     style="fill:#404040;"/>
  </a>
 </g>
</svg>

<style type='text/css'>
<![CDATA[
[data-mouse-over-selected='false'] { opacity: 0.7; }
[data-mouse-over-selected='true']  { opacity: 1.0; }
]]>
</style>
<script type="application/ecmascript"><![CDATA[
document.addEventListener('DOMContentLoaded', (event) => {
  highlightEdges();
  highlightAdjacentNodes();
});
]]></script>
</svg>
