<?xml version="1.0" encoding="UTF-8" standalone="no"?>
<!DOCTYPE svg PUBLIC "-//W3C//DTD SVG 1.1//EN"
 "http://www.w3.org/Graphics/SVG/1.1/DTD/svg11.dtd">
<!-- Generated by graphviz version 2.43.0 (0)
 -->
<!-- Title: Terraria.ModLoader.ModEmoteBubble.PostDrawInEmoteMenu Pages: 1 -->
<svg width="623pt" height="38pt"
 viewBox="0.00 0.00 623.00 38.00" xmlns="http://www.w3.org/2000/svg" xmlns:xlink="http://www.w3.org/1999/xlink">
<g id="graph0" class="graph" transform="scale(1 1) rotate(0) translate(4 34)">
<title>Terraria.ModLoader.ModEmoteBubble.PostDrawInEmoteMenu</title>
<!-- Node1 -->
<g id="Node000001" class="node">
<title>Node1</title>
<g id="a_Node000001"><a xlink:title="Allows you to draw things in front of this emote bubble. This method is called even if PreDraw return...">
<polygon fill="#999999" stroke="#666666" points="615,-30 448,-30 448,0 615,0 615,-30"/>
<text text-anchor="start" x="456" y="-18" font-family="Helvetica,sans-Serif" font-size="10.00">Terraria.ModLoader.ModEmote</text>
<text text-anchor="middle" x="531.5" y="-7" font-family="Helvetica,sans-Serif" font-size="10.00">Bubble.PostDrawInEmoteMenu</text>
</a>
</g>
</g>
<!-- Node2 -->
<g id="Node000002" class="node">
<title>Node2</title>
<g id="a_Node000002"><a xlink:href="../../dd/dab/classTerraria_1_1ModLoader_1_1EmoteBubbleLoader_ae075a98a0bae39f30bdb2575742a8185.html#ae075a98a0bae39f30bdb2575742a8185" target="_top" xlink:title=" ">
<polygon fill="white" stroke="#666666" points="412,-30 212,-30 212,0 412,0 412,-30"/>
<text text-anchor="start" x="220" y="-18" font-family="Helvetica,sans-Serif" font-size="10.00">Terraria.ModLoader.Emote</text>
<text text-anchor="middle" x="312" y="-7" font-family="Helvetica,sans-Serif" font-size="10.00">BubbleLoader.PostDrawInEmoteMenu</text>
</a>
</g>
</g>
<!-- Node1&#45;&gt;Node2 -->
<g id="edge1_Node000001_Node000002" class="edge">
<title>Node1&#45;&gt;Node2</title>
<g id="a_edge1_Node000001_Node000002"><a xlink:title=" ">
<path fill="none" stroke="#63b8ff" d="M437.76,-15C429.33,-15 420.77,-15 412.29,-15"/>
<polygon fill="#63b8ff" stroke="#63b8ff" points="437.96,-18.5 447.96,-15 437.96,-11.5 437.96,-18.5"/>
</a>
</g>
</g>
<!-- Node3 -->
<g id="Node000003" class="node">
<title>Node3</title>
<g id="a_Node000003"><a xlink:href="../../df/d98/classTerraria_1_1GameContent_1_1UI_1_1Elements_1_1EmoteButton_aacfb72e382416a446ca5a6c8286dedc9.html#aacfb72e382416a446ca5a6c8286dedc9" target="_top" xlink:title=" ">
<polygon fill="white" stroke="#666666" points="176,-30 0,-30 0,0 176,0 176,-30"/>
<text text-anchor="start" x="8" y="-18" font-family="Helvetica,sans-Serif" font-size="10.00">Terraria.GameContent.UI.</text>
<text text-anchor="middle" x="88" y="-7" font-family="Helvetica,sans-Serif" font-size="10.00">Elements.EmoteButton.DrawSelf</text>
</a>
</g>
</g>
<!-- Node2&#45;&gt;Node3 -->
<g id="edge2_Node000002_Node000003" class="edge">
<title>Node2&#45;&gt;Node3</title>
<g id="a_edge2_Node000002_Node000003"><a xlink:title=" ">
<path fill="none" stroke="#63b8ff" d="M201.62,-15C193.04,-15 184.43,-15 176.03,-15"/>
<polygon fill="#63b8ff" stroke="#63b8ff" points="201.69,-18.5 211.69,-15 201.69,-11.5 201.69,-18.5"/>
</a>
</g>
</g>
</g>
</svg>
