<?xml version="1.0" encoding="UTF-8" standalone="no"?>
<!DOCTYPE svg PUBLIC "-//W3C//DTD SVG 1.1//EN"
 "http://www.w3.org/Graphics/SVG/1.1/DTD/svg11.dtd">
<!-- Generated by graphviz version 2.43.0 (0)
 -->
<!-- Title: Terraria.Social.Steam.SteamedWraps.InnerDownloadHandler Pages: 1 -->
<svg width="585pt" height="134pt"
 viewBox="0.00 0.00 585.00 134.00" xmlns="http://www.w3.org/2000/svg" xmlns:xlink="http://www.w3.org/1999/xlink">
<g id="graph0" class="graph" transform="scale(1 1) rotate(0) translate(4 130)">
<title>Terraria.Social.Steam.SteamedWraps.InnerDownloadHandler</title>
<!-- Node1 -->
<g id="Node000001" class="node">
<title>Node1</title>
<g id="a_Node000001"><a xlink:title=" ">
<polygon fill="#999999" stroke="#666666" points="167,-78 0,-78 0,-48 167,-48 167,-78"/>
<text text-anchor="start" x="8" y="-66" font-family="Helvetica,sans-Serif" font-size="10.00">Terraria.Social.Steam.Steamed</text>
<text text-anchor="middle" x="83.5" y="-55" font-family="Helvetica,sans-Serif" font-size="10.00">Wraps.InnerDownloadHandler</text>
</a>
</g>
</g>
<!-- Node2 -->
<g id="Node000002" class="node">
<title>Node2</title>
<g id="a_Node000002"><a xlink:href="../../d4/d8f/classTerraria_1_1Localization_1_1Language_ae4636a4800b9ecbaa498954520462f78.html#ae4636a4800b9ecbaa498954520462f78" target="_top" xlink:title="Retrieves the text value for a specified localization key. The text returned will be for the currentl...">
<polygon fill="white" stroke="#666666" points="372.5,-126 204.5,-126 204.5,-96 372.5,-96 372.5,-126"/>
<text text-anchor="start" x="212.5" y="-114" font-family="Helvetica,sans-Serif" font-size="10.00">Terraria.Localization.Language.</text>
<text text-anchor="middle" x="288.5" y="-103" font-family="Helvetica,sans-Serif" font-size="10.00">GetTextValue</text>
</a>
</g>
</g>
<!-- Node1&#45;&gt;Node2 -->
<g id="edge1_Node000001_Node000002" class="edge">
<title>Node1&#45;&gt;Node2</title>
<g id="a_edge1_Node000001_Node000002"><a xlink:title=" ">
<path fill="none" stroke="#63b8ff" d="M148.17,-78.06C169.15,-83.01 192.63,-88.57 214.26,-93.68"/>
<polygon fill="#63b8ff" stroke="#63b8ff" points="213.52,-97.1 224.05,-96 215.13,-90.29 213.52,-97.1"/>
</a>
</g>
</g>
<!-- Node4 -->
<g id="Node000004" class="node">
<title>Node4</title>
<g id="a_Node000004"><a xlink:href="../../d9/dcb/classTerraria_1_1Social_1_1Steam_1_1SteamedWraps_a89fe3f1fd04f90a28ea0f2775dbc2ffb.html#a89fe3f1fd04f90a28ea0f2775dbc2ffb" target="_top" xlink:title=" ">
<polygon fill="white" stroke="#666666" points="374,-78 203,-78 203,-48 374,-48 374,-78"/>
<text text-anchor="start" x="211" y="-66" font-family="Helvetica,sans-Serif" font-size="10.00">Terraria.Social.Steam.Steamed</text>
<text text-anchor="middle" x="288.5" y="-55" font-family="Helvetica,sans-Serif" font-size="10.00">Wraps.IsWorkshopItemInstalled</text>
</a>
</g>
</g>
<!-- Node1&#45;&gt;Node4 -->
<g id="edge3_Node000001_Node000004" class="edge">
<title>Node1&#45;&gt;Node4</title>
<g id="a_edge3_Node000001_Node000004"><a xlink:title=" ">
<path fill="none" stroke="#63b8ff" d="M167.07,-63C175.51,-63 184.13,-63 192.69,-63"/>
<polygon fill="#63b8ff" stroke="#63b8ff" points="192.7,-66.5 202.7,-63 192.7,-59.5 192.7,-66.5"/>
</a>
</g>
</g>
<!-- Node6 -->
<g id="Node000006" class="node">
<title>Node6</title>
<g id="a_Node000006"><a xlink:href="../../d1/d9c/classTerraria_1_1Utils_a29ba291156952f0339deb91b104573b9.html#a29ba291156952f0339deb91b104573b9" target="_top" xlink:title=" ">
<polygon fill="white" stroke="#666666" points="367,-30 210,-30 210,0 367,0 367,-30"/>
<text text-anchor="start" x="218" y="-18" font-family="Helvetica,sans-Serif" font-size="10.00">Terraria.Utils.LogAndConsole</text>
<text text-anchor="middle" x="288.5" y="-7" font-family="Helvetica,sans-Serif" font-size="10.00">InfoMessage</text>
</a>
</g>
</g>
<!-- Node1&#45;&gt;Node6 -->
<g id="edge5_Node000001_Node000006" class="edge">
<title>Node1&#45;&gt;Node6</title>
<g id="a_edge5_Node000001_Node000006"><a xlink:title=" ">
<path fill="none" stroke="#63b8ff" d="M148.17,-47.94C169.15,-42.99 192.63,-37.43 214.26,-32.32"/>
<polygon fill="#63b8ff" stroke="#63b8ff" points="215.13,-35.71 224.05,-30 213.52,-28.9 215.13,-35.71"/>
</a>
</g>
</g>
<!-- Node3 -->
<g id="Node000003" class="node">
<title>Node3</title>
<g id="a_Node000003"><a xlink:href="../../d8/d74/classTerraria_1_1Localization_1_1LanguageManager_a9f1901e50105d9873d2fdf8816e122de.html#a9f1901e50105d9873d2fdf8816e122de" target="_top" xlink:title=" ">
<polygon fill="white" stroke="#666666" points="576,-126 411,-126 411,-96 576,-96 576,-126"/>
<text text-anchor="start" x="419" y="-114" font-family="Helvetica,sans-Serif" font-size="10.00">Terraria.Localization.Language</text>
<text text-anchor="middle" x="493.5" y="-103" font-family="Helvetica,sans-Serif" font-size="10.00">Manager.GetTextValue</text>
</a>
</g>
</g>
<!-- Node2&#45;&gt;Node3 -->
<g id="edge2_Node000002_Node000003" class="edge">
<title>Node2&#45;&gt;Node3</title>
<g id="a_edge2_Node000002_Node000003"><a xlink:title=" ">
<path fill="none" stroke="#63b8ff" d="M372.65,-111C381.9,-111 391.36,-111 400.7,-111"/>
<polygon fill="#63b8ff" stroke="#63b8ff" points="400.79,-114.5 410.79,-111 400.79,-107.5 400.79,-114.5"/>
</a>
</g>
</g>
<!-- Node5 -->
<g id="Node000005" class="node">
<title>Node5</title>
<g id="a_Node000005"><a xlink:href="../../d9/dcb/classTerraria_1_1Social_1_1Steam_1_1SteamedWraps_ac97179bd682e574dd183bc880ef0b333.html#ac97179bd682e574dd183bc880ef0b333" target="_top" xlink:title=" ">
<polygon fill="white" stroke="#666666" points="577,-78 410,-78 410,-48 577,-48 577,-78"/>
<text text-anchor="start" x="418" y="-66" font-family="Helvetica,sans-Serif" font-size="10.00">Terraria.Social.Steam.Steamed</text>
<text text-anchor="middle" x="493.5" y="-55" font-family="Helvetica,sans-Serif" font-size="10.00">Wraps.GetWorkshopItemState</text>
</a>
</g>
</g>
<!-- Node4&#45;&gt;Node5 -->
<g id="edge4_Node000004_Node000005" class="edge">
<title>Node4&#45;&gt;Node5</title>
<g id="a_edge4_Node000004_Node000005"><a xlink:title=" ">
<path fill="none" stroke="#63b8ff" d="M374.12,-63C382.64,-63 391.33,-63 399.93,-63"/>
<polygon fill="#63b8ff" stroke="#63b8ff" points="399.97,-66.5 409.97,-63 399.97,-59.5 399.97,-66.5"/>
</a>
</g>
</g>
</g>
</svg>
