<?xml version="1.0" encoding="UTF-8" standalone="no"?>
<!DOCTYPE svg PUBLIC "-//W3C//DTD SVG 1.1//EN"
 "http://www.w3.org/Graphics/SVG/1.1/DTD/svg11.dtd">
<!-- Generated by graphviz version 2.43.0 (0)
 -->
<!-- Title: Terraria.TileData.Unload Pages: 1 -->
<svg width="358pt" height="138pt"
 viewBox="0.00 0.00 358.00 138.00" xmlns="http://www.w3.org/2000/svg" xmlns:xlink="http://www.w3.org/1999/xlink">
<g id="graph0" class="graph" transform="scale(1 1) rotate(0) translate(4 134)">
<title>Terraria.TileData.Unload</title>
<!-- Node1 -->
<g id="Node000001" class="node">
<title>Node1</title>
<g id="a_Node000001"><a xlink:title=" ">
<polygon fill="#999999" stroke="#666666" points="135,-74 0,-74 0,-55 135,-55 135,-74"/>
<text text-anchor="middle" x="67.5" y="-62" font-family="Helvetica,sans-Serif" font-size="10.00">Terraria.TileData.Unload</text>
</a>
</g>
</g>
<!-- Node2 -->
<g id="Node000002" class="node">
<title>Node2</title>
<g id="a_Node000002"><a xlink:href="../../d2/d25/classTerraria_1_1TileData_a48858c17844c45ec5cb5ddd280343ad0.html#a48858c17844c45ec5cb5ddd280343ad0" target="_top" xlink:title=" ">
<polygon fill="white" stroke="#666666" points="350,-130 171,-130 171,-111 350,-111 350,-130"/>
<text text-anchor="middle" x="260.5" y="-118" font-family="Helvetica,sans-Serif" font-size="10.00">Terraria.TileData.ClearEverything</text>
</a>
</g>
</g>
<!-- Node1&#45;&gt;Node2 -->
<g id="edge1_Node000001_Node000002" class="edge">
<title>Node1&#45;&gt;Node2</title>
<g id="a_edge1_Node000001_Node000002"><a xlink:title=" ">
<path fill="none" stroke="#63b8ff" d="M91.37,-74.14C111.92,-82.52 143.08,-94.54 171,-102.5 179.02,-104.79 187.53,-106.9 195.97,-108.81"/>
<polygon fill="#63b8ff" stroke="#63b8ff" points="195.31,-112.25 205.83,-110.97 196.81,-105.41 195.31,-112.25"/>
</a>
</g>
</g>
<!-- Node3 -->
<g id="Node000003" class="node">
<title>Node3</title>
<g id="a_Node000003"><a xlink:href="../../d2/d25/classTerraria_1_1TileData_ac6e3b46bd7cd9fc23f6403af8c3bd6c1.html#ac6e3b46bd7cd9fc23f6403af8c3bd6c1" target="_top" xlink:title=" ">
<polygon fill="white" stroke="#666666" points="338.5,-93 182.5,-93 182.5,-74 338.5,-74 338.5,-93"/>
<text text-anchor="middle" x="260.5" y="-81" font-family="Helvetica,sans-Serif" font-size="10.00">Terraria.TileData.ClearSingle</text>
</a>
</g>
</g>
<!-- Node1&#45;&gt;Node3 -->
<g id="edge2_Node000001_Node000003" class="edge">
<title>Node1&#45;&gt;Node3</title>
<g id="a_edge2_Node000001_Node000003"><a xlink:title=" ">
<path fill="none" stroke="#63b8ff" d="M135.03,-71.12C147.1,-72.32 159.84,-73.59 172.39,-74.83"/>
<polygon fill="#63b8ff" stroke="#63b8ff" points="172.1,-78.32 182.4,-75.83 172.79,-71.36 172.1,-78.32"/>
</a>
</g>
</g>
<!-- Node4 -->
<g id="Node000004" class="node">
<title>Node4</title>
<g id="a_Node000004"><a xlink:href="../../d2/d25/classTerraria_1_1TileData_a642a1043b052b9e850d865e1ae46ff48.html#a642a1043b052b9e850d865e1ae46ff48" target="_top" xlink:title=" ">
<polygon fill="white" stroke="#666666" points="338,-56 183,-56 183,-37 338,-37 338,-56"/>
<text text-anchor="middle" x="260.5" y="-44" font-family="Helvetica,sans-Serif" font-size="10.00">Terraria.TileData.CopySingle</text>
</a>
</g>
</g>
<!-- Node1&#45;&gt;Node4 -->
<g id="edge3_Node000001_Node000004" class="edge">
<title>Node1&#45;&gt;Node4</title>
<g id="a_edge3_Node000001_Node000004"><a xlink:title=" ">
<path fill="none" stroke="#63b8ff" d="M135.03,-58.23C147.18,-57.08 160.02,-55.87 172.66,-54.68"/>
<polygon fill="#63b8ff" stroke="#63b8ff" points="173.1,-58.16 182.73,-53.74 172.44,-51.19 173.1,-58.16"/>
</a>
</g>
</g>
<!-- Node5 -->
<g id="Node000005" class="node">
<title>Node5</title>
<g id="a_Node000005"><a xlink:href="../../d2/d25/classTerraria_1_1TileData_a984cbf0cb01572be5eb5d8b94eef5bfa.html#a984cbf0cb01572be5eb5d8b94eef5bfa" target="_top" xlink:title=" ">
<polygon fill="white" stroke="#666666" points="335,-19 186,-19 186,0 335,0 335,-19"/>
<text text-anchor="middle" x="260.5" y="-7" font-family="Helvetica,sans-Serif" font-size="10.00">Terraria.TileData.SetLength</text>
</a>
</g>
</g>
<!-- Node1&#45;&gt;Node5 -->
<g id="edge4_Node000001_Node000005" class="edge">
<title>Node1&#45;&gt;Node5</title>
<g id="a_edge4_Node000001_Node000005"><a xlink:title=" ">
<path fill="none" stroke="#63b8ff" d="M93.07,-54.88C113.67,-47.07 143.95,-36.12 171,-28.5 180.21,-25.91 190.04,-23.47 199.67,-21.27"/>
<polygon fill="#63b8ff" stroke="#63b8ff" points="200.61,-24.65 209.61,-19.06 199.09,-17.81 200.61,-24.65"/>
</a>
</g>
</g>
</g>
</svg>
