<?xml version="1.0" encoding="UTF-8" standalone="no"?>
<!DOCTYPE svg PUBLIC "-//W3C//DTD SVG 1.1//EN"
 "http://www.w3.org/Graphics/SVG/1.1/DTD/svg11.dtd">
<!-- Generated by graphviz version 2.43.0 (0)
 -->
<!-- Title: Terraria.Social.Steam.WorkshopHelper.UGCBased.APublisherInstance.CreateItemResult Pages: 1 -->
<svg width="1786pt" height="639pt"
 viewBox="0.00 0.00 1786.00 638.50" xmlns="http://www.w3.org/2000/svg" xmlns:xlink="http://www.w3.org/1999/xlink">
<g id="graph0" class="graph" transform="scale(1 1) rotate(0) translate(4 634.5)">
<title>Terraria.Social.Steam.WorkshopHelper.UGCBased.APublisherInstance.CreateItemResult</title>
<!-- Node1 -->
<g id="Node000001" class="node">
<title>Node1</title>
<g id="a_Node000001"><a xlink:title=" ">
<polygon fill="#999999" stroke="#666666" points="202,-484.5 0,-484.5 0,-443.5 202,-443.5 202,-484.5"/>
<text text-anchor="start" x="8" y="-472.5" font-family="Helvetica,sans-Serif" font-size="10.00">Terraria.Social.Steam.Workshop</text>
<text text-anchor="start" x="8" y="-461.5" font-family="Helvetica,sans-Serif" font-size="10.00">Helper.UGCBased.APublisherInstance.</text>
<text text-anchor="middle" x="101" y="-450.5" font-family="Helvetica,sans-Serif" font-size="10.00">CreateItemResult</text>
</a>
</g>
</g>
<!-- Node2 -->
<g id="Node000002" class="node">
<title>Node2</title>
<g id="a_Node000002"><a xlink:href="../../d9/dcb/classTerraria_1_1Social_1_1Steam_1_1SteamedWraps_a2ef1f00eb6fdb0ed4e0cf839e1133718.html#a2ef1f00eb6fdb0ed4e0cf839e1133718" target="_top" xlink:title=" ">
<polygon fill="white" stroke="#666666" points="898.5,-362 731.5,-362 731.5,-332 898.5,-332 898.5,-362"/>
<text text-anchor="start" x="739.5" y="-350" font-family="Helvetica,sans-Serif" font-size="10.00">Terraria.Social.Steam.Steamed</text>
<text text-anchor="middle" x="815" y="-339" font-family="Helvetica,sans-Serif" font-size="10.00">Wraps.ReportCheckSteamLogs</text>
</a>
</g>
</g>
<!-- Node1&#45;&gt;Node2 -->
<g id="edge1_Node000001_Node000002" class="edge">
<title>Node1&#45;&gt;Node2</title>
<g id="a_edge1_Node000001_Node000002"><a xlink:title=" ">
<path fill="none" stroke="#63b8ff" d="M187.72,-443.44C263.24,-425.91 376.42,-401.08 476,-385 558.48,-371.68 653.03,-361.48 721.12,-355.01"/>
<polygon fill="#63b8ff" stroke="#63b8ff" points="721.77,-358.47 731.39,-354.05 721.11,-351.5 721.77,-358.47"/>
</a>
</g>
</g>
<!-- Node6 -->
<g id="Node000006" class="node">
<title>Node6</title>
<g id="a_Node000006"><a xlink:href="../../df/d4a/classTerraria_1_1Social_1_1Base_1_1WorkshopIssueReporter_a13b09290496f4ce68f2ad8e4fbab2691.html#a13b09290496f4ce68f2ad8e4fbab2691" target="_top" xlink:title=" ">
<polygon fill="white" stroke="#666666" points="912,-435.5 718,-435.5 718,-394.5 912,-394.5 912,-435.5"/>
<text text-anchor="start" x="726" y="-423.5" font-family="Helvetica,sans-Serif" font-size="10.00">Terraria.Social.Base.Workshop</text>
<text text-anchor="start" x="726" y="-412.5" font-family="Helvetica,sans-Serif" font-size="10.00">IssueReporter.ReportDelayedUpload</text>
<text text-anchor="middle" x="815" y="-401.5" font-family="Helvetica,sans-Serif" font-size="10.00">Problem</text>
</a>
</g>
</g>
<!-- Node1&#45;&gt;Node6 -->
<g id="edge5_Node000001_Node000006" class="edge">
<title>Node1&#45;&gt;Node6</title>
<g id="a_edge5_Node000001_Node000006"><a xlink:title=" ">
<path fill="none" stroke="#63b8ff" d="M202.05,-465.82C317.27,-466.7 512.03,-464.42 678,-444 691.3,-442.36 705.23,-440.07 718.89,-437.49"/>
<polygon fill="#63b8ff" stroke="#63b8ff" points="719.64,-440.91 728.78,-435.56 718.29,-434.04 719.64,-440.91"/>
</a>
</g>
</g>
<!-- Node10 -->
<g id="Node000010" class="node">
<title>Node10</title>
<g id="a_Node000010"><a xlink:href="../../df/d4a/classTerraria_1_1Social_1_1Base_1_1WorkshopIssueReporter_a766e6e06c1dd352b104dbcad25e1c546.html#a766e6e06c1dd352b104dbcad25e1c546" target="_top" xlink:title=" ">
<polygon fill="white" stroke="#666666" points="1150.5,-484.5 956.5,-484.5 956.5,-443.5 1150.5,-443.5 1150.5,-484.5"/>
<text text-anchor="start" x="964.5" y="-472.5" font-family="Helvetica,sans-Serif" font-size="10.00">Terraria.Social.Base.Workshop</text>
<text text-anchor="start" x="964.5" y="-461.5" font-family="Helvetica,sans-Serif" font-size="10.00">IssueReporter.ReportDelayedUpload</text>
<text text-anchor="middle" x="1053.5" y="-450.5" font-family="Helvetica,sans-Serif" font-size="10.00">ProblemWithoutKnownReason</text>
</a>
</g>
</g>
<!-- Node1&#45;&gt;Node10 -->
<g id="edge10_Node000001_Node000010" class="edge">
<title>Node1&#45;&gt;Node10</title>
<g id="a_edge10_Node000001_Node000010"><a xlink:title=" ">
<path fill="none" stroke="#63b8ff" d="M202.16,-476.31C214.22,-477.42 226.38,-478.36 238,-479 491.91,-492.96 790.94,-479.91 946.46,-470.91"/>
<polygon fill="#63b8ff" stroke="#63b8ff" points="946.72,-474.4 956.5,-470.32 946.31,-467.41 946.72,-474.4"/>
</a>
</g>
</g>
<!-- Node15 -->
<g id="Node000015" class="node">
<title>Node15</title>
<g id="a_Node000015"><a xlink:href="../../d0/d47/classTerraria_1_1Social_1_1Steam_1_1WorkshopHelper_1_1UGCBased_1_1APublisherInstance_aa20562ba9a078a81bf75ba43351472b1.html#aa20562ba9a078a81bf75ba43351472b1" target="_top" xlink:title=" ">
<polygon fill="white" stroke="#666666" points="440,-250.5 238,-250.5 238,-209.5 440,-209.5 440,-250.5"/>
<text text-anchor="start" x="246" y="-238.5" font-family="Helvetica,sans-Serif" font-size="10.00">Terraria.Social.Steam.Workshop</text>
<text text-anchor="start" x="246" y="-227.5" font-family="Helvetica,sans-Serif" font-size="10.00">Helper.UGCBased.APublisherInstance.</text>
<text text-anchor="middle" x="339" y="-216.5" font-family="Helvetica,sans-Serif" font-size="10.00">UpdateItem</text>
</a>
</g>
</g>
<!-- Node1&#45;&gt;Node15 -->
<g id="edge18_Node000001_Node000015" class="edge">
<title>Node1&#45;&gt;Node15</title>
<g id="a_edge18_Node000001_Node000015"><a xlink:title=" ">
<path fill="none" stroke="#63b8ff" d="M122.94,-443.23C165.45,-401.08 261.89,-305.47 309.84,-257.92"/>
<polygon fill="#63b8ff" stroke="#63b8ff" points="312.47,-260.25 317.1,-250.72 307.54,-255.27 312.47,-260.25"/>
</a>
</g>
</g>
<!-- Node22 -->
<g id="Node000022" class="node">
<title>Node22</title>
<g id="a_Node000022"><a xlink:href="../../d0/d47/classTerraria_1_1Social_1_1Steam_1_1WorkshopHelper_1_1UGCBased_1_1APublisherInstance_a676edadbe5b2b02ee9e4e8b230914f86.html#a676edadbe5b2b02ee9e4e8b230914f86" target="_top" xlink:title=" ">
<polygon fill="white" stroke="#666666" points="678,-571.5 476,-571.5 476,-530.5 678,-530.5 678,-571.5"/>
<text text-anchor="start" x="484" y="-559.5" font-family="Helvetica,sans-Serif" font-size="10.00">Terraria.Social.Steam.Workshop</text>
<text text-anchor="start" x="484" y="-548.5" font-family="Helvetica,sans-Serif" font-size="10.00">Helper.UGCBased.APublisherInstance.</text>
<text text-anchor="middle" x="577" y="-537.5" font-family="Helvetica,sans-Serif" font-size="10.00">WrappedWriteManifest</text>
</a>
</g>
</g>
<!-- Node1&#45;&gt;Node22 -->
<g id="edge40_Node000001_Node000022" class="edge">
<title>Node1&#45;&gt;Node22</title>
<g id="a_edge40_Node000001_Node000022"><a xlink:title=" ">
<path fill="none" stroke="#63b8ff" d="M147.01,-484.63C173.06,-495.69 206.77,-508.55 238,-516 312.78,-533.84 399.01,-542.59 465.65,-546.87"/>
<polygon fill="#63b8ff" stroke="#63b8ff" points="465.56,-550.38 475.76,-547.5 465.99,-543.39 465.56,-550.38"/>
</a>
</g>
</g>
<!-- Node3 -->
<g id="Node000003" class="node">
<title>Node3</title>
<g id="a_Node000003"><a xlink:href="../../d4/d8f/classTerraria_1_1Localization_1_1Language_ae4636a4800b9ecbaa498954520462f78.html#ae4636a4800b9ecbaa498954520462f78" target="_top" xlink:title="Retrieves the text value for a specified localization key. The text returned will be for the currentl...">
<polygon fill="white" stroke="#666666" points="1137.5,-348 969.5,-348 969.5,-318 1137.5,-318 1137.5,-348"/>
<text text-anchor="start" x="977.5" y="-336" font-family="Helvetica,sans-Serif" font-size="10.00">Terraria.Localization.Language.</text>
<text text-anchor="middle" x="1053.5" y="-325" font-family="Helvetica,sans-Serif" font-size="10.00">GetTextValue</text>
</a>
</g>
</g>
<!-- Node2&#45;&gt;Node3 -->
<g id="edge2_Node000002_Node000003" class="edge">
<title>Node2&#45;&gt;Node3</title>
<g id="a_edge2_Node000002_Node000003"><a xlink:title=" ">
<path fill="none" stroke="#63b8ff" d="M898.72,-342.1C918.32,-340.94 939.35,-339.7 959.38,-338.51"/>
<polygon fill="#63b8ff" stroke="#63b8ff" points="959.66,-342 969.43,-337.92 959.24,-335.01 959.66,-342"/>
</a>
</g>
</g>
<!-- Node5 -->
<g id="Node000005" class="node">
<title>Node5</title>
<g id="a_Node000005"><a xlink:href="../../d1/d9c/classTerraria_1_1Utils_a29ba291156952f0339deb91b104573b9.html#a29ba291156952f0339deb91b104573b9" target="_top" xlink:title=" ">
<polygon fill="white" stroke="#666666" points="1132,-272 975,-272 975,-242 1132,-242 1132,-272"/>
<text text-anchor="start" x="983" y="-260" font-family="Helvetica,sans-Serif" font-size="10.00">Terraria.Utils.LogAndConsole</text>
<text text-anchor="middle" x="1053.5" y="-249" font-family="Helvetica,sans-Serif" font-size="10.00">InfoMessage</text>
</a>
</g>
</g>
<!-- Node2&#45;&gt;Node5 -->
<g id="edge4_Node000002_Node000005" class="edge">
<title>Node2&#45;&gt;Node5</title>
<g id="a_edge4_Node000002_Node000005"><a xlink:title=" ">
<path fill="none" stroke="#63b8ff" d="M855.58,-331.94C896.17,-316.49 959.39,-292.43 1003.2,-275.76"/>
<polygon fill="#63b8ff" stroke="#63b8ff" points="1004.68,-278.94 1012.79,-272.11 1002.2,-272.4 1004.68,-278.94"/>
</a>
</g>
</g>
<!-- Node4 -->
<g id="Node000004" class="node">
<title>Node4</title>
<g id="a_Node000004"><a xlink:href="../../d8/d74/classTerraria_1_1Localization_1_1LanguageManager_a9f1901e50105d9873d2fdf8816e122de.html#a9f1901e50105d9873d2fdf8816e122de" target="_top" xlink:title=" ">
<polygon fill="white" stroke="#666666" points="1366.5,-347 1201.5,-347 1201.5,-317 1366.5,-317 1366.5,-347"/>
<text text-anchor="start" x="1209.5" y="-335" font-family="Helvetica,sans-Serif" font-size="10.00">Terraria.Localization.Language</text>
<text text-anchor="middle" x="1284" y="-324" font-family="Helvetica,sans-Serif" font-size="10.00">Manager.GetTextValue</text>
</a>
</g>
</g>
<!-- Node3&#45;&gt;Node4 -->
<g id="edge3_Node000003_Node000004" class="edge">
<title>Node3&#45;&gt;Node4</title>
<g id="a_edge3_Node000003_Node000004"><a xlink:title=" ">
<path fill="none" stroke="#63b8ff" d="M1137.64,-332.64C1155.03,-332.56 1173.46,-332.48 1191.14,-332.4"/>
<polygon fill="#63b8ff" stroke="#63b8ff" points="1191.47,-335.9 1201.45,-332.36 1191.43,-328.9 1191.47,-335.9"/>
</a>
</g>
</g>
<!-- Node6&#45;&gt;Node3 -->
<g id="edge7_Node000006_Node000003" class="edge">
<title>Node6&#45;&gt;Node3</title>
<g id="a_edge7_Node000006_Node000003"><a xlink:title=" ">
<path fill="none" stroke="#63b8ff" d="M867.01,-394.45C892.39,-384.5 923.64,-372.64 952,-363 964.04,-358.91 976.99,-354.82 989.46,-351.03"/>
<polygon fill="#63b8ff" stroke="#63b8ff" points="990.75,-354.29 999.32,-348.06 988.74,-347.59 990.75,-354.29"/>
</a>
</g>
</g>
<!-- Node7 -->
<g id="Node000007" class="node">
<title>Node7</title>
<g id="a_Node000007"><a xlink:href="../../df/d4a/classTerraria_1_1Social_1_1Base_1_1WorkshopIssueReporter_a514872a1a37c2b41a4c17bee745b7bc3.html#a514872a1a37c2b41a4c17bee745b7bc3" target="_top" xlink:title=" ">
<polygon fill="white" stroke="#666666" points="1366,-539 1202,-539 1202,-509 1366,-509 1366,-539"/>
<text text-anchor="start" x="1210" y="-527" font-family="Helvetica,sans-Serif" font-size="10.00">Terraria.Social.Base.Workshop</text>
<text text-anchor="middle" x="1284" y="-516" font-family="Helvetica,sans-Serif" font-size="10.00">IssueReporter.AddReport</text>
</a>
</g>
</g>
<!-- Node6&#45;&gt;Node7 -->
<g id="edge6_Node000006_Node000007" class="edge">
<title>Node6&#45;&gt;Node7</title>
<g id="a_edge6_Node000006_Node000007"><a xlink:title=" ">
<path fill="none" stroke="#63b8ff" d="M834.73,-435.53C868.43,-472.23 937.19,-545.83 952,-552 1045.18,-590.8 1165.66,-563.46 1232.56,-542.28"/>
<polygon fill="#63b8ff" stroke="#63b8ff" points="1234,-545.49 1242.43,-539.08 1231.83,-538.84 1234,-545.49"/>
</a>
</g>
</g>
<!-- Node8 -->
<g id="Node000008" class="node">
<title>Node8</title>
<g id="a_Node000008"><a xlink:href="../../d1/d9c/classTerraria_1_1Utils_ac3fa6a22866a70bb9e3181201c14ec07.html#ac3fa6a22866a70bb9e3181201c14ec07" target="_top" xlink:title=" ">
<polygon fill="white" stroke="#666666" points="1362.5,-443 1205.5,-443 1205.5,-413 1362.5,-413 1362.5,-443"/>
<text text-anchor="start" x="1213.5" y="-431" font-family="Helvetica,sans-Serif" font-size="10.00">Terraria.Utils.LogAndConsole</text>
<text text-anchor="middle" x="1284" y="-420" font-family="Helvetica,sans-Serif" font-size="10.00">ErrorMessage</text>
</a>
</g>
</g>
<!-- Node6&#45;&gt;Node8 -->
<g id="edge8_Node000006_Node000008" class="edge">
<title>Node6&#45;&gt;Node8</title>
<g id="a_edge8_Node000006_Node000008"><a xlink:title=" ">
<path fill="none" stroke="#63b8ff" d="M912.2,-417.68C995.41,-419.99 1114.72,-423.32 1195.34,-425.56"/>
<polygon fill="#63b8ff" stroke="#63b8ff" points="1195.37,-429.06 1205.47,-425.84 1195.57,-422.06 1195.37,-429.06"/>
</a>
</g>
</g>
<!-- Node9 -->
<g id="Node000009" class="node">
<title>Node9</title>
<g id="a_Node000009"><a xlink:href="../../df/d4a/classTerraria_1_1Social_1_1Base_1_1WorkshopIssueReporter_a73ca9adb56c3b3acc9d85083eb0f0747.html#a73ca9adb56c3b3acc9d85083eb0f0747" target="_top" xlink:title=" ">
<polygon fill="white" stroke="#666666" points="1377,-395 1191,-395 1191,-365 1377,-365 1377,-395"/>
<text text-anchor="start" x="1199" y="-383" font-family="Helvetica,sans-Serif" font-size="10.00">Terraria.Social.Base.Workshop</text>
<text text-anchor="middle" x="1284" y="-372" font-family="Helvetica,sans-Serif" font-size="10.00">IssueReporter.NotifyReportsScreen</text>
</a>
</g>
</g>
<!-- Node6&#45;&gt;Node9 -->
<g id="edge9_Node000006_Node000009" class="edge">
<title>Node6&#45;&gt;Node9</title>
<g id="a_edge9_Node000006_Node000009"><a xlink:title=" ">
<path fill="none" stroke="#63b8ff" d="M912.2,-407.79C990.55,-401.92 1100.89,-393.65 1180.82,-387.66"/>
<polygon fill="#63b8ff" stroke="#63b8ff" points="1181.19,-391.14 1190.9,-386.9 1180.67,-384.16 1181.19,-391.14"/>
</a>
</g>
</g>
<!-- Node10&#45;&gt;Node7 -->
<g id="edge11_Node000010_Node000007" class="edge">
<title>Node10&#45;&gt;Node7</title>
<g id="a_edge11_Node000010_Node000007"><a xlink:title=" ">
<path fill="none" stroke="#63b8ff" d="M1132.09,-484.5C1151.34,-489.58 1171.92,-494.99 1191,-500 1198.83,-502.05 1207.04,-504.2 1215.19,-506.33"/>
<polygon fill="#63b8ff" stroke="#63b8ff" points="1214.52,-509.78 1225.08,-508.92 1216.29,-503 1214.52,-509.78"/>
</a>
</g>
</g>
<!-- Node10&#45;&gt;Node8 -->
<g id="edge16_Node000010_Node000008" class="edge">
<title>Node10&#45;&gt;Node8</title>
<g id="a_edge16_Node000010_Node000008"><a xlink:title=" ">
<path fill="none" stroke="#63b8ff" d="M1150.74,-448.84C1165.51,-446.51 1180.69,-444.12 1195.25,-441.82"/>
<polygon fill="#63b8ff" stroke="#63b8ff" points="1195.9,-445.27 1205.23,-440.25 1194.81,-438.35 1195.9,-445.27"/>
</a>
</g>
</g>
<!-- Node10&#45;&gt;Node9 -->
<g id="edge17_Node000010_Node000009" class="edge">
<title>Node10&#45;&gt;Node9</title>
<g id="a_edge17_Node000010_Node000009"><a xlink:title=" ">
<path fill="none" stroke="#63b8ff" d="M1096.53,-443.45C1123.18,-430.94 1158.6,-415.27 1191,-404 1197.04,-401.9 1203.35,-399.89 1209.72,-397.98"/>
<polygon fill="#63b8ff" stroke="#63b8ff" points="1211.12,-401.22 1219.75,-395.08 1209.17,-394.5 1211.12,-401.22"/>
</a>
</g>
</g>
<!-- Node11 -->
<g id="Node000011" class="node">
<title>Node11</title>
<g id="a_Node000011"><a xlink:href="../../d4/d8f/classTerraria_1_1Localization_1_1Language_aee1558e43a43c3c4a8bcbfd1d84ffe43.html#aee1558e43a43c3c4a8bcbfd1d84ffe43" target="_top" xlink:title=" ">
<polygon fill="white" stroke="#666666" points="1368,-491 1200,-491 1200,-461 1368,-461 1368,-491"/>
<text text-anchor="start" x="1208" y="-479" font-family="Helvetica,sans-Serif" font-size="10.00">Terraria.Localization.Language.</text>
<text text-anchor="middle" x="1284" y="-468" font-family="Helvetica,sans-Serif" font-size="10.00">GetTextValueWith</text>
</a>
</g>
</g>
<!-- Node10&#45;&gt;Node11 -->
<g id="edge12_Node000010_Node000011" class="edge">
<title>Node10&#45;&gt;Node11</title>
<g id="a_edge12_Node000010_Node000011"><a xlink:title=" ">
<path fill="none" stroke="#63b8ff" d="M1150.74,-469.05C1163.64,-469.73 1176.85,-470.43 1189.69,-471.1"/>
<polygon fill="#63b8ff" stroke="#63b8ff" points="1189.73,-474.61 1199.9,-471.64 1190.1,-467.62 1189.73,-474.61"/>
</a>
</g>
</g>
<!-- Node12 -->
<g id="Node000012" class="node">
<title>Node12</title>
<g id="a_Node000012"><a xlink:href="../../d5/d73/classTerraria_1_1Localization_1_1LocalizedText_a3a3b4c3c6cbb09daed1b0513c8b53807.html#a3a3b4c3c6cbb09daed1b0513c8b53807" target="_top" xlink:title="Creates a string from this LocalizedText populated with data from the provided obj &#160;parameter....">
<polygon fill="white" stroke="#666666" points="1577.5,-271 1413.5,-271 1413.5,-241 1577.5,-241 1577.5,-271"/>
<text text-anchor="start" x="1421.5" y="-259" font-family="Helvetica,sans-Serif" font-size="10.00">Terraria.Localization.Localized</text>
<text text-anchor="middle" x="1495.5" y="-248" font-family="Helvetica,sans-Serif" font-size="10.00">Text.FormatWith</text>
</a>
</g>
</g>
<!-- Node11&#45;&gt;Node12 -->
<g id="edge13_Node000011_Node000012" class="edge">
<title>Node11&#45;&gt;Node12</title>
<g id="a_edge13_Node000011_Node000012"><a xlink:title=" ">
<path fill="none" stroke="#63b8ff" d="M1365.7,-460.79C1369.78,-458.28 1373.6,-455.37 1377,-452 1420.24,-409.24 1379.39,-370.67 1413,-320 1424.58,-302.54 1442.49,-287.73 1458.57,-276.76"/>
<polygon fill="#63b8ff" stroke="#63b8ff" points="1460.81,-279.47 1467.26,-271.07 1456.98,-273.62 1460.81,-279.47"/>
</a>
</g>
</g>
<!-- Node14 -->
<g id="Node000014" class="node">
<title>Node14</title>
<g id="a_Node000014"><a xlink:href="../../d8/d74/classTerraria_1_1Localization_1_1LanguageManager_ad292c2b15ad9179331427a23cc8c4e8c.html#ad292c2b15ad9179331427a23cc8c4e8c" target="_top" xlink:title=" ">
<polygon fill="white" stroke="#666666" points="1578,-359 1413,-359 1413,-329 1578,-329 1578,-359"/>
<text text-anchor="start" x="1421" y="-347" font-family="Helvetica,sans-Serif" font-size="10.00">Terraria.Localization.Language</text>
<text text-anchor="middle" x="1495.5" y="-336" font-family="Helvetica,sans-Serif" font-size="10.00">Manager.GetText</text>
</a>
</g>
</g>
<!-- Node11&#45;&gt;Node14 -->
<g id="edge15_Node000011_Node000014" class="edge">
<title>Node11&#45;&gt;Node14</title>
<g id="a_edge15_Node000011_Node000014"><a xlink:title=" ">
<path fill="none" stroke="#63b8ff" d="M1357.14,-460.86C1364.03,-458.33 1370.77,-455.4 1377,-452 1417.21,-430.07 1454.49,-391.43 1475.85,-366.8"/>
<polygon fill="#63b8ff" stroke="#63b8ff" points="1478.65,-368.91 1482.47,-359.03 1473.32,-364.38 1478.65,-368.91"/>
</a>
</g>
</g>
<!-- Node13 -->
<g id="Node000013" class="node">
<title>Node13</title>
<g id="a_Node000013"><a xlink:href="../../d5/d73/classTerraria_1_1Localization_1_1LocalizedText_a9598543af1ef9d9b4b30547c5bdfa250.html#a9598543af1ef9d9b4b30547c5bdfa250" target="_top" xlink:title=" ">
<polygon fill="white" stroke="#666666" points="1778,-271 1614,-271 1614,-241 1778,-241 1778,-271"/>
<text text-anchor="start" x="1622" y="-259" font-family="Helvetica,sans-Serif" font-size="10.00">Terraria.Localization.Localized</text>
<text text-anchor="middle" x="1696" y="-248" font-family="Helvetica,sans-Serif" font-size="10.00">Text.ToString</text>
</a>
</g>
</g>
<!-- Node12&#45;&gt;Node13 -->
<g id="edge14_Node000012_Node000013" class="edge">
<title>Node12&#45;&gt;Node13</title>
<g id="a_edge14_Node000012_Node000013"><a xlink:title=" ">
<path fill="none" stroke="#63b8ff" d="M1577.52,-256C1586.15,-256 1594.97,-256 1603.71,-256"/>
<polygon fill="#63b8ff" stroke="#63b8ff" points="1603.91,-259.5 1613.91,-256 1603.91,-252.5 1603.91,-259.5"/>
</a>
</g>
</g>
<!-- Node15&#45;&gt;Node3 -->
<g id="edge23_Node000015_Node000003" class="edge">
<title>Node15&#45;&gt;Node3</title>
<g id="a_edge23_Node000015_Node000003"><a xlink:title=" ">
<path fill="none" stroke="#63b8ff" d="M440.25,-231.32C507.72,-233.27 598.54,-237.93 678,-249 788.3,-264.36 914.21,-295.47 988.33,-315.22"/>
<polygon fill="#63b8ff" stroke="#63b8ff" points="987.87,-318.72 998.44,-317.92 989.68,-311.96 987.87,-318.72"/>
</a>
</g>
</g>
<!-- Node15&#45;&gt;Node5 -->
<g id="edge24_Node000015_Node000005" class="edge">
<title>Node15&#45;&gt;Node5</title>
<g id="a_edge24_Node000015_Node000005"><a xlink:title=" ">
<path fill="none" stroke="#63b8ff" d="M356.18,-209.28C379.27,-181.59 424.61,-133.82 476,-115 560.31,-84.13 588.67,-106.08 678,-115 785.37,-125.72 816.65,-120.88 916,-163 958.55,-181.04 1001.44,-213.45 1027.49,-235.09"/>
<polygon fill="#63b8ff" stroke="#63b8ff" points="1025.44,-237.94 1035.34,-241.71 1029.95,-232.58 1025.44,-237.94"/>
</a>
</g>
</g>
<!-- Node15&#45;&gt;Node12 -->
<g id="edge19_Node000015_Node000012" class="edge">
<title>Node15&#45;&gt;Node12</title>
<g id="a_edge19_Node000015_Node000012"><a xlink:title=" ">
<path fill="none" stroke="#63b8ff" d="M353.87,-209.39C375.78,-178.74 421.55,-121.97 476,-96 612.45,-30.93 662.83,-58 814,-58 814,-58 814,-58 1054.5,-58 1224.86,-58 1402.23,-182.96 1467.96,-234.33"/>
<polygon fill="#63b8ff" stroke="#63b8ff" points="1466.11,-237.34 1476.12,-240.79 1470.45,-231.84 1466.11,-237.34"/>
</a>
</g>
</g>
<!-- Node16 -->
<g id="Node000016" class="node">
<title>Node16</title>
<g id="a_Node000016"><a xlink:href="../../d9/dcb/classTerraria_1_1Social_1_1Steam_1_1SteamedWraps_ab716069adfb613468bb958b7f0e14cb5.html#ab716069adfb613468bb958b7f0e14cb5" target="_top" xlink:title=" ">
<polygon fill="white" stroke="#666666" points="665,-30 489,-30 489,0 665,0 665,-30"/>
<text text-anchor="start" x="497" y="-18" font-family="Helvetica,sans-Serif" font-size="10.00">Terraria.Social.Steam.Steamed</text>
<text text-anchor="middle" x="577" y="-7" font-family="Helvetica,sans-Serif" font-size="10.00">Wraps.GetCurrentSteamLangKey</text>
</a>
</g>
</g>
<!-- Node15&#45;&gt;Node16 -->
<g id="edge20_Node000015_Node000016" class="edge">
<title>Node15&#45;&gt;Node16</title>
<g id="a_edge20_Node000015_Node000016"><a xlink:title=" ">
<path fill="none" stroke="#63b8ff" d="M349.31,-209.5C367.81,-171.08 412.92,-88.17 476,-44 481.47,-40.17 487.45,-36.84 493.67,-33.95"/>
<polygon fill="#63b8ff" stroke="#63b8ff" points="495.09,-37.14 502.93,-30.01 492.35,-30.7 495.09,-37.14"/>
</a>
</g>
</g>
<!-- Node17 -->
<g id="Node000017" class="node">
<title>Node17</title>
<g id="a_Node000017"><a xlink:href="../../d4/d8f/classTerraria_1_1Localization_1_1Language_aa5ae49ae4976cbf8cf7aa28595d712a6.html#aa5ae49ae4976cbf8cf7aa28595d712a6" target="_top" xlink:title="Retrieves a LocalizedText object for a specified localization key. The actual text value can be retri...">
<polygon fill="white" stroke="#666666" points="899,-202 731,-202 731,-172 899,-172 899,-202"/>
<text text-anchor="start" x="739" y="-190" font-family="Helvetica,sans-Serif" font-size="10.00">Terraria.Localization.Language.</text>
<text text-anchor="middle" x="815" y="-179" font-family="Helvetica,sans-Serif" font-size="10.00">GetText</text>
</a>
</g>
</g>
<!-- Node15&#45;&gt;Node17 -->
<g id="edge21_Node000015_Node000017" class="edge">
<title>Node15&#45;&gt;Node17</title>
<g id="a_edge21_Node000015_Node000017"><a xlink:title=" ">
<path fill="none" stroke="#63b8ff" d="M366.26,-250.67C392.38,-269.81 434.44,-296.93 476,-308 562.75,-331.11 594.09,-339.92 678,-308 729.35,-288.46 773.67,-239.66 796.83,-210.35"/>
<polygon fill="#63b8ff" stroke="#63b8ff" points="799.72,-212.34 803.06,-202.29 794.18,-208.07 799.72,-212.34"/>
</a>
</g>
</g>
<!-- Node18 -->
<g id="Node000018" class="node">
<title>Node18</title>
<g id="a_Node000018"><a xlink:href="../../d0/d47/classTerraria_1_1Social_1_1Steam_1_1WorkshopHelper_1_1UGCBased_1_1APublisherInstance_a9c67d25d483ec7872b1e7b857c4eb1d3.html#a9c67d25d483ec7872b1e7b857c4eb1d3" target="_top" xlink:title=" ">
<polygon fill="white" stroke="#666666" points="678,-299.5 476,-299.5 476,-258.5 678,-258.5 678,-299.5"/>
<text text-anchor="start" x="484" y="-287.5" font-family="Helvetica,sans-Serif" font-size="10.00">Terraria.Social.Steam.Workshop</text>
<text text-anchor="start" x="484" y="-276.5" font-family="Helvetica,sans-Serif" font-size="10.00">Helper.UGCBased.APublisherInstance.</text>
<text text-anchor="middle" x="577" y="-265.5" font-family="Helvetica,sans-Serif" font-size="10.00">PrepareContentForUpdate</text>
</a>
</g>
</g>
<!-- Node15&#45;&gt;Node18 -->
<g id="edge25_Node000015_Node000018" class="edge">
<title>Node15&#45;&gt;Node18</title>
<g id="a_edge25_Node000015_Node000018"><a xlink:title=" ">
<path fill="none" stroke="#63b8ff" d="M439.06,-250.57C448.42,-252.51 457.95,-254.49 467.39,-256.45"/>
<polygon fill="#63b8ff" stroke="#63b8ff" points="466.69,-259.88 477.19,-258.49 468.11,-253.03 466.69,-259.88"/>
</a>
</g>
</g>
<!-- Node19 -->
<g id="Node000019" class="node">
<title>Node19</title>
<g id="a_Node000019"><a xlink:href="../../d9/dcb/classTerraria_1_1Social_1_1Steam_1_1SteamedWraps_a14fd7863fed241906bc1700b06b8c34a.html#a14fd7863fed241906bc1700b06b8c34a" target="_top" xlink:title=" ">
<polygon fill="white" stroke="#666666" points="660.5,-202 493.5,-202 493.5,-172 660.5,-172 660.5,-202"/>
<text text-anchor="start" x="501.5" y="-190" font-family="Helvetica,sans-Serif" font-size="10.00">Terraria.Social.Steam.Steamed</text>
<text text-anchor="middle" x="577" y="-179" font-family="Helvetica,sans-Serif" font-size="10.00">Wraps.RunCallbacks</text>
</a>
</g>
</g>
<!-- Node15&#45;&gt;Node19 -->
<g id="edge26_Node000015_Node000019" class="edge">
<title>Node15&#45;&gt;Node19</title>
<g id="a_edge26_Node000015_Node000019"><a xlink:title=" ">
<path fill="none" stroke="#63b8ff" d="M440.09,-211.76C454.44,-209.15 469.16,-206.47 483.36,-203.88"/>
<polygon fill="#63b8ff" stroke="#63b8ff" points="484.39,-207.25 493.6,-202.01 483.13,-200.36 484.39,-207.25"/>
</a>
</g>
</g>
<!-- Node20 -->
<g id="Node000020" class="node">
<title>Node20</title>
<g id="a_Node000020"><a xlink:href="../../df/d71/classTerraria_1_1Social_1_1Steam_1_1CoreSocialModule_ad80e484186e4e62bfa71fea397f5f383.html#ad80e484186e4e62bfa71fea397f5f383" target="_top" xlink:title=" ">
<polygon fill="white" stroke="#666666" points="655.5,-154 498.5,-154 498.5,-124 655.5,-124 655.5,-154"/>
<text text-anchor="start" x="506.5" y="-142" font-family="Helvetica,sans-Serif" font-size="10.00">Terraria.Social.Steam.Core</text>
<text text-anchor="middle" x="577" y="-131" font-family="Helvetica,sans-Serif" font-size="10.00">SocialModule.SetSkipPulsing</text>
</a>
</g>
</g>
<!-- Node15&#45;&gt;Node20 -->
<g id="edge27_Node000015_Node000020" class="edge">
<title>Node15&#45;&gt;Node20</title>
<g id="a_edge27_Node000015_Node000020"><a xlink:title=" ">
<path fill="none" stroke="#63b8ff" d="M376.26,-209.37C403.12,-194.79 440.97,-175.65 476,-163 482.01,-160.83 488.29,-158.8 494.64,-156.91"/>
<polygon fill="#63b8ff" stroke="#63b8ff" points="496.02,-160.16 504.68,-154.06 494.1,-153.42 496.02,-160.16"/>
</a>
</g>
</g>
<!-- Node21 -->
<g id="Node000021" class="node">
<title>Node21</title>
<g id="a_Node000021"><a xlink:href="../../d0/d47/classTerraria_1_1Social_1_1Steam_1_1WorkshopHelper_1_1UGCBased_1_1APublisherInstance_a1a57ea98f799a1b72072da90579f8bba.html#a1a57ea98f799a1b72072da90579f8bba" target="_top" xlink:title=" ">
<polygon fill="white" stroke="#666666" points="678,-435.5 476,-435.5 476,-394.5 678,-394.5 678,-435.5"/>
<text text-anchor="start" x="484" y="-423.5" font-family="Helvetica,sans-Serif" font-size="10.00">Terraria.Social.Steam.Workshop</text>
<text text-anchor="start" x="484" y="-412.5" font-family="Helvetica,sans-Serif" font-size="10.00">Helper.UGCBased.APublisherInstance.</text>
<text text-anchor="middle" x="577" y="-401.5" font-family="Helvetica,sans-Serif" font-size="10.00">UpdateItemResult</text>
</a>
</g>
</g>
<!-- Node15&#45;&gt;Node21 -->
<g id="edge28_Node000015_Node000021" class="edge">
<title>Node15&#45;&gt;Node21</title>
<g id="a_edge28_Node000015_Node000021"><a xlink:title=" ">
<path fill="none" stroke="#63b8ff" d="M364.22,-250.67C391.15,-273.48 436.12,-311.07 476,-342 496.33,-357.77 519.5,-374.74 538.42,-388.36"/>
<polygon fill="#63b8ff" stroke="#63b8ff" points="536.62,-391.37 546.79,-394.36 540.7,-385.68 536.62,-391.37"/>
</a>
</g>
</g>
<!-- Node15&#45;&gt;Node22 -->
<g id="edge32_Node000015_Node000022" class="edge">
<title>Node15&#45;&gt;Node22</title>
<g id="a_edge32_Node000015_Node000022"><a xlink:title=" ">
<path fill="none" stroke="#63b8ff" d="M351.38,-250.6C373.36,-289.76 424.12,-377 476,-444 498.04,-472.47 526.3,-502.18 547.15,-523.05"/>
<polygon fill="#63b8ff" stroke="#63b8ff" points="544.91,-525.76 554.47,-530.32 549.84,-520.79 544.91,-525.76"/>
</a>
</g>
</g>
<!-- Node17&#45;&gt;Node14 -->
<g id="edge22_Node000017_Node000014" class="edge">
<title>Node17&#45;&gt;Node14</title>
<g id="a_edge22_Node000017_Node000014"><a xlink:title=" ">
<path fill="none" stroke="#63b8ff" d="M899.3,-194.06C968.39,-200.92 1068.89,-213.25 1155,-233 1261.21,-257.36 1381.58,-300.58 1446.62,-325.29"/>
<polygon fill="#63b8ff" stroke="#63b8ff" points="1445.6,-328.65 1456.19,-328.94 1448.1,-322.11 1445.6,-328.65"/>
</a>
</g>
</g>
<!-- Node21&#45;&gt;Node2 -->
<g id="edge29_Node000021_Node000002" class="edge">
<title>Node21&#45;&gt;Node2</title>
<g id="a_edge29_Node000021_Node000002"><a xlink:title=" ">
<path fill="none" stroke="#63b8ff" d="M649.45,-394.41C682.13,-385 720.49,-373.94 751.95,-364.88"/>
<polygon fill="#63b8ff" stroke="#63b8ff" points="753.27,-368.14 761.91,-362.01 751.33,-361.42 753.27,-368.14"/>
</a>
</g>
</g>
<!-- Node21&#45;&gt;Node6 -->
<g id="edge30_Node000021_Node000006" class="edge">
<title>Node21&#45;&gt;Node6</title>
<g id="a_edge30_Node000021_Node000006"><a xlink:title=" ">
<path fill="none" stroke="#63b8ff" d="M678.09,-415C687.88,-415 697.83,-415 707.68,-415"/>
<polygon fill="#63b8ff" stroke="#63b8ff" points="707.9,-418.5 717.9,-415 707.9,-411.5 707.9,-418.5"/>
</a>
</g>
</g>
<!-- Node21&#45;&gt;Node10 -->
<g id="edge31_Node000021_Node000010" class="edge">
<title>Node21&#45;&gt;Node10</title>
<g id="a_edge31_Node000021_Node000010"><a xlink:title=" ">
<path fill="none" stroke="#63b8ff" d="M664.72,-435.53C681.02,-438.81 697.97,-441.83 714,-444 791.27,-454.46 879.19,-459.45 946.07,-461.83"/>
<polygon fill="#63b8ff" stroke="#63b8ff" points="946.08,-465.33 956.19,-462.18 946.32,-458.34 946.08,-465.33"/>
</a>
</g>
</g>
<!-- Node23 -->
<g id="Node000023" class="node">
<title>Node23</title>
<g id="a_Node000023"><a xlink:href="../../d0/d47/classTerraria_1_1Social_1_1Steam_1_1WorkshopHelper_1_1UGCBased_1_1APublisherInstance_ae0f8cfdd1651b56ebd951bfe3893998e.html#ae0f8cfdd1651b56ebd951bfe3893998e" target="_top" xlink:title=" ">
<polygon fill="white" stroke="#666666" points="916,-571.5 714,-571.5 714,-530.5 916,-530.5 916,-571.5"/>
<text text-anchor="start" x="722" y="-559.5" font-family="Helvetica,sans-Serif" font-size="10.00">Terraria.Social.Steam.Workshop</text>
<text text-anchor="start" x="722" y="-548.5" font-family="Helvetica,sans-Serif" font-size="10.00">Helper.UGCBased.APublisherInstance.</text>
<text text-anchor="middle" x="815" y="-537.5" font-family="Helvetica,sans-Serif" font-size="10.00">GetHeaderText</text>
</a>
</g>
</g>
<!-- Node22&#45;&gt;Node23 -->
<g id="edge33_Node000022_Node000023" class="edge">
<title>Node22&#45;&gt;Node23</title>
<g id="a_edge33_Node000022_Node000023"><a xlink:title=" ">
<path fill="none" stroke="#63b8ff" d="M678.09,-551C686.57,-551 695.19,-551 703.75,-551"/>
<polygon fill="#63b8ff" stroke="#63b8ff" points="703.76,-554.5 713.76,-551 703.76,-547.5 703.76,-554.5"/>
</a>
</g>
</g>
<!-- Node24 -->
<g id="Node000024" class="node">
<title>Node24</title>
<g id="a_Node000024"><a xlink:href="../../d0/d47/classTerraria_1_1Social_1_1Steam_1_1WorkshopHelper_1_1UGCBased_1_1APublisherInstance_a94ef699063bd4fb6ea3c83b90feae54f.html#a94ef699063bd4fb6ea3c83b90feae54f" target="_top" xlink:title=" ">
<polygon fill="white" stroke="#666666" points="916,-630.5 714,-630.5 714,-589.5 916,-589.5 916,-630.5"/>
<text text-anchor="start" x="722" y="-618.5" font-family="Helvetica,sans-Serif" font-size="10.00">Terraria.Social.Steam.Workshop</text>
<text text-anchor="start" x="722" y="-607.5" font-family="Helvetica,sans-Serif" font-size="10.00">Helper.UGCBased.APublisherInstance.</text>
<text text-anchor="middle" x="815" y="-596.5" font-family="Helvetica,sans-Serif" font-size="10.00">TryWritingManifestToFolder</text>
</a>
</g>
</g>
<!-- Node22&#45;&gt;Node24 -->
<g id="edge34_Node000022_Node000024" class="edge">
<title>Node22&#45;&gt;Node24</title>
<g id="a_edge34_Node000022_Node000024"><a xlink:title=" ">
<path fill="none" stroke="#63b8ff" d="M660.21,-571.55C680.1,-576.53 701.49,-581.87 721.81,-586.95"/>
<polygon fill="#63b8ff" stroke="#63b8ff" points="721.13,-590.39 731.69,-589.42 722.83,-583.6 721.13,-590.39"/>
</a>
</g>
</g>
<!-- Node25 -->
<g id="Node000025" class="node">
<title>Node25</title>
<g id="a_Node000025"><a xlink:href="../../df/d4a/classTerraria_1_1Social_1_1Base_1_1WorkshopIssueReporter_a1ee07e88af7119355dfb00f6a65a50eb.html#a1ee07e88af7119355dfb00f6a65a50eb" target="_top" xlink:title=" ">
<polygon fill="white" stroke="#666666" points="1155,-543.5 952,-543.5 952,-502.5 1155,-502.5 1155,-543.5"/>
<text text-anchor="start" x="960" y="-531.5" font-family="Helvetica,sans-Serif" font-size="10.00">Terraria.Social.Base.Workshop</text>
<text text-anchor="start" x="960" y="-520.5" font-family="Helvetica,sans-Serif" font-size="10.00">IssueReporter.ReportManifestCreation</text>
<text text-anchor="middle" x="1053.5" y="-509.5" font-family="Helvetica,sans-Serif" font-size="10.00">Problem</text>
</a>
</g>
</g>
<!-- Node24&#45;&gt;Node25 -->
<g id="edge35_Node000024_Node000025" class="edge">
<title>Node24&#45;&gt;Node25</title>
<g id="a_edge35_Node000024_Node000025"><a xlink:title=" ">
<path fill="none" stroke="#63b8ff" d="M887.85,-589.43C897.37,-586.42 906.95,-583.24 916,-580 943.12,-570.3 972.68,-558.15 997.34,-547.57"/>
<polygon fill="#63b8ff" stroke="#63b8ff" points="998.74,-550.78 1006.53,-543.6 995.96,-544.35 998.74,-550.78"/>
</a>
</g>
</g>
<!-- Node25&#45;&gt;Node7 -->
<g id="edge36_Node000025_Node000007" class="edge">
<title>Node25&#45;&gt;Node7</title>
<g id="a_edge36_Node000025_Node000007"><a xlink:title=" ">
<path fill="none" stroke="#63b8ff" d="M1155.06,-523.44C1167.31,-523.49 1179.78,-523.55 1191.88,-523.6"/>
<polygon fill="#63b8ff" stroke="#63b8ff" points="1191.94,-527.1 1201.95,-523.65 1191.97,-520.1 1191.94,-527.1"/>
</a>
</g>
</g>
<!-- Node25&#45;&gt;Node8 -->
<g id="edge38_Node000025_Node000008" class="edge">
<title>Node25&#45;&gt;Node8</title>
<g id="a_edge38_Node000025_Node000008"><a xlink:title=" ">
<path fill="none" stroke="#63b8ff" d="M1137.37,-502.45C1143.53,-499.67 1149.48,-496.54 1155,-493 1175.41,-479.91 1170.36,-464.73 1191,-452 1193.81,-450.27 1196.74,-448.66 1199.76,-447.16"/>
<polygon fill="#63b8ff" stroke="#63b8ff" points="1201.33,-450.29 1209.04,-443.02 1198.48,-443.9 1201.33,-450.29"/>
</a>
</g>
</g>
<!-- Node25&#45;&gt;Node9 -->
<g id="edge39_Node000025_Node000009" class="edge">
<title>Node25&#45;&gt;Node9</title>
<g id="a_edge39_Node000025_Node000009"><a xlink:title=" ">
<path fill="none" stroke="#63b8ff" d="M1142.21,-502.45C1146.78,-499.69 1151.09,-496.55 1155,-493 1186.56,-464.28 1158.94,-432.16 1191,-404 1192.32,-402.84 1193.69,-401.73 1195.11,-400.68"/>
<polygon fill="#63b8ff" stroke="#63b8ff" points="1197.11,-403.55 1203.63,-395.2 1193.32,-397.66 1197.11,-403.55"/>
</a>
</g>
</g>
<!-- Node25&#45;&gt;Node11 -->
<g id="edge37_Node000025_Node000011" class="edge">
<title>Node25&#45;&gt;Node11</title>
<g id="a_edge37_Node000025_Node000011"><a xlink:title=" ">
<path fill="none" stroke="#63b8ff" d="M1154.39,-502.45C1169.51,-499.34 1184.98,-496.16 1199.7,-493.13"/>
<polygon fill="#63b8ff" stroke="#63b8ff" points="1200.67,-496.51 1209.76,-491.06 1199.26,-489.65 1200.67,-496.51"/>
</a>
</g>
</g>
</g>
</svg>
