<?xml version="1.0" encoding="UTF-8" standalone="no"?>
<!DOCTYPE svg PUBLIC "-//W3C//DTD SVG 1.1//EN"
 "http://www.w3.org/Graphics/SVG/1.1/DTD/svg11.dtd">
<!-- Generated by graphviz version 2.43.0 (0)
 -->
<!-- Title: Terraria.Graphics.Renderers.MapHeadRenderer.DrawPlayerHead Pages: 1 -->
<svg width="873pt" height="182pt"
 viewBox="0.00 0.00 873.00 182.00" xmlns="http://www.w3.org/2000/svg" xmlns:xlink="http://www.w3.org/1999/xlink">
<g id="graph0" class="graph" transform="scale(1 1) rotate(0) translate(4 178)">
<title>Terraria.Graphics.Renderers.MapHeadRenderer.DrawPlayerHead</title>
<!-- Node1 -->
<g id="Node000001" class="node">
<title>Node1</title>
<g id="a_Node000001"><a xlink:title=" ">
<polygon fill="#999999" stroke="#666666" points="191,-102 0,-102 0,-72 191,-72 191,-102"/>
<text text-anchor="start" x="8" y="-90" font-family="Helvetica,sans-Serif" font-size="10.00">Terraria.Graphics.Renderers.</text>
<text text-anchor="middle" x="95.5" y="-79" font-family="Helvetica,sans-Serif" font-size="10.00">MapHeadRenderer.DrawPlayerHead</text>
</a>
</g>
</g>
<!-- Node2 -->
<g id="Node000002" class="node">
<title>Node2</title>
<g id="a_Node000002"><a xlink:href="../../d9/dfd/classTerraria_1_1Graphics_1_1Renderers_1_1MapHeadRenderer_a3049f46eeecbce95c7b5fc9f12be5214.html#a3049f46eeecbce95c7b5fc9f12be5214" target="_top" xlink:title=" ">
<polygon fill="white" stroke="#666666" points="420,-102 227,-102 227,-72 420,-72 420,-102"/>
<text text-anchor="start" x="235" y="-90" font-family="Helvetica,sans-Serif" font-size="10.00">Terraria.Graphics.Renderers.</text>
<text text-anchor="middle" x="323.5" y="-79" font-family="Helvetica,sans-Serif" font-size="10.00">MapHeadRenderer.RenderDrawData</text>
</a>
</g>
</g>
<!-- Node1&#45;&gt;Node2 -->
<g id="edge1_Node000001_Node000002" class="edge">
<title>Node1&#45;&gt;Node2</title>
<g id="a_edge1_Node000001_Node000002"><a xlink:title=" ">
<path fill="none" stroke="#63b8ff" d="M191.03,-87C199.55,-87 208.22,-87 216.83,-87"/>
<polygon fill="#63b8ff" stroke="#63b8ff" points="216.89,-90.5 226.89,-87 216.89,-83.5 216.89,-90.5"/>
</a>
</g>
</g>
<!-- Node3 -->
<g id="Node000003" class="node">
<title>Node3</title>
<g id="a_Node000003"><a xlink:href="../../da/d84/classTerraria_1_1DataStructures_1_1PlayerDrawHelper_a1d588e79ed6e7e52963889f4acde0404.html#a1d588e79ed6e7e52963889f4acde0404" target="_top" xlink:title=" ">
<polygon fill="white" stroke="#666666" points="651,-102 456,-102 456,-72 651,-72 651,-102"/>
<text text-anchor="start" x="464" y="-90" font-family="Helvetica,sans-Serif" font-size="10.00">Terraria.DataStructures.</text>
<text text-anchor="middle" x="553.5" y="-79" font-family="Helvetica,sans-Serif" font-size="10.00">PlayerDrawHelper.SetShaderForData</text>
</a>
</g>
</g>
<!-- Node2&#45;&gt;Node3 -->
<g id="edge2_Node000002_Node000003" class="edge">
<title>Node2&#45;&gt;Node3</title>
<g id="a_edge2_Node000002_Node000003"><a xlink:title=" ">
<path fill="none" stroke="#63b8ff" d="M420.2,-87C428.7,-87 437.33,-87 445.91,-87"/>
<polygon fill="#63b8ff" stroke="#63b8ff" points="445.95,-90.5 455.95,-87 445.95,-83.5 445.95,-90.5"/>
</a>
</g>
</g>
<!-- Node4 -->
<g id="Node000004" class="node">
<title>Node4</title>
<g id="a_Node000004"><a xlink:href="../../dc/df9/classTerraria_1_1Graphics_1_1Shaders_1_1ArmorShaderDataSet_ac9d2133eeae57699a6d3dad08f6717a4.html#ac9d2133eeae57699a6d3dad08f6717a4" target="_top" xlink:title=" ">
<polygon fill="white" stroke="#666666" points="851,-174 701,-174 701,-144 851,-144 851,-174"/>
<text text-anchor="start" x="709" y="-162" font-family="Helvetica,sans-Serif" font-size="10.00">Terraria.Graphics.Shaders.</text>
<text text-anchor="middle" x="776" y="-151" font-family="Helvetica,sans-Serif" font-size="10.00">ArmorShaderDataSet.Apply</text>
</a>
</g>
</g>
<!-- Node3&#45;&gt;Node4 -->
<g id="edge3_Node000003_Node000004" class="edge">
<title>Node3&#45;&gt;Node4</title>
<g id="a_edge3_Node000003_Node000004"><a xlink:title=" ">
<path fill="none" stroke="#63b8ff" d="M593.35,-102.02C619.61,-111.93 655.16,-124.91 687,-135 693.49,-137.06 700.28,-139.1 707.1,-141.08"/>
<polygon fill="#63b8ff" stroke="#63b8ff" points="706.48,-144.54 717.05,-143.92 708.4,-137.81 706.48,-144.54"/>
</a>
</g>
</g>
<!-- Node5 -->
<g id="Node000005" class="node">
<title>Node5</title>
<g id="a_Node000005"><a xlink:href="../../d1/d5d/classTerraria_1_1Graphics_1_1Shaders_1_1HairShaderDataSet_a005a1836f68c9e17685980dc4311ab9b.html#a005a1836f68c9e17685980dc4311ab9b" target="_top" xlink:title=" ">
<polygon fill="white" stroke="#666666" points="848,-126 704,-126 704,-96 848,-96 848,-126"/>
<text text-anchor="start" x="712" y="-114" font-family="Helvetica,sans-Serif" font-size="10.00">Terraria.Graphics.Shaders.</text>
<text text-anchor="middle" x="776" y="-103" font-family="Helvetica,sans-Serif" font-size="10.00">HairShaderDataSet.Apply</text>
</a>
</g>
</g>
<!-- Node3&#45;&gt;Node5 -->
<g id="edge4_Node000003_Node000005" class="edge">
<title>Node3&#45;&gt;Node5</title>
<g id="a_edge4_Node000003_Node000005"><a xlink:title=" ">
<path fill="none" stroke="#63b8ff" d="M651.21,-97.53C665.46,-99.08 680.01,-100.66 693.9,-102.17"/>
<polygon fill="#63b8ff" stroke="#63b8ff" points="693.56,-105.66 703.88,-103.26 694.32,-98.7 693.56,-105.66"/>
</a>
</g>
</g>
<!-- Node6 -->
<g id="Node000006" class="node">
<title>Node6</title>
<g id="a_Node000006"><a xlink:href="../../da/dd5/classTerraria_1_1Main_ae6b016f7dcd20425ca016898743a50b8.html#ae6b016f7dcd20425ca016898743a50b8" target="_top" xlink:title=" ">
<polygon fill="white" stroke="#666666" points="849,-78 703,-78 703,-48 849,-48 849,-78"/>
<text text-anchor="start" x="711" y="-66" font-family="Helvetica,sans-Serif" font-size="10.00">Terraria.Main.ConvertPaint</text>
<text text-anchor="middle" x="776" y="-55" font-family="Helvetica,sans-Serif" font-size="10.00">IdToTileShaderIndex</text>
</a>
</g>
</g>
<!-- Node3&#45;&gt;Node6 -->
<g id="edge5_Node000003_Node000006" class="edge">
<title>Node3&#45;&gt;Node6</title>
<g id="a_edge5_Node000003_Node000006"><a xlink:title=" ">
<path fill="none" stroke="#63b8ff" d="M651.21,-76.47C665.05,-74.97 679.17,-73.43 692.69,-71.96"/>
<polygon fill="#63b8ff" stroke="#63b8ff" points="693.33,-75.41 702.89,-70.85 692.57,-68.45 693.33,-75.41"/>
</a>
</g>
</g>
<!-- Node7 -->
<g id="Node000007" class="node">
<title>Node7</title>
<g id="a_Node000007"><a xlink:href="../../da/d84/classTerraria_1_1DataStructures_1_1PlayerDrawHelper_a27ceec9d1dc5f31a97d2cf1e0419d057.html#a27ceec9d1dc5f31a97d2cf1e0419d057" target="_top" xlink:title=" ">
<polygon fill="white" stroke="#666666" points="865,-30 687,-30 687,0 865,0 865,-30"/>
<text text-anchor="start" x="695" y="-18" font-family="Helvetica,sans-Serif" font-size="10.00">Terraria.DataStructures.</text>
<text text-anchor="middle" x="776" y="-7" font-family="Helvetica,sans-Serif" font-size="10.00">PlayerDrawHelper.UnpackShader</text>
</a>
</g>
</g>
<!-- Node3&#45;&gt;Node7 -->
<g id="edge6_Node000003_Node000007" class="edge">
<title>Node3&#45;&gt;Node7</title>
<g id="a_edge6_Node000003_Node000007"><a xlink:title=" ">
<path fill="none" stroke="#63b8ff" d="M593.35,-71.98C619.61,-62.07 655.16,-49.09 687,-39 693.49,-36.94 700.28,-34.9 707.1,-32.92"/>
<polygon fill="#63b8ff" stroke="#63b8ff" points="708.4,-36.19 717.05,-30.08 706.48,-29.46 708.4,-36.19"/>
</a>
</g>
</g>
</g>
</svg>
