<?xml version="1.0" encoding="UTF-8" standalone="no"?>
<!DOCTYPE svg PUBLIC "-//W3C//DTD SVG 1.1//EN"
 "http://www.w3.org/Graphics/SVG/1.1/DTD/svg11.dtd">
<!-- Generated by graphviz version 2.43.0 (0)
 -->
<!-- Title: Terraria.ModLoader.Config.UI.UIModConfigList.PopulateConfigs Pages: 1 -->
<svg width="620pt" height="59pt"
 viewBox="0.00 0.00 620.00 59.00" xmlns="http://www.w3.org/2000/svg" xmlns:xlink="http://www.w3.org/1999/xlink">
<g id="graph0" class="graph" transform="scale(1 1) rotate(0) translate(4 55)">
<title>Terraria.ModLoader.Config.UI.UIModConfigList.PopulateConfigs</title>
<!-- Node1 -->
<g id="Node000001" class="node">
<title>Node1</title>
<g id="a_Node000001"><a xlink:title=" ">
<polygon fill="#999999" stroke="#666666" points="612,-51 421,-51 421,-21 612,-21 612,-51"/>
<text text-anchor="start" x="429" y="-39" font-family="Helvetica,sans-Serif" font-size="10.00">Terraria.ModLoader.Config.</text>
<text text-anchor="middle" x="516.5" y="-28" font-family="Helvetica,sans-Serif" font-size="10.00">UI.UIModConfigList.PopulateConfigs</text>
</a>
</g>
</g>
<!-- Node2 -->
<g id="Node000002" class="node">
<title>Node2</title>
<g id="a_Node000002"><a xlink:href="../../d5/de1/classTerraria_1_1ModLoader_1_1Config_1_1UI_1_1UIModConfigList_ab09be4f0320b41f1799ef260cf5bb797.html#ab09be4f0320b41f1799ef260cf5bb797" target="_top" xlink:title=" ">
<polygon fill="white" stroke="#666666" points="167,-51 0,-51 0,-21 167,-21 167,-51"/>
<text text-anchor="start" x="8" y="-39" font-family="Helvetica,sans-Serif" font-size="10.00">Terraria.ModLoader.Config.</text>
<text text-anchor="middle" x="83.5" y="-28" font-family="Helvetica,sans-Serif" font-size="10.00">UI.UIModConfigList.OnActivate</text>
</a>
</g>
</g>
<!-- Node1&#45;&gt;Node2 -->
<g id="edge1_Node000001_Node000002" class="edge">
<title>Node1&#45;&gt;Node2</title>
<g id="a_edge1_Node000001_Node000002"><a xlink:title=" ">
<path fill="none" stroke="#63b8ff" d="M410.55,-38.62C401.91,-38.77 393.31,-38.9 385,-39 304.12,-39.93 283.88,-40.02 203,-39 191.37,-38.85 179.11,-38.62 167.05,-38.36"/>
<polygon fill="#63b8ff" stroke="#63b8ff" points="410.77,-42.12 420.71,-38.43 410.64,-35.12 410.77,-42.12"/>
</a>
</g>
</g>
<!-- Node3 -->
<g id="Node000003" class="node">
<title>Node3</title>
<g id="a_Node000003"><a xlink:href="../../d5/de1/classTerraria_1_1ModLoader_1_1Config_1_1UI_1_1UIModConfigList_a54f1a3c8c6614a4c07d6d2657b212aac.html#a54f1a3c8c6614a4c07d6d2657b212aac" target="_top" xlink:title=" ">
<polygon fill="white" stroke="#666666" points="385,-30 203,-30 203,0 385,0 385,-30"/>
<text text-anchor="start" x="211" y="-18" font-family="Helvetica,sans-Serif" font-size="10.00">Terraria.ModLoader.Config.</text>
<text text-anchor="middle" x="294" y="-7" font-family="Helvetica,sans-Serif" font-size="10.00">UI.UIModConfigList.PopulateMods</text>
</a>
</g>
</g>
<!-- Node1&#45;&gt;Node3 -->
<g id="edge2_Node000001_Node000003" class="edge">
<title>Node1&#45;&gt;Node3</title>
<g id="a_edge2_Node000001_Node000003"><a xlink:title=" ">
<path fill="none" stroke="#63b8ff" d="M410.72,-26.02C402.18,-25.21 393.59,-24.39 385.17,-23.59"/>
<polygon fill="#63b8ff" stroke="#63b8ff" points="410.42,-29.51 420.71,-26.97 411.09,-22.54 410.42,-29.51"/>
</a>
</g>
</g>
<!-- Node3&#45;&gt;Node2 -->
<g id="edge3_Node000003_Node000002" class="edge">
<title>Node3&#45;&gt;Node2</title>
<g id="a_edge3_Node000003_Node000002"><a xlink:title=" ">
<path fill="none" stroke="#63b8ff" d="M192.78,-25.09C184.25,-25.95 175.69,-26.82 167.32,-27.66"/>
<polygon fill="#63b8ff" stroke="#63b8ff" points="193.16,-28.57 202.76,-24.09 192.46,-21.61 193.16,-28.57"/>
</a>
</g>
</g>
</g>
</svg>
