<?xml version="1.0" encoding="UTF-8" standalone="no"?>
<!DOCTYPE svg PUBLIC "-//W3C//DTD SVG 1.1//EN"
 "http://www.w3.org/Graphics/SVG/1.1/DTD/svg11.dtd">
<!-- Generated by graphviz version 2.43.0 (0)
 -->
<!-- Title: Terraria.ModLoader.UI.ModBrowser.UIModDownloadItem.DownloadWithDeps Pages: 1 -->
<svg width="430pt" height="104pt"
 viewBox="0.00 0.00 430.00 104.00" xmlns="http://www.w3.org/2000/svg" xmlns:xlink="http://www.w3.org/1999/xlink">
<g id="graph0" class="graph" transform="scale(1 1) rotate(0) translate(4 100)">
<title>Terraria.ModLoader.UI.ModBrowser.UIModDownloadItem.DownloadWithDeps</title>
<!-- Node1 -->
<g id="Node000001" class="node">
<title>Node1</title>
<g id="a_Node000001"><a xlink:title=" ">
<polygon fill="#999999" stroke="#666666" points="213,-59.5 0,-59.5 0,-18.5 213,-18.5 213,-59.5"/>
<text text-anchor="start" x="8" y="-47.5" font-family="Helvetica,sans-Serif" font-size="10.00">Terraria.ModLoader.UI.Mod</text>
<text text-anchor="start" x="8" y="-36.5" font-family="Helvetica,sans-Serif" font-size="10.00">Browser.UIModDownloadItem.Download</text>
<text text-anchor="middle" x="106.5" y="-25.5" font-family="Helvetica,sans-Serif" font-size="10.00">WithDeps</text>
</a>
</g>
</g>
<!-- Node2 -->
<g id="Node000002" class="node">
<title>Node2</title>
<g id="a_Node000002"><a xlink:href="../../d3/d78/classTerraria_1_1Audio_1_1SoundEngine_af55950ae09b294fad1dd58e37fecf28b.html#af55950ae09b294fad1dd58e37fecf28b" target="_top" xlink:title="Attempts to play a sound style with the provided sound style (if it&#39;s not null), and returns a valid ...">
<polygon fill="white" stroke="#666666" points="412,-78 259,-78 259,-48 412,-48 412,-78"/>
<text text-anchor="start" x="267" y="-66" font-family="Helvetica,sans-Serif" font-size="10.00">Terraria.Audio.SoundEngine.</text>
<text text-anchor="middle" x="335.5" y="-55" font-family="Helvetica,sans-Serif" font-size="10.00">PlaySound</text>
</a>
</g>
</g>
<!-- Node1&#45;&gt;Node2 -->
<g id="edge1_Node000001_Node000002" class="edge">
<title>Node1&#45;&gt;Node2</title>
<g id="a_edge1_Node000001_Node000002"><a xlink:title=" ">
<path fill="none" stroke="#63b8ff" d="M213.03,-50.16C224.94,-51.42 236.96,-52.69 248.58,-53.92"/>
<polygon fill="#63b8ff" stroke="#63b8ff" points="248.36,-57.41 258.67,-54.98 249.09,-50.45 248.36,-57.41"/>
</a>
</g>
</g>
<!-- Node3 -->
<g id="Node000003" class="node">
<title>Node3</title>
<g id="a_Node000003"><a xlink:href="../../da/dd5/classTerraria_1_1Main_ae3b16587ab699801dd5c69e5426873fc.html#ae3b16587ab699801dd5c69e5426873fc" target="_top" xlink:title=" ">
<polygon fill="white" stroke="#666666" points="422,-30 249,-30 249,0 422,0 422,-30"/>
<text text-anchor="start" x="257" y="-18" font-family="Helvetica,sans-Serif" font-size="10.00">Terraria.Main.QueueMainThread</text>
<text text-anchor="middle" x="335.5" y="-7" font-family="Helvetica,sans-Serif" font-size="10.00">Action</text>
</a>
</g>
</g>
<!-- Node1&#45;&gt;Node3 -->
<g id="edge3_Node000001_Node000003" class="edge">
<title>Node1&#45;&gt;Node3</title>
<g id="a_edge3_Node000001_Node000003"><a xlink:title=" ">
<path fill="none" stroke="#63b8ff" d="M213.03,-27.84C221.68,-26.93 230.4,-26.01 238.97,-25.1"/>
<polygon fill="#63b8ff" stroke="#63b8ff" points="239.39,-28.58 248.96,-24.04 238.65,-21.61 239.39,-28.58"/>
</a>
</g>
</g>
<!-- Node2&#45;&gt;Node2 -->
<g id="edge2_Node000002_Node000002" class="edge">
<title>Node2&#45;&gt;Node2</title>
<g id="a_edge2_Node000002_Node000002"><a xlink:title=" ">
<path fill="none" stroke="#63b8ff" d="M295.42,-78.28C286.52,-87.41 299.88,-96 335.5,-96 356.65,-96 369.96,-92.97 375.41,-88.6"/>
<polygon fill="#63b8ff" stroke="#63b8ff" points="378.91,-88.33 375.58,-78.28 371.91,-88.22 378.91,-88.33"/>
</a>
</g>
</g>
</g>
</svg>
