<?xml version="1.0" encoding="UTF-8" standalone="no"?>
<!DOCTYPE svg PUBLIC "-//W3C//DTD SVG 1.1//EN"
 "http://www.w3.org/Graphics/SVG/1.1/DTD/svg11.dtd">
<!-- Generated by graphviz version 2.43.0 (0)
 -->
<!-- Title: Terraria.ModLoader.SceneEffectLoader&lt; T &gt;.SceneEffectInstance.PrioritizedPair Pages: 1 -->
<svg width="231pt" height="175pt"
 viewBox="0.00 0.00 230.50 175.00" xmlns="http://www.w3.org/2000/svg" xmlns:xlink="http://www.w3.org/1999/xlink">
<g id="graph0" class="graph" transform="scale(1 1) rotate(0) translate(4 171)">
<title>Terraria.ModLoader.SceneEffectLoader&lt; T &gt;.SceneEffectInstance.PrioritizedPair</title>
<!-- Node1 -->
<g id="Node000001" class="node">
<title>Node1</title>
<g id="a_Node000001"><a xlink:title=" ">
<polygon fill="#999999" stroke="transparent" points="170,-71 10,-71 10,0 170,0 170,-71"/>
<text text-anchor="start" x="15" y="-58.5" font-family="Helvetica,sans-Serif" font-size="10.00">Terraria.ModLoader.Scene</text>
<text text-anchor="start" x="15" y="-47.5" font-family="Helvetica,sans-Serif" font-size="10.00">EffectLoader&lt; T &gt;.SceneEffect</text>
<text text-anchor="start" x="34" y="-36.5" font-family="Helvetica,sans-Serif" font-size="10.00">Instance.PrioritizedPair</text>
<text text-anchor="start" x="88" y="-21.5" font-family="Helvetica,sans-Serif" font-size="10.00"> </text>
<text text-anchor="start" x="88" y="-6.5" font-family="Helvetica,sans-Serif" font-size="10.00"> </text>
<polygon fill="#666666" stroke="#666666" points="10,-31.5 10,-31.5 170,-31.5 170,-31.5 10,-31.5"/>
<polygon fill="#666666" stroke="#666666" points="10,-16.5 10,-16.5 170,-16.5 170,-16.5 10,-16.5"/>
<polygon fill="none" stroke="#666666" points="10,0 10,-71 170,-71 170,0 10,0"/>
</a>
</g>
</g>
<!-- Node2 -->
<g id="Node000002" class="node">
<title>Node2</title>
<g id="a_Node000002"><a xlink:title=" ">
<polygon fill="white" stroke="transparent" points="38,-167 0,-167 0,-118 38,-118 38,-167"/>
<text text-anchor="start" x="5" y="-154.5" font-family="Helvetica,sans-Serif" font-size="10.00">static</text>
<text text-anchor="start" x="17" y="-139.5" font-family="Helvetica,sans-Serif" font-size="10.00"> </text>
<text text-anchor="start" x="17" y="-124.5" font-family="Helvetica,sans-Serif" font-size="10.00"> </text>
<polygon fill="#666666" stroke="#666666" points="0,-149.5 0,-149.5 38,-149.5 38,-149.5 0,-149.5"/>
<polygon fill="#666666" stroke="#666666" points="0,-134.5 0,-134.5 38,-134.5 38,-134.5 0,-134.5"/>
<polygon fill="none" stroke="#666666" points="0,-118 0,-167 38,-167 38,-118 0,-118"/>
</a>
</g>
</g>
<!-- Node2&#45;&gt;Node1 -->
<g id="edge1_Node000001_Node000002" class="edge">
<title>Node2&#45;&gt;Node1</title>
<g id="a_edge1_Node000001_Node000002"><a xlink:title=" ">
<path fill="none" stroke="#63b8ff" d="M25.18,-117.76C28.23,-108.38 32.46,-97.77 38,-89 39.83,-86.1 41.85,-83.24 43.99,-80.43"/>
<polygon fill="none" stroke="#63b8ff" points="44.02,-80.39 44.76,-73.22 51.67,-71.15 50.93,-78.32 44.02,-80.39"/>
</a>
</g>
<text text-anchor="middle" x="62" y="-92" font-family="Helvetica,sans-Serif" font-size="10.00" fill="grey"> +Default</text>
</g>
<!-- Node3 -->
<g id="Node000003" class="node">
<title>Node3</title>
<g id="a_Node000003"><a xlink:title=" ">
<polygon fill="white" stroke="transparent" points="101.5,-167 78.5,-167 78.5,-118 101.5,-118 101.5,-167"/>
<text text-anchor="start" x="84" y="-154.5" font-family="Helvetica,sans-Serif" font-size="10.00">int</text>
<text text-anchor="start" x="88.5" y="-139.5" font-family="Helvetica,sans-Serif" font-size="10.00"> </text>
<text text-anchor="start" x="88.5" y="-124.5" font-family="Helvetica,sans-Serif" font-size="10.00"> </text>
<polygon fill="#666666" stroke="#666666" points="79,-149.5 79,-149.5 102,-149.5 102,-149.5 79,-149.5"/>
<polygon fill="#666666" stroke="#666666" points="79,-134.5 79,-134.5 102,-134.5 102,-134.5 79,-134.5"/>
<polygon fill="none" stroke="#666666" points="78.5,-118 78.5,-167 101.5,-167 101.5,-118 78.5,-118"/>
</a>
</g>
</g>
<!-- Node3&#45;&gt;Node1 -->
<g id="edge2_Node000001_Node000003" class="edge">
<title>Node3&#45;&gt;Node1</title>
<g id="a_edge2_Node000001_Node000003"><a xlink:title=" ">
<path fill="none" stroke="#63b8ff" d="M90,-117.94C90,-107.7 90,-95.34 90,-83.37"/>
<polygon fill="none" stroke="#63b8ff" points="90,-83.15 86,-77.15 90,-71.15 94,-77.15 90,-83.15"/>
</a>
</g>
<text text-anchor="middle" x="109.5" y="-92" font-family="Helvetica,sans-Serif" font-size="10.00" fill="grey"> +value</text>
</g>
<!-- Node4 -->
<g id="Node000004" class="node">
<title>Node4</title>
<g id="a_Node000004"><a xlink:title=" ">
<polygon fill="white" stroke="transparent" points="222.5,-167 119.5,-167 119.5,-118 222.5,-118 222.5,-167"/>
<text text-anchor="start" x="125" y="-154.5" font-family="Helvetica,sans-Serif" font-size="10.00">SceneEffectPriority</text>
<text text-anchor="start" x="169.5" y="-139.5" font-family="Helvetica,sans-Serif" font-size="10.00"> </text>
<text text-anchor="start" x="169.5" y="-124.5" font-family="Helvetica,sans-Serif" font-size="10.00"> </text>
<polygon fill="#666666" stroke="#666666" points="120,-149.5 120,-149.5 223,-149.5 223,-149.5 120,-149.5"/>
<polygon fill="#666666" stroke="#666666" points="120,-134.5 120,-134.5 223,-134.5 223,-134.5 120,-134.5"/>
<polygon fill="none" stroke="#666666" points="119.5,-118 119.5,-167 222.5,-167 222.5,-118 119.5,-118"/>
</a>
</g>
</g>
<!-- Node4&#45;&gt;Node1 -->
<g id="edge3_Node000001_Node000004" class="edge">
<title>Node4&#45;&gt;Node1</title>
<g id="a_edge3_Node000001_Node000004"><a xlink:title=" ">
<path fill="none" stroke="#63b8ff" d="M154.27,-117.76C147.75,-108.67 140.14,-98.27 133,-89 130.88,-86.24 128.67,-83.42 126.43,-80.59"/>
<polygon fill="none" stroke="#63b8ff" points="126.25,-80.37 119.37,-78.18 118.75,-71 125.62,-73.18 126.25,-80.37"/>
</a>
</g>
<text text-anchor="middle" x="163.5" y="-92" font-family="Helvetica,sans-Serif" font-size="10.00" fill="grey"> +priority</text>
</g>
</g>
</svg>
