<?xml version="1.0" encoding="UTF-8" standalone="no"?>
<!DOCTYPE svg PUBLIC "-//W3C//DTD SVG 1.1//EN"
 "http://www.w3.org/Graphics/SVG/1.1/DTD/svg11.dtd">
<!-- Generated by graphviz version 2.43.0 (0)
 -->
<!-- Title: Terraria.Map.MapHelper.GetTileBaseOption Pages: 1 -->
<svg width="376pt" height="76pt"
 viewBox="0.00 0.00 376.00 75.50" xmlns="http://www.w3.org/2000/svg" xmlns:xlink="http://www.w3.org/1999/xlink">
<g id="graph0" class="graph" transform="scale(1 1) rotate(0) translate(4 71.5)">
<title>Terraria.Map.MapHelper.GetTileBaseOption</title>
<!-- Node1 -->
<g id="Node000001" class="node">
<title>Node1</title>
<g id="a_Node000001"><a xlink:title=" ">
<polygon fill="#999999" stroke="#666666" points="153,-45.5 0,-45.5 0,-15.5 153,-15.5 153,-45.5"/>
<text text-anchor="start" x="8" y="-33.5" font-family="Helvetica,sans-Serif" font-size="10.00">Terraria.Map.MapHelper.Get</text>
<text text-anchor="middle" x="76.5" y="-22.5" font-family="Helvetica,sans-Serif" font-size="10.00">TileBaseOption</text>
</a>
</g>
</g>
<!-- Node2 -->
<g id="Node000002" class="node">
<title>Node2</title>
<g id="a_Node000002"><a xlink:href="../../de/da1/classTerraria_1_1WorldGen_a7c1741b0f61ee9db9738672b50925bfb.html#a7c1741b0f61ee9db9738672b50925bfb" target="_top" xlink:title=" ">
<polygon fill="white" stroke="#666666" points="356,-67.5 201,-67.5 201,-37.5 356,-37.5 356,-67.5"/>
<text text-anchor="start" x="209" y="-55.5" font-family="Helvetica,sans-Serif" font-size="10.00">Terraria.WorldGen.GetBiome</text>
<text text-anchor="middle" x="278.5" y="-44.5" font-family="Helvetica,sans-Serif" font-size="10.00">Influence</text>
</a>
</g>
</g>
<!-- Node1&#45;&gt;Node2 -->
<g id="edge1_Node000001_Node000002" class="edge">
<title>Node1&#45;&gt;Node2</title>
<g id="a_edge1_Node000001_Node000002"><a xlink:title=" ">
<path fill="none" stroke="#63b8ff" d="M153.11,-38.82C165.42,-40.17 178.25,-41.58 190.8,-42.96"/>
<polygon fill="#63b8ff" stroke="#63b8ff" points="190.46,-46.45 200.78,-44.06 191.23,-39.49 190.46,-46.45"/>
</a>
</g>
</g>
<!-- Node3 -->
<g id="Node000003" class="node">
<title>Node3</title>
<g id="a_Node000003"><a xlink:href="../../de/da1/classTerraria_1_1WorldGen_a236d51f1c500d24d40f38a3d24f5d20e.html#a236d51f1c500d24d40f38a3d24f5d20e" target="_top" xlink:title=" ">
<polygon fill="white" stroke="#666666" points="368,-19 189,-19 189,0 368,0 368,-19"/>
<text text-anchor="middle" x="278.5" y="-7" font-family="Helvetica,sans-Serif" font-size="10.00">Terraria.WorldGen.GetCactusType</text>
</a>
</g>
</g>
<!-- Node1&#45;&gt;Node3 -->
<g id="edge2_Node000001_Node000003" class="edge">
<title>Node1&#45;&gt;Node3</title>
<g id="a_edge2_Node000001_Node000003"><a xlink:title=" ">
<path fill="none" stroke="#63b8ff" d="M153.11,-22.56C161.46,-21.68 170.05,-20.78 178.63,-19.88"/>
<polygon fill="#63b8ff" stroke="#63b8ff" points="179.1,-23.35 188.68,-18.83 178.37,-16.39 179.1,-23.35"/>
</a>
</g>
</g>
</g>
</svg>
