<?xml version="1.0" encoding="UTF-8" standalone="no"?>
<!DOCTYPE svg PUBLIC "-//W3C//DTD SVG 1.1//EN"
 "http://www.w3.org/Graphics/SVG/1.1/DTD/svg11.dtd">
<!-- Generated by graphviz version 2.43.0 (0)
 -->
<!-- Title: Terraria.NetMessage.SendTravelShop Pages: 1 -->
<svg width="1086pt" height="119pt"
 viewBox="0.00 0.00 1086.00 118.50" xmlns="http://www.w3.org/2000/svg" xmlns:xlink="http://www.w3.org/1999/xlink">
<g id="graph0" class="graph" transform="scale(1 1) rotate(0) translate(4 114.5)">
<title>Terraria.NetMessage.SendTravelShop</title>
<!-- Node1 -->
<g id="Node000001" class="node">
<title>Node1</title>
<g id="a_Node000001"><a xlink:title=" ">
<polygon fill="#999999" stroke="#666666" points="1078,-88.5 934,-88.5 934,-58.5 1078,-58.5 1078,-88.5"/>
<text text-anchor="start" x="942" y="-76.5" font-family="Helvetica,sans-Serif" font-size="10.00">Terraria.NetMessage.Send</text>
<text text-anchor="middle" x="1006" y="-65.5" font-family="Helvetica,sans-Serif" font-size="10.00">TravelShop</text>
</a>
</g>
</g>
<!-- Node2 -->
<g id="Node000002" class="node">
<title>Node2</title>
<g id="a_Node000002"><a xlink:href="../../d2/dfe/classTerraria_1_1NetMessage_a25a7345a340a5dfc865751e715422250.html#a25a7345a340a5dfc865751e715422250" target="_top" xlink:title=" ">
<polygon fill="white" stroke="#666666" points="876.5,-110.5 731.5,-110.5 731.5,-80.5 876.5,-80.5 876.5,-110.5"/>
<text text-anchor="start" x="739.5" y="-98.5" font-family="Helvetica,sans-Serif" font-size="10.00">Terraria.NetMessage.Send</text>
<text text-anchor="middle" x="804" y="-87.5" font-family="Helvetica,sans-Serif" font-size="10.00">NPCHousesAndTravelShop</text>
</a>
</g>
</g>
<!-- Node1&#45;&gt;Node2 -->
<g id="edge1_Node000001_Node000002" class="edge">
<title>Node1&#45;&gt;Node2</title>
<g id="a_edge1_Node000001_Node000002"><a xlink:title=" ">
<path fill="none" stroke="#63b8ff" d="M923.75,-82.44C908.11,-84.16 891.83,-85.95 876.52,-87.63"/>
<polygon fill="#63b8ff" stroke="#63b8ff" points="924.37,-85.89 933.92,-81.32 923.6,-78.93 924.37,-85.89"/>
</a>
</g>
</g>
<!-- Node5 -->
<g id="Node000005" class="node">
<title>Node5</title>
<g id="a_Node000005"><a xlink:href="../../de/da1/classTerraria_1_1WorldGen_a2a41f17e66ccb45f8e7f09e9e2d3e8e2.html#a2a41f17e66ccb45f8e7f09e9e2d3e8e2" target="_top" xlink:title=" ">
<polygon fill="white" stroke="#666666" points="898,-62 710,-62 710,-43 898,-43 898,-62"/>
<text text-anchor="middle" x="804" y="-50" font-family="Helvetica,sans-Serif" font-size="10.00">Terraria.WorldGen.SpawnTravelNPC</text>
</a>
</g>
</g>
<!-- Node1&#45;&gt;Node5 -->
<g id="edge4_Node000001_Node000005" class="edge">
<title>Node1&#45;&gt;Node5</title>
<g id="a_edge4_Node000001_Node000005"><a xlink:title=" ">
<path fill="none" stroke="#63b8ff" d="M923.96,-64.99C914.68,-64.02 905.18,-63.02 895.79,-62.03"/>
<polygon fill="#63b8ff" stroke="#63b8ff" points="923.61,-68.47 933.92,-66.04 924.34,-61.51 923.61,-68.47"/>
</a>
</g>
</g>
<!-- Node3 -->
<g id="Node000003" class="node">
<title>Node3</title>
<g id="a_Node000003"><a xlink:href="../../d2/dfe/classTerraria_1_1NetMessage_af515690d04a1cd4b0d129d3273667157.html#af515690d04a1cd4b0d129d3273667157" target="_top" xlink:title=" ">
<polygon fill="white" stroke="#666666" points="674,-110.5 531,-110.5 531,-80.5 674,-80.5 674,-110.5"/>
<text text-anchor="start" x="539" y="-98.5" font-family="Helvetica,sans-Serif" font-size="10.00">Terraria.NetMessage.Sync</text>
<text text-anchor="middle" x="602.5" y="-87.5" font-family="Helvetica,sans-Serif" font-size="10.00">ConnectedPlayer</text>
</a>
</g>
</g>
<!-- Node2&#45;&gt;Node3 -->
<g id="edge2_Node000002_Node000003" class="edge">
<title>Node2&#45;&gt;Node3</title>
<g id="a_edge2_Node000002_Node000003"><a xlink:title=" ">
<path fill="none" stroke="#63b8ff" d="M721.14,-95.5C705.59,-95.5 689.44,-95.5 674.27,-95.5"/>
<polygon fill="#63b8ff" stroke="#63b8ff" points="721.26,-99 731.26,-95.5 721.26,-92 721.26,-99"/>
</a>
</g>
</g>
<!-- Node4 -->
<g id="Node000004" class="node">
<title>Node4</title>
<g id="a_Node000004"><a xlink:href="../../db/d63/classTerraria_1_1MessageBuffer_ab4039006321b0ab8e7d66acbd82370b0.html#ab4039006321b0ab8e7d66acbd82370b0" target="_top" xlink:title=" ">
<polygon fill="white" stroke="#666666" points="495,-105 323,-105 323,-86 495,-86 495,-105"/>
<text text-anchor="middle" x="409" y="-93" font-family="Helvetica,sans-Serif" font-size="10.00">Terraria.MessageBuffer.GetData</text>
</a>
</g>
</g>
<!-- Node3&#45;&gt;Node4 -->
<g id="edge3_Node000003_Node000004" class="edge">
<title>Node3&#45;&gt;Node4</title>
<g id="a_edge3_Node000003_Node000004"><a xlink:title=" ">
<path fill="none" stroke="#63b8ff" d="M520.55,-95.5C512.12,-95.5 503.54,-95.5 495.07,-95.5"/>
<polygon fill="#63b8ff" stroke="#63b8ff" points="520.74,-99 530.74,-95.5 520.74,-92 520.74,-99"/>
</a>
</g>
</g>
<!-- Node6 -->
<g id="Node000006" class="node">
<title>Node6</title>
<g id="a_Node000006"><a xlink:href="../../da/dd5/classTerraria_1_1Main_a172d9fc82fc36587b85bb266f9868bf2.html#a172d9fc82fc36587b85bb266f9868bf2" target="_top" xlink:title=" ">
<polygon fill="white" stroke="#666666" points="674,-62 531,-62 531,-43 674,-43 674,-62"/>
<text text-anchor="middle" x="602.5" y="-50" font-family="Helvetica,sans-Serif" font-size="10.00">Terraria.Main.UpdateTime</text>
</a>
</g>
</g>
<!-- Node5&#45;&gt;Node6 -->
<g id="edge5_Node000005_Node000006" class="edge">
<title>Node5&#45;&gt;Node6</title>
<g id="a_edge5_Node000005_Node000006"><a xlink:title=" ">
<path fill="none" stroke="#63b8ff" d="M699.75,-52.5C691.05,-52.5 682.38,-52.5 674.02,-52.5"/>
<polygon fill="#63b8ff" stroke="#63b8ff" points="699.97,-56 709.97,-52.5 699.97,-49 699.97,-56"/>
</a>
</g>
</g>
<!-- Node7 -->
<g id="Node000007" class="node">
<title>Node7</title>
<g id="a_Node000007"><a xlink:href="../../da/dd5/classTerraria_1_1Main_a39cdec3f201787a467045358bfcba377.html#a39cdec3f201787a467045358bfcba377" target="_top" xlink:title=" ">
<polygon fill="white" stroke="#666666" points="479.5,-67.5 338.5,-67.5 338.5,-37.5 479.5,-37.5 479.5,-67.5"/>
<text text-anchor="start" x="346.5" y="-55.5" font-family="Helvetica,sans-Serif" font-size="10.00">Terraria.Main.DoUpdateIn</text>
<text text-anchor="middle" x="409" y="-44.5" font-family="Helvetica,sans-Serif" font-size="10.00">World</text>
</a>
</g>
</g>
<!-- Node6&#45;&gt;Node7 -->
<g id="edge6_Node000006_Node000007" class="edge">
<title>Node6&#45;&gt;Node7</title>
<g id="a_edge6_Node000006_Node000007"><a xlink:title=" ">
<path fill="none" stroke="#63b8ff" d="M520.43,-52.5C506.82,-52.5 492.8,-52.5 479.52,-52.5"/>
<polygon fill="#63b8ff" stroke="#63b8ff" points="520.74,-56 530.74,-52.5 520.74,-49 520.74,-56"/>
</a>
</g>
</g>
<!-- Node10 -->
<g id="Node000010" class="node">
<title>Node10</title>
<g id="a_Node000010"><a xlink:href="../../da/dd5/classTerraria_1_1Main_a7f3b3b6ca2af07b7eef45694f12678f4.html#a7f3b3b6ca2af07b7eef45694f12678f4" target="_top" xlink:title=" ">
<polygon fill="white" stroke="#666666" points="482,-19 336,-19 336,0 482,0 482,-19"/>
<text text-anchor="middle" x="409" y="-7" font-family="Helvetica,sans-Serif" font-size="10.00">Terraria.Main.UpdateMenu</text>
</a>
</g>
</g>
<!-- Node6&#45;&gt;Node10 -->
<g id="edge9_Node000006_Node000010" class="edge">
<title>Node6&#45;&gt;Node10</title>
<g id="a_edge9_Node000006_Node000010"><a xlink:title=" ">
<path fill="none" stroke="#63b8ff" d="M549.35,-40.73C532.05,-36.83 512.7,-32.47 495,-28.5 481.28,-25.42 466.31,-22.07 452.81,-19.05"/>
<polygon fill="#63b8ff" stroke="#63b8ff" points="548.74,-44.18 559.26,-42.96 550.28,-37.35 548.74,-44.18"/>
</a>
</g>
</g>
<!-- Node8 -->
<g id="Node000008" class="node">
<title>Node8</title>
<g id="a_Node000008"><a xlink:href="../../da/dd5/classTerraria_1_1Main_a96341b8439a15bcefc0f119767e24e35.html#a96341b8439a15bcefc0f119767e24e35" target="_top" xlink:title=" ">
<polygon fill="white" stroke="#666666" points="287,-40 155,-40 155,-21 287,-21 287,-40"/>
<text text-anchor="middle" x="221" y="-28" font-family="Helvetica,sans-Serif" font-size="10.00">Terraria.Main.DoUpdate</text>
</a>
</g>
</g>
<!-- Node7&#45;&gt;Node8 -->
<g id="edge7_Node000007_Node000008" class="edge">
<title>Node7&#45;&gt;Node8</title>
<g id="a_edge7_Node000007_Node000008"><a xlink:title=" ">
<path fill="none" stroke="#63b8ff" d="M328.51,-43.1C314.71,-41.47 300.5,-39.78 287.13,-38.2"/>
<polygon fill="#63b8ff" stroke="#63b8ff" points="328.13,-46.58 338.48,-44.28 328.96,-39.63 328.13,-46.58"/>
</a>
</g>
</g>
<!-- Node9 -->
<g id="Node000009" class="node">
<title>Node9</title>
<g id="a_Node000009"><a xlink:href="../../da/dd5/classTerraria_1_1Main_a49776516aea1626e33c722fc8896a7de.html#a49776516aea1626e33c722fc8896a7de" target="_top" xlink:title=" ">
<polygon fill="white" stroke="#666666" points="119,-40 0,-40 0,-21 119,-21 119,-40"/>
<text text-anchor="middle" x="59.5" y="-28" font-family="Helvetica,sans-Serif" font-size="10.00">Terraria.Main.Update</text>
</a>
</g>
</g>
<!-- Node8&#45;&gt;Node9 -->
<g id="edge8_Node000008_Node000009" class="edge">
<title>Node8&#45;&gt;Node9</title>
<g id="a_edge8_Node000008_Node000009"><a xlink:title=" ">
<path fill="none" stroke="#63b8ff" d="M144.64,-30.5C136.06,-30.5 127.4,-30.5 119.08,-30.5"/>
<polygon fill="#63b8ff" stroke="#63b8ff" points="144.67,-34 154.67,-30.5 144.66,-27 144.67,-34"/>
</a>
</g>
</g>
<!-- Node10&#45;&gt;Node8 -->
<g id="edge10_Node000010_Node000008" class="edge">
<title>Node10&#45;&gt;Node8</title>
<g id="a_edge10_Node000010_Node000008"><a xlink:title=" ">
<path fill="none" stroke="#63b8ff" d="M325.58,-18.81C312.71,-20.26 299.57,-21.74 287.16,-23.14"/>
<polygon fill="#63b8ff" stroke="#63b8ff" points="326.28,-22.25 335.82,-17.65 325.49,-15.29 326.28,-22.25"/>
</a>
</g>
</g>
</g>
</svg>
