<?xml version="1.0" encoding="UTF-8" standalone="no"?>
<!DOCTYPE svg PUBLIC "-//W3C//DTD SVG 1.1//EN"
 "http://www.w3.org/Graphics/SVG/1.1/DTD/svg11.dtd">
<!-- Generated by graphviz version 2.43.0 (0)
 -->
<!-- Title: Terraria.NetMessage.SendTravelShop Pages: 1 -->
<!--zoomable 364 -->

<svg id="main" version="1.1" xmlns="http://www.w3.org/2000/svg" xmlns:xlink="http://www.w3.org/1999/xlink" xml:space="preserve" onload="init(evt)">
<style type="text/css"><![CDATA[
.node, .edge {opacity: 0.7;}
.node.selected, .edge.selected {opacity: 1;}
.edge:hover path { stroke: red; }
.edge:hover polygon { stroke: red; fill: red; }
]]></style>

<defs>
  <circle id="rim" cx="0" cy="0" r="7"/>
  <circle id="rim2" cx="0" cy="0" r="3.5"/>
  <g id="zoomPlus">
    <use xlink:href="#rim" fill="#404040"><set attributeName="fill" to="#808080" begin="zoomplus.mouseover" end="zoomplus.mouseout"/></use>
    <path d="M-4,0h8M0,-4v8" fill="none" stroke="white" stroke-width="1.5" pointer-events="none"/>
  </g>
  <g id="zoomMin">
    <use xlink:href="#rim" fill="#404040"><set attributeName="fill" to="#808080" begin="zoomminus.mouseover" end="zoomminus.mouseout"/></use>
    <path d="M-4,0h8" fill="none" stroke="white" stroke-width="1.5" pointer-events="none"/>
  </g>
  <g id="arrowUp" transform="translate(30 24)">
    <use xlink:href="#rim"/>
    <path pointer-events="none" fill="none" stroke="white" stroke-width="1.5" d="M0,-3.0v7 M-2.5,-0.5L0,-3.0L2.5,-0.5"/>
  </g>
  <g id="arrowRight" transform="rotate(90) translate(36 -43)">
    <use xlink:href="#rim"/>
    <path pointer-events="none" fill="none" stroke="white" stroke-width="1.5" d="M0,-3.0v7 M-2.5,-0.5L0,-3.0L2.5,-0.5"/>
  </g>
  <g id="arrowDown" transform="rotate(180) translate(-30 -48)">
    <use xlink:href="#rim"/>
    <path pointer-events="none" fill="none" stroke="white" stroke-width="1.5" d="M0,-3.0v7 M-2.5,-0.5L0,-3.0L2.5,-0.5"/>
  </g>
  <g id="arrowLeft" transform="rotate(270) translate(-36 17)">
    <use xlink:href="#rim"/>
    <path pointer-events="none" fill="none" stroke="white" stroke-width="1.5" d="M0,-3.0v7 M-2.5,-0.5L0,-3.0L2.5,-0.5"/>
  </g>
  <g id="resetDef">
    <use xlink:href="#rim2" fill="#404040"><set attributeName="fill" to="#808080" begin="reset.mouseover" end="reset.mouseout"/></use>
  </g>
</defs>
<script type="application/ecmascript">
var viewWidth = 2785;
var viewHeight = 364;
var sectionId = 'dynsection-1';
</script>
<script type="application/ecmascript" xlink:href="../../svg.min.js"/>
<svg id="graph" class="graph">
<g id="viewport">
<title>Terraria.NetMessage.SendTravelShop</title>
<!-- Node1 -->
<g id="Node000001" class="node">
<title>Node1</title>
<g id="a_Node000001"><a xlink:title=" ">
<polygon fill="#999999" stroke="#666666" points="2777,-97 2633,-97 2633,-67 2777,-67 2777,-97"/>
<text text-anchor="start" x="2641" y="-85" font-family="Helvetica,sans-Serif" font-size="10.00">Terraria.NetMessage.Send</text>
<text text-anchor="middle" x="2705" y="-74" font-family="Helvetica,sans-Serif" font-size="10.00">TravelShop</text>
</a>
</g>
</g>
<!-- Node2 -->
<g id="Node000002" class="node">
<title>Node2</title>
<g id="a_Node000002"><a xlink:href="../../d2/dfe/classTerraria_1_1NetMessage_a25a7345a340a5dfc865751e715422250.html#a25a7345a340a5dfc865751e715422250" target="_top" xlink:title=" ">
<polygon fill="white" stroke="#666666" points="2575.5,-119 2430.5,-119 2430.5,-89 2575.5,-89 2575.5,-119"/>
<text text-anchor="start" x="2438.5" y="-107" font-family="Helvetica,sans-Serif" font-size="10.00">Terraria.NetMessage.Send</text>
<text text-anchor="middle" x="2503" y="-96" font-family="Helvetica,sans-Serif" font-size="10.00">NPCHousesAndTravelShop</text>
</a>
</g>
</g>
<!-- Node1&#45;&gt;Node2 -->
<g id="edge1_Node000001_Node000002" class="edge">
<title>Node1&#45;&gt;Node2</title>
<g id="a_edge1_Node000001_Node000002"><a xlink:title=" ">
<path fill="none" stroke="#63b8ff" d="M2622.75,-90.94C2607.11,-92.66 2590.83,-94.45 2575.52,-96.13"/>
<polygon fill="#63b8ff" stroke="#63b8ff" points="2623.37,-94.39 2632.92,-89.82 2622.6,-87.43 2623.37,-94.39"/>
</a>
</g>
</g>
<!-- Node37 -->
<g id="Node000037" class="node">
<title>Node37</title>
<g id="a_Node000037"><a xlink:href="../../de/da1/classTerraria_1_1WorldGen_a2a41f17e66ccb45f8e7f09e9e2d3e8e2.html#a2a41f17e66ccb45f8e7f09e9e2d3e8e2" target="_top" xlink:title=" ">
<polygon fill="white" stroke="#666666" points="2597,-70.5 2409,-70.5 2409,-51.5 2597,-51.5 2597,-70.5"/>
<text text-anchor="middle" x="2503" y="-58.5" font-family="Helvetica,sans-Serif" font-size="10.00">Terraria.WorldGen.SpawnTravelNPC</text>
</a>
</g>
</g>
<!-- Node1&#45;&gt;Node37 -->
<g id="edge40_Node000001_Node000037" class="edge">
<title>Node1&#45;&gt;Node37</title>
<g id="a_edge40_Node000001_Node000037"><a xlink:title=" ">
<path fill="none" stroke="#63b8ff" d="M2622.96,-73.49C2613.68,-72.52 2604.18,-71.52 2594.79,-70.53"/>
<polygon fill="#63b8ff" stroke="#63b8ff" points="2622.61,-76.97 2632.92,-74.54 2623.34,-70.01 2622.61,-76.97"/>
</a>
</g>
</g>
<!-- Node3 -->
<g id="Node000003" class="node">
<title>Node3</title>
<g id="a_Node000003"><a xlink:href="../../d2/dfe/classTerraria_1_1NetMessage_af515690d04a1cd4b0d129d3273667157.html#af515690d04a1cd4b0d129d3273667157" target="_top" xlink:title=" ">
<polygon fill="white" stroke="#666666" points="2373,-119 2230,-119 2230,-89 2373,-89 2373,-119"/>
<text text-anchor="start" x="2238" y="-107" font-family="Helvetica,sans-Serif" font-size="10.00">Terraria.NetMessage.Sync</text>
<text text-anchor="middle" x="2301.5" y="-96" font-family="Helvetica,sans-Serif" font-size="10.00">ConnectedPlayer</text>
</a>
</g>
</g>
<!-- Node2&#45;&gt;Node3 -->
<g id="edge2_Node000002_Node000003" class="edge">
<title>Node2&#45;&gt;Node3</title>
<g id="a_edge2_Node000002_Node000003"><a xlink:title=" ">
<path fill="none" stroke="#63b8ff" d="M2420.14,-104C2404.59,-104 2388.44,-104 2373.27,-104"/>
<polygon fill="#63b8ff" stroke="#63b8ff" points="2420.26,-107.5 2430.26,-104 2420.26,-100.5 2420.26,-107.5"/>
</a>
</g>
</g>
<!-- Node4 -->
<g id="Node000004" class="node">
<title>Node4</title>
<g id="a_Node000004"><a xlink:href="../../db/d63/classTerraria_1_1MessageBuffer_ab4039006321b0ab8e7d66acbd82370b0.html#ab4039006321b0ab8e7d66acbd82370b0" target="_top" xlink:title=" ">
<polygon fill="white" stroke="#666666" points="2194,-113.5 2022,-113.5 2022,-94.5 2194,-94.5 2194,-113.5"/>
<text text-anchor="middle" x="2108" y="-101.5" font-family="Helvetica,sans-Serif" font-size="10.00">Terraria.MessageBuffer.GetData</text>
</a>
</g>
</g>
<!-- Node3&#45;&gt;Node4 -->
<g id="edge3_Node000003_Node000004" class="edge">
<title>Node3&#45;&gt;Node4</title>
<g id="a_edge3_Node000003_Node000004"><a xlink:title=" ">
<path fill="none" stroke="#63b8ff" d="M2219.55,-104C2211.12,-104 2202.54,-104 2194.07,-104"/>
<polygon fill="#63b8ff" stroke="#63b8ff" points="2219.74,-107.5 2229.74,-104 2219.74,-100.5 2219.74,-107.5"/>
</a>
</g>
</g>
<!-- Node5 -->
<g id="Node000005" class="node">
<title>Node5</title>
<g id="a_Node000005"><a xlink:href="../../d2/dfe/classTerraria_1_1NetMessage_a0e34d7a3b999304ba194c4163243ce55.html#a0e34d7a3b999304ba194c4163243ce55" target="_top" xlink:title=" ">
<polygon fill="white" stroke="#666666" points="1986,-119 1836,-119 1836,-89 1986,-89 1986,-119"/>
<text text-anchor="start" x="1844" y="-107" font-family="Helvetica,sans-Serif" font-size="10.00">Terraria.NetMessage.Check</text>
<text text-anchor="middle" x="1911" y="-96" font-family="Helvetica,sans-Serif" font-size="10.00">Bytes</text>
</a>
</g>
</g>
<!-- Node4&#45;&gt;Node5 -->
<g id="edge4_Node000004_Node000005" class="edge">
<title>Node4&#45;&gt;Node5</title>
<g id="a_edge4_Node000004_Node000005"><a xlink:title=" ">
<path fill="none" stroke="#63b8ff" d="M2011.68,-104C2003.08,-104 1994.45,-104 1986.07,-104"/>
<polygon fill="#63b8ff" stroke="#63b8ff" points="2011.75,-107.5 2021.75,-104 2011.75,-100.5 2011.75,-107.5"/>
</a>
</g>
</g>
<!-- Node6 -->
<g id="Node000006" class="node">
<title>Node6</title>
<g id="a_Node000006"><a xlink:href="../../db/d90/classTerraria_1_1Netplay_a0177534cae0ae33727d0590e3585777a.html#a0177534cae0ae33727d0590e3585777a" target="_top" xlink:title=" ">
<polygon fill="white" stroke="#666666" points="1800,-180.5 1627,-180.5 1627,-161.5 1800,-161.5 1800,-180.5"/>
<text text-anchor="middle" x="1713.5" y="-168.5" font-family="Helvetica,sans-Serif" font-size="10.00">Terraria.Netplay.InnerClientLoop</text>
</a>
</g>
</g>
<!-- Node5&#45;&gt;Node6 -->
<g id="edge5_Node000005_Node000006" class="edge">
<title>Node5&#45;&gt;Node6</title>
<g id="a_edge5_Node000005_Node000006"><a xlink:title=" ">
<path fill="none" stroke="#63b8ff" d="M1870.7,-123.35C1850.03,-132.96 1824.05,-144.16 1800,-152 1788.87,-155.63 1776.7,-158.79 1765.12,-161.44"/>
<polygon fill="#63b8ff" stroke="#63b8ff" points="1872.24,-126.5 1879.8,-119.07 1869.26,-120.16 1872.24,-126.5"/>
</a>
</g>
</g>
<!-- Node32 -->
<g id="Node000032" class="node">
<title>Node32</title>
<g id="a_Node000032"><a xlink:href="../../db/d90/classTerraria_1_1Netplay_aa90a53404e1e4f7791f3bb47e5d4b2e8.html#aa90a53404e1e4f7791f3bb47e5d4b2e8" target="_top" xlink:title=" ">
<polygon fill="white" stroke="#666666" points="1793.5,-95 1633.5,-95 1633.5,-65 1793.5,-65 1793.5,-95"/>
<text text-anchor="start" x="1641.5" y="-83" font-family="Helvetica,sans-Serif" font-size="10.00">Terraria.Netplay.UpdateClient</text>
<text text-anchor="middle" x="1713.5" y="-72" font-family="Helvetica,sans-Serif" font-size="10.00">InMainThread</text>
</a>
</g>
</g>
<!-- Node5&#45;&gt;Node32 -->
<g id="edge34_Node000005_Node000032" class="edge">
<title>Node5&#45;&gt;Node32</title>
<g id="a_edge34_Node000005_Node000032"><a xlink:title=" ">
<path fill="none" stroke="#63b8ff" d="M1825.66,-93.65C1814.99,-92.34 1804.11,-91 1793.52,-89.7"/>
<polygon fill="#63b8ff" stroke="#63b8ff" points="1825.46,-97.15 1835.81,-94.89 1826.31,-90.2 1825.46,-97.15"/>
</a>
</g>
</g>
<!-- Node36 -->
<g id="Node000036" class="node">
<title>Node36</title>
<g id="a_Node000036"><a xlink:href="../../db/d90/classTerraria_1_1Netplay_aec54ed7e3dd3c29dae1930335ca1b763.html#aec54ed7e3dd3c29dae1930335ca1b763" target="_top" xlink:title=" ">
<polygon fill="white" stroke="#666666" points="1795,-143 1632,-143 1632,-113 1795,-113 1795,-143"/>
<text text-anchor="start" x="1640" y="-131" font-family="Helvetica,sans-Serif" font-size="10.00">Terraria.Netplay.UpdateServer</text>
<text text-anchor="middle" x="1713.5" y="-120" font-family="Helvetica,sans-Serif" font-size="10.00">InMainThread</text>
</a>
</g>
</g>
<!-- Node5&#45;&gt;Node36 -->
<g id="edge38_Node000005_Node000036" class="edge">
<title>Node5&#45;&gt;Node36</title>
<g id="a_edge38_Node000005_Node000036"><a xlink:title=" ">
<path fill="none" stroke="#63b8ff" d="M1825.75,-114.34C1815.6,-115.59 1805.26,-116.86 1795.16,-118.1"/>
<polygon fill="#63b8ff" stroke="#63b8ff" points="1826.31,-117.8 1835.81,-113.11 1825.46,-110.85 1826.31,-117.8"/>
</a>
</g>
</g>
<!-- Node7 -->
<g id="Node000007" class="node">
<title>Node7</title>
<g id="a_Node000007"><a xlink:href="../../db/d90/classTerraria_1_1Netplay_a0aab65a17de3d6fde6c56638080a0eb3.html#a0aab65a17de3d6fde6c56638080a0eb3" target="_top" xlink:title=" ">
<polygon fill="white" stroke="#666666" points="1591,-171.5 1414,-171.5 1414,-152.5 1591,-152.5 1591,-171.5"/>
<text text-anchor="middle" x="1502.5" y="-159.5" font-family="Helvetica,sans-Serif" font-size="10.00">Terraria.Netplay.SocialClientLoop</text>
</a>
</g>
</g>
<!-- Node6&#45;&gt;Node7 -->
<g id="edge6_Node000006_Node000007" class="edge">
<title>Node6&#45;&gt;Node7</title>
<g id="a_edge6_Node000006_Node000007"><a xlink:title=" ">
<path fill="none" stroke="#63b8ff" d="M1616.84,-166.88C1608.23,-166.51 1599.54,-166.14 1591.01,-165.77"/>
<polygon fill="#63b8ff" stroke="#63b8ff" points="1616.75,-170.38 1626.89,-167.31 1617.05,-163.39 1616.75,-170.38"/>
</a>
</g>
</g>
<!-- Node18 -->
<g id="Node000018" class="node">
<title>Node18</title>
<g id="a_Node000018"><a xlink:href="../../db/d90/classTerraria_1_1Netplay_a3b934fcb0fe838d54abafb6b31e2d0c0.html#a3b934fcb0fe838d54abafb6b31e2d0c0" target="_top" xlink:title=" ">
<polygon fill="white" stroke="#666666" points="1584.5,-222.5 1420.5,-222.5 1420.5,-203.5 1584.5,-203.5 1584.5,-222.5"/>
<text text-anchor="middle" x="1502.5" y="-210.5" font-family="Helvetica,sans-Serif" font-size="10.00">Terraria.Netplay.TcpClientLoop</text>
</a>
</g>
</g>
<!-- Node6&#45;&gt;Node18 -->
<g id="edge18_Node000006_Node000018" class="edge">
<title>Node6&#45;&gt;Node18</title>
<g id="a_edge18_Node000006_Node000018"><a xlink:title=" ">
<path fill="none" stroke="#63b8ff" d="M1655.2,-182.51C1622.51,-189.08 1582.02,-197.22 1551.1,-203.43"/>
<polygon fill="#63b8ff" stroke="#63b8ff" points="1655.96,-185.93 1665.07,-180.53 1654.58,-179.07 1655.96,-185.93"/>
</a>
</g>
</g>
<!-- Node8 -->
<g id="Node000008" class="node">
<title>Node8</title>
<g id="a_Node000008"><a xlink:href="../../db/d90/classTerraria_1_1Netplay_a95fbcd51bf95f62c790c052becf3ca70.html#a95fbcd51bf95f62c790c052becf3ca70" target="_top" xlink:title=" ">
<polygon fill="white" stroke="#666666" points="1378,-155 1229,-155 1229,-125 1378,-125 1378,-155"/>
<text text-anchor="start" x="1237" y="-143" font-family="Helvetica,sans-Serif" font-size="10.00">Terraria.Netplay.StartSocial</text>
<text text-anchor="middle" x="1303.5" y="-132" font-family="Helvetica,sans-Serif" font-size="10.00">Client</text>
</a>
</g>
</g>
<!-- Node7&#45;&gt;Node8 -->
<g id="edge7_Node000007_Node000008" class="edge">
<title>Node7&#45;&gt;Node8</title>
<g id="a_edge7_Node000007_Node000008"><a xlink:title=" ">
<path fill="none" stroke="#63b8ff" d="M1406.08,-151.34C1396.69,-150.3 1387.27,-149.24 1378.15,-148.22"/>
<polygon fill="#63b8ff" stroke="#63b8ff" points="1405.91,-154.85 1416.24,-152.48 1406.69,-147.89 1405.91,-154.85"/>
</a>
</g>
</g>
<!-- Node9 -->
<g id="Node000009" class="node">
<title>Node9</title>
<g id="a_Node000009"><a xlink:href="../../db/d90/classTerraria_1_1Netplay_a735e2f9e72e38fcb094d3cec93a90cb3.html#a735e2f9e72e38fcb094d3cec93a90cb3" target="_top" xlink:title=" ">
<polygon fill="white" stroke="#666666" points="1192,-135 1031,-135 1031,-105 1192,-105 1192,-135"/>
<text text-anchor="start" x="1039" y="-123" font-family="Helvetica,sans-Serif" font-size="10.00">Terraria.Netplay.OnConnected</text>
<text text-anchor="middle" x="1111.5" y="-112" font-family="Helvetica,sans-Serif" font-size="10.00">ToSocialServer</text>
</a>
</g>
</g>
<!-- Node8&#45;&gt;Node9 -->
<g id="edge8_Node000008_Node000009" class="edge">
<title>Node8&#45;&gt;Node9</title>
<g id="a_edge8_Node000008_Node000009"><a xlink:title=" ">
<path fill="none" stroke="#63b8ff" d="M1218.55,-131.16C1209.78,-130.24 1200.89,-129.3 1192.17,-128.39"/>
<polygon fill="#63b8ff" stroke="#63b8ff" points="1218.46,-134.67 1228.77,-132.24 1219.19,-127.71 1218.46,-134.67"/>
</a>
</g>
</g>
<!-- Node10 -->
<g id="Node000010" class="node">
<title>Node10</title>
<g id="a_Node000010"><a xlink:href="../../dc/d94/classTerraria_1_1Social_1_1WeGame_1_1NetClientSocialModule_a3aa4e495c006216e805fb76e98be06e0.html#a3aa4e495c006216e805fb76e98be06e0" target="_top" xlink:title=" ">
<polygon fill="white" stroke="#666666" points="991,-135 803,-135 803,-105 991,-105 991,-135"/>
<text text-anchor="start" x="811" y="-123" font-family="Helvetica,sans-Serif" font-size="10.00">Terraria.Social.WeGame.Net</text>
<text text-anchor="middle" x="897" y="-112" font-family="Helvetica,sans-Serif" font-size="10.00">ClientSocialModule.OnAuthSuccess</text>
</a>
</g>
</g>
<!-- Node9&#45;&gt;Node10 -->
<g id="edge9_Node000009_Node000010" class="edge">
<title>Node9&#45;&gt;Node10</title>
<g id="a_edge9_Node000009_Node000010"><a xlink:title=" ">
<path fill="none" stroke="#63b8ff" d="M1020.65,-120C1010.86,-120 1000.88,-120 991.06,-120"/>
<polygon fill="#63b8ff" stroke="#63b8ff" points="1020.77,-123.5 1030.77,-120 1020.77,-116.5 1020.77,-123.5"/>
</a>
</g>
</g>
<!-- Node13 -->
<g id="Node000013" class="node">
<title>Node13</title>
<g id="a_Node000013"><a xlink:href="../../d7/d4a/classTerraria_1_1Social_1_1Steam_1_1NetClientSocialModule_a22273ba592889cc0dfcc144f06138bbc.html#a22273ba592889cc0dfcc144f06138bbc" target="_top" xlink:title=" ">
<polygon fill="white" stroke="#666666" points="994,-84 800,-84 800,-54 994,-54 994,-84"/>
<text text-anchor="start" x="808" y="-72" font-family="Helvetica,sans-Serif" font-size="10.00">Terraria.Social.Steam.Net</text>
<text text-anchor="middle" x="897" y="-61" font-family="Helvetica,sans-Serif" font-size="10.00">ClientSocialModule.OnLobbyEntered</text>
</a>
</g>
</g>
<!-- Node9&#45;&gt;Node13 -->
<g id="edge12_Node000009_Node000013" class="edge">
<title>Node9&#45;&gt;Node13</title>
<g id="a_edge12_Node000009_Node000013"><a xlink:title=" ">
<path fill="none" stroke="#63b8ff" d="M1038.03,-102.61C1012.85,-96.56 984.84,-89.84 960.53,-84.01"/>
<polygon fill="#63b8ff" stroke="#63b8ff" points="1037.35,-106.04 1047.89,-104.97 1038.99,-99.24 1037.35,-106.04"/>
</a>
</g>
</g>
<!-- Node11 -->
<g id="Node000011" class="node">
<title>Node11</title>
<g id="a_Node000011"><a xlink:href="../../dc/d94/classTerraria_1_1Social_1_1WeGame_1_1NetClientSocialModule_a805b557babee519c34c71e4612e1b9af.html#a805b557babee519c34c71e4612e1b9af" target="_top" xlink:title=" ">
<polygon fill="white" stroke="#666666" points="759,-137 576,-137 576,-107 759,-107 759,-137"/>
<text text-anchor="start" x="584" y="-125" font-family="Helvetica,sans-Serif" font-size="10.00">Terraria.Social.WeGame.Net</text>
<text text-anchor="middle" x="667.5" y="-114" font-family="Helvetica,sans-Serif" font-size="10.00">ClientSocialModule.OnPacketRead</text>
</a>
</g>
</g>
<!-- Node10&#45;&gt;Node11 -->
<g id="edge10_Node000010_Node000011" class="edge">
<title>Node10&#45;&gt;Node11</title>
<g id="a_edge10_Node000010_Node000011"><a xlink:title=" ">
<path fill="none" stroke="#63b8ff" d="M792.65,-120.91C781.54,-121.01 770.29,-121.11 759.34,-121.2"/>
<polygon fill="#63b8ff" stroke="#63b8ff" points="792.84,-124.41 802.81,-120.82 792.78,-117.41 792.84,-124.41"/>
</a>
</g>
</g>
<!-- Node12 -->
<g id="Node000012" class="node">
<title>Node12</title>
<g id="a_Node000012"><a xlink:href="../../dc/d94/classTerraria_1_1Social_1_1WeGame_1_1NetClientSocialModule_ab875d83363ffab735301f201edb65488.html#ab875d83363ffab735301f201edb65488" target="_top" xlink:title=" ">
<polygon fill="white" stroke="#666666" points="513,-138 358,-138 358,-108 513,-108 513,-138"/>
<text text-anchor="start" x="366" y="-126" font-family="Helvetica,sans-Serif" font-size="10.00">Terraria.Social.WeGame.Net</text>
<text text-anchor="middle" x="435.5" y="-115" font-family="Helvetica,sans-Serif" font-size="10.00">ClientSocialModule.Initialize</text>
</a>
</g>
</g>
<!-- Node11&#45;&gt;Node12 -->
<g id="edge11_Node000011_Node000012" class="edge">
<title>Node11&#45;&gt;Node12</title>
<g id="a_edge11_Node000011_Node000012"><a xlink:title=" ">
<path fill="none" stroke="#63b8ff" d="M565.64,-122.44C548.06,-122.51 530.04,-122.59 513.24,-122.67"/>
<polygon fill="#63b8ff" stroke="#63b8ff" points="565.94,-125.94 575.93,-122.39 565.91,-118.94 565.94,-125.94"/>
</a>
</g>
</g>
<!-- Node14 -->
<g id="Node000014" class="node">
<title>Node14</title>
<g id="a_Node000014"><a xlink:href="../../d7/d4a/classTerraria_1_1Social_1_1Steam_1_1NetClientSocialModule_a3c558d5f5dc5d483d6c3d6ac0d9507c2.html#a3c558d5f5dc5d483d6c3d6ac0d9507c2" target="_top" xlink:title=" ">
<polygon fill="white" stroke="#666666" points="764,-36 571,-36 571,-6 764,-6 764,-36"/>
<text text-anchor="start" x="579" y="-24" font-family="Helvetica,sans-Serif" font-size="10.00">Terraria.Social.Steam.Net</text>
<text text-anchor="middle" x="667.5" y="-13" font-family="Helvetica,sans-Serif" font-size="10.00">ClientSocialModule.ConnectToLobby</text>
</a>
</g>
</g>
<!-- Node13&#45;&gt;Node14 -->
<g id="edge13_Node000013_Node000014" class="edge">
<title>Node13&#45;&gt;Node14</title>
<g id="a_edge13_Node000013_Node000014"><a xlink:title=" ">
<path fill="none" stroke="#63b8ff" d="M814.64,-51.83C790.12,-46.66 763.41,-41.02 739.61,-36"/>
<polygon fill="#63b8ff" stroke="#63b8ff" points="814.13,-55.3 824.64,-53.94 815.58,-48.46 814.13,-55.3"/>
</a>
</g>
</g>
<!-- Node17 -->
<g id="Node000017" class="node">
<title>Node17</title>
<g id="a_Node000017"><a xlink:href="../../d7/d4a/classTerraria_1_1Social_1_1Steam_1_1NetClientSocialModule_a590e1d127b423851d741ee658eaba1ba.html#a590e1d127b423851d741ee658eaba1ba" target="_top" xlink:title=" ">
<polygon fill="white" stroke="#666666" points="522.5,-89.5 348.5,-89.5 348.5,-48.5 522.5,-48.5 522.5,-89.5"/>
<text text-anchor="start" x="356.5" y="-77.5" font-family="Helvetica,sans-Serif" font-size="10.00">Terraria.Social.Steam.Net</text>
<text text-anchor="start" x="356.5" y="-66.5" font-family="Helvetica,sans-Serif" font-size="10.00">ClientSocialModule.OnLobbyJoin</text>
<text text-anchor="middle" x="435.5" y="-55.5" font-family="Helvetica,sans-Serif" font-size="10.00">Request</text>
</a>
</g>
</g>
<!-- Node13&#45;&gt;Node17 -->
<g id="edge16_Node000013_Node000017" class="edge">
<title>Node13&#45;&gt;Node17</title>
<g id="a_edge16_Node000013_Node000017"><a xlink:title=" ">
<path fill="none" stroke="#63b8ff" d="M789.72,-69C708.64,-69 598.38,-69 522.73,-69"/>
<polygon fill="#63b8ff" stroke="#63b8ff" points="789.95,-72.5 799.95,-69 789.95,-65.5 789.95,-72.5"/>
</a>
</g>
</g>
<!-- Node15 -->
<g id="Node000015" class="node">
<title>Node15</title>
<g id="a_Node000015"><a xlink:href="../../d7/d4a/classTerraria_1_1Social_1_1Steam_1_1NetClientSocialModule_a4a444adca38141b0cb7d6eb6b0176a14.html#a4a444adca38141b0cb7d6eb6b0176a14" target="_top" xlink:title=" ">
<polygon fill="white" stroke="#666666" points="535,-30 336,-30 336,0 535,0 535,-30"/>
<text text-anchor="start" x="344" y="-18" font-family="Helvetica,sans-Serif" font-size="10.00">Terraria.Social.Steam.Net</text>
<text text-anchor="middle" x="435.5" y="-7" font-family="Helvetica,sans-Serif" font-size="10.00">ClientSocialModule.CheckParameters</text>
</a>
</g>
</g>
<!-- Node14&#45;&gt;Node15 -->
<g id="edge14_Node000014_Node000015" class="edge">
<title>Node14&#45;&gt;Node15</title>
<g id="a_edge14_Node000014_Node000015"><a xlink:title=" ">
<path fill="none" stroke="#63b8ff" d="M560.9,-18.25C552.3,-18.02 543.63,-17.79 535.08,-17.57"/>
<polygon fill="#63b8ff" stroke="#63b8ff" points="560.87,-21.75 570.96,-18.51 561.05,-14.75 560.87,-21.75"/>
</a>
</g>
</g>
<!-- Node16 -->
<g id="Node000016" class="node">
<title>Node16</title>
<g id="a_Node000016"><a xlink:href="../../d7/d4a/classTerraria_1_1Social_1_1Steam_1_1NetClientSocialModule_af383ef4d3738050686d31eeea14a4ecf.html#af383ef4d3738050686d31eeea14a4ecf" target="_top" xlink:title=" ">
<polygon fill="white" stroke="#666666" points="300,-57 145,-57 145,-27 300,-27 300,-57"/>
<text text-anchor="start" x="153" y="-45" font-family="Helvetica,sans-Serif" font-size="10.00">Terraria.Social.Steam.Net</text>
<text text-anchor="middle" x="222.5" y="-34" font-family="Helvetica,sans-Serif" font-size="10.00">ClientSocialModule.Initialize</text>
</a>
</g>
</g>
<!-- Node15&#45;&gt;Node16 -->
<g id="edge15_Node000015_Node000016" class="edge">
<title>Node15&#45;&gt;Node16</title>
<g id="a_edge15_Node000015_Node000016"><a xlink:title=" ">
<path fill="none" stroke="#63b8ff" d="M325.65,-28.93C317,-30.04 308.38,-31.14 300.03,-32.21"/>
<polygon fill="#63b8ff" stroke="#63b8ff" points="326.32,-32.37 335.8,-27.63 325.43,-25.43 326.32,-32.37"/>
</a>
</g>
</g>
<!-- Node17&#45;&gt;Node16 -->
<g id="edge17_Node000017_Node000016" class="edge">
<title>Node17&#45;&gt;Node16</title>
<g id="a_edge17_Node000017_Node000016"><a xlink:title=" ">
<path fill="none" stroke="#63b8ff" d="M338.21,-56.68C325.47,-55.05 312.55,-53.4 300.21,-51.82"/>
<polygon fill="#63b8ff" stroke="#63b8ff" points="338.01,-60.18 348.37,-57.98 338.9,-53.24 338.01,-60.18"/>
</a>
</g>
</g>
<!-- Node19 -->
<g id="Node000019" class="node">
<title>Node19</title>
<g id="a_Node000019"><a xlink:href="../../db/d90/classTerraria_1_1Netplay_a9e9dd745269441e0d737ad3cc8ac437d.html#a9e9dd745269441e0d737ad3cc8ac437d" target="_top" xlink:title=" ">
<polygon fill="white" stroke="#666666" points="1371,-235 1236,-235 1236,-205 1371,-205 1371,-235"/>
<text text-anchor="start" x="1244" y="-223" font-family="Helvetica,sans-Serif" font-size="10.00">Terraria.Netplay.StartTcp</text>
<text text-anchor="middle" x="1303.5" y="-212" font-family="Helvetica,sans-Serif" font-size="10.00">Client</text>
</a>
</g>
</g>
<!-- Node18&#45;&gt;Node19 -->
<g id="edge19_Node000018_Node000019" class="edge">
<title>Node18&#45;&gt;Node19</title>
<g id="a_edge19_Node000018_Node000019"><a xlink:title=" ">
<path fill="none" stroke="#63b8ff" d="M1410.22,-216.24C1397.07,-216.71 1383.74,-217.18 1371.18,-217.63"/>
<polygon fill="#63b8ff" stroke="#63b8ff" points="1410.37,-219.74 1420.24,-215.89 1410.12,-212.74 1410.37,-219.74"/>
</a>
</g>
</g>
<!-- Node20 -->
<g id="Node000020" class="node">
<title>Node20</title>
<g id="a_Node000020"><a xlink:href="../../da/dd5/classTerraria_1_1Main_af14a405f72e122b1782d6ddb3c2845fa.html#af14a405f72e122b1782d6ddb3c2845fa" target="_top" xlink:title=" ">
<polygon fill="white" stroke="#666666" points="1173.5,-229.5 1049.5,-229.5 1049.5,-210.5 1173.5,-210.5 1173.5,-229.5"/>
<text text-anchor="middle" x="1111.5" y="-217.5" font-family="Helvetica,sans-Serif" font-size="10.00">Terraria.Main.AutoJoin</text>
</a>
</g>
</g>
<!-- Node19&#45;&gt;Node20 -->
<g id="edge20_Node000019_Node000020" class="edge">
<title>Node19&#45;&gt;Node20</title>
<g id="a_edge20_Node000019_Node000020"><a xlink:title=" ">
<path fill="none" stroke="#63b8ff" d="M1225.7,-220C1208.38,-220 1190.23,-220 1173.66,-220"/>
<polygon fill="#63b8ff" stroke="#63b8ff" points="1225.78,-223.5 1235.78,-220 1225.78,-216.5 1225.78,-223.5"/>
</a>
</g>
</g>
<!-- Node21 -->
<g id="Node000021" class="node">
<title>Node21</title>
<g id="a_Node000021"><a xlink:href="../../da/dd5/classTerraria_1_1Main_a41717edb6525f73f966d5bfb874d8056.html#a41717edb6525f73f966d5bfb874d8056" target="_top" xlink:title=" ">
<polygon fill="white" stroke="#666666" points="1193,-192 1030,-192 1030,-162 1193,-162 1193,-192"/>
<text text-anchor="start" x="1038" y="-180" font-family="Helvetica,sans-Serif" font-size="10.00">Terraria.Main.OnSubmitServer</text>
<text text-anchor="middle" x="1111.5" y="-169" font-family="Helvetica,sans-Serif" font-size="10.00">Password</text>
</a>
</g>
</g>
<!-- Node19&#45;&gt;Node21 -->
<g id="edge21_Node000019_Node000021" class="edge">
<title>Node19&#45;&gt;Node21</title>
<g id="a_edge21_Node000019_Node000021"><a xlink:title=" ">
<path fill="none" stroke="#63b8ff" d="M1225.93,-202.67C1210.36,-199.15 1194.1,-195.47 1178.92,-192.03"/>
<polygon fill="#63b8ff" stroke="#63b8ff" points="1225.52,-206.17 1236.05,-204.96 1227.07,-199.34 1225.52,-206.17"/>
</a>
</g>
</g>
<!-- Node27 -->
<g id="Node000027" class="node">
<title>Node27</title>
<g id="a_Node000027"><a xlink:href="../../da/dd5/classTerraria_1_1Main_a8e23db199a88c74f61dba8141b3e1464.html#a8e23db199a88c74f61dba8141b3e1464" target="_top" xlink:title=" ">
<polygon fill="white" stroke="#666666" points="1183.5,-334.5 1039.5,-334.5 1039.5,-315.5 1183.5,-315.5 1183.5,-334.5"/>
<text text-anchor="middle" x="1111.5" y="-322.5" font-family="Helvetica,sans-Serif" font-size="10.00">Terraria.Main.SelectPlayer</text>
</a>
</g>
</g>
<!-- Node19&#45;&gt;Node27 -->
<g id="edge27_Node000019_Node000027" class="edge">
<title>Node19&#45;&gt;Node27</title>
<g id="a_edge27_Node000019_Node000027"><a xlink:title=" ">
<path fill="none" stroke="#63b8ff" d="M1270.98,-240.54C1249.38,-254.3 1219.89,-272.48 1193,-287 1173.55,-297.5 1150.71,-308.13 1134.34,-315.46"/>
<polygon fill="#63b8ff" stroke="#63b8ff" points="1272.9,-243.46 1279.43,-235.12 1269.12,-237.57 1272.9,-243.46"/>
</a>
</g>
</g>
<!-- Node30 -->
<g id="Node000030" class="node">
<title>Node30</title>
<g id="a_Node000030"><a xlink:href="../../da/dd5/classTerraria_1_1Main_a365b23519a738e1955e6d70aa4bccafd.html#a365b23519a738e1955e6d70aa4bccafd" target="_top" xlink:title=" ">
<polygon fill="white" stroke="#666666" points="1179,-278 1044,-278 1044,-248 1179,-248 1179,-278"/>
<text text-anchor="start" x="1052" y="-266" font-family="Helvetica,sans-Serif" font-size="10.00">Terraria.Main.StartClient</text>
<text text-anchor="middle" x="1111.5" y="-255" font-family="Helvetica,sans-Serif" font-size="10.00">Gameplay</text>
</a>
</g>
</g>
<!-- Node19&#45;&gt;Node30 -->
<g id="edge30_Node000019_Node000030" class="edge">
<title>Node19&#45;&gt;Node30</title>
<g id="a_edge30_Node000019_Node000030"><a xlink:title=" ">
<path fill="none" stroke="#63b8ff" d="M1225.93,-237.33C1210.36,-240.85 1194.1,-244.53 1178.92,-247.97"/>
<polygon fill="#63b8ff" stroke="#63b8ff" points="1227.07,-240.66 1236.05,-235.04 1225.52,-233.83 1227.07,-240.66"/>
</a>
</g>
</g>
<!-- Node22 -->
<g id="Node000022" class="node">
<title>Node22</title>
<g id="a_Node000022"><a xlink:href="../../da/dd5/classTerraria_1_1Main_ae7acc9fe7fb0914ed02aacdfdc9039c5.html#ae7acc9fe7fb0914ed02aacdfdc9039c5" target="_top" xlink:title=" ">
<polygon fill="white" stroke="#666666" points="735.5,-258.5 599.5,-258.5 599.5,-239.5 735.5,-239.5 735.5,-258.5"/>
<text text-anchor="middle" x="667.5" y="-246.5" font-family="Helvetica,sans-Serif" font-size="10.00">Terraria.Main.DrawMenu</text>
</a>
</g>
</g>
<!-- Node21&#45;&gt;Node22 -->
<g id="edge22_Node000021_Node000022" class="edge">
<title>Node21&#45;&gt;Node22</title>
<g id="a_edge22_Node000021_Node000022"><a xlink:title=" ">
<path fill="none" stroke="#63b8ff" d="M1020,-191.74C932.28,-206.03 801.83,-227.28 726.98,-239.47"/>
<polygon fill="#63b8ff" stroke="#63b8ff" points="1020.64,-195.18 1029.94,-190.12 1019.51,-188.28 1020.64,-195.18"/>
</a>
</g>
</g>
<!-- Node26 -->
<g id="Node000026" class="node">
<title>Node26</title>
<g id="a_Node000026"><a xlink:href="../../da/dd5/classTerraria_1_1Main_a4235ca20881bf906c51075bd2dfefea1.html#a4235ca20881bf906c51075bd2dfefea1" target="_top" xlink:title=" ">
<polygon fill="white" stroke="#666666" points="978.5,-183 815.5,-183 815.5,-153 978.5,-153 978.5,-183"/>
<text text-anchor="start" x="823.5" y="-171" font-family="Helvetica,sans-Serif" font-size="10.00">Terraria.Main.OnSubmitServer</text>
<text text-anchor="middle" x="897" y="-160" font-family="Helvetica,sans-Serif" font-size="10.00">Password</text>
</a>
</g>
</g>
<!-- Node21&#45;&gt;Node26 -->
<g id="edge26_Node000021_Node000026" class="edge">
<title>Node21&#45;&gt;Node26</title>
<g id="a_edge26_Node000021_Node000026"><a xlink:title=" ">
<path fill="none" stroke="#63b8ff" d="M1019.53,-173.15C1005.92,-172.57 991.96,-171.98 978.59,-171.41"/>
<polygon fill="#63b8ff" stroke="#63b8ff" points="1019.72,-176.66 1029.86,-173.58 1020.02,-169.66 1019.72,-176.66"/>
</a>
</g>
</g>
<!-- Node23 -->
<g id="Node000023" class="node">
<title>Node23</title>
<g id="a_Node000023"><a xlink:href="../../da/dd5/classTerraria_1_1Main_a474beeecaea4d6dd108fba56cd554d46.html#a474beeecaea4d6dd108fba56cd554d46" target="_top" xlink:title=" ">
<polygon fill="white" stroke="#666666" points="496.5,-258.5 374.5,-258.5 374.5,-239.5 496.5,-239.5 496.5,-258.5"/>
<text text-anchor="middle" x="435.5" y="-246.5" font-family="Helvetica,sans-Serif" font-size="10.00">Terraria.Main.DoDraw</text>
</a>
</g>
</g>
<!-- Node22&#45;&gt;Node23 -->
<g id="edge23_Node000022_Node000023" class="edge">
<title>Node22&#45;&gt;Node23</title>
<g id="a_edge23_Node000022_Node000023"><a xlink:title=" ">
<path fill="none" stroke="#63b8ff" d="M589.28,-249C559.09,-249 524.98,-249 496.67,-249"/>
<polygon fill="#63b8ff" stroke="#63b8ff" points="589.36,-252.5 599.36,-249 589.36,-245.5 589.36,-252.5"/>
</a>
</g>
</g>
<!-- Node24 -->
<g id="Node000024" class="node">
<title>Node24</title>
<g id="a_Node000024"><a xlink:href="../../da/dd5/classTerraria_1_1Main_aa597dbafa085227bb056d05d0b0f9abe.html#aa597dbafa085227bb056d05d0b0f9abe" target="_top" xlink:title=" ">
<polygon fill="white" stroke="#666666" points="277,-264 168,-264 168,-234 277,-234 277,-264"/>
<text text-anchor="start" x="176" y="-252" font-family="Helvetica,sans-Serif" font-size="10.00">Terraria.Main.Draw</text>
<text text-anchor="middle" x="222.5" y="-241" font-family="Helvetica,sans-Serif" font-size="10.00">_Inner</text>
</a>
</g>
</g>
<!-- Node23&#45;&gt;Node24 -->
<g id="edge24_Node000023_Node000024" class="edge">
<title>Node23&#45;&gt;Node24</title>
<g id="a_edge24_Node000023_Node000024"><a xlink:title=" ">
<path fill="none" stroke="#63b8ff" d="M364.08,-249C335.77,-249 303.66,-249 277.28,-249"/>
<polygon fill="#63b8ff" stroke="#63b8ff" points="364.32,-252.5 374.32,-249 364.32,-245.5 364.32,-252.5"/>
</a>
</g>
</g>
<!-- Node25 -->
<g id="Node000025" class="node">
<title>Node25</title>
<g id="a_Node000025"><a xlink:href="../../da/dd5/classTerraria_1_1Main_a516aa31311860bad4242ade32e5effcd.html#a516aa31311860bad4242ade32e5effcd" target="_top" xlink:title=" ">
<polygon fill="white" stroke="#666666" points="109,-258.5 0,-258.5 0,-239.5 109,-239.5 109,-258.5"/>
<text text-anchor="middle" x="54.5" y="-246.5" font-family="Helvetica,sans-Serif" font-size="10.00">Terraria.Main.Draw</text>
</a>
</g>
</g>
<!-- Node24&#45;&gt;Node25 -->
<g id="edge25_Node000024_Node000025" class="edge">
<title>Node24&#45;&gt;Node25</title>
<g id="a_edge25_Node000024_Node000025"><a xlink:title=" ">
<path fill="none" stroke="#63b8ff" d="M157.31,-249C141.38,-249 124.48,-249 109.13,-249"/>
<polygon fill="#63b8ff" stroke="#63b8ff" points="157.6,-252.5 167.6,-249 157.6,-245.5 157.6,-252.5"/>
</a>
</g>
</g>
<!-- Node28 -->
<g id="Node000028" class="node">
<title>Node28</title>
<g id="a_Node000028"><a xlink:href="../../d8/d13/classTerraria_1_1GameContent_1_1UI_1_1Elements_1_1UICharacterListItem_a340caf28f2ffe89144b036695ef7e860.html#a340caf28f2ffe89144b036695ef7e860" target="_top" xlink:title=" ">
<polygon fill="white" stroke="#666666" points="980,-355.5 814,-355.5 814,-314.5 980,-314.5 980,-355.5"/>
<text text-anchor="start" x="822" y="-343.5" font-family="Helvetica,sans-Serif" font-size="10.00">Terraria.GameContent.UI.</text>
<text text-anchor="start" x="822" y="-332.5" font-family="Helvetica,sans-Serif" font-size="10.00">Elements.UICharacterListItem.</text>
<text text-anchor="middle" x="897" y="-321.5" font-family="Helvetica,sans-Serif" font-size="10.00">PlayGame</text>
</a>
</g>
</g>
<!-- Node27&#45;&gt;Node28 -->
<g id="edge28_Node000027_Node000028" class="edge">
<title>Node27&#45;&gt;Node28</title>
<g id="a_edge28_Node000027_Node000028"><a xlink:title=" ">
<path fill="none" stroke="#63b8ff" d="M1029.02,-328.83C1012.96,-329.59 996.09,-330.38 980.01,-331.14"/>
<polygon fill="#63b8ff" stroke="#63b8ff" points="1029.62,-332.31 1039.45,-328.34 1029.29,-325.32 1029.62,-332.31"/>
</a>
</g>
</g>
<!-- Node29 -->
<g id="Node000029" class="node">
<title>Node29</title>
<g id="a_Node000029"><a xlink:href="../../d8/d13/classTerraria_1_1GameContent_1_1UI_1_1Elements_1_1UICharacterListItem_a84c7d2bebc258bb2126ce4847c484e99.html#a84c7d2bebc258bb2126ce4847c484e99" target="_top" xlink:title=" ">
<polygon fill="white" stroke="#666666" points="750.5,-355.5 584.5,-355.5 584.5,-314.5 750.5,-314.5 750.5,-355.5"/>
<text text-anchor="start" x="592.5" y="-343.5" font-family="Helvetica,sans-Serif" font-size="10.00">Terraria.GameContent.UI.</text>
<text text-anchor="start" x="592.5" y="-332.5" font-family="Helvetica,sans-Serif" font-size="10.00">Elements.UICharacterListItem.</text>
<text text-anchor="middle" x="667.5" y="-321.5" font-family="Helvetica,sans-Serif" font-size="10.00">UICharacterListItem</text>
</a>
</g>
</g>
<!-- Node28&#45;&gt;Node29 -->
<g id="edge29_Node000028_Node000029" class="edge">
<title>Node28&#45;&gt;Node29</title>
<g id="a_edge29_Node000028_Node000029"><a xlink:title=" ">
<path fill="none" stroke="#63b8ff" d="M803.61,-335C786.03,-335 767.74,-335 750.51,-335"/>
<polygon fill="#63b8ff" stroke="#63b8ff" points="803.87,-338.5 813.87,-335 803.87,-331.5 803.87,-338.5"/>
</a>
</g>
</g>
<!-- Node30&#45;&gt;Node22 -->
<g id="edge31_Node000030_Node000022" class="edge">
<title>Node30&#45;&gt;Node22</title>
<g id="a_edge31_Node000030_Node000022"><a xlink:title=" ">
<path fill="none" stroke="#63b8ff" d="M1033.84,-260.57C949.68,-257.91 815.89,-253.67 735.69,-251.13"/>
<polygon fill="#63b8ff" stroke="#63b8ff" points="1033.74,-264.07 1043.85,-260.89 1033.97,-257.07 1033.74,-264.07"/>
</a>
</g>
</g>
<!-- Node31 -->
<g id="Node000031" class="node">
<title>Node31</title>
<g id="a_Node000031"><a xlink:href="../../da/dd5/classTerraria_1_1Main_a33ab56670ca7132e963f3f6f9c757e38.html#a33ab56670ca7132e963f3f6f9c757e38" target="_top" xlink:title=" ">
<polygon fill="white" stroke="#666666" points="988,-296.5 806,-296.5 806,-277.5 988,-277.5 988,-296.5"/>
<text text-anchor="middle" x="897" y="-284.5" font-family="Helvetica,sans-Serif" font-size="10.00">Terraria.Main.OnSubmitServerPort</text>
</a>
</g>
</g>
<!-- Node30&#45;&gt;Node31 -->
<g id="edge32_Node000030_Node000031" class="edge">
<title>Node30&#45;&gt;Node31</title>
<g id="a_edge32_Node000030_Node000031"><a xlink:title=" ">
<path fill="none" stroke="#63b8ff" d="M1033.64,-271.68C1017,-273.56 999.32,-275.56 982.41,-277.47"/>
<polygon fill="#63b8ff" stroke="#63b8ff" points="1034.3,-275.13 1043.85,-270.53 1033.52,-268.17 1034.3,-275.13"/>
</a>
</g>
</g>
<!-- Node31&#45;&gt;Node22 -->
<g id="edge33_Node000031_Node000022" class="edge">
<title>Node31&#45;&gt;Node22</title>
<g id="a_edge33_Node000031_Node000022"><a xlink:title=" ">
<path fill="none" stroke="#63b8ff" d="M828.92,-275.8C796.1,-270.31 757.01,-263.78 725.64,-258.54"/>
<polygon fill="#63b8ff" stroke="#63b8ff" points="828.45,-279.26 838.89,-277.46 829.6,-272.36 828.45,-279.26"/>
</a>
</g>
</g>
<!-- Node33 -->
<g id="Node000033" class="node">
<title>Node33</title>
<g id="a_Node000033"><a xlink:href="../../db/d90/classTerraria_1_1Netplay_ae1189b2f060611d11bb9faa824ed2eb7.html#ae1189b2f060611d11bb9faa824ed2eb7" target="_top" xlink:title=" ">
<polygon fill="white" stroke="#666666" points="1572.5,-117 1432.5,-117 1432.5,-87 1572.5,-87 1572.5,-117"/>
<text text-anchor="start" x="1440.5" y="-105" font-family="Helvetica,sans-Serif" font-size="10.00">Terraria.Netplay.UpdateIn</text>
<text text-anchor="middle" x="1502.5" y="-94" font-family="Helvetica,sans-Serif" font-size="10.00">MainThread</text>
</a>
</g>
</g>
<!-- Node32&#45;&gt;Node33 -->
<g id="edge35_Node000032_Node000033" class="edge">
<title>Node32&#45;&gt;Node33</title>
<g id="a_edge35_Node000032_Node000033"><a xlink:title=" ">
<path fill="none" stroke="#63b8ff" d="M1623.07,-89.41C1606.21,-91.19 1588.82,-93.02 1572.69,-94.72"/>
<polygon fill="#63b8ff" stroke="#63b8ff" points="1623.91,-92.84 1633.49,-88.32 1623.17,-85.88 1623.91,-92.84"/>
</a>
</g>
</g>
<!-- Node34 -->
<g id="Node000034" class="node">
<title>Node34</title>
<g id="a_Node000034"><a xlink:href="../../da/dd5/classTerraria_1_1Main_a96341b8439a15bcefc0f119767e24e35.html#a96341b8439a15bcefc0f119767e24e35" target="_top" xlink:title=" ">
<polygon fill="white" stroke="#666666" points="1369.5,-68.5 1237.5,-68.5 1237.5,-49.5 1369.5,-49.5 1369.5,-68.5"/>
<text text-anchor="middle" x="1303.5" y="-56.5" font-family="Helvetica,sans-Serif" font-size="10.00">Terraria.Main.DoUpdate</text>
</a>
</g>
</g>
<!-- Node33&#45;&gt;Node34 -->
<g id="edge36_Node000033_Node000034" class="edge">
<title>Node33&#45;&gt;Node34</title>
<g id="a_edge36_Node000033_Node000034"><a xlink:title=" ">
<path fill="none" stroke="#63b8ff" d="M1422.6,-84.78C1397.21,-79.24 1370.01,-73.3 1348.13,-68.52"/>
<polygon fill="#63b8ff" stroke="#63b8ff" points="1422.08,-88.25 1432.6,-86.96 1423.58,-81.41 1422.08,-88.25"/>
</a>
</g>
</g>
<!-- Node35 -->
<g id="Node000035" class="node">
<title>Node35</title>
<g id="a_Node000035"><a xlink:href="../../da/dd5/classTerraria_1_1Main_a49776516aea1626e33c722fc8896a7de.html#a49776516aea1626e33c722fc8896a7de" target="_top" xlink:title=" ">
<polygon fill="white" stroke="#666666" points="1171,-68.5 1052,-68.5 1052,-49.5 1171,-49.5 1171,-68.5"/>
<text text-anchor="middle" x="1111.5" y="-56.5" font-family="Helvetica,sans-Serif" font-size="10.00">Terraria.Main.Update</text>
</a>
</g>
</g>
<!-- Node34&#45;&gt;Node35 -->
<g id="edge37_Node000034_Node000035" class="edge">
<title>Node34&#45;&gt;Node35</title>
<g id="a_edge37_Node000034_Node000035"><a xlink:title=" ">
<path fill="none" stroke="#63b8ff" d="M1227.16,-59C1208.54,-59 1188.86,-59 1171.17,-59"/>
<polygon fill="#63b8ff" stroke="#63b8ff" points="1227.38,-62.5 1237.38,-59 1227.38,-55.5 1227.38,-62.5"/>
</a>
</g>
</g>
<!-- Node36&#45;&gt;Node33 -->
<g id="edge39_Node000036_Node000033" class="edge">
<title>Node36&#45;&gt;Node33</title>
<g id="a_edge39_Node000036_Node000033"><a xlink:title=" ">
<path fill="none" stroke="#63b8ff" d="M1621.82,-116.72C1605.37,-114.67 1588.45,-112.57 1572.74,-110.61"/>
<polygon fill="#63b8ff" stroke="#63b8ff" points="1621.64,-120.22 1631.99,-117.98 1622.5,-113.28 1621.64,-120.22"/>
</a>
</g>
</g>
<!-- Node38 -->
<g id="Node000038" class="node">
<title>Node38</title>
<g id="a_Node000038"><a xlink:href="../../da/dd5/classTerraria_1_1Main_a172d9fc82fc36587b85bb266f9868bf2.html#a172d9fc82fc36587b85bb266f9868bf2" target="_top" xlink:title=" ">
<polygon fill="white" stroke="#666666" points="1785,-46.5 1642,-46.5 1642,-27.5 1785,-27.5 1785,-46.5"/>
<text text-anchor="middle" x="1713.5" y="-34.5" font-family="Helvetica,sans-Serif" font-size="10.00">Terraria.Main.UpdateTime</text>
</a>
</g>
</g>
<!-- Node37&#45;&gt;Node38 -->
<g id="edge41_Node000037_Node000038" class="edge">
<title>Node37&#45;&gt;Node38</title>
<g id="a_edge41_Node000037_Node000038"><a xlink:title=" ">
<path fill="none" stroke="#63b8ff" d="M2398.95,-57.86C2236.38,-52.91 1924.58,-43.4 1785.04,-39.15"/>
<polygon fill="#63b8ff" stroke="#63b8ff" points="2398.86,-61.36 2408.96,-58.16 2399.07,-54.36 2398.86,-61.36"/>
</a>
</g>
</g>
<!-- Node39 -->
<g id="Node000039" class="node">
<title>Node39</title>
<g id="a_Node000039"><a xlink:href="../../da/dd5/classTerraria_1_1Main_a39cdec3f201787a467045358bfcba377.html#a39cdec3f201787a467045358bfcba377" target="_top" xlink:title=" ">
<polygon fill="white" stroke="#666666" points="1573,-31 1432,-31 1432,-1 1573,-1 1573,-31"/>
<text text-anchor="start" x="1440" y="-19" font-family="Helvetica,sans-Serif" font-size="10.00">Terraria.Main.DoUpdateIn</text>
<text text-anchor="middle" x="1502.5" y="-8" font-family="Helvetica,sans-Serif" font-size="10.00">World</text>
</a>
</g>
</g>
<!-- Node38&#45;&gt;Node39 -->
<g id="edge42_Node000038_Node000039" class="edge">
<title>Node38&#45;&gt;Node39</title>
<g id="a_edge42_Node000038_Node000039"><a xlink:title=" ">
<path fill="none" stroke="#63b8ff" d="M1631.75,-28.89C1612.4,-26.94 1591.91,-24.88 1573.12,-23"/>
<polygon fill="#63b8ff" stroke="#63b8ff" points="1631.44,-32.37 1641.74,-29.89 1632.14,-25.41 1631.44,-32.37"/>
</a>
</g>
</g>
<!-- Node40 -->
<g id="Node000040" class="node">
<title>Node40</title>
<g id="a_Node000040"><a xlink:href="../../da/dd5/classTerraria_1_1Main_a7f3b3b6ca2af07b7eef45694f12678f4.html#a7f3b3b6ca2af07b7eef45694f12678f4" target="_top" xlink:title=" ">
<polygon fill="white" stroke="#666666" points="1575.5,-68.5 1429.5,-68.5 1429.5,-49.5 1575.5,-49.5 1575.5,-68.5"/>
<text text-anchor="middle" x="1502.5" y="-56.5" font-family="Helvetica,sans-Serif" font-size="10.00">Terraria.Main.UpdateMenu</text>
</a>
</g>
</g>
<!-- Node38&#45;&gt;Node40 -->
<g id="edge44_Node000038_Node000040" class="edge">
<title>Node38&#45;&gt;Node40</title>
<g id="a_edge44_Node000038_Node000040"><a xlink:title=" ">
<path fill="none" stroke="#63b8ff" d="M1631.61,-45.51C1613.16,-47.46 1593.67,-49.51 1575.61,-51.41"/>
<polygon fill="#63b8ff" stroke="#63b8ff" points="1632.16,-48.98 1641.74,-44.45 1631.43,-42.01 1632.16,-48.98"/>
</a>
</g>
</g>
<!-- Node39&#45;&gt;Node34 -->
<g id="edge43_Node000039_Node000034" class="edge">
<title>Node39&#45;&gt;Node34</title>
<g id="a_edge43_Node000039_Node000034"><a xlink:title=" ">
<path fill="none" stroke="#63b8ff" d="M1422.6,-33.22C1397.21,-38.76 1370.01,-44.7 1348.13,-49.48"/>
<polygon fill="#63b8ff" stroke="#63b8ff" points="1423.58,-36.59 1432.6,-31.04 1422.08,-29.75 1423.58,-36.59"/>
</a>
</g>
</g>
<!-- Node40&#45;&gt;Node34 -->
<g id="edge45_Node000040_Node000034" class="edge">
<title>Node40&#45;&gt;Node34</title>
<g id="a_edge45_Node000040_Node000034"><a xlink:title=" ">
<path fill="none" stroke="#63b8ff" d="M1419.07,-59C1402.54,-59 1385.39,-59 1369.56,-59"/>
<polygon fill="#63b8ff" stroke="#63b8ff" points="1419.26,-62.5 1429.26,-59 1419.26,-55.5 1419.26,-62.5"/>
</a>
</g>
</g>
</g>
</svg>

<g id="navigator" transform="translate(0 0)" fill="#404254">
  <rect fill="#f2f5e9" fill-opacity="0.5" stroke="#606060" stroke-width=".5" x="0" y="0" width="60" height="60"/>
  <use id="zoomplus" xlink:href="#zoomPlus" x="17" y="9" onmousedown="handleZoom(evt,'in')"/>
  <use id="zoomminus" xlink:href="#zoomMin" x="42" y="9" onmousedown="handleZoom(evt,'out')"/>
  <use id="reset" xlink:href="#resetDef" x="30" y="36" onmousedown="handleReset()"/>
   <use id="arrowup" xlink:href="#arrowUp" x="0" y="0" onmousedown="handlePan(0,-1)"/>
  <use id="arrowright" xlink:href="#arrowRight" x="0" y="0" onmousedown="handlePan(1,0)"/>
  <use id="arrowdown" xlink:href="#arrowDown" x="0" y="0" onmousedown="handlePan(0,1)"/>
  <use id="arrowleft" xlink:href="#arrowLeft" x="0" y="0" onmousedown="handlePan(-1,0)"/>
</g>
<svg viewBox="0 0 15 15" width="100%" height="30px" preserveAspectRatio="xMaxYMin meet">
 <g id="arrow_out" transform="scale(0.3 0.3)">
  <a xlink:href="classTerraria_1_1NetMessage_aa2288a324711f828b5cd3b7995547aa7_aa2288a324711f828b5cd3b7995547aa7_icgraph_org.svg" target="_base">
   <rect id="button" ry="5" rx="5" y="6" x="6" height="38" width="38"
        fill="#f2f5e9" fill-opacity="0.5" stroke="#606060" stroke-width="1.0"/>
   <path id="arrow"
     d="M 11.500037,31.436501 C 11.940474,20.09759 22.043105,11.32322 32.158766,21.979434 L 37.068811,17.246167 C 37.068811,17.246167 37.088388,32 37.088388,32 L 22.160133,31.978069 C 22.160133,31.978069 26.997745,27.140456 26.997745,27.140456 C 18.528582,18.264221 13.291696,25.230495 11.500037,31.436501 z"
     style="fill:#404040;"/>
  </a>
 </g>
</svg>

<style type='text/css'>
<![CDATA[
[data-mouse-over-selected='false'] { opacity: 0.7; }
[data-mouse-over-selected='true']  { opacity: 1.0; }
]]>
</style>
<script type="application/ecmascript"><![CDATA[
document.addEventListener('DOMContentLoaded', (event) => {
  highlightEdges();
  highlightAdjacentNodes();
});
]]></script>
</svg>
