<?xml version="1.0" encoding="UTF-8" standalone="no"?>
<!DOCTYPE svg PUBLIC "-//W3C//DTD SVG 1.1//EN"
 "http://www.w3.org/Graphics/SVG/1.1/DTD/svg11.dtd">
<!-- Generated by graphviz version 2.43.0 (0)
 -->
<!-- Title: Terraria.GameContent.Biomes.Desert.DesertHive.ClusterGroup.ClusterGroup Pages: 1 -->
<svg width="608pt" height="126pt"
 viewBox="0.00 0.00 608.00 126.00" xmlns="http://www.w3.org/2000/svg" xmlns:xlink="http://www.w3.org/1999/xlink">
<g id="graph0" class="graph" transform="scale(1 1) rotate(0) translate(4 122)">
<title>Terraria.GameContent.Biomes.Desert.DesertHive.ClusterGroup.ClusterGroup</title>
<!-- Node1 -->
<g id="Node000001" class="node">
<title>Node1</title>
<g id="a_Node000001"><a xlink:title=" ">
<polygon fill="#999999" stroke="#666666" points="176,-79 0,-79 0,-38 176,-38 176,-79"/>
<text text-anchor="start" x="8" y="-67" font-family="Helvetica,sans-Serif" font-size="10.00">Terraria.GameContent.Biomes.</text>
<text text-anchor="start" x="8" y="-56" font-family="Helvetica,sans-Serif" font-size="10.00">Desert.DesertHive.ClusterGroup.</text>
<text text-anchor="middle" x="88" y="-45" font-family="Helvetica,sans-Serif" font-size="10.00">ClusterGroup</text>
</a>
</g>
</g>
<!-- Node2 -->
<g id="Node000002" class="node">
<title>Node2</title>
<g id="a_Node000002"><a xlink:href="../../d8/dfc/classTerraria_1_1GameContent_1_1Biomes_1_1Desert_1_1DesertHive_1_1ClusterGroup_a4332fea6e71896038247a30d9ceefb5d.html#a4332fea6e71896038247a30d9ceefb5d" target="_top" xlink:title=" ">
<polygon fill="white" stroke="#666666" points="388,-79 212,-79 212,-38 388,-38 388,-79"/>
<text text-anchor="start" x="220" y="-67" font-family="Helvetica,sans-Serif" font-size="10.00">Terraria.GameContent.Biomes.</text>
<text text-anchor="start" x="220" y="-56" font-family="Helvetica,sans-Serif" font-size="10.00">Desert.DesertHive.ClusterGroup.</text>
<text text-anchor="middle" x="300" y="-45" font-family="Helvetica,sans-Serif" font-size="10.00">Generate</text>
</a>
</g>
</g>
<!-- Node1&#45;&gt;Node2 -->
<g id="edge1_Node000001_Node000002" class="edge">
<title>Node1&#45;&gt;Node2</title>
<g id="a_edge1_Node000001_Node000002"><a xlink:title=" ">
<path fill="none" stroke="#63b8ff" d="M176.23,-58.5C184.57,-58.5 193.05,-58.5 201.47,-58.5"/>
<polygon fill="#63b8ff" stroke="#63b8ff" points="201.7,-62 211.7,-58.5 201.7,-55 201.7,-62"/>
</a>
</g>
</g>
<!-- Node3 -->
<g id="Node000003" class="node">
<title>Node3</title>
<g id="a_Node000003"><a xlink:href="../../d8/dfc/classTerraria_1_1GameContent_1_1Biomes_1_1Desert_1_1DesertHive_1_1ClusterGroup_a7ce50c52ac7f54ece753659f1fa69643.html#a7ce50c52ac7f54ece753659f1fa69643" target="_top" xlink:title=" ">
<polygon fill="white" stroke="#666666" points="600,-118 424,-118 424,-77 600,-77 600,-118"/>
<text text-anchor="start" x="432" y="-106" font-family="Helvetica,sans-Serif" font-size="10.00">Terraria.GameContent.Biomes.</text>
<text text-anchor="start" x="432" y="-95" font-family="Helvetica,sans-Serif" font-size="10.00">Desert.DesertHive.ClusterGroup.</text>
<text text-anchor="middle" x="512" y="-84" font-family="Helvetica,sans-Serif" font-size="10.00">AttemptClaim</text>
</a>
</g>
</g>
<!-- Node2&#45;&gt;Node3 -->
<g id="edge2_Node000002_Node000003" class="edge">
<title>Node2&#45;&gt;Node3</title>
<g id="a_edge2_Node000002_Node000003"><a xlink:title=" ">
<path fill="none" stroke="#63b8ff" d="M388.23,-74.7C396.66,-76.27 405.24,-77.86 413.75,-79.44"/>
<polygon fill="#63b8ff" stroke="#63b8ff" points="413.23,-82.9 423.7,-81.29 414.51,-76.02 413.23,-82.9"/>
</a>
</g>
</g>
<!-- Node4 -->
<g id="Node000004" class="node">
<title>Node4</title>
<g id="a_Node000004"><a xlink:href="../../d8/dfc/classTerraria_1_1GameContent_1_1Biomes_1_1Desert_1_1DesertHive_1_1ClusterGroup_a1e3227a8584b13301329f408604839e7.html#a1e3227a8584b13301329f408604839e7" target="_top" xlink:title=" ">
<polygon fill="white" stroke="#666666" points="600,-41 424,-41 424,0 600,0 600,-41"/>
<text text-anchor="start" x="432" y="-29" font-family="Helvetica,sans-Serif" font-size="10.00">Terraria.GameContent.Biomes.</text>
<text text-anchor="start" x="432" y="-18" font-family="Helvetica,sans-Serif" font-size="10.00">Desert.DesertHive.ClusterGroup.</text>
<text text-anchor="middle" x="512" y="-7" font-family="Helvetica,sans-Serif" font-size="10.00">SearchForCluster</text>
</a>
</g>
</g>
<!-- Node2&#45;&gt;Node4 -->
<g id="edge3_Node000002_Node000004" class="edge">
<title>Node2&#45;&gt;Node4</title>
<g id="a_edge3_Node000002_Node000004"><a xlink:title=" ">
<path fill="none" stroke="#63b8ff" d="M388.23,-42.71C396.66,-41.19 405.24,-39.64 413.75,-38.1"/>
<polygon fill="#63b8ff" stroke="#63b8ff" points="414.48,-41.52 423.7,-36.3 413.24,-34.63 414.48,-41.52"/>
</a>
</g>
</g>
<!-- Node4&#45;&gt;Node4 -->
<g id="edge4_Node000004_Node000004" class="edge">
<title>Node4&#45;&gt;Node4</title>
<g id="a_edge4_Node000004_Node000004"><a xlink:title=" ">
<path fill="none" stroke="#63b8ff" d="M473.4,-41.1C469.19,-50.65 482.06,-59 512,-59 530.71,-59 542.76,-55.74 548.13,-50.96"/>
<polygon fill="#63b8ff" stroke="#63b8ff" points="551.57,-51.65 550.6,-41.1 544.77,-49.95 551.57,-51.65"/>
</a>
</g>
</g>
</g>
</svg>
