<?xml version="1.0" encoding="UTF-8" standalone="no"?>
<!DOCTYPE svg PUBLIC "-//W3C//DTD SVG 1.1//EN"
 "http://www.w3.org/Graphics/SVG/1.1/DTD/svg11.dtd">
<!-- Generated by graphviz version 2.43.0 (0)
 -->
<!-- Title: Terraria.GameContent.Biomes.Desert.DesertDescription.UpdateSurfaceMap Pages: 1 -->
<svg width="595pt" height="49pt"
 viewBox="0.00 0.00 595.00 49.00" xmlns="http://www.w3.org/2000/svg" xmlns:xlink="http://www.w3.org/1999/xlink">
<g id="graph0" class="graph" transform="scale(1 1) rotate(0) translate(4 45)">
<title>Terraria.GameContent.Biomes.Desert.DesertDescription.UpdateSurfaceMap</title>
<!-- Node1 -->
<g id="Node000001" class="node">
<title>Node1</title>
<g id="a_Node000001"><a xlink:title=" ">
<polygon fill="#999999" stroke="#666666" points="178,-41 0,-41 0,0 178,0 178,-41"/>
<text text-anchor="start" x="8" y="-29" font-family="Helvetica,sans-Serif" font-size="10.00">Terraria.GameContent.Biomes.</text>
<text text-anchor="start" x="8" y="-18" font-family="Helvetica,sans-Serif" font-size="10.00">Desert.DesertDescription.Update</text>
<text text-anchor="middle" x="89" y="-7" font-family="Helvetica,sans-Serif" font-size="10.00">SurfaceMap</text>
</a>
</g>
</g>
<!-- Node2 -->
<g id="Node000002" class="node">
<title>Node2</title>
<g id="a_Node000002"><a xlink:href="../../d2/dbe/classTerraria_1_1GameContent_1_1Biomes_1_1Desert_1_1SurfaceMap_a6fc7f31f6d5957a18685d8fdb287a02d.html#a6fc7f31f6d5957a18685d8fdb287a02d" target="_top" xlink:title=" ">
<polygon fill="white" stroke="#666666" points="381,-35.5 214,-35.5 214,-5.5 381,-5.5 381,-35.5"/>
<text text-anchor="start" x="222" y="-23.5" font-family="Helvetica,sans-Serif" font-size="10.00">Terraria.GameContent.Biomes.</text>
<text text-anchor="middle" x="297.5" y="-12.5" font-family="Helvetica,sans-Serif" font-size="10.00">Desert.SurfaceMap.FromArea</text>
</a>
</g>
</g>
<!-- Node1&#45;&gt;Node2 -->
<g id="edge1_Node000001_Node000002" class="edge">
<title>Node1&#45;&gt;Node2</title>
<g id="a_edge1_Node000001_Node000002"><a xlink:title=" ">
<path fill="none" stroke="#63b8ff" d="M178.17,-20.5C186.59,-20.5 195.14,-20.5 203.6,-20.5"/>
<polygon fill="#63b8ff" stroke="#63b8ff" points="203.86,-24 213.86,-20.5 203.86,-17 203.86,-24"/>
</a>
</g>
</g>
<!-- Node3 -->
<g id="Node000003" class="node">
<title>Node3</title>
<g id="a_Node000003"><a xlink:href="../../d2/dbe/classTerraria_1_1GameContent_1_1Biomes_1_1Desert_1_1SurfaceMap_ac5d6a79f34112f23b3e28676bc6c78fd.html#ac5d6a79f34112f23b3e28676bc6c78fd" target="_top" xlink:title=" ">
<polygon fill="white" stroke="#666666" points="587,-35.5 417,-35.5 417,-5.5 587,-5.5 587,-35.5"/>
<text text-anchor="start" x="425" y="-23.5" font-family="Helvetica,sans-Serif" font-size="10.00">Terraria.GameContent.Biomes.</text>
<text text-anchor="middle" x="502" y="-12.5" font-family="Helvetica,sans-Serif" font-size="10.00">Desert.SurfaceMap.SurfaceMap</text>
</a>
</g>
</g>
<!-- Node2&#45;&gt;Node3 -->
<g id="edge2_Node000002_Node000003" class="edge">
<title>Node2&#45;&gt;Node3</title>
<g id="a_edge2_Node000002_Node000003"><a xlink:title=" ">
<path fill="none" stroke="#63b8ff" d="M381.16,-20.5C389.65,-20.5 398.32,-20.5 406.92,-20.5"/>
<polygon fill="#63b8ff" stroke="#63b8ff" points="406.97,-24 416.97,-20.5 406.97,-17 406.97,-24"/>
</a>
</g>
</g>
</g>
</svg>
