<?xml version="1.0" encoding="UTF-8" standalone="no"?>
<!DOCTYPE svg PUBLIC "-//W3C//DTD SVG 1.1//EN"
 "http://www.w3.org/Graphics/SVG/1.1/DTD/svg11.dtd">
<!-- Generated by graphviz version 2.43.0 (0)
 -->
<!-- Title: Terraria.ModLoader.UI.UIModSourceItem.PublishModCommandLine Pages: 1 -->
<!--zoomable 380 -->

<svg id="main" version="1.1" xmlns="http://www.w3.org/2000/svg" xmlns:xlink="http://www.w3.org/1999/xlink" xml:space="preserve" onload="init(evt)">
<style type="text/css"><![CDATA[
.node, .edge {opacity: 0.7;}
.node.selected, .edge.selected {opacity: 1;}
.edge:hover path { stroke: red; }
.edge:hover polygon { stroke: red; fill: red; }
]]></style>

<defs>
  <circle id="rim" cx="0" cy="0" r="7"/>
  <circle id="rim2" cx="0" cy="0" r="3.5"/>
  <g id="zoomPlus">
    <use xlink:href="#rim" fill="#404040"><set attributeName="fill" to="#808080" begin="zoomplus.mouseover" end="zoomplus.mouseout"/></use>
    <path d="M-4,0h8M0,-4v8" fill="none" stroke="white" stroke-width="1.5" pointer-events="none"/>
  </g>
  <g id="zoomMin">
    <use xlink:href="#rim" fill="#404040"><set attributeName="fill" to="#808080" begin="zoomminus.mouseover" end="zoomminus.mouseout"/></use>
    <path d="M-4,0h8" fill="none" stroke="white" stroke-width="1.5" pointer-events="none"/>
  </g>
  <g id="arrowUp" transform="translate(30 24)">
    <use xlink:href="#rim"/>
    <path pointer-events="none" fill="none" stroke="white" stroke-width="1.5" d="M0,-3.0v7 M-2.5,-0.5L0,-3.0L2.5,-0.5"/>
  </g>
  <g id="arrowRight" transform="rotate(90) translate(36 -43)">
    <use xlink:href="#rim"/>
    <path pointer-events="none" fill="none" stroke="white" stroke-width="1.5" d="M0,-3.0v7 M-2.5,-0.5L0,-3.0L2.5,-0.5"/>
  </g>
  <g id="arrowDown" transform="rotate(180) translate(-30 -48)">
    <use xlink:href="#rim"/>
    <path pointer-events="none" fill="none" stroke="white" stroke-width="1.5" d="M0,-3.0v7 M-2.5,-0.5L0,-3.0L2.5,-0.5"/>
  </g>
  <g id="arrowLeft" transform="rotate(270) translate(-36 17)">
    <use xlink:href="#rim"/>
    <path pointer-events="none" fill="none" stroke="white" stroke-width="1.5" d="M0,-3.0v7 M-2.5,-0.5L0,-3.0L2.5,-0.5"/>
  </g>
  <g id="resetDef">
    <use xlink:href="#rim2" fill="#404040"><set attributeName="fill" to="#808080" begin="reset.mouseover" end="reset.mouseout"/></use>
  </g>
</defs>
<script type="application/ecmascript">
var viewWidth = 1689;
var viewHeight = 380;
var sectionId = 'dynsection-0';
</script>
<script type="application/ecmascript" xlink:href="../../svg.min.js"/>
<svg id="graph" class="graph">
<g id="viewport">
<title>Terraria.ModLoader.UI.UIModSourceItem.PublishModCommandLine</title>
<!-- Node1 -->
<g id="Node000001" class="node">
<title>Node1</title>
<g id="a_Node000001"><a xlink:title=" ">
<polygon fill="#999999" stroke="#666666" points="202,-193 0,-193 0,-163 202,-163 202,-193"/>
<text text-anchor="start" x="8" y="-181" font-family="Helvetica,sans-Serif" font-size="10.00">Terraria.ModLoader.UI.UIMod</text>
<text text-anchor="middle" x="101" y="-170" font-family="Helvetica,sans-Serif" font-size="10.00">SourceItem.PublishModCommandLine</text>
</a>
</g>
</g>
<!-- Node2 -->
<g id="Node000002" class="node">
<title>Node2</title>
<g id="a_Node000002"><a xlink:href="../../d4/d5b/classTerraria_1_1ModLoader_1_1Core_1_1TmodFile_a7157f6ed34285ffe2b4fc246a473eb44.html#a7157f6ed34285ffe2b4fc246a473eb44" target="_top" xlink:title=" ">
<polygon fill="white" stroke="#666666" points="392.5,-260 254.5,-260 254.5,-230 392.5,-230 392.5,-260"/>
<text text-anchor="start" x="262.5" y="-248" font-family="Helvetica,sans-Serif" font-size="10.00">Terraria.ModLoader.Core.</text>
<text text-anchor="middle" x="323.5" y="-237" font-family="Helvetica,sans-Serif" font-size="10.00">TmodFile.Open</text>
</a>
</g>
</g>
<!-- Node1&#45;&gt;Node2 -->
<g id="edge1_Node000001_Node000002" class="edge">
<title>Node1&#45;&gt;Node2</title>
<g id="a_edge1_Node000001_Node000002"><a xlink:title=" ">
<path fill="none" stroke="#63b8ff" d="M151.48,-193.04C184.56,-203.09 228.25,-216.36 263.19,-226.98"/>
<polygon fill="#63b8ff" stroke="#63b8ff" points="262.21,-230.34 272.8,-229.9 264.25,-223.64 262.21,-230.34"/>
</a>
</g>
</g>
<!-- Node19 -->
<g id="Node000019" class="node">
<title>Node19</title>
<g id="a_Node000019"><a xlink:href="../../d1/d52/classTerraria_1_1Social_1_1Steam_1_1WorkshopHelper_a16c8687bbf6b23143f47ad0f5e3ccf9b.html#a16c8687bbf6b23143f47ad0f5e3ccf9b" target="_top" xlink:title=" ">
<polygon fill="white" stroke="#666666" points="409,-148 238,-148 238,-118 409,-118 409,-148"/>
<text text-anchor="start" x="246" y="-136" font-family="Helvetica,sans-Serif" font-size="10.00">Terraria.Social.Steam.Workshop</text>
<text text-anchor="middle" x="323.5" y="-125" font-family="Helvetica,sans-Serif" font-size="10.00">Helper.PublishMod</text>
</a>
</g>
</g>
<!-- Node1&#45;&gt;Node19 -->
<g id="edge20_Node000001_Node000019" class="edge">
<title>Node1&#45;&gt;Node19</title>
<g id="a_edge20_Node000001_Node000019"><a xlink:title=" ">
<path fill="none" stroke="#63b8ff" d="M175.73,-162.95C195.96,-158.83 218.03,-154.32 238.78,-150.09"/>
<polygon fill="#63b8ff" stroke="#63b8ff" points="239.74,-153.46 248.84,-148.03 238.34,-146.6 239.74,-153.46"/>
</a>
</g>
</g>
<!-- Node3 -->
<g id="Node000003" class="node">
<title>Node3</title>
<g id="a_Node000003"><a xlink:href="../../d4/d5b/classTerraria_1_1ModLoader_1_1Core_1_1TmodFile_a2981153163dc8f74c351abe8cf741522.html#a2981153163dc8f74c351abe8cf741522" target="_top" xlink:title=" ">
<polygon fill="white" stroke="#666666" points="1009.5,-372 871.5,-372 871.5,-342 1009.5,-342 1009.5,-372"/>
<text text-anchor="start" x="879.5" y="-360" font-family="Helvetica,sans-Serif" font-size="10.00">Terraria.ModLoader.Core.</text>
<text text-anchor="middle" x="940.5" y="-349" font-family="Helvetica,sans-Serif" font-size="10.00">TmodFile.Close</text>
</a>
</g>
</g>
<!-- Node2&#45;&gt;Node3 -->
<g id="edge2_Node000002_Node000003" class="edge">
<title>Node2&#45;&gt;Node3</title>
<g id="a_edge2_Node000002_Node000003"><a xlink:title=" ">
<path fill="none" stroke="#63b8ff" d="M365.29,-260.08C388.41,-268.14 418.02,-277.69 445,-284 590.07,-317.93 762.95,-339.18 861.1,-349.5"/>
<polygon fill="#63b8ff" stroke="#63b8ff" points="860.93,-353 871.24,-350.56 861.66,-346.04 860.93,-353"/>
</a>
</g>
</g>
<!-- Node4 -->
<g id="Node000004" class="node">
<title>Node4</title>
<g id="a_Node000004"><a xlink:href="../../d4/d5b/classTerraria_1_1ModLoader_1_1Core_1_1TmodFile_a4b9b88f4410f4d41a1d50dbf093e8698.html#a4b9b88f4410f4d41a1d50dbf093e8698" target="_top" xlink:title=" ">
<polygon fill="white" stroke="#666666" points="595.5,-260 457.5,-260 457.5,-230 595.5,-230 595.5,-260"/>
<text text-anchor="start" x="465.5" y="-248" font-family="Helvetica,sans-Serif" font-size="10.00">Terraria.ModLoader.Core.</text>
<text text-anchor="middle" x="526.5" y="-237" font-family="Helvetica,sans-Serif" font-size="10.00">TmodFile.Read</text>
</a>
</g>
</g>
<!-- Node2&#45;&gt;Node4 -->
<g id="edge3_Node000002_Node000004" class="edge">
<title>Node2&#45;&gt;Node4</title>
<g id="a_edge3_Node000002_Node000004"><a xlink:title=" ">
<path fill="none" stroke="#63b8ff" d="M392.55,-245C410.05,-245 429.03,-245 447.01,-245"/>
<polygon fill="#63b8ff" stroke="#63b8ff" points="447.18,-248.5 457.18,-245 447.18,-241.5 447.18,-248.5"/>
</a>
</g>
</g>
<!-- Node18 -->
<g id="Node000018" class="node">
<title>Node18</title>
<g id="a_Node000018"><a xlink:href="../../d4/d5b/classTerraria_1_1ModLoader_1_1Core_1_1TmodFile_ade04a9e494a3f3878bc8067a06b169a0.html#ade04a9e494a3f3878bc8067a06b169a0" target="_top" xlink:title=" ">
<polygon fill="white" stroke="#666666" points="595.5,-212 457.5,-212 457.5,-182 595.5,-182 595.5,-212"/>
<text text-anchor="start" x="465.5" y="-200" font-family="Helvetica,sans-Serif" font-size="10.00">Terraria.ModLoader.Core.</text>
<text text-anchor="middle" x="526.5" y="-189" font-family="Helvetica,sans-Serif" font-size="10.00">TmodFile.Reopen</text>
</a>
</g>
</g>
<!-- Node2&#45;&gt;Node18 -->
<g id="edge19_Node000002_Node000018" class="edge">
<title>Node2&#45;&gt;Node18</title>
<g id="a_edge19_Node000002_Node000018"><a xlink:title=" ">
<path fill="none" stroke="#63b8ff" d="M387.55,-229.94C408.22,-225.01 431.36,-219.48 452.69,-214.39"/>
<polygon fill="#63b8ff" stroke="#63b8ff" points="453.76,-217.73 462.68,-212 452.14,-210.92 453.76,-217.73"/>
</a>
</g>
</g>
<!-- Node5 -->
<g id="Node000005" class="node">
<title>Node5</title>
<g id="a_Node000005"><a xlink:href="../../d4/d8f/classTerraria_1_1Localization_1_1Language_ae4636a4800b9ecbaa498954520462f78.html#ae4636a4800b9ecbaa498954520462f78" target="_top" xlink:title="Retrieves the text value for a specified localization key. The text returned will be for the currentl...">
<polygon fill="white" stroke="#666666" points="812,-201 644,-201 644,-171 812,-171 812,-201"/>
<text text-anchor="start" x="652" y="-189" font-family="Helvetica,sans-Serif" font-size="10.00">Terraria.Localization.Language.</text>
<text text-anchor="middle" x="728" y="-178" font-family="Helvetica,sans-Serif" font-size="10.00">GetTextValue</text>
</a>
</g>
</g>
<!-- Node4&#45;&gt;Node5 -->
<g id="edge4_Node000004_Node000005" class="edge">
<title>Node4&#45;&gt;Node5</title>
<g id="a_edge4_Node000004_Node000005"><a xlink:title=" ">
<path fill="none" stroke="#63b8ff" d="M578.36,-229.96C605.21,-222.02 638.34,-212.22 666.5,-203.89"/>
<polygon fill="#63b8ff" stroke="#63b8ff" points="667.64,-207.21 676.23,-201.01 665.65,-200.49 667.64,-207.21"/>
</a>
</g>
</g>
<!-- Node6 -->
<g id="Node000006" class="node">
<title>Node6</title>
<g id="a_Node000006"><a xlink:href="../../d4/d5b/classTerraria_1_1ModLoader_1_1Core_1_1TmodFile_a60f1ca523b54361f3cc779b2ea461211.html#a60f1ca523b54361f3cc779b2ea461211" target="_top" xlink:title=" ">
<polygon fill="white" stroke="#666666" points="797,-276 659,-276 659,-246 797,-246 797,-276"/>
<text text-anchor="start" x="667" y="-264" font-family="Helvetica,sans-Serif" font-size="10.00">Terraria.ModLoader.Core.</text>
<text text-anchor="middle" x="728" y="-253" font-family="Helvetica,sans-Serif" font-size="10.00">TmodFile.Upgrade</text>
</a>
</g>
</g>
<!-- Node4&#45;&gt;Node6 -->
<g id="edge5_Node000004_Node000006" class="edge">
<title>Node4&#45;&gt;Node6</title>
<g id="a_edge5_Node000004_Node000006"><a xlink:title=" ">
<path fill="none" stroke="#63b8ff" d="M595.6,-250.46C612.68,-251.83 631.14,-253.31 648.67,-254.72"/>
<polygon fill="#63b8ff" stroke="#63b8ff" points="648.62,-258.23 658.87,-255.54 649.18,-251.25 648.62,-258.23"/>
</a>
</g>
</g>
<!-- Node6&#45;&gt;Node2 -->
<g id="edge10_Node000006_Node000002" class="edge">
<title>Node6&#45;&gt;Node2</title>
<g id="a_edge10_Node000006_Node000002"><a xlink:title=" ">
<path fill="none" stroke="#63b8ff" d="M658.74,-267.76C601.52,-272.26 517.75,-276.17 445,-269 429.68,-267.49 413.41,-264.92 397.96,-262.01"/>
<polygon fill="#63b8ff" stroke="#63b8ff" points="398.42,-258.54 387.94,-260.06 397.08,-265.41 398.42,-258.54"/>
</a>
</g>
</g>
<!-- Node6&#45;&gt;Node3 -->
<g id="edge9_Node000006_Node000003" class="edge">
<title>Node6&#45;&gt;Node3</title>
<g id="a_edge9_Node000006_Node000003"><a xlink:title=" ">
<path fill="none" stroke="#63b8ff" d="M749.93,-276.23C772.95,-292.36 811.53,-317.57 848,-333 852.79,-335.03 857.8,-336.92 862.9,-338.68"/>
<polygon fill="#63b8ff" stroke="#63b8ff" points="862.18,-342.13 872.77,-341.91 864.35,-335.48 862.18,-342.13"/>
</a>
</g>
</g>
<!-- Node7 -->
<g id="Node000007" class="node">
<title>Node7</title>
<g id="a_Node000007"><a xlink:href="../../d4/d5b/classTerraria_1_1ModLoader_1_1Core_1_1TmodFile_acac33c23d4419b244e9aedde706915da.html#acac33c23d4419b244e9aedde706915da" target="_top" xlink:title="Adds a (fileName &#45;&gt; content) entry to the compressed payload This method is not threadsafe with reads...">
<polygon fill="white" stroke="#666666" points="1009.5,-324 871.5,-324 871.5,-294 1009.5,-294 1009.5,-324"/>
<text text-anchor="start" x="879.5" y="-312" font-family="Helvetica,sans-Serif" font-size="10.00">Terraria.ModLoader.Core.</text>
<text text-anchor="middle" x="940.5" y="-301" font-family="Helvetica,sans-Serif" font-size="10.00">TmodFile.AddFile</text>
</a>
</g>
</g>
<!-- Node6&#45;&gt;Node7 -->
<g id="edge6_Node000006_Node000007" class="edge">
<title>Node6&#45;&gt;Node7</title>
<g id="a_edge6_Node000006_Node000007"><a xlink:title=" ">
<path fill="none" stroke="#63b8ff" d="M795.03,-276.06C816.87,-281.04 841.35,-286.62 863.86,-291.75"/>
<polygon fill="#63b8ff" stroke="#63b8ff" points="863.18,-295.19 873.71,-294 864.74,-288.36 863.18,-295.19"/>
</a>
</g>
</g>
<!-- Node10 -->
<g id="Node000010" class="node">
<title>Node10</title>
<g id="a_Node000010"><a xlink:href="../../d4/daa/classTerraria_1_1ModLoader_1_1Core_1_1BuildProperties_af4b75e35a63f5773e3f6dfe822ca0e53.html#af4b75e35a63f5773e3f6dfe822ca0e53" target="_top" xlink:title=" ">
<polygon fill="white" stroke="#666666" points="1019,-276 862,-276 862,-246 1019,-246 1019,-276"/>
<text text-anchor="start" x="870" y="-264" font-family="Helvetica,sans-Serif" font-size="10.00">Terraria.ModLoader.Core.</text>
<text text-anchor="middle" x="940.5" y="-253" font-family="Helvetica,sans-Serif" font-size="10.00">BuildProperties.ReadModFile</text>
</a>
</g>
</g>
<!-- Node6&#45;&gt;Node10 -->
<g id="edge11_Node000006_Node000010" class="edge">
<title>Node6&#45;&gt;Node10</title>
<g id="a_edge11_Node000006_Node000010"><a xlink:title=" ">
<path fill="none" stroke="#63b8ff" d="M797.05,-261C814.48,-261 833.48,-261 851.75,-261"/>
<polygon fill="#63b8ff" stroke="#63b8ff" points="851.81,-264.5 861.81,-261 851.81,-257.5 851.81,-264.5"/>
</a>
</g>
</g>
<!-- Node16 -->
<g id="Node000016" class="node">
<title>Node16</title>
<g id="a_Node000016"><a xlink:href="../../d4/d5b/classTerraria_1_1ModLoader_1_1Core_1_1TmodFile_a4c7a044023cb24ffe53e357faca6654f.html#a4c7a044023cb24ffe53e357faca6654f" target="_top" xlink:title=" ">
<polygon fill="white" stroke="#666666" points="1009.5,-228 871.5,-228 871.5,-198 1009.5,-198 1009.5,-228"/>
<text text-anchor="start" x="879.5" y="-216" font-family="Helvetica,sans-Serif" font-size="10.00">Terraria.ModLoader.Core.</text>
<text text-anchor="middle" x="940.5" y="-205" font-family="Helvetica,sans-Serif" font-size="10.00">TmodFile.ResetCache</text>
</a>
</g>
</g>
<!-- Node6&#45;&gt;Node16 -->
<g id="edge17_Node000006_Node000016" class="edge">
<title>Node6&#45;&gt;Node16</title>
<g id="a_edge17_Node000006_Node000016"><a xlink:title=" ">
<path fill="none" stroke="#63b8ff" d="M795.03,-245.94C816.87,-240.96 841.35,-235.38 863.86,-230.25"/>
<polygon fill="#63b8ff" stroke="#63b8ff" points="864.74,-233.64 873.71,-228 863.18,-226.81 864.74,-233.64"/>
</a>
</g>
</g>
<!-- Node17 -->
<g id="Node000017" class="node">
<title>Node17</title>
<g id="a_Node000017"><a xlink:href="../../d4/d5b/classTerraria_1_1ModLoader_1_1Core_1_1TmodFile_a0d2d787bf6877bb9b262979a54bf6153.html#a0d2d787bf6877bb9b262979a54bf6153" target="_top" xlink:title=" ">
<polygon fill="white" stroke="#666666" points="1009.5,-180 871.5,-180 871.5,-150 1009.5,-150 1009.5,-180"/>
<text text-anchor="start" x="879.5" y="-168" font-family="Helvetica,sans-Serif" font-size="10.00">Terraria.ModLoader.Core.</text>
<text text-anchor="middle" x="940.5" y="-157" font-family="Helvetica,sans-Serif" font-size="10.00">TmodFile.Save</text>
</a>
</g>
</g>
<!-- Node6&#45;&gt;Node17 -->
<g id="edge18_Node000006_Node000017" class="edge">
<title>Node6&#45;&gt;Node17</title>
<g id="a_edge18_Node000006_Node000017"><a xlink:title=" ">
<path fill="none" stroke="#63b8ff" d="M753.47,-245.95C786.83,-225.47 843.02,-191.11 848,-189 852.79,-186.97 857.8,-185.08 862.9,-183.32"/>
<polygon fill="#63b8ff" stroke="#63b8ff" points="864.35,-186.52 872.77,-180.09 862.18,-179.87 864.35,-186.52"/>
</a>
</g>
</g>
<!-- Node8 -->
<g id="Node000008" class="node">
<title>Node8</title>
<g id="a_Node000008"><a xlink:href="../../d4/d5b/classTerraria_1_1ModLoader_1_1Core_1_1TmodFile_a214f1577ff2defb9609c1dac0a9c96b5.html#a214f1577ff2defb9609c1dac0a9c96b5" target="_top" xlink:title=" ">
<polygon fill="white" stroke="#666666" points="1227.5,-372 1089.5,-372 1089.5,-342 1227.5,-342 1227.5,-372"/>
<text text-anchor="start" x="1097.5" y="-360" font-family="Helvetica,sans-Serif" font-size="10.00">Terraria.ModLoader.Core.</text>
<text text-anchor="middle" x="1158.5" y="-349" font-family="Helvetica,sans-Serif" font-size="10.00">TmodFile.Sanitize</text>
</a>
</g>
</g>
<!-- Node7&#45;&gt;Node8 -->
<g id="edge7_Node000007_Node000008" class="edge">
<title>Node7&#45;&gt;Node8</title>
<g id="a_edge7_Node000007_Node000008"><a xlink:title=" ">
<path fill="none" stroke="#63b8ff" d="M1009.25,-324.06C1031.77,-329.06 1057.01,-334.67 1080.19,-339.82"/>
<polygon fill="#63b8ff" stroke="#63b8ff" points="1079.47,-343.24 1089.99,-342 1080.99,-336.41 1079.47,-343.24"/>
</a>
</g>
</g>
<!-- Node9 -->
<g id="Node000009" class="node">
<title>Node9</title>
<g id="a_Node000009"><a xlink:href="../../d4/d5b/classTerraria_1_1ModLoader_1_1Core_1_1TmodFile_a5bc50ef2efecfeef97e91f6ed40caebc.html#a5bc50ef2efecfeef97e91f6ed40caebc" target="_top" xlink:title=" ">
<polygon fill="white" stroke="#666666" points="1231.5,-324 1085.5,-324 1085.5,-294 1231.5,-294 1231.5,-324"/>
<text text-anchor="start" x="1093.5" y="-312" font-family="Helvetica,sans-Serif" font-size="10.00">Terraria.ModLoader.Core.</text>
<text text-anchor="middle" x="1158.5" y="-301" font-family="Helvetica,sans-Serif" font-size="10.00">TmodFile.ShouldCompress</text>
</a>
</g>
</g>
<!-- Node7&#45;&gt;Node9 -->
<g id="edge8_Node000007_Node000009" class="edge">
<title>Node7&#45;&gt;Node9</title>
<g id="a_edge8_Node000007_Node000009"><a xlink:title=" ">
<path fill="none" stroke="#63b8ff" d="M1009.55,-309C1030.36,-309 1053.49,-309 1075.15,-309"/>
<polygon fill="#63b8ff" stroke="#63b8ff" points="1075.31,-312.5 1085.31,-309 1075.31,-305.5 1075.31,-312.5"/>
</a>
</g>
</g>
<!-- Node11 -->
<g id="Node000011" class="node">
<title>Node11</title>
<g id="a_Node000011"><a xlink:href="../../d4/d5b/classTerraria_1_1ModLoader_1_1Core_1_1TmodFile_ac8c9b9819144f2389d9916cb2a2295a1.html#ac8c9b9819144f2389d9916cb2a2295a1" target="_top" xlink:title=" ">
<polygon fill="white" stroke="#666666" points="1227.5,-276 1089.5,-276 1089.5,-246 1227.5,-246 1227.5,-276"/>
<text text-anchor="start" x="1097.5" y="-264" font-family="Helvetica,sans-Serif" font-size="10.00">Terraria.ModLoader.Core.</text>
<text text-anchor="middle" x="1158.5" y="-253" font-family="Helvetica,sans-Serif" font-size="10.00">TmodFile.GetStream</text>
</a>
</g>
</g>
<!-- Node10&#45;&gt;Node11 -->
<g id="edge12_Node000010_Node000011" class="edge">
<title>Node10&#45;&gt;Node11</title>
<g id="a_edge12_Node000010_Node000011"><a xlink:title=" ">
<path fill="none" stroke="#63b8ff" d="M1019.18,-261C1038.74,-261 1059.76,-261 1079.35,-261"/>
<polygon fill="#63b8ff" stroke="#63b8ff" points="1079.45,-264.5 1089.45,-261 1079.45,-257.5 1079.45,-264.5"/>
</a>
</g>
</g>
<!-- Node12 -->
<g id="Node000012" class="node">
<title>Node12</title>
<g id="a_Node000012"><a xlink:href="../../d4/daa/classTerraria_1_1ModLoader_1_1Core_1_1BuildProperties_a5976a8b0c61cb89eaa7b35a3e9c65a51.html#a5976a8b0c61cb89eaa7b35a3e9c65a51" target="_top" xlink:title=" ">
<polygon fill="white" stroke="#666666" points="1248,-228 1069,-228 1069,-198 1248,-198 1248,-228"/>
<text text-anchor="start" x="1077" y="-216" font-family="Helvetica,sans-Serif" font-size="10.00">Terraria.ModLoader.Core.</text>
<text text-anchor="middle" x="1158.5" y="-205" font-family="Helvetica,sans-Serif" font-size="10.00">BuildProperties.ReadFromStream</text>
</a>
</g>
</g>
<!-- Node10&#45;&gt;Node12 -->
<g id="edge13_Node000010_Node000012" class="edge">
<title>Node10&#45;&gt;Node12</title>
<g id="a_edge13_Node000010_Node000012"><a xlink:title=" ">
<path fill="none" stroke="#63b8ff" d="M1009.25,-245.94C1031.77,-240.94 1057.01,-235.33 1080.19,-230.18"/>
<polygon fill="#63b8ff" stroke="#63b8ff" points="1080.99,-233.59 1089.99,-228 1079.47,-226.76 1080.99,-233.59"/>
</a>
</g>
</g>
<!-- Node13 -->
<g id="Node000013" class="node">
<title>Node13</title>
<g id="a_Node000013"><a xlink:href="../../d5/dee/structTerraria_1_1ModLoader_1_1Core_1_1BuildProperties_1_1ModReference_ad10984394ab7edf04b1b479b1cbe8cc0.html#ad10984394ab7edf04b1b479b1cbe8cc0" target="_top" xlink:title=" ">
<polygon fill="white" stroke="#666666" points="1478,-252 1284,-252 1284,-222 1478,-222 1478,-252"/>
<text text-anchor="start" x="1292" y="-240" font-family="Helvetica,sans-Serif" font-size="10.00">Terraria.ModLoader.Core.</text>
<text text-anchor="middle" x="1381" y="-229" font-family="Helvetica,sans-Serif" font-size="10.00">BuildProperties.ModReference.Parse</text>
</a>
</g>
</g>
<!-- Node12&#45;&gt;Node13 -->
<g id="edge14_Node000012_Node000013" class="edge">
<title>Node12&#45;&gt;Node13</title>
<g id="a_edge14_Node000012_Node000013"><a xlink:title=" ">
<path fill="none" stroke="#63b8ff" d="M1248.23,-222.66C1256.66,-223.58 1265.27,-224.51 1273.84,-225.44"/>
<polygon fill="#63b8ff" stroke="#63b8ff" points="1273.55,-228.93 1283.87,-226.54 1274.31,-221.98 1273.55,-228.93"/>
</a>
</g>
</g>
<!-- Node15 -->
<g id="Node000015" class="node">
<title>Node15</title>
<g id="a_Node000015"><a xlink:href="../../d4/daa/classTerraria_1_1ModLoader_1_1Core_1_1BuildProperties_a40010e3fd2a6c53e729d78d0d1c048ed.html#a40010e3fd2a6c53e729d78d0d1c048ed" target="_top" xlink:title=" ">
<polygon fill="white" stroke="#666666" points="1450,-204 1312,-204 1312,-174 1450,-174 1450,-204"/>
<text text-anchor="start" x="1320" y="-192" font-family="Helvetica,sans-Serif" font-size="10.00">Terraria.ModLoader.Core.</text>
<text text-anchor="middle" x="1381" y="-181" font-family="Helvetica,sans-Serif" font-size="10.00">BuildProperties.ReadList</text>
</a>
</g>
</g>
<!-- Node12&#45;&gt;Node15 -->
<g id="edge16_Node000012_Node000015" class="edge">
<title>Node12&#45;&gt;Node15</title>
<g id="a_edge16_Node000012_Node000015"><a xlink:title=" ">
<path fill="none" stroke="#63b8ff" d="M1248.23,-203.34C1265.94,-201.41 1284.42,-199.4 1301.74,-197.52"/>
<polygon fill="#63b8ff" stroke="#63b8ff" points="1302.23,-200.99 1311.79,-196.42 1301.47,-194.03 1302.23,-200.99"/>
</a>
</g>
</g>
<!-- Node14 -->
<g id="Node000014" class="node">
<title>Node14</title>
<g id="a_Node000014"><a xlink:href="../../d5/dee/structTerraria_1_1ModLoader_1_1Core_1_1BuildProperties_1_1ModReference_a07ffc930ba4bbc3c00516c73afb75722.html#a07ffc930ba4bbc3c00516c73afb75722" target="_top" xlink:title=" ">
<polygon fill="white" stroke="#666666" points="1681,-257.5 1514,-257.5 1514,-216.5 1681,-216.5 1681,-257.5"/>
<text text-anchor="start" x="1522" y="-245.5" font-family="Helvetica,sans-Serif" font-size="10.00">Terraria.ModLoader.Core.</text>
<text text-anchor="start" x="1522" y="-234.5" font-family="Helvetica,sans-Serif" font-size="10.00">BuildProperties.ModReference.</text>
<text text-anchor="middle" x="1597.5" y="-223.5" font-family="Helvetica,sans-Serif" font-size="10.00">ModReference</text>
</a>
</g>
</g>
<!-- Node13&#45;&gt;Node14 -->
<g id="edge15_Node000013_Node000014" class="edge">
<title>Node13&#45;&gt;Node14</title>
<g id="a_edge15_Node000013_Node000014"><a xlink:title=" ">
<path fill="none" stroke="#63b8ff" d="M1478.27,-237C1486.74,-237 1495.31,-237 1503.75,-237"/>
<polygon fill="#63b8ff" stroke="#63b8ff" points="1503.97,-240.5 1513.97,-237 1503.97,-233.5 1503.97,-240.5"/>
</a>
</g>
</g>
<!-- Node19&#45;&gt;Node5 -->
<g id="edge21_Node000019_Node000005" class="edge">
<title>Node19&#45;&gt;Node5</title>
<g id="a_edge21_Node000019_Node000005"><a xlink:title=" ">
<path fill="none" stroke="#63b8ff" d="M409.37,-144.18C475.07,-152.83 565.99,-164.8 633.73,-173.72"/>
<polygon fill="#63b8ff" stroke="#63b8ff" points="633.6,-177.23 643.97,-175.07 634.51,-170.29 633.6,-177.23"/>
</a>
</g>
</g>
<!-- Node20 -->
<g id="Node000020" class="node">
<title>Node20</title>
<g id="a_Node000020"><a xlink:href="../../d5/da1/classTerraria_1_1Social_1_1SocialAPI_acdb48d840a2688132677c2d9cd7faf43.html#acdb48d840a2688132677c2d9cd7faf43" target="_top" xlink:title=" ">
<polygon fill="white" stroke="#666666" points="595,-126 458,-126 458,-96 595,-96 595,-126"/>
<text text-anchor="start" x="466" y="-114" font-family="Helvetica,sans-Serif" font-size="10.00">Terraria.Social.SocialAPI.</text>
<text text-anchor="middle" x="526.5" y="-103" font-family="Helvetica,sans-Serif" font-size="10.00">LoadSteam</text>
</a>
</g>
</g>
<!-- Node19&#45;&gt;Node20 -->
<g id="edge22_Node000019_Node000020" class="edge">
<title>Node19&#45;&gt;Node20</title>
<g id="a_edge22_Node000019_Node000020"><a xlink:title=" ">
<path fill="none" stroke="#63b8ff" d="M409.16,-123.73C421.94,-122.33 435.08,-120.9 447.71,-119.51"/>
<polygon fill="#63b8ff" stroke="#63b8ff" points="448.15,-122.99 457.71,-118.42 447.39,-116.03 448.15,-122.99"/>
</a>
</g>
</g>
<!-- Node24 -->
<g id="Node000024" class="node">
<title>Node24</title>
<g id="a_Node000024"><a xlink:href="../../d7/df6/classTerraria_1_1UI_1_1Chat_1_1ChatManager_af687cd1f70060817f5984ef2b554cf40.html#af687cd1f70060817f5984ef2b554cf40" target="_top" xlink:title=" ">
<polygon fill="white" stroke="#666666" points="608,-78 445,-78 445,-48 608,-48 608,-78"/>
<text text-anchor="start" x="453" y="-66" font-family="Helvetica,sans-Serif" font-size="10.00">Terraria.UI.Chat.ChatManager.</text>
<text text-anchor="middle" x="526.5" y="-55" font-family="Helvetica,sans-Serif" font-size="10.00">ParseMessage</text>
</a>
</g>
</g>
<!-- Node19&#45;&gt;Node24 -->
<g id="edge27_Node000019_Node000024" class="edge">
<title>Node19&#45;&gt;Node24</title>
<g id="a_edge27_Node000019_Node000024"><a xlink:title=" ">
<path fill="none" stroke="#63b8ff" d="M361.69,-117.98C385.38,-108.61 416.8,-96.57 445,-87 450.89,-85 457.05,-83 463.23,-81.06"/>
<polygon fill="#63b8ff" stroke="#63b8ff" points="464.41,-84.36 472.92,-78.06 462.34,-77.67 464.41,-84.36"/>
</a>
</g>
</g>
<!-- Node21 -->
<g id="Node000021" class="node">
<title>Node21</title>
<g id="a_Node000021"><a xlink:href="../../d1/d6f/classTerraria_1_1ModLoader_1_1Engine_1_1Steam_a0b407ee9b5c8eb26332f193367811fcc.html#a0b407ee9b5c8eb26332f193367811fcc" target="_top" xlink:title=" ">
<polygon fill="white" stroke="#666666" points="802.5,-126 653.5,-126 653.5,-96 802.5,-96 802.5,-126"/>
<text text-anchor="start" x="661.5" y="-114" font-family="Helvetica,sans-Serif" font-size="10.00">Terraria.ModLoader.Engine.</text>
<text text-anchor="middle" x="728" y="-103" font-family="Helvetica,sans-Serif" font-size="10.00">Steam.PostInit</text>
</a>
</g>
</g>
<!-- Node20&#45;&gt;Node21 -->
<g id="edge23_Node000020_Node000021" class="edge">
<title>Node20&#45;&gt;Node21</title>
<g id="a_edge23_Node000020_Node000021"><a xlink:title=" ">
<path fill="none" stroke="#63b8ff" d="M595.04,-111C610.43,-111 626.97,-111 642.96,-111"/>
<polygon fill="#63b8ff" stroke="#63b8ff" points="643.37,-114.5 653.37,-111 643.37,-107.5 643.37,-114.5"/>
</a>
</g>
</g>
<!-- Node22 -->
<g id="Node000022" class="node">
<title>Node22</title>
<g id="a_Node000022"><a xlink:href="../../d1/d6f/classTerraria_1_1ModLoader_1_1Engine_1_1Steam_a05e3f288ef2fad54c2f74ce9d62d7ce2.html#a05e3f288ef2fad54c2f74ce9d62d7ce2" target="_top" xlink:title=" ">
<polygon fill="white" stroke="#666666" points="1033,-131.5 848,-131.5 848,-90.5 1033,-90.5 1033,-131.5"/>
<text text-anchor="start" x="856" y="-119.5" font-family="Helvetica,sans-Serif" font-size="10.00">Terraria.ModLoader.Engine.</text>
<text text-anchor="start" x="856" y="-108.5" font-family="Helvetica,sans-Serif" font-size="10.00">Steam.RecalculateAvailableSteam</text>
<text text-anchor="middle" x="940.5" y="-97.5" font-family="Helvetica,sans-Serif" font-size="10.00">CloudStorage</text>
</a>
</g>
</g>
<!-- Node21&#45;&gt;Node22 -->
<g id="edge24_Node000021_Node000022" class="edge">
<title>Node21&#45;&gt;Node22</title>
<g id="a_edge24_Node000021_Node000022"><a xlink:title=" ">
<path fill="none" stroke="#63b8ff" d="M802.62,-111C813.9,-111 825.71,-111 837.47,-111"/>
<polygon fill="#63b8ff" stroke="#63b8ff" points="837.78,-114.5 847.78,-111 837.78,-107.5 837.78,-114.5"/>
</a>
</g>
</g>
<!-- Node23 -->
<g id="Node000023" class="node">
<title>Node23</title>
<g id="a_Node000023"><a xlink:href="../../d3/d28/classTerraria_1_1ModLoader_1_1UI_1_1UIMemoryBar_ad49f9a30368b1da110b34636eb8780a1.html#ad49f9a30368b1da110b34636eb8780a1" target="_top" xlink:title=" ">
<polygon fill="white" stroke="#666666" points="1029,-54 852,-54 852,-24 1029,-24 1029,-54"/>
<text text-anchor="start" x="860" y="-42" font-family="Helvetica,sans-Serif" font-size="10.00">Terraria.ModLoader.UI.UIMemory</text>
<text text-anchor="middle" x="940.5" y="-31" font-family="Helvetica,sans-Serif" font-size="10.00">Bar.SizeSuffix</text>
</a>
</g>
</g>
<!-- Node21&#45;&gt;Node23 -->
<g id="edge25_Node000021_Node000023" class="edge">
<title>Node21&#45;&gt;Node23</title>
<g id="a_edge25_Node000021_Node000023"><a xlink:title=" ">
<path fill="none" stroke="#63b8ff" d="M783.21,-95.99C792.84,-93.13 802.75,-90.07 812,-87 838.83,-78.09 868.4,-67.03 892.31,-57.78"/>
<polygon fill="#63b8ff" stroke="#63b8ff" points="893.79,-60.96 901.84,-54.07 891.25,-54.43 893.79,-60.96"/>
</a>
</g>
</g>
<!-- Node23&#45;&gt;Node23 -->
<g id="edge26_Node000023_Node000023" class="edge">
<title>Node23&#45;&gt;Node23</title>
<g id="a_edge26_Node000023_Node000023"><a xlink:title=" ">
<path fill="none" stroke="#63b8ff" d="M903.23,-54.28C894.95,-63.41 907.38,-72 940.5,-72 960.17,-72 972.54,-68.97 977.61,-64.6"/>
<polygon fill="#63b8ff" stroke="#63b8ff" points="981.11,-64.33 977.77,-54.28 974.11,-64.22 981.11,-64.33"/>
</a>
</g>
</g>
<!-- Node25 -->
<g id="Node000025" class="node">
<title>Node25</title>
<g id="a_Node000025"><a xlink:href="../../d7/df6/classTerraria_1_1UI_1_1Chat_1_1ChatManager_ad57d7ce4542b2df5cd9ff15c86855f3f.html#ad57d7ce4542b2df5cd9ff15c86855f3f" target="_top" xlink:title=" ">
<polygon fill="white" stroke="#666666" points="809.5,-78 646.5,-78 646.5,-48 809.5,-48 809.5,-78"/>
<text text-anchor="start" x="654.5" y="-66" font-family="Helvetica,sans-Serif" font-size="10.00">Terraria.UI.Chat.ChatManager.</text>
<text text-anchor="middle" x="728" y="-55" font-family="Helvetica,sans-Serif" font-size="10.00">GetHandler</text>
</a>
</g>
</g>
<!-- Node24&#45;&gt;Node25 -->
<g id="edge28_Node000024_Node000025" class="edge">
<title>Node24&#45;&gt;Node25</title>
<g id="a_edge28_Node000024_Node000025"><a xlink:title=" ">
<path fill="none" stroke="#63b8ff" d="M608.07,-63C617.36,-63 626.88,-63 636.3,-63"/>
<polygon fill="#63b8ff" stroke="#63b8ff" points="636.45,-66.5 646.45,-63 636.45,-59.5 636.45,-66.5"/>
</a>
</g>
</g>
<!-- Node26 -->
<g id="Node000026" class="node">
<title>Node26</title>
<g id="a_Node000026"><a xlink:href="../../dc/d25/interfaceTerraria_1_1UI_1_1Chat_1_1ITagHandler_aa5a15f340434dc9990b2b10b306642a6.html#aa5a15f340434dc9990b2b10b306642a6" target="_top" xlink:title=" ">
<polygon fill="white" stroke="#666666" points="805.5,-30 650.5,-30 650.5,0 805.5,0 805.5,-30"/>
<text text-anchor="start" x="658.5" y="-18" font-family="Helvetica,sans-Serif" font-size="10.00">Terraria.UI.Chat.ITagHandler.</text>
<text text-anchor="middle" x="728" y="-7" font-family="Helvetica,sans-Serif" font-size="10.00">Parse</text>
</a>
</g>
</g>
<!-- Node24&#45;&gt;Node26 -->
<g id="edge29_Node000024_Node000026" class="edge">
<title>Node24&#45;&gt;Node26</title>
<g id="a_edge29_Node000024_Node000026"><a xlink:title=" ">
<path fill="none" stroke="#63b8ff" d="M590.08,-47.94C610.59,-43.01 633.56,-37.48 654.74,-32.39"/>
<polygon fill="#63b8ff" stroke="#63b8ff" points="655.74,-35.74 664.65,-30 654.11,-28.94 655.74,-35.74"/>
</a>
</g>
</g>
</g>
</svg>

<g id="navigator" transform="translate(0 0)" fill="#404254">
  <rect fill="#f2f5e9" fill-opacity="0.5" stroke="#606060" stroke-width=".5" x="0" y="0" width="60" height="60"/>
  <use id="zoomplus" xlink:href="#zoomPlus" x="17" y="9" onmousedown="handleZoom(evt,'in')"/>
  <use id="zoomminus" xlink:href="#zoomMin" x="42" y="9" onmousedown="handleZoom(evt,'out')"/>
  <use id="reset" xlink:href="#resetDef" x="30" y="36" onmousedown="handleReset()"/>
   <use id="arrowup" xlink:href="#arrowUp" x="0" y="0" onmousedown="handlePan(0,-1)"/>
  <use id="arrowright" xlink:href="#arrowRight" x="0" y="0" onmousedown="handlePan(1,0)"/>
  <use id="arrowdown" xlink:href="#arrowDown" x="0" y="0" onmousedown="handlePan(0,1)"/>
  <use id="arrowleft" xlink:href="#arrowLeft" x="0" y="0" onmousedown="handlePan(-1,0)"/>
</g>
<svg viewBox="0 0 15 15" width="100%" height="30px" preserveAspectRatio="xMaxYMin meet">
 <g id="arrow_out" transform="scale(0.3 0.3)">
  <a xlink:href="classTerraria_1_1ModLoader_1_1UI_1_1UIModSourceItem_aaeb84b40be159c808799a44886696371_aaeb84b40be159c808799a44886696371_cgraph_org.svg" target="_base">
   <rect id="button" ry="5" rx="5" y="6" x="6" height="38" width="38"
        fill="#f2f5e9" fill-opacity="0.5" stroke="#606060" stroke-width="1.0"/>
   <path id="arrow"
     d="M 11.500037,31.436501 C 11.940474,20.09759 22.043105,11.32322 32.158766,21.979434 L 37.068811,17.246167 C 37.068811,17.246167 37.088388,32 37.088388,32 L 22.160133,31.978069 C 22.160133,31.978069 26.997745,27.140456 26.997745,27.140456 C 18.528582,18.264221 13.291696,25.230495 11.500037,31.436501 z"
     style="fill:#404040;"/>
  </a>
 </g>
</svg>

<style type='text/css'>
<![CDATA[
[data-mouse-over-selected='false'] { opacity: 0.7; }
[data-mouse-over-selected='true']  { opacity: 1.0; }
]]>
</style>
<script type="application/ecmascript"><![CDATA[
document.addEventListener('DOMContentLoaded', (event) => {
  highlightEdges();
  highlightAdjacentNodes();
});
]]></script>
</svg>
