<?xml version="1.0" encoding="UTF-8" standalone="no"?>
<!DOCTYPE svg PUBLIC "-//W3C//DTD SVG 1.1//EN"
 "http://www.w3.org/Graphics/SVG/1.1/DTD/svg11.dtd">
<!-- Generated by graphviz version 2.43.0 (0)
 -->
<!-- Title: Terraria.ModLoader.Config.BuffDefinition Pages: 1 -->
<!--zoomable 547 -->

<svg id="main" version="1.1" xmlns="http://www.w3.org/2000/svg" xmlns:xlink="http://www.w3.org/1999/xlink" xml:space="preserve" onload="init(evt)">
<style type="text/css"><![CDATA[
.node, .edge {opacity: 0.7;}
.node.selected, .edge.selected {opacity: 1;}
.edge:hover path { stroke: red; }
.edge:hover polygon { stroke: red; fill: red; }
]]></style>

<defs>
  <circle id="rim" cx="0" cy="0" r="7"/>
  <circle id="rim2" cx="0" cy="0" r="3.5"/>
  <g id="zoomPlus">
    <use xlink:href="#rim" fill="#404040"><set attributeName="fill" to="#808080" begin="zoomplus.mouseover" end="zoomplus.mouseout"/></use>
    <path d="M-4,0h8M0,-4v8" fill="none" stroke="white" stroke-width="1.5" pointer-events="none"/>
  </g>
  <g id="zoomMin">
    <use xlink:href="#rim" fill="#404040"><set attributeName="fill" to="#808080" begin="zoomminus.mouseover" end="zoomminus.mouseout"/></use>
    <path d="M-4,0h8" fill="none" stroke="white" stroke-width="1.5" pointer-events="none"/>
  </g>
  <g id="arrowUp" transform="translate(30 24)">
    <use xlink:href="#rim"/>
    <path pointer-events="none" fill="none" stroke="white" stroke-width="1.5" d="M0,-3.0v7 M-2.5,-0.5L0,-3.0L2.5,-0.5"/>
  </g>
  <g id="arrowRight" transform="rotate(90) translate(36 -43)">
    <use xlink:href="#rim"/>
    <path pointer-events="none" fill="none" stroke="white" stroke-width="1.5" d="M0,-3.0v7 M-2.5,-0.5L0,-3.0L2.5,-0.5"/>
  </g>
  <g id="arrowDown" transform="rotate(180) translate(-30 -48)">
    <use xlink:href="#rim"/>
    <path pointer-events="none" fill="none" stroke="white" stroke-width="1.5" d="M0,-3.0v7 M-2.5,-0.5L0,-3.0L2.5,-0.5"/>
  </g>
  <g id="arrowLeft" transform="rotate(270) translate(-36 17)">
    <use xlink:href="#rim"/>
    <path pointer-events="none" fill="none" stroke="white" stroke-width="1.5" d="M0,-3.0v7 M-2.5,-0.5L0,-3.0L2.5,-0.5"/>
  </g>
  <g id="resetDef">
    <use xlink:href="#rim2" fill="#404040"><set attributeName="fill" to="#808080" begin="reset.mouseover" end="reset.mouseout"/></use>
  </g>
</defs>
<script type="application/ecmascript">
var viewWidth = 410;
var viewHeight = 547;
var sectionId = 'dynsection-1';
</script>
<script type="application/ecmascript" xlink:href="../../svg.min.js"/>
<svg id="graph" class="graph">
<g id="viewport">
<title>Terraria.ModLoader.Config.BuffDefinition</title>
<!-- Node1 -->
<g id="Node000001" class="node">
<title>Node1</title>
<g id="a_Node000001"><a xlink:title=" ">
<polygon fill="#999999" stroke="transparent" points="359,-194 197,-194 197,0 359,0 359,-194"/>
<text text-anchor="start" x="213" y="-182" font-family="Helvetica,sans-Serif" font-size="10.00">Terraria.ModLoader.Config.</text>
<text text-anchor="start" x="244.5" y="-171" font-family="Helvetica,sans-Serif" font-size="10.00">BuffDefinition</text>
<text text-anchor="start" x="201" y="-156" font-family="Helvetica,sans-Serif" font-size="10.00">+</text>
<text text-anchor="start" x="214" y="-156" font-family="Helvetica,sans-Serif" font-size="10.00">override int Type</text>
<text text-anchor="start" x="201" y="-141" font-family="Helvetica,sans-Serif" font-size="10.00">+</text>
<text text-anchor="start" x="214" y="-141" font-family="Helvetica,sans-Serif" font-size="10.00">override string DisplayName</text>
<text text-anchor="start" x="201" y="-126" font-family="Helvetica,sans-Serif" font-size="10.00">+</text>
<text text-anchor="start" x="214" y="-126" font-family="Helvetica,sans-Serif" font-size="10.00">BuffDefinition()</text>
<text text-anchor="start" x="201" y="-111" font-family="Helvetica,sans-Serif" font-size="10.00">+</text>
<text text-anchor="start" x="214" y="-111" font-family="Helvetica,sans-Serif" font-size="10.00">BuffDefinition(int</text>
<text text-anchor="start" x="214" y="-100" font-family="Helvetica,sans-Serif" font-size="10.00"> type)</text>
<text text-anchor="start" x="201" y="-85" font-family="Helvetica,sans-Serif" font-size="10.00">+</text>
<text text-anchor="start" x="214" y="-85" font-family="Helvetica,sans-Serif" font-size="10.00">BuffDefinition(string key)</text>
<text text-anchor="start" x="201" y="-70" font-family="Helvetica,sans-Serif" font-size="10.00">+</text>
<text text-anchor="start" x="214" y="-70" font-family="Helvetica,sans-Serif" font-size="10.00">BuffDefinition(string</text>
<text text-anchor="start" x="214" y="-59" font-family="Helvetica,sans-Serif" font-size="10.00"> mod, string name)</text>
<text text-anchor="start" x="201" y="-44" font-family="Helvetica,sans-Serif" font-size="10.00">+</text>
<text text-anchor="start" x="214" y="-44" font-family="Helvetica,sans-Serif" font-size="10.00">static BuffDefinition</text>
<text text-anchor="start" x="214" y="-33" font-family="Helvetica,sans-Serif" font-size="10.00"> FromString(string s)</text>
<text text-anchor="start" x="201" y="-18" font-family="Helvetica,sans-Serif" font-size="10.00">+</text>
<text text-anchor="start" x="214" y="-18" font-family="Helvetica,sans-Serif" font-size="10.00">static BuffDefinition</text>
<text text-anchor="start" x="214" y="-7" font-family="Helvetica,sans-Serif" font-size="10.00"> Load(TagCompound tag)</text>
<polygon fill="#666666" stroke="#666666" points="197,-166 197,-166 359,-166 359,-166 197,-166"/>
<polygon fill="#666666" stroke="#666666" points="197,-136 197,-136 212,-136 212,-136 197,-136"/>
<polygon fill="#666666" stroke="#666666" points="212,-136 212,-136 359,-136 359,-136 212,-136"/>
<polygon fill="none" stroke="#666666" points="197,0 197,-194 359,-194 359,0 197,0"/>
</a>
</g>
</g>
<!-- Node2 -->
<g id="Node000002" class="node">
<title>Node2</title>
<g id="a_Node000002"><a xlink:href="../../d2/d83/classTerraria_1_1ModLoader_1_1Config_1_1EntityDefinition.html" target="_top" xlink:title="Classes implementing EntityDefinition serve to function as a way to save and load the identities of v...">
<polygon fill="white" stroke="transparent" points="226,-432 60,-432 60,-241 226,-241 226,-432"/>
<text text-anchor="start" x="105" y="-419.5" font-family="Helvetica,sans-Serif" font-size="10.00">EntityDefinition</text>
<text text-anchor="start" x="64" y="-404.5" font-family="Helvetica,sans-Serif" font-size="10.00">+</text>
<text text-anchor="start" x="77" y="-404.5" font-family="Helvetica,sans-Serif" font-size="10.00">bool IsUnloaded</text>
<text text-anchor="start" x="64" y="-389.5" font-family="Helvetica,sans-Serif" font-size="10.00">+</text>
<text text-anchor="start" x="77" y="-389.5" font-family="Helvetica,sans-Serif" font-size="10.00">int Type</text>
<text text-anchor="start" x="64" y="-374.5" font-family="Helvetica,sans-Serif" font-size="10.00">+</text>
<text text-anchor="start" x="77" y="-374.5" font-family="Helvetica,sans-Serif" font-size="10.00">virtual string DisplayName</text>
<text text-anchor="start" x="64" y="-359.5" font-family="Helvetica,sans-Serif" font-size="10.00">+</text>
<text text-anchor="start" x="77" y="-359.5" font-family="Helvetica,sans-Serif" font-size="10.00">EntityDefinition()</text>
<text text-anchor="start" x="64" y="-344.5" font-family="Helvetica,sans-Serif" font-size="10.00">+</text>
<text text-anchor="start" x="77" y="-344.5" font-family="Helvetica,sans-Serif" font-size="10.00">EntityDefinition(string</text>
<text text-anchor="start" x="77" y="-333.5" font-family="Helvetica,sans-Serif" font-size="10.00"> mod, string name)</text>
<text text-anchor="start" x="64" y="-318.5" font-family="Helvetica,sans-Serif" font-size="10.00">+</text>
<text text-anchor="start" x="77" y="-318.5" font-family="Helvetica,sans-Serif" font-size="10.00">EntityDefinition(string key)</text>
<text text-anchor="start" x="64" y="-303.5" font-family="Helvetica,sans-Serif" font-size="10.00">+</text>
<text text-anchor="start" x="77" y="-303.5" font-family="Helvetica,sans-Serif" font-size="10.00">override bool Equals</text>
<text text-anchor="start" x="77" y="-292.5" font-family="Helvetica,sans-Serif" font-size="10.00">(object obj)</text>
<text text-anchor="start" x="64" y="-277.5" font-family="Helvetica,sans-Serif" font-size="10.00">+</text>
<text text-anchor="start" x="77" y="-277.5" font-family="Helvetica,sans-Serif" font-size="10.00">override string ToString()</text>
<text text-anchor="start" x="64" y="-262.5" font-family="Helvetica,sans-Serif" font-size="10.00">+</text>
<text text-anchor="start" x="77" y="-262.5" font-family="Helvetica,sans-Serif" font-size="10.00">override int GetHashCode()</text>
<text text-anchor="start" x="64" y="-247.5" font-family="Helvetica,sans-Serif" font-size="10.00">+</text>
<text text-anchor="start" x="77" y="-247.5" font-family="Helvetica,sans-Serif" font-size="10.00">TagCompound SerializeData()</text>
<polygon fill="#666666" stroke="#666666" points="60,-414.5 60,-414.5 226,-414.5 226,-414.5 60,-414.5"/>
<polygon fill="#666666" stroke="#666666" points="60,-369.5 60,-369.5 75,-369.5 75,-369.5 60,-369.5"/>
<polygon fill="#666666" stroke="#666666" points="75,-369.5 75,-369.5 226,-369.5 226,-369.5 75,-369.5"/>
<polygon fill="none" stroke="#666666" points="60,-241 60,-432 226,-432 226,-241 60,-241"/>
</a>
</g>
</g>
<!-- Node2&#45;&gt;Node1 -->
<g id="edge1_Node000001_Node000002" class="edge">
<title>Node2&#45;&gt;Node1</title>
<g id="a_edge1_Node000001_Node000002"><a xlink:title=" ">
<path fill="none" stroke="#63b8ff" d="M201.7,-232.24C208.88,-219.59 216.21,-206.7 223.34,-194.17"/>
<polygon fill="none" stroke="#63b8ff" points="198.64,-230.53 196.74,-240.95 204.73,-233.99 198.64,-230.53"/>
</a>
</g>
</g>
<!-- Node3 -->
<g id="Node000003" class="node">
<title>Node3</title>
<g id="a_Node000003"><a xlink:href="../../d4/d1f/interfaceTerraria_1_1ModLoader_1_1IO_1_1TagSerializable.html" target="_top" xlink:title=" ">
<polygon fill="white" stroke="transparent" points="166,-539 0,-539 0,-490 166,-490 166,-539"/>
<text text-anchor="start" x="46" y="-526.5" font-family="Helvetica,sans-Serif" font-size="10.00">TagSerializable</text>
<text text-anchor="start" x="81" y="-511.5" font-family="Helvetica,sans-Serif" font-size="10.00"> </text>
<text text-anchor="start" x="4" y="-496.5" font-family="Helvetica,sans-Serif" font-size="10.00">+</text>
<text text-anchor="start" x="17" y="-496.5" font-family="Helvetica,sans-Serif" font-size="10.00">TagCompound SerializeData()</text>
<polygon fill="#666666" stroke="#666666" points="0,-521.5 0,-521.5 166,-521.5 166,-521.5 0,-521.5"/>
<polygon fill="#666666" stroke="#666666" points="0,-506.5 0,-506.5 166,-506.5 166,-506.5 0,-506.5"/>
<polygon fill="none" stroke="#666666" points="0,-490 0,-539 166,-539 166,-490 0,-490"/>
</a>
</g>
</g>
<!-- Node3&#45;&gt;Node2 -->
<g id="edge2_Node000002_Node000003" class="edge">
<title>Node3&#45;&gt;Node2</title>
<g id="a_edge2_Node000002_Node000003"><a xlink:title=" ">
<path fill="none" stroke="#63b8ff" d="M94.33,-480.25C99.05,-466.41 104.8,-449.57 110.66,-432.37"/>
<polygon fill="none" stroke="#63b8ff" points="91.01,-479.17 91.09,-489.76 97.63,-481.43 91.01,-479.17"/>
</a>
</g>
</g>
<!-- Node4 -->
<g id="Node000004" class="node">
<title>Node4</title>
<g id="a_Node000004"><a xlink:title=" ">
<polygon fill="white" stroke="transparent" points="222,-539 184,-539 184,-490 222,-490 222,-539"/>
<text text-anchor="start" x="189" y="-526.5" font-family="Helvetica,sans-Serif" font-size="10.00">string</text>
<text text-anchor="start" x="201" y="-511.5" font-family="Helvetica,sans-Serif" font-size="10.00"> </text>
<text text-anchor="start" x="201" y="-496.5" font-family="Helvetica,sans-Serif" font-size="10.00"> </text>
<polygon fill="#666666" stroke="#666666" points="184,-521.5 184,-521.5 222,-521.5 222,-521.5 184,-521.5"/>
<polygon fill="#666666" stroke="#666666" points="184,-506.5 184,-506.5 222,-506.5 222,-506.5 184,-506.5"/>
<polygon fill="none" stroke="#666666" points="184,-490 184,-539 222,-539 222,-490 184,-490"/>
</a>
</g>
</g>
<!-- Node4&#45;&gt;Node2 -->
<g id="edge3_Node000002_Node000004" class="edge">
<title>Node4&#45;&gt;Node2</title>
<g id="a_edge3_Node000002_Node000004"><a xlink:title=" ">
<path fill="none" stroke="#63b8ff" d="M194.91,-489.76C190.66,-477.29 185.12,-461.04 179.24,-443.81"/>
<polygon fill="none" stroke="#63b8ff" points="179.21,-443.73 173.49,-439.34 175.34,-432.37 181.06,-436.76 179.21,-443.73"/>
</a>
</g>
<text text-anchor="middle" x="208" y="-464" font-family="Helvetica,sans-Serif" font-size="10.00" fill="grey"> +Mod</text>
<text text-anchor="middle" x="208" y="-453" font-family="Helvetica,sans-Serif" font-size="10.00" fill="grey">+Name</text>
</g>
<!-- Node5 -->
<g id="Node000005" class="node">
<title>Node5</title>
<g id="a_Node000005"><a xlink:title=" ">
<polygon fill="white" stroke="transparent" points="402,-372 244,-372 244,-301 402,-301 402,-372"/>
<text text-anchor="start" x="249" y="-359.5" font-family="Helvetica,sans-Serif" font-size="10.00">static readonly Func</text>
<text text-anchor="start" x="249" y="-348.5" font-family="Helvetica,sans-Serif" font-size="10.00">&lt; TagCompound, Terraria.Mod</text>
<text text-anchor="start" x="249" y="-337.5" font-family="Helvetica,sans-Serif" font-size="10.00">Loader.Config.BuffDefinition &gt;</text>
<text text-anchor="start" x="321" y="-322.5" font-family="Helvetica,sans-Serif" font-size="10.00"> </text>
<text text-anchor="start" x="321" y="-307.5" font-family="Helvetica,sans-Serif" font-size="10.00"> </text>
<polygon fill="#666666" stroke="#666666" points="244,-332.5 244,-332.5 402,-332.5 402,-332.5 244,-332.5"/>
<polygon fill="#666666" stroke="#666666" points="244,-317.5 244,-317.5 402,-317.5 402,-317.5 244,-317.5"/>
<polygon fill="none" stroke="#666666" points="244,-301 244,-372 402,-372 402,-301 244,-301"/>
</a>
</g>
</g>
<!-- Node5&#45;&gt;Node1 -->
<g id="edge4_Node000001_Node000005" class="edge">
<title>Node5&#45;&gt;Node1</title>
<g id="a_edge4_Node000001_Node000005"><a xlink:title=" ">
<path fill="none" stroke="#63b8ff" d="M316.46,-300.97C311.7,-275.88 304.99,-240.46 298.5,-206.21"/>
<polygon fill="none" stroke="#63b8ff" points="298.46,-205.96 293.41,-200.81 296.22,-194.17 301.27,-199.32 298.46,-205.96"/>
</a>
</g>
<text text-anchor="middle" x="341" y="-215" font-family="Helvetica,sans-Serif" font-size="10.00" fill="grey"> +DESERIALIZER</text>
</g>
</g>
</svg>

<g id="navigator" transform="translate(0 0)" fill="#404254">
  <rect fill="#f2f5e9" fill-opacity="0.5" stroke="#606060" stroke-width=".5" x="0" y="0" width="60" height="60"/>
  <use id="zoomplus" xlink:href="#zoomPlus" x="17" y="9" onmousedown="handleZoom(evt,'in')"/>
  <use id="zoomminus" xlink:href="#zoomMin" x="42" y="9" onmousedown="handleZoom(evt,'out')"/>
  <use id="reset" xlink:href="#resetDef" x="30" y="36" onmousedown="handleReset()"/>
   <use id="arrowup" xlink:href="#arrowUp" x="0" y="0" onmousedown="handlePan(0,-1)"/>
  <use id="arrowright" xlink:href="#arrowRight" x="0" y="0" onmousedown="handlePan(1,0)"/>
  <use id="arrowdown" xlink:href="#arrowDown" x="0" y="0" onmousedown="handlePan(0,1)"/>
  <use id="arrowleft" xlink:href="#arrowLeft" x="0" y="0" onmousedown="handlePan(-1,0)"/>
</g>
<svg viewBox="0 0 15 15" width="100%" height="30px" preserveAspectRatio="xMaxYMin meet">
 <g id="arrow_out" transform="scale(0.3 0.3)">
  <a xlink:href="classTerraria_1_1ModLoader_1_1Config_1_1BuffDefinition__coll__graph_org.svg" target="_base">
   <rect id="button" ry="5" rx="5" y="6" x="6" height="38" width="38"
        fill="#f2f5e9" fill-opacity="0.5" stroke="#606060" stroke-width="1.0"/>
   <path id="arrow"
     d="M 11.500037,31.436501 C 11.940474,20.09759 22.043105,11.32322 32.158766,21.979434 L 37.068811,17.246167 C 37.068811,17.246167 37.088388,32 37.088388,32 L 22.160133,31.978069 C 22.160133,31.978069 26.997745,27.140456 26.997745,27.140456 C 18.528582,18.264221 13.291696,25.230495 11.500037,31.436501 z"
     style="fill:#404040;"/>
  </a>
 </g>
</svg>

<style type='text/css'>
<![CDATA[
[data-mouse-over-selected='false'] { opacity: 0.7; }
[data-mouse-over-selected='true']  { opacity: 1.0; }
]]>
</style>
<script type="application/ecmascript"><![CDATA[
document.addEventListener('DOMContentLoaded', (event) => {
  highlightEdges();
  highlightAdjacentNodes();
});
]]></script>
</svg>
