<?xml version="1.0" encoding="UTF-8" standalone="no"?>
<!DOCTYPE svg PUBLIC "-//W3C//DTD SVG 1.1//EN"
 "http://www.w3.org/Graphics/SVG/1.1/DTD/svg11.dtd">
<!-- Generated by graphviz version 2.43.0 (0)
 -->
<!-- Title: Terraria.GameContent.Tile_Entities.TEHatRack.OverrideItemSlotHover Pages: 1 -->
<!--zoomable 210 -->

<svg id="main" version="1.1" xmlns="http://www.w3.org/2000/svg" xmlns:xlink="http://www.w3.org/1999/xlink" xml:space="preserve" onload="init(evt)">
<style type="text/css"><![CDATA[
.node, .edge {opacity: 0.7;}
.node.selected, .edge.selected {opacity: 1;}
.edge:hover path { stroke: red; }
.edge:hover polygon { stroke: red; fill: red; }
]]></style>

<defs>
  <circle id="rim" cx="0" cy="0" r="7"/>
  <circle id="rim2" cx="0" cy="0" r="3.5"/>
  <g id="zoomPlus">
    <use xlink:href="#rim" fill="#404040"><set attributeName="fill" to="#808080" begin="zoomplus.mouseover" end="zoomplus.mouseout"/></use>
    <path d="M-4,0h8M0,-4v8" fill="none" stroke="white" stroke-width="1.5" pointer-events="none"/>
  </g>
  <g id="zoomMin">
    <use xlink:href="#rim" fill="#404040"><set attributeName="fill" to="#808080" begin="zoomminus.mouseover" end="zoomminus.mouseout"/></use>
    <path d="M-4,0h8" fill="none" stroke="white" stroke-width="1.5" pointer-events="none"/>
  </g>
  <g id="arrowUp" transform="translate(30 24)">
    <use xlink:href="#rim"/>
    <path pointer-events="none" fill="none" stroke="white" stroke-width="1.5" d="M0,-3.0v7 M-2.5,-0.5L0,-3.0L2.5,-0.5"/>
  </g>
  <g id="arrowRight" transform="rotate(90) translate(36 -43)">
    <use xlink:href="#rim"/>
    <path pointer-events="none" fill="none" stroke="white" stroke-width="1.5" d="M0,-3.0v7 M-2.5,-0.5L0,-3.0L2.5,-0.5"/>
  </g>
  <g id="arrowDown" transform="rotate(180) translate(-30 -48)">
    <use xlink:href="#rim"/>
    <path pointer-events="none" fill="none" stroke="white" stroke-width="1.5" d="M0,-3.0v7 M-2.5,-0.5L0,-3.0L2.5,-0.5"/>
  </g>
  <g id="arrowLeft" transform="rotate(270) translate(-36 17)">
    <use xlink:href="#rim"/>
    <path pointer-events="none" fill="none" stroke="white" stroke-width="1.5" d="M0,-3.0v7 M-2.5,-0.5L0,-3.0L2.5,-0.5"/>
  </g>
  <g id="resetDef">
    <use xlink:href="#rim2" fill="#404040"><set attributeName="fill" to="#808080" begin="reset.mouseover" end="reset.mouseout"/></use>
  </g>
</defs>
<script type="application/ecmascript">
var viewWidth = 1004;
var viewHeight = 210;
var sectionId = 'dynsection-0';
</script>
<script type="application/ecmascript" xlink:href="../../svg.min.js"/>
<svg id="graph" class="graph">
<g id="viewport">
<title>Terraria.GameContent.Tile_Entities.TEHatRack.OverrideItemSlotHover</title>
<!-- Node1 -->
<g id="Node000001" class="node">
<title>Node1</title>
<g id="a_Node000001"><a xlink:title=" ">
<polygon fill="#999999" stroke="#666666" points="182,-147.5 0,-147.5 0,-106.5 182,-106.5 182,-147.5"/>
<text text-anchor="start" x="8" y="-135.5" font-family="Helvetica,sans-Serif" font-size="10.00">Terraria.GameContent.Tile</text>
<text text-anchor="start" x="8" y="-124.5" font-family="Helvetica,sans-Serif" font-size="10.00">_Entities.TEHatRack.OverrideItem</text>
<text text-anchor="middle" x="91" y="-113.5" font-family="Helvetica,sans-Serif" font-size="10.00">SlotHover</text>
</a>
</g>
</g>
<!-- Node2 -->
<g id="Node000002" class="node">
<title>Node2</title>
<g id="a_Node000002"><a xlink:href="../../d3/d99/classTerraria_1_1GameContent_1_1Tile__Entities_1_1TEHatRack_a953d4022e6c3e022ce7b637fff745326.html#a953d4022e6c3e022ce7b637fff745326" target="_top" xlink:title=" ">
<polygon fill="white" stroke="#666666" points="394,-164 218,-164 218,-134 394,-134 394,-164"/>
<text text-anchor="start" x="226" y="-152" font-family="Helvetica,sans-Serif" font-size="10.00">Terraria.GameContent.Tile</text>
<text text-anchor="middle" x="306" y="-141" font-family="Helvetica,sans-Serif" font-size="10.00">_Entities.TEHatRack.FitsHatRack</text>
</a>
</g>
</g>
<!-- Node1&#45;&gt;Node2 -->
<g id="edge1_Node000001_Node000002" class="edge">
<title>Node1&#45;&gt;Node2</title>
<g id="a_edge1_Node000001_Node000002"><a xlink:title=" ">
<path fill="none" stroke="#63b8ff" d="M182.02,-136.3C190.51,-137.17 199.14,-138.07 207.69,-138.95"/>
<polygon fill="#63b8ff" stroke="#63b8ff" points="207.37,-142.43 217.68,-139.98 208.09,-135.47 207.37,-142.43"/>
</a>
</g>
</g>
<!-- Node3 -->
<g id="Node000003" class="node">
<title>Node3</title>
<g id="a_Node000003"><a xlink:href="../../d4/d03/classTerraria_1_1Player_a860d1c9b6feadbe7f85125de00e16e91.html#a860d1c9b6feadbe7f85125de00e16e91" target="_top" xlink:title=" ">
<polygon fill="white" stroke="#666666" points="376.5,-115.5 235.5,-115.5 235.5,-96.5 376.5,-96.5 376.5,-115.5"/>
<text text-anchor="middle" x="306" y="-103.5" font-family="Helvetica,sans-Serif" font-size="10.00">Terraria.Player.ItemSpace</text>
</a>
</g>
</g>
<!-- Node1&#45;&gt;Node3 -->
<g id="edge2_Node000001_Node000003" class="edge">
<title>Node1&#45;&gt;Node3</title>
<g id="a_edge2_Node000001_Node000003"><a xlink:title=" ">
<path fill="none" stroke="#63b8ff" d="M182.02,-118.12C196.37,-116.71 211.12,-115.26 225.21,-113.87"/>
<polygon fill="#63b8ff" stroke="#63b8ff" points="225.72,-117.33 235.33,-112.87 225.03,-110.37 225.72,-117.33"/>
</a>
</g>
</g>
<!-- Node4 -->
<g id="Node000004" class="node">
<title>Node4</title>
<g id="a_Node000004"><a xlink:href="../../d4/d03/classTerraria_1_1Player_a3363b70c02a5fc911913cbf027479b75.html#a3363b70c02a5fc911913cbf027479b75" target="_top" xlink:title=" ">
<polygon fill="white" stroke="#666666" points="585,-202 445,-202 445,-172 585,-172 585,-202"/>
<text text-anchor="start" x="453" y="-190" font-family="Helvetica,sans-Serif" font-size="10.00">Terraria.Player.CanGoInto</text>
<text text-anchor="middle" x="515" y="-179" font-family="Helvetica,sans-Serif" font-size="10.00">AmmoOnPickup</text>
</a>
</g>
</g>
<!-- Node3&#45;&gt;Node4 -->
<g id="edge3_Node000003_Node000004" class="edge">
<title>Node3&#45;&gt;Node4</title>
<g id="a_edge3_Node000003_Node000004"><a xlink:title=" ">
<path fill="none" stroke="#63b8ff" d="M369.72,-115.51C378.13,-117.98 386.45,-121.08 394,-125 413.27,-134.99 411.35,-146.89 430,-158 436.29,-161.75 443.13,-165.1 450.1,-168.08"/>
<polygon fill="#63b8ff" stroke="#63b8ff" points="449.07,-171.43 459.66,-171.9 451.68,-164.94 449.07,-171.43"/>
</a>
</g>
</g>
<!-- Node5 -->
<g id="Node000005" class="node">
<title>Node5</title>
<g id="a_Node000005"><a xlink:href="../../d4/d03/classTerraria_1_1Player_a26edf5bc8458f8f30dceb7702b8fe807.html#a26edf5bc8458f8f30dceb7702b8fe807" target="_top" xlink:title=" ">
<polygon fill="white" stroke="#666666" points="787.5,-159 638.5,-159 638.5,-129 787.5,-129 787.5,-159"/>
<text text-anchor="start" x="646.5" y="-147" font-family="Helvetica,sans-Serif" font-size="10.00">Terraria.Player.CanItemSlot</text>
<text text-anchor="middle" x="713" y="-136" font-family="Helvetica,sans-Serif" font-size="10.00">Accept</text>
</a>
</g>
</g>
<!-- Node3&#45;&gt;Node5 -->
<g id="edge6_Node000003_Node000005" class="edge">
<title>Node3&#45;&gt;Node5</title>
<g id="a_edge6_Node000003_Node000005"><a xlink:title=" ">
<path fill="none" stroke="#63b8ff" d="M361.97,-115.53C383.18,-118.93 407.66,-122.53 430,-125 496.35,-132.35 571.81,-137.25 627.97,-140.23"/>
<polygon fill="#63b8ff" stroke="#63b8ff" points="628.05,-143.74 638.22,-140.77 628.42,-136.75 628.05,-143.74"/>
</a>
</g>
</g>
<!-- Node7 -->
<g id="Node000007" class="node">
<title>Node7</title>
<g id="a_Node000007"><a xlink:href="../../d4/d03/classTerraria_1_1Player_a6735800039fb139f23fab96e9c0c3d0d.html#a6735800039fb139f23fab96e9c0c3d0d" target="_top" xlink:title="Checks if the player has the specified item in their F:Terraria.Player.inventory. &#160;&#160;Does not check Vo...">
<polygon fill="white" stroke="#666666" points="580.5,-115.5 449.5,-115.5 449.5,-96.5 580.5,-96.5 580.5,-115.5"/>
<text text-anchor="middle" x="515" y="-103.5" font-family="Helvetica,sans-Serif" font-size="10.00">Terraria.Player.HasItem</text>
</a>
</g>
</g>
<!-- Node3&#45;&gt;Node7 -->
<g id="edge7_Node000003_Node000007" class="edge">
<title>Node3&#45;&gt;Node7</title>
<g id="a_edge7_Node000003_Node000007"><a xlink:title=" ">
<path fill="none" stroke="#63b8ff" d="M376.5,-106C396.6,-106 418.62,-106 439.03,-106"/>
<polygon fill="#63b8ff" stroke="#63b8ff" points="439.22,-109.5 449.22,-106 439.22,-102.5 439.22,-109.5"/>
</a>
</g>
</g>
<!-- Node8 -->
<g id="Node000008" class="node">
<title>Node8</title>
<g id="a_Node000008"><a xlink:href="../../d7/de6/classTerraria_1_1ModLoader_1_1ItemLoader_a8acd1451d900c723702a74e214cdfb73.html#a8acd1451d900c723702a74e214cdfb73" target="_top" xlink:title=" ">
<polygon fill="white" stroke="#666666" points="600,-78 430,-78 430,-48 600,-48 600,-78"/>
<text text-anchor="start" x="438" y="-66" font-family="Helvetica,sans-Serif" font-size="10.00">Terraria.ModLoader.ItemLoader.</text>
<text text-anchor="middle" x="515" y="-55" font-family="Helvetica,sans-Serif" font-size="10.00">ItemSpace</text>
</a>
</g>
</g>
<!-- Node3&#45;&gt;Node8 -->
<g id="edge8_Node000003_Node000008" class="edge">
<title>Node3&#45;&gt;Node8</title>
<g id="a_edge8_Node000003_Node000008"><a xlink:title=" ">
<path fill="none" stroke="#63b8ff" d="M352.94,-96.46C376.17,-91.63 405.08,-85.63 431.96,-80.04"/>
<polygon fill="#63b8ff" stroke="#63b8ff" points="432.68,-83.47 441.76,-78.01 431.26,-76.61 432.68,-83.47"/>
</a>
</g>
</g>
<!-- Node9 -->
<g id="Node000009" class="node">
<title>Node9</title>
<g id="a_Node000009"><a xlink:href="../../d4/d03/classTerraria_1_1Player_ad6855f2d71be1617d17a7e31d76e2ef3.html#ad6855f2d71be1617d17a7e31d76e2ef3" target="_top" xlink:title=" ">
<polygon fill="white" stroke="#666666" points="585.5,-30 444.5,-30 444.5,0 585.5,0 585.5,-30"/>
<text text-anchor="start" x="452.5" y="-18" font-family="Helvetica,sans-Serif" font-size="10.00">Terraria.Player.ItemSpace</text>
<text text-anchor="middle" x="515" y="-7" font-family="Helvetica,sans-Serif" font-size="10.00">ForCofveve</text>
</a>
</g>
</g>
<!-- Node3&#45;&gt;Node9 -->
<g id="edge9_Node000003_Node000009" class="edge">
<title>Node3&#45;&gt;Node9</title>
<g id="a_edge9_Node000003_Node000009"><a xlink:title=" ">
<path fill="none" stroke="#63b8ff" d="M322,-96.41C344.65,-82.26 389.27,-55.67 430,-39 435,-36.95 440.24,-35.01 445.54,-33.18"/>
<polygon fill="#63b8ff" stroke="#63b8ff" points="446.74,-36.48 455.14,-30.02 444.55,-29.83 446.74,-36.48"/>
</a>
</g>
</g>
<!-- Node4&#45;&gt;Node5 -->
<g id="edge4_Node000004_Node000005" class="edge">
<title>Node4&#45;&gt;Node5</title>
<g id="a_edge4_Node000004_Node000005"><a xlink:title=" ">
<path fill="none" stroke="#63b8ff" d="M584.55,-171.96C600.37,-168.49 617.31,-164.77 633.51,-161.22"/>
<polygon fill="#63b8ff" stroke="#63b8ff" points="634.47,-164.59 643.49,-159.03 632.97,-157.76 634.47,-164.59"/>
</a>
</g>
</g>
<!-- Node6 -->
<g id="Node000006" class="node">
<title>Node6</title>
<g id="a_Node000006"><a xlink:href="../../d7/de6/classTerraria_1_1ModLoader_1_1ItemLoader_aa56d85982ee46e9f593f2373867c4a76.html#aa56d85982ee46e9f593f2373867c4a76" target="_top" xlink:title="Returns false if item prefixes don&#39;t match. Then calls all GlobalItem.CanStack hooks until one return...">
<polygon fill="white" stroke="#666666" points="996,-159 826,-159 826,-129 996,-129 996,-159"/>
<text text-anchor="start" x="834" y="-147" font-family="Helvetica,sans-Serif" font-size="10.00">Terraria.ModLoader.ItemLoader.</text>
<text text-anchor="middle" x="911" y="-136" font-family="Helvetica,sans-Serif" font-size="10.00">CanStack</text>
</a>
</g>
</g>
<!-- Node5&#45;&gt;Node6 -->
<g id="edge5_Node000005_Node000006" class="edge">
<title>Node5&#45;&gt;Node6</title>
<g id="a_edge5_Node000005_Node000006"><a xlink:title=" ">
<path fill="none" stroke="#63b8ff" d="M787.54,-144C796.71,-144 806.19,-144 815.63,-144"/>
<polygon fill="#63b8ff" stroke="#63b8ff" points="815.83,-147.5 825.83,-144 815.83,-140.5 815.83,-147.5"/>
</a>
</g>
</g>
<!-- Node9&#45;&gt;Node5 -->
<g id="edge10_Node000009_Node000005" class="edge">
<title>Node9&#45;&gt;Node5</title>
<g id="a_edge10_Node000009_Node000005"><a xlink:title=" ">
<path fill="none" stroke="#63b8ff" d="M580.59,-30.01C587.33,-32.58 593.93,-35.56 600,-39 637.75,-60.4 672.78,-97.05 693.29,-120.89"/>
<polygon fill="#63b8ff" stroke="#63b8ff" points="690.79,-123.36 699.91,-128.75 696.14,-118.85 690.79,-123.36"/>
</a>
</g>
</g>
<!-- Node10 -->
<g id="Node000010" class="node">
<title>Node10</title>
<g id="a_Node000010"><a xlink:href="../../d4/d03/classTerraria_1_1Player_a2c29c298497a8b20c890aa405ba6fefa.html#a2c29c298497a8b20c890aa405ba6fefa" target="_top" xlink:title=" ">
<polygon fill="white" stroke="#666666" points="790,-30 636,-30 636,0 790,0 790,-30"/>
<text text-anchor="start" x="644" y="-18" font-family="Helvetica,sans-Serif" font-size="10.00">Terraria.Player.CanVoidVault</text>
<text text-anchor="middle" x="713" y="-7" font-family="Helvetica,sans-Serif" font-size="10.00">Accept</text>
</a>
</g>
</g>
<!-- Node9&#45;&gt;Node10 -->
<g id="edge11_Node000009_Node000010" class="edge">
<title>Node9&#45;&gt;Node10</title>
<g id="a_edge11_Node000009_Node000010"><a xlink:title=" ">
<path fill="none" stroke="#63b8ff" d="M585.65,-15C598.63,-15 612.33,-15 625.74,-15"/>
<polygon fill="#63b8ff" stroke="#63b8ff" points="625.91,-18.5 635.91,-15 625.91,-11.5 625.91,-18.5"/>
</a>
</g>
</g>
</g>
</svg>

<g id="navigator" transform="translate(0 0)" fill="#404254">
  <rect fill="#f2f5e9" fill-opacity="0.5" stroke="#606060" stroke-width=".5" x="0" y="0" width="60" height="60"/>
  <use id="zoomplus" xlink:href="#zoomPlus" x="17" y="9" onmousedown="handleZoom(evt,'in')"/>
  <use id="zoomminus" xlink:href="#zoomMin" x="42" y="9" onmousedown="handleZoom(evt,'out')"/>
  <use id="reset" xlink:href="#resetDef" x="30" y="36" onmousedown="handleReset()"/>
   <use id="arrowup" xlink:href="#arrowUp" x="0" y="0" onmousedown="handlePan(0,-1)"/>
  <use id="arrowright" xlink:href="#arrowRight" x="0" y="0" onmousedown="handlePan(1,0)"/>
  <use id="arrowdown" xlink:href="#arrowDown" x="0" y="0" onmousedown="handlePan(0,1)"/>
  <use id="arrowleft" xlink:href="#arrowLeft" x="0" y="0" onmousedown="handlePan(-1,0)"/>
</g>
<svg viewBox="0 0 15 15" width="100%" height="30px" preserveAspectRatio="xMaxYMin meet">
 <g id="arrow_out" transform="scale(0.3 0.3)">
  <a xlink:href="classTerraria_1_1GameContent_1_1Tile__Entities_1_1TEHatRack_a66b5e67b40cc4a3adf41d7ab5e79c438_a66b5e67b40cc4a3adf41d7ab5e79c438_cgraph_org.svg" target="_base">
   <rect id="button" ry="5" rx="5" y="6" x="6" height="38" width="38"
        fill="#f2f5e9" fill-opacity="0.5" stroke="#606060" stroke-width="1.0"/>
   <path id="arrow"
     d="M 11.500037,31.436501 C 11.940474,20.09759 22.043105,11.32322 32.158766,21.979434 L 37.068811,17.246167 C 37.068811,17.246167 37.088388,32 37.088388,32 L 22.160133,31.978069 C 22.160133,31.978069 26.997745,27.140456 26.997745,27.140456 C 18.528582,18.264221 13.291696,25.230495 11.500037,31.436501 z"
     style="fill:#404040;"/>
  </a>
 </g>
</svg>

<style type='text/css'>
<![CDATA[
[data-mouse-over-selected='false'] { opacity: 0.7; }
[data-mouse-over-selected='true']  { opacity: 1.0; }
]]>
</style>
<script type="application/ecmascript"><![CDATA[
document.addEventListener('DOMContentLoaded', (event) => {
  highlightEdges();
  highlightAdjacentNodes();
});
]]></script>
</svg>
