<?xml version="1.0" encoding="UTF-8" standalone="no"?>
<!DOCTYPE svg PUBLIC "-//W3C//DTD SVG 1.1//EN"
 "http://www.w3.org/Graphics/SVG/1.1/DTD/svg11.dtd">
<!-- Generated by graphviz version 2.43.0 (0)
 -->
<!-- Title: Terraria.ModLoader.ExtraJumpLoader.ResetEnableFlags Pages: 1 -->
<svg width="1571pt" height="177pt"
 viewBox="0.00 0.00 1571.00 177.00" xmlns="http://www.w3.org/2000/svg" xmlns:xlink="http://www.w3.org/1999/xlink">
<g id="graph0" class="graph" transform="scale(1 1) rotate(0) translate(4 173)">
<title>Terraria.ModLoader.ExtraJumpLoader.ResetEnableFlags</title>
<!-- Node1 -->
<g id="Node000001" class="node">
<title>Node1</title>
<g id="a_Node000001"><a xlink:title=" ">
<polygon fill="#999999" stroke="#666666" points="1563,-97 1399,-97 1399,-67 1563,-67 1563,-97"/>
<text text-anchor="start" x="1407" y="-85" font-family="Helvetica,sans-Serif" font-size="10.00">Terraria.ModLoader.Extra</text>
<text text-anchor="middle" x="1481" y="-74" font-family="Helvetica,sans-Serif" font-size="10.00">JumpLoader.ResetEnableFlags</text>
</a>
</g>
</g>
<!-- Node2 -->
<g id="Node000002" class="node">
<title>Node2</title>
<g id="a_Node000002"><a xlink:href="../../d4/d03/classTerraria_1_1Player_a0abf726f9d007da539d53c9ce6e4ec11.html#a0abf726f9d007da539d53c9ce6e4ec11" target="_top" xlink:title=" ">
<polygon fill="white" stroke="#666666" points="1363,-91.5 1213,-91.5 1213,-72.5 1363,-72.5 1363,-91.5"/>
<text text-anchor="middle" x="1288" y="-79.5" font-family="Helvetica,sans-Serif" font-size="10.00">Terraria.Player.ResetEffects</text>
</a>
</g>
</g>
<!-- Node1&#45;&gt;Node2 -->
<g id="edge1_Node000001_Node000002" class="edge">
<title>Node1&#45;&gt;Node2</title>
<g id="a_edge1_Node000001_Node000002"><a xlink:title=" ">
<path fill="none" stroke="#63b8ff" d="M1388.91,-82C1380.27,-82 1371.6,-82 1363.15,-82"/>
<polygon fill="#63b8ff" stroke="#63b8ff" points="1389,-85.5 1399,-82 1389,-78.5 1389,-85.5"/>
</a>
</g>
</g>
<!-- Node3 -->
<g id="Node000003" class="node">
<title>Node3</title>
<g id="a_Node000003"><a xlink:href="../../d6/da9/classTerraria_1_1GameContent_1_1Animations_1_1Segments_1_1PlayerSegment_a91b4d5dd0879136d1e118752bca46aae.html#a91b4d5dd0879136d1e118752bca46aae" target="_top" xlink:title=" ">
<polygon fill="white" stroke="#666666" points="1177,-169 992,-169 992,-139 1177,-139 1177,-169"/>
<text text-anchor="start" x="1000" y="-157" font-family="Helvetica,sans-Serif" font-size="10.00">Terraria.GameContent.Animations.</text>
<text text-anchor="middle" x="1084.5" y="-146" font-family="Helvetica,sans-Serif" font-size="10.00">Segments.PlayerSegment.Draw</text>
</a>
</g>
</g>
<!-- Node2&#45;&gt;Node3 -->
<g id="edge2_Node000002_Node000003" class="edge">
<title>Node2&#45;&gt;Node3</title>
<g id="a_edge2_Node000002_Node000003"><a xlink:title=" ">
<path fill="none" stroke="#63b8ff" d="M1258.41,-95.93C1236.49,-106.26 1205.29,-120.18 1177,-130 1167.85,-133.18 1158.05,-136.16 1148.4,-138.88"/>
<polygon fill="#63b8ff" stroke="#63b8ff" points="1259.97,-99.07 1267.5,-91.61 1256.96,-92.75 1259.97,-99.07"/>
</a>
</g>
</g>
<!-- Node4 -->
<g id="Node000004" class="node">
<title>Node4</title>
<g id="a_Node000004"><a xlink:href="../../da/dd5/classTerraria_1_1Main_a170904b93cc485d5f6468846c9f147d3.html#a170904b93cc485d5f6468846c9f147d3" target="_top" xlink:title=" ">
<polygon fill="white" stroke="#666666" points="1170.5,-121 998.5,-121 998.5,-91 1170.5,-91 1170.5,-121"/>
<text text-anchor="start" x="1006.5" y="-109" font-family="Helvetica,sans-Serif" font-size="10.00">Terraria.Main.DrawSuperSpecial</text>
<text text-anchor="middle" x="1084.5" y="-98" font-family="Helvetica,sans-Serif" font-size="10.00">Projectiles</text>
</a>
</g>
</g>
<!-- Node2&#45;&gt;Node4 -->
<g id="edge3_Node000002_Node000004" class="edge">
<title>Node2&#45;&gt;Node4</title>
<g id="a_edge3_Node000002_Node000004"><a xlink:title=" ">
<path fill="none" stroke="#63b8ff" d="M1202.77,-92.03C1192.19,-93.29 1181.35,-94.58 1170.75,-95.85"/>
<polygon fill="#63b8ff" stroke="#63b8ff" points="1203.31,-95.49 1212.83,-90.83 1202.48,-88.54 1203.31,-95.49"/>
</a>
</g>
</g>
<!-- Node11 -->
<g id="Node000011" class="node">
<title>Node11</title>
<g id="a_Node000011"><a xlink:href="../../d3/d87/classTerraria_1_1GameContent_1_1UI_1_1Elements_1_1UICharacter_a6bca5047efb7fc6c4e010a0e8746b005.html#a6bca5047efb7fc6c4e010a0e8746b005" target="_top" xlink:title=" ">
<polygon fill="white" stroke="#666666" points="1165,-73 1004,-73 1004,-43 1165,-43 1165,-73"/>
<text text-anchor="start" x="1012" y="-61" font-family="Helvetica,sans-Serif" font-size="10.00">Terraria.GameContent.UI.</text>
<text text-anchor="middle" x="1084.5" y="-50" font-family="Helvetica,sans-Serif" font-size="10.00">Elements.UICharacter.Update</text>
</a>
</g>
</g>
<!-- Node2&#45;&gt;Node11 -->
<g id="edge11_Node000002_Node000011" class="edge">
<title>Node2&#45;&gt;Node11</title>
<g id="a_edge11_Node000002_Node000011"><a xlink:title=" ">
<path fill="none" stroke="#63b8ff" d="M1202.55,-71.94C1190.21,-70.47 1177.52,-68.96 1165.27,-67.5"/>
<polygon fill="#63b8ff" stroke="#63b8ff" points="1202.48,-75.46 1212.83,-73.17 1203.31,-68.51 1202.48,-75.46"/>
</a>
</g>
</g>
<!-- Node12 -->
<g id="Node000012" class="node">
<title>Node12</title>
<g id="a_Node000012"><a xlink:href="../../d4/d03/classTerraria_1_1Player_af44290f5d38b6d5076a5fa8d6ee3dd12.html#af44290f5d38b6d5076a5fa8d6ee3dd12" target="_top" xlink:title=" ">
<polygon fill="white" stroke="#666666" points="1147,-24.5 1022,-24.5 1022,-5.5 1147,-5.5 1147,-24.5"/>
<text text-anchor="middle" x="1084.5" y="-12.5" font-family="Helvetica,sans-Serif" font-size="10.00">Terraria.Player.Update</text>
</a>
</g>
</g>
<!-- Node2&#45;&gt;Node12 -->
<g id="edge12_Node000002_Node000012" class="edge">
<title>Node2&#45;&gt;Node12</title>
<g id="a_edge12_Node000002_Node000012"><a xlink:title=" ">
<path fill="none" stroke="#63b8ff" d="M1259.34,-68.02C1237.46,-57.44 1205.88,-43.19 1177,-34 1165.4,-30.31 1152.75,-27.15 1140.65,-24.53"/>
<polygon fill="#63b8ff" stroke="#63b8ff" points="1257.86,-71.2 1268.38,-72.46 1260.94,-64.91 1257.86,-71.2"/>
</a>
</g>
</g>
<!-- Node5 -->
<g id="Node000005" class="node">
<title>Node5</title>
<g id="a_Node000005"><a xlink:href="../../da/dd5/classTerraria_1_1Main_a474beeecaea4d6dd108fba56cd554d46.html#a474beeecaea4d6dd108fba56cd554d46" target="_top" xlink:title=" ">
<polygon fill="white" stroke="#666666" points="412,-114.5 290,-114.5 290,-95.5 412,-95.5 412,-114.5"/>
<text text-anchor="middle" x="351" y="-102.5" font-family="Helvetica,sans-Serif" font-size="10.00">Terraria.Main.DoDraw</text>
</a>
</g>
</g>
<!-- Node4&#45;&gt;Node5 -->
<g id="edge4_Node000004_Node000005" class="edge">
<title>Node4&#45;&gt;Node5</title>
<g id="a_edge4_Node000004_Node000005"><a xlink:title=" ">
<path fill="none" stroke="#63b8ff" d="M988.19,-107.41C863.88,-109 639.67,-110.99 448,-108 436.41,-107.82 424.04,-107.52 412.17,-107.17"/>
<polygon fill="#63b8ff" stroke="#63b8ff" points="988.48,-110.91 998.43,-107.28 988.39,-103.91 988.48,-110.91"/>
</a>
</g>
</g>
<!-- Node8 -->
<g id="Node000008" class="node">
<title>Node8</title>
<g id="a_Node000008"><a xlink:href="../../da/dd5/classTerraria_1_1Main_ab13ebe846afd6d4cd47586ef70091e91.html#ab13ebe846afd6d4cd47586ef70091e91" target="_top" xlink:title=" ">
<polygon fill="white" stroke="#666666" points="956,-95.5 809,-95.5 809,-76.5 956,-76.5 956,-95.5"/>
<text text-anchor="middle" x="882.5" y="-83.5" font-family="Helvetica,sans-Serif" font-size="10.00">Terraria.Main.DrawCapture</text>
</a>
</g>
</g>
<!-- Node4&#45;&gt;Node8 -->
<g id="edge7_Node000004_Node000008" class="edge">
<title>Node4&#45;&gt;Node8</title>
<g id="a_edge7_Node000004_Node000008"><a xlink:title=" ">
<path fill="none" stroke="#63b8ff" d="M988.14,-96.46C977.41,-95.39 966.61,-94.31 956.23,-93.27"/>
<polygon fill="#63b8ff" stroke="#63b8ff" points="988.09,-99.98 998.39,-97.49 988.79,-93.01 988.09,-99.98"/>
</a>
</g>
</g>
<!-- Node6 -->
<g id="Node000006" class="node">
<title>Node6</title>
<g id="a_Node000006"><a xlink:href="../../da/dd5/classTerraria_1_1Main_aa597dbafa085227bb056d05d0b0f9abe.html#aa597dbafa085227bb056d05d0b0f9abe" target="_top" xlink:title=" ">
<polygon fill="white" stroke="#666666" points="254,-120 145,-120 145,-90 254,-90 254,-120"/>
<text text-anchor="start" x="153" y="-108" font-family="Helvetica,sans-Serif" font-size="10.00">Terraria.Main.Draw</text>
<text text-anchor="middle" x="199.5" y="-97" font-family="Helvetica,sans-Serif" font-size="10.00">_Inner</text>
</a>
</g>
</g>
<!-- Node5&#45;&gt;Node6 -->
<g id="edge5_Node000005_Node000006" class="edge">
<title>Node5&#45;&gt;Node6</title>
<g id="a_edge5_Node000005_Node000006"><a xlink:title=" ">
<path fill="none" stroke="#63b8ff" d="M279.41,-105C270.99,-105 262.49,-105 254.35,-105"/>
<polygon fill="#63b8ff" stroke="#63b8ff" points="279.62,-108.5 289.62,-105 279.62,-101.5 279.62,-108.5"/>
</a>
</g>
</g>
<!-- Node7 -->
<g id="Node000007" class="node">
<title>Node7</title>
<g id="a_Node000007"><a xlink:href="../../da/dd5/classTerraria_1_1Main_a516aa31311860bad4242ade32e5effcd.html#a516aa31311860bad4242ade32e5effcd" target="_top" xlink:title=" ">
<polygon fill="white" stroke="#666666" points="109,-114.5 0,-114.5 0,-95.5 109,-95.5 109,-114.5"/>
<text text-anchor="middle" x="54.5" y="-102.5" font-family="Helvetica,sans-Serif" font-size="10.00">Terraria.Main.Draw</text>
</a>
</g>
</g>
<!-- Node6&#45;&gt;Node7 -->
<g id="edge6_Node000006_Node000007" class="edge">
<title>Node6&#45;&gt;Node7</title>
<g id="a_edge6_Node000006_Node000007"><a xlink:title=" ">
<path fill="none" stroke="#63b8ff" d="M134.68,-105C126.25,-105 117.69,-105 109.46,-105"/>
<polygon fill="#63b8ff" stroke="#63b8ff" points="134.85,-108.5 144.85,-105 134.85,-101.5 134.85,-108.5"/>
</a>
</g>
</g>
<!-- Node9 -->
<g id="Node000009" class="node">
<title>Node9</title>
<g id="a_Node000009"><a xlink:href="../../d5/d3b/classTerraria_1_1Graphics_1_1Capture_1_1CaptureCamera_a0f89b111e49e173b59c7d4eae1ec828f.html#a0f89b111e49e173b59c7d4eae1ec828f" target="_top" xlink:title=" ">
<polygon fill="white" stroke="#666666" points="773,-99 630,-99 630,-69 773,-69 773,-99"/>
<text text-anchor="start" x="638" y="-87" font-family="Helvetica,sans-Serif" font-size="10.00">Terraria.Graphics.Capture.</text>
<text text-anchor="middle" x="701.5" y="-76" font-family="Helvetica,sans-Serif" font-size="10.00">CaptureCamera.DrawTick</text>
</a>
</g>
</g>
<!-- Node8&#45;&gt;Node9 -->
<g id="edge8_Node000008_Node000009" class="edge">
<title>Node8&#45;&gt;Node9</title>
<g id="a_edge8_Node000008_Node000009"><a xlink:title=" ">
<path fill="none" stroke="#63b8ff" d="M798.9,-85.08C790.28,-84.98 781.58,-84.88 773.12,-84.79"/>
<polygon fill="#63b8ff" stroke="#63b8ff" points="798.91,-88.58 808.95,-85.19 798.99,-81.58 798.91,-88.58"/>
</a>
</g>
</g>
<!-- Node10 -->
<g id="Node000010" class="node">
<title>Node10</title>
<g id="a_Node000010"><a xlink:href="../../d4/d78/classTerraria_1_1Graphics_1_1Capture_1_1CaptureManager_a692c32176bdf72053b0217a48bc49dd5.html#a692c32176bdf72053b0217a48bc49dd5" target="_top" xlink:title=" ">
<polygon fill="white" stroke="#666666" points="594,-99 448,-99 448,-69 594,-69 594,-99"/>
<text text-anchor="start" x="456" y="-87" font-family="Helvetica,sans-Serif" font-size="10.00">Terraria.Graphics.Capture.</text>
<text text-anchor="middle" x="521" y="-76" font-family="Helvetica,sans-Serif" font-size="10.00">CaptureManager.DrawTick</text>
</a>
</g>
</g>
<!-- Node9&#45;&gt;Node10 -->
<g id="edge9_Node000009_Node000010" class="edge">
<title>Node9&#45;&gt;Node10</title>
<g id="a_edge9_Node000009_Node000010"><a xlink:title=" ">
<path fill="none" stroke="#63b8ff" d="M619.91,-84C611.3,-84 602.59,-84 594.08,-84"/>
<polygon fill="#63b8ff" stroke="#63b8ff" points="619.95,-87.5 629.95,-84 619.95,-80.5 619.95,-87.5"/>
</a>
</g>
</g>
<!-- Node10&#45;&gt;Node5 -->
<g id="edge10_Node000010_Node000005" class="edge">
<title>Node10&#45;&gt;Node5</title>
<g id="a_edge10_Node000010_Node000005"><a xlink:title=" ">
<path fill="none" stroke="#63b8ff" d="M437.67,-94.29C429.03,-95.37 420.37,-96.45 412.04,-97.49"/>
<polygon fill="#63b8ff" stroke="#63b8ff" points="438.29,-97.74 447.78,-93.03 437.42,-90.8 438.29,-97.74"/>
</a>
</g>
</g>
<!-- Node13 -->
<g id="Node000013" class="node">
<title>Node13</title>
<g id="a_Node000013"><a xlink:href="../../da/dd5/classTerraria_1_1Main_a39cdec3f201787a467045358bfcba377.html#a39cdec3f201787a467045358bfcba377" target="_top" xlink:title=" ">
<polygon fill="white" stroke="#666666" points="953,-30 812,-30 812,0 953,0 953,-30"/>
<text text-anchor="start" x="820" y="-18" font-family="Helvetica,sans-Serif" font-size="10.00">Terraria.Main.DoUpdateIn</text>
<text text-anchor="middle" x="882.5" y="-7" font-family="Helvetica,sans-Serif" font-size="10.00">World</text>
</a>
</g>
</g>
<!-- Node12&#45;&gt;Node13 -->
<g id="edge13_Node000012_Node000013" class="edge">
<title>Node12&#45;&gt;Node13</title>
<g id="a_edge13_Node000012_Node000013"><a xlink:title=" ">
<path fill="none" stroke="#63b8ff" d="M1011.77,-15C992.75,-15 972.24,-15 953.32,-15"/>
<polygon fill="#63b8ff" stroke="#63b8ff" points="1011.86,-18.5 1021.86,-15 1011.86,-11.5 1011.86,-18.5"/>
</a>
</g>
</g>
<!-- Node14 -->
<g id="Node000014" class="node">
<title>Node14</title>
<g id="a_Node000014"><a xlink:href="../../da/dd5/classTerraria_1_1Main_a96341b8439a15bcefc0f119767e24e35.html#a96341b8439a15bcefc0f119767e24e35" target="_top" xlink:title=" ">
<polygon fill="white" stroke="#666666" points="767.5,-24.5 635.5,-24.5 635.5,-5.5 767.5,-5.5 767.5,-24.5"/>
<text text-anchor="middle" x="701.5" y="-12.5" font-family="Helvetica,sans-Serif" font-size="10.00">Terraria.Main.DoUpdate</text>
</a>
</g>
</g>
<!-- Node13&#45;&gt;Node14 -->
<g id="edge14_Node000013_Node000014" class="edge">
<title>Node13&#45;&gt;Node14</title>
<g id="a_edge14_Node000013_Node000014"><a xlink:title=" ">
<path fill="none" stroke="#63b8ff" d="M801.47,-15C790.15,-15 778.63,-15 767.64,-15"/>
<polygon fill="#63b8ff" stroke="#63b8ff" points="801.78,-18.5 811.78,-15 801.78,-11.5 801.78,-18.5"/>
</a>
</g>
</g>
<!-- Node15 -->
<g id="Node000015" class="node">
<title>Node15</title>
<g id="a_Node000015"><a xlink:href="../../da/dd5/classTerraria_1_1Main_a49776516aea1626e33c722fc8896a7de.html#a49776516aea1626e33c722fc8896a7de" target="_top" xlink:title=" ">
<polygon fill="white" stroke="#666666" points="580.5,-24.5 461.5,-24.5 461.5,-5.5 580.5,-5.5 580.5,-24.5"/>
<text text-anchor="middle" x="521" y="-12.5" font-family="Helvetica,sans-Serif" font-size="10.00">Terraria.Main.Update</text>
</a>
</g>
</g>
<!-- Node14&#45;&gt;Node15 -->
<g id="edge15_Node000014_Node000015" class="edge">
<title>Node14&#45;&gt;Node15</title>
<g id="a_edge15_Node000014_Node000015"><a xlink:title=" ">
<path fill="none" stroke="#63b8ff" d="M625.09,-15C610.19,-15 594.76,-15 580.52,-15"/>
<polygon fill="#63b8ff" stroke="#63b8ff" points="625.3,-18.5 635.3,-15 625.3,-11.5 625.3,-18.5"/>
</a>
</g>
</g>
</g>
</svg>
