<?xml version="1.0" encoding="UTF-8" standalone="no"?>
<!DOCTYPE svg PUBLIC "-//W3C//DTD SVG 1.1//EN"
 "http://www.w3.org/Graphics/SVG/1.1/DTD/svg11.dtd">
<!-- Generated by graphviz version 2.43.0 (0)
 -->
<!-- Title: Terraria.ModLoader.ExtraJumpLoader.ConsumeAndStopUnavailableJumps Pages: 1 -->
<svg width="615pt" height="86pt"
 viewBox="0.00 0.00 615.00 86.00" xmlns="http://www.w3.org/2000/svg" xmlns:xlink="http://www.w3.org/1999/xlink">
<g id="graph0" class="graph" transform="scale(1 1) rotate(0) translate(4 82)">
<title>Terraria.ModLoader.ExtraJumpLoader.ConsumeAndStopUnavailableJumps</title>
<!-- Node1 -->
<g id="Node000001" class="node">
<title>Node1</title>
<g id="a_Node000001"><a xlink:title=" ">
<polygon fill="#999999" stroke="#666666" points="251,-54 0,-54 0,-24 251,-24 251,-54"/>
<text text-anchor="start" x="8" y="-42" font-family="Helvetica,sans-Serif" font-size="10.00">Terraria.ModLoader.Extra</text>
<text text-anchor="middle" x="125.5" y="-31" font-family="Helvetica,sans-Serif" font-size="10.00">JumpLoader.ConsumeAndStopUnavailableJumps</text>
</a>
</g>
</g>
<!-- Node2 -->
<g id="Node000002" class="node">
<title>Node2</title>
<g id="a_Node000002"><a xlink:href="../../d7/d95/classTerraria_1_1ModLoader_1_1ExtraJumpLoader_ad977d62fcb0a2d02735ba9f4b8abea5f.html#ad977d62fcb0a2d02735ba9f4b8abea5f" target="_top" xlink:title=" ">
<polygon fill="white" stroke="#666666" points="425,-54 287,-54 287,-24 425,-24 425,-54"/>
<text text-anchor="start" x="295" y="-42" font-family="Helvetica,sans-Serif" font-size="10.00">Terraria.ModLoader.Extra</text>
<text text-anchor="middle" x="356" y="-31" font-family="Helvetica,sans-Serif" font-size="10.00">JumpLoader.StopJump</text>
</a>
</g>
</g>
<!-- Node1&#45;&gt;Node2 -->
<g id="edge1_Node000001_Node000002" class="edge">
<title>Node1&#45;&gt;Node2</title>
<g id="a_edge1_Node000001_Node000002"><a xlink:title=" ">
<path fill="none" stroke="#63b8ff" d="M251.11,-39C259.7,-39 268.22,-39 276.45,-39"/>
<polygon fill="#63b8ff" stroke="#63b8ff" points="276.73,-42.5 286.73,-39 276.73,-35.5 276.73,-42.5"/>
</a>
</g>
</g>
<!-- Node3 -->
<g id="Node000003" class="node">
<title>Node3</title>
<g id="a_Node000003"><a xlink:href="../../d8/d90/classTerraria_1_1ModLoader_1_1ExtraJump_abf6f758b68cecebca6431524c744d7a2.html#abf6f758b68cecebca6431524c744d7a2" target="_top" xlink:title="This hook runs before P:Terraria.DataStructures.ExtraJumpState.Active is set from true to false &#160;Jump...">
<polygon fill="white" stroke="#666666" points="603,-78 465,-78 465,-48 603,-48 603,-78"/>
<text text-anchor="start" x="473" y="-66" font-family="Helvetica,sans-Serif" font-size="10.00">Terraria.ModLoader.Extra</text>
<text text-anchor="middle" x="534" y="-55" font-family="Helvetica,sans-Serif" font-size="10.00">Jump.OnEnded</text>
</a>
</g>
</g>
<!-- Node2&#45;&gt;Node3 -->
<g id="edge2_Node000002_Node000003" class="edge">
<title>Node2&#45;&gt;Node3</title>
<g id="a_edge2_Node000002_Node000003"><a xlink:title=" ">
<path fill="none" stroke="#63b8ff" d="M425.05,-48.28C434.74,-49.6 444.77,-50.97 454.64,-52.31"/>
<polygon fill="#63b8ff" stroke="#63b8ff" points="454.46,-55.82 464.84,-53.71 455.41,-48.89 454.46,-55.82"/>
</a>
</g>
</g>
<!-- Node4 -->
<g id="Node000004" class="node">
<title>Node4</title>
<g id="a_Node000004"><a xlink:href="../../d9/de2/classTerraria_1_1ModLoader_1_1PlayerLoader_a23675d30756d507cdc408f11ff9d7cc1.html#a23675d30756d507cdc408f11ff9d7cc1" target="_top" xlink:title=" ">
<polygon fill="white" stroke="#666666" points="607,-30 461,-30 461,0 607,0 607,-30"/>
<text text-anchor="start" x="469" y="-18" font-family="Helvetica,sans-Serif" font-size="10.00">Terraria.ModLoader.Player</text>
<text text-anchor="middle" x="534" y="-7" font-family="Helvetica,sans-Serif" font-size="10.00">Loader.OnExtraJumpEnded</text>
</a>
</g>
</g>
<!-- Node2&#45;&gt;Node4 -->
<g id="edge3_Node000002_Node000004" class="edge">
<title>Node2&#45;&gt;Node4</title>
<g id="a_edge3_Node000002_Node000004"><a xlink:title=" ">
<path fill="none" stroke="#63b8ff" d="M425.05,-29.72C433.46,-28.57 442.13,-27.39 450.72,-26.22"/>
<polygon fill="#63b8ff" stroke="#63b8ff" points="451.33,-29.67 460.76,-24.85 450.38,-22.73 451.33,-29.67"/>
</a>
</g>
</g>
</g>
</svg>
