<?xml version="1.0" encoding="UTF-8" standalone="no"?>
<!DOCTYPE svg PUBLIC "-//W3C//DTD SVG 1.1//EN"
 "http://www.w3.org/Graphics/SVG/1.1/DTD/svg11.dtd">
<!-- Generated by graphviz version 2.43.0 (0)
 -->
<!-- Title: NATUPNPLib.UPnPNAT.MappingCollection Pages: 1 -->
<svg width="252pt" height="415pt"
 viewBox="0.00 0.00 252.00 415.00" xmlns="http://www.w3.org/2000/svg" xmlns:xlink="http://www.w3.org/1999/xlink">

<svg id="main" version="1.1" xmlns="http://www.w3.org/2000/svg" xmlns:xlink="http://www.w3.org/1999/xlink" xml:space="preserve" onload="init(evt)">
<style type="text/css"><![CDATA[
.node, .edge {opacity: 0.7;}
.node.selected, .edge.selected {opacity: 1;}
.edge:hover path { stroke: red; }
.edge:hover polygon { stroke: red; fill: red; }
]]></style>
<script type="application/ecmascript" xlink:href="../../svg.min.js"/>
<svg id="graph" class="graph">
<g id="graph0" class="graph" transform="scale(1 1) rotate(0) translate(4 411)">
<title>NATUPNPLib.UPnPNAT.MappingCollection</title>
<!-- Node1 -->
<g id="Node000001" class="node">
<title>Node1</title>
<g id="a_Node000001"><a xlink:title=" ">
<polygon fill="#999999" stroke="transparent" points="184,-156 0,-156 0,0 184,0 184,-156"/>
<text text-anchor="start" x="15" y="-144" font-family="Helvetica,sans-Serif" font-size="10.00">NATUPNPLib.UPnPNAT.Mapping</text>
<text text-anchor="start" x="67.5" y="-133" font-family="Helvetica,sans-Serif" font-size="10.00">Collection</text>
<text text-anchor="start" x="90" y="-118" font-family="Helvetica,sans-Serif" font-size="10.00"> </text>
<text text-anchor="start" x="4" y="-103" font-family="Helvetica,sans-Serif" font-size="10.00">+</text>
<text text-anchor="start" x="17" y="-103" font-family="Helvetica,sans-Serif" font-size="10.00">IStaticPortMapping</text>
<text text-anchor="start" x="17" y="-92" font-family="Helvetica,sans-Serif" font-size="10.00"> Add(int lExternalPort,</text>
<text text-anchor="start" x="17" y="-81" font-family="Helvetica,sans-Serif" font-size="10.00"> string bstrProtocol,</text>
<text text-anchor="start" x="17" y="-70" font-family="Helvetica,sans-Serif" font-size="10.00"> int lInternalPort, string</text>
<text text-anchor="start" x="17" y="-59" font-family="Helvetica,sans-Serif" font-size="10.00"> bstrInternalClient, bool</text>
<text text-anchor="start" x="17" y="-48" font-family="Helvetica,sans-Serif" font-size="10.00"> bEnabled, string bstrDescription)</text>
<text text-anchor="start" x="4" y="-33" font-family="Helvetica,sans-Serif" font-size="10.00">+</text>
<text text-anchor="start" x="17" y="-33" font-family="Helvetica,sans-Serif" font-size="10.00">void Remove(int lExternal</text>
<text text-anchor="start" x="17" y="-22" font-family="Helvetica,sans-Serif" font-size="10.00">Port, string bstrProtocol)</text>
<text text-anchor="start" x="4" y="-7" font-family="Helvetica,sans-Serif" font-size="10.00">+</text>
<text text-anchor="start" x="17" y="-7" font-family="Helvetica,sans-Serif" font-size="10.00">IEnumerator GetEnumerator()</text>
<polygon fill="#666666" stroke="#666666" points="0,-128 0,-128 184,-128 184,-128 0,-128"/>
<polygon fill="#666666" stroke="#666666" points="0,-113 0,-113 184,-113 184,-113 0,-113"/>
<polygon fill="none" stroke="#666666" points="0,0 0,-156 184,-156 184,0 0,0"/>
</a>
</g>
</g>
<!-- Node2 -->
<g id="Node000002" class="node">
<title>Node2</title>
<g id="a_Node000002"><a xlink:href="../../da/db7/interfaceNATUPNPLib_1_1IStaticPortMappingCollection.html" target="_top" xlink:title=" ">
<polygon fill="white" stroke="transparent" points="244,-322 60,-322 60,-192 244,-192 244,-322"/>
<text text-anchor="start" x="81" y="-310" font-family="Helvetica,sans-Serif" font-size="10.00">IStaticPortMappingCollection</text>
<text text-anchor="start" x="150" y="-295" font-family="Helvetica,sans-Serif" font-size="10.00"> </text>
<text text-anchor="start" x="64" y="-280" font-family="Helvetica,sans-Serif" font-size="10.00">+</text>
<text text-anchor="start" x="77" y="-280" font-family="Helvetica,sans-Serif" font-size="10.00">void Remove(int lExternal</text>
<text text-anchor="start" x="77" y="-269" font-family="Helvetica,sans-Serif" font-size="10.00">Port, string bstrProtocol)</text>
<text text-anchor="start" x="64" y="-254" font-family="Helvetica,sans-Serif" font-size="10.00">+</text>
<text text-anchor="start" x="77" y="-254" font-family="Helvetica,sans-Serif" font-size="10.00">IStaticPortMapping</text>
<text text-anchor="start" x="77" y="-243" font-family="Helvetica,sans-Serif" font-size="10.00"> Add(int lExternalPort,</text>
<text text-anchor="start" x="77" y="-232" font-family="Helvetica,sans-Serif" font-size="10.00"> string bstrProtocol,</text>
<text text-anchor="start" x="77" y="-221" font-family="Helvetica,sans-Serif" font-size="10.00"> int lInternalPort, string</text>
<text text-anchor="start" x="77" y="-210" font-family="Helvetica,sans-Serif" font-size="10.00"> bstrInternalClient, bool</text>
<text text-anchor="start" x="77" y="-199" font-family="Helvetica,sans-Serif" font-size="10.00"> bEnabled, string bstrDescription)</text>
<polygon fill="#666666" stroke="#666666" points="60,-305 60,-305 244,-305 244,-305 60,-305"/>
<polygon fill="#666666" stroke="#666666" points="60,-290 60,-290 244,-290 244,-290 60,-290"/>
<polygon fill="none" stroke="#666666" points="60,-192 60,-322 244,-322 244,-192 60,-192"/>
</a>
</g>
</g>
<!-- Node2&#45;&gt;Node1 -->
<g id="edge1_Node000001_Node000002" class="edge">
<title>Node2&#45;&gt;Node1</title>
<g id="a_edge1_Node000001_Node000002"><a xlink:title=" ">
<path fill="none" stroke="#63b8ff" d="M127,-182.24C124.08,-173.63 121.1,-164.84 118.17,-156.19"/>
<polygon fill="none" stroke="#63b8ff" points="123.73,-183.5 130.25,-191.85 130.36,-181.25 123.73,-183.5"/>
</a>
</g>
</g>
<!-- Node3 -->
<g id="Node000003" class="node">
<title>Node3</title>
<g id="a_Node000003"><a xlink:href="../../d5/ddf/classIEnumerable.html" target="_top" xlink:title=" ">
<polygon fill="white" stroke="transparent" points="128,-407 56,-407 56,-358 128,-358 128,-407"/>
<text text-anchor="start" x="61" y="-394.5" font-family="Helvetica,sans-Serif" font-size="10.00">IEnumerable</text>
<text text-anchor="start" x="90" y="-379.5" font-family="Helvetica,sans-Serif" font-size="10.00"> </text>
<text text-anchor="start" x="90" y="-364.5" font-family="Helvetica,sans-Serif" font-size="10.00"> </text>
<polygon fill="#666666" stroke="#666666" points="56,-389.5 56,-389.5 128,-389.5 128,-389.5 56,-389.5"/>
<polygon fill="#666666" stroke="#666666" points="56,-374.5 56,-374.5 128,-374.5 128,-374.5 56,-374.5"/>
<polygon fill="none" stroke="#666666" points="56,-358 56,-407 128,-407 128,-358 56,-358"/>
</a>
</g>
</g>
<!-- Node3&#45;&gt;Node1 -->
<g id="edge3_Node000001_Node000003" class="edge">
<title>Node3&#45;&gt;Node1</title>
<g id="a_edge3_Node000001_Node000003"><a xlink:title=" ">
<path fill="none" stroke="#63b8ff" d="M64.77,-349.44C59.12,-341.02 53.99,-331.6 51,-322 33.83,-266.83 41,-248.91 51,-192 53.08,-180.18 56.29,-167.97 60.02,-156.14"/>
<polygon fill="none" stroke="#63b8ff" points="62.1,-351.72 70.77,-357.81 67.79,-347.64 62.1,-351.72"/>
</a>
</g>
</g>
<!-- Node3&#45;&gt;Node2 -->
<g id="edge2_Node000002_Node000003" class="edge">
<title>Node3&#45;&gt;Node2</title>
<g id="a_edge2_Node000002_Node000003"><a xlink:title=" ">
<path fill="none" stroke="#63b8ff" d="M107.92,-348.73C111.94,-340.45 116.4,-331.28 120.89,-322.04"/>
<polygon fill="none" stroke="#63b8ff" points="104.65,-347.46 103.43,-357.98 110.94,-350.51 104.65,-347.46"/>
</a>
</g>
</g>
</g>
</svg>
</svg>

<style type='text/css'>
<![CDATA[
[data-mouse-over-selected='false'] { opacity: 0.7; }
[data-mouse-over-selected='true']  { opacity: 1.0; }
]]>
</style>
<script type="application/ecmascript"><![CDATA[
document.addEventListener('DOMContentLoaded', (event) => {
  highlightEdges();
  highlightAdjacentNodes();
});
]]></script>
</svg>
