<?xml version="1.0" encoding="UTF-8" standalone="no"?>
<!DOCTYPE svg PUBLIC "-//W3C//DTD SVG 1.1//EN"
 "http://www.w3.org/Graphics/SVG/1.1/DTD/svg11.dtd">
<!-- Generated by graphviz version 2.43.0 (0)
 -->
<!-- Title: Terraria.ModLoader.MagicDamageClass Pages: 1 -->
<!--zoomable 1696 -->

<svg id="main" version="1.1" xmlns="http://www.w3.org/2000/svg" xmlns:xlink="http://www.w3.org/1999/xlink" xml:space="preserve" onload="init(evt)">
<style type="text/css"><![CDATA[
.node, .edge {opacity: 0.7;}
.node.selected, .edge.selected {opacity: 1;}
.edge:hover path { stroke: red; }
.edge:hover polygon { stroke: red; fill: red; }
]]></style>

<defs>
  <circle id="rim" cx="0" cy="0" r="7"/>
  <circle id="rim2" cx="0" cy="0" r="3.5"/>
  <g id="zoomPlus">
    <use xlink:href="#rim" fill="#404040"><set attributeName="fill" to="#808080" begin="zoomplus.mouseover" end="zoomplus.mouseout"/></use>
    <path d="M-4,0h8M0,-4v8" fill="none" stroke="white" stroke-width="1.5" pointer-events="none"/>
  </g>
  <g id="zoomMin">
    <use xlink:href="#rim" fill="#404040"><set attributeName="fill" to="#808080" begin="zoomminus.mouseover" end="zoomminus.mouseout"/></use>
    <path d="M-4,0h8" fill="none" stroke="white" stroke-width="1.5" pointer-events="none"/>
  </g>
  <g id="arrowUp" transform="translate(30 24)">
    <use xlink:href="#rim"/>
    <path pointer-events="none" fill="none" stroke="white" stroke-width="1.5" d="M0,-3.0v7 M-2.5,-0.5L0,-3.0L2.5,-0.5"/>
  </g>
  <g id="arrowRight" transform="rotate(90) translate(36 -43)">
    <use xlink:href="#rim"/>
    <path pointer-events="none" fill="none" stroke="white" stroke-width="1.5" d="M0,-3.0v7 M-2.5,-0.5L0,-3.0L2.5,-0.5"/>
  </g>
  <g id="arrowDown" transform="rotate(180) translate(-30 -48)">
    <use xlink:href="#rim"/>
    <path pointer-events="none" fill="none" stroke="white" stroke-width="1.5" d="M0,-3.0v7 M-2.5,-0.5L0,-3.0L2.5,-0.5"/>
  </g>
  <g id="arrowLeft" transform="rotate(270) translate(-36 17)">
    <use xlink:href="#rim"/>
    <path pointer-events="none" fill="none" stroke="white" stroke-width="1.5" d="M0,-3.0v7 M-2.5,-0.5L0,-3.0L2.5,-0.5"/>
  </g>
  <g id="resetDef">
    <use xlink:href="#rim2" fill="#404040"><set attributeName="fill" to="#808080" begin="reset.mouseover" end="reset.mouseout"/></use>
  </g>
</defs>
<script type="application/ecmascript">
var viewWidth = 623;
var viewHeight = 1696;
var sectionId = 'dynsection-0';
</script>
<script type="application/ecmascript" xlink:href="../../svg.min.js"/>
<svg id="graph" class="graph">
<g id="viewport">
<title>Terraria.ModLoader.MagicDamageClass</title>
<!-- Node1 -->
<g id="Node000001" class="node">
<title>Node1</title>
<g id="a_Node000001"><a xlink:title=" ">
<polygon fill="#999999" stroke="transparent" points="224.27,-60 87.27,-60 87.27,0 224.27,0 224.27,-60"/>
<text text-anchor="start" x="93.27" y="-48" font-family="Helvetica,sans-Serif" font-size="10.00">Terraria.ModLoader.Magic</text>
<text text-anchor="start" x="122.27" y="-37" font-family="Helvetica,sans-Serif" font-size="10.00">DamageClass</text>
<text text-anchor="start" x="91.77" y="-22" font-family="Helvetica,sans-Serif" font-size="10.00">+</text>
<text text-anchor="start" x="104.77" y="-22" font-family="Helvetica,sans-Serif" font-size="10.00">override string LangKey</text>
<text text-anchor="start" x="154.27" y="-7" font-family="Helvetica,sans-Serif" font-size="10.00"> </text>
<polygon fill="#666666" stroke="#666666" points="87.77,-32 87.77,-32 224.77,-32 224.77,-32 87.77,-32"/>
<polygon fill="#666666" stroke="#666666" points="87.77,-17 87.77,-17 102.77,-17 102.77,-17 87.77,-17"/>
<polygon fill="#666666" stroke="#666666" points="102.77,-17 102.77,-17 224.77,-17 224.77,-17 102.77,-17"/>
<polygon fill="none" stroke="#666666" points="87.27,0 87.27,-60 224.27,-60 224.27,0 87.27,0"/>
</a>
</g>
</g>
<!-- Node2 -->
<g id="Node000002" class="node">
<title>Node2</title>
<g id="a_Node000002"><a xlink:href="../../d8/d50/classTerraria_1_1ModLoader_1_1VanillaDamageClass.html" target="_top" xlink:title=" ">
<polygon fill="white" stroke="transparent" points="221.27,-334.5 90.27,-334.5 90.27,-259.5 221.27,-259.5 221.27,-334.5"/>
<text text-anchor="start" x="105.77" y="-322" font-family="Helvetica,sans-Serif" font-size="10.00">VanillaDamageClass</text>
<text text-anchor="start" x="94.77" y="-307" font-family="Helvetica,sans-Serif" font-size="10.00">+</text>
<text text-anchor="start" x="107.77" y="-307" font-family="Helvetica,sans-Serif" font-size="10.00">override LocalizedText</text>
<text text-anchor="start" x="107.77" y="-296" font-family="Helvetica,sans-Serif" font-size="10.00"> DisplayName</text>
<text text-anchor="start" x="94.77" y="-281" font-family="Helvetica,sans-Serif" font-size="10.00">+</text>
<text text-anchor="start" x="107.77" y="-281" font-family="Helvetica,sans-Serif" font-size="10.00">string LangKey</text>
<text text-anchor="start" x="154.27" y="-266" font-family="Helvetica,sans-Serif" font-size="10.00"> </text>
<polygon fill="#666666" stroke="#666666" points="90.77,-317 90.77,-317 221.77,-317 221.77,-317 90.77,-317"/>
<polygon fill="#666666" stroke="#666666" points="90.77,-276 90.77,-276 105.77,-276 105.77,-276 90.77,-276"/>
<polygon fill="#666666" stroke="#666666" points="105.77,-276 105.77,-276 221.77,-276 221.77,-276 105.77,-276"/>
<polygon fill="none" stroke="#666666" points="90.27,-259.5 90.27,-334.5 221.27,-334.5 221.27,-259.5 90.27,-259.5"/>
</a>
</g>
</g>
<!-- Node2&#45;&gt;Node1 -->
<g id="edge1_Node000001_Node000002" class="edge">
<title>Node2&#45;&gt;Node1</title>
<g id="a_edge1_Node000001_Node000002"><a xlink:title=" ">
<path fill="none" stroke="#63b8ff" d="M155.77,-249.32C155.77,-194.71 155.77,-105.97 155.77,-60.27"/>
<polygon fill="none" stroke="#63b8ff" points="152.27,-249.43 155.77,-259.43 159.27,-249.43 152.27,-249.43"/>
</a>
</g>
</g>
<!-- Node3 -->
<g id="Node000003" class="node">
<title>Node3</title>
<g id="a_Node000003"><a xlink:href="../../d3/d90/classTerraria_1_1ModLoader_1_1DamageClass.html" target="_top" xlink:title="T:Terraria.ModLoader.DamageClass is used to determine the application of item effects,...">
<polygon fill="white" stroke="transparent" points="245.77,-1124 65.77,-1124 65.77,-544 245.77,-544 245.77,-1124"/>
<text text-anchor="start" x="121.77" y="-1112" font-family="Helvetica,sans-Serif" font-size="10.00">DamageClass</text>
<text text-anchor="start" x="69.77" y="-1097" font-family="Helvetica,sans-Serif" font-size="10.00">+</text>
<text text-anchor="start" x="82.77" y="-1097" font-family="Helvetica,sans-Serif" font-size="10.00">static DamageClass</text>
<text text-anchor="start" x="82.77" y="-1086" font-family="Helvetica,sans-Serif" font-size="10.00"> Default</text>
<text text-anchor="start" x="69.77" y="-1071" font-family="Helvetica,sans-Serif" font-size="10.00">+</text>
<text text-anchor="start" x="82.77" y="-1071" font-family="Helvetica,sans-Serif" font-size="10.00">static DamageClass</text>
<text text-anchor="start" x="82.77" y="-1060" font-family="Helvetica,sans-Serif" font-size="10.00"> Generic</text>
<text text-anchor="start" x="69.77" y="-1045" font-family="Helvetica,sans-Serif" font-size="10.00">+</text>
<text text-anchor="start" x="82.77" y="-1045" font-family="Helvetica,sans-Serif" font-size="10.00">static DamageClass</text>
<text text-anchor="start" x="82.77" y="-1034" font-family="Helvetica,sans-Serif" font-size="10.00"> Melee</text>
<text text-anchor="start" x="69.77" y="-1019" font-family="Helvetica,sans-Serif" font-size="10.00">+</text>
<text text-anchor="start" x="82.77" y="-1019" font-family="Helvetica,sans-Serif" font-size="10.00">static DamageClass</text>
<text text-anchor="start" x="82.77" y="-1008" font-family="Helvetica,sans-Serif" font-size="10.00"> MeleeNoSpeed</text>
<text text-anchor="start" x="69.77" y="-993" font-family="Helvetica,sans-Serif" font-size="10.00">+</text>
<text text-anchor="start" x="82.77" y="-993" font-family="Helvetica,sans-Serif" font-size="10.00">static DamageClass</text>
<text text-anchor="start" x="82.77" y="-982" font-family="Helvetica,sans-Serif" font-size="10.00"> Ranged</text>
<text text-anchor="start" x="69.77" y="-967" font-family="Helvetica,sans-Serif" font-size="10.00">+</text>
<text text-anchor="start" x="82.77" y="-967" font-family="Helvetica,sans-Serif" font-size="10.00">static DamageClass</text>
<text text-anchor="start" x="82.77" y="-956" font-family="Helvetica,sans-Serif" font-size="10.00"> Magic</text>
<text text-anchor="start" x="69.77" y="-941" font-family="Helvetica,sans-Serif" font-size="10.00">+</text>
<text text-anchor="start" x="82.77" y="-941" font-family="Helvetica,sans-Serif" font-size="10.00">static DamageClass</text>
<text text-anchor="start" x="82.77" y="-930" font-family="Helvetica,sans-Serif" font-size="10.00"> Summon</text>
<text text-anchor="start" x="69.77" y="-915" font-family="Helvetica,sans-Serif" font-size="10.00">+</text>
<text text-anchor="start" x="82.77" y="-915" font-family="Helvetica,sans-Serif" font-size="10.00">static DamageClass</text>
<text text-anchor="start" x="82.77" y="-904" font-family="Helvetica,sans-Serif" font-size="10.00"> SummonMeleeSpeed</text>
<text text-anchor="start" x="69.77" y="-889" font-family="Helvetica,sans-Serif" font-size="10.00">+</text>
<text text-anchor="start" x="82.77" y="-889" font-family="Helvetica,sans-Serif" font-size="10.00">static DamageClass</text>
<text text-anchor="start" x="82.77" y="-878" font-family="Helvetica,sans-Serif" font-size="10.00"> MagicSummonHybrid</text>
<text text-anchor="start" x="69.77" y="-863" font-family="Helvetica,sans-Serif" font-size="10.00">+</text>
<text text-anchor="start" x="82.77" y="-863" font-family="Helvetica,sans-Serif" font-size="10.00">static DamageClass</text>
<text text-anchor="start" x="82.77" y="-852" font-family="Helvetica,sans-Serif" font-size="10.00"> Throwing</text>
<text text-anchor="start" x="69.77" y="-837" font-family="Helvetica,sans-Serif" font-size="10.00">+</text>
<text text-anchor="start" x="82.77" y="-837" font-family="Helvetica,sans-Serif" font-size="10.00">int Type</text>
<text text-anchor="start" x="69.77" y="-822" font-family="Helvetica,sans-Serif" font-size="10.00">+</text>
<text text-anchor="start" x="82.77" y="-822" font-family="Helvetica,sans-Serif" font-size="10.00">virtual string Localization</text>
<text text-anchor="start" x="82.77" y="-811" font-family="Helvetica,sans-Serif" font-size="10.00">Category</text>
<text text-anchor="start" x="69.77" y="-796" font-family="Helvetica,sans-Serif" font-size="10.00">+</text>
<text text-anchor="start" x="82.77" y="-796" font-family="Helvetica,sans-Serif" font-size="10.00">virtual LocalizedText</text>
<text text-anchor="start" x="82.77" y="-785" font-family="Helvetica,sans-Serif" font-size="10.00"> DisplayName</text>
<text text-anchor="start" x="69.77" y="-770" font-family="Helvetica,sans-Serif" font-size="10.00">+</text>
<text text-anchor="start" x="82.77" y="-770" font-family="Helvetica,sans-Serif" font-size="10.00">virtual bool UseStandard</text>
<text text-anchor="start" x="82.77" y="-759" font-family="Helvetica,sans-Serif" font-size="10.00">CritCalcs</text>
<text text-anchor="start" x="69.77" y="-744" font-family="Helvetica,sans-Serif" font-size="10.00">+</text>
<text text-anchor="start" x="82.77" y="-744" font-family="Helvetica,sans-Serif" font-size="10.00">virtual StatInheritanceData</text>
<text text-anchor="start" x="82.77" y="-733" font-family="Helvetica,sans-Serif" font-size="10.00"> GetModifierInheritance</text>
<text text-anchor="start" x="82.77" y="-722" font-family="Helvetica,sans-Serif" font-size="10.00">(DamageClass damageClass)</text>
<text text-anchor="start" x="69.77" y="-707" font-family="Helvetica,sans-Serif" font-size="10.00">+</text>
<text text-anchor="start" x="82.77" y="-707" font-family="Helvetica,sans-Serif" font-size="10.00">virtual bool GetEffectInheritance</text>
<text text-anchor="start" x="82.77" y="-696" font-family="Helvetica,sans-Serif" font-size="10.00">(DamageClass damageClass)</text>
<text text-anchor="start" x="69.77" y="-681" font-family="Helvetica,sans-Serif" font-size="10.00">+</text>
<text text-anchor="start" x="82.77" y="-681" font-family="Helvetica,sans-Serif" font-size="10.00">virtual void SetDefaultStats</text>
<text text-anchor="start" x="82.77" y="-670" font-family="Helvetica,sans-Serif" font-size="10.00">(Player player)</text>
<text text-anchor="start" x="69.77" y="-655" font-family="Helvetica,sans-Serif" font-size="10.00">+</text>
<text text-anchor="start" x="82.77" y="-655" font-family="Helvetica,sans-Serif" font-size="10.00">virtual bool ShowStatTooltip</text>
<text text-anchor="start" x="82.77" y="-644" font-family="Helvetica,sans-Serif" font-size="10.00">Line(Player player, string</text>
<text text-anchor="start" x="82.77" y="-633" font-family="Helvetica,sans-Serif" font-size="10.00"> lineName)</text>
<text text-anchor="start" x="69.77" y="-618" font-family="Helvetica,sans-Serif" font-size="10.00">+</text>
<text text-anchor="start" x="82.77" y="-618" font-family="Helvetica,sans-Serif" font-size="10.00">override void SetupContent()</text>
<text text-anchor="start" x="69.77" y="-603" font-family="Helvetica,sans-Serif" font-size="10.00">+</text>
<text text-anchor="start" x="82.77" y="-603" font-family="Helvetica,sans-Serif" font-size="10.00">bool CountsAsClass</text>
<text text-anchor="start" x="82.77" y="-592" font-family="Helvetica,sans-Serif" font-size="10.00">&lt; T &gt;()</text>
<text text-anchor="start" x="69.77" y="-577" font-family="Helvetica,sans-Serif" font-size="10.00">+</text>
<text text-anchor="start" x="82.77" y="-577" font-family="Helvetica,sans-Serif" font-size="10.00">bool CountsAsClass</text>
<text text-anchor="start" x="82.77" y="-566" font-family="Helvetica,sans-Serif" font-size="10.00">(DamageClass damageClass)</text>
<text text-anchor="start" x="69.77" y="-551" font-family="Helvetica,sans-Serif" font-size="10.00">#</text>
<text text-anchor="start" x="82.77" y="-551" font-family="Helvetica,sans-Serif" font-size="10.00">override void Register()</text>
<polygon fill="#666666" stroke="#666666" points="65.77,-1107 65.77,-1107 245.77,-1107 245.77,-1107 65.77,-1107"/>
<polygon fill="#666666" stroke="#666666" points="65.77,-754 65.77,-754 80.77,-754 80.77,-754 65.77,-754"/>
<polygon fill="#666666" stroke="#666666" points="80.77,-754 80.77,-754 245.77,-754 245.77,-754 80.77,-754"/>
<polygon fill="none" stroke="#666666" points="65.77,-544 65.77,-1124 245.77,-1124 245.77,-544 65.77,-544"/>
</a>
</g>
</g>
<!-- Node3&#45;&gt;Node2 -->
<g id="edge2_Node000002_Node000003" class="edge">
<title>Node3&#45;&gt;Node2</title>
<g id="a_edge2_Node000002_Node000003"><a xlink:title=" ">
<path fill="none" stroke="#63b8ff" d="M155.77,-533.7C155.77,-453.85 155.77,-377.82 155.77,-334.65"/>
<polygon fill="none" stroke="#63b8ff" points="152.27,-533.97 155.77,-543.97 159.27,-533.97 152.27,-533.97"/>
</a>
</g>
</g>
<!-- Node4 -->
<g id="Node000004" class="node">
<title>Node4</title>
<g id="a_Node000004"><a xlink:href="../../db/d77/classTerraria_1_1ModLoader_1_1ModType.html" target="_top" xlink:title="The base type for most modded things.">
<polygon fill="white" stroke="transparent" points="427.77,-1561 251.77,-1561 251.77,-1161 427.77,-1161 427.77,-1561"/>
<text text-anchor="start" x="317.77" y="-1549" font-family="Helvetica,sans-Serif" font-size="10.00">ModType</text>
<text text-anchor="start" x="255.77" y="-1534" font-family="Helvetica,sans-Serif" font-size="10.00">+</text>
<text text-anchor="start" x="268.77" y="-1534" font-family="Helvetica,sans-Serif" font-size="10.00">Mod Mod</text>
<text text-anchor="start" x="255.77" y="-1519" font-family="Helvetica,sans-Serif" font-size="10.00">+</text>
<text text-anchor="start" x="268.77" y="-1519" font-family="Helvetica,sans-Serif" font-size="10.00">virtual string Name</text>
<text text-anchor="start" x="255.77" y="-1504" font-family="Helvetica,sans-Serif" font-size="10.00">+</text>
<text text-anchor="start" x="268.77" y="-1504" font-family="Helvetica,sans-Serif" font-size="10.00">string FullName</text>
<text text-anchor="start" x="255.77" y="-1489" font-family="Helvetica,sans-Serif" font-size="10.00">+</text>
<text text-anchor="start" x="268.77" y="-1489" font-family="Helvetica,sans-Serif" font-size="10.00">TEntity Entity</text>
<text text-anchor="start" x="255.77" y="-1474" font-family="Helvetica,sans-Serif" font-size="10.00">+</text>
<text text-anchor="start" x="268.77" y="-1474" font-family="Helvetica,sans-Serif" font-size="10.00">virtual bool IsCloneable</text>
<text text-anchor="start" x="255.77" y="-1459" font-family="Helvetica,sans-Serif" font-size="10.00">+</text>
<text text-anchor="start" x="268.77" y="-1459" font-family="Helvetica,sans-Serif" font-size="10.00">virtual bool CloneNewInstances</text>
<text text-anchor="start" x="258.27" y="-1444" font-family="Helvetica,sans-Serif" font-size="10.00">&#45;</text>
<text text-anchor="start" x="268.77" y="-1444" font-family="Helvetica,sans-Serif" font-size="10.00">bool? _isCloneable</text>
<text text-anchor="start" x="255.77" y="-1429" font-family="Helvetica,sans-Serif" font-size="10.00">+</text>
<text text-anchor="start" x="268.77" y="-1429" font-family="Helvetica,sans-Serif" font-size="10.00">virtual void Load()</text>
<text text-anchor="start" x="255.77" y="-1414" font-family="Helvetica,sans-Serif" font-size="10.00">+</text>
<text text-anchor="start" x="268.77" y="-1414" font-family="Helvetica,sans-Serif" font-size="10.00">virtual bool IsLoadingEnabled</text>
<text text-anchor="start" x="268.77" y="-1403" font-family="Helvetica,sans-Serif" font-size="10.00">(Mod mod)</text>
<text text-anchor="start" x="255.77" y="-1388" font-family="Helvetica,sans-Serif" font-size="10.00">+</text>
<text text-anchor="start" x="268.77" y="-1388" font-family="Helvetica,sans-Serif" font-size="10.00">virtual void SetupContent()</text>
<text text-anchor="start" x="255.77" y="-1373" font-family="Helvetica,sans-Serif" font-size="10.00">+</text>
<text text-anchor="start" x="268.77" y="-1373" font-family="Helvetica,sans-Serif" font-size="10.00">virtual void SetStaticDefaults()</text>
<text text-anchor="start" x="255.77" y="-1358" font-family="Helvetica,sans-Serif" font-size="10.00">+</text>
<text text-anchor="start" x="268.77" y="-1358" font-family="Helvetica,sans-Serif" font-size="10.00">virtual void Unload()</text>
<text text-anchor="start" x="255.77" y="-1343" font-family="Helvetica,sans-Serif" font-size="10.00">+</text>
<text text-anchor="start" x="268.77" y="-1343" font-family="Helvetica,sans-Serif" font-size="10.00">string PrettyPrintName()</text>
<text text-anchor="start" x="255.77" y="-1328" font-family="Helvetica,sans-Serif" font-size="10.00">+</text>
<text text-anchor="start" x="268.77" y="-1328" font-family="Helvetica,sans-Serif" font-size="10.00">virtual TModType Clone</text>
<text text-anchor="start" x="268.77" y="-1317" font-family="Helvetica,sans-Serif" font-size="10.00">(TEntity newEntity)</text>
<text text-anchor="start" x="255.77" y="-1302" font-family="Helvetica,sans-Serif" font-size="10.00">+</text>
<text text-anchor="start" x="268.77" y="-1302" font-family="Helvetica,sans-Serif" font-size="10.00">virtual TModType NewInstance</text>
<text text-anchor="start" x="268.77" y="-1291" font-family="Helvetica,sans-Serif" font-size="10.00">(TEntity entity)</text>
<text text-anchor="start" x="255.77" y="-1276" font-family="Helvetica,sans-Serif" font-size="10.00">#</text>
<text text-anchor="start" x="268.77" y="-1276" font-family="Helvetica,sans-Serif" font-size="10.00">void Register()</text>
<text text-anchor="start" x="255.77" y="-1261" font-family="Helvetica,sans-Serif" font-size="10.00">#</text>
<text text-anchor="start" x="268.77" y="-1261" font-family="Helvetica,sans-Serif" font-size="10.00">virtual void InitTemplate</text>
<text text-anchor="start" x="268.77" y="-1250" font-family="Helvetica,sans-Serif" font-size="10.00">Instance()</text>
<text text-anchor="start" x="255.77" y="-1235" font-family="Helvetica,sans-Serif" font-size="10.00">#</text>
<text text-anchor="start" x="268.77" y="-1235" font-family="Helvetica,sans-Serif" font-size="10.00">virtual void ValidateType()</text>
<text text-anchor="start" x="255.77" y="-1220" font-family="Helvetica,sans-Serif" font-size="10.00">#</text>
<text text-anchor="start" x="268.77" y="-1220" font-family="Helvetica,sans-Serif" font-size="10.00">override void InitTemplate</text>
<text text-anchor="start" x="268.77" y="-1209" font-family="Helvetica,sans-Serif" font-size="10.00">Instance()</text>
<text text-anchor="start" x="255.77" y="-1194" font-family="Helvetica,sans-Serif" font-size="10.00">#</text>
<text text-anchor="start" x="268.77" y="-1194" font-family="Helvetica,sans-Serif" font-size="10.00">TEntity CreateTemplateEntity()</text>
<text text-anchor="start" x="258.27" y="-1179" font-family="Helvetica,sans-Serif" font-size="10.00">&#45;</text>
<text text-anchor="start" x="268.77" y="-1179" font-family="Helvetica,sans-Serif" font-size="10.00">void ILoadable. Load</text>
<text text-anchor="start" x="268.77" y="-1168" font-family="Helvetica,sans-Serif" font-size="10.00">(Mod mod)</text>
<polygon fill="#666666" stroke="#666666" points="251.77,-1544 251.77,-1544 427.77,-1544 427.77,-1544 251.77,-1544"/>
<polygon fill="#666666" stroke="#666666" points="251.77,-1439 251.77,-1439 266.77,-1439 266.77,-1439 251.77,-1439"/>
<polygon fill="#666666" stroke="#666666" points="266.77,-1439 266.77,-1439 427.77,-1439 427.77,-1439 266.77,-1439"/>
<polygon fill="none" stroke="#666666" points="251.77,-1161 251.77,-1561 427.77,-1561 427.77,-1161 251.77,-1161"/>
</a>
</g>
</g>
<!-- Node4&#45;&gt;Node3 -->
<g id="edge3_Node000003_Node000004" class="edge">
<title>Node4&#45;&gt;Node3</title>
<g id="a_edge3_Node000003_Node000004"><a xlink:title=" ">
<path fill="none" stroke="#63b8ff" d="M266.61,-1151.25C259.79,-1131.78 252.82,-1111.91 245.87,-1092.07"/>
<polygon fill="none" stroke="#63b8ff" points="263.34,-1152.49 269.95,-1160.77 269.94,-1150.18 263.34,-1152.49"/>
</a>
</g>
</g>
<!-- Node4&#45;&gt;Node4 -->
<g id="edge6_Node000004_Node000004" class="edge">
<title>Node4&#45;&gt;Node4</title>
<g id="a_edge6_Node000004_Node000004"><a xlink:title=" ">
<path fill="none" stroke="#63b8ff" d="M436.05,-1389.73C442.12,-1382.97 445.77,-1373.39 445.77,-1361 445.77,-1343.76 438.7,-1331.97 427.9,-1325.64"/>
<polygon fill="none" stroke="#63b8ff" points="433.45,-1387.33 427.9,-1396.36 437.87,-1392.76 433.45,-1387.33"/>
</a>
</g>
</g>
<!-- Node8 -->
<g id="Node000008" class="node">
<title>Node8</title>
<g id="a_Node000008"><a xlink:href="../../db/d77/classTerraria_1_1ModLoader_1_1ModType.html" target="_top" xlink:title="The base type for most modded things.">
<polygon fill="white" stroke="transparent" points="528.77,-1039.5 352.77,-1039.5 352.77,-628.5 528.77,-628.5 528.77,-1039.5"/>
<text text-anchor="start" x="370.77" y="-1027" font-family="Helvetica,sans-Serif" font-size="10.00">Terraria.ModLoader.ModType</text>
<text text-anchor="start" x="384.27" y="-1016" font-family="Helvetica,sans-Serif" font-size="10.00">&lt; TEntity, TModType &gt;</text>
<text text-anchor="start" x="356.77" y="-1001" font-family="Helvetica,sans-Serif" font-size="10.00">+</text>
<text text-anchor="start" x="369.77" y="-1001" font-family="Helvetica,sans-Serif" font-size="10.00">Mod Mod</text>
<text text-anchor="start" x="356.77" y="-986" font-family="Helvetica,sans-Serif" font-size="10.00">+</text>
<text text-anchor="start" x="369.77" y="-986" font-family="Helvetica,sans-Serif" font-size="10.00">virtual string Name</text>
<text text-anchor="start" x="356.77" y="-971" font-family="Helvetica,sans-Serif" font-size="10.00">+</text>
<text text-anchor="start" x="369.77" y="-971" font-family="Helvetica,sans-Serif" font-size="10.00">string FullName</text>
<text text-anchor="start" x="356.77" y="-956" font-family="Helvetica,sans-Serif" font-size="10.00">+</text>
<text text-anchor="start" x="369.77" y="-956" font-family="Helvetica,sans-Serif" font-size="10.00">TEntity Entity</text>
<text text-anchor="start" x="356.77" y="-941" font-family="Helvetica,sans-Serif" font-size="10.00">+</text>
<text text-anchor="start" x="369.77" y="-941" font-family="Helvetica,sans-Serif" font-size="10.00">virtual bool IsCloneable</text>
<text text-anchor="start" x="356.77" y="-926" font-family="Helvetica,sans-Serif" font-size="10.00">+</text>
<text text-anchor="start" x="369.77" y="-926" font-family="Helvetica,sans-Serif" font-size="10.00">virtual bool CloneNewInstances</text>
<text text-anchor="start" x="359.27" y="-911" font-family="Helvetica,sans-Serif" font-size="10.00">&#45;</text>
<text text-anchor="start" x="369.77" y="-911" font-family="Helvetica,sans-Serif" font-size="10.00">bool? _isCloneable</text>
<text text-anchor="start" x="356.77" y="-896" font-family="Helvetica,sans-Serif" font-size="10.00">+</text>
<text text-anchor="start" x="369.77" y="-896" font-family="Helvetica,sans-Serif" font-size="10.00">virtual void Load()</text>
<text text-anchor="start" x="356.77" y="-881" font-family="Helvetica,sans-Serif" font-size="10.00">+</text>
<text text-anchor="start" x="369.77" y="-881" font-family="Helvetica,sans-Serif" font-size="10.00">virtual bool IsLoadingEnabled</text>
<text text-anchor="start" x="369.77" y="-870" font-family="Helvetica,sans-Serif" font-size="10.00">(Mod mod)</text>
<text text-anchor="start" x="356.77" y="-855" font-family="Helvetica,sans-Serif" font-size="10.00">+</text>
<text text-anchor="start" x="369.77" y="-855" font-family="Helvetica,sans-Serif" font-size="10.00">virtual void SetupContent()</text>
<text text-anchor="start" x="356.77" y="-840" font-family="Helvetica,sans-Serif" font-size="10.00">+</text>
<text text-anchor="start" x="369.77" y="-840" font-family="Helvetica,sans-Serif" font-size="10.00">virtual void SetStaticDefaults()</text>
<text text-anchor="start" x="356.77" y="-825" font-family="Helvetica,sans-Serif" font-size="10.00">+</text>
<text text-anchor="start" x="369.77" y="-825" font-family="Helvetica,sans-Serif" font-size="10.00">virtual void Unload()</text>
<text text-anchor="start" x="356.77" y="-810" font-family="Helvetica,sans-Serif" font-size="10.00">+</text>
<text text-anchor="start" x="369.77" y="-810" font-family="Helvetica,sans-Serif" font-size="10.00">string PrettyPrintName()</text>
<text text-anchor="start" x="356.77" y="-795" font-family="Helvetica,sans-Serif" font-size="10.00">+</text>
<text text-anchor="start" x="369.77" y="-795" font-family="Helvetica,sans-Serif" font-size="10.00">virtual TModType Clone</text>
<text text-anchor="start" x="369.77" y="-784" font-family="Helvetica,sans-Serif" font-size="10.00">(TEntity newEntity)</text>
<text text-anchor="start" x="356.77" y="-769" font-family="Helvetica,sans-Serif" font-size="10.00">+</text>
<text text-anchor="start" x="369.77" y="-769" font-family="Helvetica,sans-Serif" font-size="10.00">virtual TModType NewInstance</text>
<text text-anchor="start" x="369.77" y="-758" font-family="Helvetica,sans-Serif" font-size="10.00">(TEntity entity)</text>
<text text-anchor="start" x="356.77" y="-743" font-family="Helvetica,sans-Serif" font-size="10.00">#</text>
<text text-anchor="start" x="369.77" y="-743" font-family="Helvetica,sans-Serif" font-size="10.00">void Register()</text>
<text text-anchor="start" x="356.77" y="-728" font-family="Helvetica,sans-Serif" font-size="10.00">#</text>
<text text-anchor="start" x="369.77" y="-728" font-family="Helvetica,sans-Serif" font-size="10.00">virtual void InitTemplate</text>
<text text-anchor="start" x="369.77" y="-717" font-family="Helvetica,sans-Serif" font-size="10.00">Instance()</text>
<text text-anchor="start" x="356.77" y="-702" font-family="Helvetica,sans-Serif" font-size="10.00">#</text>
<text text-anchor="start" x="369.77" y="-702" font-family="Helvetica,sans-Serif" font-size="10.00">virtual void ValidateType()</text>
<text text-anchor="start" x="356.77" y="-687" font-family="Helvetica,sans-Serif" font-size="10.00">#</text>
<text text-anchor="start" x="369.77" y="-687" font-family="Helvetica,sans-Serif" font-size="10.00">override void InitTemplate</text>
<text text-anchor="start" x="369.77" y="-676" font-family="Helvetica,sans-Serif" font-size="10.00">Instance()</text>
<text text-anchor="start" x="356.77" y="-661" font-family="Helvetica,sans-Serif" font-size="10.00">#</text>
<text text-anchor="start" x="369.77" y="-661" font-family="Helvetica,sans-Serif" font-size="10.00">TEntity CreateTemplateEntity()</text>
<text text-anchor="start" x="359.27" y="-646" font-family="Helvetica,sans-Serif" font-size="10.00">&#45;</text>
<text text-anchor="start" x="369.77" y="-646" font-family="Helvetica,sans-Serif" font-size="10.00">void ILoadable. Load</text>
<text text-anchor="start" x="369.77" y="-635" font-family="Helvetica,sans-Serif" font-size="10.00">(Mod mod)</text>
<polygon fill="#666666" stroke="#666666" points="352.77,-1011 352.77,-1011 528.77,-1011 528.77,-1011 352.77,-1011"/>
<polygon fill="#666666" stroke="#666666" points="352.77,-906 352.77,-906 367.77,-906 367.77,-906 352.77,-906"/>
<polygon fill="#666666" stroke="#666666" points="367.77,-906 367.77,-906 528.77,-906 528.77,-906 367.77,-906"/>
<polygon fill="none" stroke="#666666" points="352.77,-628.5 352.77,-1039.5 528.77,-1039.5 528.77,-628.5 352.77,-628.5"/>
</a>
</g>
</g>
<!-- Node4&#45;&gt;Node8 -->
<g id="edge13_Node000008_Node000004" class="edge">
<title>Node4&#45;&gt;Node8</title>
<g id="a_edge13_Node000008_Node000004"><a xlink:title=" ">
<path fill="none" stroke="#63b8ff" d="M380.07,-1150.52C387.09,-1114.03 394.38,-1076.12 401.38,-1039.76"/>
<polygon fill="none" stroke="#63b8ff" points="376.55,-1150.29 378.1,-1160.77 383.42,-1151.61 376.55,-1150.29"/>
</a>
</g>
</g>
<!-- Node5 -->
<g id="Node000005" class="node">
<title>Node5</title>
<g id="a_Node000005"><a xlink:href="../../db/d02/interfaceTerraria_1_1ModLoader_1_1IModType.html" target="_top" xlink:title=" ">
<polygon fill="white" stroke="transparent" points="389.27,-1682.5 290.27,-1682.5 290.27,-1603.5 389.27,-1603.5 389.27,-1682.5"/>
<text text-anchor="start" x="316.77" y="-1670" font-family="Helvetica,sans-Serif" font-size="10.00">IModType</text>
<text text-anchor="start" x="294.77" y="-1655" font-family="Helvetica,sans-Serif" font-size="10.00">+</text>
<text text-anchor="start" x="307.77" y="-1655" font-family="Helvetica,sans-Serif" font-size="10.00">Mod Mod</text>
<text text-anchor="start" x="294.77" y="-1640" font-family="Helvetica,sans-Serif" font-size="10.00">+</text>
<text text-anchor="start" x="307.77" y="-1640" font-family="Helvetica,sans-Serif" font-size="10.00">string Name</text>
<text text-anchor="start" x="294.77" y="-1625" font-family="Helvetica,sans-Serif" font-size="10.00">+</text>
<text text-anchor="start" x="307.77" y="-1625" font-family="Helvetica,sans-Serif" font-size="10.00">string FullName</text>
<text text-anchor="start" x="338.27" y="-1610" font-family="Helvetica,sans-Serif" font-size="10.00"> </text>
<polygon fill="#666666" stroke="#666666" points="290.77,-1665 290.77,-1665 389.77,-1665 389.77,-1665 290.77,-1665"/>
<polygon fill="#666666" stroke="#666666" points="290.77,-1620 290.77,-1620 305.77,-1620 305.77,-1620 290.77,-1620"/>
<polygon fill="#666666" stroke="#666666" points="305.77,-1620 305.77,-1620 389.77,-1620 389.77,-1620 305.77,-1620"/>
<polygon fill="none" stroke="#666666" points="290.27,-1603.5 290.27,-1682.5 389.27,-1682.5 389.27,-1603.5 290.27,-1603.5"/>
</a>
</g>
</g>
<!-- Node5&#45;&gt;Node3 -->
<g id="edge17_Node000003_Node000005" class="edge">
<title>Node5&#45;&gt;Node3</title>
<g id="a_edge17_Node000003_Node000005"><a xlink:title=" ">
<path fill="none" stroke="#63b8ff" d="M279.88,-1632.56C208.03,-1619.87 94.04,-1594.92 68.77,-1561 -45.45,-1407.65 4.86,-1183.42 65.63,-1024.81"/>
<polygon fill="none" stroke="#63b8ff" points="279.71,-1636.08 290.16,-1634.34 280.91,-1629.19 279.71,-1636.08"/>
</a>
</g>
</g>
<!-- Node5&#45;&gt;Node4 -->
<g id="edge4_Node000004_Node000005" class="edge">
<title>Node5&#45;&gt;Node4</title>
<g id="a_edge4_Node000004_Node000005"><a xlink:title=" ">
<path fill="none" stroke="#63b8ff" d="M339.77,-1593.17C339.77,-1583.37 339.77,-1572.53 339.77,-1561.03"/>
<polygon fill="none" stroke="#63b8ff" points="336.27,-1593.36 339.77,-1603.36 343.27,-1593.36 336.27,-1593.36"/>
</a>
</g>
</g>
<!-- Node7 -->
<g id="Node000007" class="node">
<title>Node7</title>
<g id="a_Node000007"><a xlink:href="../../db/d77/classTerraria_1_1ModLoader_1_1ModType.html" target="_top" xlink:title=" ">
<polygon fill="white" stroke="transparent" points="561.77,-497 385.77,-497 385.77,-97 561.77,-97 561.77,-497"/>
<text text-anchor="start" x="423.27" y="-485" font-family="Helvetica,sans-Serif" font-size="10.00">ModType&lt; TEntity &gt;</text>
<text text-anchor="start" x="389.77" y="-470" font-family="Helvetica,sans-Serif" font-size="10.00">+</text>
<text text-anchor="start" x="402.77" y="-470" font-family="Helvetica,sans-Serif" font-size="10.00">Mod Mod</text>
<text text-anchor="start" x="389.77" y="-455" font-family="Helvetica,sans-Serif" font-size="10.00">+</text>
<text text-anchor="start" x="402.77" y="-455" font-family="Helvetica,sans-Serif" font-size="10.00">virtual string Name</text>
<text text-anchor="start" x="389.77" y="-440" font-family="Helvetica,sans-Serif" font-size="10.00">+</text>
<text text-anchor="start" x="402.77" y="-440" font-family="Helvetica,sans-Serif" font-size="10.00">string FullName</text>
<text text-anchor="start" x="389.77" y="-425" font-family="Helvetica,sans-Serif" font-size="10.00">+</text>
<text text-anchor="start" x="402.77" y="-425" font-family="Helvetica,sans-Serif" font-size="10.00">TEntity Entity</text>
<text text-anchor="start" x="389.77" y="-410" font-family="Helvetica,sans-Serif" font-size="10.00">+</text>
<text text-anchor="start" x="402.77" y="-410" font-family="Helvetica,sans-Serif" font-size="10.00">virtual bool IsCloneable</text>
<text text-anchor="start" x="389.77" y="-395" font-family="Helvetica,sans-Serif" font-size="10.00">+</text>
<text text-anchor="start" x="402.77" y="-395" font-family="Helvetica,sans-Serif" font-size="10.00">virtual bool CloneNewInstances</text>
<text text-anchor="start" x="392.27" y="-380" font-family="Helvetica,sans-Serif" font-size="10.00">&#45;</text>
<text text-anchor="start" x="402.77" y="-380" font-family="Helvetica,sans-Serif" font-size="10.00">bool? _isCloneable</text>
<text text-anchor="start" x="389.77" y="-365" font-family="Helvetica,sans-Serif" font-size="10.00">+</text>
<text text-anchor="start" x="402.77" y="-365" font-family="Helvetica,sans-Serif" font-size="10.00">virtual void Load()</text>
<text text-anchor="start" x="389.77" y="-350" font-family="Helvetica,sans-Serif" font-size="10.00">+</text>
<text text-anchor="start" x="402.77" y="-350" font-family="Helvetica,sans-Serif" font-size="10.00">virtual bool IsLoadingEnabled</text>
<text text-anchor="start" x="402.77" y="-339" font-family="Helvetica,sans-Serif" font-size="10.00">(Mod mod)</text>
<text text-anchor="start" x="389.77" y="-324" font-family="Helvetica,sans-Serif" font-size="10.00">+</text>
<text text-anchor="start" x="402.77" y="-324" font-family="Helvetica,sans-Serif" font-size="10.00">virtual void SetupContent()</text>
<text text-anchor="start" x="389.77" y="-309" font-family="Helvetica,sans-Serif" font-size="10.00">+</text>
<text text-anchor="start" x="402.77" y="-309" font-family="Helvetica,sans-Serif" font-size="10.00">virtual void SetStaticDefaults()</text>
<text text-anchor="start" x="389.77" y="-294" font-family="Helvetica,sans-Serif" font-size="10.00">+</text>
<text text-anchor="start" x="402.77" y="-294" font-family="Helvetica,sans-Serif" font-size="10.00">virtual void Unload()</text>
<text text-anchor="start" x="389.77" y="-279" font-family="Helvetica,sans-Serif" font-size="10.00">+</text>
<text text-anchor="start" x="402.77" y="-279" font-family="Helvetica,sans-Serif" font-size="10.00">string PrettyPrintName()</text>
<text text-anchor="start" x="389.77" y="-264" font-family="Helvetica,sans-Serif" font-size="10.00">+</text>
<text text-anchor="start" x="402.77" y="-264" font-family="Helvetica,sans-Serif" font-size="10.00">virtual TModType Clone</text>
<text text-anchor="start" x="402.77" y="-253" font-family="Helvetica,sans-Serif" font-size="10.00">(TEntity newEntity)</text>
<text text-anchor="start" x="389.77" y="-238" font-family="Helvetica,sans-Serif" font-size="10.00">+</text>
<text text-anchor="start" x="402.77" y="-238" font-family="Helvetica,sans-Serif" font-size="10.00">virtual TModType NewInstance</text>
<text text-anchor="start" x="402.77" y="-227" font-family="Helvetica,sans-Serif" font-size="10.00">(TEntity entity)</text>
<text text-anchor="start" x="389.77" y="-212" font-family="Helvetica,sans-Serif" font-size="10.00">#</text>
<text text-anchor="start" x="402.77" y="-212" font-family="Helvetica,sans-Serif" font-size="10.00">void Register()</text>
<text text-anchor="start" x="389.77" y="-197" font-family="Helvetica,sans-Serif" font-size="10.00">#</text>
<text text-anchor="start" x="402.77" y="-197" font-family="Helvetica,sans-Serif" font-size="10.00">virtual void InitTemplate</text>
<text text-anchor="start" x="402.77" y="-186" font-family="Helvetica,sans-Serif" font-size="10.00">Instance()</text>
<text text-anchor="start" x="389.77" y="-171" font-family="Helvetica,sans-Serif" font-size="10.00">#</text>
<text text-anchor="start" x="402.77" y="-171" font-family="Helvetica,sans-Serif" font-size="10.00">override void InitTemplate</text>
<text text-anchor="start" x="402.77" y="-160" font-family="Helvetica,sans-Serif" font-size="10.00">Instance()</text>
<text text-anchor="start" x="389.77" y="-145" font-family="Helvetica,sans-Serif" font-size="10.00">#</text>
<text text-anchor="start" x="402.77" y="-145" font-family="Helvetica,sans-Serif" font-size="10.00">virtual void ValidateType()</text>
<text text-anchor="start" x="389.77" y="-130" font-family="Helvetica,sans-Serif" font-size="10.00">#</text>
<text text-anchor="start" x="402.77" y="-130" font-family="Helvetica,sans-Serif" font-size="10.00">TEntity CreateTemplateEntity()</text>
<text text-anchor="start" x="392.27" y="-115" font-family="Helvetica,sans-Serif" font-size="10.00">&#45;</text>
<text text-anchor="start" x="402.77" y="-115" font-family="Helvetica,sans-Serif" font-size="10.00">void ILoadable. Load</text>
<text text-anchor="start" x="402.77" y="-104" font-family="Helvetica,sans-Serif" font-size="10.00">(Mod mod)</text>
<polygon fill="#666666" stroke="#666666" points="385.77,-480 385.77,-480 561.77,-480 561.77,-480 385.77,-480"/>
<polygon fill="#666666" stroke="#666666" points="385.77,-375 385.77,-375 400.77,-375 400.77,-375 385.77,-375"/>
<polygon fill="#666666" stroke="#666666" points="400.77,-375 400.77,-375 561.77,-375 561.77,-375 400.77,-375"/>
<polygon fill="none" stroke="#666666" points="385.77,-97 385.77,-497 561.77,-497 561.77,-97 385.77,-97"/>
</a>
</g>
</g>
<!-- Node5&#45;&gt;Node7 -->
<g id="edge8_Node000007_Node000005" class="edge">
<title>Node5&#45;&gt;Node7</title>
<g id="a_edge8_Node000007_Node000005"><a xlink:title=" ">
<path fill="none" stroke="#63b8ff" d="M398.85,-1624.5C429.61,-1612.07 464.52,-1591.97 482.77,-1561 582.15,-1392.35 525.52,-1319.37 537.77,-1124 553.9,-866.73 570.49,-799.69 537.77,-544 535.81,-528.68 533.19,-512.95 530.13,-497.21"/>
<polygon fill="none" stroke="#63b8ff" points="397.53,-1621.26 389.46,-1628.12 400.05,-1627.79 397.53,-1621.26"/>
</a>
</g>
</g>
<!-- Node5&#45;&gt;Node8 -->
<g id="edge11_Node000008_Node000005" class="edge">
<title>Node5&#45;&gt;Node8</title>
<g id="a_edge11_Node000008_Node000005"><a xlink:title=" ">
<path fill="none" stroke="#63b8ff" d="M398.4,-1615.6C420.22,-1602.52 442.61,-1584.43 454.77,-1561 500.16,-1473.51 484.88,-1222.01 466.1,-1039.52"/>
<polygon fill="none" stroke="#63b8ff" points="396.38,-1612.72 389.44,-1620.72 399.86,-1618.79 396.38,-1612.72"/>
</a>
</g>
</g>
<!-- Node9 -->
<g id="Node000009" class="node">
<title>Node9</title>
<g id="a_Node000009"><a xlink:href="../../d1/d6f/interfaceTerraria_1_1ModLoader_1_1ILocalizedModType.html" target="_top" xlink:title=" ">
<polygon fill="white" stroke="transparent" points="233.27,-1385.5 78.27,-1385.5 78.27,-1336.5 233.27,-1336.5 233.27,-1385.5"/>
<text text-anchor="start" x="109.77" y="-1373" font-family="Helvetica,sans-Serif" font-size="10.00">ILocalizedModType</text>
<text text-anchor="start" x="82.77" y="-1358" font-family="Helvetica,sans-Serif" font-size="10.00">+</text>
<text text-anchor="start" x="95.77" y="-1358" font-family="Helvetica,sans-Serif" font-size="10.00">string LocalizationCategory</text>
<text text-anchor="start" x="154.27" y="-1343" font-family="Helvetica,sans-Serif" font-size="10.00"> </text>
<polygon fill="#666666" stroke="#666666" points="78.77,-1368 78.77,-1368 233.77,-1368 233.77,-1368 78.77,-1368"/>
<polygon fill="#666666" stroke="#666666" points="78.77,-1353 78.77,-1353 93.77,-1353 93.77,-1353 78.77,-1353"/>
<polygon fill="#666666" stroke="#666666" points="93.77,-1353 93.77,-1353 233.77,-1353 233.77,-1353 93.77,-1353"/>
<polygon fill="none" stroke="#666666" points="78.27,-1336.5 78.27,-1385.5 233.27,-1385.5 233.27,-1336.5 78.27,-1336.5"/>
</a>
</g>
</g>
<!-- Node5&#45;&gt;Node9 -->
<g id="edge16_Node000009_Node000005" class="edge">
<title>Node5&#45;&gt;Node9</title>
<g id="a_edge16_Node000009_Node000005"><a xlink:title=" ">
<path fill="none" stroke="#63b8ff" d="M282.2,-1601.38C268.06,-1589.52 253.82,-1575.73 242.77,-1561 200.57,-1504.75 173.68,-1424.84 162.19,-1385.6"/>
<polygon fill="none" stroke="#63b8ff" points="280.07,-1604.16 290.03,-1607.78 284.5,-1598.74 280.07,-1604.16"/>
</a>
</g>
</g>
<!-- Node6 -->
<g id="Node000006" class="node">
<title>Node6</title>
<g id="a_Node000006"><a xlink:href="../../d3/df6/interfaceTerraria_1_1ModLoader_1_1ILoadable.html" target="_top" xlink:title="Allows for implementing types to be loaded and unloaded.">
<polygon fill="white" stroke="transparent" points="615.27,-1688 484.27,-1688 484.27,-1598 615.27,-1598 615.27,-1688"/>
<text text-anchor="start" x="526.27" y="-1676" font-family="Helvetica,sans-Serif" font-size="10.00">ILoadable</text>
<text text-anchor="start" x="548.27" y="-1661" font-family="Helvetica,sans-Serif" font-size="10.00"> </text>
<text text-anchor="start" x="488.77" y="-1646" font-family="Helvetica,sans-Serif" font-size="10.00">+</text>
<text text-anchor="start" x="501.77" y="-1646" font-family="Helvetica,sans-Serif" font-size="10.00">void Load(Mod mod)</text>
<text text-anchor="start" x="488.77" y="-1631" font-family="Helvetica,sans-Serif" font-size="10.00">+</text>
<text text-anchor="start" x="501.77" y="-1631" font-family="Helvetica,sans-Serif" font-size="10.00">bool IsLoadingEnabled</text>
<text text-anchor="start" x="501.77" y="-1620" font-family="Helvetica,sans-Serif" font-size="10.00">(Mod mod)</text>
<text text-anchor="start" x="488.77" y="-1605" font-family="Helvetica,sans-Serif" font-size="10.00">+</text>
<text text-anchor="start" x="501.77" y="-1605" font-family="Helvetica,sans-Serif" font-size="10.00">void Unload()</text>
<polygon fill="#666666" stroke="#666666" points="484.77,-1671 484.77,-1671 615.77,-1671 615.77,-1671 484.77,-1671"/>
<polygon fill="#666666" stroke="#666666" points="484.77,-1656 484.77,-1656 615.77,-1656 615.77,-1656 484.77,-1656"/>
<polygon fill="none" stroke="#666666" points="484.27,-1598 484.27,-1688 615.27,-1688 615.27,-1598 484.27,-1598"/>
</a>
</g>
</g>
<!-- Node6&#45;&gt;Node4 -->
<g id="edge5_Node000004_Node000006" class="edge">
<title>Node6&#45;&gt;Node4</title>
<g id="a_edge5_Node000004_Node000006"><a xlink:title=" ">
<path fill="none" stroke="#63b8ff" d="M510.66,-1589.85C487.33,-1558.75 456.74,-1517.96 427.89,-1479.49"/>
<polygon fill="none" stroke="#63b8ff" points="507.93,-1592.04 516.73,-1597.94 513.53,-1587.84 507.93,-1592.04"/>
</a>
</g>
</g>
<!-- Node6&#45;&gt;Node7 -->
<g id="edge9_Node000007_Node000006" class="edge">
<title>Node6&#45;&gt;Node7</title>
<g id="a_edge9_Node000007_Node000006"><a xlink:title=" ">
<path fill="none" stroke="#63b8ff" d="M559.43,-1587.47C586.71,-1423.13 656.97,-919.05 570.77,-515 568.36,-503.7 565.32,-492.28 561.81,-480.89"/>
<polygon fill="none" stroke="#63b8ff" points="555.9,-1587.36 557.7,-1597.8 562.8,-1588.52 555.9,-1587.36"/>
</a>
</g>
</g>
<!-- Node6&#45;&gt;Node8 -->
<g id="edge12_Node000008_Node000006" class="edge">
<title>Node6&#45;&gt;Node8</title>
<g id="a_edge12_Node000008_Node000006"><a xlink:title=" ">
<path fill="none" stroke="#63b8ff" d="M543.74,-1587.62C533.42,-1495.69 511.28,-1303.8 488.77,-1142 484.16,-1108.87 478.97,-1073.78 473.75,-1039.63"/>
<polygon fill="none" stroke="#63b8ff" points="540.29,-1588.24 544.88,-1597.79 547.25,-1587.46 540.29,-1588.24"/>
</a>
</g>
</g>
<!-- Node7&#45;&gt;Node4 -->
<g id="edge7_Node000004_Node000007" class="edge">
<title>Node7&#45;&gt;Node4</title>
<g id="a_edge7_Node000004_Node000007"><a xlink:title=" ">
<path fill="none" stroke="#63b8ff" d="M381.13,-445.92C365.73,-477.22 352.08,-510.84 343.77,-544 292.25,-749.61 299.59,-993.63 314.58,-1160.92"/>
<polygon fill="none" stroke="#63b8ff" points="384.39,-447.23 385.74,-436.72 378.13,-444.1 384.39,-447.23"/>
</a>
</g>
</g>
<!-- Node7&#45;&gt;Node8 -->
<g id="edge14_Node000008_Node000007" class="edge">
<title>Node7&#45;&gt;Node8</title>
<g id="a_edge14_Node000008_Node000007"><a xlink:title=" ">
<path fill="none" stroke="#63b8ff" d="M457.27,-507.28C457.1,-509.87 456.93,-512.44 456.77,-515 454.42,-551.55 452.21,-590.47 450.24,-628.1"/>
<polygon fill="none" stroke="#63b8ff" points="460.77,-507.44 457.95,-497.23 453.79,-506.98 460.77,-507.44"/>
</a>
</g>
</g>
<!-- Node8&#45;&gt;Node7 -->
<g id="edge10_Node000007_Node000008" class="edge">
<title>Node8&#45;&gt;Node7</title>
<g id="a_edge10_Node000007_Node000008"><a xlink:title=" ">
<path fill="none" stroke="orange" d="M454.01,-618.32C456.48,-578.31 459.05,-536.66 461.49,-497.14"/>
<polygon fill="orange" stroke="orange" points="450.51,-618.25 453.39,-628.45 457.5,-618.68 450.51,-618.25"/>
</a>
</g>
<text text-anchor="middle" x="491.27" y="-518" font-family="Helvetica,sans-Serif" font-size="10.00" fill="grey"> &lt; TEntity &gt;</text>
</g>
<!-- Node9&#45;&gt;Node3 -->
<g id="edge15_Node000003_Node000009" class="edge">
<title>Node9&#45;&gt;Node3</title>
<g id="a_edge15_Node000003_Node000009"><a xlink:title=" ">
<path fill="none" stroke="#63b8ff" d="M155.77,-1326.34C155.77,-1283.63 155.77,-1205.65 155.77,-1124.21"/>
<polygon fill="none" stroke="#63b8ff" points="152.27,-1326.42 155.77,-1336.42 159.27,-1326.42 152.27,-1326.42"/>
</a>
</g>
</g>
</g>
</svg>

<g id="navigator" transform="translate(0 0)" fill="#404254">
  <rect fill="#f2f5e9" fill-opacity="0.5" stroke="#606060" stroke-width=".5" x="0" y="0" width="60" height="60"/>
  <use id="zoomplus" xlink:href="#zoomPlus" x="17" y="9" onmousedown="handleZoom(evt,'in')"/>
  <use id="zoomminus" xlink:href="#zoomMin" x="42" y="9" onmousedown="handleZoom(evt,'out')"/>
  <use id="reset" xlink:href="#resetDef" x="30" y="36" onmousedown="handleReset()"/>
   <use id="arrowup" xlink:href="#arrowUp" x="0" y="0" onmousedown="handlePan(0,-1)"/>
  <use id="arrowright" xlink:href="#arrowRight" x="0" y="0" onmousedown="handlePan(1,0)"/>
  <use id="arrowdown" xlink:href="#arrowDown" x="0" y="0" onmousedown="handlePan(0,1)"/>
  <use id="arrowleft" xlink:href="#arrowLeft" x="0" y="0" onmousedown="handlePan(-1,0)"/>
</g>
<svg viewBox="0 0 15 15" width="100%" height="30px" preserveAspectRatio="xMaxYMin meet">
 <g id="arrow_out" transform="scale(0.3 0.3)">
  <a xlink:href="classTerraria_1_1ModLoader_1_1MagicDamageClass__inherit__graph_org.svg" target="_base">
   <rect id="button" ry="5" rx="5" y="6" x="6" height="38" width="38"
        fill="#f2f5e9" fill-opacity="0.5" stroke="#606060" stroke-width="1.0"/>
   <path id="arrow"
     d="M 11.500037,31.436501 C 11.940474,20.09759 22.043105,11.32322 32.158766,21.979434 L 37.068811,17.246167 C 37.068811,17.246167 37.088388,32 37.088388,32 L 22.160133,31.978069 C 22.160133,31.978069 26.997745,27.140456 26.997745,27.140456 C 18.528582,18.264221 13.291696,25.230495 11.500037,31.436501 z"
     style="fill:#404040;"/>
  </a>
 </g>
</svg>

<style type='text/css'>
<![CDATA[
[data-mouse-over-selected='false'] { opacity: 0.7; }
[data-mouse-over-selected='true']  { opacity: 1.0; }
]]>
</style>
<script type="application/ecmascript"><![CDATA[
document.addEventListener('DOMContentLoaded', (event) => {
  highlightEdges();
  highlightAdjacentNodes();
});
]]></script>
</svg>
