<?xml version="1.0" encoding="UTF-8" standalone="no"?>
<!DOCTYPE svg PUBLIC "-//W3C//DTD SVG 1.1//EN"
 "http://www.w3.org/Graphics/SVG/1.1/DTD/svg11.dtd">
<!-- Generated by graphviz version 2.43.0 (0)
 -->
<!-- Title: Terraria.Main.SetMouseNPC Pages: 1 -->
<svg width="1800pt" height="116pt"
 viewBox="0.00 0.00 1800.00 116.31" xmlns="http://www.w3.org/2000/svg" xmlns:xlink="http://www.w3.org/1999/xlink">
<g id="graph0" class="graph" transform="scale(1 1) rotate(0) translate(4 112.31)">
<title>Terraria.Main.SetMouseNPC</title>
<!-- Node1 -->
<g id="Node000001" class="node">
<title>Node1</title>
<g id="a_Node000001"><a xlink:title=" ">
<polygon fill="#999999" stroke="#666666" points="1792,-61.56 1640,-61.56 1640,-42.56 1792,-42.56 1792,-61.56"/>
<text text-anchor="middle" x="1716" y="-49.56" font-family="Helvetica,sans-Serif" font-size="10.00">Terraria.Main.SetMouseNPC</text>
</a>
</g>
</g>
<!-- Node2 -->
<g id="Node000002" class="node">
<title>Node2</title>
<g id="a_Node000002"><a xlink:href="../../da/dd5/classTerraria_1_1Main_a6ec2a6dd6eea7cf9082122035842a01b.html#a6ec2a6dd6eea7cf9082122035842a01b" target="_top" xlink:title=" ">
<polygon fill="white" stroke="#666666" points="1004,-89.06 852,-89.06 852,-59.06 1004,-59.06 1004,-89.06"/>
<text text-anchor="start" x="860" y="-77.06" font-family="Helvetica,sans-Serif" font-size="10.00">Terraria.Main.DrawInterface</text>
<text text-anchor="middle" x="928" y="-66.06" font-family="Helvetica,sans-Serif" font-size="10.00">_27_Inventory</text>
</a>
</g>
</g>
<!-- Node1&#45;&gt;Node2 -->
<g id="edge1_Node000001_Node000002" class="edge">
<title>Node1&#45;&gt;Node2</title>
<g id="a_edge1_Node000001_Node000002"><a xlink:title=" ">
<path fill="none" stroke="#63b8ff" d="M1668.51,-64.02C1648.74,-68.72 1625.36,-73.76 1604,-77.06 1356.17,-115.33 1289.87,-114.29 1040,-93.06 1028.31,-92.07 1016,-90.5 1004.01,-88.67"/>
<polygon fill="#63b8ff" stroke="#63b8ff" points="1669.6,-67.36 1678.49,-61.6 1667.95,-60.55 1669.6,-67.36"/>
</a>
</g>
</g>
<!-- Node8 -->
<g id="Node000008" class="node">
<title>Node8</title>
<g id="a_Node000008"><a xlink:href="../../da/dd5/classTerraria_1_1Main_a526c8ddc030bbc0565fc455d4629907a.html#a526c8ddc030bbc0565fc455d4629907a" target="_top" xlink:title=" ">
<polygon fill="white" stroke="#666666" points="1399.5,-46.06 1247.5,-46.06 1247.5,-16.06 1399.5,-16.06 1399.5,-46.06"/>
<text text-anchor="start" x="1255.5" y="-34.06" font-family="Helvetica,sans-Serif" font-size="10.00">Terraria.Main.DrawInterface</text>
<text text-anchor="middle" x="1323.5" y="-23.06" font-family="Helvetica,sans-Serif" font-size="10.00">_38_MouseCarriedObject</text>
</a>
</g>
</g>
<!-- Node1&#45;&gt;Node8 -->
<g id="edge7_Node000001_Node000008" class="edge">
<title>Node1&#45;&gt;Node8</title>
<g id="a_edge7_Node000001_Node000008"><a xlink:title=" ">
<path fill="none" stroke="#63b8ff" d="M1688.57,-37.96C1666.62,-27.09 1634.22,-12.95 1604,-7.06 1529.91,7.39 1443.07,-4.46 1386.09,-16.05"/>
<polygon fill="#63b8ff" stroke="#63b8ff" points="1687.08,-41.13 1697.58,-42.53 1690.25,-34.88 1687.08,-41.13"/>
</a>
</g>
</g>
<!-- Node9 -->
<g id="Node000009" class="node">
<title>Node9</title>
<g id="a_Node000009"><a xlink:href="../../da/dd5/classTerraria_1_1Main_aa1eec8369ef7ed57693e685150ac22d0.html#aa1eec8369ef7ed57693e685150ac22d0" target="_top" xlink:title=" ">
<polygon fill="white" stroke="#666666" points="1416,-83.56 1231,-83.56 1231,-64.56 1416,-64.56 1416,-83.56"/>
<text text-anchor="middle" x="1323.5" y="-71.56" font-family="Helvetica,sans-Serif" font-size="10.00">Terraria.Main.DrawNPCHousesInUI</text>
</a>
</g>
</g>
<!-- Node1&#45;&gt;Node9 -->
<g id="edge9_Node000001_Node000009" class="edge">
<title>Node1&#45;&gt;Node9</title>
<g id="a_edge9_Node000001_Node000009"><a xlink:title=" ">
<path fill="none" stroke="#63b8ff" d="M1629.38,-56.88C1566.27,-60.44 1480.53,-65.27 1416.05,-68.9"/>
<polygon fill="#63b8ff" stroke="#63b8ff" points="1629.92,-60.36 1639.71,-56.3 1629.53,-53.37 1629.92,-60.36"/>
</a>
</g>
</g>
<!-- Node11 -->
<g id="Node000011" class="node">
<title>Node11</title>
<g id="a_Node000011"><a xlink:href="../../da/dd5/classTerraria_1_1Main_a2c706ee438996c26e358de5eb5c3d23c.html#a2c706ee438996c26e358de5eb5c3d23c" target="_top" xlink:title=" ">
<polygon fill="white" stroke="#666666" points="1604,-46.06 1452,-46.06 1452,-16.06 1604,-16.06 1604,-46.06"/>
<text text-anchor="start" x="1460" y="-34.06" font-family="Helvetica,sans-Serif" font-size="10.00">Terraria.Main.SetMouseNPC</text>
<text text-anchor="middle" x="1528" y="-23.06" font-family="Helvetica,sans-Serif" font-size="10.00">_ToHousingQuery</text>
</a>
</g>
</g>
<!-- Node1&#45;&gt;Node11 -->
<g id="edge12_Node000001_Node000011" class="edge">
<title>Node1&#45;&gt;Node11</title>
<g id="a_edge12_Node000001_Node000011"><a xlink:title=" ">
<path fill="none" stroke="#63b8ff" d="M1629.85,-42.45C1621.26,-41.48 1612.57,-40.5 1604.1,-39.54"/>
<polygon fill="#63b8ff" stroke="#63b8ff" points="1629.55,-45.94 1639.88,-43.58 1630.34,-38.98 1629.55,-45.94"/>
</a>
</g>
</g>
<!-- Node3 -->
<g id="Node000003" class="node">
<title>Node3</title>
<g id="a_Node000003"><a xlink:href="../../da/dd5/classTerraria_1_1Main_a635639e6a6d3795bbfbcf0e24fc3aac5.html#a635639e6a6d3795bbfbcf0e24fc3aac5" target="_top" xlink:title=" ">
<polygon fill="white" stroke="#666666" points="816,-67.06 636,-67.06 636,-37.06 816,-37.06 816,-67.06"/>
<text text-anchor="start" x="644" y="-55.06" font-family="Helvetica,sans-Serif" font-size="10.00">Terraria.Main.SetupDrawInterface</text>
<text text-anchor="middle" x="726" y="-44.06" font-family="Helvetica,sans-Serif" font-size="10.00">Layers</text>
</a>
</g>
</g>
<!-- Node2&#45;&gt;Node3 -->
<g id="edge2_Node000002_Node000003" class="edge">
<title>Node2&#45;&gt;Node3</title>
<g id="a_edge2_Node000002_Node000003"><a xlink:title=" ">
<path fill="none" stroke="#63b8ff" d="M841.76,-64.68C833.33,-63.76 824.76,-62.81 816.28,-61.88"/>
<polygon fill="#63b8ff" stroke="#63b8ff" points="841.64,-68.19 851.96,-65.81 842.4,-61.23 841.64,-68.19"/>
</a>
</g>
</g>
<!-- Node4 -->
<g id="Node000004" class="node">
<title>Node4</title>
<g id="a_Node000004"><a xlink:href="../../da/dd5/classTerraria_1_1Main_a36d139a1fd2647d53f25a241f3d5d5f4.html#a36d139a1fd2647d53f25a241f3d5d5f4" target="_top" xlink:title=" ">
<polygon fill="white" stroke="#666666" points="600,-61.56 448,-61.56 448,-42.56 600,-42.56 600,-61.56"/>
<text text-anchor="middle" x="524" y="-49.56" font-family="Helvetica,sans-Serif" font-size="10.00">Terraria.Main.DrawInterface</text>
</a>
</g>
</g>
<!-- Node3&#45;&gt;Node4 -->
<g id="edge3_Node000003_Node000004" class="edge">
<title>Node3&#45;&gt;Node4</title>
<g id="a_edge3_Node000003_Node000004"><a xlink:title=" ">
<path fill="none" stroke="#63b8ff" d="M625.77,-52.06C617.19,-52.06 608.6,-52.06 600.26,-52.06"/>
<polygon fill="#63b8ff" stroke="#63b8ff" points="625.82,-55.56 635.82,-52.06 625.82,-48.56 625.82,-55.56"/>
</a>
</g>
</g>
<!-- Node5 -->
<g id="Node000005" class="node">
<title>Node5</title>
<g id="a_Node000005"><a xlink:href="../../da/dd5/classTerraria_1_1Main_a474beeecaea4d6dd108fba56cd554d46.html#a474beeecaea4d6dd108fba56cd554d46" target="_top" xlink:title=" ">
<polygon fill="white" stroke="#666666" points="412,-61.56 290,-61.56 290,-42.56 412,-42.56 412,-61.56"/>
<text text-anchor="middle" x="351" y="-49.56" font-family="Helvetica,sans-Serif" font-size="10.00">Terraria.Main.DoDraw</text>
</a>
</g>
</g>
<!-- Node4&#45;&gt;Node5 -->
<g id="edge4_Node000004_Node000005" class="edge">
<title>Node4&#45;&gt;Node5</title>
<g id="a_edge4_Node000004_Node000005"><a xlink:title=" ">
<path fill="none" stroke="#63b8ff" d="M437.81,-52.06C429.1,-52.06 420.4,-52.06 412.05,-52.06"/>
<polygon fill="#63b8ff" stroke="#63b8ff" points="438,-55.56 448,-52.06 438,-48.56 438,-55.56"/>
</a>
</g>
</g>
<!-- Node6 -->
<g id="Node000006" class="node">
<title>Node6</title>
<g id="a_Node000006"><a xlink:href="../../da/dd5/classTerraria_1_1Main_aa597dbafa085227bb056d05d0b0f9abe.html#aa597dbafa085227bb056d05d0b0f9abe" target="_top" xlink:title=" ">
<polygon fill="white" stroke="#666666" points="254,-67.06 145,-67.06 145,-37.06 254,-37.06 254,-67.06"/>
<text text-anchor="start" x="153" y="-55.06" font-family="Helvetica,sans-Serif" font-size="10.00">Terraria.Main.Draw</text>
<text text-anchor="middle" x="199.5" y="-44.06" font-family="Helvetica,sans-Serif" font-size="10.00">_Inner</text>
</a>
</g>
</g>
<!-- Node5&#45;&gt;Node6 -->
<g id="edge5_Node000005_Node000006" class="edge">
<title>Node5&#45;&gt;Node6</title>
<g id="a_edge5_Node000005_Node000006"><a xlink:title=" ">
<path fill="none" stroke="#63b8ff" d="M279.41,-52.06C270.99,-52.06 262.49,-52.06 254.35,-52.06"/>
<polygon fill="#63b8ff" stroke="#63b8ff" points="279.62,-55.56 289.62,-52.06 279.62,-48.56 279.62,-55.56"/>
</a>
</g>
</g>
<!-- Node7 -->
<g id="Node000007" class="node">
<title>Node7</title>
<g id="a_Node000007"><a xlink:href="../../da/dd5/classTerraria_1_1Main_a516aa31311860bad4242ade32e5effcd.html#a516aa31311860bad4242ade32e5effcd" target="_top" xlink:title=" ">
<polygon fill="white" stroke="#666666" points="109,-61.56 0,-61.56 0,-42.56 109,-42.56 109,-61.56"/>
<text text-anchor="middle" x="54.5" y="-49.56" font-family="Helvetica,sans-Serif" font-size="10.00">Terraria.Main.Draw</text>
</a>
</g>
</g>
<!-- Node6&#45;&gt;Node7 -->
<g id="edge6_Node000006_Node000007" class="edge">
<title>Node6&#45;&gt;Node7</title>
<g id="a_edge6_Node000006_Node000007"><a xlink:title=" ">
<path fill="none" stroke="#63b8ff" d="M134.68,-52.06C126.25,-52.06 117.69,-52.06 109.46,-52.06"/>
<polygon fill="#63b8ff" stroke="#63b8ff" points="134.85,-55.56 144.85,-52.06 134.85,-48.56 134.85,-55.56"/>
</a>
</g>
</g>
<!-- Node8&#45;&gt;Node3 -->
<g id="edge8_Node000008_Node000003" class="edge">
<title>Node8&#45;&gt;Node3</title>
<g id="a_edge8_Node000008_Node000003"><a xlink:title=" ">
<path fill="none" stroke="#63b8ff" d="M1237.15,-34.07C1125.28,-38.02 929.95,-44.9 816.2,-48.92"/>
<polygon fill="#63b8ff" stroke="#63b8ff" points="1237.51,-37.56 1247.38,-33.71 1237.26,-30.56 1237.51,-37.56"/>
</a>
</g>
</g>
<!-- Node10 -->
<g id="Node000010" class="node">
<title>Node10</title>
<g id="a_Node000010"><a xlink:href="../../da/dd5/classTerraria_1_1Main_a3d98f18e1b3a22533d5282611b6d8dfe.html#a3d98f18e1b3a22533d5282611b6d8dfe" target="_top" xlink:title=" ">
<polygon fill="white" stroke="#666666" points="1195,-83.56 1040,-83.56 1040,-64.56 1195,-64.56 1195,-83.56"/>
<text text-anchor="middle" x="1117.5" y="-71.56" font-family="Helvetica,sans-Serif" font-size="10.00">Terraria.Main.DrawInventory</text>
</a>
</g>
</g>
<!-- Node9&#45;&gt;Node10 -->
<g id="edge10_Node000009_Node000010" class="edge">
<title>Node9&#45;&gt;Node10</title>
<g id="a_edge10_Node000009_Node000010"><a xlink:title=" ">
<path fill="none" stroke="#63b8ff" d="M1220.81,-74.06C1212.17,-74.06 1203.52,-74.06 1195.12,-74.06"/>
<polygon fill="#63b8ff" stroke="#63b8ff" points="1220.94,-77.56 1230.94,-74.06 1220.94,-70.56 1220.94,-77.56"/>
</a>
</g>
</g>
<!-- Node10&#45;&gt;Node2 -->
<g id="edge11_Node000010_Node000002" class="edge">
<title>Node10&#45;&gt;Node2</title>
<g id="a_edge11_Node000010_Node000002"><a xlink:title=" ">
<path fill="none" stroke="#63b8ff" d="M1029.9,-74.06C1021.27,-74.06 1012.57,-74.06 1004.08,-74.06"/>
<polygon fill="#63b8ff" stroke="#63b8ff" points="1029.97,-77.56 1039.97,-74.06 1029.97,-70.56 1029.97,-77.56"/>
</a>
</g>
</g>
<!-- Node11&#45;&gt;Node8 -->
<g id="edge13_Node000011_Node000008" class="edge">
<title>Node11&#45;&gt;Node8</title>
<g id="a_edge13_Node000011_Node000008"><a xlink:title=" ">
<path fill="none" stroke="#63b8ff" d="M1441.82,-31.06C1427.88,-31.06 1413.52,-31.06 1399.83,-31.06"/>
<polygon fill="#63b8ff" stroke="#63b8ff" points="1441.88,-34.56 1451.88,-31.06 1441.88,-27.56 1441.88,-34.56"/>
</a>
</g>
</g>
<!-- Node11&#45;&gt;Node9 -->
<g id="edge14_Node000011_Node000009" class="edge">
<title>Node11&#45;&gt;Node9</title>
<g id="a_edge14_Node000011_Node000009"><a xlink:title=" ">
<path fill="none" stroke="#63b8ff" d="M1448.17,-48.19C1437.37,-50.51 1426.41,-52.85 1416,-55.06 1401.4,-58.16 1385.47,-61.48 1371.06,-64.47"/>
<polygon fill="#63b8ff" stroke="#63b8ff" points="1449,-51.59 1458.04,-46.06 1447.52,-44.75 1449,-51.59"/>
</a>
</g>
</g>
</g>
</svg>
