<?xml version="1.0" encoding="UTF-8" standalone="no"?>
<!DOCTYPE svg PUBLIC "-//W3C//DTD SVG 1.1//EN"
 "http://www.w3.org/Graphics/SVG/1.1/DTD/svg11.dtd">
<!-- Generated by graphviz version 2.43.0 (0)
 -->
<!-- Title: Terraria.Main.GetPreferredBGStyleForPlayer Pages: 1 -->
<svg width="2254pt" height="124pt"
 viewBox="0.00 0.00 2254.00 123.50" xmlns="http://www.w3.org/2000/svg" xmlns:xlink="http://www.w3.org/1999/xlink">
<g id="graph0" class="graph" transform="scale(1 1) rotate(0) translate(4 119.5)">
<title>Terraria.Main.GetPreferredBGStyleForPlayer</title>
<!-- Node1 -->
<g id="Node000001" class="node">
<title>Node1</title>
<g id="a_Node000001"><a xlink:title=" ">
<polygon fill="#999999" stroke="#666666" points="2246,-99 2100,-99 2100,-69 2246,-69 2246,-99"/>
<text text-anchor="start" x="2108" y="-87" font-family="Helvetica,sans-Serif" font-size="10.00">Terraria.Main.GetPreferred</text>
<text text-anchor="middle" x="2173" y="-76" font-family="Helvetica,sans-Serif" font-size="10.00">BGStyleForPlayer</text>
</a>
</g>
</g>
<!-- Node2 -->
<g id="Node000002" class="node">
<title>Node2</title>
<g id="a_Node000002"><a xlink:href="../../da/dd5/classTerraria_1_1Main_a7d7ae9ecdde4777c98e2f9a8ad9b5895.html#a7d7ae9ecdde4777c98e2f9a8ad9b5895" target="_top" xlink:title=" ">
<polygon fill="white" stroke="#666666" points="1809.5,-115.5 1686.5,-115.5 1686.5,-96.5 1809.5,-96.5 1809.5,-115.5"/>
<text text-anchor="middle" x="1748" y="-103.5" font-family="Helvetica,sans-Serif" font-size="10.00">Terraria.Main.DrawBG</text>
</a>
</g>
</g>
<!-- Node1&#45;&gt;Node2 -->
<g id="edge1_Node000001_Node000002" class="edge">
<title>Node1&#45;&gt;Node2</title>
<g id="a_edge1_Node000001_Node000002"><a xlink:title=" ">
<path fill="none" stroke="#63b8ff" d="M2089.71,-88.28C2007.54,-92.55 1883.19,-99.02 1809.63,-102.85"/>
<polygon fill="#63b8ff" stroke="#63b8ff" points="2089.96,-91.77 2099.76,-87.76 2089.6,-84.78 2089.96,-91.77"/>
</a>
</g>
</g>
<!-- Node6 -->
<g id="Node000006" class="node">
<title>Node6</title>
<g id="a_Node000006"><a xlink:href="../../dc/d5a/classTerraria_1_1Graphics_1_1Capture_1_1CaptureBiome_a585f6939934ca680f838a10fd6d96f1b.html#a585f6939934ca680f838a10fd6d96f1b" target="_top" xlink:title=" ">
<polygon fill="white" stroke="#666666" points="2064,-78 1872,-78 1872,-48 2064,-48 2064,-78"/>
<text text-anchor="start" x="1880" y="-66" font-family="Helvetica,sans-Serif" font-size="10.00">Terraria.Graphics.Capture.</text>
<text text-anchor="middle" x="1968" y="-55" font-family="Helvetica,sans-Serif" font-size="10.00">CaptureBiome.GetBiomeByLocation</text>
</a>
</g>
</g>
<!-- Node1&#45;&gt;Node6 -->
<g id="edge5_Node000001_Node000006" class="edge">
<title>Node1&#45;&gt;Node6</title>
<g id="a_edge5_Node000001_Node000006"><a xlink:title=" ">
<path fill="none" stroke="#63b8ff" d="M2089.75,-75.49C2081.38,-74.63 2072.83,-73.74 2064.34,-72.86"/>
<polygon fill="#63b8ff" stroke="#63b8ff" points="2089.55,-78.99 2099.86,-76.54 2090.27,-72.03 2089.55,-78.99"/>
</a>
</g>
</g>
<!-- Node3 -->
<g id="Node000003" class="node">
<title>Node3</title>
<g id="a_Node000003"><a xlink:href="../../da/dd5/classTerraria_1_1Main_a474beeecaea4d6dd108fba56cd554d46.html#a474beeecaea4d6dd108fba56cd554d46" target="_top" xlink:title=" ">
<polygon fill="white" stroke="#666666" points="412,-94.5 290,-94.5 290,-75.5 412,-75.5 412,-94.5"/>
<text text-anchor="middle" x="351" y="-82.5" font-family="Helvetica,sans-Serif" font-size="10.00">Terraria.Main.DoDraw</text>
</a>
</g>
</g>
<!-- Node2&#45;&gt;Node3 -->
<g id="edge2_Node000002_Node000003" class="edge">
<title>Node2&#45;&gt;Node3</title>
<g id="a_edge2_Node000002_Node000003"><a xlink:title=" ">
<path fill="none" stroke="#63b8ff" d="M1676.36,-106C1591.51,-106 1444.85,-106 1319,-106 1319,-106 1319,-106 725,-106 614.41,-106 485.68,-96.68 412.02,-90.46"/>
<polygon fill="#63b8ff" stroke="#63b8ff" points="1676.4,-109.5 1686.4,-106 1676.4,-102.5 1676.4,-109.5"/>
</a>
</g>
</g>
<!-- Node4 -->
<g id="Node000004" class="node">
<title>Node4</title>
<g id="a_Node000004"><a xlink:href="../../da/dd5/classTerraria_1_1Main_aa597dbafa085227bb056d05d0b0f9abe.html#aa597dbafa085227bb056d05d0b0f9abe" target="_top" xlink:title=" ">
<polygon fill="white" stroke="#666666" points="254,-100 145,-100 145,-70 254,-70 254,-100"/>
<text text-anchor="start" x="153" y="-88" font-family="Helvetica,sans-Serif" font-size="10.00">Terraria.Main.Draw</text>
<text text-anchor="middle" x="199.5" y="-77" font-family="Helvetica,sans-Serif" font-size="10.00">_Inner</text>
</a>
</g>
</g>
<!-- Node3&#45;&gt;Node4 -->
<g id="edge3_Node000003_Node000004" class="edge">
<title>Node3&#45;&gt;Node4</title>
<g id="a_edge3_Node000003_Node000004"><a xlink:title=" ">
<path fill="none" stroke="#63b8ff" d="M279.41,-85C270.99,-85 262.49,-85 254.35,-85"/>
<polygon fill="#63b8ff" stroke="#63b8ff" points="279.62,-88.5 289.62,-85 279.62,-81.5 279.62,-88.5"/>
</a>
</g>
</g>
<!-- Node5 -->
<g id="Node000005" class="node">
<title>Node5</title>
<g id="a_Node000005"><a xlink:href="../../da/dd5/classTerraria_1_1Main_a516aa31311860bad4242ade32e5effcd.html#a516aa31311860bad4242ade32e5effcd" target="_top" xlink:title=" ">
<polygon fill="white" stroke="#666666" points="109,-94.5 0,-94.5 0,-75.5 109,-75.5 109,-94.5"/>
<text text-anchor="middle" x="54.5" y="-82.5" font-family="Helvetica,sans-Serif" font-size="10.00">Terraria.Main.Draw</text>
</a>
</g>
</g>
<!-- Node4&#45;&gt;Node5 -->
<g id="edge4_Node000004_Node000005" class="edge">
<title>Node4&#45;&gt;Node5</title>
<g id="a_edge4_Node000004_Node000005"><a xlink:title=" ">
<path fill="none" stroke="#63b8ff" d="M134.68,-85C126.25,-85 117.69,-85 109.46,-85"/>
<polygon fill="#63b8ff" stroke="#63b8ff" points="134.85,-88.5 144.85,-85 134.85,-81.5 134.85,-88.5"/>
</a>
</g>
</g>
<!-- Node7 -->
<g id="Node000007" class="node">
<title>Node7</title>
<g id="a_Node000007"><a xlink:href="../../dc/d5a/classTerraria_1_1Graphics_1_1Capture_1_1CaptureBiome_a2c31b667d7fd1338de34eddfb8ccc3cf.html#a2c31b667d7fd1338de34eddfb8ccc3cf" target="_top" xlink:title=" ">
<polygon fill="white" stroke="#666666" points="1836,-78 1660,-78 1660,-48 1836,-48 1836,-78"/>
<text text-anchor="start" x="1668" y="-66" font-family="Helvetica,sans-Serif" font-size="10.00">Terraria.Graphics.Capture.</text>
<text text-anchor="middle" x="1748" y="-55" font-family="Helvetica,sans-Serif" font-size="10.00">CaptureBiome.GetCaptureBiome</text>
</a>
</g>
</g>
<!-- Node6&#45;&gt;Node7 -->
<g id="edge6_Node000006_Node000007" class="edge">
<title>Node6&#45;&gt;Node7</title>
<g id="a_edge6_Node000006_Node000007"><a xlink:title=" ">
<path fill="none" stroke="#63b8ff" d="M1861.42,-63C1852.98,-63 1844.51,-63 1836.21,-63"/>
<polygon fill="#63b8ff" stroke="#63b8ff" points="1861.7,-66.5 1871.7,-63 1861.7,-59.5 1861.7,-66.5"/>
</a>
</g>
</g>
<!-- Node8 -->
<g id="Node000008" class="node">
<title>Node8</title>
<g id="a_Node000008"><a xlink:href="../../d8/dab/classTerraria_1_1Graphics_1_1Capture_1_1CaptureInterface_a7e61228f160ba6172e98f367cf9eb84f.html#a7e61228f160ba6172e98f367cf9eb84f" target="_top" xlink:title=" ">
<polygon fill="white" stroke="#666666" points="1624,-78 1441,-78 1441,-48 1624,-48 1624,-78"/>
<text text-anchor="start" x="1449" y="-66" font-family="Helvetica,sans-Serif" font-size="10.00">Terraria.Graphics.Capture.</text>
<text text-anchor="middle" x="1532.5" y="-55" font-family="Helvetica,sans-Serif" font-size="10.00">CaptureInterface.QuickScreenshot</text>
</a>
</g>
</g>
<!-- Node7&#45;&gt;Node8 -->
<g id="edge7_Node000007_Node000008" class="edge">
<title>Node7&#45;&gt;Node8</title>
<g id="a_edge7_Node000007_Node000008"><a xlink:title=" ">
<path fill="none" stroke="#63b8ff" d="M1649.59,-63C1641.13,-63 1632.59,-63 1624.18,-63"/>
<polygon fill="#63b8ff" stroke="#63b8ff" points="1649.85,-66.5 1659.85,-63 1649.85,-59.5 1649.85,-66.5"/>
</a>
</g>
</g>
<!-- Node14 -->
<g id="Node000014" class="node">
<title>Node14</title>
<g id="a_Node000014"><a xlink:href="../../d8/dab/classTerraria_1_1Graphics_1_1Capture_1_1CaptureInterface_a36c7e152c0cb7142dd5005d9f194a086.html#a36c7e152c0cb7142dd5005d9f194a086" target="_top" xlink:title=" ">
<polygon fill="white" stroke="#666666" points="1405,-35 1231,-35 1231,-5 1405,-5 1405,-35"/>
<text text-anchor="start" x="1239" y="-23" font-family="Helvetica,sans-Serif" font-size="10.00">Terraria.Graphics.Capture.</text>
<text text-anchor="middle" x="1318" y="-12" font-family="Helvetica,sans-Serif" font-size="10.00">CaptureInterface.UpdateButtons</text>
</a>
</g>
</g>
<!-- Node7&#45;&gt;Node14 -->
<g id="edge17_Node000007_Node000014" class="edge">
<title>Node7&#45;&gt;Node14</title>
<g id="a_edge17_Node000007_Node000014"><a xlink:title=" ">
<path fill="none" stroke="#63b8ff" d="M1668.26,-46.06C1653.6,-43.35 1638.38,-40.84 1624,-39 1550.46,-29.58 1466.32,-24.78 1405.07,-22.37"/>
<polygon fill="#63b8ff" stroke="#63b8ff" points="1667.82,-49.53 1678.3,-47.95 1669.12,-42.66 1667.82,-49.53"/>
</a>
</g>
</g>
<!-- Node9 -->
<g id="Node000009" class="node">
<title>Node9</title>
<g id="a_Node000009"><a xlink:href="../../da/dd5/classTerraria_1_1Main_a3076d8ed6344d2fb06777ef5c7d45bee.html#a3076d8ed6344d2fb06777ef5c7d45bee" target="_top" xlink:title=" ">
<polygon fill="white" stroke="#666666" points="1397,-72.5 1239,-72.5 1239,-53.5 1397,-53.5 1397,-72.5"/>
<text text-anchor="middle" x="1318" y="-60.5" font-family="Helvetica,sans-Serif" font-size="10.00">Terraria.Main.DrawPageIcons</text>
</a>
</g>
</g>
<!-- Node8&#45;&gt;Node9 -->
<g id="edge8_Node000008_Node000009" class="edge">
<title>Node8&#45;&gt;Node9</title>
<g id="a_edge8_Node000008_Node000009"><a xlink:title=" ">
<path fill="none" stroke="#63b8ff" d="M1430.48,-63C1419.25,-63 1407.93,-63 1397.04,-63"/>
<polygon fill="#63b8ff" stroke="#63b8ff" points="1430.76,-66.5 1440.76,-63 1430.76,-59.5 1430.76,-66.5"/>
</a>
</g>
</g>
<!-- Node8&#45;&gt;Node14 -->
<g id="edge14_Node000008_Node000014" class="edge">
<title>Node8&#45;&gt;Node14</title>
<g id="a_edge14_Node000008_Node000014"><a xlink:title=" ">
<path fill="none" stroke="#63b8ff" d="M1447.36,-45.97C1429.49,-42.36 1410.75,-38.57 1393.28,-35.03"/>
<polygon fill="#63b8ff" stroke="#63b8ff" points="1446.68,-49.41 1457.18,-47.96 1448.07,-42.55 1446.68,-49.41"/>
</a>
</g>
</g>
<!-- Node10 -->
<g id="Node000010" class="node">
<title>Node10</title>
<g id="a_Node000010"><a xlink:href="../../da/dd5/classTerraria_1_1Main_a3d98f18e1b3a22533d5282611b6d8dfe.html#a3d98f18e1b3a22533d5282611b6d8dfe" target="_top" xlink:title=" ">
<polygon fill="white" stroke="#666666" points="1195,-72.5 1040,-72.5 1040,-53.5 1195,-53.5 1195,-72.5"/>
<text text-anchor="middle" x="1117.5" y="-60.5" font-family="Helvetica,sans-Serif" font-size="10.00">Terraria.Main.DrawInventory</text>
</a>
</g>
</g>
<!-- Node9&#45;&gt;Node10 -->
<g id="edge9_Node000009_Node000010" class="edge">
<title>Node9&#45;&gt;Node10</title>
<g id="a_edge9_Node000009_Node000010"><a xlink:title=" ">
<path fill="none" stroke="#63b8ff" d="M1228.68,-63C1217.55,-63 1206.23,-63 1195.3,-63"/>
<polygon fill="#63b8ff" stroke="#63b8ff" points="1228.83,-66.5 1238.83,-63 1228.83,-59.5 1228.83,-66.5"/>
</a>
</g>
</g>
<!-- Node11 -->
<g id="Node000011" class="node">
<title>Node11</title>
<g id="a_Node000011"><a xlink:href="../../da/dd5/classTerraria_1_1Main_a6ec2a6dd6eea7cf9082122035842a01b.html#a6ec2a6dd6eea7cf9082122035842a01b" target="_top" xlink:title=" ">
<polygon fill="white" stroke="#666666" points="1004,-78 852,-78 852,-48 1004,-48 1004,-78"/>
<text text-anchor="start" x="860" y="-66" font-family="Helvetica,sans-Serif" font-size="10.00">Terraria.Main.DrawInterface</text>
<text text-anchor="middle" x="928" y="-55" font-family="Helvetica,sans-Serif" font-size="10.00">_27_Inventory</text>
</a>
</g>
</g>
<!-- Node10&#45;&gt;Node11 -->
<g id="edge10_Node000010_Node000011" class="edge">
<title>Node10&#45;&gt;Node11</title>
<g id="a_edge10_Node000010_Node000011"><a xlink:title=" ">
<path fill="none" stroke="#63b8ff" d="M1029.9,-63C1021.27,-63 1012.57,-63 1004.08,-63"/>
<polygon fill="#63b8ff" stroke="#63b8ff" points="1029.97,-66.5 1039.97,-63 1029.97,-59.5 1029.97,-66.5"/>
</a>
</g>
</g>
<!-- Node12 -->
<g id="Node000012" class="node">
<title>Node12</title>
<g id="a_Node000012"><a xlink:href="../../da/dd5/classTerraria_1_1Main_a635639e6a6d3795bbfbcf0e24fc3aac5.html#a635639e6a6d3795bbfbcf0e24fc3aac5" target="_top" xlink:title=" ">
<polygon fill="white" stroke="#666666" points="816,-78 636,-78 636,-48 816,-48 816,-78"/>
<text text-anchor="start" x="644" y="-66" font-family="Helvetica,sans-Serif" font-size="10.00">Terraria.Main.SetupDrawInterface</text>
<text text-anchor="middle" x="726" y="-55" font-family="Helvetica,sans-Serif" font-size="10.00">Layers</text>
</a>
</g>
</g>
<!-- Node11&#45;&gt;Node12 -->
<g id="edge11_Node000011_Node000012" class="edge">
<title>Node11&#45;&gt;Node12</title>
<g id="a_edge11_Node000011_Node000012"><a xlink:title=" ">
<path fill="none" stroke="#63b8ff" d="M841.76,-63C833.33,-63 824.76,-63 816.28,-63"/>
<polygon fill="#63b8ff" stroke="#63b8ff" points="841.96,-66.5 851.96,-63 841.96,-59.5 841.96,-66.5"/>
</a>
</g>
</g>
<!-- Node13 -->
<g id="Node000013" class="node">
<title>Node13</title>
<g id="a_Node000013"><a xlink:href="../../da/dd5/classTerraria_1_1Main_a36d139a1fd2647d53f25a241f3d5d5f4.html#a36d139a1fd2647d53f25a241f3d5d5f4" target="_top" xlink:title=" ">
<polygon fill="white" stroke="#666666" points="600,-75.5 448,-75.5 448,-56.5 600,-56.5 600,-75.5"/>
<text text-anchor="middle" x="524" y="-63.5" font-family="Helvetica,sans-Serif" font-size="10.00">Terraria.Main.DrawInterface</text>
</a>
</g>
</g>
<!-- Node12&#45;&gt;Node13 -->
<g id="edge12_Node000012_Node000013" class="edge">
<title>Node12&#45;&gt;Node13</title>
<g id="a_edge12_Node000012_Node000013"><a xlink:title=" ">
<path fill="none" stroke="#63b8ff" d="M625.77,-64.49C617.19,-64.62 608.6,-64.75 600.26,-64.87"/>
<polygon fill="#63b8ff" stroke="#63b8ff" points="625.87,-67.99 635.82,-64.34 625.77,-60.99 625.87,-67.99"/>
</a>
</g>
</g>
<!-- Node13&#45;&gt;Node3 -->
<g id="edge13_Node000013_Node000003" class="edge">
<title>Node13&#45;&gt;Node3</title>
<g id="a_edge13_Node000013_Node000003"><a xlink:title=" ">
<path fill="none" stroke="#63b8ff" d="M437.81,-75.47C429.1,-76.43 420.4,-77.4 412.05,-78.33"/>
<polygon fill="#63b8ff" stroke="#63b8ff" points="438.44,-78.92 448,-74.33 437.67,-71.96 438.44,-78.92"/>
</a>
</g>
</g>
<!-- Node15 -->
<g id="Node000015" class="node">
<title>Node15</title>
<g id="a_Node000015"><a xlink:href="../../d8/dab/classTerraria_1_1Graphics_1_1Capture_1_1CaptureInterface_a209d89007e93af35eda53825073f5ac8.html#a209d89007e93af35eda53825073f5ac8" target="_top" xlink:title=" ">
<polygon fill="white" stroke="#666666" points="1189,-32 1046,-32 1046,-2 1189,-2 1189,-32"/>
<text text-anchor="start" x="1054" y="-20" font-family="Helvetica,sans-Serif" font-size="10.00">Terraria.Graphics.Capture.</text>
<text text-anchor="middle" x="1117.5" y="-9" font-family="Helvetica,sans-Serif" font-size="10.00">CaptureInterface.Update</text>
</a>
</g>
</g>
<!-- Node14&#45;&gt;Node15 -->
<g id="edge15_Node000014_Node000015" class="edge">
<title>Node14&#45;&gt;Node15</title>
<g id="a_edge15_Node000014_Node000015"><a xlink:title=" ">
<path fill="none" stroke="#63b8ff" d="M1220.65,-18.54C1210.02,-18.38 1199.35,-18.22 1189.13,-18.07"/>
<polygon fill="#63b8ff" stroke="#63b8ff" points="1220.75,-22.05 1230.8,-18.7 1220.86,-15.05 1220.75,-22.05"/>
</a>
</g>
</g>
<!-- Node16 -->
<g id="Node000016" class="node">
<title>Node16</title>
<g id="a_Node000016"><a xlink:href="../../d4/d78/classTerraria_1_1Graphics_1_1Capture_1_1CaptureManager_ac4afee343be77909c7469ecef7092284.html#ac4afee343be77909c7469ecef7092284" target="_top" xlink:title=" ">
<polygon fill="white" stroke="#666666" points="999.5,-30 856.5,-30 856.5,0 999.5,0 999.5,-30"/>
<text text-anchor="start" x="864.5" y="-18" font-family="Helvetica,sans-Serif" font-size="10.00">Terraria.Graphics.Capture.</text>
<text text-anchor="middle" x="928" y="-7" font-family="Helvetica,sans-Serif" font-size="10.00">CaptureManager.Update</text>
</a>
</g>
</g>
<!-- Node15&#45;&gt;Node16 -->
<g id="edge16_Node000015_Node000016" class="edge">
<title>Node15&#45;&gt;Node16</title>
<g id="a_edge16_Node000015_Node000016"><a xlink:title=" ">
<path fill="none" stroke="#63b8ff" d="M1035.83,-16.14C1023.76,-16.01 1011.39,-15.88 999.55,-15.75"/>
<polygon fill="#63b8ff" stroke="#63b8ff" points="1035.84,-19.64 1045.88,-16.25 1035.92,-12.64 1035.84,-19.64"/>
</a>
</g>
</g>
</g>
</svg>
