<?xml version="1.0" encoding="UTF-8" standalone="no"?>
<!DOCTYPE svg PUBLIC "-//W3C//DTD SVG 1.1//EN"
 "http://www.w3.org/Graphics/SVG/1.1/DTD/svg11.dtd">
<!-- Generated by graphviz version 2.43.0 (0)
 -->
<!-- Title: Terraria.Main.DrawGore Pages: 1 -->
<svg width="1132pt" height="59pt"
 viewBox="0.00 0.00 1132.00 59.00" xmlns="http://www.w3.org/2000/svg" xmlns:xlink="http://www.w3.org/1999/xlink">
<g id="graph0" class="graph" transform="scale(1 1) rotate(0) translate(4 55)">
<title>Terraria.Main.DrawGore</title>
<!-- Node1 -->
<g id="Node000001" class="node">
<title>Node1</title>
<g id="a_Node000001"><a xlink:title=" ">
<polygon fill="#999999" stroke="#666666" points="1124,-46.5 992,-46.5 992,-27.5 1124,-27.5 1124,-46.5"/>
<text text-anchor="middle" x="1058" y="-34.5" font-family="Helvetica,sans-Serif" font-size="10.00">Terraria.Main.DrawGore</text>
</a>
</g>
</g>
<!-- Node2 -->
<g id="Node000002" class="node">
<title>Node2</title>
<g id="a_Node000002"><a xlink:href="../../da/dd5/classTerraria_1_1Main_a474beeecaea4d6dd108fba56cd554d46.html#a474beeecaea4d6dd108fba56cd554d46" target="_top" xlink:title=" ">
<polygon fill="white" stroke="#666666" points="412,-45.5 290,-45.5 290,-26.5 412,-26.5 412,-45.5"/>
<text text-anchor="middle" x="351" y="-33.5" font-family="Helvetica,sans-Serif" font-size="10.00">Terraria.Main.DoDraw</text>
</a>
</g>
</g>
<!-- Node1&#45;&gt;Node2 -->
<g id="edge1_Node000001_Node000002" class="edge">
<title>Node1&#45;&gt;Node2</title>
<g id="a_edge1_Node000001_Node000002"><a xlink:title=" ">
<path fill="none" stroke="#63b8ff" d="M981.54,-38.16C866.45,-39.73 640.16,-42 448,-39 436.41,-38.82 424.04,-38.52 412.17,-38.17"/>
<polygon fill="#63b8ff" stroke="#63b8ff" points="981.7,-41.66 991.66,-38.02 981.61,-34.66 981.7,-41.66"/>
</a>
</g>
</g>
<!-- Node5 -->
<g id="Node000005" class="node">
<title>Node5</title>
<g id="a_Node000005"><a xlink:href="../../da/dd5/classTerraria_1_1Main_ab13ebe846afd6d4cd47586ef70091e91.html#ab13ebe846afd6d4cd47586ef70091e91" target="_top" xlink:title=" ">
<polygon fill="white" stroke="#666666" points="956,-27.5 809,-27.5 809,-8.5 956,-8.5 956,-27.5"/>
<text text-anchor="middle" x="882.5" y="-15.5" font-family="Helvetica,sans-Serif" font-size="10.00">Terraria.Main.DrawCapture</text>
</a>
</g>
</g>
<!-- Node1&#45;&gt;Node5 -->
<g id="edge4_Node000001_Node000005" class="edge">
<title>Node1&#45;&gt;Node5</title>
<g id="a_edge4_Node000001_Node000005"><a xlink:title=" ">
<path fill="none" stroke="#63b8ff" d="M981.69,-28.75C973.25,-27.83 964.66,-26.89 956.24,-25.97"/>
<polygon fill="#63b8ff" stroke="#63b8ff" points="981.58,-32.26 991.9,-29.87 982.34,-25.3 981.58,-32.26"/>
</a>
</g>
</g>
<!-- Node3 -->
<g id="Node000003" class="node">
<title>Node3</title>
<g id="a_Node000003"><a xlink:href="../../da/dd5/classTerraria_1_1Main_aa597dbafa085227bb056d05d0b0f9abe.html#aa597dbafa085227bb056d05d0b0f9abe" target="_top" xlink:title=" ">
<polygon fill="white" stroke="#666666" points="254,-51 145,-51 145,-21 254,-21 254,-51"/>
<text text-anchor="start" x="153" y="-39" font-family="Helvetica,sans-Serif" font-size="10.00">Terraria.Main.Draw</text>
<text text-anchor="middle" x="199.5" y="-28" font-family="Helvetica,sans-Serif" font-size="10.00">_Inner</text>
</a>
</g>
</g>
<!-- Node2&#45;&gt;Node3 -->
<g id="edge2_Node000002_Node000003" class="edge">
<title>Node2&#45;&gt;Node3</title>
<g id="a_edge2_Node000002_Node000003"><a xlink:title=" ">
<path fill="none" stroke="#63b8ff" d="M279.41,-36C270.99,-36 262.49,-36 254.35,-36"/>
<polygon fill="#63b8ff" stroke="#63b8ff" points="279.62,-39.5 289.62,-36 279.62,-32.5 279.62,-39.5"/>
</a>
</g>
</g>
<!-- Node4 -->
<g id="Node000004" class="node">
<title>Node4</title>
<g id="a_Node000004"><a xlink:href="../../da/dd5/classTerraria_1_1Main_a516aa31311860bad4242ade32e5effcd.html#a516aa31311860bad4242ade32e5effcd" target="_top" xlink:title=" ">
<polygon fill="white" stroke="#666666" points="109,-45.5 0,-45.5 0,-26.5 109,-26.5 109,-45.5"/>
<text text-anchor="middle" x="54.5" y="-33.5" font-family="Helvetica,sans-Serif" font-size="10.00">Terraria.Main.Draw</text>
</a>
</g>
</g>
<!-- Node3&#45;&gt;Node4 -->
<g id="edge3_Node000003_Node000004" class="edge">
<title>Node3&#45;&gt;Node4</title>
<g id="a_edge3_Node000003_Node000004"><a xlink:title=" ">
<path fill="none" stroke="#63b8ff" d="M134.68,-36C126.25,-36 117.69,-36 109.46,-36"/>
<polygon fill="#63b8ff" stroke="#63b8ff" points="134.85,-39.5 144.85,-36 134.85,-32.5 134.85,-39.5"/>
</a>
</g>
</g>
<!-- Node6 -->
<g id="Node000006" class="node">
<title>Node6</title>
<g id="a_Node000006"><a xlink:href="../../d5/d3b/classTerraria_1_1Graphics_1_1Capture_1_1CaptureCamera_a0f89b111e49e173b59c7d4eae1ec828f.html#a0f89b111e49e173b59c7d4eae1ec828f" target="_top" xlink:title=" ">
<polygon fill="white" stroke="#666666" points="773,-30 630,-30 630,0 773,0 773,-30"/>
<text text-anchor="start" x="638" y="-18" font-family="Helvetica,sans-Serif" font-size="10.00">Terraria.Graphics.Capture.</text>
<text text-anchor="middle" x="701.5" y="-7" font-family="Helvetica,sans-Serif" font-size="10.00">CaptureCamera.DrawTick</text>
</a>
</g>
</g>
<!-- Node5&#45;&gt;Node6 -->
<g id="edge5_Node000005_Node000006" class="edge">
<title>Node5&#45;&gt;Node6</title>
<g id="a_edge5_Node000005_Node000006"><a xlink:title=" ">
<path fill="none" stroke="#63b8ff" d="M798.9,-16.62C790.28,-16.47 781.58,-16.33 773.12,-16.18"/>
<polygon fill="#63b8ff" stroke="#63b8ff" points="798.89,-20.12 808.95,-16.78 799.01,-13.12 798.89,-20.12"/>
</a>
</g>
</g>
<!-- Node7 -->
<g id="Node000007" class="node">
<title>Node7</title>
<g id="a_Node000007"><a xlink:href="../../d4/d78/classTerraria_1_1Graphics_1_1Capture_1_1CaptureManager_a692c32176bdf72053b0217a48bc49dd5.html#a692c32176bdf72053b0217a48bc49dd5" target="_top" xlink:title=" ">
<polygon fill="white" stroke="#666666" points="594,-30 448,-30 448,0 594,0 594,-30"/>
<text text-anchor="start" x="456" y="-18" font-family="Helvetica,sans-Serif" font-size="10.00">Terraria.Graphics.Capture.</text>
<text text-anchor="middle" x="521" y="-7" font-family="Helvetica,sans-Serif" font-size="10.00">CaptureManager.DrawTick</text>
</a>
</g>
</g>
<!-- Node6&#45;&gt;Node7 -->
<g id="edge6_Node000006_Node000007" class="edge">
<title>Node6&#45;&gt;Node7</title>
<g id="a_edge6_Node000006_Node000007"><a xlink:title=" ">
<path fill="none" stroke="#63b8ff" d="M619.91,-15C611.3,-15 602.59,-15 594.08,-15"/>
<polygon fill="#63b8ff" stroke="#63b8ff" points="619.95,-18.5 629.95,-15 619.95,-11.5 619.95,-18.5"/>
</a>
</g>
</g>
<!-- Node7&#45;&gt;Node2 -->
<g id="edge7_Node000007_Node000002" class="edge">
<title>Node7&#45;&gt;Node2</title>
<g id="a_edge7_Node000007_Node000002"><a xlink:title=" ">
<path fill="none" stroke="#63b8ff" d="M437.67,-25.29C429.03,-26.37 420.37,-27.45 412.04,-28.49"/>
<polygon fill="#63b8ff" stroke="#63b8ff" points="438.29,-28.74 447.78,-24.03 437.42,-21.8 438.29,-28.74"/>
</a>
</g>
</g>
</g>
</svg>
