<?xml version="1.0" encoding="UTF-8" standalone="no"?>
<!DOCTYPE svg PUBLIC "-//W3C//DTD SVG 1.1//EN"
 "http://www.w3.org/Graphics/SVG/1.1/DTD/svg11.dtd">
<!-- Generated by graphviz version 2.43.0 (0)
 -->
<!-- Title: Terraria.Main.GetInfoAccIconPosition Pages: 1 -->
<svg width="1546pt" height="59pt"
 viewBox="0.00 0.00 1546.00 59.00" xmlns="http://www.w3.org/2000/svg" xmlns:xlink="http://www.w3.org/1999/xlink">
<g id="graph0" class="graph" transform="scale(1 1) rotate(0) translate(4 55)">
<title>Terraria.Main.GetInfoAccIconPosition</title>
<!-- Node1 -->
<g id="Node000001" class="node">
<title>Node1</title>
<g id="a_Node000001"><a xlink:title=" ">
<polygon fill="#999999" stroke="#666666" points="1538,-51 1401,-51 1401,-21 1538,-21 1538,-51"/>
<text text-anchor="start" x="1409" y="-39" font-family="Helvetica,sans-Serif" font-size="10.00">Terraria.Main.GetInfoAcc</text>
<text text-anchor="middle" x="1469.5" y="-28" font-family="Helvetica,sans-Serif" font-size="10.00">IconPosition</text>
</a>
</g>
</g>
<!-- Node2 -->
<g id="Node000002" class="node">
<title>Node2</title>
<g id="a_Node000002"><a xlink:href="../../da/dd5/classTerraria_1_1Main_a531f51531f8017d2525f687b31ba5172.html#a531f51531f8017d2525f687b31ba5172" target="_top" xlink:title=" ">
<polygon fill="white" stroke="#666666" points="1190,-45.5 1040,-45.5 1040,-26.5 1190,-26.5 1190,-45.5"/>
<text text-anchor="middle" x="1115" y="-33.5" font-family="Helvetica,sans-Serif" font-size="10.00">Terraria.Main.DrawInfoAccs</text>
</a>
</g>
</g>
<!-- Node1&#45;&gt;Node2 -->
<g id="edge1_Node000001_Node000002" class="edge">
<title>Node1&#45;&gt;Node2</title>
<g id="a_edge1_Node000001_Node000002"><a xlink:title=" ">
<path fill="none" stroke="#63b8ff" d="M1390.72,-38.5C1382.04,-38.7 1373.33,-38.88 1365,-39 1303.23,-39.9 1287.77,-39.84 1226,-39 1214.44,-38.84 1202.2,-38.59 1190.25,-38.3"/>
<polygon fill="#63b8ff" stroke="#63b8ff" points="1390.95,-41.99 1400.86,-38.24 1390.78,-35 1390.95,-41.99"/>
</a>
</g>
</g>
<!-- Node9 -->
<g id="Node000009" class="node">
<title>Node9</title>
<g id="a_Node000009"><a xlink:href="../../da/dd5/classTerraria_1_1Main_ad12c888ac9ac1867a8b7a75e2bbb968b.html#ad12c888ac9ac1867a8b7a75e2bbb968b" target="_top" xlink:title=" ">
<polygon fill="white" stroke="#666666" points="1365,-30 1226,-30 1226,0 1365,0 1365,-30"/>
<text text-anchor="start" x="1234" y="-18" font-family="Helvetica,sans-Serif" font-size="10.00">Terraria.Main.InfoDisplay</text>
<text text-anchor="middle" x="1295.5" y="-7" font-family="Helvetica,sans-Serif" font-size="10.00">PageHandler</text>
</a>
</g>
</g>
<!-- Node1&#45;&gt;Node9 -->
<g id="edge8_Node000001_Node000009" class="edge">
<title>Node1&#45;&gt;Node9</title>
<g id="a_edge8_Node000001_Node000009"><a xlink:title=" ">
<path fill="none" stroke="#63b8ff" d="M1390.33,-26.46C1381.92,-25.43 1373.4,-24.39 1365.11,-23.38"/>
<polygon fill="#63b8ff" stroke="#63b8ff" points="1390.17,-29.96 1400.52,-27.7 1391.02,-23.01 1390.17,-29.96"/>
</a>
</g>
</g>
<!-- Node3 -->
<g id="Node000003" class="node">
<title>Node3</title>
<g id="a_Node000003"><a xlink:href="../../da/dd5/classTerraria_1_1Main_ab32561c420c95528df161de9162a8fa4.html#ab32561c420c95528df161de9162a8fa4" target="_top" xlink:title=" ">
<polygon fill="white" stroke="#666666" points="1004,-51 852,-51 852,-21 1004,-21 1004,-51"/>
<text text-anchor="start" x="860" y="-39" font-family="Helvetica,sans-Serif" font-size="10.00">Terraria.Main.DrawInterface</text>
<text text-anchor="middle" x="928" y="-28" font-family="Helvetica,sans-Serif" font-size="10.00">_28_InfoAccs</text>
</a>
</g>
</g>
<!-- Node2&#45;&gt;Node3 -->
<g id="edge2_Node000002_Node000003" class="edge">
<title>Node2&#45;&gt;Node3</title>
<g id="a_edge2_Node000002_Node000003"><a xlink:title=" ">
<path fill="none" stroke="#63b8ff" d="M1029.82,-36C1021.24,-36 1012.57,-36 1004.1,-36"/>
<polygon fill="#63b8ff" stroke="#63b8ff" points="1029.82,-39.5 1039.82,-36 1029.82,-32.5 1029.82,-39.5"/>
</a>
</g>
</g>
<!-- Node4 -->
<g id="Node000004" class="node">
<title>Node4</title>
<g id="a_Node000004"><a xlink:href="../../da/dd5/classTerraria_1_1Main_a635639e6a6d3795bbfbcf0e24fc3aac5.html#a635639e6a6d3795bbfbcf0e24fc3aac5" target="_top" xlink:title=" ">
<polygon fill="white" stroke="#666666" points="816,-51 636,-51 636,-21 816,-21 816,-51"/>
<text text-anchor="start" x="644" y="-39" font-family="Helvetica,sans-Serif" font-size="10.00">Terraria.Main.SetupDrawInterface</text>
<text text-anchor="middle" x="726" y="-28" font-family="Helvetica,sans-Serif" font-size="10.00">Layers</text>
</a>
</g>
</g>
<!-- Node3&#45;&gt;Node4 -->
<g id="edge3_Node000003_Node000004" class="edge">
<title>Node3&#45;&gt;Node4</title>
<g id="a_edge3_Node000003_Node000004"><a xlink:title=" ">
<path fill="none" stroke="#63b8ff" d="M841.76,-36C833.33,-36 824.76,-36 816.28,-36"/>
<polygon fill="#63b8ff" stroke="#63b8ff" points="841.96,-39.5 851.96,-36 841.96,-32.5 841.96,-39.5"/>
</a>
</g>
</g>
<!-- Node5 -->
<g id="Node000005" class="node">
<title>Node5</title>
<g id="a_Node000005"><a xlink:href="../../da/dd5/classTerraria_1_1Main_a36d139a1fd2647d53f25a241f3d5d5f4.html#a36d139a1fd2647d53f25a241f3d5d5f4" target="_top" xlink:title=" ">
<polygon fill="white" stroke="#666666" points="600,-45.5 448,-45.5 448,-26.5 600,-26.5 600,-45.5"/>
<text text-anchor="middle" x="524" y="-33.5" font-family="Helvetica,sans-Serif" font-size="10.00">Terraria.Main.DrawInterface</text>
</a>
</g>
</g>
<!-- Node4&#45;&gt;Node5 -->
<g id="edge4_Node000004_Node000005" class="edge">
<title>Node4&#45;&gt;Node5</title>
<g id="a_edge4_Node000004_Node000005"><a xlink:title=" ">
<path fill="none" stroke="#63b8ff" d="M625.77,-36C617.19,-36 608.6,-36 600.26,-36"/>
<polygon fill="#63b8ff" stroke="#63b8ff" points="625.82,-39.5 635.82,-36 625.82,-32.5 625.82,-39.5"/>
</a>
</g>
</g>
<!-- Node6 -->
<g id="Node000006" class="node">
<title>Node6</title>
<g id="a_Node000006"><a xlink:href="../../da/dd5/classTerraria_1_1Main_a474beeecaea4d6dd108fba56cd554d46.html#a474beeecaea4d6dd108fba56cd554d46" target="_top" xlink:title=" ">
<polygon fill="white" stroke="#666666" points="412,-45.5 290,-45.5 290,-26.5 412,-26.5 412,-45.5"/>
<text text-anchor="middle" x="351" y="-33.5" font-family="Helvetica,sans-Serif" font-size="10.00">Terraria.Main.DoDraw</text>
</a>
</g>
</g>
<!-- Node5&#45;&gt;Node6 -->
<g id="edge5_Node000005_Node000006" class="edge">
<title>Node5&#45;&gt;Node6</title>
<g id="a_edge5_Node000005_Node000006"><a xlink:title=" ">
<path fill="none" stroke="#63b8ff" d="M437.81,-36C429.1,-36 420.4,-36 412.05,-36"/>
<polygon fill="#63b8ff" stroke="#63b8ff" points="438,-39.5 448,-36 438,-32.5 438,-39.5"/>
</a>
</g>
</g>
<!-- Node7 -->
<g id="Node000007" class="node">
<title>Node7</title>
<g id="a_Node000007"><a xlink:href="../../da/dd5/classTerraria_1_1Main_aa597dbafa085227bb056d05d0b0f9abe.html#aa597dbafa085227bb056d05d0b0f9abe" target="_top" xlink:title=" ">
<polygon fill="white" stroke="#666666" points="254,-51 145,-51 145,-21 254,-21 254,-51"/>
<text text-anchor="start" x="153" y="-39" font-family="Helvetica,sans-Serif" font-size="10.00">Terraria.Main.Draw</text>
<text text-anchor="middle" x="199.5" y="-28" font-family="Helvetica,sans-Serif" font-size="10.00">_Inner</text>
</a>
</g>
</g>
<!-- Node6&#45;&gt;Node7 -->
<g id="edge6_Node000006_Node000007" class="edge">
<title>Node6&#45;&gt;Node7</title>
<g id="a_edge6_Node000006_Node000007"><a xlink:title=" ">
<path fill="none" stroke="#63b8ff" d="M279.41,-36C270.99,-36 262.49,-36 254.35,-36"/>
<polygon fill="#63b8ff" stroke="#63b8ff" points="279.62,-39.5 289.62,-36 279.62,-32.5 279.62,-39.5"/>
</a>
</g>
</g>
<!-- Node8 -->
<g id="Node000008" class="node">
<title>Node8</title>
<g id="a_Node000008"><a xlink:href="../../da/dd5/classTerraria_1_1Main_a516aa31311860bad4242ade32e5effcd.html#a516aa31311860bad4242ade32e5effcd" target="_top" xlink:title=" ">
<polygon fill="white" stroke="#666666" points="109,-45.5 0,-45.5 0,-26.5 109,-26.5 109,-45.5"/>
<text text-anchor="middle" x="54.5" y="-33.5" font-family="Helvetica,sans-Serif" font-size="10.00">Terraria.Main.Draw</text>
</a>
</g>
</g>
<!-- Node7&#45;&gt;Node8 -->
<g id="edge7_Node000007_Node000008" class="edge">
<title>Node7&#45;&gt;Node8</title>
<g id="a_edge7_Node000007_Node000008"><a xlink:title=" ">
<path fill="none" stroke="#63b8ff" d="M134.68,-36C126.25,-36 117.69,-36 109.46,-36"/>
<polygon fill="#63b8ff" stroke="#63b8ff" points="134.85,-39.5 144.85,-36 134.85,-32.5 134.85,-39.5"/>
</a>
</g>
</g>
<!-- Node9&#45;&gt;Node2 -->
<g id="edge9_Node000009_Node000002" class="edge">
<title>Node9&#45;&gt;Node2</title>
<g id="a_edge9_Node000009_Node000002"><a xlink:title=" ">
<path fill="none" stroke="#63b8ff" d="M1216.03,-24.23C1207.46,-25.24 1198.76,-26.26 1190.25,-27.26"/>
<polygon fill="#63b8ff" stroke="#63b8ff" points="1216.48,-27.7 1226,-23.06 1215.66,-20.75 1216.48,-27.7"/>
</a>
</g>
</g>
</g>
</svg>
