<?xml version="1.0" encoding="UTF-8" standalone="no"?>
<!DOCTYPE svg PUBLIC "-//W3C//DTD SVG 1.1//EN"
 "http://www.w3.org/Graphics/SVG/1.1/DTD/svg11.dtd">
<!-- Generated by graphviz version 2.43.0 (0)
 -->
<!-- Title: Terraria.Main.DrawNPCExtras Pages: 1 -->
<svg width="990pt" height="236pt"
 viewBox="0.00 0.00 990.00 235.50" xmlns="http://www.w3.org/2000/svg" xmlns:xlink="http://www.w3.org/1999/xlink">
<g id="graph0" class="graph" transform="scale(1 1) rotate(0) translate(4 231.5)">
<title>Terraria.Main.DrawNPCExtras</title>
<!-- Node1 -->
<g id="Node000001" class="node">
<title>Node1</title>
<g id="a_Node000001"><a xlink:title=" ">
<polygon fill="#999999" stroke="#666666" points="160,-131 0,-131 0,-112 160,-112 160,-131"/>
<text text-anchor="middle" x="80" y="-119" font-family="Helvetica,sans-Serif" font-size="10.00">Terraria.Main.DrawNPCExtras</text>
</a>
</g>
</g>
<!-- Node2 -->
<g id="Node000002" class="node">
<title>Node2</title>
<g id="a_Node000002"><a xlink:href="../../da/dd5/classTerraria_1_1Main_a80315d3108d6ff93b0282f3550f1b0ac.html#a80315d3108d6ff93b0282f3550f1b0ac" target="_top" xlink:title=" ">
<polygon fill="white" stroke="#666666" points="350,-184.5 210,-184.5 210,-154.5 350,-154.5 350,-184.5"/>
<text text-anchor="start" x="218" y="-172.5" font-family="Helvetica,sans-Serif" font-size="10.00">Terraria.Main.DrawPlayer</text>
<text text-anchor="middle" x="280" y="-161.5" font-family="Helvetica,sans-Serif" font-size="10.00">ItemPos</text>
</a>
</g>
</g>
<!-- Node1&#45;&gt;Node2 -->
<g id="edge1_Node000001_Node000002" class="edge">
<title>Node1&#45;&gt;Node2</title>
<g id="a_edge1_Node000001_Node000002"><a xlink:title=" ">
<path fill="none" stroke="#63b8ff" d="M120.59,-131.1C145.33,-137.1 177.93,-145 207.11,-152.07"/>
<polygon fill="#63b8ff" stroke="#63b8ff" points="206.32,-155.48 216.87,-154.44 207.97,-148.68 206.32,-155.48"/>
</a>
</g>
</g>
<!-- Node3 -->
<g id="Node000003" class="node">
<title>Node3</title>
<g id="a_Node000003"><a xlink:href="../../da/dd5/classTerraria_1_1Main_a63bc567121d59ed5cbb823f9b37ae738.html#a63bc567121d59ed5cbb823f9b37ae738" target="_top" xlink:title="Gets the texture and frame of the given item type (F:Terraria.Item.type).">
<polygon fill="white" stroke="#666666" points="559.5,-227.5 410.5,-227.5 410.5,-197.5 559.5,-197.5 559.5,-227.5"/>
<text text-anchor="start" x="418.5" y="-215.5" font-family="Helvetica,sans-Serif" font-size="10.00">Terraria.Main.GetItemDraw</text>
<text text-anchor="middle" x="485" y="-204.5" font-family="Helvetica,sans-Serif" font-size="10.00">Frame</text>
</a>
</g>
</g>
<!-- Node1&#45;&gt;Node3 -->
<g id="edge7_Node000001_Node000003" class="edge">
<title>Node1&#45;&gt;Node3</title>
<g id="a_edge7_Node000001_Node000003"><a xlink:title=" ">
<path fill="none" stroke="#63b8ff" d="M92.11,-131.16C111.59,-147.43 153.86,-179.88 196,-193.5 262.23,-214.91 341.38,-218.68 399.93,-217.65"/>
<polygon fill="#63b8ff" stroke="#63b8ff" points="400.33,-221.14 410.25,-217.41 400.17,-214.14 400.33,-221.14"/>
</a>
</g>
</g>
<!-- Node6 -->
<g id="Node000006" class="node">
<title>Node6</title>
<g id="a_Node000006"><a xlink:href="../../dd/dc6/classTerraria_1_1ModLoader_1_1NPCLoader_a6e87e2b2456c4742f55b65991c94daeb.html#a6e87e2b2456c4742f55b65991c94daeb" target="_top" xlink:title=" ">
<polygon fill="white" stroke="#666666" points="364,-136.5 196,-136.5 196,-106.5 364,-106.5 364,-136.5"/>
<text text-anchor="start" x="204" y="-124.5" font-family="Helvetica,sans-Serif" font-size="10.00">Terraria.ModLoader.NPCLoader.</text>
<text text-anchor="middle" x="280" y="-113.5" font-family="Helvetica,sans-Serif" font-size="10.00">DrawTownAttackGun</text>
</a>
</g>
</g>
<!-- Node1&#45;&gt;Node6 -->
<g id="edge5_Node000001_Node000006" class="edge">
<title>Node1&#45;&gt;Node6</title>
<g id="a_edge5_Node000001_Node000006"><a xlink:title=" ">
<path fill="none" stroke="#63b8ff" d="M160.11,-121.5C168.55,-121.5 177.19,-121.5 185.77,-121.5"/>
<polygon fill="#63b8ff" stroke="#63b8ff" points="185.8,-125 195.8,-121.5 185.8,-118 185.8,-125"/>
</a>
</g>
</g>
<!-- Node7 -->
<g id="Node000007" class="node">
<title>Node7</title>
<g id="a_Node000007"><a xlink:href="../../dd/dc6/classTerraria_1_1ModLoader_1_1NPCLoader_a6350b594354dfc971a14d0fabc3759e6.html#a6350b594354dfc971a14d0fabc3759e6" target="_top" xlink:title=" ">
<polygon fill="white" stroke="#666666" points="364,-88.5 196,-88.5 196,-58.5 364,-58.5 364,-88.5"/>
<text text-anchor="start" x="204" y="-76.5" font-family="Helvetica,sans-Serif" font-size="10.00">Terraria.ModLoader.NPCLoader.</text>
<text text-anchor="middle" x="280" y="-65.5" font-family="Helvetica,sans-Serif" font-size="10.00">DrawTownAttackSwing</text>
</a>
</g>
</g>
<!-- Node1&#45;&gt;Node7 -->
<g id="edge6_Node000001_Node000007" class="edge">
<title>Node1&#45;&gt;Node7</title>
<g id="a_edge6_Node000001_Node000007"><a xlink:title=" ">
<path fill="none" stroke="#63b8ff" d="M120.59,-111.9C145.33,-105.9 177.93,-98 207.11,-90.93"/>
<polygon fill="#63b8ff" stroke="#63b8ff" points="207.97,-94.32 216.87,-88.56 206.32,-87.52 207.97,-94.32"/>
</a>
</g>
</g>
<!-- Node8 -->
<g id="Node000008" class="node">
<title>Node8</title>
<g id="a_Node000008"><a xlink:href="../../dc/de5/classTerraria_1_1Dust_acb51111c9d1ff81d2e7f55da6ff8831f.html#acb51111c9d1ff81d2e7f55da6ff8831f" target="_top" xlink:title=" ">
<polygon fill="white" stroke="#666666" points="357.5,-40 202.5,-40 202.5,-21 357.5,-21 357.5,-40"/>
<text text-anchor="middle" x="280" y="-28" font-family="Helvetica,sans-Serif" font-size="10.00">Terraria.Dust.NewDustDirect</text>
</a>
</g>
</g>
<!-- Node1&#45;&gt;Node8 -->
<g id="edge8_Node000001_Node000008" class="edge">
<title>Node1&#45;&gt;Node8</title>
<g id="a_edge8_Node000001_Node000008"><a xlink:title=" ">
<path fill="none" stroke="#63b8ff" d="M93.34,-111.8C113.61,-96.34 155.73,-66.16 196,-49.5 202.15,-46.96 208.7,-44.72 215.33,-42.76"/>
<polygon fill="#63b8ff" stroke="#63b8ff" points="216.33,-46.11 225.05,-40.09 214.47,-39.37 216.33,-46.11"/>
</a>
</g>
</g>
<!-- Node2&#45;&gt;Node3 -->
<g id="edge2_Node000002_Node000003" class="edge">
<title>Node2&#45;&gt;Node3</title>
<g id="a_edge2_Node000002_Node000003"><a xlink:title=" ">
<path fill="none" stroke="#63b8ff" d="M350.01,-184.12C367.02,-187.72 385.38,-191.61 402.91,-195.32"/>
<polygon fill="#63b8ff" stroke="#63b8ff" points="402.6,-198.83 413.11,-197.48 404.05,-191.99 402.6,-198.83"/>
</a>
</g>
</g>
<!-- Node4 -->
<g id="Node000004" class="node">
<title>Node4</title>
<g id="a_Node000004"><a xlink:href="../../d7/de6/classTerraria_1_1ModLoader_1_1ItemLoader_ababd54e0e4bbf92063e2e914439a203c.html#ababd54e0e4bbf92063e2e914439a203c" target="_top" xlink:title=" ">
<polygon fill="white" stroke="#666666" points="570,-179.5 400,-179.5 400,-149.5 570,-149.5 570,-179.5"/>
<text text-anchor="start" x="408" y="-167.5" font-family="Helvetica,sans-Serif" font-size="10.00">Terraria.ModLoader.ItemLoader.</text>
<text text-anchor="middle" x="485" y="-156.5" font-family="Helvetica,sans-Serif" font-size="10.00">HoldoutOffset</text>
</a>
</g>
</g>
<!-- Node2&#45;&gt;Node4 -->
<g id="edge3_Node000002_Node000004" class="edge">
<title>Node2&#45;&gt;Node4</title>
<g id="a_edge3_Node000002_Node000004"><a xlink:title=" ">
<path fill="none" stroke="#63b8ff" d="M350.01,-167.8C362.74,-167.49 376.24,-167.15 389.57,-166.83"/>
<polygon fill="#63b8ff" stroke="#63b8ff" points="389.8,-170.32 399.71,-166.58 389.63,-163.32 389.8,-170.32"/>
</a>
</g>
</g>
<!-- Node5 -->
<g id="Node000005" class="node">
<title>Node5</title>
<g id="a_Node000005"><a xlink:href="../../d7/de6/classTerraria_1_1ModLoader_1_1ItemLoader_a1e8f5f5f4245b184038a9e6d1abbf4d3.html#a1e8f5f5f4245b184038a9e6d1abbf4d3" target="_top" xlink:title="Gets the ModItem template instance corresponding to the specified type (not the clone/new instance wh...">
<polygon fill="white" stroke="#666666" points="776,-179.5 606,-179.5 606,-149.5 776,-149.5 776,-179.5"/>
<text text-anchor="start" x="614" y="-167.5" font-family="Helvetica,sans-Serif" font-size="10.00">Terraria.ModLoader.ItemLoader.</text>
<text text-anchor="middle" x="691" y="-156.5" font-family="Helvetica,sans-Serif" font-size="10.00">GetItem</text>
</a>
</g>
</g>
<!-- Node4&#45;&gt;Node5 -->
<g id="edge4_Node000004_Node000005" class="edge">
<title>Node4&#45;&gt;Node5</title>
<g id="a_edge4_Node000004_Node000005"><a xlink:title=" ">
<path fill="none" stroke="#63b8ff" d="M570.15,-164.5C578.5,-164.5 587.02,-164.5 595.46,-164.5"/>
<polygon fill="#63b8ff" stroke="#63b8ff" points="595.71,-168 605.71,-164.5 595.71,-161 595.71,-168"/>
</a>
</g>
</g>
<!-- Node9 -->
<g id="Node000009" class="node">
<title>Node9</title>
<g id="a_Node000009"><a xlink:href="../../dc/de5/classTerraria_1_1Dust_a977a36a9376966862406a3094e3b70ab.html#a977a36a9376966862406a3094e3b70ab" target="_top" xlink:title="Attempts to spawn a single Dust into the game world. The Position, Width, and Height parameters dicta...">
<polygon fill="white" stroke="#666666" points="548,-40 422,-40 422,-21 548,-21 548,-40"/>
<text text-anchor="middle" x="485" y="-28" font-family="Helvetica,sans-Serif" font-size="10.00">Terraria.Dust.NewDust</text>
</a>
</g>
</g>
<!-- Node8&#45;&gt;Node9 -->
<g id="edge9_Node000008_Node000009" class="edge">
<title>Node8&#45;&gt;Node9</title>
<g id="a_edge9_Node000008_Node000009"><a xlink:title=" ">
<path fill="none" stroke="#63b8ff" d="M357.75,-30.5C375.48,-30.5 394.3,-30.5 411.83,-30.5"/>
<polygon fill="#63b8ff" stroke="#63b8ff" points="411.99,-34 421.99,-30.5 411.99,-27 411.99,-34"/>
</a>
</g>
</g>
<!-- Node10 -->
<g id="Node000010" class="node">
<title>Node10</title>
<g id="a_Node000010"><a xlink:href="../../df/dd6/classTerraria_1_1ModLoader_1_1DustLoader_a8374be843b9b2b0143bc000e8663d3ec.html#a8374be843b9b2b0143bc000e8663d3ec" target="_top" xlink:title=" ">
<polygon fill="white" stroke="#666666" points="776,-67.5 606,-67.5 606,-37.5 776,-37.5 776,-67.5"/>
<text text-anchor="start" x="614" y="-55.5" font-family="Helvetica,sans-Serif" font-size="10.00">Terraria.ModLoader.DustLoader.</text>
<text text-anchor="middle" x="691" y="-44.5" font-family="Helvetica,sans-Serif" font-size="10.00">SetupDust</text>
</a>
</g>
</g>
<!-- Node9&#45;&gt;Node10 -->
<g id="edge10_Node000009_Node000010" class="edge">
<title>Node9&#45;&gt;Node10</title>
<g id="a_edge10_Node000009_Node000010"><a xlink:title=" ">
<path fill="none" stroke="#63b8ff" d="M548.04,-37.19C563.08,-38.81 579.51,-40.58 595.68,-42.33"/>
<polygon fill="#63b8ff" stroke="#63b8ff" points="595.38,-45.82 605.69,-43.41 596.13,-38.86 595.38,-45.82"/>
</a>
</g>
</g>
<!-- Node12 -->
<g id="Node000012" class="node">
<title>Node12</title>
<g id="a_Node000012"><a xlink:href="../../de/d1d/classTerraria_1_1Collision_a1c65206ace403aa59afc32d20e5d282e.html#a1c65206ace403aa59afc32d20e5d282e" target="_top" xlink:title=" ">
<polygon fill="white" stroke="#666666" points="772,-19 610,-19 610,0 772,0 772,-19"/>
<text text-anchor="middle" x="691" y="-7" font-family="Helvetica,sans-Serif" font-size="10.00">Terraria.Collision.WetCollision</text>
</a>
</g>
</g>
<!-- Node9&#45;&gt;Node12 -->
<g id="edge12_Node000009_Node000012" class="edge">
<title>Node9&#45;&gt;Node12</title>
<g id="a_edge12_Node000009_Node000012"><a xlink:title=" ">
<path fill="none" stroke="#63b8ff" d="M548.04,-24.11C564.3,-22.44 582.18,-20.6 599.6,-18.81"/>
<polygon fill="#63b8ff" stroke="#63b8ff" points="600.2,-22.26 609.79,-17.76 599.48,-15.3 600.2,-22.26"/>
</a>
</g>
</g>
<!-- Node11 -->
<g id="Node000011" class="node">
<title>Node11</title>
<g id="a_Node000011"><a xlink:href="../../df/dd6/classTerraria_1_1ModLoader_1_1DustLoader_a0cb616c3c6776d3bba899e7f1fb0e221.html#a0cb616c3c6776d3bba899e7f1fb0e221" target="_top" xlink:title="Gets the ModDust instance with the given type. Returns null if no ModDust with the given type exists.">
<polygon fill="white" stroke="#666666" points="982,-67.5 812,-67.5 812,-37.5 982,-37.5 982,-67.5"/>
<text text-anchor="start" x="820" y="-55.5" font-family="Helvetica,sans-Serif" font-size="10.00">Terraria.ModLoader.DustLoader.</text>
<text text-anchor="middle" x="897" y="-44.5" font-family="Helvetica,sans-Serif" font-size="10.00">GetDust</text>
</a>
</g>
</g>
<!-- Node10&#45;&gt;Node11 -->
<g id="edge11_Node000010_Node000011" class="edge">
<title>Node10&#45;&gt;Node11</title>
<g id="a_edge11_Node000010_Node000011"><a xlink:title=" ">
<path fill="none" stroke="#63b8ff" d="M776.15,-52.5C784.5,-52.5 793.02,-52.5 801.46,-52.5"/>
<polygon fill="#63b8ff" stroke="#63b8ff" points="801.71,-56 811.71,-52.5 801.71,-49 801.71,-56"/>
</a>
</g>
</g>
</g>
</svg>
