<?xml version="1.0" encoding="UTF-8" standalone="no"?>
<!DOCTYPE svg PUBLIC "-//W3C//DTD SVG 1.1//EN"
 "http://www.w3.org/Graphics/SVG/1.1/DTD/svg11.dtd">
<!-- Generated by graphviz version 2.43.0 (0)
 -->
<!-- Title: Terraria.Main.UpdateWorldPreparationState Pages: 1 -->
<svg width="783pt" height="157pt"
 viewBox="0.00 0.00 783.00 157.00" xmlns="http://www.w3.org/2000/svg" xmlns:xlink="http://www.w3.org/1999/xlink">
<g id="graph0" class="graph" transform="scale(1 1) rotate(0) translate(4 153)">
<title>Terraria.Main.UpdateWorldPreparationState</title>
<!-- Node1 -->
<g id="Node000001" class="node">
<title>Node1</title>
<g id="a_Node000001"><a xlink:title=" ">
<polygon fill="#999999" stroke="#666666" points="146,-106 0,-106 0,-76 146,-76 146,-106"/>
<text text-anchor="start" x="8" y="-94" font-family="Helvetica,sans-Serif" font-size="10.00">Terraria.Main.UpdateWorld</text>
<text text-anchor="middle" x="73" y="-83" font-family="Helvetica,sans-Serif" font-size="10.00">PreparationState</text>
</a>
</g>
</g>
<!-- Node2 -->
<g id="Node000002" class="node">
<title>Node2</title>
<g id="a_Node000002"><a xlink:href="../../db/df5/classTerraria_1_1Chat_1_1ChatHelper_aceb26789b379f63cd4e106bc28c30dae.html#aceb26789b379f63cd4e106bc28c30dae" target="_top" xlink:title=" ">
<polygon fill="white" stroke="#666666" points="343,-149 182,-149 182,-119 343,-119 343,-149"/>
<text text-anchor="start" x="190" y="-137" font-family="Helvetica,sans-Serif" font-size="10.00">Terraria.Chat.ChatHelper.</text>
<text text-anchor="middle" x="262.5" y="-126" font-family="Helvetica,sans-Serif" font-size="10.00">ClearDelayedMessagesCache</text>
</a>
</g>
</g>
<!-- Node1&#45;&gt;Node2 -->
<g id="edge1_Node000001_Node000002" class="edge">
<title>Node1&#45;&gt;Node2</title>
<g id="a_edge1_Node000001_Node000002"><a xlink:title=" ">
<path fill="none" stroke="#63b8ff" d="M139.58,-106.04C154.57,-109.48 170.61,-113.16 185.98,-116.68"/>
<polygon fill="#63b8ff" stroke="#63b8ff" points="185.43,-120.15 195.96,-118.97 186.99,-113.32 185.43,-120.15"/>
</a>
</g>
</g>
<!-- Node3 -->
<g id="Node000003" class="node">
<title>Node3</title>
<g id="a_Node000003"><a xlink:href="../../da/dd5/classTerraria_1_1Main_a68706cde3048ea88bdf1d38fc919ed40.html#a68706cde3048ea88bdf1d38fc919ed40" target="_top" xlink:title=" ">
<polygon fill="white" stroke="#666666" points="329.5,-100.5 195.5,-100.5 195.5,-81.5 329.5,-81.5 329.5,-100.5"/>
<text text-anchor="middle" x="262.5" y="-88.5" font-family="Helvetica,sans-Serif" font-size="10.00">Terraria.Main.FixUIScale</text>
</a>
</g>
</g>
<!-- Node1&#45;&gt;Node3 -->
<g id="edge2_Node000001_Node000003" class="edge">
<title>Node1&#45;&gt;Node3</title>
<g id="a_edge2_Node000001_Node000003"><a xlink:title=" ">
<path fill="none" stroke="#63b8ff" d="M146.22,-91C159,-91 172.35,-91 185.24,-91"/>
<polygon fill="#63b8ff" stroke="#63b8ff" points="185.45,-94.5 195.45,-91 185.45,-87.5 185.45,-94.5"/>
</a>
</g>
</g>
<!-- Node4 -->
<g id="Node000004" class="node">
<title>Node4</title>
<g id="a_Node000004"><a xlink:href="../../db/df5/classTerraria_1_1Chat_1_1ChatHelper_a7069d6363604eab55ffd01e5cdd5fd76.html#a7069d6363604eab55ffd01e5cdd5fd76" target="_top" xlink:title=" ">
<polygon fill="white" stroke="#666666" points="332,-63 193,-63 193,-33 332,-33 332,-63"/>
<text text-anchor="start" x="201" y="-51" font-family="Helvetica,sans-Serif" font-size="10.00">Terraria.Chat.ChatHelper.</text>
<text text-anchor="middle" x="262.5" y="-40" font-family="Helvetica,sans-Serif" font-size="10.00">ShowCachedMessages</text>
</a>
</g>
</g>
<!-- Node1&#45;&gt;Node4 -->
<g id="edge3_Node000001_Node000004" class="edge">
<title>Node1&#45;&gt;Node4</title>
<g id="a_edge3_Node000001_Node000004"><a xlink:title=" ">
<path fill="none" stroke="#63b8ff" d="M139.58,-75.96C154.57,-72.52 170.61,-68.84 185.98,-65.32"/>
<polygon fill="#63b8ff" stroke="#63b8ff" points="186.99,-68.68 195.96,-63.03 185.43,-61.85 186.99,-68.68"/>
</a>
</g>
</g>
<!-- Node5 -->
<g id="Node000005" class="node">
<title>Node5</title>
<g id="a_Node000005"><a xlink:href="../../da/dd5/classTerraria_1_1Main_a41402a875e3c3ff608667d0637674539.html#a41402a875e3c3ff608667d0637674539" target="_top" xlink:title=" ">
<polygon fill="white" stroke="#666666" points="547,-57.5 379,-57.5 379,-38.5 547,-38.5 547,-57.5"/>
<text text-anchor="middle" x="463" y="-45.5" font-family="Helvetica,sans-Serif" font-size="10.00">Terraria.Main.NewTextMultiline</text>
</a>
</g>
</g>
<!-- Node4&#45;&gt;Node5 -->
<g id="edge4_Node000004_Node000005" class="edge">
<title>Node4&#45;&gt;Node5</title>
<g id="a_edge4_Node000004_Node000005"><a xlink:title=" ">
<path fill="none" stroke="#63b8ff" d="M332.09,-48C343.82,-48 356.19,-48 368.44,-48"/>
<polygon fill="#63b8ff" stroke="#63b8ff" points="368.68,-51.5 378.68,-48 368.68,-44.5 368.68,-51.5"/>
</a>
</g>
</g>
<!-- Node6 -->
<g id="Node000006" class="node">
<title>Node6</title>
<g id="a_Node000006"><a xlink:href="../../d3/daa/interfaceTerraria_1_1GameContent_1_1UI_1_1Chat_1_1IChatMonitor_a38805300297edfac20a1d6f8c2bc4bf1.html#a38805300297edfac20a1d6f8c2bc4bf1" target="_top" xlink:title=" ">
<polygon fill="white" stroke="#666666" points="775,-96 583,-96 583,-66 775,-66 775,-96"/>
<text text-anchor="start" x="591" y="-84" font-family="Helvetica,sans-Serif" font-size="10.00">Terraria.GameContent.UI.</text>
<text text-anchor="middle" x="679" y="-73" font-family="Helvetica,sans-Serif" font-size="10.00">Chat.IChatMonitor.NewTextMultiline</text>
</a>
</g>
</g>
<!-- Node5&#45;&gt;Node6 -->
<g id="edge5_Node000005_Node000006" class="edge">
<title>Node5&#45;&gt;Node6</title>
<g id="a_edge5_Node000005_Node000006"><a xlink:title=" ">
<path fill="none" stroke="#63b8ff" d="M525.61,-57.5C540.44,-59.79 556.69,-62.29 572.89,-64.79"/>
<polygon fill="#63b8ff" stroke="#63b8ff" points="572.54,-68.28 582.95,-66.34 573.6,-61.36 572.54,-68.28"/>
</a>
</g>
</g>
<!-- Node7 -->
<g id="Node000007" class="node">
<title>Node7</title>
<g id="a_Node000007"><a xlink:href="../../d3/d78/classTerraria_1_1Audio_1_1SoundEngine_af55950ae09b294fad1dd58e37fecf28b.html#af55950ae09b294fad1dd58e37fecf28b" target="_top" xlink:title="Attempts to play a sound style with the provided sound style (if it&#39;s not null), and returns a valid ...">
<polygon fill="white" stroke="#666666" points="755.5,-30 602.5,-30 602.5,0 755.5,0 755.5,-30"/>
<text text-anchor="start" x="610.5" y="-18" font-family="Helvetica,sans-Serif" font-size="10.00">Terraria.Audio.SoundEngine.</text>
<text text-anchor="middle" x="679" y="-7" font-family="Helvetica,sans-Serif" font-size="10.00">PlaySound</text>
</a>
</g>
</g>
<!-- Node5&#45;&gt;Node7 -->
<g id="edge6_Node000005_Node000007" class="edge">
<title>Node5&#45;&gt;Node7</title>
<g id="a_edge6_Node000005_Node000007"><a xlink:title=" ">
<path fill="none" stroke="#63b8ff" d="M525.61,-38.5C546.38,-35.3 569.96,-31.66 592.25,-28.22"/>
<polygon fill="#63b8ff" stroke="#63b8ff" points="593.04,-31.64 602.39,-26.66 591.97,-24.72 593.04,-31.64"/>
</a>
</g>
</g>
<!-- Node7&#45;&gt;Node7 -->
<g id="edge7_Node000007_Node000007" class="edge">
<title>Node7&#45;&gt;Node7</title>
<g id="a_edge7_Node000007_Node000007"><a xlink:title=" ">
<path fill="none" stroke="#63b8ff" d="M641.03,-30.28C632.59,-39.41 645.25,-48 679,-48 699.04,-48 711.64,-44.97 716.81,-40.6"/>
<polygon fill="#63b8ff" stroke="#63b8ff" points="720.31,-40.33 716.97,-30.28 713.31,-40.22 720.31,-40.33"/>
</a>
</g>
</g>
</g>
</svg>
