<?xml version="1.0" encoding="UTF-8" standalone="no"?>
<!DOCTYPE svg PUBLIC "-//W3C//DTD SVG 1.1//EN"
 "http://www.w3.org/Graphics/SVG/1.1/DTD/svg11.dtd">
<!-- Generated by graphviz version 2.43.0 (0)
 -->
<!-- Title: Terraria.Main.TeleportEffect Pages: 1 -->
<!--zoomable 516 -->

<svg id="main" version="1.1" xmlns="http://www.w3.org/2000/svg" xmlns:xlink="http://www.w3.org/1999/xlink" xml:space="preserve" onload="init(evt)">
<style type="text/css"><![CDATA[
.node, .edge {opacity: 0.7;}
.node.selected, .edge.selected {opacity: 1;}
.edge:hover path { stroke: red; }
.edge:hover polygon { stroke: red; fill: red; }
]]></style>

<defs>
  <circle id="rim" cx="0" cy="0" r="7"/>
  <circle id="rim2" cx="0" cy="0" r="3.5"/>
  <g id="zoomPlus">
    <use xlink:href="#rim" fill="#404040"><set attributeName="fill" to="#808080" begin="zoomplus.mouseover" end="zoomplus.mouseout"/></use>
    <path d="M-4,0h8M0,-4v8" fill="none" stroke="white" stroke-width="1.5" pointer-events="none"/>
  </g>
  <g id="zoomMin">
    <use xlink:href="#rim" fill="#404040"><set attributeName="fill" to="#808080" begin="zoomminus.mouseover" end="zoomminus.mouseout"/></use>
    <path d="M-4,0h8" fill="none" stroke="white" stroke-width="1.5" pointer-events="none"/>
  </g>
  <g id="arrowUp" transform="translate(30 24)">
    <use xlink:href="#rim"/>
    <path pointer-events="none" fill="none" stroke="white" stroke-width="1.5" d="M0,-3.0v7 M-2.5,-0.5L0,-3.0L2.5,-0.5"/>
  </g>
  <g id="arrowRight" transform="rotate(90) translate(36 -43)">
    <use xlink:href="#rim"/>
    <path pointer-events="none" fill="none" stroke="white" stroke-width="1.5" d="M0,-3.0v7 M-2.5,-0.5L0,-3.0L2.5,-0.5"/>
  </g>
  <g id="arrowDown" transform="rotate(180) translate(-30 -48)">
    <use xlink:href="#rim"/>
    <path pointer-events="none" fill="none" stroke="white" stroke-width="1.5" d="M0,-3.0v7 M-2.5,-0.5L0,-3.0L2.5,-0.5"/>
  </g>
  <g id="arrowLeft" transform="rotate(270) translate(-36 17)">
    <use xlink:href="#rim"/>
    <path pointer-events="none" fill="none" stroke="white" stroke-width="1.5" d="M0,-3.0v7 M-2.5,-0.5L0,-3.0L2.5,-0.5"/>
  </g>
  <g id="resetDef">
    <use xlink:href="#rim2" fill="#404040"><set attributeName="fill" to="#808080" begin="reset.mouseover" end="reset.mouseout"/></use>
  </g>
</defs>
<script type="application/ecmascript">
var viewWidth = 1535;
var viewHeight = 516;
var sectionId = 'dynsection-1';
</script>
<script type="application/ecmascript" xlink:href="../../svg.min.js"/>
<svg id="graph" class="graph">
<g id="viewport">
<title>Terraria.Main.TeleportEffect</title>
<!-- Node1 -->
<g id="Node000001" class="node">
<title>Node1</title>
<g id="a_Node000001"><a xlink:title=" ">
<polygon fill="#999999" stroke="#666666" points="1527,-288 1377,-288 1377,-269 1527,-269 1527,-288"/>
<text text-anchor="middle" x="1452" y="-276" font-family="Helvetica,sans-Serif" font-size="10.00">Terraria.Main.TeleportEffect</text>
</a>
</g>
</g>
<!-- Node2 -->
<g id="Node000002" class="node">
<title>Node2</title>
<g id="a_Node000002"><a xlink:href="../../df/d0d/classTerraria_1_1NPC_a23447ba356a9454d56d4339569adcc6d.html#a23447ba356a9454d56d4339569adcc6d" target="_top" xlink:title=" ">
<polygon fill="white" stroke="#666666" points="1336.5,-404 1217.5,-404 1217.5,-385 1336.5,-385 1336.5,-404"/>
<text text-anchor="middle" x="1277" y="-392" font-family="Helvetica,sans-Serif" font-size="10.00">Terraria.NPC.Teleport</text>
</a>
</g>
</g>
<!-- Node1&#45;&gt;Node2 -->
<g id="edge1_Node000001_Node000002" class="edge">
<title>Node1&#45;&gt;Node2</title>
<g id="a_edge1_Node000001_Node000002"><a xlink:title=" ">
<path fill="none" stroke="#63b8ff" d="M1428.09,-293.86C1391.82,-318.18 1322.24,-364.83 1292.29,-384.92"/>
<polygon fill="#63b8ff" stroke="#63b8ff" points="1430.19,-296.67 1436.55,-288.19 1426.29,-290.85 1430.19,-296.67"/>
</a>
</g>
</g>
<!-- Node8 -->
<g id="Node000008" class="node">
<title>Node8</title>
<g id="a_Node000008"><a xlink:href="../../d4/d03/classTerraria_1_1Player_a7a0d290c2f653cc222e91ce311b1840d.html#a7a0d290c2f653cc222e91ce311b1840d" target="_top" xlink:title=" ">
<polygon fill="white" stroke="#666666" points="1341,-270 1213,-270 1213,-251 1341,-251 1341,-270"/>
<text text-anchor="middle" x="1277" y="-258" font-family="Helvetica,sans-Serif" font-size="10.00">Terraria.Player.Teleport</text>
</a>
</g>
</g>
<!-- Node1&#45;&gt;Node8 -->
<g id="edge7_Node000001_Node000008" class="edge">
<title>Node1&#45;&gt;Node8</title>
<g id="a_edge7_Node000001_Node000008"><a xlink:title=" ">
<path fill="none" stroke="#63b8ff" d="M1366.76,-269.74C1358.12,-268.84 1349.44,-267.93 1341.08,-267.06"/>
<polygon fill="#63b8ff" stroke="#63b8ff" points="1366.57,-273.23 1376.88,-270.79 1367.3,-266.27 1366.57,-273.23"/>
</a>
</g>
</g>
<!-- Node3 -->
<g id="Node000003" class="node">
<title>Node3</title>
<g id="a_Node000003"><a xlink:href="../../df/d0d/classTerraria_1_1NPC_a79f2070799ef3105848968d9312f4017.html#a79f2070799ef3105848968d9312f4017" target="_top" xlink:title=" ">
<polygon fill="white" stroke="#666666" points="1132.5,-507.5 1019.5,-507.5 1019.5,-477.5 1132.5,-477.5 1132.5,-507.5"/>
<text text-anchor="start" x="1027.5" y="-495.5" font-family="Helvetica,sans-Serif" font-size="10.00">Terraria.NPC.AI_007</text>
<text text-anchor="middle" x="1076" y="-484.5" font-family="Helvetica,sans-Serif" font-size="10.00">_TownEntities</text>
</a>
</g>
</g>
<!-- Node2&#45;&gt;Node3 -->
<g id="edge2_Node000002_Node000003" class="edge">
<title>Node2&#45;&gt;Node3</title>
<g id="a_edge2_Node000002_Node000003"><a xlink:title=" ">
<path fill="none" stroke="#63b8ff" d="M1256.97,-410.62C1237.85,-426.09 1207,-449.17 1177,-463.5 1163.13,-470.12 1147.45,-475.54 1132.69,-479.83"/>
<polygon fill="#63b8ff" stroke="#63b8ff" points="1259.39,-413.16 1264.88,-404.1 1254.94,-407.76 1259.39,-413.16"/>
</a>
</g>
</g>
<!-- Node4 -->
<g id="Node000004" class="node">
<title>Node4</title>
<g id="a_Node000004"><a xlink:href="../../df/d0d/classTerraria_1_1NPC_ac6f711000642c6df97f8302ffd18927f.html#ac6f711000642c6df97f8302ffd18927f" target="_top" xlink:title=" ">
<polygon fill="white" stroke="#666666" points="899,-507.5 777,-507.5 777,-477.5 899,-477.5 899,-507.5"/>
<text text-anchor="start" x="785" y="-495.5" font-family="Helvetica,sans-Serif" font-size="10.00">Terraria.NPC.VanillaAI</text>
<text text-anchor="middle" x="838" y="-484.5" font-family="Helvetica,sans-Serif" font-size="10.00">_Inner</text>
</a>
</g>
</g>
<!-- Node3&#45;&gt;Node4 -->
<g id="edge3_Node000003_Node000004" class="edge">
<title>Node3&#45;&gt;Node4</title>
<g id="a_edge3_Node000003_Node000004"><a xlink:title=" ">
<path fill="none" stroke="#63b8ff" d="M1008.94,-492.5C974.52,-492.5 932.74,-492.5 899.22,-492.5"/>
<polygon fill="#63b8ff" stroke="#63b8ff" points="1009.37,-496 1019.37,-492.5 1009.37,-489 1009.37,-496"/>
</a>
</g>
</g>
<!-- Node5 -->
<g id="Node000005" class="node">
<title>Node5</title>
<g id="a_Node000005"><a xlink:href="../../df/d0d/classTerraria_1_1NPC_a86f20980341364904ef465f249f12f80.html#a86f20980341364904ef465f249f12f80" target="_top" xlink:title=" ">
<polygon fill="white" stroke="#666666" points="683,-502 561,-502 561,-483 683,-483 683,-502"/>
<text text-anchor="middle" x="622" y="-490" font-family="Helvetica,sans-Serif" font-size="10.00">Terraria.NPC.VanillaAI</text>
</a>
</g>
</g>
<!-- Node4&#45;&gt;Node5 -->
<g id="edge4_Node000004_Node000005" class="edge">
<title>Node4&#45;&gt;Node5</title>
<g id="a_edge4_Node000004_Node000005"><a xlink:title=" ">
<path fill="none" stroke="#63b8ff" d="M766.65,-492.5C739.64,-492.5 709.07,-492.5 683.1,-492.5"/>
<polygon fill="#63b8ff" stroke="#63b8ff" points="766.82,-496 776.82,-492.5 766.82,-489 766.82,-496"/>
</a>
</g>
</g>
<!-- Node6 -->
<g id="Node000006" class="node">
<title>Node6</title>
<g id="a_Node000006"><a xlink:href="../../dd/dc6/classTerraria_1_1ModLoader_1_1NPCLoader_a5075fa0ca2bdcf3208edfbcc6c567a74.html#a5075fa0ca2bdcf3208edfbcc6c567a74" target="_top" xlink:title=" ">
<polygon fill="white" stroke="#666666" points="507,-507.5 339,-507.5 339,-477.5 507,-477.5 507,-507.5"/>
<text text-anchor="start" x="347" y="-495.5" font-family="Helvetica,sans-Serif" font-size="10.00">Terraria.ModLoader.NPCLoader.</text>
<text text-anchor="middle" x="423" y="-484.5" font-family="Helvetica,sans-Serif" font-size="10.00">NPCAI</text>
</a>
</g>
</g>
<!-- Node5&#45;&gt;Node6 -->
<g id="edge5_Node000005_Node000006" class="edge">
<title>Node5&#45;&gt;Node6</title>
<g id="a_edge5_Node000005_Node000006"><a xlink:title=" ">
<path fill="none" stroke="#63b8ff" d="M550.69,-492.5C536.54,-492.5 521.55,-492.5 507.02,-492.5"/>
<polygon fill="#63b8ff" stroke="#63b8ff" points="550.82,-496 560.82,-492.5 550.82,-489 550.82,-496"/>
</a>
</g>
</g>
<!-- Node7 -->
<g id="Node000007" class="node">
<title>Node7</title>
<g id="a_Node000007"><a xlink:href="../../df/d0d/classTerraria_1_1NPC_af998ad2acbc8e9008e7d83aad42551f2.html#af998ad2acbc8e9008e7d83aad42551f2" target="_top" xlink:title=" ">
<polygon fill="white" stroke="#666666" points="276.5,-502 187.5,-502 187.5,-483 276.5,-483 276.5,-502"/>
<text text-anchor="middle" x="232" y="-490" font-family="Helvetica,sans-Serif" font-size="10.00">Terraria.NPC.AI</text>
</a>
</g>
</g>
<!-- Node6&#45;&gt;Node7 -->
<g id="edge6_Node000006_Node000007" class="edge">
<title>Node6&#45;&gt;Node7</title>
<g id="a_edge6_Node000006_Node000007"><a xlink:title=" ">
<path fill="none" stroke="#63b8ff" d="M328.71,-492.5C310.46,-492.5 292.15,-492.5 276.51,-492.5"/>
<polygon fill="#63b8ff" stroke="#63b8ff" points="328.83,-496 338.83,-492.5 328.83,-489 328.83,-496"/>
</a>
</g>
</g>
<!-- Node9 -->
<g id="Node000009" class="node">
<title>Node9</title>
<g id="a_Node000009"><a xlink:href="../../d4/d03/classTerraria_1_1Player_ada092c550e82f787ab895c334679be1c.html#ada092c550e82f787ab895c334679be1c" target="_top" xlink:title=" ">
<polygon fill="white" stroke="#666666" points="915.5,-459 760.5,-459 760.5,-440 915.5,-440 915.5,-459"/>
<text text-anchor="middle" x="838" y="-447" font-family="Helvetica,sans-Serif" font-size="10.00">Terraria.Player.DemonConch</text>
</a>
</g>
</g>
<!-- Node8&#45;&gt;Node9 -->
<g id="edge8_Node000008_Node000009" class="edge">
<title>Node8&#45;&gt;Node9</title>
<g id="a_edge8_Node000008_Node000009"><a xlink:title=" ">
<path fill="none" stroke="#63b8ff" d="M1265.71,-279.24C1241.88,-322.5 1184.36,-425.99 1177,-430.5 1134.78,-456.37 1001.71,-456.42 915.67,-453.43"/>
<polygon fill="#63b8ff" stroke="#63b8ff" points="1268.88,-280.75 1270.63,-270.3 1262.74,-277.38 1268.88,-280.75"/>
</a>
</g>
</g>
<!-- Node14 -->
<g id="Node000014" class="node">
<title>Node14</title>
<g id="a_Node000014"><a xlink:href="../../d4/d03/classTerraria_1_1Player_aa1657fa8e63cb3fee685b57ca72c5330.html#aa1657fa8e63cb3fee685b57ca72c5330" target="_top" xlink:title=" ">
<polygon fill="white" stroke="#666666" points="1175.5,-163.5 976.5,-163.5 976.5,-133.5 1175.5,-133.5 1175.5,-163.5"/>
<text text-anchor="start" x="984.5" y="-151.5" font-family="Helvetica,sans-Serif" font-size="10.00">Terraria.Player.DoPotion</text>
<text text-anchor="middle" x="1076" y="-140.5" font-family="Helvetica,sans-Serif" font-size="10.00">OfReturnReturnToOriginalUsePosition</text>
</a>
</g>
</g>
<!-- Node8&#45;&gt;Node14 -->
<g id="edge13_Node000008_Node000014" class="edge">
<title>Node8&#45;&gt;Node14</title>
<g id="a_edge13_Node000008_Node000014"><a xlink:title=" ">
<path fill="none" stroke="#63b8ff" d="M1261.37,-243.1C1243.51,-223.03 1211.43,-190.47 1177,-172.5 1170.43,-169.07 1163.36,-166.12 1156.13,-163.59"/>
<polygon fill="#63b8ff" stroke="#63b8ff" points="1258.91,-245.61 1268.11,-250.87 1264.19,-241.02 1258.91,-245.61"/>
</a>
</g>
</g>
<!-- Node16 -->
<g id="Node000016" class="node">
<title>Node16</title>
<g id="a_Node000016"><a xlink:href="../../d4/d03/classTerraria_1_1Player_aaa62fdb8e91d7ed2cab311e3a4b5f15d.html#aaa62fdb8e91d7ed2cab311e3a4b5f15d" target="_top" xlink:title=" ">
<polygon fill="white" stroke="#666666" points="1157,-115.5 995,-115.5 995,-85.5 1157,-85.5 1157,-115.5"/>
<text text-anchor="start" x="1003" y="-103.5" font-family="Helvetica,sans-Serif" font-size="10.00">Terraria.Player.DoQueenSlime</text>
<text text-anchor="middle" x="1076" y="-92.5" font-family="Helvetica,sans-Serif" font-size="10.00">HookTeleport</text>
</a>
</g>
</g>
<!-- Node8&#45;&gt;Node16 -->
<g id="edge15_Node000008_Node000016" class="edge">
<title>Node8&#45;&gt;Node16</title>
<g id="a_edge15_Node000008_Node000016"><a xlink:title=" ">
<path fill="none" stroke="#63b8ff" d="M1267.58,-241.49C1253.38,-211.71 1221.76,-154.38 1177,-124.5 1170.91,-120.44 1164.21,-117.06 1157.24,-114.25"/>
<polygon fill="#63b8ff" stroke="#63b8ff" points="1264.5,-243.17 1271.87,-250.78 1270.86,-240.24 1264.5,-243.17"/>
</a>
</g>
</g>
<!-- Node17 -->
<g id="Node000017" class="node">
<title>Node17</title>
<g id="a_Node000017"><a xlink:href="../../d7/d15/classTerraria_1_1GameContent_1_1TeleportPylonsSystem_a1eaf25bb8db51787f9e2614918a39104.html#a1eaf25bb8db51787f9e2614918a39104" target="_top" xlink:title=" ">
<polygon fill="white" stroke="#666666" points="1177,-67.5 975,-67.5 975,-37.5 1177,-37.5 1177,-67.5"/>
<text text-anchor="start" x="983" y="-55.5" font-family="Helvetica,sans-Serif" font-size="10.00">Terraria.GameContent.Teleport</text>
<text text-anchor="middle" x="1076" y="-44.5" font-family="Helvetica,sans-Serif" font-size="10.00">PylonsSystem.HandleTeleportRequest</text>
</a>
</g>
</g>
<!-- Node8&#45;&gt;Node17 -->
<g id="edge16_Node000008_Node000017" class="edge">
<title>Node8&#45;&gt;Node17</title>
<g id="a_edge16_Node000008_Node000017"><a xlink:title=" ">
<path fill="none" stroke="#63b8ff" d="M1271.18,-240.83C1260.82,-202.85 1232.71,-119.41 1177,-76.5 1172.62,-73.12 1167.83,-70.21 1162.79,-67.7"/>
<polygon fill="#63b8ff" stroke="#63b8ff" points="1267.83,-241.86 1273.74,-250.66 1274.61,-240.1 1267.83,-241.86"/>
</a>
</g>
</g>
<!-- Node18 -->
<g id="Node000018" class="node">
<title>Node18</title>
<g id="a_Node000018"><a xlink:href="../../d4/d03/classTerraria_1_1Player_a6b63b63dfd8795c12f73c3a920454d0d.html#a6b63b63dfd8795c12f73c3a920454d0d" target="_top" xlink:title=" ">
<polygon fill="white" stroke="#666666" points="1147,-421.5 1005,-421.5 1005,-391.5 1147,-391.5 1147,-421.5"/>
<text text-anchor="start" x="1013" y="-409.5" font-family="Helvetica,sans-Serif" font-size="10.00">Terraria.Player.ItemCheck</text>
<text text-anchor="middle" x="1076" y="-398.5" font-family="Helvetica,sans-Serif" font-size="10.00">_UseTeleportRod</text>
</a>
</g>
</g>
<!-- Node8&#45;&gt;Node18 -->
<g id="edge17_Node000008_Node000018" class="edge">
<title>Node8&#45;&gt;Node18</title>
<g id="a_edge17_Node000008_Node000018"><a xlink:title=" ">
<path fill="none" stroke="#63b8ff" d="M1265.4,-278.8C1249.48,-304.65 1216.99,-351.56 1177,-377.5 1167.9,-383.4 1157.57,-388.13 1147.09,-391.91"/>
<polygon fill="#63b8ff" stroke="#63b8ff" points="1268.52,-280.39 1270.66,-270.02 1262.52,-276.79 1268.52,-280.39"/>
</a>
</g>
</g>
<!-- Node20 -->
<g id="Node000020" class="node">
<title>Node20</title>
<g id="a_Node000020"><a xlink:href="../../d4/d03/classTerraria_1_1Player_a092ecc112d6abc32a2d66b37b44e4253.html#a092ecc112d6abc32a2d66b37b44e4253" target="_top" xlink:title=" ">
<polygon fill="white" stroke="#666666" points="912.5,-373 763.5,-373 763.5,-354 912.5,-354 912.5,-373"/>
<text text-anchor="middle" x="838" y="-361" font-family="Helvetica,sans-Serif" font-size="10.00">Terraria.Player.MagicConch</text>
</a>
</g>
</g>
<!-- Node8&#45;&gt;Node20 -->
<g id="edge20_Node000008_Node000020" class="edge">
<title>Node8&#45;&gt;Node20</title>
<g id="a_edge20_Node000008_Node000020"><a xlink:title=" ">
<path fill="none" stroke="#63b8ff" d="M1258.74,-277.02C1240.18,-293.68 1208.99,-318.59 1177,-330.5 1090.25,-362.8 982.78,-367.89 912.63,-367"/>
<polygon fill="#63b8ff" stroke="#63b8ff" points="1261.36,-279.37 1266.34,-270.02 1256.61,-274.22 1261.36,-279.37"/>
</a>
</g>
</g>
<!-- Node21 -->
<g id="Node000021" class="node">
<title>Node21</title>
<g id="a_Node000021"><a xlink:href="../../d4/d03/classTerraria_1_1Player_a0a8f0faf8e97ec283a8888bea1dfdbe1.html#a0a8f0faf8e97ec283a8888bea1dfdbe1" target="_top" xlink:title=" ">
<polygon fill="white" stroke="#666666" points="909.5,-335.5 766.5,-335.5 766.5,-305.5 909.5,-305.5 909.5,-335.5"/>
<text text-anchor="start" x="774.5" y="-323.5" font-family="Helvetica,sans-Serif" font-size="10.00">Terraria.Player.Shellphone</text>
<text text-anchor="middle" x="838" y="-312.5" font-family="Helvetica,sans-Serif" font-size="10.00">_Spawn</text>
</a>
</g>
</g>
<!-- Node8&#45;&gt;Node21 -->
<g id="edge22_Node000008_Node000021" class="edge">
<title>Node8&#45;&gt;Node21</title>
<g id="a_edge22_Node000008_Node000021"><a xlink:title=" ">
<path fill="none" stroke="#63b8ff" d="M1251.8,-275.04C1232.34,-285.91 1203.91,-299.97 1177,-306.5 1086.68,-328.43 978.87,-328.6 909.7,-325.53"/>
<polygon fill="#63b8ff" stroke="#63b8ff" points="1253.65,-278.02 1260.59,-270.01 1250.17,-271.94 1253.65,-278.02"/>
</a>
</g>
</g>
<!-- Node22 -->
<g id="Node000022" class="node">
<title>Node22</title>
<g id="a_Node000022"><a xlink:href="../../d4/d03/classTerraria_1_1Player_ad1ef88d280981f35d4c9ee9053b2c1df.html#ad1ef88d280981f35d4c9ee9053b2c1df" target="_top" xlink:title=" ">
<polygon fill="white" stroke="#666666" points="1162.5,-249 989.5,-249 989.5,-230 1162.5,-230 1162.5,-249"/>
<text text-anchor="middle" x="1076" y="-237" font-family="Helvetica,sans-Serif" font-size="10.00">Terraria.Player.ShimmerUnstuck</text>
</a>
</g>
</g>
<!-- Node8&#45;&gt;Node22 -->
<g id="edge24_Node000008_Node000022" class="edge">
<title>Node8&#45;&gt;Node22</title>
<g id="a_edge24_Node000008_Node000022"><a xlink:title=" ">
<path fill="none" stroke="#63b8ff" d="M1202.51,-252.74C1189.52,-251.37 1175.91,-249.94 1162.63,-248.54"/>
<polygon fill="#63b8ff" stroke="#63b8ff" points="1202.45,-256.26 1212.76,-253.83 1203.18,-249.3 1202.45,-256.26"/>
</a>
</g>
</g>
<!-- Node24 -->
<g id="Node000024" class="node">
<title>Node24</title>
<g id="a_Node000024"><a xlink:href="../../d4/d03/classTerraria_1_1Player_a90e7104d0906da9dba58e1bc218e7cb8.html#a90e7104d0906da9dba58e1bc218e7cb8" target="_top" xlink:title=" ">
<polygon fill="white" stroke="#666666" points="1152.5,-297.5 999.5,-297.5 999.5,-267.5 1152.5,-267.5 1152.5,-297.5"/>
<text text-anchor="start" x="1007.5" y="-285.5" font-family="Helvetica,sans-Serif" font-size="10.00">Terraria.Player.Teleportation</text>
<text text-anchor="middle" x="1076" y="-274.5" font-family="Helvetica,sans-Serif" font-size="10.00">Potion</text>
</a>
</g>
</g>
<!-- Node8&#45;&gt;Node24 -->
<g id="edge27_Node000008_Node000024" class="edge">
<title>Node8&#45;&gt;Node24</title>
<g id="a_edge27_Node000008_Node000024"><a xlink:title=" ">
<path fill="none" stroke="#63b8ff" d="M1202.74,-268.6C1186.4,-270.41 1169.04,-272.32 1152.61,-274.14"/>
<polygon fill="#63b8ff" stroke="#63b8ff" points="1203.21,-272.07 1212.76,-267.49 1202.44,-265.11 1203.21,-272.07"/>
</a>
</g>
</g>
<!-- Node25 -->
<g id="Node000025" class="node">
<title>Node25</title>
<g id="a_Node000025"><a xlink:href="../../d1/db7/classTerraria_1_1GameContent_1_1PortalHelper_ab311e4127189f0fcb0e8dcc57a39e62c.html#ab311e4127189f0fcb0e8dcc57a39e62c" target="_top" xlink:title=" ">
<polygon fill="white" stroke="#666666" points="1159.5,-211.5 992.5,-211.5 992.5,-181.5 1159.5,-181.5 1159.5,-211.5"/>
<text text-anchor="start" x="1000.5" y="-199.5" font-family="Helvetica,sans-Serif" font-size="10.00">Terraria.GameContent.Portal</text>
<text text-anchor="middle" x="1076" y="-188.5" font-family="Helvetica,sans-Serif" font-size="10.00">Helper.TryGoingThroughPortals</text>
</a>
</g>
</g>
<!-- Node8&#45;&gt;Node25 -->
<g id="edge29_Node000008_Node000025" class="edge">
<title>Node8&#45;&gt;Node25</title>
<g id="a_edge29_Node000008_Node000025"><a xlink:title=" ">
<path fill="none" stroke="#63b8ff" d="M1245.86,-246.96C1226.46,-238.59 1200.56,-228.04 1177,-220.5 1166.97,-217.29 1156.25,-214.28 1145.69,-211.56"/>
<polygon fill="#63b8ff" stroke="#63b8ff" points="1244.53,-250.2 1255.09,-250.99 1247.33,-243.78 1244.53,-250.2"/>
</a>
</g>
</g>
<!-- Node28 -->
<g id="Node000028" class="node">
<title>Node28</title>
<g id="a_Node000028"><a xlink:href="../../d4/d03/classTerraria_1_1Player_a56746762d52380b0847cbd00a9dd07d9.html#a56746762d52380b0847cbd00a9dd07d9" target="_top" xlink:title=" ">
<polygon fill="white" stroke="#666666" points="1153.5,-19 998.5,-19 998.5,0 1153.5,0 1153.5,-19"/>
<text text-anchor="middle" x="1076" y="-7" font-family="Helvetica,sans-Serif" font-size="10.00">Terraria.Player.UnityTeleport</text>
</a>
</g>
</g>
<!-- Node8&#45;&gt;Node28 -->
<g id="edge33_Node000008_Node000028" class="edge">
<title>Node8&#45;&gt;Node28</title>
<g id="a_edge33_Node000008_Node000028"><a xlink:title=" ">
<path fill="none" stroke="#63b8ff" d="M1273.75,-240.6C1267.49,-195.2 1245.56,-83.68 1177,-28.5 1170.12,-22.96 1162.11,-18.86 1153.67,-15.85"/>
<polygon fill="#63b8ff" stroke="#63b8ff" points="1270.29,-241.16 1275.02,-250.64 1277.24,-240.28 1270.29,-241.16"/>
</a>
</g>
</g>
<!-- Node10 -->
<g id="Node000010" class="node">
<title>Node10</title>
<g id="a_Node000010"><a xlink:href="../../d4/d03/classTerraria_1_1Player_a3eacd4d33ca74609db3633d339c047f8.html#a3eacd4d33ca74609db3633d339c047f8" target="_top" xlink:title=" ">
<polygon fill="white" stroke="#666666" points="693,-356.5 551,-356.5 551,-326.5 693,-326.5 693,-356.5"/>
<text text-anchor="start" x="559" y="-344.5" font-family="Helvetica,sans-Serif" font-size="10.00">Terraria.Player.ItemCheck</text>
<text text-anchor="middle" x="622" y="-333.5" font-family="Helvetica,sans-Serif" font-size="10.00">_Inner</text>
</a>
</g>
</g>
<!-- Node9&#45;&gt;Node10 -->
<g id="edge9_Node000009_Node000010" class="edge">
<title>Node9&#45;&gt;Node10</title>
<g id="a_edge9_Node000009_Node000010"><a xlink:title=" ">
<path fill="none" stroke="#63b8ff" d="M754.75,-437.19C748.63,-435.28 742.65,-433.06 737,-430.5 696.75,-412.27 657.96,-377.04 637.65,-356.8"/>
<polygon fill="#63b8ff" stroke="#63b8ff" points="753.87,-440.58 764.44,-439.97 755.79,-433.85 753.87,-440.58"/>
</a>
</g>
</g>
<!-- Node11 -->
<g id="Node000011" class="node">
<title>Node11</title>
<g id="a_Node000011"><a xlink:href="../../d4/d03/classTerraria_1_1Player_a2ec9343f552a36a4a82b36dbae10c965.html#a2ec9343f552a36a4a82b36dbae10c965" target="_top" xlink:title=" ">
<polygon fill="white" stroke="#666666" points="494,-335 352,-335 352,-316 494,-316 494,-335"/>
<text text-anchor="middle" x="423" y="-323" font-family="Helvetica,sans-Serif" font-size="10.00">Terraria.Player.ItemCheck</text>
</a>
</g>
</g>
<!-- Node10&#45;&gt;Node11 -->
<g id="edge10_Node000010_Node000011" class="edge">
<title>Node10&#45;&gt;Node11</title>
<g id="a_edge10_Node000010_Node000011"><a xlink:title=" ">
<path fill="none" stroke="#63b8ff" d="M540.91,-335C525.41,-333.74 509.27,-332.43 494.12,-331.19"/>
<polygon fill="#63b8ff" stroke="#63b8ff" points="540.74,-338.49 550.99,-335.81 541.31,-331.52 540.74,-338.49"/>
</a>
</g>
</g>
<!-- Node12 -->
<g id="Node000012" class="node">
<title>Node12</title>
<g id="a_Node000012"><a xlink:href="../../d4/d03/classTerraria_1_1Player_a687261287a0d6ac3be2592f9a734f199.html#a687261287a0d6ac3be2592f9a734f199" target="_top" xlink:title=" ">
<polygon fill="white" stroke="#666666" points="303,-332.5 161,-332.5 161,-302.5 303,-302.5 303,-332.5"/>
<text text-anchor="start" x="169" y="-320.5" font-family="Helvetica,sans-Serif" font-size="10.00">Terraria.Player.ItemCheck</text>
<text text-anchor="middle" x="232" y="-309.5" font-family="Helvetica,sans-Serif" font-size="10.00">Wrapped</text>
</a>
</g>
</g>
<!-- Node11&#45;&gt;Node12 -->
<g id="edge11_Node000011_Node000012" class="edge">
<title>Node11&#45;&gt;Node12</title>
<g id="a_edge11_Node000011_Node000012"><a xlink:title=" ">
<path fill="none" stroke="#63b8ff" d="M341.74,-322.1C328.96,-321.56 315.83,-321.01 303.31,-320.48"/>
<polygon fill="#63b8ff" stroke="#63b8ff" points="341.75,-325.61 351.89,-322.53 342.05,-318.61 341.75,-325.61"/>
</a>
</g>
</g>
<!-- Node13 -->
<g id="Node000013" class="node">
<title>Node13</title>
<g id="a_Node000013"><a xlink:href="../../d4/d03/classTerraria_1_1Player_af44290f5d38b6d5076a5fa8d6ee3dd12.html#af44290f5d38b6d5076a5fa8d6ee3dd12" target="_top" xlink:title=" ">
<polygon fill="white" stroke="#666666" points="125,-254 0,-254 0,-235 125,-235 125,-254"/>
<text text-anchor="middle" x="62.5" y="-242" font-family="Helvetica,sans-Serif" font-size="10.00">Terraria.Player.Update</text>
</a>
</g>
</g>
<!-- Node12&#45;&gt;Node13 -->
<g id="edge12_Node000012_Node000013" class="edge">
<title>Node12&#45;&gt;Node13</title>
<g id="a_edge12_Node000012_Node000013"><a xlink:title=" ">
<path fill="none" stroke="#63b8ff" d="M186.95,-298.3C154.25,-284.05 111.05,-265.22 85.38,-254.04"/>
<polygon fill="#63b8ff" stroke="#63b8ff" points="185.73,-301.59 196.29,-302.37 188.53,-295.17 185.73,-301.59"/>
</a>
</g>
</g>
<!-- Node15 -->
<g id="Node000015" class="node">
<title>Node15</title>
<g id="a_Node000015"><a xlink:href="../../dc/d37/classTerraria_1_1GameContent_1_1ObjectInteractions_1_1PotionOfReturnGateInteractionChecker_a8621d55932d106e6139b80a0d7435bd1.html#a8621d55932d106e6139b80a0d7435bd1" target="_top" xlink:title=" ">
<polygon fill="white" stroke="#666666" points="939,-136 737,-136 737,-95 939,-95 939,-136"/>
<text text-anchor="start" x="745" y="-124" font-family="Helvetica,sans-Serif" font-size="10.00">Terraria.GameContent.Object</text>
<text text-anchor="start" x="745" y="-113" font-family="Helvetica,sans-Serif" font-size="10.00">Interactions.PotionOfReturnGate</text>
<text text-anchor="middle" x="838" y="-102" font-family="Helvetica,sans-Serif" font-size="10.00">InteractionChecker.PerformInteraction</text>
</a>
</g>
</g>
<!-- Node14&#45;&gt;Node15 -->
<g id="edge14_Node000014_Node000015" class="edge">
<title>Node14&#45;&gt;Node15</title>
<g id="a_edge14_Node000014_Node000015"><a xlink:title=" ">
<path fill="none" stroke="#63b8ff" d="M966.18,-133.28C957.19,-132.03 948.14,-130.76 939.22,-129.51"/>
<polygon fill="#63b8ff" stroke="#63b8ff" points="965.89,-136.78 976.28,-134.7 966.86,-129.85 965.89,-136.78"/>
</a>
</g>
</g>
<!-- Node19 -->
<g id="Node000019" class="node">
<title>Node19</title>
<g id="a_Node000019"><a xlink:href="../../d4/d03/classTerraria_1_1Player_ac1293a17d359c543df00ce543ac20f02.html#ac1293a17d359c543df00ce543ac20f02" target="_top" xlink:title=" ">
<polygon fill="white" stroke="#666666" points="909,-421.5 767,-421.5 767,-391.5 909,-391.5 909,-421.5"/>
<text text-anchor="start" x="775" y="-409.5" font-family="Helvetica,sans-Serif" font-size="10.00">Terraria.Player.ItemCheck</text>
<text text-anchor="middle" x="838" y="-398.5" font-family="Helvetica,sans-Serif" font-size="10.00">_OwnerOnlyCode</text>
</a>
</g>
</g>
<!-- Node18&#45;&gt;Node19 -->
<g id="edge18_Node000018_Node000019" class="edge">
<title>Node18&#45;&gt;Node19</title>
<g id="a_edge18_Node000018_Node000019"><a xlink:title=" ">
<path fill="none" stroke="#63b8ff" d="M994.77,-406.5C967.03,-406.5 936.18,-406.5 909.31,-406.5"/>
<polygon fill="#63b8ff" stroke="#63b8ff" points="994.83,-410 1004.83,-406.5 994.83,-403 994.83,-410"/>
</a>
</g>
</g>
<!-- Node19&#45;&gt;Node10 -->
<g id="edge19_Node000019_Node000010" class="edge">
<title>Node19&#45;&gt;Node10</title>
<g id="a_edge19_Node000019_Node000010"><a xlink:title=" ">
<path fill="none" stroke="#63b8ff" d="M759.92,-388.9C752.15,-386.86 744.4,-384.71 737,-382.5 711.51,-374.88 683.37,-364.78 661.43,-356.51"/>
<polygon fill="#63b8ff" stroke="#63b8ff" points="759.2,-392.33 769.76,-391.43 760.95,-385.55 759.2,-392.33"/>
</a>
</g>
</g>
<!-- Node20&#45;&gt;Node10 -->
<g id="edge21_Node000020_Node000010" class="edge">
<title>Node20&#45;&gt;Node10</title>
<g id="a_edge21_Node000020_Node000010"><a xlink:title=" ">
<path fill="none" stroke="#63b8ff" d="M753.37,-354.9C733.46,-352.86 712.41,-350.69 693.17,-348.71"/>
<polygon fill="#63b8ff" stroke="#63b8ff" points="753.05,-358.39 763.35,-355.93 753.76,-351.42 753.05,-358.39"/>
</a>
</g>
</g>
<!-- Node21&#45;&gt;Node10 -->
<g id="edge23_Node000021_Node000010" class="edge">
<title>Node21&#45;&gt;Node10</title>
<g id="a_edge23_Node000021_Node000010"><a xlink:title=" ">
<path fill="none" stroke="#63b8ff" d="M756.28,-328.42C735.54,-330.46 713.39,-332.63 693.23,-334.61"/>
<polygon fill="#63b8ff" stroke="#63b8ff" points="756.72,-331.89 766.34,-327.43 756.04,-324.93 756.72,-331.89"/>
</a>
</g>
</g>
<!-- Node23 -->
<g id="Node000023" class="node">
<title>Node23</title>
<g id="a_Node000023"><a xlink:href="../../d4/d03/classTerraria_1_1Player_a5213eae3a921d3890a7685dd43a2b79e.html#a5213eae3a921d3890a7685dd43a2b79e" target="_top" xlink:title=" ">
<polygon fill="white" stroke="#666666" points="701,-259.5 543,-259.5 543,-229.5 701,-229.5 701,-259.5"/>
<text text-anchor="start" x="551" y="-247.5" font-family="Helvetica,sans-Serif" font-size="10.00">Terraria.Player.TryToShimmer</text>
<text text-anchor="middle" x="622" y="-236.5" font-family="Helvetica,sans-Serif" font-size="10.00">Unstuck</text>
</a>
</g>
</g>
<!-- Node22&#45;&gt;Node23 -->
<g id="edge25_Node000022_Node000023" class="edge">
<title>Node22&#45;&gt;Node23</title>
<g id="a_edge25_Node000022_Node000023"><a xlink:title=" ">
<path fill="none" stroke="#63b8ff" d="M979.28,-240.56C896.46,-241.47 778.2,-242.78 701.03,-243.64"/>
<polygon fill="#63b8ff" stroke="#63b8ff" points="979.49,-244.06 989.45,-240.45 979.41,-237.06 979.49,-244.06"/>
</a>
</g>
</g>
<!-- Node23&#45;&gt;Node13 -->
<g id="edge26_Node000023_Node000013" class="edge">
<title>Node23&#45;&gt;Node13</title>
<g id="a_edge26_Node000023_Node000013"><a xlink:title=" ">
<path fill="none" stroke="#63b8ff" d="M532.83,-244.5C419.12,-244.5 224.24,-244.5 125.19,-244.5"/>
<polygon fill="#63b8ff" stroke="#63b8ff" points="532.9,-248 542.89,-244.5 532.89,-241 532.9,-248"/>
</a>
</g>
</g>
<!-- Node24&#45;&gt;Node10 -->
<g id="edge28_Node000024_Node000010" class="edge">
<title>Node24&#45;&gt;Node10</title>
<g id="a_edge28_Node000024_Node000010"><a xlink:title=" ">
<path fill="none" stroke="#63b8ff" d="M988.89,-278.22C919.99,-276.66 821.3,-278.65 737,-296.5 707.44,-302.76 675.6,-315.92 653.1,-326.4"/>
<polygon fill="#63b8ff" stroke="#63b8ff" points="989.17,-281.72 999.26,-278.48 989.35,-274.73 989.17,-281.72"/>
</a>
</g>
</g>
<!-- Node26 -->
<g id="Node000026" class="node">
<title>Node26</title>
<g id="a_Node000026"><a xlink:href="../../df/d0d/classTerraria_1_1NPC_a8402594633a7835a037455f2058677d7.html#a8402594633a7835a037455f2058677d7" target="_top" xlink:title=" ">
<polygon fill="white" stroke="#666666" points="919,-173 757,-173 757,-154 919,-154 919,-173"/>
<text text-anchor="middle" x="838" y="-161" font-family="Helvetica,sans-Serif" font-size="10.00">Terraria.NPC.TryPortalJumping</text>
</a>
</g>
</g>
<!-- Node25&#45;&gt;Node26 -->
<g id="edge30_Node000025_Node000026" class="edge">
<title>Node25&#45;&gt;Node26</title>
<g id="a_edge30_Node000025_Node000026"><a xlink:title=" ">
<path fill="none" stroke="#63b8ff" d="M982.54,-183.57C957.38,-180.05 930.59,-176.31 907.05,-173.02"/>
<polygon fill="#63b8ff" stroke="#63b8ff" points="982.07,-187.04 992.46,-184.96 983.04,-180.11 982.07,-187.04"/>
</a>
</g>
</g>
<!-- Node27 -->
<g id="Node000027" class="node">
<title>Node27</title>
<g id="a_Node000027"><a xlink:href="../../d4/d03/classTerraria_1_1Player_ae15feabf03faf37b2c7d5752141b2a6f.html#ae15feabf03faf37b2c7d5752141b2a6f" target="_top" xlink:title=" ">
<polygon fill="white" stroke="#666666" points="489,-216.5 357,-216.5 357,-186.5 489,-186.5 489,-216.5"/>
<text text-anchor="start" x="365" y="-204.5" font-family="Helvetica,sans-Serif" font-size="10.00">Terraria.Player.TryPortal</text>
<text text-anchor="middle" x="423" y="-193.5" font-family="Helvetica,sans-Serif" font-size="10.00">Jumping</text>
</a>
</g>
</g>
<!-- Node25&#45;&gt;Node27 -->
<g id="edge31_Node000025_Node000027" class="edge">
<title>Node25&#45;&gt;Node27</title>
<g id="a_edge31_Node000025_Node000027"><a xlink:title=" ">
<path fill="none" stroke="#63b8ff" d="M982,-197.21C848.3,-198.24 605.14,-200.11 489.06,-201"/>
<polygon fill="#63b8ff" stroke="#63b8ff" points="982.25,-200.71 992.22,-197.14 982.19,-193.71 982.25,-200.71"/>
</a>
</g>
</g>
<!-- Node27&#45;&gt;Node13 -->
<g id="edge32_Node000027_Node000013" class="edge">
<title>Node27&#45;&gt;Node13</title>
<g id="a_edge32_Node000027_Node000013"><a xlink:title=" ">
<path fill="none" stroke="#63b8ff" d="M346.6,-209.23C294.43,-214.74 223.43,-222.55 161,-230.5 149.38,-231.98 137,-233.67 125.09,-235.35"/>
<polygon fill="#63b8ff" stroke="#63b8ff" points="347.19,-212.69 356.77,-208.16 346.46,-205.73 347.19,-212.69"/>
</a>
</g>
</g>
</g>
</svg>

<g id="navigator" transform="translate(0 0)" fill="#404254">
  <rect fill="#f2f5e9" fill-opacity="0.5" stroke="#606060" stroke-width=".5" x="0" y="0" width="60" height="60"/>
  <use id="zoomplus" xlink:href="#zoomPlus" x="17" y="9" onmousedown="handleZoom(evt,'in')"/>
  <use id="zoomminus" xlink:href="#zoomMin" x="42" y="9" onmousedown="handleZoom(evt,'out')"/>
  <use id="reset" xlink:href="#resetDef" x="30" y="36" onmousedown="handleReset()"/>
   <use id="arrowup" xlink:href="#arrowUp" x="0" y="0" onmousedown="handlePan(0,-1)"/>
  <use id="arrowright" xlink:href="#arrowRight" x="0" y="0" onmousedown="handlePan(1,0)"/>
  <use id="arrowdown" xlink:href="#arrowDown" x="0" y="0" onmousedown="handlePan(0,1)"/>
  <use id="arrowleft" xlink:href="#arrowLeft" x="0" y="0" onmousedown="handlePan(-1,0)"/>
</g>
<svg viewBox="0 0 15 15" width="100%" height="30px" preserveAspectRatio="xMaxYMin meet">
 <g id="arrow_out" transform="scale(0.3 0.3)">
  <a xlink:href="classTerraria_1_1Main_a048037f3d7aab6166c98b4d7adab3fb3_a048037f3d7aab6166c98b4d7adab3fb3_icgraph_org.svg" target="_base">
   <rect id="button" ry="5" rx="5" y="6" x="6" height="38" width="38"
        fill="#f2f5e9" fill-opacity="0.5" stroke="#606060" stroke-width="1.0"/>
   <path id="arrow"
     d="M 11.500037,31.436501 C 11.940474,20.09759 22.043105,11.32322 32.158766,21.979434 L 37.068811,17.246167 C 37.068811,17.246167 37.088388,32 37.088388,32 L 22.160133,31.978069 C 22.160133,31.978069 26.997745,27.140456 26.997745,27.140456 C 18.528582,18.264221 13.291696,25.230495 11.500037,31.436501 z"
     style="fill:#404040;"/>
  </a>
 </g>
</svg>

<style type='text/css'>
<![CDATA[
[data-mouse-over-selected='false'] { opacity: 0.7; }
[data-mouse-over-selected='true']  { opacity: 1.0; }
]]>
</style>
<script type="application/ecmascript"><![CDATA[
document.addEventListener('DOMContentLoaded', (event) => {
  highlightEdges();
  highlightAdjacentNodes();
});
]]></script>
</svg>
