<?xml version="1.0" encoding="UTF-8" standalone="no"?>
<!DOCTYPE svg PUBLIC "-//W3C//DTD SVG 1.1//EN"
 "http://www.w3.org/Graphics/SVG/1.1/DTD/svg11.dtd">
<!-- Generated by graphviz version 2.43.0 (0)
 -->
<!-- Title: Terraria.Main.SetFullScreen Pages: 1 -->
<svg width="595pt" height="210pt"
 viewBox="0.00 0.00 595.00 210.00" xmlns="http://www.w3.org/2000/svg" xmlns:xlink="http://www.w3.org/1999/xlink">
<g id="graph0" class="graph" transform="scale(1 1) rotate(0) translate(4 206)">
<title>Terraria.Main.SetFullScreen</title>
<!-- Node1 -->
<g id="Node000001" class="node">
<title>Node1</title>
<g id="a_Node000001"><a xlink:title=" ">
<polygon fill="#999999" stroke="#666666" points="149,-128.5 0,-128.5 0,-109.5 149,-109.5 149,-128.5"/>
<text text-anchor="middle" x="74.5" y="-116.5" font-family="Helvetica,sans-Serif" font-size="10.00">Terraria.Main.SetFullScreen</text>
</a>
</g>
</g>
<!-- Node2 -->
<g id="Node000002" class="node">
<title>Node2</title>
<g id="a_Node000002"><a xlink:href="../../da/dd5/classTerraria_1_1Main_a07791a8bcddb44ddfec0cf11bb2574c1.html#a07791a8bcddb44ddfec0cf11bb2574c1" target="_top" xlink:title=" ">
<polygon fill="white" stroke="#666666" points="346.5,-147.5 186.5,-147.5 186.5,-128.5 346.5,-128.5 346.5,-147.5"/>
<text text-anchor="middle" x="266.5" y="-135.5" font-family="Helvetica,sans-Serif" font-size="10.00">Terraria.Main.BorderedHeight</text>
</a>
</g>
</g>
<!-- Node1&#45;&gt;Node2 -->
<g id="edge1_Node000001_Node000002" class="edge">
<title>Node1&#45;&gt;Node2</title>
<g id="a_edge1_Node000001_Node000002"><a xlink:title=" ">
<path fill="none" stroke="#63b8ff" d="M149.23,-126.37C158.1,-127.26 167.23,-128.17 176.28,-129.08"/>
<polygon fill="#63b8ff" stroke="#63b8ff" points="176.16,-132.58 186.46,-130.1 176.86,-125.62 176.16,-132.58"/>
</a>
</g>
</g>
<!-- Node3 -->
<g id="Node000003" class="node">
<title>Node3</title>
<g id="a_Node000003"><a xlink:href="../../da/dd5/classTerraria_1_1Main_ad483d085ab9eae95b981db328f9997cb.html#ad483d085ab9eae95b981db328f9997cb" target="_top" xlink:title=" ">
<polygon fill="white" stroke="#666666" points="348,-110.5 185,-110.5 185,-91.5 348,-91.5 348,-110.5"/>
<text text-anchor="middle" x="266.5" y="-98.5" font-family="Helvetica,sans-Serif" font-size="10.00">Terraria.Main.SetDisplayMode</text>
</a>
</g>
</g>
<!-- Node1&#45;&gt;Node3 -->
<g id="edge2_Node000001_Node000003" class="edge">
<title>Node1&#45;&gt;Node3</title>
<g id="a_edge2_Node000001_Node000003"><a xlink:title=" ">
<path fill="none" stroke="#63b8ff" d="M149.23,-112.01C157.63,-111.22 166.26,-110.4 174.84,-109.59"/>
<polygon fill="#63b8ff" stroke="#63b8ff" points="175.25,-113.07 184.88,-108.64 174.59,-106.1 175.25,-113.07"/>
</a>
</g>
</g>
<!-- Node4 -->
<g id="Node000004" class="node">
<title>Node4</title>
<g id="a_Node000004"><a xlink:href="../../df/d5b/classTerraria_1_1GameInput_1_1PlayerInput_a5cd5e67a9e991b07ff18fd500b2f884c.html#a5cd5e67a9e991b07ff18fd500b2f884c" target="_top" xlink:title=" ">
<polygon fill="white" stroke="#666666" points="587,-202 384,-202 384,-172 587,-172 587,-202"/>
<text text-anchor="start" x="392" y="-190" font-family="Helvetica,sans-Serif" font-size="10.00">Terraria.GameInput.Player</text>
<text text-anchor="middle" x="485.5" y="-179" font-family="Helvetica,sans-Serif" font-size="10.00">Input.CacheOriginalScreenDimensions</text>
</a>
</g>
</g>
<!-- Node3&#45;&gt;Node4 -->
<g id="edge3_Node000003_Node000004" class="edge">
<title>Node3&#45;&gt;Node4</title>
<g id="a_edge3_Node000003_Node000004"><a xlink:title=" ">
<path fill="none" stroke="#63b8ff" d="M327.7,-110.64C334.82,-113.09 341.77,-116.15 348,-120 369.21,-133.09 362.8,-149.89 384,-163 386.78,-164.72 389.68,-166.32 392.66,-167.81"/>
<polygon fill="#63b8ff" stroke="#63b8ff" points="391.27,-171.02 401.83,-171.92 394.14,-164.63 391.27,-171.02"/>
</a>
</g>
</g>
<!-- Node5 -->
<g id="Node000005" class="node">
<title>Node5</title>
<g id="a_Node000005"><a xlink:href="../../da/dd5/classTerraria_1_1Main_a68706cde3048ea88bdf1d38fc919ed40.html#a68706cde3048ea88bdf1d38fc919ed40" target="_top" xlink:title=" ">
<polygon fill="white" stroke="#666666" points="552.5,-153.5 418.5,-153.5 418.5,-134.5 552.5,-134.5 552.5,-153.5"/>
<text text-anchor="middle" x="485.5" y="-141.5" font-family="Helvetica,sans-Serif" font-size="10.00">Terraria.Main.FixUIScale</text>
</a>
</g>
</g>
<!-- Node3&#45;&gt;Node5 -->
<g id="edge4_Node000003_Node000005" class="edge">
<title>Node3&#45;&gt;Node5</title>
<g id="a_edge4_Node000003_Node000005"><a xlink:title=" ">
<path fill="none" stroke="#63b8ff" d="M312.83,-110.52C334.38,-115 360.5,-120.36 384,-125 396.65,-127.5 410.2,-130.11 423.13,-132.56"/>
<polygon fill="#63b8ff" stroke="#63b8ff" points="422.87,-136.07 433.34,-134.5 424.17,-129.2 422.87,-136.07"/>
</a>
</g>
</g>
<!-- Node6 -->
<g id="Node000006" class="node">
<title>Node6</title>
<g id="a_Node000006"><a xlink:href="../../d4/d8f/classTerraria_1_1Localization_1_1Language_ae4636a4800b9ecbaa498954520462f78.html#ae4636a4800b9ecbaa498954520462f78" target="_top" xlink:title="Retrieves the text value for a specified localization key. The text returned will be for the currentl...">
<polygon fill="white" stroke="#666666" points="569.5,-116 401.5,-116 401.5,-86 569.5,-86 569.5,-116"/>
<text text-anchor="start" x="409.5" y="-104" font-family="Helvetica,sans-Serif" font-size="10.00">Terraria.Localization.Language.</text>
<text text-anchor="middle" x="485.5" y="-93" font-family="Helvetica,sans-Serif" font-size="10.00">GetTextValue</text>
</a>
</g>
</g>
<!-- Node3&#45;&gt;Node6 -->
<g id="edge5_Node000003_Node000006" class="edge">
<title>Node3&#45;&gt;Node6</title>
<g id="a_edge5_Node000003_Node000006"><a xlink:title=" ">
<path fill="none" stroke="#63b8ff" d="M348.3,-101C362.27,-101 376.88,-101 391.15,-101"/>
<polygon fill="#63b8ff" stroke="#63b8ff" points="391.46,-104.5 401.46,-101 391.46,-97.5 391.46,-104.5"/>
</a>
</g>
</g>
<!-- Node7 -->
<g id="Node000007" class="node">
<title>Node7</title>
<g id="a_Node000007"><a xlink:href="../../d0/d12/classTerraria_1_1Lighting_a31ff031c2c88aef9aa305b098e07d998.html#a31ff031c2c88aef9aa305b098e07d998" target="_top" xlink:title=" ">
<polygon fill="white" stroke="#666666" points="555.5,-67.5 415.5,-67.5 415.5,-48.5 555.5,-48.5 555.5,-67.5"/>
<text text-anchor="middle" x="485.5" y="-55.5" font-family="Helvetica,sans-Serif" font-size="10.00">Terraria.Lighting.Initialize</text>
</a>
</g>
</g>
<!-- Node3&#45;&gt;Node7 -->
<g id="edge6_Node000003_Node000007" class="edge">
<title>Node3&#45;&gt;Node7</title>
<g id="a_edge6_Node000003_Node000007"><a xlink:title=" ">
<path fill="none" stroke="#63b8ff" d="M312.83,-91.48C334.38,-87 360.5,-81.64 384,-77 396.65,-74.5 410.2,-71.89 423.13,-69.44"/>
<polygon fill="#63b8ff" stroke="#63b8ff" points="424.17,-72.8 433.34,-67.5 422.87,-65.93 424.17,-72.8"/>
</a>
</g>
</g>
<!-- Node8 -->
<g id="Node000008" class="node">
<title>Node8</title>
<g id="a_Node000008"><a xlink:href="../../da/dd5/classTerraria_1_1Main_a85d80a923e2c3beed07cf8bc291a4182.html#a85d80a923e2c3beed07cf8bc291a4182" target="_top" xlink:title=" ">
<polygon fill="white" stroke="#666666" points="552,-30 419,-30 419,0 552,0 552,-30"/>
<text text-anchor="start" x="427" y="-18" font-family="Helvetica,sans-Serif" font-size="10.00">Terraria.Main.TryPicking</text>
<text text-anchor="middle" x="485.5" y="-7" font-family="Helvetica,sans-Serif" font-size="10.00">DefaultUIScale</text>
</a>
</g>
</g>
<!-- Node3&#45;&gt;Node8 -->
<g id="edge7_Node000003_Node000008" class="edge">
<title>Node3&#45;&gt;Node8</title>
<g id="a_edge7_Node000003_Node000008"><a xlink:title=" ">
<path fill="none" stroke="#63b8ff" d="M282.78,-91.48C304.53,-78.29 346.01,-54.43 384,-40 392.06,-36.94 400.63,-34.15 409.23,-31.63"/>
<polygon fill="#63b8ff" stroke="#63b8ff" points="410.24,-34.98 418.93,-28.91 408.35,-28.24 410.24,-34.98"/>
</a>
</g>
</g>
</g>
</svg>
