<?xml version="1.0" encoding="UTF-8" standalone="no"?>
<!DOCTYPE svg PUBLIC "-//W3C//DTD SVG 1.1//EN"
 "http://www.w3.org/Graphics/SVG/1.1/DTD/svg11.dtd">
<!-- Generated by graphviz version 2.43.0 (0)
 -->
<!-- Title: Terraria.Main.ClearSmartInteract Pages: 1 -->
<!--zoomable 461 -->

<svg id="main" version="1.1" xmlns="http://www.w3.org/2000/svg" xmlns:xlink="http://www.w3.org/1999/xlink" xml:space="preserve" onload="init(evt)">
<style type="text/css"><![CDATA[
.node, .edge {opacity: 0.7;}
.node.selected, .edge.selected {opacity: 1;}
.edge:hover path { stroke: red; }
.edge:hover polygon { stroke: red; fill: red; }
]]></style>

<defs>
  <circle id="rim" cx="0" cy="0" r="7"/>
  <circle id="rim2" cx="0" cy="0" r="3.5"/>
  <g id="zoomPlus">
    <use xlink:href="#rim" fill="#404040"><set attributeName="fill" to="#808080" begin="zoomplus.mouseover" end="zoomplus.mouseout"/></use>
    <path d="M-4,0h8M0,-4v8" fill="none" stroke="white" stroke-width="1.5" pointer-events="none"/>
  </g>
  <g id="zoomMin">
    <use xlink:href="#rim" fill="#404040"><set attributeName="fill" to="#808080" begin="zoomminus.mouseover" end="zoomminus.mouseout"/></use>
    <path d="M-4,0h8" fill="none" stroke="white" stroke-width="1.5" pointer-events="none"/>
  </g>
  <g id="arrowUp" transform="translate(30 24)">
    <use xlink:href="#rim"/>
    <path pointer-events="none" fill="none" stroke="white" stroke-width="1.5" d="M0,-3.0v7 M-2.5,-0.5L0,-3.0L2.5,-0.5"/>
  </g>
  <g id="arrowRight" transform="rotate(90) translate(36 -43)">
    <use xlink:href="#rim"/>
    <path pointer-events="none" fill="none" stroke="white" stroke-width="1.5" d="M0,-3.0v7 M-2.5,-0.5L0,-3.0L2.5,-0.5"/>
  </g>
  <g id="arrowDown" transform="rotate(180) translate(-30 -48)">
    <use xlink:href="#rim"/>
    <path pointer-events="none" fill="none" stroke="white" stroke-width="1.5" d="M0,-3.0v7 M-2.5,-0.5L0,-3.0L2.5,-0.5"/>
  </g>
  <g id="arrowLeft" transform="rotate(270) translate(-36 17)">
    <use xlink:href="#rim"/>
    <path pointer-events="none" fill="none" stroke="white" stroke-width="1.5" d="M0,-3.0v7 M-2.5,-0.5L0,-3.0L2.5,-0.5"/>
  </g>
  <g id="resetDef">
    <use xlink:href="#rim2" fill="#404040"><set attributeName="fill" to="#808080" begin="reset.mouseover" end="reset.mouseout"/></use>
  </g>
</defs>
<script type="application/ecmascript">
var viewWidth = 1775;
var viewHeight = 461;
var sectionId = 'dynsection-0';
</script>
<script type="application/ecmascript" xlink:href="../../svg.min.js"/>
<svg id="graph" class="graph">
<g id="viewport">
<title>Terraria.Main.ClearSmartInteract</title>
<!-- Node1 -->
<g id="Node000001" class="node">
<title>Node1</title>
<g id="a_Node000001"><a xlink:title=" ">
<polygon fill="#999999" stroke="#666666" points="1767,-287.56 1629,-287.56 1629,-257.56 1767,-257.56 1767,-287.56"/>
<text text-anchor="start" x="1637" y="-275.56" font-family="Helvetica,sans-Serif" font-size="10.00">Terraria.Main.ClearSmart</text>
<text text-anchor="middle" x="1698" y="-264.56" font-family="Helvetica,sans-Serif" font-size="10.00">Interact</text>
</a>
</g>
</g>
<!-- Node2 -->
<g id="Node000002" class="node">
<title>Node2</title>
<g id="a_Node000002"><a xlink:href="../../da/dd5/classTerraria_1_1Main_a6ebefc3f8e5713a1d1f97a22c6ddc201.html#a6ebefc3f8e5713a1d1f97a22c6ddc201" target="_top" xlink:title=" ">
<polygon fill="white" stroke="#666666" points="1585,-322.06 1445,-322.06 1445,-303.06 1585,-303.06 1585,-322.06"/>
<text text-anchor="middle" x="1515" y="-310.06" font-family="Helvetica,sans-Serif" font-size="10.00">Terraria.Main.DrawCursor</text>
</a>
</g>
</g>
<!-- Node1&#45;&gt;Node2 -->
<g id="edge1_Node000001_Node000002" class="edge">
<title>Node1&#45;&gt;Node2</title>
<g id="a_edge1_Node000001_Node000002"><a xlink:title=" ">
<path fill="none" stroke="#63b8ff" d="M1619.08,-289.78C1598.5,-294.33 1577.03,-299.07 1559.05,-303.05"/>
<polygon fill="#63b8ff" stroke="#63b8ff" points="1620.08,-293.15 1629.09,-287.57 1618.57,-286.31 1620.08,-293.15"/>
</a>
</g>
</g>
<!-- Node19 -->
<g id="Node000019" class="node">
<title>Node19</title>
<g id="a_Node000019"><a xlink:href="../../d4/d03/classTerraria_1_1Player_a4e907711c12ddeeb204e987e3164e4a0.html#a4e907711c12ddeeb204e987e3164e4a0" target="_top" xlink:title=" ">
<polygon fill="white" stroke="#666666" points="1593,-266.56 1437,-266.56 1437,-236.56 1593,-236.56 1593,-266.56"/>
<text text-anchor="start" x="1445" y="-254.56" font-family="Helvetica,sans-Serif" font-size="10.00">Terraria.Player.SmartInteract</text>
<text text-anchor="middle" x="1515" y="-243.56" font-family="Helvetica,sans-Serif" font-size="10.00">Lookup</text>
</a>
</g>
</g>
<!-- Node1&#45;&gt;Node19 -->
<g id="edge31_Node000001_Node000019" class="edge">
<title>Node1&#45;&gt;Node19</title>
<g id="a_edge31_Node000001_Node000019"><a xlink:title=" ">
<path fill="none" stroke="#63b8ff" d="M1618.64,-263.47C1610.21,-262.49 1601.63,-261.5 1593.22,-260.52"/>
<polygon fill="#63b8ff" stroke="#63b8ff" points="1618.49,-266.98 1628.83,-264.65 1619.3,-260.02 1618.49,-266.98"/>
</a>
</g>
</g>
<!-- Node3 -->
<g id="Node000003" class="node">
<title>Node3</title>
<g id="a_Node000003"><a xlink:href="../../da/dd5/classTerraria_1_1Main_a474beeecaea4d6dd108fba56cd554d46.html#a474beeecaea4d6dd108fba56cd554d46" target="_top" xlink:title=" ">
<polygon fill="white" stroke="#666666" points="412,-338.06 290,-338.06 290,-319.06 412,-319.06 412,-338.06"/>
<text text-anchor="middle" x="351" y="-326.06" font-family="Helvetica,sans-Serif" font-size="10.00">Terraria.Main.DoDraw</text>
</a>
</g>
</g>
<!-- Node2&#45;&gt;Node3 -->
<g id="edge2_Node000002_Node000003" class="edge">
<title>Node2&#45;&gt;Node3</title>
<g id="a_edge2_Node000002_Node000003"><a xlink:title=" ">
<path fill="none" stroke="#63b8ff" d="M1490.73,-327.5C1432.2,-363.59 1273.15,-452.56 1127.5,-452.56 1127.5,-452.56 1127.5,-452.56 725,-452.56 579.99,-452.56 418.71,-367.12 368.09,-338.09"/>
<polygon fill="#63b8ff" stroke="#63b8ff" points="1492.61,-330.45 1499.24,-322.18 1488.91,-324.51 1492.61,-330.45"/>
</a>
</g>
</g>
<!-- Node6 -->
<g id="Node000006" class="node">
<title>Node6</title>
<g id="a_Node000006"><a xlink:href="../../df/d43/classTerraria_1_1UI_1_1IngameFancyUI_a37db885fcf4d711ae255c02524ca2f6c.html#a37db885fcf4d711ae255c02524ca2f6c" target="_top" xlink:title=" ">
<polygon fill="white" stroke="#666666" points="1213,-359.06 1040,-359.06 1040,-340.06 1213,-340.06 1213,-359.06"/>
<text text-anchor="middle" x="1126.5" y="-347.06" font-family="Helvetica,sans-Serif" font-size="10.00">Terraria.UI.IngameFancyUI.Draw</text>
</a>
</g>
</g>
<!-- Node2&#45;&gt;Node6 -->
<g id="edge5_Node000002_Node000006" class="edge">
<title>Node2&#45;&gt;Node6</title>
<g id="a_edge5_Node000002_Node000006"><a xlink:title=" ">
<path fill="none" stroke="#63b8ff" d="M1434.79,-320.14C1370.29,-326.32 1279.42,-335.02 1213.23,-341.35"/>
<polygon fill="#63b8ff" stroke="#63b8ff" points="1435.28,-323.61 1444.9,-319.18 1434.61,-316.65 1435.28,-323.61"/>
</a>
</g>
</g>
<!-- Node10 -->
<g id="Node000010" class="node">
<title>Node10</title>
<g id="a_Node000010"><a xlink:href="../../da/dd5/classTerraria_1_1Main_a57f4772aa112754c2b0ad1a25da2d852.html#a57f4772aa112754c2b0ad1a25da2d852" target="_top" xlink:title=" ">
<polygon fill="white" stroke="#666666" points="1401,-300.56 1249,-300.56 1249,-270.56 1401,-270.56 1401,-300.56"/>
<text text-anchor="start" x="1257" y="-288.56" font-family="Helvetica,sans-Serif" font-size="10.00">Terraria.Main.DrawInterface</text>
<text text-anchor="middle" x="1325" y="-277.56" font-family="Helvetica,sans-Serif" font-size="10.00">_36_Cursor</text>
</a>
</g>
</g>
<!-- Node2&#45;&gt;Node10 -->
<g id="edge10_Node000002_Node000010" class="edge">
<title>Node2&#45;&gt;Node10</title>
<g id="a_edge10_Node000002_Node000010"><a xlink:title=" ">
<path fill="none" stroke="#63b8ff" d="M1437.74,-301.61C1425.72,-299.88 1413.3,-298.1 1401.31,-296.38"/>
<polygon fill="#63b8ff" stroke="#63b8ff" points="1437.32,-305.08 1447.72,-303.04 1438.32,-298.16 1437.32,-305.08"/>
</a>
</g>
</g>
<!-- Node16 -->
<g id="Node000016" class="node">
<title>Node16</title>
<g id="a_Node000016"><a xlink:href="../../da/dd5/classTerraria_1_1Main_ae7acc9fe7fb0914ed02aacdfdc9039c5.html#ae7acc9fe7fb0914ed02aacdfdc9039c5" target="_top" xlink:title=" ">
<polygon fill="white" stroke="#666666" points="996,-424.06 860,-424.06 860,-405.06 996,-405.06 996,-424.06"/>
<text text-anchor="middle" x="928" y="-412.06" font-family="Helvetica,sans-Serif" font-size="10.00">Terraria.Main.DrawMenu</text>
</a>
</g>
</g>
<!-- Node2&#45;&gt;Node16 -->
<g id="edge30_Node000002_Node000016" class="edge">
<title>Node2&#45;&gt;Node16</title>
<g id="a_edge30_Node000002_Node000016"><a xlink:title=" ">
<path fill="none" stroke="#63b8ff" d="M1473.34,-324.97C1451.96,-331.18 1425.23,-338.44 1401,-343.56 1258.11,-373.8 1088.25,-396.05 996.28,-406.99"/>
<polygon fill="#63b8ff" stroke="#63b8ff" points="1474.46,-328.29 1483.07,-322.11 1472.49,-321.57 1474.46,-328.29"/>
</a>
</g>
</g>
<!-- Node17 -->
<g id="Node000017" class="node">
<title>Node17</title>
<g id="a_Node000017"><a xlink:href="../../da/dd5/classTerraria_1_1Main_a3a072e6244aa6e35e98bd282d5bcf6e7.html#a3a072e6244aa6e35e98bd282d5bcf6e7" target="_top" xlink:title=" ">
<polygon fill="white" stroke="#666666" points="1390,-164.06 1260,-164.06 1260,-145.06 1390,-145.06 1390,-164.06"/>
<text text-anchor="middle" x="1325" y="-152.06" font-family="Helvetica,sans-Serif" font-size="10.00">Terraria.Main.DrawMap</text>
</a>
</g>
</g>
<!-- Node2&#45;&gt;Node17 -->
<g id="edge25_Node000002_Node000017" class="edge">
<title>Node2&#45;&gt;Node17</title>
<g id="a_edge25_Node000002_Node000017"><a xlink:title=" ">
<path fill="none" stroke="#63b8ff" d="M1478.45,-298.88C1464.83,-292.79 1449.56,-284.88 1437,-275.56 1390.98,-241.42 1348.8,-186.3 1332.8,-164.19"/>
<polygon fill="#63b8ff" stroke="#63b8ff" points="1477.44,-302.26 1488.01,-302.99 1480.21,-295.83 1477.44,-302.26"/>
</a>
</g>
</g>
<!-- Node4 -->
<g id="Node000004" class="node">
<title>Node4</title>
<g id="a_Node000004"><a xlink:href="../../da/dd5/classTerraria_1_1Main_aa597dbafa085227bb056d05d0b0f9abe.html#aa597dbafa085227bb056d05d0b0f9abe" target="_top" xlink:title=" ">
<polygon fill="white" stroke="#666666" points="254,-343.56 145,-343.56 145,-313.56 254,-313.56 254,-343.56"/>
<text text-anchor="start" x="153" y="-331.56" font-family="Helvetica,sans-Serif" font-size="10.00">Terraria.Main.Draw</text>
<text text-anchor="middle" x="199.5" y="-320.56" font-family="Helvetica,sans-Serif" font-size="10.00">_Inner</text>
</a>
</g>
</g>
<!-- Node3&#45;&gt;Node4 -->
<g id="edge3_Node000003_Node000004" class="edge">
<title>Node3&#45;&gt;Node4</title>
<g id="a_edge3_Node000003_Node000004"><a xlink:title=" ">
<path fill="none" stroke="#63b8ff" d="M279.41,-328.56C270.99,-328.56 262.49,-328.56 254.35,-328.56"/>
<polygon fill="#63b8ff" stroke="#63b8ff" points="279.62,-332.06 289.62,-328.56 279.62,-325.06 279.62,-332.06"/>
</a>
</g>
</g>
<!-- Node5 -->
<g id="Node000005" class="node">
<title>Node5</title>
<g id="a_Node000005"><a xlink:href="../../da/dd5/classTerraria_1_1Main_a516aa31311860bad4242ade32e5effcd.html#a516aa31311860bad4242ade32e5effcd" target="_top" xlink:title=" ">
<polygon fill="white" stroke="#666666" points="109,-338.06 0,-338.06 0,-319.06 109,-319.06 109,-338.06"/>
<text text-anchor="middle" x="54.5" y="-326.06" font-family="Helvetica,sans-Serif" font-size="10.00">Terraria.Main.Draw</text>
</a>
</g>
</g>
<!-- Node4&#45;&gt;Node5 -->
<g id="edge4_Node000004_Node000005" class="edge">
<title>Node4&#45;&gt;Node5</title>
<g id="a_edge4_Node000004_Node000005"><a xlink:title=" ">
<path fill="none" stroke="#63b8ff" d="M134.68,-328.56C126.25,-328.56 117.69,-328.56 109.46,-328.56"/>
<polygon fill="#63b8ff" stroke="#63b8ff" points="134.85,-332.06 144.85,-328.56 134.85,-325.06 134.85,-332.06"/>
</a>
</g>
</g>
<!-- Node7 -->
<g id="Node000007" class="node">
<title>Node7</title>
<g id="a_Node000007"><a xlink:href="../../da/dd5/classTerraria_1_1Main_a0645b9bdd9bbcdc3e250041b2b0dc0c3.html#a0645b9bdd9bbcdc3e250041b2b0dc0c3" target="_top" xlink:title=" ">
<polygon fill="white" stroke="#666666" points="1004,-386.56 852,-386.56 852,-356.56 1004,-356.56 1004,-386.56"/>
<text text-anchor="start" x="860" y="-374.56" font-family="Helvetica,sans-Serif" font-size="10.00">Terraria.Main.DrawInterface</text>
<text text-anchor="middle" x="928" y="-363.56" font-family="Helvetica,sans-Serif" font-size="10.00">_12_IngameFancyUI</text>
</a>
</g>
</g>
<!-- Node6&#45;&gt;Node7 -->
<g id="edge6_Node000006_Node000007" class="edge">
<title>Node6&#45;&gt;Node7</title>
<g id="a_edge6_Node000006_Node000007"><a xlink:title=" ">
<path fill="none" stroke="#63b8ff" d="M1030.26,-360.22C1021.54,-361.2 1012.79,-362.18 1004.29,-363.13"/>
<polygon fill="#63b8ff" stroke="#63b8ff" points="1030.91,-363.67 1040.46,-359.08 1030.13,-356.72 1030.91,-363.67"/>
</a>
</g>
</g>
<!-- Node8 -->
<g id="Node000008" class="node">
<title>Node8</title>
<g id="a_Node000008"><a xlink:href="../../da/dd5/classTerraria_1_1Main_a635639e6a6d3795bbfbcf0e24fc3aac5.html#a635639e6a6d3795bbfbcf0e24fc3aac5" target="_top" xlink:title=" ">
<polygon fill="white" stroke="#666666" points="816,-228.56 636,-228.56 636,-198.56 816,-198.56 816,-228.56"/>
<text text-anchor="start" x="644" y="-216.56" font-family="Helvetica,sans-Serif" font-size="10.00">Terraria.Main.SetupDrawInterface</text>
<text text-anchor="middle" x="726" y="-205.56" font-family="Helvetica,sans-Serif" font-size="10.00">Layers</text>
</a>
</g>
</g>
<!-- Node7&#45;&gt;Node8 -->
<g id="edge7_Node000007_Node000008" class="edge">
<title>Node7&#45;&gt;Node8</title>
<g id="a_edge7_Node000007_Node000008"><a xlink:title=" ">
<path fill="none" stroke="#63b8ff" d="M899.87,-350.13C858.8,-317.68 781.84,-256.88 746.12,-228.67"/>
<polygon fill="#63b8ff" stroke="#63b8ff" points="897.81,-352.96 907.82,-356.41 902.15,-347.47 897.81,-352.96"/>
</a>
</g>
</g>
<!-- Node9 -->
<g id="Node000009" class="node">
<title>Node9</title>
<g id="a_Node000009"><a xlink:href="../../da/dd5/classTerraria_1_1Main_a36d139a1fd2647d53f25a241f3d5d5f4.html#a36d139a1fd2647d53f25a241f3d5d5f4" target="_top" xlink:title=" ">
<polygon fill="white" stroke="#666666" points="600,-273.06 448,-273.06 448,-254.06 600,-254.06 600,-273.06"/>
<text text-anchor="middle" x="524" y="-261.06" font-family="Helvetica,sans-Serif" font-size="10.00">Terraria.Main.DrawInterface</text>
</a>
</g>
</g>
<!-- Node8&#45;&gt;Node9 -->
<g id="edge8_Node000008_Node000009" class="edge">
<title>Node8&#45;&gt;Node9</title>
<g id="a_edge8_Node000008_Node000009"><a xlink:title=" ">
<path fill="none" stroke="#63b8ff" d="M655.14,-231.03C624.27,-238.74 589.17,-247.52 563.21,-254.01"/>
<polygon fill="#63b8ff" stroke="#63b8ff" points="656.14,-234.38 664.99,-228.56 654.44,-227.59 656.14,-234.38"/>
</a>
</g>
</g>
<!-- Node9&#45;&gt;Node3 -->
<g id="edge9_Node000009_Node000003" class="edge">
<title>Node9&#45;&gt;Node3</title>
<g id="a_edge9_Node000009_Node000003"><a xlink:title=" ">
<path fill="none" stroke="#63b8ff" d="M488.07,-276.84C455.06,-289.39 406.36,-307.9 377.06,-319.04"/>
<polygon fill="#63b8ff" stroke="#63b8ff" points="489.66,-279.98 497.77,-273.15 487.18,-273.43 489.66,-279.98"/>
</a>
</g>
</g>
<!-- Node10&#45;&gt;Node8 -->
<g id="edge24_Node000010_Node000008" class="edge">
<title>Node10&#45;&gt;Node8</title>
<g id="a_edge24_Node000010_Node000008"><a xlink:title=" ">
<path fill="none" stroke="#63b8ff" d="M1295.38,-264.33C1241.66,-225.94 1120.57,-146.3 1004,-117.56 938.41,-101.39 915.97,-95.83 852,-117.56 804.59,-133.67 761.08,-175.8 740.13,-198.52"/>
<polygon fill="#63b8ff" stroke="#63b8ff" points="1293.56,-267.33 1303.72,-270.34 1297.66,-261.65 1293.56,-267.33"/>
</a>
</g>
</g>
<!-- Node11 -->
<g id="Node000011" class="node">
<title>Node11</title>
<g id="a_Node000011"><a xlink:href="../../da/dd5/classTerraria_1_1Main_a9112ae2c7038427ad1fc74b7aaba87f3.html#a9112ae2c7038427ad1fc74b7aaba87f3" target="_top" xlink:title=" ">
<polygon fill="white" stroke="#666666" points="1200.5,-300.56 1052.5,-300.56 1052.5,-270.56 1200.5,-270.56 1200.5,-300.56"/>
<text text-anchor="start" x="1060.5" y="-288.56" font-family="Helvetica,sans-Serif" font-size="10.00">Terraria.Main.DrawPending</text>
<text text-anchor="middle" x="1126.5" y="-277.56" font-family="Helvetica,sans-Serif" font-size="10.00">MouseText</text>
</a>
</g>
</g>
<!-- Node10&#45;&gt;Node11 -->
<g id="edge11_Node000010_Node000011" class="edge">
<title>Node10&#45;&gt;Node11</title>
<g id="a_edge11_Node000010_Node000011"><a xlink:title=" ">
<path fill="none" stroke="#63b8ff" d="M1238.76,-285.56C1226.06,-285.56 1213.07,-285.56 1200.64,-285.56"/>
<polygon fill="#63b8ff" stroke="#63b8ff" points="1238.87,-289.06 1248.87,-285.56 1238.87,-282.06 1238.87,-289.06"/>
</a>
</g>
</g>
<!-- Node11&#45;&gt;Node3 -->
<g id="edge12_Node000011_Node000003" class="edge">
<title>Node11&#45;&gt;Node3</title>
<g id="a_edge12_Node000011_Node000003"><a xlink:title=" ">
<path fill="none" stroke="#63b8ff" d="M1050.06,-302.48C1034.88,-305.31 1018.99,-307.87 1004,-309.56 787.09,-333.97 527.2,-332.4 412.01,-330.13"/>
<polygon fill="#63b8ff" stroke="#63b8ff" points="1050.76,-305.91 1059.92,-300.58 1049.43,-299.03 1050.76,-305.91"/>
</a>
</g>
</g>
<!-- Node11&#45;&gt;Node7 -->
<g id="edge17_Node000011_Node000007" class="edge">
<title>Node11&#45;&gt;Node7</title>
<g id="a_edge17_Node000011_Node000007"><a xlink:title=" ">
<path fill="none" stroke="#63b8ff" d="M1085.5,-305.19C1061.95,-316.52 1031.49,-330.81 1004,-342.56 992.96,-347.28 980.87,-352.1 969.69,-356.42"/>
<polygon fill="#63b8ff" stroke="#63b8ff" points="1087.33,-308.19 1094.81,-300.69 1084.28,-301.89 1087.33,-308.19"/>
</a>
</g>
</g>
<!-- Node12 -->
<g id="Node000012" class="node">
<title>Node12</title>
<g id="a_Node000012"><a xlink:href="../../da/dd5/classTerraria_1_1Main_a925251c176cc668b2e0fe9b351e29bdd.html#a925251c176cc668b2e0fe9b351e29bdd" target="_top" xlink:title=" ">
<polygon fill="white" stroke="#666666" points="1004,-300.56 852,-300.56 852,-270.56 1004,-270.56 1004,-300.56"/>
<text text-anchor="start" x="860" y="-288.56" font-family="Helvetica,sans-Serif" font-size="10.00">Terraria.Main.DrawInterface</text>
<text text-anchor="middle" x="928" y="-277.56" font-family="Helvetica,sans-Serif" font-size="10.00">_10_CheckCaptureManager</text>
</a>
</g>
</g>
<!-- Node11&#45;&gt;Node12 -->
<g id="edge13_Node000011_Node000012" class="edge">
<title>Node11&#45;&gt;Node12</title>
<g id="a_edge13_Node000011_Node000012"><a xlink:title=" ">
<path fill="none" stroke="#63b8ff" d="M1042.28,-285.56C1029.64,-285.56 1016.66,-285.56 1004.2,-285.56"/>
<polygon fill="#63b8ff" stroke="#63b8ff" points="1042.33,-289.06 1052.33,-285.56 1042.33,-282.06 1042.33,-289.06"/>
</a>
</g>
</g>
<!-- Node13 -->
<g id="Node000013" class="node">
<title>Node13</title>
<g id="a_Node000013"><a xlink:href="../../da/dd5/classTerraria_1_1Main_aaeb945ba66403122df9735a695d1e177.html#aaeb945ba66403122df9735a695d1e177" target="_top" xlink:title=" ">
<polygon fill="white" stroke="#666666" points="1004,-156.56 852,-156.56 852,-126.56 1004,-126.56 1004,-156.56"/>
<text text-anchor="start" x="860" y="-144.56" font-family="Helvetica,sans-Serif" font-size="10.00">Terraria.Main.DrawInterface</text>
<text text-anchor="middle" x="928" y="-133.56" font-family="Helvetica,sans-Serif" font-size="10.00">_11_IngameOptionsMenu</text>
</a>
</g>
</g>
<!-- Node11&#45;&gt;Node13 -->
<g id="edge15_Node000011_Node000013" class="edge">
<title>Node11&#45;&gt;Node13</title>
<g id="a_edge15_Node000011_Node000013"><a xlink:title=" ">
<path fill="none" stroke="#63b8ff" d="M1107.69,-262.27C1085.96,-235.36 1046.79,-191.47 1004,-165.56 998.39,-162.16 992.24,-159.19 985.96,-156.62"/>
<polygon fill="#63b8ff" stroke="#63b8ff" points="1105.16,-264.71 1114.11,-270.37 1110.64,-260.36 1105.16,-264.71"/>
</a>
</g>
</g>
<!-- Node14 -->
<g id="Node000014" class="node">
<title>Node14</title>
<g id="a_Node000014"><a xlink:href="../../da/dd5/classTerraria_1_1Main_a82e17a7974bbdbaa7325b1a7505e1212.html#a82e17a7974bbdbaa7325b1a7505e1212" target="_top" xlink:title=" ">
<polygon fill="white" stroke="#666666" points="1004,-252.56 852,-252.56 852,-222.56 1004,-222.56 1004,-252.56"/>
<text text-anchor="start" x="860" y="-240.56" font-family="Helvetica,sans-Serif" font-size="10.00">Terraria.Main.DrawInterface</text>
<text text-anchor="middle" x="928" y="-229.56" font-family="Helvetica,sans-Serif" font-size="10.00">_41_InterfaceLogic4</text>
</a>
</g>
</g>
<!-- Node11&#45;&gt;Node14 -->
<g id="edge18_Node000011_Node000014" class="edge">
<title>Node11&#45;&gt;Node14</title>
<g id="a_edge18_Node000011_Node000014"><a xlink:title=" ">
<path fill="none" stroke="#63b8ff" d="M1054.1,-268.12C1033.23,-263.02 1010.61,-257.5 990.42,-252.56"/>
<polygon fill="#63b8ff" stroke="#63b8ff" points="1053.32,-271.53 1063.87,-270.51 1054.98,-264.73 1053.32,-271.53"/>
</a>
</g>
</g>
<!-- Node15 -->
<g id="Node000015" class="node">
<title>Node15</title>
<g id="a_Node000015"><a xlink:href="../../da/dd5/classTerraria_1_1Main_a674964129c3a84d8dc08265f0b549e80.html#a674964129c3a84d8dc08265f0b549e80" target="_top" xlink:title=" ">
<polygon fill="white" stroke="#666666" points="1004,-204.56 852,-204.56 852,-174.56 1004,-174.56 1004,-204.56"/>
<text text-anchor="start" x="860" y="-192.56" font-family="Helvetica,sans-Serif" font-size="10.00">Terraria.Main.DrawInterface</text>
<text text-anchor="middle" x="928" y="-181.56" font-family="Helvetica,sans-Serif" font-size="10.00">_8_CheckF11UIHideToggle</text>
</a>
</g>
</g>
<!-- Node11&#45;&gt;Node15 -->
<g id="edge20_Node000011_Node000015" class="edge">
<title>Node11&#45;&gt;Node15</title>
<g id="a_edge20_Node000011_Node000015"><a xlink:title=" ">
<path fill="none" stroke="#63b8ff" d="M1094.84,-264.76C1070.88,-249.16 1036.33,-228.09 1004,-213.56 996.77,-210.31 988.96,-207.3 981.22,-204.59"/>
<polygon fill="#63b8ff" stroke="#63b8ff" points="1093.2,-267.87 1103.48,-270.44 1097.05,-262.02 1093.2,-267.87"/>
</a>
</g>
</g>
<!-- Node11&#45;&gt;Node16 -->
<g id="edge22_Node000011_Node000016" class="edge">
<title>Node11&#45;&gt;Node16</title>
<g id="a_edge22_Node000011_Node000016"><a xlink:title=" ">
<path fill="none" stroke="#63b8ff" d="M1077.65,-305.25C1064.42,-312.22 1050.75,-321.01 1040,-331.56 1016.71,-354.42 1029.92,-375.73 1004,-395.56 998.99,-399.4 993.29,-402.47 987.32,-404.92"/>
<polygon fill="#63b8ff" stroke="#63b8ff" points="1079.33,-308.32 1086.7,-300.71 1076.2,-302.06 1079.33,-308.32"/>
</a>
</g>
</g>
<!-- Node12&#45;&gt;Node8 -->
<g id="edge14_Node000012_Node000008" class="edge">
<title>Node12&#45;&gt;Node8</title>
<g id="a_edge14_Node000012_Node000008"><a xlink:title=" ">
<path fill="none" stroke="#63b8ff" d="M868.86,-267.32C863.15,-265.42 857.45,-263.48 852,-261.56 822.39,-251.15 789.25,-238.37 764.54,-228.62"/>
<polygon fill="#63b8ff" stroke="#63b8ff" points="867.86,-270.67 878.45,-270.47 870.04,-264.02 867.86,-270.67"/>
</a>
</g>
</g>
<!-- Node13&#45;&gt;Node8 -->
<g id="edge16_Node000013_Node000008" class="edge">
<title>Node13&#45;&gt;Node8</title>
<g id="a_edge16_Node000013_Node000008"><a xlink:title=" ">
<path fill="none" stroke="#63b8ff" d="M868.86,-159.8C863.15,-161.7 857.45,-163.64 852,-165.56 822.39,-175.97 789.25,-188.75 764.54,-198.51"/>
<polygon fill="#63b8ff" stroke="#63b8ff" points="870.04,-163.1 878.45,-156.65 867.86,-156.45 870.04,-163.1"/>
</a>
</g>
</g>
<!-- Node14&#45;&gt;Node8 -->
<g id="edge19_Node000014_Node000008" class="edge">
<title>Node14&#45;&gt;Node8</title>
<g id="a_edge19_Node000014_Node000008"><a xlink:title=" ">
<path fill="none" stroke="#63b8ff" d="M841.76,-227.33C833.33,-226.32 824.76,-225.29 816.28,-224.28"/>
<polygon fill="#63b8ff" stroke="#63b8ff" points="841.61,-230.84 851.96,-228.56 842.45,-223.89 841.61,-230.84"/>
</a>
</g>
</g>
<!-- Node15&#45;&gt;Node8 -->
<g id="edge21_Node000015_Node000008" class="edge">
<title>Node15&#45;&gt;Node8</title>
<g id="a_edge21_Node000015_Node000008"><a xlink:title=" ">
<path fill="none" stroke="#63b8ff" d="M841.76,-199.79C833.33,-200.8 824.76,-201.83 816.28,-202.85"/>
<polygon fill="#63b8ff" stroke="#63b8ff" points="842.45,-203.23 851.96,-198.57 841.61,-196.28 842.45,-203.23"/>
</a>
</g>
</g>
<!-- Node16&#45;&gt;Node3 -->
<g id="edge23_Node000016_Node000003" class="edge">
<title>Node16&#45;&gt;Node3</title>
<g id="a_edge23_Node000016_Node000003"><a xlink:title=" ">
<path fill="none" stroke="#63b8ff" d="M853.14,-403.51C738.05,-386.3 518.15,-353.41 412.11,-337.55"/>
<polygon fill="#63b8ff" stroke="#63b8ff" points="852.86,-407.01 863.27,-405.03 853.9,-400.09 852.86,-407.01"/>
</a>
</g>
</g>
<!-- Node17&#45;&gt;Node3 -->
<g id="edge26_Node000017_Node000003" class="edge">
<title>Node17&#45;&gt;Node3</title>
<g id="a_edge26_Node000017_Node000003"><a xlink:title=" ">
<path fill="none" stroke="#63b8ff" d="M1254.55,-139.89C1252.61,-138.57 1250.75,-137.13 1249,-135.56 1215.05,-105.17 1249.57,-66.75 1213,-39.56 1111.49,35.93 1055.5,-20.56 929,-20.56 929,-20.56 929,-20.56 725,-20.56 532.68,-20.56 385.96,-267.02 357.15,-319.01"/>
<polygon fill="#63b8ff" stroke="#63b8ff" points="1253.15,-143.12 1263.58,-144.99 1256.59,-137.02 1253.15,-143.12"/>
</a>
</g>
</g>
<!-- Node18 -->
<g id="Node000018" class="node">
<title>Node18</title>
<g id="a_Node000018"><a xlink:href="../../da/dd5/classTerraria_1_1Main_a10e7731e3b1c894676082177b247e9d2.html#a10e7731e3b1c894676082177b247e9d2" target="_top" xlink:title=" ">
<polygon fill="white" stroke="#666666" points="1202.5,-78.56 1050.5,-78.56 1050.5,-48.56 1202.5,-48.56 1202.5,-78.56"/>
<text text-anchor="start" x="1058.5" y="-66.56" font-family="Helvetica,sans-Serif" font-size="10.00">Terraria.Main.DrawInterface</text>
<text text-anchor="middle" x="1126.5" y="-55.56" font-family="Helvetica,sans-Serif" font-size="10.00">_16_MapOrMinimap</text>
</a>
</g>
</g>
<!-- Node17&#45;&gt;Node18 -->
<g id="edge27_Node000017_Node000018" class="edge">
<title>Node17&#45;&gt;Node18</title>
<g id="a_edge27_Node000017_Node000018"><a xlink:title=" ">
<path fill="none" stroke="#63b8ff" d="M1259.65,-141.22C1255.94,-139.55 1252.36,-137.67 1249,-135.56 1227.9,-122.3 1233.57,-106.64 1213,-92.56 1204.85,-86.98 1195.54,-82.39 1186.12,-78.64"/>
<polygon fill="#63b8ff" stroke="#63b8ff" points="1258.49,-144.52 1269.08,-144.95 1261.07,-138.01 1258.49,-144.52"/>
</a>
</g>
</g>
<!-- Node18&#45;&gt;Node8 -->
<g id="edge29_Node000018_Node000008" class="edge">
<title>Node18&#45;&gt;Node8</title>
<g id="a_edge29_Node000018_Node000008"><a xlink:title=" ">
<path fill="none" stroke="#63b8ff" d="M1040.24,-54.94C984.19,-52.83 910.64,-57.03 852,-84.56 797.8,-110 754.59,-169.85 736.37,-198.18"/>
<polygon fill="#63b8ff" stroke="#63b8ff" points="1040.35,-58.45 1050.5,-55.4 1040.66,-51.45 1040.35,-58.45"/>
</a>
</g>
</g>
<!-- Node18&#45;&gt;Node13 -->
<g id="edge28_Node000018_Node000013" class="edge">
<title>Node18&#45;&gt;Node13</title>
<g id="a_edge28_Node000018_Node000013"><a xlink:title=" ">
<path fill="none" stroke="#63b8ff" d="M1077.89,-82.46C1043.88,-95.96 998.74,-113.88 967.11,-126.44"/>
<polygon fill="#63b8ff" stroke="#63b8ff" points="1079.61,-85.54 1087.61,-78.6 1077.03,-79.04 1079.61,-85.54"/>
</a>
</g>
</g>
<!-- Node20 -->
<g id="Node000020" class="node">
<title>Node20</title>
<g id="a_Node000020"><a xlink:href="../../d4/d03/classTerraria_1_1Player_af44290f5d38b6d5076a5fa8d6ee3dd12.html#af44290f5d38b6d5076a5fa8d6ee3dd12" target="_top" xlink:title=" ">
<polygon fill="white" stroke="#666666" points="1387.5,-127.06 1262.5,-127.06 1262.5,-108.06 1387.5,-108.06 1387.5,-127.06"/>
<text text-anchor="middle" x="1325" y="-115.06" font-family="Helvetica,sans-Serif" font-size="10.00">Terraria.Player.Update</text>
</a>
</g>
</g>
<!-- Node19&#45;&gt;Node20 -->
<g id="edge32_Node000019_Node000020" class="edge">
<title>Node19&#45;&gt;Node20</title>
<g id="a_edge32_Node000019_Node000020"><a xlink:title=" ">
<path fill="none" stroke="#63b8ff" d="M1497.68,-228.14C1477.9,-201.57 1442.06,-158.91 1401,-135.56 1394.95,-132.12 1388.26,-129.33 1381.44,-127.08"/>
<polygon fill="#63b8ff" stroke="#63b8ff" points="1495.04,-230.47 1503.76,-236.49 1500.7,-226.34 1495.04,-230.47"/>
</a>
</g>
</g>
</g>
</svg>

<g id="navigator" transform="translate(0 0)" fill="#404254">
  <rect fill="#f2f5e9" fill-opacity="0.5" stroke="#606060" stroke-width=".5" x="0" y="0" width="60" height="60"/>
  <use id="zoomplus" xlink:href="#zoomPlus" x="17" y="9" onmousedown="handleZoom(evt,'in')"/>
  <use id="zoomminus" xlink:href="#zoomMin" x="42" y="9" onmousedown="handleZoom(evt,'out')"/>
  <use id="reset" xlink:href="#resetDef" x="30" y="36" onmousedown="handleReset()"/>
   <use id="arrowup" xlink:href="#arrowUp" x="0" y="0" onmousedown="handlePan(0,-1)"/>
  <use id="arrowright" xlink:href="#arrowRight" x="0" y="0" onmousedown="handlePan(1,0)"/>
  <use id="arrowdown" xlink:href="#arrowDown" x="0" y="0" onmousedown="handlePan(0,1)"/>
  <use id="arrowleft" xlink:href="#arrowLeft" x="0" y="0" onmousedown="handlePan(-1,0)"/>
</g>
<svg viewBox="0 0 15 15" width="100%" height="30px" preserveAspectRatio="xMaxYMin meet">
 <g id="arrow_out" transform="scale(0.3 0.3)">
  <a xlink:href="classTerraria_1_1Main_adee9e129a417f7b69e4284b8c22c635f_adee9e129a417f7b69e4284b8c22c635f_icgraph_org.svg" target="_base">
   <rect id="button" ry="5" rx="5" y="6" x="6" height="38" width="38"
        fill="#f2f5e9" fill-opacity="0.5" stroke="#606060" stroke-width="1.0"/>
   <path id="arrow"
     d="M 11.500037,31.436501 C 11.940474,20.09759 22.043105,11.32322 32.158766,21.979434 L 37.068811,17.246167 C 37.068811,17.246167 37.088388,32 37.088388,32 L 22.160133,31.978069 C 22.160133,31.978069 26.997745,27.140456 26.997745,27.140456 C 18.528582,18.264221 13.291696,25.230495 11.500037,31.436501 z"
     style="fill:#404040;"/>
  </a>
 </g>
</svg>

<style type='text/css'>
<![CDATA[
[data-mouse-over-selected='false'] { opacity: 0.7; }
[data-mouse-over-selected='true']  { opacity: 1.0; }
]]>
</style>
<script type="application/ecmascript"><![CDATA[
document.addEventListener('DOMContentLoaded', (event) => {
  highlightEdges();
  highlightAdjacentNodes();
});
]]></script>
</svg>
