<?xml version="1.0" encoding="UTF-8" standalone="no"?>
<!DOCTYPE svg PUBLIC "-//W3C//DTD SVG 1.1//EN"
 "http://www.w3.org/Graphics/SVG/1.1/DTD/svg11.dtd">
<!-- Generated by graphviz version 2.43.0 (0)
 -->
<!-- Title: Terraria.Main.startPumpkinMoon Pages: 1 -->
<svg width="1665pt" height="427pt"
 viewBox="0.00 0.00 1665.00 427.00" xmlns="http://www.w3.org/2000/svg" xmlns:xlink="http://www.w3.org/1999/xlink">
<g id="graph0" class="graph" transform="scale(1 1) rotate(0) translate(4 423)">
<title>Terraria.Main.startPumpkinMoon</title>
<!-- Node1 -->
<g id="Node000001" class="node">
<title>Node1</title>
<g id="a_Node000001"><a xlink:title=" ">
<polygon fill="#999999" stroke="#666666" points="176,-91.5 0,-91.5 0,-72.5 176,-72.5 176,-91.5"/>
<text text-anchor="middle" x="88" y="-79.5" font-family="Helvetica,sans-Serif" font-size="10.00">Terraria.Main.startPumpkinMoon</text>
</a>
</g>
</g>
<!-- Node2 -->
<g id="Node000002" class="node">
<title>Node2</title>
<g id="a_Node000002"><a xlink:href="../../db/df5/classTerraria_1_1Chat_1_1ChatHelper_a8b47828c98ff085c0927a12a693ab696.html#a8b47828c98ff085c0927a12a693ab696" target="_top" xlink:title=" ">
<polygon fill="white" stroke="#666666" points="352,-152 213,-152 213,-122 352,-122 352,-152"/>
<text text-anchor="start" x="221" y="-140" font-family="Helvetica,sans-Serif" font-size="10.00">Terraria.Chat.ChatHelper.</text>
<text text-anchor="middle" x="282.5" y="-129" font-family="Helvetica,sans-Serif" font-size="10.00">BroadcastChatMessage</text>
</a>
</g>
</g>
<!-- Node1&#45;&gt;Node2 -->
<g id="edge1_Node000001_Node000002" class="edge">
<title>Node1&#45;&gt;Node2</title>
<g id="a_edge1_Node000001_Node000002"><a xlink:title=" ">
<path fill="none" stroke="#63b8ff" d="M122.53,-91.58C149.08,-99.17 186.92,-109.98 219.01,-119.15"/>
<polygon fill="#63b8ff" stroke="#63b8ff" points="218.19,-122.55 228.77,-121.93 220.12,-115.82 218.19,-122.55"/>
</a>
</g>
</g>
<!-- Node23 -->
<g id="Node000023" class="node">
<title>Node23</title>
<g id="a_Node000023"><a xlink:href="../../df/dd3/classTerraria_1_1Lang_afe69f1feb0426476e602acf4f1554848.html#afe69f1feb0426476e602acf4f1554848" target="_top" xlink:title=" ">
<polygon fill="white" stroke="#666666" points="353,-97 212,-97 212,-67 353,-67 353,-97"/>
<text text-anchor="start" x="220" y="-85" font-family="Helvetica,sans-Serif" font-size="10.00">Terraria.Lang.GetInvasion</text>
<text text-anchor="middle" x="282.5" y="-74" font-family="Helvetica,sans-Serif" font-size="10.00">WaveText</text>
</a>
</g>
</g>
<!-- Node1&#45;&gt;Node23 -->
<g id="edge28_Node000001_Node000023" class="edge">
<title>Node1&#45;&gt;Node23</title>
<g id="a_edge28_Node000001_Node000023"><a xlink:title=" ">
<path fill="none" stroke="#63b8ff" d="M176.24,-82C184.73,-82 193.31,-82 201.71,-82"/>
<polygon fill="#63b8ff" stroke="#63b8ff" points="201.87,-85.5 211.87,-82 201.87,-78.5 201.87,-85.5"/>
</a>
</g>
</g>
<!-- Node29 -->
<g id="Node000029" class="node">
<title>Node29</title>
<g id="a_Node000029"><a xlink:href="../../da/dd5/classTerraria_1_1Main_a0ece77fc22bd9bbe975c0153aa28aa8d.html#a0ece77fc22bd9bbe975c0153aa28aa8d" target="_top" xlink:title=" ">
<polygon fill="white" stroke="#666666" points="345,-30.5 220,-30.5 220,-11.5 345,-11.5 345,-30.5"/>
<text text-anchor="middle" x="282.5" y="-18.5" font-family="Helvetica,sans-Serif" font-size="10.00">Terraria.Main.NewText</text>
</a>
</g>
</g>
<!-- Node1&#45;&gt;Node29 -->
<g id="edge34_Node000001_Node000029" class="edge">
<title>Node1&#45;&gt;Node29</title>
<g id="a_edge34_Node000001_Node000029"><a xlink:title=" ">
<path fill="none" stroke="#63b8ff" d="M119.08,-72.47C152.04,-62.02 205.06,-45.22 241.51,-33.67"/>
<polygon fill="#63b8ff" stroke="#63b8ff" points="242.84,-36.92 251.32,-30.56 240.73,-30.25 242.84,-36.92"/>
</a>
</g>
</g>
<!-- Node3 -->
<g id="Node000003" class="node">
<title>Node3</title>
<g id="a_Node000003"><a xlink:href="../../db/df5/classTerraria_1_1Chat_1_1ChatHelper_adf23e6d78fdef5f7d1740c0df280b1b3.html#adf23e6d78fdef5f7d1740c0df280b1b3" target="_top" xlink:title=" ">
<polygon fill="white" stroke="#666666" points="540,-192 397,-192 397,-162 540,-162 540,-192"/>
<text text-anchor="start" x="405" y="-180" font-family="Helvetica,sans-Serif" font-size="10.00">Terraria.Chat.ChatHelper.</text>
<text text-anchor="middle" x="468.5" y="-169" font-family="Helvetica,sans-Serif" font-size="10.00">BroadcastChatMessageAs</text>
</a>
</g>
</g>
<!-- Node2&#45;&gt;Node3 -->
<g id="edge2_Node000002_Node000003" class="edge">
<title>Node2&#45;&gt;Node3</title>
<g id="a_edge2_Node000002_Node000003"><a xlink:title=" ">
<path fill="none" stroke="#63b8ff" d="M352.01,-151.89C363.83,-154.46 376.2,-157.15 388.27,-159.78"/>
<polygon fill="#63b8ff" stroke="#63b8ff" points="387.8,-163.26 398.31,-161.96 389.29,-156.42 387.8,-163.26"/>
</a>
</g>
</g>
<!-- Node4 -->
<g id="Node000004" class="node">
<title>Node4</title>
<g id="a_Node000004"><a xlink:href="../../db/df5/classTerraria_1_1Chat_1_1ChatHelper_acbde5de17f2e673cfc11a0fa5a511fae.html#acbde5de17f2e673cfc11a0fa5a511fae" target="_top" xlink:title=" ">
<polygon fill="white" stroke="#666666" points="760.5,-280 621.5,-280 621.5,-250 760.5,-250 760.5,-280"/>
<text text-anchor="start" x="629.5" y="-268" font-family="Helvetica,sans-Serif" font-size="10.00">Terraria.Chat.ChatHelper.</text>
<text text-anchor="middle" x="691" y="-257" font-family="Helvetica,sans-Serif" font-size="10.00">DisplayMessage</text>
</a>
</g>
</g>
<!-- Node3&#45;&gt;Node4 -->
<g id="edge3_Node000003_Node000004" class="edge">
<title>Node3&#45;&gt;Node4</title>
<g id="a_edge3_Node000003_Node000004"><a xlink:title=" ">
<path fill="none" stroke="#63b8ff" d="M494.2,-192.03C516.89,-205.32 551.78,-224.49 584,-237 593.55,-240.71 603.76,-244.09 613.94,-247.13"/>
<polygon fill="#63b8ff" stroke="#63b8ff" points="613.1,-250.53 623.67,-249.93 615.03,-243.8 613.1,-250.53"/>
</a>
</g>
</g>
<!-- Node21 -->
<g id="Node000021" class="node">
<title>Node21</title>
<g id="a_Node000021"><a xlink:href="../../db/df5/classTerraria_1_1Chat_1_1ChatHelper_a405c21b87b9a5db19ab8030ad7633d67.html#a405c21b87b9a5db19ab8030ad7633d67" target="_top" xlink:title=" ">
<polygon fill="white" stroke="#666666" points="787,-228 595,-228 595,-198 787,-198 787,-228"/>
<text text-anchor="start" x="603" y="-216" font-family="Helvetica,sans-Serif" font-size="10.00">Terraria.Chat.ChatHelper.</text>
<text text-anchor="middle" x="691" y="-205" font-family="Helvetica,sans-Serif" font-size="10.00">OnlySendToPlayersWhoAreLoggedIn</text>
</a>
</g>
</g>
<!-- Node3&#45;&gt;Node21 -->
<g id="edge25_Node000003_Node000021" class="edge">
<title>Node3&#45;&gt;Node21</title>
<g id="a_edge25_Node000003_Node000021"><a xlink:title=" ">
<path fill="none" stroke="#63b8ff" d="M540.18,-188.54C555.41,-191.03 571.8,-193.7 587.96,-196.34"/>
<polygon fill="#63b8ff" stroke="#63b8ff" points="587.54,-199.82 597.97,-197.97 588.67,-192.91 587.54,-199.82"/>
</a>
</g>
</g>
<!-- Node22 -->
<g id="Node000022" class="node">
<title>Node22</title>
<g id="a_Node000022"><a xlink:href="../../d3/df3/classTerraria_1_1GameContent_1_1NetModules_1_1NetTextModule_abf4d290dbfbc7f24435098c0b79e3883.html#abf4d290dbfbc7f24435098c0b79e3883" target="_top" xlink:title=" ">
<polygon fill="white" stroke="#666666" points="780.5,-161.5 601.5,-161.5 601.5,-120.5 780.5,-120.5 780.5,-161.5"/>
<text text-anchor="start" x="609.5" y="-149.5" font-family="Helvetica,sans-Serif" font-size="10.00">Terraria.GameContent.Net</text>
<text text-anchor="start" x="609.5" y="-138.5" font-family="Helvetica,sans-Serif" font-size="10.00">Modules.NetTextModule.Serialize</text>
<text text-anchor="middle" x="691" y="-127.5" font-family="Helvetica,sans-Serif" font-size="10.00">ServerMessage</text>
</a>
</g>
</g>
<!-- Node3&#45;&gt;Node22 -->
<g id="edge26_Node000003_Node000022" class="edge">
<title>Node3&#45;&gt;Node22</title>
<g id="a_edge26_Node000003_Node000022"><a xlink:title=" ">
<path fill="none" stroke="#63b8ff" d="M540.18,-165.46C556.39,-162.81 573.93,-159.95 591.09,-157.15"/>
<polygon fill="#63b8ff" stroke="#63b8ff" points="591.83,-160.57 601.14,-155.51 590.71,-153.66 591.83,-160.57"/>
</a>
</g>
</g>
<!-- Node5 -->
<g id="Node000005" class="node">
<title>Node5</title>
<g id="a_Node000005"><a xlink:href="../../db/df5/classTerraria_1_1Chat_1_1ChatHelper_a2873223aea4baf8cc37f8c6f8cd1fe16.html#a2873223aea4baf8cc37f8c6f8cd1fe16" target="_top" xlink:title=" ">
<polygon fill="white" stroke="#666666" points="998.5,-419 859.5,-419 859.5,-389 998.5,-389 998.5,-419"/>
<text text-anchor="start" x="867.5" y="-407" font-family="Helvetica,sans-Serif" font-size="10.00">Terraria.Chat.ChatHelper.</text>
<text text-anchor="middle" x="929" y="-396" font-family="Helvetica,sans-Serif" font-size="10.00">CacheMessage</text>
</a>
</g>
</g>
<!-- Node4&#45;&gt;Node5 -->
<g id="edge4_Node000004_Node000005" class="edge">
<title>Node4&#45;&gt;Node5</title>
<g id="a_edge4_Node000004_Node000005"><a xlink:title=" ">
<path fill="none" stroke="#63b8ff" d="M706.22,-280.15C730.2,-304.81 781.27,-353.52 834,-380 838.99,-382.5 844.26,-384.76 849.65,-386.79"/>
<polygon fill="#63b8ff" stroke="#63b8ff" points="848.87,-390.23 859.47,-390.22 851.18,-383.62 848.87,-390.23"/>
</a>
</g>
</g>
<!-- Node6 -->
<g id="Node000006" class="node">
<title>Node6</title>
<g id="a_Node000006"><a xlink:href="../../d7/d98/classTerraria_1_1GameContent_1_1UI_1_1Chat_1_1NameTagHandler_a5363ff74c8976dfc28cb76db3e53a98a.html#a5363ff74c8976dfc28cb76db3e53a98a" target="_top" xlink:title=" ">
<polygon fill="white" stroke="#666666" points="1024,-371 834,-371 834,-341 1024,-341 1024,-371"/>
<text text-anchor="start" x="842" y="-359" font-family="Helvetica,sans-Serif" font-size="10.00">Terraria.GameContent.UI.</text>
<text text-anchor="middle" x="929" y="-348" font-family="Helvetica,sans-Serif" font-size="10.00">Chat.NameTagHandler.GenerateTag</text>
</a>
</g>
</g>
<!-- Node4&#45;&gt;Node6 -->
<g id="edge5_Node000004_Node000006" class="edge">
<title>Node4&#45;&gt;Node6</title>
<g id="a_edge5_Node000004_Node000006"><a xlink:title=" ">
<path fill="none" stroke="#63b8ff" d="M719.88,-280.11C748.03,-294.89 793.09,-317.28 834,-332 839.93,-334.13 846.13,-336.16 852.4,-338.05"/>
<polygon fill="#63b8ff" stroke="#63b8ff" points="851.7,-341.5 862.28,-340.93 853.66,-334.77 851.7,-341.5"/>
</a>
</g>
</g>
<!-- Node7 -->
<g id="Node000007" class="node">
<title>Node7</title>
<g id="a_Node000007"><a xlink:href="../../dc/d67/structTerraria_1_1Player_1_1OverheadMessage_a1fc31c3d0639503a0c472c5ca7026039.html#a1fc31c3d0639503a0c472c5ca7026039" target="_top" xlink:title=" ">
<polygon fill="white" stroke="#666666" points="997.5,-323 860.5,-323 860.5,-293 997.5,-293 997.5,-323"/>
<text text-anchor="start" x="868.5" y="-311" font-family="Helvetica,sans-Serif" font-size="10.00">Terraria.Player.Overhead</text>
<text text-anchor="middle" x="929" y="-300" font-family="Helvetica,sans-Serif" font-size="10.00">Message.NewMessage</text>
</a>
</g>
</g>
<!-- Node4&#45;&gt;Node7 -->
<g id="edge6_Node000004_Node000007" class="edge">
<title>Node4&#45;&gt;Node7</title>
<g id="a_edge6_Node000004_Node000007"><a xlink:title=" ">
<path fill="none" stroke="#63b8ff" d="M760.58,-277.5C788.7,-282.62 821.39,-288.58 850.39,-293.86"/>
<polygon fill="#63b8ff" stroke="#63b8ff" points="850.01,-297.35 860.47,-295.7 851.26,-290.46 850.01,-297.35"/>
</a>
</g>
</g>
<!-- Node12 -->
<g id="Node000012" class="node">
<title>Node12</title>
<g id="a_Node000012"><a xlink:href="../../da/dd5/classTerraria_1_1Main_a41402a875e3c3ff608667d0637674539.html#a41402a875e3c3ff608667d0637674539" target="_top" xlink:title=" ">
<polygon fill="white" stroke="#666666" points="1013,-274.5 845,-274.5 845,-255.5 1013,-255.5 1013,-274.5"/>
<text text-anchor="middle" x="929" y="-262.5" font-family="Helvetica,sans-Serif" font-size="10.00">Terraria.Main.NewTextMultiline</text>
</a>
</g>
</g>
<!-- Node4&#45;&gt;Node12 -->
<g id="edge13_Node000004_Node000012" class="edge">
<title>Node4&#45;&gt;Node12</title>
<g id="a_edge13_Node000004_Node000012"><a xlink:title=" ">
<path fill="none" stroke="#63b8ff" d="M760.58,-265C783.66,-265 809.83,-265 834.5,-265"/>
<polygon fill="#63b8ff" stroke="#63b8ff" points="834.6,-268.5 844.6,-265 834.6,-261.5 834.6,-268.5"/>
</a>
</g>
</g>
<!-- Node15 -->
<g id="Node000015" class="node">
<title>Node15</title>
<g id="a_Node000015"><a xlink:href="../../db/df5/classTerraria_1_1Chat_1_1ChatHelper_a923699edfbaa3f2f8f18cf6282edcf53.html#a923699edfbaa3f2f8f18cf6282edcf53" target="_top" xlink:title=" ">
<polygon fill="white" stroke="#666666" points="998.5,-237 859.5,-237 859.5,-207 998.5,-207 998.5,-237"/>
<text text-anchor="start" x="867.5" y="-225" font-family="Helvetica,sans-Serif" font-size="10.00">Terraria.Chat.ChatHelper.</text>
<text text-anchor="middle" x="929" y="-214" font-family="Helvetica,sans-Serif" font-size="10.00">ShouldCacheMessage</text>
</a>
</g>
</g>
<!-- Node4&#45;&gt;Node15 -->
<g id="edge17_Node000004_Node000015" class="edge">
<title>Node4&#45;&gt;Node15</title>
<g id="a_edge17_Node000004_Node000015"><a xlink:title=" ">
<path fill="none" stroke="#63b8ff" d="M760.58,-252.5C788.33,-247.45 820.54,-241.58 849.25,-236.35"/>
<polygon fill="#63b8ff" stroke="#63b8ff" points="850.04,-239.76 859.25,-234.53 848.79,-232.88 850.04,-239.76"/>
</a>
</g>
</g>
<!-- Node16 -->
<g id="Node000016" class="node">
<title>Node16</title>
<g id="a_Node000016"><a xlink:href="../../dd/dd4/classTerraria_1_1Localization_1_1NetworkText_a82763de30a06fd8107fa4f3e40d8d20d.html#a82763de30a06fd8107fa4f3e40d8d20d" target="_top" xlink:title=" ">
<polygon fill="white" stroke="#666666" points="1008.5,-159 849.5,-159 849.5,-129 1008.5,-129 1008.5,-159"/>
<text text-anchor="start" x="857.5" y="-147" font-family="Helvetica,sans-Serif" font-size="10.00">Terraria.Localization.Network</text>
<text text-anchor="middle" x="929" y="-136" font-family="Helvetica,sans-Serif" font-size="10.00">Text.ToString</text>
</a>
</g>
</g>
<!-- Node4&#45;&gt;Node16 -->
<g id="edge18_Node000004_Node000016" class="edge">
<title>Node4&#45;&gt;Node16</title>
<g id="a_edge18_Node000004_Node000016"><a xlink:title=" ">
<path fill="none" stroke="#63b8ff" d="M760.76,-252.93C773.67,-249 786.67,-243.82 798,-237 818.21,-224.84 815.56,-212.71 834,-198 850.26,-185.03 870,-173.19 887.19,-163.93"/>
<polygon fill="#63b8ff" stroke="#63b8ff" points="889.22,-166.81 896.44,-159.05 885.96,-160.62 889.22,-166.81"/>
</a>
</g>
</g>
<!-- Node8 -->
<g id="Node000008" class="node">
<title>Node8</title>
<g id="a_Node000008"><a xlink:href="../../d7/df6/classTerraria_1_1UI_1_1Chat_1_1ChatManager_ad0daac781e8696c59955af964519db95.html#ad0daac781e8696c59955af964519db95" target="_top" xlink:title=" ">
<polygon fill="white" stroke="#666666" points="1237.5,-382 1074.5,-382 1074.5,-352 1237.5,-352 1237.5,-382"/>
<text text-anchor="start" x="1082.5" y="-370" font-family="Helvetica,sans-Serif" font-size="10.00">Terraria.UI.Chat.ChatManager.</text>
<text text-anchor="middle" x="1156" y="-359" font-family="Helvetica,sans-Serif" font-size="10.00">GetStringSize</text>
</a>
</g>
</g>
<!-- Node7&#45;&gt;Node8 -->
<g id="edge7_Node000007_Node000008" class="edge">
<title>Node7&#45;&gt;Node8</title>
<g id="a_edge7_Node000007_Node000008"><a xlink:title=" ">
<path fill="none" stroke="#63b8ff" d="M989.2,-323.01C1000.74,-325.97 1012.76,-329.06 1024,-332 1045.33,-337.57 1068.59,-343.75 1089.51,-349.35"/>
<polygon fill="#63b8ff" stroke="#63b8ff" points="1088.69,-352.75 1099.26,-351.96 1090.51,-345.99 1088.69,-352.75"/>
</a>
</g>
</g>
<!-- Node9 -->
<g id="Node000009" class="node">
<title>Node9</title>
<g id="a_Node000009"><a xlink:href="../../d7/df6/classTerraria_1_1UI_1_1Chat_1_1ChatManager_af687cd1f70060817f5984ef2b554cf40.html#af687cd1f70060817f5984ef2b554cf40" target="_top" xlink:title=" ">
<polygon fill="white" stroke="#666666" points="1453.5,-360 1290.5,-360 1290.5,-330 1453.5,-330 1453.5,-360"/>
<text text-anchor="start" x="1298.5" y="-348" font-family="Helvetica,sans-Serif" font-size="10.00">Terraria.UI.Chat.ChatManager.</text>
<text text-anchor="middle" x="1372" y="-337" font-family="Helvetica,sans-Serif" font-size="10.00">ParseMessage</text>
</a>
</g>
</g>
<!-- Node7&#45;&gt;Node9 -->
<g id="edge12_Node000007_Node000009" class="edge">
<title>Node7&#45;&gt;Node9</title>
<g id="a_edge12_Node000007_Node000009"><a xlink:title=" ">
<path fill="none" stroke="#63b8ff" d="M997.94,-313.7C1073.63,-320.05 1196.35,-330.35 1280.22,-337.38"/>
<polygon fill="#63b8ff" stroke="#63b8ff" points="1280,-340.88 1290.25,-338.23 1280.58,-333.9 1280,-340.88"/>
</a>
</g>
</g>
<!-- Node8&#45;&gt;Node8 -->
<g id="edge8_Node000008_Node000008" class="edge">
<title>Node8&#45;&gt;Node8</title>
<g id="a_edge8_Node000008_Node000008"><a xlink:title=" ">
<path fill="none" stroke="#63b8ff" d="M1118.03,-382.28C1109.59,-391.41 1122.25,-400 1156,-400 1176.04,-400 1188.64,-396.97 1193.81,-392.6"/>
<polygon fill="#63b8ff" stroke="#63b8ff" points="1197.31,-392.33 1193.97,-382.28 1190.31,-392.22 1197.31,-392.33"/>
</a>
</g>
</g>
<!-- Node8&#45;&gt;Node9 -->
<g id="edge9_Node000008_Node000009" class="edge">
<title>Node8&#45;&gt;Node9</title>
<g id="a_edge9_Node000008_Node000009"><a xlink:title=" ">
<path fill="none" stroke="#63b8ff" d="M1237.6,-358.71C1251.52,-357.28 1266.07,-355.79 1280.24,-354.33"/>
<polygon fill="#63b8ff" stroke="#63b8ff" points="1280.88,-357.78 1290.47,-353.28 1280.17,-350.82 1280.88,-357.78"/>
</a>
</g>
</g>
<!-- Node10 -->
<g id="Node000010" class="node">
<title>Node10</title>
<g id="a_Node000010"><a xlink:href="../../d7/df6/classTerraria_1_1UI_1_1Chat_1_1ChatManager_ad57d7ce4542b2df5cd9ff15c86855f3f.html#ad57d7ce4542b2df5cd9ff15c86855f3f" target="_top" xlink:title=" ">
<polygon fill="white" stroke="#666666" points="1656,-384 1493,-384 1493,-354 1656,-354 1656,-384"/>
<text text-anchor="start" x="1501" y="-372" font-family="Helvetica,sans-Serif" font-size="10.00">Terraria.UI.Chat.ChatManager.</text>
<text text-anchor="middle" x="1574.5" y="-361" font-family="Helvetica,sans-Serif" font-size="10.00">GetHandler</text>
</a>
</g>
</g>
<!-- Node9&#45;&gt;Node10 -->
<g id="edge10_Node000009_Node000010" class="edge">
<title>Node9&#45;&gt;Node10</title>
<g id="a_edge10_Node000009_Node000010"><a xlink:title=" ">
<path fill="none" stroke="#63b8ff" d="M1453.68,-354.66C1463.29,-355.81 1473.16,-356.99 1482.89,-358.15"/>
<polygon fill="#63b8ff" stroke="#63b8ff" points="1482.64,-361.65 1492.98,-359.36 1483.47,-354.7 1482.64,-361.65"/>
</a>
</g>
</g>
<!-- Node11 -->
<g id="Node000011" class="node">
<title>Node11</title>
<g id="a_Node000011"><a xlink:href="../../dc/d25/interfaceTerraria_1_1UI_1_1Chat_1_1ITagHandler_aa5a15f340434dc9990b2b10b306642a6.html#aa5a15f340434dc9990b2b10b306642a6" target="_top" xlink:title=" ">
<polygon fill="white" stroke="#666666" points="1652,-336 1497,-336 1497,-306 1652,-306 1652,-336"/>
<text text-anchor="start" x="1505" y="-324" font-family="Helvetica,sans-Serif" font-size="10.00">Terraria.UI.Chat.ITagHandler.</text>
<text text-anchor="middle" x="1574.5" y="-313" font-family="Helvetica,sans-Serif" font-size="10.00">Parse</text>
</a>
</g>
</g>
<!-- Node9&#45;&gt;Node11 -->
<g id="edge11_Node000009_Node000011" class="edge">
<title>Node9&#45;&gt;Node11</title>
<g id="a_edge11_Node000009_Node000011"><a xlink:title=" ">
<path fill="none" stroke="#63b8ff" d="M1453.68,-335.34C1464.6,-334.04 1475.83,-332.69 1486.85,-331.37"/>
<polygon fill="#63b8ff" stroke="#63b8ff" points="1487.37,-334.84 1496.88,-330.17 1486.54,-327.88 1487.37,-334.84"/>
</a>
</g>
</g>
<!-- Node13 -->
<g id="Node000013" class="node">
<title>Node13</title>
<g id="a_Node000013"><a xlink:href="../../d3/daa/interfaceTerraria_1_1GameContent_1_1UI_1_1Chat_1_1IChatMonitor_a38805300297edfac20a1d6f8c2bc4bf1.html#a38805300297edfac20a1d6f8c2bc4bf1" target="_top" xlink:title=" ">
<polygon fill="white" stroke="#666666" points="1252,-296 1060,-296 1060,-266 1252,-266 1252,-296"/>
<text text-anchor="start" x="1068" y="-284" font-family="Helvetica,sans-Serif" font-size="10.00">Terraria.GameContent.UI.</text>
<text text-anchor="middle" x="1156" y="-273" font-family="Helvetica,sans-Serif" font-size="10.00">Chat.IChatMonitor.NewTextMultiline</text>
</a>
</g>
</g>
<!-- Node12&#45;&gt;Node13 -->
<g id="edge14_Node000012_Node000013" class="edge">
<title>Node12&#45;&gt;Node13</title>
<g id="a_edge14_Node000012_Node000013"><a xlink:title=" ">
<path fill="none" stroke="#63b8ff" d="M1013.14,-270.91C1024.98,-271.75 1037.28,-272.63 1049.47,-273.5"/>
<polygon fill="#63b8ff" stroke="#63b8ff" points="1049.44,-277 1059.67,-274.22 1049.94,-270.02 1049.44,-277"/>
</a>
</g>
</g>
<!-- Node14 -->
<g id="Node000014" class="node">
<title>Node14</title>
<g id="a_Node000014"><a xlink:href="../../d3/d78/classTerraria_1_1Audio_1_1SoundEngine_af55950ae09b294fad1dd58e37fecf28b.html#af55950ae09b294fad1dd58e37fecf28b" target="_top" xlink:title="Attempts to play a sound style with the provided sound style (if it&#39;s not null), and returns a valid ...">
<polygon fill="white" stroke="#666666" points="1232.5,-230 1079.5,-230 1079.5,-200 1232.5,-200 1232.5,-230"/>
<text text-anchor="start" x="1087.5" y="-218" font-family="Helvetica,sans-Serif" font-size="10.00">Terraria.Audio.SoundEngine.</text>
<text text-anchor="middle" x="1156" y="-207" font-family="Helvetica,sans-Serif" font-size="10.00">PlaySound</text>
</a>
</g>
</g>
<!-- Node12&#45;&gt;Node14 -->
<g id="edge15_Node000012_Node000014" class="edge">
<title>Node12&#45;&gt;Node14</title>
<g id="a_edge15_Node000012_Node000014"><a xlink:title=" ">
<path fill="none" stroke="#63b8ff" d="M978.85,-255.44C993.4,-252.51 1009.36,-249.21 1024,-246 1043.34,-241.76 1064.23,-236.93 1083.53,-232.36"/>
<polygon fill="#63b8ff" stroke="#63b8ff" points="1084.53,-235.72 1093.45,-230.01 1082.91,-228.91 1084.53,-235.72"/>
</a>
</g>
</g>
<!-- Node14&#45;&gt;Node14 -->
<g id="edge16_Node000014_Node000014" class="edge">
<title>Node14&#45;&gt;Node14</title>
<g id="a_edge16_Node000014_Node000014"><a xlink:title=" ">
<path fill="none" stroke="#63b8ff" d="M1118.03,-230.28C1109.59,-239.41 1122.25,-248 1156,-248 1176.04,-248 1188.64,-244.97 1193.81,-240.6"/>
<polygon fill="#63b8ff" stroke="#63b8ff" points="1197.31,-240.33 1193.97,-230.28 1190.31,-240.22 1197.31,-240.33"/>
</a>
</g>
</g>
<!-- Node17 -->
<g id="Node000017" class="node">
<title>Node17</title>
<g id="a_Node000017"><a xlink:href="../../d4/d8f/classTerraria_1_1Localization_1_1Language_ae4636a4800b9ecbaa498954520462f78.html#ae4636a4800b9ecbaa498954520462f78" target="_top" xlink:title="Retrieves the text value for a specified localization key. The text returned will be for the currentl...">
<polygon fill="white" stroke="#666666" points="1456,-133 1288,-133 1288,-103 1456,-103 1456,-133"/>
<text text-anchor="start" x="1296" y="-121" font-family="Helvetica,sans-Serif" font-size="10.00">Terraria.Localization.Language.</text>
<text text-anchor="middle" x="1372" y="-110" font-family="Helvetica,sans-Serif" font-size="10.00">GetTextValue</text>
</a>
</g>
</g>
<!-- Node16&#45;&gt;Node17 -->
<g id="edge19_Node000016_Node000017" class="edge">
<title>Node16&#45;&gt;Node17</title>
<g id="a_edge19_Node000016_Node000017"><a xlink:title=" ">
<path fill="none" stroke="#63b8ff" d="M1008.51,-153.63C1073.97,-159.88 1169.52,-164.88 1252,-153 1275.09,-149.67 1299.95,-142.89 1320.95,-136.18"/>
<polygon fill="#63b8ff" stroke="#63b8ff" points="1322.2,-139.45 1330.61,-133.01 1320.02,-132.8 1322.2,-139.45"/>
</a>
</g>
</g>
<!-- Node19 -->
<g id="Node000019" class="node">
<title>Node19</title>
<g id="a_Node000019"><a xlink:href="../../dd/dd4/classTerraria_1_1Localization_1_1NetworkText_aaade702fe346ef5d217fea67020986a9.html#aaade702fe346ef5d217fea67020986a9" target="_top" xlink:title=" ">
<polygon fill="white" stroke="#666666" points="1235.5,-144 1076.5,-144 1076.5,-114 1235.5,-114 1235.5,-144"/>
<text text-anchor="start" x="1084.5" y="-132" font-family="Helvetica,sans-Serif" font-size="10.00">Terraria.Localization.Network</text>
<text text-anchor="middle" x="1156" y="-121" font-family="Helvetica,sans-Serif" font-size="10.00">Text.SetToEmptyLiteral</text>
</a>
</g>
</g>
<!-- Node16&#45;&gt;Node19 -->
<g id="edge21_Node000016_Node000019" class="edge">
<title>Node16&#45;&gt;Node19</title>
<g id="a_edge21_Node000016_Node000019"><a xlink:title=" ">
<path fill="none" stroke="#63b8ff" d="M1008.69,-138.75C1027.28,-137.51 1047.22,-136.19 1066.21,-134.92"/>
<polygon fill="#63b8ff" stroke="#63b8ff" points="1066.61,-138.4 1076.35,-134.24 1066.14,-131.42 1066.61,-138.4"/>
</a>
</g>
</g>
<!-- Node20 -->
<g id="Node000020" class="node">
<title>Node20</title>
<g id="a_Node000020"><a xlink:href="../../dd/dd4/classTerraria_1_1Localization_1_1NetworkText_a0e756743934141abf7225f02a6e2441b.html#a0e756743934141abf7225f02a6e2441b" target="_top" xlink:title=" ">
<polygon fill="white" stroke="#666666" points="1235.5,-78 1076.5,-78 1076.5,-48 1235.5,-48 1235.5,-78"/>
<text text-anchor="start" x="1084.5" y="-66" font-family="Helvetica,sans-Serif" font-size="10.00">Terraria.Localization.Network</text>
<text text-anchor="middle" x="1156" y="-55" font-family="Helvetica,sans-Serif" font-size="10.00">Text.ToDebugInfoString</text>
</a>
</g>
</g>
<!-- Node16&#45;&gt;Node20 -->
<g id="edge22_Node000016_Node000020" class="edge">
<title>Node16&#45;&gt;Node20</title>
<g id="a_edge22_Node000016_Node000020"><a xlink:title=" ">
<path fill="none" stroke="#63b8ff" d="M971.79,-128.95C1009.01,-115.56 1063.59,-95.91 1103.5,-81.54"/>
<polygon fill="#63b8ff" stroke="#63b8ff" points="1104.83,-84.78 1113.05,-78.1 1102.45,-78.2 1104.83,-84.78"/>
</a>
</g>
</g>
<!-- Node18 -->
<g id="Node000018" class="node">
<title>Node18</title>
<g id="a_Node000018"><a xlink:href="../../d8/d74/classTerraria_1_1Localization_1_1LanguageManager_a9f1901e50105d9873d2fdf8816e122de.html#a9f1901e50105d9873d2fdf8816e122de" target="_top" xlink:title=" ">
<polygon fill="white" stroke="#666666" points="1657,-133 1492,-133 1492,-103 1657,-103 1657,-133"/>
<text text-anchor="start" x="1500" y="-121" font-family="Helvetica,sans-Serif" font-size="10.00">Terraria.Localization.Language</text>
<text text-anchor="middle" x="1574.5" y="-110" font-family="Helvetica,sans-Serif" font-size="10.00">Manager.GetTextValue</text>
</a>
</g>
</g>
<!-- Node17&#45;&gt;Node18 -->
<g id="edge20_Node000017_Node000018" class="edge">
<title>Node17&#45;&gt;Node18</title>
<g id="a_edge20_Node000017_Node000018"><a xlink:title=" ">
<path fill="none" stroke="#63b8ff" d="M1456.29,-118C1464.63,-118 1473.12,-118 1481.54,-118"/>
<polygon fill="#63b8ff" stroke="#63b8ff" points="1481.76,-121.5 1491.76,-118 1481.76,-114.5 1481.76,-121.5"/>
</a>
</g>
</g>
<!-- Node20&#45;&gt;Node17 -->
<g id="edge23_Node000020_Node000017" class="edge">
<title>Node20&#45;&gt;Node17</title>
<g id="a_edge23_Node000020_Node000017"><a xlink:title=" ">
<path fill="none" stroke="#63b8ff" d="M1215.48,-78.03C1242.49,-84.97 1274.73,-93.26 1302.84,-100.48"/>
<polygon fill="#63b8ff" stroke="#63b8ff" points="1302.04,-103.89 1312.59,-102.99 1303.78,-97.11 1302.04,-103.89"/>
</a>
</g>
</g>
<!-- Node20&#45;&gt;Node20 -->
<g id="edge24_Node000020_Node000020" class="edge">
<title>Node20&#45;&gt;Node20</title>
<g id="a_edge24_Node000020_Node000020"><a xlink:title=" ">
<path fill="none" stroke="#63b8ff" d="M1118.03,-78.28C1109.59,-87.41 1122.25,-96 1156,-96 1176.04,-96 1188.64,-92.97 1193.81,-88.6"/>
<polygon fill="#63b8ff" stroke="#63b8ff" points="1197.31,-88.33 1193.97,-78.28 1190.31,-88.22 1197.31,-88.33"/>
</a>
</g>
</g>
<!-- Node22&#45;&gt;Node22 -->
<g id="edge27_Node000022_Node000022" class="edge">
<title>Node22&#45;&gt;Node22</title>
<g id="a_edge27_Node000022_Node000022"><a xlink:title=" ">
<path fill="none" stroke="#63b8ff" d="M650.2,-161.6C645.75,-171.15 659.35,-179.5 691,-179.5 710.78,-179.5 723.51,-176.24 729.19,-171.46"/>
<polygon fill="#63b8ff" stroke="#63b8ff" points="732.63,-172.16 731.8,-161.6 725.86,-170.37 732.63,-172.16"/>
</a>
</g>
</g>
<!-- Node24 -->
<g id="Node000024" class="node">
<title>Node24</title>
<g id="a_Node000024"><a xlink:href="../../dd/dd4/classTerraria_1_1Localization_1_1NetworkText_a96b44c223990589f83f8ebe233b91c7c.html#a96b44c223990589f83f8ebe233b91c7c" target="_top" xlink:title="Creates a NetworkText object from a localization key and optional substitutions. The receiving client...">
<polygon fill="white" stroke="#666666" points="548,-97 389,-97 389,-67 548,-67 548,-97"/>
<text text-anchor="start" x="397" y="-85" font-family="Helvetica,sans-Serif" font-size="10.00">Terraria.Localization.Network</text>
<text text-anchor="middle" x="468.5" y="-74" font-family="Helvetica,sans-Serif" font-size="10.00">Text.FromKey</text>
</a>
</g>
</g>
<!-- Node23&#45;&gt;Node24 -->
<g id="edge29_Node000023_Node000024" class="edge">
<title>Node23&#45;&gt;Node24</title>
<g id="a_edge29_Node000023_Node000024"><a xlink:title=" ">
<path fill="none" stroke="#63b8ff" d="M353.06,-82C361.47,-82 370.15,-82 378.79,-82"/>
<polygon fill="#63b8ff" stroke="#63b8ff" points="378.9,-85.5 388.9,-82 378.9,-78.5 378.9,-85.5"/>
</a>
</g>
</g>
<!-- Node28 -->
<g id="Node000028" class="node">
<title>Node28</title>
<g id="a_Node000028"><a xlink:href="../../df/dd3/classTerraria_1_1Lang_af99a2e7e70f95e152e48e5a07d026dd4.html#af99a2e7e70f95e152e48e5a07d026dd4" target="_top" xlink:title="Gets the display name of the provided npc type (F:Terraria.NPC.type) as a T:Terraria....">
<polygon fill="white" stroke="#666666" points="543,-48.5 394,-48.5 394,-29.5 543,-29.5 543,-48.5"/>
<text text-anchor="middle" x="468.5" y="-36.5" font-family="Helvetica,sans-Serif" font-size="10.00">Terraria.Lang.GetNPCName</text>
</a>
</g>
</g>
<!-- Node23&#45;&gt;Node28 -->
<g id="edge33_Node000023_Node000028" class="edge">
<title>Node23&#45;&gt;Node28</title>
<g id="a_edge33_Node000023_Node000028"><a xlink:title=" ">
<path fill="none" stroke="#63b8ff" d="M347.85,-66.96C370.49,-61.67 395.58,-55.81 416.92,-50.82"/>
<polygon fill="#63b8ff" stroke="#63b8ff" points="417.81,-54.21 426.75,-48.52 416.22,-47.39 417.81,-54.21"/>
</a>
</g>
</g>
<!-- Node25 -->
<g id="Node000025" class="node">
<title>Node25</title>
<g id="a_Node000025"><a xlink:href="../../dd/dd4/classTerraria_1_1Localization_1_1NetworkText_ac94c027b766a42dfa853bccbadb23909.html#ac94c027b766a42dfa853bccbadb23909" target="_top" xlink:title=" ">
<polygon fill="white" stroke="#666666" points="798,-94 584,-94 584,-64 798,-64 798,-94"/>
<text text-anchor="start" x="592" y="-82" font-family="Helvetica,sans-Serif" font-size="10.00">Terraria.Localization.Network</text>
<text text-anchor="middle" x="691" y="-71" font-family="Helvetica,sans-Serif" font-size="10.00">Text.ConvertSubstitutionsToNetworkText</text>
</a>
</g>
</g>
<!-- Node24&#45;&gt;Node25 -->
<g id="edge30_Node000024_Node000025" class="edge">
<title>Node24&#45;&gt;Node25</title>
<g id="a_edge30_Node000024_Node000025"><a xlink:title=" ">
<path fill="none" stroke="#63b8ff" d="M548.17,-80.93C556.44,-80.82 564.96,-80.7 573.54,-80.58"/>
<polygon fill="#63b8ff" stroke="#63b8ff" points="573.67,-84.08 583.62,-80.45 573.57,-77.08 573.67,-84.08"/>
</a>
</g>
</g>
<!-- Node26 -->
<g id="Node000026" class="node">
<title>Node26</title>
<g id="a_Node000026"><a xlink:href="../../dd/dd4/classTerraria_1_1Localization_1_1NetworkText_a0e6e2f34edc8f021884470586b1c5e18.html#a0e6e2f34edc8f021884470586b1c5e18" target="_top" xlink:title=" ">
<polygon fill="white" stroke="#666666" points="1008.5,-79 849.5,-79 849.5,-49 1008.5,-49 1008.5,-79"/>
<text text-anchor="start" x="857.5" y="-67" font-family="Helvetica,sans-Serif" font-size="10.00">Terraria.Localization.Network</text>
<text text-anchor="middle" x="929" y="-56" font-family="Helvetica,sans-Serif" font-size="10.00">Text.From</text>
</a>
</g>
</g>
<!-- Node25&#45;&gt;Node26 -->
<g id="edge31_Node000025_Node000026" class="edge">
<title>Node25&#45;&gt;Node26</title>
<g id="a_edge31_Node000025_Node000026"><a xlink:title=" ">
<path fill="none" stroke="#63b8ff" d="M798.26,-72.25C811.91,-71.38 825.77,-70.5 839.11,-69.65"/>
<polygon fill="#63b8ff" stroke="#63b8ff" points="839.43,-73.14 849.18,-69.01 838.98,-66.15 839.43,-73.14"/>
</a>
</g>
</g>
<!-- Node27 -->
<g id="Node000027" class="node">
<title>Node27</title>
<g id="a_Node000027"><a xlink:href="../../dd/dd4/classTerraria_1_1Localization_1_1NetworkText_a3c557297e5656ee799cb1a7e9db234fc.html#a3c557297e5656ee799cb1a7e9db234fc" target="_top" xlink:title="Creates a NetworkText object from a string. Use this for text that can&#39;t be localized.">
<polygon fill="white" stroke="#666666" points="1235.5,-30 1076.5,-30 1076.5,0 1235.5,0 1235.5,-30"/>
<text text-anchor="start" x="1084.5" y="-18" font-family="Helvetica,sans-Serif" font-size="10.00">Terraria.Localization.Network</text>
<text text-anchor="middle" x="1156" y="-7" font-family="Helvetica,sans-Serif" font-size="10.00">Text.FromLiteral</text>
</a>
</g>
</g>
<!-- Node26&#45;&gt;Node27 -->
<g id="edge32_Node000026_Node000027" class="edge">
<title>Node26&#45;&gt;Node27</title>
<g id="a_edge32_Node000026_Node000027"><a xlink:title=" ">
<path fill="none" stroke="#63b8ff" d="M999.04,-48.97C1023.44,-43.65 1051.07,-37.63 1076.22,-32.16"/>
<polygon fill="#63b8ff" stroke="#63b8ff" points="1077.07,-35.55 1086.09,-30.01 1075.58,-28.71 1077.07,-35.55"/>
</a>
</g>
</g>
<!-- Node29&#45;&gt;Node29 -->
<g id="edge35_Node000029_Node000029" class="edge">
<title>Node29&#45;&gt;Node29</title>
<g id="a_edge35_Node000029_Node000029"><a xlink:title=" ">
<path fill="none" stroke="#63b8ff" d="M253.83,-30.58C239.89,-39.23 249.44,-48.5 282.5,-48.5 305.23,-48.5 316.85,-44.12 317.36,-38.57"/>
<polygon fill="#63b8ff" stroke="#63b8ff" points="320.06,-36.34 311.17,-30.58 314.53,-40.63 320.06,-36.34"/>
</a>
</g>
</g>
</g>
</svg>
