<?xml version="1.0" encoding="UTF-8" standalone="no"?>
<!DOCTYPE svg PUBLIC "-//W3C//DTD SVG 1.1//EN"
 "http://www.w3.org/Graphics/SVG/1.1/DTD/svg11.dtd">
<!-- Generated by graphviz version 2.43.0 (0)
 -->
<!-- Title: Terraria.Main.DrawSurfaceBG_GetLayerYOffset Pages: 1 -->
<!--zoomable 177 -->

<svg id="main" version="1.1" xmlns="http://www.w3.org/2000/svg" xmlns:xlink="http://www.w3.org/1999/xlink" xml:space="preserve" onload="init(evt)">
<style type="text/css"><![CDATA[
.node, .edge {opacity: 0.7;}
.node.selected, .edge.selected {opacity: 1;}
.edge:hover path { stroke: red; }
.edge:hover polygon { stroke: red; fill: red; }
]]></style>

<defs>
  <circle id="rim" cx="0" cy="0" r="7"/>
  <circle id="rim2" cx="0" cy="0" r="3.5"/>
  <g id="zoomPlus">
    <use xlink:href="#rim" fill="#404040"><set attributeName="fill" to="#808080" begin="zoomplus.mouseover" end="zoomplus.mouseout"/></use>
    <path d="M-4,0h8M0,-4v8" fill="none" stroke="white" stroke-width="1.5" pointer-events="none"/>
  </g>
  <g id="zoomMin">
    <use xlink:href="#rim" fill="#404040"><set attributeName="fill" to="#808080" begin="zoomminus.mouseover" end="zoomminus.mouseout"/></use>
    <path d="M-4,0h8" fill="none" stroke="white" stroke-width="1.5" pointer-events="none"/>
  </g>
  <g id="arrowUp" transform="translate(30 24)">
    <use xlink:href="#rim"/>
    <path pointer-events="none" fill="none" stroke="white" stroke-width="1.5" d="M0,-3.0v7 M-2.5,-0.5L0,-3.0L2.5,-0.5"/>
  </g>
  <g id="arrowRight" transform="rotate(90) translate(36 -43)">
    <use xlink:href="#rim"/>
    <path pointer-events="none" fill="none" stroke="white" stroke-width="1.5" d="M0,-3.0v7 M-2.5,-0.5L0,-3.0L2.5,-0.5"/>
  </g>
  <g id="arrowDown" transform="rotate(180) translate(-30 -48)">
    <use xlink:href="#rim"/>
    <path pointer-events="none" fill="none" stroke="white" stroke-width="1.5" d="M0,-3.0v7 M-2.5,-0.5L0,-3.0L2.5,-0.5"/>
  </g>
  <g id="arrowLeft" transform="rotate(270) translate(-36 17)">
    <use xlink:href="#rim"/>
    <path pointer-events="none" fill="none" stroke="white" stroke-width="1.5" d="M0,-3.0v7 M-2.5,-0.5L0,-3.0L2.5,-0.5"/>
  </g>
  <g id="resetDef">
    <use xlink:href="#rim2" fill="#404040"><set attributeName="fill" to="#808080" begin="reset.mouseover" end="reset.mouseout"/></use>
  </g>
</defs>
<script type="application/ecmascript">
var viewWidth = 1363;
var viewHeight = 177;
var sectionId = 'dynsection-0';
</script>
<script type="application/ecmascript" xlink:href="../../svg.min.js"/>
<svg id="graph" class="graph">
<g id="viewport">
<title>Terraria.Main.DrawSurfaceBG_GetLayerYOffset</title>
<!-- Node1 -->
<g id="Node000001" class="node">
<title>Node1</title>
<g id="a_Node000001"><a xlink:title=" ">
<polygon fill="#999999" stroke="#666666" points="1355,-94 1209,-94 1209,-64 1355,-64 1355,-94"/>
<text text-anchor="start" x="1217" y="-82" font-family="Helvetica,sans-Serif" font-size="10.00">Terraria.Main.DrawSurface</text>
<text text-anchor="middle" x="1282" y="-71" font-family="Helvetica,sans-Serif" font-size="10.00">BG_GetLayerYOffset</text>
</a>
</g>
</g>
<!-- Node2 -->
<g id="Node000002" class="node">
<title>Node2</title>
<g id="a_Node000002"><a xlink:href="../../da/dd5/classTerraria_1_1Main_afcc53b68dcc484fa2dd724f118e0788a.html#afcc53b68dcc484fa2dd724f118e0788a" target="_top" xlink:title=" ">
<polygon fill="white" stroke="#666666" points="1173,-164 1009,-164 1009,-134 1173,-134 1173,-164"/>
<text text-anchor="start" x="1017" y="-152" font-family="Helvetica,sans-Serif" font-size="10.00">Terraria.Main.DrawSurface</text>
<text text-anchor="middle" x="1091" y="-141" font-family="Helvetica,sans-Serif" font-size="10.00">BG_DrawBackMountainsLayer</text>
</a>
</g>
</g>
<!-- Node1&#45;&gt;Node2 -->
<g id="edge1_Node000001_Node000002" class="edge">
<title>Node1&#45;&gt;Node2</title>
<g id="a_edge1_Node000001_Node000002"><a xlink:title=" ">
<path fill="none" stroke="#63b8ff" d="M1238.95,-98.24C1219.15,-106.95 1195.08,-117.06 1173,-125 1164.31,-128.13 1154.98,-131.17 1145.87,-133.98"/>
<polygon fill="#63b8ff" stroke="#63b8ff" points="1240.58,-101.34 1248.3,-94.09 1237.74,-94.94 1240.58,-101.34"/>
</a>
</g>
</g>
<!-- Node11 -->
<g id="Node000011" class="node">
<title>Node11</title>
<g id="a_Node000011"><a xlink:href="../../da/dd5/classTerraria_1_1Main_add7a22bd1b2868229a7f5ae5666cafac.html#add7a22bd1b2868229a7f5ae5666cafac" target="_top" xlink:title=" ">
<polygon fill="white" stroke="#666666" points="973,-73 827,-73 827,-43 973,-43 973,-73"/>
<text text-anchor="start" x="835" y="-61" font-family="Helvetica,sans-Serif" font-size="10.00">Terraria.Main.DrawSurface</text>
<text text-anchor="middle" x="900" y="-50" font-family="Helvetica,sans-Serif" font-size="10.00">BG_Jungle</text>
</a>
</g>
</g>
<!-- Node1&#45;&gt;Node11 -->
<g id="edge11_Node000001_Node000011" class="edge">
<title>Node1&#45;&gt;Node11</title>
<g id="a_edge11_Node000001_Node000011"><a xlink:title=" ">
<path fill="none" stroke="#63b8ff" d="M1198.5,-74.44C1131.29,-70.73 1037.33,-65.53 973.1,-61.98"/>
<polygon fill="#63b8ff" stroke="#63b8ff" points="1198.45,-77.94 1208.63,-75 1198.84,-70.95 1198.45,-77.94"/>
</a>
</g>
</g>
<!-- Node12 -->
<g id="Node000012" class="node">
<title>Node12</title>
<g id="a_Node000012"><a xlink:href="../../da/dd5/classTerraria_1_1Main_a824d7074393e5044ecbda06b15ca1a19.html#a824d7074393e5044ecbda06b15ca1a19" target="_top" xlink:title=" ">
<polygon fill="white" stroke="#666666" points="1164,-30 1018,-30 1018,0 1164,0 1164,-30"/>
<text text-anchor="start" x="1026" y="-18" font-family="Helvetica,sans-Serif" font-size="10.00">Terraria.Main.DrawSurface</text>
<text text-anchor="middle" x="1091" y="-7" font-family="Helvetica,sans-Serif" font-size="10.00">BG_Snow</text>
</a>
</g>
</g>
<!-- Node1&#45;&gt;Node12 -->
<g id="edge13_Node000001_Node000012" class="edge">
<title>Node1&#45;&gt;Node12</title>
<g id="a_edge13_Node000001_Node000012"><a xlink:title=" ">
<path fill="none" stroke="#63b8ff" d="M1227.2,-60.78C1198.47,-51.05 1163.52,-39.22 1136.36,-30.02"/>
<polygon fill="#63b8ff" stroke="#63b8ff" points="1226.09,-64.1 1236.69,-63.99 1228.34,-57.47 1226.09,-64.1"/>
</a>
</g>
</g>
<!-- Node13 -->
<g id="Node000013" class="node">
<title>Node13</title>
<g id="a_Node000013"><a xlink:href="../../da/dd5/classTerraria_1_1Main_a99311776de83d5655f2b5e897dc0e790.html#a99311776de83d5655f2b5e897dc0e790" target="_top" xlink:title=" ">
<polygon fill="white" stroke="#666666" points="1165.5,-116 1016.5,-116 1016.5,-86 1165.5,-86 1165.5,-116"/>
<text text-anchor="start" x="1024.5" y="-104" font-family="Helvetica,sans-Serif" font-size="10.00">Terraria.Main.UpdateOcean</text>
<text text-anchor="middle" x="1091" y="-93" font-family="Helvetica,sans-Serif" font-size="10.00">WaterLineForAmbience</text>
</a>
</g>
</g>
<!-- Node1&#45;&gt;Node13 -->
<g id="edge15_Node000001_Node000013" class="edge">
<title>Node1&#45;&gt;Node13</title>
<g id="a_edge15_Node000001_Node000013"><a xlink:title=" ">
<path fill="none" stroke="#63b8ff" d="M1198.75,-88.57C1187.78,-89.85 1176.6,-91.15 1165.79,-92.41"/>
<polygon fill="#63b8ff" stroke="#63b8ff" points="1199.21,-92.04 1208.74,-87.41 1198.4,-85.09 1199.21,-92.04"/>
</a>
</g>
</g>
<!-- Node3 -->
<g id="Node000003" class="node">
<title>Node3</title>
<g id="a_Node000003"><a xlink:href="../../da/dd5/classTerraria_1_1Main_a01b6fbb710411075751a8ff84826e619.html#a01b6fbb710411075751a8ff84826e619" target="_top" xlink:title=" ">
<polygon fill="white" stroke="#666666" points="973,-169 827,-169 827,-139 973,-139 973,-169"/>
<text text-anchor="start" x="835" y="-157" font-family="Helvetica,sans-Serif" font-size="10.00">Terraria.Main.DrawSurface</text>
<text text-anchor="middle" x="900" y="-146" font-family="Helvetica,sans-Serif" font-size="10.00">BG_BackMountainsStep1</text>
</a>
</g>
</g>
<!-- Node2&#45;&gt;Node3 -->
<g id="edge2_Node000002_Node000003" class="edge">
<title>Node2&#45;&gt;Node3</title>
<g id="a_edge2_Node000002_Node000003"><a xlink:title=" ">
<path fill="none" stroke="#63b8ff" d="M998.74,-151.41C990.18,-151.64 981.59,-151.87 973.24,-152.09"/>
<polygon fill="#63b8ff" stroke="#63b8ff" points="998.85,-154.91 1008.75,-151.15 998.66,-147.92 998.85,-154.91"/>
</a>
</g>
</g>
<!-- Node10 -->
<g id="Node000010" class="node">
<title>Node10</title>
<g id="a_Node000010"><a xlink:href="../../da/dd5/classTerraria_1_1Main_aaede919fffb60942b21159997ecac2cf.html#aaede919fffb60942b21159997ecac2cf" target="_top" xlink:title=" ">
<polygon fill="white" stroke="#666666" points="973,-121 827,-121 827,-91 973,-91 973,-121"/>
<text text-anchor="start" x="835" y="-109" font-family="Helvetica,sans-Serif" font-size="10.00">Terraria.Main.DrawSurface</text>
<text text-anchor="middle" x="900" y="-98" font-family="Helvetica,sans-Serif" font-size="10.00">BG_BackMountainsStep2</text>
</a>
</g>
</g>
<!-- Node2&#45;&gt;Node10 -->
<g id="edge9_Node000002_Node000010" class="edge">
<title>Node2&#45;&gt;Node10</title>
<g id="a_edge9_Node000002_Node000010"><a xlink:title=" ">
<path fill="none" stroke="#63b8ff" d="M1013.83,-131.67C998.34,-128.15 982.17,-124.47 967.07,-121.03"/>
<polygon fill="#63b8ff" stroke="#63b8ff" points="1013.37,-135.15 1023.9,-133.96 1014.92,-128.33 1013.37,-135.15"/>
</a>
</g>
</g>
<!-- Node4 -->
<g id="Node000004" class="node">
<title>Node4</title>
<g id="a_Node000004"><a xlink:href="../../da/dd5/classTerraria_1_1Main_a6f1fe17004049609c1c7b0a3f59095ff.html#a6f1fe17004049609c1c7b0a3f59095ff" target="_top" xlink:title=" ">
<polygon fill="white" stroke="#666666" points="791,-91.5 631,-91.5 631,-72.5 791,-72.5 791,-91.5"/>
<text text-anchor="middle" x="711" y="-79.5" font-family="Helvetica,sans-Serif" font-size="10.00">Terraria.Main.DrawSurfaceBG</text>
</a>
</g>
</g>
<!-- Node3&#45;&gt;Node4 -->
<g id="edge3_Node000003_Node000004" class="edge">
<title>Node3&#45;&gt;Node4</title>
<g id="a_edge3_Node000003_Node000004"><a xlink:title=" ">
<path fill="none" stroke="#63b8ff" d="M842.51,-135.61C837.25,-133.77 832.01,-131.88 827,-130 793.98,-117.62 756.39,-101.55 733.43,-91.5"/>
<polygon fill="#63b8ff" stroke="#63b8ff" points="841.37,-138.92 851.96,-138.88 843.65,-132.3 841.37,-138.92"/>
</a>
</g>
</g>
<!-- Node5 -->
<g id="Node000005" class="node">
<title>Node5</title>
<g id="a_Node000005"><a xlink:href="../../da/dd5/classTerraria_1_1Main_a7d7ae9ecdde4777c98e2f9a8ad9b5895.html#a7d7ae9ecdde4777c98e2f9a8ad9b5895" target="_top" xlink:title=" ">
<polygon fill="white" stroke="#666666" points="583,-110.5 460,-110.5 460,-91.5 583,-91.5 583,-110.5"/>
<text text-anchor="middle" x="521.5" y="-98.5" font-family="Helvetica,sans-Serif" font-size="10.00">Terraria.Main.DrawBG</text>
</a>
</g>
</g>
<!-- Node4&#45;&gt;Node5 -->
<g id="edge4_Node000004_Node000005" class="edge">
<title>Node4&#45;&gt;Node5</title>
<g id="a_edge4_Node000004_Node000005"><a xlink:title=" ">
<path fill="none" stroke="#63b8ff" d="M620.64,-91.06C607.98,-92.34 595.21,-93.63 583.26,-94.84"/>
<polygon fill="#63b8ff" stroke="#63b8ff" points="621.16,-94.52 630.75,-90.03 620.45,-87.56 621.16,-94.52"/>
</a>
</g>
</g>
<!-- Node9 -->
<g id="Node000009" class="node">
<title>Node9</title>
<g id="a_Node000009"><a xlink:href="../../da/dd5/classTerraria_1_1Main_ab13ebe846afd6d4cd47586ef70091e91.html#ab13ebe846afd6d4cd47586ef70091e91" target="_top" xlink:title=" ">
<polygon fill="white" stroke="#666666" points="595,-73.5 448,-73.5 448,-54.5 595,-54.5 595,-73.5"/>
<text text-anchor="middle" x="521.5" y="-61.5" font-family="Helvetica,sans-Serif" font-size="10.00">Terraria.Main.DrawCapture</text>
</a>
</g>
</g>
<!-- Node4&#45;&gt;Node9 -->
<g id="edge8_Node000004_Node000009" class="edge">
<title>Node4&#45;&gt;Node9</title>
<g id="a_edge8_Node000004_Node000009"><a xlink:title=" ">
<path fill="none" stroke="#63b8ff" d="M620.75,-73.43C612.19,-72.61 603.58,-71.78 595.2,-70.98"/>
<polygon fill="#63b8ff" stroke="#63b8ff" points="620.47,-76.92 630.75,-74.39 621.14,-69.95 620.47,-76.92"/>
</a>
</g>
</g>
<!-- Node6 -->
<g id="Node000006" class="node">
<title>Node6</title>
<g id="a_Node000006"><a xlink:href="../../da/dd5/classTerraria_1_1Main_a474beeecaea4d6dd108fba56cd554d46.html#a474beeecaea4d6dd108fba56cd554d46" target="_top" xlink:title=" ">
<polygon fill="white" stroke="#666666" points="412,-110.5 290,-110.5 290,-91.5 412,-91.5 412,-110.5"/>
<text text-anchor="middle" x="351" y="-98.5" font-family="Helvetica,sans-Serif" font-size="10.00">Terraria.Main.DoDraw</text>
</a>
</g>
</g>
<!-- Node5&#45;&gt;Node6 -->
<g id="edge5_Node000005_Node000006" class="edge">
<title>Node5&#45;&gt;Node6</title>
<g id="a_edge5_Node000005_Node000006"><a xlink:title=" ">
<path fill="none" stroke="#63b8ff" d="M449.38,-101C437,-101 424.23,-101 412.18,-101"/>
<polygon fill="#63b8ff" stroke="#63b8ff" points="449.67,-104.5 459.67,-101 449.67,-97.5 449.67,-104.5"/>
</a>
</g>
</g>
<!-- Node7 -->
<g id="Node000007" class="node">
<title>Node7</title>
<g id="a_Node000007"><a xlink:href="../../da/dd5/classTerraria_1_1Main_aa597dbafa085227bb056d05d0b0f9abe.html#aa597dbafa085227bb056d05d0b0f9abe" target="_top" xlink:title=" ">
<polygon fill="white" stroke="#666666" points="254,-116 145,-116 145,-86 254,-86 254,-116"/>
<text text-anchor="start" x="153" y="-104" font-family="Helvetica,sans-Serif" font-size="10.00">Terraria.Main.Draw</text>
<text text-anchor="middle" x="199.5" y="-93" font-family="Helvetica,sans-Serif" font-size="10.00">_Inner</text>
</a>
</g>
</g>
<!-- Node6&#45;&gt;Node7 -->
<g id="edge6_Node000006_Node000007" class="edge">
<title>Node6&#45;&gt;Node7</title>
<g id="a_edge6_Node000006_Node000007"><a xlink:title=" ">
<path fill="none" stroke="#63b8ff" d="M279.41,-101C270.99,-101 262.49,-101 254.35,-101"/>
<polygon fill="#63b8ff" stroke="#63b8ff" points="279.62,-104.5 289.62,-101 279.62,-97.5 279.62,-104.5"/>
</a>
</g>
</g>
<!-- Node8 -->
<g id="Node000008" class="node">
<title>Node8</title>
<g id="a_Node000008"><a xlink:href="../../da/dd5/classTerraria_1_1Main_a516aa31311860bad4242ade32e5effcd.html#a516aa31311860bad4242ade32e5effcd" target="_top" xlink:title=" ">
<polygon fill="white" stroke="#666666" points="109,-110.5 0,-110.5 0,-91.5 109,-91.5 109,-110.5"/>
<text text-anchor="middle" x="54.5" y="-98.5" font-family="Helvetica,sans-Serif" font-size="10.00">Terraria.Main.Draw</text>
</a>
</g>
</g>
<!-- Node7&#45;&gt;Node8 -->
<g id="edge7_Node000007_Node000008" class="edge">
<title>Node7&#45;&gt;Node8</title>
<g id="a_edge7_Node000007_Node000008"><a xlink:title=" ">
<path fill="none" stroke="#63b8ff" d="M134.68,-101C126.25,-101 117.69,-101 109.46,-101"/>
<polygon fill="#63b8ff" stroke="#63b8ff" points="134.85,-104.5 144.85,-101 134.85,-97.5 134.85,-104.5"/>
</a>
</g>
</g>
<!-- Node10&#45;&gt;Node4 -->
<g id="edge10_Node000010_Node000004" class="edge">
<title>Node10&#45;&gt;Node4</title>
<g id="a_edge10_Node000010_Node000004"><a xlink:title=" ">
<path fill="none" stroke="#63b8ff" d="M816.84,-95.46C806.63,-94.15 796.24,-92.81 786.16,-91.52"/>
<polygon fill="#63b8ff" stroke="#63b8ff" points="816.6,-98.95 826.97,-96.76 817.5,-92.01 816.6,-98.95"/>
</a>
</g>
</g>
<!-- Node11&#45;&gt;Node4 -->
<g id="edge12_Node000011_Node000004" class="edge">
<title>Node11&#45;&gt;Node4</title>
<g id="a_edge12_Node000011_Node000004"><a xlink:title=" ">
<path fill="none" stroke="#63b8ff" d="M816.84,-68.54C806.63,-69.85 796.24,-71.19 786.16,-72.48"/>
<polygon fill="#63b8ff" stroke="#63b8ff" points="817.5,-71.99 826.97,-67.24 816.6,-65.05 817.5,-71.99"/>
</a>
</g>
</g>
<!-- Node12&#45;&gt;Node4 -->
<g id="edge14_Node000012_Node000004" class="edge">
<title>Node12&#45;&gt;Node4</title>
<g id="a_edge14_Node000012_Node000004"><a xlink:title=" ">
<path fill="none" stroke="#63b8ff" d="M1007.64,-14.17C955.27,-15.29 886.39,-19.86 827,-34 791.01,-42.57 751.79,-61.11 729.71,-72.47"/>
<polygon fill="#63b8ff" stroke="#63b8ff" points="1007.95,-17.66 1017.89,-13.99 1007.83,-10.66 1007.95,-17.66"/>
</a>
</g>
</g>
<!-- Node13&#45;&gt;Node10 -->
<g id="edge16_Node000013_Node000010" class="edge">
<title>Node13&#45;&gt;Node10</title>
<g id="a_edge16_Node000013_Node000010"><a xlink:title=" ">
<path fill="none" stroke="#63b8ff" d="M1006.31,-103.21C995.26,-103.51 984.01,-103.8 973.17,-104.09"/>
<polygon fill="#63b8ff" stroke="#63b8ff" points="1006.48,-106.71 1016.39,-102.95 1006.3,-99.71 1006.48,-106.71"/>
</a>
</g>
</g>
</g>
</svg>

<g id="navigator" transform="translate(0 0)" fill="#404254">
  <rect fill="#f2f5e9" fill-opacity="0.5" stroke="#606060" stroke-width=".5" x="0" y="0" width="60" height="60"/>
  <use id="zoomplus" xlink:href="#zoomPlus" x="17" y="9" onmousedown="handleZoom(evt,'in')"/>
  <use id="zoomminus" xlink:href="#zoomMin" x="42" y="9" onmousedown="handleZoom(evt,'out')"/>
  <use id="reset" xlink:href="#resetDef" x="30" y="36" onmousedown="handleReset()"/>
   <use id="arrowup" xlink:href="#arrowUp" x="0" y="0" onmousedown="handlePan(0,-1)"/>
  <use id="arrowright" xlink:href="#arrowRight" x="0" y="0" onmousedown="handlePan(1,0)"/>
  <use id="arrowdown" xlink:href="#arrowDown" x="0" y="0" onmousedown="handlePan(0,1)"/>
  <use id="arrowleft" xlink:href="#arrowLeft" x="0" y="0" onmousedown="handlePan(-1,0)"/>
</g>
<svg viewBox="0 0 15 15" width="100%" height="30px" preserveAspectRatio="xMaxYMin meet">
 <g id="arrow_out" transform="scale(0.3 0.3)">
  <a xlink:href="classTerraria_1_1Main_aaca6ecdcda722226821bd84fbb513df0_aaca6ecdcda722226821bd84fbb513df0_icgraph_org.svg" target="_base">
   <rect id="button" ry="5" rx="5" y="6" x="6" height="38" width="38"
        fill="#f2f5e9" fill-opacity="0.5" stroke="#606060" stroke-width="1.0"/>
   <path id="arrow"
     d="M 11.500037,31.436501 C 11.940474,20.09759 22.043105,11.32322 32.158766,21.979434 L 37.068811,17.246167 C 37.068811,17.246167 37.088388,32 37.088388,32 L 22.160133,31.978069 C 22.160133,31.978069 26.997745,27.140456 26.997745,27.140456 C 18.528582,18.264221 13.291696,25.230495 11.500037,31.436501 z"
     style="fill:#404040;"/>
  </a>
 </g>
</svg>

<style type='text/css'>
<![CDATA[
[data-mouse-over-selected='false'] { opacity: 0.7; }
[data-mouse-over-selected='true']  { opacity: 1.0; }
]]>
</style>
<script type="application/ecmascript"><![CDATA[
document.addEventListener('DOMContentLoaded', (event) => {
  highlightEdges();
  highlightAdjacentNodes();
});
]]></script>
</svg>
