<?xml version="1.0" encoding="UTF-8" standalone="no"?>
<!DOCTYPE svg PUBLIC "-//W3C//DTD SVG 1.1//EN"
 "http://www.w3.org/Graphics/SVG/1.1/DTD/svg11.dtd">
<!-- Generated by graphviz version 2.43.0 (0)
 -->
<!-- Title: Terraria.Main.UpdateAudio_DecideOnNewMusic Pages: 1 -->
<svg width="360pt" height="113pt"
 viewBox="0.00 0.00 360.00 112.50" xmlns="http://www.w3.org/2000/svg" xmlns:xlink="http://www.w3.org/1999/xlink">
<g id="graph0" class="graph" transform="scale(1 1) rotate(0) translate(4 108.5)">
<title>Terraria.Main.UpdateAudio_DecideOnNewMusic</title>
<!-- Node1 -->
<g id="Node000001" class="node">
<title>Node1</title>
<g id="a_Node000001"><a xlink:title=" ">
<polygon fill="#999999" stroke="#666666" points="146,-61.5 0,-61.5 0,-31.5 146,-31.5 146,-61.5"/>
<text text-anchor="start" x="8" y="-49.5" font-family="Helvetica,sans-Serif" font-size="10.00">Terraria.Main.UpdateAudio</text>
<text text-anchor="middle" x="73" y="-38.5" font-family="Helvetica,sans-Serif" font-size="10.00">_DecideOnNewMusic</text>
</a>
</g>
</g>
<!-- Node2 -->
<g id="Node000002" class="node">
<title>Node2</title>
<g id="a_Node000002"><a xlink:href="../../df/d0d/classTerraria_1_1NPC_a65e961aa838b7b043e44131b4371f0cf.html#a65e961aa838b7b043e44131b4371f0cf" target="_top" xlink:title="Gets the T:Terraria.ID.InvasionID associated with the given NPC type (F:Terraria.NPC....">
<polygon fill="white" stroke="#666666" points="346,-104.5 188,-104.5 188,-74.5 346,-74.5 346,-104.5"/>
<text text-anchor="start" x="196" y="-92.5" font-family="Helvetica,sans-Serif" font-size="10.00">Terraria.NPC.GetNPCInvasion</text>
<text text-anchor="middle" x="267" y="-81.5" font-family="Helvetica,sans-Serif" font-size="10.00">Group</text>
</a>
</g>
</g>
<!-- Node1&#45;&gt;Node2 -->
<g id="edge1_Node000001_Node000002" class="edge">
<title>Node1&#45;&gt;Node2</title>
<g id="a_edge1_Node000001_Node000002"><a xlink:title=" ">
<path fill="none" stroke="#63b8ff" d="M141.15,-61.54C156.64,-65.01 173.24,-68.73 189.11,-72.28"/>
<polygon fill="#63b8ff" stroke="#63b8ff" points="188.36,-75.7 198.89,-74.47 189.89,-68.87 188.36,-75.7"/>
</a>
</g>
</g>
<!-- Node3 -->
<g id="Node000003" class="node">
<title>Node3</title>
<g id="a_Node000003"><a xlink:href="../../de/da1/classTerraria_1_1WorldGen_adf59bfc3a2909993f72f0c69a5eaf553.html#adf59bfc3a2909993f72f0c69a5eaf553" target="_top" xlink:title=" ">
<polygon fill="white" stroke="#666666" points="338.5,-56 195.5,-56 195.5,-37 338.5,-37 338.5,-56"/>
<text text-anchor="middle" x="267" y="-44" font-family="Helvetica,sans-Serif" font-size="10.00">Terraria.WorldGen.InWorld</text>
</a>
</g>
</g>
<!-- Node1&#45;&gt;Node3 -->
<g id="edge2_Node000001_Node000003" class="edge">
<title>Node1&#45;&gt;Node3</title>
<g id="a_edge2_Node000001_Node000003"><a xlink:title=" ">
<path fill="none" stroke="#63b8ff" d="M146.04,-46.5C158.8,-46.5 172.17,-46.5 185.15,-46.5"/>
<polygon fill="#63b8ff" stroke="#63b8ff" points="185.47,-50 195.47,-46.5 185.47,-43 185.47,-50"/>
</a>
</g>
</g>
<!-- Node4 -->
<g id="Node000004" class="node">
<title>Node4</title>
<g id="a_Node000004"><a xlink:href="../../de/da1/classTerraria_1_1WorldGen_a78bf7054a60a560ab14394fb2cc88f03.html#a78bf7054a60a560ab14394fb2cc88f03" target="_top" xlink:title=" ">
<polygon fill="white" stroke="#666666" points="352,-19 182,-19 182,0 352,0 352,-19"/>
<text text-anchor="middle" x="267" y="-7" font-family="Helvetica,sans-Serif" font-size="10.00">Terraria.WorldGen.oceanDepths</text>
</a>
</g>
</g>
<!-- Node1&#45;&gt;Node4 -->
<g id="edge3_Node000001_Node000004" class="edge">
<title>Node1&#45;&gt;Node4</title>
<g id="a_edge3_Node000001_Node000004"><a xlink:title=" ">
<path fill="none" stroke="#63b8ff" d="M146.04,-32.62C165.97,-28.78 187.38,-24.65 206.51,-20.96"/>
<polygon fill="#63b8ff" stroke="#63b8ff" points="207.43,-24.35 216.59,-19.02 206.1,-17.48 207.43,-24.35"/>
</a>
</g>
</g>
</g>
</svg>
