<?xml version="1.0" encoding="UTF-8" standalone="no"?>
<!DOCTYPE svg PUBLIC "-//W3C//DTD SVG 1.1//EN"
 "http://www.w3.org/Graphics/SVG/1.1/DTD/svg11.dtd">
<!-- Generated by graphviz version 2.43.0 (0)
 -->
<!-- Title: Terraria.Main.DrawGamepadInstructions Pages: 1 -->
<!--zoomable 343 -->

<svg id="main" version="1.1" xmlns="http://www.w3.org/2000/svg" xmlns:xlink="http://www.w3.org/1999/xlink" xml:space="preserve" onload="init(evt)">
<style type="text/css"><![CDATA[
.node, .edge {opacity: 0.7;}
.node.selected, .edge.selected {opacity: 1;}
.edge:hover path { stroke: red; }
.edge:hover polygon { stroke: red; fill: red; }
]]></style>

<defs>
  <circle id="rim" cx="0" cy="0" r="7"/>
  <circle id="rim2" cx="0" cy="0" r="3.5"/>
  <g id="zoomPlus">
    <use xlink:href="#rim" fill="#404040"><set attributeName="fill" to="#808080" begin="zoomplus.mouseover" end="zoomplus.mouseout"/></use>
    <path d="M-4,0h8M0,-4v8" fill="none" stroke="white" stroke-width="1.5" pointer-events="none"/>
  </g>
  <g id="zoomMin">
    <use xlink:href="#rim" fill="#404040"><set attributeName="fill" to="#808080" begin="zoomminus.mouseover" end="zoomminus.mouseout"/></use>
    <path d="M-4,0h8" fill="none" stroke="white" stroke-width="1.5" pointer-events="none"/>
  </g>
  <g id="arrowUp" transform="translate(30 24)">
    <use xlink:href="#rim"/>
    <path pointer-events="none" fill="none" stroke="white" stroke-width="1.5" d="M0,-3.0v7 M-2.5,-0.5L0,-3.0L2.5,-0.5"/>
  </g>
  <g id="arrowRight" transform="rotate(90) translate(36 -43)">
    <use xlink:href="#rim"/>
    <path pointer-events="none" fill="none" stroke="white" stroke-width="1.5" d="M0,-3.0v7 M-2.5,-0.5L0,-3.0L2.5,-0.5"/>
  </g>
  <g id="arrowDown" transform="rotate(180) translate(-30 -48)">
    <use xlink:href="#rim"/>
    <path pointer-events="none" fill="none" stroke="white" stroke-width="1.5" d="M0,-3.0v7 M-2.5,-0.5L0,-3.0L2.5,-0.5"/>
  </g>
  <g id="arrowLeft" transform="rotate(270) translate(-36 17)">
    <use xlink:href="#rim"/>
    <path pointer-events="none" fill="none" stroke="white" stroke-width="1.5" d="M0,-3.0v7 M-2.5,-0.5L0,-3.0L2.5,-0.5"/>
  </g>
  <g id="resetDef">
    <use xlink:href="#rim2" fill="#404040"><set attributeName="fill" to="#808080" begin="reset.mouseover" end="reset.mouseout"/></use>
  </g>
</defs>
<script type="application/ecmascript">
var viewWidth = 1090;
var viewHeight = 343;
var sectionId = 'dynsection-0';
</script>
<script type="application/ecmascript" xlink:href="../../svg.min.js"/>
<svg id="graph" class="graph">
<g id="viewport">
<title>Terraria.Main.DrawGamepadInstructions</title>
<!-- Node1 -->
<g id="Node000001" class="node">
<title>Node1</title>
<g id="a_Node000001"><a xlink:title=" ">
<polygon fill="#999999" stroke="#666666" points="156,-152 0,-152 0,-122 156,-122 156,-152"/>
<text text-anchor="start" x="8" y="-140" font-family="Helvetica,sans-Serif" font-size="10.00">Terraria.Main.DrawGamepad</text>
<text text-anchor="middle" x="78" y="-129" font-family="Helvetica,sans-Serif" font-size="10.00">Instructions</text>
</a>
</g>
</g>
<!-- Node2 -->
<g id="Node000002" class="node">
<title>Node2</title>
<g id="a_Node000002"><a xlink:href="../../df/d5b/classTerraria_1_1GameInput_1_1PlayerInput_ae82575194c2a918ab066415c7f57b8f4.html#ae82575194c2a918ab066415c7f57b8f4" target="_top" xlink:title=" ">
<polygon fill="white" stroke="#666666" points="401,-244 192,-244 192,-214 401,-214 401,-244"/>
<text text-anchor="start" x="200" y="-232" font-family="Helvetica,sans-Serif" font-size="10.00">Terraria.GameInput.Player</text>
<text text-anchor="middle" x="296.5" y="-221" font-family="Helvetica,sans-Serif" font-size="10.00">Input.ComposeInstructionsForGamepad</text>
</a>
</g>
</g>
<!-- Node1&#45;&gt;Node2 -->
<g id="edge1_Node000001_Node000002" class="edge">
<title>Node1&#45;&gt;Node2</title>
<g id="a_edge1_Node000001_Node000002"><a xlink:title=" ">
<path fill="none" stroke="#63b8ff" d="M114.75,-152.19C152,-168.02 210.44,-192.86 250.74,-209.98"/>
<polygon fill="#63b8ff" stroke="#63b8ff" points="249.48,-213.25 260.06,-213.94 252.22,-206.81 249.48,-213.25"/>
</a>
</g>
</g>
<!-- Node11 -->
<g id="Node000011" class="node">
<title>Node11</title>
<g id="a_Node000011"><a xlink:href="../../d7/df6/classTerraria_1_1UI_1_1Chat_1_1ChatManager_a7261cbc482b776957bb8f3615380fbf2.html#a7261cbc482b776957bb8f3615380fbf2" target="_top" xlink:title=" ">
<polygon fill="white" stroke="#666666" points="390.5,-152 202.5,-152 202.5,-122 390.5,-122 390.5,-152"/>
<text text-anchor="start" x="210.5" y="-140" font-family="Helvetica,sans-Serif" font-size="10.00">Terraria.UI.Chat.ChatManager.</text>
<text text-anchor="middle" x="296.5" y="-129" font-family="Helvetica,sans-Serif" font-size="10.00">DrawColorCodedStringWithShadow</text>
</a>
</g>
</g>
<!-- Node1&#45;&gt;Node11 -->
<g id="edge10_Node000001_Node000011" class="edge">
<title>Node1&#45;&gt;Node11</title>
<g id="a_edge10_Node000001_Node000011"><a xlink:title=" ">
<path fill="none" stroke="#63b8ff" d="M156.24,-137C167.91,-137 180.11,-137 192.22,-137"/>
<polygon fill="#63b8ff" stroke="#63b8ff" points="192.36,-140.5 202.36,-137 192.36,-133.5 192.36,-140.5"/>
</a>
</g>
</g>
<!-- Node14 -->
<g id="Node000014" class="node">
<title>Node14</title>
<g id="a_Node000014"><a xlink:href="../../d7/df6/classTerraria_1_1UI_1_1Chat_1_1ChatManager_ad0daac781e8696c59955af964519db95.html#ad0daac781e8696c59955af964519db95" target="_top" xlink:title=" ">
<polygon fill="white" stroke="#666666" points="378,-74 215,-74 215,-44 378,-44 378,-74"/>
<text text-anchor="start" x="223" y="-62" font-family="Helvetica,sans-Serif" font-size="10.00">Terraria.UI.Chat.ChatManager.</text>
<text text-anchor="middle" x="296.5" y="-51" font-family="Helvetica,sans-Serif" font-size="10.00">GetStringSize</text>
</a>
</g>
</g>
<!-- Node1&#45;&gt;Node14 -->
<g id="edge14_Node000001_Node000014" class="edge">
<title>Node1&#45;&gt;Node14</title>
<g id="a_edge14_Node000001_Node000014"><a xlink:title=" ">
<path fill="none" stroke="#63b8ff" d="M120.74,-121.96C155.82,-109.32 206.12,-91.2 243.75,-77.64"/>
<polygon fill="#63b8ff" stroke="#63b8ff" points="245.29,-80.81 253.52,-74.13 242.92,-74.22 245.29,-80.81"/>
</a>
</g>
</g>
<!-- Node3 -->
<g id="Node000003" class="node">
<title>Node3</title>
<g id="a_Node000003"><a xlink:href="../../df/d5b/classTerraria_1_1GameInput_1_1PlayerInput_a99b6e8a56cf13dee834bbdcf9608f2ae.html#a99b6e8a56cf13dee834bbdcf9608f2ae" target="_top" xlink:title=" ">
<polygon fill="white" stroke="#666666" points="592,-335 448,-335 448,-305 592,-305 592,-335"/>
<text text-anchor="start" x="456" y="-323" font-family="Helvetica,sans-Serif" font-size="10.00">Terraria.GameInput.Player</text>
<text text-anchor="middle" x="520" y="-312" font-family="Helvetica,sans-Serif" font-size="10.00">Input.BuildCommand</text>
</a>
</g>
</g>
<!-- Node2&#45;&gt;Node3 -->
<g id="edge2_Node000002_Node000003" class="edge">
<title>Node2&#45;&gt;Node3</title>
<g id="a_edge2_Node000002_Node000003"><a xlink:title=" ">
<path fill="none" stroke="#63b8ff" d="M325.49,-244.12C353.24,-258.7 397.24,-280.75 437,-296 442.19,-297.99 447.63,-299.92 453.11,-301.75"/>
<polygon fill="#63b8ff" stroke="#63b8ff" points="452.42,-305.2 463.01,-304.94 454.57,-298.54 452.42,-305.2"/>
</a>
</g>
</g>
<!-- Node6 -->
<g id="Node000006" class="node">
<title>Node6</title>
<g id="a_Node000006"><a xlink:href="../../d4/dc5/classTerraria_1_1UI_1_1Gamepad_1_1UILinkPointNavigator_a90cc5c7d9e6629ba11c5f02286a202f5.html#a90cc5c7d9e6629ba11c5f02286a202f5" target="_top" xlink:title=" ">
<polygon fill="white" stroke="#666666" points="603,-287 437,-287 437,-257 603,-257 603,-287"/>
<text text-anchor="start" x="445" y="-275" font-family="Helvetica,sans-Serif" font-size="10.00">Terraria.UI.Gamepad.UILink</text>
<text text-anchor="middle" x="520" y="-264" font-family="Helvetica,sans-Serif" font-size="10.00">PointNavigator.GetInstructions</text>
</a>
</g>
</g>
<!-- Node2&#45;&gt;Node6 -->
<g id="edge5_Node000002_Node000006" class="edge">
<title>Node2&#45;&gt;Node6</title>
<g id="a_edge5_Node000002_Node000006"><a xlink:title=" ">
<path fill="none" stroke="#63b8ff" d="M374.97,-244.04C393.26,-247.59 412.89,-251.4 431.59,-255.03"/>
<polygon fill="#63b8ff" stroke="#63b8ff" points="431.09,-258.5 441.57,-256.97 432.42,-251.63 431.09,-258.5"/>
</a>
</g>
</g>
<!-- Node9 -->
<g id="Node000009" class="node">
<title>Node9</title>
<g id="a_Node000009"><a xlink:href="../../d4/d03/classTerraria_1_1Player_a6735800039fb139f23fab96e9c0c3d0d.html#a6735800039fb139f23fab96e9c0c3d0d" target="_top" xlink:title="Checks if the player has the specified item in their F:Terraria.Player.inventory. &#160;&#160;Does not check Vo...">
<polygon fill="white" stroke="#666666" points="585.5,-238.5 454.5,-238.5 454.5,-219.5 585.5,-219.5 585.5,-238.5"/>
<text text-anchor="middle" x="520" y="-226.5" font-family="Helvetica,sans-Serif" font-size="10.00">Terraria.Player.HasItem</text>
</a>
</g>
</g>
<!-- Node2&#45;&gt;Node9 -->
<g id="edge8_Node000002_Node000009" class="edge">
<title>Node2&#45;&gt;Node9</title>
<g id="a_edge8_Node000002_Node000009"><a xlink:title=" ">
<path fill="none" stroke="#63b8ff" d="M401.12,-229C415.56,-229 430.17,-229 443.95,-229"/>
<polygon fill="#63b8ff" stroke="#63b8ff" points="444.31,-232.5 454.31,-229 444.31,-225.5 444.31,-232.5"/>
</a>
</g>
</g>
<!-- Node10 -->
<g id="Node000010" class="node">
<title>Node10</title>
<g id="a_Node000010"><a xlink:href="../../d4/d03/classTerraria_1_1Player_a2fd978e1e4a96baf9d8e7da79117fcbe.html#a2fd978e1e4a96baf9d8e7da79117fcbe" target="_top" xlink:title=" ">
<polygon fill="white" stroke="#666666" points="597.5,-201 442.5,-201 442.5,-171 597.5,-171 597.5,-201"/>
<text text-anchor="start" x="450.5" y="-189" font-family="Helvetica,sans-Serif" font-size="10.00">Terraria.Player.QuickGrapple</text>
<text text-anchor="middle" x="520" y="-178" font-family="Helvetica,sans-Serif" font-size="10.00">_GetItemToUse</text>
</a>
</g>
</g>
<!-- Node2&#45;&gt;Node10 -->
<g id="edge9_Node000002_Node000010" class="edge">
<title>Node2&#45;&gt;Node10</title>
<g id="a_edge9_Node000002_Node000010"><a xlink:title=" ">
<path fill="none" stroke="#63b8ff" d="M374.97,-213.96C393.56,-210.35 413.53,-206.47 432.5,-202.79"/>
<polygon fill="#63b8ff" stroke="#63b8ff" points="433.17,-206.23 442.32,-200.89 431.84,-199.36 433.17,-206.23"/>
</a>
</g>
</g>
<!-- Node4 -->
<g id="Node000004" class="node">
<title>Node4</title>
<g id="a_Node000004"><a xlink:href="../../df/d5b/classTerraria_1_1GameInput_1_1PlayerInput_a29aac4df5b0a5fb6d692119be1816a28.html#a29aac4df5b0a5fb6d692119be1816a28" target="_top" xlink:title=" ">
<polygon fill="white" stroke="#666666" points="820,-335 676,-335 676,-305 820,-305 820,-335"/>
<text text-anchor="start" x="684" y="-323" font-family="Helvetica,sans-Serif" font-size="10.00">Terraria.GameInput.Player</text>
<text text-anchor="middle" x="748" y="-312" font-family="Helvetica,sans-Serif" font-size="10.00">Input.GenerateGlyphList</text>
</a>
</g>
</g>
<!-- Node3&#45;&gt;Node4 -->
<g id="edge3_Node000003_Node000004" class="edge">
<title>Node3&#45;&gt;Node4</title>
<g id="a_edge3_Node000003_Node000004"><a xlink:title=" ">
<path fill="none" stroke="#63b8ff" d="M592.2,-320C615.52,-320 641.61,-320 665.62,-320"/>
<polygon fill="#63b8ff" stroke="#63b8ff" points="665.77,-323.5 675.77,-320 665.77,-316.5 665.77,-323.5"/>
</a>
</g>
</g>
<!-- Node5 -->
<g id="Node000005" class="node">
<title>Node5</title>
<g id="a_Node000005"><a xlink:href="../../dc/d17/classTerraria_1_1GameContent_1_1UI_1_1Chat_1_1GlyphTagHandler_a511708739227699872d3403ed39db655.html#a511708739227699872d3403ed39db655" target="_top" xlink:title=" ">
<polygon fill="white" stroke="#666666" points="1082,-335 893,-335 893,-305 1082,-305 1082,-335"/>
<text text-anchor="start" x="901" y="-323" font-family="Helvetica,sans-Serif" font-size="10.00">Terraria.GameContent.UI.</text>
<text text-anchor="middle" x="987.5" y="-312" font-family="Helvetica,sans-Serif" font-size="10.00">Chat.GlyphTagHandler.GenerateTag</text>
</a>
</g>
</g>
<!-- Node4&#45;&gt;Node5 -->
<g id="edge4_Node000004_Node000005" class="edge">
<title>Node4&#45;&gt;Node5</title>
<g id="a_edge4_Node000004_Node000005"><a xlink:title=" ">
<path fill="none" stroke="#63b8ff" d="M820.26,-320C839.87,-320 861.54,-320 882.59,-320"/>
<polygon fill="#63b8ff" stroke="#63b8ff" points="882.86,-323.5 892.86,-320 882.86,-316.5 882.86,-323.5"/>
</a>
</g>
</g>
<!-- Node7 -->
<g id="Node000007" class="node">
<title>Node7</title>
<g id="a_Node000007"><a xlink:href="../../d4/dc5/classTerraria_1_1UI_1_1Gamepad_1_1UILinkPointNavigator_a96067844bd513545525f731744610a6c.html#a96067844bd513545525f731744610a6c" target="_top" xlink:title=" ">
<polygon fill="white" stroke="#666666" points="857,-287 639,-287 639,-257 857,-257 857,-287"/>
<text text-anchor="start" x="647" y="-275" font-family="Helvetica,sans-Serif" font-size="10.00">Terraria.UI.Gamepad.UILink</text>
<text text-anchor="middle" x="748" y="-264" font-family="Helvetica,sans-Serif" font-size="10.00">PointNavigator.ConsumeSuggestionSwap</text>
</a>
</g>
</g>
<!-- Node6&#45;&gt;Node7 -->
<g id="edge6_Node000006_Node000007" class="edge">
<title>Node6&#45;&gt;Node7</title>
<g id="a_edge6_Node000006_Node000007"><a xlink:title=" ">
<path fill="none" stroke="#63b8ff" d="M603.23,-272C611.58,-272 620.16,-272 628.79,-272"/>
<polygon fill="#63b8ff" stroke="#63b8ff" points="628.93,-275.5 638.93,-272 628.93,-268.5 628.93,-275.5"/>
</a>
</g>
</g>
<!-- Node8 -->
<g id="Node000008" class="node">
<title>Node8</title>
<g id="a_Node000008"><a xlink:href="../../d4/dc5/classTerraria_1_1UI_1_1Gamepad_1_1UILinkPointNavigator_a77c1a6e87a25e0e9b23822ff516716cf.html#a77c1a6e87a25e0e9b23822ff516716cf" target="_top" xlink:title=" ">
<polygon fill="white" stroke="#666666" points="839,-239 657,-239 657,-209 839,-209 839,-239"/>
<text text-anchor="start" x="665" y="-227" font-family="Helvetica,sans-Serif" font-size="10.00">Terraria.UI.Gamepad.UILink</text>
<text text-anchor="middle" x="748" y="-216" font-family="Helvetica,sans-Serif" font-size="10.00">PointNavigator.SwapToSuggestion</text>
</a>
</g>
</g>
<!-- Node6&#45;&gt;Node8 -->
<g id="edge7_Node000006_Node000008" class="edge">
<title>Node6&#45;&gt;Node8</title>
<g id="a_edge7_Node000006_Node000008"><a xlink:title=" ">
<path fill="none" stroke="#63b8ff" d="M591.89,-256.94C615.55,-251.92 642.09,-246.28 666.44,-241.11"/>
<polygon fill="#63b8ff" stroke="#63b8ff" points="667.31,-244.5 676.36,-239 665.85,-237.66 667.31,-244.5"/>
</a>
</g>
</g>
<!-- Node12 -->
<g id="Node000012" class="node">
<title>Node12</title>
<g id="a_Node000012"><a xlink:href="../../d7/df6/classTerraria_1_1UI_1_1Chat_1_1ChatManager_a6c98dcde7ddfbad7c688abece0168bd5.html#a6c98dcde7ddfbad7c688abece0168bd5" target="_top" xlink:title=" ">
<polygon fill="white" stroke="#666666" points="829.5,-147 666.5,-147 666.5,-117 829.5,-117 829.5,-147"/>
<text text-anchor="start" x="674.5" y="-135" font-family="Helvetica,sans-Serif" font-size="10.00">Terraria.UI.Chat.ChatManager.</text>
<text text-anchor="middle" x="748" y="-124" font-family="Helvetica,sans-Serif" font-size="10.00">DrawColorCodedString</text>
</a>
</g>
</g>
<!-- Node11&#45;&gt;Node12 -->
<g id="edge11_Node000011_Node000012" class="edge">
<title>Node11&#45;&gt;Node12</title>
<g id="a_edge11_Node000011_Node000012"><a xlink:title=" ">
<path fill="none" stroke="#63b8ff" d="M390.64,-135.96C468.53,-135.1 578.98,-133.87 656.21,-133.01"/>
<polygon fill="#63b8ff" stroke="#63b8ff" points="656.44,-136.51 666.41,-132.9 656.37,-129.51 656.44,-136.51"/>
</a>
</g>
</g>
<!-- Node13 -->
<g id="Node000013" class="node">
<title>Node13</title>
<g id="a_Node000013"><a xlink:href="../../d7/df6/classTerraria_1_1UI_1_1Chat_1_1ChatManager_a1670663fb8873fdd4856644c9e72ed05.html#a1670663fb8873fdd4856644c9e72ed05" target="_top" xlink:title=" ">
<polygon fill="white" stroke="#666666" points="602.5,-115 437.5,-115 437.5,-85 602.5,-85 602.5,-115"/>
<text text-anchor="start" x="445.5" y="-103" font-family="Helvetica,sans-Serif" font-size="10.00">Terraria.UI.Chat.ChatManager.</text>
<text text-anchor="middle" x="520" y="-92" font-family="Helvetica,sans-Serif" font-size="10.00">DrawColorCodedStringShadow</text>
</a>
</g>
</g>
<!-- Node11&#45;&gt;Node13 -->
<g id="edge12_Node000011_Node000013" class="edge">
<title>Node11&#45;&gt;Node13</title>
<g id="a_edge12_Node000011_Node000013"><a xlink:title=" ">
<path fill="none" stroke="#63b8ff" d="M387.59,-121.95C400.67,-119.77 414.14,-117.52 427.25,-115.33"/>
<polygon fill="#63b8ff" stroke="#63b8ff" points="427.9,-118.77 437.19,-113.67 426.75,-111.86 427.9,-118.77"/>
</a>
</g>
</g>
<!-- Node13&#45;&gt;Node12 -->
<g id="edge13_Node000013_Node000012" class="edge">
<title>Node13&#45;&gt;Node12</title>
<g id="a_edge13_Node000013_Node000012"><a xlink:title=" ">
<path fill="none" stroke="#63b8ff" d="M602.59,-111.55C619.92,-114.01 638.33,-116.61 655.99,-119.11"/>
<polygon fill="#63b8ff" stroke="#63b8ff" points="655.89,-122.63 666.29,-120.57 656.88,-115.7 655.89,-122.63"/>
</a>
</g>
</g>
<!-- Node14&#45;&gt;Node14 -->
<g id="edge15_Node000014_Node000014" class="edge">
<title>Node14&#45;&gt;Node14</title>
<g id="a_edge15_Node000014_Node000014"><a xlink:title=" ">
<path fill="none" stroke="#63b8ff" d="M258.18,-74.28C249.66,-83.41 262.44,-92 296.5,-92 316.72,-92 329.44,-88.97 334.66,-84.6"/>
<polygon fill="#63b8ff" stroke="#63b8ff" points="338.16,-84.33 334.82,-74.28 331.16,-84.22 338.16,-84.33"/>
</a>
</g>
</g>
<!-- Node15 -->
<g id="Node000015" class="node">
<title>Node15</title>
<g id="a_Node000015"><a xlink:href="../../d7/df6/classTerraria_1_1UI_1_1Chat_1_1ChatManager_af687cd1f70060817f5984ef2b554cf40.html#af687cd1f70060817f5984ef2b554cf40" target="_top" xlink:title=" ">
<polygon fill="white" stroke="#666666" points="601.5,-67 438.5,-67 438.5,-37 601.5,-37 601.5,-67"/>
<text text-anchor="start" x="446.5" y="-55" font-family="Helvetica,sans-Serif" font-size="10.00">Terraria.UI.Chat.ChatManager.</text>
<text text-anchor="middle" x="520" y="-44" font-family="Helvetica,sans-Serif" font-size="10.00">ParseMessage</text>
</a>
</g>
</g>
<!-- Node14&#45;&gt;Node15 -->
<g id="edge16_Node000014_Node000015" class="edge">
<title>Node14&#45;&gt;Node15</title>
<g id="a_edge16_Node000014_Node000015"><a xlink:title=" ">
<path fill="none" stroke="#63b8ff" d="M378.09,-56.45C394.38,-55.94 411.61,-55.39 428.22,-54.87"/>
<polygon fill="#63b8ff" stroke="#63b8ff" points="428.58,-58.36 438.47,-54.55 428.36,-51.36 428.58,-58.36"/>
</a>
</g>
</g>
<!-- Node16 -->
<g id="Node000016" class="node">
<title>Node16</title>
<g id="a_Node000016"><a xlink:href="../../d7/df6/classTerraria_1_1UI_1_1Chat_1_1ChatManager_ad57d7ce4542b2df5cd9ff15c86855f3f.html#ad57d7ce4542b2df5cd9ff15c86855f3f" target="_top" xlink:title=" ">
<polygon fill="white" stroke="#666666" points="829.5,-78 666.5,-78 666.5,-48 829.5,-48 829.5,-78"/>
<text text-anchor="start" x="674.5" y="-66" font-family="Helvetica,sans-Serif" font-size="10.00">Terraria.UI.Chat.ChatManager.</text>
<text text-anchor="middle" x="748" y="-55" font-family="Helvetica,sans-Serif" font-size="10.00">GetHandler</text>
</a>
</g>
</g>
<!-- Node15&#45;&gt;Node16 -->
<g id="edge17_Node000015_Node000016" class="edge">
<title>Node15&#45;&gt;Node16</title>
<g id="a_edge17_Node000015_Node000016"><a xlink:title=" ">
<path fill="none" stroke="#63b8ff" d="M601.63,-55.92C619.31,-56.78 638.13,-57.7 656.17,-58.58"/>
<polygon fill="#63b8ff" stroke="#63b8ff" points="656.24,-62.09 666.4,-59.08 656.58,-55.09 656.24,-62.09"/>
</a>
</g>
</g>
<!-- Node17 -->
<g id="Node000017" class="node">
<title>Node17</title>
<g id="a_Node000017"><a xlink:href="../../dc/d25/interfaceTerraria_1_1UI_1_1Chat_1_1ITagHandler_aa5a15f340434dc9990b2b10b306642a6.html#aa5a15f340434dc9990b2b10b306642a6" target="_top" xlink:title=" ">
<polygon fill="white" stroke="#666666" points="825.5,-30 670.5,-30 670.5,0 825.5,0 825.5,-30"/>
<text text-anchor="start" x="678.5" y="-18" font-family="Helvetica,sans-Serif" font-size="10.00">Terraria.UI.Chat.ITagHandler.</text>
<text text-anchor="middle" x="748" y="-7" font-family="Helvetica,sans-Serif" font-size="10.00">Parse</text>
</a>
</g>
</g>
<!-- Node15&#45;&gt;Node17 -->
<g id="edge18_Node000015_Node000017" class="edge">
<title>Node15&#45;&gt;Node17</title>
<g id="a_edge18_Node000015_Node000017"><a xlink:title=" ">
<path fill="none" stroke="#63b8ff" d="M601.63,-38.8C620.63,-35.69 640.97,-32.36 660.22,-29.21"/>
<polygon fill="#63b8ff" stroke="#63b8ff" points="660.88,-32.65 670.18,-27.58 659.75,-25.74 660.88,-32.65"/>
</a>
</g>
</g>
</g>
</svg>

<g id="navigator" transform="translate(0 0)" fill="#404254">
  <rect fill="#f2f5e9" fill-opacity="0.5" stroke="#606060" stroke-width=".5" x="0" y="0" width="60" height="60"/>
  <use id="zoomplus" xlink:href="#zoomPlus" x="17" y="9" onmousedown="handleZoom(evt,'in')"/>
  <use id="zoomminus" xlink:href="#zoomMin" x="42" y="9" onmousedown="handleZoom(evt,'out')"/>
  <use id="reset" xlink:href="#resetDef" x="30" y="36" onmousedown="handleReset()"/>
   <use id="arrowup" xlink:href="#arrowUp" x="0" y="0" onmousedown="handlePan(0,-1)"/>
  <use id="arrowright" xlink:href="#arrowRight" x="0" y="0" onmousedown="handlePan(1,0)"/>
  <use id="arrowdown" xlink:href="#arrowDown" x="0" y="0" onmousedown="handlePan(0,1)"/>
  <use id="arrowleft" xlink:href="#arrowLeft" x="0" y="0" onmousedown="handlePan(-1,0)"/>
</g>
<svg viewBox="0 0 15 15" width="100%" height="30px" preserveAspectRatio="xMaxYMin meet">
 <g id="arrow_out" transform="scale(0.3 0.3)">
  <a xlink:href="classTerraria_1_1Main_af1d8d779bc3fb4e567f056da3c5a3cc2_af1d8d779bc3fb4e567f056da3c5a3cc2_cgraph_org.svg" target="_base">
   <rect id="button" ry="5" rx="5" y="6" x="6" height="38" width="38"
        fill="#f2f5e9" fill-opacity="0.5" stroke="#606060" stroke-width="1.0"/>
   <path id="arrow"
     d="M 11.500037,31.436501 C 11.940474,20.09759 22.043105,11.32322 32.158766,21.979434 L 37.068811,17.246167 C 37.068811,17.246167 37.088388,32 37.088388,32 L 22.160133,31.978069 C 22.160133,31.978069 26.997745,27.140456 26.997745,27.140456 C 18.528582,18.264221 13.291696,25.230495 11.500037,31.436501 z"
     style="fill:#404040;"/>
  </a>
 </g>
</svg>

<style type='text/css'>
<![CDATA[
[data-mouse-over-selected='false'] { opacity: 0.7; }
[data-mouse-over-selected='true']  { opacity: 1.0; }
]]>
</style>
<script type="application/ecmascript"><![CDATA[
document.addEventListener('DOMContentLoaded', (event) => {
  highlightEdges();
  highlightAdjacentNodes();
});
]]></script>
</svg>
