<?xml version="1.0" encoding="UTF-8" standalone="no"?>
<!DOCTYPE svg PUBLIC "-//W3C//DTD SVG 1.1//EN"
 "http://www.w3.org/Graphics/SVG/1.1/DTD/svg11.dtd">
<!-- Generated by graphviz version 2.43.0 (0)
 -->
<!-- Title: Terraria.ModLoader.ItemLoader.GetHealLife Pages: 1 -->
<!--zoomable 553 -->

<svg id="main" version="1.1" xmlns="http://www.w3.org/2000/svg" xmlns:xlink="http://www.w3.org/1999/xlink" xml:space="preserve" onload="init(evt)">
<style type="text/css"><![CDATA[
.node, .edge {opacity: 0.7;}
.node.selected, .edge.selected {opacity: 1;}
.edge:hover path { stroke: red; }
.edge:hover polygon { stroke: red; fill: red; }
]]></style>

<defs>
  <circle id="rim" cx="0" cy="0" r="7"/>
  <circle id="rim2" cx="0" cy="0" r="3.5"/>
  <g id="zoomPlus">
    <use xlink:href="#rim" fill="#404040"><set attributeName="fill" to="#808080" begin="zoomplus.mouseover" end="zoomplus.mouseout"/></use>
    <path d="M-4,0h8M0,-4v8" fill="none" stroke="white" stroke-width="1.5" pointer-events="none"/>
  </g>
  <g id="zoomMin">
    <use xlink:href="#rim" fill="#404040"><set attributeName="fill" to="#808080" begin="zoomminus.mouseover" end="zoomminus.mouseout"/></use>
    <path d="M-4,0h8" fill="none" stroke="white" stroke-width="1.5" pointer-events="none"/>
  </g>
  <g id="arrowUp" transform="translate(30 24)">
    <use xlink:href="#rim"/>
    <path pointer-events="none" fill="none" stroke="white" stroke-width="1.5" d="M0,-3.0v7 M-2.5,-0.5L0,-3.0L2.5,-0.5"/>
  </g>
  <g id="arrowRight" transform="rotate(90) translate(36 -43)">
    <use xlink:href="#rim"/>
    <path pointer-events="none" fill="none" stroke="white" stroke-width="1.5" d="M0,-3.0v7 M-2.5,-0.5L0,-3.0L2.5,-0.5"/>
  </g>
  <g id="arrowDown" transform="rotate(180) translate(-30 -48)">
    <use xlink:href="#rim"/>
    <path pointer-events="none" fill="none" stroke="white" stroke-width="1.5" d="M0,-3.0v7 M-2.5,-0.5L0,-3.0L2.5,-0.5"/>
  </g>
  <g id="arrowLeft" transform="rotate(270) translate(-36 17)">
    <use xlink:href="#rim"/>
    <path pointer-events="none" fill="none" stroke="white" stroke-width="1.5" d="M0,-3.0v7 M-2.5,-0.5L0,-3.0L2.5,-0.5"/>
  </g>
  <g id="resetDef">
    <use xlink:href="#rim2" fill="#404040"><set attributeName="fill" to="#808080" begin="reset.mouseover" end="reset.mouseout"/></use>
  </g>
</defs>
<script type="application/ecmascript">
var viewWidth = 2075;
var viewHeight = 553;
var sectionId = 'dynsection-0';
</script>
<script type="application/ecmascript" xlink:href="../../svg.min.js"/>
<svg id="graph" class="graph">
<g id="viewport">
<title>Terraria.ModLoader.ItemLoader.GetHealLife</title>
<!-- Node1 -->
<g id="Node000001" class="node">
<title>Node1</title>
<g id="a_Node000001"><a xlink:title="Calls ModItem.GetHealLife, then all GlobalItem.GetHealLife hooks.">
<polygon fill="#999999" stroke="#666666" points="2067,-132 1897,-132 1897,-102 2067,-102 2067,-132"/>
<text text-anchor="start" x="1905" y="-120" font-family="Helvetica,sans-Serif" font-size="10.00">Terraria.ModLoader.ItemLoader.</text>
<text text-anchor="middle" x="1982" y="-109" font-family="Helvetica,sans-Serif" font-size="10.00">GetHealLife</text>
</a>
</g>
</g>
<!-- Node2 -->
<g id="Node000002" class="node">
<title>Node2</title>
<g id="a_Node000002"><a xlink:href="../../d4/d03/classTerraria_1_1Player_ae1a2c924e9d18531dc1fb51e3a0f8904.html#ae1a2c924e9d18531dc1fb51e3a0f8904" target="_top" xlink:title=" ">
<polygon fill="white" stroke="#666666" points="1861,-126.5 1714,-126.5 1714,-107.5 1861,-107.5 1861,-126.5"/>
<text text-anchor="middle" x="1787.5" y="-114.5" font-family="Helvetica,sans-Serif" font-size="10.00">Terraria.Player.GetHealLife</text>
</a>
</g>
</g>
<!-- Node1&#45;&gt;Node2 -->
<g id="edge1_Node000001_Node000002" class="edge">
<title>Node1&#45;&gt;Node2</title>
<g id="a_edge1_Node000001_Node000002"><a xlink:title=" ">
<path fill="none" stroke="#63b8ff" d="M1886.73,-117C1878.09,-117 1869.43,-117 1861.03,-117"/>
<polygon fill="#63b8ff" stroke="#63b8ff" points="1886.85,-120.5 1896.85,-117 1886.85,-113.5 1886.85,-120.5"/>
</a>
</g>
</g>
<!-- Node3 -->
<g id="Node000003" class="node">
<title>Node3</title>
<g id="a_Node000003"><a xlink:href="../../d4/d03/classTerraria_1_1Player_a68ae97c979e78cb669b29a4a79d37a32.html#a68ae97c979e78cb669b29a4a79d37a32" target="_top" xlink:title=" ">
<polygon fill="white" stroke="#666666" points="1675.5,-172 1540.5,-172 1540.5,-142 1675.5,-142 1675.5,-172"/>
<text text-anchor="start" x="1548.5" y="-160" font-family="Helvetica,sans-Serif" font-size="10.00">Terraria.Player.ApplyLife</text>
<text text-anchor="middle" x="1608" y="-149" font-family="Helvetica,sans-Serif" font-size="10.00">AndOrMana</text>
</a>
</g>
</g>
<!-- Node2&#45;&gt;Node3 -->
<g id="edge2_Node000002_Node000003" class="edge">
<title>Node2&#45;&gt;Node3</title>
<g id="a_edge2_Node000002_Node000003"><a xlink:title=" ">
<path fill="none" stroke="#63b8ff" d="M1734.11,-128.81C1715.83,-132.93 1695.07,-137.6 1675.78,-141.95"/>
<polygon fill="#63b8ff" stroke="#63b8ff" points="1735,-132.19 1743.98,-126.58 1733.46,-125.37 1735,-132.19"/>
</a>
</g>
</g>
<!-- Node22 -->
<g id="Node000022" class="node">
<title>Node22</title>
<g id="a_Node000022"><a xlink:href="../../d4/d03/classTerraria_1_1Player_abcb8b46a98440d7ab9d53dbea3f1e741.html#abcb8b46a98440d7ab9d53dbea3f1e741" target="_top" xlink:title=" ">
<polygon fill="white" stroke="#666666" points="1678,-108 1538,-108 1538,-78 1678,-78 1678,-108"/>
<text text-anchor="start" x="1546" y="-96" font-family="Helvetica,sans-Serif" font-size="10.00">Terraria.Player.QuickHeal</text>
<text text-anchor="middle" x="1608" y="-85" font-family="Helvetica,sans-Serif" font-size="10.00">_GetItemToUse</text>
</a>
</g>
</g>
<!-- Node2&#45;&gt;Node22 -->
<g id="edge31_Node000002_Node000022" class="edge">
<title>Node2&#45;&gt;Node22</title>
<g id="a_edge31_Node000002_Node000022"><a xlink:title=" ">
<path fill="none" stroke="#63b8ff" d="M1706.05,-106.12C1696.74,-104.86 1687.31,-103.59 1678.16,-102.35"/>
<polygon fill="#63b8ff" stroke="#63b8ff" points="1705.71,-109.61 1716.09,-107.48 1706.65,-102.67 1705.71,-109.61"/>
</a>
</g>
</g>
<!-- Node4 -->
<g id="Node000004" class="node">
<title>Node4</title>
<g id="a_Node000004"><a xlink:href="../../d4/d03/classTerraria_1_1Player_a3eacd4d33ca74609db3633d339c047f8.html#a3eacd4d33ca74609db3633d339c047f8" target="_top" xlink:title=" ">
<polygon fill="white" stroke="#666666" points="688,-364 546,-364 546,-334 688,-334 688,-364"/>
<text text-anchor="start" x="554" y="-352" font-family="Helvetica,sans-Serif" font-size="10.00">Terraria.Player.ItemCheck</text>
<text text-anchor="middle" x="617" y="-341" font-family="Helvetica,sans-Serif" font-size="10.00">_Inner</text>
</a>
</g>
</g>
<!-- Node3&#45;&gt;Node4 -->
<g id="edge3_Node000003_Node000004" class="edge">
<title>Node3&#45;&gt;Node4</title>
<g id="a_edge3_Node000003_Node000004"><a xlink:title=" ">
<path fill="none" stroke="#63b8ff" d="M1596.99,-181.63C1560.49,-267.01 1425.79,-545 1219.5,-545 1219.5,-545 1219.5,-545 1005,-545 844.96,-545 683.96,-409.95 633.86,-364.05"/>
<polygon fill="#63b8ff" stroke="#63b8ff" points="1600.3,-182.78 1600.95,-172.21 1593.85,-180.07 1600.3,-182.78"/>
</a>
</g>
</g>
<!-- Node8 -->
<g id="Node000008" class="node">
<title>Node8</title>
<g id="a_Node000008"><a xlink:href="../../d4/d03/classTerraria_1_1Player_a73a1d6af46b1f641705f4f248b5c1094.html#a73a1d6af46b1f641705f4f248b5c1094" target="_top" xlink:title=" ">
<polygon fill="white" stroke="#666666" points="687,-155.5 547,-155.5 547,-136.5 687,-136.5 687,-155.5"/>
<text text-anchor="middle" x="617" y="-143.5" font-family="Helvetica,sans-Serif" font-size="10.00">Terraria.Player.QuickHeal</text>
</a>
</g>
</g>
<!-- Node3&#45;&gt;Node8 -->
<g id="edge7_Node000003_Node000008" class="edge">
<title>Node3&#45;&gt;Node8</title>
<g id="a_edge7_Node000003_Node000008"><a xlink:title=" ">
<path fill="none" stroke="#63b8ff" d="M1529.92,-152.89C1451.74,-149.08 1327.24,-144 1219.5,-144 1219.5,-144 1219.5,-144 1005,-144 893.8,-144 764.64,-144.84 687.21,-145.43"/>
<polygon fill="#63b8ff" stroke="#63b8ff" points="1530.01,-156.4 1540.17,-153.4 1530.35,-149.41 1530.01,-156.4"/>
</a>
</g>
</g>
<!-- Node9 -->
<g id="Node000009" class="node">
<title>Node9</title>
<g id="a_Node000009"><a xlink:href="../../d4/d03/classTerraria_1_1Player_acf8d2268f879f47593e017b7cbfb5157.html#acf8d2268f879f47593e017b7cbfb5157" target="_top" xlink:title=" ">
<polygon fill="white" stroke="#666666" points="1491.5,-344.5 1347.5,-344.5 1347.5,-325.5 1491.5,-325.5 1491.5,-344.5"/>
<text text-anchor="middle" x="1419.5" y="-332.5" font-family="Helvetica,sans-Serif" font-size="10.00">Terraria.Player.QuickMana</text>
</a>
</g>
</g>
<!-- Node3&#45;&gt;Node9 -->
<g id="edge9_Node000003_Node000009" class="edge">
<title>Node3&#45;&gt;Node9</title>
<g id="a_edge9_Node000003_Node000009"><a xlink:title=" ">
<path fill="none" stroke="#63b8ff" d="M1583.73,-179.21C1542.78,-218.3 1459.41,-297.87 1430.58,-325.38"/>
<polygon fill="#63b8ff" stroke="#63b8ff" points="1586.28,-181.61 1591.1,-172.18 1581.45,-176.55 1586.28,-181.61"/>
</a>
</g>
</g>
<!-- Node5 -->
<g id="Node000005" class="node">
<title>Node5</title>
<g id="a_Node000005"><a xlink:href="../../d4/d03/classTerraria_1_1Player_a2ec9343f552a36a4a82b36dbae10c965.html#a2ec9343f552a36a4a82b36dbae10c965" target="_top" xlink:title=" ">
<polygon fill="white" stroke="#666666" points="502,-358.5 360,-358.5 360,-339.5 502,-339.5 502,-358.5"/>
<text text-anchor="middle" x="431" y="-346.5" font-family="Helvetica,sans-Serif" font-size="10.00">Terraria.Player.ItemCheck</text>
</a>
</g>
</g>
<!-- Node4&#45;&gt;Node5 -->
<g id="edge4_Node000004_Node000005" class="edge">
<title>Node4&#45;&gt;Node5</title>
<g id="a_edge4_Node000004_Node000005"><a xlink:title=" ">
<path fill="none" stroke="#63b8ff" d="M535.74,-349C524.57,-349 513.16,-349 502.2,-349"/>
<polygon fill="#63b8ff" stroke="#63b8ff" points="535.91,-352.5 545.91,-349 535.91,-345.5 535.91,-352.5"/>
</a>
</g>
</g>
<!-- Node6 -->
<g id="Node000006" class="node">
<title>Node6</title>
<g id="a_Node000006"><a xlink:href="../../d4/d03/classTerraria_1_1Player_a687261287a0d6ac3be2592f9a734f199.html#a687261287a0d6ac3be2592f9a734f199" target="_top" xlink:title=" ">
<polygon fill="white" stroke="#666666" points="309.5,-364 167.5,-364 167.5,-334 309.5,-334 309.5,-364"/>
<text text-anchor="start" x="175.5" y="-352" font-family="Helvetica,sans-Serif" font-size="10.00">Terraria.Player.ItemCheck</text>
<text text-anchor="middle" x="238.5" y="-341" font-family="Helvetica,sans-Serif" font-size="10.00">Wrapped</text>
</a>
</g>
</g>
<!-- Node5&#45;&gt;Node6 -->
<g id="edge5_Node000005_Node000006" class="edge">
<title>Node5&#45;&gt;Node6</title>
<g id="a_edge5_Node000005_Node000006"><a xlink:title=" ">
<path fill="none" stroke="#63b8ff" d="M349.81,-349C336.51,-349 322.82,-349 309.79,-349"/>
<polygon fill="#63b8ff" stroke="#63b8ff" points="349.88,-352.5 359.88,-349 349.88,-345.5 349.88,-352.5"/>
</a>
</g>
</g>
<!-- Node7 -->
<g id="Node000007" class="node">
<title>Node7</title>
<g id="a_Node000007"><a xlink:href="../../d4/d03/classTerraria_1_1Player_af44290f5d38b6d5076a5fa8d6ee3dd12.html#af44290f5d38b6d5076a5fa8d6ee3dd12" target="_top" xlink:title=" ">
<polygon fill="white" stroke="#666666" points="125,-277.5 0,-277.5 0,-258.5 125,-258.5 125,-277.5"/>
<text text-anchor="middle" x="62.5" y="-265.5" font-family="Helvetica,sans-Serif" font-size="10.00">Terraria.Player.Update</text>
</a>
</g>
</g>
<!-- Node6&#45;&gt;Node7 -->
<g id="edge6_Node000006_Node000007" class="edge">
<title>Node6&#45;&gt;Node7</title>
<g id="a_edge6_Node000006_Node000007"><a xlink:title=" ">
<path fill="none" stroke="#63b8ff" d="M185.44,-330.29C177.19,-327.03 168.81,-323.54 161,-320 131.83,-306.76 99.22,-288.66 80.08,-277.68"/>
<polygon fill="#63b8ff" stroke="#63b8ff" points="184.43,-333.65 195.02,-334 186.95,-327.12 184.43,-333.65"/>
</a>
</g>
</g>
<!-- Node8&#45;&gt;Node7 -->
<g id="edge8_Node000008_Node000007" class="edge">
<title>Node8&#45;&gt;Node7</title>
<g id="a_edge8_Node000008_Node000007"><a xlink:title=" ">
<path fill="none" stroke="#63b8ff" d="M536.37,-138.54C442.73,-132.93 284.41,-133.49 161,-185 121.41,-201.52 86.1,-240.31 71.11,-258.4"/>
<polygon fill="#63b8ff" stroke="#63b8ff" points="536.42,-142.05 546.63,-139.19 536.87,-135.06 536.42,-142.05"/>
</a>
</g>
</g>
<!-- Node9&#45;&gt;Node7 -->
<g id="edge30_Node000009_Node000007" class="edge">
<title>Node9&#45;&gt;Node7</title>
<g id="a_edge30_Node000009_Node000007"><a xlink:title=" ">
<path fill="none" stroke="#63b8ff" d="M1369.73,-347.36C1358.85,-350.51 1347.44,-354.11 1337,-358 1228,-398.6 1212.68,-440.14 1100,-469 971.01,-502.04 934.16,-488 801,-488 801,-488 801,-488 430,-488 299.98,-488 267.33,-447.83 161,-373 120.92,-344.8 84.79,-297.82 70.26,-277.67"/>
<polygon fill="#63b8ff" stroke="#63b8ff" points="1370.85,-350.68 1379.53,-344.61 1368.95,-343.94 1370.85,-350.68"/>
</a>
</g>
</g>
<!-- Node10 -->
<g id="Node000010" class="node">
<title>Node10</title>
<g id="a_Node000010"><a xlink:href="../../d4/d03/classTerraria_1_1Player_a4ef23a5f51ec2f67ac861644247be9db.html#a4ef23a5f51ec2f67ac861644247be9db" target="_top" xlink:title=" ">
<polygon fill="white" stroke="#666666" points="1291.5,-344.5 1145.5,-344.5 1145.5,-325.5 1291.5,-325.5 1291.5,-344.5"/>
<text text-anchor="middle" x="1218.5" y="-332.5" font-family="Helvetica,sans-Serif" font-size="10.00">Terraria.Player.CheckMana</text>
</a>
</g>
</g>
<!-- Node9&#45;&gt;Node10 -->
<g id="edge10_Node000009_Node000010" class="edge">
<title>Node9&#45;&gt;Node10</title>
<g id="a_edge10_Node000009_Node000010"><a xlink:title=" ">
<path fill="none" stroke="#63b8ff" d="M1337.2,-335C1322.17,-335 1306.56,-335 1291.82,-335"/>
<polygon fill="#63b8ff" stroke="#63b8ff" points="1337.5,-338.5 1347.5,-335 1337.5,-331.5 1337.5,-338.5"/>
</a>
</g>
</g>
<!-- Node21 -->
<g id="Node000021" class="node">
<title>Node21</title>
<g id="a_Node000021"><a xlink:href="../../d4/d03/classTerraria_1_1Player_a31c5440aab112f0e1cae5491984115ef.html#a31c5440aab112f0e1cae5491984115ef" target="_top" xlink:title="Determines if this player has enough mana to use an item. &#160;&#160;If the player doesn&#39;t have enough mana an...">
<polygon fill="white" stroke="#666666" points="1291.5,-516.5 1145.5,-516.5 1145.5,-497.5 1291.5,-497.5 1291.5,-516.5"/>
<text text-anchor="middle" x="1218.5" y="-504.5" font-family="Helvetica,sans-Serif" font-size="10.00">Terraria.Player.CheckMana</text>
</a>
</g>
</g>
<!-- Node9&#45;&gt;Node21 -->
<g id="edge29_Node000009_Node000021" class="edge">
<title>Node9&#45;&gt;Node21</title>
<g id="a_edge29_Node000009_Node000021"><a xlink:title=" ">
<path fill="none" stroke="#63b8ff" d="M1408.77,-353.64C1391.41,-385.08 1352.06,-448.58 1301,-483 1291.7,-489.27 1280.75,-493.93 1269.93,-497.38"/>
<polygon fill="#63b8ff" stroke="#63b8ff" points="1411.96,-355.1 1413.62,-344.64 1405.8,-351.78 1411.96,-355.1"/>
</a>
</g>
</g>
<!-- Node11 -->
<g id="Node000011" class="node">
<title>Node11</title>
<g id="a_Node000011"><a xlink:href="../../da/dd3/classTerraria_1_1Projectile_a827d4003f55835dfe746e466f14df2a5.html#a827d4003f55835dfe746e466f14df2a5" target="_top" xlink:title=" ">
<polygon fill="white" stroke="#666666" points="1075,-411.5 937,-411.5 937,-392.5 1075,-392.5 1075,-411.5"/>
<text text-anchor="middle" x="1006" y="-399.5" font-family="Helvetica,sans-Serif" font-size="10.00">Terraria.Projectile.AI_075</text>
</a>
</g>
</g>
<!-- Node10&#45;&gt;Node11 -->
<g id="edge11_Node000010_Node000011" class="edge">
<title>Node10&#45;&gt;Node11</title>
<g id="a_edge11_Node000010_Node000011"><a xlink:title=" ">
<path fill="none" stroke="#63b8ff" d="M1187.75,-348.96C1164.33,-359.5 1130.63,-373.7 1100,-383 1088.02,-386.64 1074.95,-389.79 1062.5,-392.42"/>
<polygon fill="#63b8ff" stroke="#63b8ff" points="1189.47,-352.02 1197.12,-344.69 1186.57,-345.65 1189.47,-352.02"/>
</a>
</g>
</g>
<!-- Node12 -->
<g id="Node000012" class="node">
<title>Node12</title>
<g id="a_Node000012"><a xlink:href="../../da/dd3/classTerraria_1_1Projectile_aa3220841343b2b9014ae808568e18ba3.html#aa3220841343b2b9014ae808568e18ba3" target="_top" xlink:title=" ">
<polygon fill="white" stroke="#666666" points="1063.5,-374 948.5,-374 948.5,-344 1063.5,-344 1063.5,-374"/>
<text text-anchor="start" x="956.5" y="-362" font-family="Helvetica,sans-Serif" font-size="10.00">Terraria.Projectile.AI</text>
<text text-anchor="middle" x="1006" y="-351" font-family="Helvetica,sans-Serif" font-size="10.00">_100_Medusa</text>
</a>
</g>
</g>
<!-- Node10&#45;&gt;Node12 -->
<g id="edge12_Node000010_Node000012" class="edge">
<title>Node10&#45;&gt;Node12</title>
<g id="a_edge12_Node000010_Node000012"><a xlink:title=" ">
<path fill="none" stroke="#63b8ff" d="M1135.22,-344.38C1111.31,-347.11 1085.74,-350.02 1063.77,-352.53"/>
<polygon fill="#63b8ff" stroke="#63b8ff" points="1135.81,-347.84 1145.35,-343.23 1135.02,-340.88 1135.81,-347.84"/>
</a>
</g>
</g>
<!-- Node13 -->
<g id="Node000013" class="node">
<title>Node13</title>
<g id="a_Node000013"><a xlink:href="../../da/dd3/classTerraria_1_1Projectile_a0db6198b3b52c3370c313b9c65dc96ad.html#a0db6198b3b52c3370c313b9c65dc96ad" target="_top" xlink:title=" ">
<polygon fill="white" stroke="#666666" points="1063.5,-460 948.5,-460 948.5,-430 1063.5,-430 1063.5,-460"/>
<text text-anchor="start" x="956.5" y="-448" font-family="Helvetica,sans-Serif" font-size="10.00">Terraria.Projectile.AI</text>
<text text-anchor="middle" x="1006" y="-437" font-family="Helvetica,sans-Serif" font-size="10.00">_185_LifeDrain</text>
</a>
</g>
</g>
<!-- Node10&#45;&gt;Node13 -->
<g id="edge13_Node000010_Node000013" class="edge">
<title>Node10&#45;&gt;Node13</title>
<g id="a_edge13_Node000010_Node000013"><a xlink:title=" ">
<path fill="none" stroke="#63b8ff" d="M1199.87,-351.28C1178.03,-370.63 1138.9,-402.58 1100,-421 1088.7,-426.35 1076.03,-430.63 1063.78,-434"/>
<polygon fill="#63b8ff" stroke="#63b8ff" points="1202.27,-353.83 1207.37,-344.54 1197.59,-348.63 1202.27,-353.83"/>
</a>
</g>
</g>
<!-- Node14 -->
<g id="Node000014" class="node">
<title>Node14</title>
<g id="a_Node000014"><a xlink:href="../../d4/d03/classTerraria_1_1Player_a86038d41090cc1bc8428bf0115ca67dd.html#a86038d41090cc1bc8428bf0115ca67dd" target="_top" xlink:title=" ">
<polygon fill="white" stroke="#666666" points="1100,-326 912,-326 912,-296 1100,-296 1100,-326"/>
<text text-anchor="start" x="920" y="-314" font-family="Helvetica,sans-Serif" font-size="10.00">Terraria.Player.CommandForbidden</text>
<text text-anchor="middle" x="1006" y="-303" font-family="Helvetica,sans-Serif" font-size="10.00">Storm</text>
</a>
</g>
</g>
<!-- Node10&#45;&gt;Node14 -->
<g id="edge14_Node000010_Node000014" class="edge">
<title>Node10&#45;&gt;Node14</title>
<g id="a_edge14_Node000010_Node000014"><a xlink:title=" ">
<path fill="none" stroke="#63b8ff" d="M1135.35,-325.63C1123.85,-324.32 1111.95,-322.97 1100.26,-321.63"/>
<polygon fill="#63b8ff" stroke="#63b8ff" points="1135.02,-329.12 1145.35,-326.77 1135.81,-322.16 1135.02,-329.12"/>
</a>
</g>
</g>
<!-- Node16 -->
<g id="Node000016" class="node">
<title>Node16</title>
<g id="a_Node000016"><a xlink:href="../../d4/d03/classTerraria_1_1Player_afb7111f0ec4db0b90a9778bd49b549e5.html#afb7111f0ec4db0b90a9778bd49b549e5" target="_top" xlink:title=" ">
<polygon fill="white" stroke="#666666" points="1077,-240 935,-240 935,-210 1077,-210 1077,-240"/>
<text text-anchor="start" x="943" y="-228" font-family="Helvetica,sans-Serif" font-size="10.00">Terraria.Player.ItemCheck</text>
<text text-anchor="middle" x="1006" y="-217" font-family="Helvetica,sans-Serif" font-size="10.00">_PayMana</text>
</a>
</g>
</g>
<!-- Node10&#45;&gt;Node16 -->
<g id="edge17_Node000010_Node000016" class="edge">
<title>Node10&#45;&gt;Node16</title>
<g id="a_edge17_Node000010_Node000016"><a xlink:title=" ">
<path fill="none" stroke="#63b8ff" d="M1198.2,-318.95C1175.8,-301.01 1137.17,-272.09 1100,-254 1089.05,-248.67 1076.9,-244.05 1065.1,-240.15"/>
<polygon fill="#63b8ff" stroke="#63b8ff" points="1196.25,-321.88 1206.22,-325.47 1200.67,-316.45 1196.25,-321.88"/>
</a>
</g>
</g>
<!-- Node18 -->
<g id="Node000018" class="node">
<title>Node18</title>
<g id="a_Node000018"><a xlink:href="../../d4/d03/classTerraria_1_1Player_a3cacb3a4e80b9b3b876ee1f745d4bab3.html#a3cacb3a4e80b9b3b876ee1f745d4bab3" target="_top" xlink:title=" ">
<polygon fill="white" stroke="#666666" points="685.5,-277.5 548.5,-277.5 548.5,-258.5 685.5,-258.5 685.5,-277.5"/>
<text text-anchor="middle" x="617" y="-265.5" font-family="Helvetica,sans-Serif" font-size="10.00">Terraria.Player.QuickBuff</text>
</a>
</g>
</g>
<!-- Node10&#45;&gt;Node18 -->
<g id="edge28_Node000010_Node000018" class="edge">
<title>Node10&#45;&gt;Node18</title>
<g id="a_edge28_Node000010_Node000018"><a xlink:title=" ">
<path fill="none" stroke="#63b8ff" d="M1190.59,-320.84C1167.32,-309.38 1132.41,-294.03 1100,-287 954.93,-255.53 779.68,-258.53 685.59,-263.35"/>
<polygon fill="#63b8ff" stroke="#63b8ff" points="1189.31,-324.12 1199.81,-325.48 1192.45,-317.86 1189.31,-324.12"/>
</a>
</g>
</g>
<!-- Node15 -->
<g id="Node000015" class="node">
<title>Node15</title>
<g id="a_Node000015"><a xlink:href="../../d4/d03/classTerraria_1_1Player_a906779742b0853d9da956d724cbc214b.html#a906779742b0853d9da956d724cbc214b" target="_top" xlink:title=" ">
<polygon fill="white" stroke="#666666" points="510,-315.5 352,-315.5 352,-296.5 510,-296.5 510,-315.5"/>
<text text-anchor="middle" x="431" y="-303.5" font-family="Helvetica,sans-Serif" font-size="10.00">Terraria.Player.KeyDoubleTap</text>
</a>
</g>
</g>
<!-- Node14&#45;&gt;Node15 -->
<g id="edge15_Node000014_Node000015" class="edge">
<title>Node14&#45;&gt;Node15</title>
<g id="a_edge15_Node000014_Node000015"><a xlink:title=" ">
<path fill="none" stroke="#63b8ff" d="M901.98,-310.1C789.47,-309.12 611.8,-307.57 510.19,-306.68"/>
<polygon fill="#63b8ff" stroke="#63b8ff" points="901.95,-313.6 911.98,-310.19 902.01,-306.6 901.95,-313.6"/>
</a>
</g>
</g>
<!-- Node15&#45;&gt;Node7 -->
<g id="edge16_Node000015_Node000007" class="edge">
<title>Node15&#45;&gt;Node7</title>
<g id="a_edge16_Node000015_Node000007"><a xlink:title=" ">
<path fill="none" stroke="#63b8ff" d="M341.93,-299.34C289.35,-295.07 221.27,-289.01 161,-282 149.36,-280.65 136.97,-279.02 125.07,-277.35"/>
<polygon fill="#63b8ff" stroke="#63b8ff" points="341.65,-302.83 351.9,-300.15 342.22,-295.85 341.65,-302.83"/>
</a>
</g>
</g>
<!-- Node17 -->
<g id="Node000017" class="node">
<title>Node17</title>
<g id="a_Node000017"><a xlink:href="../../d4/d03/classTerraria_1_1Player_a786de40af93d6a0a64f91cf55a4b0c5f.html#a786de40af93d6a0a64f91cf55a4b0c5f" target="_top" xlink:title=" ">
<polygon fill="white" stroke="#666666" points="871,-240 729,-240 729,-210 871,-210 871,-240"/>
<text text-anchor="start" x="737" y="-228" font-family="Helvetica,sans-Serif" font-size="10.00">Terraria.Player.ItemCheck</text>
<text text-anchor="middle" x="800" y="-217" font-family="Helvetica,sans-Serif" font-size="10.00">_CheckCanUse</text>
</a>
</g>
</g>
<!-- Node16&#45;&gt;Node17 -->
<g id="edge18_Node000016_Node000017" class="edge">
<title>Node16&#45;&gt;Node17</title>
<g id="a_edge18_Node000016_Node000017"><a xlink:title=" ">
<path fill="none" stroke="#63b8ff" d="M924.56,-225C906.97,-225 888.49,-225 871.33,-225"/>
<polygon fill="#63b8ff" stroke="#63b8ff" points="924.79,-228.5 934.79,-225 924.79,-221.5 924.79,-228.5"/>
</a>
</g>
</g>
<!-- Node17&#45;&gt;Node4 -->
<g id="edge19_Node000017_Node000004" class="edge">
<title>Node17&#45;&gt;Node4</title>
<g id="a_edge19_Node000017_Node000004"><a xlink:title=" ">
<path fill="none" stroke="#63b8ff" d="M768.54,-245.87C732.19,-270.77 672.28,-311.81 640.09,-333.86"/>
<polygon fill="#63b8ff" stroke="#63b8ff" points="770.53,-248.74 776.81,-240.2 766.58,-242.97 770.53,-248.74"/>
</a>
</g>
</g>
<!-- Node17&#45;&gt;Node8 -->
<g id="edge24_Node000017_Node000008" class="edge">
<title>Node17&#45;&gt;Node8</title>
<g id="a_edge24_Node000017_Node000008"><a xlink:title=" ">
<path fill="none" stroke="#63b8ff" d="M755.11,-205.84C718.63,-189.92 668.26,-167.94 639.83,-155.53"/>
<polygon fill="#63b8ff" stroke="#63b8ff" points="753.96,-209.16 764.53,-209.95 756.76,-202.75 753.96,-209.16"/>
</a>
</g>
</g>
<!-- Node17&#45;&gt;Node9 -->
<g id="edge25_Node000017_Node000009" class="edge">
<title>Node17&#45;&gt;Node9</title>
<g id="a_edge25_Node000017_Node000009"><a xlink:title=" ">
<path fill="none" stroke="#63b8ff" d="M869.43,-207.82C883.42,-204.98 898.12,-202.48 912,-201 995.08,-192.12 1018.1,-184.47 1100,-201 1222.61,-225.74 1356.77,-299.07 1402.34,-325.43"/>
<polygon fill="#63b8ff" stroke="#63b8ff" points="868.44,-204.45 859.38,-209.94 869.89,-211.3 868.44,-204.45"/>
</a>
</g>
</g>
<!-- Node17&#45;&gt;Node18 -->
<g id="edge20_Node000017_Node000018" class="edge">
<title>Node17&#45;&gt;Node18</title>
<g id="a_edge20_Node000017_Node000018"><a xlink:title=" ">
<path fill="none" stroke="#63b8ff" d="M725.89,-242.37C702.74,-247.87 678.02,-253.74 658.08,-258.48"/>
<polygon fill="#63b8ff" stroke="#63b8ff" points="726.77,-245.76 735.69,-240.04 725.16,-238.95 726.77,-245.76"/>
</a>
</g>
</g>
<!-- Node19 -->
<g id="Node000019" class="node">
<title>Node19</title>
<g id="a_Node000019"><a xlink:href="../../d4/d03/classTerraria_1_1Player_a70ae3e0d9ccf9eab703180b364db7a68.html#a70ae3e0d9ccf9eab703180b364db7a68" target="_top" xlink:title=" ">
<polygon fill="white" stroke="#666666" points="316,-239.5 161,-239.5 161,-220.5 316,-220.5 316,-239.5"/>
<text text-anchor="middle" x="238.5" y="-227.5" font-family="Helvetica,sans-Serif" font-size="10.00">Terraria.Player.QuickGrapple</text>
</a>
</g>
</g>
<!-- Node17&#45;&gt;Node19 -->
<g id="edge22_Node000017_Node000019" class="edge">
<title>Node17&#45;&gt;Node19</title>
<g id="a_edge22_Node000017_Node000019"><a xlink:title=" ">
<path fill="none" stroke="#63b8ff" d="M718.85,-225.72C611.42,-226.68 422.01,-228.37 316.31,-229.31"/>
<polygon fill="#63b8ff" stroke="#63b8ff" points="719.02,-229.21 728.99,-225.63 718.96,-222.22 719.02,-229.21"/>
</a>
</g>
</g>
<!-- Node20 -->
<g id="Node000020" class="node">
<title>Node20</title>
<g id="a_Node000020"><a xlink:href="../../d4/d03/classTerraria_1_1Player_a8f2dd1098d6a8f74b9d574760344b5b0.html#a8f2dd1098d6a8f74b9d574760344b5b0" target="_top" xlink:title=" ">
<polygon fill="white" stroke="#666666" points="505,-201.5 357,-201.5 357,-182.5 505,-182.5 505,-201.5"/>
<text text-anchor="middle" x="431" y="-189.5" font-family="Helvetica,sans-Serif" font-size="10.00">Terraria.Player.QuickMount</text>
</a>
</g>
</g>
<!-- Node17&#45;&gt;Node20 -->
<g id="edge26_Node000017_Node000020" class="edge">
<title>Node17&#45;&gt;Node20</title>
<g id="a_edge26_Node000017_Node000020"><a xlink:title=" ">
<path fill="none" stroke="#63b8ff" d="M718.68,-217.78C655.06,-212.06 566.93,-204.13 505.23,-198.58"/>
<polygon fill="#63b8ff" stroke="#63b8ff" points="718.4,-221.27 728.67,-218.68 719.03,-214.29 718.4,-221.27"/>
</a>
</g>
</g>
<!-- Node18&#45;&gt;Node7 -->
<g id="edge21_Node000018_Node000007" class="edge">
<title>Node18&#45;&gt;Node7</title>
<g id="a_edge21_Node000018_Node000007"><a xlink:title=" ">
<path fill="none" stroke="#63b8ff" d="M538.14,-268C427.25,-268 226.11,-268 125,-268"/>
<polygon fill="#63b8ff" stroke="#63b8ff" points="538.25,-271.5 548.25,-268 538.25,-264.5 538.25,-271.5"/>
</a>
</g>
</g>
<!-- Node19&#45;&gt;Node7 -->
<g id="edge23_Node000019_Node000007" class="edge">
<title>Node19&#45;&gt;Node7</title>
<g id="a_edge23_Node000019_Node000007"><a xlink:title=" ">
<path fill="none" stroke="#63b8ff" d="M183.69,-241.75C159.08,-247.13 130.31,-253.41 107.09,-258.48"/>
<polygon fill="#63b8ff" stroke="#63b8ff" points="184.57,-245.14 193.59,-239.59 183.08,-238.3 184.57,-245.14"/>
</a>
</g>
</g>
<!-- Node20&#45;&gt;Node7 -->
<g id="edge27_Node000020_Node000007" class="edge">
<title>Node20&#45;&gt;Node7</title>
<g id="a_edge27_Node000020_Node000007"><a xlink:title=" ">
<path fill="none" stroke="#63b8ff" d="M346.52,-188.75C292.49,-188.93 221.25,-193.51 161,-212 127.78,-222.19 93.62,-245.29 75.89,-258.41"/>
<polygon fill="#63b8ff" stroke="#63b8ff" points="346.74,-192.25 356.74,-188.77 346.75,-185.25 346.74,-192.25"/>
</a>
</g>
</g>
<!-- Node22&#45;&gt;Node8 -->
<g id="edge39_Node000022_Node000008" class="edge">
<title>Node22&#45;&gt;Node8</title>
<g id="a_edge39_Node000022_Node000008"><a xlink:title=" ">
<path fill="none" stroke="#63b8ff" d="M1527.45,-97.23C1449.14,-101.02 1326.11,-106 1219.5,-106 1219.5,-106 1219.5,-106 1005,-106 886.96,-106 749.75,-124.64 674.53,-136.47"/>
<polygon fill="#63b8ff" stroke="#63b8ff" points="1527.91,-100.71 1537.72,-96.73 1527.57,-93.72 1527.91,-100.71"/>
</a>
</g>
</g>
<!-- Node23 -->
<g id="Node000023" class="node">
<title>Node23</title>
<g id="a_Node000023"><a xlink:href="../../dd/de1/classTerraria_1_1UI_1_1ItemSlot_a7ae0b61112292ef0d1b04e5bac61bcaa.html#a7ae0b61112292ef0d1b04e5bac61bcaa" target="_top" xlink:title=" ">
<polygon fill="white" stroke="#666666" points="1489.5,-30 1349.5,-30 1349.5,0 1489.5,0 1489.5,-30"/>
<text text-anchor="start" x="1357.5" y="-18" font-family="Helvetica,sans-Serif" font-size="10.00">Terraria.UI.ItemSlot.Draw</text>
<text text-anchor="middle" x="1419.5" y="-7" font-family="Helvetica,sans-Serif" font-size="10.00">RadialQuicks</text>
</a>
</g>
</g>
<!-- Node22&#45;&gt;Node23 -->
<g id="edge32_Node000022_Node000023" class="edge">
<title>Node22&#45;&gt;Node23</title>
<g id="a_edge32_Node000022_Node000023"><a xlink:title=" ">
<path fill="none" stroke="#63b8ff" d="M1572.11,-72.95C1552.04,-61.96 1526.1,-48.64 1502,-39 1493.92,-35.77 1485.24,-32.75 1476.66,-30.02"/>
<polygon fill="#63b8ff" stroke="#63b8ff" points="1570.45,-76.03 1580.89,-77.82 1573.84,-69.91 1570.45,-76.03"/>
</a>
</g>
</g>
<!-- Node30 -->
<g id="Node000030" class="node">
<title>Node30</title>
<g id="a_Node000030"><a xlink:href="../../d3/d7f/classTerraria_1_1GameContent_1_1ChromaHotkeyPainter_af6193d02d270bf74aad4cbb5c92ad9fb.html#af6193d02d270bf74aad4cbb5c92ad9fb" target="_top" xlink:title=" ">
<polygon fill="white" stroke="#666666" points="1502,-78 1337,-78 1337,-48 1502,-48 1502,-78"/>
<text text-anchor="start" x="1345" y="-66" font-family="Helvetica,sans-Serif" font-size="10.00">Terraria.GameContent.Chroma</text>
<text text-anchor="middle" x="1419.5" y="-55" font-family="Helvetica,sans-Serif" font-size="10.00">HotkeyPainter.Step_QuickHeal</text>
</a>
</g>
</g>
<!-- Node22&#45;&gt;Node30 -->
<g id="edge40_Node000022_Node000030" class="edge">
<title>Node22&#45;&gt;Node30</title>
<g id="a_edge40_Node000022_Node000030"><a xlink:title=" ">
<path fill="none" stroke="#63b8ff" d="M1527.91,-80.28C1519.4,-78.91 1510.72,-77.51 1502.17,-76.14"/>
<polygon fill="#63b8ff" stroke="#63b8ff" points="1527.39,-83.74 1537.82,-81.87 1528.5,-76.83 1527.39,-83.74"/>
</a>
</g>
</g>
<!-- Node24 -->
<g id="Node000024" class="node">
<title>Node24</title>
<g id="a_Node000024"><a xlink:href="../../da/dd5/classTerraria_1_1Main_abb0e6f37d78e7f2dc3df275587f20193.html#abb0e6f37d78e7f2dc3df275587f20193" target="_top" xlink:title=" ">
<polygon fill="white" stroke="#666666" points="1296,-30 1141,-30 1141,0 1296,0 1296,-30"/>
<text text-anchor="start" x="1149" y="-18" font-family="Helvetica,sans-Serif" font-size="10.00">Terraria.Main.DrawInterface</text>
<text text-anchor="middle" x="1218.5" y="-7" font-family="Helvetica,sans-Serif" font-size="10.00">_32_GamepadRadialHotbars</text>
</a>
</g>
</g>
<!-- Node23&#45;&gt;Node24 -->
<g id="edge33_Node000023_Node000024" class="edge">
<title>Node23&#45;&gt;Node24</title>
<g id="a_edge33_Node000023_Node000024"><a xlink:title=" ">
<path fill="none" stroke="#63b8ff" d="M1339.26,-15C1325.09,-15 1310.35,-15 1296.25,-15"/>
<polygon fill="#63b8ff" stroke="#63b8ff" points="1339.46,-18.5 1349.46,-15 1339.46,-11.5 1339.46,-18.5"/>
</a>
</g>
</g>
<!-- Node25 -->
<g id="Node000025" class="node">
<title>Node25</title>
<g id="a_Node000025"><a xlink:href="../../da/dd5/classTerraria_1_1Main_a635639e6a6d3795bbfbcf0e24fc3aac5.html#a635639e6a6d3795bbfbcf0e24fc3aac5" target="_top" xlink:title=" ">
<polygon fill="white" stroke="#666666" points="1096,-30 916,-30 916,0 1096,0 1096,-30"/>
<text text-anchor="start" x="924" y="-18" font-family="Helvetica,sans-Serif" font-size="10.00">Terraria.Main.SetupDrawInterface</text>
<text text-anchor="middle" x="1006" y="-7" font-family="Helvetica,sans-Serif" font-size="10.00">Layers</text>
</a>
</g>
</g>
<!-- Node24&#45;&gt;Node25 -->
<g id="edge34_Node000024_Node000025" class="edge">
<title>Node24&#45;&gt;Node25</title>
<g id="a_edge34_Node000024_Node000025"><a xlink:title=" ">
<path fill="none" stroke="#63b8ff" d="M1130.89,-15C1119.39,-15 1107.58,-15 1096.04,-15"/>
<polygon fill="#63b8ff" stroke="#63b8ff" points="1130.91,-18.5 1140.91,-15 1130.91,-11.5 1130.91,-18.5"/>
</a>
</g>
</g>
<!-- Node26 -->
<g id="Node000026" class="node">
<title>Node26</title>
<g id="a_Node000026"><a xlink:href="../../da/dd5/classTerraria_1_1Main_a36d139a1fd2647d53f25a241f3d5d5f4.html#a36d139a1fd2647d53f25a241f3d5d5f4" target="_top" xlink:title=" ">
<polygon fill="white" stroke="#666666" points="876,-24.5 724,-24.5 724,-5.5 876,-5.5 876,-24.5"/>
<text text-anchor="middle" x="800" y="-12.5" font-family="Helvetica,sans-Serif" font-size="10.00">Terraria.Main.DrawInterface</text>
</a>
</g>
</g>
<!-- Node25&#45;&gt;Node26 -->
<g id="edge35_Node000025_Node000026" class="edge">
<title>Node25&#45;&gt;Node26</title>
<g id="a_edge35_Node000025_Node000026"><a xlink:title=" ">
<path fill="none" stroke="#63b8ff" d="M905.58,-15C895.72,-15 885.84,-15 876.29,-15"/>
<polygon fill="#63b8ff" stroke="#63b8ff" points="905.82,-18.5 915.82,-15 905.82,-11.5 905.82,-18.5"/>
</a>
</g>
</g>
<!-- Node27 -->
<g id="Node000027" class="node">
<title>Node27</title>
<g id="a_Node000027"><a xlink:href="../../da/dd5/classTerraria_1_1Main_a474beeecaea4d6dd108fba56cd554d46.html#a474beeecaea4d6dd108fba56cd554d46" target="_top" xlink:title=" ">
<polygon fill="white" stroke="#666666" points="678,-24.5 556,-24.5 556,-5.5 678,-5.5 678,-24.5"/>
<text text-anchor="middle" x="617" y="-12.5" font-family="Helvetica,sans-Serif" font-size="10.00">Terraria.Main.DoDraw</text>
</a>
</g>
</g>
<!-- Node26&#45;&gt;Node27 -->
<g id="edge36_Node000026_Node000027" class="edge">
<title>Node26&#45;&gt;Node27</title>
<g id="a_edge36_Node000026_Node000027"><a xlink:title=" ">
<path fill="none" stroke="#63b8ff" d="M713.74,-15C701.69,-15 689.51,-15 678.07,-15"/>
<polygon fill="#63b8ff" stroke="#63b8ff" points="713.81,-18.5 723.81,-15 713.81,-11.5 713.81,-18.5"/>
</a>
</g>
</g>
<!-- Node28 -->
<g id="Node000028" class="node">
<title>Node28</title>
<g id="a_Node000028"><a xlink:href="../../da/dd5/classTerraria_1_1Main_aa597dbafa085227bb056d05d0b0f9abe.html#aa597dbafa085227bb056d05d0b0f9abe" target="_top" xlink:title=" ">
<polygon fill="white" stroke="#666666" points="485.5,-30 376.5,-30 376.5,0 485.5,0 485.5,-30"/>
<text text-anchor="start" x="384.5" y="-18" font-family="Helvetica,sans-Serif" font-size="10.00">Terraria.Main.Draw</text>
<text text-anchor="middle" x="431" y="-7" font-family="Helvetica,sans-Serif" font-size="10.00">_Inner</text>
</a>
</g>
</g>
<!-- Node27&#45;&gt;Node28 -->
<g id="edge37_Node000027_Node000028" class="edge">
<title>Node27&#45;&gt;Node28</title>
<g id="a_edge37_Node000027_Node000028"><a xlink:title=" ">
<path fill="none" stroke="#63b8ff" d="M545.5,-15C525.6,-15 504.29,-15 485.56,-15"/>
<polygon fill="#63b8ff" stroke="#63b8ff" points="545.75,-18.5 555.75,-15 545.75,-11.5 545.75,-18.5"/>
</a>
</g>
</g>
<!-- Node29 -->
<g id="Node000029" class="node">
<title>Node29</title>
<g id="a_Node000029"><a xlink:href="../../da/dd5/classTerraria_1_1Main_a516aa31311860bad4242ade32e5effcd.html#a516aa31311860bad4242ade32e5effcd" target="_top" xlink:title=" ">
<polygon fill="white" stroke="#666666" points="293,-24.5 184,-24.5 184,-5.5 293,-5.5 293,-24.5"/>
<text text-anchor="middle" x="238.5" y="-12.5" font-family="Helvetica,sans-Serif" font-size="10.00">Terraria.Main.Draw</text>
</a>
</g>
</g>
<!-- Node28&#45;&gt;Node29 -->
<g id="edge38_Node000028_Node000029" class="edge">
<title>Node28&#45;&gt;Node29</title>
<g id="a_edge38_Node000028_Node000029"><a xlink:title=" ">
<path fill="none" stroke="#63b8ff" d="M366.15,-15C342.52,-15 315.98,-15 293.33,-15"/>
<polygon fill="#63b8ff" stroke="#63b8ff" points="366.43,-18.5 376.43,-15 366.43,-11.5 366.43,-18.5"/>
</a>
</g>
</g>
<!-- Node31 -->
<g id="Node000031" class="node">
<title>Node31</title>
<g id="a_Node000031"><a xlink:href="../../d3/d7f/classTerraria_1_1GameContent_1_1ChromaHotkeyPainter_a3733cd329046b9c075e79f2c6cb07b2e.html#a3733cd329046b9c075e79f2c6cb07b2e" target="_top" xlink:title=" ">
<polygon fill="white" stroke="#666666" points="1301,-78 1136,-78 1136,-48 1301,-48 1301,-78"/>
<text text-anchor="start" x="1144" y="-66" font-family="Helvetica,sans-Serif" font-size="10.00">Terraria.GameContent.Chroma</text>
<text text-anchor="middle" x="1218.5" y="-55" font-family="Helvetica,sans-Serif" font-size="10.00">HotkeyPainter.Update</text>
</a>
</g>
</g>
<!-- Node30&#45;&gt;Node31 -->
<g id="edge41_Node000030_Node000031" class="edge">
<title>Node30&#45;&gt;Node31</title>
<g id="a_edge41_Node000030_Node000031"><a xlink:title=" ">
<path fill="none" stroke="#63b8ff" d="M1326.96,-63C1318.37,-63 1309.7,-63 1301.21,-63"/>
<polygon fill="#63b8ff" stroke="#63b8ff" points="1326.98,-66.5 1336.98,-63 1326.98,-59.5 1326.98,-66.5"/>
</a>
</g>
</g>
</g>
</svg>

<g id="navigator" transform="translate(0 0)" fill="#404254">
  <rect fill="#f2f5e9" fill-opacity="0.5" stroke="#606060" stroke-width=".5" x="0" y="0" width="60" height="60"/>
  <use id="zoomplus" xlink:href="#zoomPlus" x="17" y="9" onmousedown="handleZoom(evt,'in')"/>
  <use id="zoomminus" xlink:href="#zoomMin" x="42" y="9" onmousedown="handleZoom(evt,'out')"/>
  <use id="reset" xlink:href="#resetDef" x="30" y="36" onmousedown="handleReset()"/>
   <use id="arrowup" xlink:href="#arrowUp" x="0" y="0" onmousedown="handlePan(0,-1)"/>
  <use id="arrowright" xlink:href="#arrowRight" x="0" y="0" onmousedown="handlePan(1,0)"/>
  <use id="arrowdown" xlink:href="#arrowDown" x="0" y="0" onmousedown="handlePan(0,1)"/>
  <use id="arrowleft" xlink:href="#arrowLeft" x="0" y="0" onmousedown="handlePan(-1,0)"/>
</g>
<svg viewBox="0 0 15 15" width="100%" height="30px" preserveAspectRatio="xMaxYMin meet">
 <g id="arrow_out" transform="scale(0.3 0.3)">
  <a xlink:href="classTerraria_1_1ModLoader_1_1ItemLoader_a4d47a85bf9df041b0164d108702d9219_a4d47a85bf9df041b0164d108702d9219_icgraph_org.svg" target="_base">
   <rect id="button" ry="5" rx="5" y="6" x="6" height="38" width="38"
        fill="#f2f5e9" fill-opacity="0.5" stroke="#606060" stroke-width="1.0"/>
   <path id="arrow"
     d="M 11.500037,31.436501 C 11.940474,20.09759 22.043105,11.32322 32.158766,21.979434 L 37.068811,17.246167 C 37.068811,17.246167 37.088388,32 37.088388,32 L 22.160133,31.978069 C 22.160133,31.978069 26.997745,27.140456 26.997745,27.140456 C 18.528582,18.264221 13.291696,25.230495 11.500037,31.436501 z"
     style="fill:#404040;"/>
  </a>
 </g>
</svg>

<style type='text/css'>
<![CDATA[
[data-mouse-over-selected='false'] { opacity: 0.7; }
[data-mouse-over-selected='true']  { opacity: 1.0; }
]]>
</style>
<script type="application/ecmascript"><![CDATA[
document.addEventListener('DOMContentLoaded', (event) => {
  highlightEdges();
  highlightAdjacentNodes();
});
]]></script>
</svg>
