<?xml version="1.0" encoding="UTF-8" standalone="no"?>
<!DOCTYPE svg PUBLIC "-//W3C//DTD SVG 1.1//EN"
 "http://www.w3.org/Graphics/SVG/1.1/DTD/svg11.dtd">
<!-- Generated by graphviz version 2.43.0 (0)
 -->
<!-- Title: Terraria.ModLoader.ItemLoader.Unload Pages: 1 -->
<svg width="620pt" height="182pt"
 viewBox="0.00 0.00 620.00 182.00" xmlns="http://www.w3.org/2000/svg" xmlns:xlink="http://www.w3.org/1999/xlink">
<g id="graph0" class="graph" transform="scale(1 1) rotate(0) translate(4 178)">
<title>Terraria.ModLoader.ItemLoader.Unload</title>
<!-- Node1 -->
<g id="Node000001" class="node">
<title>Node1</title>
<g id="a_Node000001"><a xlink:title=" ">
<polygon fill="#999999" stroke="#666666" points="170,-78 0,-78 0,-48 170,-48 170,-78"/>
<text text-anchor="start" x="8" y="-66" font-family="Helvetica,sans-Serif" font-size="10.00">Terraria.ModLoader.ItemLoader.</text>
<text text-anchor="middle" x="85" y="-55" font-family="Helvetica,sans-Serif" font-size="10.00">Unload</text>
</a>
</g>
</g>
<!-- Node2 -->
<g id="Node000002" class="node">
<title>Node2</title>
<g id="a_Node000002"><a xlink:href="../../dc/ddb/classTerraria_1_1GameContent_1_1FlexibleTileWand_a34b203898cd3ee28bab4ac4a150248a0.html#a34b203898cd3ee28bab4ac4a150248a0" target="_top" xlink:title=" ">
<polygon fill="white" stroke="#666666" points="374,-114 208,-114 208,-84 374,-84 374,-114"/>
<text text-anchor="start" x="216" y="-102" font-family="Helvetica,sans-Serif" font-size="10.00">Terraria.GameContent.Flexible</text>
<text text-anchor="middle" x="291" y="-91" font-family="Helvetica,sans-Serif" font-size="10.00">TileWand.Reload</text>
</a>
</g>
</g>
<!-- Node1&#45;&gt;Node2 -->
<g id="edge1_Node000001_Node000002" class="edge">
<title>Node1&#45;&gt;Node2</title>
<g id="a_edge1_Node000001_Node000002"><a xlink:title=" ">
<path fill="none" stroke="#63b8ff" d="M170.15,-77.85C179.26,-79.46 188.56,-81.1 197.76,-82.72"/>
<polygon fill="#63b8ff" stroke="#63b8ff" points="197.23,-86.18 207.68,-84.47 198.45,-79.29 197.23,-86.18"/>
</a>
</g>
</g>
<!-- Node6 -->
<g id="Node000006" class="node">
<title>Node6</title>
<g id="a_Node000006"><a xlink:href="../../d7/de6/classTerraria_1_1ModLoader_1_1ItemLoader_a5f67af9d6c32f6a2c5fec64fcd99404b.html#a5f67af9d6c32f6a2c5fec64fcd99404b" target="_top" xlink:title=" ">
<polygon fill="white" stroke="#666666" points="376,-54 206,-54 206,-24 376,-24 376,-54"/>
<text text-anchor="start" x="214" y="-42" font-family="Helvetica,sans-Serif" font-size="10.00">Terraria.ModLoader.ItemLoader.</text>
<text text-anchor="middle" x="291" y="-31" font-family="Helvetica,sans-Serif" font-size="10.00">UpdateHookLists</text>
</a>
</g>
</g>
<!-- Node1&#45;&gt;Node6 -->
<g id="edge5_Node000001_Node000006" class="edge">
<title>Node1&#45;&gt;Node6</title>
<g id="a_edge5_Node000001_Node000006"><a xlink:title=" ">
<path fill="none" stroke="#63b8ff" d="M170.15,-53.1C178.59,-52.11 187.2,-51.09 195.74,-50.09"/>
<polygon fill="#63b8ff" stroke="#63b8ff" points="196.19,-53.56 205.71,-48.92 195.37,-46.61 196.19,-53.56"/>
</a>
</g>
</g>
<!-- Node3 -->
<g id="Node000003" class="node">
<title>Node3</title>
<g id="a_Node000003"><a xlink:href="../../dc/ddb/classTerraria_1_1GameContent_1_1FlexibleTileWand_a3830ade346341bf90dbdc61ca656ab39.html#a3830ade346341bf90dbdc61ca656ab39" target="_top" xlink:title=" ">
<polygon fill="white" stroke="#666666" points="606,-174 418,-174 418,-144 606,-144 606,-174"/>
<text text-anchor="start" x="426" y="-162" font-family="Helvetica,sans-Serif" font-size="10.00">Terraria.GameContent.Flexible</text>
<text text-anchor="middle" x="512" y="-151" font-family="Helvetica,sans-Serif" font-size="10.00">TileWand.CreateRubblePlacerLarge</text>
</a>
</g>
</g>
<!-- Node2&#45;&gt;Node3 -->
<g id="edge2_Node000002_Node000003" class="edge">
<title>Node2&#45;&gt;Node3</title>
<g id="a_edge2_Node000002_Node000003"><a xlink:title=" ">
<path fill="none" stroke="#63b8ff" d="M340,-114.04C361.89,-120.73 388.17,-128.54 412,-135 420.04,-137.18 428.46,-139.37 436.87,-141.49"/>
<polygon fill="#63b8ff" stroke="#63b8ff" points="436.15,-144.92 446.7,-143.94 437.85,-138.12 436.15,-144.92"/>
</a>
</g>
</g>
<!-- Node4 -->
<g id="Node000004" class="node">
<title>Node4</title>
<g id="a_Node000004"><a xlink:href="../../dc/ddb/classTerraria_1_1GameContent_1_1FlexibleTileWand_af8dab6150459f654fa90e997b6cac9d7.html#af8dab6150459f654fa90e997b6cac9d7" target="_top" xlink:title=" ">
<polygon fill="white" stroke="#666666" points="612,-126 412,-126 412,-96 612,-96 612,-126"/>
<text text-anchor="start" x="420" y="-114" font-family="Helvetica,sans-Serif" font-size="10.00">Terraria.GameContent.Flexible</text>
<text text-anchor="middle" x="512" y="-103" font-family="Helvetica,sans-Serif" font-size="10.00">TileWand.CreateRubblePlacerMedium</text>
</a>
</g>
</g>
<!-- Node2&#45;&gt;Node4 -->
<g id="edge3_Node000002_Node000004" class="edge">
<title>Node2&#45;&gt;Node4</title>
<g id="a_edge3_Node000002_Node000004"><a xlink:title=" ">
<path fill="none" stroke="#63b8ff" d="M374.17,-103.5C383.17,-104 392.44,-104.5 401.7,-105.01"/>
<polygon fill="#63b8ff" stroke="#63b8ff" points="401.56,-108.51 411.74,-105.56 401.95,-101.52 401.56,-108.51"/>
</a>
</g>
</g>
<!-- Node5 -->
<g id="Node000005" class="node">
<title>Node5</title>
<g id="a_Node000005"><a xlink:href="../../dc/ddb/classTerraria_1_1GameContent_1_1FlexibleTileWand_a019660137f0396c546ae6d163f1f4efa.html#a019660137f0396c546ae6d163f1f4efa" target="_top" xlink:title=" ">
<polygon fill="white" stroke="#666666" points="606,-78 418,-78 418,-48 606,-48 606,-78"/>
<text text-anchor="start" x="426" y="-66" font-family="Helvetica,sans-Serif" font-size="10.00">Terraria.GameContent.Flexible</text>
<text text-anchor="middle" x="512" y="-55" font-family="Helvetica,sans-Serif" font-size="10.00">TileWand.CreateRubblePlacerSmall</text>
</a>
</g>
</g>
<!-- Node2&#45;&gt;Node5 -->
<g id="edge4_Node000002_Node000005" class="edge">
<title>Node2&#45;&gt;Node5</title>
<g id="a_edge4_Node000002_Node000005"><a xlink:title=" ">
<path fill="none" stroke="#63b8ff" d="M374.17,-85.49C385.74,-83.59 397.74,-81.62 409.62,-79.67"/>
<polygon fill="#63b8ff" stroke="#63b8ff" points="410.25,-83.11 419.55,-78.03 409.11,-76.2 410.25,-83.11"/>
</a>
</g>
</g>
<!-- Node7 -->
<g id="Node000007" class="node">
<title>Node7</title>
<g id="a_Node000007"><a xlink:href="../../dd/db7/classTerraria_1_1ModLoader_1_1ModItem_a74f7c560dc57b27176ff8e679293af9c.html#a74f7c560dc57b27176ff8e679293af9c" target="_top" xlink:title="Allows you to customize this item&#39;s movement when lying in the world. Note that this will not be call...">
<polygon fill="white" stroke="#666666" points="591.5,-30 432.5,-30 432.5,0 591.5,0 591.5,-30"/>
<text text-anchor="start" x="440.5" y="-18" font-family="Helvetica,sans-Serif" font-size="10.00">Terraria.ModLoader.ModItem.</text>
<text text-anchor="middle" x="512" y="-7" font-family="Helvetica,sans-Serif" font-size="10.00">Update</text>
</a>
</g>
</g>
<!-- Node6&#45;&gt;Node7 -->
<g id="edge6_Node000006_Node000007" class="edge">
<title>Node6&#45;&gt;Node7</title>
<g id="a_edge6_Node000006_Node000007"><a xlink:title=" ">
<path fill="none" stroke="#63b8ff" d="M376.04,-29.79C391.04,-28.15 406.71,-26.43 421.84,-24.77"/>
<polygon fill="#63b8ff" stroke="#63b8ff" points="422.66,-28.2 432.22,-23.63 421.89,-21.24 422.66,-28.2"/>
</a>
</g>
</g>
</g>
</svg>
