<?xml version="1.0" encoding="UTF-8" standalone="no"?>
<!DOCTYPE svg PUBLIC "-//W3C//DTD SVG 1.1//EN"
 "http://www.w3.org/Graphics/SVG/1.1/DTD/svg11.dtd">
<!-- Generated by graphviz version 2.43.0 (0)
 -->
<!-- Title: Terraria.GameInput.PlayerInputProfile.UsingDpadMovekeys Pages: 1 -->
<svg width="2281pt" height="146pt"
 viewBox="0.00 0.00 2281.00 146.00" xmlns="http://www.w3.org/2000/svg" xmlns:xlink="http://www.w3.org/1999/xlink">
<g id="graph0" class="graph" transform="scale(1 1) rotate(0) translate(4 142)">
<title>Terraria.GameInput.PlayerInputProfile.UsingDpadMovekeys</title>
<!-- Node1 -->
<g id="Node000001" class="node">
<title>Node1</title>
<g id="a_Node000001"><a xlink:title=" ">
<polygon fill="#999999" stroke="#666666" points="2273,-84 2095,-84 2095,-54 2273,-54 2273,-84"/>
<text text-anchor="start" x="2103" y="-72" font-family="Helvetica,sans-Serif" font-size="10.00">Terraria.GameInput.Player</text>
<text text-anchor="middle" x="2184" y="-61" font-family="Helvetica,sans-Serif" font-size="10.00">InputProfile.UsingDpadMovekeys</text>
</a>
</g>
</g>
<!-- Node2 -->
<g id="Node000002" class="node">
<title>Node2</title>
<g id="a_Node000002"><a xlink:href="../../d8/dd5/classTerraria_1_1GameInput_1_1TriggersSet_a720691d807c8c8e9ef9c597a204d2920.html#a720691d807c8c8e9ef9c597a204d2920" target="_top" xlink:title=" ">
<polygon fill="white" stroke="#666666" points="2059,-84 1907,-84 1907,-54 2059,-54 2059,-84"/>
<text text-anchor="start" x="1915" y="-72" font-family="Helvetica,sans-Serif" font-size="10.00">Terraria.GameInput.Triggers</text>
<text text-anchor="middle" x="1983" y="-61" font-family="Helvetica,sans-Serif" font-size="10.00">Set.GetNavigatorDirections</text>
</a>
</g>
</g>
<!-- Node1&#45;&gt;Node2 -->
<g id="edge1_Node000001_Node000002" class="edge">
<title>Node1&#45;&gt;Node2</title>
<g id="a_edge1_Node000001_Node000002"><a xlink:title=" ">
<path fill="none" stroke="#63b8ff" d="M2084.72,-69C2076.08,-69 2067.42,-69 2059.02,-69"/>
<polygon fill="#63b8ff" stroke="#63b8ff" points="2084.85,-72.5 2094.85,-69 2084.85,-65.5 2084.85,-72.5"/>
</a>
</g>
</g>
<!-- Node3 -->
<g id="Node000003" class="node">
<title>Node3</title>
<g id="a_Node000003"><a xlink:href="../../d4/dc5/classTerraria_1_1UI_1_1Gamepad_1_1UILinkPointNavigator_a8923bb7461d72f36ba2c5f6607f5346a.html#a8923bb7461d72f36ba2c5f6607f5346a" target="_top" xlink:title=" ">
<polygon fill="white" stroke="#666666" points="1871,-138 1653,-138 1653,-108 1871,-108 1871,-138"/>
<text text-anchor="start" x="1661" y="-126" font-family="Helvetica,sans-Serif" font-size="10.00">Terraria.UI.Gamepad.UILink</text>
<text text-anchor="middle" x="1762" y="-115" font-family="Helvetica,sans-Serif" font-size="10.00">PointNavigator.ForceMovementCooldown</text>
</a>
</g>
</g>
<!-- Node2&#45;&gt;Node3 -->
<g id="edge2_Node000002_Node000003" class="edge">
<title>Node2&#45;&gt;Node3</title>
<g id="a_edge2_Node000002_Node000003"><a xlink:title=" ">
<path fill="none" stroke="#63b8ff" d="M1918.24,-86.76C1902.81,-90.91 1886.34,-95.22 1871,-99 1858.69,-102.03 1845.55,-105.09 1832.82,-107.97"/>
<polygon fill="#63b8ff" stroke="#63b8ff" points="1919.47,-90.06 1928.21,-84.06 1917.64,-83.3 1919.47,-90.06"/>
</a>
</g>
</g>
<!-- Node14 -->
<g id="Node000014" class="node">
<title>Node14</title>
<g id="a_Node000014"><a xlink:href="../../d2/de6/classTerraria_1_1GameContent_1_1SmartCursorHelper_afb17fbaa5066fe5fe2cb37abc76574f3.html#afb17fbaa5066fe5fe2cb37abc76574f3" target="_top" xlink:title=" ">
<polygon fill="white" stroke="#666666" points="1840,-89.5 1684,-89.5 1684,-48.5 1840,-48.5 1840,-89.5"/>
<text text-anchor="start" x="1692" y="-77.5" font-family="Helvetica,sans-Serif" font-size="10.00">Terraria.GameContent.Smart</text>
<text text-anchor="start" x="1692" y="-66.5" font-family="Helvetica,sans-Serif" font-size="10.00">CursorHelper.Step_Pickaxe</text>
<text text-anchor="middle" x="1762" y="-55.5" font-family="Helvetica,sans-Serif" font-size="10.00">_MineSolids</text>
</a>
</g>
</g>
<!-- Node2&#45;&gt;Node14 -->
<g id="edge15_Node000002_Node000014" class="edge">
<title>Node2&#45;&gt;Node14</title>
<g id="a_edge15_Node000002_Node000014"><a xlink:title=" ">
<path fill="none" stroke="#63b8ff" d="M1896.71,-69C1878.09,-69 1858.48,-69 1840.2,-69"/>
<polygon fill="#63b8ff" stroke="#63b8ff" points="1896.94,-72.5 1906.94,-69 1896.94,-65.5 1896.94,-72.5"/>
</a>
</g>
</g>
<!-- Node16 -->
<g id="Node000016" class="node">
<title>Node16</title>
<g id="a_Node000016"><a xlink:href="../../d4/dc5/classTerraria_1_1UI_1_1Gamepad_1_1UILinkPointNavigator_a13a68b4ce411d14fd9bb088d4ba62bfc.html#a13a68b4ce411d14fd9bb088d4ba62bfc" target="_top" xlink:title=" ">
<polygon fill="white" stroke="#666666" points="1837.5,-30 1686.5,-30 1686.5,0 1837.5,0 1837.5,-30"/>
<text text-anchor="start" x="1694.5" y="-18" font-family="Helvetica,sans-Serif" font-size="10.00">Terraria.UI.Gamepad.UILink</text>
<text text-anchor="middle" x="1762" y="-7" font-family="Helvetica,sans-Serif" font-size="10.00">PointNavigator.Update</text>
</a>
</g>
</g>
<!-- Node2&#45;&gt;Node16 -->
<g id="edge18_Node000002_Node000016" class="edge">
<title>Node2&#45;&gt;Node16</title>
<g id="a_edge18_Node000002_Node000016"><a xlink:title=" ">
<path fill="none" stroke="#63b8ff" d="M1915.6,-51.33C1900.93,-47.51 1885.46,-43.56 1871,-40 1857.55,-36.69 1843.12,-33.26 1829.32,-30.04"/>
<polygon fill="#63b8ff" stroke="#63b8ff" points="1915.05,-54.8 1925.61,-53.94 1916.82,-48.03 1915.05,-54.8"/>
</a>
</g>
</g>
<!-- Node4 -->
<g id="Node000004" class="node">
<title>Node4</title>
<g id="a_Node000004"><a xlink:href="../../d4/d03/classTerraria_1_1Player_ac6434bf43444378f491da6bd283b99f6.html#ac6434bf43444378f491da6bd283b99f6" target="_top" xlink:title="Handles boilerplate for gamepad and UI when opening or closing a container. &#160;Sets F:Terraria....">
<polygon fill="white" stroke="#666666" points="1617,-132.5 1474,-132.5 1474,-113.5 1617,-113.5 1617,-132.5"/>
<text text-anchor="middle" x="1545.5" y="-120.5" font-family="Helvetica,sans-Serif" font-size="10.00">Terraria.Player.OpenChest</text>
</a>
</g>
</g>
<!-- Node3&#45;&gt;Node4 -->
<g id="edge3_Node000003_Node000004" class="edge">
<title>Node3&#45;&gt;Node4</title>
<g id="a_edge3_Node000003_Node000004"><a xlink:title=" ">
<path fill="none" stroke="#63b8ff" d="M1642.63,-123C1633.99,-123 1625.45,-123 1617.23,-123"/>
<polygon fill="#63b8ff" stroke="#63b8ff" points="1642.81,-126.5 1652.81,-123 1642.81,-119.5 1642.81,-126.5"/>
</a>
</g>
</g>
<!-- Node5 -->
<g id="Node000005" class="node">
<title>Node5</title>
<g id="a_Node000005"><a xlink:href="../../d4/d03/classTerraria_1_1Player_a8b27a9ab46a3bd51b25499cdf7417694.html#a8b27a9ab46a3bd51b25499cdf7417694" target="_top" xlink:title=" ">
<polygon fill="white" stroke="#666666" points="1438,-132.5 1254,-132.5 1254,-113.5 1438,-113.5 1438,-132.5"/>
<text text-anchor="middle" x="1346" y="-120.5" font-family="Helvetica,sans-Serif" font-size="10.00">Terraria.Player.TileInteractionsUse</text>
</a>
</g>
</g>
<!-- Node4&#45;&gt;Node5 -->
<g id="edge4_Node000004_Node000005" class="edge">
<title>Node4&#45;&gt;Node5</title>
<g id="a_edge4_Node000004_Node000005"><a xlink:title=" ">
<path fill="none" stroke="#63b8ff" d="M1463.65,-123C1455.28,-123 1446.73,-123 1438.26,-123"/>
<polygon fill="#63b8ff" stroke="#63b8ff" points="1463.76,-126.5 1473.76,-123 1463.76,-119.5 1463.76,-126.5"/>
</a>
</g>
</g>
<!-- Node6 -->
<g id="Node000006" class="node">
<title>Node6</title>
<g id="a_Node000006"><a xlink:href="../../d4/d03/classTerraria_1_1Player_ab2e21980bc1dddaa7b760abeb643179c.html#ab2e21980bc1dddaa7b760abeb643179c" target="_top" xlink:title=" ">
<polygon fill="white" stroke="#666666" points="1218,-138 1053,-138 1053,-108 1218,-108 1218,-138"/>
<text text-anchor="start" x="1061" y="-126" font-family="Helvetica,sans-Serif" font-size="10.00">Terraria.Player.TileInteractions</text>
<text text-anchor="middle" x="1135.5" y="-115" font-family="Helvetica,sans-Serif" font-size="10.00">Check</text>
</a>
</g>
</g>
<!-- Node5&#45;&gt;Node6 -->
<g id="edge5_Node000005_Node000006" class="edge">
<title>Node5&#45;&gt;Node6</title>
<g id="a_edge5_Node000005_Node000006"><a xlink:title=" ">
<path fill="none" stroke="#63b8ff" d="M1243.83,-123C1235.26,-123 1226.67,-123 1218.29,-123"/>
<polygon fill="#63b8ff" stroke="#63b8ff" points="1243.85,-126.5 1253.85,-123 1243.85,-119.5 1243.85,-126.5"/>
</a>
</g>
</g>
<!-- Node7 -->
<g id="Node000007" class="node">
<title>Node7</title>
<g id="a_Node000007"><a xlink:href="../../d4/d03/classTerraria_1_1Player_a5510cf851b3582e9fbfa6a487da9e057.html#a5510cf851b3582e9fbfa6a487da9e057" target="_top" xlink:title=" ">
<polygon fill="white" stroke="#666666" points="807,-124 661,-124 661,-94 807,-94 807,-124"/>
<text text-anchor="start" x="669" y="-112" font-family="Helvetica,sans-Serif" font-size="10.00">Terraria.Player.LookForTile</text>
<text text-anchor="middle" x="734" y="-101" font-family="Helvetica,sans-Serif" font-size="10.00">Interactions</text>
</a>
</g>
</g>
<!-- Node6&#45;&gt;Node7 -->
<g id="edge6_Node000006_Node000007" class="edge">
<title>Node6&#45;&gt;Node7</title>
<g id="a_edge6_Node000006_Node000007"><a xlink:title=" ">
<path fill="none" stroke="#63b8ff" d="M1042.75,-132.87C985.22,-137.39 909.6,-140.31 843,-133 826.2,-131.16 808.19,-127.74 791.78,-124.06"/>
<polygon fill="#63b8ff" stroke="#63b8ff" points="1043.22,-136.34 1052.91,-132.04 1042.65,-129.36 1043.22,-136.34"/>
</a>
</g>
</g>
<!-- Node13 -->
<g id="Node000013" class="node">
<title>Node13</title>
<g id="a_Node000013"><a xlink:href="../../d4/d03/classTerraria_1_1Player_a37caf101b91643aece315d75c2d1e052.html#a37caf101b91643aece315d75c2d1e052" target="_top" xlink:title=" ">
<polygon fill="white" stroke="#666666" points="1017,-124 843,-124 843,-94 1017,-94 1017,-124"/>
<text text-anchor="start" x="851" y="-112" font-family="Helvetica,sans-Serif" font-size="10.00">Terraria.Player.TryInteracting</text>
<text text-anchor="middle" x="930" y="-101" font-family="Helvetica,sans-Serif" font-size="10.00">WithMinecartTrackInNearbyArea</text>
</a>
</g>
</g>
<!-- Node6&#45;&gt;Node13 -->
<g id="edge13_Node000006_Node000013" class="edge">
<title>Node6&#45;&gt;Node13</title>
<g id="a_edge13_Node000006_Node000013"><a xlink:title=" ">
<path fill="none" stroke="#63b8ff" d="M1042.66,-116.68C1034.21,-116.1 1025.67,-115.51 1017.28,-114.94"/>
<polygon fill="#63b8ff" stroke="#63b8ff" points="1042.68,-120.19 1052.9,-117.39 1043.17,-113.21 1042.68,-120.19"/>
</a>
</g>
</g>
<!-- Node8 -->
<g id="Node000008" class="node">
<title>Node8</title>
<g id="a_Node000008"><a xlink:href="../../da/dd5/classTerraria_1_1Main_a16fc61537635fb59b4edde415f32fc84.html#a16fc61537635fb59b4edde415f32fc84" target="_top" xlink:title=" ">
<polygon fill="white" stroke="#666666" points="459.5,-124 327.5,-124 327.5,-94 459.5,-94 459.5,-124"/>
<text text-anchor="start" x="335.5" y="-112" font-family="Helvetica,sans-Serif" font-size="10.00">Terraria.Main.DoUpdate</text>
<text text-anchor="middle" x="393.5" y="-101" font-family="Helvetica,sans-Serif" font-size="10.00">_WhilePaused</text>
</a>
</g>
</g>
<!-- Node7&#45;&gt;Node8 -->
<g id="edge7_Node000007_Node000008" class="edge">
<title>Node7&#45;&gt;Node8</title>
<g id="a_edge7_Node000007_Node000008"><a xlink:title=" ">
<path fill="none" stroke="#63b8ff" d="M650.45,-109C591.77,-109 514.06,-109 459.72,-109"/>
<polygon fill="#63b8ff" stroke="#63b8ff" points="650.8,-112.5 660.8,-109 650.8,-105.5 650.8,-112.5"/>
</a>
</g>
</g>
<!-- Node11 -->
<g id="Node000011" class="node">
<title>Node11</title>
<g id="a_Node000011"><a xlink:href="../../d4/d03/classTerraria_1_1Player_af44290f5d38b6d5076a5fa8d6ee3dd12.html#af44290f5d38b6d5076a5fa8d6ee3dd12" target="_top" xlink:title=" ">
<polygon fill="white" stroke="#666666" points="625,-75.5 500,-75.5 500,-56.5 625,-56.5 625,-75.5"/>
<text text-anchor="middle" x="562.5" y="-63.5" font-family="Helvetica,sans-Serif" font-size="10.00">Terraria.Player.Update</text>
</a>
</g>
</g>
<!-- Node7&#45;&gt;Node11 -->
<g id="edge10_Node000007_Node000011" class="edge">
<title>Node7&#45;&gt;Node11</title>
<g id="a_edge10_Node000007_Node000011"><a xlink:title=" ">
<path fill="none" stroke="#63b8ff" d="M663.95,-91.48C642.44,-86.03 619.54,-80.22 601.04,-75.52"/>
<polygon fill="#63b8ff" stroke="#63b8ff" points="663.16,-94.89 673.72,-93.96 664.88,-88.11 663.16,-94.89"/>
</a>
</g>
</g>
<!-- Node9 -->
<g id="Node000009" class="node">
<title>Node9</title>
<g id="a_Node000009"><a xlink:href="../../da/dd5/classTerraria_1_1Main_a96341b8439a15bcefc0f119767e24e35.html#a96341b8439a15bcefc0f119767e24e35" target="_top" xlink:title=" ">
<polygon fill="white" stroke="#666666" points="287,-70.5 155,-70.5 155,-51.5 287,-51.5 287,-70.5"/>
<text text-anchor="middle" x="221" y="-58.5" font-family="Helvetica,sans-Serif" font-size="10.00">Terraria.Main.DoUpdate</text>
</a>
</g>
</g>
<!-- Node8&#45;&gt;Node9 -->
<g id="edge8_Node000008_Node000009" class="edge">
<title>Node8&#45;&gt;Node9</title>
<g id="a_edge8_Node000008_Node000009"><a xlink:title=" ">
<path fill="none" stroke="#63b8ff" d="M329.29,-91.21C304.45,-84.21 276.92,-76.46 255.97,-70.56"/>
<polygon fill="#63b8ff" stroke="#63b8ff" points="328.45,-94.6 339.02,-93.94 330.34,-87.87 328.45,-94.6"/>
</a>
</g>
</g>
<!-- Node10 -->
<g id="Node000010" class="node">
<title>Node10</title>
<g id="a_Node000010"><a xlink:href="../../da/dd5/classTerraria_1_1Main_a49776516aea1626e33c722fc8896a7de.html#a49776516aea1626e33c722fc8896a7de" target="_top" xlink:title=" ">
<polygon fill="white" stroke="#666666" points="119,-70.5 0,-70.5 0,-51.5 119,-51.5 119,-70.5"/>
<text text-anchor="middle" x="59.5" y="-58.5" font-family="Helvetica,sans-Serif" font-size="10.00">Terraria.Main.Update</text>
</a>
</g>
</g>
<!-- Node9&#45;&gt;Node10 -->
<g id="edge9_Node000009_Node000010" class="edge">
<title>Node9&#45;&gt;Node10</title>
<g id="a_edge9_Node000009_Node000010"><a xlink:title=" ">
<path fill="none" stroke="#63b8ff" d="M144.64,-61C136.06,-61 127.4,-61 119.08,-61"/>
<polygon fill="#63b8ff" stroke="#63b8ff" points="144.67,-64.5 154.67,-61 144.66,-57.5 144.67,-64.5"/>
</a>
</g>
</g>
<!-- Node12 -->
<g id="Node000012" class="node">
<title>Node12</title>
<g id="a_Node000012"><a xlink:href="../../da/dd5/classTerraria_1_1Main_a39cdec3f201787a467045358bfcba377.html#a39cdec3f201787a467045358bfcba377" target="_top" xlink:title=" ">
<polygon fill="white" stroke="#666666" points="464,-76 323,-76 323,-46 464,-46 464,-76"/>
<text text-anchor="start" x="331" y="-64" font-family="Helvetica,sans-Serif" font-size="10.00">Terraria.Main.DoUpdateIn</text>
<text text-anchor="middle" x="393.5" y="-53" font-family="Helvetica,sans-Serif" font-size="10.00">World</text>
</a>
</g>
</g>
<!-- Node11&#45;&gt;Node12 -->
<g id="edge11_Node000011_Node000012" class="edge">
<title>Node11&#45;&gt;Node12</title>
<g id="a_edge11_Node000011_Node000012"><a xlink:title=" ">
<path fill="none" stroke="#63b8ff" d="M489.59,-63.85C481.14,-63.59 472.54,-63.34 464.12,-63.08"/>
<polygon fill="#63b8ff" stroke="#63b8ff" points="489.69,-67.35 499.79,-64.15 489.9,-60.35 489.69,-67.35"/>
</a>
</g>
</g>
<!-- Node12&#45;&gt;Node9 -->
<g id="edge12_Node000012_Node000009" class="edge">
<title>Node12&#45;&gt;Node9</title>
<g id="a_edge12_Node000012_Node000009"><a xlink:title=" ">
<path fill="none" stroke="#63b8ff" d="M312.65,-61C304.08,-61 295.44,-61 287.07,-61"/>
<polygon fill="#63b8ff" stroke="#63b8ff" points="312.66,-64.5 322.66,-61 312.66,-57.5 312.66,-64.5"/>
</a>
</g>
</g>
<!-- Node13&#45;&gt;Node7 -->
<g id="edge14_Node000013_Node000007" class="edge">
<title>Node13&#45;&gt;Node7</title>
<g id="a_edge14_Node000013_Node000007"><a xlink:title=" ">
<path fill="none" stroke="#63b8ff" d="M832.67,-109C824.04,-109 815.4,-109 807.03,-109"/>
<polygon fill="#63b8ff" stroke="#63b8ff" points="832.78,-112.5 842.78,-109 832.78,-105.5 832.78,-112.5"/>
</a>
</g>
</g>
<!-- Node15 -->
<g id="Node000015" class="node">
<title>Node15</title>
<g id="a_Node000015"><a xlink:href="../../d2/de6/classTerraria_1_1GameContent_1_1SmartCursorHelper_abf97830c4eacd4da49a905008c7a5757.html#abf97830c4eacd4da49a905008c7a5757" target="_top" xlink:title=" ">
<polygon fill="white" stroke="#666666" points="1435,-81 1257,-81 1257,-51 1435,-51 1435,-81"/>
<text text-anchor="start" x="1265" y="-69" font-family="Helvetica,sans-Serif" font-size="10.00">Terraria.GameContent.Smart</text>
<text text-anchor="middle" x="1346" y="-58" font-family="Helvetica,sans-Serif" font-size="10.00">CursorHelper.SmartCursorLookup</text>
</a>
</g>
</g>
<!-- Node14&#45;&gt;Node15 -->
<g id="edge16_Node000014_Node000015" class="edge">
<title>Node14&#45;&gt;Node15</title>
<g id="a_edge16_Node000014_Node000015"><a xlink:title=" ">
<path fill="none" stroke="#63b8ff" d="M1673.48,-68.37C1603.35,-67.86 1505.41,-67.15 1435.13,-66.64"/>
<polygon fill="#63b8ff" stroke="#63b8ff" points="1673.59,-71.87 1683.62,-68.44 1673.64,-64.87 1673.59,-71.87"/>
</a>
</g>
</g>
<!-- Node15&#45;&gt;Node11 -->
<g id="edge17_Node000015_Node000011" class="edge">
<title>Node15&#45;&gt;Node11</title>
<g id="a_edge17_Node000015_Node000011"><a xlink:title=" ">
<path fill="none" stroke="#63b8ff" d="M1246.82,-66C1083.38,-66 760.15,-66 625.08,-66"/>
<polygon fill="#63b8ff" stroke="#63b8ff" points="1246.87,-69.5 1256.87,-66 1246.87,-62.5 1246.87,-69.5"/>
</a>
</g>
</g>
<!-- Node17 -->
<g id="Node000017" class="node">
<title>Node17</title>
<g id="a_Node000017"><a xlink:href="../../da/dd5/classTerraria_1_1Main_a271f8e065b74a1881ccb9736667bed66.html#a271f8e065b74a1881ccb9736667bed66" target="_top" xlink:title=" ">
<polygon fill="white" stroke="#666666" points="1201.5,-32 1069.5,-32 1069.5,-2 1201.5,-2 1201.5,-32"/>
<text text-anchor="start" x="1077.5" y="-20" font-family="Helvetica,sans-Serif" font-size="10.00">Terraria.Main.DoUpdate</text>
<text text-anchor="middle" x="1135.5" y="-9" font-family="Helvetica,sans-Serif" font-size="10.00">_HandleInput</text>
</a>
</g>
</g>
<!-- Node16&#45;&gt;Node17 -->
<g id="edge19_Node000016_Node000017" class="edge">
<title>Node16&#45;&gt;Node17</title>
<g id="a_edge19_Node000016_Node000017"><a xlink:title=" ">
<path fill="none" stroke="#63b8ff" d="M1676.29,-15.27C1550.15,-15.68 1315.64,-16.43 1201.83,-16.79"/>
<polygon fill="#63b8ff" stroke="#63b8ff" points="1676.3,-18.77 1686.29,-15.24 1676.28,-11.77 1676.3,-18.77"/>
</a>
</g>
</g>
<!-- Node17&#45;&gt;Node9 -->
<g id="edge20_Node000017_Node000009" class="edge">
<title>Node17&#45;&gt;Node9</title>
<g id="a_edge20_Node000017_Node000009"><a xlink:title=" ">
<path fill="none" stroke="#63b8ff" d="M1059.44,-17C979.15,-17 848.07,-17 735,-17 735,-17 735,-17 561.5,-17 455.13,-17 428.04,-20.21 323,-37 300.58,-40.58 275.76,-46.45 256.34,-51.49"/>
<polygon fill="#63b8ff" stroke="#63b8ff" points="1059.46,-20.5 1069.46,-17 1059.46,-13.5 1059.46,-20.5"/>
</a>
</g>
</g>
</g>
</svg>
