<?xml version="1.0" encoding="UTF-8" standalone="no"?>
<!DOCTYPE svg PUBLIC "-//W3C//DTD SVG 1.1//EN"
 "http://www.w3.org/Graphics/SVG/1.1/DTD/svg11.dtd">
<!-- Generated by graphviz version 2.43.0 (0)
 -->
<!-- Title: Terraria.ModLoader.ModUndergroundBackgroundStyle Pages: 1 -->
<svg width="570pt" height="1395pt"
 viewBox="0.00 0.00 570.49 1395.00" xmlns="http://www.w3.org/2000/svg" xmlns:xlink="http://www.w3.org/1999/xlink">
<g id="graph0" class="graph" transform="scale(1 1) rotate(0) translate(4 1391)">
<title>Terraria.ModLoader.ModUndergroundBackgroundStyle</title>
<!-- Node1 -->
<g id="Node000001" class="node">
<title>Node1</title>
<g id="a_Node000001"><a xlink:title="Each background style determines in its own way how exactly the background is drawn....">
<polygon fill="#999999" stroke="transparent" points="490.41,-243 299.41,-243 299.41,-142 490.41,-142 490.41,-243"/>
<text text-anchor="start" x="304.91" y="-230.5" font-family="Helvetica,sans-Serif" font-size="10.00">Terraria.ModLoader.ModUnderground</text>
<text text-anchor="start" x="353.91" y="-219.5" font-family="Helvetica,sans-Serif" font-size="10.00">BackgroundStyle</text>
<text text-anchor="start" x="393.41" y="-204.5" font-family="Helvetica,sans-Serif" font-size="10.00"> </text>
<text text-anchor="start" x="310.91" y="-189.5" font-family="Helvetica,sans-Serif" font-size="10.00">+</text>
<text text-anchor="start" x="330.91" y="-189.5" font-family="Helvetica,sans-Serif" font-size="10.00">override void SetupContent()</text>
<text text-anchor="start" x="310.91" y="-174.5" font-family="Helvetica,sans-Serif" font-size="10.00">+</text>
<text text-anchor="start" x="330.91" y="-174.5" font-family="Helvetica,sans-Serif" font-size="10.00">void FillTextureArray</text>
<text text-anchor="start" x="330.91" y="-163.5" font-family="Helvetica,sans-Serif" font-size="10.00">(int[] textureSlots)</text>
<text text-anchor="start" x="310.91" y="-148.5" font-family="Helvetica,sans-Serif" font-size="10.00">#</text>
<text text-anchor="start" x="330.91" y="-148.5" font-family="Helvetica,sans-Serif" font-size="10.00">override void Register()</text>
<polygon fill="#666666" stroke="#666666" points="299.91,-214.5 299.91,-214.5 490.91,-214.5 490.91,-214.5 299.91,-214.5"/>
<polygon fill="#666666" stroke="#666666" points="299.91,-199.5 299.91,-199.5 490.91,-199.5 490.91,-199.5 299.91,-199.5"/>
<polygon fill="none" stroke="#666666" points="299.41,-142 299.41,-243 490.41,-243 490.41,-142 299.41,-142"/>
</a>
</g>
</g>
<!-- Node2 -->
<g id="Node000002" class="node">
<title>Node2</title>
<g id="a_Node000002"><a xlink:href="../../d3/d7b/classTerraria_1_1ModLoader_1_1ModBackgroundStyle.html" target="_top" xlink:title=" ">
<polygon fill="white" stroke="transparent" points="451.91,-654.5 337.91,-654.5 337.91,-605.5 451.91,-605.5 451.91,-654.5"/>
<text text-anchor="start" x="342.91" y="-642" font-family="Helvetica,sans-Serif" font-size="10.00">ModBackgroundStyle</text>
<text text-anchor="start" x="356.41" y="-627" font-family="Helvetica,sans-Serif" font-size="10.00">+</text>
<text text-anchor="start" x="383.91" y="-627" font-family="Helvetica,sans-Serif" font-size="10.00">int Slot</text>
<text text-anchor="start" x="392.91" y="-612" font-family="Helvetica,sans-Serif" font-size="10.00"> </text>
<polygon fill="#666666" stroke="#666666" points="337.91,-637 337.91,-637 451.91,-637 451.91,-637 337.91,-637"/>
<polygon fill="#666666" stroke="#666666" points="337.91,-622 337.91,-622 381.91,-622 381.91,-622 337.91,-622"/>
<polygon fill="#666666" stroke="#666666" points="381.91,-622 381.91,-622 451.91,-622 451.91,-622 381.91,-622"/>
<polygon fill="none" stroke="#666666" points="337.91,-605.5 337.91,-654.5 451.91,-654.5 451.91,-605.5 337.91,-605.5"/>
</a>
</g>
</g>
<!-- Node2&#45;&gt;Node1 -->
<g id="edge1_Node000001_Node000002" class="edge">
<title>Node2&#45;&gt;Node1</title>
<g id="a_edge1_Node000001_Node000002"><a xlink:title=" ">
<path fill="none" stroke="#63b8ff" d="M394.91,-595.26C394.91,-518.95 394.91,-332.78 394.91,-243.23"/>
<polygon fill="none" stroke="#63b8ff" points="391.41,-595.28 394.91,-605.28 398.41,-595.28 391.41,-595.28"/>
</a>
</g>
</g>
<!-- Node3 -->
<g id="Node000003" class="node">
<title>Node3</title>
<g id="a_Node000003"><a xlink:href="../../db/d77/classTerraria_1_1ModLoader_1_1ModType.html" target="_top" xlink:title="The base type for most modded things.">
<polygon fill="white" stroke="transparent" points="384.91,-1250 208.91,-1250 208.91,-865 384.91,-865 384.91,-1250"/>
<text text-anchor="start" x="274.91" y="-1237.5" font-family="Helvetica,sans-Serif" font-size="10.00">ModType</text>
<text text-anchor="start" x="212.91" y="-1222.5" font-family="Helvetica,sans-Serif" font-size="10.00">+</text>
<text text-anchor="start" x="225.91" y="-1222.5" font-family="Helvetica,sans-Serif" font-size="10.00">Mod Mod</text>
<text text-anchor="start" x="212.91" y="-1207.5" font-family="Helvetica,sans-Serif" font-size="10.00">+</text>
<text text-anchor="start" x="225.91" y="-1207.5" font-family="Helvetica,sans-Serif" font-size="10.00">virtual string Name</text>
<text text-anchor="start" x="212.91" y="-1192.5" font-family="Helvetica,sans-Serif" font-size="10.00">+</text>
<text text-anchor="start" x="225.91" y="-1192.5" font-family="Helvetica,sans-Serif" font-size="10.00">string FullName</text>
<text text-anchor="start" x="212.91" y="-1177.5" font-family="Helvetica,sans-Serif" font-size="10.00">+</text>
<text text-anchor="start" x="225.91" y="-1177.5" font-family="Helvetica,sans-Serif" font-size="10.00">TEntity Entity</text>
<text text-anchor="start" x="212.91" y="-1162.5" font-family="Helvetica,sans-Serif" font-size="10.00">+</text>
<text text-anchor="start" x="225.91" y="-1162.5" font-family="Helvetica,sans-Serif" font-size="10.00">virtual bool IsCloneable</text>
<text text-anchor="start" x="212.91" y="-1147.5" font-family="Helvetica,sans-Serif" font-size="10.00">+</text>
<text text-anchor="start" x="225.91" y="-1147.5" font-family="Helvetica,sans-Serif" font-size="10.00">virtual bool CloneNewInstances</text>
<text text-anchor="start" x="212.91" y="-1132.5" font-family="Helvetica,sans-Serif" font-size="10.00">+</text>
<text text-anchor="start" x="225.91" y="-1132.5" font-family="Helvetica,sans-Serif" font-size="10.00">virtual void Load()</text>
<text text-anchor="start" x="212.91" y="-1117.5" font-family="Helvetica,sans-Serif" font-size="10.00">+</text>
<text text-anchor="start" x="225.91" y="-1117.5" font-family="Helvetica,sans-Serif" font-size="10.00">virtual bool IsLoadingEnabled</text>
<text text-anchor="start" x="225.91" y="-1106.5" font-family="Helvetica,sans-Serif" font-size="10.00">(Mod mod)</text>
<text text-anchor="start" x="212.91" y="-1091.5" font-family="Helvetica,sans-Serif" font-size="10.00">+</text>
<text text-anchor="start" x="225.91" y="-1091.5" font-family="Helvetica,sans-Serif" font-size="10.00">virtual void SetupContent()</text>
<text text-anchor="start" x="212.91" y="-1076.5" font-family="Helvetica,sans-Serif" font-size="10.00">+</text>
<text text-anchor="start" x="225.91" y="-1076.5" font-family="Helvetica,sans-Serif" font-size="10.00">virtual void SetStaticDefaults()</text>
<text text-anchor="start" x="212.91" y="-1061.5" font-family="Helvetica,sans-Serif" font-size="10.00">+</text>
<text text-anchor="start" x="225.91" y="-1061.5" font-family="Helvetica,sans-Serif" font-size="10.00">virtual void Unload()</text>
<text text-anchor="start" x="212.91" y="-1046.5" font-family="Helvetica,sans-Serif" font-size="10.00">+</text>
<text text-anchor="start" x="225.91" y="-1046.5" font-family="Helvetica,sans-Serif" font-size="10.00">string PrettyPrintName()</text>
<text text-anchor="start" x="212.91" y="-1031.5" font-family="Helvetica,sans-Serif" font-size="10.00">+</text>
<text text-anchor="start" x="225.91" y="-1031.5" font-family="Helvetica,sans-Serif" font-size="10.00">virtual TModType Clone</text>
<text text-anchor="start" x="225.91" y="-1020.5" font-family="Helvetica,sans-Serif" font-size="10.00">(TEntity newEntity)</text>
<text text-anchor="start" x="212.91" y="-1005.5" font-family="Helvetica,sans-Serif" font-size="10.00">+</text>
<text text-anchor="start" x="225.91" y="-1005.5" font-family="Helvetica,sans-Serif" font-size="10.00">virtual TModType NewInstance</text>
<text text-anchor="start" x="225.91" y="-994.5" font-family="Helvetica,sans-Serif" font-size="10.00">(TEntity entity)</text>
<text text-anchor="start" x="212.91" y="-979.5" font-family="Helvetica,sans-Serif" font-size="10.00">#</text>
<text text-anchor="start" x="225.91" y="-979.5" font-family="Helvetica,sans-Serif" font-size="10.00">void Register()</text>
<text text-anchor="start" x="212.91" y="-964.5" font-family="Helvetica,sans-Serif" font-size="10.00">#</text>
<text text-anchor="start" x="225.91" y="-964.5" font-family="Helvetica,sans-Serif" font-size="10.00">virtual void InitTemplate</text>
<text text-anchor="start" x="225.91" y="-953.5" font-family="Helvetica,sans-Serif" font-size="10.00">Instance()</text>
<text text-anchor="start" x="212.91" y="-938.5" font-family="Helvetica,sans-Serif" font-size="10.00">#</text>
<text text-anchor="start" x="225.91" y="-938.5" font-family="Helvetica,sans-Serif" font-size="10.00">virtual void ValidateType()</text>
<text text-anchor="start" x="212.91" y="-923.5" font-family="Helvetica,sans-Serif" font-size="10.00">#</text>
<text text-anchor="start" x="225.91" y="-923.5" font-family="Helvetica,sans-Serif" font-size="10.00">override void InitTemplate</text>
<text text-anchor="start" x="225.91" y="-912.5" font-family="Helvetica,sans-Serif" font-size="10.00">Instance()</text>
<text text-anchor="start" x="212.91" y="-897.5" font-family="Helvetica,sans-Serif" font-size="10.00">#</text>
<text text-anchor="start" x="225.91" y="-897.5" font-family="Helvetica,sans-Serif" font-size="10.00">TEntity CreateTemplateEntity()</text>
<text text-anchor="start" x="215.41" y="-882.5" font-family="Helvetica,sans-Serif" font-size="10.00">&#45;</text>
<text text-anchor="start" x="225.91" y="-882.5" font-family="Helvetica,sans-Serif" font-size="10.00">void ILoadable. Load</text>
<text text-anchor="start" x="225.91" y="-871.5" font-family="Helvetica,sans-Serif" font-size="10.00">(Mod mod)</text>
<polygon fill="#666666" stroke="#666666" points="208.91,-1232.5 208.91,-1232.5 384.91,-1232.5 384.91,-1232.5 208.91,-1232.5"/>
<polygon fill="#666666" stroke="#666666" points="208.91,-1142.5 208.91,-1142.5 223.91,-1142.5 223.91,-1142.5 208.91,-1142.5"/>
<polygon fill="#666666" stroke="#666666" points="223.91,-1142.5 223.91,-1142.5 384.91,-1142.5 384.91,-1142.5 223.91,-1142.5"/>
<polygon fill="none" stroke="#666666" points="208.91,-865 208.91,-1250 384.91,-1250 384.91,-865 208.91,-865"/>
</a>
</g>
</g>
<!-- Node3&#45;&gt;Node2 -->
<g id="edge2_Node000002_Node000003" class="edge">
<title>Node3&#45;&gt;Node2</title>
<g id="a_edge2_Node000002_Node000003"><a xlink:title=" ">
<path fill="none" stroke="#63b8ff" d="M343.39,-854.71C361.71,-775.13 380.52,-693.5 389.5,-654.51"/>
<polygon fill="none" stroke="#63b8ff" points="339.87,-854.38 341.04,-864.91 346.69,-855.95 339.87,-854.38"/>
</a>
</g>
</g>
<!-- Node3&#45;&gt;Node3 -->
<g id="edge5_Node000003_Node000003" class="edge">
<title>Node3&#45;&gt;Node3</title>
<g id="a_edge5_Node000003_Node000003"><a xlink:title=" ">
<path fill="none" stroke="#63b8ff" d="M393.19,-1085.17C399.26,-1078.66 402.91,-1069.44 402.91,-1057.5 402.91,-1040.89 395.84,-1029.53 385.04,-1023.43"/>
<polygon fill="none" stroke="#63b8ff" points="390.75,-1082.64 385.04,-1091.57 395.07,-1088.15 390.75,-1082.64"/>
</a>
</g>
</g>
<!-- Node8 -->
<g id="Node000008" class="node">
<title>Node8</title>
<g id="a_Node000008"><a xlink:href="../../db/d77/classTerraria_1_1ModLoader_1_1ModType.html" target="_top" xlink:title="The base type for most modded things.">
<polygon fill="white" stroke="transparent" points="225.91,-828 49.91,-828 49.91,-432 225.91,-432 225.91,-828"/>
<text text-anchor="start" x="67.91" y="-816" font-family="Helvetica,sans-Serif" font-size="10.00">Terraria.ModLoader.ModType</text>
<text text-anchor="start" x="81.41" y="-805" font-family="Helvetica,sans-Serif" font-size="10.00">&lt; TEntity, TModType &gt;</text>
<text text-anchor="start" x="53.91" y="-790" font-family="Helvetica,sans-Serif" font-size="10.00">+</text>
<text text-anchor="start" x="66.91" y="-790" font-family="Helvetica,sans-Serif" font-size="10.00">Mod Mod</text>
<text text-anchor="start" x="53.91" y="-775" font-family="Helvetica,sans-Serif" font-size="10.00">+</text>
<text text-anchor="start" x="66.91" y="-775" font-family="Helvetica,sans-Serif" font-size="10.00">virtual string Name</text>
<text text-anchor="start" x="53.91" y="-760" font-family="Helvetica,sans-Serif" font-size="10.00">+</text>
<text text-anchor="start" x="66.91" y="-760" font-family="Helvetica,sans-Serif" font-size="10.00">string FullName</text>
<text text-anchor="start" x="53.91" y="-745" font-family="Helvetica,sans-Serif" font-size="10.00">+</text>
<text text-anchor="start" x="66.91" y="-745" font-family="Helvetica,sans-Serif" font-size="10.00">TEntity Entity</text>
<text text-anchor="start" x="53.91" y="-730" font-family="Helvetica,sans-Serif" font-size="10.00">+</text>
<text text-anchor="start" x="66.91" y="-730" font-family="Helvetica,sans-Serif" font-size="10.00">virtual bool IsCloneable</text>
<text text-anchor="start" x="53.91" y="-715" font-family="Helvetica,sans-Serif" font-size="10.00">+</text>
<text text-anchor="start" x="66.91" y="-715" font-family="Helvetica,sans-Serif" font-size="10.00">virtual bool CloneNewInstances</text>
<text text-anchor="start" x="53.91" y="-700" font-family="Helvetica,sans-Serif" font-size="10.00">+</text>
<text text-anchor="start" x="66.91" y="-700" font-family="Helvetica,sans-Serif" font-size="10.00">virtual void Load()</text>
<text text-anchor="start" x="53.91" y="-685" font-family="Helvetica,sans-Serif" font-size="10.00">+</text>
<text text-anchor="start" x="66.91" y="-685" font-family="Helvetica,sans-Serif" font-size="10.00">virtual bool IsLoadingEnabled</text>
<text text-anchor="start" x="66.91" y="-674" font-family="Helvetica,sans-Serif" font-size="10.00">(Mod mod)</text>
<text text-anchor="start" x="53.91" y="-659" font-family="Helvetica,sans-Serif" font-size="10.00">+</text>
<text text-anchor="start" x="66.91" y="-659" font-family="Helvetica,sans-Serif" font-size="10.00">virtual void SetupContent()</text>
<text text-anchor="start" x="53.91" y="-644" font-family="Helvetica,sans-Serif" font-size="10.00">+</text>
<text text-anchor="start" x="66.91" y="-644" font-family="Helvetica,sans-Serif" font-size="10.00">virtual void SetStaticDefaults()</text>
<text text-anchor="start" x="53.91" y="-629" font-family="Helvetica,sans-Serif" font-size="10.00">+</text>
<text text-anchor="start" x="66.91" y="-629" font-family="Helvetica,sans-Serif" font-size="10.00">virtual void Unload()</text>
<text text-anchor="start" x="53.91" y="-614" font-family="Helvetica,sans-Serif" font-size="10.00">+</text>
<text text-anchor="start" x="66.91" y="-614" font-family="Helvetica,sans-Serif" font-size="10.00">string PrettyPrintName()</text>
<text text-anchor="start" x="53.91" y="-599" font-family="Helvetica,sans-Serif" font-size="10.00">+</text>
<text text-anchor="start" x="66.91" y="-599" font-family="Helvetica,sans-Serif" font-size="10.00">virtual TModType Clone</text>
<text text-anchor="start" x="66.91" y="-588" font-family="Helvetica,sans-Serif" font-size="10.00">(TEntity newEntity)</text>
<text text-anchor="start" x="53.91" y="-573" font-family="Helvetica,sans-Serif" font-size="10.00">+</text>
<text text-anchor="start" x="66.91" y="-573" font-family="Helvetica,sans-Serif" font-size="10.00">virtual TModType NewInstance</text>
<text text-anchor="start" x="66.91" y="-562" font-family="Helvetica,sans-Serif" font-size="10.00">(TEntity entity)</text>
<text text-anchor="start" x="53.91" y="-547" font-family="Helvetica,sans-Serif" font-size="10.00">#</text>
<text text-anchor="start" x="66.91" y="-547" font-family="Helvetica,sans-Serif" font-size="10.00">void Register()</text>
<text text-anchor="start" x="53.91" y="-532" font-family="Helvetica,sans-Serif" font-size="10.00">#</text>
<text text-anchor="start" x="66.91" y="-532" font-family="Helvetica,sans-Serif" font-size="10.00">virtual void InitTemplate</text>
<text text-anchor="start" x="66.91" y="-521" font-family="Helvetica,sans-Serif" font-size="10.00">Instance()</text>
<text text-anchor="start" x="53.91" y="-506" font-family="Helvetica,sans-Serif" font-size="10.00">#</text>
<text text-anchor="start" x="66.91" y="-506" font-family="Helvetica,sans-Serif" font-size="10.00">virtual void ValidateType()</text>
<text text-anchor="start" x="53.91" y="-491" font-family="Helvetica,sans-Serif" font-size="10.00">#</text>
<text text-anchor="start" x="66.91" y="-491" font-family="Helvetica,sans-Serif" font-size="10.00">override void InitTemplate</text>
<text text-anchor="start" x="66.91" y="-480" font-family="Helvetica,sans-Serif" font-size="10.00">Instance()</text>
<text text-anchor="start" x="53.91" y="-465" font-family="Helvetica,sans-Serif" font-size="10.00">#</text>
<text text-anchor="start" x="66.91" y="-465" font-family="Helvetica,sans-Serif" font-size="10.00">TEntity CreateTemplateEntity()</text>
<text text-anchor="start" x="56.41" y="-450" font-family="Helvetica,sans-Serif" font-size="10.00">&#45;</text>
<text text-anchor="start" x="66.91" y="-450" font-family="Helvetica,sans-Serif" font-size="10.00">void ILoadable. Load</text>
<text text-anchor="start" x="66.91" y="-439" font-family="Helvetica,sans-Serif" font-size="10.00">(Mod mod)</text>
<polygon fill="#666666" stroke="#666666" points="49.91,-800 49.91,-800 225.91,-800 225.91,-800 49.91,-800"/>
<polygon fill="#666666" stroke="#666666" points="49.91,-710 49.91,-710 64.91,-710 64.91,-710 49.91,-710"/>
<polygon fill="#666666" stroke="#666666" points="64.91,-710 64.91,-710 225.91,-710 225.91,-710 64.91,-710"/>
<polygon fill="none" stroke="#666666" points="49.91,-432 49.91,-828 225.91,-828 225.91,-432 49.91,-432"/>
</a>
</g>
</g>
<!-- Node3&#45;&gt;Node8 -->
<g id="edge13_Node000008_Node000003" class="edge">
<title>Node3&#45;&gt;Node8</title>
<g id="a_edge13_Node000008_Node000003"><a xlink:title=" ">
<path fill="none" stroke="#63b8ff" d="M221.77,-855.43C218.37,-846.31 214.95,-837.17 211.55,-828.06"/>
<polygon fill="none" stroke="#63b8ff" points="218.54,-856.77 225.32,-864.91 225.1,-854.32 218.54,-856.77"/>
</a>
</g>
</g>
<!-- Node4 -->
<g id="Node000004" class="node">
<title>Node4</title>
<g id="a_Node000004"><a xlink:href="../../db/d02/interfaceTerraria_1_1ModLoader_1_1IModType.html" target="_top" xlink:title=" ">
<polygon fill="white" stroke="transparent" points="480.41,-1381.5 381.41,-1381.5 381.41,-1302.5 480.41,-1302.5 480.41,-1381.5"/>
<text text-anchor="start" x="407.91" y="-1369" font-family="Helvetica,sans-Serif" font-size="10.00">IModType</text>
<text text-anchor="start" x="385.91" y="-1354" font-family="Helvetica,sans-Serif" font-size="10.00">+</text>
<text text-anchor="start" x="398.91" y="-1354" font-family="Helvetica,sans-Serif" font-size="10.00">Mod Mod</text>
<text text-anchor="start" x="385.91" y="-1339" font-family="Helvetica,sans-Serif" font-size="10.00">+</text>
<text text-anchor="start" x="398.91" y="-1339" font-family="Helvetica,sans-Serif" font-size="10.00">string Name</text>
<text text-anchor="start" x="385.91" y="-1324" font-family="Helvetica,sans-Serif" font-size="10.00">+</text>
<text text-anchor="start" x="398.91" y="-1324" font-family="Helvetica,sans-Serif" font-size="10.00">string FullName</text>
<text text-anchor="start" x="429.41" y="-1309" font-family="Helvetica,sans-Serif" font-size="10.00"> </text>
<polygon fill="#666666" stroke="#666666" points="381.91,-1364 381.91,-1364 480.91,-1364 480.91,-1364 381.91,-1364"/>
<polygon fill="#666666" stroke="#666666" points="381.91,-1319 381.91,-1319 396.91,-1319 396.91,-1319 381.91,-1319"/>
<polygon fill="#666666" stroke="#666666" points="396.91,-1319 396.91,-1319 480.91,-1319 480.91,-1319 396.91,-1319"/>
<polygon fill="none" stroke="#666666" points="381.41,-1302.5 381.41,-1381.5 480.41,-1381.5 480.41,-1302.5 381.41,-1302.5"/>
</a>
</g>
</g>
<!-- Node4&#45;&gt;Node3 -->
<g id="edge3_Node000003_Node000004" class="edge">
<title>Node4&#45;&gt;Node3</title>
<g id="a_edge3_Node000003_Node000004"><a xlink:title=" ">
<path fill="none" stroke="#63b8ff" d="M408.23,-1293.19C401.39,-1278.77 393.43,-1261.99 384.98,-1244.16"/>
<polygon fill="none" stroke="#63b8ff" points="405.11,-1294.78 412.56,-1302.31 411.44,-1291.78 405.11,-1294.78"/>
</a>
</g>
</g>
<!-- Node6 -->
<g id="Node000006" class="node">
<title>Node6</title>
<g id="a_Node000006"><a xlink:href="../../db/d77/classTerraria_1_1ModLoader_1_1ModType.html" target="_top" xlink:title=" ">
<polygon fill="white" stroke="transparent" points="271.91,-385 95.91,-385 95.91,0 271.91,0 271.91,-385"/>
<text text-anchor="start" x="133.41" y="-372.5" font-family="Helvetica,sans-Serif" font-size="10.00">ModType&lt; TEntity &gt;</text>
<text text-anchor="start" x="99.91" y="-357.5" font-family="Helvetica,sans-Serif" font-size="10.00">+</text>
<text text-anchor="start" x="112.91" y="-357.5" font-family="Helvetica,sans-Serif" font-size="10.00">Mod Mod</text>
<text text-anchor="start" x="99.91" y="-342.5" font-family="Helvetica,sans-Serif" font-size="10.00">+</text>
<text text-anchor="start" x="112.91" y="-342.5" font-family="Helvetica,sans-Serif" font-size="10.00">virtual string Name</text>
<text text-anchor="start" x="99.91" y="-327.5" font-family="Helvetica,sans-Serif" font-size="10.00">+</text>
<text text-anchor="start" x="112.91" y="-327.5" font-family="Helvetica,sans-Serif" font-size="10.00">string FullName</text>
<text text-anchor="start" x="99.91" y="-312.5" font-family="Helvetica,sans-Serif" font-size="10.00">+</text>
<text text-anchor="start" x="112.91" y="-312.5" font-family="Helvetica,sans-Serif" font-size="10.00">TEntity Entity</text>
<text text-anchor="start" x="99.91" y="-297.5" font-family="Helvetica,sans-Serif" font-size="10.00">+</text>
<text text-anchor="start" x="112.91" y="-297.5" font-family="Helvetica,sans-Serif" font-size="10.00">virtual bool IsCloneable</text>
<text text-anchor="start" x="99.91" y="-282.5" font-family="Helvetica,sans-Serif" font-size="10.00">+</text>
<text text-anchor="start" x="112.91" y="-282.5" font-family="Helvetica,sans-Serif" font-size="10.00">virtual bool CloneNewInstances</text>
<text text-anchor="start" x="99.91" y="-267.5" font-family="Helvetica,sans-Serif" font-size="10.00">+</text>
<text text-anchor="start" x="112.91" y="-267.5" font-family="Helvetica,sans-Serif" font-size="10.00">virtual void Load()</text>
<text text-anchor="start" x="99.91" y="-252.5" font-family="Helvetica,sans-Serif" font-size="10.00">+</text>
<text text-anchor="start" x="112.91" y="-252.5" font-family="Helvetica,sans-Serif" font-size="10.00">virtual bool IsLoadingEnabled</text>
<text text-anchor="start" x="112.91" y="-241.5" font-family="Helvetica,sans-Serif" font-size="10.00">(Mod mod)</text>
<text text-anchor="start" x="99.91" y="-226.5" font-family="Helvetica,sans-Serif" font-size="10.00">+</text>
<text text-anchor="start" x="112.91" y="-226.5" font-family="Helvetica,sans-Serif" font-size="10.00">virtual void SetupContent()</text>
<text text-anchor="start" x="99.91" y="-211.5" font-family="Helvetica,sans-Serif" font-size="10.00">+</text>
<text text-anchor="start" x="112.91" y="-211.5" font-family="Helvetica,sans-Serif" font-size="10.00">virtual void SetStaticDefaults()</text>
<text text-anchor="start" x="99.91" y="-196.5" font-family="Helvetica,sans-Serif" font-size="10.00">+</text>
<text text-anchor="start" x="112.91" y="-196.5" font-family="Helvetica,sans-Serif" font-size="10.00">virtual void Unload()</text>
<text text-anchor="start" x="99.91" y="-181.5" font-family="Helvetica,sans-Serif" font-size="10.00">+</text>
<text text-anchor="start" x="112.91" y="-181.5" font-family="Helvetica,sans-Serif" font-size="10.00">string PrettyPrintName()</text>
<text text-anchor="start" x="99.91" y="-166.5" font-family="Helvetica,sans-Serif" font-size="10.00">+</text>
<text text-anchor="start" x="112.91" y="-166.5" font-family="Helvetica,sans-Serif" font-size="10.00">virtual TModType Clone</text>
<text text-anchor="start" x="112.91" y="-155.5" font-family="Helvetica,sans-Serif" font-size="10.00">(TEntity newEntity)</text>
<text text-anchor="start" x="99.91" y="-140.5" font-family="Helvetica,sans-Serif" font-size="10.00">+</text>
<text text-anchor="start" x="112.91" y="-140.5" font-family="Helvetica,sans-Serif" font-size="10.00">virtual TModType NewInstance</text>
<text text-anchor="start" x="112.91" y="-129.5" font-family="Helvetica,sans-Serif" font-size="10.00">(TEntity entity)</text>
<text text-anchor="start" x="99.91" y="-114.5" font-family="Helvetica,sans-Serif" font-size="10.00">#</text>
<text text-anchor="start" x="112.91" y="-114.5" font-family="Helvetica,sans-Serif" font-size="10.00">void Register()</text>
<text text-anchor="start" x="99.91" y="-99.5" font-family="Helvetica,sans-Serif" font-size="10.00">#</text>
<text text-anchor="start" x="112.91" y="-99.5" font-family="Helvetica,sans-Serif" font-size="10.00">virtual void InitTemplate</text>
<text text-anchor="start" x="112.91" y="-88.5" font-family="Helvetica,sans-Serif" font-size="10.00">Instance()</text>
<text text-anchor="start" x="99.91" y="-73.5" font-family="Helvetica,sans-Serif" font-size="10.00">#</text>
<text text-anchor="start" x="112.91" y="-73.5" font-family="Helvetica,sans-Serif" font-size="10.00">override void InitTemplate</text>
<text text-anchor="start" x="112.91" y="-62.5" font-family="Helvetica,sans-Serif" font-size="10.00">Instance()</text>
<text text-anchor="start" x="99.91" y="-47.5" font-family="Helvetica,sans-Serif" font-size="10.00">#</text>
<text text-anchor="start" x="112.91" y="-47.5" font-family="Helvetica,sans-Serif" font-size="10.00">virtual void ValidateType()</text>
<text text-anchor="start" x="99.91" y="-32.5" font-family="Helvetica,sans-Serif" font-size="10.00">#</text>
<text text-anchor="start" x="112.91" y="-32.5" font-family="Helvetica,sans-Serif" font-size="10.00">TEntity CreateTemplateEntity()</text>
<text text-anchor="start" x="102.41" y="-17.5" font-family="Helvetica,sans-Serif" font-size="10.00">&#45;</text>
<text text-anchor="start" x="112.91" y="-17.5" font-family="Helvetica,sans-Serif" font-size="10.00">void ILoadable. Load</text>
<text text-anchor="start" x="112.91" y="-6.5" font-family="Helvetica,sans-Serif" font-size="10.00">(Mod mod)</text>
<polygon fill="#666666" stroke="#666666" points="95.91,-367.5 95.91,-367.5 271.91,-367.5 271.91,-367.5 95.91,-367.5"/>
<polygon fill="#666666" stroke="#666666" points="95.91,-277.5 95.91,-277.5 110.91,-277.5 110.91,-277.5 95.91,-277.5"/>
<polygon fill="#666666" stroke="#666666" points="110.91,-277.5 110.91,-277.5 271.91,-277.5 271.91,-277.5 110.91,-277.5"/>
<polygon fill="none" stroke="#666666" points="95.91,0 95.91,-385 271.91,-385 271.91,0 95.91,0"/>
</a>
</g>
</g>
<!-- Node4&#45;&gt;Node6 -->
<g id="edge7_Node000006_Node000004" class="edge">
<title>Node4&#45;&gt;Node6</title>
<g id="a_edge7_Node000006_Node000004"><a xlink:title=" ">
<path fill="none" stroke="#63b8ff" d="M451.53,-1292.53C510.55,-1145.42 663.29,-697.92 460.91,-432 437.17,-400.81 321.74,-409.2 290.91,-385 284.32,-379.83 278.07,-374.13 272.16,-368.03"/>
<polygon fill="none" stroke="#63b8ff" points="448.13,-1291.6 447.62,-1302.18 454.62,-1294.23 448.13,-1291.6"/>
</a>
</g>
</g>
<!-- Node4&#45;&gt;Node8 -->
<g id="edge11_Node000008_Node000004" class="edge">
<title>Node4&#45;&gt;Node8</title>
<g id="a_edge11_Node000008_Node000004"><a xlink:title=" ">
<path fill="none" stroke="#63b8ff" d="M435.95,-1292.37C446.05,-1184.53 463.63,-929.69 411.91,-865 372.26,-815.4 325.8,-864.6 273.91,-828 256.42,-815.66 240.46,-800.32 226.13,-783.67"/>
<polygon fill="none" stroke="#63b8ff" points="432.47,-1292.05 435,-1302.34 439.43,-1292.72 432.47,-1292.05"/>
</a>
</g>
</g>
<!-- Node5 -->
<g id="Node000005" class="node">
<title>Node5</title>
<g id="a_Node000005"><a xlink:href="../../d3/df6/interfaceTerraria_1_1ModLoader_1_1ILoadable.html" target="_top" xlink:title="Allows for implementing types to be loaded and unloaded.">
<polygon fill="white" stroke="transparent" points="140.41,-1387 9.41,-1387 9.41,-1297 140.41,-1297 140.41,-1387"/>
<text text-anchor="start" x="51.41" y="-1375" font-family="Helvetica,sans-Serif" font-size="10.00">ILoadable</text>
<text text-anchor="start" x="73.41" y="-1360" font-family="Helvetica,sans-Serif" font-size="10.00"> </text>
<text text-anchor="start" x="13.91" y="-1345" font-family="Helvetica,sans-Serif" font-size="10.00">+</text>
<text text-anchor="start" x="26.91" y="-1345" font-family="Helvetica,sans-Serif" font-size="10.00">void Load(Mod mod)</text>
<text text-anchor="start" x="13.91" y="-1330" font-family="Helvetica,sans-Serif" font-size="10.00">+</text>
<text text-anchor="start" x="26.91" y="-1330" font-family="Helvetica,sans-Serif" font-size="10.00">bool IsLoadingEnabled</text>
<text text-anchor="start" x="26.91" y="-1319" font-family="Helvetica,sans-Serif" font-size="10.00">(Mod mod)</text>
<text text-anchor="start" x="13.91" y="-1304" font-family="Helvetica,sans-Serif" font-size="10.00">+</text>
<text text-anchor="start" x="26.91" y="-1304" font-family="Helvetica,sans-Serif" font-size="10.00">void Unload()</text>
<polygon fill="#666666" stroke="#666666" points="9.91,-1370 9.91,-1370 140.91,-1370 140.91,-1370 9.91,-1370"/>
<polygon fill="#666666" stroke="#666666" points="9.91,-1355 9.91,-1355 140.91,-1355 140.91,-1355 9.91,-1355"/>
<polygon fill="none" stroke="#666666" points="9.41,-1297 9.41,-1387 140.41,-1387 140.41,-1297 9.41,-1297"/>
</a>
</g>
</g>
<!-- Node5&#45;&gt;Node3 -->
<g id="edge4_Node000003_Node000005" class="edge">
<title>Node5&#45;&gt;Node3</title>
<g id="a_edge4_Node000003_Node000005"><a xlink:title=" ">
<path fill="none" stroke="#63b8ff" d="M148.7,-1293.02C165.11,-1280.27 181.58,-1265.65 194.91,-1250 199.67,-1244.41 204.3,-1238.56 208.79,-1232.52"/>
<polygon fill="none" stroke="#63b8ff" points="146.51,-1290.29 140.66,-1299.12 150.74,-1295.86 146.51,-1290.29"/>
</a>
</g>
</g>
<!-- Node5&#45;&gt;Node6 -->
<g id="edge8_Node000006_Node000005" class="edge">
<title>Node5&#45;&gt;Node6</title>
<g id="a_edge8_Node000006_Node000005"><a xlink:title=" ">
<path fill="none" stroke="#63b8ff" d="M61.74,-1287.02C29.24,-1144.22 -46.01,-745.98 40.91,-432 52.44,-390.36 73.38,-348.68 95.75,-312.08"/>
<polygon fill="none" stroke="#63b8ff" points="58.35,-1287.9 64,-1296.86 65.17,-1286.33 58.35,-1287.9"/>
</a>
</g>
</g>
<!-- Node5&#45;&gt;Node8 -->
<g id="edge12_Node000008_Node000005" class="edge">
<title>Node5&#45;&gt;Node8</title>
<g id="a_edge12_Node000008_Node000005"><a xlink:title=" ">
<path fill="none" stroke="#63b8ff" d="M75.62,-1286.83C77.24,-1198.33 82.43,-1017.33 98.91,-865 100.22,-852.92 101.74,-840.52 103.41,-828.03"/>
<polygon fill="none" stroke="#63b8ff" points="72.12,-1286.84 75.45,-1296.9 79.12,-1286.96 72.12,-1286.84"/>
</a>
</g>
</g>
<!-- Node6&#45;&gt;Node3 -->
<g id="edge6_Node000003_Node000006" class="edge">
<title>Node6&#45;&gt;Node3</title>
<g id="a_edge6_Node000003_Node000006"><a xlink:title=" ">
<path fill="none" stroke="#63b8ff" d="M228.69,-395.15C230.94,-407.59 233.04,-419.95 234.91,-432 262.11,-606.75 256.39,-652.02 273.91,-828 275.11,-840 276.34,-852.36 277.59,-864.82"/>
<polygon fill="none" stroke="#63b8ff" points="232.1,-394.36 226.85,-385.16 225.22,-395.62 232.1,-394.36"/>
</a>
</g>
</g>
<!-- Node6&#45;&gt;Node8 -->
<g id="edge14_Node000008_Node000006" class="edge">
<title>Node6&#45;&gt;Node8</title>
<g id="a_edge14_Node000008_Node000006"><a xlink:title=" ">
<path fill="none" stroke="#63b8ff" d="M157.74,-395.29C157.46,-397.88 157.18,-400.45 156.91,-403 155.91,-412.4 154.93,-422.02 153.98,-431.74"/>
<polygon fill="none" stroke="#63b8ff" points="161.23,-395.59 158.85,-385.26 154.27,-394.82 161.23,-395.59"/>
</a>
</g>
</g>
<!-- Node7 -->
<g id="Node000007" class="node">
<title>Node7</title>
<g id="a_Node000007"><a xlink:href="../../dc/da7/classbool_04.html" target="_top" xlink:title=" ">
<polygon fill="white" stroke="transparent" points="319.41,-654.5 282.41,-654.5 282.41,-605.5 319.41,-605.5 319.41,-654.5"/>
<text text-anchor="start" x="287.91" y="-642" font-family="Helvetica,sans-Serif" font-size="10.00">bool?</text>
<text text-anchor="start" x="299.41" y="-627" font-family="Helvetica,sans-Serif" font-size="10.00"> </text>
<text text-anchor="start" x="299.41" y="-612" font-family="Helvetica,sans-Serif" font-size="10.00"> </text>
<polygon fill="#666666" stroke="#666666" points="282.91,-637 282.91,-637 319.91,-637 319.91,-637 282.91,-637"/>
<polygon fill="#666666" stroke="#666666" points="282.91,-622 282.91,-622 319.91,-622 319.91,-622 282.91,-622"/>
<polygon fill="none" stroke="#666666" points="282.41,-605.5 282.41,-654.5 319.41,-654.5 319.41,-605.5 282.41,-605.5"/>
</a>
</g>
</g>
<!-- Node7&#45;&gt;Node6 -->
<g id="edge9_Node000006_Node000007" class="edge">
<title>Node7&#45;&gt;Node6</title>
<g id="a_edge9_Node000006_Node000007"><a xlink:title=" ">
<path fill="none" stroke="#63b8ff" d="M299.29,-605.2C296.06,-563.59 287.35,-475.17 267.91,-403 267.37,-400.98 266.81,-398.96 266.24,-396.93"/>
<polygon fill="none" stroke="#63b8ff" points="266.2,-396.78 260.68,-392.14 262.84,-385.26 268.36,-389.9 266.2,-396.78"/>
</a>
</g>
<text text-anchor="middle" x="303.91" y="-406" font-family="Helvetica,sans-Serif" font-size="10.00" fill="grey"> &#45;_isCloneable</text>
</g>
<!-- Node8&#45;&gt;Node6 -->
<g id="edge10_Node000006_Node000008" class="edge">
<title>Node8&#45;&gt;Node6</title>
<g id="a_edge10_Node000006_Node000008"><a xlink:title=" ">
<path fill="none" stroke="orange" d="M159.8,-421.74C161.09,-409.56 162.38,-397.34 163.66,-385.23"/>
<polygon fill="orange" stroke="orange" points="156.29,-421.64 158.72,-431.96 163.25,-422.38 156.29,-421.64"/>
</a>
</g>
<text text-anchor="middle" x="191.41" y="-406" font-family="Helvetica,sans-Serif" font-size="10.00" fill="grey"> &lt; TEntity &gt;</text>
</g>
<!-- Node9 -->
<g id="Node000009" class="node">
<title>Node9</title>
<g id="a_Node000009"><a xlink:title=" ">
<polygon fill="white" stroke="transparent" points="247.91,-1366.5 215.91,-1366.5 215.91,-1317.5 247.91,-1317.5 247.91,-1366.5"/>
<text text-anchor="start" x="220.91" y="-1354" font-family="Helvetica,sans-Serif" font-size="10.00">bool</text>
<text text-anchor="start" x="229.91" y="-1339" font-family="Helvetica,sans-Serif" font-size="10.00"> </text>
<text text-anchor="start" x="229.91" y="-1324" font-family="Helvetica,sans-Serif" font-size="10.00"> </text>
<polygon fill="#666666" stroke="#666666" points="215.91,-1349 215.91,-1349 247.91,-1349 247.91,-1349 215.91,-1349"/>
<polygon fill="#666666" stroke="#666666" points="215.91,-1334 215.91,-1334 247.91,-1334 247.91,-1334 215.91,-1334"/>
<polygon fill="none" stroke="#666666" points="215.91,-1317.5 215.91,-1366.5 247.91,-1366.5 247.91,-1317.5 215.91,-1317.5"/>
</a>
</g>
</g>
<!-- Node9&#45;&gt;Node3 -->
<g id="edge16_Node000003_Node000009" class="edge">
<title>Node9&#45;&gt;Node3</title>
<g id="a_edge16_Node000003_Node000009"><a xlink:title=" ">
<path fill="none" stroke="#63b8ff" d="M237.34,-1317.4C240.57,-1303.35 245.02,-1284.03 250.04,-1262.21"/>
<polygon fill="none" stroke="#63b8ff" points="250.11,-1261.92 247.55,-1255.18 252.8,-1250.23 255.35,-1256.97 250.11,-1261.92"/>
</a>
</g>
<text text-anchor="middle" x="281.91" y="-1271" font-family="Helvetica,sans-Serif" font-size="10.00" fill="grey"> &#45;_isCloneable</text>
</g>
<!-- Node9&#45;&gt;Node8 -->
<g id="edge15_Node000008_Node000009" class="edge">
<title>Node9&#45;&gt;Node8</title>
<g id="a_edge15_Node000008_Node000009"><a xlink:title=" ">
<path fill="none" stroke="#63b8ff" d="M215.7,-1332.47C191.67,-1318.78 147.57,-1289.42 129.91,-1250 98.15,-1179.09 104.81,-990.83 116.63,-840.39"/>
<polygon fill="none" stroke="#63b8ff" points="116.65,-840.22 113.14,-833.92 117.61,-828.26 121.11,-834.56 116.65,-840.22"/>
</a>
</g>
<text text-anchor="middle" x="164.91" y="-1055" font-family="Helvetica,sans-Serif" font-size="10.00" fill="grey"> &#45;_isCloneable</text>
</g>
</g>
</svg>
