<?xml version="1.0" encoding="UTF-8" standalone="no"?>
<!DOCTYPE svg PUBLIC "-//W3C//DTD SVG 1.1//EN"
 "http://www.w3.org/Graphics/SVG/1.1/DTD/svg11.dtd">
<!-- Generated by graphviz version 2.43.0 (0)
 -->
<!-- Title: Terraria.GameContent.Biomes.CampsiteBiome.Place Pages: 1 -->
<svg width="999pt" height="568pt"
 viewBox="0.00 0.00 999.00 568.12" xmlns="http://www.w3.org/2000/svg" xmlns:xlink="http://www.w3.org/1999/xlink">
<g id="graph0" class="graph" transform="scale(1 1) rotate(0) translate(4 564.12)">
<title>Terraria.GameContent.Biomes.CampsiteBiome.Place</title>
<!-- Node1 -->
<g id="Node000001" class="node">
<title>Node1</title>
<g id="a_Node000001"><a xlink:title=" ">
<polygon fill="#999999" stroke="#666666" points="167,-394.5 0,-394.5 0,-364.5 167,-364.5 167,-394.5"/>
<text text-anchor="start" x="8" y="-382.5" font-family="Helvetica,sans-Serif" font-size="10.00">Terraria.GameContent.Biomes.</text>
<text text-anchor="middle" x="83.5" y="-371.5" font-family="Helvetica,sans-Serif" font-size="10.00">CampsiteBiome.Place</text>
</a>
</g>
</g>
<!-- Node2 -->
<g id="Node000002" class="node">
<title>Node2</title>
<g id="a_Node000002"><a xlink:href="../../d6/d21/structTerraria_1_1Tile_a9a3f37926e6d7f23ba057d6c0aeab1a5.html#a9a3f37926e6d7f23ba057d6c0aeab1a5" target="_top" xlink:title="Legacy code, use P:Terraria.Tile.HasTile instead.">
<polygon fill="white" stroke="#666666" points="549.5,-506 442.5,-506 442.5,-487 549.5,-487 549.5,-506"/>
<text text-anchor="middle" x="496" y="-494" font-family="Helvetica,sans-Serif" font-size="10.00">Terraria.Tile.active</text>
</a>
</g>
</g>
<!-- Node1&#45;&gt;Node2 -->
<g id="edge1_Node000001_Node000002" class="edge">
<title>Node1&#45;&gt;Node2</title>
<g id="a_edge1_Node000001_Node000002"><a xlink:title=" ">
<path fill="none" stroke="#63b8ff" d="M90.11,-394.84C103.48,-428.82 140.85,-509.96 203,-541.5 292.13,-586.73 414.77,-537.03 468.25,-510.71"/>
<polygon fill="#63b8ff" stroke="#63b8ff" points="470.05,-513.72 477.41,-506.1 466.9,-507.47 470.05,-513.72"/>
</a>
</g>
</g>
<!-- Node3 -->
<g id="Node000003" class="node">
<title>Node3</title>
<g id="a_Node000003"><a xlink:href="../../da/d8a/classTerraria_1_1WorldBuilding_1_1StructureMap_a091d8189ebc9e5fc19803700561de8c7.html#a091d8189ebc9e5fc19803700561de8c7" target="_top" xlink:title=" ">
<polygon fill="white" stroke="#666666" points="375.5,-532.5 204.5,-532.5 204.5,-502.5 375.5,-502.5 375.5,-532.5"/>
<text text-anchor="start" x="212.5" y="-520.5" font-family="Helvetica,sans-Serif" font-size="10.00">Terraria.WorldBuilding.Structure</text>
<text text-anchor="middle" x="290" y="-509.5" font-family="Helvetica,sans-Serif" font-size="10.00">Map.AddProtectedStructure</text>
</a>
</g>
</g>
<!-- Node1&#45;&gt;Node3 -->
<g id="edge2_Node000001_Node000003" class="edge">
<title>Node1&#45;&gt;Node3</title>
<g id="a_edge2_Node000001_Node000003"><a xlink:title=" ">
<path fill="none" stroke="#63b8ff" d="M95.89,-394.5C115.23,-418.91 156.9,-467.16 203,-493.5 206.05,-495.24 209.24,-496.87 212.52,-498.38"/>
<polygon fill="#63b8ff" stroke="#63b8ff" points="211.36,-501.69 221.93,-502.34 214.07,-495.24 211.36,-501.69"/>
</a>
</g>
</g>
<!-- Node4 -->
<g id="Node000004" class="node">
<title>Node4</title>
<g id="a_Node000004"><a xlink:href="../../da/d8a/classTerraria_1_1WorldBuilding_1_1StructureMap_a707bc823640c5a6be63d3caea75ac19d.html#a707bc823640c5a6be63d3caea75ac19d" target="_top" xlink:title=" ">
<polygon fill="white" stroke="#666666" points="375.5,-466.5 204.5,-466.5 204.5,-436.5 375.5,-436.5 375.5,-466.5"/>
<text text-anchor="start" x="212.5" y="-454.5" font-family="Helvetica,sans-Serif" font-size="10.00">Terraria.WorldBuilding.Structure</text>
<text text-anchor="middle" x="290" y="-443.5" font-family="Helvetica,sans-Serif" font-size="10.00">Map.CanPlace</text>
</a>
</g>
</g>
<!-- Node1&#45;&gt;Node4 -->
<g id="edge3_Node000001_Node000004" class="edge">
<title>Node1&#45;&gt;Node4</title>
<g id="a_edge3_Node000001_Node000004"><a xlink:title=" ">
<path fill="none" stroke="#63b8ff" d="M118.6,-394.5C142.07,-404.54 174.11,-417.65 203,-427.5 208.97,-429.53 215.21,-431.53 221.5,-433.44"/>
<polygon fill="#63b8ff" stroke="#63b8ff" points="220.78,-436.88 231.36,-436.38 222.78,-430.17 220.78,-436.88"/>
</a>
</g>
</g>
<!-- Node5 -->
<g id="Node000005" class="node">
<title>Node5</title>
<g id="a_Node000005"><a xlink:href="../../d0/db6/classTerraria_1_1WorldBuilding_1_1Searches_a0a2b7ab503ac7ec649d55daaf8612a42.html#a0a2b7ab503ac7ec649d55daaf8612a42" target="_top" xlink:title=" ">
<polygon fill="white" stroke="#666666" points="377,-418.5 203,-418.5 203,-388.5 377,-388.5 377,-418.5"/>
<text text-anchor="start" x="211" y="-406.5" font-family="Helvetica,sans-Serif" font-size="10.00">Terraria.WorldBuilding.Searches.</text>
<text text-anchor="middle" x="290" y="-395.5" font-family="Helvetica,sans-Serif" font-size="10.00">Chain</text>
</a>
</g>
</g>
<!-- Node1&#45;&gt;Node5 -->
<g id="edge5_Node000001_Node000005" class="edge">
<title>Node1&#45;&gt;Node5</title>
<g id="a_edge5_Node000001_Node000005"><a xlink:title=" ">
<path fill="none" stroke="#63b8ff" d="M167.09,-389.19C175.53,-390.18 184.17,-391.2 192.74,-392.2"/>
<polygon fill="#63b8ff" stroke="#63b8ff" points="192.43,-395.69 202.77,-393.38 193.24,-388.74 192.43,-395.69"/>
</a>
</g>
</g>
<!-- Node6 -->
<g id="Node000006" class="node">
<title>Node6</title>
<g id="a_Node000006"><a xlink:href="../../d9/d02/classTerraria_1_1WorldBuilding_1_1Actions_a6e2572a22feedf1430087e99ddf6e6d6.html#a6e2572a22feedf1430087e99ddf6e6d6" target="_top" xlink:title=" ">
<polygon fill="white" stroke="#666666" points="373,-370.5 207,-370.5 207,-340.5 373,-340.5 373,-370.5"/>
<text text-anchor="start" x="215" y="-358.5" font-family="Helvetica,sans-Serif" font-size="10.00">Terraria.WorldBuilding.Actions.</text>
<text text-anchor="middle" x="290" y="-347.5" font-family="Helvetica,sans-Serif" font-size="10.00">Chain</text>
</a>
</g>
</g>
<!-- Node1&#45;&gt;Node6 -->
<g id="edge6_Node000001_Node000006" class="edge">
<title>Node1&#45;&gt;Node6</title>
<g id="a_edge6_Node000001_Node000006"><a xlink:title=" ">
<path fill="none" stroke="#63b8ff" d="M167.09,-369.81C176.8,-368.67 186.75,-367.5 196.58,-366.35"/>
<polygon fill="#63b8ff" stroke="#63b8ff" points="197.24,-369.79 206.77,-365.15 196.43,-362.84 197.24,-369.79"/>
</a>
</g>
</g>
<!-- Node7 -->
<g id="Node000007" class="node">
<title>Node7</title>
<g id="a_Node000007"><a xlink:href="../../d6/d1f/classTerraria_1_1WorldBuilding_1_1WorldUtils_a2afa71136849722c517115ad53e5ea65.html#a2afa71136849722c517115ad53e5ea65" target="_top" xlink:title=" ">
<polygon fill="white" stroke="#666666" points="367.5,-322.5 212.5,-322.5 212.5,-292.5 367.5,-292.5 367.5,-322.5"/>
<text text-anchor="start" x="220.5" y="-310.5" font-family="Helvetica,sans-Serif" font-size="10.00">Terraria.WorldBuilding.World</text>
<text text-anchor="middle" x="290" y="-299.5" font-family="Helvetica,sans-Serif" font-size="10.00">Utils.Find</text>
</a>
</g>
</g>
<!-- Node1&#45;&gt;Node7 -->
<g id="edge7_Node000001_Node000007" class="edge">
<title>Node1&#45;&gt;Node7</title>
<g id="a_edge7_Node000001_Node000007"><a xlink:title=" ">
<path fill="none" stroke="#63b8ff" d="M118.6,-364.5C142.07,-354.46 174.11,-341.35 203,-331.5 208.97,-329.47 215.21,-327.47 221.5,-325.56"/>
<polygon fill="#63b8ff" stroke="#63b8ff" points="222.78,-328.83 231.36,-322.62 220.78,-322.12 222.78,-328.83"/>
</a>
</g>
</g>
<!-- Node8 -->
<g id="Node000008" class="node">
<title>Node8</title>
<g id="a_Node000008"><a xlink:href="../../d6/d1f/classTerraria_1_1WorldBuilding_1_1WorldUtils_ae81cd0d3f9fab67f47de6a02f4834ad8.html#ae81cd0d3f9fab67f47de6a02f4834ad8" target="_top" xlink:title=" ">
<polygon fill="white" stroke="#666666" points="367.5,-274.5 212.5,-274.5 212.5,-244.5 367.5,-244.5 367.5,-274.5"/>
<text text-anchor="start" x="220.5" y="-262.5" font-family="Helvetica,sans-Serif" font-size="10.00">Terraria.WorldBuilding.World</text>
<text text-anchor="middle" x="290" y="-251.5" font-family="Helvetica,sans-Serif" font-size="10.00">Utils.Gen</text>
</a>
</g>
</g>
<!-- Node1&#45;&gt;Node8 -->
<g id="edge8_Node000001_Node000008" class="edge">
<title>Node1&#45;&gt;Node8</title>
<g id="a_edge8_Node000001_Node000008"><a xlink:title=" ">
<path fill="none" stroke="#63b8ff" d="M99.14,-364.21C120.19,-343.09 161.12,-305.12 203,-283.5 206.72,-281.58 210.61,-279.8 214.6,-278.15"/>
<polygon fill="#63b8ff" stroke="#63b8ff" points="215.95,-281.38 224.03,-274.53 213.44,-274.84 215.95,-281.38"/>
</a>
</g>
</g>
<!-- Node9 -->
<g id="Node000009" class="node">
<title>Node9</title>
<g id="a_Node000009"><a xlink:href="../../de/da1/classTerraria_1_1WorldGen_a44be8e88cfbc0e27b42eea0f79c37c3c.html#a44be8e88cfbc0e27b42eea0f79c37c3c" target="_top" xlink:title=" ">
<polygon fill="white" stroke="#666666" points="365.5,-226 214.5,-226 214.5,-207 365.5,-207 365.5,-226"/>
<text text-anchor="middle" x="290" y="-214" font-family="Helvetica,sans-Serif" font-size="10.00">Terraria.WorldGen.PlaceTile</text>
</a>
</g>
</g>
<!-- Node1&#45;&gt;Node9 -->
<g id="edge9_Node000001_Node000009" class="edge">
<title>Node1&#45;&gt;Node9</title>
<g id="a_edge9_Node000001_Node000009"><a xlink:title=" ">
<path fill="none" stroke="#63b8ff" d="M92.31,-364.49C108.59,-334.77 149.17,-268.49 203,-235.5 206.42,-233.4 210.05,-231.54 213.8,-229.87"/>
<polygon fill="#63b8ff" stroke="#63b8ff" points="215.29,-233.05 223.33,-226.15 212.74,-226.53 215.29,-233.05"/>
</a>
</g>
</g>
<!-- Node4&#45;&gt;Node4 -->
<g id="edge4_Node000004_Node000004" class="edge">
<title>Node4&#45;&gt;Node4</title>
<g id="a_edge4_Node000004_Node000004"><a xlink:title=" ">
<path fill="none" stroke="#63b8ff" d="M253.79,-466.78C245.74,-475.91 257.81,-484.5 290,-484.5 309.11,-484.5 321.13,-481.47 326.06,-477.1"/>
<polygon fill="#63b8ff" stroke="#63b8ff" points="329.56,-476.83 326.21,-466.78 322.56,-476.72 329.56,-476.83"/>
</a>
</g>
</g>
<!-- Node9&#45;&gt;Node2 -->
<g id="edge10_Node000009_Node000002" class="edge">
<title>Node9&#45;&gt;Node2</title>
<g id="a_edge10_Node000009_Node000002"><a xlink:title=" ">
<path fill="none" stroke="#63b8ff" d="M364.64,-226.21C369.17,-228.73 373.36,-231.79 377,-235.5 433.83,-293.42 374.67,-342.97 413,-414.5 427.6,-441.74 454.17,-465.79 473.11,-480.69"/>
<polygon fill="#63b8ff" stroke="#63b8ff" points="471.13,-483.58 481.2,-486.87 475.38,-478.02 471.13,-483.58"/>
</a>
</g>
</g>
<!-- Node10 -->
<g id="Node000010" class="node">
<title>Node10</title>
<g id="a_Node000010"><a xlink:href="../../d6/d21/structTerraria_1_1Tile_a51bea62ea9c2d895b6242d337728b4b6.html#a51bea62ea9c2d895b6242d337728b4b6" target="_top" xlink:title="Legacy code, use P:Terraria.Tile.CheckingLiquid instead.">
<polygon fill="white" stroke="#666666" points="571,-405 421,-405 421,-386 571,-386 571,-405"/>
<text text-anchor="middle" x="496" y="-393" font-family="Helvetica,sans-Serif" font-size="10.00">Terraria.Tile.checkingLiquid</text>
</a>
</g>
</g>
<!-- Node9&#45;&gt;Node10 -->
<g id="edge11_Node000009_Node000010" class="edge">
<title>Node9&#45;&gt;Node10</title>
<g id="a_edge11_Node000009_Node000010"><a xlink:title=" ">
<path fill="none" stroke="#63b8ff" d="M364.03,-226.2C368.76,-228.71 373.16,-231.77 377,-235.5 423.74,-280.82 366.23,-332.21 413,-377.5 413.97,-378.44 414.98,-379.34 416.02,-380.19"/>
<polygon fill="#63b8ff" stroke="#63b8ff" points="414.35,-383.28 424.6,-385.94 418.24,-377.46 414.35,-383.28"/>
</a>
</g>
</g>
<!-- Node11 -->
<g id="Node000011" class="node">
<title>Node11</title>
<g id="a_Node000011"><a xlink:href="../../d6/d21/structTerraria_1_1Tile_a083f90a80ef987726fd28c52ffc4787e.html#a083f90a80ef987726fd28c52ffc4787e" target="_top" xlink:title="Legacy code, use P:Terraria.Tile.TileColor instead.">
<polygon fill="white" stroke="#666666" points="546.5,-368 445.5,-368 445.5,-349 546.5,-349 546.5,-368"/>
<text text-anchor="middle" x="496" y="-356" font-family="Helvetica,sans-Serif" font-size="10.00">Terraria.Tile.color</text>
</a>
</g>
</g>
<!-- Node9&#45;&gt;Node11 -->
<g id="edge12_Node000009_Node000011" class="edge">
<title>Node9&#45;&gt;Node11</title>
<g id="a_edge12_Node000009_Node000011"><a xlink:title=" ">
<path fill="none" stroke="#63b8ff" d="M362.87,-226.15C367.98,-228.66 372.78,-231.73 377,-235.5 413.8,-268.36 376.18,-307.66 413,-340.5 419.41,-346.22 427.22,-350.26 435.43,-353.09"/>
<polygon fill="#63b8ff" stroke="#63b8ff" points="434.63,-356.5 445.21,-355.88 436.56,-349.77 434.63,-356.5"/>
</a>
</g>
</g>
<!-- Node12 -->
<g id="Node000012" class="node">
<title>Node12</title>
<g id="a_Node000012"><a xlink:href="../../de/d1d/classTerraria_1_1Collision_a6489a1a9d15c3b1a4923f127560e5092.html#a6489a1a9d15c3b1a4923f127560e5092" target="_top" xlink:title=" ">
<polygon fill="white" stroke="#666666" points="571.5,-331 420.5,-331 420.5,-312 571.5,-312 571.5,-331"/>
<text text-anchor="middle" x="496" y="-319" font-family="Helvetica,sans-Serif" font-size="10.00">Terraria.Collision.EmptyTile</text>
</a>
</g>
</g>
<!-- Node9&#45;&gt;Node12 -->
<g id="edge13_Node000009_Node000012" class="edge">
<title>Node9&#45;&gt;Node12</title>
<g id="a_edge13_Node000009_Node000012"><a xlink:title=" ">
<path fill="none" stroke="#63b8ff" d="M360.08,-226.01C366.12,-228.51 371.88,-231.63 377,-235.5 403.96,-255.89 386.14,-281.97 413,-302.5 415.34,-304.29 417.82,-305.91 420.4,-307.39"/>
<polygon fill="#63b8ff" stroke="#63b8ff" points="419.01,-310.6 429.53,-311.85 422.09,-304.32 419.01,-310.6"/>
</a>
</g>
</g>
<!-- Node13 -->
<g id="Node000013" class="node">
<title>Node13</title>
<g id="a_Node000013"><a xlink:href="../../d0/d9d/classTerraria_1_1ObjectData_1_1TileObjectData_ae19203d3df8949fc951f1a2545cd68d5.html#ae19203d3df8949fc951f1a2545cd68d5" target="_top" xlink:title=" ">
<polygon fill="white" stroke="#666666" points="562.5,-293.5 429.5,-293.5 429.5,-263.5 562.5,-263.5 562.5,-293.5"/>
<text text-anchor="start" x="437.5" y="-281.5" font-family="Helvetica,sans-Serif" font-size="10.00">Terraria.ObjectData.Tile</text>
<text text-anchor="middle" x="496" y="-270.5" font-family="Helvetica,sans-Serif" font-size="10.00">ObjectData.GetTileData</text>
</a>
</g>
</g>
<!-- Node9&#45;&gt;Node13 -->
<g id="edge14_Node000009_Node000013" class="edge">
<title>Node9&#45;&gt;Node13</title>
<g id="a_edge14_Node000009_Node000013"><a xlink:title=" ">
<path fill="none" stroke="#63b8ff" d="M344.86,-226.07C355.65,-228.64 366.81,-231.76 377,-235.5 393.99,-241.73 396.23,-247.7 413,-254.5 417.98,-256.52 423.2,-258.45 428.48,-260.27"/>
<polygon fill="#63b8ff" stroke="#63b8ff" points="427.44,-263.61 438.03,-263.44 429.64,-256.97 427.44,-263.61"/>
</a>
</g>
</g>
<!-- Node14 -->
<g id="Node000014" class="node">
<title>Node14</title>
<g id="a_Node000014"><a xlink:href="../../d6/d21/structTerraria_1_1Tile_afac1102270d7f948e822bfbe76d4533d.html#afac1102270d7f948e822bfbe76d4533d" target="_top" xlink:title="Legacy code, use P:Terraria.Tile.IsHalfBlock instead.">
<polygon fill="white" stroke="#666666" points="556.5,-245 435.5,-245 435.5,-226 556.5,-226 556.5,-245"/>
<text text-anchor="middle" x="496" y="-233" font-family="Helvetica,sans-Serif" font-size="10.00">Terraria.Tile.halfBrick</text>
</a>
</g>
</g>
<!-- Node9&#45;&gt;Node14 -->
<g id="edge15_Node000009_Node000014" class="edge">
<title>Node9&#45;&gt;Node14</title>
<g id="a_edge15_Node000009_Node000014"><a xlink:title=" ">
<path fill="none" stroke="#63b8ff" d="M365.51,-223.44C385,-225.26 405.94,-227.21 425.17,-229"/>
<polygon fill="#63b8ff" stroke="#63b8ff" points="425.08,-232.5 435.36,-229.95 425.73,-225.53 425.08,-232.5"/>
</a>
</g>
</g>
<!-- Node15 -->
<g id="Node000015" class="node">
<title>Node15</title>
<g id="a_Node000015"><a xlink:href="../../dc/de5/classTerraria_1_1Dust_a977a36a9376966862406a3094e3b70ab.html#a977a36a9376966862406a3094e3b70ab" target="_top" xlink:title="Attempts to spawn a single Dust into the game world. The Position, Width, and Height parameters dicta...">
<polygon fill="white" stroke="#666666" points="559,-208 433,-208 433,-189 559,-189 559,-208"/>
<text text-anchor="middle" x="496" y="-196" font-family="Helvetica,sans-Serif" font-size="10.00">Terraria.Dust.NewDust</text>
</a>
</g>
</g>
<!-- Node9&#45;&gt;Node15 -->
<g id="edge16_Node000009_Node000015" class="edge">
<title>Node9&#45;&gt;Node15</title>
<g id="a_edge16_Node000009_Node000015"><a xlink:title=" ">
<path fill="none" stroke="#63b8ff" d="M365.51,-209.93C384.15,-208.28 404.1,-206.52 422.62,-204.89"/>
<polygon fill="#63b8ff" stroke="#63b8ff" points="423.1,-208.36 432.75,-203.99 422.48,-201.39 423.1,-208.36"/>
</a>
</g>
</g>
<!-- Node21 -->
<g id="Node000021" class="node">
<title>Node21</title>
<g id="a_Node000021"><a xlink:href="../../de/d1f/classTerraria_1_1Minecart_a6066176bc8dc2c84bc14e64dcedac0c6.html#a6066176bc8dc2c84bc14e64dcedac0c6" target="_top" xlink:title=" ">
<polygon fill="white" stroke="#666666" points="573,-171 419,-171 419,-152 573,-152 573,-171"/>
<text text-anchor="middle" x="496" y="-159" font-family="Helvetica,sans-Serif" font-size="10.00">Terraria.Minecart.PlaceTrack</text>
</a>
</g>
</g>
<!-- Node9&#45;&gt;Node21 -->
<g id="edge22_Node000009_Node000021" class="edge">
<title>Node9&#45;&gt;Node21</title>
<g id="a_edge22_Node000009_Node000021"><a xlink:title=" ">
<path fill="none" stroke="#63b8ff" d="M320.4,-206.88C345,-199 381.09,-187.83 413,-179.5 421.21,-177.36 429.93,-175.26 438.5,-173.29"/>
<polygon fill="#63b8ff" stroke="#63b8ff" points="439.46,-176.66 448.45,-171.06 437.92,-169.84 439.46,-176.66"/>
</a>
</g>
</g>
<!-- Node22 -->
<g id="Node000022" class="node">
<title>Node22</title>
<g id="a_Node000022"><a xlink:href="../../d3/d78/classTerraria_1_1Audio_1_1SoundEngine_af55950ae09b294fad1dd58e37fecf28b.html#af55950ae09b294fad1dd58e37fecf28b" target="_top" xlink:title="Attempts to play a sound style with the provided sound style (if it&#39;s not null), and returns a valid ...">
<polygon fill="white" stroke="#666666" points="572.5,-115.5 419.5,-115.5 419.5,-85.5 572.5,-85.5 572.5,-115.5"/>
<text text-anchor="start" x="427.5" y="-103.5" font-family="Helvetica,sans-Serif" font-size="10.00">Terraria.Audio.SoundEngine.</text>
<text text-anchor="middle" x="496" y="-92.5" font-family="Helvetica,sans-Serif" font-size="10.00">PlaySound</text>
</a>
</g>
</g>
<!-- Node9&#45;&gt;Node22 -->
<g id="edge23_Node000009_Node000022" class="edge">
<title>Node9&#45;&gt;Node22</title>
<g id="a_edge23_Node000009_Node000022"><a xlink:title=" ">
<path fill="none" stroke="#63b8ff" d="M306.2,-206.8C329.08,-192.3 373.85,-164.36 413,-142.5 426.62,-134.9 441.75,-126.99 455.28,-120.12"/>
<polygon fill="#63b8ff" stroke="#63b8ff" points="457,-123.17 464.35,-115.54 453.85,-116.92 457,-123.17"/>
</a>
</g>
</g>
<!-- Node23 -->
<g id="Node000023" class="node">
<title>Node23</title>
<g id="a_Node000023"><a xlink:href="../../d1/d70/classTerraria_1_1ModLoader_1_1TileLoader_aca473d2e3714d7ac836cb30e6c4f3e3f.html#aca473d2e3714d7ac836cb30e6c4f3e3f" target="_top" xlink:title=" ">
<polygon fill="white" stroke="#666666" points="579,-67.5 413,-67.5 413,-37.5 579,-37.5 579,-67.5"/>
<text text-anchor="start" x="421" y="-55.5" font-family="Helvetica,sans-Serif" font-size="10.00">Terraria.ModLoader.TileLoader.</text>
<text text-anchor="middle" x="496" y="-44.5" font-family="Helvetica,sans-Serif" font-size="10.00">SaplingGrowthType</text>
</a>
</g>
</g>
<!-- Node9&#45;&gt;Node23 -->
<g id="edge25_Node000009_Node000023" class="edge">
<title>Node9&#45;&gt;Node23</title>
<g id="a_edge25_Node000009_Node000023"><a xlink:title=" ">
<path fill="none" stroke="#63b8ff" d="M296.74,-206.66C312.15,-181.14 357.06,-112.3 413,-76.5 415.6,-74.83 418.32,-73.28 421.13,-71.83"/>
<polygon fill="#63b8ff" stroke="#63b8ff" points="422.73,-74.95 430.32,-67.55 419.78,-68.6 422.73,-74.95"/>
</a>
</g>
</g>
<!-- Node24 -->
<g id="Node000024" class="node">
<title>Node24</title>
<g id="a_Node000024"><a xlink:href="../../d6/d21/structTerraria_1_1Tile_ab9bfb24365d03f2b4fe0842f6a406765.html#ab9bfb24365d03f2b4fe0842f6a406765" target="_top" xlink:title="Legacy code, use P:Terraria.Tile.Slope instead.">
<polygon fill="white" stroke="#666666" points="548,-19 444,-19 444,0 548,0 548,-19"/>
<text text-anchor="middle" x="496" y="-7" font-family="Helvetica,sans-Serif" font-size="10.00">Terraria.Tile.slope</text>
</a>
</g>
</g>
<!-- Node9&#45;&gt;Node24 -->
<g id="edge26_Node000009_Node000024" class="edge">
<title>Node9&#45;&gt;Node24</title>
<g id="a_edge26_Node000009_Node000024"><a xlink:title=" ">
<path fill="none" stroke="#63b8ff" d="M294.27,-206.84C305.38,-175.56 344.82,-76.3 413,-28.5 419.39,-24.02 426.69,-20.58 434.24,-17.94"/>
<polygon fill="#63b8ff" stroke="#63b8ff" points="435.33,-21.27 443.88,-15.02 433.29,-14.57 435.33,-21.27"/>
</a>
</g>
</g>
<!-- Node16 -->
<g id="Node000016" class="node">
<title>Node16</title>
<g id="a_Node000016"><a xlink:href="../../d9/db1/classTerraria_1_1Utilities_1_1UnifiedRandom_ac4ecc6320b69ab939b9c45eaf7d89000.html#ac4ecc6320b69ab939b9c45eaf7d89000" target="_top" xlink:title=" ">
<polygon fill="white" stroke="#666666" points="766,-261.5 634,-261.5 634,-231.5 766,-231.5 766,-261.5"/>
<text text-anchor="start" x="642" y="-249.5" font-family="Helvetica,sans-Serif" font-size="10.00">Terraria.Utilities.Unified</text>
<text text-anchor="middle" x="700" y="-238.5" font-family="Helvetica,sans-Serif" font-size="10.00">Random.Next</text>
</a>
</g>
</g>
<!-- Node15&#45;&gt;Node16 -->
<g id="edge17_Node000015_Node000016" class="edge">
<title>Node15&#45;&gt;Node16</title>
<g id="a_edge17_Node000015_Node000016"><a xlink:title=" ">
<path fill="none" stroke="#63b8ff" d="M541.74,-208.08C553.85,-210.73 566.94,-213.67 579,-216.5 595.69,-220.42 613.64,-224.81 630.44,-229"/>
<polygon fill="#63b8ff" stroke="#63b8ff" points="629.63,-232.4 640.18,-231.44 631.33,-225.61 629.63,-232.4"/>
</a>
</g>
</g>
<!-- Node18 -->
<g id="Node000018" class="node">
<title>Node18</title>
<g id="a_Node000018"><a xlink:href="../../df/dd6/classTerraria_1_1ModLoader_1_1DustLoader_a8374be843b9b2b0143bc000e8663d3ec.html#a8374be843b9b2b0143bc000e8663d3ec" target="_top" xlink:title=" ">
<polygon fill="white" stroke="#666666" points="785,-213.5 615,-213.5 615,-183.5 785,-183.5 785,-213.5"/>
<text text-anchor="start" x="623" y="-201.5" font-family="Helvetica,sans-Serif" font-size="10.00">Terraria.ModLoader.DustLoader.</text>
<text text-anchor="middle" x="700" y="-190.5" font-family="Helvetica,sans-Serif" font-size="10.00">SetupDust</text>
</a>
</g>
</g>
<!-- Node15&#45;&gt;Node18 -->
<g id="edge19_Node000015_Node000018" class="edge">
<title>Node15&#45;&gt;Node18</title>
<g id="a_edge19_Node000015_Node000018"><a xlink:title=" ">
<path fill="none" stroke="#63b8ff" d="M559.25,-198.5C573.61,-198.5 589.2,-198.5 604.59,-198.5"/>
<polygon fill="#63b8ff" stroke="#63b8ff" points="604.66,-202 614.66,-198.5 604.66,-195 604.66,-202"/>
</a>
</g>
</g>
<!-- Node20 -->
<g id="Node000020" class="node">
<title>Node20</title>
<g id="a_Node000020"><a xlink:href="../../de/d1d/classTerraria_1_1Collision_a1c65206ace403aa59afc32d20e5d282e.html#a1c65206ace403aa59afc32d20e5d282e" target="_top" xlink:title=" ">
<polygon fill="white" stroke="#666666" points="781,-165 619,-165 619,-146 781,-146 781,-165"/>
<text text-anchor="middle" x="700" y="-153" font-family="Helvetica,sans-Serif" font-size="10.00">Terraria.Collision.WetCollision</text>
</a>
</g>
</g>
<!-- Node15&#45;&gt;Node20 -->
<g id="edge21_Node000015_Node000020" class="edge">
<title>Node15&#45;&gt;Node20</title>
<g id="a_edge21_Node000015_Node000020"><a xlink:title=" ">
<path fill="none" stroke="#63b8ff" d="M541.83,-188.96C572.04,-182.53 612.07,-174 644.17,-167.17"/>
<polygon fill="#63b8ff" stroke="#63b8ff" points="645.24,-170.52 654.29,-165.02 643.79,-163.68 645.24,-170.52"/>
</a>
</g>
</g>
<!-- Node17 -->
<g id="Node000017" class="node">
<title>Node17</title>
<g id="a_Node000017"><a xlink:href="../../d9/db1/classTerraria_1_1Utilities_1_1UnifiedRandom_a173f09196ff526b107c0223c2d58c59a.html#a173f09196ff526b107c0223c2d58c59a" target="_top" xlink:title=" ">
<polygon fill="white" stroke="#666666" points="973,-261.5 839,-261.5 839,-231.5 973,-231.5 973,-261.5"/>
<text text-anchor="start" x="847" y="-249.5" font-family="Helvetica,sans-Serif" font-size="10.00">Terraria.Utilities.Unified</text>
<text text-anchor="middle" x="906" y="-238.5" font-family="Helvetica,sans-Serif" font-size="10.00">Random.InternalSample</text>
</a>
</g>
</g>
<!-- Node16&#45;&gt;Node17 -->
<g id="edge18_Node000016_Node000017" class="edge">
<title>Node16&#45;&gt;Node17</title>
<g id="a_edge18_Node000016_Node000017"><a xlink:title=" ">
<path fill="none" stroke="#63b8ff" d="M766.11,-246.5C785.96,-246.5 807.96,-246.5 828.5,-246.5"/>
<polygon fill="#63b8ff" stroke="#63b8ff" points="828.76,-250 838.76,-246.5 828.76,-243 828.76,-250"/>
</a>
</g>
</g>
<!-- Node19 -->
<g id="Node000019" class="node">
<title>Node19</title>
<g id="a_Node000019"><a xlink:href="../../df/dd6/classTerraria_1_1ModLoader_1_1DustLoader_a0cb616c3c6776d3bba899e7f1fb0e221.html#a0cb616c3c6776d3bba899e7f1fb0e221" target="_top" xlink:title="Gets the ModDust instance with the given type. Returns null if no ModDust with the given type exists.">
<polygon fill="white" stroke="#666666" points="991,-213.5 821,-213.5 821,-183.5 991,-183.5 991,-213.5"/>
<text text-anchor="start" x="829" y="-201.5" font-family="Helvetica,sans-Serif" font-size="10.00">Terraria.ModLoader.DustLoader.</text>
<text text-anchor="middle" x="906" y="-190.5" font-family="Helvetica,sans-Serif" font-size="10.00">GetDust</text>
</a>
</g>
</g>
<!-- Node18&#45;&gt;Node19 -->
<g id="edge20_Node000018_Node000019" class="edge">
<title>Node18&#45;&gt;Node19</title>
<g id="a_edge20_Node000018_Node000019"><a xlink:title=" ">
<path fill="none" stroke="#63b8ff" d="M785.15,-198.5C793.5,-198.5 802.02,-198.5 810.46,-198.5"/>
<polygon fill="#63b8ff" stroke="#63b8ff" points="810.71,-202 820.71,-198.5 810.71,-195 810.71,-202"/>
</a>
</g>
</g>
<!-- Node22&#45;&gt;Node22 -->
<g id="edge24_Node000022_Node000022" class="edge">
<title>Node22&#45;&gt;Node22</title>
<g id="a_edge24_Node000022_Node000022"><a xlink:title=" ">
<path fill="none" stroke="#63b8ff" d="M460.14,-115.78C452.17,-124.91 464.12,-133.5 496,-133.5 514.93,-133.5 526.83,-130.47 531.71,-126.1"/>
<polygon fill="#63b8ff" stroke="#63b8ff" points="535.21,-125.83 531.86,-115.78 528.21,-125.72 535.21,-125.83"/>
</a>
</g>
</g>
</g>
</svg>
