<?xml version="1.0" encoding="UTF-8" standalone="no"?>
<!DOCTYPE svg PUBLIC "-//W3C//DTD SVG 1.1//EN"
 "http://www.w3.org/Graphics/SVG/1.1/DTD/svg11.dtd">
<!-- Generated by graphviz version 2.43.0 (0)
 -->
<!-- Title: Terraria.Graphics.Renderers.ItemTransferParticle.Draw Pages: 1 -->
<!--zoomable 354 -->

<svg id="main" version="1.1" xmlns="http://www.w3.org/2000/svg" xmlns:xlink="http://www.w3.org/1999/xlink" xml:space="preserve" onload="init(evt)">
<style type="text/css"><![CDATA[
.node, .edge {opacity: 0.7;}
.node.selected, .edge.selected {opacity: 1;}
.edge:hover path { stroke: red; }
.edge:hover polygon { stroke: red; fill: red; }
]]></style>

<defs>
  <circle id="rim" cx="0" cy="0" r="7"/>
  <circle id="rim2" cx="0" cy="0" r="3.5"/>
  <g id="zoomPlus">
    <use xlink:href="#rim" fill="#404040"><set attributeName="fill" to="#808080" begin="zoomplus.mouseover" end="zoomplus.mouseout"/></use>
    <path d="M-4,0h8M0,-4v8" fill="none" stroke="white" stroke-width="1.5" pointer-events="none"/>
  </g>
  <g id="zoomMin">
    <use xlink:href="#rim" fill="#404040"><set attributeName="fill" to="#808080" begin="zoomminus.mouseover" end="zoomminus.mouseout"/></use>
    <path d="M-4,0h8" fill="none" stroke="white" stroke-width="1.5" pointer-events="none"/>
  </g>
  <g id="arrowUp" transform="translate(30 24)">
    <use xlink:href="#rim"/>
    <path pointer-events="none" fill="none" stroke="white" stroke-width="1.5" d="M0,-3.0v7 M-2.5,-0.5L0,-3.0L2.5,-0.5"/>
  </g>
  <g id="arrowRight" transform="rotate(90) translate(36 -43)">
    <use xlink:href="#rim"/>
    <path pointer-events="none" fill="none" stroke="white" stroke-width="1.5" d="M0,-3.0v7 M-2.5,-0.5L0,-3.0L2.5,-0.5"/>
  </g>
  <g id="arrowDown" transform="rotate(180) translate(-30 -48)">
    <use xlink:href="#rim"/>
    <path pointer-events="none" fill="none" stroke="white" stroke-width="1.5" d="M0,-3.0v7 M-2.5,-0.5L0,-3.0L2.5,-0.5"/>
  </g>
  <g id="arrowLeft" transform="rotate(270) translate(-36 17)">
    <use xlink:href="#rim"/>
    <path pointer-events="none" fill="none" stroke="white" stroke-width="1.5" d="M0,-3.0v7 M-2.5,-0.5L0,-3.0L2.5,-0.5"/>
  </g>
  <g id="resetDef">
    <use xlink:href="#rim2" fill="#404040"><set attributeName="fill" to="#808080" begin="reset.mouseover" end="reset.mouseout"/></use>
  </g>
</defs>
<script type="application/ecmascript">
var viewWidth = 751;
var viewHeight = 354;
var sectionId = 'dynsection-0';
</script>
<script type="application/ecmascript" xlink:href="../../svg.min.js"/>
<svg id="graph" class="graph">
<g id="viewport">
<title>Terraria.Graphics.Renderers.ItemTransferParticle.Draw</title>
<!-- Node1 -->
<g id="Node000001" class="node">
<title>Node1</title>
<g id="a_Node000001"><a xlink:title=" ">
<polygon fill="#999999" stroke="#666666" points="155,-112.5 0,-112.5 0,-82.5 155,-82.5 155,-112.5"/>
<text text-anchor="start" x="8" y="-100.5" font-family="Helvetica,sans-Serif" font-size="10.00">Terraria.Graphics.Renderers.</text>
<text text-anchor="middle" x="77.5" y="-89.5" font-family="Helvetica,sans-Serif" font-size="10.00">ItemTransferParticle.Draw</text>
</a>
</g>
</g>
<!-- Node2 -->
<g id="Node000002" class="node">
<title>Node2</title>
<g id="a_Node000002"><a xlink:href="../../dd/de1/classTerraria_1_1UI_1_1ItemSlot_a45a586f4dd5604746ed74c152f549824.html#a45a586f4dd5604746ed74c152f549824" target="_top" xlink:title=" ">
<polygon fill="white" stroke="#666666" points="331,-179.5 191,-179.5 191,-149.5 331,-149.5 331,-179.5"/>
<text text-anchor="start" x="199" y="-167.5" font-family="Helvetica,sans-Serif" font-size="10.00">Terraria.UI.ItemSlot.Draw</text>
<text text-anchor="middle" x="261" y="-156.5" font-family="Helvetica,sans-Serif" font-size="10.00">ItemIcon</text>
</a>
</g>
</g>
<!-- Node1&#45;&gt;Node2 -->
<g id="edge1_Node000001_Node000002" class="edge">
<title>Node1&#45;&gt;Node2</title>
<g id="a_edge1_Node000001_Node000002"><a xlink:title=" ">
<path fill="none" stroke="#63b8ff" d="M119.23,-112.54C145.99,-122.42 181.2,-135.41 209.7,-145.93"/>
<polygon fill="#63b8ff" stroke="#63b8ff" points="208.5,-149.22 219.09,-149.4 210.92,-142.65 208.5,-149.22"/>
</a>
</g>
</g>
<!-- Node12 -->
<g id="Node000012" class="node">
<title>Node12</title>
<g id="a_Node000012"><a xlink:href="../../d1/d9c/classTerraria_1_1Utils_a1220a41f9e87f7faa7e5076f088b9167.html#a1220a41f9e87f7faa7e5076f088b9167" target="_top" xlink:title=" ">
<polygon fill="white" stroke="#666666" points="319,-86 203,-86 203,-67 319,-67 319,-86"/>
<text text-anchor="middle" x="261" y="-74" font-family="Helvetica,sans-Serif" font-size="10.00">Terraria.Utils.Remap</text>
</a>
</g>
</g>
<!-- Node1&#45;&gt;Node12 -->
<g id="edge12_Node000001_Node000012" class="edge">
<title>Node1&#45;&gt;Node12</title>
<g id="a_edge12_Node000001_Node000012"><a xlink:title=" ">
<path fill="none" stroke="#63b8ff" d="M155.21,-88.62C167.68,-87.18 180.51,-85.7 192.74,-84.28"/>
<polygon fill="#63b8ff" stroke="#63b8ff" points="193.31,-87.74 202.84,-83.11 192.51,-80.79 193.31,-87.74"/>
</a>
</g>
</g>
<!-- Node3 -->
<g id="Node000003" class="node">
<title>Node3</title>
<g id="a_Node000003"><a xlink:href="../../dd/de1/classTerraria_1_1UI_1_1ItemSlot_a7f52fbb7c294ef27c1bf3f9e8c19d80d.html#a7f52fbb7c294ef27c1bf3f9e8c19d80d" target="_top" xlink:title=" ">
<polygon fill="white" stroke="#666666" points="522,-326.5 382,-326.5 382,-296.5 522,-296.5 522,-326.5"/>
<text text-anchor="start" x="390" y="-314.5" font-family="Helvetica,sans-Serif" font-size="10.00">Terraria.UI.ItemSlot.Draw</text>
<text text-anchor="middle" x="452" y="-303.5" font-family="Helvetica,sans-Serif" font-size="10.00">Item_GetColorAndScale</text>
</a>
</g>
</g>
<!-- Node2&#45;&gt;Node3 -->
<g id="edge2_Node000002_Node000003" class="edge">
<title>Node2&#45;&gt;Node3</title>
<g id="a_edge2_Node000002_Node000003"><a xlink:title=" ">
<path fill="none" stroke="#63b8ff" d="M271.02,-179.53C287.11,-205.06 323.21,-256.93 367,-285.5 370.77,-287.96 374.79,-290.2 378.94,-292.23"/>
<polygon fill="#63b8ff" stroke="#63b8ff" points="377.66,-295.49 388.22,-296.37 380.51,-289.1 377.66,-295.49"/>
</a>
</g>
</g>
<!-- Node5 -->
<g id="Node000005" class="node">
<title>Node5</title>
<g id="a_Node000005"><a xlink:href="../../db/d79/classTerraria_1_1Item_a7a54705bddb84216623c46fe6483a1fe.html#a7a54705bddb84216623c46fe6483a1fe" target="_top" xlink:title=" ">
<polygon fill="white" stroke="#666666" points="515.5,-276 388.5,-276 388.5,-257 515.5,-257 515.5,-276"/>
<text text-anchor="middle" x="452" y="-264" font-family="Helvetica,sans-Serif" font-size="10.00">Terraria.Item.GetAlpha</text>
</a>
</g>
</g>
<!-- Node2&#45;&gt;Node5 -->
<g id="edge5_Node000002_Node000005" class="edge">
<title>Node2&#45;&gt;Node5</title>
<g id="a_edge5_Node000002_Node000005"><a xlink:title=" ">
<path fill="none" stroke="#63b8ff" d="M276.52,-179.55C295.53,-198.36 330.73,-230.17 367,-247.5 372.19,-249.98 377.71,-252.14 383.35,-254.02"/>
<polygon fill="#63b8ff" stroke="#63b8ff" points="382.33,-257.37 392.91,-256.94 384.37,-250.68 382.33,-257.37"/>
</a>
</g>
</g>
<!-- Node7 -->
<g id="Node000007" class="node">
<title>Node7</title>
<g id="a_Node000007"><a xlink:href="../../db/d79/classTerraria_1_1Item_a114fe7f8c312f04075ac86bb487d6a8f.html#a114fe7f8c312f04075ac86bb487d6a8f" target="_top" xlink:title=" ">
<polygon fill="white" stroke="#666666" points="514.5,-239 389.5,-239 389.5,-220 514.5,-220 514.5,-239"/>
<text text-anchor="middle" x="452" y="-227" font-family="Helvetica,sans-Serif" font-size="10.00">Terraria.Item.GetColor</text>
</a>
</g>
</g>
<!-- Node2&#45;&gt;Node7 -->
<g id="edge7_Node000002_Node000007" class="edge">
<title>Node2&#45;&gt;Node7</title>
<g id="a_edge7_Node000002_Node000007"><a xlink:title=" ">
<path fill="none" stroke="#63b8ff" d="M292.18,-179.56C312.85,-189.41 341.1,-201.98 367,-210.5 374.78,-213.06 383.07,-215.39 391.3,-217.48"/>
<polygon fill="#63b8ff" stroke="#63b8ff" points="390.72,-220.94 401.27,-219.9 392.38,-214.14 390.72,-220.94"/>
</a>
</g>
</g>
<!-- Node8 -->
<g id="Node000008" class="node">
<title>Node8</title>
<g id="a_Node000008"><a xlink:href="../../da/df1/classTerraria_1_1DataStructures_1_1DrawAnimation_aaecbd6fe193a44a8b7b5825de307f736.html#aaecbd6fe193a44a8b7b5825de307f736" target="_top" xlink:title=" ">
<polygon fill="white" stroke="#666666" points="523.5,-201.5 380.5,-201.5 380.5,-171.5 523.5,-171.5 523.5,-201.5"/>
<text text-anchor="start" x="388.5" y="-189.5" font-family="Helvetica,sans-Serif" font-size="10.00">Terraria.DataStructures.</text>
<text text-anchor="middle" x="452" y="-178.5" font-family="Helvetica,sans-Serif" font-size="10.00">DrawAnimation.GetFrame</text>
</a>
</g>
</g>
<!-- Node2&#45;&gt;Node8 -->
<g id="edge8_Node000002_Node000008" class="edge">
<title>Node2&#45;&gt;Node8</title>
<g id="a_edge8_Node000002_Node000008"><a xlink:title=" ">
<path fill="none" stroke="#63b8ff" d="M331.04,-172.54C343.68,-174.01 356.99,-175.56 369.95,-177.07"/>
<polygon fill="#63b8ff" stroke="#63b8ff" points="369.91,-180.58 380.25,-178.26 370.72,-173.63 369.91,-180.58"/>
</a>
</g>
</g>
<!-- Node9 -->
<g id="Node000009" class="node">
<title>Node9</title>
<g id="a_Node000009"><a xlink:href="../../da/dd5/classTerraria_1_1Main_a4ee28e48ce0d95212be5c3f6fdc8a61f.html#a4ee28e48ce0d95212be5c3f6fdc8a61f" target="_top" xlink:title=" ">
<polygon fill="white" stroke="#666666" points="516.5,-153 387.5,-153 387.5,-134 516.5,-134 516.5,-153"/>
<text text-anchor="middle" x="452" y="-141" font-family="Helvetica,sans-Serif" font-size="10.00">Terraria.Main.LoadItem</text>
</a>
</g>
</g>
<!-- Node2&#45;&gt;Node9 -->
<g id="edge9_Node000002_Node000009" class="edge">
<title>Node2&#45;&gt;Node9</title>
<g id="a_edge9_Node000002_Node000009"><a xlink:title=" ">
<path fill="none" stroke="#63b8ff" d="M331.04,-156.83C346.03,-155.16 361.95,-153.39 377.12,-151.71"/>
<polygon fill="#63b8ff" stroke="#63b8ff" points="377.93,-155.14 387.48,-150.56 377.16,-148.18 377.93,-155.14"/>
</a>
</g>
</g>
<!-- Node10 -->
<g id="Node000010" class="node">
<title>Node10</title>
<g id="a_Node000010"><a xlink:href="../../d7/de6/classTerraria_1_1ModLoader_1_1ItemLoader_ab2ef0e90963e4742da4d9e22ff84eb04.html#ab2ef0e90963e4742da4d9e22ff84eb04" target="_top" xlink:title="Calls ModItem.PostDrawInInventory, then all GlobalItem.PostDrawInInventory hooks.">
<polygon fill="white" stroke="#666666" points="537,-115.5 367,-115.5 367,-85.5 537,-85.5 537,-115.5"/>
<text text-anchor="start" x="375" y="-103.5" font-family="Helvetica,sans-Serif" font-size="10.00">Terraria.ModLoader.ItemLoader.</text>
<text text-anchor="middle" x="452" y="-92.5" font-family="Helvetica,sans-Serif" font-size="10.00">PostDrawInInventory</text>
</a>
</g>
</g>
<!-- Node2&#45;&gt;Node10 -->
<g id="edge10_Node000002_Node000010" class="edge">
<title>Node2&#45;&gt;Node10</title>
<g id="a_edge10_Node000002_Node000010"><a xlink:title=" ">
<path fill="none" stroke="#63b8ff" d="M299.14,-149.46C319.1,-141.6 344.23,-132.07 367,-124.5 373.04,-122.49 379.37,-120.49 385.71,-118.56"/>
<polygon fill="#63b8ff" stroke="#63b8ff" points="387.09,-121.8 395.67,-115.58 385.08,-115.09 387.09,-121.8"/>
</a>
</g>
</g>
<!-- Node11 -->
<g id="Node000011" class="node">
<title>Node11</title>
<g id="a_Node000011"><a xlink:href="../../d7/de6/classTerraria_1_1ModLoader_1_1ItemLoader_a018da03012891a8467efe2f4307c39a5.html#a018da03012891a8467efe2f4307c39a5" target="_top" xlink:title="Returns the &quot;and&quot; operator on the results of all GlobalItem.PreDrawInInventory hooks and ModItem....">
<polygon fill="white" stroke="#666666" points="537,-67.5 367,-67.5 367,-37.5 537,-37.5 537,-67.5"/>
<text text-anchor="start" x="375" y="-55.5" font-family="Helvetica,sans-Serif" font-size="10.00">Terraria.ModLoader.ItemLoader.</text>
<text text-anchor="middle" x="452" y="-44.5" font-family="Helvetica,sans-Serif" font-size="10.00">PreDrawInInventory</text>
</a>
</g>
</g>
<!-- Node2&#45;&gt;Node11 -->
<g id="edge11_Node000002_Node000011" class="edge">
<title>Node2&#45;&gt;Node11</title>
<g id="a_edge11_Node000002_Node000011"><a xlink:title=" ">
<path fill="none" stroke="#63b8ff" d="M276.17,-149.17C295.07,-129.58 330.44,-95.9 367,-76.5 370.52,-74.63 374.2,-72.9 377.97,-71.28"/>
<polygon fill="#63b8ff" stroke="#63b8ff" points="379.47,-74.45 387.49,-67.53 376.9,-67.94 379.47,-74.45"/>
</a>
</g>
</g>
<!-- Node4 -->
<g id="Node000004" class="node">
<title>Node4</title>
<g id="a_Node000004"><a xlink:href="../../dd/de1/classTerraria_1_1UI_1_1ItemSlot_ab38dcce846205d551f4265bdda836155.html#ab38dcce846205d551f4265bdda836155" target="_top" xlink:title=" ">
<polygon fill="white" stroke="#666666" points="723.5,-327.5 592.5,-327.5 592.5,-297.5 723.5,-297.5 723.5,-327.5"/>
<text text-anchor="start" x="600.5" y="-315.5" font-family="Helvetica,sans-Serif" font-size="10.00">Terraria.UI.ItemSlot.Get</text>
<text text-anchor="middle" x="658" y="-304.5" font-family="Helvetica,sans-Serif" font-size="10.00">ItemLight</text>
</a>
</g>
</g>
<!-- Node3&#45;&gt;Node4 -->
<g id="edge3_Node000003_Node000004" class="edge">
<title>Node3&#45;&gt;Node4</title>
<g id="a_edge3_Node000003_Node000004"><a xlink:title=" ">
<path fill="none" stroke="#63b8ff" d="M522.07,-311.84C541.46,-311.93 562.63,-312.04 582.33,-312.13"/>
<polygon fill="#63b8ff" stroke="#63b8ff" points="582.46,-315.63 592.48,-312.18 582.5,-308.63 582.46,-315.63"/>
</a>
</g>
</g>
<!-- Node4&#45;&gt;Node4 -->
<g id="edge4_Node000004_Node000004" class="edge">
<title>Node4&#45;&gt;Node4</title>
<g id="a_edge4_Node000004_Node000004"><a xlink:title=" ">
<path fill="none" stroke="#63b8ff" d="M621.79,-327.78C613.74,-336.91 625.81,-345.5 658,-345.5 677.11,-345.5 689.13,-342.47 694.06,-338.1"/>
<polygon fill="#63b8ff" stroke="#63b8ff" points="697.56,-337.83 694.21,-327.78 690.56,-337.72 697.56,-337.83"/>
</a>
</g>
</g>
<!-- Node6 -->
<g id="Node000006" class="node">
<title>Node6</title>
<g id="a_Node000006"><a xlink:href="../../d7/de6/classTerraria_1_1ModLoader_1_1ItemLoader_a8e5ef756412e44adf30e0dcf7aed3bd2.html#a8e5ef756412e44adf30e0dcf7aed3bd2" target="_top" xlink:title="Calls all GlobalItem.GetAlpha hooks then ModItem.GetAlpha, until one of them returns a color,...">
<polygon fill="white" stroke="#666666" points="743,-279.5 573,-279.5 573,-249.5 743,-249.5 743,-279.5"/>
<text text-anchor="start" x="581" y="-267.5" font-family="Helvetica,sans-Serif" font-size="10.00">Terraria.ModLoader.ItemLoader.</text>
<text text-anchor="middle" x="658" y="-256.5" font-family="Helvetica,sans-Serif" font-size="10.00">GetAlpha</text>
</a>
</g>
</g>
<!-- Node5&#45;&gt;Node6 -->
<g id="edge6_Node000005_Node000006" class="edge">
<title>Node5&#45;&gt;Node6</title>
<g id="a_edge6_Node000005_Node000006"><a xlink:title=" ">
<path fill="none" stroke="#63b8ff" d="M515.59,-265.89C530.39,-265.74 546.49,-265.58 562.36,-265.43"/>
<polygon fill="#63b8ff" stroke="#63b8ff" points="562.77,-268.92 572.73,-265.33 562.7,-261.92 562.77,-268.92"/>
</a>
</g>
</g>
<!-- Node13 -->
<g id="Node000013" class="node">
<title>Node13</title>
<g id="a_Node000013"><a xlink:href="../../d1/d9c/classTerraria_1_1Utils_a7223719277be4afd24a2496351a9a22f.html#a7223719277be4afd24a2496351a9a22f" target="_top" xlink:title=" ">
<polygon fill="white" stroke="#666666" points="525.5,-19 378.5,-19 378.5,0 525.5,0 525.5,-19"/>
<text text-anchor="middle" x="452" y="-7" font-family="Helvetica,sans-Serif" font-size="10.00">Terraria.Utils.GetLerpValue</text>
</a>
</g>
</g>
<!-- Node12&#45;&gt;Node13 -->
<g id="edge13_Node000012_Node000013" class="edge">
<title>Node12&#45;&gt;Node13</title>
<g id="a_edge13_Node000012_Node000013"><a xlink:title=" ">
<path fill="none" stroke="#63b8ff" d="M280.12,-66.82C300.69,-56.17 335.48,-39.14 367,-28.5 374.65,-25.92 382.82,-23.58 390.94,-21.49"/>
<polygon fill="#63b8ff" stroke="#63b8ff" points="391.9,-24.86 400.78,-19.08 390.24,-18.06 391.9,-24.86"/>
</a>
</g>
</g>
</g>
</svg>

<g id="navigator" transform="translate(0 0)" fill="#404254">
  <rect fill="#f2f5e9" fill-opacity="0.5" stroke="#606060" stroke-width=".5" x="0" y="0" width="60" height="60"/>
  <use id="zoomplus" xlink:href="#zoomPlus" x="17" y="9" onmousedown="handleZoom(evt,'in')"/>
  <use id="zoomminus" xlink:href="#zoomMin" x="42" y="9" onmousedown="handleZoom(evt,'out')"/>
  <use id="reset" xlink:href="#resetDef" x="30" y="36" onmousedown="handleReset()"/>
   <use id="arrowup" xlink:href="#arrowUp" x="0" y="0" onmousedown="handlePan(0,-1)"/>
  <use id="arrowright" xlink:href="#arrowRight" x="0" y="0" onmousedown="handlePan(1,0)"/>
  <use id="arrowdown" xlink:href="#arrowDown" x="0" y="0" onmousedown="handlePan(0,1)"/>
  <use id="arrowleft" xlink:href="#arrowLeft" x="0" y="0" onmousedown="handlePan(-1,0)"/>
</g>
<svg viewBox="0 0 15 15" width="100%" height="30px" preserveAspectRatio="xMaxYMin meet">
 <g id="arrow_out" transform="scale(0.3 0.3)">
  <a xlink:href="classTerraria_1_1Graphics_1_1Renderers_1_1ItemTransferParticle_a6092a343e1d6bba0d1e6dba68eeda853_a6092a343e1d6bba0d1e6dba68eeda853_cgraph_org.svg" target="_base">
   <rect id="button" ry="5" rx="5" y="6" x="6" height="38" width="38"
        fill="#f2f5e9" fill-opacity="0.5" stroke="#606060" stroke-width="1.0"/>
   <path id="arrow"
     d="M 11.500037,31.436501 C 11.940474,20.09759 22.043105,11.32322 32.158766,21.979434 L 37.068811,17.246167 C 37.068811,17.246167 37.088388,32 37.088388,32 L 22.160133,31.978069 C 22.160133,31.978069 26.997745,27.140456 26.997745,27.140456 C 18.528582,18.264221 13.291696,25.230495 11.500037,31.436501 z"
     style="fill:#404040;"/>
  </a>
 </g>
</svg>

<style type='text/css'>
<![CDATA[
[data-mouse-over-selected='false'] { opacity: 0.7; }
[data-mouse-over-selected='true']  { opacity: 1.0; }
]]>
</style>
<script type="application/ecmascript"><![CDATA[
document.addEventListener('DOMContentLoaded', (event) => {
  highlightEdges();
  highlightAdjacentNodes();
});
]]></script>
</svg>
