<?xml version="1.0" encoding="UTF-8" standalone="no"?>
<!DOCTYPE svg PUBLIC "-//W3C//DTD SVG 1.1//EN"
 "http://www.w3.org/Graphics/SVG/1.1/DTD/svg11.dtd">
<!-- Generated by graphviz version 2.43.0 (0)
 -->
<!-- Title: Terraria.Graphics.TileBatch.BatchDrawInfo Pages: 1 -->
<svg width="360pt" height="356pt"
 viewBox="0.00 0.00 359.74 356.00" xmlns="http://www.w3.org/2000/svg" xmlns:xlink="http://www.w3.org/1999/xlink">
<g id="graph0" class="graph" transform="scale(1 1) rotate(0) translate(4 352)">
<title>Terraria.Graphics.TileBatch.BatchDrawInfo</title>
<!-- Node1 -->
<g id="Node000001" class="node">
<title>Node1</title>
<g id="a_Node000001"><a xlink:title=" ">
<polygon fill="#999999" stroke="transparent" points="231.24,-97 70.24,-97 70.24,0 231.24,0 231.24,-97"/>
<text text-anchor="start" x="83.74" y="-84.5" font-family="Helvetica,sans-Serif" font-size="10.00">Terraria.Graphics.TileBatch.</text>
<text text-anchor="start" x="114.74" y="-73.5" font-family="Helvetica,sans-Serif" font-size="10.00">BatchDrawInfo</text>
<text text-anchor="start" x="149.24" y="-58.5" font-family="Helvetica,sans-Serif" font-size="10.00"> </text>
<text text-anchor="start" x="74.74" y="-43.5" font-family="Helvetica,sans-Serif" font-size="10.00">+</text>
<text text-anchor="start" x="87.74" y="-43.5" font-family="Helvetica,sans-Serif" font-size="10.00">BatchDrawInfo(Texture2D</text>
<text text-anchor="start" x="87.74" y="-32.5" font-family="Helvetica,sans-Serif" font-size="10.00"> texture, int index, int count)</text>
<text text-anchor="start" x="74.74" y="-17.5" font-family="Helvetica,sans-Serif" font-size="10.00">+</text>
<text text-anchor="start" x="87.74" y="-17.5" font-family="Helvetica,sans-Serif" font-size="10.00">BatchDrawInfo(Texture2D</text>
<text text-anchor="start" x="87.74" y="-6.5" font-family="Helvetica,sans-Serif" font-size="10.00"> texture)</text>
<polygon fill="#666666" stroke="#666666" points="70.74,-68.5 70.74,-68.5 231.74,-68.5 231.74,-68.5 70.74,-68.5"/>
<polygon fill="#666666" stroke="#666666" points="70.74,-53.5 70.74,-53.5 231.74,-53.5 231.74,-53.5 70.74,-53.5"/>
<polygon fill="none" stroke="#666666" points="70.24,0 70.24,-97 231.24,-97 231.24,0 70.24,0"/>
</a>
</g>
</g>
<!-- Node2 -->
<g id="Node000002" class="node">
<title>Node2</title>
<g id="a_Node000002"><a xlink:href="../../d9/d59/structTerraria_1_1Graphics_1_1TileBatch_1_1BatchDrawInfo.html" target="_top" xlink:title=" ">
<polygon fill="white" stroke="transparent" points="231.24,-241 70.24,-241 70.24,-144 231.24,-144 231.24,-241"/>
<text text-anchor="start" x="83.74" y="-228.5" font-family="Helvetica,sans-Serif" font-size="10.00">Terraria.Graphics.TileBatch.</text>
<text text-anchor="start" x="114.74" y="-217.5" font-family="Helvetica,sans-Serif" font-size="10.00">BatchDrawInfo</text>
<text text-anchor="start" x="149.24" y="-202.5" font-family="Helvetica,sans-Serif" font-size="10.00"> </text>
<text text-anchor="start" x="74.74" y="-187.5" font-family="Helvetica,sans-Serif" font-size="10.00">+</text>
<text text-anchor="start" x="87.74" y="-187.5" font-family="Helvetica,sans-Serif" font-size="10.00">BatchDrawInfo(Texture2D</text>
<text text-anchor="start" x="87.74" y="-176.5" font-family="Helvetica,sans-Serif" font-size="10.00"> texture, int index, int count)</text>
<text text-anchor="start" x="74.74" y="-161.5" font-family="Helvetica,sans-Serif" font-size="10.00">+</text>
<text text-anchor="start" x="87.74" y="-161.5" font-family="Helvetica,sans-Serif" font-size="10.00">BatchDrawInfo(Texture2D</text>
<text text-anchor="start" x="87.74" y="-150.5" font-family="Helvetica,sans-Serif" font-size="10.00"> texture)</text>
<polygon fill="#666666" stroke="#666666" points="70.74,-212.5 70.74,-212.5 231.74,-212.5 231.74,-212.5 70.74,-212.5"/>
<polygon fill="#666666" stroke="#666666" points="70.74,-197.5 70.74,-197.5 231.74,-197.5 231.74,-197.5 70.74,-197.5"/>
<polygon fill="none" stroke="#666666" points="70.24,-144 70.24,-241 231.24,-241 231.24,-144 70.24,-144"/>
</a>
</g>
</g>
<!-- Node2&#45;&gt;Node1 -->
<g id="edge1_Node000001_Node000002" class="edge">
<title>Node2&#45;&gt;Node1</title>
<g id="a_edge1_Node000001_Node000002"><a xlink:title=" ">
<path fill="none" stroke="#63b8ff" d="M150.74,-143.82C150.74,-132.82 150.74,-120.97 150.74,-109.51"/>
<polygon fill="none" stroke="#63b8ff" points="150.74,-109.29 146.74,-103.29 150.74,-97.29 154.74,-103.29 150.74,-109.29"/>
</a>
</g>
<text text-anchor="middle" x="172.24" y="-118" font-family="Helvetica,sans-Serif" font-size="10.00" fill="grey"> +Empty</text>
</g>
<!-- Node2&#45;&gt;Node2 -->
<g id="edge2_Node000002_Node000002" class="edge">
<title>Node2&#45;&gt;Node2</title>
<g id="a_edge2_Node000002_Node000002"><a xlink:title=" ">
<path fill="none" stroke="#63b8ff" d="M231.51,-204.4C242.17,-202.37 249.24,-198.41 249.24,-192.5 249.24,-189.18 247,-186.47 243.14,-184.37"/>
<polygon fill="none" stroke="#63b8ff" points="242.92,-184.3 235.98,-186.25 231.51,-180.6 238.45,-178.64 242.92,-184.3"/>
</a>
</g>
<text text-anchor="middle" x="270.74" y="-190" font-family="Helvetica,sans-Serif" font-size="10.00" fill="grey"> +Empty</text>
</g>
<!-- Node3 -->
<g id="Node000003" class="node">
<title>Node3</title>
<g id="a_Node000003"><a xlink:title=" ">
<polygon fill="white" stroke="transparent" points="97.74,-348 37.74,-348 37.74,-299 97.74,-299 97.74,-348"/>
<text text-anchor="start" x="42.74" y="-335.5" font-family="Helvetica,sans-Serif" font-size="10.00">Texture2D</text>
<text text-anchor="start" x="65.74" y="-320.5" font-family="Helvetica,sans-Serif" font-size="10.00"> </text>
<text text-anchor="start" x="65.74" y="-305.5" font-family="Helvetica,sans-Serif" font-size="10.00"> </text>
<polygon fill="#666666" stroke="#666666" points="37.74,-330.5 37.74,-330.5 97.74,-330.5 97.74,-330.5 37.74,-330.5"/>
<polygon fill="#666666" stroke="#666666" points="37.74,-315.5 37.74,-315.5 97.74,-315.5 97.74,-315.5 37.74,-315.5"/>
<polygon fill="none" stroke="#666666" points="37.74,-299 37.74,-348 97.74,-348 97.74,-299 37.74,-299"/>
</a>
</g>
</g>
<!-- Node3&#45;&gt;Node1 -->
<g id="edge5_Node000001_Node000003" class="edge">
<title>Node3&#45;&gt;Node1</title>
<g id="a_edge5_Node000001_Node000003"><a xlink:title=" ">
<path fill="none" stroke="#63b8ff" d="M46.16,-298.83C33.74,-283.54 19.33,-262.55 12.74,-241 0.13,-199.77 -7.37,-182.14 12.74,-144 23.58,-123.44 41.13,-106.5 60.14,-92.92"/>
<polygon fill="none" stroke="#63b8ff" points="60.24,-92.85 62.97,-86.17 70.18,-86.13 67.45,-92.8 60.24,-92.85"/>
</a>
</g>
<text text-anchor="middle" x="36.74" y="-190" font-family="Helvetica,sans-Serif" font-size="10.00" fill="grey"> +Texture</text>
</g>
<!-- Node3&#45;&gt;Node2 -->
<g id="edge3_Node000002_Node000003" class="edge">
<title>Node3&#45;&gt;Node2</title>
<g id="a_edge3_Node000002_Node000003"><a xlink:title=" ">
<path fill="none" stroke="#63b8ff" d="M82.96,-298.84C91.56,-285.47 102.73,-268.12 113.5,-251.37"/>
<polygon fill="none" stroke="#63b8ff" points="113.64,-251.15 113.53,-243.94 120.14,-241.06 120.25,-248.27 113.64,-251.15"/>
</a>
</g>
<text text-anchor="middle" x="131.74" y="-267.5" font-family="Helvetica,sans-Serif" font-size="10.00" fill="grey"> +Texture</text>
</g>
<!-- Node4 -->
<g id="Node000004" class="node">
<title>Node4</title>
<g id="a_Node000004"><a xlink:title=" ">
<polygon fill="white" stroke="transparent" points="273.24,-348 250.24,-348 250.24,-299 273.24,-299 273.24,-348"/>
<text text-anchor="start" x="255.74" y="-335.5" font-family="Helvetica,sans-Serif" font-size="10.00">int</text>
<text text-anchor="start" x="260.24" y="-320.5" font-family="Helvetica,sans-Serif" font-size="10.00"> </text>
<text text-anchor="start" x="260.24" y="-305.5" font-family="Helvetica,sans-Serif" font-size="10.00"> </text>
<polygon fill="#666666" stroke="#666666" points="250.74,-330.5 250.74,-330.5 273.74,-330.5 273.74,-330.5 250.74,-330.5"/>
<polygon fill="#666666" stroke="#666666" points="250.74,-315.5 250.74,-315.5 273.74,-315.5 273.74,-315.5 250.74,-315.5"/>
<polygon fill="none" stroke="#666666" points="250.24,-299 250.24,-348 273.24,-348 273.24,-299 250.24,-299"/>
</a>
</g>
</g>
<!-- Node4&#45;&gt;Node1 -->
<g id="edge6_Node000001_Node000004" class="edge">
<title>Node4&#45;&gt;Node1</title>
<g id="a_edge6_Node000001_Node000004"><a xlink:title=" ">
<path fill="none" stroke="#63b8ff" d="M273.37,-304.87C293.81,-271.46 331.36,-197.48 301.74,-144 288.29,-119.73 265.72,-100.86 242.08,-86.59"/>
<polygon fill="none" stroke="#63b8ff" points="241.95,-86.52 234.76,-87.01 231.54,-80.56 238.73,-80.07 241.95,-86.52"/>
</a>
</g>
<text text-anchor="middle" x="331.74" y="-195.5" font-family="Helvetica,sans-Serif" font-size="10.00" fill="grey"> +Count</text>
<text text-anchor="middle" x="331.74" y="-184.5" font-family="Helvetica,sans-Serif" font-size="10.00" fill="grey">+Index</text>
</g>
<!-- Node4&#45;&gt;Node2 -->
<g id="edge4_Node000002_Node000004" class="edge">
<title>Node4&#45;&gt;Node2</title>
<g id="a_edge4_Node000002_Node000004"><a xlink:title=" ">
<path fill="none" stroke="#63b8ff" d="M249.86,-308.69C237.77,-294.65 218.23,-271.93 199.67,-250.37"/>
<polygon fill="none" stroke="#63b8ff" points="199.63,-250.33 192.69,-248.39 191.81,-241.23 198.75,-243.17 199.63,-250.33"/>
</a>
</g>
<text text-anchor="middle" x="246.74" y="-273" font-family="Helvetica,sans-Serif" font-size="10.00" fill="grey"> +Count</text>
<text text-anchor="middle" x="246.74" y="-262" font-family="Helvetica,sans-Serif" font-size="10.00" fill="grey">+Index</text>
</g>
</g>
</svg>
