<?xml version="1.0" encoding="UTF-8" standalone="no"?>
<!DOCTYPE svg PUBLIC "-//W3C//DTD SVG 1.1//EN"
 "http://www.w3.org/Graphics/SVG/1.1/DTD/svg11.dtd">
<!-- Generated by graphviz version 2.43.0 (0)
 -->
<!-- Title: Terraria.ModLoader.Logging.LogStartup Pages: 1 -->
<!--zoomable 771 -->

<svg id="main" version="1.1" xmlns="http://www.w3.org/2000/svg" xmlns:xlink="http://www.w3.org/1999/xlink" xml:space="preserve" onload="init(evt)">
<style type="text/css"><![CDATA[
.node, .edge {opacity: 0.7;}
.node.selected, .edge.selected {opacity: 1;}
.edge:hover path { stroke: red; }
.edge:hover polygon { stroke: red; fill: red; }
]]></style>

<defs>
  <circle id="rim" cx="0" cy="0" r="7"/>
  <circle id="rim2" cx="0" cy="0" r="3.5"/>
  <g id="zoomPlus">
    <use xlink:href="#rim" fill="#404040"><set attributeName="fill" to="#808080" begin="zoomplus.mouseover" end="zoomplus.mouseout"/></use>
    <path d="M-4,0h8M0,-4v8" fill="none" stroke="white" stroke-width="1.5" pointer-events="none"/>
  </g>
  <g id="zoomMin">
    <use xlink:href="#rim" fill="#404040"><set attributeName="fill" to="#808080" begin="zoomminus.mouseover" end="zoomminus.mouseout"/></use>
    <path d="M-4,0h8" fill="none" stroke="white" stroke-width="1.5" pointer-events="none"/>
  </g>
  <g id="arrowUp" transform="translate(30 24)">
    <use xlink:href="#rim"/>
    <path pointer-events="none" fill="none" stroke="white" stroke-width="1.5" d="M0,-3.0v7 M-2.5,-0.5L0,-3.0L2.5,-0.5"/>
  </g>
  <g id="arrowRight" transform="rotate(90) translate(36 -43)">
    <use xlink:href="#rim"/>
    <path pointer-events="none" fill="none" stroke="white" stroke-width="1.5" d="M0,-3.0v7 M-2.5,-0.5L0,-3.0L2.5,-0.5"/>
  </g>
  <g id="arrowDown" transform="rotate(180) translate(-30 -48)">
    <use xlink:href="#rim"/>
    <path pointer-events="none" fill="none" stroke="white" stroke-width="1.5" d="M0,-3.0v7 M-2.5,-0.5L0,-3.0L2.5,-0.5"/>
  </g>
  <g id="arrowLeft" transform="rotate(270) translate(-36 17)">
    <use xlink:href="#rim"/>
    <path pointer-events="none" fill="none" stroke="white" stroke-width="1.5" d="M0,-3.0v7 M-2.5,-0.5L0,-3.0L2.5,-0.5"/>
  </g>
  <g id="resetDef">
    <use xlink:href="#rim2" fill="#404040"><set attributeName="fill" to="#808080" begin="reset.mouseover" end="reset.mouseout"/></use>
  </g>
</defs>
<script type="application/ecmascript">
var viewWidth = 1503;
var viewHeight = 771;
var sectionId = 'dynsection-0';
</script>
<script type="application/ecmascript" xlink:href="../../svg.min.js"/>
<svg id="graph" class="graph">
<g id="viewport">
<title>Terraria.ModLoader.Logging.LogStartup</title>
<!-- Node1 -->
<g id="Node000001" class="node">
<title>Node1</title>
<g id="a_Node000001"><a xlink:title=" ">
<polygon fill="#999999" stroke="#666666" points="154,-485 0,-485 0,-455 154,-455 154,-485"/>
<text text-anchor="start" x="8" y="-473" font-family="Helvetica,sans-Serif" font-size="10.00">Terraria.ModLoader.Logging.</text>
<text text-anchor="middle" x="77" y="-462" font-family="Helvetica,sans-Serif" font-size="10.00">LogStartup</text>
</a>
</g>
</g>
<!-- Node2 -->
<g id="Node000002" class="node">
<title>Node2</title>
<g id="a_Node000002"><a xlink:href="../../d7/deb/classTerraria_1_1ModLoader_1_1Engine_1_1LogArchiver_a43ea675c08cc1de02ed3334a42293298.html#a43ea675c08cc1de02ed3334a42293298" target="_top" xlink:title="Attempt archiving logs.">
<polygon fill="white" stroke="#666666" points="341.5,-667 192.5,-667 192.5,-637 341.5,-637 341.5,-667"/>
<text text-anchor="start" x="200.5" y="-655" font-family="Helvetica,sans-Serif" font-size="10.00">Terraria.ModLoader.Engine.</text>
<text text-anchor="middle" x="267" y="-644" font-family="Helvetica,sans-Serif" font-size="10.00">LogArchiver.ArchiveLogs</text>
</a>
</g>
</g>
<!-- Node1&#45;&gt;Node2 -->
<g id="edge1_Node000001_Node000002" class="edge">
<title>Node1&#45;&gt;Node2</title>
<g id="a_edge1_Node000001_Node000002"><a xlink:title=" ">
<path fill="none" stroke="#63b8ff" d="M93.71,-485.2C126.96,-517.4 204.61,-592.57 243.28,-630.01"/>
<polygon fill="#63b8ff" stroke="#63b8ff" points="240.85,-632.53 250.47,-636.97 245.72,-627.5 240.85,-632.53"/>
</a>
</g>
</g>
<!-- Node9 -->
<g id="Node000009" class="node">
<title>Node9</title>
<g id="a_Node000009"><a xlink:href="../../d0/da6/classTerraria_1_1ModLoader_1_1Logging_abd5193cdc6e4ead2f15a50bd755917af.html#abd5193cdc6e4ead2f15a50bd755917af" target="_top" xlink:title=" ">
<polygon fill="white" stroke="#666666" points="344,-533 190,-533 190,-503 344,-503 344,-533"/>
<text text-anchor="start" x="198" y="-521" font-family="Helvetica,sans-Serif" font-size="10.00">Terraria.ModLoader.Logging.</text>
<text text-anchor="middle" x="267" y="-510" font-family="Helvetica,sans-Serif" font-size="10.00">DumpEnvVars</text>
</a>
</g>
</g>
<!-- Node1&#45;&gt;Node9 -->
<g id="edge9_Node000001_Node000009" class="edge">
<title>Node1&#45;&gt;Node9</title>
<g id="a_edge9_Node000001_Node000009"><a xlink:title=" ">
<path fill="none" stroke="#63b8ff" d="M136.97,-485.06C156.13,-489.95 177.56,-495.42 197.36,-500.48"/>
<polygon fill="#63b8ff" stroke="#63b8ff" points="196.69,-503.91 207.24,-503 198.42,-497.13 196.69,-503.91"/>
</a>
</g>
</g>
<!-- Node10 -->
<g id="Node000010" class="node">
<title>Node10</title>
<g id="a_Node000010"><a xlink:href="../../d8/d32/classTerraria_1_1ModLoader_1_1Core_1_1AssemblyResolving_a6d00c0e814c5bb2a40f84968cb05aaaf.html#a6d00c0e814c5bb2a40f84968cb05aaaf" target="_top" xlink:title=" ">
<polygon fill="white" stroke="#666666" points="336,-485 198,-485 198,-455 336,-455 336,-485"/>
<text text-anchor="start" x="206" y="-473" font-family="Helvetica,sans-Serif" font-size="10.00">Terraria.ModLoader.Core.</text>
<text text-anchor="middle" x="267" y="-462" font-family="Helvetica,sans-Serif" font-size="10.00">AssemblyResolving.Init</text>
</a>
</g>
</g>
<!-- Node1&#45;&gt;Node10 -->
<g id="edge10_Node000001_Node000010" class="edge">
<title>Node1&#45;&gt;Node10</title>
<g id="a_edge10_Node000001_Node000010"><a xlink:title=" ">
<path fill="none" stroke="#63b8ff" d="M154.2,-470C165.26,-470 176.67,-470 187.77,-470"/>
<polygon fill="#63b8ff" stroke="#63b8ff" points="187.87,-473.5 197.87,-470 187.87,-466.5 187.87,-473.5"/>
</a>
</g>
</g>
<!-- Node12 -->
<g id="Node000012" class="node">
<title>Node12</title>
<g id="a_Node000012"><a xlink:href="../../d4/d9b/classTerraria_1_1ModLoader_1_1Engine_1_1LoggingHooks_ace362587f01662ea97f5def36b392b01.html#ace362587f01662ea97f5def36b392b01" target="_top" xlink:title=" ">
<polygon fill="white" stroke="#666666" points="341.5,-410 192.5,-410 192.5,-380 341.5,-380 341.5,-410"/>
<text text-anchor="start" x="200.5" y="-398" font-family="Helvetica,sans-Serif" font-size="10.00">Terraria.ModLoader.Engine.</text>
<text text-anchor="middle" x="267" y="-387" font-family="Helvetica,sans-Serif" font-size="10.00">LoggingHooks.Init</text>
</a>
</g>
</g>
<!-- Node1&#45;&gt;Node12 -->
<g id="edge12_Node000001_Node000012" class="edge">
<title>Node1&#45;&gt;Node12</title>
<g id="a_edge12_Node000001_Node000012"><a xlink:title=" ">
<path fill="none" stroke="#63b8ff" d="M116.04,-454.82C145.7,-442.99 187.04,-426.5 218.81,-413.83"/>
<polygon fill="#63b8ff" stroke="#63b8ff" points="220.34,-416.98 228.33,-410.03 217.75,-410.48 220.34,-416.98"/>
</a>
</g>
</g>
<!-- Node26 -->
<g id="Node000026" class="node">
<title>Node26</title>
<g id="a_Node000026"><a xlink:href="../../d0/da6/classTerraria_1_1ModLoader_1_1Logging_a69840616214e1e132c1da455230fb0a7.html#a69840616214e1e132c1da455230fb0a7" target="_top" xlink:title=" ">
<polygon fill="white" stroke="#666666" points="344,-260 190,-260 190,-230 344,-230 344,-260"/>
<text text-anchor="start" x="198" y="-248" font-family="Helvetica,sans-Serif" font-size="10.00">Terraria.ModLoader.Logging.</text>
<text text-anchor="middle" x="267" y="-237" font-family="Helvetica,sans-Serif" font-size="10.00">LogFirstChanceExceptions</text>
</a>
</g>
</g>
<!-- Node1&#45;&gt;Node26 -->
<g id="edge26_Node000001_Node000026" class="edge">
<title>Node1&#45;&gt;Node26</title>
<g id="a_edge26_Node000001_Node000026"><a xlink:title=" ">
<path fill="none" stroke="#63b8ff" d="M90.63,-454.89C122.87,-416.3 208.39,-313.95 246.82,-267.95"/>
<polygon fill="#63b8ff" stroke="#63b8ff" points="249.7,-269.96 253.43,-260.05 244.33,-265.48 249.7,-269.96"/>
</a>
</g>
</g>
<!-- Node3 -->
<g id="Node000003" class="node">
<title>Node3</title>
<g id="a_Node000003"><a xlink:href="../../d7/deb/classTerraria_1_1ModLoader_1_1Engine_1_1LogArchiver_a0b972df8b19c2d811b54753c109b491b.html#a0b972df8b19c2d811b54753c109b491b" target="_top" xlink:title=" ">
<polygon fill="white" stroke="#666666" points="568,-619 419,-619 419,-589 568,-589 568,-619"/>
<text text-anchor="start" x="427" y="-607" font-family="Helvetica,sans-Serif" font-size="10.00">Terraria.ModLoader.Engine.</text>
<text text-anchor="middle" x="493.5" y="-596" font-family="Helvetica,sans-Serif" font-size="10.00">LogArchiver.Archive</text>
</a>
</g>
</g>
<!-- Node2&#45;&gt;Node3 -->
<g id="edge2_Node000002_Node000003" class="edge">
<title>Node2&#45;&gt;Node3</title>
<g id="a_edge2_Node000002_Node000003"><a xlink:title=" ">
<path fill="none" stroke="#63b8ff" d="M338.2,-636.95C352.05,-633.98 366.48,-630.89 380,-628 390.39,-625.78 401.32,-623.44 412.12,-621.14"/>
<polygon fill="#63b8ff" stroke="#63b8ff" points="412.93,-624.54 421.98,-619.03 411.47,-617.7 412.93,-624.54"/>
</a>
</g>
</g>
<!-- Node5 -->
<g id="Node000005" class="node">
<title>Node5</title>
<g id="a_Node000005"><a xlink:href="../../d7/deb/classTerraria_1_1ModLoader_1_1Engine_1_1LogArchiver_ab1f5336e7f9fe3023314c0c2fc5da570.html#ab1f5336e7f9fe3023314c0c2fc5da570" target="_top" xlink:title=" ">
<polygon fill="white" stroke="#666666" points="577,-667 410,-667 410,-637 577,-637 577,-667"/>
<text text-anchor="start" x="418" y="-655" font-family="Helvetica,sans-Serif" font-size="10.00">Terraria.ModLoader.Engine.</text>
<text text-anchor="middle" x="493.5" y="-644" font-family="Helvetica,sans-Serif" font-size="10.00">LogArchiver.DeleteOldArchives</text>
</a>
</g>
</g>
<!-- Node2&#45;&gt;Node5 -->
<g id="edge4_Node000002_Node000005" class="edge">
<title>Node2&#45;&gt;Node5</title>
<g id="a_edge4_Node000002_Node000005"><a xlink:title=" ">
<path fill="none" stroke="#63b8ff" d="M341.51,-652C360.13,-652 380.37,-652 399.81,-652"/>
<polygon fill="#63b8ff" stroke="#63b8ff" points="399.89,-655.5 409.89,-652 399.89,-648.5 399.89,-655.5"/>
</a>
</g>
</g>
<!-- Node7 -->
<g id="Node000007" class="node">
<title>Node7</title>
<g id="a_Node000007"><a xlink:href="../../d7/deb/classTerraria_1_1ModLoader_1_1Engine_1_1LogArchiver_ac74cce2edab4de62563ff3dcdb671bdb.html#ac74cce2edab4de62563ff3dcdb671bdb" target="_top" xlink:title=" ">
<polygon fill="white" stroke="#666666" points="586.5,-763 400.5,-763 400.5,-733 586.5,-733 586.5,-763"/>
<text text-anchor="start" x="408.5" y="-751" font-family="Helvetica,sans-Serif" font-size="10.00">Terraria.ModLoader.Engine.</text>
<text text-anchor="middle" x="493.5" y="-740" font-family="Helvetica,sans-Serif" font-size="10.00">LogArchiver.MoveZipsToArchiveDir</text>
</a>
</g>
</g>
<!-- Node2&#45;&gt;Node7 -->
<g id="edge6_Node000002_Node000007" class="edge">
<title>Node2&#45;&gt;Node7</title>
<g id="a_edge6_Node000002_Node000007"><a xlink:title=" ">
<path fill="none" stroke="#63b8ff" d="M286.64,-667.02C307.96,-683.45 344.52,-709.38 380,-724 385.32,-726.19 390.87,-728.2 396.53,-730.02"/>
<polygon fill="#63b8ff" stroke="#63b8ff" points="395.56,-733.39 406.14,-732.94 397.59,-726.69 395.56,-733.39"/>
</a>
</g>
</g>
<!-- Node8 -->
<g id="Node000008" class="node">
<title>Node8</title>
<g id="a_Node000008"><a xlink:href="../../d7/deb/classTerraria_1_1ModLoader_1_1Engine_1_1LogArchiver_a2f71876d69b726c2bd5b9ebabe97fd40.html#a2f71876d69b726c2bd5b9ebabe97fd40" target="_top" xlink:title=" ">
<polygon fill="white" stroke="#666666" points="568,-715 419,-715 419,-685 568,-685 568,-715"/>
<text text-anchor="start" x="427" y="-703" font-family="Helvetica,sans-Serif" font-size="10.00">Terraria.ModLoader.Engine.</text>
<text text-anchor="middle" x="493.5" y="-692" font-family="Helvetica,sans-Serif" font-size="10.00">LogArchiver.SetupLogDirs</text>
</a>
</g>
</g>
<!-- Node2&#45;&gt;Node8 -->
<g id="edge8_Node000002_Node000008" class="edge">
<title>Node2&#45;&gt;Node8</title>
<g id="a_edge8_Node000002_Node000008"><a xlink:title=" ">
<path fill="none" stroke="#63b8ff" d="M338.2,-667.05C352.05,-670.02 366.48,-673.11 380,-676 390.39,-678.22 401.32,-680.56 412.12,-682.86"/>
<polygon fill="#63b8ff" stroke="#63b8ff" points="411.47,-686.3 421.98,-684.97 412.93,-679.46 411.47,-686.3"/>
</a>
</g>
</g>
<!-- Node4 -->
<g id="Node000004" class="node">
<title>Node4</title>
<g id="a_Node000004"><a xlink:href="../../d7/deb/classTerraria_1_1ModLoader_1_1Engine_1_1LogArchiver_afc6f1d9a0a537cd0013243b6dc2cef0c.html#afc6f1d9a0a537cd0013243b6dc2cef0c" target="_top" xlink:title=" ">
<polygon fill="white" stroke="#666666" points="814.5,-649 665.5,-649 665.5,-619 814.5,-619 814.5,-649"/>
<text text-anchor="start" x="673.5" y="-637" font-family="Helvetica,sans-Serif" font-size="10.00">Terraria.ModLoader.Engine.</text>
<text text-anchor="middle" x="740" y="-626" font-family="Helvetica,sans-Serif" font-size="10.00">LogArchiver.GetOldLogs</text>
</a>
</g>
</g>
<!-- Node3&#45;&gt;Node4 -->
<g id="edge3_Node000003_Node000004" class="edge">
<title>Node3&#45;&gt;Node4</title>
<g id="a_edge3_Node000003_Node000004"><a xlink:title=" ">
<path fill="none" stroke="#63b8ff" d="M568.19,-613.04C595.61,-616.41 626.93,-620.25 655.2,-623.72"/>
<polygon fill="#63b8ff" stroke="#63b8ff" points="655.11,-627.23 665.46,-624.98 655.96,-620.28 655.11,-627.23"/>
</a>
</g>
</g>
<!-- Node6 -->
<g id="Node000006" class="node">
<title>Node6</title>
<g id="a_Node000006"><a xlink:href="../../d7/deb/classTerraria_1_1ModLoader_1_1Engine_1_1LogArchiver_a1b11cd8daf0de5e8c4e2b7323aa2d4ed.html#a1b11cd8daf0de5e8c4e2b7323aa2d4ed" target="_top" xlink:title=" ">
<polygon fill="white" stroke="#666666" points="819.5,-730 660.5,-730 660.5,-700 819.5,-700 819.5,-730"/>
<text text-anchor="start" x="668.5" y="-718" font-family="Helvetica,sans-Serif" font-size="10.00">Terraria.ModLoader.Engine.</text>
<text text-anchor="middle" x="740" y="-707" font-family="Helvetica,sans-Serif" font-size="10.00">LogArchiver.GetArchivedLogs</text>
</a>
</g>
</g>
<!-- Node5&#45;&gt;Node6 -->
<g id="edge5_Node000005_Node000006" class="edge">
<title>Node5&#45;&gt;Node6</title>
<g id="a_edge5_Node000005_Node000006"><a xlink:title=" ">
<path fill="none" stroke="#63b8ff" d="M568.82,-667.01C581.59,-669.83 594.71,-672.88 607,-676 631.62,-682.25 658.56,-690.04 681.64,-697.01"/>
<polygon fill="#63b8ff" stroke="#63b8ff" points="680.69,-700.38 691.28,-699.93 682.73,-693.68 680.69,-700.38"/>
</a>
</g>
</g>
<!-- Node7&#45;&gt;Node6 -->
<g id="edge7_Node000007_Node000006" class="edge">
<title>Node7&#45;&gt;Node6</title>
<g id="a_edge7_Node000007_Node000006"><a xlink:title=" ">
<path fill="none" stroke="#63b8ff" d="M586.59,-735.57C607.41,-732.76 629.48,-729.78 650.16,-726.99"/>
<polygon fill="#63b8ff" stroke="#63b8ff" points="650.76,-730.44 660.2,-725.64 649.82,-723.51 650.76,-730.44"/>
</a>
</g>
</g>
<!-- Node11 -->
<g id="Node000011" class="node">
<title>Node11</title>
<g id="a_Node000011"><a xlink:href="../../d8/d32/classTerraria_1_1ModLoader_1_1Core_1_1AssemblyResolving_a77110e4df29cd6175fb282843fc5c080.html#a77110e4df29cd6175fb282843fc5c080" target="_top" xlink:title=" ">
<polygon fill="white" stroke="#666666" points="607,-541 380,-541 380,-511 607,-511 607,-541"/>
<text text-anchor="start" x="388" y="-529" font-family="Helvetica,sans-Serif" font-size="10.00">Terraria.ModLoader.Core.</text>
<text text-anchor="middle" x="493.5" y="-518" font-family="Helvetica,sans-Serif" font-size="10.00">AssemblyResolving.AssemblyResolveEarly</text>
</a>
</g>
</g>
<!-- Node10&#45;&gt;Node11 -->
<g id="edge11_Node000010_Node000011" class="edge">
<title>Node10&#45;&gt;Node11</title>
<g id="a_edge11_Node000010_Node000011"><a xlink:title=" ">
<path fill="none" stroke="#63b8ff" d="M317.98,-485.07C337.28,-490.68 359.59,-496.91 380,-502 389.2,-504.29 398.87,-506.56 408.5,-508.74"/>
<polygon fill="#63b8ff" stroke="#63b8ff" points="407.98,-512.21 418.51,-510.97 409.51,-505.38 407.98,-512.21"/>
</a>
</g>
</g>
<!-- Node13 -->
<g id="Node000013" class="node">
<title>Node13</title>
<g id="a_Node000013"><a xlink:href="../../d4/d9b/classTerraria_1_1ModLoader_1_1Engine_1_1LoggingHooks_a767b8f87747970c73191f92c80850b15.html#a767b8f87747970c73191f92c80850b15" target="_top" xlink:title=" ">
<polygon fill="white" stroke="#666666" points="603.5,-341 383.5,-341 383.5,-311 603.5,-311 603.5,-341"/>
<text text-anchor="start" x="391.5" y="-329" font-family="Helvetica,sans-Serif" font-size="10.00">Terraria.ModLoader.Engine.</text>
<text text-anchor="middle" x="493.5" y="-318" font-family="Helvetica,sans-Serif" font-size="10.00">LoggingHooks.FixBrokenConsolePipeError</text>
</a>
</g>
</g>
<!-- Node12&#45;&gt;Node13 -->
<g id="edge13_Node000012_Node000013" class="edge">
<title>Node12&#45;&gt;Node13</title>
<g id="a_edge13_Node000012_Node000013"><a xlink:title=" ">
<path fill="none" stroke="#63b8ff" d="M316.99,-379.94C351.31,-369.4 397.34,-355.25 433.65,-344.09"/>
<polygon fill="#63b8ff" stroke="#63b8ff" points="435.08,-347.31 443.61,-341.02 433.03,-340.62 435.08,-347.31"/>
</a>
</g>
</g>
<!-- Node16 -->
<g id="Node000016" class="node">
<title>Node16</title>
<g id="a_Node000016"><a xlink:href="../../d4/d9b/classTerraria_1_1ModLoader_1_1Engine_1_1LoggingHooks_a986c9be4da2a03f3f89a66029ccce61d.html#a986c9be4da2a03f3f89a66029ccce61d" target="_top" xlink:title=" ">
<polygon fill="white" stroke="#666666" points="581,-293 406,-293 406,-263 581,-263 581,-293"/>
<text text-anchor="start" x="414" y="-281" font-family="Helvetica,sans-Serif" font-size="10.00">Terraria.ModLoader.Engine.</text>
<text text-anchor="middle" x="493.5" y="-270" font-family="Helvetica,sans-Serif" font-size="10.00">LoggingHooks.HookProcessStart</text>
</a>
</g>
</g>
<!-- Node12&#45;&gt;Node16 -->
<g id="edge16_Node000012_Node000016" class="edge">
<title>Node12&#45;&gt;Node16</title>
<g id="a_edge16_Node000012_Node000016"><a xlink:title=" ">
<path fill="none" stroke="#63b8ff" d="M281.58,-379.83C301.19,-358.93 339.52,-321.63 380,-302 385.24,-299.46 390.74,-297.19 396.38,-295.15"/>
<polygon fill="#63b8ff" stroke="#63b8ff" points="397.6,-298.44 405.98,-291.95 395.39,-291.8 397.6,-298.44"/>
</a>
</g>
</g>
<!-- Node17 -->
<g id="Node000017" class="node">
<title>Node17</title>
<g id="a_Node000017"><a xlink:href="../../d4/d9b/classTerraria_1_1ModLoader_1_1Engine_1_1LoggingHooks_a440c2e64a5ca68c317e48dd77212cdc8.html#a440c2e64a5ca68c317e48dd77212cdc8" target="_top" xlink:title="Attempt to hook the .NET internal methods to log when requests are sent to web addresses....">
<polygon fill="white" stroke="#666666" points="583.5,-493 403.5,-493 403.5,-463 583.5,-463 583.5,-493"/>
<text text-anchor="start" x="411.5" y="-481" font-family="Helvetica,sans-Serif" font-size="10.00">Terraria.ModLoader.Engine.</text>
<text text-anchor="middle" x="493.5" y="-470" font-family="Helvetica,sans-Serif" font-size="10.00">LoggingHooks.HookWebRequests</text>
</a>
</g>
</g>
<!-- Node12&#45;&gt;Node17 -->
<g id="edge17_Node000012_Node000017" class="edge">
<title>Node12&#45;&gt;Node17</title>
<g id="a_edge17_Node000012_Node000017"><a xlink:title=" ">
<path fill="none" stroke="#63b8ff" d="M308.66,-410.03C346.13,-423.88 401.87,-444.49 442.14,-459.38"/>
<polygon fill="#63b8ff" stroke="#63b8ff" points="441.18,-462.76 451.77,-462.94 443.6,-456.19 441.18,-462.76"/>
</a>
</g>
</g>
<!-- Node21 -->
<g id="Node000021" class="node">
<title>Node21</title>
<g id="a_Node000021"><a xlink:href="../../d4/d9b/classTerraria_1_1ModLoader_1_1Engine_1_1LoggingHooks_a26aa53f8505bfc9505b2b2e274198616.html#a26aa53f8505bfc9505b2b2e274198616" target="_top" xlink:title=" ">
<polygon fill="white" stroke="#666666" points="581.5,-415.5 405.5,-415.5 405.5,-374.5 581.5,-374.5 581.5,-415.5"/>
<text text-anchor="start" x="413.5" y="-403.5" font-family="Helvetica,sans-Serif" font-size="10.00">Terraria.ModLoader.Engine.</text>
<text text-anchor="start" x="413.5" y="-392.5" font-family="Helvetica,sans-Serif" font-size="10.00">LoggingHooks.PrettifyStackTrace</text>
<text text-anchor="middle" x="493.5" y="-381.5" font-family="Helvetica,sans-Serif" font-size="10.00">Sources</text>
</a>
</g>
</g>
<!-- Node12&#45;&gt;Node21 -->
<g id="edge21_Node000012_Node000021" class="edge">
<title>Node12&#45;&gt;Node21</title>
<g id="a_edge21_Node000012_Node000021"><a xlink:title=" ">
<path fill="none" stroke="#63b8ff" d="M341.51,-395C358.59,-395 377.03,-395 394.96,-395"/>
<polygon fill="#63b8ff" stroke="#63b8ff" points="395.15,-398.5 405.15,-395 395.14,-391.5 395.15,-398.5"/>
</a>
</g>
</g>
<!-- Node14 -->
<g id="Node000014" class="node">
<title>Node14</title>
<g id="a_Node000014"><a xlink:href="../../d4/d9b/classTerraria_1_1ModLoader_1_1Engine_1_1LoggingHooks_abdb8d2637e2221d7da0d6ebe009e8ef2.html#abdb8d2637e2221d7da0d6ebe009e8ef2" target="_top" xlink:title=" ">
<polygon fill="white" stroke="#666666" points="837,-278 643,-278 643,-248 837,-248 837,-278"/>
<text text-anchor="start" x="651" y="-266" font-family="Helvetica,sans-Serif" font-size="10.00">Terraria.ModLoader.Engine.</text>
<text text-anchor="middle" x="740" y="-255" font-family="Helvetica,sans-Serif" font-size="10.00">LoggingHooks.hook_WriteFileNative</text>
</a>
</g>
</g>
<!-- Node13&#45;&gt;Node14 -->
<g id="edge14_Node000013_Node000014" class="edge">
<title>Node13&#45;&gt;Node14</title>
<g id="a_edge14_Node000013_Node000014"><a xlink:title=" ">
<path fill="none" stroke="#63b8ff" d="M573.96,-310.97C585.14,-308.3 596.42,-305.3 607,-302 623.55,-296.84 626.55,-292.45 643,-287 649.52,-284.84 656.34,-282.77 663.22,-280.81"/>
<polygon fill="#63b8ff" stroke="#63b8ff" points="664.59,-284.07 673.3,-278.03 662.73,-277.32 664.59,-284.07"/>
</a>
</g>
</g>
<!-- Node15 -->
<g id="Node000015" class="node">
<title>Node15</title>
<g id="a_Node000015"><a xlink:href="../../d4/d9b/classTerraria_1_1ModLoader_1_1Engine_1_1LoggingHooks_a92eeba4e2733e52b5ab414885556b4da.html#a92eeba4e2733e52b5ab414885556b4da" target="_top" xlink:title=" ">
<polygon fill="white" stroke="#666666" points="834,-326 646,-326 646,-296 834,-296 834,-326"/>
<text text-anchor="start" x="654" y="-314" font-family="Helvetica,sans-Serif" font-size="10.00">Terraria.ModLoader.Engine.</text>
<text text-anchor="middle" x="740" y="-303" font-family="Helvetica,sans-Serif" font-size="10.00">LoggingHooks.orig_WriteFileNative</text>
</a>
</g>
</g>
<!-- Node13&#45;&gt;Node15 -->
<g id="edge15_Node000013_Node000015" class="edge">
<title>Node13&#45;&gt;Node15</title>
<g id="a_edge15_Node000013_Node000015"><a xlink:title=" ">
<path fill="none" stroke="#63b8ff" d="M603.52,-319.31C614.23,-318.65 625.08,-317.99 635.73,-317.34"/>
<polygon fill="#63b8ff" stroke="#63b8ff" points="636.11,-320.82 645.88,-316.71 635.68,-313.83 636.11,-320.82"/>
</a>
</g>
</g>
<!-- Node18 -->
<g id="Node000018" class="node">
<title>Node18</title>
<g id="a_Node000018"><a xlink:href="../../d4/d9b/classTerraria_1_1ModLoader_1_1Engine_1_1LoggingHooks_a91d094c71ad2720b6f6ae31702233d53.html#a91d094c71ad2720b6f6ae31702233d53" target="_top" xlink:title=" ">
<polygon fill="white" stroke="#666666" points="837,-493 643,-493 643,-463 837,-463 837,-493"/>
<text text-anchor="start" x="651" y="-481" font-family="Helvetica,sans-Serif" font-size="10.00">Terraria.ModLoader.Engine.</text>
<text text-anchor="middle" x="740" y="-470" font-family="Helvetica,sans-Serif" font-size="10.00">LoggingHooks.hook_SendAsyncCore</text>
</a>
</g>
</g>
<!-- Node17&#45;&gt;Node18 -->
<g id="edge18_Node000017_Node000018" class="edge">
<title>Node17&#45;&gt;Node18</title>
<g id="a_edge18_Node000017_Node000018"><a xlink:title=" ">
<path fill="none" stroke="#63b8ff" d="M583.81,-478C599.74,-478 616.47,-478 632.82,-478"/>
<polygon fill="#63b8ff" stroke="#63b8ff" points="632.93,-481.5 642.93,-478 632.93,-474.5 632.93,-481.5"/>
</a>
</g>
</g>
<!-- Node19 -->
<g id="Node000019" class="node">
<title>Node19</title>
<g id="a_Node000019"><a xlink:href="../../d4/d9b/classTerraria_1_1ModLoader_1_1Engine_1_1LoggingHooks_a5713c6a46225676afcb89706ab05ce31.html#a5713c6a46225676afcb89706ab05ce31" target="_top" xlink:title=" ">
<polygon fill="white" stroke="#666666" points="835,-600.5 645,-600.5 645,-559.5 835,-559.5 835,-600.5"/>
<text text-anchor="start" x="653" y="-588.5" font-family="Helvetica,sans-Serif" font-size="10.00">Terraria.ModLoader.Engine.</text>
<text text-anchor="start" x="653" y="-577.5" font-family="Helvetica,sans-Serif" font-size="10.00">LoggingHooks.IncludeURIInRequest</text>
<text text-anchor="middle" x="740" y="-566.5" font-family="Helvetica,sans-Serif" font-size="10.00">Logging</text>
</a>
</g>
</g>
<!-- Node17&#45;&gt;Node19 -->
<g id="edge19_Node000017_Node000019" class="edge">
<title>Node17&#45;&gt;Node19</title>
<g id="a_edge19_Node000017_Node000019"><a xlink:title=" ">
<path fill="none" stroke="#63b8ff" d="M583.52,-490.59C591.79,-493.63 599.76,-497.38 607,-502 629.47,-516.36 621.22,-534.61 643,-550 645.26,-551.6 647.61,-553.11 650.03,-554.55"/>
<polygon fill="#63b8ff" stroke="#63b8ff" points="648.59,-557.75 659.05,-559.41 651.91,-551.59 648.59,-557.75"/>
</a>
</g>
</g>
<!-- Node20 -->
<g id="Node000020" class="node">
<title>Node20</title>
<g id="a_Node000020"><a xlink:href="../../d4/d9b/classTerraria_1_1ModLoader_1_1Engine_1_1LoggingHooks_a8f6ecc8558515c0a15c235882783354c.html#a8f6ecc8558515c0a15c235882783354c" target="_top" xlink:title=" ">
<polygon fill="white" stroke="#666666" points="834,-541 646,-541 646,-511 834,-511 834,-541"/>
<text text-anchor="start" x="654" y="-529" font-family="Helvetica,sans-Serif" font-size="10.00">Terraria.ModLoader.Engine.</text>
<text text-anchor="middle" x="740" y="-518" font-family="Helvetica,sans-Serif" font-size="10.00">LoggingHooks.orig_SendAsyncCore</text>
</a>
</g>
</g>
<!-- Node17&#45;&gt;Node20 -->
<g id="edge20_Node000017_Node000020" class="edge">
<title>Node17&#45;&gt;Node20</title>
<g id="a_edge20_Node000017_Node000020"><a xlink:title=" ">
<path fill="none" stroke="#63b8ff" d="M571.19,-493.06C597.02,-498.13 626.02,-503.82 652.55,-509.03"/>
<polygon fill="#63b8ff" stroke="#63b8ff" points="652.09,-512.51 662.58,-511 653.44,-505.64 652.09,-512.51"/>
</a>
</g>
</g>
<!-- Node22 -->
<g id="Node000022" class="node">
<title>Node22</title>
<g id="a_Node000022"><a xlink:href="../../d4/d9b/classTerraria_1_1ModLoader_1_1Engine_1_1LoggingHooks_a42c816e5a3aa1a83a6934e811d7770db.html#a42c816e5a3aa1a83a6934e811d7770db" target="_top" xlink:title=" ">
<polygon fill="white" stroke="#666666" points="825,-444.5 655,-444.5 655,-403.5 825,-403.5 825,-444.5"/>
<text text-anchor="start" x="663" y="-432.5" font-family="Helvetica,sans-Serif" font-size="10.00">Terraria.ModLoader.Engine.</text>
<text text-anchor="start" x="663" y="-421.5" font-family="Helvetica,sans-Serif" font-size="10.00">LoggingHooks.hook_StackTrace</text>
<text text-anchor="middle" x="740" y="-410.5" font-family="Helvetica,sans-Serif" font-size="10.00">_CaptureStackTrace</text>
</a>
</g>
</g>
<!-- Node21&#45;&gt;Node22 -->
<g id="edge22_Node000021_Node000022" class="edge">
<title>Node21&#45;&gt;Node22</title>
<g id="a_edge22_Node000021_Node000022"><a xlink:title=" ">
<path fill="none" stroke="#63b8ff" d="M581.73,-405.35C602.12,-407.77 623.93,-410.35 644.62,-412.81"/>
<polygon fill="#63b8ff" stroke="#63b8ff" points="644.33,-416.3 654.67,-414 645.15,-409.34 644.33,-416.3"/>
</a>
</g>
</g>
<!-- Node23 -->
<g id="Node000023" class="node">
<title>Node23</title>
<g id="a_Node000023"><a xlink:href="../../d4/d9b/classTerraria_1_1ModLoader_1_1Engine_1_1LoggingHooks_a2103ec4db66d004d1434347701276e0c.html#a2103ec4db66d004d1434347701276e0c" target="_top" xlink:title=" ">
<polygon fill="white" stroke="#666666" points="826,-385.5 654,-385.5 654,-344.5 826,-344.5 826,-385.5"/>
<text text-anchor="start" x="662" y="-373.5" font-family="Helvetica,sans-Serif" font-size="10.00">Terraria.ModLoader.Engine.</text>
<text text-anchor="start" x="662" y="-362.5" font-family="Helvetica,sans-Serif" font-size="10.00">LoggingHooks.Hook_StackTrace</text>
<text text-anchor="middle" x="740" y="-351.5" font-family="Helvetica,sans-Serif" font-size="10.00">_CaptureStackTrace</text>
</a>
</g>
</g>
<!-- Node21&#45;&gt;Node23 -->
<g id="edge23_Node000021_Node000023" class="edge">
<title>Node21&#45;&gt;Node23</title>
<g id="a_edge23_Node000021_Node000023"><a xlink:title=" ">
<path fill="none" stroke="#63b8ff" d="M581.73,-384.3C601.89,-381.82 623.43,-379.18 643.9,-376.67"/>
<polygon fill="#63b8ff" stroke="#63b8ff" points="644.35,-380.14 653.85,-375.45 643.5,-373.19 644.35,-380.14"/>
</a>
</g>
</g>
<!-- Node24 -->
<g id="Node000024" class="node">
<title>Node24</title>
<g id="a_Node000024"><a xlink:href="../../d0/da6/classTerraria_1_1ModLoader_1_1Logging_a0e0ba2049a5c7e737d27373038e71d78.html#a0e0ba2049a5c7e737d27373038e71d78" target="_top" xlink:title=" ">
<polygon fill="white" stroke="#666666" points="1039.5,-380 885.5,-380 885.5,-350 1039.5,-350 1039.5,-380"/>
<text text-anchor="start" x="893.5" y="-368" font-family="Helvetica,sans-Serif" font-size="10.00">Terraria.ModLoader.Logging.</text>
<text text-anchor="middle" x="962.5" y="-357" font-family="Helvetica,sans-Serif" font-size="10.00">PrettifyStackTraceSources</text>
</a>
</g>
</g>
<!-- Node23&#45;&gt;Node24 -->
<g id="edge24_Node000023_Node000024" class="edge">
<title>Node23&#45;&gt;Node24</title>
<g id="a_edge24_Node000023_Node000024"><a xlink:title=" ">
<path fill="none" stroke="#63b8ff" d="M826.25,-365C842.26,-365 859,-365 875.05,-365"/>
<polygon fill="#63b8ff" stroke="#63b8ff" points="875.47,-368.5 885.47,-365 875.47,-361.5 875.47,-368.5"/>
</a>
</g>
</g>
<!-- Node25 -->
<g id="Node000025" class="node">
<title>Node25</title>
<g id="a_Node000025"><a xlink:href="../../d8/d6f/classTerraria_1_1ModLoader_1_1Core_1_1AssemblyManager_aa052a937a82feae97a2494ea5288562b.html#aa052a937a82feae97a2494ea5288562b" target="_top" xlink:title=" ">
<polygon fill="white" stroke="#666666" points="1294,-380 1088,-380 1088,-350 1294,-350 1294,-380"/>
<text text-anchor="start" x="1096" y="-368" font-family="Helvetica,sans-Serif" font-size="10.00">Terraria.ModLoader.Core.</text>
<text text-anchor="middle" x="1191" y="-357" font-family="Helvetica,sans-Serif" font-size="10.00">AssemblyManager.GetAssemblyOwner</text>
</a>
</g>
</g>
<!-- Node24&#45;&gt;Node25 -->
<g id="edge25_Node000024_Node000025" class="edge">
<title>Node24&#45;&gt;Node25</title>
<g id="a_edge25_Node000024_Node000025"><a xlink:title=" ">
<path fill="none" stroke="#63b8ff" d="M1039.55,-365C1051.82,-365 1064.75,-365 1077.66,-365"/>
<polygon fill="#63b8ff" stroke="#63b8ff" points="1077.99,-368.5 1087.99,-365 1077.99,-361.5 1077.99,-368.5"/>
</a>
</g>
</g>
<!-- Node27 -->
<g id="Node000027" class="node">
<title>Node27</title>
<g id="a_Node000027"><a xlink:href="../../d0/da6/classTerraria_1_1ModLoader_1_1Logging_a3344b4f3e4bbad63ca7714dc0b7a641f.html#a3344b4f3e4bbad63ca7714dc0b7a641f" target="_top" xlink:title=" ">
<polygon fill="white" stroke="#666666" points="573.5,-166 413.5,-166 413.5,-136 573.5,-136 573.5,-166"/>
<text text-anchor="start" x="421.5" y="-154" font-family="Helvetica,sans-Serif" font-size="10.00">Terraria.ModLoader.Logging.</text>
<text text-anchor="middle" x="493.5" y="-143" font-family="Helvetica,sans-Serif" font-size="10.00">FirstChanceExceptionHandler</text>
</a>
</g>
</g>
<!-- Node26&#45;&gt;Node27 -->
<g id="edge27_Node000026_Node000027" class="edge">
<title>Node26&#45;&gt;Node27</title>
<g id="a_edge27_Node000026_Node000027"><a xlink:title=" ">
<path fill="none" stroke="#63b8ff" d="M304.07,-229.9C342.94,-213.62 404.87,-187.69 447.05,-170.03"/>
<polygon fill="#63b8ff" stroke="#63b8ff" points="448.65,-173.16 456.52,-166.07 445.94,-166.7 448.65,-173.16"/>
</a>
</g>
</g>
<!-- Node28 -->
<g id="Node000028" class="node">
<title>Node28</title>
<g id="a_Node000028"><a xlink:href="../../d0/da6/classTerraria_1_1ModLoader_1_1Logging_a1018c48dc3d5fb053656f08f25c116e8.html#a1018c48dc3d5fb053656f08f25c116e8" target="_top" xlink:title=" ">
<polygon fill="white" stroke="#666666" points="817,-30 663,-30 663,0 817,0 817,-30"/>
<text text-anchor="start" x="671" y="-18" font-family="Helvetica,sans-Serif" font-size="10.00">Terraria.ModLoader.Logging.</text>
<text text-anchor="middle" x="740" y="-7" font-family="Helvetica,sans-Serif" font-size="10.00">AddChatMessage</text>
</a>
</g>
</g>
<!-- Node27&#45;&gt;Node28 -->
<g id="edge28_Node000027_Node000028" class="edge">
<title>Node27&#45;&gt;Node28</title>
<g id="a_edge28_Node000027_Node000028"><a xlink:title=" ">
<path fill="none" stroke="#63b8ff" d="M516.02,-135.91C544.36,-116.38 596.12,-81.91 643,-57 658.43,-48.8 675.8,-40.84 691.48,-34.1"/>
<polygon fill="#63b8ff" stroke="#63b8ff" points="693.15,-37.19 700.99,-30.06 690.42,-30.74 693.15,-37.19"/>
</a>
</g>
</g>
<!-- Node29 -->
<g id="Node000029" class="node">
<title>Node29</title>
<g id="a_Node000029"><a xlink:href="../../d1/d0a/classTerraria_1_1ModLoader_1_1Engine_1_1ErrorReporting_a574da73d6bc90ecf7de39c0dac0a9be9.html#a574da73d6bc90ecf7de39c0dac0a9be9" target="_top" xlink:title=" ">
<polygon fill="white" stroke="#666666" points="814.5,-230 665.5,-230 665.5,-200 814.5,-200 814.5,-230"/>
<text text-anchor="start" x="673.5" y="-218" font-family="Helvetica,sans-Serif" font-size="10.00">Terraria.ModLoader.Engine.</text>
<text text-anchor="middle" x="740" y="-207" font-family="Helvetica,sans-Serif" font-size="10.00">ErrorReporting.FatalExit</text>
</a>
</g>
</g>
<!-- Node27&#45;&gt;Node29 -->
<g id="edge30_Node000027_Node000029" class="edge">
<title>Node27&#45;&gt;Node29</title>
<g id="a_edge30_Node000027_Node000029"><a xlink:title=" ">
<path fill="none" stroke="#63b8ff" d="M551.82,-166.01C587.71,-175.4 634.12,-187.55 671.75,-197.4"/>
<polygon fill="#63b8ff" stroke="#63b8ff" points="671.05,-200.83 681.61,-199.98 672.82,-194.06 671.05,-200.83"/>
</a>
</g>
</g>
<!-- Node31 -->
<g id="Node000031" class="node">
<title>Node31</title>
<g id="a_Node000031"><a xlink:href="../../d4/d8f/classTerraria_1_1Localization_1_1Language_ae4636a4800b9ecbaa498954520462f78.html#ae4636a4800b9ecbaa498954520462f78" target="_top" xlink:title="Retrieves the text value for a specified localization key. The text returned will be for the currentl...">
<polygon fill="white" stroke="#666666" points="1275,-209 1107,-209 1107,-179 1275,-179 1275,-209"/>
<text text-anchor="start" x="1115" y="-197" font-family="Helvetica,sans-Serif" font-size="10.00">Terraria.Localization.Language.</text>
<text text-anchor="middle" x="1191" y="-186" font-family="Helvetica,sans-Serif" font-size="10.00">GetTextValue</text>
</a>
</g>
</g>
<!-- Node27&#45;&gt;Node31 -->
<g id="edge36_Node000027_Node000031" class="edge">
<title>Node27&#45;&gt;Node31</title>
<g id="a_edge36_Node000027_Node000031"><a xlink:title=" ">
<path fill="none" stroke="#63b8ff" d="M573.61,-155.89C702.9,-163.88 958.89,-179.71 1096.8,-188.24"/>
<polygon fill="#63b8ff" stroke="#63b8ff" points="1096.73,-191.74 1106.92,-188.86 1097.16,-184.75 1096.73,-191.74"/>
</a>
</g>
</g>
<!-- Node35 -->
<g id="Node000035" class="node">
<title>Node35</title>
<g id="a_Node000035"><a xlink:href="../../d0/da6/classTerraria_1_1ModLoader_1_1Logging_ab21d66894ac7fb3b03ce09e6549b20d5.html#ab21d66894ac7fb3b03ce09e6549b20d5" target="_top" xlink:title=" ">
<polygon fill="white" stroke="#666666" points="817,-144 663,-144 663,-114 817,-114 817,-144"/>
<text text-anchor="start" x="671" y="-132" font-family="Helvetica,sans-Serif" font-size="10.00">Terraria.ModLoader.Logging.</text>
<text text-anchor="middle" x="740" y="-121" font-family="Helvetica,sans-Serif" font-size="10.00">MatchContents</text>
</a>
</g>
</g>
<!-- Node27&#45;&gt;Node35 -->
<g id="edge37_Node000027_Node000035" class="edge">
<title>Node27&#45;&gt;Node35</title>
<g id="a_edge37_Node000027_Node000035"><a xlink:title=" ">
<path fill="none" stroke="#63b8ff" d="M573.54,-143.89C598.79,-141.62 626.87,-139.09 652.61,-136.77"/>
<polygon fill="#63b8ff" stroke="#63b8ff" points="653.08,-140.25 662.73,-135.86 652.45,-133.27 653.08,-140.25"/>
</a>
</g>
</g>
<!-- Node36 -->
<g id="Node000036" class="node">
<title>Node36</title>
<g id="a_Node000036"><a xlink:href="../../d0/da6/classTerraria_1_1ModLoader_1_1Logging_a8c0af3b4bb70d0f4fceb80de9e1c1d93.html#a8c0af3b4bb70d0f4fceb80de9e1c1d93" target="_top" xlink:title=" ">
<polygon fill="white" stroke="#666666" points="817,-96 663,-96 663,-66 817,-66 817,-96"/>
<text text-anchor="start" x="671" y="-84" font-family="Helvetica,sans-Serif" font-size="10.00">Terraria.ModLoader.Logging.</text>
<text text-anchor="middle" x="740" y="-73" font-family="Helvetica,sans-Serif" font-size="10.00">TryFreeingMemory</text>
</a>
</g>
</g>
<!-- Node27&#45;&gt;Node36 -->
<g id="edge38_Node000027_Node000036" class="edge">
<title>Node27&#45;&gt;Node36</title>
<g id="a_edge38_Node000027_Node000036"><a xlink:title=" ">
<path fill="none" stroke="#63b8ff" d="M540.79,-135.94C569.99,-126.62 608.56,-114.63 643,-105 650.7,-102.85 658.78,-100.68 666.84,-98.58"/>
<polygon fill="#63b8ff" stroke="#63b8ff" points="667.83,-101.94 676.64,-96.06 666.08,-95.16 667.83,-101.94"/>
</a>
</g>
</g>
<!-- Node28&#45;&gt;Node28 -->
<g id="edge29_Node000028_Node000028" class="edge">
<title>Node28&#45;&gt;Node28</title>
<g id="a_edge29_Node000028_Node000028"><a xlink:title=" ">
<path fill="none" stroke="#63b8ff" d="M700.98,-30.28C692.3,-39.41 705.31,-48 740,-48 760.6,-48 773.55,-44.97 778.86,-40.6"/>
<polygon fill="#63b8ff" stroke="#63b8ff" points="782.36,-40.33 779.02,-30.28 775.36,-40.22 782.36,-40.33"/>
</a>
</g>
</g>
<!-- Node30 -->
<g id="Node000030" class="node">
<title>Node30</title>
<g id="a_Node000030"><a xlink:href="../../d1/d0a/classTerraria_1_1ModLoader_1_1Engine_1_1ErrorReporting_abb9f3a04bc7c754a30dcf9b345b4e8c2.html#abb9f3a04bc7c754a30dcf9b345b4e8c2" target="_top" xlink:title=" ">
<polygon fill="white" stroke="#666666" points="1052,-230 873,-230 873,-200 1052,-200 1052,-230"/>
<text text-anchor="start" x="881" y="-218" font-family="Helvetica,sans-Serif" font-size="10.00">Terraria.ModLoader.Engine.</text>
<text text-anchor="middle" x="962.5" y="-207" font-family="Helvetica,sans-Serif" font-size="10.00">ErrorReporting.MessageBoxShow</text>
</a>
</g>
</g>
<!-- Node29&#45;&gt;Node30 -->
<g id="edge31_Node000029_Node000030" class="edge">
<title>Node29&#45;&gt;Node30</title>
<g id="a_edge31_Node000029_Node000030"><a xlink:title=" ">
<path fill="none" stroke="#63b8ff" d="M814.73,-215C830.18,-215 846.7,-215 862.89,-215"/>
<polygon fill="#63b8ff" stroke="#63b8ff" points="862.92,-218.5 872.92,-215 862.92,-211.5 862.92,-218.5"/>
</a>
</g>
</g>
<!-- Node33 -->
<g id="Node000033" class="node">
<title>Node33</title>
<g id="a_Node000033"><a xlink:href="../../dc/dff/classTerraria_1_1ModLoader_1_1Engine_1_1TerrariaSteamClient_a0607000b2e385186b021af70b9ab6c83.html#a0607000b2e385186b021af70b9ab6c83" target="_top" xlink:title=" ">
<polygon fill="white" stroke="#666666" points="1044.5,-278 880.5,-278 880.5,-248 1044.5,-248 1044.5,-278"/>
<text text-anchor="start" x="888.5" y="-266" font-family="Helvetica,sans-Serif" font-size="10.00">Terraria.ModLoader.Engine.</text>
<text text-anchor="middle" x="962.5" y="-255" font-family="Helvetica,sans-Serif" font-size="10.00">TerrariaSteamClient.Shutdown</text>
</a>
</g>
</g>
<!-- Node29&#45;&gt;Node33 -->
<g id="edge34_Node000029_Node000033" class="edge">
<title>Node29&#45;&gt;Node33</title>
<g id="a_edge34_Node000029_Node000033"><a xlink:title=" ">
<path fill="none" stroke="#63b8ff" d="M810.16,-230.06C833.15,-235.06 858.92,-240.67 882.58,-245.82"/>
<polygon fill="#63b8ff" stroke="#63b8ff" points="882.07,-249.29 892.58,-248 883.56,-242.45 882.07,-249.29"/>
</a>
</g>
</g>
<!-- Node30&#45;&gt;Node31 -->
<g id="edge32_Node000030_Node000031" class="edge">
<title>Node30&#45;&gt;Node31</title>
<g id="a_edge32_Node000030_Node000031"><a xlink:title=" ">
<path fill="none" stroke="#63b8ff" d="M1052.04,-206.79C1066.66,-205.44 1081.86,-204.03 1096.59,-202.66"/>
<polygon fill="#63b8ff" stroke="#63b8ff" points="1097.07,-206.13 1106.7,-201.72 1096.42,-199.16 1097.07,-206.13"/>
</a>
</g>
</g>
<!-- Node32 -->
<g id="Node000032" class="node">
<title>Node32</title>
<g id="a_Node000032"><a xlink:href="../../d8/d74/classTerraria_1_1Localization_1_1LanguageManager_a9f1901e50105d9873d2fdf8816e122de.html#a9f1901e50105d9873d2fdf8816e122de" target="_top" xlink:title=" ">
<polygon fill="white" stroke="#666666" points="1495,-209 1330,-209 1330,-179 1495,-179 1495,-209"/>
<text text-anchor="start" x="1338" y="-197" font-family="Helvetica,sans-Serif" font-size="10.00">Terraria.Localization.Language</text>
<text text-anchor="middle" x="1412.5" y="-186" font-family="Helvetica,sans-Serif" font-size="10.00">Manager.GetTextValue</text>
</a>
</g>
</g>
<!-- Node31&#45;&gt;Node32 -->
<g id="edge33_Node000031_Node000032" class="edge">
<title>Node31&#45;&gt;Node32</title>
<g id="a_edge33_Node000031_Node000032"><a xlink:title=" ">
<path fill="none" stroke="#63b8ff" d="M1275.3,-194C1289.78,-194 1304.92,-194 1319.62,-194"/>
<polygon fill="#63b8ff" stroke="#63b8ff" points="1319.71,-197.5 1329.71,-194 1319.71,-190.5 1319.71,-197.5"/>
</a>
</g>
</g>
<!-- Node34 -->
<g id="Node000034" class="node">
<title>Node34</title>
<g id="a_Node000034"><a xlink:href="../../dc/dff/classTerraria_1_1ModLoader_1_1Engine_1_1TerrariaSteamClient_a9850567ddf4ced75bb68b54b22b5b2e9.html#a9850567ddf4ced75bb68b54b22b5b2e9" target="_top" xlink:title=" ">
<polygon fill="white" stroke="#666666" points="1272.5,-278 1109.5,-278 1109.5,-248 1272.5,-248 1272.5,-278"/>
<text text-anchor="start" x="1117.5" y="-266" font-family="Helvetica,sans-Serif" font-size="10.00">Terraria.ModLoader.Engine.</text>
<text text-anchor="middle" x="1191" y="-255" font-family="Helvetica,sans-Serif" font-size="10.00">TerrariaSteamClient.SendCmd</text>
</a>
</g>
</g>
<!-- Node33&#45;&gt;Node34 -->
<g id="edge35_Node000033_Node000034" class="edge">
<title>Node33&#45;&gt;Node34</title>
<g id="a_edge35_Node000033_Node000034"><a xlink:title=" ">
<path fill="none" stroke="#63b8ff" d="M1044.63,-263C1062.33,-263 1081.17,-263 1099.21,-263"/>
<polygon fill="#63b8ff" stroke="#63b8ff" points="1099.43,-266.5 1109.43,-263 1099.43,-259.5 1099.43,-266.5"/>
</a>
</g>
</g>
</g>
</svg>

<g id="navigator" transform="translate(0 0)" fill="#404254">
  <rect fill="#f2f5e9" fill-opacity="0.5" stroke="#606060" stroke-width=".5" x="0" y="0" width="60" height="60"/>
  <use id="zoomplus" xlink:href="#zoomPlus" x="17" y="9" onmousedown="handleZoom(evt,'in')"/>
  <use id="zoomminus" xlink:href="#zoomMin" x="42" y="9" onmousedown="handleZoom(evt,'out')"/>
  <use id="reset" xlink:href="#resetDef" x="30" y="36" onmousedown="handleReset()"/>
   <use id="arrowup" xlink:href="#arrowUp" x="0" y="0" onmousedown="handlePan(0,-1)"/>
  <use id="arrowright" xlink:href="#arrowRight" x="0" y="0" onmousedown="handlePan(1,0)"/>
  <use id="arrowdown" xlink:href="#arrowDown" x="0" y="0" onmousedown="handlePan(0,1)"/>
  <use id="arrowleft" xlink:href="#arrowLeft" x="0" y="0" onmousedown="handlePan(-1,0)"/>
</g>
<svg viewBox="0 0 15 15" width="100%" height="30px" preserveAspectRatio="xMaxYMin meet">
 <g id="arrow_out" transform="scale(0.3 0.3)">
  <a xlink:href="classTerraria_1_1ModLoader_1_1Logging_ac90a610a562f5d0e0a9384043a64bb0d_ac90a610a562f5d0e0a9384043a64bb0d_cgraph_org.svg" target="_base">
   <rect id="button" ry="5" rx="5" y="6" x="6" height="38" width="38"
        fill="#f2f5e9" fill-opacity="0.5" stroke="#606060" stroke-width="1.0"/>
   <path id="arrow"
     d="M 11.500037,31.436501 C 11.940474,20.09759 22.043105,11.32322 32.158766,21.979434 L 37.068811,17.246167 C 37.068811,17.246167 37.088388,32 37.088388,32 L 22.160133,31.978069 C 22.160133,31.978069 26.997745,27.140456 26.997745,27.140456 C 18.528582,18.264221 13.291696,25.230495 11.500037,31.436501 z"
     style="fill:#404040;"/>
  </a>
 </g>
</svg>

<style type='text/css'>
<![CDATA[
[data-mouse-over-selected='false'] { opacity: 0.7; }
[data-mouse-over-selected='true']  { opacity: 1.0; }
]]>
</style>
<script type="application/ecmascript"><![CDATA[
document.addEventListener('DOMContentLoaded', (event) => {
  highlightEdges();
  highlightAdjacentNodes();
});
]]></script>
</svg>
