<?xml version="1.0" encoding="UTF-8" standalone="no"?>
<!DOCTYPE svg PUBLIC "-//W3C//DTD SVG 1.1//EN"
 "http://www.w3.org/Graphics/SVG/1.1/DTD/svg11.dtd">
<!-- Generated by graphviz version 2.43.0 (0)
 -->
<!-- Title: Terraria.GameContent.Liquid.LiquidRenderer.SetShimmerVertexColors_Sparkle Pages: 1 -->
<!--zoomable 151 -->

<svg id="main" version="1.1" xmlns="http://www.w3.org/2000/svg" xmlns:xlink="http://www.w3.org/1999/xlink" xml:space="preserve" onload="init(evt)">
<style type="text/css"><![CDATA[
.node, .edge {opacity: 0.7;}
.node.selected, .edge.selected {opacity: 1;}
.edge:hover path { stroke: red; }
.edge:hover polygon { stroke: red; fill: red; }
]]></style>

<defs>
  <circle id="rim" cx="0" cy="0" r="7"/>
  <circle id="rim2" cx="0" cy="0" r="3.5"/>
  <g id="zoomPlus">
    <use xlink:href="#rim" fill="#404040"><set attributeName="fill" to="#808080" begin="zoomplus.mouseover" end="zoomplus.mouseout"/></use>
    <path d="M-4,0h8M0,-4v8" fill="none" stroke="white" stroke-width="1.5" pointer-events="none"/>
  </g>
  <g id="zoomMin">
    <use xlink:href="#rim" fill="#404040"><set attributeName="fill" to="#808080" begin="zoomminus.mouseover" end="zoomminus.mouseout"/></use>
    <path d="M-4,0h8" fill="none" stroke="white" stroke-width="1.5" pointer-events="none"/>
  </g>
  <g id="arrowUp" transform="translate(30 24)">
    <use xlink:href="#rim"/>
    <path pointer-events="none" fill="none" stroke="white" stroke-width="1.5" d="M0,-3.0v7 M-2.5,-0.5L0,-3.0L2.5,-0.5"/>
  </g>
  <g id="arrowRight" transform="rotate(90) translate(36 -43)">
    <use xlink:href="#rim"/>
    <path pointer-events="none" fill="none" stroke="white" stroke-width="1.5" d="M0,-3.0v7 M-2.5,-0.5L0,-3.0L2.5,-0.5"/>
  </g>
  <g id="arrowDown" transform="rotate(180) translate(-30 -48)">
    <use xlink:href="#rim"/>
    <path pointer-events="none" fill="none" stroke="white" stroke-width="1.5" d="M0,-3.0v7 M-2.5,-0.5L0,-3.0L2.5,-0.5"/>
  </g>
  <g id="arrowLeft" transform="rotate(270) translate(-36 17)">
    <use xlink:href="#rim"/>
    <path pointer-events="none" fill="none" stroke="white" stroke-width="1.5" d="M0,-3.0v7 M-2.5,-0.5L0,-3.0L2.5,-0.5"/>
  </g>
  <g id="resetDef">
    <use xlink:href="#rim2" fill="#404040"><set attributeName="fill" to="#808080" begin="reset.mouseover" end="reset.mouseout"/></use>
  </g>
</defs>
<script type="application/ecmascript">
var viewWidth = 1586;
var viewHeight = 151;
var sectionId = 'dynsection-1';
</script>
<script type="application/ecmascript" xlink:href="../../svg.min.js"/>
<svg id="graph" class="graph">
<g id="viewport">
<title>Terraria.GameContent.Liquid.LiquidRenderer.SetShimmerVertexColors_Sparkle</title>
<!-- Node1 -->
<g id="Node000001" class="node">
<title>Node1</title>
<g id="a_Node000001"><a xlink:title=" ">
<polygon fill="#999999" stroke="#666666" points="1578,-83 1394,-83 1394,-42 1578,-42 1578,-83"/>
<text text-anchor="start" x="1402" y="-71" font-family="Helvetica,sans-Serif" font-size="10.00">Terraria.GameContent.Liquid.</text>
<text text-anchor="start" x="1402" y="-60" font-family="Helvetica,sans-Serif" font-size="10.00">LiquidRenderer.SetShimmerVertex</text>
<text text-anchor="middle" x="1486" y="-49" font-family="Helvetica,sans-Serif" font-size="10.00">Colors_Sparkle</text>
</a>
</g>
</g>
<!-- Node2 -->
<g id="Node000002" class="node">
<title>Node2</title>
<g id="a_Node000002"><a xlink:href="../../dc/d84/classTerraria_1_1GameContent_1_1Liquid_1_1LiquidRenderer_ae3bde7f46722a51e70851d0a69d9b8d6.html#ae3bde7f46722a51e70851d0a69d9b8d6" target="_top" xlink:title=" ">
<polygon fill="white" stroke="#666666" points="1358,-101.5 1196,-101.5 1196,-71.5 1358,-71.5 1358,-101.5"/>
<text text-anchor="start" x="1204" y="-89.5" font-family="Helvetica,sans-Serif" font-size="10.00">Terraria.GameContent.Liquid.</text>
<text text-anchor="middle" x="1277" y="-78.5" font-family="Helvetica,sans-Serif" font-size="10.00">LiquidRenderer.DrawShimmer</text>
</a>
</g>
</g>
<!-- Node1&#45;&gt;Node2 -->
<g id="edge1_Node000001_Node000002" class="edge">
<title>Node1&#45;&gt;Node2</title>
<g id="a_edge1_Node000001_Node000002"><a xlink:title=" ">
<path fill="none" stroke="#63b8ff" d="M1383.8,-74.23C1375.17,-75.23 1366.52,-76.24 1358.09,-77.21"/>
<polygon fill="#63b8ff" stroke="#63b8ff" points="1384.38,-77.69 1393.91,-73.06 1383.57,-70.74 1384.38,-77.69"/>
</a>
</g>
</g>
<!-- Node13 -->
<g id="Node000013" class="node">
<title>Node13</title>
<g id="a_Node000013"><a xlink:href="../../d4/de6/classTerraria_1_1WaterfallManager_aba5c93dee50cc78e40f6173b4f1ce0cb.html#aba5c93dee50cc78e40f6173b4f1ce0cb" target="_top" xlink:title=" ">
<polygon fill="white" stroke="#666666" points="1350,-53.5 1204,-53.5 1204,-23.5 1350,-23.5 1350,-53.5"/>
<text text-anchor="start" x="1212" y="-41.5" font-family="Helvetica,sans-Serif" font-size="10.00">Terraria.WaterfallManager.</text>
<text text-anchor="middle" x="1277" y="-30.5" font-family="Helvetica,sans-Serif" font-size="10.00">DrawWaterfall</text>
</a>
</g>
</g>
<!-- Node1&#45;&gt;Node13 -->
<g id="edge15_Node000001_Node000013" class="edge">
<title>Node1&#45;&gt;Node13</title>
<g id="a_edge15_Node000001_Node000013"><a xlink:title=" ">
<path fill="none" stroke="#63b8ff" d="M1383.91,-50.78C1372.52,-49.46 1361.08,-48.13 1350.16,-46.87"/>
<polygon fill="#63b8ff" stroke="#63b8ff" points="1383.57,-54.26 1393.91,-51.94 1384.38,-47.31 1383.57,-54.26"/>
</a>
</g>
</g>
<!-- Node3 -->
<g id="Node000003" class="node">
<title>Node3</title>
<g id="a_Node000003"><a xlink:href="../../da/dd5/classTerraria_1_1Main_a1e3b89614e3540f1dbfdfe1e731aa58b.html#a1e3b89614e3540f1dbfdfe1e731aa58b" target="_top" xlink:title=" ">
<polygon fill="white" stroke="#666666" points="1160,-96 1022,-96 1022,-77 1160,-77 1160,-96"/>
<text text-anchor="middle" x="1091" y="-84" font-family="Helvetica,sans-Serif" font-size="10.00">Terraria.Main.DrawLiquid</text>
</a>
</g>
</g>
<!-- Node2&#45;&gt;Node3 -->
<g id="edge2_Node000002_Node000003" class="edge">
<title>Node2&#45;&gt;Node3</title>
<g id="a_edge2_Node000002_Node000003"><a xlink:title=" ">
<path fill="none" stroke="#63b8ff" d="M1185.73,-86.5C1177.11,-86.5 1168.47,-86.5 1160.1,-86.5"/>
<polygon fill="#63b8ff" stroke="#63b8ff" points="1185.83,-90 1195.83,-86.5 1185.83,-83 1185.83,-90"/>
</a>
</g>
</g>
<!-- Node4 -->
<g id="Node000004" class="node">
<title>Node4</title>
<g id="a_Node000004"><a xlink:href="../../da/dd5/classTerraria_1_1Main_ab13ebe846afd6d4cd47586ef70091e91.html#ab13ebe846afd6d4cd47586ef70091e91" target="_top" xlink:title=" ">
<polygon fill="white" stroke="#666666" points="986,-116 839,-116 839,-97 986,-97 986,-116"/>
<text text-anchor="middle" x="912.5" y="-104" font-family="Helvetica,sans-Serif" font-size="10.00">Terraria.Main.DrawCapture</text>
</a>
</g>
</g>
<!-- Node3&#45;&gt;Node4 -->
<g id="edge3_Node000003_Node000004" class="edge">
<title>Node3&#45;&gt;Node4</title>
<g id="a_edge3_Node000003_Node000004"><a xlink:title=" ">
<path fill="none" stroke="#63b8ff" d="M1011.56,-95.39C1003.14,-96.34 994.59,-97.31 986.24,-98.26"/>
<polygon fill="#63b8ff" stroke="#63b8ff" points="1012.22,-98.84 1021.76,-94.23 1011.43,-91.88 1012.22,-98.84"/>
</a>
</g>
</g>
<!-- Node10 -->
<g id="Node000010" class="node">
<title>Node10</title>
<g id="a_Node000010"><a xlink:href="../../da/dd5/classTerraria_1_1Main_ae858d85cb2214569ddb3ed5216acac71.html#ae858d85cb2214569ddb3ed5216acac71" target="_top" xlink:title=" ">
<polygon fill="white" stroke="#666666" points="803,-75 660,-75 660,-56 803,-56 803,-75"/>
<text text-anchor="middle" x="731.5" y="-63" font-family="Helvetica,sans-Serif" font-size="10.00">Terraria.Main.DrawWaters</text>
</a>
</g>
</g>
<!-- Node3&#45;&gt;Node10 -->
<g id="edge9_Node000003_Node000010" class="edge">
<title>Node3&#45;&gt;Node10</title>
<g id="a_edge9_Node000003_Node000010"><a xlink:title=" ">
<path fill="none" stroke="#63b8ff" d="M1011.75,-81.9C949.52,-78.25 863.21,-73.18 803.08,-69.65"/>
<polygon fill="#63b8ff" stroke="#63b8ff" points="1011.73,-85.41 1021.92,-82.5 1012.14,-78.42 1011.73,-85.41"/>
</a>
</g>
</g>
<!-- Node5 -->
<g id="Node000005" class="node">
<title>Node5</title>
<g id="a_Node000005"><a xlink:href="../../d5/d3b/classTerraria_1_1Graphics_1_1Capture_1_1CaptureCamera_a0f89b111e49e173b59c7d4eae1ec828f.html#a0f89b111e49e173b59c7d4eae1ec828f" target="_top" xlink:title=" ">
<polygon fill="white" stroke="#666666" points="803,-132.5 660,-132.5 660,-102.5 803,-102.5 803,-132.5"/>
<text text-anchor="start" x="668" y="-120.5" font-family="Helvetica,sans-Serif" font-size="10.00">Terraria.Graphics.Capture.</text>
<text text-anchor="middle" x="731.5" y="-109.5" font-family="Helvetica,sans-Serif" font-size="10.00">CaptureCamera.DrawTick</text>
</a>
</g>
</g>
<!-- Node4&#45;&gt;Node5 -->
<g id="edge4_Node000004_Node000005" class="edge">
<title>Node4&#45;&gt;Node5</title>
<g id="a_edge4_Node000004_Node000005"><a xlink:title=" ">
<path fill="none" stroke="#63b8ff" d="M828.9,-111.58C820.28,-112.11 811.58,-112.64 803.12,-113.16"/>
<polygon fill="#63b8ff" stroke="#63b8ff" points="829.19,-115.07 838.95,-110.96 828.76,-108.08 829.19,-115.07"/>
</a>
</g>
</g>
<!-- Node6 -->
<g id="Node000006" class="node">
<title>Node6</title>
<g id="a_Node000006"><a xlink:href="../../d4/d78/classTerraria_1_1Graphics_1_1Capture_1_1CaptureManager_a692c32176bdf72053b0217a48bc49dd5.html#a692c32176bdf72053b0217a48bc49dd5" target="_top" xlink:title=" ">
<polygon fill="white" stroke="#666666" points="609,-142.5 463,-142.5 463,-112.5 609,-112.5 609,-142.5"/>
<text text-anchor="start" x="471" y="-130.5" font-family="Helvetica,sans-Serif" font-size="10.00">Terraria.Graphics.Capture.</text>
<text text-anchor="middle" x="536" y="-119.5" font-family="Helvetica,sans-Serif" font-size="10.00">CaptureManager.DrawTick</text>
</a>
</g>
</g>
<!-- Node5&#45;&gt;Node6 -->
<g id="edge5_Node000005_Node000006" class="edge">
<title>Node5&#45;&gt;Node6</title>
<g id="a_edge5_Node000005_Node000006"><a xlink:title=" ">
<path fill="none" stroke="#63b8ff" d="M649.64,-121.68C636.19,-122.37 622.32,-123.09 609.11,-123.77"/>
<polygon fill="#63b8ff" stroke="#63b8ff" points="650.01,-125.16 659.82,-121.15 649.65,-118.17 650.01,-125.16"/>
</a>
</g>
</g>
<!-- Node7 -->
<g id="Node000007" class="node">
<title>Node7</title>
<g id="a_Node000007"><a xlink:href="../../da/dd5/classTerraria_1_1Main_a474beeecaea4d6dd108fba56cd554d46.html#a474beeecaea4d6dd108fba56cd554d46" target="_top" xlink:title=" ">
<polygon fill="white" stroke="#666666" points="412,-75 290,-75 290,-56 412,-56 412,-75"/>
<text text-anchor="middle" x="351" y="-63" font-family="Helvetica,sans-Serif" font-size="10.00">Terraria.Main.DoDraw</text>
</a>
</g>
</g>
<!-- Node6&#45;&gt;Node7 -->
<g id="edge6_Node000006_Node000007" class="edge">
<title>Node6&#45;&gt;Node7</title>
<g id="a_edge6_Node000006_Node000007"><a xlink:title=" ">
<path fill="none" stroke="#63b8ff" d="M479.81,-109.19C469.25,-105.66 458.28,-101.98 448,-98.5 424.96,-90.7 398.87,-81.72 379.7,-75.1"/>
<polygon fill="#63b8ff" stroke="#63b8ff" points="478.78,-112.53 489.37,-112.38 480.99,-105.89 478.78,-112.53"/>
</a>
</g>
</g>
<!-- Node8 -->
<g id="Node000008" class="node">
<title>Node8</title>
<g id="a_Node000008"><a xlink:href="../../da/dd5/classTerraria_1_1Main_aa597dbafa085227bb056d05d0b0f9abe.html#aa597dbafa085227bb056d05d0b0f9abe" target="_top" xlink:title=" ">
<polygon fill="white" stroke="#666666" points="254,-80.5 145,-80.5 145,-50.5 254,-50.5 254,-80.5"/>
<text text-anchor="start" x="153" y="-68.5" font-family="Helvetica,sans-Serif" font-size="10.00">Terraria.Main.Draw</text>
<text text-anchor="middle" x="199.5" y="-57.5" font-family="Helvetica,sans-Serif" font-size="10.00">_Inner</text>
</a>
</g>
</g>
<!-- Node7&#45;&gt;Node8 -->
<g id="edge7_Node000007_Node000008" class="edge">
<title>Node7&#45;&gt;Node8</title>
<g id="a_edge7_Node000007_Node000008"><a xlink:title=" ">
<path fill="none" stroke="#63b8ff" d="M279.41,-65.5C270.99,-65.5 262.49,-65.5 254.35,-65.5"/>
<polygon fill="#63b8ff" stroke="#63b8ff" points="279.62,-69 289.62,-65.5 279.62,-62 279.62,-69"/>
</a>
</g>
</g>
<!-- Node9 -->
<g id="Node000009" class="node">
<title>Node9</title>
<g id="a_Node000009"><a xlink:href="../../da/dd5/classTerraria_1_1Main_a516aa31311860bad4242ade32e5effcd.html#a516aa31311860bad4242ade32e5effcd" target="_top" xlink:title=" ">
<polygon fill="white" stroke="#666666" points="109,-75 0,-75 0,-56 109,-56 109,-75"/>
<text text-anchor="middle" x="54.5" y="-63" font-family="Helvetica,sans-Serif" font-size="10.00">Terraria.Main.Draw</text>
</a>
</g>
</g>
<!-- Node8&#45;&gt;Node9 -->
<g id="edge8_Node000008_Node000009" class="edge">
<title>Node8&#45;&gt;Node9</title>
<g id="a_edge8_Node000008_Node000009"><a xlink:title=" ">
<path fill="none" stroke="#63b8ff" d="M134.68,-65.5C126.25,-65.5 117.69,-65.5 109.46,-65.5"/>
<polygon fill="#63b8ff" stroke="#63b8ff" points="134.85,-69 144.85,-65.5 134.85,-62 134.85,-69"/>
</a>
</g>
</g>
<!-- Node10&#45;&gt;Node7 -->
<g id="edge10_Node000010_Node000007" class="edge">
<title>Node10&#45;&gt;Node7</title>
<g id="a_edge10_Node000010_Node000007"><a xlink:title=" ">
<path fill="none" stroke="#63b8ff" d="M649.48,-65.5C578.27,-65.5 476.27,-65.5 412.12,-65.5"/>
<polygon fill="#63b8ff" stroke="#63b8ff" points="649.75,-69 659.75,-65.5 649.75,-62 649.75,-69"/>
</a>
</g>
</g>
<!-- Node11 -->
<g id="Node000011" class="node">
<title>Node11</title>
<g id="a_Node000011"><a xlink:href="../../da/dd5/classTerraria_1_1Main_a48fdce278384e0e5424b1f84a071110d.html#a48fdce278384e0e5424b1f84a071110d" target="_top" xlink:title=" ">
<polygon fill="white" stroke="#666666" points="624,-56 448,-56 448,-37 624,-37 624,-56"/>
<text text-anchor="middle" x="536" y="-44" font-family="Helvetica,sans-Serif" font-size="10.00">Terraria.Main.RenderBackground</text>
</a>
</g>
</g>
<!-- Node10&#45;&gt;Node11 -->
<g id="edge11_Node000010_Node000011" class="edge">
<title>Node10&#45;&gt;Node11</title>
<g id="a_edge11_Node000010_Node000011"><a xlink:title=" ">
<path fill="none" stroke="#63b8ff" d="M649.69,-57.56C641.3,-56.74 632.74,-55.9 624.29,-55.07"/>
<polygon fill="#63b8ff" stroke="#63b8ff" points="649.53,-61.07 659.82,-58.56 650.21,-54.1 649.53,-61.07"/>
</a>
</g>
</g>
<!-- Node12 -->
<g id="Node000012" class="node">
<title>Node12</title>
<g id="a_Node000012"><a xlink:href="../../da/dd5/classTerraria_1_1Main_a57708f4defcd47377ee0623962510649.html#a57708f4defcd47377ee0623962510649" target="_top" xlink:title=" ">
<polygon fill="white" stroke="#666666" points="609,-19 463,-19 463,0 609,0 609,-19"/>
<text text-anchor="middle" x="536" y="-7" font-family="Helvetica,sans-Serif" font-size="10.00">Terraria.Main.RenderWater</text>
</a>
</g>
</g>
<!-- Node10&#45;&gt;Node12 -->
<g id="edge13_Node000010_Node000012" class="edge">
<title>Node10&#45;&gt;Node12</title>
<g id="a_edge13_Node000010_Node000012"><a xlink:title=" ">
<path fill="none" stroke="#63b8ff" d="M697.35,-52.33C676.52,-44.39 648.97,-34.5 624,-27.5 612.86,-24.38 600.78,-21.54 589.27,-19.09"/>
<polygon fill="#63b8ff" stroke="#63b8ff" points="696.11,-55.6 706.7,-55.93 698.63,-49.07 696.11,-55.6"/>
</a>
</g>
</g>
<!-- Node11&#45;&gt;Node7 -->
<g id="edge12_Node000011_Node000007" class="edge">
<title>Node11&#45;&gt;Node7</title>
<g id="a_edge12_Node000011_Node000007"><a xlink:title=" ">
<path fill="none" stroke="#63b8ff" d="M437.61,-56.61C428.95,-57.51 420.36,-58.4 412.15,-59.25"/>
<polygon fill="#63b8ff" stroke="#63b8ff" points="438.2,-60.07 447.79,-55.55 437.48,-53.11 438.2,-60.07"/>
</a>
</g>
</g>
<!-- Node12&#45;&gt;Node7 -->
<g id="edge14_Node000012_Node000007" class="edge">
<title>Node12&#45;&gt;Node7</title>
<g id="a_edge14_Node000012_Node000007"><a xlink:title=" ">
<path fill="none" stroke="#63b8ff" d="M471.9,-21.21C463.8,-23.1 455.67,-25.21 448,-27.5 421.55,-35.41 392.18,-47.55 372.98,-55.97"/>
<polygon fill="#63b8ff" stroke="#63b8ff" points="472.74,-24.61 481.73,-19 471.2,-17.78 472.74,-24.61"/>
</a>
</g>
</g>
</g>
</svg>

<g id="navigator" transform="translate(0 0)" fill="#404254">
  <rect fill="#f2f5e9" fill-opacity="0.5" stroke="#606060" stroke-width=".5" x="0" y="0" width="60" height="60"/>
  <use id="zoomplus" xlink:href="#zoomPlus" x="17" y="9" onmousedown="handleZoom(evt,'in')"/>
  <use id="zoomminus" xlink:href="#zoomMin" x="42" y="9" onmousedown="handleZoom(evt,'out')"/>
  <use id="reset" xlink:href="#resetDef" x="30" y="36" onmousedown="handleReset()"/>
   <use id="arrowup" xlink:href="#arrowUp" x="0" y="0" onmousedown="handlePan(0,-1)"/>
  <use id="arrowright" xlink:href="#arrowRight" x="0" y="0" onmousedown="handlePan(1,0)"/>
  <use id="arrowdown" xlink:href="#arrowDown" x="0" y="0" onmousedown="handlePan(0,1)"/>
  <use id="arrowleft" xlink:href="#arrowLeft" x="0" y="0" onmousedown="handlePan(-1,0)"/>
</g>
<svg viewBox="0 0 15 15" width="100%" height="30px" preserveAspectRatio="xMaxYMin meet">
 <g id="arrow_out" transform="scale(0.3 0.3)">
  <a xlink:href="classTerraria_1_1GameContent_1_1Liquid_1_1LiquidRenderer_ad36902ce98dffa68ecdedfbb2befe5f2_ad36902ce98dffa68ecdedfbb2befe5f2_icgraph_org.svg" target="_base">
   <rect id="button" ry="5" rx="5" y="6" x="6" height="38" width="38"
        fill="#f2f5e9" fill-opacity="0.5" stroke="#606060" stroke-width="1.0"/>
   <path id="arrow"
     d="M 11.500037,31.436501 C 11.940474,20.09759 22.043105,11.32322 32.158766,21.979434 L 37.068811,17.246167 C 37.068811,17.246167 37.088388,32 37.088388,32 L 22.160133,31.978069 C 22.160133,31.978069 26.997745,27.140456 26.997745,27.140456 C 18.528582,18.264221 13.291696,25.230495 11.500037,31.436501 z"
     style="fill:#404040;"/>
  </a>
 </g>
</svg>

<style type='text/css'>
<![CDATA[
[data-mouse-over-selected='false'] { opacity: 0.7; }
[data-mouse-over-selected='true']  { opacity: 1.0; }
]]>
</style>
<script type="application/ecmascript"><![CDATA[
document.addEventListener('DOMContentLoaded', (event) => {
  highlightEdges();
  highlightAdjacentNodes();
});
]]></script>
</svg>
