<?xml version="1.0" encoding="UTF-8" standalone="no"?>
<!DOCTYPE svg PUBLIC "-//W3C//DTD SVG 1.1//EN"
 "http://www.w3.org/Graphics/SVG/1.1/DTD/svg11.dtd">
<!-- Generated by graphviz version 2.43.0 (0)
 -->
<!-- Title: Terraria.GameContent.Liquid.LiquidRenderer.PrepareDraw Pages: 1 -->
<!--zoomable 228 -->

<svg id="main" version="1.1" xmlns="http://www.w3.org/2000/svg" xmlns:xlink="http://www.w3.org/1999/xlink" xml:space="preserve" onload="init(evt)">
<style type="text/css"><![CDATA[
.node, .edge {opacity: 0.7;}
.node.selected, .edge.selected {opacity: 1;}
.edge:hover path { stroke: red; }
.edge:hover polygon { stroke: red; fill: red; }
]]></style>

<defs>
  <circle id="rim" cx="0" cy="0" r="7"/>
  <circle id="rim2" cx="0" cy="0" r="3.5"/>
  <g id="zoomPlus">
    <use xlink:href="#rim" fill="#404040"><set attributeName="fill" to="#808080" begin="zoomplus.mouseover" end="zoomplus.mouseout"/></use>
    <path d="M-4,0h8M0,-4v8" fill="none" stroke="white" stroke-width="1.5" pointer-events="none"/>
  </g>
  <g id="zoomMin">
    <use xlink:href="#rim" fill="#404040"><set attributeName="fill" to="#808080" begin="zoomminus.mouseover" end="zoomminus.mouseout"/></use>
    <path d="M-4,0h8" fill="none" stroke="white" stroke-width="1.5" pointer-events="none"/>
  </g>
  <g id="arrowUp" transform="translate(30 24)">
    <use xlink:href="#rim"/>
    <path pointer-events="none" fill="none" stroke="white" stroke-width="1.5" d="M0,-3.0v7 M-2.5,-0.5L0,-3.0L2.5,-0.5"/>
  </g>
  <g id="arrowRight" transform="rotate(90) translate(36 -43)">
    <use xlink:href="#rim"/>
    <path pointer-events="none" fill="none" stroke="white" stroke-width="1.5" d="M0,-3.0v7 M-2.5,-0.5L0,-3.0L2.5,-0.5"/>
  </g>
  <g id="arrowDown" transform="rotate(180) translate(-30 -48)">
    <use xlink:href="#rim"/>
    <path pointer-events="none" fill="none" stroke="white" stroke-width="1.5" d="M0,-3.0v7 M-2.5,-0.5L0,-3.0L2.5,-0.5"/>
  </g>
  <g id="arrowLeft" transform="rotate(270) translate(-36 17)">
    <use xlink:href="#rim"/>
    <path pointer-events="none" fill="none" stroke="white" stroke-width="1.5" d="M0,-3.0v7 M-2.5,-0.5L0,-3.0L2.5,-0.5"/>
  </g>
  <g id="resetDef">
    <use xlink:href="#rim2" fill="#404040"><set attributeName="fill" to="#808080" begin="reset.mouseover" end="reset.mouseout"/></use>
  </g>
</defs>
<script type="application/ecmascript">
var viewWidth = 1038;
var viewHeight = 228;
var sectionId = 'dynsection-0';
</script>
<script type="application/ecmascript" xlink:href="../../svg.min.js"/>
<svg id="graph" class="graph">
<g id="viewport">
<title>Terraria.GameContent.Liquid.LiquidRenderer.PrepareDraw</title>
<!-- Node1 -->
<g id="Node000001" class="node">
<title>Node1</title>
<g id="a_Node000001"><a xlink:title=" ">
<polygon fill="#999999" stroke="#666666" points="159,-139.5 0,-139.5 0,-109.5 159,-109.5 159,-139.5"/>
<text text-anchor="start" x="8" y="-127.5" font-family="Helvetica,sans-Serif" font-size="10.00">Terraria.GameContent.Liquid.</text>
<text text-anchor="middle" x="79.5" y="-116.5" font-family="Helvetica,sans-Serif" font-size="10.00">LiquidRenderer.PrepareDraw</text>
</a>
</g>
</g>
<!-- Node2 -->
<g id="Node000002" class="node">
<title>Node2</title>
<g id="a_Node000002"><a xlink:href="../../dc/d84/classTerraria_1_1GameContent_1_1Liquid_1_1LiquidRenderer_a951e47463826ed0d31bcdbb121535948.html#a951e47463826ed0d31bcdbb121535948" target="_top" xlink:title=" ">
<polygon fill="white" stroke="#666666" points="388,-139.5 195,-139.5 195,-109.5 388,-109.5 388,-139.5"/>
<text text-anchor="start" x="203" y="-127.5" font-family="Helvetica,sans-Serif" font-size="10.00">Terraria.GameContent.Liquid.</text>
<text text-anchor="middle" x="291.5" y="-116.5" font-family="Helvetica,sans-Serif" font-size="10.00">LiquidRenderer.InternalPrepareDraw</text>
</a>
</g>
</g>
<!-- Node1&#45;&gt;Node2 -->
<g id="edge1_Node000001_Node000002" class="edge">
<title>Node1&#45;&gt;Node2</title>
<g id="a_edge1_Node000001_Node000002"><a xlink:title=" ">
<path fill="none" stroke="#63b8ff" d="M159.29,-124.5C167.66,-124.5 176.26,-124.5 184.87,-124.5"/>
<polygon fill="#63b8ff" stroke="#63b8ff" points="184.96,-128 194.96,-124.5 184.96,-121 184.96,-128"/>
</a>
</g>
</g>
<!-- Node3 -->
<g id="Node000003" class="node">
<title>Node3</title>
<g id="a_Node000003"><a xlink:href="../../dc/d84/classTerraria_1_1GameContent_1_1Liquid_1_1LiquidRenderer_afc82123e35f5f4af976938c779454c49.html#afc82123e35f5f4af976938c779454c49" target="_top" xlink:title=" ">
<polygon fill="white" stroke="#666666" points="618,-219.5 424,-219.5 424,-189.5 618,-189.5 618,-219.5"/>
<text text-anchor="start" x="432" y="-207.5" font-family="Helvetica,sans-Serif" font-size="10.00">Terraria.GameContent.Liquid.</text>
<text text-anchor="middle" x="521" y="-196.5" font-family="Helvetica,sans-Serif" font-size="10.00">LiquidRenderer.GetCachedDrawArea</text>
</a>
</g>
</g>
<!-- Node2&#45;&gt;Node3 -->
<g id="edge2_Node000002_Node000003" class="edge">
<title>Node2&#45;&gt;Node3</title>
<g id="a_edge2_Node000002_Node000003"><a xlink:title=" ">
<path fill="none" stroke="#63b8ff" d="M323.84,-139.51C350.15,-151.7 388.95,-168.74 424,-180.5 430.46,-182.67 437.21,-184.74 444.03,-186.69"/>
<polygon fill="#63b8ff" stroke="#63b8ff" points="443.45,-190.16 454.02,-189.47 445.32,-183.42 443.45,-190.16"/>
</a>
</g>
</g>
<!-- Node4 -->
<g id="Node000004" class="node">
<title>Node4</title>
<g id="a_Node000004"><a xlink:href="../../d6/d21/structTerraria_1_1Tile_afac1102270d7f948e822bfbe76d4533d.html#afac1102270d7f948e822bfbe76d4533d" target="_top" xlink:title="Legacy code, use P:Terraria.Tile.IsHalfBlock instead.">
<polygon fill="white" stroke="#666666" points="581.5,-171 460.5,-171 460.5,-152 581.5,-152 581.5,-171"/>
<text text-anchor="middle" x="521" y="-159" font-family="Helvetica,sans-Serif" font-size="10.00">Terraria.Tile.halfBrick</text>
</a>
</g>
</g>
<!-- Node2&#45;&gt;Node4 -->
<g id="edge3_Node000002_Node000004" class="edge">
<title>Node2&#45;&gt;Node4</title>
<g id="a_edge3_Node000002_Node000004"><a xlink:title=" ">
<path fill="none" stroke="#63b8ff" d="M385.03,-139.55C407.23,-143.16 430.55,-146.95 451.44,-150.35"/>
<polygon fill="#63b8ff" stroke="#63b8ff" points="451.05,-153.83 461.49,-151.98 452.18,-146.92 451.05,-153.83"/>
</a>
</g>
</g>
<!-- Node5 -->
<g id="Node000005" class="node">
<title>Node5</title>
<g id="a_Node000005"><a xlink:href="../../d6/d21/structTerraria_1_1Tile_aae758079f57e61378841aaf0fc884e71.html#aae758079f57e61378841aaf0fc884e71" target="_top" xlink:title="Legacy code, use P:Terraria.Tile.LiquidType instead.">
<polygon fill="white" stroke="#666666" points="584.5,-134 457.5,-134 457.5,-115 584.5,-115 584.5,-134"/>
<text text-anchor="middle" x="521" y="-122" font-family="Helvetica,sans-Serif" font-size="10.00">Terraria.Tile.liquidType</text>
</a>
</g>
</g>
<!-- Node2&#45;&gt;Node5 -->
<g id="edge4_Node000002_Node000005" class="edge">
<title>Node2&#45;&gt;Node5</title>
<g id="a_edge4_Node000002_Node000005"><a xlink:title=" ">
<path fill="none" stroke="#63b8ff" d="M388.32,-124.5C407.99,-124.5 428.4,-124.5 447.11,-124.5"/>
<polygon fill="#63b8ff" stroke="#63b8ff" points="447.31,-128 457.31,-124.5 447.31,-121 447.31,-128"/>
</a>
</g>
</g>
<!-- Node6 -->
<g id="Node000006" class="node">
<title>Node6</title>
<g id="a_Node000006"><a xlink:href="../../dc/de5/classTerraria_1_1Dust_a977a36a9376966862406a3094e3b70ab.html#a977a36a9376966862406a3094e3b70ab" target="_top" xlink:title="Attempts to spawn a single Dust into the game world. The Position, Width, and Height parameters dicta...">
<polygon fill="white" stroke="#666666" points="584,-97 458,-97 458,-78 584,-78 584,-97"/>
<text text-anchor="middle" x="521" y="-85" font-family="Helvetica,sans-Serif" font-size="10.00">Terraria.Dust.NewDust</text>
</a>
</g>
</g>
<!-- Node2&#45;&gt;Node6 -->
<g id="edge5_Node000002_Node000006" class="edge">
<title>Node2&#45;&gt;Node6</title>
<g id="a_edge5_Node000002_Node000006"><a xlink:title=" ">
<path fill="none" stroke="#63b8ff" d="M385.03,-109.45C407.23,-105.84 430.55,-102.05 451.44,-98.65"/>
<polygon fill="#63b8ff" stroke="#63b8ff" points="452.18,-102.08 461.49,-97.02 451.05,-95.17 452.18,-102.08"/>
</a>
</g>
</g>
<!-- Node10 -->
<g id="Node000010" class="node">
<title>Node10</title>
<g id="a_Node000010"><a xlink:href="../../de/da1/classTerraria_1_1WorldGen_afaddd88e31ca4f3c708ff2e806929408.html#afaddd88e31ca4f3c708ff2e806929408" target="_top" xlink:title=" ">
<polygon fill="white" stroke="#666666" points="592,-59.5 450,-59.5 450,-29.5 592,-29.5 592,-59.5"/>
<text text-anchor="start" x="458" y="-47.5" font-family="Helvetica,sans-Serif" font-size="10.00">Terraria.WorldGen.SolidOr</text>
<text text-anchor="middle" x="521" y="-36.5" font-family="Helvetica,sans-Serif" font-size="10.00">SlopedTile</text>
</a>
</g>
</g>
<!-- Node2&#45;&gt;Node10 -->
<g id="edge9_Node000002_Node000010" class="edge">
<title>Node2&#45;&gt;Node10</title>
<g id="a_edge9_Node000002_Node000010"><a xlink:title=" ">
<path fill="none" stroke="#63b8ff" d="M323.84,-109.49C350.15,-97.3 388.95,-80.26 424,-68.5 430.46,-66.33 437.21,-64.26 444.03,-62.31"/>
<polygon fill="#63b8ff" stroke="#63b8ff" points="445.32,-65.58 454.02,-59.53 443.45,-58.84 445.32,-65.58"/>
</a>
</g>
</g>
<!-- Node7 -->
<g id="Node000007" class="node">
<title>Node7</title>
<g id="a_Node000007"><a xlink:href="../../df/dd6/classTerraria_1_1ModLoader_1_1DustLoader_a8374be843b9b2b0143bc000e8663d3ec.html#a8374be843b9b2b0143bc000e8663d3ec" target="_top" xlink:title=" ">
<polygon fill="white" stroke="#666666" points="824,-144.5 654,-144.5 654,-114.5 824,-114.5 824,-144.5"/>
<text text-anchor="start" x="662" y="-132.5" font-family="Helvetica,sans-Serif" font-size="10.00">Terraria.ModLoader.DustLoader.</text>
<text text-anchor="middle" x="739" y="-121.5" font-family="Helvetica,sans-Serif" font-size="10.00">SetupDust</text>
</a>
</g>
</g>
<!-- Node6&#45;&gt;Node7 -->
<g id="edge6_Node000006_Node000007" class="edge">
<title>Node6&#45;&gt;Node7</title>
<g id="a_edge6_Node000006_Node000007"><a xlink:title=" ">
<path fill="none" stroke="#63b8ff" d="M573.34,-97.01C587.79,-99.72 603.52,-102.69 618,-105.5 629.49,-107.73 641.59,-110.1 653.5,-112.47"/>
<polygon fill="#63b8ff" stroke="#63b8ff" points="652.96,-115.93 663.45,-114.45 654.33,-109.06 652.96,-115.93"/>
</a>
</g>
</g>
<!-- Node9 -->
<g id="Node000009" class="node">
<title>Node9</title>
<g id="a_Node000009"><a xlink:href="../../de/d1d/classTerraria_1_1Collision_a1c65206ace403aa59afc32d20e5d282e.html#a1c65206ace403aa59afc32d20e5d282e" target="_top" xlink:title=" ">
<polygon fill="white" stroke="#666666" points="820,-96 658,-96 658,-77 820,-77 820,-96"/>
<text text-anchor="middle" x="739" y="-84" font-family="Helvetica,sans-Serif" font-size="10.00">Terraria.Collision.WetCollision</text>
</a>
</g>
</g>
<!-- Node6&#45;&gt;Node9 -->
<g id="edge8_Node000006_Node000009" class="edge">
<title>Node6&#45;&gt;Node9</title>
<g id="a_edge8_Node000006_Node000009"><a xlink:title=" ">
<path fill="none" stroke="#63b8ff" d="M584.19,-87.21C603.98,-87.12 626.3,-87.02 647.67,-86.92"/>
<polygon fill="#63b8ff" stroke="#63b8ff" points="647.75,-90.42 657.74,-86.87 647.72,-83.42 647.75,-90.42"/>
</a>
</g>
</g>
<!-- Node8 -->
<g id="Node000008" class="node">
<title>Node8</title>
<g id="a_Node000008"><a xlink:href="../../df/dd6/classTerraria_1_1ModLoader_1_1DustLoader_a0cb616c3c6776d3bba899e7f1fb0e221.html#a0cb616c3c6776d3bba899e7f1fb0e221" target="_top" xlink:title="Gets the ModDust instance with the given type. Returns null if no ModDust with the given type exists.">
<polygon fill="white" stroke="#666666" points="1030,-144.5 860,-144.5 860,-114.5 1030,-114.5 1030,-144.5"/>
<text text-anchor="start" x="868" y="-132.5" font-family="Helvetica,sans-Serif" font-size="10.00">Terraria.ModLoader.DustLoader.</text>
<text text-anchor="middle" x="945" y="-121.5" font-family="Helvetica,sans-Serif" font-size="10.00">GetDust</text>
</a>
</g>
</g>
<!-- Node7&#45;&gt;Node8 -->
<g id="edge7_Node000007_Node000008" class="edge">
<title>Node7&#45;&gt;Node8</title>
<g id="a_edge7_Node000007_Node000008"><a xlink:title=" ">
<path fill="none" stroke="#63b8ff" d="M824.15,-129.5C832.5,-129.5 841.02,-129.5 849.46,-129.5"/>
<polygon fill="#63b8ff" stroke="#63b8ff" points="849.71,-133 859.71,-129.5 849.71,-126 849.71,-133"/>
</a>
</g>
</g>
<!-- Node11 -->
<g id="Node000011" class="node">
<title>Node11</title>
<g id="a_Node000011"><a xlink:href="../../d6/d21/structTerraria_1_1Tile_a9a3f37926e6d7f23ba057d6c0aeab1a5.html#a9a3f37926e6d7f23ba057d6c0aeab1a5" target="_top" xlink:title="Legacy code, use P:Terraria.Tile.HasTile instead.">
<polygon fill="white" stroke="#666666" points="792.5,-56 685.5,-56 685.5,-37 792.5,-37 792.5,-56"/>
<text text-anchor="middle" x="739" y="-44" font-family="Helvetica,sans-Serif" font-size="10.00">Terraria.Tile.active</text>
</a>
</g>
</g>
<!-- Node10&#45;&gt;Node11 -->
<g id="edge10_Node000010_Node000011" class="edge">
<title>Node10&#45;&gt;Node11</title>
<g id="a_edge10_Node000010_Node000011"><a xlink:title=" ">
<path fill="none" stroke="#63b8ff" d="M592.13,-45.15C618.88,-45.4 649.18,-45.68 675.21,-45.92"/>
<polygon fill="#63b8ff" stroke="#63b8ff" points="675.3,-49.42 685.33,-46.01 675.36,-42.42 675.3,-49.42"/>
</a>
</g>
</g>
<!-- Node12 -->
<g id="Node000012" class="node">
<title>Node12</title>
<g id="a_Node000012"><a xlink:href="../../d6/d21/structTerraria_1_1Tile_a68f45508d63b5e1bac9a703a1a99853b.html#a68f45508d63b5e1bac9a703a1a99853b" target="_top" xlink:title="Legacy code, use P:Terraria.Tile.IsActuated instead.">
<polygon fill="white" stroke="#666666" points="797.5,-19 680.5,-19 680.5,0 797.5,0 797.5,-19"/>
<text text-anchor="middle" x="739" y="-7" font-family="Helvetica,sans-Serif" font-size="10.00">Terraria.Tile.inActive</text>
</a>
</g>
</g>
<!-- Node10&#45;&gt;Node12 -->
<g id="edge11_Node000010_Node000012" class="edge">
<title>Node10&#45;&gt;Node12</title>
<g id="a_edge11_Node000010_Node000012"><a xlink:title=" ">
<path fill="none" stroke="#63b8ff" d="M592.13,-33.14C617.25,-29.07 645.49,-24.49 670.39,-20.45"/>
<polygon fill="#63b8ff" stroke="#63b8ff" points="671.17,-23.87 680.48,-18.82 670.05,-16.97 671.17,-23.87"/>
</a>
</g>
</g>
</g>
</svg>

<g id="navigator" transform="translate(0 0)" fill="#404254">
  <rect fill="#f2f5e9" fill-opacity="0.5" stroke="#606060" stroke-width=".5" x="0" y="0" width="60" height="60"/>
  <use id="zoomplus" xlink:href="#zoomPlus" x="17" y="9" onmousedown="handleZoom(evt,'in')"/>
  <use id="zoomminus" xlink:href="#zoomMin" x="42" y="9" onmousedown="handleZoom(evt,'out')"/>
  <use id="reset" xlink:href="#resetDef" x="30" y="36" onmousedown="handleReset()"/>
   <use id="arrowup" xlink:href="#arrowUp" x="0" y="0" onmousedown="handlePan(0,-1)"/>
  <use id="arrowright" xlink:href="#arrowRight" x="0" y="0" onmousedown="handlePan(1,0)"/>
  <use id="arrowdown" xlink:href="#arrowDown" x="0" y="0" onmousedown="handlePan(0,1)"/>
  <use id="arrowleft" xlink:href="#arrowLeft" x="0" y="0" onmousedown="handlePan(-1,0)"/>
</g>
<svg viewBox="0 0 15 15" width="100%" height="30px" preserveAspectRatio="xMaxYMin meet">
 <g id="arrow_out" transform="scale(0.3 0.3)">
  <a xlink:href="classTerraria_1_1GameContent_1_1Liquid_1_1LiquidRenderer_a5df6608ceed14900bedacb04d2744483_a5df6608ceed14900bedacb04d2744483_cgraph_org.svg" target="_base">
   <rect id="button" ry="5" rx="5" y="6" x="6" height="38" width="38"
        fill="#f2f5e9" fill-opacity="0.5" stroke="#606060" stroke-width="1.0"/>
   <path id="arrow"
     d="M 11.500037,31.436501 C 11.940474,20.09759 22.043105,11.32322 32.158766,21.979434 L 37.068811,17.246167 C 37.068811,17.246167 37.088388,32 37.088388,32 L 22.160133,31.978069 C 22.160133,31.978069 26.997745,27.140456 26.997745,27.140456 C 18.528582,18.264221 13.291696,25.230495 11.500037,31.436501 z"
     style="fill:#404040;"/>
  </a>
 </g>
</svg>

<style type='text/css'>
<![CDATA[
[data-mouse-over-selected='false'] { opacity: 0.7; }
[data-mouse-over-selected='true']  { opacity: 1.0; }
]]>
</style>
<script type="application/ecmascript"><![CDATA[
document.addEventListener('DOMContentLoaded', (event) => {
  highlightEdges();
  highlightAdjacentNodes();
});
]]></script>
</svg>
