<?xml version="1.0" encoding="UTF-8" standalone="no"?>
<!DOCTYPE svg PUBLIC "-//W3C//DTD SVG 1.1//EN"
 "http://www.w3.org/Graphics/SVG/1.1/DTD/svg11.dtd">
<!-- Generated by graphviz version 2.43.0 (0)
 -->
<!-- Title: Terraria.GameContent.ItemDropRules.CommonCode.ModifyItemDropFromNPC Pages: 1 -->
<!--zoomable 1189 -->

<svg id="main" version="1.1" xmlns="http://www.w3.org/2000/svg" xmlns:xlink="http://www.w3.org/1999/xlink" xml:space="preserve" onload="init(evt)">
<style type="text/css"><![CDATA[
.node, .edge {opacity: 0.7;}
.node.selected, .edge.selected {opacity: 1;}
.edge:hover path { stroke: red; }
.edge:hover polygon { stroke: red; fill: red; }
]]></style>

<defs>
  <circle id="rim" cx="0" cy="0" r="7"/>
  <circle id="rim2" cx="0" cy="0" r="3.5"/>
  <g id="zoomPlus">
    <use xlink:href="#rim" fill="#404040"><set attributeName="fill" to="#808080" begin="zoomplus.mouseover" end="zoomplus.mouseout"/></use>
    <path d="M-4,0h8M0,-4v8" fill="none" stroke="white" stroke-width="1.5" pointer-events="none"/>
  </g>
  <g id="zoomMin">
    <use xlink:href="#rim" fill="#404040"><set attributeName="fill" to="#808080" begin="zoomminus.mouseover" end="zoomminus.mouseout"/></use>
    <path d="M-4,0h8" fill="none" stroke="white" stroke-width="1.5" pointer-events="none"/>
  </g>
  <g id="arrowUp" transform="translate(30 24)">
    <use xlink:href="#rim"/>
    <path pointer-events="none" fill="none" stroke="white" stroke-width="1.5" d="M0,-3.0v7 M-2.5,-0.5L0,-3.0L2.5,-0.5"/>
  </g>
  <g id="arrowRight" transform="rotate(90) translate(36 -43)">
    <use xlink:href="#rim"/>
    <path pointer-events="none" fill="none" stroke="white" stroke-width="1.5" d="M0,-3.0v7 M-2.5,-0.5L0,-3.0L2.5,-0.5"/>
  </g>
  <g id="arrowDown" transform="rotate(180) translate(-30 -48)">
    <use xlink:href="#rim"/>
    <path pointer-events="none" fill="none" stroke="white" stroke-width="1.5" d="M0,-3.0v7 M-2.5,-0.5L0,-3.0L2.5,-0.5"/>
  </g>
  <g id="arrowLeft" transform="rotate(270) translate(-36 17)">
    <use xlink:href="#rim"/>
    <path pointer-events="none" fill="none" stroke="white" stroke-width="1.5" d="M0,-3.0v7 M-2.5,-0.5L0,-3.0L2.5,-0.5"/>
  </g>
  <g id="resetDef">
    <use xlink:href="#rim2" fill="#404040"><set attributeName="fill" to="#808080" begin="reset.mouseover" end="reset.mouseout"/></use>
  </g>
</defs>
<script type="application/ecmascript">
var viewWidth = 1197;
var viewHeight = 1189;
var sectionId = 'dynsection-0';
</script>
<script type="application/ecmascript" xlink:href="../../svg.min.js"/>
<svg id="graph" class="graph">
<g id="viewport">
<title>Terraria.GameContent.ItemDropRules.CommonCode.ModifyItemDropFromNPC</title>
<!-- Node1 -->
<g id="Node000001" class="node">
<title>Node1</title>
<g id="a_Node000001"><a xlink:title=" ">
<polygon fill="#999999" stroke="#666666" points="197,-475.5 0,-475.5 0,-434.5 197,-434.5 197,-475.5"/>
<text text-anchor="start" x="8" y="-463.5" font-family="Helvetica,sans-Serif" font-size="10.00">Terraria.GameContent.Item</text>
<text text-anchor="start" x="8" y="-452.5" font-family="Helvetica,sans-Serif" font-size="10.00">DropRules.CommonCode.ModifyItem</text>
<text text-anchor="middle" x="98.5" y="-441.5" font-family="Helvetica,sans-Serif" font-size="10.00">DropFromNPC</text>
</a>
</g>
</g>
<!-- Node2 -->
<g id="Node000002" class="node">
<title>Node2</title>
<g id="a_Node000002"><a xlink:href="../../d2/dfe/classTerraria_1_1NetMessage_a0099400efdc729b71368da55adc01263.html#a0099400efdc729b71368da55adc01263" target="_top" xlink:title=" ">
<polygon fill="white" stroke="#666666" points="400,-464.5 233,-464.5 233,-445.5 400,-445.5 400,-464.5"/>
<text text-anchor="middle" x="316.5" y="-452.5" font-family="Helvetica,sans-Serif" font-size="10.00">Terraria.NetMessage.SendData</text>
</a>
</g>
</g>
<!-- Node1&#45;&gt;Node2 -->
<g id="edge1_Node000001_Node000002" class="edge">
<title>Node1&#45;&gt;Node2</title>
<g id="a_edge1_Node000001_Node000002"><a xlink:title=" ">
<path fill="none" stroke="#63b8ff" d="M197.07,-455C205.58,-455 214.17,-455 222.63,-455"/>
<polygon fill="#63b8ff" stroke="#63b8ff" points="222.88,-458.5 232.88,-455 222.88,-451.5 222.88,-458.5"/>
</a>
</g>
</g>
<!-- Node3 -->
<g id="Node000003" class="node">
<title>Node3</title>
<g id="a_Node000003"><a xlink:href="../../d2/dfe/classTerraria_1_1NetMessage_a8bd80eec85317f48bb6a6fd7a8a8312b.html#a8bd80eec85317f48bb6a6fd7a8a8312b" target="_top" xlink:title=" ">
<polygon fill="white" stroke="#666666" points="606,-925 437,-925 437,-895 606,-895 606,-925"/>
<text text-anchor="start" x="445" y="-913" font-family="Helvetica,sans-Serif" font-size="10.00">Terraria.NetMessage.Compress</text>
<text text-anchor="middle" x="521.5" y="-902" font-family="Helvetica,sans-Serif" font-size="10.00">TileBlock</text>
</a>
</g>
</g>
<!-- Node2&#45;&gt;Node3 -->
<g id="edge2_Node000002_Node000003" class="edge">
<title>Node2&#45;&gt;Node3</title>
<g id="a_edge2_Node000002_Node000003"><a xlink:title=" ">
<path fill="none" stroke="#63b8ff" d="M319.43,-464.77C328.12,-507.47 366.32,-681.22 436,-807 452.92,-837.54 479.27,-867.88 498.04,-887.63"/>
<polygon fill="#63b8ff" stroke="#63b8ff" points="495.61,-890.16 505.08,-894.92 500.65,-885.29 495.61,-890.16"/>
</a>
</g>
</g>
<!-- Node15 -->
<g id="Node000015" class="node">
<title>Node15</title>
<g id="a_Node000015"><a xlink:href="../../db/d56/classTerraria_1_1DataStructures_1_1TileEntity_a94671f9097e4ebf6de668b08e9f0b50a.html#a94671f9097e4ebf6de668b08e9f0b50a" target="_top" xlink:title=" ">
<polygon fill="white" stroke="#666666" points="1008,-770 876,-770 876,-740 1008,-740 1008,-770"/>
<text text-anchor="start" x="884" y="-758" font-family="Helvetica,sans-Serif" font-size="10.00">Terraria.DataStructures.</text>
<text text-anchor="middle" x="942" y="-747" font-family="Helvetica,sans-Serif" font-size="10.00">TileEntity.Write</text>
</a>
</g>
</g>
<!-- Node2&#45;&gt;Node15 -->
<g id="edge35_Node000002_Node000015" class="edge">
<title>Node2&#45;&gt;Node15</title>
<g id="a_edge35_Node000002_Node000015"><a xlink:title=" ">
<path fill="none" stroke="#63b8ff" d="M317.49,-464.56C318.03,-509.2 326.86,-698.12 436,-774 503.44,-820.89 742.37,-789.03 865.86,-768.53"/>
<polygon fill="#63b8ff" stroke="#63b8ff" points="866.71,-771.93 876,-766.83 865.56,-765.03 866.71,-771.93"/>
</a>
</g>
</g>
<!-- Node16 -->
<g id="Node000016" class="node">
<title>Node16</title>
<g id="a_Node000016"><a xlink:href="../../db/d90/classTerraria_1_1Netplay_a8a3ee13aeab7ca5a142d52fc6a7c94a8.html#a8a3ee13aeab7ca5a142d52fc6a7c94a8" target="_top" xlink:title=" ">
<polygon fill="white" stroke="#666666" points="599.5,-764.5 443.5,-764.5 443.5,-745.5 599.5,-745.5 599.5,-764.5"/>
<text text-anchor="middle" x="521.5" y="-752.5" font-family="Helvetica,sans-Serif" font-size="10.00">Terraria.Netplay.GetSectionX</text>
</a>
</g>
</g>
<!-- Node2&#45;&gt;Node16 -->
<g id="edge15_Node000002_Node000016" class="edge">
<title>Node2&#45;&gt;Node16</title>
<g id="a_edge15_Node000002_Node000016"><a xlink:title=" ">
<path fill="none" stroke="#63b8ff" d="M318.41,-464.62C322.76,-504.96 345.18,-661.83 436,-737 437.39,-738.15 438.84,-739.23 440.33,-740.25"/>
<polygon fill="#63b8ff" stroke="#63b8ff" points="438.93,-743.48 449.35,-745.4 442.4,-737.4 438.93,-743.48"/>
</a>
</g>
</g>
<!-- Node17 -->
<g id="Node000017" class="node">
<title>Node17</title>
<g id="a_Node000017"><a xlink:href="../../db/d90/classTerraria_1_1Netplay_aae951351c7bd7fff569a8f67e4a700a0.html#aae951351c7bd7fff569a8f67e4a700a0" target="_top" xlink:title=" ">
<polygon fill="white" stroke="#666666" points="599,-727.5 444,-727.5 444,-708.5 599,-708.5 599,-727.5"/>
<text text-anchor="middle" x="521.5" y="-715.5" font-family="Helvetica,sans-Serif" font-size="10.00">Terraria.Netplay.GetSectionY</text>
</a>
</g>
</g>
<!-- Node2&#45;&gt;Node17 -->
<g id="edge16_Node000002_Node000017" class="edge">
<title>Node2&#45;&gt;Node17</title>
<g id="a_edge16_Node000002_Node000017"><a xlink:title=" ">
<path fill="none" stroke="#63b8ff" d="M319.1,-464.55C325.78,-501.32 354.97,-634.82 436,-699 438.11,-700.67 440.35,-702.21 442.67,-703.61"/>
<polygon fill="#63b8ff" stroke="#63b8ff" points="441.54,-706.96 452.03,-708.41 444.73,-700.73 441.54,-706.96"/>
</a>
</g>
</g>
<!-- Node18 -->
<g id="Node000018" class="node">
<title>Node18</title>
<g id="a_Node000018"><a xlink:href="../../d4/d8f/classTerraria_1_1Localization_1_1Language_ae4636a4800b9ecbaa498954520462f78.html#ae4636a4800b9ecbaa498954520462f78" target="_top" xlink:title="Retrieves the text value for a specified localization key. The text returned will be for the currentl...">
<polygon fill="white" stroke="#666666" points="605.5,-690 437.5,-690 437.5,-660 605.5,-660 605.5,-690"/>
<text text-anchor="start" x="445.5" y="-678" font-family="Helvetica,sans-Serif" font-size="10.00">Terraria.Localization.Language.</text>
<text text-anchor="middle" x="521.5" y="-667" font-family="Helvetica,sans-Serif" font-size="10.00">GetTextValue</text>
</a>
</g>
</g>
<!-- Node2&#45;&gt;Node18 -->
<g id="edge17_Node000002_Node000018" class="edge">
<title>Node2&#45;&gt;Node18</title>
<g id="a_edge17_Node000002_Node000018"><a xlink:title=" ">
<path fill="none" stroke="#63b8ff" d="M320.56,-464.93C331,-497.1 368.35,-599.38 436,-651 437.82,-652.39 439.72,-653.7 441.68,-654.94"/>
<polygon fill="#63b8ff" stroke="#63b8ff" points="440.19,-658.11 450.63,-659.87 443.57,-651.98 440.19,-658.11"/>
</a>
</g>
</g>
<!-- Node19 -->
<g id="Node000019" class="node">
<title>Node19</title>
<g id="a_Node000019"><a xlink:href="../../df/d47/classTerraria_1_1ModLoader_1_1ModNet_a1c1f9ace6611e69d54aa7a1f2cce68f2.html#a1c1f9ace6611e69d54aa7a1f2cce68f2" target="_top" xlink:title=" ">
<polygon fill="white" stroke="#666666" points="598.5,-642 444.5,-642 444.5,-612 598.5,-612 598.5,-642"/>
<text text-anchor="start" x="452.5" y="-630" font-family="Helvetica,sans-Serif" font-size="10.00">Terraria.ModLoader.ModNet.</text>
<text text-anchor="middle" x="521.5" y="-619" font-family="Helvetica,sans-Serif" font-size="10.00">HijackSendData</text>
</a>
</g>
</g>
<!-- Node2&#45;&gt;Node19 -->
<g id="edge18_Node000002_Node000019" class="edge">
<title>Node2&#45;&gt;Node19</title>
<g id="a_edge18_Node000002_Node000019"><a xlink:title=" ">
<path fill="none" stroke="#63b8ff" d="M322.42,-464.66C336.38,-491.09 378.97,-565.13 436,-603 438.44,-604.62 440.99,-606.13 443.62,-607.55"/>
<polygon fill="#63b8ff" stroke="#63b8ff" points="442.3,-610.79 452.83,-611.97 445.33,-604.48 442.3,-610.79"/>
</a>
</g>
</g>
<!-- Node21 -->
<g id="Node000021" class="node">
<title>Node21</title>
<g id="a_Node000021"><a xlink:href="../../d6/d21/structTerraria_1_1Tile_aae758079f57e61378841aaf0fc884e71.html#aae758079f57e61378841aaf0fc884e71" target="_top" xlink:title="Legacy code, use P:Terraria.Tile.LiquidType instead.">
<polygon fill="white" stroke="#666666" points="585,-593.5 458,-593.5 458,-574.5 585,-574.5 585,-593.5"/>
<text text-anchor="middle" x="521.5" y="-581.5" font-family="Helvetica,sans-Serif" font-size="10.00">Terraria.Tile.liquidType</text>
</a>
</g>
</g>
<!-- Node2&#45;&gt;Node21 -->
<g id="edge20_Node000002_Node000021" class="edge">
<title>Node2&#45;&gt;Node21</title>
<g id="a_edge20_Node000002_Node000021"><a xlink:title=" ">
<path fill="none" stroke="#63b8ff" d="M324.9,-464.73C341.94,-486.42 386.33,-538.84 436,-565 440.46,-567.35 445.2,-569.41 450.07,-571.21"/>
<polygon fill="#63b8ff" stroke="#63b8ff" points="448.96,-574.53 459.56,-574.38 451.18,-567.89 448.96,-574.53"/>
</a>
</g>
</g>
<!-- Node22 -->
<g id="Node000022" class="node">
<title>Node22</title>
<g id="a_Node000022"><a xlink:href="../../df/d47/classTerraria_1_1ModLoader_1_1ModNet_a84b918169aabe8b707d77626bfa3a734.html#a84b918169aabe8b707d77626bfa3a734" target="_top" xlink:title=" ">
<polygon fill="white" stroke="#666666" points="598.5,-556 444.5,-556 444.5,-526 598.5,-526 598.5,-556"/>
<text text-anchor="start" x="452.5" y="-544" font-family="Helvetica,sans-Serif" font-size="10.00">Terraria.ModLoader.ModNet.</text>
<text text-anchor="middle" x="521.5" y="-533" font-family="Helvetica,sans-Serif" font-size="10.00">LogSend</text>
</a>
</g>
</g>
<!-- Node2&#45;&gt;Node22 -->
<g id="edge21_Node000002_Node000022" class="edge">
<title>Node2&#45;&gt;Node22</title>
<g id="a_edge21_Node000002_Node000022"><a xlink:title=" ">
<path fill="none" stroke="#63b8ff" d="M335.67,-464.57C358.67,-476.49 399.67,-497.09 436,-512 444.84,-515.63 454.32,-519.19 463.61,-522.51"/>
<polygon fill="#63b8ff" stroke="#63b8ff" points="462.61,-525.86 473.2,-525.87 464.92,-519.26 462.61,-525.86"/>
</a>
</g>
</g>
<!-- Node25 -->
<g id="Node000025" class="node">
<title>Node25</title>
<g id="a_Node000025"><a xlink:href="../../d0/d8b/classTerraria_1_1ModLoader_1_1IO_1_1ItemIO_acb34dd650cec49c955ce0297fe6d0ce1.html#acb34dd650cec49c955ce0297fe6d0ce1" target="_top" xlink:title=" ">
<polygon fill="white" stroke="#666666" points="802,-427 653,-427 653,-397 802,-397 802,-427"/>
<text text-anchor="start" x="661" y="-415" font-family="Helvetica,sans-Serif" font-size="10.00">Terraria.ModLoader.IO.Item</text>
<text text-anchor="middle" x="727.5" y="-404" font-family="Helvetica,sans-Serif" font-size="10.00">IO.Send</text>
</a>
</g>
</g>
<!-- Node2&#45;&gt;Node25 -->
<g id="edge25_Node000002_Node000025" class="edge">
<title>Node2&#45;&gt;Node25</title>
<g id="a_edge25_Node000002_Node000025"><a xlink:title=" ">
<path fill="none" stroke="#63b8ff" d="M357.59,-445.48C380.44,-440.41 409.68,-434.51 436,-431 505.24,-421.77 584.38,-416.97 642.56,-414.5"/>
<polygon fill="#63b8ff" stroke="#63b8ff" points="642.96,-417.99 652.8,-414.08 642.67,-410.99 642.96,-417.99"/>
</a>
</g>
</g>
<!-- Node26 -->
<g id="Node000026" class="node">
<title>Node26</title>
<g id="a_Node000026"><a xlink:href="../../d0/d8b/classTerraria_1_1ModLoader_1_1IO_1_1ItemIO_a9d5e51fc32478bea6653b3b43783a57b.html#a9d5e51fc32478bea6653b3b43783a57b" target="_top" xlink:title=" ">
<polygon fill="white" stroke="#666666" points="1016.5,-468 867.5,-468 867.5,-438 1016.5,-438 1016.5,-468"/>
<text text-anchor="start" x="875.5" y="-456" font-family="Helvetica,sans-Serif" font-size="10.00">Terraria.ModLoader.IO.Item</text>
<text text-anchor="middle" x="942" y="-445" font-family="Helvetica,sans-Serif" font-size="10.00">IO.SendModData</text>
</a>
</g>
</g>
<!-- Node2&#45;&gt;Node26 -->
<g id="edge32_Node000002_Node000026" class="edge">
<title>Node2&#45;&gt;Node26</title>
<g id="a_edge32_Node000002_Node000026"><a xlink:title=" ">
<path fill="none" stroke="#63b8ff" d="M354.83,-464.55C378.02,-469.99 408.54,-476.25 436,-479 602.29,-495.67 645.59,-489.5 812,-474 826.59,-472.64 842.04,-470.63 856.97,-468.38"/>
<polygon fill="#63b8ff" stroke="#63b8ff" points="857.86,-471.79 867.21,-466.8 856.79,-464.87 857.86,-471.79"/>
</a>
</g>
</g>
<!-- Node27 -->
<g id="Node000027" class="node">
<title>Node27</title>
<g id="a_Node000027"><a xlink:href="../../dd/de0/classTerraria_1_1ModLoader_1_1BiomeLoader_a29df870ca6244b82963eeb5ce278f179.html#a29df870ca6244b82963eeb5ce278f179" target="_top" xlink:title=" ">
<polygon fill="white" stroke="#666666" points="596.5,-470 446.5,-470 446.5,-440 596.5,-440 596.5,-470"/>
<text text-anchor="start" x="454.5" y="-458" font-family="Helvetica,sans-Serif" font-size="10.00">Terraria.ModLoader.Biome</text>
<text text-anchor="middle" x="521.5" y="-447" font-family="Helvetica,sans-Serif" font-size="10.00">Loader.SendCustomBiomes</text>
</a>
</g>
</g>
<!-- Node2&#45;&gt;Node27 -->
<g id="edge27_Node000002_Node000027" class="edge">
<title>Node2&#45;&gt;Node27</title>
<g id="a_edge27_Node000002_Node000027"><a xlink:title=" ">
<path fill="none" stroke="#63b8ff" d="M400.07,-455C412.07,-455 424.45,-455 436.48,-455"/>
<polygon fill="#63b8ff" stroke="#63b8ff" points="436.49,-458.5 446.49,-455 436.49,-451.5 436.49,-458.5"/>
</a>
</g>
</g>
<!-- Node29 -->
<g id="Node000029" class="node">
<title>Node29</title>
<g id="a_Node000029"><a xlink:href="../../dd/dc6/classTerraria_1_1ModLoader_1_1NPCLoader_ad20200fbeb8230fb9fa1026ab0e76aa0.html#ad20200fbeb8230fb9fa1026ab0e76aa0" target="_top" xlink:title=" ">
<polygon fill="white" stroke="#666666" points="605.5,-384 437.5,-384 437.5,-354 605.5,-354 605.5,-384"/>
<text text-anchor="start" x="445.5" y="-372" font-family="Helvetica,sans-Serif" font-size="10.00">Terraria.ModLoader.NPCLoader.</text>
<text text-anchor="middle" x="521.5" y="-361" font-family="Helvetica,sans-Serif" font-size="10.00">SendExtraAI</text>
</a>
</g>
</g>
<!-- Node2&#45;&gt;Node29 -->
<g id="edge29_Node000002_Node000029" class="edge">
<title>Node2&#45;&gt;Node29</title>
<g id="a_edge29_Node000002_Node000029"><a xlink:title=" ">
<path fill="none" stroke="#63b8ff" d="M335.67,-445.43C358.67,-433.51 399.67,-412.91 436,-398 444.84,-394.37 454.32,-390.81 463.61,-387.49"/>
<polygon fill="#63b8ff" stroke="#63b8ff" points="464.92,-390.74 473.2,-384.13 462.61,-384.14 464.92,-390.74"/>
</a>
</g>
</g>
<!-- Node30 -->
<g id="Node000030" class="node">
<title>Node30</title>
<g id="a_Node000030"><a xlink:href="../../dd/d93/classTerraria_1_1ModLoader_1_1ProjectileLoader_a785fe46f6008e62910dd244542345a24.html#a785fe46f6008e62910dd244542345a24" target="_top" xlink:title=" ">
<polygon fill="white" stroke="#666666" points="600.5,-336 442.5,-336 442.5,-306 600.5,-306 600.5,-336"/>
<text text-anchor="start" x="450.5" y="-324" font-family="Helvetica,sans-Serif" font-size="10.00">Terraria.ModLoader.Projectile</text>
<text text-anchor="middle" x="521.5" y="-313" font-family="Helvetica,sans-Serif" font-size="10.00">Loader.SendExtraAI</text>
</a>
</g>
</g>
<!-- Node2&#45;&gt;Node30 -->
<g id="edge30_Node000002_Node000030" class="edge">
<title>Node2&#45;&gt;Node30</title>
<g id="a_edge30_Node000002_Node000030"><a xlink:title=" ">
<path fill="none" stroke="#63b8ff" d="M325.01,-445.46C342.27,-424.18 387.07,-372.53 436,-345 439.25,-343.17 442.65,-341.48 446.14,-339.9"/>
<polygon fill="#63b8ff" stroke="#63b8ff" points="447.64,-343.06 455.55,-336.01 444.97,-336.6 447.64,-343.06"/>
</a>
</g>
</g>
<!-- Node31 -->
<g id="Node000031" class="node">
<title>Node31</title>
<g id="a_Node000031"><a xlink:href="../../d3/d8e/classTerraria_1_1ModLoader_1_1IO_1_1WorldIO_a800edd3907ce891c4cba1af54ee5ba20.html#a800edd3907ce891c4cba1af54ee5ba20" target="_top" xlink:title=" ">
<polygon fill="white" stroke="#666666" points="598.5,-288 444.5,-288 444.5,-258 598.5,-258 598.5,-288"/>
<text text-anchor="start" x="452.5" y="-276" font-family="Helvetica,sans-Serif" font-size="10.00">Terraria.ModLoader.IO.World</text>
<text text-anchor="middle" x="521.5" y="-265" font-family="Helvetica,sans-Serif" font-size="10.00">IO.SendModData</text>
</a>
</g>
</g>
<!-- Node2&#45;&gt;Node31 -->
<g id="edge31_Node000002_Node000031" class="edge">
<title>Node2&#45;&gt;Node31</title>
<g id="a_edge31_Node000002_Node000031"><a xlink:title=" ">
<path fill="none" stroke="#63b8ff" d="M321.85,-445.48C334.93,-417.97 376.65,-337.78 436,-297 438.28,-295.43 440.66,-293.97 443.11,-292.6"/>
<polygon fill="#63b8ff" stroke="#63b8ff" points="444.88,-295.63 452.28,-288.05 441.77,-289.36 444.88,-295.63"/>
</a>
</g>
</g>
<!-- Node32 -->
<g id="Node000032" class="node">
<title>Node32</title>
<g id="a_Node000032"><a xlink:href="../../d0/da6/classTerraria_1_1ModLoader_1_1Logging_ab70d2a6a87eaae1d1ea2b6df62b255ec.html#ab70d2a6a87eaae1d1ea2b6df62b255ec" target="_top" xlink:title=" ">
<polygon fill="white" stroke="#666666" points="598.5,-222 444.5,-222 444.5,-192 598.5,-192 598.5,-222"/>
<text text-anchor="start" x="452.5" y="-210" font-family="Helvetica,sans-Serif" font-size="10.00">Terraria.ModLoader.Logging.</text>
<text text-anchor="middle" x="521.5" y="-199" font-family="Helvetica,sans-Serif" font-size="10.00">ServerConsoleLine</text>
</a>
</g>
</g>
<!-- Node2&#45;&gt;Node32 -->
<g id="edge33_Node000002_Node000032" class="edge">
<title>Node2&#45;&gt;Node32</title>
<g id="a_edge33_Node000002_Node000032"><a xlink:title=" ">
<path fill="none" stroke="#63b8ff" d="M320.83,-445.07C332.09,-412.81 371.7,-309.51 436,-249 445.51,-240.05 457.29,-232.61 469,-226.59"/>
<polygon fill="#63b8ff" stroke="#63b8ff" points="470.86,-229.58 478.33,-222.08 467.81,-223.28 470.86,-229.58"/>
</a>
</g>
</g>
<!-- Node33 -->
<g id="Node000033" class="node">
<title>Node33</title>
<g id="a_Node000033"><a xlink:href="../../d2/dfe/classTerraria_1_1NetMessage_a17488582dd5650d9c0f793be3cc79b2a.html#a17488582dd5650d9c0f793be3cc79b2a" target="_top" xlink:title=" ">
<polygon fill="white" stroke="#666666" points="594.5,-174 448.5,-174 448.5,-144 594.5,-144 594.5,-174"/>
<text text-anchor="start" x="456.5" y="-162" font-family="Helvetica,sans-Serif" font-size="10.00">Terraria.NetMessage.Write</text>
<text text-anchor="middle" x="521.5" y="-151" font-family="Helvetica,sans-Serif" font-size="10.00">AccessoryVisibility</text>
</a>
</g>
</g>
<!-- Node2&#45;&gt;Node33 -->
<g id="edge36_Node000002_Node000033" class="edge">
<title>Node2&#45;&gt;Node33</title>
<g id="a_edge36_Node000002_Node000033"><a xlink:title=" ">
<path fill="none" stroke="#63b8ff" d="M318.73,-445.34C324.25,-406.19 350.29,-257.92 436,-183 437.34,-181.83 438.74,-180.71 440.18,-179.65"/>
<polygon fill="#63b8ff" stroke="#63b8ff" points="442.3,-182.45 448.88,-174.14 438.56,-176.53 442.3,-182.45"/>
</a>
</g>
</g>
<!-- Node34 -->
<g id="Node000034" class="node">
<title>Node34</title>
<g id="a_Node000034"><a xlink:href="../../dd/dc6/classTerraria_1_1ModLoader_1_1NPCLoader_acd7b32d09b1fce4d0690d6bae683d829.html#acd7b32d09b1fce4d0690d6bae683d829" target="_top" xlink:title=" ">
<polygon fill="white" stroke="#666666" points="605.5,-126 437.5,-126 437.5,-96 605.5,-96 605.5,-126"/>
<text text-anchor="start" x="445.5" y="-114" font-family="Helvetica,sans-Serif" font-size="10.00">Terraria.ModLoader.NPCLoader.</text>
<text text-anchor="middle" x="521.5" y="-103" font-family="Helvetica,sans-Serif" font-size="10.00">WriteExtraAI</text>
</a>
</g>
</g>
<!-- Node2&#45;&gt;Node34 -->
<g id="edge37_Node000002_Node000034" class="edge">
<title>Node2&#45;&gt;Node34</title>
<g id="a_edge37_Node000002_Node000034"><a xlink:title=" ">
<path fill="none" stroke="#63b8ff" d="M318.03,-445.47C320.92,-402.53 338.58,-225.11 436,-135 437.15,-133.93 438.35,-132.91 439.59,-131.94"/>
<polygon fill="#63b8ff" stroke="#63b8ff" points="441.9,-134.6 448.26,-126.13 438,-128.79 441.9,-134.6"/>
</a>
</g>
</g>
<!-- Node35 -->
<g id="Node000035" class="node">
<title>Node35</title>
<g id="a_Node000035"><a xlink:href="../../dd/d93/classTerraria_1_1ModLoader_1_1ProjectileLoader_ad728f89b264d8327c66389f62f4d6a6b.html#ad728f89b264d8327c66389f62f4d6a6b" target="_top" xlink:title=" ">
<polygon fill="white" stroke="#666666" points="600.5,-78 442.5,-78 442.5,-48 600.5,-48 600.5,-78"/>
<text text-anchor="start" x="450.5" y="-66" font-family="Helvetica,sans-Serif" font-size="10.00">Terraria.ModLoader.Projectile</text>
<text text-anchor="middle" x="521.5" y="-55" font-family="Helvetica,sans-Serif" font-size="10.00">Loader.WriteExtraAI</text>
</a>
</g>
</g>
<!-- Node2&#45;&gt;Node35 -->
<g id="edge38_Node000002_Node000035" class="edge">
<title>Node2&#45;&gt;Node35</title>
<g id="a_edge38_Node000002_Node000035"><a xlink:title=" ">
<path fill="none" stroke="#63b8ff" d="M317.51,-445.36C318.07,-398.5 326.89,-192.38 436,-87 437.1,-85.94 438.24,-84.93 439.42,-83.96"/>
<polygon fill="#63b8ff" stroke="#63b8ff" points="441.5,-86.77 447.69,-78.18 437.49,-81.03 441.5,-86.77"/>
</a>
</g>
</g>
<!-- Node36 -->
<g id="Node000036" class="node">
<title>Node36</title>
<g id="a_Node000036"><a xlink:href="../../d9/d9b/classTerraria_1_1DataStructures_1_1PlayerDeathReason_a9b526c38a2136beee6ac5ae5a6e8faa7.html#a9b526c38a2136beee6ac5ae5a6e8faa7" target="_top" xlink:title=" ">
<polygon fill="white" stroke="#666666" points="607,-30 436,-30 436,0 607,0 607,-30"/>
<text text-anchor="start" x="444" y="-18" font-family="Helvetica,sans-Serif" font-size="10.00">Terraria.DataStructures.</text>
<text text-anchor="middle" x="521.5" y="-7" font-family="Helvetica,sans-Serif" font-size="10.00">PlayerDeathReason.WriteSelfTo</text>
</a>
</g>
</g>
<!-- Node2&#45;&gt;Node36 -->
<g id="edge39_Node000002_Node000036" class="edge">
<title>Node2&#45;&gt;Node36</title>
<g id="a_edge39_Node000002_Node000036"><a xlink:title=" ">
<path fill="none" stroke="#63b8ff" d="M317.09,-445.17C315.51,-394.42 315.15,-159.76 436,-39 437.08,-37.92 438.2,-36.89 439.37,-35.91"/>
<polygon fill="#63b8ff" stroke="#63b8ff" points="441.46,-38.71 447.56,-30.05 437.39,-33.02 441.46,-38.71"/>
</a>
</g>
</g>
<!-- Node4 -->
<g id="Node000004" class="node">
<title>Node4</title>
<g id="a_Node000004"><a xlink:href="../../d2/dfe/classTerraria_1_1NetMessage_ae9163ccde925a89a178879cda0866701.html#ae9163ccde925a89a178879cda0866701" target="_top" xlink:title=" ">
<polygon fill="white" stroke="#666666" points="812,-962 643,-962 643,-932 812,-932 812,-962"/>
<text text-anchor="start" x="651" y="-950" font-family="Helvetica,sans-Serif" font-size="10.00">Terraria.NetMessage.Compress</text>
<text text-anchor="middle" x="727.5" y="-939" font-family="Helvetica,sans-Serif" font-size="10.00">TileBlock_Inner</text>
</a>
</g>
</g>
<!-- Node3&#45;&gt;Node4 -->
<g id="edge3_Node000003_Node000004" class="edge">
<title>Node3&#45;&gt;Node4</title>
<g id="a_edge3_Node000003_Node000004"><a xlink:title=" ">
<path fill="none" stroke="#63b8ff" d="M605.47,-925.05C614.71,-926.72 624.16,-928.44 633.51,-930.13"/>
<polygon fill="#63b8ff" stroke="#63b8ff" points="633.13,-933.62 643.6,-931.96 634.38,-926.74 633.13,-933.62"/>
</a>
</g>
</g>
<!-- Node5 -->
<g id="Node000005" class="node">
<title>Node5</title>
<g id="a_Node000005"><a xlink:href="../../d9/d66/classTerraria_1_1GameContent_1_1Tile__Entities_1_1TEDisplayDoll_acb24e981caea1cd0c432ac84c9261c1c.html#acb24e981caea1cd0c432ac84c9261c1c" target="_top" xlink:title=" ">
<polygon fill="white" stroke="#666666" points="1018.5,-1058 865.5,-1058 865.5,-1028 1018.5,-1028 1018.5,-1058"/>
<text text-anchor="start" x="873.5" y="-1046" font-family="Helvetica,sans-Serif" font-size="10.00">Terraria.GameContent.Tile</text>
<text text-anchor="middle" x="942" y="-1035" font-family="Helvetica,sans-Serif" font-size="10.00">_Entities.TEDisplayDoll.Find</text>
</a>
</g>
</g>
<!-- Node4&#45;&gt;Node5 -->
<g id="edge4_Node000004_Node000005" class="edge">
<title>Node4&#45;&gt;Node5</title>
<g id="a_edge4_Node000004_Node000005"><a xlink:title=" ">
<path fill="none" stroke="#63b8ff" d="M749.52,-962.26C772.63,-978.4 811.37,-1003.63 848,-1019 853,-1021.1 858.22,-1023.05 863.54,-1024.86"/>
<polygon fill="#63b8ff" stroke="#63b8ff" points="862.59,-1028.23 873.18,-1027.96 864.74,-1021.57 862.59,-1028.23"/>
</a>
</g>
</g>
<!-- Node6 -->
<g id="Node000006" class="node">
<title>Node6</title>
<g id="a_Node000006"><a xlink:href="../../df/d58/classTerraria_1_1GameContent_1_1Tile__Entities_1_1TEFoodPlatter_ab824c4ec25da97eb7b211ec27d652546.html#ab824c4ec25da97eb7b211ec27d652546" target="_top" xlink:title=" ">
<polygon fill="white" stroke="#666666" points="1018,-1010 866,-1010 866,-980 1018,-980 1018,-1010"/>
<text text-anchor="start" x="874" y="-998" font-family="Helvetica,sans-Serif" font-size="10.00">Terraria.GameContent.Tile</text>
<text text-anchor="middle" x="942" y="-987" font-family="Helvetica,sans-Serif" font-size="10.00">_Entities.TEFoodPlatter.Find</text>
</a>
</g>
</g>
<!-- Node4&#45;&gt;Node6 -->
<g id="edge5_Node000004_Node000006" class="edge">
<title>Node4&#45;&gt;Node6</title>
<g id="a_edge5_Node000004_Node000006"><a xlink:title=" ">
<path fill="none" stroke="#63b8ff" d="M795.15,-962.06C817.21,-967.04 841.92,-972.62 864.64,-977.75"/>
<polygon fill="#63b8ff" stroke="#63b8ff" points="864.06,-981.21 874.58,-980 865.6,-974.38 864.06,-981.21"/>
</a>
</g>
</g>
<!-- Node7 -->
<g id="Node000007" class="node">
<title>Node7</title>
<g id="a_Node000007"><a xlink:href="../../d3/d99/classTerraria_1_1GameContent_1_1Tile__Entities_1_1TEHatRack_a0af7e34a07c3d2ba64ef18aca9013ff5.html#a0af7e34a07c3d2ba64ef18aca9013ff5" target="_top" xlink:title=" ">
<polygon fill="white" stroke="#666666" points="1014.5,-962 869.5,-962 869.5,-932 1014.5,-932 1014.5,-962"/>
<text text-anchor="start" x="877.5" y="-950" font-family="Helvetica,sans-Serif" font-size="10.00">Terraria.GameContent.Tile</text>
<text text-anchor="middle" x="942" y="-939" font-family="Helvetica,sans-Serif" font-size="10.00">_Entities.TEHatRack.Find</text>
</a>
</g>
</g>
<!-- Node4&#45;&gt;Node7 -->
<g id="edge6_Node000004_Node000007" class="edge">
<title>Node4&#45;&gt;Node7</title>
<g id="a_edge6_Node000004_Node000007"><a xlink:title=" ">
<path fill="none" stroke="#63b8ff" d="M812.18,-947C827.71,-947 843.91,-947 859.38,-947"/>
<polygon fill="#63b8ff" stroke="#63b8ff" points="859.42,-950.5 869.42,-947 859.42,-943.5 859.42,-950.5"/>
</a>
</g>
</g>
<!-- Node8 -->
<g id="Node000008" class="node">
<title>Node8</title>
<g id="a_Node000008"><a xlink:href="../../d5/dad/classTerraria_1_1GameContent_1_1Tile__Entities_1_1TEItemFrame_a736981b810e7aa34c25f1ea4e0ec0c4d.html#a736981b810e7aa34c25f1ea4e0ec0c4d" target="_top" xlink:title=" ">
<polygon fill="white" stroke="#666666" points="1017,-914 867,-914 867,-884 1017,-884 1017,-914"/>
<text text-anchor="start" x="875" y="-902" font-family="Helvetica,sans-Serif" font-size="10.00">Terraria.GameContent.Tile</text>
<text text-anchor="middle" x="942" y="-891" font-family="Helvetica,sans-Serif" font-size="10.00">_Entities.TEItemFrame.Find</text>
</a>
</g>
</g>
<!-- Node4&#45;&gt;Node8 -->
<g id="edge7_Node000004_Node000008" class="edge">
<title>Node4&#45;&gt;Node8</title>
<g id="a_edge7_Node000004_Node000008"><a xlink:title=" ">
<path fill="none" stroke="#63b8ff" d="M795.15,-931.94C817.21,-926.96 841.92,-921.38 864.64,-916.25"/>
<polygon fill="#63b8ff" stroke="#63b8ff" points="865.6,-919.62 874.58,-914 864.06,-912.79 865.6,-919.62"/>
</a>
</g>
</g>
<!-- Node9 -->
<g id="Node000009" class="node">
<title>Node9</title>
<g id="a_Node000009"><a xlink:href="../../d8/d19/classTerraria_1_1GameContent_1_1Tile__Entities_1_1TETeleportationPylon_a6fc24a8a3539899124e211733cc4f81c.html#a6fc24a8a3539899124e211733cc4f81c" target="_top" xlink:title=" ">
<polygon fill="white" stroke="#666666" points="1036,-866 848,-866 848,-836 1036,-836 1036,-866"/>
<text text-anchor="start" x="856" y="-854" font-family="Helvetica,sans-Serif" font-size="10.00">Terraria.GameContent.Tile</text>
<text text-anchor="middle" x="942" y="-843" font-family="Helvetica,sans-Serif" font-size="10.00">_Entities.TETeleportationPylon.Find</text>
</a>
</g>
</g>
<!-- Node4&#45;&gt;Node9 -->
<g id="edge8_Node000004_Node000009" class="edge">
<title>Node4&#45;&gt;Node9</title>
<g id="a_edge8_Node000004_Node000009"><a xlink:title=" ">
<path fill="none" stroke="#63b8ff" d="M749.52,-931.74C772.63,-915.6 811.37,-890.37 848,-875 853,-872.9 858.22,-870.95 863.54,-869.14"/>
<polygon fill="#63b8ff" stroke="#63b8ff" points="864.74,-872.43 873.18,-866.04 862.59,-865.77 864.74,-872.43"/>
</a>
</g>
</g>
<!-- Node10 -->
<g id="Node000010" class="node">
<title>Node10</title>
<g id="a_Node000010"><a xlink:href="../../d1/dea/classTerraria_1_1GameContent_1_1Tile__Entities_1_1TETrainingDummy_ab9fb96c6f00d653644d815bbdf50f66a.html#ab9fb96c6f00d653644d815bbdf50f66a" target="_top" xlink:title=" ">
<polygon fill="white" stroke="#666666" points="1028.5,-818 855.5,-818 855.5,-788 1028.5,-788 1028.5,-818"/>
<text text-anchor="start" x="863.5" y="-806" font-family="Helvetica,sans-Serif" font-size="10.00">Terraria.GameContent.Tile</text>
<text text-anchor="middle" x="942" y="-795" font-family="Helvetica,sans-Serif" font-size="10.00">_Entities.TETrainingDummy.Find</text>
</a>
</g>
</g>
<!-- Node4&#45;&gt;Node10 -->
<g id="edge9_Node000004_Node000010" class="edge">
<title>Node4&#45;&gt;Node10</title>
<g id="a_edge9_Node000004_Node000010"><a xlink:title=" ">
<path fill="none" stroke="#63b8ff" d="M739.16,-931.91C758.07,-906.31 800.03,-854.47 848,-827 851.06,-825.25 854.25,-823.62 857.52,-822.11"/>
<polygon fill="#63b8ff" stroke="#63b8ff" points="859.08,-825.26 866.95,-818.16 856.37,-818.8 859.08,-825.26"/>
</a>
</g>
</g>
<!-- Node11 -->
<g id="Node000011" class="node">
<title>Node11</title>
<g id="a_Node000011"><a xlink:href="../../d6/db4/classTerraria_1_1GameContent_1_1Tile__Entities_1_1TEWeaponsRack_aa3987ebaf1e3db83e347561e6bb8c801.html#aa3987ebaf1e3db83e347561e6bb8c801" target="_top" xlink:title=" ">
<polygon fill="white" stroke="#666666" points="1024.5,-1181 859.5,-1181 859.5,-1151 1024.5,-1151 1024.5,-1181"/>
<text text-anchor="start" x="867.5" y="-1169" font-family="Helvetica,sans-Serif" font-size="10.00">Terraria.GameContent.Tile</text>
<text text-anchor="middle" x="942" y="-1158" font-family="Helvetica,sans-Serif" font-size="10.00">_Entities.TEWeaponsRack.Find</text>
</a>
</g>
</g>
<!-- Node4&#45;&gt;Node11 -->
<g id="edge10_Node000004_Node000011" class="edge">
<title>Node4&#45;&gt;Node11</title>
<g id="a_edge10_Node000004_Node000011"><a xlink:title=" ">
<path fill="none" stroke="#63b8ff" d="M733.32,-962.18C745.84,-999.07 783.04,-1093.96 848,-1142 850.05,-1143.52 852.19,-1144.94 854.4,-1146.27"/>
<polygon fill="#63b8ff" stroke="#63b8ff" points="852.76,-1149.36 863.23,-1150.98 856.05,-1143.19 852.76,-1149.36"/>
</a>
</g>
</g>
<!-- Node12 -->
<g id="Node000012" class="node">
<title>Node12</title>
<g id="a_Node000012"><a xlink:href="../../dc/ddf/classTerraria_1_1Chest_acd6e0360d9c88e1b967580124250a028.html#acd6e0360d9c88e1b967580124250a028" target="_top" xlink:title="Tries to find a T:Terraria.Chest located at (X , Y ) (tile coordinates).">
<polygon fill="white" stroke="#666666" points="1009.5,-1132.5 874.5,-1132.5 874.5,-1113.5 1009.5,-1113.5 1009.5,-1132.5"/>
<text text-anchor="middle" x="942" y="-1120.5" font-family="Helvetica,sans-Serif" font-size="10.00">Terraria.Chest.FindChest</text>
</a>
</g>
</g>
<!-- Node4&#45;&gt;Node12 -->
<g id="edge11_Node000004_Node000012" class="edge">
<title>Node4&#45;&gt;Node12</title>
<g id="a_edge11_Node000004_Node000012"><a xlink:title=" ">
<path fill="none" stroke="#63b8ff" d="M735.22,-962.11C750.33,-994.17 790.2,-1068.99 848,-1105 853.1,-1108.18 858.63,-1110.81 864.38,-1113"/>
<polygon fill="#63b8ff" stroke="#63b8ff" points="863.61,-1116.43 874.2,-1116.27 865.82,-1109.79 863.61,-1116.43"/>
</a>
</g>
</g>
<!-- Node13 -->
<g id="Node000013" class="node">
<title>Node13</title>
<g id="a_Node000013"><a xlink:href="../../dd/d21/classTerraria_1_1Sign_a29027ab23c41a6dfb30ae54caa2be2f7.html#a29027ab23c41a6dfb30ae54caa2be2f7" target="_top" xlink:title=" ">
<polygon fill="white" stroke="#666666" points="1005,-1095.5 879,-1095.5 879,-1076.5 1005,-1076.5 1005,-1095.5"/>
<text text-anchor="middle" x="942" y="-1083.5" font-family="Helvetica,sans-Serif" font-size="10.00">Terraria.Sign.ReadSign</text>
</a>
</g>
</g>
<!-- Node4&#45;&gt;Node13 -->
<g id="edge12_Node000004_Node000013" class="edge">
<title>Node4&#45;&gt;Node13</title>
<g id="a_edge12_Node000004_Node000013"><a xlink:title=" ">
<path fill="none" stroke="#63b8ff" d="M739.02,-962.35C757.71,-988.35 799.35,-1040.77 848,-1067 854.48,-1070.5 861.53,-1073.35 868.76,-1075.68"/>
<polygon fill="#63b8ff" stroke="#63b8ff" points="868.11,-1079.13 878.69,-1078.54 870.05,-1072.41 868.11,-1079.13"/>
</a>
</g>
</g>
<!-- Node4&#45;&gt;Node15 -->
<g id="edge14_Node000004_Node000015" class="edge">
<title>Node4&#45;&gt;Node15</title>
<g id="a_edge14_Node000004_Node000015"><a xlink:title=" ">
<path fill="none" stroke="#63b8ff" d="M734.8,-931.98C749.46,-898.89 789.17,-819.47 848,-779 853.63,-775.13 859.84,-771.88 866.3,-769.15"/>
<polygon fill="#63b8ff" stroke="#63b8ff" points="867.79,-772.33 875.91,-765.53 865.32,-765.79 867.79,-772.33"/>
</a>
</g>
</g>
<!-- Node14 -->
<g id="Node000014" class="node">
<title>Node14</title>
<g id="a_Node000014"><a xlink:href="../../dd/d21/classTerraria_1_1Sign_abdb027ce4747b58504b4900b6ea459d9.html#abdb027ce4747b58504b4900b6ea459d9" target="_top" xlink:title=" ">
<polygon fill="white" stroke="#666666" points="1189,-1095.5 1072,-1095.5 1072,-1076.5 1189,-1076.5 1189,-1095.5"/>
<text text-anchor="middle" x="1130.5" y="-1083.5" font-family="Helvetica,sans-Serif" font-size="10.00">Terraria.Sign.KillSign</text>
</a>
</g>
</g>
<!-- Node13&#45;&gt;Node14 -->
<g id="edge13_Node000013_Node000014" class="edge">
<title>Node13&#45;&gt;Node14</title>
<g id="a_edge13_Node000013_Node000014"><a xlink:title=" ">
<path fill="none" stroke="#63b8ff" d="M1005.1,-1086C1023.25,-1086 1043.18,-1086 1061.66,-1086"/>
<polygon fill="#63b8ff" stroke="#63b8ff" points="1061.77,-1089.5 1071.77,-1086 1061.77,-1082.5 1061.77,-1089.5"/>
</a>
</g>
</g>
<!-- Node20 -->
<g id="Node000020" class="node">
<title>Node20</title>
<g id="a_Node000020"><a xlink:href="../../d1/da9/classTerraria_1_1ModLoader_1_1SystemLoader_ae99eb8c523f713e1b444bb0751fdac97.html#ae99eb8c523f713e1b444bb0751fdac97" target="_top" xlink:title=" ">
<polygon fill="white" stroke="#666666" points="802,-642 653,-642 653,-612 802,-612 802,-642"/>
<text text-anchor="start" x="661" y="-630" font-family="Helvetica,sans-Serif" font-size="10.00">Terraria.ModLoader.System</text>
<text text-anchor="middle" x="727.5" y="-619" font-family="Helvetica,sans-Serif" font-size="10.00">Loader.HijackSendData</text>
</a>
</g>
</g>
<!-- Node19&#45;&gt;Node20 -->
<g id="edge19_Node000019_Node000020" class="edge">
<title>Node19&#45;&gt;Node20</title>
<g id="a_edge19_Node000019_Node000020"><a xlink:title=" ">
<path fill="none" stroke="#63b8ff" d="M598.75,-627C612.96,-627 627.88,-627 642.31,-627"/>
<polygon fill="#63b8ff" stroke="#63b8ff" points="642.71,-630.5 652.71,-627 642.71,-623.5 642.71,-630.5"/>
</a>
</g>
</g>
<!-- Node23 -->
<g id="Node000023" class="node">
<title>Node23</title>
<g id="a_Node000023"><a xlink:href="../../df/d47/classTerraria_1_1ModLoader_1_1ModNet_a0887e1e6a5354d57bf79d5fb93bdb7da.html#a0887e1e6a5354d57bf79d5fb93bdb7da" target="_top" xlink:title=" ">
<polygon fill="white" stroke="#666666" points="804.5,-556 650.5,-556 650.5,-526 804.5,-526 804.5,-556"/>
<text text-anchor="start" x="658.5" y="-544" font-family="Helvetica,sans-Serif" font-size="10.00">Terraria.ModLoader.ModNet.</text>
<text text-anchor="middle" x="727.5" y="-533" font-family="Helvetica,sans-Serif" font-size="10.00">Debug</text>
</a>
</g>
</g>
<!-- Node22&#45;&gt;Node23 -->
<g id="edge22_Node000022_Node000023" class="edge">
<title>Node22&#45;&gt;Node23</title>
<g id="a_edge22_Node000022_Node000023"><a xlink:title=" ">
<path fill="none" stroke="#63b8ff" d="M598.75,-541C612.19,-541 626.26,-541 639.96,-541"/>
<polygon fill="#63b8ff" stroke="#63b8ff" points="640.34,-544.5 650.34,-541 640.34,-537.5 640.34,-544.5"/>
</a>
</g>
</g>
<!-- Node23&#45;&gt;Node23 -->
<g id="edge23_Node000023_Node000023" class="edge">
<title>Node23&#45;&gt;Node23</title>
<g id="a_edge23_Node000023_Node000023"><a xlink:title=" ">
<path fill="none" stroke="#63b8ff" d="M691.29,-556.28C683.24,-565.41 695.31,-574 727.5,-574 746.61,-574 758.63,-570.97 763.56,-566.6"/>
<polygon fill="#63b8ff" stroke="#63b8ff" points="767.06,-566.33 763.71,-556.28 760.06,-566.22 767.06,-566.33"/>
</a>
</g>
</g>
<!-- Node24 -->
<g id="Node000024" class="node">
<title>Node24</title>
<g id="a_Node000024"><a xlink:href="../../df/d47/classTerraria_1_1ModLoader_1_1ModNet_ac2c9d5a95be6bd79eeea20bdc9bd0d46.html#ac2c9d5a95be6bd79eeea20bdc9bd0d46" target="_top" xlink:title=" ">
<polygon fill="white" stroke="#666666" points="1019,-556 865,-556 865,-526 1019,-526 1019,-556"/>
<text text-anchor="start" x="873" y="-544" font-family="Helvetica,sans-Serif" font-size="10.00">Terraria.ModLoader.ModNet.</text>
<text text-anchor="middle" x="942" y="-533" font-family="Helvetica,sans-Serif" font-size="10.00">Identifier</text>
</a>
</g>
</g>
<!-- Node23&#45;&gt;Node24 -->
<g id="edge24_Node000023_Node000024" class="edge">
<title>Node23&#45;&gt;Node24</title>
<g id="a_edge24_Node000023_Node000024"><a xlink:title=" ">
<path fill="none" stroke="#63b8ff" d="M804.62,-541C820.79,-541 837.98,-541 854.51,-541"/>
<polygon fill="#63b8ff" stroke="#63b8ff" points="854.7,-544.5 864.7,-541 854.7,-537.5 854.7,-544.5"/>
</a>
</g>
</g>
<!-- Node25&#45;&gt;Node26 -->
<g id="edge26_Node000025_Node000026" class="edge">
<title>Node25&#45;&gt;Node26</title>
<g id="a_edge26_Node000025_Node000026"><a xlink:title=" ">
<path fill="none" stroke="#63b8ff" d="M802.23,-426.22C820.03,-429.66 839.18,-433.35 857.39,-436.87"/>
<polygon fill="#63b8ff" stroke="#63b8ff" points="856.92,-440.34 867.4,-438.8 858.25,-433.47 856.92,-440.34"/>
</a>
</g>
</g>
<!-- Node28 -->
<g id="Node000028" class="node">
<title>Node28</title>
<g id="a_Node000028"><a xlink:href="../../d1/d9c/classTerraria_1_1Utils_a77957b27eb38a437df68fbc4467ffc54.html#a77957b27eb38a437df68fbc4467ffc54" target="_top" xlink:title="Bit packs a BitArray in to a Byte Array and then sends the byte array.">
<polygon fill="white" stroke="#666666" points="800.5,-464.5 654.5,-464.5 654.5,-445.5 800.5,-445.5 800.5,-464.5"/>
<text text-anchor="middle" x="727.5" y="-452.5" font-family="Helvetica,sans-Serif" font-size="10.00">Terraria.Utils.SendBitArray</text>
</a>
</g>
</g>
<!-- Node27&#45;&gt;Node28 -->
<g id="edge28_Node000027_Node000028" class="edge">
<title>Node27&#45;&gt;Node28</title>
<g id="a_edge28_Node000027_Node000028"><a xlink:title=" ">
<path fill="none" stroke="#63b8ff" d="M596.73,-455C612.15,-455 628.48,-455 644.17,-455"/>
<polygon fill="#63b8ff" stroke="#63b8ff" points="644.37,-458.5 654.37,-455 644.37,-451.5 644.37,-458.5"/>
</a>
</g>
</g>
<!-- Node32&#45;&gt;Node32 -->
<g id="edge34_Node000032_Node000032" class="edge">
<title>Node32&#45;&gt;Node32</title>
<g id="a_edge34_Node000032_Node000032"><a xlink:title=" ">
<path fill="none" stroke="#63b8ff" d="M485.64,-222.28C477.67,-231.41 489.62,-240 521.5,-240 540.43,-240 552.33,-236.97 557.21,-232.6"/>
<polygon fill="#63b8ff" stroke="#63b8ff" points="560.71,-232.33 557.36,-222.28 553.71,-232.22 560.71,-232.33"/>
</a>
</g>
</g>
<!-- Node36&#45;&gt;Node25 -->
<g id="edge40_Node000036_Node000025" class="edge">
<title>Node36&#45;&gt;Node25</title>
<g id="a_edge40_Node000036_Node000025"><a xlink:title=" ">
<path fill="none" stroke="#63b8ff" d="M595.31,-30.18C599.54,-32.69 603.49,-35.61 607,-39 708.16,-136.85 723.86,-320.3 726.16,-386.97"/>
<polygon fill="#63b8ff" stroke="#63b8ff" points="722.66,-387.08 726.43,-396.98 729.66,-386.89 722.66,-387.08"/>
</a>
</g>
</g>
</g>
</svg>

<g id="navigator" transform="translate(0 0)" fill="#404254">
  <rect fill="#f2f5e9" fill-opacity="0.5" stroke="#606060" stroke-width=".5" x="0" y="0" width="60" height="60"/>
  <use id="zoomplus" xlink:href="#zoomPlus" x="17" y="9" onmousedown="handleZoom(evt,'in')"/>
  <use id="zoomminus" xlink:href="#zoomMin" x="42" y="9" onmousedown="handleZoom(evt,'out')"/>
  <use id="reset" xlink:href="#resetDef" x="30" y="36" onmousedown="handleReset()"/>
   <use id="arrowup" xlink:href="#arrowUp" x="0" y="0" onmousedown="handlePan(0,-1)"/>
  <use id="arrowright" xlink:href="#arrowRight" x="0" y="0" onmousedown="handlePan(1,0)"/>
  <use id="arrowdown" xlink:href="#arrowDown" x="0" y="0" onmousedown="handlePan(0,1)"/>
  <use id="arrowleft" xlink:href="#arrowLeft" x="0" y="0" onmousedown="handlePan(-1,0)"/>
</g>
<svg viewBox="0 0 15 15" width="100%" height="30px" preserveAspectRatio="xMaxYMin meet">
 <g id="arrow_out" transform="scale(0.3 0.3)">
  <a xlink:href="classTerraria_1_1GameContent_1_1ItemDropRules_1_1CommonCode_afade166870dd8c802be5863f2f54899a_afade166870dd8c802be5863f2f54899a_cgraph_org.svg" target="_base">
   <rect id="button" ry="5" rx="5" y="6" x="6" height="38" width="38"
        fill="#f2f5e9" fill-opacity="0.5" stroke="#606060" stroke-width="1.0"/>
   <path id="arrow"
     d="M 11.500037,31.436501 C 11.940474,20.09759 22.043105,11.32322 32.158766,21.979434 L 37.068811,17.246167 C 37.068811,17.246167 37.088388,32 37.088388,32 L 22.160133,31.978069 C 22.160133,31.978069 26.997745,27.140456 26.997745,27.140456 C 18.528582,18.264221 13.291696,25.230495 11.500037,31.436501 z"
     style="fill:#404040;"/>
  </a>
 </g>
</svg>

<style type='text/css'>
<![CDATA[
[data-mouse-over-selected='false'] { opacity: 0.7; }
[data-mouse-over-selected='true']  { opacity: 1.0; }
]]>
</style>
<script type="application/ecmascript"><![CDATA[
document.addEventListener('DOMContentLoaded', (event) => {
  highlightEdges();
  highlightAdjacentNodes();
});
]]></script>
</svg>
