<?xml version="1.0" encoding="UTF-8" standalone="no"?>
<!DOCTYPE svg PUBLIC "-//W3C//DTD SVG 1.1//EN"
 "http://www.w3.org/Graphics/SVG/1.1/DTD/svg11.dtd">
<!-- Generated by graphviz version 2.43.0 (0)
 -->
<!-- Title: Terraria.GameContent.Drawing.WallDrawing Pages: 1 -->
<!--zoomable 815 -->

<svg id="main" version="1.1" xmlns="http://www.w3.org/2000/svg" xmlns:xlink="http://www.w3.org/1999/xlink" xml:space="preserve" onload="init(evt)">
<style type="text/css"><![CDATA[
.node, .edge {opacity: 0.7;}
.node.selected, .edge.selected {opacity: 1;}
.edge:hover path { stroke: red; }
.edge:hover polygon { stroke: red; fill: red; }
]]></style>

<defs>
  <circle id="rim" cx="0" cy="0" r="7"/>
  <circle id="rim2" cx="0" cy="0" r="3.5"/>
  <g id="zoomPlus">
    <use xlink:href="#rim" fill="#404040"><set attributeName="fill" to="#808080" begin="zoomplus.mouseover" end="zoomplus.mouseout"/></use>
    <path d="M-4,0h8M0,-4v8" fill="none" stroke="white" stroke-width="1.5" pointer-events="none"/>
  </g>
  <g id="zoomMin">
    <use xlink:href="#rim" fill="#404040"><set attributeName="fill" to="#808080" begin="zoomminus.mouseover" end="zoomminus.mouseout"/></use>
    <path d="M-4,0h8" fill="none" stroke="white" stroke-width="1.5" pointer-events="none"/>
  </g>
  <g id="arrowUp" transform="translate(30 24)">
    <use xlink:href="#rim"/>
    <path pointer-events="none" fill="none" stroke="white" stroke-width="1.5" d="M0,-3.0v7 M-2.5,-0.5L0,-3.0L2.5,-0.5"/>
  </g>
  <g id="arrowRight" transform="rotate(90) translate(36 -43)">
    <use xlink:href="#rim"/>
    <path pointer-events="none" fill="none" stroke="white" stroke-width="1.5" d="M0,-3.0v7 M-2.5,-0.5L0,-3.0L2.5,-0.5"/>
  </g>
  <g id="arrowDown" transform="rotate(180) translate(-30 -48)">
    <use xlink:href="#rim"/>
    <path pointer-events="none" fill="none" stroke="white" stroke-width="1.5" d="M0,-3.0v7 M-2.5,-0.5L0,-3.0L2.5,-0.5"/>
  </g>
  <g id="arrowLeft" transform="rotate(270) translate(-36 17)">
    <use xlink:href="#rim"/>
    <path pointer-events="none" fill="none" stroke="white" stroke-width="1.5" d="M0,-3.0v7 M-2.5,-0.5L0,-3.0L2.5,-0.5"/>
  </g>
  <g id="resetDef">
    <use xlink:href="#rim2" fill="#404040"><set attributeName="fill" to="#808080" begin="reset.mouseover" end="reset.mouseout"/></use>
  </g>
</defs>
<script type="application/ecmascript">
var viewWidth = 1368;
var viewHeight = 815;
var sectionId = 'dynsection-0';
</script>
<script type="application/ecmascript" xlink:href="../../svg.min.js"/>
<svg id="graph" class="graph">
<g id="viewport">
<title>Terraria.GameContent.Drawing.WallDrawing</title>
<!-- Node1 -->
<g id="Node000001" class="node">
<title>Node1</title>
<g id="a_Node000001"><a xlink:title=" ">
<polygon fill="#999999" stroke="transparent" points="502,-201 331,-201 331,0 502,0 502,-201"/>
<text text-anchor="start" x="340" y="-188.5" font-family="Helvetica,sans-Serif" font-size="10.00">Terraria.GameContent.Drawing.</text>
<text text-anchor="start" x="386" y="-177.5" font-family="Helvetica,sans-Serif" font-size="10.00">WallDrawing</text>
<text text-anchor="start" x="415" y="-162.5" font-family="Helvetica,sans-Serif" font-size="10.00"> </text>
<text text-anchor="start" x="335.5" y="-147.5" font-family="Helvetica,sans-Serif" font-size="10.00">+</text>
<text text-anchor="start" x="348.5" y="-147.5" font-family="Helvetica,sans-Serif" font-size="10.00">void LerpVertexColorsWith</text>
<text text-anchor="start" x="348.5" y="-136.5" font-family="Helvetica,sans-Serif" font-size="10.00">Color(ref VertexColors</text>
<text text-anchor="start" x="348.5" y="-125.5" font-family="Helvetica,sans-Serif" font-size="10.00"> colors, Color lerpColor,</text>
<text text-anchor="start" x="348.5" y="-114.5" font-family="Helvetica,sans-Serif" font-size="10.00"> float percent)</text>
<text text-anchor="start" x="335.5" y="-99.5" font-family="Helvetica,sans-Serif" font-size="10.00">+</text>
<text text-anchor="start" x="348.5" y="-99.5" font-family="Helvetica,sans-Serif" font-size="10.00">WallDrawing(TilePaintSystem</text>
<text text-anchor="start" x="348.5" y="-88.5" font-family="Helvetica,sans-Serif" font-size="10.00">V2 paintSystem)</text>
<text text-anchor="start" x="335.5" y="-73.5" font-family="Helvetica,sans-Serif" font-size="10.00">+</text>
<text text-anchor="start" x="348.5" y="-73.5" font-family="Helvetica,sans-Serif" font-size="10.00">void Update()</text>
<text text-anchor="start" x="335.5" y="-58.5" font-family="Helvetica,sans-Serif" font-size="10.00">+</text>
<text text-anchor="start" x="348.5" y="-58.5" font-family="Helvetica,sans-Serif" font-size="10.00">void DrawWalls()</text>
<text text-anchor="start" x="335.5" y="-43.5" font-family="Helvetica,sans-Serif" font-size="10.00">#</text>
<text text-anchor="start" x="348.5" y="-43.5" font-family="Helvetica,sans-Serif" font-size="10.00">bool FullTile(int x,</text>
<text text-anchor="start" x="348.5" y="-32.5" font-family="Helvetica,sans-Serif" font-size="10.00"> int y)</text>
<text text-anchor="start" x="338" y="-17.5" font-family="Helvetica,sans-Serif" font-size="10.00">&#45;</text>
<text text-anchor="start" x="348.5" y="-17.5" font-family="Helvetica,sans-Serif" font-size="10.00">Texture2D GetTileDrawTexture</text>
<text text-anchor="start" x="348.5" y="-6.5" font-family="Helvetica,sans-Serif" font-size="10.00">(Tile tile, int tileX, int tileY)</text>
<polygon fill="#666666" stroke="#666666" points="331.5,-172.5 331.5,-172.5 502.5,-172.5 502.5,-172.5 331.5,-172.5"/>
<polygon fill="#666666" stroke="#666666" points="331.5,-157.5 331.5,-157.5 502.5,-157.5 502.5,-157.5 331.5,-157.5"/>
<polygon fill="none" stroke="#666666" points="331,0 331,-201 502,-201 502,0 331,0"/>
</a>
</g>
</g>
<!-- Node2 -->
<g id="Node000002" class="node">
<title>Node2</title>
<g id="a_Node000002"><a xlink:href="../../d0/d85/structTerraria_1_1Graphics_1_1VertexColors.html" target="_top" xlink:title=" ">
<polygon fill="white" stroke="transparent" points="147,-519 0,-519 0,-374 147,-374 147,-519"/>
<text text-anchor="start" x="15" y="-506.5" font-family="Helvetica,sans-Serif" font-size="10.00">Terraria.Graphics.Vertex</text>
<text text-anchor="start" x="58.5" y="-495.5" font-family="Helvetica,sans-Serif" font-size="10.00">Colors</text>
<text text-anchor="start" x="72" y="-480.5" font-family="Helvetica,sans-Serif" font-size="10.00"> </text>
<text text-anchor="start" x="4.5" y="-465.5" font-family="Helvetica,sans-Serif" font-size="10.00">+</text>
<text text-anchor="start" x="17.5" y="-465.5" font-family="Helvetica,sans-Serif" font-size="10.00">VertexColors(Color</text>
<text text-anchor="start" x="17.5" y="-454.5" font-family="Helvetica,sans-Serif" font-size="10.00"> color)</text>
<text text-anchor="start" x="4.5" y="-439.5" font-family="Helvetica,sans-Serif" font-size="10.00">+</text>
<text text-anchor="start" x="17.5" y="-439.5" font-family="Helvetica,sans-Serif" font-size="10.00">VertexColors(Color</text>
<text text-anchor="start" x="17.5" y="-428.5" font-family="Helvetica,sans-Serif" font-size="10.00"> topLeft, Color topRight,</text>
<text text-anchor="start" x="17.5" y="-417.5" font-family="Helvetica,sans-Serif" font-size="10.00"> Color bottomRight, Color</text>
<text text-anchor="start" x="17.5" y="-406.5" font-family="Helvetica,sans-Serif" font-size="10.00"> bottomLeft)</text>
<text text-anchor="start" x="4.5" y="-391.5" font-family="Helvetica,sans-Serif" font-size="10.00">+</text>
<text text-anchor="start" x="17.5" y="-391.5" font-family="Helvetica,sans-Serif" font-size="10.00">static implicit operator</text>
<text text-anchor="start" x="17.5" y="-380.5" font-family="Helvetica,sans-Serif" font-size="10.00"> VertexColors(Color color)</text>
<polygon fill="#666666" stroke="#666666" points="0.5,-490.5 0.5,-490.5 147.5,-490.5 147.5,-490.5 0.5,-490.5"/>
<polygon fill="#666666" stroke="#666666" points="0.5,-475.5 0.5,-475.5 147.5,-475.5 147.5,-475.5 0.5,-475.5"/>
<polygon fill="none" stroke="#666666" points="0,-374 0,-519 147,-519 147,-374 0,-374"/>
</a>
</g>
</g>
<!-- Node2&#45;&gt;Node1 -->
<g id="edge1_Node000001_Node000002" class="edge">
<title>Node2&#45;&gt;Node1</title>
<g id="a_edge1_Node000001_Node000002"><a xlink:title=" ">
<path fill="none" stroke="#63b8ff" d="M124.28,-373.62C153.36,-334.62 191.7,-286.63 230.5,-248 258.1,-220.52 290.75,-193.32 320.93,-169.95"/>
<polygon fill="none" stroke="#63b8ff" points="321.11,-169.81 323.43,-162.98 330.63,-162.5 328.31,-169.32 321.11,-169.81"/>
</a>
</g>
<text text-anchor="middle" x="305" y="-222" font-family="Helvetica,sans-Serif" font-size="10.00" fill="grey"> &#45;_glowPaintColors</text>
</g>
<!-- Node3 -->
<g id="Node000003" class="node">
<title>Node3</title>
<g id="a_Node000003"><a xlink:title=" ">
<polygon fill="white" stroke="transparent" points="53.5,-790.5 17.5,-790.5 17.5,-741.5 53.5,-741.5 53.5,-790.5"/>
<text text-anchor="start" x="22.5" y="-778" font-family="Helvetica,sans-Serif" font-size="10.00">Color</text>
<text text-anchor="start" x="33.5" y="-763" font-family="Helvetica,sans-Serif" font-size="10.00"> </text>
<text text-anchor="start" x="33.5" y="-748" font-family="Helvetica,sans-Serif" font-size="10.00"> </text>
<polygon fill="#666666" stroke="#666666" points="17.5,-773 17.5,-773 53.5,-773 53.5,-773 17.5,-773"/>
<polygon fill="#666666" stroke="#666666" points="17.5,-758 17.5,-758 53.5,-758 53.5,-758 17.5,-758"/>
<polygon fill="none" stroke="#666666" points="17.5,-741.5 17.5,-790.5 53.5,-790.5 53.5,-741.5 17.5,-741.5"/>
</a>
</g>
</g>
<!-- Node3&#45;&gt;Node2 -->
<g id="edge2_Node000002_Node000003" class="edge">
<title>Node3&#45;&gt;Node2</title>
<g id="a_edge2_Node000002_Node000003"><a xlink:title=" ">
<path fill="none" stroke="#63b8ff" d="M34.66,-741.45C34.18,-720.74 34.08,-689.81 36.5,-663 40.44,-619.31 48.36,-571.16 55.87,-531.48"/>
<polygon fill="none" stroke="#63b8ff" points="55.91,-531.23 53.12,-524.58 58.18,-519.45 60.97,-526.09 55.91,-531.23"/>
</a>
</g>
<text text-anchor="middle" x="84.5" y="-699" font-family="Helvetica,sans-Serif" font-size="10.00" fill="grey"> +BottomLeftColor</text>
<text text-anchor="middle" x="84.5" y="-688" font-family="Helvetica,sans-Serif" font-size="10.00" fill="grey">+BottomRightColor</text>
<text text-anchor="middle" x="84.5" y="-677" font-family="Helvetica,sans-Serif" font-size="10.00" fill="grey">+TopLeftColor</text>
<text text-anchor="middle" x="84.5" y="-666" font-family="Helvetica,sans-Serif" font-size="10.00" fill="grey">+TopRightColor</text>
</g>
<!-- Node4 -->
<g id="Node000004" class="node">
<title>Node4</title>
<g id="a_Node000004"><a xlink:href="../../d7/dea/structTerraria_1_1Tilemap.html" target="_top" xlink:title=" ">
<polygon fill="white" stroke="transparent" points="371,-499 240,-499 240,-394 371,-394 371,-499"/>
<text text-anchor="start" x="266" y="-486.5" font-family="Helvetica,sans-Serif" font-size="10.00">Terraria.Tilemap</text>
<text text-anchor="start" x="244.5" y="-471.5" font-family="Helvetica,sans-Serif" font-size="10.00">+</text>
<text text-anchor="start" x="257.5" y="-471.5" font-family="Helvetica,sans-Serif" font-size="10.00">Tile this[int x, int y]</text>
<text text-anchor="start" x="244.5" y="-456.5" font-family="Helvetica,sans-Serif" font-size="10.00">+</text>
<text text-anchor="start" x="257.5" y="-456.5" font-family="Helvetica,sans-Serif" font-size="10.00">Tile this[Point pos]</text>
<text text-anchor="start" x="244.5" y="-441.5" font-family="Helvetica,sans-Serif" font-size="10.00">+</text>
<text text-anchor="start" x="257.5" y="-441.5" font-family="Helvetica,sans-Serif" font-size="10.00">void ClearEverything()</text>
<text text-anchor="start" x="244.5" y="-426.5" font-family="Helvetica,sans-Serif" font-size="10.00">+</text>
<text text-anchor="start" x="257.5" y="-426.5" font-family="Helvetica,sans-Serif" font-size="10.00">T[] GetData&lt; T &gt;()</text>
<text text-anchor="start" x="244.5" y="-411.5" font-family="Helvetica,sans-Serif" font-size="10.00">~</text>
<text text-anchor="start" x="257.5" y="-411.5" font-family="Helvetica,sans-Serif" font-size="10.00">Tilemap(ushort width,</text>
<text text-anchor="start" x="257.5" y="-400.5" font-family="Helvetica,sans-Serif" font-size="10.00"> ushort height)</text>
<polygon fill="#666666" stroke="#666666" points="240.5,-481.5 240.5,-481.5 371.5,-481.5 371.5,-481.5 240.5,-481.5"/>
<polygon fill="#666666" stroke="#666666" points="240.5,-451.5 240.5,-451.5 255.5,-451.5 255.5,-451.5 240.5,-451.5"/>
<polygon fill="#666666" stroke="#666666" points="255.5,-451.5 255.5,-451.5 371.5,-451.5 371.5,-451.5 255.5,-451.5"/>
<polygon fill="none" stroke="#666666" points="240,-394 240,-499 371,-499 371,-394 240,-394"/>
</a>
</g>
</g>
<!-- Node4&#45;&gt;Node1 -->
<g id="edge3_Node000001_Node000004" class="edge">
<title>Node4&#45;&gt;Node1</title>
<g id="a_edge3_Node000001_Node000004"><a xlink:title=" ">
<path fill="none" stroke="#63b8ff" d="M322.12,-394C337.52,-346.28 360.94,-273.7 380.6,-212.77"/>
<polygon fill="none" stroke="#63b8ff" points="380.66,-212.57 378.7,-205.63 384.35,-201.15 386.31,-208.09 380.66,-212.57"/>
</a>
</g>
<text text-anchor="middle" x="404" y="-222" font-family="Helvetica,sans-Serif" font-size="10.00" fill="grey"> &#45;_tileArray</text>
</g>
<!-- Node5 -->
<g id="Node000005" class="node">
<title>Node5</title>
<g id="a_Node000005"><a xlink:title=" ">
<polygon fill="white" stroke="transparent" points="144,-790.5 103,-790.5 103,-741.5 144,-741.5 144,-790.5"/>
<text text-anchor="start" x="108.5" y="-778" font-family="Helvetica,sans-Serif" font-size="10.00">ushort</text>
<text text-anchor="start" x="122" y="-763" font-family="Helvetica,sans-Serif" font-size="10.00"> </text>
<text text-anchor="start" x="122" y="-748" font-family="Helvetica,sans-Serif" font-size="10.00"> </text>
<polygon fill="#666666" stroke="#666666" points="103.5,-773 103.5,-773 144.5,-773 144.5,-773 103.5,-773"/>
<polygon fill="#666666" stroke="#666666" points="103.5,-758 103.5,-758 144.5,-758 144.5,-758 103.5,-758"/>
<polygon fill="none" stroke="#666666" points="103,-741.5 103,-790.5 144,-790.5 144,-741.5 103,-741.5"/>
</a>
</g>
</g>
<!-- Node5&#45;&gt;Node4 -->
<g id="edge4_Node000004_Node000005" class="edge">
<title>Node5&#45;&gt;Node4</title>
<g id="a_edge4_Node000004_Node000005"><a xlink:title=" ">
<path fill="none" stroke="#63b8ff" d="M137.03,-741.4C164.85,-692.87 229.25,-580.52 269.88,-509.64"/>
<polygon fill="none" stroke="#63b8ff" points="269.97,-509.48 269.49,-502.28 275.94,-499.06 276.43,-506.26 269.97,-509.48"/>
</a>
</g>
<text text-anchor="middle" x="199.5" y="-688" font-family="Helvetica,sans-Serif" font-size="10.00" fill="grey"> +Height</text>
<text text-anchor="middle" x="199.5" y="-677" font-family="Helvetica,sans-Serif" font-size="10.00" fill="grey">+Width</text>
</g>
<!-- Node6 -->
<g id="Node000006" class="node">
<title>Node6</title>
<g id="a_Node000006"><a xlink:href="../../d7/d98/classTerraria_1_1GameContent_1_1TilePaintSystemV2.html" target="_top" xlink:title=" ">
<polygon fill="white" stroke="transparent" points="629.5,-645 427.5,-645 427.5,-248 629.5,-248 629.5,-645"/>
<text text-anchor="start" x="464" y="-632.5" font-family="Helvetica,sans-Serif" font-size="10.00">Terraria.GameContent.Tile</text>
<text text-anchor="start" x="491.5" y="-621.5" font-family="Helvetica,sans-Serif" font-size="10.00">PaintSystemV2</text>
<text text-anchor="start" x="526.5" y="-606.5" font-family="Helvetica,sans-Serif" font-size="10.00"> </text>
<text text-anchor="start" x="431.5" y="-591.5" font-family="Helvetica,sans-Serif" font-size="10.00">+</text>
<text text-anchor="start" x="444.5" y="-591.5" font-family="Helvetica,sans-Serif" font-size="10.00">void Reset()</text>
<text text-anchor="start" x="431.5" y="-576.5" font-family="Helvetica,sans-Serif" font-size="10.00">+</text>
<text text-anchor="start" x="444.5" y="-576.5" font-family="Helvetica,sans-Serif" font-size="10.00">void RequestTile(ref</text>
<text text-anchor="start" x="444.5" y="-565.5" font-family="Helvetica,sans-Serif" font-size="10.00"> TileVariationkey lookupKey)</text>
<text text-anchor="start" x="431.5" y="-550.5" font-family="Helvetica,sans-Serif" font-size="10.00">+</text>
<text text-anchor="start" x="444.5" y="-550.5" font-family="Helvetica,sans-Serif" font-size="10.00">void RequestWall(ref</text>
<text text-anchor="start" x="444.5" y="-539.5" font-family="Helvetica,sans-Serif" font-size="10.00"> WallVariationKey lookupKey)</text>
<text text-anchor="start" x="431.5" y="-524.5" font-family="Helvetica,sans-Serif" font-size="10.00">+</text>
<text text-anchor="start" x="444.5" y="-524.5" font-family="Helvetica,sans-Serif" font-size="10.00">void RequestTreeTop</text>
<text text-anchor="start" x="444.5" y="-513.5" font-family="Helvetica,sans-Serif" font-size="10.00">(ref TreeFoliageVariantKey</text>
<text text-anchor="start" x="444.5" y="-502.5" font-family="Helvetica,sans-Serif" font-size="10.00"> lookupKey)</text>
<text text-anchor="start" x="431.5" y="-487.5" font-family="Helvetica,sans-Serif" font-size="10.00">+</text>
<text text-anchor="start" x="444.5" y="-487.5" font-family="Helvetica,sans-Serif" font-size="10.00">void RequestTreeBranch</text>
<text text-anchor="start" x="444.5" y="-476.5" font-family="Helvetica,sans-Serif" font-size="10.00">(ref TreeFoliageVariantKey</text>
<text text-anchor="start" x="444.5" y="-465.5" font-family="Helvetica,sans-Serif" font-size="10.00"> lookupKey)</text>
<text text-anchor="start" x="431.5" y="-450.5" font-family="Helvetica,sans-Serif" font-size="10.00">+</text>
<text text-anchor="start" x="444.5" y="-450.5" font-family="Helvetica,sans-Serif" font-size="10.00">Texture2D TryGetTileAndRequest</text>
<text text-anchor="start" x="444.5" y="-439.5" font-family="Helvetica,sans-Serif" font-size="10.00">IfNotReady(int tileType,</text>
<text text-anchor="start" x="444.5" y="-428.5" font-family="Helvetica,sans-Serif" font-size="10.00"> int tileStyle, int paintColor)</text>
<text text-anchor="start" x="431.5" y="-413.5" font-family="Helvetica,sans-Serif" font-size="10.00">+</text>
<text text-anchor="start" x="444.5" y="-413.5" font-family="Helvetica,sans-Serif" font-size="10.00">Texture2D TryGetWallAndRequest</text>
<text text-anchor="start" x="444.5" y="-402.5" font-family="Helvetica,sans-Serif" font-size="10.00">IfNotReady(int wallType,</text>
<text text-anchor="start" x="444.5" y="-391.5" font-family="Helvetica,sans-Serif" font-size="10.00"> int paintColor)</text>
<text text-anchor="start" x="431.5" y="-376.5" font-family="Helvetica,sans-Serif" font-size="10.00">+</text>
<text text-anchor="start" x="444.5" y="-376.5" font-family="Helvetica,sans-Serif" font-size="10.00">Texture2D TryGetTreeTopAnd</text>
<text text-anchor="start" x="444.5" y="-365.5" font-family="Helvetica,sans-Serif" font-size="10.00">RequestIfNotReady(int treeTopIndex,</text>
<text text-anchor="start" x="444.5" y="-354.5" font-family="Helvetica,sans-Serif" font-size="10.00"> int treeTopStyle, int paintColor)</text>
<text text-anchor="start" x="431.5" y="-339.5" font-family="Helvetica,sans-Serif" font-size="10.00">+</text>
<text text-anchor="start" x="444.5" y="-339.5" font-family="Helvetica,sans-Serif" font-size="10.00">Texture2D TryGetTreeBranch</text>
<text text-anchor="start" x="444.5" y="-328.5" font-family="Helvetica,sans-Serif" font-size="10.00">AndRequestIfNotReady(int</text>
<text text-anchor="start" x="444.5" y="-317.5" font-family="Helvetica,sans-Serif" font-size="10.00"> treeTopIndex, int treeTopStyle,</text>
<text text-anchor="start" x="444.5" y="-306.5" font-family="Helvetica,sans-Serif" font-size="10.00"> int paintColor)</text>
<text text-anchor="start" x="431.5" y="-291.5" font-family="Helvetica,sans-Serif" font-size="10.00">+</text>
<text text-anchor="start" x="444.5" y="-291.5" font-family="Helvetica,sans-Serif" font-size="10.00">void PrepareAllRequests()</text>
<text text-anchor="start" x="434" y="-276.5" font-family="Helvetica,sans-Serif" font-size="10.00">&#45;</text>
<text text-anchor="start" x="444.5" y="-276.5" font-family="Helvetica,sans-Serif" font-size="10.00">void RequestTile_CheckFor</text>
<text text-anchor="start" x="444.5" y="-265.5" font-family="Helvetica,sans-Serif" font-size="10.00">RelatedTileRequests(ref</text>
<text text-anchor="start" x="444.5" y="-254.5" font-family="Helvetica,sans-Serif" font-size="10.00"> TileVariationkey lookupKey)</text>
<polygon fill="#666666" stroke="#666666" points="427.5,-616.5 427.5,-616.5 629.5,-616.5 629.5,-616.5 427.5,-616.5"/>
<polygon fill="#666666" stroke="#666666" points="427.5,-601.5 427.5,-601.5 629.5,-601.5 629.5,-601.5 427.5,-601.5"/>
<polygon fill="none" stroke="#666666" points="427.5,-248 427.5,-645 629.5,-645 629.5,-248 427.5,-248"/>
</a>
</g>
</g>
<!-- Node6&#45;&gt;Node1 -->
<g id="edge5_Node000001_Node000006" class="edge">
<title>Node6&#45;&gt;Node1</title>
<g id="a_edge5_Node000001_Node000006"><a xlink:title=" ">
<path fill="none" stroke="#63b8ff" d="M464.16,-247.89C460.29,-235.99 456.47,-224.27 452.79,-212.95"/>
<polygon fill="none" stroke="#63b8ff" points="452.71,-212.71 447.05,-208.25 448.99,-201.3 454.66,-205.77 452.71,-212.71"/>
</a>
</g>
<text text-anchor="middle" x="492.5" y="-222" font-family="Helvetica,sans-Serif" font-size="10.00" fill="grey"> &#45;_paintSystem</text>
</g>
<!-- Node7 -->
<g id="Node000007" class="node">
<title>Node7</title>
<g id="a_Node000007"><a xlink:title=" ">
<polygon fill="white" stroke="transparent" points="393,-807 162,-807 162,-725 393,-725 393,-807"/>
<text text-anchor="start" x="167.5" y="-795" font-family="Helvetica,sans-Serif" font-size="10.00">Dictionary&lt; Terraria.Game</text>
<text text-anchor="start" x="167.5" y="-784" font-family="Helvetica,sans-Serif" font-size="10.00">Content.TilePaintSystemV2.Tile</text>
<text text-anchor="start" x="167.5" y="-773" font-family="Helvetica,sans-Serif" font-size="10.00">Variationkey, Terraria.GameContent.</text>
<text text-anchor="start" x="167.5" y="-762" font-family="Helvetica,sans-Serif" font-size="10.00">TilePaintSystemV2.TileRenderTargetHolder &gt;</text>
<text text-anchor="start" x="276" y="-747" font-family="Helvetica,sans-Serif" font-size="10.00"> </text>
<text text-anchor="start" x="276" y="-732" font-family="Helvetica,sans-Serif" font-size="10.00"> </text>
<polygon fill="#666666" stroke="#666666" points="162.5,-757 162.5,-757 393.5,-757 393.5,-757 162.5,-757"/>
<polygon fill="#666666" stroke="#666666" points="162.5,-742 162.5,-742 393.5,-742 393.5,-742 162.5,-742"/>
<polygon fill="none" stroke="#666666" points="162,-725 162,-807 393,-807 393,-725 162,-725"/>
</a>
</g>
</g>
<!-- Node7&#45;&gt;Node6 -->
<g id="edge6_Node000006_Node000007" class="edge">
<title>Node7&#45;&gt;Node6</title>
<g id="a_edge6_Node000006_Node000007"><a xlink:title=" ">
<path fill="none" stroke="#63b8ff" d="M313.22,-724.74C333.36,-701.71 358.76,-672.09 380.5,-645 393.39,-628.94 406.66,-611.94 419.7,-594.93"/>
<polygon fill="none" stroke="#63b8ff" points="420.07,-594.46 420.53,-587.26 427.36,-584.93 426.89,-592.12 420.07,-594.46"/>
</a>
</g>
<text text-anchor="middle" x="401" y="-682.5" font-family="Helvetica,sans-Serif" font-size="10.00" fill="grey"> &#45;_tilesRenders</text>
</g>
<!-- Node8 -->
<g id="Node000008" class="node">
<title>Node8</title>
<g id="a_Node000008"><a xlink:title=" ">
<polygon fill="white" stroke="transparent" points="645.5,-807 411.5,-807 411.5,-725 645.5,-725 645.5,-807"/>
<text text-anchor="start" x="416.5" y="-795" font-family="Helvetica,sans-Serif" font-size="10.00">Dictionary&lt; Terraria.Game</text>
<text text-anchor="start" x="416.5" y="-784" font-family="Helvetica,sans-Serif" font-size="10.00">Content.TilePaintSystemV2.Wall</text>
<text text-anchor="start" x="416.5" y="-773" font-family="Helvetica,sans-Serif" font-size="10.00">VariationKey, Terraria.GameContent.</text>
<text text-anchor="start" x="416.5" y="-762" font-family="Helvetica,sans-Serif" font-size="10.00">TilePaintSystemV2.WallRenderTargetHolder &gt;</text>
<text text-anchor="start" x="526.5" y="-747" font-family="Helvetica,sans-Serif" font-size="10.00"> </text>
<text text-anchor="start" x="526.5" y="-732" font-family="Helvetica,sans-Serif" font-size="10.00"> </text>
<polygon fill="#666666" stroke="#666666" points="411.5,-757 411.5,-757 645.5,-757 645.5,-757 411.5,-757"/>
<polygon fill="#666666" stroke="#666666" points="411.5,-742 411.5,-742 645.5,-742 645.5,-742 411.5,-742"/>
<polygon fill="none" stroke="#666666" points="411.5,-725 411.5,-807 645.5,-807 645.5,-725 411.5,-725"/>
</a>
</g>
</g>
<!-- Node8&#45;&gt;Node6 -->
<g id="edge7_Node000006_Node000008" class="edge">
<title>Node8&#45;&gt;Node6</title>
<g id="a_edge7_Node000006_Node000008"><a xlink:title=" ">
<path fill="none" stroke="#63b8ff" d="M528.5,-724.79C528.5,-706.28 528.5,-682.77 528.5,-657.3"/>
<polygon fill="none" stroke="#63b8ff" points="528.5,-657.07 524.5,-651.07 528.5,-645.07 532.5,-651.07 528.5,-657.07"/>
</a>
</g>
<text text-anchor="middle" x="567.5" y="-682.5" font-family="Helvetica,sans-Serif" font-size="10.00" fill="grey"> &#45;_wallsRenders</text>
</g>
<!-- Node9 -->
<g id="Node000009" class="node">
<title>Node9</title>
<g id="a_Node000009"><a xlink:title=" ">
<polygon fill="white" stroke="transparent" points="913.5,-807 663.5,-807 663.5,-725 913.5,-725 913.5,-807"/>
<text text-anchor="start" x="668.5" y="-795" font-family="Helvetica,sans-Serif" font-size="10.00">Dictionary&lt; Terraria.Game</text>
<text text-anchor="start" x="668.5" y="-784" font-family="Helvetica,sans-Serif" font-size="10.00">Content.TilePaintSystemV2.Tree</text>
<text text-anchor="start" x="668.5" y="-773" font-family="Helvetica,sans-Serif" font-size="10.00">FoliageVariantKey, Terraria.GameContent.</text>
<text text-anchor="start" x="668.5" y="-762" font-family="Helvetica,sans-Serif" font-size="10.00">TilePaintSystemV2.TreeTopRenderTargetHolder &gt;</text>
<text text-anchor="start" x="786.5" y="-747" font-family="Helvetica,sans-Serif" font-size="10.00"> </text>
<text text-anchor="start" x="786.5" y="-732" font-family="Helvetica,sans-Serif" font-size="10.00"> </text>
<polygon fill="#666666" stroke="#666666" points="663.5,-757 663.5,-757 913.5,-757 913.5,-757 663.5,-757"/>
<polygon fill="#666666" stroke="#666666" points="663.5,-742 663.5,-742 913.5,-742 913.5,-742 663.5,-742"/>
<polygon fill="none" stroke="#666666" points="663.5,-725 663.5,-807 913.5,-807 913.5,-725 663.5,-725"/>
</a>
</g>
</g>
<!-- Node9&#45;&gt;Node6 -->
<g id="edge8_Node000006_Node000009" class="edge">
<title>Node9&#45;&gt;Node6</title>
<g id="a_edge8_Node000006_Node000009"><a xlink:title=" ">
<path fill="none" stroke="#63b8ff" d="M727.99,-724.98C698.63,-703.6 664.24,-675.43 638.5,-645 638.02,-644.44 637.55,-643.87 637.08,-643.31"/>
<polygon fill="none" stroke="#63b8ff" points="637.05,-643.27 630.17,-641.12 629.51,-633.94 636.39,-636.09 637.05,-643.27"/>
</a>
</g>
<text text-anchor="middle" x="746.5" y="-682.5" font-family="Helvetica,sans-Serif" font-size="10.00" fill="grey"> &#45;_treeTopRenders</text>
</g>
<!-- Node10 -->
<g id="Node000010" class="node">
<title>Node10</title>
<g id="a_Node000010"><a xlink:title=" ">
<polygon fill="white" stroke="transparent" points="1165,-807 932,-807 932,-725 1165,-725 1165,-807"/>
<text text-anchor="start" x="937.5" y="-795" font-family="Helvetica,sans-Serif" font-size="10.00">Dictionary&lt; Terraria.Game</text>
<text text-anchor="start" x="937.5" y="-784" font-family="Helvetica,sans-Serif" font-size="10.00">Content.TilePaintSystemV2.Tree</text>
<text text-anchor="start" x="937.5" y="-773" font-family="Helvetica,sans-Serif" font-size="10.00">FoliageVariantKey, Terraria.GameContent.</text>
<text text-anchor="start" x="937.5" y="-762" font-family="Helvetica,sans-Serif" font-size="10.00">TilePaintSystemV2.TreeBranchTargetHolder &gt;</text>
<text text-anchor="start" x="1047" y="-747" font-family="Helvetica,sans-Serif" font-size="10.00"> </text>
<text text-anchor="start" x="1047" y="-732" font-family="Helvetica,sans-Serif" font-size="10.00"> </text>
<polygon fill="#666666" stroke="#666666" points="932.5,-757 932.5,-757 1165.5,-757 1165.5,-757 932.5,-757"/>
<polygon fill="#666666" stroke="#666666" points="932.5,-742 932.5,-742 1165.5,-742 1165.5,-742 932.5,-742"/>
<polygon fill="none" stroke="#666666" points="932,-725 932,-807 1165,-807 1165,-725 932,-725"/>
</a>
</g>
</g>
<!-- Node10&#45;&gt;Node6 -->
<g id="edge9_Node000006_Node000010" class="edge">
<title>Node10&#45;&gt;Node6</title>
<g id="a_edge9_Node000006_Node000010"><a xlink:title=" ">
<path fill="none" stroke="#63b8ff" d="M965.15,-724.96C916.46,-703.25 853.23,-677.89 794.5,-663 763.51,-655.14 682.75,-662.84 640.48,-644.53"/>
<polygon fill="none" stroke="#63b8ff" points="640.45,-644.51 633.27,-645.18 629.9,-638.81 637.08,-638.14 640.45,-644.51"/>
</a>
</g>
<text text-anchor="middle" x="974.5" y="-682.5" font-family="Helvetica,sans-Serif" font-size="10.00" fill="grey"> &#45;_treeBranchRenders</text>
</g>
<!-- Node11 -->
<g id="Node000011" class="node">
<title>Node11</title>
<g id="a_Node000011"><a xlink:title=" ">
<polygon fill="white" stroke="transparent" points="1359.5,-801.5 1183.5,-801.5 1183.5,-730.5 1359.5,-730.5 1359.5,-801.5"/>
<text text-anchor="start" x="1188.5" y="-789" font-family="Helvetica,sans-Serif" font-size="10.00">List&lt; Terraria.GameContent.</text>
<text text-anchor="start" x="1188.5" y="-778" font-family="Helvetica,sans-Serif" font-size="10.00">TilePaintSystemV2.ARenderTarget</text>
<text text-anchor="start" x="1249.5" y="-767" font-family="Helvetica,sans-Serif" font-size="10.00">Holder &gt;</text>
<text text-anchor="start" x="1269.5" y="-752" font-family="Helvetica,sans-Serif" font-size="10.00"> </text>
<text text-anchor="start" x="1269.5" y="-737" font-family="Helvetica,sans-Serif" font-size="10.00"> </text>
<polygon fill="#666666" stroke="#666666" points="1183.5,-762 1183.5,-762 1359.5,-762 1359.5,-762 1183.5,-762"/>
<polygon fill="#666666" stroke="#666666" points="1183.5,-747 1183.5,-747 1359.5,-747 1359.5,-747 1183.5,-747"/>
<polygon fill="none" stroke="#666666" points="1183.5,-730.5 1183.5,-801.5 1359.5,-801.5 1359.5,-730.5 1183.5,-730.5"/>
</a>
</g>
</g>
<!-- Node11&#45;&gt;Node6 -->
<g id="edge10_Node000006_Node000011" class="edge">
<title>Node11&#45;&gt;Node6</title>
<g id="a_edge10_Node000006_Node000011"><a xlink:title=" ">
<path fill="none" stroke="#63b8ff" d="M1207.65,-730.45C1160.46,-706.78 1093.85,-677.19 1031.5,-663 991.46,-653.89 712.61,-666.31 640.88,-643.88"/>
<polygon fill="none" stroke="#63b8ff" points="640.74,-643.82 633.65,-645.13 629.71,-639.09 636.8,-637.78 640.74,-643.82"/>
</a>
</g>
<text text-anchor="middle" x="1179" y="-682.5" font-family="Helvetica,sans-Serif" font-size="10.00" fill="grey"> &#45;_requests</text>
</g>
<!-- Node12 -->
<g id="Node000012" class="node">
<title>Node12</title>
<g id="a_Node000012"><a xlink:title=" ">
<polygon fill="white" stroke="transparent" points="679.5,-471 647.5,-471 647.5,-422 679.5,-422 679.5,-471"/>
<text text-anchor="start" x="652.5" y="-458.5" font-family="Helvetica,sans-Serif" font-size="10.00">bool</text>
<text text-anchor="start" x="661.5" y="-443.5" font-family="Helvetica,sans-Serif" font-size="10.00"> </text>
<text text-anchor="start" x="661.5" y="-428.5" font-family="Helvetica,sans-Serif" font-size="10.00"> </text>
<polygon fill="#666666" stroke="#666666" points="647.5,-453.5 647.5,-453.5 679.5,-453.5 679.5,-453.5 647.5,-453.5"/>
<polygon fill="#666666" stroke="#666666" points="647.5,-438.5 647.5,-438.5 679.5,-438.5 679.5,-438.5 647.5,-438.5"/>
<polygon fill="none" stroke="#666666" points="647.5,-422 647.5,-471 679.5,-471 679.5,-422 647.5,-422"/>
</a>
</g>
</g>
<!-- Node12&#45;&gt;Node1 -->
<g id="edge11_Node000001_Node000012" class="edge">
<title>Node12&#45;&gt;Node1</title>
<g id="a_edge11_Node000001_Node000012"><a xlink:title=" ">
<path fill="none" stroke="#63b8ff" d="M666.5,-421.83C670.26,-382.53 672.56,-302.72 638.5,-248 609.19,-200.91 558.51,-165.75 512.97,-141.7"/>
<polygon fill="none" stroke="#63b8ff" points="512.8,-141.62 505.63,-142.43 502.12,-136.13 509.29,-135.32 512.8,-141.62"/>
</a>
</g>
<text text-anchor="middle" x="691" y="-222" font-family="Helvetica,sans-Serif" font-size="10.00" fill="grey"> &#45;_shouldShowInvisibleWalls</text>
</g>
</g>
</svg>

<g id="navigator" transform="translate(0 0)" fill="#404254">
  <rect fill="#f2f5e9" fill-opacity="0.5" stroke="#606060" stroke-width=".5" x="0" y="0" width="60" height="60"/>
  <use id="zoomplus" xlink:href="#zoomPlus" x="17" y="9" onmousedown="handleZoom(evt,'in')"/>
  <use id="zoomminus" xlink:href="#zoomMin" x="42" y="9" onmousedown="handleZoom(evt,'out')"/>
  <use id="reset" xlink:href="#resetDef" x="30" y="36" onmousedown="handleReset()"/>
   <use id="arrowup" xlink:href="#arrowUp" x="0" y="0" onmousedown="handlePan(0,-1)"/>
  <use id="arrowright" xlink:href="#arrowRight" x="0" y="0" onmousedown="handlePan(1,0)"/>
  <use id="arrowdown" xlink:href="#arrowDown" x="0" y="0" onmousedown="handlePan(0,1)"/>
  <use id="arrowleft" xlink:href="#arrowLeft" x="0" y="0" onmousedown="handlePan(-1,0)"/>
</g>
<svg viewBox="0 0 15 15" width="100%" height="30px" preserveAspectRatio="xMaxYMin meet">
 <g id="arrow_out" transform="scale(0.3 0.3)">
  <a xlink:href="classTerraria_1_1GameContent_1_1Drawing_1_1WallDrawing__coll__graph_org.svg" target="_base">
   <rect id="button" ry="5" rx="5" y="6" x="6" height="38" width="38"
        fill="#f2f5e9" fill-opacity="0.5" stroke="#606060" stroke-width="1.0"/>
   <path id="arrow"
     d="M 11.500037,31.436501 C 11.940474,20.09759 22.043105,11.32322 32.158766,21.979434 L 37.068811,17.246167 C 37.068811,17.246167 37.088388,32 37.088388,32 L 22.160133,31.978069 C 22.160133,31.978069 26.997745,27.140456 26.997745,27.140456 C 18.528582,18.264221 13.291696,25.230495 11.500037,31.436501 z"
     style="fill:#404040;"/>
  </a>
 </g>
</svg>

<style type='text/css'>
<![CDATA[
[data-mouse-over-selected='false'] { opacity: 0.7; }
[data-mouse-over-selected='true']  { opacity: 1.0; }
]]>
</style>
<script type="application/ecmascript"><![CDATA[
document.addEventListener('DOMContentLoaded', (event) => {
  highlightEdges();
  highlightAdjacentNodes();
});
]]></script>
</svg>
