<?xml version="1.0" encoding="UTF-8" standalone="no"?>
<!DOCTYPE svg PUBLIC "-//W3C//DTD SVG 1.1//EN"
 "http://www.w3.org/Graphics/SVG/1.1/DTD/svg11.dtd">
<!-- Generated by graphviz version 2.43.0 (0)
 -->
<!-- Title: Terraria.Utils.DrawSettings2Panel Pages: 1 -->
<svg width="1616pt" height="119pt"
 viewBox="0.00 0.00 1616.00 118.50" xmlns="http://www.w3.org/2000/svg" xmlns:xlink="http://www.w3.org/1999/xlink">
<g id="graph0" class="graph" transform="scale(1 1) rotate(0) translate(4 114.5)">
<title>Terraria.Utils.DrawSettings2Panel</title>
<!-- Node1 -->
<g id="Node000001" class="node">
<title>Node1</title>
<g id="a_Node000001"><a xlink:title=" ">
<polygon fill="#999999" stroke="#666666" points="1608,-78 1455,-78 1455,-48 1608,-48 1608,-78"/>
<text text-anchor="start" x="1463" y="-66" font-family="Helvetica,sans-Serif" font-size="10.00">Terraria.Utils.DrawSettings2</text>
<text text-anchor="middle" x="1531.5" y="-55" font-family="Helvetica,sans-Serif" font-size="10.00">Panel</text>
</a>
</g>
</g>
<!-- Node2 -->
<g id="Node000002" class="node">
<title>Node2</title>
<g id="a_Node000002"><a xlink:href="../../de/d2b/classTerraria_1_1GameContent_1_1UI_1_1Elements_1_1UIKeybindingSimpleListItem_a5d034b39f6b3b0defdd978eec8f237bf.html#a5d034b39f6b3b0defdd978eec8f237bf" target="_top" xlink:title=" ">
<polygon fill="white" stroke="#666666" points="1419,-110.5 1238,-110.5 1238,-69.5 1419,-69.5 1419,-110.5"/>
<text text-anchor="start" x="1246" y="-98.5" font-family="Helvetica,sans-Serif" font-size="10.00">Terraria.GameContent.UI.</text>
<text text-anchor="start" x="1246" y="-87.5" font-family="Helvetica,sans-Serif" font-size="10.00">Elements.UIKeybindingSimpleList</text>
<text text-anchor="middle" x="1328.5" y="-76.5" font-family="Helvetica,sans-Serif" font-size="10.00">Item.DrawSelf</text>
</a>
</g>
</g>
<!-- Node1&#45;&gt;Node2 -->
<g id="edge1_Node000001_Node000002" class="edge">
<title>Node1&#45;&gt;Node2</title>
<g id="a_edge1_Node000001_Node000002"><a xlink:title=" ">
<path fill="none" stroke="#63b8ff" d="M1444.66,-74.53C1436.28,-75.66 1427.76,-76.8 1419.34,-77.93"/>
<polygon fill="#63b8ff" stroke="#63b8ff" points="1445.35,-77.97 1454.8,-73.17 1444.42,-71.03 1445.35,-77.97"/>
</a>
</g>
</g>
<!-- Node3 -->
<g id="Node000003" class="node">
<title>Node3</title>
<g id="a_Node000003"><a xlink:href="../../da/dd5/classTerraria_1_1Main_a021d6158617de7260e7a0bf428be973b.html#a021d6158617de7260e7a0bf428be973b" target="_top" xlink:title=" ">
<polygon fill="white" stroke="#666666" points="1405,-51 1252,-51 1252,-21 1405,-21 1405,-51"/>
<text text-anchor="start" x="1260" y="-39" font-family="Helvetica,sans-Serif" font-size="10.00">Terraria.Main.DrawWindows</text>
<text text-anchor="middle" x="1328.5" y="-28" font-family="Helvetica,sans-Serif" font-size="10.00">IMEPanel</text>
</a>
</g>
</g>
<!-- Node1&#45;&gt;Node3 -->
<g id="edge2_Node000001_Node000003" class="edge">
<title>Node1&#45;&gt;Node3</title>
<g id="a_edge2_Node000001_Node000003"><a xlink:title=" ">
<path fill="none" stroke="#63b8ff" d="M1444.8,-51.49C1431.61,-49.72 1418.08,-47.9 1405.13,-46.16"/>
<polygon fill="#63b8ff" stroke="#63b8ff" points="1444.42,-54.97 1454.8,-52.83 1445.35,-48.03 1444.42,-54.97"/>
</a>
</g>
</g>
<!-- Node4 -->
<g id="Node000004" class="node">
<title>Node4</title>
<g id="a_Node000004"><a xlink:href="../../da/dd5/classTerraria_1_1Main_a3c97e4ec32c1a70c1788b7c5522a4300.html#a3c97e4ec32c1a70c1788b7c5522a4300" target="_top" xlink:title=" ">
<polygon fill="white" stroke="#666666" points="1202,-45.5 1040,-45.5 1040,-26.5 1202,-26.5 1202,-45.5"/>
<text text-anchor="middle" x="1121" y="-33.5" font-family="Helvetica,sans-Serif" font-size="10.00">Terraria.Main.DrawPlayerChat</text>
</a>
</g>
</g>
<!-- Node3&#45;&gt;Node4 -->
<g id="edge3_Node000003_Node000004" class="edge">
<title>Node3&#45;&gt;Node4</title>
<g id="a_edge3_Node000003_Node000004"><a xlink:title=" ">
<path fill="none" stroke="#63b8ff" d="M1241.53,-36C1228.54,-36 1215.18,-36 1202.32,-36"/>
<polygon fill="#63b8ff" stroke="#63b8ff" points="1241.85,-39.5 1251.85,-36 1241.85,-32.5 1241.85,-39.5"/>
</a>
</g>
</g>
<!-- Node5 -->
<g id="Node000005" class="node">
<title>Node5</title>
<g id="a_Node000005"><a xlink:href="../../da/dd5/classTerraria_1_1Main_a474beeecaea4d6dd108fba56cd554d46.html#a474beeecaea4d6dd108fba56cd554d46" target="_top" xlink:title=" ">
<polygon fill="white" stroke="#666666" points="412,-46.5 290,-46.5 290,-27.5 412,-27.5 412,-46.5"/>
<text text-anchor="middle" x="351" y="-34.5" font-family="Helvetica,sans-Serif" font-size="10.00">Terraria.Main.DoDraw</text>
</a>
</g>
</g>
<!-- Node4&#45;&gt;Node5 -->
<g id="edge4_Node000004_Node000005" class="edge">
<title>Node4&#45;&gt;Node5</title>
<g id="a_edge4_Node000004_Node000005"><a xlink:title=" ">
<path fill="none" stroke="#63b8ff" d="M1029.66,-38.56C1020.99,-38.74 1012.33,-38.89 1004,-39 786.12,-41.82 527.25,-39.27 412.23,-37.83"/>
<polygon fill="#63b8ff" stroke="#63b8ff" points="1029.9,-42.06 1039.82,-38.34 1029.75,-35.06 1029.9,-42.06"/>
</a>
</g>
</g>
<!-- Node8 -->
<g id="Node000008" class="node">
<title>Node8</title>
<g id="a_Node000008"><a xlink:href="../../da/dd5/classTerraria_1_1Main_a5bbe0ba199b022ae7b6f276db20d2aac.html#a5bbe0ba199b022ae7b6f276db20d2aac" target="_top" xlink:title=" ">
<polygon fill="white" stroke="#666666" points="1004,-30 852,-30 852,0 1004,0 1004,-30"/>
<text text-anchor="start" x="860" y="-18" font-family="Helvetica,sans-Serif" font-size="10.00">Terraria.Main.DrawInterface</text>
<text text-anchor="middle" x="928" y="-7" font-family="Helvetica,sans-Serif" font-size="10.00">_34_PlayerChat</text>
</a>
</g>
</g>
<!-- Node4&#45;&gt;Node8 -->
<g id="edge7_Node000004_Node000008" class="edge">
<title>Node4&#45;&gt;Node8</title>
<g id="a_edge7_Node000004_Node000008"><a xlink:title=" ">
<path fill="none" stroke="#63b8ff" d="M1029.78,-26.08C1021.18,-25.13 1012.52,-24.18 1004.09,-23.26"/>
<polygon fill="#63b8ff" stroke="#63b8ff" points="1029.51,-29.57 1039.83,-27.19 1030.27,-22.61 1029.51,-29.57"/>
</a>
</g>
</g>
<!-- Node6 -->
<g id="Node000006" class="node">
<title>Node6</title>
<g id="a_Node000006"><a xlink:href="../../da/dd5/classTerraria_1_1Main_aa597dbafa085227bb056d05d0b0f9abe.html#aa597dbafa085227bb056d05d0b0f9abe" target="_top" xlink:title=" ">
<polygon fill="white" stroke="#666666" points="254,-52 145,-52 145,-22 254,-22 254,-52"/>
<text text-anchor="start" x="153" y="-40" font-family="Helvetica,sans-Serif" font-size="10.00">Terraria.Main.Draw</text>
<text text-anchor="middle" x="199.5" y="-29" font-family="Helvetica,sans-Serif" font-size="10.00">_Inner</text>
</a>
</g>
</g>
<!-- Node5&#45;&gt;Node6 -->
<g id="edge5_Node000005_Node000006" class="edge">
<title>Node5&#45;&gt;Node6</title>
<g id="a_edge5_Node000005_Node000006"><a xlink:title=" ">
<path fill="none" stroke="#63b8ff" d="M279.41,-37C270.99,-37 262.49,-37 254.35,-37"/>
<polygon fill="#63b8ff" stroke="#63b8ff" points="279.62,-40.5 289.62,-37 279.62,-33.5 279.62,-40.5"/>
</a>
</g>
</g>
<!-- Node7 -->
<g id="Node000007" class="node">
<title>Node7</title>
<g id="a_Node000007"><a xlink:href="../../da/dd5/classTerraria_1_1Main_a516aa31311860bad4242ade32e5effcd.html#a516aa31311860bad4242ade32e5effcd" target="_top" xlink:title=" ">
<polygon fill="white" stroke="#666666" points="109,-46.5 0,-46.5 0,-27.5 109,-27.5 109,-46.5"/>
<text text-anchor="middle" x="54.5" y="-34.5" font-family="Helvetica,sans-Serif" font-size="10.00">Terraria.Main.Draw</text>
</a>
</g>
</g>
<!-- Node6&#45;&gt;Node7 -->
<g id="edge6_Node000006_Node000007" class="edge">
<title>Node6&#45;&gt;Node7</title>
<g id="a_edge6_Node000006_Node000007"><a xlink:title=" ">
<path fill="none" stroke="#63b8ff" d="M134.68,-37C126.25,-37 117.69,-37 109.46,-37"/>
<polygon fill="#63b8ff" stroke="#63b8ff" points="134.85,-40.5 144.85,-37 134.85,-33.5 134.85,-40.5"/>
</a>
</g>
</g>
<!-- Node9 -->
<g id="Node000009" class="node">
<title>Node9</title>
<g id="a_Node000009"><a xlink:href="../../da/dd5/classTerraria_1_1Main_a635639e6a6d3795bbfbcf0e24fc3aac5.html#a635639e6a6d3795bbfbcf0e24fc3aac5" target="_top" xlink:title=" ">
<polygon fill="white" stroke="#666666" points="816,-30 636,-30 636,0 816,0 816,-30"/>
<text text-anchor="start" x="644" y="-18" font-family="Helvetica,sans-Serif" font-size="10.00">Terraria.Main.SetupDrawInterface</text>
<text text-anchor="middle" x="726" y="-7" font-family="Helvetica,sans-Serif" font-size="10.00">Layers</text>
</a>
</g>
</g>
<!-- Node8&#45;&gt;Node9 -->
<g id="edge8_Node000008_Node000009" class="edge">
<title>Node8&#45;&gt;Node9</title>
<g id="a_edge8_Node000008_Node000009"><a xlink:title=" ">
<path fill="none" stroke="#63b8ff" d="M841.76,-15C833.33,-15 824.76,-15 816.28,-15"/>
<polygon fill="#63b8ff" stroke="#63b8ff" points="841.96,-18.5 851.96,-15 841.96,-11.5 841.96,-18.5"/>
</a>
</g>
</g>
<!-- Node10 -->
<g id="Node000010" class="node">
<title>Node10</title>
<g id="a_Node000010"><a xlink:href="../../da/dd5/classTerraria_1_1Main_a36d139a1fd2647d53f25a241f3d5d5f4.html#a36d139a1fd2647d53f25a241f3d5d5f4" target="_top" xlink:title=" ">
<polygon fill="white" stroke="#666666" points="600,-27.5 448,-27.5 448,-8.5 600,-8.5 600,-27.5"/>
<text text-anchor="middle" x="524" y="-15.5" font-family="Helvetica,sans-Serif" font-size="10.00">Terraria.Main.DrawInterface</text>
</a>
</g>
</g>
<!-- Node9&#45;&gt;Node10 -->
<g id="edge9_Node000009_Node000010" class="edge">
<title>Node9&#45;&gt;Node10</title>
<g id="a_edge9_Node000009_Node000010"><a xlink:title=" ">
<path fill="none" stroke="#63b8ff" d="M625.77,-16.49C617.19,-16.62 608.6,-16.75 600.26,-16.87"/>
<polygon fill="#63b8ff" stroke="#63b8ff" points="625.87,-19.99 635.82,-16.34 625.77,-12.99 625.87,-19.99"/>
</a>
</g>
</g>
<!-- Node10&#45;&gt;Node5 -->
<g id="edge10_Node000010_Node000005" class="edge">
<title>Node10&#45;&gt;Node5</title>
<g id="a_edge10_Node000010_Node000005"><a xlink:title=" ">
<path fill="none" stroke="#63b8ff" d="M437.81,-27.47C429.1,-28.43 420.4,-29.4 412.05,-30.33"/>
<polygon fill="#63b8ff" stroke="#63b8ff" points="438.44,-30.92 448,-26.33 437.67,-23.96 438.44,-30.92"/>
</a>
</g>
</g>
</g>
</svg>
