<?xml version="1.0" encoding="UTF-8" standalone="no"?>
<!DOCTYPE svg PUBLIC "-//W3C//DTD SVG 1.1//EN"
 "http://www.w3.org/Graphics/SVG/1.1/DTD/svg11.dtd">
<!-- Generated by graphviz version 2.43.0 (0)
 -->
<!-- Title: Terraria.Utils.Right Pages: 1 -->
<svg width="542pt" height="49pt"
 viewBox="0.00 0.00 542.00 49.00" xmlns="http://www.w3.org/2000/svg" xmlns:xlink="http://www.w3.org/1999/xlink">
<g id="graph0" class="graph" transform="scale(1 1) rotate(0) translate(4 45)">
<title>Terraria.Utils.Right</title>
<!-- Node1 -->
<g id="Node000001" class="node">
<title>Node1</title>
<g id="a_Node000001"><a xlink:title=" ">
<polygon fill="#999999" stroke="#666666" points="534,-30 427,-30 427,-11 534,-11 534,-30"/>
<text text-anchor="middle" x="480.5" y="-18" font-family="Helvetica,sans-Serif" font-size="10.00">Terraria.Utils.Right</text>
</a>
</g>
</g>
<!-- Node2 -->
<g id="Node000002" class="node">
<title>Node2</title>
<g id="a_Node000002"><a xlink:href="../../d1/d9c/classTerraria_1_1Utils_a748f3ab94f13631b74de1d806660c165.html#a748f3ab94f13631b74de1d806660c165" target="_top" xlink:title=" ">
<polygon fill="white" stroke="#666666" points="391,-35.5 248,-35.5 248,-5.5 391,-5.5 391,-35.5"/>
<text text-anchor="start" x="256" y="-23.5" font-family="Helvetica,sans-Serif" font-size="10.00">Terraria.Utils.ClosestPoint</text>
<text text-anchor="middle" x="319.5" y="-12.5" font-family="Helvetica,sans-Serif" font-size="10.00">InRect</text>
</a>
</g>
</g>
<!-- Node1&#45;&gt;Node2 -->
<g id="edge1_Node000001_Node000002" class="edge">
<title>Node1&#45;&gt;Node2</title>
<g id="a_edge1_Node000001_Node000002"><a xlink:title=" ">
<path fill="none" stroke="#63b8ff" d="M416.85,-20.5C408.4,-20.5 399.68,-20.5 391.1,-20.5"/>
<polygon fill="#63b8ff" stroke="#63b8ff" points="417,-24 427,-20.5 417,-17 417,-24"/>
</a>
</g>
</g>
<!-- Node3 -->
<g id="Node000003" class="node">
<title>Node3</title>
<g id="a_Node000003"><a xlink:href="../../d6/dbd/classTerraria_1_1GameContent_1_1ObjectInteractions_1_1TileSmartInteractCandidateProvider_a0c78fca266421cd6de742fbbf6d5ff06.html#a0c78fca266421cd6de742fbbf6d5ff06" target="_top" xlink:title=" ">
<polygon fill="white" stroke="#666666" points="212,-41 0,-41 0,0 212,0 212,-41"/>
<text text-anchor="start" x="8" y="-29" font-family="Helvetica,sans-Serif" font-size="10.00">Terraria.GameContent.Object</text>
<text text-anchor="start" x="8" y="-18" font-family="Helvetica,sans-Serif" font-size="10.00">Interactions.TileSmartInteractCandidate</text>
<text text-anchor="middle" x="106" y="-7" font-family="Helvetica,sans-Serif" font-size="10.00">Provider.ProvideCandidate</text>
</a>
</g>
</g>
<!-- Node2&#45;&gt;Node3 -->
<g id="edge2_Node000002_Node000003" class="edge">
<title>Node2&#45;&gt;Node3</title>
<g id="a_edge2_Node000002_Node000003"><a xlink:title=" ">
<path fill="none" stroke="#63b8ff" d="M237.75,-20.5C229.42,-20.5 220.88,-20.5 212.34,-20.5"/>
<polygon fill="#63b8ff" stroke="#63b8ff" points="237.78,-24 247.78,-20.5 237.78,-17 237.78,-24"/>
</a>
</g>
</g>
</g>
</svg>
