<?xml version="1.0" encoding="UTF-8" standalone="no"?>
<!DOCTYPE svg PUBLIC "-//W3C//DTD SVG 1.1//EN"
 "http://www.w3.org/Graphics/SVG/1.1/DTD/svg11.dtd">
<!-- Generated by graphviz version 2.43.0 (0)
 -->
<!-- Title: Terraria.ModLoader.UI.UIModPackItem.ImportModPackLocal Pages: 1 -->
<svg width="775pt" height="470pt"
 viewBox="0.00 0.00 775.00 469.68" xmlns="http://www.w3.org/2000/svg" xmlns:xlink="http://www.w3.org/1999/xlink">
<g id="graph0" class="graph" transform="scale(1 1) rotate(0) translate(4 465.68)">
<title>Terraria.ModLoader.UI.UIModPackItem.ImportModPackLocal</title>
<!-- Node1 -->
<g id="Node000001" class="node">
<title>Node1</title>
<g id="a_Node000001"><a xlink:title=" ">
<polygon fill="#999999" stroke="#666666" points="767,-256 601,-256 601,-226 767,-226 767,-256"/>
<text text-anchor="start" x="609" y="-244" font-family="Helvetica,sans-Serif" font-size="10.00">Terraria.ModLoader.UI.UIMod</text>
<text text-anchor="middle" x="684" y="-233" font-family="Helvetica,sans-Serif" font-size="10.00">PackItem.ImportModPackLocal</text>
</a>
</g>
</g>
<!-- Node2 -->
<g id="Node000002" class="node">
<title>Node2</title>
<g id="a_Node000002"><a xlink:href="../../db/d9f/classTerraria_1_1ModLoader_1_1UI_1_1UIModPackItem_acb3914f83e7355fa05d1b4cb2ca852c0.html#acb3914f83e7355fa05d1b4cb2ca852c0" target="_top" xlink:title=" ">
<polygon fill="white" stroke="#666666" points="565,-256 407,-256 407,-226 565,-226 565,-256"/>
<text text-anchor="start" x="415" y="-244" font-family="Helvetica,sans-Serif" font-size="10.00">Terraria.ModLoader.UI.UIMod</text>
<text text-anchor="middle" x="486" y="-233" font-family="Helvetica,sans-Serif" font-size="10.00">PackItem.UIModPackItem</text>
</a>
</g>
</g>
<!-- Node1&#45;&gt;Node2 -->
<g id="edge1_Node000001_Node000002" class="edge">
<title>Node1&#45;&gt;Node2</title>
<g id="a_edge1_Node000001_Node000002"><a xlink:title=" ">
<path fill="none" stroke="#63b8ff" d="M590.49,-234.26C582.07,-234.23 573.59,-234.27 565.3,-234.37"/>
<polygon fill="#63b8ff" stroke="#63b8ff" points="590.71,-237.76 600.73,-234.33 590.75,-230.76 590.71,-237.76"/>
</a>
</g>
</g>
<!-- Node2&#45;&gt;Node1 -->
<g id="edge16_Node000002_Node000001" class="edge">
<title>Node2&#45;&gt;Node1</title>
<g id="a_edge16_Node000002_Node000001"><a xlink:title=" ">
<path fill="none" stroke="#63b8ff" d="M575.49,-247.72C583.89,-247.77 592.39,-247.76 600.73,-247.67"/>
<polygon fill="#63b8ff" stroke="#63b8ff" points="575.33,-244.22 565.3,-247.63 575.27,-251.22 575.33,-244.22"/>
</a>
</g>
</g>
<!-- Node3 -->
<g id="Node000003" class="node">
<title>Node3</title>
<g id="a_Node000003"><a xlink:href="../../db/d9f/classTerraria_1_1ModLoader_1_1UI_1_1UIModPackItem_a596eb4b1fee5230ef39e1c8ba161bc3e.html#a596eb4b1fee5230ef39e1c8ba161bc3e" target="_top" xlink:title=" ">
<polygon fill="white" stroke="#666666" points="361.5,-430 203.5,-430 203.5,-400 361.5,-400 361.5,-430"/>
<text text-anchor="start" x="211.5" y="-418" font-family="Helvetica,sans-Serif" font-size="10.00">Terraria.ModLoader.UI.UIMod</text>
<text text-anchor="middle" x="282.5" y="-407" font-family="Helvetica,sans-Serif" font-size="10.00">PackItem.DeleteButtonClick</text>
</a>
</g>
</g>
<!-- Node2&#45;&gt;Node3 -->
<g id="edge2_Node000002_Node000003" class="edge">
<title>Node2&#45;&gt;Node3</title>
<g id="a_edge2_Node000002_Node000003"><a xlink:title=" ">
<path fill="none" stroke="#63b8ff" d="M469.81,-264.92C451.18,-296.59 416.38,-351.33 371,-382 358.47,-390.47 343.03,-395.96 328.63,-399.99"/>
<polygon fill="#63b8ff" stroke="#63b8ff" points="472.85,-266.67 474.85,-256.27 466.8,-263.15 472.85,-266.67"/>
</a>
</g>
</g>
<!-- Node4 -->
<g id="Node000004" class="node">
<title>Node4</title>
<g id="a_Node000004"><a xlink:href="../../db/d9f/classTerraria_1_1ModLoader_1_1UI_1_1UIModPackItem_af4e5c03a84c26684e63d4f9e861205a7.html#af4e5c03a84c26684e63d4f9e861205a7" target="_top" xlink:title=" ">
<polygon fill="white" stroke="#666666" points="361.5,-382 203.5,-382 203.5,-352 361.5,-352 361.5,-382"/>
<text text-anchor="start" x="211.5" y="-370" font-family="Helvetica,sans-Serif" font-size="10.00">Terraria.ModLoader.UI.UIMod</text>
<text text-anchor="middle" x="282.5" y="-359" font-family="Helvetica,sans-Serif" font-size="10.00">PackItem.DeleteInstance</text>
</a>
</g>
</g>
<!-- Node2&#45;&gt;Node4 -->
<g id="edge4_Node000002_Node000004" class="edge">
<title>Node2&#45;&gt;Node4</title>
<g id="a_edge4_Node000002_Node000004"><a xlink:title=" ">
<path fill="none" stroke="#63b8ff" d="M459.11,-263.4C437.65,-284.59 405.21,-315.36 371,-334 356.2,-342.06 338.48,-347.58 322.88,-351.92"/>
<polygon fill="#63b8ff" stroke="#63b8ff" points="461.6,-265.87 466.23,-256.35 456.67,-260.9 461.6,-265.87"/>
</a>
</g>
</g>
<!-- Node5 -->
<g id="Node000005" class="node">
<title>Node5</title>
<g id="a_Node000005"><a xlink:href="../../db/d9f/classTerraria_1_1ModLoader_1_1UI_1_1UIModPackItem_a653c83b23da87eb30b85889f110362b4.html#a653c83b23da87eb30b85889f110362b4" target="_top" xlink:title=" ">
<polygon fill="white" stroke="#666666" points="371,-334 194,-334 194,-304 371,-304 371,-334"/>
<text text-anchor="start" x="202" y="-322" font-family="Helvetica,sans-Serif" font-size="10.00">Terraria.ModLoader.UI.UIMod</text>
<text text-anchor="middle" x="282.5" y="-311" font-family="Helvetica,sans-Serif" font-size="10.00">PackItem.DownloadMissingMods</text>
</a>
</g>
</g>
<!-- Node2&#45;&gt;Node5 -->
<g id="edge6_Node000002_Node000005" class="edge">
<title>Node2&#45;&gt;Node5</title>
<g id="a_edge6_Node000002_Node000005"><a xlink:title=" ">
<path fill="none" stroke="#63b8ff" d="M423.18,-260.04C406.37,-266.94 388.09,-274.51 371,-281 350.05,-288.96 325.85,-296.88 308.21,-303.91"/>
<polygon fill="#63b8ff" stroke="#63b8ff" points="424.96,-263.1 432.89,-256.08 422.31,-256.62 424.96,-263.1"/>
</a>
</g>
</g>
<!-- Node6 -->
<g id="Node000006" class="node">
<title>Node6</title>
<g id="a_Node000006"><a xlink:href="../../db/d9f/classTerraria_1_1ModLoader_1_1UI_1_1UIModPackItem_afb554a5bea9ee67331d11802090cac27.html#afb554a5bea9ee67331d11802090cac27" target="_top" xlink:title=" ">
<polygon fill="white" stroke="#666666" points="158,-282 0,-282 0,-252 158,-252 158,-282"/>
<text text-anchor="start" x="8" y="-270" font-family="Helvetica,sans-Serif" font-size="10.00">Terraria.ModLoader.UI.UIMod</text>
<text text-anchor="middle" x="79" y="-259" font-family="Helvetica,sans-Serif" font-size="10.00">PackItem.EnabledListOnly</text>
</a>
</g>
</g>
<!-- Node2&#45;&gt;Node6 -->
<g id="edge8_Node000002_Node000006" class="edge">
<title>Node2&#45;&gt;Node6</title>
<g id="a_edge8_Node000002_Node000006"><a xlink:title=" ">
<path fill="none" stroke="#63b8ff" d="M396.63,-240.98C325.5,-244.06 226.47,-250.5 158.19,-256.52"/>
<polygon fill="#63b8ff" stroke="#63b8ff" points="397.07,-244.47 406.91,-240.56 396.77,-237.48 397.07,-244.47"/>
</a>
</g>
</g>
<!-- Node7 -->
<g id="Node000007" class="node">
<title>Node7</title>
<g id="a_Node000007"><a xlink:href="../../db/d9f/classTerraria_1_1ModLoader_1_1UI_1_1UIModPackItem_a64048cdc35a079232577c2eb0dfe84da.html#a64048cdc35a079232577c2eb0dfe84da" target="_top" xlink:title=" ">
<polygon fill="white" stroke="#666666" points="361.5,-230 203.5,-230 203.5,-200 361.5,-200 361.5,-230"/>
<text text-anchor="start" x="211.5" y="-218" font-family="Helvetica,sans-Serif" font-size="10.00">Terraria.ModLoader.UI.UIMod</text>
<text text-anchor="middle" x="282.5" y="-207" font-family="Helvetica,sans-Serif" font-size="10.00">PackItem.EnableList</text>
</a>
</g>
</g>
<!-- Node2&#45;&gt;Node7 -->
<g id="edge11_Node000002_Node000007" class="edge">
<title>Node2&#45;&gt;Node7</title>
<g id="a_edge11_Node000002_Node000007"><a xlink:title=" ">
<path fill="none" stroke="#63b8ff" d="M408.28,-224.52C393.02,-222.33 376.97,-220.25 361.66,-218.49"/>
<polygon fill="#63b8ff" stroke="#63b8ff" points="407.78,-227.99 418.18,-225.98 408.8,-221.06 407.78,-227.99"/>
</a>
</g>
</g>
<!-- Node8 -->
<g id="Node000008" class="node">
<title>Node8</title>
<g id="a_Node000008"><a xlink:href="../../db/d9f/classTerraria_1_1ModLoader_1_1UI_1_1UIModPackItem_aaf30d32c4c1f36c6a0708b532b6f8f21.html#aaf30d32c4c1f36c6a0708b532b6f8f21" target="_top" xlink:title=" ">
<polygon fill="white" stroke="#666666" points="158,-178 0,-178 0,-148 158,-148 158,-178"/>
<text text-anchor="start" x="8" y="-166" font-family="Helvetica,sans-Serif" font-size="10.00">Terraria.ModLoader.UI.UIMod</text>
<text text-anchor="middle" x="79" y="-155" font-family="Helvetica,sans-Serif" font-size="10.00">PackItem.UpdateModPack</text>
</a>
</g>
</g>
<!-- Node2&#45;&gt;Node8 -->
<g id="edge20_Node000002_Node000008" class="edge">
<title>Node2&#45;&gt;Node8</title>
<g id="a_edge20_Node000002_Node000008"><a xlink:title=" ">
<path fill="none" stroke="#63b8ff" d="M460.38,-220.41C437.83,-206.73 403.17,-190.37 371,-182 300.39,-163.62 217.33,-157.06 158.06,-156.42"/>
<polygon fill="#63b8ff" stroke="#63b8ff" points="458.66,-223.47 468.98,-225.89 462.42,-217.56 458.66,-223.47"/>
</a>
</g>
</g>
<!-- Node9 -->
<g id="Node000009" class="node">
<title>Node9</title>
<g id="a_Node000009"><a xlink:href="../../db/d9f/classTerraria_1_1ModLoader_1_1UI_1_1UIModPackItem_a83825b578ac1d2384957ff17564dda00.html#a83825b578ac1d2384957ff17564dda00" target="_top" xlink:title=" ">
<polygon fill="white" stroke="#666666" points="361.5,-126 203.5,-126 203.5,-96 361.5,-96 361.5,-126"/>
<text text-anchor="start" x="211.5" y="-114" font-family="Helvetica,sans-Serif" font-size="10.00">Terraria.ModLoader.UI.UIMod</text>
<text text-anchor="middle" x="282.5" y="-103" font-family="Helvetica,sans-Serif" font-size="10.00">PackItem.PlayInstance</text>
</a>
</g>
</g>
<!-- Node2&#45;&gt;Node9 -->
<g id="edge17_Node000002_Node000009" class="edge">
<title>Node2&#45;&gt;Node9</title>
<g id="a_edge17_Node000002_Node000009"><a xlink:title=" ">
<path fill="none" stroke="#63b8ff" d="M464.8,-218.38C443.48,-195.72 407.89,-161.25 371,-140 361.57,-134.57 350.98,-129.98 340.5,-126.16"/>
<polygon fill="#63b8ff" stroke="#63b8ff" points="462.37,-220.9 471.73,-225.86 467.5,-216.15 462.37,-220.9"/>
</a>
</g>
</g>
<!-- Node10 -->
<g id="Node000010" class="node">
<title>Node10</title>
<g id="a_Node000010"><a xlink:href="../../db/d9f/classTerraria_1_1ModLoader_1_1UI_1_1UIModPackItem_aa0cadd3f6cdf754364db810219df410c.html#aa0cadd3f6cdf754364db810219df410c" target="_top" xlink:title=" ">
<polygon fill="white" stroke="#666666" points="369.5,-78 195.5,-78 195.5,-48 369.5,-48 369.5,-78"/>
<text text-anchor="start" x="203.5" y="-66" font-family="Helvetica,sans-Serif" font-size="10.00">Terraria.ModLoader.UI.UIMod</text>
<text text-anchor="middle" x="282.5" y="-55" font-family="Helvetica,sans-Serif" font-size="10.00">PackItem.RemoveModPackLocal</text>
</a>
</g>
</g>
<!-- Node2&#45;&gt;Node10 -->
<g id="edge18_Node000002_Node000010" class="edge">
<title>Node2&#45;&gt;Node10</title>
<g id="a_edge18_Node000002_Node000010"><a xlink:title=" ">
<path fill="none" stroke="#63b8ff" d="M476.14,-216.39C460.01,-180.04 422.67,-113.4 371,-78 370.61,-77.73 370.22,-77.47 369.82,-77.21"/>
<polygon fill="#63b8ff" stroke="#63b8ff" points="473,-217.95 480.12,-225.79 479.44,-215.22 473,-217.95"/>
</a>
</g>
</g>
<!-- Node11 -->
<g id="Node000011" class="node">
<title>Node11</title>
<g id="a_Node000011"><a xlink:href="../../db/d9f/classTerraria_1_1ModLoader_1_1UI_1_1UIModPackItem_aa77e34d87e8f3bcecdfb980de2a052ba.html#aa77e34d87e8f3bcecdfb980de2a052ba" target="_top" xlink:title=" ">
<polygon fill="white" stroke="#666666" points="361.5,-30 203.5,-30 203.5,0 361.5,0 361.5,-30"/>
<text text-anchor="start" x="211.5" y="-18" font-family="Helvetica,sans-Serif" font-size="10.00">Terraria.ModLoader.UI.UIMod</text>
<text text-anchor="middle" x="282.5" y="-7" font-family="Helvetica,sans-Serif" font-size="10.00">PackItem.ViewListInfo</text>
</a>
</g>
</g>
<!-- Node2&#45;&gt;Node11 -->
<g id="edge21_Node000002_Node000011" class="edge">
<title>Node2&#45;&gt;Node11</title>
<g id="a_edge21_Node000002_Node000011"><a xlink:title=" ">
<path fill="none" stroke="#63b8ff" d="M479.46,-216.13C467.09,-171.41 433.32,-78.6 371,-30 368.14,-27.77 365.09,-25.75 361.91,-23.92"/>
<polygon fill="#63b8ff" stroke="#63b8ff" points="476.1,-217.13 482.02,-225.91 482.87,-215.35 476.1,-217.13"/>
</a>
</g>
</g>
<!-- Node3&#45;&gt;Node2 -->
<g id="edge3_Node000003_Node000002" class="edge">
<title>Node3&#45;&gt;Node2</title>
<g id="a_edge3_Node000003_Node000002"><a xlink:title=" ">
<path fill="none" stroke="#63b8ff" d="M370.44,-400.38C370.62,-400.25 370.81,-400.13 371,-400 426.56,-362.45 466.24,-288.85 479.84,-256.4"/>
<polygon fill="#63b8ff" stroke="#63b8ff" points="368.41,-397.51 361.55,-405.58 371.95,-403.55 368.41,-397.51"/>
</a>
</g>
</g>
<!-- Node4&#45;&gt;Node2 -->
<g id="edge5_Node000004_Node000002" class="edge">
<title>Node4&#45;&gt;Node2</title>
<g id="a_edge5_Node000004_Node000002"><a xlink:title=" ">
<path fill="none" stroke="#63b8ff" d="M370.71,-352.16C370.81,-352.1 370.9,-352.05 371,-352 416.71,-327.1 459.25,-280.54 476.68,-256.04"/>
<polygon fill="#63b8ff" stroke="#63b8ff" points="368.98,-349.11 361.54,-356.65 372.06,-355.39 368.98,-349.11"/>
</a>
</g>
</g>
<!-- Node5&#45;&gt;Node2 -->
<g id="edge7_Node000005_Node000002" class="edge">
<title>Node5&#45;&gt;Node2</title>
<g id="a_edge7_Node000005_Node000002"><a xlink:title=" ">
<path fill="none" stroke="#63b8ff" d="M367.31,-300.39C368.55,-299.93 369.78,-299.46 371,-299 405.03,-286.07 443.81,-268.86 466.24,-256.06"/>
<polygon fill="#63b8ff" stroke="#63b8ff" points="365.85,-297.2 357.65,-303.91 368.25,-303.77 365.85,-297.2"/>
</a>
</g>
</g>
<!-- Node6&#45;&gt;Node1 -->
<g id="edge10_Node000006_Node000001" class="edge">
<title>Node6&#45;&gt;Node1</title>
<g id="a_edge10_Node000006_Node000001"><a xlink:title=" ">
<path fill="none" stroke="#63b8ff" d="M87.87,-291.84C101.92,-331.43 135.47,-407.58 194,-439 263.31,-476.21 295.46,-460.95 371,-439 498.22,-402.04 623.21,-295.87 666.79,-256.2"/>
<polygon fill="#63b8ff" stroke="#63b8ff" points="91.11,-290.49 84.57,-282.16 84.48,-292.76 91.11,-290.49"/>
</a>
</g>
</g>
<!-- Node6&#45;&gt;Node2 -->
<g id="edge9_Node000006_Node000002" class="edge">
<title>Node6&#45;&gt;Node2</title>
<g id="a_edge9_Node000006_Node000002"><a xlink:title=" ">
<path fill="none" stroke="#63b8ff" d="M168.48,-267.01C239.64,-263.93 338.67,-257.49 406.91,-251.47"/>
<polygon fill="#63b8ff" stroke="#63b8ff" points="168.04,-263.53 158.19,-267.44 168.33,-270.52 168.04,-263.53"/>
</a>
</g>
</g>
<!-- Node7&#45;&gt;Node2 -->
<g id="edge12_Node000007_Node000002" class="edge">
<title>Node7&#45;&gt;Node2</title>
<g id="a_edge12_Node000007_Node000002"><a xlink:title=" ">
<path fill="none" stroke="#63b8ff" d="M360.11,-231.46C375.4,-233.66 391.47,-235.74 406.81,-237.51"/>
<polygon fill="#63b8ff" stroke="#63b8ff" points="360.6,-227.99 350.2,-230 359.58,-234.92 360.6,-227.99"/>
</a>
</g>
</g>
<!-- Node7&#45;&gt;Node6 -->
<g id="edge13_Node000007_Node000006" class="edge">
<title>Node7&#45;&gt;Node6</title>
<g id="a_edge13_Node000007_Node000006"><a xlink:title=" ">
<path fill="none" stroke="#63b8ff" d="M213.31,-232.6C188.9,-238.9 161.63,-245.93 138.15,-251.99"/>
<polygon fill="#63b8ff" stroke="#63b8ff" points="214.41,-235.93 223.22,-230.04 212.66,-229.15 214.41,-235.93"/>
</a>
</g>
</g>
<!-- Node7&#45;&gt;Node8 -->
<g id="edge14_Node000007_Node000008" class="edge">
<title>Node7&#45;&gt;Node8</title>
<g id="a_edge14_Node000007_Node000008"><a xlink:title=" ">
<path fill="none" stroke="#63b8ff" d="M213.31,-197.4C188.9,-191.1 161.63,-184.07 138.15,-178.01"/>
<polygon fill="#63b8ff" stroke="#63b8ff" points="212.66,-200.85 223.22,-199.96 214.41,-194.07 212.66,-200.85"/>
</a>
</g>
</g>
<!-- Node8&#45;&gt;Node2 -->
<g id="edge15_Node000008_Node000002" class="edge">
<title>Node8&#45;&gt;Node2</title>
<g id="a_edge15_Node000008_Node000002"><a xlink:title=" ">
<path fill="none" stroke="#63b8ff" d="M168.35,-171.91C226.7,-175.84 304.39,-182.66 371,-200 394.95,-206.23 420.28,-216.89 440.96,-225.97"/>
<polygon fill="#63b8ff" stroke="#63b8ff" points="168.26,-168.4 158.06,-171.24 167.8,-175.38 168.26,-168.4"/>
</a>
</g>
</g>
<!-- Node10&#45;&gt;Node2 -->
<g id="edge19_Node000010_Node000002" class="edge">
<title>Node10&#45;&gt;Node2</title>
<g id="a_edge19_Node000010_Node000002"><a xlink:title=" ">
<path fill="none" stroke="#63b8ff" d="M338.95,-81.02C350.18,-84.7 361.45,-89.46 371,-96 421.77,-130.78 458.7,-195.72 475.27,-225.66"/>
<polygon fill="#63b8ff" stroke="#63b8ff" points="339.73,-77.59 329.15,-78.04 337.7,-84.29 339.73,-77.59"/>
</a>
</g>
</g>
<!-- Node11&#45;&gt;Node2 -->
<g id="edge22_Node000011_Node000002" class="edge">
<title>Node11&#45;&gt;Node2</title>
<g id="a_edge22_Node000011_Node000002"><a xlink:title=" ">
<path fill="none" stroke="#63b8ff" d="M342.69,-33.21C352.81,-36.82 362.72,-41.54 371,-48 433.24,-96.54 467,-189.16 479.41,-225.87"/>
<polygon fill="#63b8ff" stroke="#63b8ff" points="343.56,-29.81 332.97,-30.06 341.41,-36.47 343.56,-29.81"/>
</a>
</g>
</g>
</g>
</svg>
