<?xml version="1.0" encoding="UTF-8" standalone="no"?>
<!DOCTYPE svg PUBLIC "-//W3C//DTD SVG 1.1//EN"
 "http://www.w3.org/Graphics/SVG/1.1/DTD/svg11.dtd">
<!-- Generated by graphviz version 2.43.0 (0)
 -->
<!-- Title: Terraria.GameContent.AmbientWindSystem.SpawnFloorCloud Pages: 1 -->
<svg width="591pt" height="133pt"
 viewBox="0.00 0.00 591.00 133.00" xmlns="http://www.w3.org/2000/svg" xmlns:xlink="http://www.w3.org/1999/xlink">
<g id="graph0" class="graph" transform="scale(1 1) rotate(0) translate(4 129)">
<title>Terraria.GameContent.AmbientWindSystem.SpawnFloorCloud</title>
<!-- Node1 -->
<g id="Node000001" class="node">
<title>Node1</title>
<g id="a_Node000001"><a xlink:title=" ">
<polygon fill="#999999" stroke="#666666" points="168,-67.5 0,-67.5 0,-37.5 168,-37.5 168,-67.5"/>
<text text-anchor="start" x="8" y="-55.5" font-family="Helvetica,sans-Serif" font-size="10.00">Terraria.GameContent.Ambient</text>
<text text-anchor="middle" x="84" y="-44.5" font-family="Helvetica,sans-Serif" font-size="10.00">WindSystem.SpawnFloorCloud</text>
</a>
</g>
</g>
<!-- Node2 -->
<g id="Node000002" class="node">
<title>Node2</title>
<g id="a_Node000002"><a xlink:href="../../d1/ddf/classTerraria_1_1Gore_a5c5f918e667ec582e81495cf507c30c6.html#a5c5f918e667ec582e81495cf507c30c6" target="_top" xlink:title=" ">
<polygon fill="white" stroke="#666666" points="374.5,-107 212.5,-107 212.5,-88 374.5,-88 374.5,-107"/>
<text text-anchor="middle" x="293.5" y="-95" font-family="Helvetica,sans-Serif" font-size="10.00">Terraria.Gore.NewGorePerfect</text>
</a>
</g>
</g>
<!-- Node1&#45;&gt;Node2 -->
<g id="edge1_Node000001_Node000002" class="edge">
<title>Node1&#45;&gt;Node2</title>
<g id="a_edge1_Node000001_Node000002"><a xlink:title=" ">
<path fill="none" stroke="#63b8ff" d="M154.38,-67.55C181.84,-73.5 212.92,-80.24 238.63,-85.82"/>
<polygon fill="#63b8ff" stroke="#63b8ff" points="238.06,-89.27 248.57,-87.97 239.54,-82.43 238.06,-89.27"/>
</a>
</g>
</g>
<!-- Node4 -->
<g id="Node000004" class="node">
<title>Node4</title>
<g id="a_Node000004"><a xlink:href="../../d9/db1/classTerraria_1_1Utilities_1_1UnifiedRandom_ac4ecc6320b69ab939b9c45eaf7d89000.html#ac4ecc6320b69ab939b9c45eaf7d89000" target="_top" xlink:title=" ">
<polygon fill="white" stroke="#666666" points="359.5,-67.5 227.5,-67.5 227.5,-37.5 359.5,-37.5 359.5,-67.5"/>
<text text-anchor="start" x="235.5" y="-55.5" font-family="Helvetica,sans-Serif" font-size="10.00">Terraria.Utilities.Unified</text>
<text text-anchor="middle" x="293.5" y="-44.5" font-family="Helvetica,sans-Serif" font-size="10.00">Random.Next</text>
</a>
</g>
</g>
<!-- Node1&#45;&gt;Node4 -->
<g id="edge4_Node000001_Node000004" class="edge">
<title>Node1&#45;&gt;Node4</title>
<g id="a_edge4_Node000001_Node000004"><a xlink:title=" ">
<path fill="none" stroke="#63b8ff" d="M168.2,-52.5C184.39,-52.5 201.27,-52.5 217.18,-52.5"/>
<polygon fill="#63b8ff" stroke="#63b8ff" points="217.48,-56 227.48,-52.5 217.48,-49 217.48,-56"/>
</a>
</g>
</g>
<!-- Node6 -->
<g id="Node000006" class="node">
<title>Node6</title>
<g id="a_Node000006"><a xlink:href="../../d1/d9c/classTerraria_1_1Utils_ac05ccb10475ab34f23db63219deba15a.html#ac05ccb10475ab34f23db63219deba15a" target="_top" xlink:title=" ">
<polygon fill="white" stroke="#666666" points="383,-19 204,-19 204,0 383,0 383,-19"/>
<text text-anchor="middle" x="293.5" y="-7" font-family="Helvetica,sans-Serif" font-size="10.00">Terraria.Utils.ToWorldCoordinates</text>
</a>
</g>
</g>
<!-- Node1&#45;&gt;Node6 -->
<g id="edge6_Node000001_Node000006" class="edge">
<title>Node1&#45;&gt;Node6</title>
<g id="a_edge6_Node000001_Node000006"><a xlink:title=" ">
<path fill="none" stroke="#63b8ff" d="M157.57,-37.46C183.45,-32.1 212.17,-26.15 236.44,-21.12"/>
<polygon fill="#63b8ff" stroke="#63b8ff" points="237.47,-24.48 246.55,-19.02 236.05,-17.62 237.47,-24.48"/>
</a>
</g>
</g>
<!-- Node2&#45;&gt;Node2 -->
<g id="edge3_Node000002_Node000002" class="edge">
<title>Node2&#45;&gt;Node2</title>
<g id="a_edge3_Node000002_Node000002"><a xlink:title=" ">
<path fill="none" stroke="#63b8ff" d="M261.75,-107.08C246.3,-115.73 256.89,-125 293.5,-125 319.24,-125 332.12,-120.42 332.12,-114.69"/>
<polygon fill="#63b8ff" stroke="#63b8ff" points="334.55,-112.16 325.25,-107.08 329.36,-116.85 334.55,-112.16"/>
</a>
</g>
</g>
<!-- Node3 -->
<g id="Node000003" class="node">
<title>Node3</title>
<g id="a_Node000003"><a xlink:href="../../d9/d62/interfaceTerraria_1_1DataStructures_1_1IEntitySource_aad02a637d76bfd16f138769722291901.html#aad02a637d76bfd16f138769722291901" target="_top" xlink:title=" ">
<polygon fill="white" stroke="#666666" points="583,-114.5 419,-114.5 419,-84.5 583,-84.5 583,-114.5"/>
<text text-anchor="start" x="427" y="-102.5" font-family="Helvetica,sans-Serif" font-size="10.00">Terraria.DataStructures.</text>
<text text-anchor="middle" x="501" y="-91.5" font-family="Helvetica,sans-Serif" font-size="10.00">IEntitySource.GetGoreFallback</text>
</a>
</g>
</g>
<!-- Node2&#45;&gt;Node3 -->
<g id="edge2_Node000002_Node000003" class="edge">
<title>Node2&#45;&gt;Node3</title>
<g id="a_edge2_Node000002_Node000003"><a xlink:title=" ">
<path fill="none" stroke="#63b8ff" d="M374.54,-98.28C385.67,-98.39 397.18,-98.5 408.5,-98.61"/>
<polygon fill="#63b8ff" stroke="#63b8ff" points="408.79,-102.11 418.82,-98.71 408.86,-95.11 408.79,-102.11"/>
</a>
</g>
</g>
<!-- Node5 -->
<g id="Node000005" class="node">
<title>Node5</title>
<g id="a_Node000005"><a xlink:href="../../d9/db1/classTerraria_1_1Utilities_1_1UnifiedRandom_a173f09196ff526b107c0223c2d58c59a.html#a173f09196ff526b107c0223c2d58c59a" target="_top" xlink:title=" ">
<polygon fill="white" stroke="#666666" points="568,-66.5 434,-66.5 434,-36.5 568,-36.5 568,-66.5"/>
<text text-anchor="start" x="442" y="-54.5" font-family="Helvetica,sans-Serif" font-size="10.00">Terraria.Utilities.Unified</text>
<text text-anchor="middle" x="501" y="-43.5" font-family="Helvetica,sans-Serif" font-size="10.00">Random.InternalSample</text>
</a>
</g>
</g>
<!-- Node4&#45;&gt;Node5 -->
<g id="edge5_Node000004_Node000005" class="edge">
<title>Node4&#45;&gt;Node5</title>
<g id="a_edge5_Node000004_Node000005"><a xlink:title=" ">
<path fill="none" stroke="#63b8ff" d="M359.52,-52.18C379.93,-52.08 402.65,-51.97 423.77,-51.87"/>
<polygon fill="#63b8ff" stroke="#63b8ff" points="424.01,-55.37 433.99,-51.82 423.97,-48.37 424.01,-55.37"/>
</a>
</g>
</g>
</g>
</svg>
