<?xml version="1.0" encoding="UTF-8" standalone="no"?>
<!DOCTYPE svg PUBLIC "-//W3C//DTD SVG 1.1//EN"
 "http://www.w3.org/Graphics/SVG/1.1/DTD/svg11.dtd">
<!-- Generated by graphviz version 2.43.0 (0)
 -->
<!-- Title: Terraria.GameContent.AmbientWindSystem.TrySpawningWind Pages: 1 -->
<!--zoomable 323 -->

<svg id="main" version="1.1" xmlns="http://www.w3.org/2000/svg" xmlns:xlink="http://www.w3.org/1999/xlink" xml:space="preserve" onload="init(evt)">
<style type="text/css"><![CDATA[
.node, .edge {opacity: 0.7;}
.node.selected, .edge.selected {opacity: 1;}
.edge:hover path { stroke: red; }
.edge:hover polygon { stroke: red; fill: red; }
]]></style>

<defs>
  <circle id="rim" cx="0" cy="0" r="7"/>
  <circle id="rim2" cx="0" cy="0" r="3.5"/>
  <g id="zoomPlus">
    <use xlink:href="#rim" fill="#404040"><set attributeName="fill" to="#808080" begin="zoomplus.mouseover" end="zoomplus.mouseout"/></use>
    <path d="M-4,0h8M0,-4v8" fill="none" stroke="white" stroke-width="1.5" pointer-events="none"/>
  </g>
  <g id="zoomMin">
    <use xlink:href="#rim" fill="#404040"><set attributeName="fill" to="#808080" begin="zoomminus.mouseover" end="zoomminus.mouseout"/></use>
    <path d="M-4,0h8" fill="none" stroke="white" stroke-width="1.5" pointer-events="none"/>
  </g>
  <g id="arrowUp" transform="translate(30 24)">
    <use xlink:href="#rim"/>
    <path pointer-events="none" fill="none" stroke="white" stroke-width="1.5" d="M0,-3.0v7 M-2.5,-0.5L0,-3.0L2.5,-0.5"/>
  </g>
  <g id="arrowRight" transform="rotate(90) translate(36 -43)">
    <use xlink:href="#rim"/>
    <path pointer-events="none" fill="none" stroke="white" stroke-width="1.5" d="M0,-3.0v7 M-2.5,-0.5L0,-3.0L2.5,-0.5"/>
  </g>
  <g id="arrowDown" transform="rotate(180) translate(-30 -48)">
    <use xlink:href="#rim"/>
    <path pointer-events="none" fill="none" stroke="white" stroke-width="1.5" d="M0,-3.0v7 M-2.5,-0.5L0,-3.0L2.5,-0.5"/>
  </g>
  <g id="arrowLeft" transform="rotate(270) translate(-36 17)">
    <use xlink:href="#rim"/>
    <path pointer-events="none" fill="none" stroke="white" stroke-width="1.5" d="M0,-3.0v7 M-2.5,-0.5L0,-3.0L2.5,-0.5"/>
  </g>
  <g id="resetDef">
    <use xlink:href="#rim2" fill="#404040"><set attributeName="fill" to="#808080" begin="reset.mouseover" end="reset.mouseout"/></use>
  </g>
</defs>
<script type="application/ecmascript">
var viewWidth = 795;
var viewHeight = 323;
var sectionId = 'dynsection-0';
</script>
<script type="application/ecmascript" xlink:href="../../svg.min.js"/>
<svg id="graph" class="graph">
<g id="viewport">
<title>Terraria.GameContent.AmbientWindSystem.TrySpawningWind</title>
<!-- Node1 -->
<g id="Node000001" class="node">
<title>Node1</title>
<g id="a_Node000001"><a xlink:title=" ">
<polygon fill="#999999" stroke="#666666" points="168,-156.5 0,-156.5 0,-126.5 168,-126.5 168,-156.5"/>
<text text-anchor="start" x="8" y="-144.5" font-family="Helvetica,sans-Serif" font-size="10.00">Terraria.GameContent.Ambient</text>
<text text-anchor="middle" x="84" y="-133.5" font-family="Helvetica,sans-Serif" font-size="10.00">WindSystem.TrySpawningWind</text>
</a>
</g>
</g>
<!-- Node2 -->
<g id="Node000002" class="node">
<title>Node2</title>
<g id="a_Node000002"><a xlink:href="../../d6/d21/structTerraria_1_1Tile_a9a3f37926e6d7f23ba057d6c0aeab1a5.html#a9a3f37926e6d7f23ba057d6c0aeab1a5" target="_top" xlink:title="Legacy code, use P:Terraria.Tile.HasTile instead.">
<polygon fill="white" stroke="#666666" points="758.5,-285 651.5,-285 651.5,-266 758.5,-266 758.5,-285"/>
<text text-anchor="middle" x="705" y="-273" font-family="Helvetica,sans-Serif" font-size="10.00">Terraria.Tile.active</text>
</a>
</g>
</g>
<!-- Node1&#45;&gt;Node2 -->
<g id="edge1_Node000001_Node000002" class="edge">
<title>Node1&#45;&gt;Node2</title>
<g id="a_edge1_Node000001_Node000002"><a xlink:title=" ">
<path fill="none" stroke="#63b8ff" d="M92.99,-156.58C109.32,-185.59 149.61,-248.5 204,-273.5 357.57,-344.08 566.76,-308.46 658.14,-287.35"/>
<polygon fill="#63b8ff" stroke="#63b8ff" points="658.98,-290.75 667.91,-285.05 657.37,-283.94 658.98,-290.75"/>
</a>
</g>
</g>
<!-- Node3 -->
<g id="Node000003" class="node">
<title>Node3</title>
<g id="a_Node000003"><a xlink:href="../../d6/d21/structTerraria_1_1Tile_afac1102270d7f948e822bfbe76d4533d.html#afac1102270d7f948e822bfbe76d4533d" target="_top" xlink:title="Legacy code, use P:Terraria.Tile.IsHalfBlock instead.">
<polygon fill="white" stroke="#666666" points="348.5,-130 227.5,-130 227.5,-111 348.5,-111 348.5,-130"/>
<text text-anchor="middle" x="288" y="-118" font-family="Helvetica,sans-Serif" font-size="10.00">Terraria.Tile.halfBrick</text>
</a>
</g>
</g>
<!-- Node1&#45;&gt;Node3 -->
<g id="edge2_Node000001_Node000003" class="edge">
<title>Node1&#45;&gt;Node3</title>
<g id="a_edge2_Node000001_Node000003"><a xlink:title=" ">
<path fill="none" stroke="#63b8ff" d="M168.04,-132.87C184.37,-131.17 201.35,-129.4 217.2,-127.76"/>
<polygon fill="#63b8ff" stroke="#63b8ff" points="217.85,-131.21 227.43,-126.69 217.12,-124.25 217.85,-131.21"/>
</a>
</g>
</g>
<!-- Node4 -->
<g id="Node000004" class="node">
<title>Node4</title>
<g id="a_Node000004"><a xlink:href="../../de/da1/classTerraria_1_1WorldGen_adf59bfc3a2909993f72f0c69a5eaf553.html#adf59bfc3a2909993f72f0c69a5eaf553" target="_top" xlink:title=" ">
<polygon fill="white" stroke="#666666" points="359.5,-93 216.5,-93 216.5,-74 359.5,-74 359.5,-93"/>
<text text-anchor="middle" x="288" y="-81" font-family="Helvetica,sans-Serif" font-size="10.00">Terraria.WorldGen.InWorld</text>
</a>
</g>
</g>
<!-- Node1&#45;&gt;Node4 -->
<g id="edge3_Node000001_Node000004" class="edge">
<title>Node1&#45;&gt;Node4</title>
<g id="a_edge3_Node000001_Node000004"><a xlink:title=" ">
<path fill="none" stroke="#63b8ff" d="M125.96,-126.48C148.75,-118.44 177.73,-108.74 204,-101.5 211.88,-99.33 220.24,-97.25 228.51,-95.33"/>
<polygon fill="#63b8ff" stroke="#63b8ff" points="229.52,-98.69 238.5,-93.07 227.98,-91.86 229.52,-98.69"/>
</a>
</g>
</g>
<!-- Node5 -->
<g id="Node000005" class="node">
<title>Node5</title>
<g id="a_Node000005"><a xlink:href="../../d9/db1/classTerraria_1_1Utilities_1_1UnifiedRandom_ac4ecc6320b69ab939b9c45eaf7d89000.html#ac4ecc6320b69ab939b9c45eaf7d89000" target="_top" xlink:title=" ">
<polygon fill="white" stroke="#666666" points="563.5,-221.5 431.5,-221.5 431.5,-191.5 563.5,-191.5 563.5,-221.5"/>
<text text-anchor="start" x="439.5" y="-209.5" font-family="Helvetica,sans-Serif" font-size="10.00">Terraria.Utilities.Unified</text>
<text text-anchor="middle" x="497.5" y="-198.5" font-family="Helvetica,sans-Serif" font-size="10.00">Random.Next</text>
</a>
</g>
</g>
<!-- Node1&#45;&gt;Node5 -->
<g id="edge4_Node000001_Node000005" class="edge">
<title>Node1&#45;&gt;Node5</title>
<g id="a_edge4_Node000001_Node000005"><a xlink:title=" ">
<path fill="none" stroke="#63b8ff" d="M116.5,-156.72C140.03,-167.32 173.28,-180.73 204,-187.5 276.58,-203.49 361.55,-207.42 421.15,-207.85"/>
<polygon fill="#63b8ff" stroke="#63b8ff" points="421.21,-211.35 431.23,-207.89 421.24,-204.35 421.21,-211.35"/>
</a>
</g>
</g>
<!-- Node7 -->
<g id="Node000007" class="node">
<title>Node7</title>
<g id="a_Node000007"><a xlink:href="../../d6/d21/structTerraria_1_1Tile_ab9bfb24365d03f2b4fe0842f6a406765.html#ab9bfb24365d03f2b4fe0842f6a406765" target="_top" xlink:title="Legacy code, use P:Terraria.Tile.Slope instead.">
<polygon fill="white" stroke="#666666" points="340,-56 236,-56 236,-37 340,-37 340,-56"/>
<text text-anchor="middle" x="288" y="-44" font-family="Helvetica,sans-Serif" font-size="10.00">Terraria.Tile.slope</text>
</a>
</g>
</g>
<!-- Node1&#45;&gt;Node7 -->
<g id="edge6_Node000001_Node000007" class="edge">
<title>Node1&#45;&gt;Node7</title>
<g id="a_edge6_Node000001_Node000007"><a xlink:title=" ">
<path fill="none" stroke="#63b8ff" d="M103.58,-126.4C126.04,-108.91 165.6,-80.46 204,-64.5 210.91,-61.63 218.34,-59.19 225.82,-57.12"/>
<polygon fill="#63b8ff" stroke="#63b8ff" points="226.81,-60.48 235.63,-54.61 225.08,-53.7 226.81,-60.48"/>
</a>
</g>
</g>
<!-- Node8 -->
<g id="Node000008" class="node">
<title>Node8</title>
<g id="a_Node000008"><a xlink:href="../../de/da1/classTerraria_1_1WorldGen_a1fd0f41d2e75a087307174bc5e47823e.html#a1fd0f41d2e75a087307174bc5e47823e" target="_top" xlink:title=" ">
<polygon fill="white" stroke="#666666" points="362.5,-19 213.5,-19 213.5,0 362.5,0 362.5,-19"/>
<text text-anchor="middle" x="288" y="-7" font-family="Helvetica,sans-Serif" font-size="10.00">Terraria.WorldGen.SolidTile</text>
</a>
</g>
</g>
<!-- Node1&#45;&gt;Node8 -->
<g id="edge7_Node000001_Node000008" class="edge">
<title>Node1&#45;&gt;Node8</title>
<g id="a_edge7_Node000001_Node000008"><a xlink:title=" ">
<path fill="none" stroke="#63b8ff" d="M96.29,-126.2C115.49,-101.34 157.02,-52.49 204,-27.5 207.49,-25.64 211.16,-23.98 214.93,-22.49"/>
<polygon fill="#63b8ff" stroke="#63b8ff" points="216.21,-25.75 224.47,-19.12 213.88,-19.15 216.21,-25.75"/>
</a>
</g>
</g>
<!-- Node9 -->
<g id="Node000009" class="node">
<title>Node9</title>
<g id="a_Node000009"><a xlink:href="../../d9/df3/classTerraria_1_1GameContent_1_1AmbientWindSystem_af43c59f47826590818f0305b384ce535.html#af43c59f47826590818f0305b384ce535" target="_top" xlink:title=" ">
<polygon fill="white" stroke="#666666" points="372,-178.5 204,-178.5 204,-148.5 372,-148.5 372,-178.5"/>
<text text-anchor="start" x="212" y="-166.5" font-family="Helvetica,sans-Serif" font-size="10.00">Terraria.GameContent.Ambient</text>
<text text-anchor="middle" x="288" y="-155.5" font-family="Helvetica,sans-Serif" font-size="10.00">WindSystem.SpawnFloorCloud</text>
</a>
</g>
</g>
<!-- Node1&#45;&gt;Node9 -->
<g id="edge8_Node000001_Node000009" class="edge">
<title>Node1&#45;&gt;Node9</title>
<g id="a_edge8_Node000001_Node000009"><a xlink:title=" ">
<path fill="none" stroke="#63b8ff" d="M168.04,-150.54C176.56,-151.47 185.26,-152.42 193.89,-153.36"/>
<polygon fill="#63b8ff" stroke="#63b8ff" points="193.64,-156.85 203.96,-154.46 194.4,-149.89 193.64,-156.85"/>
</a>
</g>
</g>
<!-- Node13 -->
<g id="Node000013" class="node">
<title>Node13</title>
<g id="a_Node000013"><a xlink:href="../../d9/df3/classTerraria_1_1GameContent_1_1AmbientWindSystem_af1a5e7313c0c4b02ed283e56cc68e7b1.html#af1a5e7313c0c4b02ed283e56cc68e7b1" target="_top" xlink:title=" ">
<polygon fill="white" stroke="#666666" points="372,-264.5 204,-264.5 204,-234.5 372,-234.5 372,-264.5"/>
<text text-anchor="start" x="212" y="-252.5" font-family="Helvetica,sans-Serif" font-size="10.00">Terraria.GameContent.Ambient</text>
<text text-anchor="middle" x="288" y="-241.5" font-family="Helvetica,sans-Serif" font-size="10.00">WindSystem.TestAirCloud</text>
</a>
</g>
</g>
<!-- Node1&#45;&gt;Node13 -->
<g id="edge14_Node000001_Node000013" class="edge">
<title>Node1&#45;&gt;Node13</title>
<g id="a_edge14_Node000001_Node000013"><a xlink:title=" ">
<path fill="none" stroke="#63b8ff" d="M104.29,-156.52C127.1,-173.73 166.69,-201.96 204,-220.5 211.57,-224.26 219.74,-227.75 227.9,-230.91"/>
<polygon fill="#63b8ff" stroke="#63b8ff" points="226.86,-234.25 237.45,-234.46 229.3,-227.69 226.86,-234.25"/>
</a>
</g>
</g>
<!-- Node6 -->
<g id="Node000006" class="node">
<title>Node6</title>
<g id="a_Node000006"><a xlink:href="../../d9/db1/classTerraria_1_1Utilities_1_1UnifiedRandom_a173f09196ff526b107c0223c2d58c59a.html#a173f09196ff526b107c0223c2d58c59a" target="_top" xlink:title=" ">
<polygon fill="white" stroke="#666666" points="772,-221.5 638,-221.5 638,-191.5 772,-191.5 772,-221.5"/>
<text text-anchor="start" x="646" y="-209.5" font-family="Helvetica,sans-Serif" font-size="10.00">Terraria.Utilities.Unified</text>
<text text-anchor="middle" x="705" y="-198.5" font-family="Helvetica,sans-Serif" font-size="10.00">Random.InternalSample</text>
</a>
</g>
</g>
<!-- Node5&#45;&gt;Node6 -->
<g id="edge5_Node000005_Node000006" class="edge">
<title>Node5&#45;&gt;Node6</title>
<g id="a_edge5_Node000005_Node000006"><a xlink:title=" ">
<path fill="none" stroke="#63b8ff" d="M563.52,-206.5C583.93,-206.5 606.65,-206.5 627.77,-206.5"/>
<polygon fill="#63b8ff" stroke="#63b8ff" points="627.99,-210 637.99,-206.5 627.99,-203 627.99,-210"/>
</a>
</g>
</g>
<!-- Node9&#45;&gt;Node5 -->
<g id="edge12_Node000009_Node000005" class="edge">
<title>Node9&#45;&gt;Node5</title>
<g id="a_edge12_Node000009_Node000005"><a xlink:title=" ">
<path fill="none" stroke="#63b8ff" d="M361.57,-178.54C380.88,-182.54 401.78,-186.87 421.22,-190.9"/>
<polygon fill="#63b8ff" stroke="#63b8ff" points="420.74,-194.38 431.25,-192.98 422.16,-187.52 420.74,-194.38"/>
</a>
</g>
</g>
<!-- Node10 -->
<g id="Node000010" class="node">
<title>Node10</title>
<g id="a_Node000010"><a xlink:href="../../d1/ddf/classTerraria_1_1Gore_a5c5f918e667ec582e81495cf507c30c6.html#a5c5f918e667ec582e81495cf507c30c6" target="_top" xlink:title=" ">
<polygon fill="white" stroke="#666666" points="578.5,-155 416.5,-155 416.5,-136 578.5,-136 578.5,-155"/>
<text text-anchor="middle" x="497.5" y="-143" font-family="Helvetica,sans-Serif" font-size="10.00">Terraria.Gore.NewGorePerfect</text>
</a>
</g>
</g>
<!-- Node9&#45;&gt;Node10 -->
<g id="edge9_Node000009_Node000010" class="edge">
<title>Node9&#45;&gt;Node10</title>
<g id="a_edge9_Node000009_Node000010"><a xlink:title=" ">
<path fill="none" stroke="#63b8ff" d="M372.2,-156.28C383.34,-155.32 394.8,-154.32 406.06,-153.35"/>
<polygon fill="#63b8ff" stroke="#63b8ff" points="406.65,-156.81 416.31,-152.46 406.05,-149.83 406.65,-156.81"/>
</a>
</g>
</g>
<!-- Node12 -->
<g id="Node000012" class="node">
<title>Node12</title>
<g id="a_Node000012"><a xlink:href="../../d1/d9c/classTerraria_1_1Utils_ac05ccb10475ab34f23db63219deba15a.html#ac05ccb10475ab34f23db63219deba15a" target="_top" xlink:title=" ">
<polygon fill="white" stroke="#666666" points="587,-118 408,-118 408,-99 587,-99 587,-118"/>
<text text-anchor="middle" x="497.5" y="-106" font-family="Helvetica,sans-Serif" font-size="10.00">Terraria.Utils.ToWorldCoordinates</text>
</a>
</g>
</g>
<!-- Node9&#45;&gt;Node12 -->
<g id="edge13_Node000009_Node000012" class="edge">
<title>Node9&#45;&gt;Node12</title>
<g id="a_edge13_Node000009_Node000012"><a xlink:title=" ">
<path fill="none" stroke="#63b8ff" d="M342.23,-148.45C352.15,-145.55 362.4,-142.49 372,-139.5 388.1,-134.49 391.73,-131.94 408,-127.5 417.34,-124.95 427.31,-122.53 437.06,-120.32"/>
<polygon fill="#63b8ff" stroke="#63b8ff" points="438.11,-123.67 447.11,-118.1 436.6,-116.84 438.11,-123.67"/>
</a>
</g>
</g>
<!-- Node10&#45;&gt;Node10 -->
<g id="edge11_Node000010_Node000010" class="edge">
<title>Node10&#45;&gt;Node10</title>
<g id="a_edge11_Node000010_Node000010"><a xlink:title=" ">
<path fill="none" stroke="#63b8ff" d="M465.75,-155.08C450.3,-163.73 460.89,-173 497.5,-173 523.24,-173 536.12,-168.42 536.12,-162.69"/>
<polygon fill="#63b8ff" stroke="#63b8ff" points="538.55,-160.16 529.25,-155.08 533.36,-164.85 538.55,-160.16"/>
</a>
</g>
</g>
<!-- Node11 -->
<g id="Node000011" class="node">
<title>Node11</title>
<g id="a_Node000011"><a xlink:href="../../d9/d62/interfaceTerraria_1_1DataStructures_1_1IEntitySource_aad02a637d76bfd16f138769722291901.html#aad02a637d76bfd16f138769722291901" target="_top" xlink:title=" ">
<polygon fill="white" stroke="#666666" points="787,-160.5 623,-160.5 623,-130.5 787,-130.5 787,-160.5"/>
<text text-anchor="start" x="631" y="-148.5" font-family="Helvetica,sans-Serif" font-size="10.00">Terraria.DataStructures.</text>
<text text-anchor="middle" x="705" y="-137.5" font-family="Helvetica,sans-Serif" font-size="10.00">IEntitySource.GetGoreFallback</text>
</a>
</g>
</g>
<!-- Node10&#45;&gt;Node11 -->
<g id="edge10_Node000010_Node000011" class="edge">
<title>Node10&#45;&gt;Node11</title>
<g id="a_edge10_Node000010_Node000011"><a xlink:title=" ">
<path fill="none" stroke="#63b8ff" d="M578.54,-145.5C589.67,-145.5 601.18,-145.5 612.5,-145.5"/>
<polygon fill="#63b8ff" stroke="#63b8ff" points="612.82,-149 622.82,-145.5 612.82,-142 612.82,-149"/>
</a>
</g>
</g>
<!-- Node13&#45;&gt;Node5 -->
<g id="edge17_Node000013_Node000005" class="edge">
<title>Node13&#45;&gt;Node5</title>
<g id="a_edge17_Node000013_Node000005"><a xlink:title=" ">
<path fill="none" stroke="#63b8ff" d="M361.57,-234.46C380.88,-230.46 401.78,-226.13 421.22,-222.1"/>
<polygon fill="#63b8ff" stroke="#63b8ff" points="422.16,-225.48 431.25,-220.02 420.74,-218.62 422.16,-225.48"/>
</a>
</g>
</g>
<!-- Node14 -->
<g id="Node000014" class="node">
<title>Node14</title>
<g id="a_Node000014"><a xlink:href="../../d9/df3/classTerraria_1_1GameContent_1_1AmbientWindSystem_a78b268671867da5a1665481a7321df22.html#a78b268671867da5a1665481a7321df22" target="_top" xlink:title=" ">
<polygon fill="white" stroke="#666666" points="585.5,-269.5 409.5,-269.5 409.5,-239.5 585.5,-239.5 585.5,-269.5"/>
<text text-anchor="start" x="417.5" y="-257.5" font-family="Helvetica,sans-Serif" font-size="10.00">Terraria.GameContent.Ambient</text>
<text text-anchor="middle" x="497.5" y="-246.5" font-family="Helvetica,sans-Serif" font-size="10.00">WindSystem.DoesTileAllowWind</text>
</a>
</g>
</g>
<!-- Node13&#45;&gt;Node14 -->
<g id="edge15_Node000013_Node000014" class="edge">
<title>Node13&#45;&gt;Node14</title>
<g id="a_edge15_Node000013_Node000014"><a xlink:title=" ">
<path fill="none" stroke="#63b8ff" d="M372.2,-251.5C381.05,-251.72 390.1,-251.94 399.1,-252.15"/>
<polygon fill="#63b8ff" stroke="#63b8ff" points="399.12,-255.65 409.21,-252.4 399.29,-248.66 399.12,-255.65"/>
</a>
</g>
</g>
<!-- Node14&#45;&gt;Node2 -->
<g id="edge16_Node000014_Node000002" class="edge">
<title>Node14&#45;&gt;Node2</title>
<g id="a_edge16_Node000014_Node000002"><a xlink:title=" ">
<path fill="none" stroke="#63b8ff" d="M585.65,-263.41C604.31,-265.31 623.66,-267.29 641.18,-269.08"/>
<polygon fill="#63b8ff" stroke="#63b8ff" points="640.97,-272.58 651.27,-270.11 641.68,-265.61 640.97,-272.58"/>
</a>
</g>
</g>
</g>
</svg>

<g id="navigator" transform="translate(0 0)" fill="#404254">
  <rect fill="#f2f5e9" fill-opacity="0.5" stroke="#606060" stroke-width=".5" x="0" y="0" width="60" height="60"/>
  <use id="zoomplus" xlink:href="#zoomPlus" x="17" y="9" onmousedown="handleZoom(evt,'in')"/>
  <use id="zoomminus" xlink:href="#zoomMin" x="42" y="9" onmousedown="handleZoom(evt,'out')"/>
  <use id="reset" xlink:href="#resetDef" x="30" y="36" onmousedown="handleReset()"/>
   <use id="arrowup" xlink:href="#arrowUp" x="0" y="0" onmousedown="handlePan(0,-1)"/>
  <use id="arrowright" xlink:href="#arrowRight" x="0" y="0" onmousedown="handlePan(1,0)"/>
  <use id="arrowdown" xlink:href="#arrowDown" x="0" y="0" onmousedown="handlePan(0,1)"/>
  <use id="arrowleft" xlink:href="#arrowLeft" x="0" y="0" onmousedown="handlePan(-1,0)"/>
</g>
<svg viewBox="0 0 15 15" width="100%" height="30px" preserveAspectRatio="xMaxYMin meet">
 <g id="arrow_out" transform="scale(0.3 0.3)">
  <a xlink:href="classTerraria_1_1GameContent_1_1AmbientWindSystem_a192e3c6e8fb91c9da5685edbe9cf8ab3_a192e3c6e8fb91c9da5685edbe9cf8ab3_cgraph_org.svg" target="_base">
   <rect id="button" ry="5" rx="5" y="6" x="6" height="38" width="38"
        fill="#f2f5e9" fill-opacity="0.5" stroke="#606060" stroke-width="1.0"/>
   <path id="arrow"
     d="M 11.500037,31.436501 C 11.940474,20.09759 22.043105,11.32322 32.158766,21.979434 L 37.068811,17.246167 C 37.068811,17.246167 37.088388,32 37.088388,32 L 22.160133,31.978069 C 22.160133,31.978069 26.997745,27.140456 26.997745,27.140456 C 18.528582,18.264221 13.291696,25.230495 11.500037,31.436501 z"
     style="fill:#404040;"/>
  </a>
 </g>
</svg>

<style type='text/css'>
<![CDATA[
[data-mouse-over-selected='false'] { opacity: 0.7; }
[data-mouse-over-selected='true']  { opacity: 1.0; }
]]>
</style>
<script type="application/ecmascript"><![CDATA[
document.addEventListener('DOMContentLoaded', (event) => {
  highlightEdges();
  highlightAdjacentNodes();
});
]]></script>
</svg>
