<?xml version="1.0" encoding="UTF-8" standalone="no"?>
<!DOCTYPE svg PUBLIC "-//W3C//DTD SVG 1.1//EN"
 "http://www.w3.org/Graphics/SVG/1.1/DTD/svg11.dtd">
<!-- Generated by graphviz version 2.43.0 (0)
 -->
<!-- Title: Terraria.UI.ItemSlot.TryPickupDyeToCursor Pages: 1 -->
<svg width="1131pt" height="1200pt"
 viewBox="0.00 0.00 1131.00 1200.00" xmlns="http://www.w3.org/2000/svg" xmlns:xlink="http://www.w3.org/1999/xlink">
<g id="graph0" class="graph" transform="scale(1 1) rotate(0) translate(4 1196)">
<title>Terraria.UI.ItemSlot.TryPickupDyeToCursor</title>
<!-- Node1 -->
<g id="Node000001" class="node">
<title>Node1</title>
<g id="a_Node000001"><a xlink:title=" ">
<polygon fill="#999999" stroke="#666666" points="128,-522 0,-522 0,-492 128,-492 128,-522"/>
<text text-anchor="start" x="8" y="-510" font-family="Helvetica,sans-Serif" font-size="10.00">Terraria.UI.ItemSlot.Try</text>
<text text-anchor="middle" x="64" y="-499" font-family="Helvetica,sans-Serif" font-size="10.00">PickupDyeToCursor</text>
</a>
</g>
</g>
<!-- Node2 -->
<g id="Node000002" class="node">
<title>Node2</title>
<g id="a_Node000002"><a xlink:href="../../d7/de6/classTerraria_1_1ModLoader_1_1ItemLoader_aa56d85982ee46e9f593f2373867c4a76.html#aa56d85982ee46e9f593f2373867c4a76" target="_top" xlink:title="Returns false if item prefixes don&#39;t match. Then calls all GlobalItem.CanStack hooks until one return...">
<polygon fill="white" stroke="#666666" points="334,-610 164,-610 164,-580 334,-580 334,-610"/>
<text text-anchor="start" x="172" y="-598" font-family="Helvetica,sans-Serif" font-size="10.00">Terraria.ModLoader.ItemLoader.</text>
<text text-anchor="middle" x="249" y="-587" font-family="Helvetica,sans-Serif" font-size="10.00">CanStack</text>
</a>
</g>
</g>
<!-- Node1&#45;&gt;Node2 -->
<g id="edge1_Node000001_Node000002" class="edge">
<title>Node1&#45;&gt;Node2</title>
<g id="a_edge1_Node000001_Node000002"><a xlink:title=" ">
<path fill="none" stroke="#63b8ff" d="M84.47,-522.08C103.74,-536.39 134.55,-557.63 164,-571 168.35,-572.97 172.89,-574.82 177.53,-576.55"/>
<polygon fill="#63b8ff" stroke="#63b8ff" points="176.52,-579.91 187.12,-579.93 178.85,-573.31 176.52,-579.91"/>
</a>
</g>
</g>
<!-- Node3 -->
<g id="Node000003" class="node">
<title>Node3</title>
<g id="a_Node000003"><a xlink:href="../../d3/d78/classTerraria_1_1Audio_1_1SoundEngine_af55950ae09b294fad1dd58e37fecf28b.html#af55950ae09b294fad1dd58e37fecf28b" target="_top" xlink:title="Attempts to play a sound style with the provided sound style (if it&#39;s not null), and returns a valid ...">
<polygon fill="white" stroke="#666666" points="325.5,-544 172.5,-544 172.5,-514 325.5,-514 325.5,-544"/>
<text text-anchor="start" x="180.5" y="-532" font-family="Helvetica,sans-Serif" font-size="10.00">Terraria.Audio.SoundEngine.</text>
<text text-anchor="middle" x="249" y="-521" font-family="Helvetica,sans-Serif" font-size="10.00">PlaySound</text>
</a>
</g>
</g>
<!-- Node1&#45;&gt;Node3 -->
<g id="edge2_Node000001_Node000003" class="edge">
<title>Node1&#45;&gt;Node3</title>
<g id="a_edge2_Node000001_Node000003"><a xlink:title=" ">
<path fill="none" stroke="#63b8ff" d="M128.23,-514.6C139.26,-515.93 150.9,-517.33 162.4,-518.71"/>
<polygon fill="#63b8ff" stroke="#63b8ff" points="162.12,-522.2 172.47,-519.92 162.96,-515.25 162.12,-522.2"/>
</a>
</g>
</g>
<!-- Node4 -->
<g id="Node000004" class="node">
<title>Node4</title>
<g id="a_Node000004"><a xlink:href="../../d2/dfe/classTerraria_1_1NetMessage_a0099400efdc729b71368da55adc01263.html#a0099400efdc729b71368da55adc01263" target="_top" xlink:title=" ">
<polygon fill="white" stroke="#666666" points="332.5,-495.5 165.5,-495.5 165.5,-476.5 332.5,-476.5 332.5,-495.5"/>
<text text-anchor="middle" x="249" y="-483.5" font-family="Helvetica,sans-Serif" font-size="10.00">Terraria.NetMessage.SendData</text>
</a>
</g>
</g>
<!-- Node1&#45;&gt;Node4 -->
<g id="edge4_Node000001_Node000004" class="edge">
<title>Node1&#45;&gt;Node4</title>
<g id="a_edge4_Node000001_Node000004"><a xlink:title=" ">
<path fill="none" stroke="#63b8ff" d="M128.23,-499.74C137.04,-498.73 146.22,-497.68 155.43,-496.62"/>
<polygon fill="#63b8ff" stroke="#63b8ff" points="155.86,-500.1 165.4,-495.48 155.06,-493.14 155.86,-500.1"/>
</a>
</g>
</g>
<!-- Node39 -->
<g id="Node000039" class="node">
<title>Node39</title>
<g id="a_Node000039"><a xlink:href="../../d7/de6/classTerraria_1_1ModLoader_1_1ItemLoader_a097bd8d87927fe491386703103c48523.html#a097bd8d87927fe491386703103c48523" target="_top" xlink:title="Stacks destination &#160;onto source &#160;&#160;This method should not be called unless M:Terraria....">
<polygon fill="white" stroke="#666666" points="334,-255 164,-255 164,-225 334,-225 334,-255"/>
<text text-anchor="start" x="172" y="-243" font-family="Helvetica,sans-Serif" font-size="10.00">Terraria.ModLoader.ItemLoader.</text>
<text text-anchor="middle" x="249" y="-232" font-family="Helvetica,sans-Serif" font-size="10.00">StackItems</text>
</a>
</g>
</g>
<!-- Node1&#45;&gt;Node39 -->
<g id="edge44_Node000001_Node000039" class="edge">
<title>Node1&#45;&gt;Node39</title>
<g id="a_edge44_Node000001_Node000039"><a xlink:title=" ">
<path fill="none" stroke="#63b8ff" d="M75.36,-491.88C105.74,-447.56 194.74,-317.7 231.66,-263.84"/>
<polygon fill="#63b8ff" stroke="#63b8ff" points="234.76,-265.51 237.52,-255.29 228.98,-261.56 234.76,-265.51"/>
</a>
</g>
</g>
<!-- Node3&#45;&gt;Node3 -->
<g id="edge3_Node000003_Node000003" class="edge">
<title>Node3&#45;&gt;Node3</title>
<g id="a_edge3_Node000003_Node000003"><a xlink:title=" ">
<path fill="none" stroke="#63b8ff" d="M216.66,-544.28C209.47,-553.41 220.25,-562 249,-562 266.07,-562 276.81,-558.97 281.21,-554.6"/>
<polygon fill="#63b8ff" stroke="#63b8ff" points="284.71,-554.32 281.34,-544.28 277.71,-554.23 284.71,-554.32"/>
</a>
</g>
</g>
<!-- Node5 -->
<g id="Node000005" class="node">
<title>Node5</title>
<g id="a_Node000005"><a xlink:href="../../d2/dfe/classTerraria_1_1NetMessage_a8bd80eec85317f48bb6a6fd7a8a8312b.html#a8bd80eec85317f48bb6a6fd7a8a8312b" target="_top" xlink:title=" ">
<polygon fill="white" stroke="#666666" points="540,-936 371,-936 371,-906 540,-906 540,-936"/>
<text text-anchor="start" x="379" y="-924" font-family="Helvetica,sans-Serif" font-size="10.00">Terraria.NetMessage.Compress</text>
<text text-anchor="middle" x="455.5" y="-913" font-family="Helvetica,sans-Serif" font-size="10.00">TileBlock</text>
</a>
</g>
</g>
<!-- Node4&#45;&gt;Node5 -->
<g id="edge5_Node000004_Node000005" class="edge">
<title>Node4&#45;&gt;Node5</title>
<g id="a_edge5_Node000004_Node000005"><a xlink:title=" ">
<path fill="none" stroke="#63b8ff" d="M322.34,-495.5C326.67,-498.07 330.63,-501.2 334,-505 385.87,-563.5 332.16,-786.58 370,-855 380.51,-874 398.99,-889.39 415.99,-900.52"/>
<polygon fill="#63b8ff" stroke="#63b8ff" points="414.36,-903.62 424.7,-905.94 418.06,-897.68 414.36,-903.62"/>
</a>
</g>
</g>
<!-- Node17 -->
<g id="Node000017" class="node">
<title>Node17</title>
<g id="a_Node000017"><a xlink:href="../../db/d56/classTerraria_1_1DataStructures_1_1TileEntity_a94671f9097e4ebf6de668b08e9f0b50a.html#a94671f9097e4ebf6de668b08e9f0b50a" target="_top" xlink:title=" ">
<polygon fill="white" stroke="#666666" points="942,-781 810,-781 810,-751 942,-751 942,-781"/>
<text text-anchor="start" x="818" y="-769" font-family="Helvetica,sans-Serif" font-size="10.00">Terraria.DataStructures.</text>
<text text-anchor="middle" x="876" y="-758" font-family="Helvetica,sans-Serif" font-size="10.00">TileEntity.Write</text>
</a>
</g>
</g>
<!-- Node4&#45;&gt;Node17 -->
<g id="edge38_Node000004_Node000017" class="edge">
<title>Node4&#45;&gt;Node17</title>
<g id="a_edge38_Node000004_Node000017"><a xlink:title=" ">
<path fill="none" stroke="#63b8ff" d="M322.28,-495.56C326.62,-498.11 330.6,-501.22 334,-505 379.8,-555.9 318.83,-765.5 370,-811 433.18,-867.18 685.9,-813.71 808.12,-783.51"/>
<polygon fill="#63b8ff" stroke="#63b8ff" points="809.26,-786.84 818.12,-781.02 807.57,-780.04 809.26,-786.84"/>
</a>
</g>
</g>
<!-- Node18 -->
<g id="Node000018" class="node">
<title>Node18</title>
<g id="a_Node000018"><a xlink:href="../../db/d90/classTerraria_1_1Netplay_a8a3ee13aeab7ca5a142d52fc6a7c94a8.html#a8a3ee13aeab7ca5a142d52fc6a7c94a8" target="_top" xlink:title=" ">
<polygon fill="white" stroke="#666666" points="533.5,-774.5 377.5,-774.5 377.5,-755.5 533.5,-755.5 533.5,-774.5"/>
<text text-anchor="middle" x="455.5" y="-762.5" font-family="Helvetica,sans-Serif" font-size="10.00">Terraria.Netplay.GetSectionX</text>
</a>
</g>
</g>
<!-- Node4&#45;&gt;Node18 -->
<g id="edge18_Node000004_Node000018" class="edge">
<title>Node4&#45;&gt;Node18</title>
<g id="a_edge18_Node000004_Node000018"><a xlink:title=" ">
<path fill="none" stroke="#63b8ff" d="M322.15,-495.68C326.52,-498.2 330.54,-501.27 334,-505 407.96,-584.71 295.54,-667.76 370,-747 370.77,-747.82 371.57,-748.61 372.39,-749.36"/>
<polygon fill="#63b8ff" stroke="#63b8ff" points="370.31,-752.17 380.41,-755.35 374.49,-746.56 370.31,-752.17"/>
</a>
</g>
</g>
<!-- Node19 -->
<g id="Node000019" class="node">
<title>Node19</title>
<g id="a_Node000019"><a xlink:href="../../db/d90/classTerraria_1_1Netplay_aae951351c7bd7fff569a8f67e4a700a0.html#aae951351c7bd7fff569a8f67e4a700a0" target="_top" xlink:title=" ">
<polygon fill="white" stroke="#666666" points="533,-737.5 378,-737.5 378,-718.5 533,-718.5 533,-737.5"/>
<text text-anchor="middle" x="455.5" y="-725.5" font-family="Helvetica,sans-Serif" font-size="10.00">Terraria.Netplay.GetSectionY</text>
</a>
</g>
</g>
<!-- Node4&#45;&gt;Node19 -->
<g id="edge19_Node000004_Node000019" class="edge">
<title>Node4&#45;&gt;Node19</title>
<g id="a_edge19_Node000004_Node000019"><a xlink:title=" ">
<path fill="none" stroke="#63b8ff" d="M321.65,-495.56C326.2,-498.11 330.39,-501.21 334,-505 397.53,-571.64 306.43,-642.4 370,-709 371.25,-710.31 372.57,-711.54 373.95,-712.69"/>
<polygon fill="#63b8ff" stroke="#63b8ff" points="372.2,-715.73 382.43,-718.48 376.14,-709.95 372.2,-715.73"/>
</a>
</g>
</g>
<!-- Node20 -->
<g id="Node000020" class="node">
<title>Node20</title>
<g id="a_Node000020"><a xlink:href="../../d4/d8f/classTerraria_1_1Localization_1_1Language_ae4636a4800b9ecbaa498954520462f78.html#ae4636a4800b9ecbaa498954520462f78" target="_top" xlink:title="Retrieves the text value for a specified localization key. The text returned will be for the currentl...">
<polygon fill="white" stroke="#666666" points="539.5,-700 371.5,-700 371.5,-670 539.5,-670 539.5,-700"/>
<text text-anchor="start" x="379.5" y="-688" font-family="Helvetica,sans-Serif" font-size="10.00">Terraria.Localization.Language.</text>
<text text-anchor="middle" x="455.5" y="-677" font-family="Helvetica,sans-Serif" font-size="10.00">GetTextValue</text>
</a>
</g>
</g>
<!-- Node4&#45;&gt;Node20 -->
<g id="edge20_Node000004_Node000020" class="edge">
<title>Node4&#45;&gt;Node20</title>
<g id="a_edge20_Node000004_Node000020"><a xlink:title=" ">
<path fill="none" stroke="#63b8ff" d="M321.03,-495.56C325.78,-498.1 330.19,-501.2 334,-505 384.42,-555.2 320.96,-609.44 370,-661 370.92,-661.96 371.87,-662.89 372.85,-663.78"/>
<polygon fill="#63b8ff" stroke="#63b8ff" points="370.88,-666.67 380.97,-669.91 375.1,-661.09 370.88,-666.67"/>
</a>
</g>
</g>
<!-- Node21 -->
<g id="Node000021" class="node">
<title>Node21</title>
<g id="a_Node000021"><a xlink:href="../../df/d47/classTerraria_1_1ModLoader_1_1ModNet_a1c1f9ace6611e69d54aa7a1f2cce68f2.html#a1c1f9ace6611e69d54aa7a1f2cce68f2" target="_top" xlink:title=" ">
<polygon fill="white" stroke="#666666" points="532.5,-652 378.5,-652 378.5,-622 532.5,-622 532.5,-652"/>
<text text-anchor="start" x="386.5" y="-640" font-family="Helvetica,sans-Serif" font-size="10.00">Terraria.ModLoader.ModNet.</text>
<text text-anchor="middle" x="455.5" y="-629" font-family="Helvetica,sans-Serif" font-size="10.00">HijackSendData</text>
</a>
</g>
</g>
<!-- Node4&#45;&gt;Node21 -->
<g id="edge21_Node000004_Node000021" class="edge">
<title>Node4&#45;&gt;Node21</title>
<g id="a_edge21_Node000004_Node000021"><a xlink:title=" ">
<path fill="none" stroke="#63b8ff" d="M319.83,-495.57C324.98,-498.09 329.79,-501.19 334,-505 371.51,-538.96 333.43,-578.04 370,-613 371.1,-614.05 372.25,-615.06 373.43,-616.03"/>
<polygon fill="#63b8ff" stroke="#63b8ff" points="371.52,-618.96 381.73,-621.78 375.51,-613.21 371.52,-618.96"/>
</a>
</g>
</g>
<!-- Node23 -->
<g id="Node000023" class="node">
<title>Node23</title>
<g id="a_Node000023"><a xlink:href="../../d6/d21/structTerraria_1_1Tile_aae758079f57e61378841aaf0fc884e71.html#aae758079f57e61378841aaf0fc884e71" target="_top" xlink:title="Legacy code, use P:Terraria.Tile.LiquidType instead.">
<polygon fill="white" stroke="#666666" points="519,-603.5 392,-603.5 392,-584.5 519,-584.5 519,-603.5"/>
<text text-anchor="middle" x="455.5" y="-591.5" font-family="Helvetica,sans-Serif" font-size="10.00">Terraria.Tile.liquidType</text>
</a>
</g>
</g>
<!-- Node4&#45;&gt;Node23 -->
<g id="edge23_Node000004_Node000023" class="edge">
<title>Node4&#45;&gt;Node23</title>
<g id="a_edge23_Node000004_Node000023"><a xlink:title=" ">
<path fill="none" stroke="#63b8ff" d="M317.55,-495.57C323.44,-498.06 329.04,-501.15 334,-505 361.66,-526.43 342.33,-553.59 370,-575 373.81,-577.95 378,-580.46 382.4,-582.59"/>
<polygon fill="#63b8ff" stroke="#63b8ff" points="381.11,-585.85 391.69,-586.46 383.8,-579.39 381.11,-585.85"/>
</a>
</g>
</g>
<!-- Node24 -->
<g id="Node000024" class="node">
<title>Node24</title>
<g id="a_Node000024"><a xlink:href="../../df/d47/classTerraria_1_1ModLoader_1_1ModNet_a84b918169aabe8b707d77626bfa3a734.html#a84b918169aabe8b707d77626bfa3a734" target="_top" xlink:title=" ">
<polygon fill="white" stroke="#666666" points="532.5,-480 378.5,-480 378.5,-450 532.5,-450 532.5,-480"/>
<text text-anchor="start" x="386.5" y="-468" font-family="Helvetica,sans-Serif" font-size="10.00">Terraria.ModLoader.ModNet.</text>
<text text-anchor="middle" x="455.5" y="-457" font-family="Helvetica,sans-Serif" font-size="10.00">LogSend</text>
</a>
</g>
</g>
<!-- Node4&#45;&gt;Node24 -->
<g id="edge24_Node000004_Node000024" class="edge">
<title>Node4&#45;&gt;Node24</title>
<g id="a_edge24_Node000004_Node000024"><a xlink:title=" ">
<path fill="none" stroke="#63b8ff" d="M332.59,-477.52C344.25,-476.32 356.26,-475.09 367.99,-473.88"/>
<polygon fill="#63b8ff" stroke="#63b8ff" points="368.63,-477.34 378.22,-472.83 367.91,-470.37 368.63,-477.34"/>
</a>
</g>
</g>
<!-- Node27 -->
<g id="Node000027" class="node">
<title>Node27</title>
<g id="a_Node000027"><a xlink:href="../../d0/d8b/classTerraria_1_1ModLoader_1_1IO_1_1ItemIO_acb34dd650cec49c955ce0297fe6d0ce1.html#acb34dd650cec49c955ce0297fe6d0ce1" target="_top" xlink:title=" ">
<polygon fill="white" stroke="#666666" points="736,-566 587,-566 587,-536 736,-536 736,-566"/>
<text text-anchor="start" x="595" y="-554" font-family="Helvetica,sans-Serif" font-size="10.00">Terraria.ModLoader.IO.Item</text>
<text text-anchor="middle" x="661.5" y="-543" font-family="Helvetica,sans-Serif" font-size="10.00">IO.Send</text>
</a>
</g>
</g>
<!-- Node4&#45;&gt;Node27 -->
<g id="edge28_Node000004_Node000027" class="edge">
<title>Node4&#45;&gt;Node27</title>
<g id="a_edge28_Node000004_Node000027"><a xlink:title=" ">
<path fill="none" stroke="#63b8ff" d="M326.47,-495.54C385.27,-503.17 468.45,-514.62 541,-527 553.34,-529.11 566.37,-531.52 579.1,-533.99"/>
<polygon fill="#63b8ff" stroke="#63b8ff" points="578.74,-537.49 589.22,-535.98 580.08,-530.62 578.74,-537.49"/>
</a>
</g>
</g>
<!-- Node28 -->
<g id="Node000028" class="node">
<title>Node28</title>
<g id="a_Node000028"><a xlink:href="../../d0/d8b/classTerraria_1_1ModLoader_1_1IO_1_1ItemIO_a9d5e51fc32478bea6653b3b43783a57b.html#a9d5e51fc32478bea6653b3b43783a57b" target="_top" xlink:title=" ">
<polygon fill="white" stroke="#666666" points="950.5,-649 801.5,-649 801.5,-619 950.5,-619 950.5,-649"/>
<text text-anchor="start" x="809.5" y="-637" font-family="Helvetica,sans-Serif" font-size="10.00">Terraria.ModLoader.IO.Item</text>
<text text-anchor="middle" x="876" y="-626" font-family="Helvetica,sans-Serif" font-size="10.00">IO.SendModData</text>
</a>
</g>
</g>
<!-- Node4&#45;&gt;Node28 -->
<g id="edge35_Node000004_Node000028" class="edge">
<title>Node4&#45;&gt;Node28</title>
<g id="a_edge35_Node000004_Node000028"><a xlink:title=" ">
<path fill="none" stroke="#63b8ff" d="M322.23,-495.6C326.58,-498.14 330.58,-501.24 334,-505 418.15,-597.47 276.11,-701.44 370,-784 427.08,-834.18 466.69,-799.92 541,-784 658.41,-758.85 784.4,-689.15 842.38,-654.33"/>
<polygon fill="#63b8ff" stroke="#63b8ff" points="844.35,-657.23 851.09,-649.06 840.73,-651.24 844.35,-657.23"/>
</a>
</g>
</g>
<!-- Node29 -->
<g id="Node000029" class="node">
<title>Node29</title>
<g id="a_Node000029"><a xlink:href="../../dd/de0/classTerraria_1_1ModLoader_1_1BiomeLoader_a29df870ca6244b82963eeb5ce278f179.html#a29df870ca6244b82963eeb5ce278f179" target="_top" xlink:title=" ">
<polygon fill="white" stroke="#666666" points="530.5,-432 380.5,-432 380.5,-402 530.5,-402 530.5,-432"/>
<text text-anchor="start" x="388.5" y="-420" font-family="Helvetica,sans-Serif" font-size="10.00">Terraria.ModLoader.Biome</text>
<text text-anchor="middle" x="455.5" y="-409" font-family="Helvetica,sans-Serif" font-size="10.00">Loader.SendCustomBiomes</text>
</a>
</g>
</g>
<!-- Node4&#45;&gt;Node29 -->
<g id="edge30_Node000004_Node000029" class="edge">
<title>Node4&#45;&gt;Node29</title>
<g id="a_edge30_Node000004_Node000029"><a xlink:title=" ">
<path fill="none" stroke="#63b8ff" d="M273.7,-476.45C297.76,-466.92 336.18,-452.12 370,-441 376.08,-439 382.45,-437.01 388.83,-435.08"/>
<polygon fill="#63b8ff" stroke="#63b8ff" points="390.26,-438.31 398.85,-432.1 388.27,-431.6 390.26,-438.31"/>
</a>
</g>
</g>
<!-- Node31 -->
<g id="Node000031" class="node">
<title>Node31</title>
<g id="a_Node000031"><a xlink:href="../../dd/dc6/classTerraria_1_1ModLoader_1_1NPCLoader_ad20200fbeb8230fb9fa1026ab0e76aa0.html#ad20200fbeb8230fb9fa1026ab0e76aa0" target="_top" xlink:title=" ">
<polygon fill="white" stroke="#666666" points="539.5,-384 371.5,-384 371.5,-354 539.5,-354 539.5,-384"/>
<text text-anchor="start" x="379.5" y="-372" font-family="Helvetica,sans-Serif" font-size="10.00">Terraria.ModLoader.NPCLoader.</text>
<text text-anchor="middle" x="455.5" y="-361" font-family="Helvetica,sans-Serif" font-size="10.00">SendExtraAI</text>
</a>
</g>
</g>
<!-- Node4&#45;&gt;Node31 -->
<g id="edge32_Node000004_Node000031" class="edge">
<title>Node4&#45;&gt;Node31</title>
<g id="a_edge32_Node000004_Node000031"><a xlink:title=" ">
<path fill="none" stroke="#63b8ff" d="M259.68,-476.34C278.98,-457.58 324.37,-416.07 370,-393 373.75,-391.1 377.67,-389.34 381.69,-387.7"/>
<polygon fill="#63b8ff" stroke="#63b8ff" points="383.08,-390.91 391.18,-384.09 380.59,-384.37 383.08,-390.91"/>
</a>
</g>
</g>
<!-- Node32 -->
<g id="Node000032" class="node">
<title>Node32</title>
<g id="a_Node000032"><a xlink:href="../../dd/d93/classTerraria_1_1ModLoader_1_1ProjectileLoader_a785fe46f6008e62910dd244542345a24.html#a785fe46f6008e62910dd244542345a24" target="_top" xlink:title=" ">
<polygon fill="white" stroke="#666666" points="534.5,-336 376.5,-336 376.5,-306 534.5,-306 534.5,-336"/>
<text text-anchor="start" x="384.5" y="-324" font-family="Helvetica,sans-Serif" font-size="10.00">Terraria.ModLoader.Projectile</text>
<text text-anchor="middle" x="455.5" y="-313" font-family="Helvetica,sans-Serif" font-size="10.00">Loader.SendExtraAI</text>
</a>
</g>
</g>
<!-- Node4&#45;&gt;Node32 -->
<g id="edge33_Node000004_Node000032" class="edge">
<title>Node4&#45;&gt;Node32</title>
<g id="a_edge33_Node000004_Node000032"><a xlink:title=" ">
<path fill="none" stroke="#63b8ff" d="M255.35,-476.43C270.11,-450.96 314.02,-380.97 370,-345 372.61,-343.32 375.34,-341.76 378.15,-340.31"/>
<polygon fill="#63b8ff" stroke="#63b8ff" points="379.78,-343.41 387.37,-336.01 376.83,-337.06 379.78,-343.41"/>
</a>
</g>
</g>
<!-- Node33 -->
<g id="Node000033" class="node">
<title>Node33</title>
<g id="a_Node000033"><a xlink:href="../../d3/d8e/classTerraria_1_1ModLoader_1_1IO_1_1WorldIO_a800edd3907ce891c4cba1af54ee5ba20.html#a800edd3907ce891c4cba1af54ee5ba20" target="_top" xlink:title=" ">
<polygon fill="white" stroke="#666666" points="532.5,-288 378.5,-288 378.5,-258 532.5,-258 532.5,-288"/>
<text text-anchor="start" x="386.5" y="-276" font-family="Helvetica,sans-Serif" font-size="10.00">Terraria.ModLoader.IO.World</text>
<text text-anchor="middle" x="455.5" y="-265" font-family="Helvetica,sans-Serif" font-size="10.00">IO.SendModData</text>
</a>
</g>
</g>
<!-- Node4&#45;&gt;Node33 -->
<g id="edge34_Node000004_Node000033" class="edge">
<title>Node4&#45;&gt;Node33</title>
<g id="a_edge34_Node000004_Node000033"><a xlink:title=" ">
<path fill="none" stroke="#63b8ff" d="M253.25,-476.42C264.27,-445.39 303.33,-346.73 370,-297 371.89,-295.59 373.85,-294.27 375.88,-293.02"/>
<polygon fill="#63b8ff" stroke="#63b8ff" points="378,-295.86 385.14,-288.03 374.67,-289.7 378,-295.86"/>
</a>
</g>
</g>
<!-- Node34 -->
<g id="Node000034" class="node">
<title>Node34</title>
<g id="a_Node000034"><a xlink:href="../../d0/da6/classTerraria_1_1ModLoader_1_1Logging_ab70d2a6a87eaae1d1ea2b6df62b255ec.html#ab70d2a6a87eaae1d1ea2b6df62b255ec" target="_top" xlink:title=" ">
<polygon fill="white" stroke="#666666" points="532.5,-222 378.5,-222 378.5,-192 532.5,-192 532.5,-222"/>
<text text-anchor="start" x="386.5" y="-210" font-family="Helvetica,sans-Serif" font-size="10.00">Terraria.ModLoader.Logging.</text>
<text text-anchor="middle" x="455.5" y="-199" font-family="Helvetica,sans-Serif" font-size="10.00">ServerConsoleLine</text>
</a>
</g>
</g>
<!-- Node4&#45;&gt;Node34 -->
<g id="edge36_Node000004_Node000034" class="edge">
<title>Node4&#45;&gt;Node34</title>
<g id="a_edge36_Node000004_Node000034"><a xlink:title=" ">
<path fill="none" stroke="#63b8ff" d="M252.56,-476.08C262.14,-440.77 298.97,-319.5 370,-249 379.08,-239.98 390.49,-232.56 401.96,-226.6"/>
<polygon fill="#63b8ff" stroke="#63b8ff" points="403.67,-229.65 411.13,-222.12 400.6,-223.36 403.67,-229.65"/>
</a>
</g>
</g>
<!-- Node35 -->
<g id="Node000035" class="node">
<title>Node35</title>
<g id="a_Node000035"><a xlink:href="../../d2/dfe/classTerraria_1_1NetMessage_a17488582dd5650d9c0f793be3cc79b2a.html#a17488582dd5650d9c0f793be3cc79b2a" target="_top" xlink:title=" ">
<polygon fill="white" stroke="#666666" points="528.5,-174 382.5,-174 382.5,-144 528.5,-144 528.5,-174"/>
<text text-anchor="start" x="390.5" y="-162" font-family="Helvetica,sans-Serif" font-size="10.00">Terraria.NetMessage.Write</text>
<text text-anchor="middle" x="455.5" y="-151" font-family="Helvetica,sans-Serif" font-size="10.00">AccessoryVisibility</text>
</a>
</g>
</g>
<!-- Node4&#45;&gt;Node35 -->
<g id="edge39_Node000004_Node000035" class="edge">
<title>Node4&#45;&gt;Node35</title>
<g id="a_edge39_Node000004_Node000035"><a xlink:title=" ">
<path fill="none" stroke="#63b8ff" d="M253.56,-476.31C272.2,-425.71 358.04,-193.82 370,-183 371.17,-181.95 372.38,-180.94 373.62,-179.97"/>
<polygon fill="#63b8ff" stroke="#63b8ff" points="375.92,-182.65 382.35,-174.22 372.07,-176.8 375.92,-182.65"/>
</a>
</g>
</g>
<!-- Node36 -->
<g id="Node000036" class="node">
<title>Node36</title>
<g id="a_Node000036"><a xlink:href="../../dd/dc6/classTerraria_1_1ModLoader_1_1NPCLoader_acd7b32d09b1fce4d0690d6bae683d829.html#acd7b32d09b1fce4d0690d6bae683d829" target="_top" xlink:title=" ">
<polygon fill="white" stroke="#666666" points="539.5,-126 371.5,-126 371.5,-96 539.5,-96 539.5,-126"/>
<text text-anchor="start" x="379.5" y="-114" font-family="Helvetica,sans-Serif" font-size="10.00">Terraria.ModLoader.NPCLoader.</text>
<text text-anchor="middle" x="455.5" y="-103" font-family="Helvetica,sans-Serif" font-size="10.00">WriteExtraAI</text>
</a>
</g>
</g>
<!-- Node4&#45;&gt;Node36 -->
<g id="edge40_Node000004_Node000036" class="edge">
<title>Node4&#45;&gt;Node36</title>
<g id="a_edge40_Node000004_Node000036"><a xlink:title=" ">
<path fill="none" stroke="#63b8ff" d="M254,-476.37C266.66,-445.7 306.64,-347.4 334,-264 352.55,-207.44 328.01,-177.19 370,-135 371.08,-133.92 372.2,-132.89 373.36,-131.9"/>
<polygon fill="#63b8ff" stroke="#63b8ff" points="375.46,-134.7 381.54,-126.02 371.37,-129.01 375.46,-134.7"/>
</a>
</g>
</g>
<!-- Node37 -->
<g id="Node000037" class="node">
<title>Node37</title>
<g id="a_Node000037"><a xlink:href="../../dd/d93/classTerraria_1_1ModLoader_1_1ProjectileLoader_ad728f89b264d8327c66389f62f4d6a6b.html#ad728f89b264d8327c66389f62f4d6a6b" target="_top" xlink:title=" ">
<polygon fill="white" stroke="#666666" points="534.5,-78 376.5,-78 376.5,-48 534.5,-48 534.5,-78"/>
<text text-anchor="start" x="384.5" y="-66" font-family="Helvetica,sans-Serif" font-size="10.00">Terraria.ModLoader.Projectile</text>
<text text-anchor="middle" x="455.5" y="-55" font-family="Helvetica,sans-Serif" font-size="10.00">Loader.WriteExtraAI</text>
</a>
</g>
</g>
<!-- Node4&#45;&gt;Node37 -->
<g id="edge41_Node000004_Node000037" class="edge">
<title>Node4&#45;&gt;Node37</title>
<g id="a_edge41_Node000004_Node000037"><a xlink:title=" ">
<path fill="none" stroke="#63b8ff" d="M254.25,-476.45C267.67,-446.01 309.64,-348.33 334,-264 356.28,-186.88 315.44,-145.88 370,-87 370.78,-86.16 371.58,-85.35 372.41,-84.57"/>
<polygon fill="#63b8ff" stroke="#63b8ff" points="374.77,-87.17 380.48,-78.24 370.45,-81.66 374.77,-87.17"/>
</a>
</g>
</g>
<!-- Node38 -->
<g id="Node000038" class="node">
<title>Node38</title>
<g id="a_Node000038"><a xlink:href="../../d9/d9b/classTerraria_1_1DataStructures_1_1PlayerDeathReason_a9b526c38a2136beee6ac5ae5a6e8faa7.html#a9b526c38a2136beee6ac5ae5a6e8faa7" target="_top" xlink:title=" ">
<polygon fill="white" stroke="#666666" points="541,-566 370,-566 370,-536 541,-536 541,-566"/>
<text text-anchor="start" x="378" y="-554" font-family="Helvetica,sans-Serif" font-size="10.00">Terraria.DataStructures.</text>
<text text-anchor="middle" x="455.5" y="-543" font-family="Helvetica,sans-Serif" font-size="10.00">PlayerDeathReason.WriteSelfTo</text>
</a>
</g>
</g>
<!-- Node4&#45;&gt;Node38 -->
<g id="edge42_Node000004_Node000038" class="edge">
<title>Node4&#45;&gt;Node38</title>
<g id="a_edge42_Node000004_Node000038"><a xlink:title=" ">
<path fill="none" stroke="#63b8ff" d="M300.7,-495.58C311.8,-498.2 323.4,-501.35 334,-505 350.73,-510.76 353.61,-515.34 370,-522 378.96,-525.64 388.57,-529.23 397.97,-532.57"/>
<polygon fill="#63b8ff" stroke="#63b8ff" points="397.07,-535.96 407.67,-535.96 399.38,-529.36 397.07,-535.96"/>
</a>
</g>
</g>
<!-- Node6 -->
<g id="Node000006" class="node">
<title>Node6</title>
<g id="a_Node000006"><a xlink:href="../../d2/dfe/classTerraria_1_1NetMessage_ae9163ccde925a89a178879cda0866701.html#ae9163ccde925a89a178879cda0866701" target="_top" xlink:title=" ">
<polygon fill="white" stroke="#666666" points="746,-973 577,-973 577,-943 746,-943 746,-973"/>
<text text-anchor="start" x="585" y="-961" font-family="Helvetica,sans-Serif" font-size="10.00">Terraria.NetMessage.Compress</text>
<text text-anchor="middle" x="661.5" y="-950" font-family="Helvetica,sans-Serif" font-size="10.00">TileBlock_Inner</text>
</a>
</g>
</g>
<!-- Node5&#45;&gt;Node6 -->
<g id="edge6_Node000005_Node000006" class="edge">
<title>Node5&#45;&gt;Node6</title>
<g id="a_edge6_Node000005_Node000006"><a xlink:title=" ">
<path fill="none" stroke="#63b8ff" d="M539.47,-936.05C548.71,-937.72 558.16,-939.44 567.51,-941.13"/>
<polygon fill="#63b8ff" stroke="#63b8ff" points="567.13,-944.62 577.6,-942.96 568.38,-937.74 567.13,-944.62"/>
</a>
</g>
</g>
<!-- Node7 -->
<g id="Node000007" class="node">
<title>Node7</title>
<g id="a_Node000007"><a xlink:href="../../d9/d66/classTerraria_1_1GameContent_1_1Tile__Entities_1_1TEDisplayDoll_acb24e981caea1cd0c432ac84c9261c1c.html#acb24e981caea1cd0c432ac84c9261c1c" target="_top" xlink:title=" ">
<polygon fill="white" stroke="#666666" points="952.5,-1069 799.5,-1069 799.5,-1039 952.5,-1039 952.5,-1069"/>
<text text-anchor="start" x="807.5" y="-1057" font-family="Helvetica,sans-Serif" font-size="10.00">Terraria.GameContent.Tile</text>
<text text-anchor="middle" x="876" y="-1046" font-family="Helvetica,sans-Serif" font-size="10.00">_Entities.TEDisplayDoll.Find</text>
</a>
</g>
</g>
<!-- Node6&#45;&gt;Node7 -->
<g id="edge7_Node000006_Node000007" class="edge">
<title>Node6&#45;&gt;Node7</title>
<g id="a_edge7_Node000006_Node000007"><a xlink:title=" ">
<path fill="none" stroke="#63b8ff" d="M683.52,-973.26C706.63,-989.4 745.37,-1014.63 782,-1030 787,-1032.1 792.22,-1034.05 797.54,-1035.86"/>
<polygon fill="#63b8ff" stroke="#63b8ff" points="796.59,-1039.23 807.18,-1038.96 798.74,-1032.57 796.59,-1039.23"/>
</a>
</g>
</g>
<!-- Node8 -->
<g id="Node000008" class="node">
<title>Node8</title>
<g id="a_Node000008"><a xlink:href="../../df/d58/classTerraria_1_1GameContent_1_1Tile__Entities_1_1TEFoodPlatter_ab824c4ec25da97eb7b211ec27d652546.html#ab824c4ec25da97eb7b211ec27d652546" target="_top" xlink:title=" ">
<polygon fill="white" stroke="#666666" points="952,-1021 800,-1021 800,-991 952,-991 952,-1021"/>
<text text-anchor="start" x="808" y="-1009" font-family="Helvetica,sans-Serif" font-size="10.00">Terraria.GameContent.Tile</text>
<text text-anchor="middle" x="876" y="-998" font-family="Helvetica,sans-Serif" font-size="10.00">_Entities.TEFoodPlatter.Find</text>
</a>
</g>
</g>
<!-- Node6&#45;&gt;Node8 -->
<g id="edge8_Node000006_Node000008" class="edge">
<title>Node6&#45;&gt;Node8</title>
<g id="a_edge8_Node000006_Node000008"><a xlink:title=" ">
<path fill="none" stroke="#63b8ff" d="M729.15,-973.06C751.21,-978.04 775.92,-983.62 798.64,-988.75"/>
<polygon fill="#63b8ff" stroke="#63b8ff" points="798.06,-992.21 808.58,-991 799.6,-985.38 798.06,-992.21"/>
</a>
</g>
</g>
<!-- Node9 -->
<g id="Node000009" class="node">
<title>Node9</title>
<g id="a_Node000009"><a xlink:href="../../d3/d99/classTerraria_1_1GameContent_1_1Tile__Entities_1_1TEHatRack_a0af7e34a07c3d2ba64ef18aca9013ff5.html#a0af7e34a07c3d2ba64ef18aca9013ff5" target="_top" xlink:title=" ">
<polygon fill="white" stroke="#666666" points="948.5,-973 803.5,-973 803.5,-943 948.5,-943 948.5,-973"/>
<text text-anchor="start" x="811.5" y="-961" font-family="Helvetica,sans-Serif" font-size="10.00">Terraria.GameContent.Tile</text>
<text text-anchor="middle" x="876" y="-950" font-family="Helvetica,sans-Serif" font-size="10.00">_Entities.TEHatRack.Find</text>
</a>
</g>
</g>
<!-- Node6&#45;&gt;Node9 -->
<g id="edge9_Node000006_Node000009" class="edge">
<title>Node6&#45;&gt;Node9</title>
<g id="a_edge9_Node000006_Node000009"><a xlink:title=" ">
<path fill="none" stroke="#63b8ff" d="M746.18,-958C761.71,-958 777.91,-958 793.38,-958"/>
<polygon fill="#63b8ff" stroke="#63b8ff" points="793.42,-961.5 803.42,-958 793.42,-954.5 793.42,-961.5"/>
</a>
</g>
</g>
<!-- Node10 -->
<g id="Node000010" class="node">
<title>Node10</title>
<g id="a_Node000010"><a xlink:href="../../d5/dad/classTerraria_1_1GameContent_1_1Tile__Entities_1_1TEItemFrame_a736981b810e7aa34c25f1ea4e0ec0c4d.html#a736981b810e7aa34c25f1ea4e0ec0c4d" target="_top" xlink:title=" ">
<polygon fill="white" stroke="#666666" points="951,-925 801,-925 801,-895 951,-895 951,-925"/>
<text text-anchor="start" x="809" y="-913" font-family="Helvetica,sans-Serif" font-size="10.00">Terraria.GameContent.Tile</text>
<text text-anchor="middle" x="876" y="-902" font-family="Helvetica,sans-Serif" font-size="10.00">_Entities.TEItemFrame.Find</text>
</a>
</g>
</g>
<!-- Node6&#45;&gt;Node10 -->
<g id="edge10_Node000006_Node000010" class="edge">
<title>Node6&#45;&gt;Node10</title>
<g id="a_edge10_Node000006_Node000010"><a xlink:title=" ">
<path fill="none" stroke="#63b8ff" d="M729.15,-942.94C751.21,-937.96 775.92,-932.38 798.64,-927.25"/>
<polygon fill="#63b8ff" stroke="#63b8ff" points="799.6,-930.62 808.58,-925 798.06,-923.79 799.6,-930.62"/>
</a>
</g>
</g>
<!-- Node11 -->
<g id="Node000011" class="node">
<title>Node11</title>
<g id="a_Node000011"><a xlink:href="../../d8/d19/classTerraria_1_1GameContent_1_1Tile__Entities_1_1TETeleportationPylon_a6fc24a8a3539899124e211733cc4f81c.html#a6fc24a8a3539899124e211733cc4f81c" target="_top" xlink:title=" ">
<polygon fill="white" stroke="#666666" points="970,-877 782,-877 782,-847 970,-847 970,-877"/>
<text text-anchor="start" x="790" y="-865" font-family="Helvetica,sans-Serif" font-size="10.00">Terraria.GameContent.Tile</text>
<text text-anchor="middle" x="876" y="-854" font-family="Helvetica,sans-Serif" font-size="10.00">_Entities.TETeleportationPylon.Find</text>
</a>
</g>
</g>
<!-- Node6&#45;&gt;Node11 -->
<g id="edge11_Node000006_Node000011" class="edge">
<title>Node6&#45;&gt;Node11</title>
<g id="a_edge11_Node000006_Node000011"><a xlink:title=" ">
<path fill="none" stroke="#63b8ff" d="M683.52,-942.74C706.63,-926.6 745.37,-901.37 782,-886 787,-883.9 792.22,-881.95 797.54,-880.14"/>
<polygon fill="#63b8ff" stroke="#63b8ff" points="798.74,-883.43 807.18,-877.04 796.59,-876.77 798.74,-883.43"/>
</a>
</g>
</g>
<!-- Node12 -->
<g id="Node000012" class="node">
<title>Node12</title>
<g id="a_Node000012"><a xlink:href="../../d1/dea/classTerraria_1_1GameContent_1_1Tile__Entities_1_1TETrainingDummy_ab9fb96c6f00d653644d815bbdf50f66a.html#ab9fb96c6f00d653644d815bbdf50f66a" target="_top" xlink:title=" ">
<polygon fill="white" stroke="#666666" points="962.5,-829 789.5,-829 789.5,-799 962.5,-799 962.5,-829"/>
<text text-anchor="start" x="797.5" y="-817" font-family="Helvetica,sans-Serif" font-size="10.00">Terraria.GameContent.Tile</text>
<text text-anchor="middle" x="876" y="-806" font-family="Helvetica,sans-Serif" font-size="10.00">_Entities.TETrainingDummy.Find</text>
</a>
</g>
</g>
<!-- Node6&#45;&gt;Node12 -->
<g id="edge12_Node000006_Node000012" class="edge">
<title>Node6&#45;&gt;Node12</title>
<g id="a_edge12_Node000006_Node000012"><a xlink:title=" ">
<path fill="none" stroke="#63b8ff" d="M673.16,-942.91C692.07,-917.31 734.03,-865.47 782,-838 785.06,-836.25 788.25,-834.62 791.52,-833.11"/>
<polygon fill="#63b8ff" stroke="#63b8ff" points="793.08,-836.26 800.95,-829.16 790.37,-829.8 793.08,-836.26"/>
</a>
</g>
</g>
<!-- Node13 -->
<g id="Node000013" class="node">
<title>Node13</title>
<g id="a_Node000013"><a xlink:href="../../d6/db4/classTerraria_1_1GameContent_1_1Tile__Entities_1_1TEWeaponsRack_aa3987ebaf1e3db83e347561e6bb8c801.html#aa3987ebaf1e3db83e347561e6bb8c801" target="_top" xlink:title=" ">
<polygon fill="white" stroke="#666666" points="958.5,-1192 793.5,-1192 793.5,-1162 958.5,-1162 958.5,-1192"/>
<text text-anchor="start" x="801.5" y="-1180" font-family="Helvetica,sans-Serif" font-size="10.00">Terraria.GameContent.Tile</text>
<text text-anchor="middle" x="876" y="-1169" font-family="Helvetica,sans-Serif" font-size="10.00">_Entities.TEWeaponsRack.Find</text>
</a>
</g>
</g>
<!-- Node6&#45;&gt;Node13 -->
<g id="edge13_Node000006_Node000013" class="edge">
<title>Node6&#45;&gt;Node13</title>
<g id="a_edge13_Node000006_Node000013"><a xlink:title=" ">
<path fill="none" stroke="#63b8ff" d="M667.32,-973.18C679.84,-1010.07 717.04,-1104.96 782,-1153 784.05,-1154.52 786.19,-1155.94 788.4,-1157.27"/>
<polygon fill="#63b8ff" stroke="#63b8ff" points="786.76,-1160.36 797.23,-1161.98 790.05,-1154.19 786.76,-1160.36"/>
</a>
</g>
</g>
<!-- Node14 -->
<g id="Node000014" class="node">
<title>Node14</title>
<g id="a_Node000014"><a xlink:href="../../dc/ddf/classTerraria_1_1Chest_acd6e0360d9c88e1b967580124250a028.html#acd6e0360d9c88e1b967580124250a028" target="_top" xlink:title="Tries to find a T:Terraria.Chest located at (X , Y ) (tile coordinates).">
<polygon fill="white" stroke="#666666" points="943.5,-1143.5 808.5,-1143.5 808.5,-1124.5 943.5,-1124.5 943.5,-1143.5"/>
<text text-anchor="middle" x="876" y="-1131.5" font-family="Helvetica,sans-Serif" font-size="10.00">Terraria.Chest.FindChest</text>
</a>
</g>
</g>
<!-- Node6&#45;&gt;Node14 -->
<g id="edge14_Node000006_Node000014" class="edge">
<title>Node6&#45;&gt;Node14</title>
<g id="a_edge14_Node000006_Node000014"><a xlink:title=" ">
<path fill="none" stroke="#63b8ff" d="M669.22,-973.11C684.33,-1005.17 724.2,-1079.99 782,-1116 787.1,-1119.18 792.63,-1121.81 798.38,-1124"/>
<polygon fill="#63b8ff" stroke="#63b8ff" points="797.61,-1127.43 808.2,-1127.27 799.82,-1120.79 797.61,-1127.43"/>
</a>
</g>
</g>
<!-- Node15 -->
<g id="Node000015" class="node">
<title>Node15</title>
<g id="a_Node000015"><a xlink:href="../../dd/d21/classTerraria_1_1Sign_a29027ab23c41a6dfb30ae54caa2be2f7.html#a29027ab23c41a6dfb30ae54caa2be2f7" target="_top" xlink:title=" ">
<polygon fill="white" stroke="#666666" points="939,-1106.5 813,-1106.5 813,-1087.5 939,-1087.5 939,-1106.5"/>
<text text-anchor="middle" x="876" y="-1094.5" font-family="Helvetica,sans-Serif" font-size="10.00">Terraria.Sign.ReadSign</text>
</a>
</g>
</g>
<!-- Node6&#45;&gt;Node15 -->
<g id="edge15_Node000006_Node000015" class="edge">
<title>Node6&#45;&gt;Node15</title>
<g id="a_edge15_Node000006_Node000015"><a xlink:title=" ">
<path fill="none" stroke="#63b8ff" d="M673.02,-973.35C691.71,-999.35 733.35,-1051.77 782,-1078 788.48,-1081.5 795.53,-1084.35 802.76,-1086.68"/>
<polygon fill="#63b8ff" stroke="#63b8ff" points="802.11,-1090.13 812.69,-1089.54 804.05,-1083.41 802.11,-1090.13"/>
</a>
</g>
</g>
<!-- Node6&#45;&gt;Node17 -->
<g id="edge17_Node000006_Node000017" class="edge">
<title>Node6&#45;&gt;Node17</title>
<g id="a_edge17_Node000006_Node000017"><a xlink:title=" ">
<path fill="none" stroke="#63b8ff" d="M676.12,-942.95C693.42,-923.45 723.73,-888.01 746,-855 764.47,-827.62 755.89,-810.22 782,-790 787.49,-785.75 793.66,-782.24 800.14,-779.36"/>
<polygon fill="#63b8ff" stroke="#63b8ff" points="801.78,-782.47 809.81,-775.56 799.22,-775.96 801.78,-782.47"/>
</a>
</g>
</g>
<!-- Node16 -->
<g id="Node000016" class="node">
<title>Node16</title>
<g id="a_Node000016"><a xlink:href="../../dd/d21/classTerraria_1_1Sign_abdb027ce4747b58504b4900b6ea459d9.html#abdb027ce4747b58504b4900b6ea459d9" target="_top" xlink:title=" ">
<polygon fill="white" stroke="#666666" points="1123,-1106.5 1006,-1106.5 1006,-1087.5 1123,-1087.5 1123,-1106.5"/>
<text text-anchor="middle" x="1064.5" y="-1094.5" font-family="Helvetica,sans-Serif" font-size="10.00">Terraria.Sign.KillSign</text>
</a>
</g>
</g>
<!-- Node15&#45;&gt;Node16 -->
<g id="edge16_Node000015_Node000016" class="edge">
<title>Node15&#45;&gt;Node16</title>
<g id="a_edge16_Node000015_Node000016"><a xlink:title=" ">
<path fill="none" stroke="#63b8ff" d="M939.1,-1097C957.25,-1097 977.18,-1097 995.66,-1097"/>
<polygon fill="#63b8ff" stroke="#63b8ff" points="995.77,-1100.5 1005.77,-1097 995.77,-1093.5 995.77,-1100.5"/>
</a>
</g>
</g>
<!-- Node22 -->
<g id="Node000022" class="node">
<title>Node22</title>
<g id="a_Node000022"><a xlink:href="../../d1/da9/classTerraria_1_1ModLoader_1_1SystemLoader_ae99eb8c523f713e1b444bb0751fdac97.html#ae99eb8c523f713e1b444bb0751fdac97" target="_top" xlink:title=" ">
<polygon fill="white" stroke="#666666" points="736,-652 587,-652 587,-622 736,-622 736,-652"/>
<text text-anchor="start" x="595" y="-640" font-family="Helvetica,sans-Serif" font-size="10.00">Terraria.ModLoader.System</text>
<text text-anchor="middle" x="661.5" y="-629" font-family="Helvetica,sans-Serif" font-size="10.00">Loader.HijackSendData</text>
</a>
</g>
</g>
<!-- Node21&#45;&gt;Node22 -->
<g id="edge22_Node000021_Node000022" class="edge">
<title>Node21&#45;&gt;Node22</title>
<g id="a_edge22_Node000021_Node000022"><a xlink:title=" ">
<path fill="none" stroke="#63b8ff" d="M532.75,-637C546.96,-637 561.88,-637 576.31,-637"/>
<polygon fill="#63b8ff" stroke="#63b8ff" points="576.71,-640.5 586.71,-637 576.71,-633.5 576.71,-640.5"/>
</a>
</g>
</g>
<!-- Node25 -->
<g id="Node000025" class="node">
<title>Node25</title>
<g id="a_Node000025"><a xlink:href="../../df/d47/classTerraria_1_1ModLoader_1_1ModNet_a0887e1e6a5354d57bf79d5fb93bdb7da.html#a0887e1e6a5354d57bf79d5fb93bdb7da" target="_top" xlink:title=" ">
<polygon fill="white" stroke="#666666" points="738.5,-480 584.5,-480 584.5,-450 738.5,-450 738.5,-480"/>
<text text-anchor="start" x="592.5" y="-468" font-family="Helvetica,sans-Serif" font-size="10.00">Terraria.ModLoader.ModNet.</text>
<text text-anchor="middle" x="661.5" y="-457" font-family="Helvetica,sans-Serif" font-size="10.00">Debug</text>
</a>
</g>
</g>
<!-- Node24&#45;&gt;Node25 -->
<g id="edge25_Node000024_Node000025" class="edge">
<title>Node24&#45;&gt;Node25</title>
<g id="a_edge25_Node000024_Node000025"><a xlink:title=" ">
<path fill="none" stroke="#63b8ff" d="M532.75,-465C546.19,-465 560.26,-465 573.96,-465"/>
<polygon fill="#63b8ff" stroke="#63b8ff" points="574.34,-468.5 584.34,-465 574.34,-461.5 574.34,-468.5"/>
</a>
</g>
</g>
<!-- Node25&#45;&gt;Node25 -->
<g id="edge26_Node000025_Node000025" class="edge">
<title>Node25&#45;&gt;Node25</title>
<g id="a_edge26_Node000025_Node000025"><a xlink:title=" ">
<path fill="none" stroke="#63b8ff" d="M625.29,-480.28C617.24,-489.41 629.31,-498 661.5,-498 680.61,-498 692.63,-494.97 697.56,-490.6"/>
<polygon fill="#63b8ff" stroke="#63b8ff" points="701.06,-490.33 697.71,-480.28 694.06,-490.22 701.06,-490.33"/>
</a>
</g>
</g>
<!-- Node26 -->
<g id="Node000026" class="node">
<title>Node26</title>
<g id="a_Node000026"><a xlink:href="../../df/d47/classTerraria_1_1ModLoader_1_1ModNet_ac2c9d5a95be6bd79eeea20bdc9bd0d46.html#ac2c9d5a95be6bd79eeea20bdc9bd0d46" target="_top" xlink:title=" ">
<polygon fill="white" stroke="#666666" points="953,-480 799,-480 799,-450 953,-450 953,-480"/>
<text text-anchor="start" x="807" y="-468" font-family="Helvetica,sans-Serif" font-size="10.00">Terraria.ModLoader.ModNet.</text>
<text text-anchor="middle" x="876" y="-457" font-family="Helvetica,sans-Serif" font-size="10.00">Identifier</text>
</a>
</g>
</g>
<!-- Node25&#45;&gt;Node26 -->
<g id="edge27_Node000025_Node000026" class="edge">
<title>Node25&#45;&gt;Node26</title>
<g id="a_edge27_Node000025_Node000026"><a xlink:title=" ">
<path fill="none" stroke="#63b8ff" d="M738.62,-465C754.79,-465 771.98,-465 788.51,-465"/>
<polygon fill="#63b8ff" stroke="#63b8ff" points="788.7,-468.5 798.7,-465 788.7,-461.5 788.7,-468.5"/>
</a>
</g>
</g>
<!-- Node27&#45;&gt;Node28 -->
<g id="edge29_Node000027_Node000028" class="edge">
<title>Node27&#45;&gt;Node28</title>
<g id="a_edge29_Node000027_Node000028"><a xlink:title=" ">
<path fill="none" stroke="#63b8ff" d="M700.98,-566.03C736.38,-579.85 788.99,-600.4 827.09,-615.29"/>
<polygon fill="#63b8ff" stroke="#63b8ff" points="825.86,-618.56 836.45,-618.94 828.4,-612.04 825.86,-618.56"/>
</a>
</g>
</g>
<!-- Node30 -->
<g id="Node000030" class="node">
<title>Node30</title>
<g id="a_Node000030"><a xlink:href="../../d1/d9c/classTerraria_1_1Utils_a77957b27eb38a437df68fbc4467ffc54.html#a77957b27eb38a437df68fbc4467ffc54" target="_top" xlink:title="Bit packs a BitArray in to a Byte Array and then sends the byte array.">
<polygon fill="white" stroke="#666666" points="734.5,-426.5 588.5,-426.5 588.5,-407.5 734.5,-407.5 734.5,-426.5"/>
<text text-anchor="middle" x="661.5" y="-414.5" font-family="Helvetica,sans-Serif" font-size="10.00">Terraria.Utils.SendBitArray</text>
</a>
</g>
</g>
<!-- Node29&#45;&gt;Node30 -->
<g id="edge31_Node000029_Node000030" class="edge">
<title>Node29&#45;&gt;Node30</title>
<g id="a_edge31_Node000029_Node000030"><a xlink:title=" ">
<path fill="none" stroke="#63b8ff" d="M530.73,-417C546.15,-417 562.48,-417 578.17,-417"/>
<polygon fill="#63b8ff" stroke="#63b8ff" points="578.37,-420.5 588.37,-417 578.37,-413.5 578.37,-420.5"/>
</a>
</g>
</g>
<!-- Node34&#45;&gt;Node34 -->
<g id="edge37_Node000034_Node000034" class="edge">
<title>Node34&#45;&gt;Node34</title>
<g id="a_edge37_Node000034_Node000034"><a xlink:title=" ">
<path fill="none" stroke="#63b8ff" d="M419.29,-222.28C411.24,-231.41 423.31,-240 455.5,-240 474.61,-240 486.63,-236.97 491.56,-232.6"/>
<polygon fill="#63b8ff" stroke="#63b8ff" points="495.06,-232.33 491.71,-222.28 488.06,-232.22 495.06,-232.33"/>
</a>
</g>
</g>
<!-- Node38&#45;&gt;Node27 -->
<g id="edge43_Node000038_Node000027" class="edge">
<title>Node38&#45;&gt;Node27</title>
<g id="a_edge43_Node000038_Node000027"><a xlink:title=" ">
<path fill="none" stroke="#63b8ff" d="M541.24,-551C552.93,-551 564.92,-551 576.59,-551"/>
<polygon fill="#63b8ff" stroke="#63b8ff" points="576.75,-554.5 586.75,-551 576.75,-547.5 576.75,-554.5"/>
</a>
</g>
</g>
<!-- Node40 -->
<g id="Node000040" class="node">
<title>Node40</title>
<g id="a_Node000040"><a xlink:href="../../d7/de6/classTerraria_1_1ModLoader_1_1ItemLoader_a27efe59ba3cc753ee6acafdd5fe00738.html#a27efe59ba3cc753ee6acafdd5fe00738" target="_top" xlink:title="Calls the GlobalItem.OnStack hooks in destination , then the ModItem.OnStack hook in destination &#160;&#160;On...">
<polygon fill="white" stroke="#666666" points="540.5,-30 370.5,-30 370.5,0 540.5,0 540.5,-30"/>
<text text-anchor="start" x="378.5" y="-18" font-family="Helvetica,sans-Serif" font-size="10.00">Terraria.ModLoader.ItemLoader.</text>
<text text-anchor="middle" x="455.5" y="-7" font-family="Helvetica,sans-Serif" font-size="10.00">OnStack</text>
</a>
</g>
</g>
<!-- Node39&#45;&gt;Node40 -->
<g id="edge45_Node000039_Node000040" class="edge">
<title>Node39&#45;&gt;Node40</title>
<g id="a_edge45_Node000039_Node000040"><a xlink:title=" ">
<path fill="none" stroke="#63b8ff" d="M254.7,-224.74C267.08,-187.15 304.23,-89.48 370,-39 371.82,-37.6 373.71,-36.29 375.67,-35.05"/>
<polygon fill="#63b8ff" stroke="#63b8ff" points="377.56,-38.01 384.61,-30.1 374.17,-31.88 377.56,-38.01"/>
</a>
</g>
</g>
</g>
</svg>
