<?xml version="1.0" encoding="UTF-8" standalone="no"?>
<!DOCTYPE svg PUBLIC "-//W3C//DTD SVG 1.1//EN"
 "http://www.w3.org/Graphics/SVG/1.1/DTD/svg11.dtd">
<!-- Generated by graphviz version 2.43.0 (0)
 -->
<!-- Title: Terraria.UI.ItemSlot.Handle Pages: 1 -->
<!--zoomable 184 -->

<svg id="main" version="1.1" xmlns="http://www.w3.org/2000/svg" xmlns:xlink="http://www.w3.org/1999/xlink" xml:space="preserve" onload="init(evt)">
<style type="text/css"><![CDATA[
.node, .edge {opacity: 0.7;}
.node.selected, .edge.selected {opacity: 1;}
.edge:hover path { stroke: red; }
.edge:hover polygon { stroke: red; fill: red; }
]]></style>

<defs>
  <circle id="rim" cx="0" cy="0" r="7"/>
  <circle id="rim2" cx="0" cy="0" r="3.5"/>
  <g id="zoomPlus">
    <use xlink:href="#rim" fill="#404040"><set attributeName="fill" to="#808080" begin="zoomplus.mouseover" end="zoomplus.mouseout"/></use>
    <path d="M-4,0h8M0,-4v8" fill="none" stroke="white" stroke-width="1.5" pointer-events="none"/>
  </g>
  <g id="zoomMin">
    <use xlink:href="#rim" fill="#404040"><set attributeName="fill" to="#808080" begin="zoomminus.mouseover" end="zoomminus.mouseout"/></use>
    <path d="M-4,0h8" fill="none" stroke="white" stroke-width="1.5" pointer-events="none"/>
  </g>
  <g id="arrowUp" transform="translate(30 24)">
    <use xlink:href="#rim"/>
    <path pointer-events="none" fill="none" stroke="white" stroke-width="1.5" d="M0,-3.0v7 M-2.5,-0.5L0,-3.0L2.5,-0.5"/>
  </g>
  <g id="arrowRight" transform="rotate(90) translate(36 -43)">
    <use xlink:href="#rim"/>
    <path pointer-events="none" fill="none" stroke="white" stroke-width="1.5" d="M0,-3.0v7 M-2.5,-0.5L0,-3.0L2.5,-0.5"/>
  </g>
  <g id="arrowDown" transform="rotate(180) translate(-30 -48)">
    <use xlink:href="#rim"/>
    <path pointer-events="none" fill="none" stroke="white" stroke-width="1.5" d="M0,-3.0v7 M-2.5,-0.5L0,-3.0L2.5,-0.5"/>
  </g>
  <g id="arrowLeft" transform="rotate(270) translate(-36 17)">
    <use xlink:href="#rim"/>
    <path pointer-events="none" fill="none" stroke="white" stroke-width="1.5" d="M0,-3.0v7 M-2.5,-0.5L0,-3.0L2.5,-0.5"/>
  </g>
  <g id="resetDef">
    <use xlink:href="#rim2" fill="#404040"><set attributeName="fill" to="#808080" begin="reset.mouseover" end="reset.mouseout"/></use>
  </g>
</defs>
<script type="application/ecmascript">
var viewWidth = 1902;
var viewHeight = 184;
var sectionId = 'dynsection-1';
</script>
<script type="application/ecmascript" xlink:href="../../svg.min.js"/>
<svg id="graph" class="graph">
<g id="viewport">
<title>Terraria.UI.ItemSlot.Handle</title>
<!-- Node1 -->
<g id="Node000001" class="node">
<title>Node1</title>
<g id="a_Node000001"><a xlink:title=" ">
<polygon fill="#999999" stroke="#666666" points="1894,-88.5 1745,-88.5 1745,-69.5 1894,-69.5 1894,-88.5"/>
<text text-anchor="middle" x="1819.5" y="-76.5" font-family="Helvetica,sans-Serif" font-size="10.00">Terraria.UI.ItemSlot.Handle</text>
</a>
</g>
</g>
<!-- Node1&#45;&gt;Node1 -->
<g id="edge17_Node000001_Node000001" class="edge">
<title>Node1&#45;&gt;Node1</title>
<g id="a_edge17_Node000001_Node000001"><a xlink:title=" ">
<path fill="none" stroke="#63b8ff" d="M1858.48,-95.81C1859.07,-101.71 1846.07,-106.5 1819.5,-106.5 1782.53,-106.5 1771.84,-97.23 1787.44,-88.58"/>
<polygon fill="#63b8ff" stroke="#63b8ff" points="1861,-93.38 1851.56,-88.58 1855.95,-98.23 1861,-93.38"/>
</a>
</g>
</g>
<!-- Node2 -->
<g id="Node000002" class="node">
<title>Node2</title>
<g id="a_Node000002"><a xlink:href="../../da/dd5/classTerraria_1_1Main_a3d98f18e1b3a22533d5282611b6d8dfe.html#a3d98f18e1b3a22533d5282611b6d8dfe" target="_top" xlink:title=" ">
<polygon fill="white" stroke="#666666" points="1226.5,-87.5 1071.5,-87.5 1071.5,-68.5 1226.5,-68.5 1226.5,-87.5"/>
<text text-anchor="middle" x="1149" y="-75.5" font-family="Helvetica,sans-Serif" font-size="10.00">Terraria.Main.DrawInventory</text>
</a>
</g>
</g>
<!-- Node1&#45;&gt;Node2 -->
<g id="edge1_Node000001_Node000002" class="edge">
<title>Node1&#45;&gt;Node2</title>
<g id="a_edge1_Node000001_Node000002"><a xlink:title=" ">
<path fill="none" stroke="#63b8ff" d="M1734.71,-77.31C1726.03,-77.18 1717.34,-77.08 1709,-77 1536.75,-75.43 1334.62,-76.52 1226.86,-77.33"/>
<polygon fill="#63b8ff" stroke="#63b8ff" points="1734.82,-80.81 1744.88,-77.47 1734.93,-73.82 1734.82,-80.81"/>
</a>
</g>
</g>
<!-- Node9 -->
<g id="Node000009" class="node">
<title>Node9</title>
<g id="a_Node000009"><a xlink:href="../../d9/d66/classTerraria_1_1GameContent_1_1Tile__Entities_1_1TEDisplayDoll_ad0cdcfa0aea28773fbbc45518a9553e4.html#ad0cdcfa0aea28773fbbc45518a9553e4" target="_top" xlink:title=" ">
<polygon fill="white" stroke="#666666" points="1699.5,-175.5 1522.5,-175.5 1522.5,-134.5 1699.5,-134.5 1699.5,-175.5"/>
<text text-anchor="start" x="1530.5" y="-163.5" font-family="Helvetica,sans-Serif" font-size="10.00">Terraria.GameContent.Tile</text>
<text text-anchor="start" x="1530.5" y="-152.5" font-family="Helvetica,sans-Serif" font-size="10.00">_Entities.TEDisplayDoll.DrawSlot</text>
<text text-anchor="middle" x="1611" y="-141.5" font-family="Helvetica,sans-Serif" font-size="10.00">PairSet</text>
</a>
</g>
</g>
<!-- Node1&#45;&gt;Node9 -->
<g id="edge8_Node000001_Node000009" class="edge">
<title>Node1&#45;&gt;Node9</title>
<g id="a_edge8_Node000001_Node000009"><a xlink:title=" ">
<path fill="none" stroke="#63b8ff" d="M1787.96,-92.78C1766.17,-102.37 1736.05,-115.16 1709,-125 1700.14,-128.22 1690.74,-131.41 1681.43,-134.43"/>
<polygon fill="#63b8ff" stroke="#63b8ff" points="1789.62,-95.87 1797.34,-88.61 1786.78,-89.47 1789.62,-95.87"/>
</a>
</g>
</g>
<!-- Node12 -->
<g id="Node000012" class="node">
<title>Node12</title>
<g id="a_Node000012"><a xlink:href="../../d3/d99/classTerraria_1_1GameContent_1_1Tile__Entities_1_1TEHatRack_af92a63143c5b409f8edf8aba5eca5769.html#af92a63143c5b409f8edf8aba5eca5769" target="_top" xlink:title=" ">
<polygon fill="white" stroke="#666666" points="1709,-30 1513,-30 1513,0 1709,0 1709,-30"/>
<text text-anchor="start" x="1521" y="-18" font-family="Helvetica,sans-Serif" font-size="10.00">Terraria.GameContent.Tile</text>
<text text-anchor="middle" x="1611" y="-7" font-family="Helvetica,sans-Serif" font-size="10.00">_Entities.TEHatRack.DrawSlotPairSet</text>
</a>
</g>
</g>
<!-- Node1&#45;&gt;Node12 -->
<g id="edge11_Node000001_Node000012" class="edge">
<title>Node1&#45;&gt;Node12</title>
<g id="a_edge11_Node000001_Node000012"><a xlink:title=" ">
<path fill="none" stroke="#63b8ff" d="M1779.48,-66.33C1758.6,-59.6 1732.43,-51.25 1709,-44 1694.06,-39.38 1677.78,-34.46 1662.9,-30.02"/>
<polygon fill="#63b8ff" stroke="#63b8ff" points="1778.68,-69.75 1789.27,-69.49 1780.83,-63.09 1778.68,-69.75"/>
</a>
</g>
</g>
<!-- Node15 -->
<g id="Node000015" class="node">
<title>Node15</title>
<g id="a_Node000015"><a xlink:href="../../d8/dd3/classTerraria_1_1UI_1_1ChestUI_ad3b8221538f3b89bb7cae6ffd63b1f50.html#ad3b8221538f3b89bb7cae6ffd63b1f50" target="_top" xlink:title=" ">
<polygon fill="white" stroke="#666666" points="1679.5,-116 1542.5,-116 1542.5,-86 1679.5,-86 1679.5,-116"/>
<text text-anchor="start" x="1550.5" y="-104" font-family="Helvetica,sans-Serif" font-size="10.00">Terraria.UI.ChestUI.Draw</text>
<text text-anchor="middle" x="1611" y="-93" font-family="Helvetica,sans-Serif" font-size="10.00">Slots</text>
</a>
</g>
</g>
<!-- Node1&#45;&gt;Node15 -->
<g id="edge14_Node000001_Node000015" class="edge">
<title>Node1&#45;&gt;Node15</title>
<g id="a_edge14_Node000001_Node000015"><a xlink:title=" ">
<path fill="none" stroke="#63b8ff" d="M1734.77,-87.92C1716.49,-89.87 1697.36,-91.91 1679.79,-93.78"/>
<polygon fill="#63b8ff" stroke="#63b8ff" points="1735.25,-91.39 1744.82,-86.85 1734.51,-84.43 1735.25,-91.39"/>
</a>
</g>
</g>
<!-- Node3 -->
<g id="Node000003" class="node">
<title>Node3</title>
<g id="a_Node000003"><a xlink:href="../../da/dd5/classTerraria_1_1Main_a6ec2a6dd6eea7cf9082122035842a01b.html#a6ec2a6dd6eea7cf9082122035842a01b" target="_top" xlink:title=" ">
<polygon fill="white" stroke="#666666" points="1004,-93 852,-93 852,-63 1004,-63 1004,-93"/>
<text text-anchor="start" x="860" y="-81" font-family="Helvetica,sans-Serif" font-size="10.00">Terraria.Main.DrawInterface</text>
<text text-anchor="middle" x="928" y="-70" font-family="Helvetica,sans-Serif" font-size="10.00">_27_Inventory</text>
</a>
</g>
</g>
<!-- Node2&#45;&gt;Node3 -->
<g id="edge2_Node000002_Node000003" class="edge">
<title>Node2&#45;&gt;Node3</title>
<g id="a_edge2_Node000002_Node000003"><a xlink:title=" ">
<path fill="none" stroke="#63b8ff" d="M1061.31,-78C1042.38,-78 1022.5,-78 1004.08,-78"/>
<polygon fill="#63b8ff" stroke="#63b8ff" points="1061.4,-81.5 1071.4,-78 1061.4,-74.5 1061.4,-81.5"/>
</a>
</g>
</g>
<!-- Node4 -->
<g id="Node000004" class="node">
<title>Node4</title>
<g id="a_Node000004"><a xlink:href="../../da/dd5/classTerraria_1_1Main_a635639e6a6d3795bbfbcf0e24fc3aac5.html#a635639e6a6d3795bbfbcf0e24fc3aac5" target="_top" xlink:title=" ">
<polygon fill="white" stroke="#666666" points="816,-93 636,-93 636,-63 816,-63 816,-93"/>
<text text-anchor="start" x="644" y="-81" font-family="Helvetica,sans-Serif" font-size="10.00">Terraria.Main.SetupDrawInterface</text>
<text text-anchor="middle" x="726" y="-70" font-family="Helvetica,sans-Serif" font-size="10.00">Layers</text>
</a>
</g>
</g>
<!-- Node3&#45;&gt;Node4 -->
<g id="edge3_Node000003_Node000004" class="edge">
<title>Node3&#45;&gt;Node4</title>
<g id="a_edge3_Node000003_Node000004"><a xlink:title=" ">
<path fill="none" stroke="#63b8ff" d="M841.76,-78C833.33,-78 824.76,-78 816.28,-78"/>
<polygon fill="#63b8ff" stroke="#63b8ff" points="841.96,-81.5 851.96,-78 841.96,-74.5 841.96,-81.5"/>
</a>
</g>
</g>
<!-- Node5 -->
<g id="Node000005" class="node">
<title>Node5</title>
<g id="a_Node000005"><a xlink:href="../../da/dd5/classTerraria_1_1Main_a36d139a1fd2647d53f25a241f3d5d5f4.html#a36d139a1fd2647d53f25a241f3d5d5f4" target="_top" xlink:title=" ">
<polygon fill="white" stroke="#666666" points="600,-87.5 448,-87.5 448,-68.5 600,-68.5 600,-87.5"/>
<text text-anchor="middle" x="524" y="-75.5" font-family="Helvetica,sans-Serif" font-size="10.00">Terraria.Main.DrawInterface</text>
</a>
</g>
</g>
<!-- Node4&#45;&gt;Node5 -->
<g id="edge4_Node000004_Node000005" class="edge">
<title>Node4&#45;&gt;Node5</title>
<g id="a_edge4_Node000004_Node000005"><a xlink:title=" ">
<path fill="none" stroke="#63b8ff" d="M625.77,-78C617.19,-78 608.6,-78 600.26,-78"/>
<polygon fill="#63b8ff" stroke="#63b8ff" points="625.82,-81.5 635.82,-78 625.82,-74.5 625.82,-81.5"/>
</a>
</g>
</g>
<!-- Node6 -->
<g id="Node000006" class="node">
<title>Node6</title>
<g id="a_Node000006"><a xlink:href="../../da/dd5/classTerraria_1_1Main_a474beeecaea4d6dd108fba56cd554d46.html#a474beeecaea4d6dd108fba56cd554d46" target="_top" xlink:title=" ">
<polygon fill="white" stroke="#666666" points="412,-87.5 290,-87.5 290,-68.5 412,-68.5 412,-87.5"/>
<text text-anchor="middle" x="351" y="-75.5" font-family="Helvetica,sans-Serif" font-size="10.00">Terraria.Main.DoDraw</text>
</a>
</g>
</g>
<!-- Node5&#45;&gt;Node6 -->
<g id="edge5_Node000005_Node000006" class="edge">
<title>Node5&#45;&gt;Node6</title>
<g id="a_edge5_Node000005_Node000006"><a xlink:title=" ">
<path fill="none" stroke="#63b8ff" d="M437.81,-78C429.1,-78 420.4,-78 412.05,-78"/>
<polygon fill="#63b8ff" stroke="#63b8ff" points="438,-81.5 448,-78 438,-74.5 438,-81.5"/>
</a>
</g>
</g>
<!-- Node7 -->
<g id="Node000007" class="node">
<title>Node7</title>
<g id="a_Node000007"><a xlink:href="../../da/dd5/classTerraria_1_1Main_aa597dbafa085227bb056d05d0b0f9abe.html#aa597dbafa085227bb056d05d0b0f9abe" target="_top" xlink:title=" ">
<polygon fill="white" stroke="#666666" points="254,-93 145,-93 145,-63 254,-63 254,-93"/>
<text text-anchor="start" x="153" y="-81" font-family="Helvetica,sans-Serif" font-size="10.00">Terraria.Main.Draw</text>
<text text-anchor="middle" x="199.5" y="-70" font-family="Helvetica,sans-Serif" font-size="10.00">_Inner</text>
</a>
</g>
</g>
<!-- Node6&#45;&gt;Node7 -->
<g id="edge6_Node000006_Node000007" class="edge">
<title>Node6&#45;&gt;Node7</title>
<g id="a_edge6_Node000006_Node000007"><a xlink:title=" ">
<path fill="none" stroke="#63b8ff" d="M279.41,-78C270.99,-78 262.49,-78 254.35,-78"/>
<polygon fill="#63b8ff" stroke="#63b8ff" points="279.62,-81.5 289.62,-78 279.62,-74.5 279.62,-81.5"/>
</a>
</g>
</g>
<!-- Node8 -->
<g id="Node000008" class="node">
<title>Node8</title>
<g id="a_Node000008"><a xlink:href="../../da/dd5/classTerraria_1_1Main_a516aa31311860bad4242ade32e5effcd.html#a516aa31311860bad4242ade32e5effcd" target="_top" xlink:title=" ">
<polygon fill="white" stroke="#666666" points="109,-87.5 0,-87.5 0,-68.5 109,-68.5 109,-87.5"/>
<text text-anchor="middle" x="54.5" y="-75.5" font-family="Helvetica,sans-Serif" font-size="10.00">Terraria.Main.Draw</text>
</a>
</g>
</g>
<!-- Node7&#45;&gt;Node8 -->
<g id="edge7_Node000007_Node000008" class="edge">
<title>Node7&#45;&gt;Node8</title>
<g id="a_edge7_Node000007_Node000008"><a xlink:title=" ">
<path fill="none" stroke="#63b8ff" d="M134.68,-78C126.25,-78 117.69,-78 109.46,-78"/>
<polygon fill="#63b8ff" stroke="#63b8ff" points="134.85,-81.5 144.85,-78 134.85,-74.5 134.85,-81.5"/>
</a>
</g>
</g>
<!-- Node10 -->
<g id="Node000010" class="node">
<title>Node10</title>
<g id="a_Node000010"><a xlink:href="../../d9/d66/classTerraria_1_1GameContent_1_1Tile__Entities_1_1TEDisplayDoll_abee51a5ad7537836c2b8c1a6917859ce.html#abee51a5ad7537836c2b8c1a6917859ce" target="_top" xlink:title=" ">
<polygon fill="white" stroke="#666666" points="1477,-170 1294,-170 1294,-140 1477,-140 1477,-170"/>
<text text-anchor="start" x="1302" y="-158" font-family="Helvetica,sans-Serif" font-size="10.00">Terraria.GameContent.Tile</text>
<text text-anchor="middle" x="1385.5" y="-147" font-family="Helvetica,sans-Serif" font-size="10.00">_Entities.TEDisplayDoll.DrawInner</text>
</a>
</g>
</g>
<!-- Node9&#45;&gt;Node10 -->
<g id="edge9_Node000009_Node000010" class="edge">
<title>Node9&#45;&gt;Node10</title>
<g id="a_edge9_Node000009_Node000010"><a xlink:title=" ">
<path fill="none" stroke="#63b8ff" d="M1512.17,-155C1500.56,-155 1488.75,-155 1477.25,-155"/>
<polygon fill="#63b8ff" stroke="#63b8ff" points="1512.31,-158.5 1522.31,-155 1512.31,-151.5 1512.31,-158.5"/>
</a>
</g>
</g>
<!-- Node11 -->
<g id="Node000011" class="node">
<title>Node11</title>
<g id="a_Node000011"><a xlink:href="../../d9/d66/classTerraria_1_1GameContent_1_1Tile__Entities_1_1TEDisplayDoll_a7a022b46605f350097322aad0c2faf04.html#a7a022b46605f350097322aad0c2faf04" target="_top" xlink:title=" ">
<polygon fill="white" stroke="#666666" points="1258,-170 1040,-170 1040,-140 1258,-140 1258,-170"/>
<text text-anchor="start" x="1048" y="-158" font-family="Helvetica,sans-Serif" font-size="10.00">Terraria.GameContent.Tile</text>
<text text-anchor="middle" x="1149" y="-147" font-family="Helvetica,sans-Serif" font-size="10.00">_Entities.TEDisplayDoll.OnInventoryDraw</text>
</a>
</g>
</g>
<!-- Node10&#45;&gt;Node11 -->
<g id="edge10_Node000010_Node000011" class="edge">
<title>Node10&#45;&gt;Node11</title>
<g id="a_edge10_Node000010_Node000011"><a xlink:title=" ">
<path fill="none" stroke="#63b8ff" d="M1283.58,-155C1275.12,-155 1266.54,-155 1258.03,-155"/>
<polygon fill="#63b8ff" stroke="#63b8ff" points="1283.84,-158.5 1293.84,-155 1283.84,-151.5 1283.84,-158.5"/>
</a>
</g>
</g>
<!-- Node13 -->
<g id="Node000013" class="node">
<title>Node13</title>
<g id="a_Node000013"><a xlink:href="../../d3/d99/classTerraria_1_1GameContent_1_1Tile__Entities_1_1TEHatRack_a9f8a3ee3899ac7dd0721be56df6b4ed6.html#a9f8a3ee3899ac7dd0721be56df6b4ed6" target="_top" xlink:title=" ">
<polygon fill="white" stroke="#666666" points="1469.5,-30 1301.5,-30 1301.5,0 1469.5,0 1469.5,-30"/>
<text text-anchor="start" x="1309.5" y="-18" font-family="Helvetica,sans-Serif" font-size="10.00">Terraria.GameContent.Tile</text>
<text text-anchor="middle" x="1385.5" y="-7" font-family="Helvetica,sans-Serif" font-size="10.00">_Entities.TEHatRack.DrawInner</text>
</a>
</g>
</g>
<!-- Node12&#45;&gt;Node13 -->
<g id="edge12_Node000012_Node000013" class="edge">
<title>Node12&#45;&gt;Node13</title>
<g id="a_edge12_Node000012_Node000013"><a xlink:title=" ">
<path fill="none" stroke="#63b8ff" d="M1502.8,-15C1491.72,-15 1480.58,-15 1469.81,-15"/>
<polygon fill="#63b8ff" stroke="#63b8ff" points="1502.94,-18.5 1512.94,-15 1502.94,-11.5 1502.94,-18.5"/>
</a>
</g>
</g>
<!-- Node14 -->
<g id="Node000014" class="node">
<title>Node14</title>
<g id="a_Node000014"><a xlink:href="../../d3/d99/classTerraria_1_1GameContent_1_1Tile__Entities_1_1TEHatRack_aed55e15a268d7a7551bed80000eff8b4.html#aed55e15a268d7a7551bed80000eff8b4" target="_top" xlink:title=" ">
<polygon fill="white" stroke="#666666" points="1250.5,-30 1047.5,-30 1047.5,0 1250.5,0 1250.5,-30"/>
<text text-anchor="start" x="1055.5" y="-18" font-family="Helvetica,sans-Serif" font-size="10.00">Terraria.GameContent.Tile</text>
<text text-anchor="middle" x="1149" y="-7" font-family="Helvetica,sans-Serif" font-size="10.00">_Entities.TEHatRack.OnInventoryDraw</text>
</a>
</g>
</g>
<!-- Node13&#45;&gt;Node14 -->
<g id="edge13_Node000013_Node000014" class="edge">
<title>Node13&#45;&gt;Node14</title>
<g id="a_edge13_Node000013_Node000014"><a xlink:title=" ">
<path fill="none" stroke="#63b8ff" d="M1291.35,-15C1277.95,-15 1264.12,-15 1250.59,-15"/>
<polygon fill="#63b8ff" stroke="#63b8ff" points="1291.49,-18.5 1301.49,-15 1291.49,-11.5 1291.49,-18.5"/>
</a>
</g>
</g>
<!-- Node16 -->
<g id="Node000016" class="node">
<title>Node16</title>
<g id="a_Node000016"><a xlink:href="../../d8/dd3/classTerraria_1_1UI_1_1ChestUI_a88b244e7968d6898255653a9d6790103.html#a88b244e7968d6898255653a9d6790103" target="_top" xlink:title=" ">
<polygon fill="white" stroke="#666666" points="1454,-108.5 1317,-108.5 1317,-89.5 1454,-89.5 1454,-108.5"/>
<text text-anchor="middle" x="1385.5" y="-96.5" font-family="Helvetica,sans-Serif" font-size="10.00">Terraria.UI.ChestUI.Draw</text>
</a>
</g>
</g>
<!-- Node15&#45;&gt;Node16 -->
<g id="edge15_Node000015_Node000016" class="edge">
<title>Node15&#45;&gt;Node16</title>
<g id="a_edge15_Node000015_Node000016"><a xlink:title=" ">
<path fill="none" stroke="#63b8ff" d="M1532.03,-100.3C1506.71,-100.08 1478.84,-99.83 1454.32,-99.61"/>
<polygon fill="#63b8ff" stroke="#63b8ff" points="1532.31,-103.8 1542.34,-100.39 1532.37,-96.81 1532.31,-103.8"/>
</a>
</g>
</g>
<!-- Node16&#45;&gt;Node2 -->
<g id="edge16_Node000016_Node000002" class="edge">
<title>Node16&#45;&gt;Node2</title>
<g id="a_edge16_Node000016_Node000002"><a xlink:title=" ">
<path fill="none" stroke="#63b8ff" d="M1306.86,-92.05C1281.02,-89.73 1252.27,-87.16 1226.52,-84.85"/>
<polygon fill="#63b8ff" stroke="#63b8ff" points="1306.72,-95.55 1316.99,-92.95 1307.34,-88.58 1306.72,-95.55"/>
</a>
</g>
</g>
</g>
</svg>

<g id="navigator" transform="translate(0 0)" fill="#404254">
  <rect fill="#f2f5e9" fill-opacity="0.5" stroke="#606060" stroke-width=".5" x="0" y="0" width="60" height="60"/>
  <use id="zoomplus" xlink:href="#zoomPlus" x="17" y="9" onmousedown="handleZoom(evt,'in')"/>
  <use id="zoomminus" xlink:href="#zoomMin" x="42" y="9" onmousedown="handleZoom(evt,'out')"/>
  <use id="reset" xlink:href="#resetDef" x="30" y="36" onmousedown="handleReset()"/>
   <use id="arrowup" xlink:href="#arrowUp" x="0" y="0" onmousedown="handlePan(0,-1)"/>
  <use id="arrowright" xlink:href="#arrowRight" x="0" y="0" onmousedown="handlePan(1,0)"/>
  <use id="arrowdown" xlink:href="#arrowDown" x="0" y="0" onmousedown="handlePan(0,1)"/>
  <use id="arrowleft" xlink:href="#arrowLeft" x="0" y="0" onmousedown="handlePan(-1,0)"/>
</g>
<svg viewBox="0 0 15 15" width="100%" height="30px" preserveAspectRatio="xMaxYMin meet">
 <g id="arrow_out" transform="scale(0.3 0.3)">
  <a xlink:href="classTerraria_1_1UI_1_1ItemSlot_aed4f57ba06eb348765d216523af9aceb_aed4f57ba06eb348765d216523af9aceb_icgraph_org.svg" target="_base">
   <rect id="button" ry="5" rx="5" y="6" x="6" height="38" width="38"
        fill="#f2f5e9" fill-opacity="0.5" stroke="#606060" stroke-width="1.0"/>
   <path id="arrow"
     d="M 11.500037,31.436501 C 11.940474,20.09759 22.043105,11.32322 32.158766,21.979434 L 37.068811,17.246167 C 37.068811,17.246167 37.088388,32 37.088388,32 L 22.160133,31.978069 C 22.160133,31.978069 26.997745,27.140456 26.997745,27.140456 C 18.528582,18.264221 13.291696,25.230495 11.500037,31.436501 z"
     style="fill:#404040;"/>
  </a>
 </g>
</svg>

<style type='text/css'>
<![CDATA[
[data-mouse-over-selected='false'] { opacity: 0.7; }
[data-mouse-over-selected='true']  { opacity: 1.0; }
]]>
</style>
<script type="application/ecmascript"><![CDATA[
document.addEventListener('DOMContentLoaded', (event) => {
  highlightEdges();
  highlightAdjacentNodes();
});
]]></script>
</svg>
