<?xml version="1.0" encoding="UTF-8" standalone="no"?>
<!DOCTYPE svg PUBLIC "-//W3C//DTD SVG 1.1//EN"
 "http://www.w3.org/Graphics/SVG/1.1/DTD/svg11.dtd">
<!-- Generated by graphviz version 2.43.0 (0)
 -->
<!-- Title: Terraria.GameContent.RGB.JungleShader Pages: 1 -->
<svg width="216pt" height="282pt"
 viewBox="0.00 0.00 216.00 282.00" xmlns="http://www.w3.org/2000/svg" xmlns:xlink="http://www.w3.org/1999/xlink">
<g id="graph0" class="graph" transform="scale(1 1) rotate(0) translate(4 278)">
<title>Terraria.GameContent.RGB.JungleShader</title>
<!-- Node1 -->
<g id="Node000001" class="node">
<title>Node1</title>
<g id="a_Node000001"><a xlink:title=" ">
<polygon fill="#999999" stroke="transparent" points="166,-156 0,-156 0,0 166,0 166,-156"/>
<text text-anchor="start" x="15.5" y="-144" font-family="Helvetica,sans-Serif" font-size="10.00">Terraria.GameContent.RGB.</text>
<text text-anchor="start" x="51" y="-133" font-family="Helvetica,sans-Serif" font-size="10.00">JungleShader</text>
<text text-anchor="start" x="81" y="-118" font-family="Helvetica,sans-Serif" font-size="10.00"> </text>
<text text-anchor="start" x="4" y="-103" font-family="Helvetica,sans-Serif" font-size="10.00">+</text>
<text text-anchor="start" x="17" y="-103" font-family="Helvetica,sans-Serif" font-size="10.00">JungleShader()</text>
<text text-anchor="start" x="6.5" y="-88" font-family="Helvetica,sans-Serif" font-size="10.00">&#45;</text>
<text text-anchor="start" x="17" y="-88" font-family="Helvetica,sans-Serif" font-size="10.00">void ProcessLowDetail</text>
<text text-anchor="start" x="17" y="-77" font-family="Helvetica,sans-Serif" font-size="10.00">(RgbDevice device, Fragment</text>
<text text-anchor="start" x="17" y="-66" font-family="Helvetica,sans-Serif" font-size="10.00"> fragment, EffectDetailLevel</text>
<text text-anchor="start" x="17" y="-55" font-family="Helvetica,sans-Serif" font-size="10.00"> quality, float time)</text>
<text text-anchor="start" x="6.5" y="-40" font-family="Helvetica,sans-Serif" font-size="10.00">&#45;</text>
<text text-anchor="start" x="17" y="-40" font-family="Helvetica,sans-Serif" font-size="10.00">void ProcessHighDetail</text>
<text text-anchor="start" x="17" y="-29" font-family="Helvetica,sans-Serif" font-size="10.00">(RgbDevice device, Fragment</text>
<text text-anchor="start" x="17" y="-18" font-family="Helvetica,sans-Serif" font-size="10.00"> fragment, EffectDetailLevel</text>
<text text-anchor="start" x="17" y="-7" font-family="Helvetica,sans-Serif" font-size="10.00"> quality, float time)</text>
<polygon fill="#666666" stroke="#666666" points="0,-128 0,-128 166,-128 166,-128 0,-128"/>
<polygon fill="#666666" stroke="#666666" points="0,-113 0,-113 166,-113 166,-113 0,-113"/>
<polygon fill="none" stroke="#666666" points="0,0 0,-156 166,-156 166,0 0,0"/>
</a>
</g>
</g>
<!-- Node2 -->
<g id="Node000002" class="node">
<title>Node2</title>
<g id="a_Node000002"><a xlink:href="../../d7/d26/classChromaShader.html" target="_top" xlink:title=" ">
<polygon fill="white" stroke="transparent" points="83.5,-274 0.5,-274 0.5,-225 83.5,-225 83.5,-274"/>
<text text-anchor="start" x="6" y="-261.5" font-family="Helvetica,sans-Serif" font-size="10.00">ChromaShader</text>
<text text-anchor="start" x="40.5" y="-246.5" font-family="Helvetica,sans-Serif" font-size="10.00"> </text>
<text text-anchor="start" x="40.5" y="-231.5" font-family="Helvetica,sans-Serif" font-size="10.00"> </text>
<polygon fill="#666666" stroke="#666666" points="1,-256.5 1,-256.5 84,-256.5 84,-256.5 1,-256.5"/>
<polygon fill="#666666" stroke="#666666" points="1,-241.5 1,-241.5 84,-241.5 84,-241.5 1,-241.5"/>
<polygon fill="none" stroke="#666666" points="0.5,-225 0.5,-274 83.5,-274 83.5,-225 0.5,-225"/>
</a>
</g>
</g>
<!-- Node2&#45;&gt;Node1 -->
<g id="edge1_Node000001_Node000002" class="edge">
<title>Node2&#45;&gt;Node1</title>
<g id="a_edge1_Node000001_Node000002"><a xlink:title=" ">
<path fill="none" stroke="#63b8ff" d="M50.11,-214.99C54.21,-198.04 59.36,-176.72 64.37,-156.02"/>
<polygon fill="none" stroke="#63b8ff" points="46.65,-214.39 47.7,-224.93 53.45,-216.03 46.65,-214.39"/>
</a>
</g>
</g>
<!-- Node3 -->
<g id="Node000003" class="node">
<title>Node3</title>
<g id="a_Node000003"><a xlink:title=" ">
<polygon fill="white" stroke="transparent" points="148.5,-274 101.5,-274 101.5,-225 148.5,-225 148.5,-274"/>
<text text-anchor="start" x="107" y="-261.5" font-family="Helvetica,sans-Serif" font-size="10.00">Vector4</text>
<text text-anchor="start" x="123.5" y="-246.5" font-family="Helvetica,sans-Serif" font-size="10.00"> </text>
<text text-anchor="start" x="123.5" y="-231.5" font-family="Helvetica,sans-Serif" font-size="10.00"> </text>
<polygon fill="#666666" stroke="#666666" points="102,-256.5 102,-256.5 149,-256.5 149,-256.5 102,-256.5"/>
<polygon fill="#666666" stroke="#666666" points="102,-241.5 102,-241.5 149,-241.5 149,-241.5 102,-241.5"/>
<polygon fill="none" stroke="#666666" points="101.5,-225 101.5,-274 148.5,-274 148.5,-225 101.5,-225"/>
</a>
</g>
</g>
<!-- Node3&#45;&gt;Node1 -->
<g id="edge2_Node000001_Node000003" class="edge">
<title>Node3&#45;&gt;Node1</title>
<g id="a_edge2_Node000001_Node000003"><a xlink:title=" ">
<path fill="none" stroke="#63b8ff" d="M119.16,-224.93C115.39,-209.73 110.24,-188.92 105,-167.77"/>
<polygon fill="none" stroke="#63b8ff" points="104.97,-167.66 99.64,-162.8 102.08,-156.02 107.41,-160.88 104.97,-167.66"/>
</a>
</g>
<text text-anchor="middle" x="160.5" y="-199" font-family="Helvetica,sans-Serif" font-size="10.00" fill="grey"> &#45;_backgroundColor</text>
<text text-anchor="middle" x="160.5" y="-188" font-family="Helvetica,sans-Serif" font-size="10.00" fill="grey">&#45;_flowerColors</text>
<text text-anchor="middle" x="160.5" y="-177" font-family="Helvetica,sans-Serif" font-size="10.00" fill="grey">&#45;_sporeColor</text>
</g>
</g>
</svg>
