<?xml version="1.0" encoding="UTF-8" standalone="no"?>
<!DOCTYPE svg PUBLIC "-//W3C//DTD SVG 1.1//EN"
 "http://www.w3.org/Graphics/SVG/1.1/DTD/svg11.dtd">
<!-- Generated by graphviz version 2.43.0 (0)
 -->
<!-- Title: Terraria.Graphics.TileBatch.DrawBatch Pages: 1 -->
<svg width="1885pt" height="574pt"
 viewBox="0.00 0.00 1885.00 573.76" xmlns="http://www.w3.org/2000/svg" xmlns:xlink="http://www.w3.org/1999/xlink">
<g id="graph0" class="graph" transform="scale(1 1) rotate(0) translate(4 569.76)">
<title>Terraria.Graphics.TileBatch.DrawBatch</title>
<!-- Node1 -->
<g id="Node000001" class="node">
<title>Node1</title>
<g id="a_Node000001"><a xlink:title=" ">
<polygon fill="#999999" stroke="#666666" points="1877,-296.97 1726,-296.97 1726,-266.97 1877,-266.97 1877,-296.97"/>
<text text-anchor="start" x="1734" y="-284.97" font-family="Helvetica,sans-Serif" font-size="10.00">Terraria.Graphics.TileBatch.</text>
<text text-anchor="middle" x="1801.5" y="-273.97" font-family="Helvetica,sans-Serif" font-size="10.00">DrawBatch</text>
</a>
</g>
</g>
<!-- Node2 -->
<g id="Node000002" class="node">
<title>Node2</title>
<g id="a_Node000002"><a xlink:href="../../db/d9e/classTerraria_1_1Graphics_1_1TileBatch_abea1f005377ee4c7b767823e6a3297ef.html#abea1f005377ee4c7b767823e6a3297ef" target="_top" xlink:title=" ">
<polygon fill="white" stroke="#666666" points="1690,-291.47 1521,-291.47 1521,-272.47 1690,-272.47 1690,-291.47"/>
<text text-anchor="middle" x="1605.5" y="-279.47" font-family="Helvetica,sans-Serif" font-size="10.00">Terraria.Graphics.TileBatch.End</text>
</a>
</g>
</g>
<!-- Node1&#45;&gt;Node2 -->
<g id="edge1_Node000001_Node000002" class="edge">
<title>Node1&#45;&gt;Node2</title>
<g id="a_edge1_Node000001_Node000002"><a xlink:title=" ">
<path fill="none" stroke="#63b8ff" d="M1715.59,-281.97C1707.17,-281.97 1698.63,-281.97 1690.23,-281.97"/>
<polygon fill="#63b8ff" stroke="#63b8ff" points="1715.77,-285.47 1725.77,-281.97 1715.77,-278.47 1715.77,-285.47"/>
</a>
</g>
</g>
<!-- Node3 -->
<g id="Node000003" class="node">
<title>Node3</title>
<g id="a_Node000003"><a xlink:href="../../da/dd5/classTerraria_1_1Main_a474beeecaea4d6dd108fba56cd554d46.html#a474beeecaea4d6dd108fba56cd554d46" target="_top" xlink:title=" ">
<polygon fill="white" stroke="#666666" points="412,-285.47 290,-285.47 290,-266.47 412,-266.47 412,-285.47"/>
<text text-anchor="middle" x="351" y="-273.47" font-family="Helvetica,sans-Serif" font-size="10.00">Terraria.Main.DoDraw</text>
</a>
</g>
</g>
<!-- Node2&#45;&gt;Node3 -->
<g id="edge2_Node000002_Node000003" class="edge">
<title>Node2&#45;&gt;Node3</title>
<g id="a_edge2_Node000002_Node000003"><a xlink:title=" ">
<path fill="none" stroke="#63b8ff" d="M1601.58,-301.7C1593.31,-349.72 1564.91,-472.64 1485,-525.97 1371.11,-601.98 1314.43,-544.97 1177.5,-544.97 1177.5,-544.97 1177.5,-544.97 754.5,-544.97 607.88,-544.97 561.49,-515.79 448,-422.97 399.16,-383.02 366.54,-311.57 355.84,-285.67"/>
<polygon fill="#63b8ff" stroke="#63b8ff" points="1605.06,-302.1 1603.2,-291.67 1598.15,-300.99 1605.06,-302.1"/>
</a>
</g>
</g>
<!-- Node6 -->
<g id="Node000006" class="node">
<title>Node6</title>
<g id="a_Node000006"><a xlink:href="../../da/dd5/classTerraria_1_1Main_ae56023e484f0560aeca4eb92c99120d0.html#ae56023e484f0560aeca4eb92c99120d0" target="_top" xlink:title=" ">
<polygon fill="white" stroke="#666666" points="1452,-516.97 1330,-516.97 1330,-486.97 1452,-486.97 1452,-516.97"/>
<text text-anchor="start" x="1338" y="-504.97" font-family="Helvetica,sans-Serif" font-size="10.00">Terraria.Main.DoDraw</text>
<text text-anchor="middle" x="1391" y="-493.97" font-family="Helvetica,sans-Serif" font-size="10.00">_Tiles_Solid</text>
</a>
</g>
</g>
<!-- Node2&#45;&gt;Node6 -->
<g id="edge5_Node000002_Node000006" class="edge">
<title>Node2&#45;&gt;Node6</title>
<g id="a_edge5_Node000002_Node000006"><a xlink:title=" ">
<path fill="none" stroke="#63b8ff" d="M1597.8,-301.04C1583.35,-339.41 1545.58,-426.24 1485,-472.97 1475.36,-480.41 1463.78,-485.95 1452.13,-490.09"/>
<polygon fill="#63b8ff" stroke="#63b8ff" points="1601.11,-302.17 1601.26,-291.58 1594.54,-299.77 1601.11,-302.17"/>
</a>
</g>
</g>
<!-- Node7 -->
<g id="Node000007" class="node">
<title>Node7</title>
<g id="a_Node000007"><a xlink:href="../../da/dd5/classTerraria_1_1Main_a2d44005190710445b2d2cae37fc514bf.html#a2d44005190710445b2d2cae37fc514bf" target="_top" xlink:title=" ">
<polygon fill="white" stroke="#666666" points="1237.5,-458.97 1115.5,-458.97 1115.5,-428.97 1237.5,-428.97 1237.5,-458.97"/>
<text text-anchor="start" x="1123.5" y="-446.97" font-family="Helvetica,sans-Serif" font-size="10.00">Terraria.Main.DoDraw</text>
<text text-anchor="middle" x="1176.5" y="-435.97" font-family="Helvetica,sans-Serif" font-size="10.00">_WallsTilesNPCs</text>
</a>
</g>
</g>
<!-- Node2&#45;&gt;Node7 -->
<g id="edge10_Node000002_Node000007" class="edge">
<title>Node2&#45;&gt;Node7</title>
<g id="a_edge10_Node000002_Node000007"><a xlink:title=" ">
<path fill="none" stroke="#63b8ff" d="M1596.69,-301.5C1581.38,-336.8 1543.69,-410.29 1485,-439.97 1406.74,-479.54 1302.32,-469.98 1237.53,-458.04"/>
<polygon fill="#63b8ff" stroke="#63b8ff" points="1600.09,-302.44 1600.72,-291.86 1593.63,-299.74 1600.09,-302.44"/>
</a>
</g>
</g>
<!-- Node8 -->
<g id="Node000008" class="node">
<title>Node8</title>
<g id="a_Node000008"><a xlink:href="../../da/dd5/classTerraria_1_1Main_aabe3c9e20bc3a9f90d71bc26edac63bb.html#aabe3c9e20bc3a9f90d71bc26edac63bb" target="_top" xlink:title=" ">
<polygon fill="white" stroke="#666666" points="1452,-430.97 1330,-430.97 1330,-400.97 1452,-400.97 1452,-430.97"/>
<text text-anchor="start" x="1338" y="-418.97" font-family="Helvetica,sans-Serif" font-size="10.00">Terraria.Main.DoDraw</text>
<text text-anchor="middle" x="1391" y="-407.97" font-family="Helvetica,sans-Serif" font-size="10.00">_WallsAndBlacks</text>
</a>
</g>
</g>
<!-- Node2&#45;&gt;Node8 -->
<g id="edge8_Node000002_Node000008" class="edge">
<title>Node2&#45;&gt;Node8</title>
<g id="a_edge8_Node000002_Node000008"><a xlink:title=" ">
<path fill="none" stroke="#63b8ff" d="M1589.33,-299.22C1568.13,-322.31 1527.47,-363.13 1485,-386.97 1474.82,-392.68 1463.38,-397.42 1452.08,-401.3"/>
<polygon fill="#63b8ff" stroke="#63b8ff" points="1592.12,-301.34 1596.22,-291.57 1586.92,-296.65 1592.12,-301.34"/>
</a>
</g>
</g>
<!-- Node9 -->
<g id="Node000009" class="node">
<title>Node9</title>
<g id="a_Node000009"><a xlink:href="../../da/dd5/classTerraria_1_1Main_ab13ebe846afd6d4cd47586ef70091e91.html#ab13ebe846afd6d4cd47586ef70091e91" target="_top" xlink:title=" ">
<polygon fill="white" stroke="#666666" points="1045,-366.47 898,-366.47 898,-347.47 1045,-347.47 1045,-366.47"/>
<text text-anchor="middle" x="971.5" y="-354.47" font-family="Helvetica,sans-Serif" font-size="10.00">Terraria.Main.DrawCapture</text>
</a>
</g>
</g>
<!-- Node2&#45;&gt;Node9 -->
<g id="edge11_Node000002_Node000009" class="edge">
<title>Node2&#45;&gt;Node9</title>
<g id="a_edge11_Node000002_Node000009"><a xlink:title=" ">
<path fill="none" stroke="#63b8ff" d="M1585.27,-298.1C1562.86,-315.77 1523.91,-343.03 1485,-353.97 1325.89,-398.7 1127.86,-380.1 1031.15,-366.52"/>
<polygon fill="#63b8ff" stroke="#63b8ff" points="1587.7,-300.64 1593.28,-291.64 1583.3,-295.19 1587.7,-300.64"/>
</a>
</g>
</g>
<!-- Node12 -->
<g id="Node000012" class="node">
<title>Node12</title>
<g id="a_Node000012"><a xlink:href="../../dc/d84/classTerraria_1_1GameContent_1_1Liquid_1_1LiquidRenderer_ab64398cbb5d34f4dbd5d3d2986dcfc11.html#ab64398cbb5d34f4dbd5d3d2986dcfc11" target="_top" xlink:title=" ">
<polygon fill="white" stroke="#666666" points="1485,-344.97 1297,-344.97 1297,-314.97 1485,-314.97 1485,-344.97"/>
<text text-anchor="start" x="1305" y="-332.97" font-family="Helvetica,sans-Serif" font-size="10.00">Terraria.GameContent.Liquid.</text>
<text text-anchor="middle" x="1391" y="-321.97" font-family="Helvetica,sans-Serif" font-size="10.00">LiquidRenderer.DrawNormalLiquids</text>
</a>
</g>
</g>
<!-- Node2&#45;&gt;Node12 -->
<g id="edge15_Node000002_Node000012" class="edge">
<title>Node2&#45;&gt;Node12</title>
<g id="a_edge15_Node000002_Node000012"><a xlink:title=" ">
<path fill="none" stroke="#63b8ff" d="M1552.17,-293.79C1523.88,-300.18 1488.64,-308.14 1458.42,-314.97"/>
<polygon fill="#63b8ff" stroke="#63b8ff" points="1553.28,-297.13 1562.26,-291.51 1551.74,-290.3 1553.28,-297.13"/>
</a>
</g>
</g>
<!-- Node15 -->
<g id="Node000015" class="node">
<title>Node15</title>
<g id="a_Node000015"><a xlink:href="../../da/dd5/classTerraria_1_1Main_a48fdce278384e0e5424b1f84a071110d.html#a48fdce278384e0e5424b1f84a071110d" target="_top" xlink:title=" ">
<polygon fill="white" stroke="#666666" points="624,-248.47 448,-248.47 448,-229.47 624,-229.47 624,-248.47"/>
<text text-anchor="middle" x="536" y="-236.47" font-family="Helvetica,sans-Serif" font-size="10.00">Terraria.Main.RenderBackground</text>
</a>
</g>
</g>
<!-- Node2&#45;&gt;Node15 -->
<g id="edge30_Node000002_Node000015" class="edge">
<title>Node2&#45;&gt;Node15</title>
<g id="a_edge30_Node000002_Node000015"><a xlink:title=" ">
<path fill="none" stroke="#63b8ff" d="M1554.29,-270.3C1533.02,-265.77 1507.91,-260.96 1485,-257.97 1349.23,-240.22 1314.43,-238.97 1177.5,-238.97 1177.5,-238.97 1177.5,-238.97 970.5,-238.97 850.46,-238.97 711.72,-238.97 624.18,-238.97"/>
<polygon fill="#63b8ff" stroke="#63b8ff" points="1553.56,-273.72 1564.08,-272.42 1555.04,-266.88 1553.56,-273.72"/>
</a>
</g>
</g>
<!-- Node17 -->
<g id="Node000017" class="node">
<title>Node17</title>
<g id="a_Node000017"><a xlink:href="../../dc/d84/classTerraria_1_1GameContent_1_1Liquid_1_1LiquidRenderer_ae3bde7f46722a51e70851d0a69d9b8d6.html#ae3bde7f46722a51e70851d0a69d9b8d6" target="_top" xlink:title=" ">
<polygon fill="white" stroke="#666666" points="1472,-296.97 1310,-296.97 1310,-266.97 1472,-266.97 1472,-296.97"/>
<text text-anchor="start" x="1318" y="-284.97" font-family="Helvetica,sans-Serif" font-size="10.00">Terraria.GameContent.Liquid.</text>
<text text-anchor="middle" x="1391" y="-273.97" font-family="Helvetica,sans-Serif" font-size="10.00">LiquidRenderer.DrawShimmer</text>
</a>
</g>
</g>
<!-- Node2&#45;&gt;Node17 -->
<g id="edge24_Node000002_Node000017" class="edge">
<title>Node2&#45;&gt;Node17</title>
<g id="a_edge24_Node000002_Node000017"><a xlink:title=" ">
<path fill="none" stroke="#63b8ff" d="M1510.6,-281.97C1497.76,-281.97 1484.69,-281.97 1472.13,-281.97"/>
<polygon fill="#63b8ff" stroke="#63b8ff" points="1510.82,-285.47 1520.82,-281.97 1510.82,-278.47 1510.82,-285.47"/>
</a>
</g>
</g>
<!-- Node18 -->
<g id="Node000018" class="node">
<title>Node18</title>
<g id="a_Node000018"><a xlink:href="../../d7/d76/classTerraria_1_1GameContent_1_1Shaders_1_1WaterShaderData_a123acfca6e219e02c73b09612e7cafcb.html#a123acfca6e219e02c73b09612e7cafcb" target="_top" xlink:title=" ">
<polygon fill="white" stroke="#666666" points="1475.5,-210.97 1306.5,-210.97 1306.5,-180.97 1475.5,-180.97 1475.5,-210.97"/>
<text text-anchor="start" x="1314.5" y="-198.97" font-family="Helvetica,sans-Serif" font-size="10.00">Terraria.GameContent.Shaders.</text>
<text text-anchor="middle" x="1391" y="-187.97" font-family="Helvetica,sans-Serif" font-size="10.00">WaterShaderData.DrawWaves</text>
</a>
</g>
</g>
<!-- Node2&#45;&gt;Node18 -->
<g id="edge26_Node000002_Node000018" class="edge">
<title>Node2&#45;&gt;Node18</title>
<g id="a_edge26_Node000002_Node000018"><a xlink:title=" ">
<path fill="none" stroke="#63b8ff" d="M1577.49,-267.72C1553.58,-255.44 1517.54,-237.73 1485,-224.97 1472.25,-219.97 1458.25,-215.23 1445.08,-211.09"/>
<polygon fill="#63b8ff" stroke="#63b8ff" points="1576.15,-270.96 1586.64,-272.46 1579.37,-264.75 1576.15,-270.96"/>
</a>
</g>
</g>
<!-- Node19 -->
<g id="Node000019" class="node">
<title>Node19</title>
<g id="a_Node000019"><a xlink:href="../../d7/d76/classTerraria_1_1GameContent_1_1Shaders_1_1WaterShaderData_ac04a81ac68678a36971da7dd4c75424d.html#ac04a81ac68678a36971da7dd4c75424d" target="_top" xlink:title=" ">
<polygon fill="white" stroke="#666666" points="1261,-205.97 1092,-205.97 1092,-175.97 1261,-175.97 1261,-205.97"/>
<text text-anchor="start" x="1100" y="-193.97" font-family="Helvetica,sans-Serif" font-size="10.00">Terraria.GameContent.Shaders.</text>
<text text-anchor="middle" x="1176.5" y="-182.97" font-family="Helvetica,sans-Serif" font-size="10.00">WaterShaderData.StepLiquids</text>
</a>
</g>
</g>
<!-- Node2&#45;&gt;Node19 -->
<g id="edge37_Node000002_Node000019" class="edge">
<title>Node2&#45;&gt;Node19</title>
<g id="a_edge37_Node000002_Node000019"><a xlink:title=" ">
<path fill="none" stroke="#63b8ff" d="M1592.17,-264.21C1572.86,-238.14 1532.7,-190.58 1485,-171.97 1398.3,-138.14 1287.4,-159.07 1225.25,-175.96"/>
<polygon fill="#63b8ff" stroke="#63b8ff" points="1589.43,-266.39 1598.11,-272.45 1595.11,-262.29 1589.43,-266.39"/>
</a>
</g>
</g>
<!-- Node22 -->
<g id="Node000022" class="node">
<title>Node22</title>
<g id="a_Node000022"><a xlink:href="../../da/dd5/classTerraria_1_1Main_a28b4f7a7c174b4336af28e4ffedbee6b.html#a28b4f7a7c174b4336af28e4ffedbee6b" target="_top" xlink:title=" ">
<polygon fill="white" stroke="#666666" points="1042,-155.47 901,-155.47 901,-136.47 1042,-136.47 1042,-155.47"/>
<text text-anchor="middle" x="971.5" y="-143.47" font-family="Helvetica,sans-Serif" font-size="10.00">Terraria.Main.RenderTiles</text>
</a>
</g>
</g>
<!-- Node2&#45;&gt;Node22 -->
<g id="edge31_Node000002_Node000022" class="edge">
<title>Node2&#45;&gt;Node22</title>
<g id="a_edge31_Node000002_Node000022"><a xlink:title=" ">
<path fill="none" stroke="#63b8ff" d="M1594.57,-263.42C1577.11,-233.01 1537.69,-173.59 1485,-149.97 1321.4,-76.63 1097.83,-116.26 1010.05,-136.46"/>
<polygon fill="#63b8ff" stroke="#63b8ff" points="1591.53,-265.16 1599.46,-272.19 1597.65,-261.75 1591.53,-265.16"/>
</a>
</g>
</g>
<!-- Node23 -->
<g id="Node000023" class="node">
<title>Node23</title>
<g id="a_Node000023"><a xlink:href="../../da/dd5/classTerraria_1_1Main_a695c9d156c03ebb6ba6accba1be2002c.html#a695c9d156c03ebb6ba6accba1be2002c" target="_top" xlink:title=" ">
<polygon fill="white" stroke="#666666" points="1250,-86.47 1103,-86.47 1103,-67.47 1250,-67.47 1250,-86.47"/>
<text text-anchor="middle" x="1176.5" y="-74.47" font-family="Helvetica,sans-Serif" font-size="10.00">Terraria.Main.RenderTiles2</text>
</a>
</g>
</g>
<!-- Node2&#45;&gt;Node23 -->
<g id="edge33_Node000002_Node000023" class="edge">
<title>Node2&#45;&gt;Node23</title>
<g id="a_edge33_Node000002_Node000023"><a xlink:title=" ">
<path fill="none" stroke="#63b8ff" d="M1598.28,-262.75C1584.71,-224.29 1548.45,-138.37 1485,-100.97 1407.15,-55.09 1298.32,-59.27 1233.18,-67.44"/>
<polygon fill="#63b8ff" stroke="#63b8ff" points="1594.98,-263.91 1601.51,-272.26 1601.61,-261.66 1594.98,-263.91"/>
</a>
</g>
</g>
<!-- Node24 -->
<g id="Node000024" class="node">
<title>Node24</title>
<g id="a_Node000024"><a xlink:href="../../da/dd5/classTerraria_1_1Main_ac82d6f5849c943265915d021b1d94aa1.html#ac82d6f5849c943265915d021b1d94aa1" target="_top" xlink:title=" ">
<polygon fill="white" stroke="#666666" points="1043.5,-50.47 899.5,-50.47 899.5,-31.47 1043.5,-31.47 1043.5,-50.47"/>
<text text-anchor="middle" x="971.5" y="-38.47" font-family="Helvetica,sans-Serif" font-size="10.00">Terraria.Main.RenderWalls</text>
</a>
</g>
</g>
<!-- Node2&#45;&gt;Node24 -->
<g id="edge35_Node000002_Node000024" class="edge">
<title>Node2&#45;&gt;Node24</title>
<g id="a_edge35_Node000002_Node000024"><a xlink:title=" ">
<path fill="none" stroke="#63b8ff" d="M1600.7,-261.95C1590.86,-216.46 1559.93,-105.63 1485,-58.97 1329.88,37.63 1094.06,-9.1 1006.65,-31.42"/>
<polygon fill="#63b8ff" stroke="#63b8ff" points="1597.32,-262.94 1602.76,-272.03 1604.18,-261.53 1597.32,-262.94"/>
</a>
</g>
</g>
<!-- Node4 -->
<g id="Node000004" class="node">
<title>Node4</title>
<g id="a_Node000004"><a xlink:href="../../da/dd5/classTerraria_1_1Main_aa597dbafa085227bb056d05d0b0f9abe.html#aa597dbafa085227bb056d05d0b0f9abe" target="_top" xlink:title=" ">
<polygon fill="white" stroke="#666666" points="254,-290.97 145,-290.97 145,-260.97 254,-260.97 254,-290.97"/>
<text text-anchor="start" x="153" y="-278.97" font-family="Helvetica,sans-Serif" font-size="10.00">Terraria.Main.Draw</text>
<text text-anchor="middle" x="199.5" y="-267.97" font-family="Helvetica,sans-Serif" font-size="10.00">_Inner</text>
</a>
</g>
</g>
<!-- Node3&#45;&gt;Node4 -->
<g id="edge3_Node000003_Node000004" class="edge">
<title>Node3&#45;&gt;Node4</title>
<g id="a_edge3_Node000003_Node000004"><a xlink:title=" ">
<path fill="none" stroke="#63b8ff" d="M279.41,-275.97C270.99,-275.97 262.49,-275.97 254.35,-275.97"/>
<polygon fill="#63b8ff" stroke="#63b8ff" points="279.62,-279.47 289.62,-275.97 279.62,-272.47 279.62,-279.47"/>
</a>
</g>
</g>
<!-- Node5 -->
<g id="Node000005" class="node">
<title>Node5</title>
<g id="a_Node000005"><a xlink:href="../../da/dd5/classTerraria_1_1Main_a516aa31311860bad4242ade32e5effcd.html#a516aa31311860bad4242ade32e5effcd" target="_top" xlink:title=" ">
<polygon fill="white" stroke="#666666" points="109,-285.47 0,-285.47 0,-266.47 109,-266.47 109,-285.47"/>
<text text-anchor="middle" x="54.5" y="-273.47" font-family="Helvetica,sans-Serif" font-size="10.00">Terraria.Main.Draw</text>
</a>
</g>
</g>
<!-- Node4&#45;&gt;Node5 -->
<g id="edge4_Node000004_Node000005" class="edge">
<title>Node4&#45;&gt;Node5</title>
<g id="a_edge4_Node000004_Node000005"><a xlink:title=" ">
<path fill="none" stroke="#63b8ff" d="M134.68,-275.97C126.25,-275.97 117.69,-275.97 109.46,-275.97"/>
<polygon fill="#63b8ff" stroke="#63b8ff" points="134.85,-279.47 144.85,-275.97 134.85,-272.47 134.85,-279.47"/>
</a>
</g>
</g>
<!-- Node6&#45;&gt;Node7 -->
<g id="edge6_Node000006_Node000007" class="edge">
<title>Node6&#45;&gt;Node7</title>
<g id="a_edge6_Node000006_Node000007"><a xlink:title=" ">
<path fill="none" stroke="#63b8ff" d="M1325.18,-484.28C1295.6,-476.2 1260.94,-466.74 1232.64,-459.02"/>
<polygon fill="#63b8ff" stroke="#63b8ff" points="1324.43,-487.7 1335,-486.96 1326.27,-480.95 1324.43,-487.7"/>
</a>
</g>
</g>
<!-- Node7&#45;&gt;Node3 -->
<g id="edge7_Node000007_Node000003" class="edge">
<title>Node7&#45;&gt;Node3</title>
<g id="a_edge7_Node000007_Node000003"><a xlink:title=" ">
<path fill="none" stroke="#63b8ff" d="M1104.82,-454.07C969.41,-470.06 667.4,-489.2 448,-380.97 403.7,-359.12 370.02,-307.32 357.41,-285.71"/>
<polygon fill="#63b8ff" stroke="#63b8ff" points="1105.55,-457.51 1115.06,-452.83 1104.71,-450.56 1105.55,-457.51"/>
</a>
</g>
</g>
<!-- Node8&#45;&gt;Node7 -->
<g id="edge9_Node000008_Node000007" class="edge">
<title>Node8&#45;&gt;Node7</title>
<g id="a_edge9_Node000008_Node000007"><a xlink:title=" ">
<path fill="none" stroke="#63b8ff" d="M1319.96,-425.2C1293.38,-428.7 1263.36,-432.66 1237.76,-436.03"/>
<polygon fill="#63b8ff" stroke="#63b8ff" points="1320.5,-428.66 1329.96,-423.88 1319.59,-421.72 1320.5,-428.66"/>
</a>
</g>
</g>
<!-- Node10 -->
<g id="Node000010" class="node">
<title>Node10</title>
<g id="a_Node000010"><a xlink:href="../../d5/d3b/classTerraria_1_1Graphics_1_1Capture_1_1CaptureCamera_a0f89b111e49e173b59c7d4eae1ec828f.html#a0f89b111e49e173b59c7d4eae1ec828f" target="_top" xlink:title=" ">
<polygon fill="white" stroke="#666666" points="827,-371.97 684,-371.97 684,-341.97 827,-341.97 827,-371.97"/>
<text text-anchor="start" x="692" y="-359.97" font-family="Helvetica,sans-Serif" font-size="10.00">Terraria.Graphics.Capture.</text>
<text text-anchor="middle" x="755.5" y="-348.97" font-family="Helvetica,sans-Serif" font-size="10.00">CaptureCamera.DrawTick</text>
</a>
</g>
</g>
<!-- Node9&#45;&gt;Node10 -->
<g id="edge12_Node000009_Node000010" class="edge">
<title>Node9&#45;&gt;Node10</title>
<g id="a_edge12_Node000009_Node000010"><a xlink:title=" ">
<path fill="none" stroke="#63b8ff" d="M887.74,-356.97C867.77,-356.97 846.6,-356.97 827.24,-356.97"/>
<polygon fill="#63b8ff" stroke="#63b8ff" points="887.75,-360.47 897.75,-356.97 887.75,-353.47 887.75,-360.47"/>
</a>
</g>
</g>
<!-- Node11 -->
<g id="Node000011" class="node">
<title>Node11</title>
<g id="a_Node000011"><a xlink:href="../../d4/d78/classTerraria_1_1Graphics_1_1Capture_1_1CaptureManager_a692c32176bdf72053b0217a48bc49dd5.html#a692c32176bdf72053b0217a48bc49dd5" target="_top" xlink:title=" ">
<polygon fill="white" stroke="#666666" points="609,-371.97 463,-371.97 463,-341.97 609,-341.97 609,-371.97"/>
<text text-anchor="start" x="471" y="-359.97" font-family="Helvetica,sans-Serif" font-size="10.00">Terraria.Graphics.Capture.</text>
<text text-anchor="middle" x="536" y="-348.97" font-family="Helvetica,sans-Serif" font-size="10.00">CaptureManager.DrawTick</text>
</a>
</g>
</g>
<!-- Node10&#45;&gt;Node11 -->
<g id="edge13_Node000010_Node000011" class="edge">
<title>Node10&#45;&gt;Node11</title>
<g id="a_edge13_Node000010_Node000011"><a xlink:title=" ">
<path fill="none" stroke="#63b8ff" d="M673.63,-356.97C652.47,-356.97 629.8,-356.97 609.13,-356.97"/>
<polygon fill="#63b8ff" stroke="#63b8ff" points="673.88,-360.47 683.88,-356.97 673.88,-353.47 673.88,-360.47"/>
</a>
</g>
</g>
<!-- Node11&#45;&gt;Node3 -->
<g id="edge14_Node000011_Node000003" class="edge">
<title>Node11&#45;&gt;Node3</title>
<g id="a_edge14_Node000011_Node000003"><a xlink:title=" ">
<path fill="none" stroke="#63b8ff" d="M475.22,-338.58C466,-335.31 456.67,-331.73 448,-327.97 418.61,-315.23 386.19,-296.65 367.54,-285.49"/>
<polygon fill="#63b8ff" stroke="#63b8ff" points="474.15,-341.92 484.75,-341.88 476.44,-335.3 474.15,-341.92"/>
</a>
</g>
</g>
<!-- Node13 -->
<g id="Node000013" class="node">
<title>Node13</title>
<g id="a_Node000013"><a xlink:href="../../da/dd5/classTerraria_1_1Main_a1e3b89614e3540f1dbfdfe1e731aa58b.html#a1e3b89614e3540f1dbfdfe1e731aa58b" target="_top" xlink:title=" ">
<polygon fill="white" stroke="#666666" points="1245.5,-308.47 1107.5,-308.47 1107.5,-289.47 1245.5,-289.47 1245.5,-308.47"/>
<text text-anchor="middle" x="1176.5" y="-296.47" font-family="Helvetica,sans-Serif" font-size="10.00">Terraria.Main.DrawLiquid</text>
</a>
</g>
</g>
<!-- Node12&#45;&gt;Node13 -->
<g id="edge16_Node000012_Node000013" class="edge">
<title>Node12&#45;&gt;Node13</title>
<g id="a_edge16_Node000012_Node000013"><a xlink:title=" ">
<path fill="none" stroke="#63b8ff" d="M1286.53,-314.87C1271.67,-312.71 1256.73,-310.53 1242.88,-308.51"/>
<polygon fill="#63b8ff" stroke="#63b8ff" points="1286.39,-318.39 1296.79,-316.37 1287.4,-311.47 1286.39,-318.39"/>
</a>
</g>
</g>
<!-- Node13&#45;&gt;Node9 -->
<g id="edge17_Node000013_Node000009" class="edge">
<title>Node13&#45;&gt;Node9</title>
<g id="a_edge17_Node000013_Node000009"><a xlink:title=" ">
<path fill="none" stroke="#63b8ff" d="M1132.28,-311.32C1094.57,-322.09 1040.62,-337.51 1006.07,-347.38"/>
<polygon fill="#63b8ff" stroke="#63b8ff" points="1133.32,-314.66 1141.98,-308.55 1131.4,-307.93 1133.32,-314.66"/>
</a>
</g>
</g>
<!-- Node14 -->
<g id="Node000014" class="node">
<title>Node14</title>
<g id="a_Node000014"><a xlink:href="../../da/dd5/classTerraria_1_1Main_ae858d85cb2214569ddb3ed5216acac71.html#ae858d85cb2214569ddb3ed5216acac71" target="_top" xlink:title=" ">
<polygon fill="white" stroke="#666666" points="827,-305.47 684,-305.47 684,-286.47 827,-286.47 827,-305.47"/>
<text text-anchor="middle" x="755.5" y="-293.47" font-family="Helvetica,sans-Serif" font-size="10.00">Terraria.Main.DrawWaters</text>
</a>
</g>
</g>
<!-- Node13&#45;&gt;Node14 -->
<g id="edge18_Node000013_Node000014" class="edge">
<title>Node13&#45;&gt;Node14</title>
<g id="a_edge18_Node000013_Node000014"><a xlink:title=" ">
<path fill="none" stroke="#63b8ff" d="M1097.05,-298.41C1019.5,-297.85 901.91,-297.01 827.17,-296.48"/>
<polygon fill="#63b8ff" stroke="#63b8ff" points="1097.22,-301.91 1107.25,-298.48 1097.27,-294.91 1097.22,-301.91"/>
</a>
</g>
</g>
<!-- Node14&#45;&gt;Node3 -->
<g id="edge19_Node000014_Node000003" class="edge">
<title>Node14&#45;&gt;Node3</title>
<g id="a_edge19_Node000014_Node000003"><a xlink:title=" ">
<path fill="none" stroke="#63b8ff" d="M673.6,-299.93C611.68,-301.93 524.24,-302.57 448,-294.97 429.23,-293.1 408.69,-289.28 391.45,-285.55"/>
<polygon fill="#63b8ff" stroke="#63b8ff" points="673.82,-303.42 683.7,-299.58 673.58,-296.42 673.82,-303.42"/>
</a>
</g>
</g>
<!-- Node14&#45;&gt;Node15 -->
<g id="edge20_Node000014_Node000015" class="edge">
<title>Node14&#45;&gt;Node15</title>
<g id="a_edge20_Node000014_Node000015"><a xlink:title=" ">
<path fill="none" stroke="#63b8ff" d="M714.06,-283.42C688.38,-275.64 654.38,-265.7 624,-257.97 610.97,-254.65 596.74,-251.4 583.64,-248.54"/>
<polygon fill="#63b8ff" stroke="#63b8ff" points="713.23,-286.82 723.81,-286.39 715.27,-280.13 713.23,-286.82"/>
</a>
</g>
</g>
<!-- Node16 -->
<g id="Node000016" class="node">
<title>Node16</title>
<g id="a_Node000016"><a xlink:href="../../da/dd5/classTerraria_1_1Main_a57708f4defcd47377ee0623962510649.html#a57708f4defcd47377ee0623962510649" target="_top" xlink:title=" ">
<polygon fill="white" stroke="#666666" points="609,-285.47 463,-285.47 463,-266.47 609,-266.47 609,-285.47"/>
<text text-anchor="middle" x="536" y="-273.47" font-family="Helvetica,sans-Serif" font-size="10.00">Terraria.Main.RenderWater</text>
</a>
</g>
</g>
<!-- Node14&#45;&gt;Node16 -->
<g id="edge22_Node000014_Node000016" class="edge">
<title>Node14&#45;&gt;Node16</title>
<g id="a_edge22_Node000014_Node000016"><a xlink:title=" ">
<path fill="none" stroke="#63b8ff" d="M673.92,-288.56C652.68,-286.61 629.89,-284.51 609.13,-282.6"/>
<polygon fill="#63b8ff" stroke="#63b8ff" points="673.61,-292.05 683.88,-289.48 674.25,-285.07 673.61,-292.05"/>
</a>
</g>
</g>
<!-- Node15&#45;&gt;Node3 -->
<g id="edge21_Node000015_Node000003" class="edge">
<title>Node15&#45;&gt;Node3</title>
<g id="a_edge21_Node000015_Node000003"><a xlink:title=" ">
<path fill="none" stroke="#63b8ff" d="M478.04,-250.49C452.75,-255.6 423.34,-261.55 399.29,-266.41"/>
<polygon fill="#63b8ff" stroke="#63b8ff" points="478.76,-253.91 487.87,-248.5 477.38,-247.05 478.76,-253.91"/>
</a>
</g>
</g>
<!-- Node16&#45;&gt;Node3 -->
<g id="edge23_Node000016_Node000003" class="edge">
<title>Node16&#45;&gt;Node3</title>
<g id="a_edge23_Node000016_Node000003"><a xlink:title=" ">
<path fill="none" stroke="#63b8ff" d="M452.6,-275.97C439,-275.97 425.12,-275.97 412.19,-275.97"/>
<polygon fill="#63b8ff" stroke="#63b8ff" points="452.94,-279.47 462.94,-275.97 452.94,-272.47 452.94,-279.47"/>
</a>
</g>
</g>
<!-- Node17&#45;&gt;Node13 -->
<g id="edge25_Node000017_Node000013" class="edge">
<title>Node17&#45;&gt;Node13</title>
<g id="a_edge25_Node000017_Node000013"><a xlink:title=" ">
<path fill="none" stroke="#63b8ff" d="M1299.94,-289.17C1281.76,-290.63 1262.93,-292.13 1245.65,-293.52"/>
<polygon fill="#63b8ff" stroke="#63b8ff" points="1300.28,-292.66 1309.97,-288.37 1299.72,-285.68 1300.28,-292.66"/>
</a>
</g>
</g>
<!-- Node18&#45;&gt;Node19 -->
<g id="edge27_Node000018_Node000019" class="edge">
<title>Node18&#45;&gt;Node19</title>
<g id="a_edge27_Node000018_Node000019"><a xlink:title=" ">
<path fill="none" stroke="#63b8ff" d="M1296.13,-193.76C1284.47,-193.49 1272.6,-193.21 1261.1,-192.94"/>
<polygon fill="#63b8ff" stroke="#63b8ff" points="1296.24,-197.26 1306.32,-194 1296.4,-190.27 1296.24,-197.26"/>
</a>
</g>
</g>
<!-- Node20 -->
<g id="Node000020" class="node">
<title>Node20</title>
<g id="a_Node000020"><a xlink:href="../../d7/d76/classTerraria_1_1GameContent_1_1Shaders_1_1WaterShaderData_a53246590cbb1fc6a84cd53b526398689.html#a53246590cbb1fc6a84cd53b526398689" target="_top" xlink:title=" ">
<polygon fill="white" stroke="#666666" points="1056,-205.97 887,-205.97 887,-175.97 1056,-175.97 1056,-205.97"/>
<text text-anchor="start" x="895" y="-193.97" font-family="Helvetica,sans-Serif" font-size="10.00">Terraria.GameContent.Shaders.</text>
<text text-anchor="middle" x="971.5" y="-182.97" font-family="Helvetica,sans-Serif" font-size="10.00">WaterShaderData.PreDraw</text>
</a>
</g>
</g>
<!-- Node19&#45;&gt;Node20 -->
<g id="edge28_Node000019_Node000020" class="edge">
<title>Node19&#45;&gt;Node20</title>
<g id="a_edge28_Node000019_Node000020"><a xlink:title=" ">
<path fill="none" stroke="#63b8ff" d="M1081.74,-190.97C1073.17,-190.97 1064.52,-190.97 1056.05,-190.97"/>
<polygon fill="#63b8ff" stroke="#63b8ff" points="1081.76,-194.47 1091.76,-190.97 1081.76,-187.47 1081.76,-194.47"/>
</a>
</g>
</g>
<!-- Node21 -->
<g id="Node000021" class="node">
<title>Node21</title>
<g id="a_Node000021"><a xlink:href="../../d7/d76/classTerraria_1_1GameContent_1_1Shaders_1_1WaterShaderData_adee091ea8f42b01f7287cd6c9000dc4c.html#adee091ea8f42b01f7287cd6c9000dc4c" target="_top" xlink:title=" ">
<polygon fill="white" stroke="#666666" points="851,-205.97 660,-205.97 660,-175.97 851,-175.97 851,-205.97"/>
<text text-anchor="start" x="668" y="-193.97" font-family="Helvetica,sans-Serif" font-size="10.00">Terraria.GameContent.Shaders.</text>
<text text-anchor="middle" x="755.5" y="-182.97" font-family="Helvetica,sans-Serif" font-size="10.00">WaterShaderData.WaterShaderData</text>
</a>
</g>
</g>
<!-- Node20&#45;&gt;Node21 -->
<g id="edge29_Node000020_Node000021" class="edge">
<title>Node20&#45;&gt;Node21</title>
<g id="a_edge29_Node000020_Node000021"><a xlink:title=" ">
<path fill="none" stroke="#63b8ff" d="M876.59,-190.97C868.13,-190.97 859.56,-190.97 851.1,-190.97"/>
<polygon fill="#63b8ff" stroke="#63b8ff" points="876.84,-194.47 886.84,-190.97 876.84,-187.47 876.84,-194.47"/>
</a>
</g>
</g>
<!-- Node22&#45;&gt;Node3 -->
<g id="edge32_Node000022_Node000003" class="edge">
<title>Node22&#45;&gt;Node3</title>
<g id="a_edge32_Node000022_Node000003"><a xlink:title=" ">
<path fill="none" stroke="#63b8ff" d="M890.75,-145.67C785.54,-147.87 596.37,-160.87 448,-220.97 417.2,-233.44 384.19,-254.18 366.02,-266.31"/>
<polygon fill="#63b8ff" stroke="#63b8ff" points="891.04,-149.17 900.97,-145.49 890.91,-142.17 891.04,-149.17"/>
</a>
</g>
</g>
<!-- Node23&#45;&gt;Node3 -->
<g id="edge34_Node000023_Node000003" class="edge">
<title>Node23&#45;&gt;Node3</title>
<g id="a_edge34_Node000023_Node000003"><a xlink:title=" ">
<path fill="none" stroke="#63b8ff" d="M1092.65,-69.42C951.59,-60.33 659.5,-58.14 448,-168.97 403.79,-192.14 370.06,-244.41 357.42,-266.17"/>
<polygon fill="#63b8ff" stroke="#63b8ff" points="1092.74,-72.93 1102.96,-70.11 1093.22,-65.95 1092.74,-72.93"/>
</a>
</g>
</g>
<!-- Node24&#45;&gt;Node3 -->
<g id="edge36_Node000024_Node000003" class="edge">
<title>Node24&#45;&gt;Node3</title>
<g id="a_edge36_Node000024_Node000003"><a xlink:title=" ">
<path fill="none" stroke="#63b8ff" d="M910.35,-29.86C806.35,-14.1 590.44,3.11 448,-92.97 384.35,-135.9 360.03,-234.94 353.76,-266.28"/>
<polygon fill="#63b8ff" stroke="#63b8ff" points="909.94,-33.34 920.36,-31.43 911.02,-26.42 909.94,-33.34"/>
</a>
</g>
</g>
</g>
</svg>
