<?xml version="1.0" encoding="UTF-8" standalone="no"?>
<!DOCTYPE svg PUBLIC "-//W3C//DTD SVG 1.1//EN"
 "http://www.w3.org/Graphics/SVG/1.1/DTD/svg11.dtd">
<!-- Generated by graphviz version 2.43.0 (0)
 -->
<!-- Title: Terraria.IO.WorldFile.LoadNPCs Pages: 1 -->
<svg width="403pt" height="64pt"
 viewBox="0.00 0.00 403.00 64.00" xmlns="http://www.w3.org/2000/svg" xmlns:xlink="http://www.w3.org/1999/xlink">
<g id="graph0" class="graph" transform="scale(1 1) rotate(0) translate(4 60)">
<title>Terraria.IO.WorldFile.LoadNPCs</title>
<!-- Node1 -->
<g id="Node000001" class="node">
<title>Node1</title>
<g id="a_Node000001"><a xlink:title=" ">
<polygon fill="#999999" stroke="#666666" points="167,-37 0,-37 0,-18 167,-18 167,-37"/>
<text text-anchor="middle" x="83.5" y="-25" font-family="Helvetica,sans-Serif" font-size="10.00">Terraria.IO.WorldFile.LoadNPCs</text>
</a>
</g>
</g>
<!-- Node2 -->
<g id="Node000002" class="node">
<title>Node2</title>
<g id="a_Node000002"><a xlink:href="../../df/d0d/classTerraria_1_1NPC_a8a869e0800c1ae775007634b23e8b702.html#a8a869e0800c1ae775007634b23e8b702" target="_top" xlink:title="Returns true if there are any active NPC in the world of the given NPC type (F:Terraria....">
<polygon fill="white" stroke="#666666" points="361,-56 237,-56 237,-37 361,-37 361,-56"/>
<text text-anchor="middle" x="299" y="-44" font-family="Helvetica,sans-Serif" font-size="10.00">Terraria.NPC.AnyNPCs</text>
</a>
</g>
</g>
<!-- Node1&#45;&gt;Node2 -->
<g id="edge1_Node000001_Node000002" class="edge">
<title>Node1&#45;&gt;Node2</title>
<g id="a_edge1_Node000001_Node000002"><a xlink:title=" ">
<path fill="none" stroke="#63b8ff" d="M167.04,-34.85C186.74,-36.6 207.59,-38.45 226.73,-40.16"/>
<polygon fill="#63b8ff" stroke="#63b8ff" points="226.6,-43.66 236.87,-41.06 227.22,-36.69 226.6,-43.66"/>
</a>
</g>
</g>
<!-- Node3 -->
<g id="Node000003" class="node">
<title>Node3</title>
<g id="a_Node000003"><a xlink:href="../../d9/d0d/classTerraria_1_1ID_1_1NPCID_ac78c9a5bff949568070b1103f3a91133.html#ac78c9a5bff949568070b1103f3a91133" target="_top" xlink:title=" ">
<polygon fill="white" stroke="#666666" points="395,-19 203,-19 203,0 395,0 395,-19"/>
<text text-anchor="middle" x="299" y="-7" font-family="Helvetica,sans-Serif" font-size="10.00">Terraria.ID.NPCID.FromLegacyName</text>
</a>
</g>
</g>
<!-- Node1&#45;&gt;Node3 -->
<g id="edge2_Node000001_Node000003" class="edge">
<title>Node1&#45;&gt;Node3</title>
<g id="a_edge2_Node000001_Node000003"><a xlink:title=" ">
<path fill="none" stroke="#63b8ff" d="M167.04,-20.54C175.48,-19.83 184.13,-19.1 192.76,-18.37"/>
<polygon fill="#63b8ff" stroke="#63b8ff" points="193.2,-21.85 202.87,-17.52 192.62,-14.87 193.2,-21.85"/>
</a>
</g>
</g>
</g>
</svg>
