<?xml version="1.0" encoding="UTF-8" standalone="no"?>
<!DOCTYPE svg PUBLIC "-//W3C//DTD SVG 1.1//EN"
 "http://www.w3.org/Graphics/SVG/1.1/DTD/svg11.dtd">
<!-- Generated by graphviz version 2.43.0 (0)
 -->
<!-- Title: Terraria.IO.WorldFile.LoadWorld_LastMinuteFixes Pages: 1 -->
<!--zoomable 187 -->

<svg id="main" version="1.1" xmlns="http://www.w3.org/2000/svg" xmlns:xlink="http://www.w3.org/1999/xlink" xml:space="preserve" onload="init(evt)">
<style type="text/css"><![CDATA[
.node, .edge {opacity: 0.7;}
.node.selected, .edge.selected {opacity: 1;}
.edge:hover path { stroke: red; }
.edge:hover polygon { stroke: red; fill: red; }
]]></style>

<defs>
  <circle id="rim" cx="0" cy="0" r="7"/>
  <circle id="rim2" cx="0" cy="0" r="3.5"/>
  <g id="zoomPlus">
    <use xlink:href="#rim" fill="#404040"><set attributeName="fill" to="#808080" begin="zoomplus.mouseover" end="zoomplus.mouseout"/></use>
    <path d="M-4,0h8M0,-4v8" fill="none" stroke="white" stroke-width="1.5" pointer-events="none"/>
  </g>
  <g id="zoomMin">
    <use xlink:href="#rim" fill="#404040"><set attributeName="fill" to="#808080" begin="zoomminus.mouseover" end="zoomminus.mouseout"/></use>
    <path d="M-4,0h8" fill="none" stroke="white" stroke-width="1.5" pointer-events="none"/>
  </g>
  <g id="arrowUp" transform="translate(30 24)">
    <use xlink:href="#rim"/>
    <path pointer-events="none" fill="none" stroke="white" stroke-width="1.5" d="M0,-3.0v7 M-2.5,-0.5L0,-3.0L2.5,-0.5"/>
  </g>
  <g id="arrowRight" transform="rotate(90) translate(36 -43)">
    <use xlink:href="#rim"/>
    <path pointer-events="none" fill="none" stroke="white" stroke-width="1.5" d="M0,-3.0v7 M-2.5,-0.5L0,-3.0L2.5,-0.5"/>
  </g>
  <g id="arrowDown" transform="rotate(180) translate(-30 -48)">
    <use xlink:href="#rim"/>
    <path pointer-events="none" fill="none" stroke="white" stroke-width="1.5" d="M0,-3.0v7 M-2.5,-0.5L0,-3.0L2.5,-0.5"/>
  </g>
  <g id="arrowLeft" transform="rotate(270) translate(-36 17)">
    <use xlink:href="#rim"/>
    <path pointer-events="none" fill="none" stroke="white" stroke-width="1.5" d="M0,-3.0v7 M-2.5,-0.5L0,-3.0L2.5,-0.5"/>
  </g>
  <g id="resetDef">
    <use xlink:href="#rim2" fill="#404040"><set attributeName="fill" to="#808080" begin="reset.mouseover" end="reset.mouseout"/></use>
  </g>
</defs>
<script type="application/ecmascript">
var viewWidth = 520;
var viewHeight = 187;
var sectionId = 'dynsection-0';
</script>
<script type="application/ecmascript" xlink:href="../../svg.min.js"/>
<svg id="graph" class="graph">
<g id="viewport">
<title>Terraria.IO.WorldFile.LoadWorld_LastMinuteFixes</title>
<!-- Node1 -->
<g id="Node000001" class="node">
<title>Node1</title>
<g id="a_Node000001"><a xlink:title=" ">
<polygon fill="#999999" stroke="#666666" points="141,-80.5 0,-80.5 0,-50.5 141,-50.5 141,-80.5"/>
<text text-anchor="start" x="8" y="-68.5" font-family="Helvetica,sans-Serif" font-size="10.00">Terraria.IO.WorldFile.Load</text>
<text text-anchor="middle" x="70.5" y="-57.5" font-family="Helvetica,sans-Serif" font-size="10.00">World_LastMinuteFixes</text>
</a>
</g>
</g>
<!-- Node2 -->
<g id="Node000002" class="node">
<title>Node2</title>
<g id="a_Node000002"><a xlink:href="../../d7/d54/classTerraria_1_1IO_1_1WorldFile_a2e058bf0e630f9c0a24c245c87080541.html#a2e058bf0e630f9c0a24c245c87080541" target="_top" xlink:title=" ">
<polygon fill="white" stroke="#666666" points="333,-104.5 177,-104.5 177,-74.5 333,-74.5 333,-104.5"/>
<text text-anchor="start" x="185" y="-92.5" font-family="Helvetica,sans-Serif" font-size="10.00">Terraria.IO.WorldFile.Convert</text>
<text text-anchor="middle" x="255" y="-81.5" font-family="Helvetica,sans-Serif" font-size="10.00">IlluminantPaintToNewField</text>
</a>
</g>
</g>
<!-- Node1&#45;&gt;Node2 -->
<g id="edge1_Node000001_Node000002" class="edge">
<title>Node1&#45;&gt;Node2</title>
<g id="a_edge1_Node000001_Node000002"><a xlink:title=" ">
<path fill="none" stroke="#63b8ff" d="M141.02,-74.64C149.41,-75.75 158.07,-76.89 166.69,-78.02"/>
<polygon fill="#63b8ff" stroke="#63b8ff" points="166.39,-81.51 176.76,-79.34 167.3,-74.57 166.39,-81.51"/>
</a>
</g>
</g>
<!-- Node8 -->
<g id="Node000008" class="node">
<title>Node8</title>
<g id="a_Node000008"><a xlink:href="../../d7/d54/classTerraria_1_1IO_1_1WorldFile_a3a8000d5c611e2bda78d11d738c65c4a.html#a3a8000d5c611e2bda78d11d738c65c4a" target="_top" xlink:title=" ">
<polygon fill="white" stroke="#666666" points="321,-56.5 189,-56.5 189,-26.5 321,-26.5 321,-56.5"/>
<text text-anchor="start" x="197" y="-44.5" font-family="Helvetica,sans-Serif" font-size="10.00">Terraria.IO.WorldFile.Fix</text>
<text text-anchor="middle" x="255" y="-33.5" font-family="Helvetica,sans-Serif" font-size="10.00">AgainstExploits</text>
</a>
</g>
</g>
<!-- Node1&#45;&gt;Node8 -->
<g id="edge7_Node000001_Node000008" class="edge">
<title>Node1&#45;&gt;Node8</title>
<g id="a_edge7_Node000001_Node000008"><a xlink:title=" ">
<path fill="none" stroke="#63b8ff" d="M141.02,-56.36C153.42,-54.73 166.38,-53.02 178.93,-51.37"/>
<polygon fill="#63b8ff" stroke="#63b8ff" points="179.42,-54.84 188.88,-50.06 178.51,-47.9 179.42,-54.84"/>
</a>
</g>
</g>
<!-- Node3 -->
<g id="Node000003" class="node">
<title>Node3</title>
<g id="a_Node000003"><a xlink:href="../../d6/d21/structTerraria_1_1Tile_a9a3f37926e6d7f23ba057d6c0aeab1a5.html#a9a3f37926e6d7f23ba057d6c0aeab1a5" target="_top" xlink:title="Legacy code, use P:Terraria.Tile.HasTile instead.">
<polygon fill="white" stroke="#666666" points="494,-179 387,-179 387,-160 494,-160 494,-179"/>
<text text-anchor="middle" x="440.5" y="-167" font-family="Helvetica,sans-Serif" font-size="10.00">Terraria.Tile.active</text>
</a>
</g>
</g>
<!-- Node2&#45;&gt;Node3 -->
<g id="edge2_Node000002_Node000003" class="edge">
<title>Node2&#45;&gt;Node3</title>
<g id="a_edge2_Node000002_Node000003"><a xlink:title=" ">
<path fill="none" stroke="#63b8ff" d="M279.39,-104.62C301.67,-118.47 336.53,-138.68 369,-151.5 374.14,-153.53 379.58,-155.39 385.07,-157.08"/>
<polygon fill="#63b8ff" stroke="#63b8ff" points="384.38,-160.52 394.96,-159.94 386.32,-153.8 384.38,-160.52"/>
</a>
</g>
</g>
<!-- Node4 -->
<g id="Node000004" class="node">
<title>Node4</title>
<g id="a_Node000004"><a xlink:href="../../d6/d21/structTerraria_1_1Tile_a083f90a80ef987726fd28c52ffc4787e.html#a083f90a80ef987726fd28c52ffc4787e" target="_top" xlink:title="Legacy code, use P:Terraria.Tile.TileColor instead.">
<polygon fill="white" stroke="#666666" points="491,-142 390,-142 390,-123 491,-123 491,-142"/>
<text text-anchor="middle" x="440.5" y="-130" font-family="Helvetica,sans-Serif" font-size="10.00">Terraria.Tile.color</text>
</a>
</g>
</g>
<!-- Node2&#45;&gt;Node4 -->
<g id="edge3_Node000002_Node000004" class="edge">
<title>Node2&#45;&gt;Node4</title>
<g id="a_edge3_Node000002_Node000004"><a xlink:title=" ">
<path fill="none" stroke="#63b8ff" d="M320.18,-104.54C342.75,-109.83 367.78,-115.69 389.06,-120.68"/>
<polygon fill="#63b8ff" stroke="#63b8ff" points="388.33,-124.1 398.86,-122.98 389.93,-117.29 388.33,-124.1"/>
</a>
</g>
</g>
<!-- Node5 -->
<g id="Node000005" class="node">
<title>Node5</title>
<g id="a_Node000005"><a xlink:href="../../d6/d21/structTerraria_1_1Tile_a7069a642e4d55277c18a0aceef49a635.html#a7069a642e4d55277c18a0aceef49a635" target="_top" xlink:title="Legacy code, use P:Terraria.Tile.IsTileFullbright instead.">
<polygon fill="white" stroke="#666666" points="501.5,-104.5 379.5,-104.5 379.5,-74.5 501.5,-74.5 501.5,-104.5"/>
<text text-anchor="start" x="387.5" y="-92.5" font-family="Helvetica,sans-Serif" font-size="10.00">Terraria.Tile.fullbright</text>
<text text-anchor="middle" x="440.5" y="-81.5" font-family="Helvetica,sans-Serif" font-size="10.00">Block</text>
</a>
</g>
</g>
<!-- Node2&#45;&gt;Node5 -->
<g id="edge4_Node000002_Node000005" class="edge">
<title>Node2&#45;&gt;Node5</title>
<g id="a_edge4_Node000002_Node000005"><a xlink:title=" ">
<path fill="none" stroke="#63b8ff" d="M333.02,-89.5C345.01,-89.5 357.34,-89.5 369.17,-89.5"/>
<polygon fill="#63b8ff" stroke="#63b8ff" points="369.41,-93 379.41,-89.5 369.41,-86 369.41,-93"/>
</a>
</g>
</g>
<!-- Node6 -->
<g id="Node000006" class="node">
<title>Node6</title>
<g id="a_Node000006"><a xlink:href="../../d6/d21/structTerraria_1_1Tile_a3b7bd5420f76606332e38630dd2d406f.html#a3b7bd5420f76606332e38630dd2d406f" target="_top" xlink:title="Legacy code, use P:Terraria.Tile.IsWallFullbright instead.">
<polygon fill="white" stroke="#666666" points="512,-56 369,-56 369,-37 512,-37 512,-56"/>
<text text-anchor="middle" x="440.5" y="-44" font-family="Helvetica,sans-Serif" font-size="10.00">Terraria.Tile.fullbrightWall</text>
</a>
</g>
</g>
<!-- Node2&#45;&gt;Node6 -->
<g id="edge5_Node000002_Node000006" class="edge">
<title>Node2&#45;&gt;Node6</title>
<g id="a_edge5_Node000002_Node000006"><a xlink:title=" ">
<path fill="none" stroke="#63b8ff" d="M320.18,-74.46C342.75,-69.17 367.78,-63.31 389.06,-58.32"/>
<polygon fill="#63b8ff" stroke="#63b8ff" points="389.93,-61.71 398.86,-56.02 388.33,-54.9 389.93,-61.71"/>
</a>
</g>
</g>
<!-- Node7 -->
<g id="Node000007" class="node">
<title>Node7</title>
<g id="a_Node000007"><a xlink:href="../../d6/d21/structTerraria_1_1Tile_ae29f1e935710d0c9f5e325f873709719.html#ae29f1e935710d0c9f5e325f873709719" target="_top" xlink:title="Legacy code, use P:Terraria.Tile.WallColor instead.">
<polygon fill="white" stroke="#666666" points="502,-19 379,-19 379,0 502,0 502,-19"/>
<text text-anchor="middle" x="440.5" y="-7" font-family="Helvetica,sans-Serif" font-size="10.00">Terraria.Tile.wallColor</text>
</a>
</g>
</g>
<!-- Node2&#45;&gt;Node7 -->
<g id="edge6_Node000002_Node000007" class="edge">
<title>Node2&#45;&gt;Node7</title>
<g id="a_edge6_Node000002_Node000007"><a xlink:title=" ">
<path fill="none" stroke="#63b8ff" d="M315.4,-74.42C321.55,-71.86 327.53,-68.91 333,-65.5 352.74,-53.2 348.94,-39.29 369,-27.5 371.98,-25.75 375.12,-24.17 378.36,-22.74"/>
<polygon fill="#63b8ff" stroke="#63b8ff" points="379.65,-26 387.7,-19.11 377.11,-19.47 379.65,-26"/>
</a>
</g>
</g>
</g>
</svg>

<g id="navigator" transform="translate(0 0)" fill="#404254">
  <rect fill="#f2f5e9" fill-opacity="0.5" stroke="#606060" stroke-width=".5" x="0" y="0" width="60" height="60"/>
  <use id="zoomplus" xlink:href="#zoomPlus" x="17" y="9" onmousedown="handleZoom(evt,'in')"/>
  <use id="zoomminus" xlink:href="#zoomMin" x="42" y="9" onmousedown="handleZoom(evt,'out')"/>
  <use id="reset" xlink:href="#resetDef" x="30" y="36" onmousedown="handleReset()"/>
   <use id="arrowup" xlink:href="#arrowUp" x="0" y="0" onmousedown="handlePan(0,-1)"/>
  <use id="arrowright" xlink:href="#arrowRight" x="0" y="0" onmousedown="handlePan(1,0)"/>
  <use id="arrowdown" xlink:href="#arrowDown" x="0" y="0" onmousedown="handlePan(0,1)"/>
  <use id="arrowleft" xlink:href="#arrowLeft" x="0" y="0" onmousedown="handlePan(-1,0)"/>
</g>
<svg viewBox="0 0 15 15" width="100%" height="30px" preserveAspectRatio="xMaxYMin meet">
 <g id="arrow_out" transform="scale(0.3 0.3)">
  <a xlink:href="classTerraria_1_1IO_1_1WorldFile_ae1c7bbfc69f0156369ef751126f585e9_ae1c7bbfc69f0156369ef751126f585e9_cgraph_org.svg" target="_base">
   <rect id="button" ry="5" rx="5" y="6" x="6" height="38" width="38"
        fill="#f2f5e9" fill-opacity="0.5" stroke="#606060" stroke-width="1.0"/>
   <path id="arrow"
     d="M 11.500037,31.436501 C 11.940474,20.09759 22.043105,11.32322 32.158766,21.979434 L 37.068811,17.246167 C 37.068811,17.246167 37.088388,32 37.088388,32 L 22.160133,31.978069 C 22.160133,31.978069 26.997745,27.140456 26.997745,27.140456 C 18.528582,18.264221 13.291696,25.230495 11.500037,31.436501 z"
     style="fill:#404040;"/>
  </a>
 </g>
</svg>

<style type='text/css'>
<![CDATA[
[data-mouse-over-selected='false'] { opacity: 0.7; }
[data-mouse-over-selected='true']  { opacity: 1.0; }
]]>
</style>
<script type="application/ecmascript"><![CDATA[
document.addEventListener('DOMContentLoaded', (event) => {
  highlightEdges();
  highlightAdjacentNodes();
});
]]></script>
</svg>
