<?xml version="1.0" encoding="UTF-8" standalone="no"?>
<!DOCTYPE svg PUBLIC "-//W3C//DTD SVG 1.1//EN"
 "http://www.w3.org/Graphics/SVG/1.1/DTD/svg11.dtd">
<!-- Generated by graphviz version 2.43.0 (0)
 -->
<!-- Title: Terraria.Social.Steam.CoreSocialModule.PortFilesToCurrentStructure Pages: 1 -->
<!--zoomable 374 -->

<svg id="main" version="1.1" xmlns="http://www.w3.org/2000/svg" xmlns:xlink="http://www.w3.org/1999/xlink" xml:space="preserve" onload="init(evt)">
<style type="text/css"><![CDATA[
.node, .edge {opacity: 0.7;}
.node.selected, .edge.selected {opacity: 1;}
.edge:hover path { stroke: red; }
.edge:hover polygon { stroke: red; fill: red; }
]]></style>

<defs>
  <circle id="rim" cx="0" cy="0" r="7"/>
  <circle id="rim2" cx="0" cy="0" r="3.5"/>
  <g id="zoomPlus">
    <use xlink:href="#rim" fill="#404040"><set attributeName="fill" to="#808080" begin="zoomplus.mouseover" end="zoomplus.mouseout"/></use>
    <path d="M-4,0h8M0,-4v8" fill="none" stroke="white" stroke-width="1.5" pointer-events="none"/>
  </g>
  <g id="zoomMin">
    <use xlink:href="#rim" fill="#404040"><set attributeName="fill" to="#808080" begin="zoomminus.mouseover" end="zoomminus.mouseout"/></use>
    <path d="M-4,0h8" fill="none" stroke="white" stroke-width="1.5" pointer-events="none"/>
  </g>
  <g id="arrowUp" transform="translate(30 24)">
    <use xlink:href="#rim"/>
    <path pointer-events="none" fill="none" stroke="white" stroke-width="1.5" d="M0,-3.0v7 M-2.5,-0.5L0,-3.0L2.5,-0.5"/>
  </g>
  <g id="arrowRight" transform="rotate(90) translate(36 -43)">
    <use xlink:href="#rim"/>
    <path pointer-events="none" fill="none" stroke="white" stroke-width="1.5" d="M0,-3.0v7 M-2.5,-0.5L0,-3.0L2.5,-0.5"/>
  </g>
  <g id="arrowDown" transform="rotate(180) translate(-30 -48)">
    <use xlink:href="#rim"/>
    <path pointer-events="none" fill="none" stroke="white" stroke-width="1.5" d="M0,-3.0v7 M-2.5,-0.5L0,-3.0L2.5,-0.5"/>
  </g>
  <g id="arrowLeft" transform="rotate(270) translate(-36 17)">
    <use xlink:href="#rim"/>
    <path pointer-events="none" fill="none" stroke="white" stroke-width="1.5" d="M0,-3.0v7 M-2.5,-0.5L0,-3.0L2.5,-0.5"/>
  </g>
  <g id="resetDef">
    <use xlink:href="#rim2" fill="#404040"><set attributeName="fill" to="#808080" begin="reset.mouseover" end="reset.mouseout"/></use>
  </g>
</defs>
<script type="application/ecmascript">
var viewWidth = 1399;
var viewHeight = 374;
var sectionId = 'dynsection-0';
</script>
<script type="application/ecmascript" xlink:href="../../svg.min.js"/>
<svg id="graph" class="graph">
<g id="viewport">
<title>Terraria.Social.Steam.CoreSocialModule.PortFilesToCurrentStructure</title>
<!-- Node1 -->
<g id="Node000001" class="node">
<title>Node1</title>
<g id="a_Node000001"><a xlink:title=" ">
<polygon fill="#999999" stroke="#666666" points="173,-177.5 0,-177.5 0,-136.5 173,-136.5 173,-177.5"/>
<text text-anchor="start" x="8" y="-165.5" font-family="Helvetica,sans-Serif" font-size="10.00">Terraria.Social.Steam.Core</text>
<text text-anchor="start" x="8" y="-154.5" font-family="Helvetica,sans-Serif" font-size="10.00">SocialModule.PortFilesToCurrent</text>
<text text-anchor="middle" x="86.5" y="-143.5" font-family="Helvetica,sans-Serif" font-size="10.00">Structure</text>
</a>
</g>
</g>
<!-- Node2 -->
<g id="Node000002" class="node">
<title>Node2</title>
<g id="a_Node000002"><a xlink:href="../../df/d71/classTerraria_1_1Social_1_1Steam_1_1CoreSocialModule_af7be6d82303b2d238152e553569bc065.html#af7be6d82303b2d238152e553569bc065" target="_top" xlink:title=" ">
<polygon fill="white" stroke="#666666" points="1190,-366 995,-366 995,-336 1190,-336 1190,-366"/>
<text text-anchor="start" x="1003" y="-354" font-family="Helvetica,sans-Serif" font-size="10.00">Terraria.Social.Steam.Core</text>
<text text-anchor="middle" x="1092.5" y="-343" font-family="Helvetica,sans-Serif" font-size="10.00">SocialModule.GetCloudSaveLocation</text>
</a>
</g>
</g>
<!-- Node1&#45;&gt;Node2 -->
<g id="edge1_Node000001_Node000002" class="edge">
<title>Node1&#45;&gt;Node2</title>
<g id="a_edge1_Node000001_Node000002"><a xlink:title=" ">
<path fill="none" stroke="#63b8ff" d="M119.15,-177.79C182.68,-217.45 331.42,-300 469,-300 469,-300 469,-300 667,-300 784.1,-300 918.08,-319.37 1003.66,-334.23"/>
<polygon fill="#63b8ff" stroke="#63b8ff" points="1003.14,-337.69 1013.6,-335.97 1004.35,-330.8 1003.14,-337.69"/>
</a>
</g>
</g>
<!-- Node3 -->
<g id="Node000003" class="node">
<title>Node3</title>
<g id="a_Node000003"><a xlink:href="../../d9/daf/classTerraria_1_1Program_a2a024c74a9dfd363b587950ee9d6d3e2.html#a2a024c74a9dfd363b587950ee9d6d3e2" target="_top" xlink:title=" ">
<polygon fill="white" stroke="#666666" points="352,-124 209,-124 209,-94 352,-94 352,-124"/>
<text text-anchor="start" x="217" y="-112" font-family="Helvetica,sans-Serif" font-size="10.00">Terraria.Program.PortFiles</text>
<text text-anchor="middle" x="280.5" y="-101" font-family="Helvetica,sans-Serif" font-size="10.00">Master</text>
</a>
</g>
</g>
<!-- Node1&#45;&gt;Node3 -->
<g id="edge2_Node000001_Node000003" class="edge">
<title>Node1&#45;&gt;Node3</title>
<g id="a_edge2_Node000001_Node000003"><a xlink:title=" ">
<path fill="none" stroke="#63b8ff" d="M169.76,-136.43C183.06,-133.11 196.72,-129.69 209.69,-126.45"/>
<polygon fill="#63b8ff" stroke="#63b8ff" points="210.61,-129.83 219.46,-124.01 208.91,-123.04 210.61,-129.83"/>
</a>
</g>
</g>
<!-- Node4 -->
<g id="Node000004" class="node">
<title>Node4</title>
<g id="a_Node000004"><a xlink:href="../../d9/daf/classTerraria_1_1Program_a98598936bc8b2de6ac6a70887ad11798.html#a98598936bc8b2de6ac6a70887ad11798" target="_top" xlink:title=" ">
<polygon fill="white" stroke="#666666" points="552,-52 388,-52 388,-22 552,-22 552,-52"/>
<text text-anchor="start" x="396" y="-40" font-family="Helvetica,sans-Serif" font-size="10.00">Terraria.Program.PortCommon</text>
<text text-anchor="middle" x="470" y="-29" font-family="Helvetica,sans-Serif" font-size="10.00">FilesToStagingBranches</text>
</a>
</g>
</g>
<!-- Node3&#45;&gt;Node4 -->
<g id="edge3_Node000003_Node000004" class="edge">
<title>Node3&#45;&gt;Node4</title>
<g id="a_edge3_Node000003_Node000004"><a xlink:title=" ">
<path fill="none" stroke="#63b8ff" d="M312.26,-93.8C333.29,-83.74 361.96,-70.68 388,-61 393.46,-58.97 399.18,-56.99 404.94,-55.1"/>
<polygon fill="#63b8ff" stroke="#63b8ff" points="406.18,-58.38 414.64,-52 404.05,-51.71 406.18,-58.38"/>
</a>
</g>
</g>
<!-- Node5 -->
<g id="Node000005" class="node">
<title>Node5</title>
<g id="a_Node000005"><a xlink:href="../../d9/daf/classTerraria_1_1Program_a8b7dba2e2d3787ec0f5fb76babb0edd4.html#a8b7dba2e2d3787ec0f5fb76babb0edd4" target="_top" xlink:title="Super Save Path is the parent directory containing both folders. Usually Program.SavePath or Steam Cl...">
<polygon fill="white" stroke="#666666" points="541.5,-148 398.5,-148 398.5,-118 541.5,-118 541.5,-148"/>
<text text-anchor="start" x="406.5" y="-136" font-family="Helvetica,sans-Serif" font-size="10.00">Terraria.Program.PortFiles</text>
<text text-anchor="middle" x="470" y="-125" font-family="Helvetica,sans-Serif" font-size="10.00">FromXtoY</text>
</a>
</g>
</g>
<!-- Node3&#45;&gt;Node5 -->
<g id="edge4_Node000003_Node000005" class="edge">
<title>Node3&#45;&gt;Node5</title>
<g id="a_edge4_Node000003_Node000005"><a xlink:title=" ">
<path fill="none" stroke="#63b8ff" d="M352.12,-118.04C363.96,-119.55 376.33,-121.14 388.39,-122.68"/>
<polygon fill="#63b8ff" stroke="#63b8ff" points="388.08,-126.17 398.45,-123.97 388.97,-119.23 388.08,-126.17"/>
</a>
</g>
</g>
<!-- Node19 -->
<g id="Node000019" class="node">
<title>Node19</title>
<g id="a_Node000019"><a xlink:href="../../d9/daf/classTerraria_1_1Program_a241158af9f31f8e6f3c7e38fdff9beb4.html#a241158af9f31f8e6f3c7e38fdff9beb4" target="_top" xlink:title=" ">
<polygon fill="white" stroke="#666666" points="538.5,-100 401.5,-100 401.5,-70 538.5,-70 538.5,-100"/>
<text text-anchor="start" x="409.5" y="-88" font-family="Helvetica,sans-Serif" font-size="10.00">Terraria.Program.PortOld</text>
<text text-anchor="middle" x="470" y="-77" font-family="Helvetica,sans-Serif" font-size="10.00">SaveDirectories</text>
</a>
</g>
</g>
<!-- Node3&#45;&gt;Node19 -->
<g id="edge21_Node000003_Node000019" class="edge">
<title>Node3&#45;&gt;Node19</title>
<g id="a_edge21_Node000003_Node000019"><a xlink:title=" ">
<path fill="none" stroke="#63b8ff" d="M352.12,-99.96C364.81,-98.34 378.12,-96.63 391.01,-94.98"/>
<polygon fill="#63b8ff" stroke="#63b8ff" points="391.76,-98.42 401.24,-93.67 390.87,-91.47 391.76,-98.42"/>
</a>
</g>
</g>
<!-- Node6 -->
<g id="Node000006" class="node">
<title>Node6</title>
<g id="a_Node000006"><a xlink:href="../../d7/de3/classTerraria_1_1Utilities_1_1FileUtilities_a282e0caff5db217a4c70e381cd74517d.html#a282e0caff5db217a4c70e381cd74517d" target="_top" xlink:title="Converts the full &#39;path&#39; to remove the base path component. Example: C://My Documents//Help Me I&#39;m Hu...">
<polygon fill="white" stroke="#666666" points="1170.5,-126 1014.5,-126 1014.5,-96 1170.5,-96 1170.5,-126"/>
<text text-anchor="start" x="1022.5" y="-114" font-family="Helvetica,sans-Serif" font-size="10.00">Terraria.Utilities.FileUtilities.</text>
<text text-anchor="middle" x="1092.5" y="-103" font-family="Helvetica,sans-Serif" font-size="10.00">ConvertToRelativePath</text>
</a>
</g>
</g>
<!-- Node5&#45;&gt;Node6 -->
<g id="edge5_Node000005_Node000006" class="edge">
<title>Node5&#45;&gt;Node6</title>
<g id="a_edge5_Node000005_Node000006"><a xlink:title=" ">
<path fill="none" stroke="#63b8ff" d="M541.58,-130.5C655.58,-126.46 879.98,-118.5 1003.98,-114.1"/>
<polygon fill="#63b8ff" stroke="#63b8ff" points="1004.33,-117.59 1014.2,-113.74 1004.08,-110.6 1004.33,-117.59"/>
</a>
</g>
</g>
<!-- Node7 -->
<g id="Node000007" class="node">
<title>Node7</title>
<g id="a_Node000007"><a xlink:href="../../d7/de3/classTerraria_1_1Utilities_1_1FileUtilities_a576795e957a016079bd464d6589f510b.html#a576795e957a016079bd464d6589f510b" target="_top" xlink:title=" ">
<polygon fill="white" stroke="#666666" points="744,-169 588,-169 588,-139 744,-139 744,-169"/>
<text text-anchor="start" x="596" y="-157" font-family="Helvetica,sans-Serif" font-size="10.00">Terraria.Utilities.FileUtilities.</text>
<text text-anchor="middle" x="666" y="-146" font-family="Helvetica,sans-Serif" font-size="10.00">CopyFolderEXT</text>
</a>
</g>
</g>
<!-- Node5&#45;&gt;Node7 -->
<g id="edge6_Node000005_Node000007" class="edge">
<title>Node5&#45;&gt;Node7</title>
<g id="a_edge6_Node000005_Node000007"><a xlink:title=" ">
<path fill="none" stroke="#63b8ff" d="M541.59,-140.64C553.35,-141.91 565.68,-143.25 577.8,-144.56"/>
<polygon fill="#63b8ff" stroke="#63b8ff" points="577.59,-148.06 587.91,-145.66 578.35,-141.1 577.59,-148.06"/>
</a>
</g>
</g>
<!-- Node13 -->
<g id="Node000013" class="node">
<title>Node13</title>
<g id="a_Node000013"><a xlink:href="../../d1/d0a/classTerraria_1_1ModLoader_1_1Engine_1_1ErrorReporting_a574da73d6bc90ecf7de39c0dac0a9be9.html#a574da73d6bc90ecf7de39c0dac0a9be9" target="_top" xlink:title=" ">
<polygon fill="white" stroke="#666666" points="740.5,-78 591.5,-78 591.5,-48 740.5,-48 740.5,-78"/>
<text text-anchor="start" x="599.5" y="-66" font-family="Helvetica,sans-Serif" font-size="10.00">Terraria.ModLoader.Engine.</text>
<text text-anchor="middle" x="666" y="-55" font-family="Helvetica,sans-Serif" font-size="10.00">ErrorReporting.FatalExit</text>
</a>
</g>
</g>
<!-- Node5&#45;&gt;Node13 -->
<g id="edge15_Node000005_Node000013" class="edge">
<title>Node5&#45;&gt;Node13</title>
<g id="a_edge15_Node000005_Node000013"><a xlink:title=" ">
<path fill="none" stroke="#63b8ff" d="M524.4,-117.99C533.65,-115.16 543.14,-112.11 552,-109 574.95,-100.95 600.04,-90.87 620.74,-82.2"/>
<polygon fill="#63b8ff" stroke="#63b8ff" points="622.37,-85.31 630.22,-78.2 619.65,-78.86 622.37,-85.31"/>
</a>
</g>
</g>
<!-- Node7&#45;&gt;Node6 -->
<g id="edge7_Node000007_Node000006" class="edge">
<title>Node7&#45;&gt;Node6</title>
<g id="a_edge7_Node000007_Node000006"><a xlink:title=" ">
<path fill="none" stroke="#63b8ff" d="M744.17,-146.47C803.04,-140.69 886.15,-132.47 959,-125 973.58,-123.51 989.07,-121.89 1004.11,-120.31"/>
<polygon fill="#63b8ff" stroke="#63b8ff" points="1004.86,-123.75 1014.44,-119.22 1004.13,-116.79 1004.86,-123.75"/>
</a>
</g>
</g>
<!-- Node8 -->
<g id="Node000008" class="node">
<title>Node8</title>
<g id="a_Node000008"><a xlink:href="../../d7/de3/classTerraria_1_1Utilities_1_1FileUtilities_a56f6a88705b6a22da9cbbaa115fbb61f.html#a56f6a88705b6a22da9cbbaa115fbb61f" target="_top" xlink:title=" ">
<polygon fill="white" stroke="#666666" points="947.5,-222 791.5,-222 791.5,-192 947.5,-192 947.5,-222"/>
<text text-anchor="start" x="799.5" y="-210" font-family="Helvetica,sans-Serif" font-size="10.00">Terraria.Utilities.FileUtilities.</text>
<text text-anchor="middle" x="869.5" y="-199" font-family="Helvetica,sans-Serif" font-size="10.00">CopyExtended</text>
</a>
</g>
</g>
<!-- Node7&#45;&gt;Node8 -->
<g id="edge8_Node000007_Node000008" class="edge">
<title>Node7&#45;&gt;Node8</title>
<g id="a_edge8_Node000007_Node000008"><a xlink:title=" ">
<path fill="none" stroke="#63b8ff" d="M724.2,-169.05C748.24,-175.37 776.37,-182.77 801.38,-189.34"/>
<polygon fill="#63b8ff" stroke="#63b8ff" points="800.59,-192.76 811.15,-191.92 802.37,-185.99 800.59,-192.76"/>
</a>
</g>
</g>
<!-- Node8&#45;&gt;Node2 -->
<g id="edge11_Node000008_Node000002" class="edge">
<title>Node8&#45;&gt;Node2</title>
<g id="a_edge11_Node000008_Node000002"><a xlink:title=" ">
<path fill="none" stroke="#63b8ff" d="M888.71,-222.13C907.03,-237.59 935.79,-262.6 959,-286 976.08,-303.22 974.29,-314.39 995,-327 997.8,-328.71 1000.72,-330.29 1003.72,-331.76"/>
<polygon fill="#63b8ff" stroke="#63b8ff" points="1002.38,-335 1012.94,-335.85 1005.21,-328.6 1002.38,-335"/>
</a>
</g>
</g>
<!-- Node8&#45;&gt;Node6 -->
<g id="edge9_Node000008_Node000006" class="edge">
<title>Node8&#45;&gt;Node6</title>
<g id="a_edge9_Node000008_Node000006"><a xlink:title=" ">
<path fill="none" stroke="#63b8ff" d="M909.18,-191.86C925.14,-184.91 943.48,-176 959,-166 976.75,-154.56 976.25,-144.7 995,-135 998.75,-133.06 1002.67,-131.27 1006.68,-129.62"/>
<polygon fill="#63b8ff" stroke="#63b8ff" points="1008.08,-132.83 1016.2,-126.02 1005.61,-126.29 1008.08,-132.83"/>
</a>
</g>
</g>
<!-- Node9 -->
<g id="Node000009" class="node">
<title>Node9</title>
<g id="a_Node000009"><a xlink:href="../../d7/de3/classTerraria_1_1Utilities_1_1FileUtilities_ade3a9dde2ae90b3cd5531deaaacf5c71.html#ade3a9dde2ae90b3cd5531deaaacf5c71" target="_top" xlink:title="DEtermines if should overwrite the file at Destination with the file at Source.">
<polygon fill="white" stroke="#666666" points="1170.5,-270 1014.5,-270 1014.5,-240 1170.5,-240 1170.5,-270"/>
<text text-anchor="start" x="1022.5" y="-258" font-family="Helvetica,sans-Serif" font-size="10.00">Terraria.Utilities.FileUtilities.</text>
<text text-anchor="middle" x="1092.5" y="-247" font-family="Helvetica,sans-Serif" font-size="10.00">DetermineIfShouldOverwrite</text>
</a>
</g>
</g>
<!-- Node8&#45;&gt;Node9 -->
<g id="edge10_Node000008_Node000009" class="edge">
<title>Node8&#45;&gt;Node9</title>
<g id="a_edge10_Node000008_Node000009"><a xlink:title=" ">
<path fill="none" stroke="#63b8ff" d="M939.82,-222.06C962.86,-227.06 988.68,-232.67 1012.4,-237.82"/>
<polygon fill="#63b8ff" stroke="#63b8ff" points="1011.91,-241.3 1022.43,-240 1013.4,-234.45 1011.91,-241.3"/>
</a>
</g>
</g>
<!-- Node10 -->
<g id="Node000010" class="node">
<title>Node10</title>
<g id="a_Node000010"><a xlink:href="../../dd/d0d/classTerraria_1_1Social_1_1Steam_1_1CloudSocialModule_ae099ea2f6cd2a6e7ea8b34d57cd95e8f.html#ae099ea2f6cd2a6e7ea8b34d57cd95e8f" target="_top" xlink:title=" ">
<polygon fill="white" stroke="#666666" points="1168,-222 1017,-222 1017,-192 1168,-192 1168,-222"/>
<text text-anchor="start" x="1025" y="-210" font-family="Helvetica,sans-Serif" font-size="10.00">Terraria.Social.Steam.Cloud</text>
<text text-anchor="middle" x="1092.5" y="-199" font-family="Helvetica,sans-Serif" font-size="10.00">SocialModule.HasFile</text>
</a>
</g>
</g>
<!-- Node8&#45;&gt;Node10 -->
<g id="edge12_Node000008_Node000010" class="edge">
<title>Node8&#45;&gt;Node10</title>
<g id="a_edge12_Node000008_Node000010"><a xlink:title=" ">
<path fill="none" stroke="#63b8ff" d="M947.8,-207C966.87,-207 987.41,-207 1006.82,-207"/>
<polygon fill="#63b8ff" stroke="#63b8ff" points="1006.85,-210.5 1016.85,-207 1006.85,-203.5 1006.85,-210.5"/>
</a>
</g>
</g>
<!-- Node11 -->
<g id="Node000011" class="node">
<title>Node11</title>
<g id="a_Node000011"><a xlink:href="../../dd/d0d/classTerraria_1_1Social_1_1Steam_1_1CloudSocialModule_acf1832cc26030f8b434e980943024087.html#acf1832cc26030f8b434e980943024087" target="_top" xlink:title=" ">
<polygon fill="white" stroke="#666666" points="1168,-174 1017,-174 1017,-144 1168,-144 1168,-174"/>
<text text-anchor="start" x="1025" y="-162" font-family="Helvetica,sans-Serif" font-size="10.00">Terraria.Social.Steam.Cloud</text>
<text text-anchor="middle" x="1092.5" y="-151" font-family="Helvetica,sans-Serif" font-size="10.00">SocialModule.Read</text>
</a>
</g>
</g>
<!-- Node8&#45;&gt;Node11 -->
<g id="edge13_Node000008_Node000011" class="edge">
<title>Node8&#45;&gt;Node11</title>
<g id="a_edge13_Node000008_Node000011"><a xlink:title=" ">
<path fill="none" stroke="#63b8ff" d="M939.82,-191.94C962.86,-186.94 988.68,-181.33 1012.4,-176.18"/>
<polygon fill="#63b8ff" stroke="#63b8ff" points="1013.4,-179.55 1022.43,-174 1011.91,-172.7 1013.4,-179.55"/>
</a>
</g>
</g>
<!-- Node12 -->
<g id="Node000012" class="node">
<title>Node12</title>
<g id="a_Node000012"><a xlink:href="../../dd/d0d/classTerraria_1_1Social_1_1Steam_1_1CloudSocialModule_a30b758bf7133c16435248913c0fcc5ab.html#a30b758bf7133c16435248913c0fcc5ab" target="_top" xlink:title=" ">
<polygon fill="white" stroke="#666666" points="1168,-318 1017,-318 1017,-288 1168,-288 1168,-318"/>
<text text-anchor="start" x="1025" y="-306" font-family="Helvetica,sans-Serif" font-size="10.00">Terraria.Social.Steam.Cloud</text>
<text text-anchor="middle" x="1092.5" y="-295" font-family="Helvetica,sans-Serif" font-size="10.00">SocialModule.Write</text>
</a>
</g>
</g>
<!-- Node8&#45;&gt;Node12 -->
<g id="edge14_Node000008_Node000012" class="edge">
<title>Node8&#45;&gt;Node12</title>
<g id="a_edge14_Node000008_Node000012"><a xlink:title=" ">
<path fill="none" stroke="#63b8ff" d="M892.47,-222.27C916.62,-238.42 957.03,-263.66 995,-279 1000.33,-281.15 1005.91,-283.16 1011.58,-285"/>
<polygon fill="#63b8ff" stroke="#63b8ff" points="1010.6,-288.36 1021.18,-287.98 1012.66,-281.68 1010.6,-288.36"/>
</a>
</g>
</g>
<!-- Node14 -->
<g id="Node000014" class="node">
<title>Node14</title>
<g id="a_Node000014"><a xlink:href="../../d1/d0a/classTerraria_1_1ModLoader_1_1Engine_1_1ErrorReporting_abb9f3a04bc7c754a30dcf9b345b4e8c2.html#abb9f3a04bc7c754a30dcf9b345b4e8c2" target="_top" xlink:title=" ">
<polygon fill="white" stroke="#666666" points="959,-78 780,-78 780,-48 959,-48 959,-78"/>
<text text-anchor="start" x="788" y="-66" font-family="Helvetica,sans-Serif" font-size="10.00">Terraria.ModLoader.Engine.</text>
<text text-anchor="middle" x="869.5" y="-55" font-family="Helvetica,sans-Serif" font-size="10.00">ErrorReporting.MessageBoxShow</text>
</a>
</g>
</g>
<!-- Node13&#45;&gt;Node14 -->
<g id="edge16_Node000013_Node000014" class="edge">
<title>Node13&#45;&gt;Node14</title>
<g id="a_edge16_Node000013_Node000014"><a xlink:title=" ">
<path fill="none" stroke="#63b8ff" d="M740.6,-63C750.03,-63 759.8,-63 769.55,-63"/>
<polygon fill="#63b8ff" stroke="#63b8ff" points="769.69,-66.5 779.69,-63 769.69,-59.5 769.69,-66.5"/>
</a>
</g>
</g>
<!-- Node17 -->
<g id="Node000017" class="node">
<title>Node17</title>
<g id="a_Node000017"><a xlink:href="../../dc/dff/classTerraria_1_1ModLoader_1_1Engine_1_1TerrariaSteamClient_a0607000b2e385186b021af70b9ab6c83.html#a0607000b2e385186b021af70b9ab6c83" target="_top" xlink:title=" ">
<polygon fill="white" stroke="#666666" points="951.5,-30 787.5,-30 787.5,0 951.5,0 951.5,-30"/>
<text text-anchor="start" x="795.5" y="-18" font-family="Helvetica,sans-Serif" font-size="10.00">Terraria.ModLoader.Engine.</text>
<text text-anchor="middle" x="869.5" y="-7" font-family="Helvetica,sans-Serif" font-size="10.00">TerrariaSteamClient.Shutdown</text>
</a>
</g>
</g>
<!-- Node13&#45;&gt;Node17 -->
<g id="edge19_Node000013_Node000017" class="edge">
<title>Node13&#45;&gt;Node17</title>
<g id="a_edge19_Node000013_Node000017"><a xlink:title=" ">
<path fill="none" stroke="#63b8ff" d="M730.2,-47.94C750.93,-43.01 774.13,-37.48 795.51,-32.39"/>
<polygon fill="#63b8ff" stroke="#63b8ff" points="796.6,-35.72 805.52,-30 794.98,-28.92 796.6,-35.72"/>
</a>
</g>
</g>
<!-- Node15 -->
<g id="Node000015" class="node">
<title>Node15</title>
<g id="a_Node000015"><a xlink:href="../../d4/d8f/classTerraria_1_1Localization_1_1Language_ae4636a4800b9ecbaa498954520462f78.html#ae4636a4800b9ecbaa498954520462f78" target="_top" xlink:title="Retrieves the text value for a specified localization key. The text returned will be for the currentl...">
<polygon fill="white" stroke="#666666" points="1176.5,-78 1008.5,-78 1008.5,-48 1176.5,-48 1176.5,-78"/>
<text text-anchor="start" x="1016.5" y="-66" font-family="Helvetica,sans-Serif" font-size="10.00">Terraria.Localization.Language.</text>
<text text-anchor="middle" x="1092.5" y="-55" font-family="Helvetica,sans-Serif" font-size="10.00">GetTextValue</text>
</a>
</g>
</g>
<!-- Node14&#45;&gt;Node15 -->
<g id="edge17_Node000014_Node000015" class="edge">
<title>Node14&#45;&gt;Node15</title>
<g id="a_edge17_Node000014_Node000015"><a xlink:title=" ">
<path fill="none" stroke="#63b8ff" d="M959.12,-63C971.91,-63 985.11,-63 997.99,-63"/>
<polygon fill="#63b8ff" stroke="#63b8ff" points="998.24,-66.5 1008.24,-63 998.24,-59.5 998.24,-66.5"/>
</a>
</g>
</g>
<!-- Node16 -->
<g id="Node000016" class="node">
<title>Node16</title>
<g id="a_Node000016"><a xlink:href="../../d8/d74/classTerraria_1_1Localization_1_1LanguageManager_a9f1901e50105d9873d2fdf8816e122de.html#a9f1901e50105d9873d2fdf8816e122de" target="_top" xlink:title=" ">
<polygon fill="white" stroke="#666666" points="1391,-78 1226,-78 1226,-48 1391,-48 1391,-78"/>
<text text-anchor="start" x="1234" y="-66" font-family="Helvetica,sans-Serif" font-size="10.00">Terraria.Localization.Language</text>
<text text-anchor="middle" x="1308.5" y="-55" font-family="Helvetica,sans-Serif" font-size="10.00">Manager.GetTextValue</text>
</a>
</g>
</g>
<!-- Node15&#45;&gt;Node16 -->
<g id="edge18_Node000015_Node000016" class="edge">
<title>Node15&#45;&gt;Node16</title>
<g id="a_edge18_Node000015_Node000016"><a xlink:title=" ">
<path fill="none" stroke="#63b8ff" d="M1176.54,-63C1189.34,-63 1202.61,-63 1215.59,-63"/>
<polygon fill="#63b8ff" stroke="#63b8ff" points="1215.91,-66.5 1225.91,-63 1215.91,-59.5 1215.91,-66.5"/>
</a>
</g>
</g>
<!-- Node18 -->
<g id="Node000018" class="node">
<title>Node18</title>
<g id="a_Node000018"><a xlink:href="../../dc/dff/classTerraria_1_1ModLoader_1_1Engine_1_1TerrariaSteamClient_a9850567ddf4ced75bb68b54b22b5b2e9.html#a9850567ddf4ced75bb68b54b22b5b2e9" target="_top" xlink:title=" ">
<polygon fill="white" stroke="#666666" points="1174,-30 1011,-30 1011,0 1174,0 1174,-30"/>
<text text-anchor="start" x="1019" y="-18" font-family="Helvetica,sans-Serif" font-size="10.00">Terraria.ModLoader.Engine.</text>
<text text-anchor="middle" x="1092.5" y="-7" font-family="Helvetica,sans-Serif" font-size="10.00">TerrariaSteamClient.SendCmd</text>
</a>
</g>
</g>
<!-- Node17&#45;&gt;Node18 -->
<g id="edge20_Node000017_Node000018" class="edge">
<title>Node17&#45;&gt;Node18</title>
<g id="a_edge20_Node000017_Node000018"><a xlink:title=" ">
<path fill="none" stroke="#63b8ff" d="M951.54,-15C967.55,-15 984.46,-15 1000.77,-15"/>
<polygon fill="#63b8ff" stroke="#63b8ff" points="1000.84,-18.5 1010.84,-15 1000.84,-11.5 1000.84,-18.5"/>
</a>
</g>
</g>
</g>
</svg>

<g id="navigator" transform="translate(0 0)" fill="#404254">
  <rect fill="#f2f5e9" fill-opacity="0.5" stroke="#606060" stroke-width=".5" x="0" y="0" width="60" height="60"/>
  <use id="zoomplus" xlink:href="#zoomPlus" x="17" y="9" onmousedown="handleZoom(evt,'in')"/>
  <use id="zoomminus" xlink:href="#zoomMin" x="42" y="9" onmousedown="handleZoom(evt,'out')"/>
  <use id="reset" xlink:href="#resetDef" x="30" y="36" onmousedown="handleReset()"/>
   <use id="arrowup" xlink:href="#arrowUp" x="0" y="0" onmousedown="handlePan(0,-1)"/>
  <use id="arrowright" xlink:href="#arrowRight" x="0" y="0" onmousedown="handlePan(1,0)"/>
  <use id="arrowdown" xlink:href="#arrowDown" x="0" y="0" onmousedown="handlePan(0,1)"/>
  <use id="arrowleft" xlink:href="#arrowLeft" x="0" y="0" onmousedown="handlePan(-1,0)"/>
</g>
<svg viewBox="0 0 15 15" width="100%" height="30px" preserveAspectRatio="xMaxYMin meet">
 <g id="arrow_out" transform="scale(0.3 0.3)">
  <a xlink:href="classTerraria_1_1Social_1_1Steam_1_1CoreSocialModule_a8417509961d8f616d57e38eec7c32289_a8417509961d8f616d57e38eec7c32289_cgraph_org.svg" target="_base">
   <rect id="button" ry="5" rx="5" y="6" x="6" height="38" width="38"
        fill="#f2f5e9" fill-opacity="0.5" stroke="#606060" stroke-width="1.0"/>
   <path id="arrow"
     d="M 11.500037,31.436501 C 11.940474,20.09759 22.043105,11.32322 32.158766,21.979434 L 37.068811,17.246167 C 37.068811,17.246167 37.088388,32 37.088388,32 L 22.160133,31.978069 C 22.160133,31.978069 26.997745,27.140456 26.997745,27.140456 C 18.528582,18.264221 13.291696,25.230495 11.500037,31.436501 z"
     style="fill:#404040;"/>
  </a>
 </g>
</svg>

<style type='text/css'>
<![CDATA[
[data-mouse-over-selected='false'] { opacity: 0.7; }
[data-mouse-over-selected='true']  { opacity: 1.0; }
]]>
</style>
<script type="application/ecmascript"><![CDATA[
document.addEventListener('DOMContentLoaded', (event) => {
  highlightEdges();
  highlightAdjacentNodes();
});
]]></script>
</svg>
