<?xml version="1.0" encoding="UTF-8" standalone="no"?>
<!DOCTYPE svg PUBLIC "-//W3C//DTD SVG 1.1//EN"
 "http://www.w3.org/Graphics/SVG/1.1/DTD/svg11.dtd">
<!-- Generated by graphviz version 2.43.0 (0)
 -->
<!-- Title: Terraria.Program.StartForceLoad Pages: 1 -->
<!--zoomable 172 -->

<svg id="main" version="1.1" xmlns="http://www.w3.org/2000/svg" xmlns:xlink="http://www.w3.org/1999/xlink" xml:space="preserve" onload="init(evt)">
<style type="text/css"><![CDATA[
.node, .edge {opacity: 0.7;}
.node.selected, .edge.selected {opacity: 1;}
.edge:hover path { stroke: red; }
.edge:hover polygon { stroke: red; fill: red; }
]]></style>

<defs>
  <circle id="rim" cx="0" cy="0" r="7"/>
  <circle id="rim2" cx="0" cy="0" r="3.5"/>
  <g id="zoomPlus">
    <use xlink:href="#rim" fill="#404040"><set attributeName="fill" to="#808080" begin="zoomplus.mouseover" end="zoomplus.mouseout"/></use>
    <path d="M-4,0h8M0,-4v8" fill="none" stroke="white" stroke-width="1.5" pointer-events="none"/>
  </g>
  <g id="zoomMin">
    <use xlink:href="#rim" fill="#404040"><set attributeName="fill" to="#808080" begin="zoomminus.mouseover" end="zoomminus.mouseout"/></use>
    <path d="M-4,0h8" fill="none" stroke="white" stroke-width="1.5" pointer-events="none"/>
  </g>
  <g id="arrowUp" transform="translate(30 24)">
    <use xlink:href="#rim"/>
    <path pointer-events="none" fill="none" stroke="white" stroke-width="1.5" d="M0,-3.0v7 M-2.5,-0.5L0,-3.0L2.5,-0.5"/>
  </g>
  <g id="arrowRight" transform="rotate(90) translate(36 -43)">
    <use xlink:href="#rim"/>
    <path pointer-events="none" fill="none" stroke="white" stroke-width="1.5" d="M0,-3.0v7 M-2.5,-0.5L0,-3.0L2.5,-0.5"/>
  </g>
  <g id="arrowDown" transform="rotate(180) translate(-30 -48)">
    <use xlink:href="#rim"/>
    <path pointer-events="none" fill="none" stroke="white" stroke-width="1.5" d="M0,-3.0v7 M-2.5,-0.5L0,-3.0L2.5,-0.5"/>
  </g>
  <g id="arrowLeft" transform="rotate(270) translate(-36 17)">
    <use xlink:href="#rim"/>
    <path pointer-events="none" fill="none" stroke="white" stroke-width="1.5" d="M0,-3.0v7 M-2.5,-0.5L0,-3.0L2.5,-0.5"/>
  </g>
  <g id="resetDef">
    <use xlink:href="#rim2" fill="#404040"><set attributeName="fill" to="#808080" begin="reset.mouseover" end="reset.mouseout"/></use>
  </g>
</defs>
<script type="application/ecmascript">
var viewWidth = 1141;
var viewHeight = 172;
var sectionId = 'dynsection-0';
</script>
<script type="application/ecmascript" xlink:href="../../svg.min.js"/>
<svg id="graph" class="graph">
<g id="viewport">
<title>Terraria.Program.StartForceLoad</title>
<!-- Node1 -->
<g id="Node000001" class="node">
<title>Node1</title>
<g id="a_Node000001"><a xlink:title=" ">
<polygon fill="#999999" stroke="#666666" points="173,-67.5 0,-67.5 0,-48.5 173,-48.5 173,-67.5"/>
<text text-anchor="middle" x="86.5" y="-55.5" font-family="Helvetica,sans-Serif" font-size="10.00">Terraria.Program.StartForceLoad</text>
</a>
</g>
</g>
<!-- Node2 -->
<g id="Node000002" class="node">
<title>Node2</title>
<g id="a_Node000002"><a xlink:href="../../d9/daf/classTerraria_1_1Program_ab1f00fc943e4f875f6b01b48a5244a03.html#ab1f00fc943e4f875f6b01b48a5244a03" target="_top" xlink:title=" ">
<polygon fill="white" stroke="#666666" points="359,-73 209,-73 209,-43 359,-43 359,-73"/>
<text text-anchor="start" x="217" y="-61" font-family="Helvetica,sans-Serif" font-size="10.00">Terraria.Program.ForceLoad</text>
<text text-anchor="middle" x="284" y="-50" font-family="Helvetica,sans-Serif" font-size="10.00">Thread</text>
</a>
</g>
</g>
<!-- Node1&#45;&gt;Node2 -->
<g id="edge1_Node000001_Node000002" class="edge">
<title>Node1&#45;&gt;Node2</title>
<g id="a_edge1_Node000001_Node000002"><a xlink:title=" ">
<path fill="none" stroke="#63b8ff" d="M173.25,-58C181.71,-58 190.29,-58 198.74,-58"/>
<polygon fill="#63b8ff" stroke="#63b8ff" points="198.95,-61.5 208.95,-58 198.95,-54.5 198.95,-61.5"/>
</a>
</g>
</g>
<!-- Node3 -->
<g id="Node000003" class="node">
<title>Node3</title>
<g id="a_Node000003"><a xlink:href="../../d9/daf/classTerraria_1_1Program_a1aefc12b0c587eaf571769eeac16310e.html#a1aefc12b0c587eaf571769eeac16310e" target="_top" xlink:title=" ">
<polygon fill="white" stroke="#666666" points="545,-73 395,-73 395,-43 545,-43 545,-73"/>
<text text-anchor="start" x="403" y="-61" font-family="Helvetica,sans-Serif" font-size="10.00">Terraria.Program.ForceLoad</text>
<text text-anchor="middle" x="470" y="-50" font-family="Helvetica,sans-Serif" font-size="10.00">Assembly</text>
</a>
</g>
</g>
<!-- Node2&#45;&gt;Node3 -->
<g id="edge2_Node000002_Node000003" class="edge">
<title>Node2&#45;&gt;Node3</title>
<g id="a_edge2_Node000002_Node000003"><a xlink:title=" ">
<path fill="none" stroke="#63b8ff" d="M359.04,-58C367.51,-58 376.19,-58 384.78,-58"/>
<polygon fill="#63b8ff" stroke="#63b8ff" points="384.81,-61.5 394.81,-58 384.81,-54.5 384.81,-61.5"/>
</a>
</g>
</g>
<!-- Node4 -->
<g id="Node000004" class="node">
<title>Node4</title>
<g id="a_Node000004"><a xlink:href="../../d9/daf/classTerraria_1_1Program_aef2643f0056c68b4b13c7b67d6c83698.html#aef2643f0056c68b4b13c7b67d6c83698" target="_top" xlink:title=" ">
<polygon fill="white" stroke="#666666" points="734.5,-116 582.5,-116 582.5,-86 734.5,-86 734.5,-116"/>
<text text-anchor="start" x="590.5" y="-104" font-family="Helvetica,sans-Serif" font-size="10.00">Terraria.Program.ForceJITOn</text>
<text text-anchor="middle" x="658.5" y="-93" font-family="Helvetica,sans-Serif" font-size="10.00">Assembly</text>
</a>
</g>
</g>
<!-- Node3&#45;&gt;Node4 -->
<g id="edge3_Node000003_Node000004" class="edge">
<title>Node3&#45;&gt;Node4</title>
<g id="a_edge3_Node000003_Node000004"><a xlink:title=" ">
<path fill="none" stroke="#63b8ff" d="M536.23,-73.04C551.14,-76.48 567.1,-80.16 582.38,-83.68"/>
<polygon fill="#63b8ff" stroke="#63b8ff" points="581.78,-87.13 592.31,-85.97 583.35,-80.31 581.78,-87.13"/>
</a>
</g>
</g>
<!-- Node6 -->
<g id="Node000006" class="node">
<title>Node6</title>
<g id="a_Node000006"><a xlink:href="../../d9/daf/classTerraria_1_1Program_affec4a38848fd281fdffc5b273da7f5a.html#affec4a38848fd281fdffc5b273da7f5a" target="_top" xlink:title=" ">
<polygon fill="white" stroke="#666666" points="1133,-112.5 960,-112.5 960,-93.5 1133,-93.5 1133,-112.5"/>
<text text-anchor="middle" x="1046.5" y="-100.5" font-family="Helvetica,sans-Serif" font-size="10.00">Terraria.Program.GetAllMethods</text>
</a>
</g>
</g>
<!-- Node3&#45;&gt;Node6 -->
<g id="edge8_Node000003_Node000006" class="edge">
<title>Node3&#45;&gt;Node6</title>
<g id="a_edge8_Node000003_Node000006"><a xlink:title=" ">
<path fill="none" stroke="#63b8ff" d="M545.08,-57.28C635.05,-57.29 791.25,-60.14 924,-77 948.96,-80.17 976.4,-85.85 998.87,-91.09"/>
<polygon fill="#63b8ff" stroke="#63b8ff" points="998.28,-94.55 1008.82,-93.46 999.91,-87.74 998.28,-94.55"/>
</a>
</g>
</g>
<!-- Node8 -->
<g id="Node000008" class="node">
<title>Node8</title>
<g id="a_Node000008"><a xlink:href="../../d9/daf/classTerraria_1_1Program_a4bc99547525d5529269a9b0755e80bf4.html#a4bc99547525d5529269a9b0755e80bf4" target="_top" xlink:title=" ">
<polygon fill="white" stroke="#666666" points="736,-30 581,-30 581,0 736,0 736,-30"/>
<text text-anchor="start" x="589" y="-18" font-family="Helvetica,sans-Serif" font-size="10.00">Terraria.Program.ForceStatic</text>
<text text-anchor="middle" x="658.5" y="-7" font-family="Helvetica,sans-Serif" font-size="10.00">Initializers</text>
</a>
</g>
</g>
<!-- Node3&#45;&gt;Node8 -->
<g id="edge7_Node000003_Node000008" class="edge">
<title>Node3&#45;&gt;Node8</title>
<g id="a_edge7_Node000003_Node000008"><a xlink:title=" ">
<path fill="none" stroke="#63b8ff" d="M536.23,-42.96C551.14,-39.52 567.1,-35.84 582.38,-32.32"/>
<polygon fill="#63b8ff" stroke="#63b8ff" points="583.35,-35.69 592.31,-30.03 581.78,-28.87 583.35,-35.69"/>
</a>
</g>
</g>
<!-- Node5 -->
<g id="Node000005" class="node">
<title>Node5</title>
<g id="a_Node000005"><a xlink:href="../../d9/daf/classTerraria_1_1Program_a3649cbc3c67e888e7a4e6bcb5aae0fd6.html#a3649cbc3c67e888e7a4e6bcb5aae0fd6" target="_top" xlink:title=" ">
<polygon fill="white" stroke="#666666" points="915,-164 781,-164 781,-134 915,-134 915,-164"/>
<text text-anchor="start" x="789" y="-152" font-family="Helvetica,sans-Serif" font-size="10.00">Terraria.Program.Collect</text>
<text text-anchor="middle" x="848" y="-141" font-family="Helvetica,sans-Serif" font-size="10.00">MethodsToJIT</text>
</a>
</g>
</g>
<!-- Node4&#45;&gt;Node5 -->
<g id="edge4_Node000004_Node000005" class="edge">
<title>Node4&#45;&gt;Node5</title>
<g id="a_edge4_Node000004_Node000005"><a xlink:title=" ">
<path fill="none" stroke="#63b8ff" d="M718.31,-116.06C737.42,-120.95 758.79,-126.42 778.54,-131.48"/>
<polygon fill="#63b8ff" stroke="#63b8ff" points="777.84,-134.91 788.4,-134 779.58,-128.13 777.84,-134.91"/>
</a>
</g>
</g>
<!-- Node7 -->
<g id="Node000007" class="node">
<title>Node7</title>
<g id="a_Node000007"><a xlink:href="../../d9/daf/classTerraria_1_1Program_a104df5933541486ea781bccdba7df8b5.html#a104df5933541486ea781bccdba7df8b5" target="_top" xlink:title=" ">
<polygon fill="white" stroke="#666666" points="924,-116 772,-116 772,-86 924,-86 924,-116"/>
<text text-anchor="start" x="780" y="-104" font-family="Helvetica,sans-Serif" font-size="10.00">Terraria.Program.ForceJITOn</text>
<text text-anchor="middle" x="848" y="-93" font-family="Helvetica,sans-Serif" font-size="10.00">Method</text>
</a>
</g>
</g>
<!-- Node4&#45;&gt;Node7 -->
<g id="edge6_Node000004_Node000007" class="edge">
<title>Node4&#45;&gt;Node7</title>
<g id="a_edge6_Node000004_Node000007"><a xlink:title=" ">
<path fill="none" stroke="#63b8ff" d="M734.68,-101C743.57,-101 752.68,-101 761.69,-101"/>
<polygon fill="#63b8ff" stroke="#63b8ff" points="761.8,-104.5 771.8,-101 761.8,-97.5 761.8,-104.5"/>
</a>
</g>
</g>
<!-- Node5&#45;&gt;Node6 -->
<g id="edge5_Node000005_Node000006" class="edge">
<title>Node5&#45;&gt;Node6</title>
<g id="a_edge5_Node000005_Node000006"><a xlink:title=" ">
<path fill="none" stroke="#63b8ff" d="M913.34,-133.94C939.8,-127.74 970.01,-120.67 994.86,-114.86"/>
<polygon fill="#63b8ff" stroke="#63b8ff" points="995.86,-118.22 1004.8,-112.53 994.26,-111.4 995.86,-118.22"/>
</a>
</g>
</g>
</g>
</svg>

<g id="navigator" transform="translate(0 0)" fill="#404254">
  <rect fill="#f2f5e9" fill-opacity="0.5" stroke="#606060" stroke-width=".5" x="0" y="0" width="60" height="60"/>
  <use id="zoomplus" xlink:href="#zoomPlus" x="17" y="9" onmousedown="handleZoom(evt,'in')"/>
  <use id="zoomminus" xlink:href="#zoomMin" x="42" y="9" onmousedown="handleZoom(evt,'out')"/>
  <use id="reset" xlink:href="#resetDef" x="30" y="36" onmousedown="handleReset()"/>
   <use id="arrowup" xlink:href="#arrowUp" x="0" y="0" onmousedown="handlePan(0,-1)"/>
  <use id="arrowright" xlink:href="#arrowRight" x="0" y="0" onmousedown="handlePan(1,0)"/>
  <use id="arrowdown" xlink:href="#arrowDown" x="0" y="0" onmousedown="handlePan(0,1)"/>
  <use id="arrowleft" xlink:href="#arrowLeft" x="0" y="0" onmousedown="handlePan(-1,0)"/>
</g>
<svg viewBox="0 0 15 15" width="100%" height="30px" preserveAspectRatio="xMaxYMin meet">
 <g id="arrow_out" transform="scale(0.3 0.3)">
  <a xlink:href="classTerraria_1_1Program_a92da8856bdcc2e29091f270181a9fbfe_a92da8856bdcc2e29091f270181a9fbfe_cgraph_org.svg" target="_base">
   <rect id="button" ry="5" rx="5" y="6" x="6" height="38" width="38"
        fill="#f2f5e9" fill-opacity="0.5" stroke="#606060" stroke-width="1.0"/>
   <path id="arrow"
     d="M 11.500037,31.436501 C 11.940474,20.09759 22.043105,11.32322 32.158766,21.979434 L 37.068811,17.246167 C 37.068811,17.246167 37.088388,32 37.088388,32 L 22.160133,31.978069 C 22.160133,31.978069 26.997745,27.140456 26.997745,27.140456 C 18.528582,18.264221 13.291696,25.230495 11.500037,31.436501 z"
     style="fill:#404040;"/>
  </a>
 </g>
</svg>

<style type='text/css'>
<![CDATA[
[data-mouse-over-selected='false'] { opacity: 0.7; }
[data-mouse-over-selected='true']  { opacity: 1.0; }
]]>
</style>
<script type="application/ecmascript"><![CDATA[
document.addEventListener('DOMContentLoaded', (event) => {
  highlightEdges();
  highlightAdjacentNodes();
});
]]></script>
</svg>
