<?xml version="1.0" encoding="UTF-8" standalone="no"?>
<!DOCTYPE svg PUBLIC "-//W3C//DTD SVG 1.1//EN"
 "http://www.w3.org/Graphics/SVG/1.1/DTD/svg11.dtd">
<!-- Generated by graphviz version 2.43.0 (0)
 -->
<!-- Title: Terraria.WorldSections.TileLoaded Pages: 1 -->
<!--zoomable 134 -->

<svg id="main" version="1.1" xmlns="http://www.w3.org/2000/svg" xmlns:xlink="http://www.w3.org/1999/xlink" xml:space="preserve" onload="init(evt)">
<style type="text/css"><![CDATA[
.node, .edge {opacity: 0.7;}
.node.selected, .edge.selected {opacity: 1;}
.edge:hover path { stroke: red; }
.edge:hover polygon { stroke: red; fill: red; }
]]></style>

<defs>
  <circle id="rim" cx="0" cy="0" r="7"/>
  <circle id="rim2" cx="0" cy="0" r="3.5"/>
  <g id="zoomPlus">
    <use xlink:href="#rim" fill="#404040"><set attributeName="fill" to="#808080" begin="zoomplus.mouseover" end="zoomplus.mouseout"/></use>
    <path d="M-4,0h8M0,-4v8" fill="none" stroke="white" stroke-width="1.5" pointer-events="none"/>
  </g>
  <g id="zoomMin">
    <use xlink:href="#rim" fill="#404040"><set attributeName="fill" to="#808080" begin="zoomminus.mouseover" end="zoomminus.mouseout"/></use>
    <path d="M-4,0h8" fill="none" stroke="white" stroke-width="1.5" pointer-events="none"/>
  </g>
  <g id="arrowUp" transform="translate(30 24)">
    <use xlink:href="#rim"/>
    <path pointer-events="none" fill="none" stroke="white" stroke-width="1.5" d="M0,-3.0v7 M-2.5,-0.5L0,-3.0L2.5,-0.5"/>
  </g>
  <g id="arrowRight" transform="rotate(90) translate(36 -43)">
    <use xlink:href="#rim"/>
    <path pointer-events="none" fill="none" stroke="white" stroke-width="1.5" d="M0,-3.0v7 M-2.5,-0.5L0,-3.0L2.5,-0.5"/>
  </g>
  <g id="arrowDown" transform="rotate(180) translate(-30 -48)">
    <use xlink:href="#rim"/>
    <path pointer-events="none" fill="none" stroke="white" stroke-width="1.5" d="M0,-3.0v7 M-2.5,-0.5L0,-3.0L2.5,-0.5"/>
  </g>
  <g id="arrowLeft" transform="rotate(270) translate(-36 17)">
    <use xlink:href="#rim"/>
    <path pointer-events="none" fill="none" stroke="white" stroke-width="1.5" d="M0,-3.0v7 M-2.5,-0.5L0,-3.0L2.5,-0.5"/>
  </g>
  <g id="resetDef">
    <use xlink:href="#rim2" fill="#404040"><set attributeName="fill" to="#808080" begin="reset.mouseover" end="reset.mouseout"/></use>
  </g>
</defs>
<script type="application/ecmascript">
var viewWidth = 1004;
var viewHeight = 134;
var sectionId = 'dynsection-1';
</script>
<script type="application/ecmascript" xlink:href="../../svg.min.js"/>
<svg id="graph" class="graph">
<g id="viewport">
<title>Terraria.WorldSections.TileLoaded</title>
<!-- Node1 -->
<g id="Node000001" class="node">
<title>Node1</title>
<g id="a_Node000001"><a xlink:title=" ">
<polygon fill="#999999" stroke="#666666" points="996,-79 850,-79 850,-49 996,-49 996,-79"/>
<text text-anchor="start" x="858" y="-67" font-family="Helvetica,sans-Serif" font-size="10.00">Terraria.WorldSections.Tile</text>
<text text-anchor="middle" x="923" y="-56" font-family="Helvetica,sans-Serif" font-size="10.00">Loaded</text>
</a>
</g>
</g>
<!-- Node2 -->
<g id="Node000002" class="node">
<title>Node2</title>
<g id="a_Node000002"><a xlink:href="../../df/d0d/classTerraria_1_1NPC_a79f2070799ef3105848968d9312f4017.html#a79f2070799ef3105848968d9312f4017" target="_top" xlink:title=" ">
<polygon fill="white" stroke="#666666" points="800.5,-124 687.5,-124 687.5,-94 800.5,-94 800.5,-124"/>
<text text-anchor="start" x="695.5" y="-112" font-family="Helvetica,sans-Serif" font-size="10.00">Terraria.NPC.AI_007</text>
<text text-anchor="middle" x="744" y="-101" font-family="Helvetica,sans-Serif" font-size="10.00">_TownEntities</text>
</a>
</g>
</g>
<!-- Node1&#45;&gt;Node2 -->
<g id="edge1_Node000001_Node000002" class="edge">
<title>Node1&#45;&gt;Node2</title>
<g id="a_edge1_Node000001_Node000002"><a xlink:title=" ">
<path fill="none" stroke="#63b8ff" d="M852.57,-81.65C835.36,-86.03 817.14,-90.66 800.69,-94.84"/>
<polygon fill="#63b8ff" stroke="#63b8ff" points="853.74,-84.97 862.57,-79.11 852.02,-78.18 853.74,-84.97"/>
</a>
</g>
</g>
<!-- Node7 -->
<g id="Node000007" class="node">
<title>Node7</title>
<g id="a_Node000007"><a xlink:href="../../da/dd3/classTerraria_1_1Projectile_a4decd5f61fc00b54a872757322a269c9.html#a4decd5f61fc00b54a872757322a269c9" target="_top" xlink:title=" ">
<polygon fill="white" stroke="#666666" points="814,-36.5 674,-36.5 674,-17.5 814,-17.5 814,-36.5"/>
<text text-anchor="middle" x="744" y="-24.5" font-family="Helvetica,sans-Serif" font-size="10.00">Terraria.Projectile.Update</text>
</a>
</g>
</g>
<!-- Node1&#45;&gt;Node7 -->
<g id="edge6_Node000001_Node000007" class="edge">
<title>Node1&#45;&gt;Node7</title>
<g id="a_edge6_Node000001_Node000007"><a xlink:title=" ">
<path fill="none" stroke="#63b8ff" d="M840.04,-46.87C823.01,-43.31 805.66,-39.68 790.52,-36.52"/>
<polygon fill="#63b8ff" stroke="#63b8ff" points="839.5,-50.33 850.01,-48.95 840.94,-43.48 839.5,-50.33"/>
</a>
</g>
</g>
<!-- Node12 -->
<g id="Node000012" class="node">
<title>Node12</title>
<g id="a_Node000012"><a xlink:href="../../db/d79/classTerraria_1_1Item_a90963d13bd8bbdb8cc2edf7508f8d437.html#a90963d13bd8bbdb8cc2edf7508f8d437" target="_top" xlink:title=" ">
<polygon fill="white" stroke="#666666" points="814,-73.5 674,-73.5 674,-54.5 814,-54.5 814,-73.5"/>
<text text-anchor="middle" x="744" y="-61.5" font-family="Helvetica,sans-Serif" font-size="10.00">Terraria.Item.UpdateItem</text>
</a>
</g>
</g>
<!-- Node1&#45;&gt;Node12 -->
<g id="edge11_Node000001_Node000012" class="edge">
<title>Node1&#45;&gt;Node12</title>
<g id="a_edge11_Node000001_Node000012"><a xlink:title=" ">
<path fill="none" stroke="#63b8ff" d="M839.48,-64C831.01,-64 822.46,-64 814.16,-64"/>
<polygon fill="#63b8ff" stroke="#63b8ff" points="839.75,-67.5 849.75,-64 839.75,-60.5 839.75,-67.5"/>
</a>
</g>
</g>
<!-- Node3 -->
<g id="Node000003" class="node">
<title>Node3</title>
<g id="a_Node000003"><a xlink:href="../../df/d0d/classTerraria_1_1NPC_ac6f711000642c6df97f8302ffd18927f.html#ac6f711000642c6df97f8302ffd18927f" target="_top" xlink:title=" ">
<polygon fill="white" stroke="#666666" points="628.5,-126 506.5,-126 506.5,-96 628.5,-96 628.5,-126"/>
<text text-anchor="start" x="514.5" y="-114" font-family="Helvetica,sans-Serif" font-size="10.00">Terraria.NPC.VanillaAI</text>
<text text-anchor="middle" x="567.5" y="-103" font-family="Helvetica,sans-Serif" font-size="10.00">_Inner</text>
</a>
</g>
</g>
<!-- Node2&#45;&gt;Node3 -->
<g id="edge2_Node000002_Node000003" class="edge">
<title>Node2&#45;&gt;Node3</title>
<g id="a_edge2_Node000002_Node000003"><a xlink:title=" ">
<path fill="none" stroke="#63b8ff" d="M677.06,-109.76C661.21,-109.94 644.37,-110.13 628.79,-110.31"/>
<polygon fill="#63b8ff" stroke="#63b8ff" points="677.35,-113.25 687.31,-109.64 677.27,-106.25 677.35,-113.25"/>
</a>
</g>
</g>
<!-- Node4 -->
<g id="Node000004" class="node">
<title>Node4</title>
<g id="a_Node000004"><a xlink:href="../../df/d0d/classTerraria_1_1NPC_a86f20980341364904ef465f249f12f80.html#a86f20980341364904ef465f249f12f80" target="_top" xlink:title=" ">
<polygon fill="white" stroke="#666666" points="456,-120.5 334,-120.5 334,-101.5 456,-101.5 456,-120.5"/>
<text text-anchor="middle" x="395" y="-108.5" font-family="Helvetica,sans-Serif" font-size="10.00">Terraria.NPC.VanillaAI</text>
</a>
</g>
</g>
<!-- Node3&#45;&gt;Node4 -->
<g id="edge3_Node000003_Node000004" class="edge">
<title>Node3&#45;&gt;Node4</title>
<g id="a_edge3_Node000003_Node000004"><a xlink:title=" ">
<path fill="none" stroke="#63b8ff" d="M496.31,-111C482.98,-111 469.13,-111 456.14,-111"/>
<polygon fill="#63b8ff" stroke="#63b8ff" points="496.39,-114.5 506.39,-111 496.39,-107.5 496.39,-114.5"/>
</a>
</g>
</g>
<!-- Node5 -->
<g id="Node000005" class="node">
<title>Node5</title>
<g id="a_Node000005"><a xlink:href="../../dd/dc6/classTerraria_1_1ModLoader_1_1NPCLoader_a5075fa0ca2bdcf3208edfbcc6c567a74.html#a5075fa0ca2bdcf3208edfbcc6c567a74" target="_top" xlink:title=" ">
<polygon fill="white" stroke="#666666" points="293,-126 125,-126 125,-96 293,-96 293,-126"/>
<text text-anchor="start" x="133" y="-114" font-family="Helvetica,sans-Serif" font-size="10.00">Terraria.ModLoader.NPCLoader.</text>
<text text-anchor="middle" x="209" y="-103" font-family="Helvetica,sans-Serif" font-size="10.00">NPCAI</text>
</a>
</g>
</g>
<!-- Node4&#45;&gt;Node5 -->
<g id="edge4_Node000004_Node000005" class="edge">
<title>Node4&#45;&gt;Node5</title>
<g id="a_edge4_Node000004_Node000005"><a xlink:title=" ">
<path fill="none" stroke="#63b8ff" d="M323.53,-111C313.57,-111 303.26,-111 293.1,-111"/>
<polygon fill="#63b8ff" stroke="#63b8ff" points="323.75,-114.5 333.75,-111 323.75,-107.5 323.75,-114.5"/>
</a>
</g>
</g>
<!-- Node6 -->
<g id="Node000006" class="node">
<title>Node6</title>
<g id="a_Node000006"><a xlink:href="../../df/d0d/classTerraria_1_1NPC_af998ad2acbc8e9008e7d83aad42551f2.html#af998ad2acbc8e9008e7d83aad42551f2" target="_top" xlink:title=" ">
<polygon fill="white" stroke="#666666" points="89,-120.5 0,-120.5 0,-101.5 89,-101.5 89,-120.5"/>
<text text-anchor="middle" x="44.5" y="-108.5" font-family="Helvetica,sans-Serif" font-size="10.00">Terraria.NPC.AI</text>
</a>
</g>
</g>
<!-- Node5&#45;&gt;Node6 -->
<g id="edge5_Node000005_Node000006" class="edge">
<title>Node5&#45;&gt;Node6</title>
<g id="a_edge5_Node000005_Node000006"><a xlink:title=" ">
<path fill="none" stroke="#63b8ff" d="M114.76,-111C105.88,-111 97.2,-111 89.15,-111"/>
<polygon fill="#63b8ff" stroke="#63b8ff" points="114.85,-114.5 124.85,-111 114.85,-107.5 114.85,-114.5"/>
</a>
</g>
</g>
<!-- Node8 -->
<g id="Node000008" class="node">
<title>Node8</title>
<g id="a_Node000008"><a xlink:href="../../da/dd5/classTerraria_1_1Main_a39cdec3f201787a467045358bfcba377.html#a39cdec3f201787a467045358bfcba377" target="_top" xlink:title=" ">
<polygon fill="white" stroke="#666666" points="638,-78 497,-78 497,-48 638,-48 638,-78"/>
<text text-anchor="start" x="505" y="-66" font-family="Helvetica,sans-Serif" font-size="10.00">Terraria.Main.DoUpdateIn</text>
<text text-anchor="middle" x="567.5" y="-55" font-family="Helvetica,sans-Serif" font-size="10.00">World</text>
</a>
</g>
</g>
<!-- Node7&#45;&gt;Node8 -->
<g id="edge7_Node000007_Node000008" class="edge">
<title>Node7&#45;&gt;Node8</title>
<g id="a_edge7_Node000007_Node000008"><a xlink:title=" ">
<path fill="none" stroke="#63b8ff" d="M686.74,-38.61C671.23,-41.81 654.21,-45.32 638.04,-48.65"/>
<polygon fill="#63b8ff" stroke="#63b8ff" points="687.61,-42 696.7,-36.55 686.19,-35.15 687.61,-42"/>
</a>
</g>
</g>
<!-- Node11 -->
<g id="Node000011" class="node">
<title>Node11</title>
<g id="a_Node000011"><a xlink:href="../../da/dd5/classTerraria_1_1Main_abcc10939f535aab0d2eda1c69b42ea47.html#abcc10939f535aab0d2eda1c69b42ea47" target="_top" xlink:title=" ">
<polygon fill="white" stroke="#666666" points="638,-30 497,-30 497,0 638,0 638,-30"/>
<text text-anchor="start" x="505" y="-18" font-family="Helvetica,sans-Serif" font-size="10.00">Terraria.Main.DrawWallOf</text>
<text text-anchor="middle" x="567.5" y="-7" font-family="Helvetica,sans-Serif" font-size="10.00">Stars</text>
</a>
</g>
</g>
<!-- Node7&#45;&gt;Node11 -->
<g id="edge10_Node000007_Node000011" class="edge">
<title>Node7&#45;&gt;Node11</title>
<g id="a_edge10_Node000007_Node000011"><a xlink:title=" ">
<path fill="none" stroke="#63b8ff" d="M663.54,-21.54C655.09,-20.95 646.53,-20.37 638.21,-19.79"/>
<polygon fill="#63b8ff" stroke="#63b8ff" points="663.57,-25.05 673.78,-22.24 664.05,-18.06 663.57,-25.05"/>
</a>
</g>
</g>
<!-- Node9 -->
<g id="Node000009" class="node">
<title>Node9</title>
<g id="a_Node000009"><a xlink:href="../../da/dd5/classTerraria_1_1Main_a96341b8439a15bcefc0f119767e24e35.html#a96341b8439a15bcefc0f119767e24e35" target="_top" xlink:title=" ">
<polygon fill="white" stroke="#666666" points="461,-72.5 329,-72.5 329,-53.5 461,-53.5 461,-72.5"/>
<text text-anchor="middle" x="395" y="-60.5" font-family="Helvetica,sans-Serif" font-size="10.00">Terraria.Main.DoUpdate</text>
</a>
</g>
</g>
<!-- Node8&#45;&gt;Node9 -->
<g id="edge8_Node000008_Node000009" class="edge">
<title>Node8&#45;&gt;Node9</title>
<g id="a_edge8_Node000008_Node000009"><a xlink:title=" ">
<path fill="none" stroke="#63b8ff" d="M486.65,-63C478.08,-63 469.44,-63 461.07,-63"/>
<polygon fill="#63b8ff" stroke="#63b8ff" points="486.66,-66.5 496.66,-63 486.66,-59.5 486.66,-66.5"/>
</a>
</g>
</g>
<!-- Node10 -->
<g id="Node000010" class="node">
<title>Node10</title>
<g id="a_Node000010"><a xlink:href="../../da/dd5/classTerraria_1_1Main_a49776516aea1626e33c722fc8896a7de.html#a49776516aea1626e33c722fc8896a7de" target="_top" xlink:title=" ">
<polygon fill="white" stroke="#666666" points="268.5,-72.5 149.5,-72.5 149.5,-53.5 268.5,-53.5 268.5,-72.5"/>
<text text-anchor="middle" x="209" y="-60.5" font-family="Helvetica,sans-Serif" font-size="10.00">Terraria.Main.Update</text>
</a>
</g>
</g>
<!-- Node9&#45;&gt;Node10 -->
<g id="edge9_Node000009_Node000010" class="edge">
<title>Node9&#45;&gt;Node10</title>
<g id="a_edge9_Node000009_Node000010"><a xlink:title=" ">
<path fill="none" stroke="#63b8ff" d="M318.6,-63C301.93,-63 284.5,-63 268.6,-63"/>
<polygon fill="#63b8ff" stroke="#63b8ff" points="318.87,-66.5 328.87,-63 318.87,-59.5 318.87,-66.5"/>
</a>
</g>
</g>
<!-- Node12&#45;&gt;Node8 -->
<g id="edge12_Node000012_Node000008" class="edge">
<title>Node12&#45;&gt;Node8</title>
<g id="a_edge12_Node000012_Node000008"><a xlink:title=" ">
<path fill="none" stroke="#63b8ff" d="M663.54,-63.54C655.09,-63.5 646.53,-63.45 638.21,-63.4"/>
<polygon fill="#63b8ff" stroke="#63b8ff" points="663.76,-67.05 673.78,-63.6 663.8,-60.05 663.76,-67.05"/>
</a>
</g>
</g>
</g>
</svg>

<g id="navigator" transform="translate(0 0)" fill="#404254">
  <rect fill="#f2f5e9" fill-opacity="0.5" stroke="#606060" stroke-width=".5" x="0" y="0" width="60" height="60"/>
  <use id="zoomplus" xlink:href="#zoomPlus" x="17" y="9" onmousedown="handleZoom(evt,'in')"/>
  <use id="zoomminus" xlink:href="#zoomMin" x="42" y="9" onmousedown="handleZoom(evt,'out')"/>
  <use id="reset" xlink:href="#resetDef" x="30" y="36" onmousedown="handleReset()"/>
   <use id="arrowup" xlink:href="#arrowUp" x="0" y="0" onmousedown="handlePan(0,-1)"/>
  <use id="arrowright" xlink:href="#arrowRight" x="0" y="0" onmousedown="handlePan(1,0)"/>
  <use id="arrowdown" xlink:href="#arrowDown" x="0" y="0" onmousedown="handlePan(0,1)"/>
  <use id="arrowleft" xlink:href="#arrowLeft" x="0" y="0" onmousedown="handlePan(-1,0)"/>
</g>
<svg viewBox="0 0 15 15" width="100%" height="30px" preserveAspectRatio="xMaxYMin meet">
 <g id="arrow_out" transform="scale(0.3 0.3)">
  <a xlink:href="classTerraria_1_1WorldSections_a4c7d6ab85515db9899484cb38170e407_a4c7d6ab85515db9899484cb38170e407_icgraph_org.svg" target="_base">
   <rect id="button" ry="5" rx="5" y="6" x="6" height="38" width="38"
        fill="#f2f5e9" fill-opacity="0.5" stroke="#606060" stroke-width="1.0"/>
   <path id="arrow"
     d="M 11.500037,31.436501 C 11.940474,20.09759 22.043105,11.32322 32.158766,21.979434 L 37.068811,17.246167 C 37.068811,17.246167 37.088388,32 37.088388,32 L 22.160133,31.978069 C 22.160133,31.978069 26.997745,27.140456 26.997745,27.140456 C 18.528582,18.264221 13.291696,25.230495 11.500037,31.436501 z"
     style="fill:#404040;"/>
  </a>
 </g>
</svg>

<style type='text/css'>
<![CDATA[
[data-mouse-over-selected='false'] { opacity: 0.7; }
[data-mouse-over-selected='true']  { opacity: 1.0; }
]]>
</style>
<script type="application/ecmascript"><![CDATA[
document.addEventListener('DOMContentLoaded', (event) => {
  highlightEdges();
  highlightAdjacentNodes();
});
]]></script>
</svg>
