<?xml version="1.0" encoding="UTF-8" standalone="no"?>
<!DOCTYPE svg PUBLIC "-//W3C//DTD SVG 1.1//EN"
 "http://www.w3.org/Graphics/SVG/1.1/DTD/svg11.dtd">
<!-- Generated by graphviz version 2.43.0 (0)
 -->
<!-- Title: Terraria.GameInput.PlayerInput.SettingsForUI.SetCursorMode Pages: 1 -->
<!--zoomable 349 -->

<svg id="main" version="1.1" xmlns="http://www.w3.org/2000/svg" xmlns:xlink="http://www.w3.org/1999/xlink" xml:space="preserve" onload="init(evt)">
<style type="text/css"><![CDATA[
.node, .edge {opacity: 0.7;}
.node.selected, .edge.selected {opacity: 1;}
.edge:hover path { stroke: red; }
.edge:hover polygon { stroke: red; fill: red; }
]]></style>

<defs>
  <circle id="rim" cx="0" cy="0" r="7"/>
  <circle id="rim2" cx="0" cy="0" r="3.5"/>
  <g id="zoomPlus">
    <use xlink:href="#rim" fill="#404040"><set attributeName="fill" to="#808080" begin="zoomplus.mouseover" end="zoomplus.mouseout"/></use>
    <path d="M-4,0h8M0,-4v8" fill="none" stroke="white" stroke-width="1.5" pointer-events="none"/>
  </g>
  <g id="zoomMin">
    <use xlink:href="#rim" fill="#404040"><set attributeName="fill" to="#808080" begin="zoomminus.mouseover" end="zoomminus.mouseout"/></use>
    <path d="M-4,0h8" fill="none" stroke="white" stroke-width="1.5" pointer-events="none"/>
  </g>
  <g id="arrowUp" transform="translate(30 24)">
    <use xlink:href="#rim"/>
    <path pointer-events="none" fill="none" stroke="white" stroke-width="1.5" d="M0,-3.0v7 M-2.5,-0.5L0,-3.0L2.5,-0.5"/>
  </g>
  <g id="arrowRight" transform="rotate(90) translate(36 -43)">
    <use xlink:href="#rim"/>
    <path pointer-events="none" fill="none" stroke="white" stroke-width="1.5" d="M0,-3.0v7 M-2.5,-0.5L0,-3.0L2.5,-0.5"/>
  </g>
  <g id="arrowDown" transform="rotate(180) translate(-30 -48)">
    <use xlink:href="#rim"/>
    <path pointer-events="none" fill="none" stroke="white" stroke-width="1.5" d="M0,-3.0v7 M-2.5,-0.5L0,-3.0L2.5,-0.5"/>
  </g>
  <g id="arrowLeft" transform="rotate(270) translate(-36 17)">
    <use xlink:href="#rim"/>
    <path pointer-events="none" fill="none" stroke="white" stroke-width="1.5" d="M0,-3.0v7 M-2.5,-0.5L0,-3.0L2.5,-0.5"/>
  </g>
  <g id="resetDef">
    <use xlink:href="#rim2" fill="#404040"><set attributeName="fill" to="#808080" begin="reset.mouseover" end="reset.mouseout"/></use>
  </g>
</defs>
<script type="application/ecmascript">
var viewWidth = 1331;
var viewHeight = 349;
var sectionId = 'dynsection-0';
</script>
<script type="application/ecmascript" xlink:href="../../svg.min.js"/>
<svg id="graph" class="graph">
<g id="viewport">
<title>Terraria.GameInput.PlayerInput.SettingsForUI.SetCursorMode</title>
<!-- Node1 -->
<g id="Node000001" class="node">
<title>Node1</title>
<g id="a_Node000001"><a xlink:title=" ">
<polygon fill="#999999" stroke="#666666" points="1323,-199 1136,-199 1136,-169 1323,-169 1323,-199"/>
<text text-anchor="start" x="1144" y="-187" font-family="Helvetica,sans-Serif" font-size="10.00">Terraria.GameInput.Player</text>
<text text-anchor="middle" x="1229.5" y="-176" font-family="Helvetica,sans-Serif" font-size="10.00">Input.SettingsForUI.SetCursorMode</text>
</a>
</g>
</g>
<!-- Node2 -->
<g id="Node000002" class="node">
<title>Node2</title>
<g id="a_Node000002"><a xlink:href="../../d8/dd5/classTerraria_1_1GameInput_1_1TriggersSet_ab396699d3a13b11c74f5cec447c6a220.html#ab396699d3a13b11c74f5cec447c6a220" target="_top" xlink:title=" ">
<polygon fill="white" stroke="#666666" points="1089,-309 937,-309 937,-279 1089,-279 1089,-309"/>
<text text-anchor="start" x="945" y="-297" font-family="Helvetica,sans-Serif" font-size="10.00">Terraria.GameInput.Triggers</text>
<text text-anchor="middle" x="1013" y="-286" font-family="Helvetica,sans-Serif" font-size="10.00">Set.CopyInto</text>
</a>
</g>
</g>
<!-- Node1&#45;&gt;Node2 -->
<g id="edge1_Node000001_Node000002" class="edge">
<title>Node1&#45;&gt;Node2</title>
<g id="a_edge1_Node000001_Node000002"><a xlink:title=" ">
<path fill="none" stroke="#63b8ff" d="M1199.62,-205.01C1174.3,-222.73 1136,-247.88 1100,-265 1089.04,-270.21 1076.9,-274.91 1065.27,-278.93"/>
<polygon fill="#63b8ff" stroke="#63b8ff" points="1201.87,-207.71 1208.01,-199.08 1197.82,-201.99 1201.87,-207.71"/>
</a>
</g>
</g>
<!-- Node9 -->
<g id="Node000009" class="node">
<title>Node9</title>
<g id="a_Node000009"><a xlink:href="../../df/d5b/classTerraria_1_1GameInput_1_1PlayerInput_aafb9be14063cdf72a021fd4d002ebb6a.html#aafb9be14063cdf72a021fd4d002ebb6a" target="_top" xlink:title=" ">
<polygon fill="white" stroke="#666666" points="864.5,-225 720.5,-225 720.5,-195 864.5,-195 864.5,-225"/>
<text text-anchor="start" x="728.5" y="-213" font-family="Helvetica,sans-Serif" font-size="10.00">Terraria.GameInput.Player</text>
<text text-anchor="middle" x="792.5" y="-202" font-family="Helvetica,sans-Serif" font-size="10.00">Input.GamePadInput</text>
</a>
</g>
</g>
<!-- Node1&#45;&gt;Node9 -->
<g id="edge10_Node000001_Node000009" class="edge">
<title>Node1&#45;&gt;Node9</title>
<g id="a_edge10_Node000001_Node000009"><a xlink:title=" ">
<path fill="none" stroke="#63b8ff" d="M1188.27,-203.27C1163.46,-214.08 1130.62,-226.47 1100,-232 1020.07,-246.44 926.8,-235.92 864.34,-225.03"/>
<polygon fill="#63b8ff" stroke="#63b8ff" points="1189.99,-206.34 1197.71,-199.07 1187.15,-199.94 1189.99,-206.34"/>
</a>
</g>
</g>
<!-- Node12 -->
<g id="Node000012" class="node">
<title>Node12</title>
<g id="a_Node000012"><a xlink:href="../../df/d5b/classTerraria_1_1GameInput_1_1PlayerInput_aade3cfcc22b7e117034bf7d634204242.html#aade3cfcc22b7e117034bf7d634204242" target="_top" xlink:title=" ">
<polygon fill="white" stroke="#666666" points="1085,-223 941,-223 941,-193 1085,-193 1085,-223"/>
<text text-anchor="start" x="949" y="-211" font-family="Helvetica,sans-Serif" font-size="10.00">Terraria.GameInput.Player</text>
<text text-anchor="middle" x="1013" y="-200" font-family="Helvetica,sans-Serif" font-size="10.00">Input.HandleDpadSnap</text>
</a>
</g>
</g>
<!-- Node1&#45;&gt;Node12 -->
<g id="edge14_Node000001_Node000012" class="edge">
<title>Node1&#45;&gt;Node12</title>
<g id="a_edge14_Node000001_Node000012"><a xlink:title=" ">
<path fill="none" stroke="#63b8ff" d="M1125.97,-195.47C1112.18,-197.02 1098.28,-198.57 1085.2,-200.03"/>
<polygon fill="#63b8ff" stroke="#63b8ff" points="1126.43,-198.94 1135.98,-194.35 1125.65,-191.99 1126.43,-198.94"/>
</a>
</g>
</g>
<!-- Node13 -->
<g id="Node000013" class="node">
<title>Node13</title>
<g id="a_Node000013"><a xlink:href="../../d1/dd5/classTerraria_1_1Social_1_1Steam_1_1PlatformSocialModule_a11c39b5acb8fa5720af9b7298fa629f1.html#a11c39b5acb8fa5720af9b7298fa629f1" target="_top" xlink:title=" ">
<polygon fill="white" stroke="#666666" points="1095.5,-175 930.5,-175 930.5,-145 1095.5,-145 1095.5,-175"/>
<text text-anchor="start" x="938.5" y="-163" font-family="Helvetica,sans-Serif" font-size="10.00">Terraria.Social.Steam.Platform</text>
<text text-anchor="middle" x="1013" y="-152" font-family="Helvetica,sans-Serif" font-size="10.00">SocialModule.Initialize</text>
</a>
</g>
</g>
<!-- Node1&#45;&gt;Node13 -->
<g id="edge16_Node000001_Node000013" class="edge">
<title>Node1&#45;&gt;Node13</title>
<g id="a_edge16_Node000001_Node000013"><a xlink:title=" ">
<path fill="none" stroke="#63b8ff" d="M1125.9,-172.52C1115.78,-171.39 1105.62,-170.25 1095.76,-169.15"/>
<polygon fill="#63b8ff" stroke="#63b8ff" points="1125.65,-176.01 1135.98,-173.65 1126.43,-169.06 1125.65,-176.01"/>
</a>
</g>
</g>
<!-- Node14 -->
<g id="Node000014" class="node">
<title>Node14</title>
<g id="a_Node000014"><a xlink:href="../../df/d5b/classTerraria_1_1GameInput_1_1PlayerInput_a069d0527bd6061292e7cdc72e87e7e3a.html#a069d0527bd6061292e7cdc72e87e7e3a" target="_top" xlink:title=" ">
<polygon fill="white" stroke="#666666" points="1085,-127 941,-127 941,-97 1085,-97 1085,-127"/>
<text text-anchor="start" x="949" y="-115" font-family="Helvetica,sans-Serif" font-size="10.00">Terraria.GameInput.Player</text>
<text text-anchor="middle" x="1013" y="-104" font-family="Helvetica,sans-Serif" font-size="10.00">Input.MouseInput</text>
</a>
</g>
</g>
<!-- Node1&#45;&gt;Node14 -->
<g id="edge17_Node000001_Node000014" class="edge">
<title>Node1&#45;&gt;Node14</title>
<g id="a_edge17_Node000001_Node000014"><a xlink:title=" ">
<path fill="none" stroke="#63b8ff" d="M1181.22,-165.24C1157.09,-155.94 1127.17,-144.85 1100,-136 1090.57,-132.93 1080.48,-129.89 1070.64,-127.07"/>
<polygon fill="#63b8ff" stroke="#63b8ff" points="1180.26,-168.62 1190.85,-168.97 1182.79,-162.09 1180.26,-168.62"/>
</a>
</g>
</g>
<!-- Node15 -->
<g id="Node000015" class="node">
<title>Node15</title>
<g id="a_Node000015"><a xlink:href="../../d7/d52/classTerraria_1_1GameInput_1_1PlayerInput_1_1SettingsForUI_aecedc6e81df482cfe5c68b5f63636bce.html#aecedc6e81df482cfe5c68b5f63636bce" target="_top" xlink:title=" ">
<polygon fill="white" stroke="#666666" points="1100,-78.5 926,-78.5 926,-37.5 1100,-37.5 1100,-78.5"/>
<text text-anchor="start" x="934" y="-66.5" font-family="Helvetica,sans-Serif" font-size="10.00">Terraria.GameInput.Player</text>
<text text-anchor="start" x="934" y="-55.5" font-family="Helvetica,sans-Serif" font-size="10.00">Input.SettingsForUI.TryReverting</text>
<text text-anchor="middle" x="1013" y="-44.5" font-family="Helvetica,sans-Serif" font-size="10.00">ToMouseMode</text>
</a>
</g>
</g>
<!-- Node1&#45;&gt;Node15 -->
<g id="edge19_Node000001_Node000015" class="edge">
<title>Node1&#45;&gt;Node15</title>
<g id="a_edge19_Node000001_Node000015"><a xlink:title=" ">
<path fill="none" stroke="#63b8ff" d="M1203.98,-162.06C1179.21,-140.79 1139.1,-108.79 1100,-88 1093.58,-84.59 1086.69,-81.43 1079.7,-78.55"/>
<polygon fill="#63b8ff" stroke="#63b8ff" points="1201.93,-164.91 1211.78,-168.83 1206.52,-159.63 1201.93,-164.91"/>
</a>
</g>
</g>
<!-- Node3 -->
<g id="Node000003" class="node">
<title>Node3</title>
<g id="a_Node000003"><a xlink:href="../../d4/d03/classTerraria_1_1Player_a826b86138d7cf1b842c9beca79f97dce.html#a826b86138d7cf1b842c9beca79f97dce" target="_top" xlink:title=" ">
<polygon fill="white" stroke="#666666" points="851.5,-340.5 733.5,-340.5 733.5,-321.5 851.5,-321.5 851.5,-340.5"/>
<text text-anchor="middle" x="792.5" y="-328.5" font-family="Helvetica,sans-Serif" font-size="10.00">Terraria.Player.Ghost</text>
</a>
</g>
</g>
<!-- Node2&#45;&gt;Node3 -->
<g id="edge2_Node000002_Node000003" class="edge">
<title>Node2&#45;&gt;Node3</title>
<g id="a_edge2_Node000002_Node000003"><a xlink:title=" ">
<path fill="none" stroke="#63b8ff" d="M926.65,-308.45C900.87,-312.82 873.23,-317.5 849.85,-321.46"/>
<polygon fill="#63b8ff" stroke="#63b8ff" points="927.53,-311.85 936.8,-306.73 926.36,-304.95 927.53,-311.85"/>
</a>
</g>
</g>
<!-- Node4 -->
<g id="Node000004" class="node">
<title>Node4</title>
<g id="a_Node000004"><a xlink:href="../../d4/d03/classTerraria_1_1Player_af44290f5d38b6d5076a5fa8d6ee3dd12.html#af44290f5d38b6d5076a5fa8d6ee3dd12" target="_top" xlink:title=" ">
<polygon fill="white" stroke="#666666" points="648.5,-298.5 523.5,-298.5 523.5,-279.5 648.5,-279.5 648.5,-298.5"/>
<text text-anchor="middle" x="586" y="-286.5" font-family="Helvetica,sans-Serif" font-size="10.00">Terraria.Player.Update</text>
</a>
</g>
</g>
<!-- Node2&#45;&gt;Node4 -->
<g id="edge7_Node000002_Node000004" class="edge">
<title>Node2&#45;&gt;Node4</title>
<g id="a_edge7_Node000002_Node000004"><a xlink:title=" ">
<path fill="none" stroke="#63b8ff" d="M926.91,-293C844.57,-292.03 721.77,-290.59 648.51,-289.72"/>
<polygon fill="#63b8ff" stroke="#63b8ff" points="926.96,-296.5 937,-293.12 927.04,-289.5 926.96,-296.5"/>
</a>
</g>
</g>
<!-- Node8 -->
<g id="Node000008" class="node">
<title>Node8</title>
<g id="a_Node000008"><a xlink:href="../../d4/d03/classTerraria_1_1Player_ababcc3ecfeb4b1cb4f90ab98c2587f85.html#ababcc3ecfeb4b1cb4f90ab98c2587f85" target="_top" xlink:title=" ">
<polygon fill="white" stroke="#666666" points="867.5,-264.5 717.5,-264.5 717.5,-245.5 867.5,-245.5 867.5,-264.5"/>
<text text-anchor="middle" x="792.5" y="-252.5" font-family="Helvetica,sans-Serif" font-size="10.00">Terraria.Player.UpdateDead</text>
</a>
</g>
</g>
<!-- Node2&#45;&gt;Node8 -->
<g id="edge8_Node000002_Node000008" class="edge">
<title>Node2&#45;&gt;Node8</title>
<g id="a_edge8_Node000002_Node000008"><a xlink:title=" ">
<path fill="none" stroke="#63b8ff" d="M926.61,-278.76C899.7,-273.96 870.77,-268.79 846.78,-264.51"/>
<polygon fill="#63b8ff" stroke="#63b8ff" points="926.35,-282.27 936.8,-280.58 927.58,-275.38 926.35,-282.27"/>
</a>
</g>
</g>
<!-- Node3&#45;&gt;Node4 -->
<g id="edge3_Node000003_Node000004" class="edge">
<title>Node3&#45;&gt;Node4</title>
<g id="a_edge3_Node000003_Node000004"><a xlink:title=" ">
<path fill="none" stroke="#63b8ff" d="M735.02,-319.4C703.11,-312.85 663.7,-304.75 633.57,-298.57"/>
<polygon fill="#63b8ff" stroke="#63b8ff" points="734.6,-322.89 745.1,-321.47 736,-316.03 734.6,-322.89"/>
</a>
</g>
</g>
<!-- Node5 -->
<g id="Node000005" class="node">
<title>Node5</title>
<g id="a_Node000005"><a xlink:href="../../da/dd5/classTerraria_1_1Main_a39cdec3f201787a467045358bfcba377.html#a39cdec3f201787a467045358bfcba377" target="_top" xlink:title=" ">
<polygon fill="white" stroke="#666666" points="470.5,-296 329.5,-296 329.5,-266 470.5,-266 470.5,-296"/>
<text text-anchor="start" x="337.5" y="-284" font-family="Helvetica,sans-Serif" font-size="10.00">Terraria.Main.DoUpdateIn</text>
<text text-anchor="middle" x="400" y="-273" font-family="Helvetica,sans-Serif" font-size="10.00">World</text>
</a>
</g>
</g>
<!-- Node4&#45;&gt;Node5 -->
<g id="edge4_Node000004_Node000005" class="edge">
<title>Node4&#45;&gt;Node5</title>
<g id="a_edge4_Node000004_Node000005"><a xlink:title=" ">
<path fill="none" stroke="#63b8ff" d="M513.4,-285.89C499.38,-285.28 484.69,-284.64 470.72,-284.03"/>
<polygon fill="#63b8ff" stroke="#63b8ff" points="513.33,-289.39 523.47,-286.32 513.64,-282.39 513.33,-289.39"/>
</a>
</g>
</g>
<!-- Node6 -->
<g id="Node000006" class="node">
<title>Node6</title>
<g id="a_Node000006"><a xlink:href="../../da/dd5/classTerraria_1_1Main_a96341b8439a15bcefc0f119767e24e35.html#a96341b8439a15bcefc0f119767e24e35" target="_top" xlink:title=" ">
<polygon fill="white" stroke="#666666" points="287,-256.5 155,-256.5 155,-237.5 287,-237.5 287,-256.5"/>
<text text-anchor="middle" x="221" y="-244.5" font-family="Helvetica,sans-Serif" font-size="10.00">Terraria.Main.DoUpdate</text>
</a>
</g>
</g>
<!-- Node5&#45;&gt;Node6 -->
<g id="edge5_Node000005_Node000006" class="edge">
<title>Node5&#45;&gt;Node6</title>
<g id="a_edge5_Node000005_Node000006"><a xlink:title=" ">
<path fill="none" stroke="#63b8ff" d="M319.28,-265.69C303.08,-262.57 286.48,-259.39 271.69,-256.54"/>
<polygon fill="#63b8ff" stroke="#63b8ff" points="318.82,-269.16 329.3,-267.61 320.14,-262.29 318.82,-269.16"/>
</a>
</g>
</g>
<!-- Node7 -->
<g id="Node000007" class="node">
<title>Node7</title>
<g id="a_Node000007"><a xlink:href="../../da/dd5/classTerraria_1_1Main_a49776516aea1626e33c722fc8896a7de.html#a49776516aea1626e33c722fc8896a7de" target="_top" xlink:title=" ">
<polygon fill="white" stroke="#666666" points="119,-256.5 0,-256.5 0,-237.5 119,-237.5 119,-256.5"/>
<text text-anchor="middle" x="59.5" y="-244.5" font-family="Helvetica,sans-Serif" font-size="10.00">Terraria.Main.Update</text>
</a>
</g>
</g>
<!-- Node6&#45;&gt;Node7 -->
<g id="edge6_Node000006_Node000007" class="edge">
<title>Node6&#45;&gt;Node7</title>
<g id="a_edge6_Node000006_Node000007"><a xlink:title=" ">
<path fill="none" stroke="#63b8ff" d="M144.64,-247C136.06,-247 127.4,-247 119.08,-247"/>
<polygon fill="#63b8ff" stroke="#63b8ff" points="144.67,-250.5 154.67,-247 144.66,-243.5 144.67,-250.5"/>
</a>
</g>
</g>
<!-- Node8&#45;&gt;Node4 -->
<g id="edge9_Node000008_Node000004" class="edge">
<title>Node8&#45;&gt;Node4</title>
<g id="a_edge9_Node000008_Node000004"><a xlink:title=" ">
<path fill="none" stroke="#63b8ff" d="M724.16,-266.2C698.3,-270.5 669.05,-275.36 644.22,-279.49"/>
<polygon fill="#63b8ff" stroke="#63b8ff" points="724.97,-269.61 734.26,-264.52 723.82,-262.7 724.97,-269.61"/>
</a>
</g>
</g>
<!-- Node10 -->
<g id="Node000010" class="node">
<title>Node10</title>
<g id="a_Node000010"><a xlink:href="../../df/d5b/classTerraria_1_1GameInput_1_1PlayerInput_a703b237fcf08b8c7c2e2fe7b86c3e68a.html#a703b237fcf08b8c7c2e2fe7b86c3e68a" target="_top" xlink:title=" ">
<polygon fill="white" stroke="#666666" points="658,-225 514,-225 514,-195 658,-195 658,-225"/>
<text text-anchor="start" x="522" y="-213" font-family="Helvetica,sans-Serif" font-size="10.00">Terraria.GameInput.Player</text>
<text text-anchor="middle" x="586" y="-202" font-family="Helvetica,sans-Serif" font-size="10.00">Input.UpdateInput</text>
</a>
</g>
</g>
<!-- Node9&#45;&gt;Node10 -->
<g id="edge11_Node000009_Node000010" class="edge">
<title>Node9&#45;&gt;Node10</title>
<g id="a_edge11_Node000009_Node000010"><a xlink:title=" ">
<path fill="none" stroke="#63b8ff" d="M709.78,-210C692.76,-210 674.94,-210 658.33,-210"/>
<polygon fill="#63b8ff" stroke="#63b8ff" points="710.26,-213.5 720.26,-210 710.26,-206.5 710.26,-213.5"/>
</a>
</g>
</g>
<!-- Node11 -->
<g id="Node000011" class="node">
<title>Node11</title>
<g id="a_Node000011"><a xlink:href="../../da/dd5/classTerraria_1_1Main_a271f8e065b74a1881ccb9736667bed66.html#a271f8e065b74a1881ccb9736667bed66" target="_top" xlink:title=" ">
<polygon fill="white" stroke="#666666" points="466,-229 334,-229 334,-199 466,-199 466,-229"/>
<text text-anchor="start" x="342" y="-217" font-family="Helvetica,sans-Serif" font-size="10.00">Terraria.Main.DoUpdate</text>
<text text-anchor="middle" x="400" y="-206" font-family="Helvetica,sans-Serif" font-size="10.00">_HandleInput</text>
</a>
</g>
</g>
<!-- Node10&#45;&gt;Node11 -->
<g id="edge12_Node000010_Node000011" class="edge">
<title>Node10&#45;&gt;Node11</title>
<g id="a_edge12_Node000010_Node000011"><a xlink:title=" ">
<path fill="none" stroke="#63b8ff" d="M503.85,-211.76C491.26,-212.04 478.4,-212.32 466.23,-212.58"/>
<polygon fill="#63b8ff" stroke="#63b8ff" points="503.94,-215.26 513.86,-211.55 503.79,-208.26 503.94,-215.26"/>
</a>
</g>
</g>
<!-- Node11&#45;&gt;Node6 -->
<g id="edge13_Node000011_Node000006" class="edge">
<title>Node11&#45;&gt;Node6</title>
<g id="a_edge13_Node000011_Node000006"><a xlink:title=" ">
<path fill="none" stroke="#63b8ff" d="M323.88,-228.01C306.78,-231.19 289,-234.51 273.18,-237.46"/>
<polygon fill="#63b8ff" stroke="#63b8ff" points="324.66,-231.42 333.85,-226.15 323.37,-224.54 324.66,-231.42"/>
</a>
</g>
</g>
<!-- Node12&#45;&gt;Node9 -->
<g id="edge15_Node000012_Node000009" class="edge">
<title>Node12&#45;&gt;Node9</title>
<g id="a_edge15_Node000012_Node000009"><a xlink:title=" ">
<path fill="none" stroke="#63b8ff" d="M930.6,-208.75C908.94,-208.94 885.71,-209.16 864.65,-209.35"/>
<polygon fill="#63b8ff" stroke="#63b8ff" points="930.79,-212.24 940.76,-208.65 930.73,-205.24 930.79,-212.24"/>
</a>
</g>
</g>
<!-- Node14&#45;&gt;Node10 -->
<g id="edge18_Node000014_Node000010" class="edge">
<title>Node14&#45;&gt;Node10</title>
<g id="a_edge18_Node000014_Node000010"><a xlink:title=" ">
<path fill="none" stroke="#63b8ff" d="M936.42,-129.43C855.6,-148.06 728.78,-177.31 652.2,-194.97"/>
<polygon fill="#63b8ff" stroke="#63b8ff" points="937.57,-132.76 946.53,-127.1 935.99,-125.93 937.57,-132.76"/>
</a>
</g>
</g>
<!-- Node16 -->
<g id="Node000016" class="node">
<title>Node16</title>
<g id="a_Node000016"><a xlink:href="../../d4/d2e/classTerraria_1_1Initializers_1_1UILinksInitializer_a4d16d5519ca3e8ba0c66fb3408a7187f.html#a4d16d5519ca3e8ba0c66fb3408a7187f" target="_top" xlink:title=" ">
<polygon fill="white" stroke="#666666" points="890,-116 695,-116 695,-86 890,-86 890,-116"/>
<text text-anchor="start" x="703" y="-104" font-family="Helvetica,sans-Serif" font-size="10.00">Terraria.Initializers.UILinks</text>
<text text-anchor="middle" x="792.5" y="-93" font-family="Helvetica,sans-Serif" font-size="10.00">Initializer.FancyUISpecialInstructions</text>
</a>
</g>
</g>
<!-- Node15&#45;&gt;Node16 -->
<g id="edge20_Node000015_Node000016" class="edge">
<title>Node15&#45;&gt;Node16</title>
<g id="a_edge20_Node000015_Node000016"><a xlink:title=" ">
<path fill="none" stroke="#63b8ff" d="M915.9,-76.91C900.5,-79.94 884.75,-83.04 869.89,-85.97"/>
<polygon fill="#63b8ff" stroke="#63b8ff" points="916.82,-80.3 925.96,-74.93 915.47,-73.43 916.82,-80.3"/>
</a>
</g>
</g>
<!-- Node17 -->
<g id="Node000017" class="node">
<title>Node17</title>
<g id="a_Node000017"><a xlink:href="../../d4/d2e/classTerraria_1_1Initializers_1_1UILinksInitializer_abbf91771978c3de53d8e4d7c7e12df8c.html#abbf91771978c3de53d8e4d7c7e12df8c" target="_top" xlink:title=" ">
<polygon fill="white" stroke="#666666" points="659,-95 513,-95 513,-65 659,-65 659,-95"/>
<text text-anchor="start" x="521" y="-83" font-family="Helvetica,sans-Serif" font-size="10.00">Terraria.Initializers.UILinks</text>
<text text-anchor="middle" x="586" y="-72" font-family="Helvetica,sans-Serif" font-size="10.00">Initializer.Load</text>
</a>
</g>
</g>
<!-- Node15&#45;&gt;Node17 -->
<g id="edge25_Node000015_Node000017" class="edge">
<title>Node15&#45;&gt;Node17</title>
<g id="a_edge25_Node000015_Node000017"><a xlink:title=" ">
<path fill="none" stroke="#63b8ff" d="M915.69,-62.99C837.75,-67.02 729.72,-72.61 659.11,-76.27"/>
<polygon fill="#63b8ff" stroke="#63b8ff" points="916.19,-66.46 925.99,-62.45 915.83,-59.47 916.19,-66.46"/>
</a>
</g>
</g>
<!-- Node20 -->
<g id="Node000020" class="node">
<title>Node20</title>
<g id="a_Node000020"><a xlink:href="../../dd/de1/classTerraria_1_1UI_1_1ItemSlot_a975fa52b48b5db1264289eb21f2bb1e0.html#a975fa52b48b5db1264289eb21f2bb1e0" target="_top" xlink:title=" ">
<polygon fill="white" stroke="#666666" points="858,-30 727,-30 727,0 858,0 858,-30"/>
<text text-anchor="start" x="735" y="-18" font-family="Helvetica,sans-Serif" font-size="10.00">Terraria.UI.ItemSlot.Get</text>
<text text-anchor="middle" x="792.5" y="-7" font-family="Helvetica,sans-Serif" font-size="10.00">GamepadInstructions</text>
</a>
</g>
</g>
<!-- Node15&#45;&gt;Node20 -->
<g id="edge24_Node000015_Node000020" class="edge">
<title>Node15&#45;&gt;Node20</title>
<g id="a_edge24_Node000015_Node000020"><a xlink:title=" ">
<path fill="none" stroke="#63b8ff" d="M916.1,-39.13C896.52,-35.27 876.36,-31.31 858.19,-27.73"/>
<polygon fill="#63b8ff" stroke="#63b8ff" points="915.47,-42.57 925.96,-41.07 916.82,-35.7 915.47,-42.57"/>
</a>
</g>
</g>
<!-- Node16&#45;&gt;Node17 -->
<g id="edge21_Node000016_Node000017" class="edge">
<title>Node16&#45;&gt;Node17</title>
<g id="a_edge21_Node000016_Node000017"><a xlink:title=" ">
<path fill="none" stroke="#63b8ff" d="M684.72,-90.03C676.02,-89.14 667.36,-88.25 659,-87.39"/>
<polygon fill="#63b8ff" stroke="#63b8ff" points="684.63,-93.54 694.94,-91.08 685.35,-86.58 684.63,-93.54"/>
</a>
</g>
</g>
<!-- Node18 -->
<g id="Node000018" class="node">
<title>Node18</title>
<g id="a_Node000018"><a xlink:href="../../da/dd5/classTerraria_1_1Main_a25091de3c91f3e2202d5085499eda062.html#a25091de3c91f3e2202d5085499eda062" target="_top" xlink:title=" ">
<polygon fill="white" stroke="#666666" points="477,-89.5 323,-89.5 323,-70.5 477,-70.5 477,-89.5"/>
<text text-anchor="middle" x="400" y="-77.5" font-family="Helvetica,sans-Serif" font-size="10.00">Terraria.Main.ClientInitialize</text>
</a>
</g>
</g>
<!-- Node17&#45;&gt;Node18 -->
<g id="edge22_Node000017_Node000018" class="edge">
<title>Node17&#45;&gt;Node18</title>
<g id="a_edge22_Node000017_Node000018"><a xlink:title=" ">
<path fill="none" stroke="#63b8ff" d="M502.59,-80C494.15,-80 485.6,-80 477.23,-80"/>
<polygon fill="#63b8ff" stroke="#63b8ff" points="502.81,-83.5 512.81,-80 502.81,-76.5 502.81,-83.5"/>
</a>
</g>
</g>
<!-- Node19 -->
<g id="Node000019" class="node">
<title>Node19</title>
<g id="a_Node000019"><a xlink:href="../../da/dd5/classTerraria_1_1Main_aed4b6a8ad3e867bdb2bdcab2ab6ab0f9.html#aed4b6a8ad3e867bdb2bdcab2ab6ab0f9" target="_top" xlink:title=" ">
<polygon fill="white" stroke="#666666" points="283.5,-89.5 158.5,-89.5 158.5,-70.5 283.5,-70.5 283.5,-89.5"/>
<text text-anchor="middle" x="221" y="-77.5" font-family="Helvetica,sans-Serif" font-size="10.00">Terraria.Main.Initialize</text>
</a>
</g>
</g>
<!-- Node18&#45;&gt;Node19 -->
<g id="edge23_Node000018_Node000019" class="edge">
<title>Node18&#45;&gt;Node19</title>
<g id="a_edge23_Node000018_Node000019"><a xlink:title=" ">
<path fill="none" stroke="#63b8ff" d="M312.71,-80C302.89,-80 293.03,-80 283.63,-80"/>
<polygon fill="#63b8ff" stroke="#63b8ff" points="312.91,-83.5 322.91,-80 312.91,-76.5 312.91,-83.5"/>
</a>
</g>
</g>
</g>
</svg>

<g id="navigator" transform="translate(0 0)" fill="#404254">
  <rect fill="#f2f5e9" fill-opacity="0.5" stroke="#606060" stroke-width=".5" x="0" y="0" width="60" height="60"/>
  <use id="zoomplus" xlink:href="#zoomPlus" x="17" y="9" onmousedown="handleZoom(evt,'in')"/>
  <use id="zoomminus" xlink:href="#zoomMin" x="42" y="9" onmousedown="handleZoom(evt,'out')"/>
  <use id="reset" xlink:href="#resetDef" x="30" y="36" onmousedown="handleReset()"/>
   <use id="arrowup" xlink:href="#arrowUp" x="0" y="0" onmousedown="handlePan(0,-1)"/>
  <use id="arrowright" xlink:href="#arrowRight" x="0" y="0" onmousedown="handlePan(1,0)"/>
  <use id="arrowdown" xlink:href="#arrowDown" x="0" y="0" onmousedown="handlePan(0,1)"/>
  <use id="arrowleft" xlink:href="#arrowLeft" x="0" y="0" onmousedown="handlePan(-1,0)"/>
</g>
<svg viewBox="0 0 15 15" width="100%" height="30px" preserveAspectRatio="xMaxYMin meet">
 <g id="arrow_out" transform="scale(0.3 0.3)">
  <a xlink:href="classTerraria_1_1GameInput_1_1PlayerInput_1_1SettingsForUI_a4ce28d04035ca76014eb14fb566ca9a0_a4ce28d04035ca76014eb14fb566ca9a0_icgraph_org.svg" target="_base">
   <rect id="button" ry="5" rx="5" y="6" x="6" height="38" width="38"
        fill="#f2f5e9" fill-opacity="0.5" stroke="#606060" stroke-width="1.0"/>
   <path id="arrow"
     d="M 11.500037,31.436501 C 11.940474,20.09759 22.043105,11.32322 32.158766,21.979434 L 37.068811,17.246167 C 37.068811,17.246167 37.088388,32 37.088388,32 L 22.160133,31.978069 C 22.160133,31.978069 26.997745,27.140456 26.997745,27.140456 C 18.528582,18.264221 13.291696,25.230495 11.500037,31.436501 z"
     style="fill:#404040;"/>
  </a>
 </g>
</svg>

<style type='text/css'>
<![CDATA[
[data-mouse-over-selected='false'] { opacity: 0.7; }
[data-mouse-over-selected='true']  { opacity: 1.0; }
]]>
</style>
<script type="application/ecmascript"><![CDATA[
document.addEventListener('DOMContentLoaded', (event) => {
  highlightEdges();
  highlightAdjacentNodes();
});
]]></script>
</svg>
