<?xml version="1.0" encoding="UTF-8" standalone="no"?>
<!DOCTYPE svg PUBLIC "-//W3C//DTD SVG 1.1//EN"
 "http://www.w3.org/Graphics/SVG/1.1/DTD/svg11.dtd">
<!-- Generated by graphviz version 2.43.0 (0)
 -->
<!-- Title: Terraria.Dust.QuickBox Pages: 1 -->
<svg width="1714pt" height="138pt"
 viewBox="0.00 0.00 1714.00 138.00" xmlns="http://www.w3.org/2000/svg" xmlns:xlink="http://www.w3.org/1999/xlink">
<g id="graph0" class="graph" transform="scale(1 1) rotate(0) translate(4 134)">
<title>Terraria.Dust.QuickBox</title>
<!-- Node1 -->
<g id="Node000001" class="node">
<title>Node1</title>
<g id="a_Node000001"><a xlink:title=" ">
<polygon fill="#999999" stroke="#666666" points="1706,-100.5 1578,-100.5 1578,-81.5 1706,-81.5 1706,-100.5"/>
<text text-anchor="middle" x="1642" y="-88.5" font-family="Helvetica,sans-Serif" font-size="10.00">Terraria.Dust.QuickBox</text>
</a>
</g>
</g>
<!-- Node2 -->
<g id="Node000002" class="node">
<title>Node2</title>
<g id="a_Node000002"><a xlink:href="../../d5/de1/classTerraria_1_1StrayMethods_a24995b009db14016486cddb0d8d70a5f.html#a24995b009db14016486cddb0d8d70a5f" target="_top" xlink:title=" ">
<polygon fill="white" stroke="#666666" points="1542,-106 1391,-106 1391,-76 1542,-76 1542,-106"/>
<text text-anchor="start" x="1399" y="-94" font-family="Helvetica,sans-Serif" font-size="10.00">Terraria.StrayMethods.Send</text>
<text text-anchor="middle" x="1466.5" y="-83" font-family="Helvetica,sans-Serif" font-size="10.00">Walker</text>
</a>
</g>
</g>
<!-- Node1&#45;&gt;Node2 -->
<g id="edge1_Node000001_Node000002" class="edge">
<title>Node1&#45;&gt;Node2</title>
<g id="a_edge1_Node000001_Node000002"><a xlink:title=" ">
<path fill="none" stroke="#63b8ff" d="M1567.66,-91C1559.19,-91 1550.56,-91 1542.08,-91"/>
<polygon fill="#63b8ff" stroke="#63b8ff" points="1567.87,-94.5 1577.87,-91 1567.87,-87.5 1567.87,-94.5"/>
</a>
</g>
</g>
<!-- Node3 -->
<g id="Node000003" class="node">
<title>Node3</title>
<g id="a_Node000003"><a xlink:href="../../d5/de1/classTerraria_1_1StrayMethods_abc77053e1abb37881b1ed552f8ab9daa.html#abc77053e1abb37881b1ed552f8ab9daa" target="_top" xlink:title=" ">
<polygon fill="white" stroke="#666666" points="1355,-106 1198,-106 1198,-76 1355,-76 1355,-106"/>
<text text-anchor="start" x="1206" y="-94" font-family="Helvetica,sans-Serif" font-size="10.00">Terraria.StrayMethods.Check</text>
<text text-anchor="middle" x="1276.5" y="-83" font-family="Helvetica,sans-Serif" font-size="10.00">ArenaScore</text>
</a>
</g>
</g>
<!-- Node2&#45;&gt;Node3 -->
<g id="edge2_Node000002_Node000003" class="edge">
<title>Node2&#45;&gt;Node3</title>
<g id="a_edge2_Node000002_Node000003"><a xlink:title=" ">
<path fill="none" stroke="#63b8ff" d="M1380.9,-91C1372.3,-91 1363.59,-91 1355.07,-91"/>
<polygon fill="#63b8ff" stroke="#63b8ff" points="1380.93,-94.5 1390.93,-91 1380.93,-87.5 1380.93,-94.5"/>
</a>
</g>
</g>
<!-- Node4 -->
<g id="Node000004" class="node">
<title>Node4</title>
<g id="a_Node000004"><a xlink:href="../../df/d0d/classTerraria_1_1NPC_ac6f711000642c6df97f8302ffd18927f.html#ac6f711000642c6df97f8302ffd18927f" target="_top" xlink:title=" ">
<polygon fill="white" stroke="#666666" points="1130.5,-130 1008.5,-130 1008.5,-100 1130.5,-100 1130.5,-130"/>
<text text-anchor="start" x="1016.5" y="-118" font-family="Helvetica,sans-Serif" font-size="10.00">Terraria.NPC.VanillaAI</text>
<text text-anchor="middle" x="1069.5" y="-107" font-family="Helvetica,sans-Serif" font-size="10.00">_Inner</text>
</a>
</g>
</g>
<!-- Node3&#45;&gt;Node4 -->
<g id="edge3_Node000003_Node000004" class="edge">
<title>Node3&#45;&gt;Node4</title>
<g id="a_edge3_Node000003_Node000004"><a xlink:title=" ">
<path fill="none" stroke="#63b8ff" d="M1187.96,-101.25C1168.59,-103.52 1148.51,-105.87 1130.53,-107.97"/>
<polygon fill="#63b8ff" stroke="#63b8ff" points="1188.47,-104.71 1198,-100.07 1187.66,-97.76 1188.47,-104.71"/>
</a>
</g>
</g>
<!-- Node8 -->
<g id="Node000008" class="node">
<title>Node8</title>
<g id="a_Node000008"><a xlink:href="../../dd/db5/classTerraria_1_1GameContent_1_1Events_1_1DD2Event_a4000cb686726c670ff47e91167107f83.html#a4000cb686726c670ff47e91167107f83" target="_top" xlink:title=" ">
<polygon fill="white" stroke="#666666" points="1162,-82 977,-82 977,-52 1162,-52 1162,-82"/>
<text text-anchor="start" x="985" y="-70" font-family="Helvetica,sans-Serif" font-size="10.00">Terraria.GameContent.Events.</text>
<text text-anchor="middle" x="1069.5" y="-59" font-family="Helvetica,sans-Serif" font-size="10.00">DD2Event.WouldFailSpawningHere</text>
</a>
</g>
</g>
<!-- Node3&#45;&gt;Node8 -->
<g id="edge7_Node000003_Node000008" class="edge">
<title>Node3&#45;&gt;Node8</title>
<g id="a_edge7_Node000003_Node000008"><a xlink:title=" ">
<path fill="none" stroke="#63b8ff" d="M1188.05,-80.76C1179.51,-79.76 1170.82,-78.74 1162.24,-77.74"/>
<polygon fill="#63b8ff" stroke="#63b8ff" points="1187.66,-84.24 1198,-81.93 1188.47,-77.29 1187.66,-84.24"/>
</a>
</g>
</g>
<!-- Node5 -->
<g id="Node000005" class="node">
<title>Node5</title>
<g id="a_Node000005"><a xlink:href="../../df/d0d/classTerraria_1_1NPC_a86f20980341364904ef465f249f12f80.html#a86f20980341364904ef465f249f12f80" target="_top" xlink:title=" ">
<polygon fill="white" stroke="#666666" points="910,-124.5 788,-124.5 788,-105.5 910,-105.5 910,-124.5"/>
<text text-anchor="middle" x="849" y="-112.5" font-family="Helvetica,sans-Serif" font-size="10.00">Terraria.NPC.VanillaAI</text>
</a>
</g>
</g>
<!-- Node4&#45;&gt;Node5 -->
<g id="edge4_Node000004_Node000005" class="edge">
<title>Node4&#45;&gt;Node5</title>
<g id="a_edge4_Node000004_Node000005"><a xlink:title=" ">
<path fill="none" stroke="#63b8ff" d="M997.97,-115C969.63,-115 937.29,-115 910.09,-115"/>
<polygon fill="#63b8ff" stroke="#63b8ff" points="998.22,-118.5 1008.22,-115 998.22,-111.5 998.22,-118.5"/>
</a>
</g>
</g>
<!-- Node6 -->
<g id="Node000006" class="node">
<title>Node6</title>
<g id="a_Node000006"><a xlink:href="../../dd/dc6/classTerraria_1_1ModLoader_1_1NPCLoader_a5075fa0ca2bdcf3208edfbcc6c567a74.html#a5075fa0ca2bdcf3208edfbcc6c567a74" target="_top" xlink:title=" ">
<polygon fill="white" stroke="#666666" points="721,-130 553,-130 553,-100 721,-100 721,-130"/>
<text text-anchor="start" x="561" y="-118" font-family="Helvetica,sans-Serif" font-size="10.00">Terraria.ModLoader.NPCLoader.</text>
<text text-anchor="middle" x="637" y="-107" font-family="Helvetica,sans-Serif" font-size="10.00">NPCAI</text>
</a>
</g>
</g>
<!-- Node5&#45;&gt;Node6 -->
<g id="edge5_Node000005_Node000006" class="edge">
<title>Node5&#45;&gt;Node6</title>
<g id="a_edge5_Node000005_Node000006"><a xlink:title=" ">
<path fill="none" stroke="#63b8ff" d="M777.66,-115C759.57,-115 739.94,-115 721.27,-115"/>
<polygon fill="#63b8ff" stroke="#63b8ff" points="777.82,-118.5 787.82,-115 777.82,-111.5 777.82,-118.5"/>
</a>
</g>
</g>
<!-- Node7 -->
<g id="Node000007" class="node">
<title>Node7</title>
<g id="a_Node000007"><a xlink:href="../../df/d0d/classTerraria_1_1NPC_af998ad2acbc8e9008e7d83aad42551f2.html#af998ad2acbc8e9008e7d83aad42551f2" target="_top" xlink:title=" ">
<polygon fill="white" stroke="#666666" points="474.5,-124.5 385.5,-124.5 385.5,-105.5 474.5,-105.5 474.5,-124.5"/>
<text text-anchor="middle" x="430" y="-112.5" font-family="Helvetica,sans-Serif" font-size="10.00">Terraria.NPC.AI</text>
</a>
</g>
</g>
<!-- Node6&#45;&gt;Node7 -->
<g id="edge6_Node000006_Node000007" class="edge">
<title>Node6&#45;&gt;Node7</title>
<g id="a_edge6_Node000006_Node000007"><a xlink:title=" ">
<path fill="none" stroke="#63b8ff" d="M542.77,-115C518.97,-115 494.5,-115 474.54,-115"/>
<polygon fill="#63b8ff" stroke="#63b8ff" points="542.91,-118.5 552.91,-115 542.91,-111.5 542.91,-118.5"/>
</a>
</g>
</g>
<!-- Node9 -->
<g id="Node000009" class="node">
<title>Node9</title>
<g id="a_Node000009"><a xlink:href="../../db/d63/classTerraria_1_1MessageBuffer_ab4039006321b0ab8e7d66acbd82370b0.html#ab4039006321b0ab8e7d66acbd82370b0" target="_top" xlink:title=" ">
<polygon fill="white" stroke="#666666" points="935,-84.5 763,-84.5 763,-65.5 935,-65.5 935,-84.5"/>
<text text-anchor="middle" x="849" y="-72.5" font-family="Helvetica,sans-Serif" font-size="10.00">Terraria.MessageBuffer.GetData</text>
</a>
</g>
</g>
<!-- Node8&#45;&gt;Node9 -->
<g id="edge8_Node000008_Node000009" class="edge">
<title>Node8&#45;&gt;Node9</title>
<g id="a_edge8_Node000008_Node000009"><a xlink:title=" ">
<path fill="none" stroke="#63b8ff" d="M966.72,-70.73C956.18,-71.11 945.54,-71.5 935.2,-71.88"/>
<polygon fill="#63b8ff" stroke="#63b8ff" points="966.92,-74.22 976.79,-70.36 966.66,-67.23 966.92,-74.22"/>
</a>
</g>
</g>
<!-- Node10 -->
<g id="Node000010" class="node">
<title>Node10</title>
<g id="a_Node000010"><a xlink:href="../../d4/d03/classTerraria_1_1Player_a8b27a9ab46a3bd51b25499cdf7417694.html#a8b27a9ab46a3bd51b25499cdf7417694" target="_top" xlink:title=" ">
<polygon fill="white" stroke="#666666" points="941,-47.5 757,-47.5 757,-28.5 941,-28.5 941,-47.5"/>
<text text-anchor="middle" x="849" y="-35.5" font-family="Helvetica,sans-Serif" font-size="10.00">Terraria.Player.TileInteractionsUse</text>
</a>
</g>
</g>
<!-- Node8&#45;&gt;Node10 -->
<g id="edge9_Node000008_Node000010" class="edge">
<title>Node8&#45;&gt;Node10</title>
<g id="a_edge9_Node000008_Node000010"><a xlink:title=" ">
<path fill="none" stroke="#63b8ff" d="M966.85,-53.51C951.67,-51.49 936.28,-49.45 921.89,-47.54"/>
<polygon fill="#63b8ff" stroke="#63b8ff" points="966.41,-56.98 976.79,-54.83 967.33,-50.04 966.41,-56.98"/>
</a>
</g>
</g>
<!-- Node11 -->
<g id="Node000011" class="node">
<title>Node11</title>
<g id="a_Node000011"><a xlink:href="../../d4/d03/classTerraria_1_1Player_ab2e21980bc1dddaa7b760abeb643179c.html#ab2e21980bc1dddaa7b760abeb643179c" target="_top" xlink:title=" ">
<polygon fill="white" stroke="#666666" points="719.5,-53 554.5,-53 554.5,-23 719.5,-23 719.5,-53"/>
<text text-anchor="start" x="562.5" y="-41" font-family="Helvetica,sans-Serif" font-size="10.00">Terraria.Player.TileInteractions</text>
<text text-anchor="middle" x="637" y="-30" font-family="Helvetica,sans-Serif" font-size="10.00">Check</text>
</a>
</g>
</g>
<!-- Node10&#45;&gt;Node11 -->
<g id="edge10_Node000010_Node000011" class="edge">
<title>Node10&#45;&gt;Node11</title>
<g id="a_edge10_Node000010_Node000011"><a xlink:title=" ">
<path fill="none" stroke="#63b8ff" d="M746.59,-38C737.52,-38 728.41,-38 719.54,-38"/>
<polygon fill="#63b8ff" stroke="#63b8ff" points="746.81,-41.5 756.81,-38 746.81,-34.5 746.81,-41.5"/>
</a>
</g>
</g>
<!-- Node12 -->
<g id="Node000012" class="node">
<title>Node12</title>
<g id="a_Node000012"><a xlink:href="../../d4/d03/classTerraria_1_1Player_a5510cf851b3582e9fbfa6a487da9e057.html#a5510cf851b3582e9fbfa6a487da9e057" target="_top" xlink:title=" ">
<polygon fill="white" stroke="#666666" points="307,-51 161,-51 161,-21 307,-21 307,-51"/>
<text text-anchor="start" x="169" y="-39" font-family="Helvetica,sans-Serif" font-size="10.00">Terraria.Player.LookForTile</text>
<text text-anchor="middle" x="234" y="-28" font-family="Helvetica,sans-Serif" font-size="10.00">Interactions</text>
</a>
</g>
</g>
<!-- Node11&#45;&gt;Node12 -->
<g id="edge11_Node000011_Node000012" class="edge">
<title>Node11&#45;&gt;Node12</title>
<g id="a_edge11_Node000011_Node000012"><a xlink:title=" ">
<path fill="none" stroke="#63b8ff" d="M544.02,-39.13C486.29,-39.64 410.3,-39.93 343,-39 331.37,-38.84 319.04,-38.58 307.03,-38.28"/>
<polygon fill="#63b8ff" stroke="#63b8ff" points="544.25,-42.63 554.22,-39.04 544.19,-35.63 544.25,-42.63"/>
</a>
</g>
</g>
<!-- Node14 -->
<g id="Node000014" class="node">
<title>Node14</title>
<g id="a_Node000014"><a xlink:href="../../d4/d03/classTerraria_1_1Player_a37caf101b91643aece315d75c2d1e052.html#a37caf101b91643aece315d75c2d1e052" target="_top" xlink:title=" ">
<polygon fill="white" stroke="#666666" points="517,-30 343,-30 343,0 517,0 517,-30"/>
<text text-anchor="start" x="351" y="-18" font-family="Helvetica,sans-Serif" font-size="10.00">Terraria.Player.TryInteracting</text>
<text text-anchor="middle" x="430" y="-7" font-family="Helvetica,sans-Serif" font-size="10.00">WithMinecartTrackInNearbyArea</text>
</a>
</g>
</g>
<!-- Node11&#45;&gt;Node14 -->
<g id="edge13_Node000011_Node000014" class="edge">
<title>Node11&#45;&gt;Node14</title>
<g id="a_edge13_Node000011_Node000014"><a xlink:title=" ">
<path fill="none" stroke="#63b8ff" d="M544.24,-27.7C535.19,-26.69 526.02,-25.66 517.04,-24.65"/>
<polygon fill="#63b8ff" stroke="#63b8ff" points="544.06,-31.21 554.39,-28.84 544.84,-24.25 544.06,-31.21"/>
</a>
</g>
</g>
<!-- Node13 -->
<g id="Node000013" class="node">
<title>Node13</title>
<g id="a_Node000013"><a xlink:href="../../d4/d03/classTerraria_1_1Player_af44290f5d38b6d5076a5fa8d6ee3dd12.html#af44290f5d38b6d5076a5fa8d6ee3dd12" target="_top" xlink:title=" ">
<polygon fill="white" stroke="#666666" points="125,-45.5 0,-45.5 0,-26.5 125,-26.5 125,-45.5"/>
<text text-anchor="middle" x="62.5" y="-33.5" font-family="Helvetica,sans-Serif" font-size="10.00">Terraria.Player.Update</text>
</a>
</g>
</g>
<!-- Node12&#45;&gt;Node13 -->
<g id="edge12_Node000012_Node000013" class="edge">
<title>Node12&#45;&gt;Node13</title>
<g id="a_edge12_Node000012_Node000013"><a xlink:title=" ">
<path fill="none" stroke="#63b8ff" d="M150.62,-36C142.07,-36 133.49,-36 125.22,-36"/>
<polygon fill="#63b8ff" stroke="#63b8ff" points="150.63,-39.5 160.63,-36 150.63,-32.5 150.63,-39.5"/>
</a>
</g>
</g>
<!-- Node14&#45;&gt;Node12 -->
<g id="edge14_Node000014_Node000012" class="edge">
<title>Node14&#45;&gt;Node12</title>
<g id="a_edge14_Node000014_Node000012"><a xlink:title=" ">
<path fill="none" stroke="#63b8ff" d="M332.67,-25.43C324.04,-26.36 315.4,-27.3 307.03,-28.2"/>
<polygon fill="#63b8ff" stroke="#63b8ff" points="333.21,-28.89 342.78,-24.33 332.46,-21.93 333.21,-28.89"/>
</a>
</g>
</g>
</g>
</svg>
