<?xml version="1.0" encoding="UTF-8" standalone="no"?>
<!DOCTYPE svg PUBLIC "-//W3C//DTD SVG 1.1//EN"
 "http://www.w3.org/Graphics/SVG/1.1/DTD/svg11.dtd">
<!-- Generated by graphviz version 2.43.0 (0)
 -->
<!-- Title: Terraria.WorldBuilding.Actions.ClearWall.Apply Pages: 1 -->
<svg width="1155pt" height="361pt"
 viewBox="0.00 0.00 1155.00 361.00" xmlns="http://www.w3.org/2000/svg" xmlns:xlink="http://www.w3.org/1999/xlink">
<g id="graph0" class="graph" transform="scale(1 1) rotate(0) translate(4 357)">
<title>Terraria.WorldBuilding.Actions.ClearWall.Apply</title>
<!-- Node1 -->
<g id="Node000001" class="node">
<title>Node1</title>
<g id="a_Node000001"><a xlink:title=" ">
<polygon fill="#999999" stroke="#666666" points="166,-141.5 0,-141.5 0,-111.5 166,-111.5 166,-141.5"/>
<text text-anchor="start" x="8" y="-129.5" font-family="Helvetica,sans-Serif" font-size="10.00">Terraria.WorldBuilding.Actions.</text>
<text text-anchor="middle" x="83" y="-118.5" font-family="Helvetica,sans-Serif" font-size="10.00">ClearWall.Apply</text>
</a>
</g>
</g>
<!-- Node2 -->
<g id="Node000002" class="node">
<title>Node2</title>
<g id="a_Node000002"><a xlink:href="../../d6/d1f/classTerraria_1_1WorldBuilding_1_1WorldUtils_af9e894f374dd2802d6b60df6216eff7d.html#af9e894f374dd2802d6b60df6216eff7d" target="_top" xlink:title=" ">
<polygon fill="white" stroke="#666666" points="357,-165.5 202,-165.5 202,-135.5 357,-135.5 357,-165.5"/>
<text text-anchor="start" x="210" y="-153.5" font-family="Helvetica,sans-Serif" font-size="10.00">Terraria.WorldBuilding.World</text>
<text text-anchor="middle" x="279.5" y="-142.5" font-family="Helvetica,sans-Serif" font-size="10.00">Utils.ClearWall</text>
</a>
</g>
</g>
<!-- Node1&#45;&gt;Node2 -->
<g id="edge1_Node000001_Node000002" class="edge">
<title>Node1&#45;&gt;Node2</title>
<g id="a_edge1_Node000001_Node000002"><a xlink:title=" ">
<path fill="none" stroke="#63b8ff" d="M166.2,-136.64C174.7,-137.69 183.35,-138.76 191.89,-139.81"/>
<polygon fill="#63b8ff" stroke="#63b8ff" points="191.5,-143.29 201.85,-141.04 192.36,-136.34 191.5,-143.29"/>
</a>
</g>
</g>
<!-- Node17 -->
<g id="Node000017" class="node">
<title>Node17</title>
<g id="a_Node000017"><a xlink:href="../../db/d55/classTerraria_1_1WorldBuilding_1_1GenAction_a1ca7e06f26116e014e45a365601235a9.html#a1ca7e06f26116e014e45a365601235a9" target="_top" xlink:title=" ">
<polygon fill="white" stroke="#666666" points="352.5,-117.5 206.5,-117.5 206.5,-87.5 352.5,-87.5 352.5,-117.5"/>
<text text-anchor="start" x="214.5" y="-105.5" font-family="Helvetica,sans-Serif" font-size="10.00">Terraria.WorldBuilding.Gen</text>
<text text-anchor="middle" x="279.5" y="-94.5" font-family="Helvetica,sans-Serif" font-size="10.00">Action.UnitApply</text>
</a>
</g>
</g>
<!-- Node1&#45;&gt;Node17 -->
<g id="edge17_Node000001_Node000017" class="edge">
<title>Node1&#45;&gt;Node17</title>
<g id="a_edge17_Node000001_Node000017"><a xlink:title=" ">
<path fill="none" stroke="#63b8ff" d="M166.2,-116.36C176.23,-115.12 186.48,-113.85 196.51,-112.62"/>
<polygon fill="#63b8ff" stroke="#63b8ff" points="196.95,-116.09 206.45,-111.39 196.1,-109.14 196.95,-116.09"/>
</a>
</g>
</g>
<!-- Node3 -->
<g id="Node000003" class="node">
<title>Node3</title>
<g id="a_Node000003"><a xlink:href="../../de/da1/classTerraria_1_1WorldGen_a67368177c8b2b232ae8dcfc4f6148b5d.html#a67368177c8b2b232ae8dcfc4f6148b5d" target="_top" xlink:title=" ">
<polygon fill="white" stroke="#666666" points="541.5,-165.5 401.5,-165.5 401.5,-135.5 541.5,-135.5 541.5,-165.5"/>
<text text-anchor="start" x="409.5" y="-153.5" font-family="Helvetica,sans-Serif" font-size="10.00">Terraria.WorldGen.Square</text>
<text text-anchor="middle" x="471.5" y="-142.5" font-family="Helvetica,sans-Serif" font-size="10.00">WallFrame</text>
</a>
</g>
</g>
<!-- Node2&#45;&gt;Node3 -->
<g id="edge2_Node000002_Node000003" class="edge">
<title>Node2&#45;&gt;Node3</title>
<g id="a_edge2_Node000002_Node000003"><a xlink:title=" ">
<path fill="none" stroke="#63b8ff" d="M357.23,-150.5C368.43,-150.5 379.98,-150.5 391.23,-150.5"/>
<polygon fill="#63b8ff" stroke="#63b8ff" points="391.45,-154 401.45,-150.5 391.45,-147 391.45,-154"/>
</a>
</g>
</g>
<!-- Node4 -->
<g id="Node000004" class="node">
<title>Node4</title>
<g id="a_Node000004"><a xlink:href="../../dc/dd7/classTerraria_1_1Framing_a7bdcbc2599515f563f066744eed76ee6.html#a7bdcbc2599515f563f066744eed76ee6" target="_top" xlink:title=" ">
<polygon fill="white" stroke="#666666" points="737,-160 586,-160 586,-141 737,-141 737,-160"/>
<text text-anchor="middle" x="661.5" y="-148" font-family="Helvetica,sans-Serif" font-size="10.00">Terraria.Framing.WallFrame</text>
</a>
</g>
</g>
<!-- Node3&#45;&gt;Node4 -->
<g id="edge3_Node000003_Node000004" class="edge">
<title>Node3&#45;&gt;Node4</title>
<g id="a_edge3_Node000003_Node000004"><a xlink:title=" ">
<path fill="none" stroke="#63b8ff" d="M541.7,-150.5C552.69,-150.5 564.15,-150.5 575.45,-150.5"/>
<polygon fill="#63b8ff" stroke="#63b8ff" points="575.75,-154 585.75,-150.5 575.75,-147 575.75,-154"/>
</a>
</g>
</g>
<!-- Node5 -->
<g id="Node000005" class="node">
<title>Node5</title>
<g id="a_Node000005"><a xlink:href="../../d6/d21/structTerraria_1_1Tile_a6b7c8f41995f641c2a470bd80492d04c.html#a6b7c8f41995f641c2a470bd80492d04c" target="_top" xlink:title="Clears any paint or coating on the wall at this position.">
<polygon fill="white" stroke="#666666" points="931.5,-323.5 783.5,-323.5 783.5,-293.5 931.5,-293.5 931.5,-323.5"/>
<text text-anchor="start" x="791.5" y="-311.5" font-family="Helvetica,sans-Serif" font-size="10.00">Terraria.Tile.ClearWallPaint</text>
<text text-anchor="middle" x="857.5" y="-300.5" font-family="Helvetica,sans-Serif" font-size="10.00">AndCoating</text>
</a>
</g>
</g>
<!-- Node4&#45;&gt;Node5 -->
<g id="edge4_Node000004_Node000005" class="edge">
<title>Node4&#45;&gt;Node5</title>
<g id="a_edge4_Node000004_Node000005"><a xlink:title=" ">
<path fill="none" stroke="#63b8ff" d="M668.17,-160.11C682.64,-183.82 723.29,-245.61 773,-279.5 778.33,-283.13 784.15,-286.35 790.17,-289.2"/>
<polygon fill="#63b8ff" stroke="#63b8ff" points="789.18,-292.58 799.74,-293.37 791.97,-286.16 789.18,-292.58"/>
</a>
</g>
</g>
<!-- Node8 -->
<g id="Node000008" class="node">
<title>Node8</title>
<g id="a_Node000008"><a xlink:href="../../d6/d21/structTerraria_1_1Tile_ae29f1e935710d0c9f5e325f873709719.html#ae29f1e935710d0c9f5e325f873709719" target="_top" xlink:title="Legacy code, use P:Terraria.Tile.WallColor instead.">
<polygon fill="white" stroke="#666666" points="1124,-276 1001,-276 1001,-257 1124,-257 1124,-276"/>
<text text-anchor="middle" x="1062.5" y="-264" font-family="Helvetica,sans-Serif" font-size="10.00">Terraria.Tile.wallColor</text>
</a>
</g>
</g>
<!-- Node4&#45;&gt;Node8 -->
<g id="edge10_Node000004_Node000008" class="edge">
<title>Node4&#45;&gt;Node8</title>
<g id="a_edge10_Node000004_Node000008"><a xlink:title=" ">
<path fill="none" stroke="#63b8ff" d="M669.79,-160.09C685.83,-180.36 726.5,-227.27 773,-246.5 842.95,-275.44 930.58,-277.23 990.8,-273.81"/>
<polygon fill="#63b8ff" stroke="#63b8ff" points="991.21,-277.29 1000.97,-273.17 990.77,-270.3 991.21,-277.29"/>
</a>
</g>
</g>
<!-- Node9 -->
<g id="Node000009" class="node">
<title>Node9</title>
<g id="a_Node000009"><a xlink:href="../../da/dd5/classTerraria_1_1Main_a32219b316f46865ffbad1c10fee82bd1.html#a32219b316f46865ffbad1c10fee82bd1" target="_top" xlink:title=" ">
<polygon fill="white" stroke="#666666" points="929,-237.5 786,-237.5 786,-207.5 929,-207.5 929,-237.5"/>
<text text-anchor="start" x="794" y="-225.5" font-family="Helvetica,sans-Serif" font-size="10.00">Terraria.Main.ShouldShow</text>
<text text-anchor="middle" x="857.5" y="-214.5" font-family="Helvetica,sans-Serif" font-size="10.00">InvisibleWalls</text>
</a>
</g>
</g>
<!-- Node4&#45;&gt;Node9 -->
<g id="edge8_Node000004_Node000009" class="edge">
<title>Node4&#45;&gt;Node9</title>
<g id="a_edge8_Node000004_Node000009"><a xlink:title=" ">
<path fill="none" stroke="#63b8ff" d="M682.55,-160.15C704.45,-170.47 740.72,-186.9 773,-198.5 778.78,-200.57 784.82,-202.6 790.91,-204.53"/>
<polygon fill="#63b8ff" stroke="#63b8ff" points="789.9,-207.88 800.48,-207.49 791.96,-201.19 789.9,-207.88"/>
</a>
</g>
</g>
<!-- Node10 -->
<g id="Node000010" class="node">
<title>Node10</title>
<g id="a_Node000010"><a xlink:href="../../de/da1/classTerraria_1_1WorldGen_a78badd283bba8f60fac9629cc5834533.html#a78badd283bba8f60fac9629cc5834533" target="_top" xlink:title=" ">
<polygon fill="white" stroke="#666666" points="928.5,-189.5 786.5,-189.5 786.5,-159.5 928.5,-159.5 928.5,-189.5"/>
<text text-anchor="start" x="794.5" y="-177.5" font-family="Helvetica,sans-Serif" font-size="10.00">Terraria.WorldGen.Update</text>
<text text-anchor="middle" x="857.5" y="-166.5" font-family="Helvetica,sans-Serif" font-size="10.00">MapTile</text>
</a>
</g>
</g>
<!-- Node4&#45;&gt;Node10 -->
<g id="edge9_Node000004_Node000010" class="edge">
<title>Node4&#45;&gt;Node10</title>
<g id="a_edge9_Node000004_Node000010"><a xlink:title=" ">
<path fill="none" stroke="#63b8ff" d="M737.23,-159.74C749.95,-161.32 763.2,-162.96 776.06,-164.55"/>
<polygon fill="#63b8ff" stroke="#63b8ff" points="775.92,-168.06 786.27,-165.81 776.77,-161.11 775.92,-168.06"/>
</a>
</g>
</g>
<!-- Node11 -->
<g id="Node000011" class="node">
<title>Node11</title>
<g id="a_Node000011"><a xlink:href="../../d3/de2/classTerraria_1_1ModLoader_1_1WallLoader_a070c54b561f295377d279dd02b1e1615.html#a070c54b561f295377d279dd02b1e1615" target="_top" xlink:title=" ">
<polygon fill="white" stroke="#666666" points="942,-141.5 773,-141.5 773,-111.5 942,-111.5 942,-141.5"/>
<text text-anchor="start" x="781" y="-129.5" font-family="Helvetica,sans-Serif" font-size="10.00">Terraria.ModLoader.WallLoader.</text>
<text text-anchor="middle" x="857.5" y="-118.5" font-family="Helvetica,sans-Serif" font-size="10.00">WallFrame</text>
</a>
</g>
</g>
<!-- Node4&#45;&gt;Node11 -->
<g id="edge11_Node000004_Node000011" class="edge">
<title>Node4&#45;&gt;Node11</title>
<g id="a_edge11_Node000004_Node000011"><a xlink:title=" ">
<path fill="none" stroke="#63b8ff" d="M737.23,-141.26C745.59,-140.22 754.19,-139.16 762.75,-138.1"/>
<polygon fill="#63b8ff" stroke="#63b8ff" points="763.27,-141.56 772.77,-136.86 762.41,-134.61 763.27,-141.56"/>
</a>
</g>
</g>
<!-- Node14 -->
<g id="Node000014" class="node">
<title>Node14</title>
<g id="a_Node000014"><a xlink:href="../../d6/d21/structTerraria_1_1Tile_ac34b19da6896cfb573097105d748e802.html#ac34b19da6896cfb573097105d748e802" target="_top" xlink:title="Legacy code, use P:Terraria.Tile.WallFrameNumber instead.">
<polygon fill="white" stroke="#666666" points="941,-93 774,-93 774,-74 941,-74 941,-93"/>
<text text-anchor="middle" x="857.5" y="-81" font-family="Helvetica,sans-Serif" font-size="10.00">Terraria.Tile.wallFrameNumber</text>
</a>
</g>
</g>
<!-- Node4&#45;&gt;Node14 -->
<g id="edge14_Node000004_Node000014" class="edge">
<title>Node4&#45;&gt;Node14</title>
<g id="a_edge14_Node000004_Node000014"><a xlink:title=" ">
<path fill="none" stroke="#63b8ff" d="M681.64,-140.88C703.34,-130.29 740.01,-113.32 773,-102.5 780.92,-99.9 789.38,-97.53 797.75,-95.41"/>
<polygon fill="#63b8ff" stroke="#63b8ff" points="798.62,-98.81 807.51,-93.04 796.97,-92 798.62,-98.81"/>
</a>
</g>
</g>
<!-- Node15 -->
<g id="Node000015" class="node">
<title>Node15</title>
<g id="a_Node000015"><a xlink:href="../../d6/d21/structTerraria_1_1Tile_ab03ea32ce1848cebb70d6f5fa9010e61.html#ab03ea32ce1848cebb70d6f5fa9010e61" target="_top" xlink:title="Legacy code, use P:Terraria.Tile.WallFrameX instead.">
<polygon fill="white" stroke="#666666" points="925,-56 790,-56 790,-37 925,-37 925,-56"/>
<text text-anchor="middle" x="857.5" y="-44" font-family="Helvetica,sans-Serif" font-size="10.00">Terraria.Tile.wallFrameX</text>
</a>
</g>
</g>
<!-- Node4&#45;&gt;Node15 -->
<g id="edge15_Node000004_Node000015" class="edge">
<title>Node4&#45;&gt;Node15</title>
<g id="a_edge15_Node000004_Node000015"><a xlink:title=" ">
<path fill="none" stroke="#63b8ff" d="M671.84,-140.77C689.7,-122.75 730.71,-84.25 773,-64.5 777.31,-62.49 781.85,-60.7 786.49,-59.11"/>
<polygon fill="#63b8ff" stroke="#63b8ff" points="787.62,-62.42 796.13,-56.11 785.54,-55.74 787.62,-62.42"/>
</a>
</g>
</g>
<!-- Node16 -->
<g id="Node000016" class="node">
<title>Node16</title>
<g id="a_Node000016"><a xlink:href="../../d6/d21/structTerraria_1_1Tile_a63ce5e6bc9960184cbc168114dc561c5.html#a63ce5e6bc9960184cbc168114dc561c5" target="_top" xlink:title="Legacy code, use P:Terraria.Tile.WallFrameY instead.">
<polygon fill="white" stroke="#666666" points="924.5,-19 790.5,-19 790.5,0 924.5,0 924.5,-19"/>
<text text-anchor="middle" x="857.5" y="-7" font-family="Helvetica,sans-Serif" font-size="10.00">Terraria.Tile.wallFrameY</text>
</a>
</g>
</g>
<!-- Node4&#45;&gt;Node16 -->
<g id="edge16_Node000004_Node000016" class="edge">
<title>Node4&#45;&gt;Node16</title>
<g id="a_edge16_Node000004_Node000016"><a xlink:title=" ">
<path fill="none" stroke="#63b8ff" d="M668.06,-140.97C682.25,-117.54 722.34,-56.88 773,-27.5 776.04,-25.74 779.24,-24.14 782.53,-22.71"/>
<polygon fill="#63b8ff" stroke="#63b8ff" points="783.95,-25.91 792.03,-19.06 781.44,-19.38 783.95,-25.91"/>
</a>
</g>
</g>
<!-- Node6 -->
<g id="Node000006" class="node">
<title>Node6</title>
<g id="a_Node000006"><a xlink:href="../../d6/d21/structTerraria_1_1Tile_a3b7bd5420f76606332e38630dd2d406f.html#a3b7bd5420f76606332e38630dd2d406f" target="_top" xlink:title="Legacy code, use P:Terraria.Tile.IsWallFullbright instead.">
<polygon fill="white" stroke="#666666" points="1134,-353 991,-353 991,-334 1134,-334 1134,-353"/>
<text text-anchor="middle" x="1062.5" y="-341" font-family="Helvetica,sans-Serif" font-size="10.00">Terraria.Tile.fullbrightWall</text>
</a>
</g>
</g>
<!-- Node5&#45;&gt;Node6 -->
<g id="edge5_Node000005_Node000006" class="edge">
<title>Node5&#45;&gt;Node6</title>
<g id="a_edge5_Node000005_Node000006"><a xlink:title=" ">
<path fill="none" stroke="#63b8ff" d="M931.5,-321.09C952.7,-324.74 975.7,-328.71 996.38,-332.27"/>
<polygon fill="#63b8ff" stroke="#63b8ff" points="995.88,-335.74 1006.33,-333.99 997.07,-328.84 995.88,-335.74"/>
</a>
</g>
</g>
<!-- Node7 -->
<g id="Node000007" class="node">
<title>Node7</title>
<g id="a_Node000007"><a xlink:href="../../d6/d21/structTerraria_1_1Tile_a57ac1450e9330144134ae00a73e5afc6.html#a57ac1450e9330144134ae00a73e5afc6" target="_top" xlink:title="Legacy code, use P:Terraria.Tile.IsWallInvisible instead.">
<polygon fill="white" stroke="#666666" points="1132.5,-316 992.5,-316 992.5,-297 1132.5,-297 1132.5,-316"/>
<text text-anchor="middle" x="1062.5" y="-304" font-family="Helvetica,sans-Serif" font-size="10.00">Terraria.Tile.invisibleWall</text>
</a>
</g>
</g>
<!-- Node5&#45;&gt;Node7 -->
<g id="edge6_Node000005_Node000007" class="edge">
<title>Node5&#45;&gt;Node7</title>
<g id="a_edge6_Node000005_Node000007"><a xlink:title=" ">
<path fill="none" stroke="#63b8ff" d="M931.5,-307.78C947.88,-307.62 965.34,-307.45 981.97,-307.28"/>
<polygon fill="#63b8ff" stroke="#63b8ff" points="982.23,-310.78 992.2,-307.18 982.16,-303.78 982.23,-310.78"/>
</a>
</g>
</g>
<!-- Node5&#45;&gt;Node8 -->
<g id="edge7_Node000005_Node000008" class="edge">
<title>Node5&#45;&gt;Node8</title>
<g id="a_edge7_Node000005_Node000008"><a xlink:title=" ">
<path fill="none" stroke="#63b8ff" d="M931.21,-293.46C955.69,-288.39 982.61,-282.82 1005.58,-278.07"/>
<polygon fill="#63b8ff" stroke="#63b8ff" points="1006.42,-281.47 1015.51,-276.02 1005,-274.61 1006.42,-281.47"/>
</a>
</g>
</g>
<!-- Node12 -->
<g id="Node000012" class="node">
<title>Node12</title>
<g id="a_Node000012"><a xlink:href="../../d3/de2/classTerraria_1_1ModLoader_1_1WallLoader_a668afb736786036d0d3c21171098e86c.html#a668afb736786036d0d3c21171098e86c" target="_top" xlink:title=" ">
<polygon fill="white" stroke="#666666" points="1147,-165.5 978,-165.5 978,-135.5 1147,-135.5 1147,-165.5"/>
<text text-anchor="start" x="986" y="-153.5" font-family="Helvetica,sans-Serif" font-size="10.00">Terraria.ModLoader.WallLoader.</text>
<text text-anchor="middle" x="1062.5" y="-142.5" font-family="Helvetica,sans-Serif" font-size="10.00">DelegateWallFrame</text>
</a>
</g>
</g>
<!-- Node11&#45;&gt;Node12 -->
<g id="edge12_Node000011_Node000012" class="edge">
<title>Node11&#45;&gt;Node12</title>
<g id="a_edge12_Node000011_Node000012"><a xlink:title=" ">
<path fill="none" stroke="#63b8ff" d="M942.24,-136.4C950.72,-137.4 959.37,-138.43 967.94,-139.44"/>
<polygon fill="#63b8ff" stroke="#63b8ff" points="967.61,-142.92 977.95,-140.62 968.43,-135.97 967.61,-142.92"/>
</a>
</g>
</g>
<!-- Node13 -->
<g id="Node000013" class="node">
<title>Node13</title>
<g id="a_Node000013"><a xlink:href="../../d3/de2/classTerraria_1_1ModLoader_1_1WallLoader_a52a7457356cd330af2425e371a0cdc49.html#a52a7457356cd330af2425e371a0cdc49" target="_top" xlink:title="Gets the ModWall instance with the given type. If no ModWall with the given type exists,...">
<polygon fill="white" stroke="#666666" points="1147,-117.5 978,-117.5 978,-87.5 1147,-87.5 1147,-117.5"/>
<text text-anchor="start" x="986" y="-105.5" font-family="Helvetica,sans-Serif" font-size="10.00">Terraria.ModLoader.WallLoader.</text>
<text text-anchor="middle" x="1062.5" y="-94.5" font-family="Helvetica,sans-Serif" font-size="10.00">GetWall</text>
</a>
</g>
</g>
<!-- Node11&#45;&gt;Node13 -->
<g id="edge13_Node000011_Node000013" class="edge">
<title>Node11&#45;&gt;Node13</title>
<g id="a_edge13_Node000011_Node000013"><a xlink:title=" ">
<path fill="none" stroke="#63b8ff" d="M942.24,-116.6C950.72,-115.6 959.37,-114.57 967.94,-113.56"/>
<polygon fill="#63b8ff" stroke="#63b8ff" points="968.43,-117.03 977.95,-112.38 967.61,-110.08 968.43,-117.03"/>
</a>
</g>
</g>
<!-- Node18 -->
<g id="Node000018" class="node">
<title>Node18</title>
<g id="a_Node000018"><a xlink:href="../../d3/d09/classTerraria_1_1WorldBuilding_1_1ShapeData_a7bda19029dd0b4a9ddc77d7c1345019e.html#a7bda19029dd0b4a9ddc77d7c1345019e" target="_top" xlink:title=" ">
<polygon fill="white" stroke="#666666" points="550,-117.5 393,-117.5 393,-87.5 550,-87.5 550,-117.5"/>
<text text-anchor="start" x="401" y="-105.5" font-family="Helvetica,sans-Serif" font-size="10.00">Terraria.WorldBuilding.Shape</text>
<text text-anchor="middle" x="471.5" y="-94.5" font-family="Helvetica,sans-Serif" font-size="10.00">Data.Add</text>
</a>
</g>
</g>
<!-- Node17&#45;&gt;Node18 -->
<g id="edge18_Node000017_Node000018" class="edge">
<title>Node17&#45;&gt;Node18</title>
<g id="a_edge18_Node000017_Node000018"><a xlink:title=" ">
<path fill="none" stroke="#63b8ff" d="M352.6,-102.5C362.44,-102.5 372.63,-102.5 382.72,-102.5"/>
<polygon fill="#63b8ff" stroke="#63b8ff" points="382.74,-106 392.74,-102.5 382.74,-99 382.74,-106"/>
</a>
</g>
</g>
<!-- Node19 -->
<g id="Node000019" class="node">
<title>Node19</title>
<g id="a_Node000019"><a xlink:href="../../db/d55/classTerraria_1_1WorldBuilding_1_1GenAction_ad0df0d8109785c56ef228c37ebf88181.html#ad0df0d8109785c56ef228c37ebf88181" target="_top" xlink:title=" ">
<polygon fill="white" stroke="#666666" points="544.5,-69.5 398.5,-69.5 398.5,-39.5 544.5,-39.5 544.5,-69.5"/>
<text text-anchor="start" x="406.5" y="-57.5" font-family="Helvetica,sans-Serif" font-size="10.00">Terraria.WorldBuilding.Gen</text>
<text text-anchor="middle" x="471.5" y="-46.5" font-family="Helvetica,sans-Serif" font-size="10.00">Action.Apply</text>
</a>
</g>
</g>
<!-- Node17&#45;&gt;Node19 -->
<g id="edge19_Node000017_Node000019" class="edge">
<title>Node17&#45;&gt;Node19</title>
<g id="a_edge19_Node000017_Node000019"><a xlink:title=" ">
<path fill="none" stroke="#63b8ff" d="M340.1,-87.44C359.55,-82.53 381.31,-77.03 401.4,-71.96"/>
<polygon fill="#63b8ff" stroke="#63b8ff" points="402.28,-75.35 411.12,-69.5 400.56,-68.56 402.28,-75.35"/>
</a>
</g>
</g>
</g>
</svg>
