<?xml version="1.0" encoding="UTF-8" standalone="no"?>
<!DOCTYPE svg PUBLIC "-//W3C//DTD SVG 1.1//EN"
 "http://www.w3.org/Graphics/SVG/1.1/DTD/svg11.dtd">
<!-- Generated by graphviz version 2.43.0 (0)
 -->
<!-- Title: Terraria.GameContent.Generation.TrackGenerator.CalculateStateForLocation Pages: 1 -->
<svg width="655pt" height="172pt"
 viewBox="0.00 0.00 655.00 171.50" xmlns="http://www.w3.org/2000/svg" xmlns:xlink="http://www.w3.org/1999/xlink">
<g id="graph0" class="graph" transform="scale(1 1) rotate(0) translate(4 167.5)">
<title>Terraria.GameContent.Generation.TrackGenerator.CalculateStateForLocation</title>
<!-- Node1 -->
<g id="Node000001" class="node">
<title>Node1</title>
<g id="a_Node000001"><a xlink:title=" ">
<polygon fill="#999999" stroke="#666666" points="221,-91.5 0,-91.5 0,-61.5 221,-61.5 221,-91.5"/>
<text text-anchor="start" x="8" y="-79.5" font-family="Helvetica,sans-Serif" font-size="10.00">Terraria.GameContent.Generation.</text>
<text text-anchor="middle" x="110.5" y="-68.5" font-family="Helvetica,sans-Serif" font-size="10.00">TrackGenerator.CalculateStateForLocation</text>
</a>
</g>
</g>
<!-- Node2 -->
<g id="Node000002" class="node">
<title>Node2</title>
<g id="a_Node000002"><a xlink:href="../../db/d97/classTerraria_1_1GameContent_1_1Generation_1_1TrackGenerator_a5e3334a1c83184dd0ac6e67763a0a9e1.html#a5e3334a1c83184dd0ac6e67763a0a9e1" target="_top" xlink:title=" ">
<polygon fill="white" stroke="#666666" points="441,-163.5 257,-163.5 257,-133.5 441,-133.5 441,-163.5"/>
<text text-anchor="start" x="265" y="-151.5" font-family="Helvetica,sans-Serif" font-size="10.00">Terraria.GameContent.Generation.</text>
<text text-anchor="middle" x="349" y="-140.5" font-family="Helvetica,sans-Serif" font-size="10.00">TrackGenerator.IsLocationInvalid</text>
</a>
</g>
</g>
<!-- Node1&#45;&gt;Node2 -->
<g id="edge1_Node000001_Node000002" class="edge">
<title>Node1&#45;&gt;Node2</title>
<g id="a_edge1_Node000001_Node000002"><a xlink:title=" ">
<path fill="none" stroke="#63b8ff" d="M154.89,-91.58C183.71,-101.41 222.44,-114.25 257,-124.5 264,-126.58 271.33,-128.66 278.66,-130.68"/>
<polygon fill="#63b8ff" stroke="#63b8ff" points="278.06,-134.14 288.62,-133.4 279.9,-127.39 278.06,-134.14"/>
</a>
</g>
</g>
<!-- Node4 -->
<g id="Node000004" class="node">
<title>Node4</title>
<g id="a_Node000004"><a xlink:href="../../db/d97/classTerraria_1_1GameContent_1_1Generation_1_1TrackGenerator_afc1bc4d96ae0b7e498ce2c4c031b3292.html#afc1bc4d96ae0b7e498ce2c4c031b3292" target="_top" xlink:title=" ">
<polygon fill="white" stroke="#666666" points="441,-115.5 257,-115.5 257,-85.5 441,-85.5 441,-115.5"/>
<text text-anchor="start" x="265" y="-103.5" font-family="Helvetica,sans-Serif" font-size="10.00">Terraria.GameContent.Generation.</text>
<text text-anchor="middle" x="349" y="-92.5" font-family="Helvetica,sans-Serif" font-size="10.00">TrackGenerator.IsMinecartTrack</text>
</a>
</g>
</g>
<!-- Node1&#45;&gt;Node4 -->
<g id="edge3_Node000001_Node000004" class="edge">
<title>Node1&#45;&gt;Node4</title>
<g id="a_edge3_Node000001_Node000004"><a xlink:title=" ">
<path fill="none" stroke="#63b8ff" d="M221.1,-87.62C229.69,-88.49 238.35,-89.37 246.89,-90.24"/>
<polygon fill="#63b8ff" stroke="#63b8ff" points="246.54,-93.72 256.85,-91.25 247.25,-86.76 246.54,-93.72"/>
</a>
</g>
</g>
<!-- Node5 -->
<g id="Node000005" class="node">
<title>Node5</title>
<g id="a_Node000005"><a xlink:href="../../de/da1/classTerraria_1_1WorldGen_afb31d653d24d0f4a9e3e9988273fa4e8.html#afb31d653d24d0f4a9e3e9988273fa4e8" target="_top" xlink:title=" ">
<polygon fill="white" stroke="#666666" points="415.5,-67.5 282.5,-67.5 282.5,-37.5 415.5,-37.5 415.5,-67.5"/>
<text text-anchor="start" x="290.5" y="-55.5" font-family="Helvetica,sans-Serif" font-size="10.00">Terraria.WorldGen.IsTile</text>
<text text-anchor="middle" x="349" y="-44.5" font-family="Helvetica,sans-Serif" font-size="10.00">Nearby</text>
</a>
</g>
</g>
<!-- Node1&#45;&gt;Node5 -->
<g id="edge4_Node000001_Node000005" class="edge">
<title>Node1&#45;&gt;Node5</title>
<g id="a_edge4_Node000001_Node000005"><a xlink:title=" ">
<path fill="none" stroke="#63b8ff" d="M221.1,-65.38C238.41,-63.62 255.97,-61.84 272.28,-60.18"/>
<polygon fill="#63b8ff" stroke="#63b8ff" points="272.67,-63.66 282.26,-59.17 271.96,-56.7 272.67,-63.66"/>
</a>
</g>
</g>
<!-- Node7 -->
<g id="Node000007" class="node">
<title>Node7</title>
<g id="a_Node000007"><a xlink:href="../../de/da1/classTerraria_1_1WorldGen_a1fd0f41d2e75a087307174bc5e47823e.html#a1fd0f41d2e75a087307174bc5e47823e" target="_top" xlink:title=" ">
<polygon fill="white" stroke="#666666" points="423.5,-19 274.5,-19 274.5,0 423.5,0 423.5,-19"/>
<text text-anchor="middle" x="349" y="-7" font-family="Helvetica,sans-Serif" font-size="10.00">Terraria.WorldGen.SolidTile</text>
</a>
</g>
</g>
<!-- Node1&#45;&gt;Node7 -->
<g id="edge6_Node000001_Node000007" class="edge">
<title>Node1&#45;&gt;Node7</title>
<g id="a_edge6_Node000001_Node000007"><a xlink:title=" ">
<path fill="none" stroke="#63b8ff" d="M152.83,-61.48C181.75,-51.32 221.42,-38.05 257,-28.5 266.7,-25.9 277.07,-23.43 287.2,-21.2"/>
<polygon fill="#63b8ff" stroke="#63b8ff" points="288.18,-24.57 297.22,-19.05 286.71,-17.73 288.18,-24.57"/>
</a>
</g>
</g>
<!-- Node3 -->
<g id="Node000003" class="node">
<title>Node3</title>
<g id="a_Node000003"><a xlink:href="../../de/da1/classTerraria_1_1WorldGen_a78bf7054a60a560ab14394fb2cc88f03.html#a78bf7054a60a560ab14394fb2cc88f03" target="_top" xlink:title=" ">
<polygon fill="white" stroke="#666666" points="647,-158 477,-158 477,-139 647,-139 647,-158"/>
<text text-anchor="middle" x="562" y="-146" font-family="Helvetica,sans-Serif" font-size="10.00">Terraria.WorldGen.oceanDepths</text>
</a>
</g>
</g>
<!-- Node2&#45;&gt;Node3 -->
<g id="edge2_Node000002_Node000003" class="edge">
<title>Node2&#45;&gt;Node3</title>
<g id="a_edge2_Node000002_Node000003"><a xlink:title=" ">
<path fill="none" stroke="#63b8ff" d="M441.01,-148.5C449.59,-148.5 458.3,-148.5 466.91,-148.5"/>
<polygon fill="#63b8ff" stroke="#63b8ff" points="466.95,-152 476.95,-148.5 466.95,-145 466.95,-152"/>
</a>
</g>
</g>
<!-- Node6 -->
<g id="Node000006" class="node">
<title>Node6</title>
<g id="a_Node000006"><a xlink:href="../../de/da1/classTerraria_1_1WorldGen_adf59bfc3a2909993f72f0c69a5eaf553.html#adf59bfc3a2909993f72f0c69a5eaf553" target="_top" xlink:title=" ">
<polygon fill="white" stroke="#666666" points="633.5,-62 490.5,-62 490.5,-43 633.5,-43 633.5,-62"/>
<text text-anchor="middle" x="562" y="-50" font-family="Helvetica,sans-Serif" font-size="10.00">Terraria.WorldGen.InWorld</text>
</a>
</g>
</g>
<!-- Node5&#45;&gt;Node6 -->
<g id="edge5_Node000005_Node000006" class="edge">
<title>Node5&#45;&gt;Node6</title>
<g id="a_edge5_Node000005_Node000006"><a xlink:title=" ">
<path fill="none" stroke="#63b8ff" d="M415.61,-52.5C436.07,-52.5 458.89,-52.5 480.27,-52.5"/>
<polygon fill="#63b8ff" stroke="#63b8ff" points="480.31,-56 490.31,-52.5 480.31,-49 480.31,-56"/>
</a>
</g>
</g>
</g>
</svg>
