<?xml version="1.0" encoding="UTF-8" standalone="no"?>
<!DOCTYPE svg PUBLIC "-//W3C//DTD SVG 1.1//EN"
 "http://www.w3.org/Graphics/SVG/1.1/DTD/svg11.dtd">
<!-- Generated by graphviz version 2.43.0 (0)
 -->
<!-- Title: Terraria.GameContent.UI.Elements.UIBestiaryEntryInfoPage.UIBestiaryEntryInfoPage Pages: 1 -->
<svg width="800pt" height="449pt"
 viewBox="0.00 0.00 800.00 448.67" xmlns="http://www.w3.org/2000/svg" xmlns:xlink="http://www.w3.org/1999/xlink">
<g id="graph0" class="graph" transform="scale(1 1) rotate(0) translate(4 444.67)">
<title>Terraria.GameContent.UI.Elements.UIBestiaryEntryInfoPage.UIBestiaryEntryInfoPage</title>
<!-- Node1 -->
<g id="Node000001" class="node">
<title>Node1</title>
<g id="a_Node000001"><a xlink:title=" ">
<polygon fill="#999999" stroke="#666666" points="161,-256.51 0,-256.51 0,-215.51 161,-215.51 161,-256.51"/>
<text text-anchor="start" x="8" y="-244.51" font-family="Helvetica,sans-Serif" font-size="10.00">Terraria.GameContent.UI.</text>
<text text-anchor="start" x="8" y="-233.51" font-family="Helvetica,sans-Serif" font-size="10.00">Elements.UIBestiaryEntryInfo</text>
<text text-anchor="middle" x="80.5" y="-222.51" font-family="Helvetica,sans-Serif" font-size="10.00">Page.UIBestiaryEntryInfoPage</text>
</a>
</g>
</g>
<!-- Node2 -->
<g id="Node000002" class="node">
<title>Node2</title>
<g id="a_Node000002"><a xlink:href="../../d7/d72/classTerraria_1_1UI_1_1UIElement_a4f78a3ab59b3dffcdc5b68328a46f103.html#a4f78a3ab59b3dffcdc5b68328a46f103" target="_top" xlink:title=" ">
<polygon fill="white" stroke="#666666" points="588.5,-396.51 427.5,-396.51 427.5,-377.51 588.5,-377.51 588.5,-396.51"/>
<text text-anchor="middle" x="508" y="-384.51" font-family="Helvetica,sans-Serif" font-size="10.00">Terraria.UI.UIElement.Append</text>
</a>
</g>
</g>
<!-- Node1&#45;&gt;Node2 -->
<g id="edge1_Node000001_Node000002" class="edge">
<title>Node1&#45;&gt;Node2</title>
<g id="a_edge1_Node000001_Node000002"><a xlink:title=" ">
<path fill="none" stroke="#63b8ff" d="M87.38,-256.6C99.95,-296.23 133.59,-382.25 197,-417.01 288.66,-467.25 418.66,-424.5 476.83,-400.56"/>
<polygon fill="#63b8ff" stroke="#63b8ff" points="478.33,-403.72 486.18,-396.61 475.61,-397.28 478.33,-403.72"/>
</a>
</g>
</g>
<!-- Node3 -->
<g id="Node000003" class="node">
<title>Node3</title>
<g id="a_Node000003"><a xlink:href="../../d4/d41/classTerraria_1_1GameContent_1_1UI_1_1Elements_1_1UIBestiaryEntryInfoPage_ad9bb3b012a224391c765a9662dab656e.html#ad9bb3b012a224391c765a9662dab656e" target="_top" xlink:title=" ">
<polygon fill="white" stroke="#666666" points="385,-407.51 197,-407.51 197,-366.51 385,-366.51 385,-407.51"/>
<text text-anchor="start" x="205" y="-395.51" font-family="Helvetica,sans-Serif" font-size="10.00">Terraria.GameContent.UI.</text>
<text text-anchor="start" x="205" y="-384.51" font-family="Helvetica,sans-Serif" font-size="10.00">Elements.UIBestiaryEntryInfo</text>
<text text-anchor="middle" x="291" y="-373.51" font-family="Helvetica,sans-Serif" font-size="10.00">Page.AppendBorderOverEverything</text>
</a>
</g>
</g>
<!-- Node1&#45;&gt;Node3 -->
<g id="edge2_Node000001_Node000003" class="edge">
<title>Node1&#45;&gt;Node3</title>
<g id="a_edge2_Node000001_Node000003"><a xlink:title=" ">
<path fill="none" stroke="#63b8ff" d="M95.86,-256.81C115.62,-283.91 153.69,-331 197,-358.01 199.2,-359.38 201.47,-360.69 203.79,-361.94"/>
<polygon fill="#63b8ff" stroke="#63b8ff" points="202.46,-365.19 212.97,-366.49 205.56,-358.91 202.46,-365.19"/>
</a>
</g>
</g>
<!-- Node4 -->
<g id="Node000004" class="node">
<title>Node4</title>
<g id="a_Node000004"><a xlink:href="../../d4/d41/classTerraria_1_1GameContent_1_1UI_1_1Elements_1_1UIBestiaryEntryInfoPage_abc99a72c99baa95c1484209667130112.html#abc99a72c99baa95c1484209667130112" target="_top" xlink:title=" ">
<polygon fill="white" stroke="#666666" points="371.5,-348.51 210.5,-348.51 210.5,-307.51 371.5,-307.51 371.5,-348.51"/>
<text text-anchor="start" x="218.5" y="-336.51" font-family="Helvetica,sans-Serif" font-size="10.00">Terraria.GameContent.UI.</text>
<text text-anchor="start" x="218.5" y="-325.51" font-family="Helvetica,sans-Serif" font-size="10.00">Elements.UIBestiaryEntryInfo</text>
<text text-anchor="middle" x="291" y="-314.51" font-family="Helvetica,sans-Serif" font-size="10.00">Page.CheckScrollBar</text>
</a>
</g>
</g>
<!-- Node1&#45;&gt;Node4 -->
<g id="edge4_Node000001_Node000004" class="edge">
<title>Node1&#45;&gt;Node4</title>
<g id="a_edge4_Node000001_Node000004"><a xlink:title=" ">
<path fill="none" stroke="#63b8ff" d="M120.87,-256.64C142.99,-267.92 171.25,-281.84 197,-293.01 205.37,-296.64 214.25,-300.26 223.07,-303.72"/>
<polygon fill="#63b8ff" stroke="#63b8ff" points="222,-307.06 232.59,-307.41 224.53,-300.54 222,-307.06"/>
</a>
</g>
</g>
<!-- Node6 -->
<g id="Node000006" class="node">
<title>Node6</title>
<g id="a_Node000006"><a xlink:href="../../d8/d74/structTerraria_1_1UI_1_1StyleDimension_a93e6acf229427c6435d7ee83958efba0.html#a93e6acf229427c6435d7ee83958efba0" target="_top" xlink:title=" ">
<polygon fill="white" stroke="#666666" points="591,-291.51 425,-291.51 425,-272.51 591,-272.51 591,-291.51"/>
<text text-anchor="middle" x="508" y="-279.51" font-family="Helvetica,sans-Serif" font-size="10.00">Terraria.UI.StyleDimension.Set</text>
</a>
</g>
</g>
<!-- Node1&#45;&gt;Node6 -->
<g id="edge11_Node000001_Node000006" class="edge">
<title>Node1&#45;&gt;Node6</title>
<g id="a_edge11_Node000001_Node000006"><a xlink:title=" ">
<path fill="none" stroke="#63b8ff" d="M161.1,-254C173.08,-256.29 185.34,-258.39 197,-260.01 269.77,-270.1 352.84,-275.68 414.65,-278.69"/>
<polygon fill="#63b8ff" stroke="#63b8ff" points="414.62,-282.2 424.78,-279.17 414.95,-275.2 414.62,-282.2"/>
</a>
</g>
</g>
<!-- Node7 -->
<g id="Node000007" class="node">
<title>Node7</title>
<g id="a_Node000007"><a xlink:href="../../d8/d74/structTerraria_1_1UI_1_1StyleDimension_ad650694a90519412f5f2ba2dd5569b44.html#ad650694a90519412f5f2ba2dd5569b44" target="_top" xlink:title=" ">
<polygon fill="white" stroke="#666666" points="366,-251.01 216,-251.01 216,-221.01 366,-221.01 366,-251.01"/>
<text text-anchor="start" x="224" y="-239.01" font-family="Helvetica,sans-Serif" font-size="10.00">Terraria.UI.StyleDimension.</text>
<text text-anchor="middle" x="291" y="-228.01" font-family="Helvetica,sans-Serif" font-size="10.00">FromPixelsAndPercent</text>
</a>
</g>
</g>
<!-- Node1&#45;&gt;Node7 -->
<g id="edge8_Node000001_Node000007" class="edge">
<title>Node1&#45;&gt;Node7</title>
<g id="a_edge8_Node000001_Node000007"><a xlink:title=" ">
<path fill="none" stroke="#63b8ff" d="M161.22,-236.01C175.79,-236.01 191.04,-236.01 205.74,-236.01"/>
<polygon fill="#63b8ff" stroke="#63b8ff" points="205.81,-239.51 215.81,-236.01 205.81,-232.51 205.81,-239.51"/>
</a>
</g>
</g>
<!-- Node9 -->
<g id="Node000009" class="node">
<title>Node9</title>
<g id="a_Node000009"><a xlink:href="../../d4/d41/classTerraria_1_1GameContent_1_1UI_1_1Elements_1_1UIBestiaryEntryInfoPage_a0f4a3e1f4acaa734e83b711cae152c8e.html#a0f4a3e1f4acaa734e83b711cae152c8e" target="_top" xlink:title=" ">
<polygon fill="white" stroke="#666666" points="375.5,-202.51 206.5,-202.51 206.5,-161.51 375.5,-161.51 375.5,-202.51"/>
<text text-anchor="start" x="214.5" y="-190.51" font-family="Helvetica,sans-Serif" font-size="10.00">Terraria.GameContent.UI.</text>
<text text-anchor="start" x="214.5" y="-179.51" font-family="Helvetica,sans-Serif" font-size="10.00">Elements.UIBestiaryEntryInfo</text>
<text text-anchor="middle" x="291" y="-168.51" font-family="Helvetica,sans-Serif" font-size="10.00">Page.ManualIfnoSortingMethod</text>
</a>
</g>
</g>
<!-- Node1&#45;&gt;Node9 -->
<g id="edge10_Node000001_Node000009" class="edge">
<title>Node1&#45;&gt;Node9</title>
<g id="a_edge10_Node000001_Node000009"><a xlink:title=" ">
<path fill="none" stroke="#63b8ff" d="M160.92,-215.44C173.94,-212.06 187.51,-208.55 200.75,-205.12"/>
<polygon fill="#63b8ff" stroke="#63b8ff" points="202,-208.41 210.8,-202.52 200.24,-201.64 202,-208.41"/>
</a>
</g>
</g>
<!-- Node10 -->
<g id="Node000010" class="node">
<title>Node10</title>
<g id="a_Node000010"><a xlink:href="../../d7/d72/classTerraria_1_1UI_1_1UIElement_af0511f4ddf033fdbf547690740e19d34.html#af0511f4ddf033fdbf547690740e19d34" target="_top" xlink:title=" ">
<polygon fill="white" stroke="#666666" points="361,-143.01 221,-143.01 221,-113.01 361,-113.01 361,-143.01"/>
<text text-anchor="start" x="229" y="-131.01" font-family="Helvetica,sans-Serif" font-size="10.00">Terraria.UI.UIElement.Set</text>
<text text-anchor="middle" x="291" y="-120.01" font-family="Helvetica,sans-Serif" font-size="10.00">Padding</text>
</a>
</g>
</g>
<!-- Node1&#45;&gt;Node10 -->
<g id="edge12_Node000001_Node000010" class="edge">
<title>Node1&#45;&gt;Node10</title>
<g id="a_edge12_Node000001_Node000010"><a xlink:title=" ">
<path fill="none" stroke="#63b8ff" d="M104.67,-215.46C126.92,-196.72 162.2,-169.51 197,-153.01 202,-150.63 207.27,-148.46 212.65,-146.46"/>
<polygon fill="#63b8ff" stroke="#63b8ff" points="214.11,-149.66 222.41,-143.07 211.82,-143.05 214.11,-149.66"/>
</a>
</g>
</g>
<!-- Node11 -->
<g id="Node000011" class="node">
<title>Node11</title>
<g id="a_Node000011"><a xlink:href="../../d5/dda/classTerraria_1_1GameContent_1_1UI_1_1Elements_1_1UIList_aca7da1bc33b4d4e44a33cef5ee3e5f13.html#aca7da1bc33b4d4e44a33cef5ee3e5f13" target="_top" xlink:title=" ">
<polygon fill="white" stroke="#666666" points="368.5,-95.01 213.5,-95.01 213.5,-65.01 368.5,-65.01 368.5,-95.01"/>
<text text-anchor="start" x="221.5" y="-83.01" font-family="Helvetica,sans-Serif" font-size="10.00">Terraria.GameContent.UI.</text>
<text text-anchor="middle" x="291" y="-72.01" font-family="Helvetica,sans-Serif" font-size="10.00">Elements.UIList.SetScrollbar</text>
</a>
</g>
</g>
<!-- Node1&#45;&gt;Node11 -->
<g id="edge13_Node000001_Node000011" class="edge">
<title>Node1&#45;&gt;Node11</title>
<g id="a_edge13_Node000001_Node000011"><a xlink:title=" ">
<path fill="none" stroke="#63b8ff" d="M93.97,-215.13C112.62,-185.74 150.6,-132.6 197,-104.01 199.77,-102.3 202.65,-100.72 205.62,-99.24"/>
<polygon fill="#63b8ff" stroke="#63b8ff" points="207.06,-102.44 214.75,-95.15 204.19,-96.05 207.06,-102.44"/>
</a>
</g>
</g>
<!-- Node14 -->
<g id="Node000014" class="node">
<title>Node14</title>
<g id="a_Node000014"><a xlink:href="../../d6/dea/classTerraria_1_1GameContent_1_1UI_1_1Elements_1_1UIScrollbar_ab94392501a400e8db7dbba6c8294ebff.html#ab94392501a400e8db7dbba6c8294ebff" target="_top" xlink:title=" ">
<polygon fill="white" stroke="#666666" points="792,-52.01 631,-52.01 631,-22.01 792,-22.01 792,-52.01"/>
<text text-anchor="start" x="639" y="-40.01" font-family="Helvetica,sans-Serif" font-size="10.00">Terraria.GameContent.UI.</text>
<text text-anchor="middle" x="711.5" y="-29.01" font-family="Helvetica,sans-Serif" font-size="10.00">Elements.UIScrollbar.SetView</text>
</a>
</g>
</g>
<!-- Node1&#45;&gt;Node14 -->
<g id="edge17_Node000001_Node000014" class="edge">
<title>Node1&#45;&gt;Node14</title>
<g id="a_edge17_Node000001_Node000014"><a xlink:title=" ">
<path fill="none" stroke="#63b8ff" d="M87.63,-215.43C100.54,-176.23 134.6,-91.62 197,-56.01 336.42,23.57 533.55,0.66 638.38,-19.97"/>
<polygon fill="#63b8ff" stroke="#63b8ff" points="637.74,-23.41 648.23,-21.96 639.12,-16.55 637.74,-23.41"/>
</a>
</g>
</g>
<!-- Node3&#45;&gt;Node2 -->
<g id="edge3_Node000003_Node000002" class="edge">
<title>Node3&#45;&gt;Node2</title>
<g id="a_edge3_Node000003_Node000002"><a xlink:title=" ">
<path fill="none" stroke="#63b8ff" d="M385.05,-387.01C395.72,-387.01 406.57,-387.01 417.19,-387.01"/>
<polygon fill="#63b8ff" stroke="#63b8ff" points="417.29,-390.51 427.29,-387.01 417.29,-383.51 417.29,-390.51"/>
</a>
</g>
</g>
<!-- Node4&#45;&gt;Node2 -->
<g id="edge5_Node000004_Node000002" class="edge">
<title>Node4&#45;&gt;Node2</title>
<g id="a_edge5_Node000004_Node000002"><a xlink:title=" ">
<path fill="none" stroke="#63b8ff" d="M366.89,-348.56C398.74,-357.3 434.79,-367.19 462.35,-374.75"/>
<polygon fill="#63b8ff" stroke="#63b8ff" points="461.53,-378.16 472.1,-377.43 463.38,-371.41 461.53,-378.16"/>
</a>
</g>
</g>
<!-- Node5 -->
<g id="Node000005" class="node">
<title>Node5</title>
<g id="a_Node000005"><a xlink:href="../../d7/d72/classTerraria_1_1UI_1_1UIElement_ac407afd27d2b68e6c175951c22e263b5.html#ac407afd27d2b68e6c175951c22e263b5" target="_top" xlink:title=" ">
<polygon fill="white" stroke="#666666" points="590,-343.01 426,-343.01 426,-313.01 590,-313.01 590,-343.01"/>
<text text-anchor="start" x="434" y="-331.01" font-family="Helvetica,sans-Serif" font-size="10.00">Terraria.UI.UIElement.Remove</text>
<text text-anchor="middle" x="508" y="-320.01" font-family="Helvetica,sans-Serif" font-size="10.00">Child</text>
</a>
</g>
</g>
<!-- Node4&#45;&gt;Node5 -->
<g id="edge6_Node000004_Node000005" class="edge">
<title>Node4&#45;&gt;Node5</title>
<g id="a_edge6_Node000004_Node000005"><a xlink:title=" ">
<path fill="none" stroke="#63b8ff" d="M371.75,-328.01C386.12,-328.01 401.2,-328.01 415.87,-328.01"/>
<polygon fill="#63b8ff" stroke="#63b8ff" points="415.94,-331.51 425.94,-328.01 415.94,-324.51 415.94,-331.51"/>
</a>
</g>
</g>
<!-- Node4&#45;&gt;Node6 -->
<g id="edge7_Node000004_Node000006" class="edge">
<title>Node4&#45;&gt;Node6</title>
<g id="a_edge7_Node000004_Node000006"><a xlink:title=" ">
<path fill="none" stroke="#63b8ff" d="M371.75,-310.94C398.64,-305.19 428.02,-298.91 452.5,-293.67"/>
<polygon fill="#63b8ff" stroke="#63b8ff" points="453.27,-297.08 462.32,-291.57 451.81,-290.24 453.27,-297.08"/>
</a>
</g>
</g>
<!-- Node8 -->
<g id="Node000008" class="node">
<title>Node8</title>
<g id="a_Node000008"><a xlink:href="../../d8/d74/structTerraria_1_1UI_1_1StyleDimension_aa443ecdcb3b3f8237c37aac947d9ef9d.html#aa443ecdcb3b3f8237c37aac947d9ef9d" target="_top" xlink:title=" ">
<polygon fill="white" stroke="#666666" points="583,-251.01 433,-251.01 433,-221.01 583,-221.01 583,-251.01"/>
<text text-anchor="start" x="441" y="-239.01" font-family="Helvetica,sans-Serif" font-size="10.00">Terraria.UI.StyleDimension.</text>
<text text-anchor="middle" x="508" y="-228.01" font-family="Helvetica,sans-Serif" font-size="10.00">StyleDimension</text>
</a>
</g>
</g>
<!-- Node7&#45;&gt;Node8 -->
<g id="edge9_Node000007_Node000008" class="edge">
<title>Node7&#45;&gt;Node8</title>
<g id="a_edge9_Node000007_Node000008"><a xlink:title=" ">
<path fill="none" stroke="#63b8ff" d="M366.29,-236.01C384.42,-236.01 403.94,-236.01 422.51,-236.01"/>
<polygon fill="#63b8ff" stroke="#63b8ff" points="422.71,-239.51 432.71,-236.01 422.71,-232.51 422.71,-239.51"/>
</a>
</g>
</g>
<!-- Node12 -->
<g id="Node000012" class="node">
<title>Node12</title>
<g id="a_Node000012"><a xlink:href="../../d5/dda/classTerraria_1_1GameContent_1_1UI_1_1Elements_1_1UIList_a60a4c2955855c090a210914877fd7705.html#a60a4c2955855c090a210914877fd7705" target="_top" xlink:title=" ">
<polygon fill="white" stroke="#666666" points="595,-95.01 421,-95.01 421,-65.01 595,-65.01 595,-95.01"/>
<text text-anchor="start" x="429" y="-83.01" font-family="Helvetica,sans-Serif" font-size="10.00">Terraria.GameContent.UI.</text>
<text text-anchor="middle" x="508" y="-72.01" font-family="Helvetica,sans-Serif" font-size="10.00">Elements.UIList.UpdateScrollbar</text>
</a>
</g>
</g>
<!-- Node11&#45;&gt;Node12 -->
<g id="edge14_Node000011_Node000012" class="edge">
<title>Node11&#45;&gt;Node12</title>
<g id="a_edge14_Node000011_Node000012"><a xlink:title=" ">
<path fill="none" stroke="#63b8ff" d="M368.71,-80.01C382.3,-80.01 396.6,-80.01 410.64,-80.01"/>
<polygon fill="#63b8ff" stroke="#63b8ff" points="410.81,-83.51 420.81,-80.01 410.81,-76.51 410.81,-83.51"/>
</a>
</g>
</g>
<!-- Node13 -->
<g id="Node000013" class="node">
<title>Node13</title>
<g id="a_Node000013"><a xlink:href="../../d7/d72/classTerraria_1_1UI_1_1UIElement_a5ad03f5ce0e776511a3b7e4a29e16caf.html#a5ad03f5ce0e776511a3b7e4a29e16caf" target="_top" xlink:title=" ">
<polygon fill="white" stroke="#666666" points="782,-100.01 641,-100.01 641,-70.01 782,-70.01 782,-100.01"/>
<text text-anchor="start" x="649" y="-88.01" font-family="Helvetica,sans-Serif" font-size="10.00">Terraria.UI.UIElement.Get</text>
<text text-anchor="middle" x="711.5" y="-77.01" font-family="Helvetica,sans-Serif" font-size="10.00">InnerDimensions</text>
</a>
</g>
</g>
<!-- Node12&#45;&gt;Node13 -->
<g id="edge15_Node000012_Node000013" class="edge">
<title>Node12&#45;&gt;Node13</title>
<g id="a_edge15_Node000012_Node000013"><a xlink:title=" ">
<path fill="none" stroke="#63b8ff" d="M595.04,-82.14C606.87,-82.43 618.98,-82.74 630.69,-83.03"/>
<polygon fill="#63b8ff" stroke="#63b8ff" points="630.78,-86.53 640.86,-83.28 630.95,-79.53 630.78,-86.53"/>
</a>
</g>
</g>
<!-- Node12&#45;&gt;Node14 -->
<g id="edge16_Node000012_Node000014" class="edge">
<title>Node12&#45;&gt;Node14</title>
<g id="a_edge16_Node000012_Node000014"><a xlink:title=" ">
<path fill="none" stroke="#63b8ff" d="M579.47,-64.97C595.89,-61.46 613.48,-57.71 630.28,-54.13"/>
<polygon fill="#63b8ff" stroke="#63b8ff" points="631.02,-57.55 640.06,-52.04 629.55,-50.7 631.02,-57.55"/>
</a>
</g>
</g>
</g>
</svg>
