<?xml version="1.0" encoding="UTF-8" standalone="no"?>
<!DOCTYPE svg PUBLIC "-//W3C//DTD SVG 1.1//EN"
 "http://www.w3.org/Graphics/SVG/1.1/DTD/svg11.dtd">
<!-- Generated by graphviz version 2.43.0 (0)
 -->
<!-- Title: Terraria.GameContent.UI.ResourceSets.PlayerResourceSetsManager.SetActiveFrameFromIndex Pages: 1 -->
<svg width="1109pt" height="167pt"
 viewBox="0.00 0.00 1109.00 167.00" xmlns="http://www.w3.org/2000/svg" xmlns:xlink="http://www.w3.org/1999/xlink">
<g id="graph0" class="graph" transform="scale(1 1) rotate(0) translate(4 163)">
<title>Terraria.GameContent.UI.ResourceSets.PlayerResourceSetsManager.SetActiveFrameFromIndex</title>
<!-- Node1 -->
<g id="Node000001" class="node">
<title>Node1</title>
<g id="a_Node000001"><a xlink:title=" ">
<polygon fill="#999999" stroke="#666666" points="1101,-129 910,-129 910,-88 1101,-88 1101,-129"/>
<text text-anchor="start" x="918" y="-117" font-family="Helvetica,sans-Serif" font-size="10.00">Terraria.GameContent.UI.</text>
<text text-anchor="start" x="918" y="-106" font-family="Helvetica,sans-Serif" font-size="10.00">ResourceSets.PlayerResourceSets</text>
<text text-anchor="middle" x="1005.5" y="-95" font-family="Helvetica,sans-Serif" font-size="10.00">Manager.SetActiveFrameFromIndex</text>
</a>
</g>
</g>
<!-- Node2 -->
<g id="Node000002" class="node">
<title>Node2</title>
<g id="a_Node000002"><a xlink:href="../../df/de4/classTerraria_1_1GameContent_1_1UI_1_1ResourceSets_1_1PlayerResourceSetsManager_a70f9f10d4abd94bf4f66c553071206bd.html#a70f9f10d4abd94bf4f66c553071206bd" target="_top" xlink:title=" ">
<polygon fill="white" stroke="#666666" points="874,-159 692,-159 692,-118 874,-118 874,-159"/>
<text text-anchor="start" x="700" y="-147" font-family="Helvetica,sans-Serif" font-size="10.00">Terraria.GameContent.UI.</text>
<text text-anchor="start" x="700" y="-136" font-family="Helvetica,sans-Serif" font-size="10.00">ResourceSets.PlayerResourceSets</text>
<text text-anchor="middle" x="783" y="-125" font-family="Helvetica,sans-Serif" font-size="10.00">Manager.CycleResourceSet</text>
</a>
</g>
</g>
<!-- Node1&#45;&gt;Node2 -->
<g id="edge1_Node000001_Node000002" class="edge">
<title>Node1&#45;&gt;Node2</title>
<g id="a_edge1_Node000001_Node000002"><a xlink:title=" ">
<path fill="none" stroke="#63b8ff" d="M899.72,-122.76C891.18,-123.92 882.59,-125.09 874.17,-126.23"/>
<polygon fill="#63b8ff" stroke="#63b8ff" points="900.27,-126.21 909.71,-121.4 899.33,-119.28 900.27,-126.21"/>
</a>
</g>
</g>
<!-- Node3 -->
<g id="Node000003" class="node">
<title>Node3</title>
<g id="a_Node000003"><a xlink:href="../../df/de4/classTerraria_1_1GameContent_1_1UI_1_1ResourceSets_1_1PlayerResourceSetsManager_a1c120e2420d0a02dfdcc9fbcaaf6989a.html#a1c120e2420d0a02dfdcc9fbcaaf6989a" target="_top" xlink:title=" ">
<polygon fill="white" stroke="#666666" points="874,-100 692,-100 692,-59 874,-59 874,-100"/>
<text text-anchor="start" x="700" y="-88" font-family="Helvetica,sans-Serif" font-size="10.00">Terraria.GameContent.UI.</text>
<text text-anchor="start" x="700" y="-77" font-family="Helvetica,sans-Serif" font-size="10.00">ResourceSets.PlayerResourceSets</text>
<text text-anchor="middle" x="783" y="-66" font-family="Helvetica,sans-Serif" font-size="10.00">Manager.SetActive</text>
</a>
</g>
</g>
<!-- Node1&#45;&gt;Node3 -->
<g id="edge2_Node000001_Node000003" class="edge">
<title>Node1&#45;&gt;Node3</title>
<g id="a_edge2_Node000001_Node000003"><a xlink:title=" ">
<path fill="none" stroke="#63b8ff" d="M899.72,-94.72C891.18,-93.6 882.59,-92.47 874.17,-91.36"/>
<polygon fill="#63b8ff" stroke="#63b8ff" points="899.34,-98.2 909.71,-96.03 900.25,-91.26 899.34,-98.2"/>
</a>
</g>
</g>
<!-- Node4 -->
<g id="Node000004" class="node">
<title>Node4</title>
<g id="a_Node000004"><a xlink:href="../../df/de4/classTerraria_1_1GameContent_1_1UI_1_1ResourceSets_1_1PlayerResourceSetsManager_aeddab2a079f6b401efb55d559d9c1892.html#aeddab2a079f6b401efb55d559d9c1892" target="_top" xlink:title=" ">
<polygon fill="white" stroke="#666666" points="637,-159 455,-159 455,-118 637,-118 637,-159"/>
<text text-anchor="start" x="463" y="-147" font-family="Helvetica,sans-Serif" font-size="10.00">Terraria.GameContent.UI.</text>
<text text-anchor="start" x="463" y="-136" font-family="Helvetica,sans-Serif" font-size="10.00">ResourceSets.PlayerResourceSets</text>
<text text-anchor="middle" x="546" y="-125" font-family="Helvetica,sans-Serif" font-size="10.00">Manager.ResetToVanilla</text>
</a>
</g>
</g>
<!-- Node3&#45;&gt;Node4 -->
<g id="edge3_Node000003_Node000004" class="edge">
<title>Node3&#45;&gt;Node4</title>
<g id="a_edge3_Node000003_Node000004"><a xlink:title=" ">
<path fill="none" stroke="#63b8ff" d="M690.31,-102.52C670.08,-107.6 648.78,-112.95 628.97,-117.92"/>
<polygon fill="#63b8ff" stroke="#63b8ff" points="691.29,-105.88 700.14,-100.05 689.59,-99.09 691.29,-105.88"/>
</a>
</g>
</g>
<!-- Node5 -->
<g id="Node000005" class="node">
<title>Node5</title>
<g id="a_Node000005"><a xlink:href="../../df/de4/classTerraria_1_1GameContent_1_1UI_1_1ResourceSets_1_1PlayerResourceSetsManager_ae753a81c60344b706570c73a89dc6c5b.html#ae753a81c60344b706570c73a89dc6c5b" target="_top" xlink:title=" ">
<polygon fill="white" stroke="#666666" points="654.5,-100 437.5,-100 437.5,-59 654.5,-59 654.5,-100"/>
<text text-anchor="start" x="445.5" y="-88" font-family="Helvetica,sans-Serif" font-size="10.00">Terraria.GameContent.UI.</text>
<text text-anchor="start" x="445.5" y="-77" font-family="Helvetica,sans-Serif" font-size="10.00">ResourceSets.PlayerResourceSets</text>
<text text-anchor="middle" x="546" y="-66" font-family="Helvetica,sans-Serif" font-size="10.00">Manager.SetActiveFromLoadedConfigKey</text>
</a>
</g>
</g>
<!-- Node3&#45;&gt;Node5 -->
<g id="edge4_Node000003_Node000005" class="edge">
<title>Node3&#45;&gt;Node5</title>
<g id="a_edge4_Node000003_Node000005"><a xlink:title=" ">
<path fill="none" stroke="#63b8ff" d="M681.75,-79.5C672.78,-79.5 663.67,-79.5 654.63,-79.5"/>
<polygon fill="#63b8ff" stroke="#63b8ff" points="681.81,-83 691.81,-79.5 681.81,-76 681.81,-83"/>
</a>
</g>
</g>
<!-- Node9 -->
<g id="Node000009" class="node">
<title>Node9</title>
<g id="a_Node000009"><a xlink:href="../../df/de4/classTerraria_1_1GameContent_1_1UI_1_1ResourceSets_1_1PlayerResourceSetsManager_a8644734e6ef959d42b56c69e23154f8b.html#a8644734e6ef959d42b56c69e23154f8b" target="_top" xlink:title=" ">
<polygon fill="white" stroke="#666666" points="656,-41 436,-41 436,0 656,0 656,-41"/>
<text text-anchor="start" x="444" y="-29" font-family="Helvetica,sans-Serif" font-size="10.00">Terraria.GameContent.UI.</text>
<text text-anchor="start" x="444" y="-18" font-family="Helvetica,sans-Serif" font-size="10.00">ResourceSets.PlayerResourceSets</text>
<text text-anchor="middle" x="546" y="-7" font-family="Helvetica,sans-Serif" font-size="10.00">Manager.SetActiveFromOriginalConfigKey</text>
</a>
</g>
</g>
<!-- Node3&#45;&gt;Node9 -->
<g id="edge8_Node000003_Node000009" class="edge">
<title>Node3&#45;&gt;Node9</title>
<g id="a_edge8_Node000003_Node000009"><a xlink:title=" ">
<path fill="none" stroke="#63b8ff" d="M690.31,-56.48C670.08,-51.4 648.78,-46.05 628.97,-41.08"/>
<polygon fill="#63b8ff" stroke="#63b8ff" points="689.59,-59.91 700.14,-58.95 691.29,-53.12 689.59,-59.91"/>
</a>
</g>
</g>
<!-- Node6 -->
<g id="Node000006" class="node">
<title>Node6</title>
<g id="a_Node000006"><a xlink:href="../../df/de4/classTerraria_1_1GameContent_1_1UI_1_1ResourceSets_1_1PlayerResourceSetsManager_af282de352e14e0d9027515c9593ee61d.html#af282de352e14e0d9027515c9593ee61d" target="_top" xlink:title=" ">
<polygon fill="white" stroke="#666666" points="400,-129 218,-129 218,-88 400,-88 400,-129"/>
<text text-anchor="start" x="226" y="-117" font-family="Helvetica,sans-Serif" font-size="10.00">Terraria.GameContent.UI.</text>
<text text-anchor="start" x="226" y="-106" font-family="Helvetica,sans-Serif" font-size="10.00">ResourceSets.PlayerResourceSets</text>
<text text-anchor="middle" x="309" y="-95" font-family="Helvetica,sans-Serif" font-size="10.00">Manager.Configuration_OnLoad</text>
</a>
</g>
</g>
<!-- Node5&#45;&gt;Node6 -->
<g id="edge5_Node000005_Node000006" class="edge">
<title>Node5&#45;&gt;Node6</title>
<g id="a_edge5_Node000005_Node000006"><a xlink:title=" ">
<path fill="none" stroke="#63b8ff" d="M427.53,-94C418.36,-95.13 409.19,-96.26 400.24,-97.36"/>
<polygon fill="#63b8ff" stroke="#63b8ff" points="427.98,-97.47 437.47,-92.77 427.12,-90.52 427.98,-97.47"/>
</a>
</g>
</g>
<!-- Node8 -->
<g id="Node000008" class="node">
<title>Node8</title>
<g id="a_Node000008"><a xlink:href="../../df/de4/classTerraria_1_1GameContent_1_1UI_1_1ResourceSets_1_1PlayerResourceSetsManager_ade6126e0cd0b73e402f04773c8c42d83.html#ade6126e0cd0b73e402f04773c8c42d83" target="_top" xlink:title=" ">
<polygon fill="white" stroke="#666666" points="400,-70 218,-70 218,-29 400,-29 400,-70"/>
<text text-anchor="start" x="226" y="-58" font-family="Helvetica,sans-Serif" font-size="10.00">Terraria.GameContent.UI.</text>
<text text-anchor="start" x="226" y="-47" font-family="Helvetica,sans-Serif" font-size="10.00">ResourceSets.PlayerResourceSets</text>
<text text-anchor="middle" x="309" y="-36" font-family="Helvetica,sans-Serif" font-size="10.00">Manager.LoadContent</text>
</a>
</g>
</g>
<!-- Node5&#45;&gt;Node8 -->
<g id="edge7_Node000005_Node000008" class="edge">
<title>Node5&#45;&gt;Node8</title>
<g id="a_edge7_Node000005_Node000008"><a xlink:title=" ">
<path fill="none" stroke="#63b8ff" d="M427.53,-64.5C418.36,-63.33 409.19,-62.16 400.24,-61.02"/>
<polygon fill="#63b8ff" stroke="#63b8ff" points="427.11,-67.98 437.47,-65.77 428,-61.03 427.11,-67.98"/>
</a>
</g>
</g>
<!-- Node7 -->
<g id="Node000007" class="node">
<title>Node7</title>
<g id="a_Node000007"><a xlink:href="../../df/de4/classTerraria_1_1GameContent_1_1UI_1_1ResourceSets_1_1PlayerResourceSetsManager_aef1161d649031ef08c7bd03ba312059e.html#aef1161d649031ef08c7bd03ba312059e" target="_top" xlink:title=" ">
<polygon fill="white" stroke="#666666" points="182,-129 0,-129 0,-88 182,-88 182,-129"/>
<text text-anchor="start" x="8" y="-117" font-family="Helvetica,sans-Serif" font-size="10.00">Terraria.GameContent.UI.</text>
<text text-anchor="start" x="8" y="-106" font-family="Helvetica,sans-Serif" font-size="10.00">ResourceSets.PlayerResourceSets</text>
<text text-anchor="middle" x="91" y="-95" font-family="Helvetica,sans-Serif" font-size="10.00">Manager.BindTo</text>
</a>
</g>
</g>
<!-- Node6&#45;&gt;Node7 -->
<g id="edge6_Node000006_Node000007" class="edge">
<title>Node6&#45;&gt;Node7</title>
<g id="a_edge6_Node000006_Node000007"><a xlink:title=" ">
<path fill="none" stroke="#63b8ff" d="M207.94,-108.5C199.37,-108.5 190.73,-108.5 182.24,-108.5"/>
<polygon fill="#63b8ff" stroke="#63b8ff" points="207.96,-112 217.96,-108.5 207.96,-105 207.96,-112"/>
</a>
</g>
</g>
</g>
</svg>
