<?xml version="1.0" encoding="UTF-8" standalone="no"?>
<!DOCTYPE svg PUBLIC "-//W3C//DTD SVG 1.1//EN"
 "http://www.w3.org/Graphics/SVG/1.1/DTD/svg11.dtd">
<!-- Generated by graphviz version 2.43.0 (0)
 -->
<!-- Title: Terraria.GameContent.Bestiary.IBestiaryBackgroundImagePathAndColorProvider Pages: 1 -->
<svg width="645pt" height="316pt"
 viewBox="0.00 0.00 644.50 316.00" xmlns="http://www.w3.org/2000/svg" xmlns:xlink="http://www.w3.org/1999/xlink">
<g id="graph0" class="graph" transform="scale(1 1) rotate(0) translate(4 312)">
<title>Terraria.GameContent.Bestiary.IBestiaryBackgroundImagePathAndColorProvider</title>
<!-- Node1 -->
<g id="Node000001" class="node">
<title>Node1</title>
<g id="a_Node000001"><a xlink:title=" ">
<polygon fill="#999999" stroke="transparent" points="433,-308 225,-308 225,-211 433,-211 433,-308"/>
<text text-anchor="start" x="230" y="-295.5" font-family="Helvetica,sans-Serif" font-size="10.00">Terraria.GameContent.Bestiary.</text>
<text text-anchor="start" x="230" y="-284.5" font-family="Helvetica,sans-Serif" font-size="10.00">IBestiaryBackgroundImagePathAndColor</text>
<text text-anchor="start" x="308.5" y="-273.5" font-family="Helvetica,sans-Serif" font-size="10.00">Provider</text>
<text text-anchor="start" x="327" y="-258.5" font-family="Helvetica,sans-Serif" font-size="10.00"> </text>
<text text-anchor="start" x="240" y="-243.5" font-family="Helvetica,sans-Serif" font-size="10.00">+</text>
<text text-anchor="start" x="264" y="-243.5" font-family="Helvetica,sans-Serif" font-size="10.00">Asset&lt; Texture2D &gt;</text>
<text text-anchor="start" x="264" y="-232.5" font-family="Helvetica,sans-Serif" font-size="10.00"> GetBackgroundImage()</text>
<text text-anchor="start" x="240" y="-217.5" font-family="Helvetica,sans-Serif" font-size="10.00">+</text>
<text text-anchor="start" x="264" y="-217.5" font-family="Helvetica,sans-Serif" font-size="10.00">Color? GetBackgroundColor()</text>
<polygon fill="#666666" stroke="#666666" points="225,-268.5 225,-268.5 433,-268.5 433,-268.5 225,-268.5"/>
<polygon fill="#666666" stroke="#666666" points="225,-253.5 225,-253.5 433,-253.5 433,-253.5 225,-253.5"/>
<polygon fill="none" stroke="#666666" points="225,-211 225,-308 433,-308 433,-211 225,-211"/>
</a>
</g>
</g>
<!-- Node2 -->
<g id="Node000002" class="node">
<title>Node2</title>
<g id="a_Node000002"><a xlink:href="../../de/dae/classTerraria_1_1GameContent_1_1Bestiary_1_1ModBiomeBestiaryInfoElement.html" target="_top" xlink:title=" ">
<polygon fill="white" stroke="transparent" points="214,-167.5 0,-167.5 0,-7.5 214,-7.5 214,-167.5"/>
<text text-anchor="start" x="30.5" y="-155.5" font-family="Helvetica,sans-Serif" font-size="10.00">Terraria.GameContent.Bestiary.</text>
<text text-anchor="start" x="30.5" y="-144.5" font-family="Helvetica,sans-Serif" font-size="10.00">ModBiomeBestiaryInfoElement</text>
<text text-anchor="start" x="105" y="-129.5" font-family="Helvetica,sans-Serif" font-size="10.00"> </text>
<text text-anchor="start" x="4" y="-114.5" font-family="Helvetica,sans-Serif" font-size="10.00">+</text>
<text text-anchor="start" x="17" y="-114.5" font-family="Helvetica,sans-Serif" font-size="10.00">ModBiomeBestiaryInfoElement</text>
<text text-anchor="start" x="17" y="-103.5" font-family="Helvetica,sans-Serif" font-size="10.00">(Mod mod, string displayName,</text>
<text text-anchor="start" x="17" y="-92.5" font-family="Helvetica,sans-Serif" font-size="10.00"> string iconPath, string backgroundPath,</text>
<text text-anchor="start" x="17" y="-81.5" font-family="Helvetica,sans-Serif" font-size="10.00"> Color? backgroundColor)</text>
<text text-anchor="start" x="4" y="-66.5" font-family="Helvetica,sans-Serif" font-size="10.00">+</text>
<text text-anchor="start" x="17" y="-66.5" font-family="Helvetica,sans-Serif" font-size="10.00">override UIElement</text>
<text text-anchor="start" x="17" y="-55.5" font-family="Helvetica,sans-Serif" font-size="10.00"> GetFilterImage()</text>
<text text-anchor="start" x="4" y="-40.5" font-family="Helvetica,sans-Serif" font-size="10.00">+</text>
<text text-anchor="start" x="17" y="-40.5" font-family="Helvetica,sans-Serif" font-size="10.00">Asset&lt; Texture2D &gt;</text>
<text text-anchor="start" x="17" y="-29.5" font-family="Helvetica,sans-Serif" font-size="10.00"> GetBackgroundImage()</text>
<text text-anchor="start" x="4" y="-14.5" font-family="Helvetica,sans-Serif" font-size="10.00">+</text>
<text text-anchor="start" x="17" y="-14.5" font-family="Helvetica,sans-Serif" font-size="10.00">Color? GetBackgroundColor()</text>
<polygon fill="#666666" stroke="#666666" points="0,-139.5 0,-139.5 214,-139.5 214,-139.5 0,-139.5"/>
<polygon fill="#666666" stroke="#666666" points="0,-124.5 0,-124.5 214,-124.5 214,-124.5 0,-124.5"/>
<polygon fill="none" stroke="#666666" points="0,-7.5 0,-167.5 214,-167.5 214,-7.5 0,-7.5"/>
</a>
</g>
</g>
<!-- Node1&#45;&gt;Node2 -->
<g id="edge1_Node000001_Node000002" class="edge">
<title>Node1&#45;&gt;Node2</title>
<g id="a_edge1_Node000001_Node000002"><a xlink:title=" ">
<path fill="none" stroke="#63b8ff" d="M258.91,-204.83C243.48,-193.01 226.81,-180.25 210.37,-167.66"/>
<polygon fill="none" stroke="#63b8ff" points="256.8,-207.62 266.87,-210.92 261.05,-202.06 256.8,-207.62"/>
</a>
</g>
</g>
<!-- Node3 -->
<g id="Node000003" class="node">
<title>Node3</title>
<g id="a_Node000003"><a xlink:href="../../d5/d2b/classTerraria_1_1GameContent_1_1Bestiary_1_1MoonLordPortraitBackgroundProviderBestiaryInfoElement.html" target="_top" xlink:title=" ">
<polygon fill="white" stroke="transparent" points="425.5,-149 232.5,-149 232.5,-26 425.5,-26 425.5,-149"/>
<text text-anchor="start" x="238" y="-136.5" font-family="Helvetica,sans-Serif" font-size="10.00">Terraria.GameContent.Bestiary.</text>
<text text-anchor="start" x="238" y="-125.5" font-family="Helvetica,sans-Serif" font-size="10.00">MoonLordPortraitBackgroundProvider</text>
<text text-anchor="start" x="279.5" y="-114.5" font-family="Helvetica,sans-Serif" font-size="10.00">BestiaryInfoElement</text>
<text text-anchor="start" x="327.5" y="-99.5" font-family="Helvetica,sans-Serif" font-size="10.00"> </text>
<text text-anchor="start" x="243" y="-84.5" font-family="Helvetica,sans-Serif" font-size="10.00">+</text>
<text text-anchor="start" x="262" y="-84.5" font-family="Helvetica,sans-Serif" font-size="10.00">Asset&lt; Texture2D &gt;</text>
<text text-anchor="start" x="262" y="-73.5" font-family="Helvetica,sans-Serif" font-size="10.00"> GetBackgroundImage()</text>
<text text-anchor="start" x="243" y="-58.5" font-family="Helvetica,sans-Serif" font-size="10.00">+</text>
<text text-anchor="start" x="262" y="-58.5" font-family="Helvetica,sans-Serif" font-size="10.00">Color? GetBackgroundColor()</text>
<text text-anchor="start" x="243" y="-43.5" font-family="Helvetica,sans-Serif" font-size="10.00">+</text>
<text text-anchor="start" x="262" y="-43.5" font-family="Helvetica,sans-Serif" font-size="10.00">UIElement ProvideUIElement</text>
<text text-anchor="start" x="262" y="-32.5" font-family="Helvetica,sans-Serif" font-size="10.00">(BestiaryUICollectionInfo info)</text>
<polygon fill="#666666" stroke="#666666" points="233,-109.5 233,-109.5 426,-109.5 426,-109.5 233,-109.5"/>
<polygon fill="#666666" stroke="#666666" points="233,-94.5 233,-94.5 426,-94.5 426,-94.5 233,-94.5"/>
<polygon fill="none" stroke="#666666" points="232.5,-26 232.5,-149 425.5,-149 425.5,-26 232.5,-26"/>
</a>
</g>
</g>
<!-- Node1&#45;&gt;Node3 -->
<g id="edge2_Node000001_Node000003" class="edge">
<title>Node1&#45;&gt;Node3</title>
<g id="a_edge2_Node000001_Node000003"><a xlink:title=" ">
<path fill="none" stroke="#63b8ff" d="M329,-200.62C329,-184.08 329,-166.02 329,-149.31"/>
<polygon fill="none" stroke="#63b8ff" points="325.5,-200.69 329,-210.69 332.5,-200.69 325.5,-200.69"/>
</a>
</g>
</g>
<!-- Node4 -->
<g id="Node000004" class="node">
<title>Node4</title>
<g id="a_Node000004"><a xlink:href="../../dc/d5a/classTerraria_1_1GameContent_1_1Bestiary_1_1SpawnConditionBestiaryInfoElement.html" target="_top" xlink:title=" ">
<polygon fill="white" stroke="transparent" points="636.5,-175 443.5,-175 443.5,0 636.5,0 636.5,-175"/>
<text text-anchor="start" x="451" y="-162.5" font-family="Helvetica,sans-Serif" font-size="10.00">Terraria.GameContent.Bestiary.</text>
<text text-anchor="start" x="451" y="-151.5" font-family="Helvetica,sans-Serif" font-size="10.00">SpawnConditionBestiaryInfoElement</text>
<text text-anchor="start" x="448" y="-136.5" font-family="Helvetica,sans-Serif" font-size="10.00">+</text>
<text text-anchor="start" x="461" y="-136.5" font-family="Helvetica,sans-Serif" font-size="10.00">float OrderPriority</text>
<text text-anchor="start" x="450.5" y="-121.5" font-family="Helvetica,sans-Serif" font-size="10.00">&#45;</text>
<text text-anchor="start" x="461" y="-121.5" font-family="Helvetica,sans-Serif" font-size="10.00">string _backgroundImagePath</text>
<text text-anchor="start" x="450.5" y="-106.5" font-family="Helvetica,sans-Serif" font-size="10.00">&#45;</text>
<text text-anchor="start" x="461" y="-106.5" font-family="Helvetica,sans-Serif" font-size="10.00">Color? _backgroundColor</text>
<text text-anchor="start" x="448" y="-91.5" font-family="Helvetica,sans-Serif" font-size="10.00">+</text>
<text text-anchor="start" x="461" y="-91.5" font-family="Helvetica,sans-Serif" font-size="10.00">SpawnConditionBestiaryInfo</text>
<text text-anchor="start" x="461" y="-80.5" font-family="Helvetica,sans-Serif" font-size="10.00">Element(string nameLanguageKey,</text>
<text text-anchor="start" x="461" y="-69.5" font-family="Helvetica,sans-Serif" font-size="10.00"> int filterIconFrame, string</text>
<text text-anchor="start" x="461" y="-58.5" font-family="Helvetica,sans-Serif" font-size="10.00"> backgroundImagePath=null, Color</text>
<text text-anchor="start" x="461" y="-47.5" font-family="Helvetica,sans-Serif" font-size="10.00">? backgroundColor=null)</text>
<text text-anchor="start" x="448" y="-32.5" font-family="Helvetica,sans-Serif" font-size="10.00">+</text>
<text text-anchor="start" x="461" y="-32.5" font-family="Helvetica,sans-Serif" font-size="10.00">Asset&lt; Texture2D &gt;</text>
<text text-anchor="start" x="461" y="-21.5" font-family="Helvetica,sans-Serif" font-size="10.00"> GetBackgroundImage()</text>
<text text-anchor="start" x="448" y="-6.5" font-family="Helvetica,sans-Serif" font-size="10.00">+</text>
<text text-anchor="start" x="461" y="-6.5" font-family="Helvetica,sans-Serif" font-size="10.00">Color? GetBackgroundColor()</text>
<polygon fill="#666666" stroke="#666666" points="444,-146.5 444,-146.5 637,-146.5 637,-146.5 444,-146.5"/>
<polygon fill="#666666" stroke="#666666" points="444,-101.5 444,-101.5 459,-101.5 459,-101.5 444,-101.5"/>
<polygon fill="#666666" stroke="#666666" points="459,-101.5 459,-101.5 637,-101.5 637,-101.5 459,-101.5"/>
<polygon fill="none" stroke="#666666" points="443.5,0 443.5,-175 636.5,-175 636.5,0 443.5,0"/>
</a>
</g>
</g>
<!-- Node1&#45;&gt;Node4 -->
<g id="edge3_Node000001_Node000004" class="edge">
<title>Node1&#45;&gt;Node4</title>
<g id="a_edge3_Node000001_Node000004"><a xlink:title=" ">
<path fill="none" stroke="#63b8ff" d="M398.04,-204.47C410.39,-194.7 423.1,-184.58 435,-175 437.76,-172.78 440.55,-170.52 443.37,-168.23"/>
<polygon fill="none" stroke="#63b8ff" points="395.68,-201.87 390,-210.82 400.02,-207.37 395.68,-201.87"/>
</a>
</g>
</g>
</g>
</svg>
