<?xml version="1.0" encoding="UTF-8" standalone="no"?>
<!DOCTYPE svg PUBLIC "-//W3C//DTD SVG 1.1//EN"
 "http://www.w3.org/Graphics/SVG/1.1/DTD/svg11.dtd">
<!-- Generated by graphviz version 2.43.0 (0)
 -->
<!-- Title: Terraria.ModLoader.Default.UnloadedTileEntity.TryRestore Pages: 1 -->
<svg width="547pt" height="38pt"
 viewBox="0.00 0.00 547.00 38.00" xmlns="http://www.w3.org/2000/svg" xmlns:xlink="http://www.w3.org/1999/xlink">
<g id="graph0" class="graph" transform="scale(1 1) rotate(0) translate(4 34)">
<title>Terraria.ModLoader.Default.UnloadedTileEntity.TryRestore</title>
<!-- Node1 -->
<g id="Node000001" class="node">
<title>Node1</title>
<g id="a_Node000001"><a xlink:title=" ">
<polygon fill="#999999" stroke="#666666" points="163,-30 0,-30 0,0 163,0 163,-30"/>
<text text-anchor="start" x="8" y="-18" font-family="Helvetica,sans-Serif" font-size="10.00">Terraria.ModLoader.Default.</text>
<text text-anchor="middle" x="81.5" y="-7" font-family="Helvetica,sans-Serif" font-size="10.00">UnloadedTileEntity.TryRestore</text>
</a>
</g>
</g>
<!-- Node2 -->
<g id="Node000002" class="node">
<title>Node2</title>
<g id="a_Node000002"><a xlink:href="../../df/d3d/classTerraria_1_1ModLoader_1_1ModTileEntity_a0a022f7b80deccc7ee66aa262a2ea261.html#a0a022f7b80deccc7ee66aa262a2ea261" target="_top" xlink:title="Returns a new ModTileEntity with the same class, mod, name, and type as the parameter....">
<polygon fill="white" stroke="#666666" points="351,-30 199,-30 199,0 351,0 351,-30"/>
<text text-anchor="start" x="207" y="-18" font-family="Helvetica,sans-Serif" font-size="10.00">Terraria.ModLoader.ModTile</text>
<text text-anchor="middle" x="275" y="-7" font-family="Helvetica,sans-Serif" font-size="10.00">Entity.ConstructFromBase</text>
</a>
</g>
</g>
<!-- Node1&#45;&gt;Node2 -->
<g id="edge1_Node000001_Node000002" class="edge">
<title>Node1&#45;&gt;Node2</title>
<g id="a_edge1_Node000001_Node000002"><a xlink:title=" ">
<path fill="none" stroke="#63b8ff" d="M163.16,-15C171.59,-15 180.18,-15 188.66,-15"/>
<polygon fill="#63b8ff" stroke="#63b8ff" points="188.93,-18.5 198.93,-15 188.93,-11.5 188.93,-18.5"/>
</a>
</g>
</g>
<!-- Node3 -->
<g id="Node000003" class="node">
<title>Node3</title>
<g id="a_Node000003"><a xlink:href="../../df/d3d/classTerraria_1_1ModLoader_1_1ModTileEntity_a60494e0f2532f4f2197df771af37c59c.html#a60494e0f2532f4f2197df771af37c59c" target="_top" xlink:title=" ">
<polygon fill="white" stroke="#666666" points="539,-30 387,-30 387,0 539,0 539,-30"/>
<text text-anchor="start" x="395" y="-18" font-family="Helvetica,sans-Serif" font-size="10.00">Terraria.ModLoader.ModTile</text>
<text text-anchor="middle" x="463" y="-7" font-family="Helvetica,sans-Serif" font-size="10.00">Entity.ModTileEntity</text>
</a>
</g>
</g>
<!-- Node2&#45;&gt;Node3 -->
<g id="edge2_Node000002_Node000003" class="edge">
<title>Node2&#45;&gt;Node3</title>
<g id="a_edge2_Node000002_Node000003"><a xlink:title=" ">
<path fill="none" stroke="#63b8ff" d="M351.12,-15C359.6,-15 368.28,-15 376.87,-15"/>
<polygon fill="#63b8ff" stroke="#63b8ff" points="376.9,-18.5 386.9,-15 376.9,-11.5 376.9,-18.5"/>
</a>
</g>
</g>
</g>
</svg>
