<?xml version="1.0" encoding="UTF-8" standalone="no"?>
<!DOCTYPE svg PUBLIC "-//W3C//DTD SVG 1.1//EN"
 "http://www.w3.org/Graphics/SVG/1.1/DTD/svg11.dtd">
<!-- Generated by graphviz version 2.43.0 (0)
 -->
<!-- Title: Terraria.ModLoader.Core.GlobalTypeLookups.GlobalTypeLookups Pages: 1 -->
<svg width="605pt" height="62pt"
 viewBox="0.00 0.00 605.00 61.50" xmlns="http://www.w3.org/2000/svg" xmlns:xlink="http://www.w3.org/1999/xlink">
<g id="graph0" class="graph" transform="scale(1 1) rotate(0) translate(4 57.5)">
<title>Terraria.ModLoader.Core.GlobalTypeLookups.GlobalTypeLookups</title>
<!-- Node1 -->
<g id="Node000001" class="node">
<title>Node1</title>
<g id="a_Node000001"><a xlink:title=" ">
<polygon fill="#999999" stroke="#666666" points="167,-41 0,-41 0,0 167,0 167,-41"/>
<text text-anchor="start" x="8" y="-29" font-family="Helvetica,sans-Serif" font-size="10.00">Terraria.ModLoader.Core.</text>
<text text-anchor="start" x="8" y="-18" font-family="Helvetica,sans-Serif" font-size="10.00">GlobalTypeLookups.GlobalType</text>
<text text-anchor="middle" x="83.5" y="-7" font-family="Helvetica,sans-Serif" font-size="10.00">Lookups</text>
</a>
</g>
</g>
<!-- Node2 -->
<g id="Node000002" class="node">
<title>Node2</title>
<g id="a_Node000002"><a xlink:href="../../d8/d54/classTerraria_1_1ModLoader_1_1Core_1_1TypeCaching_a5b44eda964816c6d3afd168bba3863e2.html#a5b44eda964816c6d3afd168bba3863e2" target="_top" xlink:title=" ">
<polygon fill="white" stroke="#666666" points="385,-41 203,-41 203,0 385,0 385,-41"/>
<text text-anchor="start" x="211" y="-29" font-family="Helvetica,sans-Serif" font-size="10.00">Terraria.ModLoader.Core.</text>
<text text-anchor="start" x="211" y="-18" font-family="Helvetica,sans-Serif" font-size="10.00">TypeCaching.ResetStaticMembers</text>
<text text-anchor="middle" x="294" y="-7" font-family="Helvetica,sans-Serif" font-size="10.00">OnClear</text>
</a>
</g>
</g>
<!-- Node1&#45;&gt;Node2 -->
<g id="edge1_Node000001_Node000002" class="edge">
<title>Node1&#45;&gt;Node2</title>
<g id="a_edge1_Node000001_Node000002"><a xlink:title=" ">
<path fill="none" stroke="#63b8ff" d="M167.2,-20.5C175.62,-20.5 184.23,-20.5 192.81,-20.5"/>
<polygon fill="#63b8ff" stroke="#63b8ff" points="192.85,-24 202.85,-20.5 192.85,-17 192.85,-24"/>
</a>
</g>
</g>
<!-- Node3 -->
<g id="Node000003" class="node">
<title>Node3</title>
<g id="a_Node000003"><a xlink:href="../../d8/d8c/classTerraria_1_1ModLoader_1_1Core_1_1LoaderUtils_a4256cb46e5e6a1333cb259e9c22f1b09.html#a4256cb46e5e6a1333cb259e9c22f1b09" target="_top" xlink:title="Calls static constructors on the provided type and, optionally, its nested types.">
<polygon fill="white" stroke="#666666" points="597,-35.5 421,-35.5 421,-5.5 597,-5.5 597,-35.5"/>
<text text-anchor="start" x="429" y="-23.5" font-family="Helvetica,sans-Serif" font-size="10.00">Terraria.ModLoader.Core.</text>
<text text-anchor="middle" x="509" y="-12.5" font-family="Helvetica,sans-Serif" font-size="10.00">LoaderUtils.ResetStaticMembers</text>
</a>
</g>
</g>
<!-- Node2&#45;&gt;Node3 -->
<g id="edge2_Node000002_Node000003" class="edge">
<title>Node2&#45;&gt;Node3</title>
<g id="a_edge2_Node000002_Node000003"><a xlink:title=" ">
<path fill="none" stroke="#63b8ff" d="M385.02,-20.5C393.42,-20.5 401.95,-20.5 410.41,-20.5"/>
<polygon fill="#63b8ff" stroke="#63b8ff" points="410.68,-24 420.68,-20.5 410.68,-17 410.68,-24"/>
</a>
</g>
</g>
<!-- Node3&#45;&gt;Node3 -->
<g id="edge3_Node000003_Node000003" class="edge">
<title>Node3&#45;&gt;Node3</title>
<g id="a_edge3_Node000003_Node000003"><a xlink:title=" ">
<path fill="none" stroke="#63b8ff" d="M471.38,-35.78C463.02,-44.91 475.56,-53.5 509,-53.5 528.85,-53.5 541.34,-50.47 546.46,-46.1"/>
<polygon fill="#63b8ff" stroke="#63b8ff" points="549.96,-45.83 546.62,-35.78 542.96,-45.72 549.96,-45.83"/>
</a>
</g>
</g>
</g>
</svg>
