<?xml version="1.0" encoding="UTF-8" standalone="no"?>
<!DOCTYPE svg PUBLIC "-//W3C//DTD SVG 1.1//EN"
 "http://www.w3.org/Graphics/SVG/1.1/DTD/svg11.dtd">
<!-- Generated by graphviz version 2.43.0 (0)
 -->
<!-- Title: Terraria.GameContent.UI.Elements.EmotesGroupListItem Pages: 1 -->
<svg width="1181pt" height="1148pt"
 viewBox="0.00 0.00 1181.00 1148.00" xmlns="http://www.w3.org/2000/svg" xmlns:xlink="http://www.w3.org/1999/xlink">
<g id="graph0" class="graph" transform="scale(1 1) rotate(0) translate(4 1144)">
<title>Terraria.GameContent.UI.Elements.EmotesGroupListItem</title>
<!-- Node1 -->
<g id="Node000001" class="node">
<title>Node1</title>
<g id="a_Node000001"><a xlink:title=" ">
<polygon fill="#999999" stroke="transparent" points="827,-119 636,-119 636,0 827,0 827,-119"/>
<text text-anchor="start" x="654.5" y="-106.5" font-family="Helvetica,sans-Serif" font-size="10.00">Terraria.GameContent.UI.</text>
<text text-anchor="start" x="654.5" y="-95.5" font-family="Helvetica,sans-Serif" font-size="10.00">Elements.EmotesGroupListItem</text>
<text text-anchor="start" x="730" y="-80.5" font-family="Helvetica,sans-Serif" font-size="10.00"> </text>
<text text-anchor="start" x="640.5" y="-65.5" font-family="Helvetica,sans-Serif" font-size="10.00">+</text>
<text text-anchor="start" x="653.5" y="-65.5" font-family="Helvetica,sans-Serif" font-size="10.00">EmotesGroupListItem</text>
<text text-anchor="start" x="653.5" y="-54.5" font-family="Helvetica,sans-Serif" font-size="10.00">(LocalizedText groupTitle,</text>
<text text-anchor="start" x="653.5" y="-43.5" font-family="Helvetica,sans-Serif" font-size="10.00"> int groupIndex, int maxEmotesPer</text>
<text text-anchor="start" x="653.5" y="-32.5" font-family="Helvetica,sans-Serif" font-size="10.00">Row, params int[] emotes)</text>
<text text-anchor="start" x="640.5" y="-17.5" font-family="Helvetica,sans-Serif" font-size="10.00">+</text>
<text text-anchor="start" x="653.5" y="-17.5" font-family="Helvetica,sans-Serif" font-size="10.00">override int CompareTo</text>
<text text-anchor="start" x="653.5" y="-6.5" font-family="Helvetica,sans-Serif" font-size="10.00">(object obj)</text>
<polygon fill="#666666" stroke="#666666" points="636.5,-90.5 636.5,-90.5 827.5,-90.5 827.5,-90.5 636.5,-90.5"/>
<polygon fill="#666666" stroke="#666666" points="636.5,-75.5 636.5,-75.5 827.5,-75.5 827.5,-75.5 636.5,-75.5"/>
<polygon fill="none" stroke="#666666" points="636,0 636,-119 827,-119 827,0 636,0"/>
</a>
</g>
</g>
<!-- Node2 -->
<g id="Node000002" class="node">
<title>Node2</title>
<g id="a_Node000002"><a xlink:href="../../d7/d72/classTerraria_1_1UI_1_1UIElement.html" target="_top" xlink:title=" ">
<polygon fill="white" stroke="transparent" points="702,-686 493,-686 493,-210 702,-210 702,-686"/>
<text text-anchor="start" x="572" y="-674" font-family="Helvetica,sans-Serif" font-size="10.00">UIElement</text>
<text text-anchor="start" x="497.5" y="-659" font-family="Helvetica,sans-Serif" font-size="10.00">+</text>
<text text-anchor="start" x="510.5" y="-659" font-family="Helvetica,sans-Serif" font-size="10.00">UIElement Parent</text>
<text text-anchor="start" x="497.5" y="-644" font-family="Helvetica,sans-Serif" font-size="10.00">+</text>
<text text-anchor="start" x="510.5" y="-644" font-family="Helvetica,sans-Serif" font-size="10.00">int UniqueId</text>
<text text-anchor="start" x="497.5" y="-629" font-family="Helvetica,sans-Serif" font-size="10.00">+</text>
<text text-anchor="start" x="510.5" y="-629" font-family="Helvetica,sans-Serif" font-size="10.00">IEnumerable&lt; UIElement</text>
<text text-anchor="start" x="510.5" y="-618" font-family="Helvetica,sans-Serif" font-size="10.00"> &gt; Children</text>
<text text-anchor="start" x="497.5" y="-603" font-family="Helvetica,sans-Serif" font-size="10.00">+</text>
<text text-anchor="start" x="510.5" y="-603" font-family="Helvetica,sans-Serif" font-size="10.00">bool IsMouseHovering</text>
<text text-anchor="start" x="497.5" y="-588" font-family="Helvetica,sans-Serif" font-size="10.00">+</text>
<text text-anchor="start" x="510.5" y="-588" font-family="Helvetica,sans-Serif" font-size="10.00">delegate void MouseEvent</text>
<text text-anchor="start" x="510.5" y="-577" font-family="Helvetica,sans-Serif" font-size="10.00">(UIMouseEvent evt, UIElement</text>
<text text-anchor="start" x="510.5" y="-566" font-family="Helvetica,sans-Serif" font-size="10.00"> listeningElement)</text>
<text text-anchor="start" x="497.5" y="-551" font-family="Helvetica,sans-Serif" font-size="10.00">+</text>
<text text-anchor="start" x="510.5" y="-551" font-family="Helvetica,sans-Serif" font-size="10.00">delegate void ScrollWheel</text>
<text text-anchor="start" x="510.5" y="-540" font-family="Helvetica,sans-Serif" font-size="10.00">Event(UIScrollWheelEvent</text>
<text text-anchor="start" x="510.5" y="-529" font-family="Helvetica,sans-Serif" font-size="10.00"> evt, UIElement listeningElement)</text>
<text text-anchor="start" x="497.5" y="-514" font-family="Helvetica,sans-Serif" font-size="10.00">+</text>
<text text-anchor="start" x="510.5" y="-514" font-family="Helvetica,sans-Serif" font-size="10.00">delegate void ElementEvent</text>
<text text-anchor="start" x="510.5" y="-503" font-family="Helvetica,sans-Serif" font-size="10.00">(UIElement affectedElement)</text>
<text text-anchor="start" x="497.5" y="-488" font-family="Helvetica,sans-Serif" font-size="10.00">+</text>
<text text-anchor="start" x="510.5" y="-488" font-family="Helvetica,sans-Serif" font-size="10.00">delegate void UIElementAction</text>
<text text-anchor="start" x="510.5" y="-477" font-family="Helvetica,sans-Serif" font-size="10.00">(UIElement element)</text>
<text text-anchor="start" x="497.5" y="-462" font-family="Helvetica,sans-Serif" font-size="10.00">+</text>
<text text-anchor="start" x="510.5" y="-462" font-family="Helvetica,sans-Serif" font-size="10.00">UIElement()</text>
<text text-anchor="start" x="497.5" y="-447" font-family="Helvetica,sans-Serif" font-size="10.00">+</text>
<text text-anchor="start" x="510.5" y="-447" font-family="Helvetica,sans-Serif" font-size="10.00">void SetSnapPoint(string</text>
<text text-anchor="start" x="510.5" y="-436" font-family="Helvetica,sans-Serif" font-size="10.00"> name, int id, Vector2</text>
<text text-anchor="start" x="510.5" y="-425" font-family="Helvetica,sans-Serif" font-size="10.00">? anchor=null, Vector2?</text>
<text text-anchor="start" x="510.5" y="-414" font-family="Helvetica,sans-Serif" font-size="10.00"> offset=null)</text>
<text text-anchor="start" x="497.5" y="-399" font-family="Helvetica,sans-Serif" font-size="10.00">+</text>
<text text-anchor="start" x="510.5" y="-399" font-family="Helvetica,sans-Serif" font-size="10.00">bool GetSnapPoint(out</text>
<text text-anchor="start" x="510.5" y="-388" font-family="Helvetica,sans-Serif" font-size="10.00"> SnapPoint point)</text>
<text text-anchor="start" x="497.5" y="-373" font-family="Helvetica,sans-Serif" font-size="10.00">+</text>
<text text-anchor="start" x="510.5" y="-373" font-family="Helvetica,sans-Serif" font-size="10.00">virtual void ExecuteRecursively</text>
<text text-anchor="start" x="510.5" y="-362" font-family="Helvetica,sans-Serif" font-size="10.00">(UIElementAction action)</text>
<text text-anchor="start" x="497.5" y="-347" font-family="Helvetica,sans-Serif" font-size="10.00">+</text>
<text text-anchor="start" x="510.5" y="-347" font-family="Helvetica,sans-Serif" font-size="10.00">void Append(UIElement</text>
<text text-anchor="start" x="510.5" y="-336" font-family="Helvetica,sans-Serif" font-size="10.00"> element)</text>
<text text-anchor="start" x="497.5" y="-321" font-family="Helvetica,sans-Serif" font-size="10.00">+</text>
<text text-anchor="start" x="510.5" y="-321" font-family="Helvetica,sans-Serif" font-size="10.00">void Remove()</text>
<text text-anchor="start" x="510.5" y="-306" font-family="Helvetica,sans-Serif" font-size="10.00">and 48 more...</text>
<text text-anchor="start" x="497.5" y="-291" font-family="Helvetica,sans-Serif" font-size="10.00">#</text>
<text text-anchor="start" x="510.5" y="-291" font-family="Helvetica,sans-Serif" font-size="10.00">virtual void DrawSelf</text>
<text text-anchor="start" x="510.5" y="-280" font-family="Helvetica,sans-Serif" font-size="10.00">(SpriteBatch spriteBatch)</text>
<text text-anchor="start" x="497.5" y="-265" font-family="Helvetica,sans-Serif" font-size="10.00">#</text>
<text text-anchor="start" x="510.5" y="-265" font-family="Helvetica,sans-Serif" font-size="10.00">virtual void DrawChildren</text>
<text text-anchor="start" x="510.5" y="-254" font-family="Helvetica,sans-Serif" font-size="10.00">(SpriteBatch spriteBatch)</text>
<text text-anchor="start" x="500" y="-239" font-family="Helvetica,sans-Serif" font-size="10.00">&#45;</text>
<text text-anchor="start" x="510.5" y="-239" font-family="Helvetica,sans-Serif" font-size="10.00">CalculatedStyle GetDimensions</text>
<text text-anchor="start" x="510.5" y="-228" font-family="Helvetica,sans-Serif" font-size="10.00">BasedOnParentDimensions(Calculated</text>
<text text-anchor="start" x="510.5" y="-217" font-family="Helvetica,sans-Serif" font-size="10.00">Style parentDimensions)</text>
<polygon fill="#666666" stroke="#666666" points="493.5,-669 493.5,-669 702.5,-669 702.5,-669 493.5,-669"/>
<polygon fill="#666666" stroke="#666666" points="493.5,-598 493.5,-598 508.5,-598 508.5,-598 493.5,-598"/>
<polygon fill="#666666" stroke="#666666" points="508.5,-598 508.5,-598 702.5,-598 702.5,-598 508.5,-598"/>
<polygon fill="none" stroke="#666666" points="493,-210 493,-686 702,-686 702,-210 493,-210"/>
</a>
</g>
</g>
<!-- Node2&#45;&gt;Node1 -->
<g id="edge1_Node000001_Node000002" class="edge">
<title>Node2&#45;&gt;Node1</title>
<g id="a_edge1_Node000001_Node000002"><a xlink:title=" ">
<path fill="none" stroke="#63b8ff" d="M683.08,-200.15C693.47,-170.2 703.2,-142.11 711.18,-119.1"/>
<polygon fill="none" stroke="#63b8ff" points="679.66,-199.34 679.69,-209.93 686.27,-201.63 679.66,-199.34"/>
</a>
</g>
</g>
<!-- Node3 -->
<g id="Node000003" class="node">
<title>Node3</title>
<g id="a_Node000003"><a xlink:href="../../d9/d6f/classIComparable.html" target="_top" xlink:title=" ">
<polygon fill="white" stroke="transparent" points="73,-935 0,-935 0,-886 73,-886 73,-935"/>
<text text-anchor="start" x="5.5" y="-922.5" font-family="Helvetica,sans-Serif" font-size="10.00">IComparable</text>
<text text-anchor="start" x="35" y="-907.5" font-family="Helvetica,sans-Serif" font-size="10.00"> </text>
<text text-anchor="start" x="35" y="-892.5" font-family="Helvetica,sans-Serif" font-size="10.00"> </text>
<polygon fill="#666666" stroke="#666666" points="0.5,-917.5 0.5,-917.5 73.5,-917.5 73.5,-917.5 0.5,-917.5"/>
<polygon fill="#666666" stroke="#666666" points="0.5,-902.5 0.5,-902.5 73.5,-902.5 73.5,-902.5 0.5,-902.5"/>
<polygon fill="none" stroke="#666666" points="0,-886 0,-935 73,-935 73,-886 0,-886"/>
</a>
</g>
</g>
<!-- Node3&#45;&gt;Node2 -->
<g id="edge2_Node000002_Node000003" class="edge">
<title>Node3&#45;&gt;Node2</title>
<g id="a_edge2_Node000002_Node000003"><a xlink:title=" ">
<path fill="none" stroke="#63b8ff" d="M47.37,-876.15C63.3,-831.81 96.81,-753.31 148.5,-704 250.02,-607.16 395.21,-533.43 492.75,-490.73"/>
<polygon fill="none" stroke="#63b8ff" points="43.97,-875.27 43.97,-885.86 50.58,-877.58 43.97,-875.27"/>
</a>
</g>
</g>
<!-- Node4 -->
<g id="Node000004" class="node">
<title>Node4</title>
<g id="a_Node000004"><a xlink:title=" ">
<polygon fill="white" stroke="transparent" points="216,-940.5 91,-940.5 91,-880.5 216,-880.5 216,-940.5"/>
<text text-anchor="start" x="96.5" y="-928.5" font-family="Helvetica,sans-Serif" font-size="10.00">readonly List&lt; Terraria.</text>
<text text-anchor="start" x="116" y="-917.5" font-family="Helvetica,sans-Serif" font-size="10.00">UI.UIElement &gt;</text>
<text text-anchor="start" x="152" y="-902.5" font-family="Helvetica,sans-Serif" font-size="10.00"> </text>
<text text-anchor="start" x="152" y="-887.5" font-family="Helvetica,sans-Serif" font-size="10.00"> </text>
<polygon fill="#666666" stroke="#666666" points="91.5,-912.5 91.5,-912.5 216.5,-912.5 216.5,-912.5 91.5,-912.5"/>
<polygon fill="#666666" stroke="#666666" points="91.5,-897.5 91.5,-897.5 216.5,-897.5 216.5,-897.5 91.5,-897.5"/>
<polygon fill="none" stroke="#666666" points="91,-880.5 91,-940.5 216,-940.5 216,-880.5 91,-880.5"/>
</a>
</g>
</g>
<!-- Node4&#45;&gt;Node2 -->
<g id="edge3_Node000002_Node000004" class="edge">
<title>Node4&#45;&gt;Node2</title>
<g id="a_edge3_Node000002_Node000004"><a xlink:title=" ">
<path fill="none" stroke="#63b8ff" d="M149.89,-880.28C146.2,-837.84 145.2,-758.31 180.5,-704 250.67,-596.03 384.16,-526.46 481.26,-487.71"/>
<polygon fill="none" stroke="#63b8ff" points="481.44,-487.64 485.57,-481.72 492.61,-483.25 488.49,-489.17 481.44,-487.64"/>
</a>
</g>
<text text-anchor="middle" x="209.5" y="-745.5" font-family="Helvetica,sans-Serif" font-size="10.00" fill="grey"> #Elements</text>
</g>
<!-- Node5 -->
<g id="Node000005" class="node">
<title>Node5</title>
<g id="a_Node000005"><a xlink:href="../../d8/d74/structTerraria_1_1UI_1_1StyleDimension.html" target="_top" xlink:title=" ">
<polygon fill="white" stroke="transparent" points="561,-1011 406,-1011 406,-810 561,-810 561,-1011"/>
<text text-anchor="start" x="418.5" y="-998.5" font-family="Helvetica,sans-Serif" font-size="10.00">Terraria.UI.StyleDimension</text>
<text text-anchor="start" x="410.5" y="-983.5" font-family="Helvetica,sans-Serif" font-size="10.00">+</text>
<text text-anchor="start" x="423.5" y="-983.5" font-family="Helvetica,sans-Serif" font-size="10.00">float Percent</text>
<text text-anchor="start" x="410.5" y="-968.5" font-family="Helvetica,sans-Serif" font-size="10.00">+</text>
<text text-anchor="start" x="423.5" y="-968.5" font-family="Helvetica,sans-Serif" font-size="10.00">StyleDimension(float</text>
<text text-anchor="start" x="423.5" y="-957.5" font-family="Helvetica,sans-Serif" font-size="10.00"> pixels, float precent)</text>
<text text-anchor="start" x="410.5" y="-942.5" font-family="Helvetica,sans-Serif" font-size="10.00">+</text>
<text text-anchor="start" x="423.5" y="-942.5" font-family="Helvetica,sans-Serif" font-size="10.00">void Set(float pixels,</text>
<text text-anchor="start" x="423.5" y="-931.5" font-family="Helvetica,sans-Serif" font-size="10.00"> float precent)</text>
<text text-anchor="start" x="410.5" y="-916.5" font-family="Helvetica,sans-Serif" font-size="10.00">+</text>
<text text-anchor="start" x="423.5" y="-916.5" font-family="Helvetica,sans-Serif" font-size="10.00">float GetValue(float</text>
<text text-anchor="start" x="423.5" y="-905.5" font-family="Helvetica,sans-Serif" font-size="10.00"> containerSize)</text>
<text text-anchor="start" x="410.5" y="-890.5" font-family="Helvetica,sans-Serif" font-size="10.00">+</text>
<text text-anchor="start" x="423.5" y="-890.5" font-family="Helvetica,sans-Serif" font-size="10.00">static StyleDimension</text>
<text text-anchor="start" x="423.5" y="-879.5" font-family="Helvetica,sans-Serif" font-size="10.00"> FromPixels(float pixels)</text>
<text text-anchor="start" x="410.5" y="-864.5" font-family="Helvetica,sans-Serif" font-size="10.00">+</text>
<text text-anchor="start" x="423.5" y="-864.5" font-family="Helvetica,sans-Serif" font-size="10.00">static StyleDimension</text>
<text text-anchor="start" x="423.5" y="-853.5" font-family="Helvetica,sans-Serif" font-size="10.00"> FromPercent(float percent)</text>
<text text-anchor="start" x="410.5" y="-838.5" font-family="Helvetica,sans-Serif" font-size="10.00">+</text>
<text text-anchor="start" x="423.5" y="-838.5" font-family="Helvetica,sans-Serif" font-size="10.00">static StyleDimension</text>
<text text-anchor="start" x="423.5" y="-827.5" font-family="Helvetica,sans-Serif" font-size="10.00"> FromPixelsAndPercent</text>
<text text-anchor="start" x="423.5" y="-816.5" font-family="Helvetica,sans-Serif" font-size="10.00">(float pixels, float percent)</text>
<polygon fill="#666666" stroke="#666666" points="406.5,-993.5 406.5,-993.5 561.5,-993.5 561.5,-993.5 406.5,-993.5"/>
<polygon fill="#666666" stroke="#666666" points="406.5,-978.5 406.5,-978.5 421.5,-978.5 421.5,-978.5 406.5,-978.5"/>
<polygon fill="#666666" stroke="#666666" points="421.5,-978.5 421.5,-978.5 561.5,-978.5 561.5,-978.5 421.5,-978.5"/>
<polygon fill="none" stroke="#666666" points="406,-810 406,-1011 561,-1011 561,-810 406,-810"/>
</a>
</g>
</g>
<!-- Node5&#45;&gt;Node2 -->
<g id="edge4_Node000002_Node000005" class="edge">
<title>Node5&#45;&gt;Node2</title>
<g id="a_edge4_Node000002_Node000005"><a xlink:title=" ">
<path fill="none" stroke="#63b8ff" d="M499.73,-809.75C505.81,-776.01 513.26,-738.22 521.5,-704 521.98,-701.99 522.47,-699.98 522.97,-697.96"/>
<polygon fill="none" stroke="#63b8ff" points="522.97,-697.96 520.54,-691.17 525.87,-686.31 528.3,-693.1 522.97,-697.96"/>
</a>
</g>
<text text-anchor="middle" x="552.5" y="-784" font-family="Helvetica,sans-Serif" font-size="10.00" fill="grey"> +Height</text>
<text text-anchor="middle" x="552.5" y="-773" font-family="Helvetica,sans-Serif" font-size="10.00" fill="grey">+Left</text>
<text text-anchor="middle" x="552.5" y="-762" font-family="Helvetica,sans-Serif" font-size="10.00" fill="grey">+MaxHeight</text>
<text text-anchor="middle" x="552.5" y="-751" font-family="Helvetica,sans-Serif" font-size="10.00" fill="grey">+MaxWidth</text>
<text text-anchor="middle" x="552.5" y="-740" font-family="Helvetica,sans-Serif" font-size="10.00" fill="grey">+MinHeight</text>
<text text-anchor="middle" x="552.5" y="-729" font-family="Helvetica,sans-Serif" font-size="10.00" fill="grey">+MinWidth</text>
<text text-anchor="middle" x="552.5" y="-718" font-family="Helvetica,sans-Serif" font-size="10.00" fill="grey">+Top</text>
<text text-anchor="middle" x="552.5" y="-707" font-family="Helvetica,sans-Serif" font-size="10.00" fill="grey">+Width</text>
</g>
<!-- Node6 -->
<g id="Node000006" class="node">
<title>Node6</title>
<g id="a_Node000006"><a xlink:title=" ">
<polygon fill="white" stroke="transparent" points="300.5,-1140 262.5,-1140 262.5,-1091 300.5,-1091 300.5,-1140"/>
<text text-anchor="start" x="267.5" y="-1127.5" font-family="Helvetica,sans-Serif" font-size="10.00">static</text>
<text text-anchor="start" x="279.5" y="-1112.5" font-family="Helvetica,sans-Serif" font-size="10.00"> </text>
<text text-anchor="start" x="279.5" y="-1097.5" font-family="Helvetica,sans-Serif" font-size="10.00"> </text>
<polygon fill="#666666" stroke="#666666" points="262.5,-1122.5 262.5,-1122.5 300.5,-1122.5 300.5,-1122.5 262.5,-1122.5"/>
<polygon fill="#666666" stroke="#666666" points="262.5,-1107.5 262.5,-1107.5 300.5,-1107.5 300.5,-1107.5 262.5,-1107.5"/>
<polygon fill="none" stroke="#666666" points="262.5,-1091 262.5,-1140 300.5,-1140 300.5,-1091 262.5,-1091"/>
</a>
</g>
</g>
<!-- Node6&#45;&gt;Node2 -->
<g id="edge12_Node000002_Node000006" class="edge">
<title>Node6&#45;&gt;Node2</title>
<g id="a_edge12_Node000002_Node000006"><a xlink:title=" ">
<path fill="none" stroke="#63b8ff" d="M273.35,-1090.92C256.57,-1038.34 222.81,-908.36 261.5,-810 306,-696.88 404.49,-598.19 483.39,-532.73"/>
<polygon fill="none" stroke="#63b8ff" points="483.64,-532.52 485.74,-525.62 492.91,-524.91 490.82,-531.81 483.64,-532.52"/>
</a>
</g>
<text text-anchor="start" x="261.5" y="-919" font-family="Helvetica,sans-Serif" font-size="10.00" fill="grey"> &#45;OverflowHiddenRasterizer</text>
<text text-anchor="middle" x="329" y="-908" font-family="Helvetica,sans-Serif" font-size="10.00" fill="grey">State</text>
<text text-anchor="middle" x="329" y="-897" font-family="Helvetica,sans-Serif" font-size="10.00" fill="grey">&#45;_idCounter</text>
</g>
<!-- Node6&#45;&gt;Node5 -->
<g id="edge5_Node000005_Node000006" class="edge">
<title>Node6&#45;&gt;Node5</title>
<g id="a_edge5_Node000005_Node000006"><a xlink:title=" ">
<path fill="none" stroke="#63b8ff" d="M300.56,-1097.31C322.8,-1077.08 360.49,-1042.29 391.5,-1011 393.42,-1009.07 395.35,-1007.1 397.29,-1005.12"/>
<polygon fill="none" stroke="#63b8ff" points="397.5,-1004.91 398.8,-997.82 405.85,-996.29 404.54,-1003.38 397.5,-1004.91"/>
</a>
</g>
<text text-anchor="middle" x="393" y="-1054" font-family="Helvetica,sans-Serif" font-size="10.00" fill="grey"> +Empty</text>
<text text-anchor="middle" x="393" y="-1043" font-family="Helvetica,sans-Serif" font-size="10.00" fill="grey">+Fill</text>
</g>
<!-- Node7 -->
<g id="Node000007" class="node">
<title>Node7</title>
<g id="a_Node000007"><a xlink:title=" ">
<polygon fill="white" stroke="transparent" points="613.5,-1140 581.5,-1140 581.5,-1091 613.5,-1091 613.5,-1140"/>
<text text-anchor="start" x="586.5" y="-1127.5" font-family="Helvetica,sans-Serif" font-size="10.00">float</text>
<text text-anchor="start" x="595.5" y="-1112.5" font-family="Helvetica,sans-Serif" font-size="10.00"> </text>
<text text-anchor="start" x="595.5" y="-1097.5" font-family="Helvetica,sans-Serif" font-size="10.00"> </text>
<polygon fill="#666666" stroke="#666666" points="581.5,-1122.5 581.5,-1122.5 613.5,-1122.5 613.5,-1122.5 581.5,-1122.5"/>
<polygon fill="#666666" stroke="#666666" points="581.5,-1107.5 581.5,-1107.5 613.5,-1107.5 613.5,-1107.5 581.5,-1107.5"/>
<polygon fill="none" stroke="#666666" points="581.5,-1091 581.5,-1140 613.5,-1140 613.5,-1091 581.5,-1091"/>
</a>
</g>
</g>
<!-- Node7&#45;&gt;Node2 -->
<g id="edge9_Node000002_Node000007" class="edge">
<title>Node7&#45;&gt;Node2</title>
<g id="a_edge9_Node000002_Node000007"><a xlink:title=" ">
<path fill="none" stroke="#63b8ff" d="M597.5,-1090.81C597.5,-1027.86 597.5,-850.78 597.5,-698.54"/>
<polygon fill="none" stroke="#63b8ff" points="597.5,-698.22 593.5,-692.22 597.5,-686.22 601.5,-692.22 597.5,-698.22"/>
</a>
</g>
<text text-anchor="middle" x="639" y="-963" font-family="Helvetica,sans-Serif" font-size="10.00" fill="grey"> +HAlign</text>
<text text-anchor="middle" x="639" y="-952" font-family="Helvetica,sans-Serif" font-size="10.00" fill="grey">+MarginBottom</text>
<text text-anchor="middle" x="639" y="-941" font-family="Helvetica,sans-Serif" font-size="10.00" fill="grey">+MarginLeft</text>
<text text-anchor="middle" x="639" y="-930" font-family="Helvetica,sans-Serif" font-size="10.00" fill="grey">+MarginRight</text>
<text text-anchor="middle" x="639" y="-919" font-family="Helvetica,sans-Serif" font-size="10.00" fill="grey">+MarginTop</text>
<text text-anchor="middle" x="639" y="-908" font-family="Helvetica,sans-Serif" font-size="10.00" fill="grey">+PaddingBottom</text>
<text text-anchor="middle" x="639" y="-897" font-family="Helvetica,sans-Serif" font-size="10.00" fill="grey">+PaddingLeft</text>
<text text-anchor="middle" x="639" y="-886" font-family="Helvetica,sans-Serif" font-size="10.00" fill="grey">+PaddingRight</text>
<text text-anchor="middle" x="639" y="-875" font-family="Helvetica,sans-Serif" font-size="10.00" fill="grey">+PaddingTop</text>
<text text-anchor="middle" x="639" y="-864" font-family="Helvetica,sans-Serif" font-size="10.00" fill="grey">+VAlign</text>
<text text-anchor="middle" x="639" y="-853" font-family="Helvetica,sans-Serif" font-size="10.00" fill="grey">...</text>
</g>
<!-- Node7&#45;&gt;Node5 -->
<g id="edge6_Node000005_Node000007" class="edge">
<title>Node7&#45;&gt;Node5</title>
<g id="a_edge6_Node000005_Node000007"><a xlink:title=" ">
<path fill="none" stroke="#63b8ff" d="M581.3,-1107C567.8,-1099.98 548.99,-1088.29 537.5,-1073 526.23,-1058 517.23,-1040.51 510.07,-1022.69"/>
<polygon fill="none" stroke="#63b8ff" points="509.99,-1022.48 504.12,-1018.29 505.73,-1011.26 511.6,-1015.45 509.99,-1022.48"/>
</a>
</g>
<text text-anchor="middle" x="560.5" y="-1054" font-family="Helvetica,sans-Serif" font-size="10.00" fill="grey"> +Pixels</text>
<text text-anchor="middle" x="560.5" y="-1043" font-family="Helvetica,sans-Serif" font-size="10.00" fill="grey">+Precent</text>
</g>
<!-- Node10 -->
<g id="Node000010" class="node">
<title>Node10</title>
<g id="a_Node000010"><a xlink:href="../../d6/d3a/structTerraria_1_1UI_1_1CalculatedStyle.html" target="_top" xlink:title=" ">
<polygon fill="white" stroke="transparent" points="838.5,-968.5 698.5,-968.5 698.5,-852.5 838.5,-852.5 838.5,-968.5"/>
<text text-anchor="start" x="703.5" y="-956.5" font-family="Helvetica,sans-Serif" font-size="10.00">Terraria.UI.CalculatedStyle</text>
<text text-anchor="start" x="766.5" y="-941.5" font-family="Helvetica,sans-Serif" font-size="10.00"> </text>
<text text-anchor="start" x="702.5" y="-926.5" font-family="Helvetica,sans-Serif" font-size="10.00">+</text>
<text text-anchor="start" x="715.5" y="-926.5" font-family="Helvetica,sans-Serif" font-size="10.00">CalculatedStyle(float</text>
<text text-anchor="start" x="715.5" y="-915.5" font-family="Helvetica,sans-Serif" font-size="10.00"> x, float y, float width,</text>
<text text-anchor="start" x="715.5" y="-904.5" font-family="Helvetica,sans-Serif" font-size="10.00"> float height)</text>
<text text-anchor="start" x="702.5" y="-889.5" font-family="Helvetica,sans-Serif" font-size="10.00">+</text>
<text text-anchor="start" x="715.5" y="-889.5" font-family="Helvetica,sans-Serif" font-size="10.00">Rectangle ToRectangle()</text>
<text text-anchor="start" x="702.5" y="-874.5" font-family="Helvetica,sans-Serif" font-size="10.00">+</text>
<text text-anchor="start" x="715.5" y="-874.5" font-family="Helvetica,sans-Serif" font-size="10.00">Vector2 Position()</text>
<text text-anchor="start" x="702.5" y="-859.5" font-family="Helvetica,sans-Serif" font-size="10.00">+</text>
<text text-anchor="start" x="715.5" y="-859.5" font-family="Helvetica,sans-Serif" font-size="10.00">Vector2 Center()</text>
<polygon fill="#666666" stroke="#666666" points="698.5,-951.5 698.5,-951.5 838.5,-951.5 838.5,-951.5 698.5,-951.5"/>
<polygon fill="#666666" stroke="#666666" points="698.5,-936.5 698.5,-936.5 838.5,-936.5 838.5,-936.5 698.5,-936.5"/>
<polygon fill="none" stroke="#666666" points="698.5,-852.5 698.5,-968.5 838.5,-968.5 838.5,-852.5 698.5,-852.5"/>
</a>
</g>
</g>
<!-- Node7&#45;&gt;Node10 -->
<g id="edge11_Node000010_Node000007" class="edge">
<title>Node7&#45;&gt;Node10</title>
<g id="a_edge11_Node000010_Node000007"><a xlink:title=" ">
<path fill="none" stroke="#63b8ff" d="M613.59,-1095.4C636.03,-1068.76 677.88,-1019.08 712.42,-978.07"/>
<polygon fill="none" stroke="#63b8ff" points="712.62,-977.84 713.43,-970.67 720.35,-968.66 719.55,-975.82 712.62,-977.84"/>
</a>
</g>
<text text-anchor="middle" x="690.5" y="-1065" font-family="Helvetica,sans-Serif" font-size="10.00" fill="grey"> +Height</text>
<text text-anchor="middle" x="690.5" y="-1054" font-family="Helvetica,sans-Serif" font-size="10.00" fill="grey">+Width</text>
<text text-anchor="middle" x="690.5" y="-1043" font-family="Helvetica,sans-Serif" font-size="10.00" fill="grey">+X</text>
<text text-anchor="middle" x="690.5" y="-1032" font-family="Helvetica,sans-Serif" font-size="10.00" fill="grey">+Y</text>
</g>
<!-- Node8 -->
<g id="Node000008" class="node">
<title>Node8</title>
<g id="a_Node000008"><a xlink:title=" ">
<polygon fill="white" stroke="transparent" points="888.5,-935 856.5,-935 856.5,-886 888.5,-886 888.5,-935"/>
<text text-anchor="start" x="861.5" y="-922.5" font-family="Helvetica,sans-Serif" font-size="10.00">bool</text>
<text text-anchor="start" x="870.5" y="-907.5" font-family="Helvetica,sans-Serif" font-size="10.00"> </text>
<text text-anchor="start" x="870.5" y="-892.5" font-family="Helvetica,sans-Serif" font-size="10.00"> </text>
<polygon fill="#666666" stroke="#666666" points="856.5,-917.5 856.5,-917.5 888.5,-917.5 888.5,-917.5 856.5,-917.5"/>
<polygon fill="#666666" stroke="#666666" points="856.5,-902.5 856.5,-902.5 888.5,-902.5 888.5,-902.5 856.5,-902.5"/>
<polygon fill="none" stroke="#666666" points="856.5,-886 856.5,-935 888.5,-935 888.5,-886 856.5,-886"/>
</a>
</g>
</g>
<!-- Node8&#45;&gt;Node2 -->
<g id="edge7_Node000002_Node000008" class="edge">
<title>Node8&#45;&gt;Node2</title>
<g id="a_edge7_Node000002_Node000008"><a xlink:title=" ">
<path fill="none" stroke="#63b8ff" d="M872.8,-885.93C871.8,-863.58 866.8,-830.48 847.5,-810 829.28,-790.66 808.81,-811.25 790.5,-792 762.64,-762.71 795.28,-733.36 767.5,-704 749.53,-685.01 731.21,-703.17 711.5,-686 711.4,-685.92 711.31,-685.83 711.21,-685.75"/>
<polygon fill="none" stroke="#63b8ff" points="711.23,-685.77 704.11,-684.62 702.43,-677.6 709.55,-678.75 711.23,-685.77"/>
</a>
</g>
<text text-anchor="middle" x="857" y="-762" font-family="Helvetica,sans-Serif" font-size="10.00" fill="grey"> +IgnoresMouseInteraction</text>
<text text-anchor="middle" x="857" y="-751" font-family="Helvetica,sans-Serif" font-size="10.00" fill="grey">+OverflowHidden</text>
<text text-anchor="middle" x="857" y="-740" font-family="Helvetica,sans-Serif" font-size="10.00" fill="grey">+UseImmediateMode</text>
<text text-anchor="middle" x="857" y="-729" font-family="Helvetica,sans-Serif" font-size="10.00" fill="grey">&#45;_isInitialized</text>
</g>
<!-- Node9 -->
<g id="Node000009" class="node">
<title>Node9</title>
<g id="a_Node000009"><a xlink:title=" ">
<polygon fill="white" stroke="transparent" points="984,-935 907,-935 907,-886 984,-886 984,-935"/>
<text text-anchor="start" x="912.5" y="-922.5" font-family="Helvetica,sans-Serif" font-size="10.00">SamplerState</text>
<text text-anchor="start" x="944" y="-907.5" font-family="Helvetica,sans-Serif" font-size="10.00"> </text>
<text text-anchor="start" x="944" y="-892.5" font-family="Helvetica,sans-Serif" font-size="10.00"> </text>
<polygon fill="#666666" stroke="#666666" points="907.5,-917.5 907.5,-917.5 984.5,-917.5 984.5,-917.5 907.5,-917.5"/>
<polygon fill="#666666" stroke="#666666" points="907.5,-902.5 907.5,-902.5 984.5,-902.5 984.5,-902.5 907.5,-902.5"/>
<polygon fill="none" stroke="#666666" points="907,-886 907,-935 984,-935 984,-886 907,-886"/>
</a>
</g>
</g>
<!-- Node9&#45;&gt;Node2 -->
<g id="edge8_Node000002_Node000009" class="edge">
<title>Node9&#45;&gt;Node2</title>
<g id="a_edge8_Node000002_Node000009"><a xlink:title=" ">
<path fill="none" stroke="#63b8ff" d="M946.56,-885.72C948.17,-837.08 948.76,-728.72 923.5,-704 891.95,-673.13 768.46,-707.6 712.93,-684.83"/>
<polygon fill="none" stroke="#63b8ff" points="712.75,-684.73 705.57,-685.42 702.17,-679.06 709.35,-678.37 712.75,-684.73"/>
</a>
</g>
<text text-anchor="middle" x="1004.5" y="-745.5" font-family="Helvetica,sans-Serif" font-size="10.00" fill="grey"> +OverrideSamplerState</text>
</g>
<!-- Node10&#45;&gt;Node2 -->
<g id="edge10_Node000002_Node000010" class="edge">
<title>Node10&#45;&gt;Node2</title>
<g id="a_edge10_Node000002_Node000010"><a xlink:title=" ">
<path fill="none" stroke="#63b8ff" d="M718.75,-852.31C699.62,-829.33 680.83,-805.19 674.5,-792 660.38,-762.6 648.8,-730.53 639.31,-698.19"/>
<polygon fill="none" stroke="#63b8ff" points="639.2,-697.8 633.71,-693.13 635.91,-686.26 641.4,-690.93 639.2,-697.8"/>
</a>
</g>
<text text-anchor="middle" x="721" y="-756.5" font-family="Helvetica,sans-Serif" font-size="10.00" fill="grey"> &#45;_dimensions</text>
<text text-anchor="middle" x="721" y="-745.5" font-family="Helvetica,sans-Serif" font-size="10.00" fill="grey">&#45;_innerDimensions</text>
<text text-anchor="middle" x="721" y="-734.5" font-family="Helvetica,sans-Serif" font-size="10.00" fill="grey">&#45;_outerDimensions</text>
</g>
<!-- Node11 -->
<g id="Node000011" class="node">
<title>Node11</title>
<g id="a_Node000011"><a xlink:href="../../da/d90/classTerraria_1_1UI_1_1SnapPoint.html" target="_top" xlink:title=" ">
<polygon fill="white" stroke="transparent" points="1173,-985 1004,-985 1004,-836 1173,-836 1173,-985"/>
<text text-anchor="start" x="1037.5" y="-972.5" font-family="Helvetica,sans-Serif" font-size="10.00">Terraria.UI.SnapPoint</text>
<text text-anchor="start" x="1008.5" y="-957.5" font-family="Helvetica,sans-Serif" font-size="10.00">+</text>
<text text-anchor="start" x="1021.5" y="-957.5" font-family="Helvetica,sans-Serif" font-size="10.00">int Id</text>
<text text-anchor="start" x="1008.5" y="-942.5" font-family="Helvetica,sans-Serif" font-size="10.00">+</text>
<text text-anchor="start" x="1021.5" y="-942.5" font-family="Helvetica,sans-Serif" font-size="10.00">Vector2 Position</text>
<text text-anchor="start" x="1008.5" y="-927.5" font-family="Helvetica,sans-Serif" font-size="10.00">+</text>
<text text-anchor="start" x="1021.5" y="-927.5" font-family="Helvetica,sans-Serif" font-size="10.00">SnapPoint(string name,</text>
<text text-anchor="start" x="1021.5" y="-916.5" font-family="Helvetica,sans-Serif" font-size="10.00"> int id, Vector2 anchor,</text>
<text text-anchor="start" x="1021.5" y="-905.5" font-family="Helvetica,sans-Serif" font-size="10.00"> Vector2 offset)</text>
<text text-anchor="start" x="1008.5" y="-890.5" font-family="Helvetica,sans-Serif" font-size="10.00">+</text>
<text text-anchor="start" x="1021.5" y="-890.5" font-family="Helvetica,sans-Serif" font-size="10.00">void Calculate(UIElement</text>
<text text-anchor="start" x="1021.5" y="-879.5" font-family="Helvetica,sans-Serif" font-size="10.00"> element)</text>
<text text-anchor="start" x="1008.5" y="-864.5" font-family="Helvetica,sans-Serif" font-size="10.00">+</text>
<text text-anchor="start" x="1021.5" y="-864.5" font-family="Helvetica,sans-Serif" font-size="10.00">void ThisIsAHackThatChanges</text>
<text text-anchor="start" x="1021.5" y="-853.5" font-family="Helvetica,sans-Serif" font-size="10.00">TheSnapPointsInfo(Vector2</text>
<text text-anchor="start" x="1021.5" y="-842.5" font-family="Helvetica,sans-Serif" font-size="10.00"> anchor, Vector2 offset, int id)</text>
<polygon fill="#666666" stroke="#666666" points="1004.5,-967.5 1004.5,-967.5 1173.5,-967.5 1173.5,-967.5 1004.5,-967.5"/>
<polygon fill="#666666" stroke="#666666" points="1004.5,-937.5 1004.5,-937.5 1019.5,-937.5 1019.5,-937.5 1004.5,-937.5"/>
<polygon fill="#666666" stroke="#666666" points="1019.5,-937.5 1019.5,-937.5 1173.5,-937.5 1173.5,-937.5 1019.5,-937.5"/>
<polygon fill="none" stroke="#666666" points="1004,-836 1004,-985 1173,-985 1173,-836 1004,-836"/>
</a>
</g>
</g>
<!-- Node11&#45;&gt;Node2 -->
<g id="edge13_Node000002_Node000011" class="edge">
<title>Node11&#45;&gt;Node2</title>
<g id="a_edge13_Node000002_Node000011"><a xlink:title=" ">
<path fill="none" stroke="#63b8ff" d="M1102.12,-835.98C1105.79,-791.38 1101.31,-736.91 1066.5,-704 1039.65,-678.61 781.12,-704.11 713.24,-684.04"/>
<polygon fill="none" stroke="#63b8ff" points="713.08,-683.97 705.99,-685.26 702.07,-679.21 709.16,-677.92 713.08,-683.97"/>
</a>
</g>
<text text-anchor="middle" x="1132" y="-745.5" font-family="Helvetica,sans-Serif" font-size="10.00" fill="grey"> &#45;_snapPoint</text>
</g>
<!-- Node12 -->
<g id="Node000012" class="node">
<title>Node12</title>
<g id="a_Node000012"><a xlink:title=" ">
<polygon fill="white" stroke="transparent" points="1075.5,-1140 1037.5,-1140 1037.5,-1091 1075.5,-1091 1075.5,-1140"/>
<text text-anchor="start" x="1042.5" y="-1127.5" font-family="Helvetica,sans-Serif" font-size="10.00">string</text>
<text text-anchor="start" x="1054.5" y="-1112.5" font-family="Helvetica,sans-Serif" font-size="10.00"> </text>
<text text-anchor="start" x="1054.5" y="-1097.5" font-family="Helvetica,sans-Serif" font-size="10.00"> </text>
<polygon fill="#666666" stroke="#666666" points="1037.5,-1122.5 1037.5,-1122.5 1075.5,-1122.5 1075.5,-1122.5 1037.5,-1122.5"/>
<polygon fill="#666666" stroke="#666666" points="1037.5,-1107.5 1037.5,-1107.5 1075.5,-1107.5 1075.5,-1107.5 1037.5,-1107.5"/>
<polygon fill="none" stroke="#666666" points="1037.5,-1091 1037.5,-1140 1075.5,-1140 1075.5,-1091 1037.5,-1091"/>
</a>
</g>
</g>
<!-- Node12&#45;&gt;Node11 -->
<g id="edge14_Node000011_Node000012" class="edge">
<title>Node12&#45;&gt;Node11</title>
<g id="a_edge14_Node000011_Node000012"><a xlink:title=" ">
<path fill="none" stroke="#63b8ff" d="M1055.22,-1090.8C1054.67,-1073.57 1054.69,-1049.74 1057.5,-1029 1058.91,-1018.6 1060.95,-1007.8 1063.31,-997.15"/>
<polygon fill="none" stroke="#63b8ff" points="1063.36,-996.9 1060.84,-990.15 1066.1,-985.22 1068.63,-991.97 1063.36,-996.9"/>
</a>
</g>
<text text-anchor="middle" x="1078" y="-1048.5" font-family="Helvetica,sans-Serif" font-size="10.00" fill="grey"> +Name</text>
</g>
<!-- Node13 -->
<g id="Node000013" class="node">
<title>Node13</title>
<g id="a_Node000013"><a xlink:title=" ">
<polygon fill="white" stroke="transparent" points="1144,-1140 1097,-1140 1097,-1091 1144,-1091 1144,-1140"/>
<text text-anchor="start" x="1102.5" y="-1127.5" font-family="Helvetica,sans-Serif" font-size="10.00">Vector2</text>
<text text-anchor="start" x="1119" y="-1112.5" font-family="Helvetica,sans-Serif" font-size="10.00"> </text>
<text text-anchor="start" x="1119" y="-1097.5" font-family="Helvetica,sans-Serif" font-size="10.00"> </text>
<polygon fill="#666666" stroke="#666666" points="1097.5,-1122.5 1097.5,-1122.5 1144.5,-1122.5 1144.5,-1122.5 1097.5,-1122.5"/>
<polygon fill="#666666" stroke="#666666" points="1097.5,-1107.5 1097.5,-1107.5 1144.5,-1107.5 1144.5,-1107.5 1097.5,-1107.5"/>
<polygon fill="none" stroke="#666666" points="1097,-1091 1097,-1140 1144,-1140 1144,-1091 1097,-1091"/>
</a>
</g>
</g>
<!-- Node13&#45;&gt;Node11 -->
<g id="edge15_Node000011_Node000013" class="edge">
<title>Node13&#45;&gt;Node11</title>
<g id="a_edge15_Node000011_Node000013"><a xlink:title=" ">
<path fill="none" stroke="#63b8ff" d="M1116.77,-1090.82C1113.12,-1067.71 1107.36,-1031.15 1101.99,-997.05"/>
<polygon fill="none" stroke="#63b8ff" points="1101.97,-996.98 1097.09,-991.67 1100.11,-985.12 1104.99,-990.43 1101.97,-996.98"/>
</a>
</g>
<text text-anchor="middle" x="1136.5" y="-1054" font-family="Helvetica,sans-Serif" font-size="10.00" fill="grey"> &#45;_anchor</text>
<text text-anchor="middle" x="1136.5" y="-1043" font-family="Helvetica,sans-Serif" font-size="10.00" fill="grey">&#45;_offset</text>
</g>
<!-- Node14 -->
<g id="Node000014" class="node">
<title>Node14</title>
<g id="a_Node000014"><a xlink:title=" ">
<polygon fill="white" stroke="transparent" points="743,-472.5 720,-472.5 720,-423.5 743,-423.5 743,-472.5"/>
<text text-anchor="start" x="725.5" y="-460" font-family="Helvetica,sans-Serif" font-size="10.00">int</text>
<text text-anchor="start" x="730" y="-445" font-family="Helvetica,sans-Serif" font-size="10.00"> </text>
<text text-anchor="start" x="730" y="-430" font-family="Helvetica,sans-Serif" font-size="10.00"> </text>
<polygon fill="#666666" stroke="#666666" points="720.5,-455 720.5,-455 743.5,-455 743.5,-455 720.5,-455"/>
<polygon fill="#666666" stroke="#666666" points="720.5,-440 720.5,-440 743.5,-440 743.5,-440 720.5,-440"/>
<polygon fill="none" stroke="#666666" points="720,-423.5 720,-472.5 743,-472.5 743,-423.5 720,-423.5"/>
</a>
</g>
</g>
<!-- Node14&#45;&gt;Node1 -->
<g id="edge16_Node000001_Node000014" class="edge">
<title>Node14&#45;&gt;Node1</title>
<g id="a_edge16_Node000001_Node000014"><a xlink:title=" ">
<path fill="none" stroke="#63b8ff" d="M731.5,-423.4C731.5,-366.5 731.5,-219.91 731.5,-131.43"/>
<polygon fill="none" stroke="#63b8ff" points="731.5,-131.34 727.5,-125.34 731.5,-119.34 735.5,-125.34 731.5,-131.34"/>
</a>
</g>
<text text-anchor="middle" x="785" y="-184" font-family="Helvetica,sans-Serif" font-size="10.00" fill="grey"> &#45;SEPARATOR_HEIGHT</text>
<text text-anchor="middle" x="785" y="-173" font-family="Helvetica,sans-Serif" font-size="10.00" fill="grey">&#45;SIZE_PER_EMOTE</text>
<text text-anchor="middle" x="785" y="-162" font-family="Helvetica,sans-Serif" font-size="10.00" fill="grey">&#45;TITLE_HEIGHT</text>
<text text-anchor="middle" x="785" y="-151" font-family="Helvetica,sans-Serif" font-size="10.00" fill="grey">&#45;_groupIndex</text>
<text text-anchor="middle" x="785" y="-140" font-family="Helvetica,sans-Serif" font-size="10.00" fill="grey">&#45;_maxEmotesPerRow</text>
</g>
<!-- Node15 -->
<g id="Node000015" class="node">
<title>Node15</title>
<g id="a_Node000015"><a xlink:title=" ">
<polygon fill="white" stroke="transparent" points="916.5,-472.5 806.5,-472.5 806.5,-423.5 916.5,-423.5 916.5,-472.5"/>
<text text-anchor="start" x="811.5" y="-460" font-family="Helvetica,sans-Serif" font-size="10.00">Asset&lt; Texture2D &gt;</text>
<text text-anchor="start" x="859.5" y="-445" font-family="Helvetica,sans-Serif" font-size="10.00"> </text>
<text text-anchor="start" x="859.5" y="-430" font-family="Helvetica,sans-Serif" font-size="10.00"> </text>
<polygon fill="#666666" stroke="#666666" points="806.5,-455 806.5,-455 916.5,-455 916.5,-455 806.5,-455"/>
<polygon fill="#666666" stroke="#666666" points="806.5,-440 806.5,-440 916.5,-440 916.5,-440 806.5,-440"/>
<polygon fill="none" stroke="#666666" points="806.5,-423.5 806.5,-472.5 916.5,-472.5 916.5,-423.5 806.5,-423.5"/>
</a>
</g>
</g>
<!-- Node15&#45;&gt;Node1 -->
<g id="edge17_Node000001_Node000015" class="edge">
<title>Node15&#45;&gt;Node1</title>
<g id="a_edge17_Node000001_Node000015"><a xlink:title=" ">
<path fill="none" stroke="#63b8ff" d="M866.26,-423.31C875.92,-368.71 892.7,-231.51 839.5,-137 837.95,-134.24 836.25,-131.56 834.42,-128.95"/>
<polygon fill="none" stroke="#63b8ff" points="834.22,-128.69 827.37,-126.45 826.81,-119.26 833.66,-121.5 834.22,-128.69"/>
</a>
</g>
<text text-anchor="middle" x="889" y="-162" font-family="Helvetica,sans-Serif" font-size="10.00" fill="grey"> &#45;_tempTex</text>
</g>
</g>
</svg>
